<svg xmlns="http://www.w3.org/2000/svg" width="8" height="12" viewBox="0 0 8 12"><g><g transform="rotate(-180 4.5 6.5)"><path fill="#91bf3e" d="M3.601 6.893l3.835-3.832a.721.721 0 0 0 0-1.023.728.728 0 0 0-1.026 0L2.066 6.38a.723.723 0 0 0-.022.999l4.363 4.372a.724.724 0 0 0 .513.21.724.724 0 0 0 .513-1.233z"/><path fill="none" stroke="#91bf3e" stroke-miterlimit="20" d="M3.601 6.893v0l3.835-3.832a.721.721 0 0 0 0-1.023.728.728 0 0 0-1.026 0L2.066 6.38a.723.723 0 0 0-.022.999l4.363 4.372a.724.724 0 0 0 .513.21.724.724 0 0 0 .513-1.233z"/></g></g></svg>