<svg width="54" height="48" fill="none" xmlns="http://www.w3.org/2000/svg"><g filter="url(#filter0_d)"><path d="M15.667 24.787l.347 1.2c1.413.106 4.757-.123 6.4-.507l.16-1.173" stroke="#EBE0F1" stroke-linecap="round" stroke-linejoin="round"/></g><g filter="url(#filter1_d)"><path d="M24.744 24.566l.24 1.067c1.225.167 4.15.141 5.6-.108l.201-1.017" stroke="#EBE0F1" stroke-linecap="round" stroke-linejoin="round"/></g><g filter="url(#filter2_d)"><path d="M31.942 24.345l.079 1.09c1.187.346 4.084.752 5.556.719l.348-.976" stroke="#EBE0F1" stroke-linecap="round" stroke-linejoin="round"/></g><g filter="url(#filter3_d)"><path d="M30.475 27.103c.725-.069 2.431-.132 3.45.167" stroke="#EBE0F1" stroke-linecap="round" stroke-linejoin="round"/></g><g filter="url(#filter4_d)"><path d="M15.187 25.853c-.56.258-1.782 1.179-2.187 2.8.969-.666 3.499-1.968 5.867-1.84" stroke="#EBE0F1" stroke-linecap="round" stroke-linejoin="round"/></g><g filter="url(#filter5_d)"><path d="M38.813 26.227c.56.257 1.782 1.178 2.187 2.8-.969-.667-3.499-1.968-5.867-1.84" stroke="#EBE0F1" stroke-linecap="round" stroke-linejoin="round"/></g><g filter="url(#filter6_d)"><path d="M25.96 27.16c.542.355 1.227 1.253 1.467 2.48.88-.56 1.818-1.419 2.053-2.72" stroke="#EBE0F1" stroke-linecap="round" stroke-linejoin="round"/></g><g filter="url(#filter7_d)"><path d="M14.813 20.733c1.115-2.36 4.52-7.758 11.31-7.733 1.13.004 2.156.113 3.09.302m8.586 7.431c-.382-1.376-2.085-5.238-6.773-6.926" stroke="#EBE0F1" stroke-linecap="round" stroke-linejoin="round"/></g><g filter="url(#filter8_d)"><path d="M14.387 24.044c.827 0 1.01-2.031 2.251-2.031 1.24 0 .827 2.03 2.573 2.03s1.608-2.03 3.032-2.03c1.425 0 1.333 2.03 2.849 2.03 1.516 0 1.332-2.03 2.757-2.03 1.424 0 1.01 2.03 2.619 2.03 1.7 0 1.056-2.03 2.665-2.03 1.608 0 1.332 2.03 2.986 2.03 1.838 0 .551-2.03 2.481-2.03m-23.388 9.512c.077 1.585.507 2.947 2.844 3.277 5.9.179 17.786.286 18.573-.035 1.01-.41 1.24-.824 1.605-3.242" stroke="#EBE0F1" stroke-linecap="round" stroke-linejoin="round"/></g><g filter="url(#filter9_d)"><path d="M14.653 28.787c-.658.55-1.056 1.626 2.613 1.52 4.587-.134 20.32 1.04 21.654 0 .355-.231.853-.859 0-1.52" stroke="#EBE0F1" stroke-linecap="round" stroke-linejoin="round"/></g><g filter="url(#filter10_d)"><path d="M20.146 26.924c.918-.117 3.164-.251 4.802.152" stroke="#EBE0F1" stroke-linecap="round" stroke-linejoin="round"/></g><defs><filter id="filter0_d" x="3.167" y="11.807" width="31.907" height="26.706" filterUnits="userSpaceOnUse" color-interpolation-filters="sRGB"><feFlood flood-opacity="0" result="BackgroundImageFix"/><feColorMatrix in="SourceAlpha" values="0 0 0 0 0 0 0 0 0 0 0 0 0 0 0 0 0 0 127 0"/><feOffset/><feGaussianBlur stdDeviation="6"/><feColorMatrix values="0 0 0 0 0.701961 0 0 0 0 0.27451 0 0 0 0 0.909804 0 0 0 1 0"/><feBlend in2="BackgroundImageFix" result="effect1_dropShadow"/><feBlend in="SourceGraphic" in2="effect1_dropShadow" result="shape"/></filter><filter id="filter1_d" x="12.244" y="12.008" width="31.041" height="26.231" filterUnits="userSpaceOnUse" color-interpolation-filters="sRGB"><feFlood flood-opacity="0" result="BackgroundImageFix"/><feColorMatrix in="SourceAlpha" values="0 0 0 0 0 0 0 0 0 0 0 0 0 0 0 0 0 0 127 0"/><feOffset/><feGaussianBlur stdDeviation="6"/><feColorMatrix values="0 0 0 0 0.701961 0 0 0 0 0.27451 0 0 0 0 0.909804 0 0 0 1 0"/><feBlend in2="BackgroundImageFix" result="effect1_dropShadow"/><feBlend in="SourceGraphic" in2="effect1_dropShadow" result="shape"/></filter><filter id="filter2_d" x="19.441" y="11.845" width="30.984" height="26.811" filterUnits="userSpaceOnUse" color-interpolation-filters="sRGB"><feFlood flood-opacity="0" result="BackgroundImageFix"/><feColorMatrix in="SourceAlpha" values="0 0 0 0 0 0 0 0 0 0 0 0 0 0 0 0 0 0 127 0"/><feOffset/><feGaussianBlur stdDeviation="6"/><feColorMatrix values="0 0 0 0 0.701961 0 0 0 0 0.27451 0 0 0 0 0.909804 0 0 0 1 0"/><feBlend in2="BackgroundImageFix" result="effect1_dropShadow"/><feBlend in="SourceGraphic" in2="effect1_dropShadow" result="shape"/></filter><filter id="filter3_d" x="17.975" y="14.546" width="28.451" height="25.224" filterUnits="userSpaceOnUse" color-interpolation-filters="sRGB"><feFlood flood-opacity="0" result="BackgroundImageFix"/><feColorMatrix in="SourceAlpha" values="0 0 0 0 0 0 0 0 0 0 0 0 0 0 0 0 0 0 127 0"/><feOffset/><feGaussianBlur stdDeviation="6"/><feColorMatrix values="0 0 0 0 0.701961 0 0 0 0 0.27451 0 0 0 0 0.909804 0 0 0 1 0"/><feBlend in2="BackgroundImageFix" result="effect1_dropShadow"/><feBlend in="SourceGraphic" in2="effect1_dropShadow" result="shape"/></filter><filter id="filter4_d" x=".5" y="13.353" width="30.867" height="27.8" filterUnits="userSpaceOnUse" color-interpolation-filters="sRGB"><feFlood flood-opacity="0" result="BackgroundImageFix"/><feColorMatrix in="SourceAlpha" values="0 0 0 0 0 0 0 0 0 0 0 0 0 0 0 0 0 0 127 0"/><feOffset/><feGaussianBlur stdDeviation="6"/><feColorMatrix values="0 0 0 0 0.701961 0 0 0 0 0.27451 0 0 0 0 0.909804 0 0 0 1 0"/><feBlend in2="BackgroundImageFix" result="effect1_dropShadow"/><feBlend in="SourceGraphic" in2="effect1_dropShadow" result="shape"/></filter><filter id="filter5_d" x="22.634" y="13.726" width="30.867" height="27.8" filterUnits="userSpaceOnUse" color-interpolation-filters="sRGB"><feFlood flood-opacity="0" result="BackgroundImageFix"/><feColorMatrix in="SourceAlpha" values="0 0 0 0 0 0 0 0 0 0 0 0 0 0 0 0 0 0 127 0"/><feOffset/><feGaussianBlur stdDeviation="6"/><feColorMatrix values="0 0 0 0 0.701961 0 0 0 0 0.27451 0 0 0 0 0.909804 0 0 0 1 0"/><feBlend in2="BackgroundImageFix" result="effect1_dropShadow"/><feBlend in="SourceGraphic" in2="effect1_dropShadow" result="shape"/></filter><filter id="filter6_d" x="13.46" y="14.42" width="28.52" height="27.72" filterUnits="userSpaceOnUse" color-interpolation-filters="sRGB"><feFlood flood-opacity="0" result="BackgroundImageFix"/><feColorMatrix in="SourceAlpha" values="0 0 0 0 0 0 0 0 0 0 0 0 0 0 0 0 0 0 127 0"/><feOffset/><feGaussianBlur stdDeviation="6"/><feColorMatrix values="0 0 0 0 0.701961 0 0 0 0 0.27451 0 0 0 0 0.909804 0 0 0 1 0"/><feBlend in2="BackgroundImageFix" result="effect1_dropShadow"/><feBlend in="SourceGraphic" in2="effect1_dropShadow" result="shape"/></filter><filter id="filter7_d" x="2.313" y=".5" width="47.987" height="32.733" filterUnits="userSpaceOnUse" color-interpolation-filters="sRGB"><feFlood flood-opacity="0" result="BackgroundImageFix"/><feColorMatrix in="SourceAlpha" values="0 0 0 0 0 0 0 0 0 0 0 0 0 0 0 0 0 0 127 0"/><feOffset/><feGaussianBlur stdDeviation="6"/><feColorMatrix values="0 0 0 0 0.701961 0 0 0 0 0.27451 0 0 0 0 0.909804 0 0 0 1 0"/><feBlend in2="BackgroundImageFix" result="effect1_dropShadow"/><feBlend in="SourceGraphic" in2="effect1_dropShadow" result="shape"/></filter><filter id="filter8_d" x="1.887" y="9.513" width="49.213" height="37.96" filterUnits="userSpaceOnUse" color-interpolation-filters="sRGB"><feFlood flood-opacity="0" result="BackgroundImageFix"/><feColorMatrix in="SourceAlpha" values="0 0 0 0 0 0 0 0 0 0 0 0 0 0 0 0 0 0 127 0"/><feOffset/><feGaussianBlur stdDeviation="6"/><feColorMatrix values="0 0 0 0 0.701961 0 0 0 0 0.27451 0 0 0 0 0.909804 0 0 0 1 0"/><feBlend in2="BackgroundImageFix" result="effect1_dropShadow"/><feBlend in="SourceGraphic" in2="effect1_dropShadow" result="shape"/></filter><filter id="filter9_d" x="1.721" y="16.287" width="50.17" height="26.954" filterUnits="userSpaceOnUse" color-interpolation-filters="sRGB"><feFlood flood-opacity="0" result="BackgroundImageFix"/><feColorMatrix in="SourceAlpha" values="0 0 0 0 0 0 0 0 0 0 0 0 0 0 0 0 0 0 127 0"/><feOffset/><feGaussianBlur stdDeviation="6"/><feColorMatrix values="0 0 0 0 0.701961 0 0 0 0 0.27451 0 0 0 0 0.909804 0 0 0 1 0"/><feBlend in2="BackgroundImageFix" result="effect1_dropShadow"/><feBlend in="SourceGraphic" in2="effect1_dropShadow" result="shape"/></filter><filter id="filter10_d" x="7.609" y="14.063" width="29.884" height="25.762" filterUnits="userSpaceOnUse" color-interpolation-filters="sRGB"><feFlood flood-opacity="0" result="BackgroundImageFix"/><feColorMatrix in="SourceAlpha" values="0 0 0 0 0 0 0 0 0 0 0 0 0 0 0 0 0 0 127 0"/><feOffset/><feGaussianBlur stdDeviation="6"/><feColorMatrix values="0 0 0 0 0.701961 0 0 0 0 0.27451 0 0 0 0 0.909804 0 0 0 1 0"/><feBlend in2="BackgroundImageFix" result="effect1_dropShadow"/><feBlend in="SourceGraphic" in2="effect1_dropShadow" result="shape"/></filter></defs></svg>