<svg width="27" height="48" fill="none" xmlns="http://www.w3.org/2000/svg"><path d="M.883 25.565h5.261v21.66c0 .428.347.775.774.775h8.921a.774.774 0 00.775-.774v-21.56h6.048a.774.774 0 00.77-.685l.918-7.974a.774.774 0 00-.769-.863h-6.967v-4.999c0-1.507.811-2.271 2.412-2.271h4.555a.774.774 0 00.774-.774V.78a.774.774 0 00-.774-.774h-6.278A6.15 6.15 0 0017.016 0c-1.09 0-4.876.214-7.867 2.965-3.314 3.05-2.853 6.7-2.743 7.333v5.846H.883a.774.774 0 00-.775.774v7.873c0 .427.347.774.775.774z" fill="#fff"/></svg>