<svg width="11" height="11" fill="none" xmlns="http://www.w3.org/2000/svg"><path d="M5.508 10.406a.39.39 0 01-.288-.108.39.39 0 01-.108-.288V6.068H1.206a.39.39 0 01-.288-.108.39.39 0 01-.108-.288V5.42a.39.39 0 01.108-.288.39.39 0 01.288-.108h3.906V1.19A.39.39 0 015.22.902a.39.39 0 01.288-.108h.27a.39.39 0 01.288.108.39.39 0 01.108.288v3.834h3.924a.39.39 0 01.288.108.39.39 0 01.108.288v.252a.39.39 0 01-.108.288.39.39 0 01-.288.108H6.174v3.942a.39.39 0 01-.108.288.39.39 0 01-.288.108h-.27z" fill="#23A873"/></svg>