<svg width="17" height="12" fill="none" xmlns="http://www.w3.org/2000/svg"><path d="M8.438 3.094c-.323.03-.645.058-.938.146.146.235.205.528.234.791 0 .908-.761 1.64-1.64 1.64-.293 0-.586-.058-.791-.204a3.102 3.102 0 00-.147.908 3.276 3.276 0 003.282 3.281 3.276 3.276 0 003.28-3.281c0-1.787-1.464-3.252-3.28-3.252v-.03zm8.32 2.87C15.176 2.86 12.012.75 8.438.75 4.833.75 1.67 2.86.088 5.965a.936.936 0 00-.088.41c0 .176.03.322.088.44C1.67 9.92 4.834 12 8.438 12c3.574 0 6.738-2.08 8.32-5.186a.936.936 0 00.088-.41.978.978 0 00-.088-.44zm-8.32 4.63c-2.9 0-5.567-1.612-6.973-4.219C2.87 3.768 5.537 2.156 8.438 2.156c2.87 0 5.537 1.612 6.943 4.219-1.406 2.607-4.072 4.219-6.944 4.219z" fill="#443E3E"/></svg>