<svg width="23" height="23" viewBox="0 0 23 23" fill="none" xmlns="http://www.w3.org/2000/svg">
<path d="M22.9942 23V22.999H23V14.4253C23 10.231 22.1035 7 17.2354 7C14.8951 7 13.3246 8.29356 12.6835 9.51991H12.6158V7.39157H8V22.999H12.8063V15.2708C12.8063 13.236 13.1892 11.2684 15.691 11.2684C18.156 11.2684 18.1928 13.5905 18.1928 15.4013V23H22.9942Z" fill="white"/>
<path d="M0 7H5V23H0V7Z" fill="white"/>
<path d="M2.5 0C1.11988 0 0 1.11466 0 2.48834C0 3.86203 1.11988 5 2.5 5C3.88012 5 5 3.86203 5 2.48834C4.99913 1.11466 3.87925 0 2.5 0V0Z" fill="white"/>
</svg>
