<svg width="18" height="18" fill="none" xmlns="http://www.w3.org/2000/svg"><path d="M8.345 8.803c2.002 0 3.624-1.97 3.624-4.401S11.437 0 8.345 0c-3.09 0-3.624 1.97-3.624 4.402 0 2.43 1.623 4.401 3.624 4.401zM1.5 16.274c0-.148 0-.042 0 0zm13.69.116c.002-.04 0-.282 0 0zm-.008-1.044c-.067-4.235-.62-5.441-4.852-6.205 0 0-.596.76-1.985.76-1.388 0-1.984-.76-1.984-.76-4.186.755-4.773 1.944-4.85 6.068-.006.336-.01.354-.01.315v.445S2.51 18 8.345 18c5.837 0 6.845-2.031 6.845-2.031v-.33a2.742 2.742 0 01-.008-.293z" fill="#FF4900"/></svg>