<svg height="512" width="512" xmlns="http://www.w3.org/2000/svg"><linearGradient id="a" gradientUnits="userSpaceOnUse" x1="256" x2="256" y1="512" y2="0"><stop offset="0" stop-color="#22b7eb"/><stop offset="1" stop-color="#1e74bb"/></linearGradient><linearGradient id="b" gradientUnits="userSpaceOnUse" x1="256" x2="256" y1="512" y2="337.591"><stop offset="0" stop-color="#22b7eb"/><stop offset=".835" stop-color="#1e74bb"/></linearGradient><linearGradient id="c" gradientUnits="userSpaceOnUse" x1="256" x2="256" y1="413.979" y2="98.021"><stop offset="0" stop-color="#263886"/><stop offset="1" stop-color="#0e203a"/></linearGradient><linearGradient id="d" gradientTransform="rotate(-90 -904 -2064)" gradientUnits="userSpaceOnUse" x1="-3274.214" x2="-3153.786" y1="-904" y2="-904"><stop offset="0" stop-color="#fff"/><stop offset=".201" stop-color="#f3f9f9"/><stop offset=".696" stop-color="#dbecee"/><stop offset="1" stop-color="#d2e7ea"/></linearGradient><circle cx="256" cy="256" fill="url(#a)" r="256"/><path d="M413.979 337.591H98.021l27.302 138.57C163.578 498.916 208.258 512 256 512s92.422-13.084 130.677-35.839z" fill="url(#b)"/><path d="M336.786 98.021H175.214c-42.632 0-77.193 34.56-77.193 77.193v161.572c0 42.632 34.56 77.193 77.193 77.193h161.572c42.632 0 77.193-34.56 77.193-77.193V175.214c0-42.633-34.56-77.193-77.193-77.193z" fill="url(#c)"/><path d="M356.429 286.214a19.937 19.937 0 01-5.858 14.142c-7.811 7.811-20.474 7.811-28.284 0L256 234.07l-66.287 66.287c-7.811 7.811-20.474 7.811-28.284 0s-7.811-20.474 0-28.284l80.429-80.429c7.811-7.811 20.474-7.811 28.284 0l80.429 80.429a19.936 19.936 0 015.858 14.141z" fill="url(#d)"/></svg>