<svg width="30" height="31" fill="none" xmlns="http://www.w3.org/2000/svg"><path d="M29.402 14.314c-1.93-.693-3.117-2.656-2.968-4.207 0-.255-.152-.492-.346-.66a.96.96 0 00-.743-.198c-2.94.432-5.633-1.72-5.9-4.743a.878.878 0 00-1.178-.748c-2.384.873-4.636-.705-5.535-2.762a.88.88 0 00-.996-.506C4.97 2 0 8.535 0 15.47c0 8.238 6.761 15 15 15s15-6.762 15-15c-.025-.524-.028-.952-.598-1.156zm-23.235 2.1a.879.879 0 110-1.757.879.879 0 010 1.758zm3.56 6.966a2.64 2.64 0 01-2.637-2.637 2.64 2.64 0 012.637-2.637 2.64 2.64 0 012.636 2.637 2.64 2.64 0 01-2.636 2.637zm.878-10.547a1.76 1.76 0 01-1.757-1.758 1.76 1.76 0 011.757-1.758 1.76 1.76 0 011.758 1.758 1.76 1.76 0 01-1.758 1.758zm7.032 12.304a1.76 1.76 0 01-1.758-1.757c0-.97.789-1.758 1.758-1.758s1.758.789 1.758 1.758a1.76 1.76 0 01-1.758 1.758zm.878-7.03a2.64 2.64 0 01-2.636-2.637 2.64 2.64 0 012.636-2.637 2.64 2.64 0 012.637 2.636 2.64 2.64 0 01-2.637 2.637zm5.23 1.823a.879.879 0 110-1.758.879.879 0 010 1.758z" fill="#776AEB"/></svg>