<svg height="512" width="512" xmlns="http://www.w3.org/2000/svg"><linearGradient id="a" gradientUnits="userSpaceOnUse" x1="256" x2="256" y1="512" y2="0"><stop offset="0" stop-color="#fff57b"/><stop offset="1" stop-color="#ffbc00"/></linearGradient><linearGradient id="b" gradientUnits="userSpaceOnUse" x1="256" x2="256" y1="512" y2="337.59"><stop offset="0" stop-color="#fff57b"/><stop offset="1" stop-color="#f38b68"/></linearGradient><linearGradient id="c" gradientUnits="userSpaceOnUse" x1="256" x2="256" y1="413.979" y2="98.021"><stop offset="0" stop-color="#263886"/><stop offset="1" stop-color="#0e203a"/></linearGradient><linearGradient id="d" gradientTransform="matrix(0 -1 -1 0 -1808 -2968)" gradientUnits="userSpaceOnUse" x1="-3306.992" x2="-3121.009" y1="-2064" y2="-2064"><stop offset="0" stop-color="#fff"/><stop offset=".201" stop-color="#f3f9f9"/><stop offset=".696" stop-color="#dbecee"/><stop offset="1" stop-color="#d2e7ea"/></linearGradient><circle cx="256" cy="256" fill="url(#a)" r="256"/><path d="M413.979 337.59H98.021l27.302 138.57C163.578 498.916 208.258 512 256 512s92.422-13.084 130.677-35.839z" fill="url(#b)"/><path d="M336.786 98.021H175.214c-42.632 0-77.193 34.56-77.193 77.193v161.572c0 42.632 34.56 77.193 77.193 77.193h161.572c42.632 0 77.193-34.56 77.193-77.193V175.214c0-42.633-34.56-77.193-77.193-77.193z" fill="url(#c)"/><path d="M194.278 208.519l51.116-51.116a15 15 0 0121.212 0l51.116 51.116c5.858 5.857 5.858 15.355 0 21.213s-15.355 5.858-21.213 0L256 189.222l-40.509 40.51c-5.857 5.858-15.355 5.858-21.213 0-2.929-2.929-4.394-6.768-4.394-10.606s1.465-7.679 4.394-10.607zm-4.394 115.472c0 3.839 1.464 7.678 4.394 10.606 5.858 5.858 15.355 5.858 21.213 0L256 294.088l40.509 40.51c5.857 5.858 15.355 5.858 21.213 0 5.858-5.857 5.858-15.355 0-21.213l-51.116-51.116a15 15 0 00-21.212 0l-51.116 51.116a14.95 14.95 0 00-4.394 10.606z" fill="url(#d)"/></svg>