<svg height="512" width="512" xmlns="http://www.w3.org/2000/svg"><linearGradient id="a" gradientUnits="userSpaceOnUse" x1="256" x2="256" y1="512" y2="0"><stop offset="0" stop-color="#efaf74"/><stop offset="1" stop-color="#f5816a"/></linearGradient><linearGradient id="b" gradientUnits="userSpaceOnUse" x1="252.773" x2="252.773" y1="512" y2="79.058"><stop offset="0" stop-color="#efaf74"/><stop offset=".741" stop-color="#ed6d67"/></linearGradient><linearGradient id="c" gradientUnits="userSpaceOnUse" x1="252.773" x2="252.773" y1="443.471" y2="68.529"><stop offset="0" stop-color="#fff"/><stop offset=".201" stop-color="#f3f9f9"/><stop offset=".696" stop-color="#dbecee"/><stop offset="1" stop-color="#d2e7ea"/></linearGradient><circle cx="256" cy="256" fill="url(#a)" r="256"/><path d="M385.254 201.01l-3.59-12.186L271.821 79.058h-38.095L123.965 188.695l-3.672 12.314 27.699 287.136C180.811 503.442 217.403 512 256 512c35.972 0 70.203-7.433 101.263-20.825z" fill="url(#b)"/><path d="M252.773 178.51c12.426 0 22.5 10.074 22.5 22.5s-10.074 22.5-22.5 22.5-22.5-10.074-22.5-22.5 10.074-22.5 22.5-22.5zm-22.5 77.49c0 12.426 10.074 22.5 22.5 22.5s22.5-10.074 22.5-22.5-10.074-22.5-22.5-22.5-22.5 10.074-22.5 22.5zm0 54.99c0 12.426 10.074 22.5 22.5 22.5s22.5-10.074 22.5-22.5-10.074-22.5-22.5-22.5-22.5 10.074-22.5 22.5zm0 54.991c0 12.426 10.074 22.5 22.5 22.5s22.5-10.074 22.5-22.5-10.074-22.5-22.5-22.5-22.5 10.073-22.5 22.5zm0 54.99c0 12.426 10.074 22.5 22.5 22.5s22.5-10.074 22.5-22.5-10.074-22.5-22.5-22.5-22.5 10.074-22.5 22.5zm-54.99-219.961c0 12.426 10.074 22.5 22.5 22.5s22.5-10.074 22.5-22.5-10.074-22.5-22.5-22.5-22.5 10.073-22.5 22.5zm0-54.991c0 12.426 10.074 22.5 22.5 22.5s22.5-10.074 22.5-22.5-10.074-22.5-22.5-22.5-22.5 10.074-22.5 22.5zm-54.991 54.991c0 12.426 10.074 22.5 22.5 22.5s22.5-10.074 22.5-22.5-10.074-22.5-22.5-22.5-22.5 10.073-22.5 22.5zm219.962 0c0 12.426 10.074 22.5 22.5 22.5s22.5-10.074 22.5-22.5-10.074-22.5-22.5-22.5c-12.427 0-22.5 10.073-22.5 22.5zm-54.991-54.991c0 12.426 10.074 22.5 22.5 22.5s22.5-10.074 22.5-22.5-10.074-22.5-22.5-22.5-22.5 10.074-22.5 22.5zm0 54.991c0 12.426 10.074 22.5 22.5 22.5s22.5-10.074 22.5-22.5-10.074-22.5-22.5-22.5-22.5 10.073-22.5 22.5zm-54.99-54.991c0 12.426 10.074 22.5 22.5 22.5s22.5-10.074 22.5-22.5-10.074-22.5-22.5-22.5-22.5 10.074-22.5 22.5zm0-54.99c0 12.426 10.074 22.5 22.5 22.5s22.5-10.074 22.5-22.5-10.074-22.5-22.5-22.5-22.5 10.073-22.5 22.5z" fill="url(#c)"/></svg>