<svg width="19" height="19" fill="none" xmlns="http://www.w3.org/2000/svg"><g clip-path="url(#clip0)" fill="#615BE7"><path d="M8.708 11.875A2.378 2.378 0 016.333 9.5a2.378 2.378 0 012.375-2.375h3.959V2.177A2.179 2.179 0 0010.49 0H2.177A2.179 2.179 0 000 2.177v14.646C0 18.023.976 19 2.177 19h8.313a2.18 2.18 0 002.177-2.177v-4.948H8.708z"/><path d="M14.739 13.398a.793.793 0 01-.489-.731v-2.375H8.71a.792.792 0 010-1.584h5.541V6.333a.793.793 0 011.352-.56l3.166 3.167c.31.31.31.81 0 1.12l-3.166 3.166a.792.792 0 01-.863.172z"/></g><defs><clipPath id="clip0"><path fill="#fff" d="M0 0h19v19H0z"/></clipPath></defs></svg>