<svg width="93" height="93" fill="none" xmlns="http://www.w3.org/2000/svg"><g filter="url(#filter0_d)"><circle cx="46.5" cy="31.5" r="31.5" fill="#776AEB"/></g><circle cx="46.5" cy="31.5" r="22.5" fill="#fff"/><path d="M47.45 41.3c-1.783 0-3.4-.383-4.85-1.15a8.91 8.91 0 01-3.4-3.225c-.817-1.383-1.225-2.942-1.225-4.675 0-1.733.408-3.283 1.225-4.65a8.67 8.67 0 013.4-3.225c1.45-.783 3.075-1.175 4.875-1.175 1.517 0 2.883.267 4.1.8a8.215 8.215 0 013.1 2.3l-2.6 2.4c-1.183-1.367-2.65-2.05-4.4-2.05-1.083 0-2.05.242-2.9.725a5.065 5.065 0 00-2 1.975c-.467.85-.7 1.817-.7 2.9s.233 2.05.7 2.9a5.24 5.24 0 002 2c.85.467 1.817.7 2.9.7 1.75 0 3.217-.692 4.4-2.075l2.6 2.4a8.104 8.104 0 01-3.1 2.325c-1.233.533-2.608.8-4.125.8z" fill="#776AEB"/><defs><filter id="filter0_d" x="0" y="0" width="93" height="93" filterUnits="userSpaceOnUse" color-interpolation-filters="sRGB"><feFlood flood-opacity="0" result="BackgroundImageFix"/><feColorMatrix in="SourceAlpha" values="0 0 0 0 0 0 0 0 0 0 0 0 0 0 0 0 0 0 127 0"/><feOffset dy="15"/><feGaussianBlur stdDeviation="7.5"/><feColorMatrix values="0 0 0 0 0.380392 0 0 0 0 0.356863 0 0 0 0 0.905882 0 0 0 0.17 0"/><feBlend in2="BackgroundImageFix" result="effect1_dropShadow"/><feBlend in="SourceGraphic" in2="effect1_dropShadow" result="shape"/></filter></defs></svg>