<svg width="24" height="24" fill="none" xmlns="http://www.w3.org/2000/svg"><g clip-path="url(#clip0)"><path d="M2.64 16.148a.417.417 0 01.064-.15l3.985-5.842a.417.417 0 01.689.47l-3.419 5.01 8.019-1.514a9.594 9.594 0 007.638-11.195.417.417 0 01.819-.155c1.06 5.652-2.653 11.095-8.302 12.169l-8.02 1.514 5.01 3.418a.417.417 0 01-.457.697l-.012-.009-5.841-3.985a.417.417 0 01-.174-.43l.001.002z" fill="#2196F3"/><path d="M8.965 20.627a.417.417 0 00.158-.754l-5.497-3.75 3.751-5.496a.417.417 0 00-.688-.47l-3.985 5.841c-.13.19-.081.45.109.579l5.84 3.985a.417.417 0 00.312.065z" fill="#776AEB"/><path d="M3.125 16.642l9.008-1.701c5.649-1.074 9.363-6.517 8.302-12.169a.417.417 0 10-.82.155 9.594 9.594 0 01-7.637 11.195L2.97 15.823a.417.417 0 10.154.819z" fill="#776AEB"/></g><defs><clipPath id="clip0"><path fill="#fff" transform="scale(-1 1) rotate(10.695 -11.683 -106.519)" d="M0 0h20v20H0z"/></clipPath></defs></svg>