<svg width="25" height="25" fill="none" xmlns="http://www.w3.org/2000/svg"><g clip-path="url(#clip0)" fill="#2E2E2E"><path d="M13.99 0C20.062 0 25 4.939 25 11.01c0 6.07-4.939 11.009-11.01 11.009-6.07 0-11.009-4.939-11.009-11.01C2.981 4.94 7.92 0 13.991 0zm0 19.986c4.95 0 8.978-4.027 8.978-8.977S18.94 2.033 13.99 2.033 5.013 6.06 5.013 11.009c0 4.95 4.027 8.977 8.977 8.977z"/><path d="M.298 23.265l5.827-5.826a1.016 1.016 0 111.437 1.437l-5.827 5.826a1.013 1.013 0 01-1.437 0 1.016 1.016 0 010-1.437z"/></g><defs><clipPath id="clip0"><path fill="#fff" transform="matrix(-1 0 0 1 25 0)" d="M0 0h25v25H0z"/></clipPath></defs></svg>