<svg width="130" height="130" fill="none" xmlns="http://www.w3.org/2000/svg"><g opacity=".1" clip-path="url(#clip0)" fill="#000"><path d="M65 54.167c-11.95 0-21.667-9.718-21.667-21.667 0-11.95 9.718-21.667 21.667-21.667 11.949 0 21.666 9.718 21.666 21.667 0 11.95-9.717 21.667-21.666 21.667zm0-35.209c-7.47 0-13.542 6.072-13.542 13.542S57.53 46.042 65 46.042 78.54 39.97 78.54 32.5 72.47 18.958 65 18.958zm39.271 89.375a4.064 4.064 0 01-4.062-4.062V90.729c0-9.707-7.898-17.604-17.605-17.604H47.397c-9.706 0-17.604 7.897-17.604 17.604v13.542a4.064 4.064 0 01-4.063 4.062 4.064 4.064 0 01-4.062-4.062V90.729C21.667 76.543 33.21 65 47.397 65h35.208c14.186 0 25.729 11.543 25.729 25.73v13.541a4.064 4.064 0 01-4.063 4.062zM4.063 35.208A4.064 4.064 0 010 31.146v-16.25C0 6.679 6.679 0 14.896 0h16.25a4.064 4.064 0 014.062 4.063 4.064 4.064 0 01-4.062 4.062h-16.25c-3.732 0-6.771 3.039-6.771 6.77v16.25a4.064 4.064 0 01-4.063 4.063zM31.146 130h-16.25C6.679 130 0 123.321 0 115.104v-16.25a4.064 4.064 0 014.063-4.062 4.064 4.064 0 014.062 4.062v16.25c0 3.732 3.039 6.771 6.77 6.771h16.25a4.064 4.064 0 014.063 4.063A4.064 4.064 0 0131.146 130zm94.792-94.792a4.064 4.064 0 01-4.063-4.062v-16.25a6.78 6.78 0 00-6.771-6.771h-16.25a4.064 4.064 0 01-4.062-4.063A4.064 4.064 0 0198.855 0h16.249C123.322 0 130 6.679 130 14.896v16.25a4.064 4.064 0 01-4.062 4.062zM115.104 130h-16.25a4.064 4.064 0 01-4.062-4.062 4.064 4.064 0 014.063-4.063h16.249a6.78 6.78 0 006.771-6.771v-16.25a4.064 4.064 0 014.063-4.062A4.064 4.064 0 01130 98.854v16.25c0 8.217-6.678 14.896-14.896 14.896z"/></g><defs><clipPath id="clip0"><path fill="#fff" d="M0 0h130v130H0z"/></clipPath></defs></svg>