<svg width="106" height="60" fill="none" xmlns="http://www.w3.org/2000/svg"><path d="M34.08 53.26l-.069-1.675h-6.693l-.07 1.674c.035.011.07.023.105.023.186 0 .314-.255.441-.476.267-.465.57-.57 1.093-.57h.86v7.089c.301-.058.603-.082.93-.082.243 0 .626.024.894.082v-7.089h.86c.581 0 .848.117 1.127.605.116.209.244.43.418.43.035 0 .07 0 .105-.012z" fill="#B9C1CC"/><path fill-rule="evenodd" clip-rule="evenodd" d="M38.124 52.818c2.07 0 3.405 1.278 3.405 3.357 0 2.046-1.545 3.3-3.521 3.3-2.103 0-3.44-1.3-3.44-3.44 0-2.009 1.662-3.217 3.556-3.217zm.012 6.02c1.325 0 1.569-1.721 1.569-2.72 0-1.081-.29-2.673-1.673-2.673-1.395 0-1.64 1.639-1.64 2.72 0 1.173.256 2.672 1.744 2.672zm8.668-3.058c.977.082 2.069.698 2.069 1.802 0 .709-.418 1.185-.941 1.44-.488.245-1.023.303-1.907.303h-2.672v-4.823c0-.36-.011-.766-.267-1.034a1.174 1.174 0 00-.17-.14c-.132-.096-.271-.198-.271-.348h2.753c.674 0 1.093 0 1.627.105.663.127 1.336.5 1.336 1.243 0 .86-.767 1.383-1.557 1.453zm-.116-1.29c0 .919-.476 1.186-1.337 1.186-.103 0-.197 0-.29-.012v-1.94c0-.174.07-.198.361-.198.592 0 1.266.151 1.266.965zm.372 2.975c0 .896-.442 1.279-1.302 1.279-.487 0-.697-.047-.697-.442V56.28h.233c.314 0 .685.024.848.058.558.117.918.511.918 1.127zm7.057-3.73l2.242 5.59a6.392 6.392 0 00-.941-.07c-.28 0-.593.011-.884.07l-.708-1.825h-2.534l-.778 1.825h-.79l2.115-4.892c.08-.198.208-.512.208-.698 0-.264-.18-.362-.346-.45-.14-.076-.27-.145-.27-.305h1.871c.489 0 .616.256.815.755zm-2.534 3.08h1.998l-.94-2.476-1.058 2.476z" fill="#B9C1CC"/><path d="M62.841 54.735l-.07-1.442c-.487-.29-1.173-.43-1.813-.43-1.905 0-3.613 1.256-3.613 3.277 0 2.116 1.592 3.29 3.591 3.29.592 0 1.464-.152 1.87-.559v-.93c-.406.442-.906.78-1.569.78-1.486 0-2.068-1.371-2.068-2.673 0-1.186.593-2.568 1.918-2.568.337 0 .616.07.836.244.186.14.303.36.442.72.07.209.209.326.36.326a.198.198 0 00.116-.035zm7.005 0l-.07-1.442c-.487-.29-1.173-.43-1.812-.43-1.906 0-3.614 1.256-3.614 3.277 0 2.116 1.592 3.29 3.59 3.29.593 0 1.465-.152 1.871-.559v-.93c-.406.442-.906.78-1.568.78-1.487 0-2.069-1.371-2.069-2.673 0-1.186.593-2.568 1.918-2.568.337 0 .616.07.837.244.185.14.302.36.44.72.07.209.21.326.362.326.046 0 .08-.012.115-.035z" fill="#B9C1CC"/><path fill-rule="evenodd" clip-rule="evenodd" d="M74.912 52.818c2.068 0 3.404 1.278 3.404 3.357 0 2.046-1.545 3.3-3.52 3.3-2.104 0-3.44-1.3-3.44-3.44 0-2.009 1.662-3.217 3.556-3.217zm.01 6.02c1.326 0 1.57-1.721 1.57-2.72 0-1.081-.291-2.673-1.674-2.673-1.394 0-1.638 1.639-1.638 2.72 0 1.173.255 2.672 1.743 2.672zM4.837 43.229c1.115.104 2.382.813 2.382 2.161 0 .86-.5 1.441-1.092 1.767-.57.29-1.174.36-2.185.36H1.2v-5.892c0-.5-.012-.953-.28-1.255a1.17 1.17 0 00-.2-.168c-.16-.117-.334-.245-.334-.425h2.836c.766 0 1.255 0 1.859.128.767.151 1.534.604 1.534 1.522 0 1.046-.872 1.72-1.778 1.802zm0-1.535c0 1.046-.512 1.407-1.51 1.407-.117 0-.222 0-.338-.024v-2.463c0-.21.081-.255.418-.255.838 0 1.43.476 1.43 1.335zm.441 3.556c0 1.093-.522 1.639-1.475 1.639-.57 0-.814-.058-.814-.535v-2.59h.28c.592 0 1.324.08 1.72.591.174.234.29.559.29.896zm10.534 2.138c.046.012.07.024.07.059 0 .034-.012.058-.047.07a10.86 10.86 0 01-1.104.057c-.372 0-1.162-.046-1.639-.314-.535-.293-.986-.923-1.38-1.472-.214-.3-.411-.574-.596-.759-.185-.174-.313-.21-.476-.22v2.707a4.317 4.317 0 00-.837-.07c-.255 0-.592.012-.871.07v-4.868c0-.559-.128-.838-.28-1-.074-.084-.155-.137-.228-.185-.118-.078-.213-.14-.213-.292h3.243c.825 0 1.696.082 2.254.604.232.221.383.57.383.953 0 .884-.883 1.43-1.521 1.65l.58.674c.17.196.331.388.485.57.322.382.608.721.852.964.383.407.766.686 1.126.767l.084.015c.037.007.074.014.115.02zm-4.591-3.125c.837 0 1.127-.616 1.127-1.36 0-.372-.104-.697-.325-.907-.162-.162-.453-.255-.755-.255-.314 0-.512.023-.628.058v2.15c0 .302.303.314.58.314z" fill="#B9C1CC"/><path d="M18.689 47.517v-6.16c0-.115-.058-.185-.174-.185H16.26c0 .22.233.244.43.477.163.174.291.452.291 1.045v4.823c.243-.047.546-.07.848-.07.268 0 .628.023.86.07zm7.269-4.881l-.047-1.465h-5.624l-.057 1.477c.023 0 .057.01.08.01.128 0 .222-.127.302-.278.245-.453.395-.58.965-.58h.662v5.716a5.218 5.218 0 011.708 0V41.8h.663c.627 0 .756.163 1 .615.069.14.162.233.266.233.035 0 .059 0 .082-.011zm3.298 4.881v-6.16c0-.115-.058-.185-.175-.185h-2.254c0 .22.232.244.43.477.162.174.29.452.29 1.045v4.823c.244-.047.546-.07.848-.07.268 0 .628.023.86.07zm6.258-1.755c0-2.15-2.859-1.975-2.859-3.347 0-.522.535-.79.976-.79.267 0 .488.058.64.14.267.139.43.383.522.603.14.338.244.477.453.477.035 0 .07-.011.105-.035l-.105-1.429a4.015 4.015 0 00-1.662-.326c-.569 0-1.103.117-1.534.326-.592.29-1.01.837-1.01 1.44 0 2.173 2.8 1.895 2.8 3.37 0 .547-.5.826-1 .826-.883 0-1.464-.593-1.928-1.29v1.44c.674.35 1.267.477 2.045.477 1.418 0 2.556-.697 2.556-1.882zm7.702 1.755v-6.345h-1.708v2.568h-2.545v-2.394c0-.093-.058-.174-.174-.174h-2.242c0 .244.255.255.464.523.15.209.244.465.244.987v4.835c.279-.058.58-.07.872-.07.279 0 .557.012.836.07v-3.091h2.545v3.09c.279-.057.58-.07.872-.07.279 0 .557.013.836.07z" fill="#B9C1CC"/><path fill-rule="evenodd" clip-rule="evenodd" d="M53.363 40.695l2.579 6.822a5.304 5.304 0 00-.976-.082c-.326 0-.616.023-.907.081l-.825-2.29h-3.022l-.929 2.29H48.4l2.498-5.961c.105-.244.244-.627.244-.86 0-.351-.192-.464-.366-.565-.143-.083-.273-.159-.273-.353h1.907c.557 0 .731.313.953.918zm-2.848 3.8h2.452l-1.15-3.172-1.302 3.172z" fill="#B9C1CC"/><path d="M65.202 47.517l-.86-4.58a7.117 7.117 0 01-.139-1.23c0-.175.023-.396.116-.535H63.1c-.395 0-.488.163-.651.512l-1.429 3.078-1.51-3.323c-.094-.22-.152-.267-.396-.267h-1.917c0 .186.174.278.372.43a.811.811 0 01.325.686c0 .115-.035.337-.058.452l-1.069 4.777h.778l.942-4.475 1.975 4.58 2.15-4.672.883 4.567c.232-.047.581-.07.871-.07.268 0 .593.023.837.07zm6.326-1.36a.29.29 0 00-.105-.023c-.395 0-.162.72-1.302.72h-1.43V44.45h2.22v-.698h-2.22v-1.928h1.791c.278 0 .558.08.72.209l-.035-.86h-4.904c0 .232.233.267.43.477.163.174.291.44.291 1.01v4.335c0 .476.035.523.534.523h3.591c.256 0 .302-.21.337-.559l.082-.801z" fill="#B9C1CC"/><path fill-rule="evenodd" clip-rule="evenodd" d="M80.027 47.388c.047.012.071.024.071.059 0 .034-.012.058-.047.07-.221.034-.813.057-1.103.057-.373 0-1.163-.046-1.64-.314-.534-.293-.985-.924-1.38-1.473-.213-.299-.41-.574-.594-.758-.187-.174-.314-.21-.478-.22v2.707a4.296 4.296 0 00-.835-.07c-.256 0-.593.012-.873.07v-4.868c0-.559-.126-.838-.278-1a1.098 1.098 0 00-.228-.185c-.12-.078-.213-.14-.213-.292h3.242c.824 0 1.696.082 2.254.604.232.221.383.57.383.953 0 .884-.883 1.43-1.522 1.65l.58.674c.17.196.332.388.485.57.322.381.609.72.852.964.384.407.767.686 1.127.767l.09.016.107.019zm-4.59-3.125c.838 0 1.128-.616 1.128-1.36 0-.372-.104-.697-.325-.907-.163-.162-.454-.255-.756-.255-.314 0-.511.023-.628.058v2.15c0 .302.303.314.582.314z" fill="#B9C1CC"/><path d="M82.905 47.517v-6.16c0-.115-.058-.185-.175-.185h-2.254c0 .22.233.244.43.477.163.174.29.452.29 1.045v4.823c.245-.047.547-.07.85-.07.266 0 .626.023.859.07zm7.269-4.59l-.07-1.442c-.487-.29-1.174-.43-1.813-.43-1.905 0-3.613 1.255-3.613 3.277 0 2.116 1.592 3.29 3.59 3.29.594 0 1.465-.152 1.872-.559v-.93c-.407.442-.907.78-1.57.78-1.487 0-2.067-1.372-2.067-2.673 0-1.186.592-2.569 1.917-2.569.337 0 .615.07.836.245.187.14.302.36.442.72.07.209.21.325.36.325a.199.199 0 00.116-.034z" fill="#B9C1CC"/><path fill-rule="evenodd" clip-rule="evenodd" d="M95.587 41.927l2.243 5.59a6.392 6.392 0 00-.942-.07c-.278 0-.592.01-.882.07l-.71-1.825h-2.532l-.779 1.824h-.79l2.115-4.892c.081-.198.209-.51.209-.697 0-.264-.18-.362-.346-.45-.14-.076-.27-.146-.27-.306h1.87c.49 0 .617.256.814.756zm-2.533 3.08h1.999l-.941-2.476-1.058 2.475z" fill="#B9C1CC"/><path d="M104.72 47.517v-6.345h-.802l.07 4.241-3.312-4.032c-.117-.151-.221-.209-.419-.209h-1.79c0 .22.303.337.442.489.256.266.28.592.28 1.033v4.823h.79l-.059-4.486 2.894 3.58c.174.22.453.499.651.615a2.1 2.1 0 001.104.29h.151zM52.844 7.026l-1.093 25.181-4.777-12.37 2.49 12.508L41.7 21.953l5.474 10.69-19.21-13.585L44.888 33.17l-10.805-4.024 8.682 5.001c-8.074 0-17.74-6.385-20.71-19.632 0 0 17.259.198 23.02 7.872C43.992 11.579 51.454 1.39 52.844 0c1.39 1.39 8.852 11.579 7.768 22.387 5.762-7.674 23.02-7.872 23.02-7.872-2.969 13.247-12.636 19.632-20.71 19.632l8.682-5-10.806 4.023 16.927-14.112-19.211 13.584 5.474-10.69-7.762 10.393 2.49-12.508-4.78 12.37-1.092-25.18z" fill="#B9C1CC"/></svg>