<svg width="65" height="56" fill="none" xmlns="http://www.w3.org/2000/svg"><path fill-rule="evenodd" clip-rule="evenodd" d="M36.368 19.278c-1.927 4.142-7.134 13.753-8.214 15.593-.07.116-.126.209-.169.276-.16.245-.298.387-.415.381 0 0 1.925-3.524 3.429-7.296a173.032 173.032 0 01-4.543-8.971c-.25-.529-.37-.79-.369-1.051v-.002c0-.258.125-.518.372-1.05 2.022-4.348 6.972-13.674 8.406-15.894.167-.259.256-.356.376-.356h.011s-1.999 3.741-3.425 7.297a173.938 173.938 0 014.55 8.977c.247.527.368.781.368 1.039 0 .259-.13.525-.377 1.057zm9.292-2.037a173.856 173.856 0 00-3.552-6.838c-1.903-3.45-5.302-9.13-5.688-9.649-.38-.511-.594-.534-.947-.57l-.052-.007C34.907.121 32.73.095 31.42.095c-1.122 0-3.506.03-4.061.085-.523.052-.665.212-.963.602-.41.535-3.865 6.376-5.664 9.62-1.302 2.347-3.362 6.403-3.554 6.84-.173.393-.253.704-.253.975 0 .29.08.599.254.975.432.937 1.735 3.532 3.553 6.839 1.896 3.45 5.323 9.152 5.686 9.648.385.525.635.546.983.578.527.046 2.802.082 4.02.082 1.314 0 3.691-.052 4.019-.082.325-.03.605-.055.981-.578.346-.479 4.032-6.622 5.688-9.648 1.587-2.9 3.35-6.384 3.552-6.84.224-.499.255-.763.255-.975 0-.166-.033-.514-.255-.975zm19.12 29.118v1.476h-3.074v6.492h-2.073v-6.492H56.56v-1.476h8.22zm-7.335 6.491v1.477h-6.587V46.36h2.071v6.491h4.516z" fill="#B9C1CC"/><mask id="a" maskUnits="userSpaceOnUse" x="0" y="46" width="49" height="9"><path fill-rule="evenodd" clip-rule="evenodd" d="M.03 46.357h48.513v8.062H.031v-8.062z" fill="#fff"/></mask><g mask="url(#a)" fill-rule="evenodd" clip-rule="evenodd" fill="#B9C1CC"><path d="M17.543 52.85v1.477h-6.92V46.36h6.79v1.476h-4.717v1.751h4.31v1.428h-4.31v1.836h4.847zM5.861 50.074c-.159.156-.348.23-.642.23H2.392v-2.428h2.233c.665 0 1.02.075 1.26.27.234.187.347.473.347.895 0 .437-.116.787-.37 1.033zm1.05 1.294a2.773 2.773 0 001.434-2.424c0-.829-.241-1.471-.748-1.895-.589-.488-1.396-.69-2.76-.69H.084l-.084.48.183.316c.147.253.135.328.135.498v6.674h2.074v-2.551h2.576l1.381 2.551h2.283l-1.722-2.96zm19.31-5.011v5.286c-.482-.609-.99-1.196-1.848-2.138a684.265 684.265 0 00-2.9-3.146h-2.001l-.084.48s.086.144.182.316c.112.19.134.28.138.382l-.002 6.79 1.863-.006v-5.279c.371.497 1.033 1.258 1.475 1.736.88.951 2.207 2.434 3.241 3.55h1.79v-7.97H26.22zm20.296.002v4.873c0 .543-.11.866-.374 1.114-.336.312-.89.462-1.69.462-.813 0-1.381-.15-1.715-.462-.264-.248-.373-.572-.373-1.114v-4.873h-2.307l-.084.48s.086.144.182.316c.105.182.13.272.134.37l.002 3.782c0 2.083 1.412 3.143 4.133 3.143h.058c2.724 0 4.06-1.032 4.06-3.144V46.36h-2.026z"/></g><path fill-rule="evenodd" clip-rule="evenodd" d="M32.852 51.445a119.565 119.565 0 011.531-3.637c.44.995.989 2.28 1.534 3.637h-3.065zm2.827-5.086h-2.59a105.743 105.743 0 00-3.431 7.969h2.08c.166-.454.342-.917.52-1.38h4.252c.18.463.355.926.52 1.38h2.08a106.793 106.793 0 00-3.431-7.97z" fill="#B9C1CC"/></svg>