<svg width="80" height="80" fill="none" xmlns="http://www.w3.org/2000/svg"><g clip-path="url(#clip0)"><rect x="1" y="5" width="80" height="72" rx="5" fill="#72D5FF"/><path d="M22.631 40.88l8.277 3.046 3.226 10.248c.14.692.982.83 1.543.415l4.63-3.739c.42-.415 1.122-.415 1.683 0l8.276 5.955c.562.415 1.403.138 1.544-.554l6.172-29.08c.14-.693-.561-1.385-1.263-1.108L22.631 39.08c-.841.276-.841 1.523 0 1.8zm11.082 1.523l16.273-9.832c.28-.139.561.277.28.416L36.94 45.31c-.421.416-.842.97-.842 1.662l-.42 3.323c0 .416-.702.554-.842 0l-1.684-6.093c-.42-.692-.14-1.523.561-1.8z" fill="#fff"/></g><defs><clipPath id="clip0"><rect width="80" height="80" rx="6" fill="#fff"/></clipPath></defs></svg>