<svg width="59" height="73" fill="none" xmlns="http://www.w3.org/2000/svg"><rect y="7.083" width="43.329" height="65.896" rx="2" transform="rotate(-9.41 0 7.083)" fill="#fff"/><path fill-rule="evenodd" clip-rule="evenodd" d="M43.267 3.912L5.054 10.245c-.812.134-1.367.864-1.24 1.63l9.5 57.333c.128.766.889 1.278 1.7 1.143l38.214-6.332c.812-.135 1.367-.865 1.24-1.63l-9.5-57.333c-.128-.766-.889-1.278-1.7-1.144zm-38.29 5.87c-1.082.18-1.822 1.153-1.653 2.174l9.5 57.333c.17 1.021 1.185 1.704 2.267 1.525l38.213-6.333c1.083-.18 1.823-1.152 1.654-2.174L45.457 4.974c-.17-1.021-1.184-1.704-2.266-1.524L4.977 9.782z" fill="#F57C1F"/><g clip-path="url(#clip0)"><path d="M33.385 42.589l-1.035.172-.593-13.243a1.55 1.55 0 00-.511-1.021l-3.736-3.062a.737.737 0 00-.586-.162.738.738 0 00-.503.343l-2.549 4.103a1.546 1.546 0 00-.154 1.13l3.71 12.727-1.035.172a.917.917 0 00-.754 1.054l.186 1.125a.918.918 0 001.054.754l2.2-.364.326 1.964a2.309 2.309 0 001.984 3.938 2.31 2.31 0 00.608-4.367l-.325-1.965 2.2-.364a.918.918 0 00.754-1.055l-.187-1.125a.917.917 0 00-1.054-.754z" fill="#D0D9DE"/></g><path d="M50.258 65.276c-.51.084-.952.029-1.326-.166-.37-.2-.607-.546-.708-1.037a.18.18 0 01.017-.124.16.16 0 01.11-.064l.147-.024c.05-.008.088 0 .118.026a.181.181 0 01.07.101c.089.358.268.605.538.742.273.13.593.166.96.105.422-.07.723-.26.903-.572.184-.318.238-.704.162-1.16l-.467-2.822-2.712.45a.161.161 0 01-.125-.025.16.16 0 01-.063-.11l-.02-.118a.161.161 0 01.025-.125.161.161 0 01.11-.064l3.005-.498a.18.18 0 01.133.024.172.172 0 01.065.117l.514 3.102c.097.587.019 1.086-.236 1.496-.25.404-.657.652-1.22.746zM8.463 19.727a.245.245 0 01-.18-.028.207.207 0 01-.093-.146l-1.15-6.449a.208.208 0 01.036-.169.225.225 0 01.158-.099l.192-.034a.261.261 0 01.192.027.22.22 0 01.094.156l.456 2.56 2.758-3.215c.05-.05.1-.092.153-.129a.518.518 0 01.225-.09l.17-.031c.058-.01.11 0 .16.032s.08.074.089.127c.01.052 0 .098-.03.137L8.61 15.993l4.417 2.575c.05.032.079.074.088.126a.185.185 0 01-.039.15.216.216 0 01-.139.085l-.18.033a.63.63 0 01-.242.002 2.525 2.525 0 01-.19-.078l-3.972-2.298.508 2.845a.194.194 0 01-.047.17.245.245 0 01-.16.09l-.191.034z" fill="#000"/><rect x="10.926" y=".497" width="47.673" height="72.503" rx="2" fill="#fff"/><path fill-rule="evenodd" clip-rule="evenodd" d="M56.613.993h-43.7a1.49 1.49 0 00-1.49 1.49v68.53c0 .824.666 1.49 1.49 1.49h43.7a1.49 1.49 0 001.49-1.49V2.484a1.49 1.49 0 00-1.49-1.49zm-43.7-.496c-1.098 0-1.987.89-1.987 1.986v68.53c0 1.098.89 1.987 1.986 1.987h43.7c1.098 0 1.987-.89 1.987-1.986V2.484c0-1.098-.89-1.987-1.986-1.987h-43.7z" fill="#EEE"/><path fill-rule="evenodd" clip-rule="evenodd" d="M54.13 4.47H15.394a1.49 1.49 0 00-1.49 1.49v61.578c0 .822.667 1.49 1.49 1.49h38.734a1.49 1.49 0 001.49-1.49V5.959a1.49 1.49 0 00-1.49-1.49zm-38.735-.497c-1.098 0-1.987.89-1.987 1.986v61.579c0 1.097.89 1.986 1.987 1.986h38.734c1.097 0 1.987-.89 1.987-1.986V5.959c0-1.097-.89-1.986-1.987-1.986H15.395z" fill="#F57C1F"/><path d="M46.056 34.002a.67.67 0 01-.018.2l-1.48 5.922a.673.673 0 01-.65.51l-8.882.045H26.14a.673.673 0 01-.653-.51l-1.48-5.945a.673.673 0 01-.018-.205A1.415 1.415 0 0123 32.67c0-.78.634-1.413 1.413-1.413a1.41 1.41 0 01.897 2.504l1.854 1.867a2.53 2.53 0 001.783.743c.787 0 1.536-.373 2.008-1l3.046-4.035A1.415 1.415 0 0135 28.925a1.414 1.414 0 011.021 2.388l.002.003 3.024 4.047a2.524 2.524 0 002.013 1.009c.671 0 1.302-.261 1.777-.736l1.865-1.865a1.41 1.41 0 01.885-2.513 1.412 1.412 0 01.469 2.744zm-1.643 8.785a.673.673 0 00-.673-.673H26.335a.673.673 0 00-.673.673v1.615c0 .371.301.673.673.673H43.74a.673.673 0 00.673-.673v-1.615z" fill="#F8981D"/><path d="M17.238 15a.245.245 0 01-.173-.06.207.207 0 01-.065-.16V8.23c0-.067.022-.12.065-.16a.225.225 0 01.173-.07h.195c.08 0 .14.02.184.06.043.04.065.097.065.17v2.6l3.279-2.68c.058-.04.116-.073.173-.1a.517.517 0 01.238-.05h.174c.057 0 .108.02.151.06.043.04.065.087.065.14a.169.169 0 01-.054.13l-3.669 3.02 3.896 3.31c.043.04.065.087.065.14 0 .053-.022.1-.065.14a.216.216 0 01-.151.06H21.6a.627.627 0 01-.239-.04 2.482 2.482 0 01-.173-.11l-3.506-2.96v2.89c0 .067-.025.12-.076.16a.245.245 0 01-.173.06h-.195zm30 51a.245.245 0 01-.173-.06.207.207 0 01-.065-.16v-6.55c0-.067.022-.12.065-.16a.225.225 0 01.173-.07h.195c.08 0 .14.02.184.06a.22.22 0 01.065.17v2.6l3.279-2.68c.058-.04.116-.073.173-.1a.517.517 0 01.238-.05h.173c.058 0 .109.02.152.06.043.04.065.087.065.14a.169.169 0 01-.054.13l-3.669 3.02 3.896 3.31c.043.04.065.087.065.14 0 .053-.022.1-.065.14a.216.216 0 01-.152.06H51.6a.627.627 0 01-.239-.04 2.482 2.482 0 01-.173-.11l-3.506-2.96v2.89c0 .067-.025.12-.076.16a.245.245 0 01-.173.06h-.195z" fill="#000"/><defs><clipPath id="clip0"><path fill="#fff" transform="rotate(-9.409 173.845 -67.973)" d="M0 0h27.313v27.313H0z"/></clipPath></defs></svg>