<svg width="59" height="73" fill="none" xmlns="http://www.w3.org/2000/svg"><rect y="7.083" width="43.329" height="65.896" rx="2" transform="rotate(-9.41 0 7.083)" fill="#fff"/><path fill-rule="evenodd" clip-rule="evenodd" d="M43.267 3.912L5.054 10.245c-.812.134-1.367.864-1.24 1.63l9.5 57.333c.128.766.889 1.278 1.7 1.143l38.214-6.332c.812-.135 1.367-.865 1.24-1.63l-9.5-57.333c-.128-.766-.889-1.278-1.7-1.144zm-38.29 5.87c-1.082.18-1.822 1.153-1.653 2.174l9.5 57.333c.17 1.021 1.185 1.704 2.267 1.525l38.213-6.333c1.083-.18 1.823-1.152 1.654-2.174L45.457 4.974c-.17-1.021-1.184-1.704-2.266-1.524L4.977 9.782z" fill="#D0D9DE"/><g clip-path="url(#clip0)"><path d="M33.385 42.589l-1.035.172-.593-13.243a1.55 1.55 0 00-.511-1.021l-3.736-3.062a.737.737 0 00-.586-.162.738.738 0 00-.503.343l-2.549 4.103a1.546 1.546 0 00-.154 1.13l3.71 12.727-1.035.172a.917.917 0 00-.754 1.054l.186 1.125a.918.918 0 001.054.754l2.2-.364.326 1.964a2.309 2.309 0 001.984 3.938 2.31 2.31 0 00.608-4.367l-.325-1.965 2.2-.364a.918.918 0 00.754-1.055l-.187-1.125a.917.917 0 00-1.054-.754z" fill="#D0D9DE"/></g><path d="M10.379 19.03c-.51.085-.952.03-1.326-.165-.37-.2-.607-.546-.708-1.038a.18.18 0 01.017-.124.161.161 0 01.11-.063l.147-.024c.05-.009.088 0 .118.025a.182.182 0 01.07.102c.089.358.268.605.538.741.273.131.593.166.96.105.422-.07.723-.26.903-.572.184-.317.238-.704.162-1.16l-.467-2.821-2.712.449a.161.161 0 01-.125-.025.161.161 0 01-.063-.11l-.02-.117a.161.161 0 01.025-.125.16.16 0 01.11-.064l3.006-.498a.173.173 0 01.132.023.174.174 0 01.065.118l.514 3.101c.097.588.019 1.087-.236 1.497-.25.403-.657.652-1.22.745zm39.879 46.246c-.51.084-.952.029-1.326-.166-.37-.2-.607-.546-.708-1.037a.18.18 0 01.017-.124.16.16 0 01.11-.064l.147-.024c.05-.008.088 0 .118.026a.181.181 0 01.07.101c.089.358.268.605.538.742.273.13.593.166.96.105.422-.07.723-.26.903-.572.184-.318.238-.704.162-1.16l-.467-2.822-2.712.45a.161.161 0 01-.125-.025.16.16 0 01-.063-.11l-.02-.118a.161.161 0 01.025-.125.161.161 0 01.11-.064l3.005-.498a.18.18 0 01.133.024.172.172 0 01.065.117l.514 3.102c.097.587.019 1.086-.236 1.496-.25.404-.657.652-1.22.746z" fill="#000"/><rect x="10.926" y=".497" width="47.673" height="72.503" rx="2" fill="#fff"/><path fill-rule="evenodd" clip-rule="evenodd" d="M56.613.993h-43.7a1.49 1.49 0 00-1.49 1.49v68.53c0 .824.666 1.49 1.49 1.49h43.7a1.49 1.49 0 001.49-1.49V2.484a1.49 1.49 0 00-1.49-1.49zm-43.7-.496c-1.098 0-1.987.89-1.987 1.986v68.53c0 1.098.89 1.987 1.986 1.987h43.7c1.098 0 1.987-.89 1.987-1.986V2.484c0-1.098-.89-1.987-1.986-1.987h-43.7z" fill="#EEE"/><path fill-rule="evenodd" clip-rule="evenodd" d="M54.13 4.47H15.394a1.49 1.49 0 00-1.49 1.49v61.578c0 .822.667 1.49 1.49 1.49h38.734a1.49 1.49 0 001.49-1.49V5.959a1.49 1.49 0 00-1.49-1.49zm-38.735-.497c-1.098 0-1.987.89-1.987 1.986v61.579c0 1.097.89 1.986 1.987 1.986h38.734c1.097 0 1.987-.89 1.987-1.986V5.959c0-1.097-.89-1.986-1.987-1.986H15.395z" fill="#D0D9DE"/><g clip-path="url(#clip1)"><path d="M38.057 40.983h-1.05l1.58-13.162a1.55 1.55 0 00-.337-1.09l-3.185-3.632a.737.737 0 00-.552-.255.737.737 0 00-.552.255l-3.185 3.631a1.55 1.55 0 00-.337 1.091l1.58 13.162h-1.05a.918.918 0 00-.916.916v1.14c0 .506.41.917.916.917h2.23v1.991a2.31 2.31 0 103.625 1.9 2.31 2.31 0 00-.997-1.9v-1.99h2.23a.918.918 0 00.916-.917V41.9a.917.917 0 00-.916-.917z" fill="#D0D9DE"/></g><path d="M19.21 13.98c-.516 0-.943-.127-1.28-.38-.334-.259-.51-.639-.53-1.14 0-.05.013-.09.038-.12a.16.16 0 01.119-.044h.149c.05 0 .087.015.111.045.03.03.048.067.053.111.03.368.166.641.41.82.248.174.558.26.93.26.428 0 .755-.139.984-.417.233-.283.35-.655.35-1.117v-2.86h-2.749a.161.161 0 01-.119-.045.161.161 0 01-.045-.12v-.118c0-.05.015-.09.045-.12s.07-.044.12-.044h3.046c.054 0 .097.015.127.044.03.03.044.072.044.127v3.143c0 .596-.159 1.076-.477 1.438-.312.358-.754.537-1.326.537zm31.784 52.142c-.517 0-.944-.126-1.282-.38-.332-.258-.509-.638-.528-1.14 0-.049.012-.089.037-.118.03-.03.07-.045.119-.045h.149c.05 0 .087.015.112.045a.18.18 0 01.052.111c.03.368.166.64.41.82.248.173.558.26.93.26.428 0 .755-.139.984-.417.233-.283.35-.655.35-1.117v-2.86h-2.749a.161.161 0 01-.119-.045.161.161 0 01-.045-.12v-.119c0-.05.015-.089.045-.119s.07-.044.12-.044h3.046c.055 0 .097.014.127.044s.044.072.044.127v3.143c0 .596-.159 1.075-.476 1.438-.313.358-.755.536-1.326.536z" fill="#000"/><defs><clipPath id="clip0"><path fill="#fff" transform="rotate(-9.409 173.845 -67.973)" d="M0 0h27.313v27.313H0z"/></clipPath><clipPath id="clip1"><path fill="#fff" transform="translate(20.857 22.844)" d="M0 0h27.313v27.313H0z"/></clipPath></defs></svg>