<svg width="59" height="73" fill="none" xmlns="http://www.w3.org/2000/svg"><rect y="7.083" width="43.329" height="65.896" rx="2" transform="rotate(-9.41 0 7.083)" fill="#fff"/><path fill-rule="evenodd" clip-rule="evenodd" d="M43.267 3.912L5.054 10.245c-.812.134-1.367.864-1.24 1.63l9.5 57.333c.128.766.889 1.278 1.7 1.143l38.214-6.332c.812-.135 1.367-.865 1.24-1.63l-9.5-57.333c-.128-.766-.889-1.278-1.7-1.144zm-38.29 5.87c-1.082.18-1.822 1.153-1.653 2.174l9.5 57.333c.17 1.021 1.185 1.704 2.267 1.525l38.213-6.333c1.083-.18 1.823-1.152 1.654-2.174L45.457 4.974c-.17-1.021-1.184-1.704-2.266-1.524L4.977 9.782z" fill="#23A873"/><g clip-path="url(#clip0)"><path d="M33.385 42.589l-1.035.172-.593-13.243a1.55 1.55 0 00-.511-1.021l-3.736-3.062a.737.737 0 00-.586-.162.738.738 0 00-.503.343l-2.549 4.103a1.546 1.546 0 00-.154 1.13l3.71 12.727-1.035.172a.917.917 0 00-.754 1.054l.186 1.125a.918.918 0 001.054.754l2.2-.364.326 1.964a2.309 2.309 0 001.984 3.938 2.31 2.31 0 00.608-4.367l-.325-1.965 2.2-.364a.918.918 0 00.754-1.055l-.187-1.125a.917.917 0 00-1.054-.754z" fill="#D0D9DE"/></g><path d="M50.258 65.276c-.51.084-.952.029-1.326-.166-.37-.2-.607-.546-.708-1.037a.18.18 0 01.017-.124.16.16 0 01.11-.064l.147-.024c.05-.008.088 0 .118.026a.181.181 0 01.07.101c.089.358.268.605.538.742.273.13.593.166.96.105.422-.07.723-.26.903-.572.184-.318.238-.704.162-1.16l-.467-2.822-2.712.45a.161.161 0 01-.125-.025.16.16 0 01-.063-.11l-.02-.118a.161.161 0 01.025-.125.161.161 0 01.11-.064l3.005-.498a.18.18 0 01.133.024.172.172 0 01.065.117l.514 3.102c.097.587.019 1.086-.236 1.496-.25.404-.657.652-1.22.746zM8.682 17.488c-.525.09-.979.047-1.362-.127-.379-.18-.618-.498-.717-.955a.157.157 0 01.02-.116.176.176 0 01.114-.062l.151-.026c.05-.009.09-.001.12.022a.163.163 0 01.071.093c.088.333.27.56.545.682.28.117.61.143.988.078.434-.074.745-.259.934-.554.193-.3.253-.663.18-1.088l-.449-2.628-2.794.477a.176.176 0 01-.128-.02.143.143 0 01-.064-.102l-.019-.11a.142.142 0 01.027-.117.176.176 0 01.114-.062l3.097-.529c.055-.01.1-.003.136.02a.151.151 0 01.065.108l.493 2.889c.094.547.008 1.015-.258 1.404-.262.383-.684.624-1.264.723zm5.006-.856c-1.297.222-2.071-.294-2.322-1.547a16.765 16.765 0 01-.105-.574 16.602 16.602 0 01-.091-.576c-.086-.624.02-1.126.32-1.506.298-.38.75-.622 1.356-.725.606-.104 1.113-.026 1.52.233.408.26.675.697.802 1.315.057.272.094.462.113.572.019.11.046.302.083.578.18 1.265-.379 2.009-1.676 2.23zm-.07-.41c.454-.078.794-.263 1.02-.555.23-.297.31-.704.243-1.218a19.216 19.216 0 00-.077-.543c-.015-.087-.05-.267-.107-.539-.108-.507-.32-.861-.634-1.06-.315-.205-.698-.27-1.147-.192-.45.076-.789.264-1.018.561-.23.293-.312.697-.245 1.211.018.138.046.319.085.543.038.223.071.403.1.539.107.508.316.864.626 1.07.315.2.7.26 1.154.183zm3.444-.236a.176.176 0 01-.128-.02.142.142 0 01-.065-.103l-.766-4.483a.143.143 0 01.027-.118.161.161 0 01.113-.068l.136-.023a.187.187 0 01.136.019.151.151 0 01.065.108l.305 1.78 1.98-2.226a.825.825 0 01.11-.09.373.373 0 01.16-.062l.121-.021c.04-.007.079 0 .114.023a.128.128 0 01.061.088.116.116 0 01-.022.096l-2.214 2.505 3.113 1.8a.128.128 0 01.062.088.128.128 0 01-.03.104.155.155 0 01-.098.06l-.129.021a.455.455 0 01-.171.001 1.78 1.78 0 01-.134-.054l-2.8-1.607.338 1.978a.133.133 0 01-.034.118.176.176 0 01-.114.062l-.136.024zm4.355-.744a.177.177 0 01-.128-.02.143.143 0 01-.064-.103l-.767-4.483a.143.143 0 01.027-.118.162.162 0 01.113-.068l2.953-.505c.056-.01.1-.003.136.02a.151.151 0 01.065.108l.018.103a.133.133 0 01-.035.118.176.176 0 01-.114.062l-2.642.451.298 1.746 2.476-.423c.055-.01.1-.003.136.02a.15.15 0 01.065.108l.018.102a.134.134 0 01-.035.119.176.176 0 01-.114.062l-2.476.423.31 1.814 2.703-.462a.187.187 0 01.136.019.151.151 0 01.065.109l.018.102a.133.133 0 01-.035.119.176.176 0 01-.114.062l-3.013.514zm4.481-.766a.177.177 0 01-.128-.02.142.142 0 01-.064-.102l-.767-4.484a.142.142 0 01.027-.117.161.161 0 01.113-.069l1.764-.301c.545-.093.992-.05 1.34.13.347.18.56.499.638.955.062.36.013.67-.146.927-.159.252-.416.449-.772.59l1.54 1.667a.16.16 0 01.035.071.128.128 0 01-.029.104.156.156 0 01-.099.059l-.09.016a.314.314 0 01-.182-.012.71.71 0 01-.138-.124l-1.518-1.636-1.56.267.32 1.875a.134.134 0 01-.034.119.176.176 0 01-.114.062l-.136.023zm1.31-2.732c.439-.075.75-.21.936-.406.189-.202.255-.464.2-.788-.055-.325-.205-.548-.45-.67-.24-.129-.58-.155-1.018-.08l-1.416.242.332 1.944 1.416-.242z" fill="#000"/><rect x="10.926" y=".497" width="47.673" height="72.503" rx="2" fill="#fff"/><path fill-rule="evenodd" clip-rule="evenodd" d="M56.613.993h-43.7a1.49 1.49 0 00-1.49 1.49v68.53c0 .824.666 1.49 1.49 1.49h43.7a1.49 1.49 0 001.49-1.49V2.484a1.49 1.49 0 00-1.49-1.49zm-43.7-.496c-1.098 0-1.987.89-1.987 1.986v68.53c0 1.098.89 1.987 1.986 1.987h43.7c1.098 0 1.987-.89 1.987-1.986V2.484c0-1.098-.89-1.987-1.986-1.987h-43.7z" fill="#EEE"/><path fill-rule="evenodd" clip-rule="evenodd" d="M54.13 4.47H15.394a1.49 1.49 0 00-1.49 1.49v61.578c0 .822.667 1.49 1.49 1.49h38.734a1.49 1.49 0 001.49-1.49V5.959a1.49 1.49 0 00-1.49-1.49zm-38.735-.497c-1.098 0-1.987.89-1.987 1.986v61.579c0 1.097.89 1.986 1.987 1.986h38.734c1.097 0 1.987-.89 1.987-1.986V5.959c0-1.097-.89-1.986-1.987-1.986H15.395z" fill="#23A873"/><path d="M47.505 39.908a1.48 1.48 0 01-1.19-.609c-1.77 1.203-3.862 3.508-3.862 7.701 0 0-2.752-2.54-7.425-2.54H35c-4.673 0-7.424 2.54-7.424 2.54 0-4.207-2.107-6.515-3.882-7.715a1.478 1.478 0 01-1.199.623c-.826 0-1.495-.69-1.495-1.541s.67-1.541 1.495-1.541c.732 0 1.34.542 1.47 1.257 3.59.562 6.084 3.389 6.084 3.389 0-4.272 3.022-9.474 4.344-11.546a1.544 1.544 0 01-.841-1.385c0-.85.669-1.541 1.495-1.541.826 0 1.495.69 1.495 1.541 0 .63-.366 1.17-.89 1.41 1.33 2.088 4.328 7.266 4.328 11.52 0 0 2.48-2.808 6.054-3.38.127-.719.736-1.265 1.47-1.265.827 0 1.496.69 1.496 1.54 0 .853-.67 1.542-1.495 1.542z" fill="#23A873"/><path d="M19.867 14c-.533 0-.973-.118-1.322-.354-.343-.24-.525-.595-.545-1.063 0-.046.013-.083.038-.11a.176.176 0 01.123-.042h.154c.051 0 .09.013.115.041.03.028.049.063.054.104.03.343.171.598.422.764.256.162.577.243.96.243.441 0 .779-.13 1.015-.389.24-.263.36-.61.36-1.041V9.486h-2.834a.176.176 0 01-.123-.042.143.143 0 01-.046-.11v-.112c0-.046.015-.083.046-.11a.176.176 0 01.123-.043h3.142c.056 0 .1.014.13.042a.15.15 0 01.047.118v2.93c0 .556-.164 1.003-.492 1.341-.323.333-.779.5-1.367.5zm5.078 0c-1.316 0-1.992-.639-2.028-1.917a16.925 16.925 0 01-.007-.583c0-.25.002-.444.007-.583.02-.63.21-1.107.569-1.43.358-.325.845-.487 1.46-.487.614 0 1.1.162 1.459.486.358.324.548.801.568 1.43.01.278.015.473.015.584 0 .111-.005.306-.015.583-.036 1.278-.712 1.917-2.028 1.917zm0-.417c.461 0 .827-.125 1.099-.375.276-.254.425-.64.445-1.16.01-.277.015-.46.015-.548 0-.088-.005-.27-.015-.549-.02-.518-.169-.902-.445-1.152-.277-.255-.643-.382-1.099-.382-.456 0-.822.127-1.098.382-.277.25-.425.634-.446 1.152-.005.14-.007.322-.007.549 0 .227.002.41.007.549.02.518.167.905.438 1.16.277.25.645.374 1.106.374zm3.435.347a.176.176 0 01-.123-.041.143.143 0 01-.046-.111V9.229c0-.046.015-.083.046-.11a.161.161 0 01.123-.05h.138c.056 0 .1.014.13.042a.15.15 0 01.047.118v1.806l2.327-1.861a.825.825 0 01.123-.07.374.374 0 01.169-.035h.123c.04 0 .077.014.107.042.031.028.046.06.046.097a.116.116 0 01-.038.09l-2.604 2.098 2.765 2.298a.127.127 0 010 .195.155.155 0 01-.107.042h-.13a.455.455 0 01-.17-.028 1.787 1.787 0 01-.123-.077l-2.488-2.055v2.007a.134.134 0 01-.054.11.176.176 0 01-.123.043h-.138zm4.418 0a.176.176 0 01-.123-.041.143.143 0 01-.046-.111V9.229c0-.046.015-.083.046-.11a.161.161 0 01.123-.05h2.996c.056 0 .1.014.13.042.03.028.046.067.046.118v.104a.133.133 0 01-.053.111.176.176 0 01-.123.042h-2.681v1.77h2.512c.056 0 .1.015.13.043.03.027.046.067.046.118v.104a.133.133 0 01-.053.11.176.176 0 01-.123.043h-2.512v1.84h2.742c.056 0 .1.014.13.042.031.027.047.067.047.118v.104a.134.134 0 01-.054.11.176.176 0 01-.123.043h-3.057zm4.546 0a.176.176 0 01-.123-.041.143.143 0 01-.046-.111V9.229c0-.046.015-.083.046-.11a.161.161 0 01.123-.05h1.79c.553 0 .985.118 1.298.355.312.236.468.585.468 1.048 0 .366-.1.662-.3.89-.2.221-.486.372-.86.45l1.237 1.903a.16.16 0 01.023.077c0 .037-.015.07-.046.097a.155.155 0 01-.108.042h-.092a.314.314 0 01-.176-.042.713.713 0 01-.116-.146l-1.221-1.868h-1.582v1.903a.133.133 0 01-.054.11.176.176 0 01-.123.043h-.138zm1.751-2.472c.446 0 .776-.08.99-.243.221-.166.331-.414.331-.743s-.11-.574-.33-.736c-.215-.167-.545-.25-.991-.25h-1.436v1.972h1.436zM30.867 64c-.533 0-.973-.118-1.322-.354-.343-.24-.525-.595-.545-1.063 0-.046.013-.083.038-.11a.176.176 0 01.123-.042h.154c.051 0 .09.013.115.041.03.028.049.063.054.104.03.343.171.598.422.764.256.162.577.243.96.243.441 0 .779-.13 1.015-.389.24-.263.36-.61.36-1.041v-2.667h-2.834a.176.176 0 01-.123-.042.142.142 0 01-.046-.11v-.112c0-.046.015-.083.046-.11a.176.176 0 01.123-.043h3.142c.056 0 .1.014.13.042.031.028.046.067.046.118v2.93c0 .556-.163 1.003-.491 1.341-.323.333-.779.5-1.367.5zm5.078 0c-1.316 0-1.992-.639-2.028-1.917a16.925 16.925 0 01-.007-.583c0-.25.002-.444.007-.583.02-.63.21-1.107.569-1.43.358-.325.845-.487 1.46-.487.614 0 1.1.162 1.459.486.358.324.548.801.568 1.43.01.278.015.473.015.584 0 .111-.005.306-.015.583-.036 1.278-.712 1.917-2.028 1.917zm0-.417c.461 0 .827-.125 1.099-.375.276-.254.425-.64.445-1.16.01-.277.016-.46.016-.548 0-.088-.006-.27-.016-.549-.02-.518-.169-.902-.445-1.152-.277-.255-.643-.382-1.099-.382-.456 0-.822.127-1.098.382-.277.25-.425.634-.446 1.152-.005.14-.007.322-.007.549 0 .227.002.41.007.549.02.518.167.905.438 1.16.277.25.645.374 1.106.374zm3.435.347a.176.176 0 01-.123-.041.143.143 0 01-.046-.111v-4.549c0-.046.015-.083.046-.11a.161.161 0 01.123-.05h.138c.056 0 .1.014.13.042.031.028.046.067.046.118v1.806l2.328-1.861a.821.821 0 01.123-.07.373.373 0 01.169-.035h.123c.04 0 .077.014.107.042.031.028.046.06.046.097a.116.116 0 01-.038.09l-2.604 2.098 2.765 2.298a.127.127 0 010 .195.155.155 0 01-.107.042h-.13a.455.455 0 01-.17-.028 1.787 1.787 0 01-.123-.077l-2.489-2.055v2.007a.134.134 0 01-.053.11.176.176 0 01-.123.043h-.138zm4.418 0a.176.176 0 01-.123-.041.143.143 0 01-.046-.111v-4.549c0-.046.015-.083.046-.11a.161.161 0 01.123-.05h2.996c.056 0 .1.014.13.042.03.028.046.067.046.118v.104a.133.133 0 01-.053.111.176.176 0 01-.123.042h-2.681v1.77h2.512c.056 0 .1.015.13.043.03.027.046.067.046.118v.104a.133.133 0 01-.053.11.176.176 0 01-.123.043h-2.512v1.84h2.742c.056 0 .1.014.13.042.031.027.047.067.047.118v.104a.134.134 0 01-.054.11.176.176 0 01-.123.043h-3.057zm4.546 0a.176.176 0 01-.123-.041.143.143 0 01-.046-.111v-4.549c0-.046.015-.083.046-.11a.161.161 0 01.123-.05h1.79c.553 0 .985.118 1.298.355.312.236.468.585.468 1.048 0 .366-.1.662-.3.89-.2.221-.486.372-.86.45l1.237 1.903a.16.16 0 01.023.077c0 .037-.015.07-.046.097a.155.155 0 01-.108.042h-.092a.314.314 0 01-.176-.042.713.713 0 01-.116-.146l-1.221-1.868h-1.582v1.903a.133.133 0 01-.054.11.176.176 0 01-.123.043h-.138zm1.751-2.472c.446 0 .776-.08.99-.243.221-.166.331-.414.331-.743 0-.328-.11-.574-.33-.736-.215-.167-.545-.25-.991-.25h-1.436v1.972h1.436z" fill="#000"/><defs><clipPath id="clip0"><path fill="#fff" transform="rotate(-9.409 173.845 -67.973)" d="M0 0h27.313v27.313H0z"/></clipPath></defs></svg>