<svg width="40" height="32" fill="none" xmlns="http://www.w3.org/2000/svg"><path d="M39.2 3.8c-1.4.6-3 1-4.6 1.2 1.6-1 3-2.6 3.6-4.4-1.6 1-3.2 1.6-5.2 2C31.6 1 29.4 0 27.2 0c-4.4 0-8 3.6-8 8 0 .6 0 1.2.2 1.8-6.6-.4-12.6-3.6-16.6-8.4-.6 1.2-1 2.6-1 4 0 2.8 1.4 5.2 3.6 6.6-1.4 0-2.6-.4-3.6-1 0 3.8 2.8 7.2 6.4 7.8-.6.2-1.4.2-2.2.2-.6 0-1 0-1.6-.2 1 3.2 4 5.6 7.6 5.6-2.8 2.2-6.2 3.4-10 3.4-.6 0-1.2 0-2-.2 3.6 2.2 7.8 3.6 12.4 3.6 14.8 0 22.8-12.2 22.8-22.8v-1c1.6-.6 3-2 4-3.6z" fill="#2EBCF9"/></svg>