<svg width="42" height="31" fill="none" xmlns="http://www.w3.org/2000/svg"><path d="M42 11.899c0-.94-.153-2.035-.153-3.288-.154-1.252-.307-2.505-.46-3.6-.307-1.253-.767-2.193-1.686-2.976-.767-.782-1.84-1.252-2.913-1.409C33.263.156 28.051 0 21 0S8.584.157 5.212.626c-1.073.157-2.146.627-2.913 1.41C1.533 2.817.92 3.757.613 5.01.307 6.106.153 7.202.153 8.611 0 9.864 0 10.96 0 11.9v7.202c0 .94.153 2.035.153 3.288.154 1.252.307 2.505.46 3.6.307 1.253.767 2.193 1.686 2.976.767.782 1.84 1.252 2.913 1.409C8.737 30.844 13.949 31 21 31s12.416-.157 15.788-.626c1.073-.157 2.146-.627 2.913-1.41.766-.782 1.38-1.722 1.686-2.974.306-1.096.46-2.192.46-3.601C42 21.136 42 20.04 42 19.1v-7.201zm-12.876 4.854l-12.11 7.671c-.153.157-.46.313-.766.313s-.46 0-.766-.156c-.46-.313-.767-.783-.767-1.41v-15.5c0-.626.307-1.095.767-1.408a1.368 1.368 0 011.533 0l12.11 7.671c.459.314.765.783.765 1.253 0 .47-.306 1.252-.766 1.566z" fill="#F91717"/></svg>