<svg width="105" height="35" fill="none" xmlns="http://www.w3.org/2000/svg"><path fill-rule="evenodd" clip-rule="evenodd" d="M22.357 29.645c8.471-2.35 13.724-1.913 17.595.58h.002c1.96 1.266 4.31 3.103 5.138 4.35-2.487-1.827-5.903-2.731-8.27-2.513-2.88.048-4.032 2.285-4.032 2.285-3.152-5.739-12.162-3.26-15.316-2.391-.314.086-.57.157-.757.202-.321.077-.667.162-1.03.251-1.973.485-4.489 1.103-6.627 1.328-3.612.304-6.64-1.151-8.098-3.892-1.885-3.95-.628-8.802.763-12.19C4.137 12.04 8.4 6.911 13.727 3.21 16.164 1.715 18.804.364 21.64.526c.828.152 1.495.6 1.881 1.246.92 1.818-.25 3.769-1.042 4.787-.735.904-2.438 1.247-2.37-.4.047-1.075.923-1.874 1.242-2.122.393-.257.902-.304 1.205-.304.288-.267.51-2.132-1.863-1.523-3.096.97-5.441 3.388-7.969 6.205-4.528 5.414-7.078 10.296-8.021 15.368-.407 3.112.138 5.272 1.657 6.614 3.39 2.34 6.086 1.676 12.472.102a327.87 327.87 0 013.526-.854zM99.16 4.417c-2.38 1.352-4.846 2.227-7.832 1.923a45.813 45.813 0 00-2.375 2.883c4.19 1.066 8.633-1.304 11.111-3.559C102.686 3.39 104.03.526 104.03.526s-1.965 2.245-4.869 3.891zM91.318 30.49c-.336.229-.807.053-.63-.47.438-1.332 2.184-4.047 2.184-4.047l4.863-8.625h-3.331c-.158.26-.497.857-.497.857-.154-.256-.615-.827-.805-.95-.813-.515-2.007-.272-2.831.195-3.534 2.066-6.125 6.123-8.173 9.33l-.081.126s-2.17 3.587-3.373 3.853c-.94.076-.843-1.19-.803-1.485.364-2.132 1.208-4.159 2.058-5.995a46.053 46.053 0 005.497-4.492c3.893-3.72 7.175-7.937 7.654-8.879 0 0-.519.105-1.132.124-2.995 4.178-9.123 10.25-10.981 11.153.823-1.98 6.14-11.43 10.666-15.949l.713-.685c1.1-1.076 2.242-2.18 3.13-2.36.095-.01.216 0 .32.219.04.837-.272 1.456-.63 2.16l-.5 1.028s.71-.134 1.175-.286c.541-1.018 1.14-2.16.92-3.52-.074-.439-.391-.772-.805-.848-1.35-.257-2.822.742-4.005 1.551l-.048.029C85.787 7.29 80.649 14.162 76.156 23.545c-.326.247-1.584.543-1.798.4.444-.914 1.003-2.142 1.282-3.474.049-.38.094-.77.094-1.151 0-.82-.197-1.59-.93-2.122-.861-.429-1.924-.229-2.641.095-3.212 1.332-5.612 4.625-7.344 7.337-.931 1.722-1.86 3.568-2.117 5.68-.181 1.656.187 2.722 1.129 3.255.968.495 2.186-.02 2.665-.266 3.253-1.713 5.526-5.148 7.318-8.29a8.094 8.094 0 01.098-.006c.278-.015 1.07-.061 1.692-.221.01 0 .014 0 .03.01-.042.142-.424 1.284-.424 1.284-1.136 3.33-1.661 5.596-.589 6.937 1.533 1.894 4.071-.066 6.136-2.655-.443 3.102 1.164 3.588 2.39 3.35 1.408-.38 2.977-1.884 3.705-2.655-.234.904-.17 2.522 1.11 2.684.754.139 1.344-.193 1.977-.549.105-.058.21-.118.318-.176 2.727-1.485 5.99-6.432 6.838-7.862h-1.111l-.132.2c-1.184 1.792-2.675 4.049-4.534 5.14zm-17.996-6.716c-.096.066-1.792-.505-2.12-2.075-.278-1.352.653-2.408 1.554-2.94.386-.305.969-.41 1.396-.258.396.267.504.743.504 1.256 0 .305-.04.617-.075.905l-.004.028-.008.067a12.665 12.665 0 01-1.247 3.016zm13.6 5.785l-.321.286-.031.027c-.448.4-.91.815-1.466.6-.157-.057-.267-.266-.294-.428-.025-1.166.498-2.247 1.007-3.3l.006-.011.13-.276.077-.128c1.454-2.427 3.147-5.255 5.614-7.228.422-.305.881-.561 1.366-.361.111.104.241.285.241.466 0 .057-.05.21-.08.256a92.83 92.83 0 00-1.79 3.063l-.228.402c-1.269 2.255-2.585 4.586-4.23 6.633zm-20.314-.242c.006.304.063.585.236.842 1.443 1.675 4.9-3.135 5.91-5.381-.813-.352-2.157-1.188-2.751-2.488H70c-1.418 1.82-3.425 5.161-3.392 7.027zm-14.175-17.3h-3.12l1.76-2.86h3.121l-1.76 2.86zm14.474.974c1.094-.265 5.518-3.606 6.014-9.297.02-.21.021-.361-.045-.6-2.725 1.4-5.266 4.13-6.754 7.347-1.01 2.389.122 2.683.785 2.55zm-2.605 5.044c-.317-.685-1.07-1.123-1.871-1.075-2.604.238-5.15 2.379-6.488 5.453-.701 1.58-1.084 2.883-1.335 4.957.81-.932 2.46-2.464 4.335-3.301 0 0 .255-1.99 1.555-3.76.492-.732 1.477-1.912 2.582-1.598.966.324.627 2.998-.657 5.585-.95 1.904-2.404 3.808-3.875 5.12-1.3 1.104-3.224 2.437-4.908 1.409-1.06-.628-1.6-1.941-1.486-3.635.506-4.806 2.694-8.898 5.824-13.56 3.228-4.33 6.786-8.775 11.58-11.145.977-.495 1.882-.609 2.665-.304 0 0-4.5 2.474-6.644 7.052l-.024.05c-.544 1.156-1.27 2.7-.517 4.07.4.723 1.109.78 1.68.742 2.629-.609 4.327-3.064 5.715-5.31.805-1.703 1.52-3.397 1.52-5.282 0-.228-.012-.532-.031-.76 1.256-.667 3.831.513 3.831.513 1.184.392 3.152 1.688 4.868 2.817 1.203.792 2.28 1.502 2.876 1.76.706-.818 1.864-2.055 2.517-2.673l-.945-.581c-1.448-.884-2.976-1.725-4.485-2.555h-.001l-.198-.11c-3.573-1.95-6.482-1.265-7.962-.732-.582.209-1.113.39-1.113.39-1.1-1.2-2.9-1.085-4.228-.762-4.774 1.37-9.206 4.71-13.958 10.505-3.493 4.54-5.66 8.46-6.815 12.333-.89 2.608-1.161 6.443 1.012 8.717 1.847 1.931 4.297 1.513 6.028.819 3.748-1.847 7.117-5.825 8.796-10.402.405-1.36.854-3.283.157-4.748zm-42.187-2.95s.63-1.446.637-1.465c.217-.647.408-1.342.407-1.96 0-.458-.104-.876-.38-1.2-.446-.352-1.216-.171-1.71.172-.517.39-1.687 1.465-1.402 2.835.206.704.877 1.294 1.765 1.57l.283.048.022.005c.156.036.291.068.379-.005zm-.717 1.285s-.029.086-.043.114c-.003 0-1.433 2.33-1.433 2.33l-.02.029c-.86 1.147-1.93 2.576-3.266 3.265-.399.133-.95.219-1.231-.133-.596-.714-.29-1.703-.04-2.503l.088-.285c.716-1.941 1.851-3.655 2.956-5.244a.146.146 0 01.056-.019c0 .003.002.006.003.008a.047.047 0 01.006.02c.693 1.333 1.993 1.951 2.965 2.237.006 0 .013.01.013.029a.47.47 0 01-.054.151zm20.833-5.186c-.453.4-2.314 2.769-2.953 3.654-2.571 3.464-3.404 5.966-3.473 6.784-.024.248.06.486.277.628.179.134.448.115.612.067 1.146-.638 1.849-1.551 2.547-2.617 0 0 .497-.76.494-.751 1.58-2.627 3.26-5.548 4.685-8.099-.053-.418-.663-1.009-2.189.334zM23.432 9.052c-1.972-1.294-5.937 1.18-9.112 5.424-2.904 3.807-4.158 8.231-2.793 10.277 2.03 2.408 5.798-1.094 7.4-2.968l.207-.22c1.07-1.149 1.9-2.527 2.701-3.855l.046-.075.784-1.294c.463-.086 1.02-.219 1.65-.4L24.28 16c-.286.504-2.354 4.13-2.126 5.994.007.062.014.14.021.231.066.813.216 2.674 2.17 3.281 2.898.486 5.212-1.76 7.253-3.759l.545-.522-.115.465c-.848 2.95.295 3.569 1.01 3.797 2.049.596 4.475-2.192 4.731-2.487l.022-.025-.023.305c-.071.854-.13 1.571.803 2.16.985.352 1.98-.185 2.738-.69 2.727-1.922 4.925-4.93 6.7-7.531h-1.133l-.078.106c-.462.642-2.89 4.008-4.52 4.8l-.006.001c-.042.02-.339.158-.515.033-.235-.2-.142-.615.002-.91l6.97-12.092h-3.286s-.36.581-.388.619a.452.452 0 01-.056-.082 1.136 1.136 0 00-.056-.085c-2.036-2.816-6.647 1.516-10.12 6.54-1.336 1.932-3.037 4.108-4.802 5.678 0 0-2.614 2.396-3.73.675-.41-.724-.284-1.781-.053-2.476 1.3-3.702 3.541-7.06 6.09-9.088.72-.561 1.503-.724 1.891-.486.37.22.43.761.196 1.133-.594-.02-1.07.161-1.456.56-.763.8-1.027 1.571-.785 2.295 1.177 1.674 3.524-1.637 3.41-3.655-.04-.723-.426-1.408-1.002-1.742-.858-.513-2.167-.38-3.015.03-1.134.427-2.93 1.921-3.978 3.083-1.32 1.456-3.583 3.073-4.29 2.892.021-.058.057-.144.104-.255.45-1.073 1.851-4.412.028-5.74z" fill="#B9C1CC"/></svg>