<svg width="555" height="531" fill="none" xmlns="http://www.w3.org/2000/svg"><path d="M84.87 366.417h364.698a6.17 6.17 0 01.137-2.558c1.324-4.903 7.657-6.989 12.914-8.873 16.533-5.931 31.373-19.787 30.021-35.566-.829-9.684-7.661-18.315-16.314-24.176-1.797-1.217-3.683-2.309-5.613-3.337 9.064-6.887 14.143-18.47 8.525-27.544l-4.674-17.959c-8.631-11.272 2.158-26.687 16.028-33.211 13.87-6.523 30.422-8.062 44.25-14.649 13.827-6.588 24.425-22.153 15.576-33.304-8.331-10.496-27.699-9.871-38.084-18.961-6.874-6.015-8.248-16.013-3.192-23.204 4.345-6.179 12.276-9.744 18.917-14.227 6.641-4.483 12.6-11.412 10.382-18.354-7.833-18.397-72.721-6.077-108.895-12.062-10.089-1.67-21.99-6.752-21.49-15.443.302-5.22 5.204-9.366 7.181-14.317 4.712-11.805-9.091-23.913-23.549-26.252-14.459-2.34-29.153 1.61-43.74 3.278a141.302 141.302 0 01-33.919-.232c-3.3-.423-6.781-1.05-9.174-3.017-2.206-1.814-3.109-4.46-4.817-6.623C295.547 10.14 271.962.694 248.961.388c-60.645-.807-78.54-.173-142.768 13.159-6.282 1.303-21.323 7.393-26.438 10.745-5.113 3.352-8.624 9.045-6.942 14.332 4.018 6.135 16.18 7.33 24.27 10.996 2.428 1.099 5.12 2.493 5.617 4.785.769 3.544-4.037 5.97-8.073 7.112-35.837 10.139-54.954 7.758-85.022 27.13-3.441 2.218-6.851 4.92-7.788 8.494-1.966 7.502 7.515 13.403 15.985 16.164 13.274 4.329 20.051 4.272 34.118 6.386 10.21 1.534 8.234.897 14.054 2.794 5.819 1.898 10.306 4.808 8.869 9.946-1.574 5.629-18.925 10.531-25.269 12.678-19.954 6.751-37.82 22.618-36.105 40.753 1.053 11.13 9.354 21.072 19.846 27.838 10.49 6.766 23.053 10.785 35.561 14.326a623.733 623.733 0 0038.548 9.584c-2.193 4.836-2.505 10.152.173 14.725l3.798 15.619c7.1 9.786-1.883 23.233-13.382 28.946-11.5 5.715-25.198 7.097-36.662 12.867-11.464 5.77-20.29 19.346-13.01 29.028 6.853 9.113 22.88 8.517 31.437 16.401 3.229 2.973 4.969 7.078 5.092 11.221" fill="#CCEDE0"/><path d="M335.565 74.91h57.496a16.02 16.02 0 001.204-6.102c0-8.889-7.201-16.094-16.083-16.094-.566 0-1.122.03-1.671.087-3.445-8.658-11.881-14.784-21.76-14.784-9.302 0-17.316 5.437-21.098 13.295a16.723 16.723 0 00-5.332-.88c-9.263 0-16.771 7.514-16.771 16.78 0 2.778.683 5.39 1.878 7.698h22.137m-52.307 97.754h37.059a10.35 10.35 0 00.776-3.933c0-5.73-4.641-10.373-10.368-10.373-.364 0-.722.02-1.077.056-2.219-5.581-7.656-9.53-14.024-9.53-5.996 0-11.16 3.505-13.599 8.57a10.797 10.797 0 00-3.437-.567c-5.971 0-10.811 4.842-10.811 10.815 0 1.791.442 3.475 1.212 4.962h14.269zM193.666 58.378h60.376a16.849 16.849 0 001.263-6.407c0-9.334-7.561-16.9-16.89-16.9-.592 0-1.177.032-1.754.09-3.617-9.09-12.474-15.524-22.85-15.524-9.768 0-18.18 5.71-22.153 13.962a17.58 17.58 0 00-5.598-.925c-9.728 0-17.613 7.89-17.613 17.622 0 2.916.72 5.66 1.974 8.082h23.245M89.676 183.39h60.376a16.863 16.863 0 001.265-6.408c0-9.333-7.563-16.899-16.892-16.899-.592 0-1.177.031-1.753.092-3.618-9.092-12.476-15.526-22.85-15.526-9.768 0-18.182 5.71-22.154 13.962a17.522 17.522 0 00-5.6-.925c-9.726 0-17.611 7.89-17.611 17.622 0 2.916.72 5.66 1.973 8.082h23.246zm354.627-40.781h37.444a10.43 10.43 0 00.785-3.974c0-5.789-4.69-10.481-10.475-10.481-.367 0-.73.02-1.089.056-2.242-5.638-7.735-9.628-14.171-9.628-6.057 0-11.276 3.541-13.739 8.658a10.897 10.897 0 00-3.471-.572c-6.034 0-10.924 4.892-10.924 10.928 0 1.808.447 3.51 1.224 5.013h14.416m-29.436 63.398h30.429a8.445 8.445 0 00.639-3.229c0-4.705-3.812-8.519-8.515-8.519-.298 0-.592.016-.883.047-1.823-4.583-6.288-7.825-11.517-7.825-4.924 0-9.164 2.878-11.166 7.036a8.878 8.878 0 00-2.823-.466c-4.903 0-8.876 3.977-8.876 8.883a8.83 8.83 0 00.994 4.073h11.718" fill="#fff"/><path d="M465.938 496.266c0 18.939-84.318 34.29-188.329 34.29-104.011 0-188.33-15.351-188.33-34.29 0-18.936 84.319-34.288 188.33-34.288 104.011 0 188.329 15.352 188.329 34.288z" fill="#E6F6F6"/><path d="M112.939 276.844s-1.57 3.83 1.174 7.458c2.742 3.628 17.088 6.516 18.942 10.755 1.579 3.606-.731 6.324-7.043 6.013-3.66-.179-12.072.258-16.916-3.846-5.972-5.064-11.768-10.325-12.39-11.332-1.129-1.823 6.559-10.173 6.262-12.391-.296-2.216 9.971 3.343 9.971 3.343z" fill="#215E62"/><path d="M113.975 274.715s-1.569 3.831 1.173 7.458c2.743 3.628 14.468 8.58 17.415 12.149 1.874 2.269.797 4.931-5.515 4.621-3.659-.181-12.072.258-16.915-3.848-5.974-5.063-11.768-10.325-12.392-11.332-1.128-1.823 6.56-10.173 6.263-12.391-.297-2.215 9.971 3.343 9.971 3.343zm58.819.053s-1.144 4.024 3.704 5.088c4.849 1.063 18.143 3.607 22.697 5.789 4.555 2.18 5.513 6.651-1.298 7.748-6.812 1.097-32.486.85-34.715.138-2.229-.714-1.375-10.001.874-16.517.797-2.308 8.738-2.246 8.738-2.246z" fill="#FAB10B"/><path d="M162.505 290.901c2.229.712 28.722.584 35.533-.514 2.609-.419 3.862-1.288 4.164-2.323 1.423 2.134.47 4.561-4.305 5.329-6.812 1.097-32.486.85-34.715.138-.89-.286-1.485-1.264-1.245-2.909.131.173.478.251.568.279z" fill="#215E62"/><path d="M171.932 133.843s8.459 56.662 8.775 65.576c.316 8.915-6.396 79.18-6.396 79.18l-11.155.996s-3.413-62.538-2.878-75.951c-1.275-4.597-8.628-38.573-14.914-46.009-6.285-7.437-10.443-15.268-10.199-22.223.246-6.955 36.767-1.569 36.767-1.569z" fill="#184044"/><path d="M169.655 141.435s-10.132 56.979-13.551 65.799c-3.419 8.821-42.246 69.68-42.246 69.68l-10.892-3.591s26.097-57.466 32.189-70.324c.719-5.002 6.503-32.155-1.326-38.708-15.058-12.603-8.875-27.73-5.746-34.411 3.13-6.679 41.572 11.555 41.572 11.555z" fill="#215E62"/><path d="M136.274 51.157s-17.334 23.984-27.987 46.487c-4.143 9.179 25.232 36.149 25.232 36.149l2.755-82.636z" fill="#3EBEC0"/><path d="M149.508 39.008s-24.443 4.506-26.768 55.894c-1.376 30.394-.172 47.964-.172 47.964s33.566 7.995 54.256-1.794c0-42.367-3.787-97.725-27.316-102.064z" fill="#42C0C8"/><path d="M178.122 8.373s5.313.208 9.166 6.982c3.855 6.774 4.999 13.236 2.917 23.24-2.084 10.005-9.375 7.877-10.833 8.42 4.167-1.543 5.254-5.293 5.386-6.752-2.678 3.022-3.928 3.907-5.386 5.054-1.458 1.147-3.541 10.056.417 13.182-2.916-1.458-5.521-5.836-4.896-8.337-.729 1.668-.287 4.69 1.315 7.087-2.148-1.041-3.294-3.855-3.294-3.855.417 3.022.208 4.064 2.552 6.252-9.114-1.666-14.948-6.878-18.488-16.361-3.541-9.484 17.707-34.704 21.144-34.912z" fill="#184044"/><path d="M183.747 17.31s2.812 6.33-.937 10.864c-3.751 4.533-3.751 7.347-3.204 10.942-.781 1.094-3.671 0-3.671 0s-.352 1.72-.546 1.837c-.196.116-1.563.313-2.188.313.117 1.015.39 1.602 0 1.758-.391.157-1.641.234-1.993.82-.352.587-.95 3.87-3.606 3.037-2.655-.835-10.312-9.849-7.499-18.29 2.812-8.441 12.811-13.652 14.165-14.486 1.355-.834 9.896 2.24 9.479 3.204z" fill="#FABC9B"/><path d="M164.296 42.32s-2.892 0-4.297 2.893c-1.407 2.892 4.297 13.368 3.047 13.368-6.465-.955-18.125-16.261-18.125-16.261s7.891-5.157 10.468-8.91c2.579-3.751 5.284-5.002 5.284-5.002l3.623 13.912z" fill="#F9AD86"/><path d="M178.859 31.221c-.217 0-2.98-.065-3.66-3.185a.273.273 0 01.533-.117c.606 2.778 3.019 2.763 3.125 2.757h.007a.273.273 0 01.008.545h-.013m2.583-2.735a.273.273 0 01-.265-.21c-.042-.171-1.054-4.19-4.917-3.431a.268.268 0 01-.319-.215.271.271 0 01.214-.32c4.391-.859 5.541 3.794 5.553 3.84a.275.275 0 01-.266.336z" fill="#235758"/><path d="M184.424 18.43s-.924-7.868-7.26-13.079C170.831.14 161.56 1.288 153.02 11.813c-8.541 10.524-14.478 22.822-9.583 30.012.729-.103 4.583-2.917 6.354-1.772 1.771 1.148 5.096 5.837 10.882 7.4-2.977-2.379-4.45-6.148-4.541-5.73 3.678 4.018 6.232 4.584 7.288 4.897-2.38-1.772-3.421-4.69-3.421-4.69 1.979 2.71 3.032 2.264 5.682 3.674-1.1-2.006-7.512-16.353-1.546-22.101 1.759-1.33.863.783.863.783s3.75 1.699 6.458-1.531 9.604.034 12.968-4.325z" fill="#235758"/><path d="M153.02 11.813C161.56 1.287 170.831.14 177.164 5.35c4.892 4.022 6.556 9.627 7.061 11.973-1.078-2.395-2.805-5.147-5.545-7.401-6.335-5.21-15.604-4.065-24.145 6.46-5.683 7.004-7.196 16.036-6.133 23.416-1.902.2-4.394 1.946-4.965 2.026-4.895-7.19 1.042-19.488 9.583-30.013z" fill="#184044"/><path d="M166.17 24.891s-.234-6.331-2.89-5.236c-2.656 1.094-3.517 6.173-1.484 9.065.937.782 1.952.157 2.89-1.406a123.361 123.361 0 011.484-2.423z" fill="#FABC9B"/><path d="M300.482 223.66s-11.758 3.099-15.141 3.878c-3.382.78-4.67 2.972-2.898 9.203 2.014 7.081 9.066 9.255 10.253 6.086 1.187-3.169 7.042-9.366 9.616-9.806 2.573-.44-1.83-9.361-1.83-9.361z" fill="#FAB48F"/><path d="M348.517 201.008s16.401-39.628 23.636-41.902c7.235-2.274 12.686 6.732 9.593 16.431-3.091 9.698-22.727 43.541-27.406 45.427-4.679 1.884-50.807 13.217-54.619 14.032-1.747-4.919-2.626-11.596-2.626-11.596l51.422-22.392z" fill="#FBC008"/><path d="M389.188 243.012s-44.144-38.106-63.137-29.204c-12.465 5.844 4.462 34.606 24.477 64.187 8.858 1.755 38.66-34.983 38.66-34.983z" fill="#184044"/><path d="M225.31 207.413s-5.346-16.196 5.786-28.449c11.131-12.253 25.562-1.926 37.001-9.328-5.652 18.857-15.423 39.772-42.787 37.777z" fill="#58C59B"/><path d="M214.919 210.266s9.855-18.524 1.39-35.448c-8.464-16.925-37.552 4.224-48.983-9.142 4.352 17.28 10.885 26.201 22.98 31.921 12.094 5.72 21.049 1.396 24.613 12.669z" fill="#69CBA4"/><path d="M202.196 215.016s-7.942-18.233-26.799-18.762c-18.856-.53-15.427 20.512-31.563 26.904 14.172 3.368 31.026-1.018 36.452-3.992 6.321-3.463 14.034-6.395 21.91-4.15z" fill="#58C59B"/><path d="M245.944 182.925c-17.025 9.214-23.524 27.704-25.556 45.113-1.138-9.462-2.549-18.797-4.067-23.298-5.532-16.395-15.352-23.831-29.059-24.238 8.496 1.547 21.743 8.732 26.549 27.05 2.031 7.74 2.815 19.683 3.044 30.895-1.778-7.793-4.623-15.867-9.179-21.575-11.91-14.925-32.439-9.043-36.513-6.769 11.08-2.211 26.75-1.18 34.313 12.795 6.422 11.867 10.587 35.274 11.068 42.595l-.033.737c4.904 1.626 10.732.208 13.897-3.691-12.969-47.577 3.8-66.355 15.536-79.614z" fill="#0B8C91"/><path d="M276.217 141.146s-2.931-22.883 15.004-36.285c17.934-13.403 34.437 4.027 51.533-2.853-12.358 23.582-30.716 48.834-66.537 39.138z" fill="#62C77E"/><path d="M261.687 142.256s17.851-22.056 10.968-46.71c-6.883-24.655-50.951-4.067-62.689-24.76 1.33 24.067 7.711 37.597 22.298 48.307 14.586 10.711 27.591 7.276 29.423 23.163z" fill="#83D290"/><path d="M243.567 145.284s-5.85-26.255-30.753-31.815c-24.902-5.562-25.765 23.262-48.835 27.591 17.952 8.123 41.459 6.642 49.429 4.091 9.283-2.97 20.28-4.876 30.159.133z" fill="#62C77E"/><path d="M309.919 113.946c-24.979 7.849-38.369 30.726-45.546 53.318.923-12.857 1.452-25.616.595-31.984-3.126-23.195-14.251-35.598-32.347-39.671 10.883 4.244 26.624 17.197 28.291 42.758.705 10.8-1.327 26.861-3.908 41.808-.356-10.806-2.056-22.258-6.635-31.013-11.974-22.885-40.747-20.366-46.741-18.395 15.28-.082 35.823 5.325 42.267 25.83 5.474 17.413 3.911 83.085 2.665 92.928l-.231.971c6.092 3.424 14.196 3.04 19.402-1.321-4.976-66.516 5.315-118.631 42.188-135.229z" fill="#0B8C91"/><path d="M304.413 212.387s-1.737-11.449 7.106-18.385c8.844-6.936 17.33 1.618 25.828-2.036-5.924 11.98-14.842 24.869-32.934 20.421z" fill="#A8DC65"/><path d="M297.135 213.115s8.7-11.278 4.957-23.569c-3.742-12.293-25.618-1.445-31.751-11.693.95 12.062 4.31 18.778 11.756 23.983 7.445 5.204 13.932 3.328 15.038 11.279" fill="#BDE370"/><path d="M288.076 214.848s-3.243-13.109-15.805-15.608c-12.563-2.499-12.66 11.977-24.187 14.42 9.105 3.867 20.885 2.848 24.855 1.474 4.624-1.599 10.122-2.685 15.137-.286z" fill="#A8DC65"/><path d="M321.008 198.343c-12.443 4.231-18.896 15.869-22.233 27.292.313-6.463.429-12.873-.076-16.059-1.839-11.604-7.569-17.699-16.697-19.531 5.51 2.003 13.563 8.319 14.699 21.127.479 5.413-.352 13.497-1.474 21.027-.305-5.418-1.291-11.146-3.692-15.485-6.278-11.345-20.687-9.743-23.673-8.685 7.668-.219 18.041 2.253 21.515 12.469 2.951 8.674 3.078 24.817 2.569 29.772l-.106.49c3.099 1.646 7.161 1.359 9.723-.89-3.276-33.324 10.083-43.987 19.445-51.527z" fill="#0B8C91"/><path d="M125.838 301.455s36.491-10.093 45.516-25.689c9.025-15.597 17.657-13.761 22.758-16.054l5.101-2.294s15.696-19.267 28.644-18.807c12.949.457 25.749-6.882 42.499-1.836 16.751 5.046 28.719-1.605 41.666 4.587 12.949 6.192 28.841 11.01 36.492 20.643 7.652 9.633 15.904 29.56 55.221 39.45H125.838z" fill="#BE7E1C"/><path d="M125.838 301.455s36.491-7.8 45.516-19.851c9.025-12.052 17.657-10.635 22.758-12.407l5.101-1.773s15.696-14.888 28.644-14.533c12.949.354 25.749-5.318 42.499-1.419 16.751 3.9 28.719-1.24 41.666 3.545 12.949 4.786 28.841 8.508 36.492 15.952 7.652 7.444 15.904 22.843 55.221 30.486H125.838z" fill="#B4701D"/><path d="M425.662 268.464s12.732-3.406 15-4.667c3.278 6.811 4.791 25.663 4.791 27.747 0 2.085-4.286 2.085-8.951 2.085h-12.29c-.756 0 1.008-5.617 6.114-6.751 7.227-1.387 1.827-8.829 1.513-9.964-.316-1.135-3.447 0-3.447 0l-2.73-8.45z" fill="#FABC9B"/><path d="M440.662 263.797c-.968.539-3.843 1.468-6.821 2.355 2.944 3.903 1.979 9.196-1.021 12.743 1.302 2.651 2.832 6.96-2.494 7.983-5.106 1.134-6.87 6.751-6.114 6.751h12.29c4.665 0 8.951 0 8.951-2.085 0-2.084-1.513-20.936-4.791-27.747z" fill="#0B8C91"/><path d="M440.662 263.797c-.384.214-1.078.491-1.951.802 2.592 8.086 3.801 23.317 3.801 25.179 0 2.085-4.287 2.085-8.952 2.085h-9.12c-.44 1.01-.505 1.766-.228 1.766h12.29c4.665 0 8.95 0 8.95-2.085 0-2.084-1.512-20.936-4.79-27.747z" fill="#184044"/><path d="M381.301 240.676s-45.433 23.542-57.535 36.995c-12.101 13.453 2.074 20.145 31.626 15.958 29.553-4.186 75.291-12.427 75.291-12.427l-3.046-14.63-42.355 4.561s60.843.821 40.002-40.548c-14.791-11.435-43.983 10.091-43.983 10.091z" fill="#215E62"/><path d="M382.39 154.234s21.211 10.61 36.339 44.573c15.127 33.965 11.954 44.306 11.954 44.306s-43.95-2.709-59.212 2.84c-9.211-26.737-8.722-64.111-5.013-81.687 3.708-17.576 15.932-10.032 15.932-10.032z" fill="#FAB30B"/><path d="M376.818 142.668s4.385 8.505 4.483 16.185c.035 2.756-4.944 6.018-7.698 6.122-3.776.143-6.184-.486-6.184-.486l-1.151-5.7s6.381-16.508 10.55-16.121z" fill="#F9AD86"/><path d="M352.945 137.135s-.379 5.601 1.251 9.145c1.632 3.544-.984 7.34-.764 8.122.584 1.114 2.676.757 3.435.355 2.043 2.736 3.296 7.976 5.212 9.044 1.916 1.066 11.531-1.782 13.381-8.122 1.507-5.165-.373-8.748-.373-8.748s3.055-.35 2.883-2.832c-.173-2.481-2.55-6.349-5.232-5.255-2.683 1.095-2.15 2.414-2.15 2.414s1.044-6.975-2.914-9.477c-3.959-2.502-14.237 1.384-14.729 5.354z" fill="#FABC9B"/><path d="M370.669 140.44c-.036.503-.081.818-.081.818s-.134-.34.081-.818z" fill="#FABC9B"/><path d="M387.97 137.159c.139-.302-2.128.308-2.035 0-3.068.13-3.4 1.611-4.634-1.235-1.148-2.65-2.731-10.676-4.081-13.033-7.776 1.56-15.531 2.374-23.523 1.926v.55l.304 1.21-1.492 16.106c4.967-1.183 8.129-3.759 9.819-5.592 1.123 1.798 4.087 3.959 5.413 4.35 1.711.504 1.791 4.997 1.791 4.997l2.279-.25-.402-3.023c-.199-1.497.462-3.037 1.783-3.765 1.122-.616 2.69-.328 4.107 2.469.329.651.796 2.275.256 3.77-.016.045.02.091.032.138.672 2.816 2.002 5.816 2.706 7.302.111.365.259.69.466.951 1.863 2.346 5.038-.853 4.199-4.884 0 0 5.188-4.033 2.16-7.276.649-.98 1.905.562.852-4.711z" fill="#184044"/><path d="M360.306 147.779c.932-.652 1.584-1.544 1.636-1.615a.187.187 0 00-.043-.26.186.186 0 00-.259.043c-.023.031-2.226 3.041-4.193 1.863a.185.185 0 00-.254.065.185.185 0 00.064.255c1.085.649 2.188.252 3.049-.351zm4.283 7.07a.186.186 0 11.323.183 7.191 7.191 0 01-2.143 2.374c-1.484 1.037-3.039 1.285-3.763 1.344l-.163-.36c.881-.048 3.986-.442 5.746-3.541zm-2.368-10.933s-3.966-.11-5.436.918c-1.471 1.029-1.57-.299-1.232-.951.339-.651 5.972-1.884 6.668.033z" fill="#184044"/><path d="M307.884 230.417s-12.019 1.85-15.464 2.271c-3.445.42-4.954 2.466-3.844 8.848 1.261 7.253 8.047 10.153 9.56 7.127 1.511-3.027 7.983-8.576 10.588-8.744 2.605-.169-.84-9.502-.84-9.502z" fill="#FABC9B"/><path d="M358.843 211.079s19.548-38.174 26.943-39.856c7.395-1.681 12.101 7.736 8.236 17.154-3.866 9.417-26.17 41.562-30.985 43.062-4.816 1.501-51.708 9.068-55.574 9.572-1.344-5.045-1.681-11.771-1.681-11.771l53.061-18.161z" fill="#FCCF06"/><path d="M352.127 134.866l2.996-17.825 27.578 3.067 1.716 16.007-32.29-1.249" fill="#0B8C91"/><path d="M396.273 141.257l-54.717-1.752a2.78 2.78 0 01-2.682-2.863 2.783 2.783 0 012.86-2.685l54.715 1.752a2.783 2.783 0 012.684 2.863 2.78 2.78 0 01-2.86 2.685z" fill="#184044"/><path d="M230.033 159.834l20.639.735 3.584 1.669c.734.342 1.4-.582.844-1.171l-6.713-7.108a.734.734 0 00-1.267.446l-.151 1.909-12.407-3.69-4.529 7.21z" fill="#FEE316"/><path d="M255.807 172.052s3.468 2.755 2.149 10.001c-1.32 7.244-7.413 8.997-8.466 5.156-1.051-3.842 3.205-6.19 4.564-8.786 1.359-2.599 2.188-5.001 1.753-6.371zm8.58 9.329s1.796.44 2.75 3.683c.955 3.242-.9 5.179-2.038 3.81-1.139-1.37-.066-3.185-.088-4.523-.021-1.34-.197-2.492-.624-2.97zm-8.486-22.607s1.022-1.543 4.395-1.344c3.372.198 4.566 2.6 2.893 3.209-1.675.609-3.017-1.017-4.285-1.449-1.266-.433-2.41-.657-3.003-.416zm-1.347 1.523s4.414-.345 8.38 5.859c3.967 6.205.696 11.642-2.69 9.544-3.385-2.096-1.864-6.716-2.638-9.544-.773-2.828-1.801-5.151-3.052-5.859z" fill="#3EBEC0"/><path d="M241.921 142.668c2.298-2.81 1.749-7.201-1.307-9.95-3.055-2.748-7.476-2.828-10.026-.243l11.333 10.193z" fill="#FEE316"/><path d="M215.28 166.054l-5.107-4.594c-3.718-3.343-3.773-9.157-.119-12.571l17.238-16.104a2.948 2.948 0 013.984-.038l10.301 9.265a2.952 2.952 0 01.386 3.968l-14.177 18.858c-3.006 3.998-8.789 4.56-12.506 1.216z" fill="#FAB10B"/><path d="M206.485 147.731a6.26 6.26 0 01-1.113-1.295c-.963-1.504-1.134-3.258-.51-5.214 1.764-5.52 8.598-12.918 13.297-14.394 1.836-.575 2.981-.115 3.618.372 3.34 2.571 5.665 7.754 5.763 7.973l-2.273 1.007c-.021-.049-2.16-4.83-5.002-7.005-.236-.182-.733-.172-1.362.026-3.607 1.132-10.037 7.656-11.674 12.778-.393 1.232-.318 2.25.231 3.112 1.23 1.92 4.614 2.742 5.815 2.893l-.306 2.468c-.19-.023-4.042-.524-6.484-2.721z" fill="#FAB10B"/><path d="M201.267 126.728s11.371-1.782 15.69 2.529c4.365 4.36 2.356 13.679-9.55 12.351-.986-2.951-4.139-2.854-5.098-3.031-.96-.177-1.042-11.849-1.042-11.849z" fill="#FBC091"/><path d="M136.603 67.612s6.582-14.301 16.578-10.51c9.998 3.793-1.902 49.094.841 55.64 2.743 6.546 38.164 11.892 50.239 13.132.636 8.705.009 12.336-.158 13.228-.168.891-37.477 2.47-55.488-2.827-18.01-5.297-24.29-40.248-12.012-68.663z" fill="#53C6CA"/><path d="M72.69 293.477c0 .12-.004.242-.004.364 0 113.235 91.747 205.03 204.923 205.03s204.923-91.795 204.923-205.03c0-.122-.005-.244-.005-.364H72.691z" fill="#1B395E"/><path d="M136.479 293.477l-.002.182c0 56.618 63.187 102.516 141.132 102.516 77.946 0 141.133-45.898 141.133-102.516 0-.062-.003-.12-.003-.182h-282.26z" fill="#1C4B74"/><path d="M451.832 293.477c3.366 3.205 9.325 5.665 7.54 9.659-.612 1.366-2.123 2.363-2.155 3.861-.028 1.24.985 2.213 1.798 3.15a13.833 13.833 0 011.79 2.639c2.536-6.225 4.521-12.683 5.974-19.309h-14.947z" fill="#62C331"/><path d="M408.141 385.335l-1.024 4.051c.636 4.457-1.717 9.193-5.653 11.378-.848.471-1.831.902-2.226 1.791-.25.565-.21 1.215-.393 1.804-.497 1.588-2.401 2.237-4.063 2.329-1.66.093-3.431-.112-4.894.682-2.399 1.303-2.774 4.517-4.053 6.929-2.211 4.161-7.278 5.999-10.04 9.815-1.313 1.813-2.034 3.978-3.131 5.929-1.097 1.95-2.763 3.797-4.967 4.176 7.946 2.105 16.55-.649 23.25-5.413 6.699-4.766 11.838-11.365 16.856-17.876 1.332-1.731 2.677-3.481 3.581-5.469 1.62-3.559 1.717-7.595 1.787-11.504.071-3.893.076-8.037-1.987-11.341-1.5-.052-2.925 1.222-3.043 2.719zm74.386-91.858h-30.695c3.366 3.205 9.325 5.665 7.54 9.659-.612 1.366-2.124 2.365-2.155 3.861-.028 1.24.985 2.213 1.798 3.15 6.475 7.449 2.789 18.756 1.081 28.477-2.211 12.574-.271 25.824 5.345 37.283 10.984-25.131 17.091-52.883 17.091-82.066 0-.122-.003-.243-.005-.364z" fill="#0B8C91"/><path d="M443.839 297.904a3.283 3.283 0 00-1.267 1.074 70.27 70.27 0 01-4.191-5.501H288.083l-6.408 22.866c-.126.45-.251.904-.363 1.365-.11.46-.205.923-.27 1.385a9.193 9.193 0 00-.071.695c-.015.231-.02.461-.013.692.013.46.072.917.194 1.367.449 1.665 1.667 2.957 3.066 4.018.234.177.472.349.713.514.24.163.482.322.725.476.674.429 1.36.837 2.055 1.228a43.668 43.668 0 0015.819 5.216c1.551.197 3.174.342 4.712.678.467.103.928.218 1.374.362.382.125.755.27 1.117.435a7.58 7.58 0 011.994 1.311c.289.266.554.558.811.859.771.905 1.458 1.895 2.446 2.541 1.565 1.024 3.494.965 5.384.599.115-.024.231-.045.346-.07a31.038 31.038 0 001.731-.425c2.918-.796 5.874-1.607 8.555-2.986a20.729 20.729 0 002.157-1.285c1.206-.813 2.35-1.726 3.521-2.59.367-.272.737-.536 1.112-.793.228-.157.458-.306.69-.454.398-.252.804-.49 1.22-.712.166-.087.328-.184.497-.265 1.462-.712 3.182-1.112 4.806-1.033.814.042 1.603.2 2.324.502.722.3 1.376.743 1.92 1.348a25.043 25.043 0 01-3.819 9.963 24.995 24.995 0 01-2.65 3.378 23.982 23.982 0 01-1.537 1.505c-.905.812-1.895 1.607-2.78 2.464-1.143 1.107-2.111 2.325-2.462 3.856-.225.981-.169 1.96.046 2.928.073.324.162.647.265.968.409 1.283 1.03 2.546 1.572 3.774l.002.002c.352.796.661 1.609.95 2.428.082.235.156.473.232.708.204.626.392 1.255.558 1.89.061.228.122.455.178.683a35.67 35.67 0 01.869 5.3c.008.086.012.174.019.262.068.843.107 1.689.115 2.536l.004.282a37.988 37.988 0 01-.925 8.44c-.889 3.94-2.396 7.739-4.519 11.165-3.271 2.252-6.748 5.107-6.819 9.039-.03 1.65.579 3.268.513 4.918-.148 3.677-3.479 6.405-4.638 9.898-.933 2.814-.43 6.077-1.945 8.626-1.142 1.922-3.214 3.058-5.19 4.104-3.761 1.994-7.524 3.986-11.286 5.98-.777.411-1.581.844-2.104 1.55-1.08 1.454-.554 3.667.765 4.909 1.319 1.24 3.203 1.686 5.01 1.8 5.548.35 10.886-1.927 15.978-4.16a197837.423 197837.423 0 0030.438-13.343c1.398-.611 2.832-1.249 3.896-2.341 1.647-1.692 2.25-4.311 4.199-5.639 1.752-1.194 4.055-.992 6.161-1.241 4.056-.48 7.835-2.916 9.953-6.411.744-1.226 1.294-2.573 1.891-3.886.168-.093.336-.186.493-.304 1.525-1.147 2.03-3.331 3.628-4.374 1.595-1.04 3.766-.617 5.488-1.429 2.807-1.323 3.194-5.052 3.607-8.13 1.176-8.758 5.515-16.456 11.242-23.284a81.61 81.61 0 013.176-3.554c.072-.075.14-.154.213-.23.423-.444.855-.88 1.286-1.316.216-.219.431-.439.648-.655a149.73 149.73 0 012.009-1.938 98.552 98.552 0 012.097-1.926c.333-.3.666-.6 1.001-.894.412-.364.827-.721 1.243-1.079.261-.226.522-.454.786-.678.688-.583 1.376-1.16 2.068-1.728.702-.579 1.42-1.16 2.168-1.69.747-.53 1.522-1.01 2.343-1.386a9.465 9.465 0 011.702-.598c.412-.099.829-.159 1.247-.211 1.623-.191 3.293-.117 4.871-.55 3.767-1.038 5.919-4.572 6.936-8.504l.067-.271a22.824 22.824 0 00.545-3.219c.048-.473.085-.946.104-1.411.01-.255.018-.515.015-.774a6.854 6.854 0 00-.045-.773c-.059-.509-.185-1.002-.437-1.447-1.676-2.965-6.287-1.063-8.595 1.439-.721.781-1.525 1.628-2.38 2.375-.345.299-.695.581-1.052.838-.181.129-.36.251-.543.365-1.456.912-3.003 1.32-4.526.558a3.469 3.469 0 01-1.664-1.75 4.27 4.27 0 01-.2-.574 5.22 5.22 0 01-.174-1.254c-.007-.217 0-.439.017-.663a8.758 8.758 0 01.421-2.045c.074-.225.158-.45.248-.671a9.803 9.803 0 011.414-2.421 19.93 19.93 0 012.561-2.635 20.386 20.386 0 019.873-4.635c.994-.166 2.031-.268 2.967-.613.312-.114.611-.256.897-.434.715-.455 1.238-1.085 1.66-1.808.562-.961.943-2.085 1.356-3.16.104-.27.21-.535.321-.796 1.238-2.901 3.389-5.311 4.944-8.058.194-.342.38-.697.55-1.059.686-1.451 1.163-3.037 1.217-4.591.039-1.165-.159-2.313-.686-3.373-1.141-2.295-4.341-3.461-6.475-2.434z" fill="#0B8C91"/><path d="M281.312 317.708c-.11.46-.205.923-.27 1.385a9.193 9.193 0 00-.071.695c-.015.231-.02.461-.013.692.013.46.072.917.194 1.367.449 1.665 1.667 2.957 3.066 4.018.234.177.472.349.713.514.24.163.482.322.725.476.674.429 1.36.837 2.055 1.228a43.668 43.668 0 0015.819 5.216c1.551.197 3.174.342 4.712.678.467.103.928.218 1.374.363.382.124.755.269 1.117.434a7.58 7.58 0 011.994 1.311c.289.266.554.558.811.859.771.905 1.458 1.895 2.446 2.541 1.565 1.024 3.494.965 5.384.599.115-.024.231-.045.346-.07a31.038 31.038 0 001.731-.425c2.918-.795 5.874-1.607 8.555-2.986a20.729 20.729 0 002.157-1.285c1.206-.813 2.35-1.726 3.521-2.59.367-.272.737-.536 1.112-.793.228-.157.458-.306.69-.454.398-.252.804-.49 1.22-.712.166-.087.328-.184.497-.265 1.462-.712 3.182-1.112 4.806-1.033.814.042 1.603.2 2.324.502.722.3 1.376.743 1.92 1.348a25.043 25.043 0 01-3.819 9.963 24.932 24.932 0 01-2.65 3.378 23.719 23.719 0 01-1.537 1.505c-.905.812-1.895 1.607-2.78 2.464-1.143 1.107-2.111 2.325-2.462 3.856-.225.981-.169 1.96.046 2.928.073.324.162.647.265.968.409 1.283 1.03 2.546 1.572 3.774l.002.002c.352.796.661 1.609.95 2.428.082.235.156.473.232.708.204.626.392 1.255.558 1.89.061.228.122.455.177.683.422 1.741.715 3.513.87 5.3.008.086.012.174.019.262.068.843.107 1.689.115 2.536l.004.282a37.988 37.988 0 01-1.702 11.343c46.592-16.744 78.635-51.616 78.635-91.932 0-.062-.003-.12-.003-.182H288.083l-6.408 22.866c-.126.45-.251.906-.363 1.365z" fill="#059DA0"/><path d="M231.311 344.1c-1.095-1.719-2.23-3.483-3.897-4.656a9.45 9.45 0 00-1.621-.895c.018-.133.04-.265.048-.401.201-3.749-3.767-6.421-7.461-7.073-1.421-.252-3.115-.493-3.745-1.79-.277-.569-.273-1.233-.475-1.833-.698-2.094-3.375-2.598-5.576-2.754-3.182-.227-6.364-.453-9.547-.678-2.284-.163-5.252-1.005-5.267-3.296-.009-1.467 1.304-2.544 2.041-3.812 1.798-3.093.062-6.998.37-10.562.371-4.295 3.744-8.059 3.44-12.359-.013-.175-.053-.343-.078-.514h-72.808l-.013.45c-.069 2.197-.165 4.494-1.266 6.396-.98 1.692-2.64 2.861-3.977 4.289-5.023 5.372-4.552 14.906.975 19.754 1.92 1.684 4.322 2.85 5.87 4.879 1.907 2.499 2.187 5.866 2.05 9.009-.073 1.672-.238 3.373.152 5.001.389 1.628 1.474 3.212 3.085 3.658.489.136 1.021.169 1.447.443.829.534.896 1.692.975 2.677a14.918 14.918 0 004.475 9.46c1.236 1.19 2.658 2.144 4.159 2.98a10.1 10.1 0 01.58 2.019c.693 4.162-1.861 8.251-1.685 12.468.315 7.508 8.723 12.142 10.981 19.31.953 3.028.728 6.279.713 9.454-.061 12.26 3.608 25.181 12.808 33.28 2.765 2.436 5.933 4.359 9.083 6.267 6.12 3.71 12.35 7.468 19.276 9.267 3.686.957 8.396.951 10.396-2.293 1.835-2.977.107-7.06-2.675-9.18-2.781-2.119-6.323-2.88-9.625-4.029-3.302-1.149-6.705-2.992-8.052-6.218-1.312-3.14-.336-6.716.65-9.97.209-.689.429-1.4.896-1.947 1.392-1.629 4.122-1.041 5.925-2.197 2.634-1.687 1.83-5.635 2.413-8.71.445-2.341 1.84-4.372 2.754-6.572.914-2.2 1.275-4.938-.207-6.804-1.393-1.758-4.378-3.33-3.271-5.284.406-.716 1.259-1.036 2.054-1.249a19.782 19.782 0 019.646-.143c1.968.468 3.949 1.245 5.951.945 3.403-.51 5.606-3.959 6.413-7.307.807-3.347.693-6.894 1.792-10.157 1.683-4.999 6.121-9.094 6.279-14.366 1.718.684 3.519 1.315 5.365 1.211 1.846-.105 3.756-1.116 4.389-2.854.762-2.085-.477-4.318-1.669-6.19a22133.68 22133.68 0 01-4.536-7.124z" fill="#0B8C91"/><path d="M218.457 386.755c.549-1.004.972-2.09 1.234-3.175.807-3.347.693-6.894 1.792-10.157 1.683-4.999 6.121-9.094 6.279-14.366 1.718.684 3.519 1.315 5.365 1.211 1.846-.105 3.756-1.116 4.389-2.854.762-2.085-.477-4.318-1.669-6.19a22133.68 22133.68 0 01-4.536-7.124c-1.095-1.719-2.23-3.483-3.897-4.656a9.45 9.45 0 00-1.621-.895c.018-.133.04-.265.048-.401.201-3.749-3.767-6.421-7.461-7.073-1.421-.252-3.115-.493-3.745-1.79-.277-.569-.273-1.233-.475-1.833-.698-2.094-3.375-2.598-5.576-2.754-3.182-.227-6.364-.453-9.547-.678-2.284-.163-5.252-1.005-5.267-3.296-.009-1.467 1.304-2.544 2.04-3.812 1.799-3.093.063-6.998.371-10.562.371-4.295 3.744-8.059 3.44-12.359-.013-.175-.053-.343-.078-.514h-63.064l-.002.182c0 41.274 33.583 76.844 81.98 93.096" fill="#059DA0"/><path d="M185.932 293.477h-38.838l-5.01-48.882h48.857l-5.009 48.882z" fill="#FAB10B"/><path d="M191.473 250.098h-50.249v-6.004h50.249v6.004z" fill="#FCCF06"/><path d="M169.293 246.537a.622.622 0 00-.841.274c-.134.264-13.514 26.401-23.054 33.115-2.591 1.823-4.53 2.333-5.46 1.441-1.82-1.745-.487-8.892 4.19-16.776l-.205-2.055c-5.415 8.5-7.548 17.15-4.852 19.735.446.428 1.1.775 2.044.775 1.167 0 2.783-.531 5.003-2.094 9.793-6.893 22.896-32.487 23.45-33.573a.627.627 0 00-.275-.842z" fill="#184044"/><path d="M159.89 519.598h-3.452l45.584-253.134h3.451L159.89 519.598zm52.785 0h-3.451l45.583-253.134h3.451l-45.583 253.134z" fill="#42C0C8"/><path d="M250.204 301.613h-52.787l.622-3.455h52.786l-.621 3.455zm-8.509 47.243H188.91l.622-3.453h52.786l-.623 3.453zm-8.507 47.245h-52.785l.621-3.455h52.786l-.622 3.455zm-8.507 47.243h-52.786l.622-3.454h52.785l-.621 3.454zm-8.508 47.243h-52.785l.622-3.453h52.785l-.622 3.453z" fill="#42C0C8"/></svg>