<svg width="383" height="385" fill="none" xmlns="http://www.w3.org/2000/svg"><path fill-rule="evenodd" clip-rule="evenodd" d="M126.124 2.19a58.135 58.135 0 00-4.597-.19c-4.335 0-8.409.545-12.103 1.615-2.775.805-5.195 1.755-7.4 2.908a41.803 41.803 0 00-6.745 4.39c-8.39 6.75-15.026 17.124-19.19 29.996-2.432 7.531-3.998 15.41-5.51 23.026l-.036.18c-.804 4.042-1.634 8.212-2.549 12.144-1.053 4.451-2.066 8.024-3.18 11.248A79.634 79.634 0 0160.146 98.4l.119-.294c-2.392 4.403-5.274 8.428-8.566 11.963-4.42 4.639-9.57 8.485-14.483 11.946a510.222 510.222 0 01-4.85 3.376l-.032.022c-3.428 2.367-6.972 4.813-10.334 7.393-5.118 3.926-8.919 7.432-11.97 11.035-3.752 4.438-6.477 9.152-8.094 14.011-.764 2.299-1.643 5.343-1.65 8.5-.007 1.543.1 2.804.33 3.971a21.51 21.51 0 00.94 3.309c1.207 3.207 3.153 6.075 5.035 8.847l.074.109a121.901 121.901 0 012.047 3.091c1.463 2.358 2.523 4.556 3.237 6.716.536 1.777.858 3.57.956 5.332.038 1.756-.144 3.497-.55 5.319-.62 2.526-1.57 4.919-2.489 7.234l-.02.051c-1.03 2.6-1.922 4.958-2.436 7.476-.587 2.913-.579 5.654.026 8.146.622 2.571 1.66 5.12 3.083 7.577 1.42 2.461 3.034 4.632 4.798 6.457 1.944 2.004 3.998 3.716 6.108 5.09 4.346 2.833 9.227 4.831 14.512 5.942 2.89.596 5.722.924 8.418.972.298.006.595.009.891.009 2.6 0 5.28-.206 8.194-.632 6.787-1.001 13.555-2.84 20.115-5.464a131.33 131.33 0 009.452-4.241 232.319 232.319 0 007.221-3.74c.816-.438 1.634-.878 2.456-1.31 6.643-3.483 13.438-6.333 20.195-8.469 4.701-1.461 9.426-2.604 14.049-3.394a113.08 113.08 0 0114.289-1.482 136.38 136.38 0 013.5-.07c3.825 0 7.555.174 11.089.516 3.72.354 7.41.876 11.178 1.423a1095.639 1095.639 0 016.211.916l.096.014c5.475.815 11.136 1.658 16.726 2.294 7.068.804 12.856 1.179 18.217 1.179 1.572 0 3.145-.033 4.716-.104 1.875-.08 3.871-.178 5.846-.439a43.424 43.424 0 005.356-1.063c2.546-.666 5.087-1.496 7.549-2.3l.102-.033c1.013-.334 2.027-.664 3.07-.992l-.004-.014.16-.038c1.461-.452 3.192-.969 4.962-1.373l.409-.089c1.247-.279 2.535-.566 3.811-.701.206.132.446.206.677.206.151 0 .296-.031.428-.09 3.359-1.45 6.413-3.244 9.08-5.332 2.727-2.135 5.146-4.543 7.189-7.157 4.675-5.951 7.981-13.339 9.562-21.365 1.548-7.842 1.517-16.061-.09-23.77-.846-4.079-2.029-7.859-3.518-11.242a53.203 53.203 0 00-6.048-10.354c-3.423-4.58-7.516-8.679-11.476-12.645l-.05-.051c-1.28-1.28-2.559-2.56-3.818-3.858-2.9-3.013-6.184-6.661-8.549-10.877a27.783 27.783 0 01-2.52-6.436 26.828 26.828 0 01-.647-6.436l.002.017c.092-2.75.573-5.603 1.469-8.722.114-.376.234-.75.353-1.126l.089-.28.018-.057c.289-.902.578-1.806.82-2.727.339-1.325.618-2.633.824-3.894.443-2.733.666-5.594.659-8.504-.012-5.812-.908-11.707-2.662-17.523-1.202-3.989-2.752-7.758-4.602-11.202-2.078-3.856-4.282-7.103-6.739-9.923-2.756-3.153-5.688-5.77-8.718-7.773-1.795-1.182-3.459-2.12-5.086-2.87a38.07 38.07 0 00-3.996-1.555 1.266 1.266 0 00-.308-.174c-2.797-1.034-5.591-2.077-8.386-3.12l-.002-.001c-9.106-3.398-18.522-6.91-27.884-10.081-8.668-2.94-15.959-5.161-22.95-6.995a229.569 229.569 0 00-11.358-2.709c-2.958-.617-6.403-1.299-9.851-1.577zm14.443 5.108l.055.021-.049-.005.051.013.043.011.007.002h.005c.034.008.068.017.103.024l.32.077.836.203c-.422-.1-.842-.197-1.26-.293l-.208-.047.097-.006z" fill="#7F2F33"/><path d="M125.752 2.192c3.407.272 6.744.928 9.866 1.576 3.706.789 7.43 1.672 11.37 2.715 6.94 1.81 14.242 4.037 22.979 6.992 9.326 3.153 18.888 6.713 27.319 9.854l.595.223a6034.09 6034.09 0 008.395 3.122c.095.038.196.088.311.177 1.382.445 2.728.967 4.002 1.552a35.241 35.241 0 013.489 1.862 39.45 39.45 0 01.223 3.026c.045 1.214.058 2.434.045 3.656-.019 2.276-.095 4.551-.031 6.82.031 1.22.082 2.442.214 3.655.127 1.12.273 2.232.515 3.333.133.622.272 1.244.45 1.856.177.603.367 1.208.565 1.806.336.998.679 1.996 1.027 2.994 1.548 4.328 3.261 8.601 4.741 12.962.71 2.117 1.389 4.252 1.946 6.414.538 2.108 1.02 4.235 1.332 6.395-.005-.007-.005-.02-.005-.024 0 .012 0 .017.005.024v.008-.007c0 .024.007.05.007.076.298 2.366.367 4.754.261 7.139-.115 2.37-.362 4.73-.674 7.082l.02-.108c-.382 2.797-.838 5.582-1.268 8.374-.407 2.668-.801 5.345-1.036 8.039-.233 2.691-.362 5.405-.151 8.101.19 2.517.602 5.041 1.433 7.431.419 1.208.908 2.39 1.511 3.515a25.922 25.922 0 001.903 3.057 37.429 37.429 0 002.315 2.907 62.331 62.331 0 002.507 2.658c1.833 1.836 3.736 3.591 5.588 5.408a74.905 74.905 0 012.836 2.911 51.784 51.784 0 012.329 2.768c-.012-.014-.019-.028-.031-.033.811 1.067 1.586 2.181 2.239 3.356a44.291 44.291 0 012.044 4.254c-.014-.033-.027-.071-.039-.103.716 1.749 1.346 3.536 1.827 5.36.254.98.496 1.964.685 2.955.166.829.291 1.641.42 2.475v.013a.087.087 0 01.005.036c0 .007 0 .007.007.014v.024c.362 2.729.507 5.481.418 8.233a76.05 76.05 0 01-.627 7.497v-.014c-1.25 8.982-3.903 17.729-7.392 26.085.013-.014.018-.026.025-.04a120.966 120.966 0 01-2.956 6.486 107.32 107.32 0 01-2.525 4.825c-.685.195-1.352.4-2.005.597a.954.954 0 00-.165.038c-1.078.349-2.074.674-3.065 1.004-2.36.771-5.024 1.64-7.663 2.335a44.734 44.734 0 01-5.367 1.067c-1.873.24-3.68.343-5.851.439-1.572.069-3.146.1-4.72.1-5.348 0-11.14-.368-18.239-1.175-5.59-.636-11.166-1.462-16.56-2.263l-.285-.045c-2.075-.312-4.144-.616-6.219-.915-3.362-.49-7.275-1.05-11.183-1.423-3.51-.338-7.241-.515-11.097-.515-1.166.006-2.334.03-3.504.07-4.852.189-9.667.692-14.307 1.479-4.578.782-9.305 1.921-14.051 3.39-6.777 2.143-13.577 4.997-20.213 8.467-.825.426-1.644.864-2.462 1.309l-1.123.605-1.13.596a232.13 232.13 0 01-4.973 2.538c-3.299 1.627-6.485 3.057-9.466 4.24-6.573 2.626-13.35 4.462-20.145 5.467-2.923.425-5.606.631-8.202.631-.299 0-.597 0-.895-.007-2.696-.051-5.539-.376-8.437-.974-5.284-1.105-10.171-3.108-14.537-5.95-2.1-1.361-4.154-3.07-6.114-5.086-1.771-1.836-3.388-4.011-4.81-6.465-.25-.429-.485-.861-.711-1.295a32.67 32.67 0 012.013-3.859c-.007 0-.007.005-.014.012a30.392 30.392 0 012.443-3.395 82.348 82.348 0 013.102-3.433c1.034-1.095 2.073-2.168 3.116-3.249.907-.954 1.819-1.907 2.695-2.892 1.777-1.996 3.47-4.101 4.777-6.439.674-1.215 1.276-2.474 1.727-3.785.411-1.194.754-2.409.964-3.653.26-1.507.4-3.027.4-4.56a31.77 31.77 0 00-.3-4.601c-.387-2.811-1.045-5.57-1.87-8.285-.844-2.804-1.828-5.568-2.78-8.347-.925-2.701-1.819-5.417-2.5-8.188v.007c-.329-1.368-.608-2.741-.78-4.126a29.117 29.117 0 01-.202-2.104 30.53 30.53 0 01-.044-2.054v.064l.001-.072c.004-.016.004-.028.004-.041 0 .013 0 .025-.004.041.035-1.033.11-2.055.283-3.076.082-.463.165-.927.281-1.391.113-.471.24-.93.372-1.392-.006.031-.017.071-.024.1.26-.825.553-1.646.92-2.435.215-.469.438-.938.685-1.39.19-.35.388-.699.59-1.044l-.05.089a27.11 27.11 0 012.518-3.483 44.514 44.514 0 012.76-2.924c-.003 0-.008.003-.012.007 2.142-2.052 4.457-3.907 6.878-5.622 2.333-1.653 4.737-3.202 7.143-4.749 2.416-1.55 4.84-3.094 7.174-4.754 2.355-1.666 4.65-3.433 6.75-5.41a44.002 44.002 0 003.422-3.528 47.763 47.763 0 003.113-4.087 58.75 58.75 0 005.19-9.283 71.254 71.254 0 003.535-9.93 92.074 92.074 0 002.253-10.712c.545-3.642.933-7.303 1.166-10.978.209-3.205.255-6.414.209-9.624-.08-6.804-.463-13.606-.29-20.408a.047.047 0 00-.007.024c.067-2.378.197-4.762.45-7.135 4.183-10.666 10.174-19.317 17.505-25.208 2.016-1.615 4.295-3.097 6.762-4.394 2.209-1.156 4.632-2.104 7.411-2.905C112.721 2.548 116.8 2 121.152 2c1.383 0 2.932.064 4.6.192z" fill="#752A2E"/><path d="M249.288 171.007v-.005c-.002-.002-.002-.005-.002-.009l.002.014zm0 .002l-.002-.017.002.017z" fill="#752A2E"/><path d="M206.12 73c.1 0 .193.014.281.04.889.29 1.75.662 2.561 1.103.778.419 1.557.969 2.452 1.733 1.212 1.028 2.309 2.344 3.356 4.027.85 1.356 1.572 2.947 2.207 4.863.532 1.62.904 3.442 1.137 5.578.372 3.363.141 6.915-.684 10.558-.854 3.755-2.31 7.231-4.325 10.329a25.51 25.51 0 01-4.32 5.099 22.45 22.45 0 01-2.636 2.022c-.83.545-1.75 1.029-2.898 1.517a14.102 14.102 0 01-5.512 1.131c-.452 0-.903-.021-1.349-.067-2.035-.205-3.974-.874-5.766-1.99l-.196-.126c-.208-.14-.42-.28-.616-.43-.201-.149-.4-.331-.49-.649a1.125 1.125 0 01.11-.835c.035-7.054 1.626-14.529 4.932-22.954 1.376-3.518 3.02-7.109 5.02-10.978.852-1.641 1.763-3.32 2.788-5.13.468-.823.942-1.643 1.415-2.456.059-.25.11-.405.191-.508.135-.189.283-.38.43-.568a.355.355 0 01.059-.067c.007 0 .049-.047.052-.047h.002l.064-.155c.09-.165.185-.333.315-.457.133-.142.243-.187.395-.25a.797.797 0 01.355-.087c.198-.158.435-.246.67-.246z" fill="#FFCC2A"/><path d="M141.22 126c2.259 0 4.651.273 7.103.814a29.949 29.949 0 015.728 1.862c1.989.882 3.651 1.874 5.08 3.034.241.195.462.401.548.771.073.323.017.665-.154.938-.377 2.932-.641 5.714-.317 8.447.159 1.047.423 2.065.788 3.028.368.837.821 1.629 1.346 2.349 1.14 1.423 2.578 2.602 3.838 3.598.936.724 1.895 1.421 2.856 2.116 2.248 1.628 4.573 3.312 6.54 5.364 2.542 2.645 4.514 6.034 5.705 9.803.469 1.488.786 3.122.941 4.859.133 1.509.06 3.096-.215 4.712-.509 3.041-2.007 5.857-4.218 7.926-1.145 1.082-2.541 1.995-4.153 2.711-1.735.759-3.628 1.26-5.788 1.53-.743.09-1.528.138-2.336.138-1.236 0-2.569-.107-4.07-.325-1.989-.294-4.056-.845-6.326-1.689-3.879-1.44-7.807-3.594-11.683-6.403a63.158 63.158 0 01-4.888-3.967c-1.488-1.326-3.061-2.764-4.497-4.318-1.296-1.402-2.397-2.863-3.276-4.341a17.996 17.996 0 01-2.113-5.359 17.344 17.344 0 01-.367-3.015c-.034-1.094.092-2.153.22-3.049.298-2.136 1.014-4.175 1.744-6.059.296-.778.618-1.547.937-2.316l.233-.562c.002-.002.086-.216.087-.216l.322-.773c.215-.515.423-1.027.628-1.544.852-2.181 1.503-4.427 1.978-6.14.627-2.288 1.074-4.416 1.367-6.503l.026-.185c.199-1.659.296-3.367.271-5.006-.007-.33.129-.65.383-.899.128-.456.472-.797.897-.882a25.692 25.692 0 014.835-.449z" fill="#F7967D"/><path fill-rule="evenodd" clip-rule="evenodd" d="M153.676 129.676a30.345 30.345 0 00-5.665-1.868c-2.449-.534-4.81-.808-7.031-.808-1.613 0-3.229.153-4.787.446-.429.102-.78.447-.897.893-.262.26-.398.586-.391.924a37.32 37.32 0 01-.268 4.987l-.025.184c-.093.67-.201 1.346-.325 2.033.54.449 1.101.872 1.684 1.276.903.63 1.868 1.199 2.847 1.716l-.026-.012a33.052 33.052 0 007.973 2.811 1.188 1.188 0 00-.101-.018c3.042.636 6.153.877 9.262.707.954-.06 1.9-.16 2.844-.305-.297-2.78.018-5.682.328-8.196.175-.272.231-.624.157-.963-.088-.374-.331-.598-.548-.777-1.403-1.155-3.049-2.142-5.031-3.03z" fill="#DA8670"/><path d="M151.604 19c.585 0 1.161.005 1.738.024 5.738.198 11.599 1.345 17.42 3.409a66.712 66.712 0 018.506 3.683 67.412 67.412 0 017.72 4.657 70.028 70.028 0 017.21 5.76c2.168 2 4.269 4.236 6.24 6.645a54.834 54.834 0 015.871 8.793c1.348 2.515 2.365 5.088 3.022 7.653.686 2.594.928 5.078.719 7.387.19.246.274.616.221.974l-.299 1.88-.041.264c-1.108 7.007-2.255 14.253-3.804 21.292-2.161 9.805-4.675 17.471-7.915 24.124-1.817 3.756-3.949 7.173-6.334 10.157a35.998 35.998 0 01-8.375 7.672c-5.59 3.674-12.348 5.92-19.541 6.493-1.261.09-2.473.133-3.607.133-5.482 0-11.161-.945-16.881-2.809-6.625-2.147-12.923-5.421-18.719-9.735-5.828-4.338-10.608-9.463-14.207-15.226-1.869-2.996-3.469-6.315-4.761-9.871-1.168-3.174-2.079-6.733-2.71-10.575-1.118-6.874-1.049-14.267.203-21.974 1.174-7.196 3.428-14.353 6.696-21.279a76.399 76.399 0 015.371-9.57c2.055-3.14 4.081-5.706 6.189-7.849 4.138-4.197 9.282-7.493 14.875-9.532 4.662-1.712 9.775-2.58 15.193-2.58z" fill="#F7967D"/><path d="M153.359 19.024c5.728.198 11.59 1.344 17.427 3.413a67.138 67.138 0 018.5 3.679A66.982 66.982 0 01187 30.77a70.128 70.128 0 017.22 5.761c2.152 1.974 4.25 4.214 6.244 6.646a55.084 55.084 0 012.823 3.782 30.02 30.02 0 01-1.333.95v-.002.002a.007.007 0 00-.006.003c-.007.007-.012.012-.019.012-.005.005-.005.007-.009.007a27.114 27.114 0 01-3.043 1.707 29.18 29.18 0 01-3.114 1.242.948.948 0 01.101-.038 31.86 31.86 0 01-5.088 1.177 55.175 55.175 0 01-5.144.464h.106c-3.811.172-7.636.07-11.444.358-1.979.151-3.958.387-5.893.826-1.866.426-3.704 1-5.449 1.789-1.922.88-3.769 1.948-5.545 3.093a97.1 97.1 0 00-4.847 3.355c-3.222 2.374-6.375 4.852-9.711 7.073-.014.007-.026.012-.033.026-.007 0-.007.005-.013.005-1.61 1.051-3.248 2.056-4.967 2.928-1.485.759-3.006 1.459-4.594 1.982h.007c-1.617.514-3.28.896-4.948 1.234-1.821.375-3.655.707-5.475 1.094-1.764.383-3.528.803-5.241 1.376-1.629.552-3.216 1.235-4.674 2.177a12.208 12.208 0 00-3.383 3.227 13.456 13.456 0 00-1.978 4.119 16.214 16.214 0 00-.604 4.552c.021 1.552.191 3.099.528 4.614.748 3.43 2.099 6.724 3.781 9.791a52.357 52.357 0 005.937 8.651 43.928 43.928 0 003.243 3.458c.512.488 1.047.967 1.592 1.424a56.68 56.68 0 002.048 1.605c3.77 2.858 7.671 5.537 11.749 7.932 4.086 2.393 8.323 4.543 12.739 6.259 2.209.851 4.453 1.622 6.737 2.238 2.201.599 4.429 1.096 6.688 1.426a48.762 48.762 0 004.65.478c-.876.128-1.771.224-2.664.293a56.07 56.07 0 01-3.604.134c-.571 0-1.144-.012-1.718-.033-.002-.01-.002-.019-.002-.031-4.941-.179-10.042-1.114-15.156-2.776l-.45-.152-.514-.172a64.72 64.72 0 01-3.374-1.259l-.496-.212-.259-.108-.279-.114-.362-.16-.159-.069-.508-.223-.564-.26c-.375-.174-.749-.353-1.135-.537l-.578-.285-.533-.267-.005-.007h-.007a.107.107 0 00-.031.021 66.991 66.991 0 01-9.485-5.903c-5.824-4.336-10.601-9.459-14.198-15.228-1.865-2.978-3.47-6.295-4.765-9.872-1.16-3.158-2.074-6.716-2.722-10.573-1.11-6.882-1.039-14.273.204-21.969 1.193-7.219 3.444-14.379 6.705-21.281a75.988 75.988 0 015.374-9.56c2.049-3.14 4.072-5.711 6.186-7.856 4.142-4.197 9.288-7.493 14.882-9.53C141.09 19.872 146.204 19 151.622 19c.583 0 1.159.005 1.737.024z" fill="#E78B75"/><path d="M143.284 69.003l.005-.004v-.001l-.005.005z" fill="#E78B75"/><path d="M143.27 69.01c.001 0 .003 0 .003-.002a.141.141 0 01.031-.017c-.012.005-.022.012-.034.019z" fill="#E78B75"/><path fill-rule="evenodd" clip-rule="evenodd" d="M152.637 70.508c.215-.614-.236-1.297-.874-1.466a1.286 1.286 0 00-1.537.832c-.32.945-.586 1.907-.736 2.895-.118.795-.215 1.596-.202 2.396.014.683.072 1.366.195 2.037.208 1.161.613 2.328 1.264 3.334.606.938 1.374 1.757 2.332 2.371.893.584 1.903.927 2.979 1.05 2.182.266 4.385-.709 5.837-2.241 2.182-2.317 3.029-5.396 3.388-8.419.032-.298-.157-.646-.371-.844a1.282 1.282 0 00-.881-.349 1.28 1.28 0 00-.886.35c-.255.24-.332.513-.364.843l-.025.193-.024.192a.119.119 0 00.001-.019l.002-.018c-.201 1.36-.528 2.693-1.058 3.972a10.094 10.094 0 01-1.256 2.08 7.53 7.53 0 01-1.095 1.04c-.318.22-.65.408-1.003.571-.356.133-.719.23-1.09.287a6.146 6.146 0 01-1.009-.005 5.687 5.687 0 01-1.039-.277 6.285 6.285 0 01-.958-.543 6.84 6.84 0 01-.903-.856 7.774 7.774 0 01-.862-1.396 9.327 9.327 0 01-.584-2.068 12.313 12.313 0 01.023-3.042l.002-.015c.16-.979.417-1.94.734-2.885zm-.74 2.925l-.005.03-.018.118.023-.148zm39.735 8.115c.219-.63-.25-1.338-.841-1.503a1.17 1.17 0 00-.922.12c-.281.172-.438.422-.549.732-.543 1.53-.942 3.14-1.018 4.773-.056 1.153.032 2.382.424 3.477.351.956.855 1.913 1.635 2.575.679.58 1.471 1.051 2.356 1.19.949.154 1.921.121 2.826-.228a7.236 7.236 0 002.575-1.677c1.857-1.89 2.787-4.51 3.136-7.121.051-.344.063-.632-.118-.942a1.199 1.199 0 00-.718-.561 1.177 1.177 0 00-.923.12c-.236.147-.511.441-.548.734-.16 1.178-.426 2.333-.853 3.438-.3.7-.664 1.362-1.11 1.973a7.48 7.48 0 01-1.033 1.056 5.783 5.783 0 01-1.011.604 4.83 4.83 0 01-.841.236c-.26.024-.521.027-.78.007a4.602 4.602 0 01-.658-.186 4.085 4.085 0 01-.568-.34 4.73 4.73 0 01-.534-.545 5.535 5.535 0 01-.478-.865 7.582 7.582 0 01-.341-1.33 11.178 11.178 0 01.01-2.263c.166-1.193.479-2.343.882-3.474zm-28.426 18.056a1.216 1.216 0 00-.704-.564 1.18 1.18 0 00-.909.129c-.288.17-.416.418-.54.728-.428 1.106-.704 2.279-.754 3.481-.05 1.046.05 2.133.356 3.136.546 1.821 1.62 3.523 3.208 4.539a6.093 6.093 0 002.465.903c.804.106 1.68.024 2.435-.287.921-.374 1.753-.909 2.436-1.657.816-.901 1.441-1.936 1.925-3.06.136-.312.215-.597.122-.94a1.24 1.24 0 00-.545-.73c-.27-.166-.6-.211-.908-.12-.264.076-.584.285-.7.558a11.433 11.433 0 01-1.139 2.068c-.293.37-.608.705-.958 1.005-.267.198-.54.367-.83.513a4.723 4.723 0 01-.806.235 4.591 4.591 0 01-.829 0 5.303 5.303 0 01-.905-.266 6.264 6.264 0 01-.872-.54 6.943 6.943 0 01-.87-.91 7.968 7.968 0 01-.761-1.353 9.113 9.113 0 01-.427-1.644 9.389 9.389 0 01.01-2.018c.124-.781.331-1.529.618-2.266.109-.291.03-.684-.118-.94zm-.013 7.049l-.038-.103.007.019c.011.028.022.055.031.084z" fill="#342032"/><path d="M178.724 73c.106 0 .215.016.321.047.312.09.583.318.748.626.157.295.194.627.1.932a72.725 72.725 0 00-2.133 10.205l-.038.31a55.892 55.892 0 00-.316 3.459l.302-.075c.123-.005.247-.012.371-.012.397 0 .833.047 1.294.14.94.187 1.864.734 2.533 1.497.597.701 1.019 1.588 1.227 2.563.205.979.205 2.025 0 3.197a8.503 8.503 0 01-1.051 2.764 7.155 7.155 0 01-2.195 2.347c-.862.593-1.951.936-3.148.993l-.262.007c-1.076 0-2.213-.302-3.58-.954-.29-.136-.491-.479-.562-.755a1.255 1.255 0 01.121-.979 1.208 1.208 0 011.031-.626c.195 0 .386.05.639.17l.213.123a8.222 8.222 0 001.595.441c.21.024.421.031.63.031.173 0 .353-.007.532-.024.322-.06.642-.148.964-.271.284-.146.562-.311.822-.506a6.75 6.75 0 00.817-.852c.261-.377.501-.808.711-1.281.179-.483.308-.984.382-1.483.055-.468.057-.955.014-1.443a5.414 5.414 0 00-.247-.98 4.043 4.043 0 00-.352-.633 4.44 4.44 0 00-.419-.435 3.257 3.257 0 00-.493-.292 3.64 3.64 0 00-.703-.193 4.078 4.078 0 00-.481-.025c-.198 0-.398.013-.589.032a9.563 9.563 0 00-1.083.231c-.094.03-.198.045-.309.045-.344 0-.677-.15-.917-.41a1.2 1.2 0 01-.327-.854c.179-5.17 1.073-10.603 2.656-16.15.159-.546.644-.927 1.182-.927z" fill="#CA7F6A"/><path fill-rule="evenodd" clip-rule="evenodd" d="M201.511 59.57a9.461 9.461 0 00-2.023-1.105c-.702-.274-1.444-.465-2.2-.465-.035 0-.071 0-.106.002-.841.01-1.595.541-1.831 1.395-.215.805.119 1.767.848 2.175.599.337 1.237.578 1.874.818l.302.115c.5.195.994.391 1.488.603a19.075 19.075 0 013.592 2.205c.902.766 1.684 1.652 2.391 2.612a4.273 4.273 0 00-.081-.115l-.017-.024a17.828 17.828 0 011.743 2.986c.101.224.39.288.582.17.217-.12.261-.38.167-.598a83.254 83.254 0 01-.736-1.713 59.668 59.668 0 00-1.014-2.318c-.557-1.175-1.138-2.386-1.874-3.451l-.062-.09c-.419-.61-.847-1.231-1.36-1.76a13.01 13.01 0 00-1.683-1.441zm-39.23-7.474c.893-.124 1.79-.119 2.713-.035.899.093 1.809.288 2.66.675.04.018.079.037.119.057.941.443 1.582 1.346 1.508 2.297a1.853 1.853 0 01-1.813 1.678c-.811.02-1.631-.075-2.447-.17l-.369-.042a85.68 85.68 0 00-1.913-.175 23.207 23.207 0 00-4.91.3c-1.319.28-2.548.74-3.724 1.311l.052-.026c.039-.02.08-.04.115-.06a17.38 17.38 0 00-3.142 2.007c-.198.166-.551.079-.721-.131a.457.457 0 01.048-.668 75.193 75.193 0 001.518-1.298c.672-.585 1.342-1.169 2.044-1.723 1.09-.856 2.223-1.735 3.471-2.392l.115-.06c.709-.376 1.434-.76 2.216-1.007a14.668 14.668 0 012.46-.538z" fill="#7F2F33"/><path d="M179.017 0c.217 0 .439 0 .655.007 4.268.06 8.342.749 12.113 2.05a31.503 31.503 0 015.592 2.6c1.685.987 3.326 2.232 5.02 3.802 2.779 2.571 4.967 5.705 6.332 9.062a21.443 21.443 0 011.5 9.565c-.223 3.012-1.203 6.104-2.83 8.944-1.54 2.681-3.797 5.13-6.522 7.083-2.809 2.004-6.1 3.449-9.781 4.297-1.537.346-3.233.523-5.331.552l-.427.002c-1.809 0-3.617-.155-5.147-.307-1.54-.156-3.081-.358-4.621-.56-3.197-.42-6.502-.854-9.772-.854-.59 0-1.183.013-1.776.044-1.808.132-3.399.417-4.867.868a15.361 15.361 0 00-2.964 1.374 14.82 14.82 0 00-1.678 1.25c-.553.478-1.046 1.01-1.589 1.603-1.984 2.23-3.749 4.69-5.457 7.067l-.849 1.183c-1.844 2.55-4.116 5.488-6.991 7.924-2.838 2.398-6.366 4.312-10.492 5.692A34.406 34.406 0 01118.233 75c-.598 0-1.198-.015-1.796-.046a1.189 1.189 0 01-.826-.405 1.258 1.258 0 01-.322-.912c.018-.205.086-.404.193-.577-.249-2.198.125-4.445.431-5.945.488-2.336 1.239-4.616 2.03-6.94l.206-.607c.303-.876.602-1.753.885-2.634a57.12 57.12 0 00.729-2.476l.277-.98a87.6 87.6 0 012.155-6.502c1.512-4.028 3.427-8.088 5.694-12.072 2.093-3.68 4.573-7.391 7.58-11.349 5.402-7.098 12.177-13.075 19.591-17.28a49.17 49.17 0 0112.099-4.892c1.858-.47 3.903-.822 6.247-1.078A51.972 51.972 0 01179.017 0z" fill="#7F2F33"/><path fill-rule="evenodd" clip-rule="evenodd" d="M206.704 50.498c-1.392-2.483-2.946-4.877-4.524-7.245a.525.525 0 00-.425-.253.466.466 0 00-.209.052c-.212.11-.342.419-.2.63a42.65 42.65 0 012.906 5.107 56.928 56.928 0 012.093 4.994l-.005-.016-.014-.048.066.19-.047-.126c.017.053.036.102.056.152l.006.02-.005-.016a61.8 61.8 0 01.994 3.036c.289.98.513 1.972.712 2.97.258 1.29.465 2.584.673 3.877.123.769.246 1.538.38 2.306.359 2.044.763 4.099 1.463 6.05.345.986.711 1.959 1.205 2.88a24.029 24.029 0 001.637 2.6c.147.21.461.326.704.34.284.017.558-.078.765-.27.326-.289.475-.858.23-1.247-.366-.57-.699-1.16-.974-1.78a23.629 23.629 0 01-.708-1.777c-.827-2.38-1.307-4.861-1.763-7.332l-.027-.147c-.229-1.237-.459-2.481-.724-3.714-.256-1.177-.52-2.355-.872-3.514-.399-1.285-.853-2.559-1.411-3.789a50.383 50.383 0 00-1.982-3.93zm-.302 3.44l-.001-.003.001.004zm-.001-.004l-.009-.025.008.023.001.002zm-11.258-18.22c.153-.158.204-.387.052-.57a.46.46 0 00-.333-.144c-.092 0-.18.03-.245.1a13.526 13.526 0 01-2.321 2 13.117 13.117 0 01-2.853 1.395 15.15 15.15 0 01-3.521.658h.004c.01 0 .02 0 .03-.002l.1-.005a.939.939 0 00-.067.003l-.033.002-.03.002c-2.72.15-5.421-.256-8.089-.774h.001l.078.014c-.397-.08-.795-.16-1.193-.242-1.61-.328-3.224-.657-4.847-.898-1.808-.26-3.64-.425-5.473-.33-1.864.102-3.722.393-5.505.956a24.804 24.804 0 00-4.89 2.099 30.588 30.588 0 00-4.364 2.97c-3.718 3.07-6.722 6.805-9.727 10.54-1.418 1.763-2.836 3.526-4.329 5.219-1.957 2.175-4.045 4.234-6.48 5.88a18.637 18.637 0 01-3.528 1.731c-.836.252-1.683.423-2.552.51a12.348 12.348 0 01-2.638-.157c-.481-.082-1.059.171-1.414.47a1.967 1.967 0 00-.685 1.372c-.057.844.488 1.763 1.337 1.996 1.009.286 2.068.513 3.121.49.951-.014 1.909-.09 2.835-.312 1.883-.457 3.633-1.236 5.27-2.266a27.684 27.684 0 004.515-3.605 54.511 54.511 0 003.26-3.547c1.692-2.006 3.276-4.1 4.859-6.194 1.926-2.547 3.852-5.095 5.976-7.486 1.819-1.978 3.799-3.822 6.059-5.295-.055.038-.11.074-.165.11-.047.03-.093.061-.14.093a22.893 22.893 0 014.919-2.357 22.977 22.977 0 014.925-.977c2.468-.13 4.958.13 7.401.426l.797.096c2.242.27 4.492.542 6.742.626 2.367.09 4.789.007 7.065-.715a13.818 13.818 0 003.279-1.488c1.04-.665 1.966-1.489 2.797-2.394zm-32.838 4.37l-.052.018-.052.018.104-.036z" fill="#752A2E"/><path d="M141.11 44.066c.19.125.225.373.113.555-.645.999-1.278 2.002-1.942 2.982-.657.974-1.335 1.942-2.024 2.904-.676.936-1.436 1.829-2.2 2.708-.808.924-1.636 1.825-2.539 2.66-3.502 3.234-7.984 5.593-12.77 6.112-.339.036-.633.005-.921-.189-.27-.18-.458-.46-.52-.78-.121-.635.313-1.335.97-1.435a29.44 29.44 0 004.514-1.014 25.064 25.064 0 005.377-2.6 36.276 36.276 0 003.563-2.673 35.573 35.573 0 003.267-3.204l-.076.078c.249-.274.495-.542.739-.819-.031.04-.07.075-.1.12 1.466-1.648 2.781-3.452 3.998-5.294a.391.391 0 01.332-.177.38.38 0 01.219.066z" fill="#752A2E"/><path fill-rule="evenodd" clip-rule="evenodd" d="M205.22 19.62c.115-.188.082-.427-.109-.552a.421.421 0 00-.232-.068.385.385 0 00-.334.174 14.578 14.578 0 01-1.495 2.04l.009-.01a13.123 13.123 0 01-2.568 2.18l.049-.03.048-.028a14.334 14.334 0 01-3.047 1.441c-1.551.495-3.157.75-4.785.85-3.125.166-6.259-.206-9.321-.787l.072.012c.025.004.05.009.076.012-2.688-.52-5.328-1.235-7.968-1.95l-.476-.128c-1.254-.339-2.516-.677-3.783-.958-1.777-.396-3.582-.71-5.399-.872-4.267-.387-8.58-.2-12.785.633-4.186.833-8.283 2.248-12.05 4.24-3.847 2.04-7.427 4.608-10.511 7.658a61.246 61.246 0 00-4.944 5.48 57.687 57.687 0 00-2.275 3.042c-.332.476-.656.958-.969 1.447-.179.279-.351.56-.523.84-.128.212-.257.422-.388.63-.396.62-.267 1.443.363 1.86.612.402 1.491.251 1.891-.361a50.95 50.95 0 011.392-1.966l.285-.39a94.11 94.11 0 011.746-2.34 76.341 76.341 0 013.475-4.177c1.419-1.55 2.922-3.035 4.534-4.397a47.086 47.086 0 014.703-3.498l.074-.048-.002.002.004-.003a45.642 45.642 0 019.727-4.654l.069-.023-.066.023.031-.01.117-.04a43.72 43.72 0 015.259-1.355 46.92 46.92 0 015.53-.693l-.084.004a42.557 42.557 0 015.788.062 50.58 50.58 0 015.185.723l-.006-.001-.006-.002c1.305.255 2.606.534 3.905.812 1.638.351 3.276.702 4.92 1.006 3.134.575 6.308 1.113 9.498 1.194 2.99.07 6.079-.206 8.856-1.37 1.333-.557 2.601-1.297 3.684-2.241 1.128-.985 2.064-2.143 2.836-3.414zm-55.365 5.275a4.08 4.08 0 00.136-.048l-.218.074.082-.026zm-9.878 4.703l.106-.07-.108.071h.002zM29.08 137.127c.267-.217.267-.662.05-.912a.587.587 0 00-.454-.215.71.71 0 00-.431.158c-3.267 2.61-6.379 5.45-9.02 8.741-2.276 2.841-4.232 5.998-5.444 9.479-1.263 3.629-1.694 7.495-1.411 11.327a32.494 32.494 0 001.045 6.1c.526 1.915 1.177 3.794 1.887 5.64a218.23 218.23 0 001.736 4.323c.925 2.257 1.85 4.515 2.655 6.818.89 2.619 1.601 5.301 1.85 8.065a20.08 20.08 0 01-.215 4.502 17.952 17.952 0 01-1.29 3.93 21.98 21.98 0 01-2.36 3.717c-.224.286-.273.738-.204 1.082.074.356.284.676.582.879.302.21.685.286 1.045.21a1.4 1.4 0 00.625-.332c.674-.776 1.33-1.572 1.893-2.445.483-.75.91-1.533 1.286-2.342.73-1.56 1.22-3.209 1.473-4.921.494-3.274.1-6.658-.761-9.83-.916-3.369-2.259-6.583-3.655-9.754a390.49 390.49 0 00-.783-1.753c-1.07-2.385-2.14-4.77-3.012-7.235l-.013-.038.01.031-.017-.052c-.879-2.602-1.478-5.286-1.69-8.033.002.101.01.203.016.299a26.85 26.85 0 01.343-6.724A28.174 28.174 0 0117 151.236a32.11 32.11 0 012.118-3.701 37.83 37.83 0 012.475-3.261l.005-.006-.006.006M16.147 172.3l-.003-.008a6.731 6.731 0 00-.033-.092c.01.025.018.051.027.076l.016.045a1.73 1.73 0 00-.007-.021zm.892-21.15a.377.377 0 01-.026.06c.01-.019.02-.037.026-.06z" fill="#752A2E"/><path d="M70.775 86c.308.019.517.286.511.593a66.763 66.763 0 01-.358 6.43c-.216 2.09-.57 4.162-1 6.213-.43 2.058-1.044 4.085-1.708 6.086-.665 1.995-1.449 3.944-2.29 5.868-3.408 7.795-8.418 14.819-14.128 21.057a94.75 94.75 0 01-6.09 6.049 97.78 97.78 0 01-6.48 5.408c-.262.192-.52.313-.848.294a1.16 1.16 0 01-.803-.394c-.412-.46-.4-1.258.093-1.664 2.575-2.091 5.085-4.251 7.493-6.54a108.833 108.833 0 007.126-7.447 93.212 93.212 0 006.51-8.47 81.66 81.66 0 005.503-9.443 61.283 61.283 0 002.959-7.182 59.474 59.474 0 002.023-7.566c-.011.057-.018.113-.032.177.272-1.426.506-2.854.665-4.3a45.59 45.59 0 00.265-4.645c.007-.293.282-.524.566-.524h.023z" fill="#752A2E"/><path fill-rule="evenodd" clip-rule="evenodd" d="M235.276 131.012c-2.328-3.438-4.464-6.998-6.182-10.778a.414.414 0 00-.384-.234.399.399 0 00-.19.043c-.217.108-.288.362-.191.579 3.162 7.005 7.533 13.323 11.894 19.625.754 1.091 1.508 2.181 2.256 3.273l-.058-.085-.058-.086c1.99 2.916 3.921 5.891 5.687 8.942.878 1.532 1.728 3.083 2.486 4.672.732 1.524 1.362 3.091 1.948 4.678a.195.195 0 01.008.022l.014.041.014.041c1.415 4.065 2.229 8.309 2.56 12.598l.007.086-.007-.086-.013-.211-.013-.206c.198 2.734.236 5.474.103 8.205a60.368 60.368 0 01-1.033 8.351l.039-.179.023-.107c-.837 4.139-2.076 8.214-3.904 12.029-1.242 2.465-2.734 4.811-4.542 6.913a26.825 26.825 0 01-4.455 3.951c-1.699 1.127-3.535 2.099-5.449 2.805-.306.103-.617.203-.93.285-.496.139-.911.38-1.204.82-.286.426-.389.96-.281 1.468.21.998 1.268 1.74 2.289 1.481 1.625-.407 3.256-.852 4.8-1.52a23.412 23.412 0 003.779-2.091c1.332-.902 2.6-1.881 3.747-3.018a31.901 31.901 0 003.078-3.497 30.344 30.344 0 002.55-3.939 41.83 41.83 0 002.213-4.711c1.243-3.176 2.09-6.476 2.638-9.838.524-3.208.772-6.477.772-9.723-.007-3.192-.229-6.394-.765-9.534a47.023 47.023 0 00-1.148-5.065 50.58 50.58 0 00-2.167-5.918c-.802-1.843-1.714-3.636-2.683-5.409a80.947 80.947 0 00-3.086-5.167c-2.112-3.26-4.452-6.366-6.788-9.466l-.261-.347-.855-1.133c-2.152-2.85-4.306-5.703-6.321-8.654l.063.094zm17.229 30.683a.082.082 0 01-.01-.026l-.003-.006-.008-.022a2.368 2.368 0 01-.004-.018l.025.072zm0 0l.007.025.008.025.028.072.027.071a7.473 7.473 0 01-.07-.193zm-2.368 40.828l-.054.112.052-.107.106-.219-.104.214zM213.75 41.278c-.12-.17-.381-.271-.579-.276-.017-.002-.034-.002-.05-.002a.84.84 0 00-.555.203.828.828 0 00-.278.576c-.012.24.075.41.209.601.174.244.347.495.516.745l.032.047.066.098.01.012c-.002 0-.002-.002-.003-.004 4.771 6.986 9.062 14.354 11.913 22.327 1.624 4.654 2.777 9.48 3.161 14.398.088 1.319.11 2.639.085 3.96-.005.53.376.997.929 1.036.528.024 1.018-.386 1.042-.922a45.683 45.683 0 00-1.004-11.616c-.833-3.799-2.105-7.49-3.675-11.047-1.59-3.584-3.434-7.06-5.454-10.42-1.992-3.326-4.159-6.537-6.365-9.716zm11.3 24.38l-.012-.034.014.04.015.04-.017-.045z" fill="#752A2E"/><path d="M145.538 3.096c1.657.107 3.314.372 4.931.77 1.588.385 3.036.979 4.303 1.767.266.171.451.45.515.772-1.81 1.642-3.693 3.214-5.406 4.956a36.91 36.91 0 00-4.348 4.453c-3.312 3.396-6.511 7.293-9.658 11.808-2.513 3.625-4.938 7.54-7.407 11.98a199.186 199.186 0 00-3.585 6.75c-1.351 2.696-2.399 5.11-3.205 7.37l-.069.214c.032.517-.094.917-.393 1.226a37.898 37.898 0 00-.749 2.867c-.12.561-.635.971-1.213.971a1.46 1.46 0 01-.247-.019 1.293 1.293 0 01-.78-.536 1.235 1.235 0 01-.179-.914c.096-.43.196-.86.306-1.282a4.11 4.11 0 01-.839.075c-2.12 0-4.435-.935-6.529-2.627l-.108.512-.141.516c-.146.575-.64.981-1.206.981-.082 0-.163-.014-.252-.026a1.268 1.268 0 01-.801-.575 1.104 1.104 0 01-.158-.885c1.923-7.395 4.659-14.978 8.135-22.53 3.878-8.45 8.078-15.44 12.832-21.377a56.872 56.872 0 014.787-5.28 45.74 45.74 0 012.065-1.415l.023-.005c2.068-.41 4.282-.613 6.584-.613.933 0 1.866.032 2.792.096z" fill="#1A1216"/><path d="M113.384 51.194l.011.002c11.91 1.797 19.762 15.502 17.505 30.55-2.262 15.059-13.795 25.851-25.711 24.06-11.917-1.798-19.774-15.505-17.515-30.555 2.258-15.056 13.793-25.848 25.71-24.057z" fill="#1A1216"/><path fill-rule="evenodd" clip-rule="evenodd" d="M105.19 105.805c11.926 1.792 23.447-8.986 25.708-24.06 2.263-15.064-5.586-28.757-17.514-30.55-11.925-1.794-23.447 8.986-25.71 24.058-2.26 15.064 5.589 28.759 17.516 30.552zm3.407-4.438a14.35 14.35 0 01-3.098.069 16.563 16.563 0 01-1.206-.146 16.25 16.25 0 01-2.346-.59c-2.053-.686-3.955-1.916-5.574-3.452-3.191-3.022-5.247-7.31-6.103-11.952-.45-2.44-.505-5.008-.257-7.519a28.134 28.134 0 011.702-7.163 25.035 25.035 0 013.53-6.341 21.491 21.491 0 015.151-4.842 16.552 16.552 0 015.804-2.408c.989-.2 2-.282 2.997-.285.63-.002 1.253.053 1.868.147.433.064.863.147 1.291.245 1.881.394 3.667 1.265 5.265 2.398a.47.47 0 00.083.057l.016.016.008.008a.406.406 0 01.066.049c.14.098.272.195.404.299.859.66 1.646 1.425 2.371 2.265 1.467 1.662 2.623 3.673 3.5 5.803a23.12 23.12 0 011.098 3.418c.286 1.147.471 2.327.586 3.521a26.31 26.31 0 01.095 3.964 27.314 27.314 0 01-.899 5.826 25.714 25.714 0 01-2.25 5.797c-.197.371-.401.74-.62 1.107-.138.232-.28.456-.421.68a22.778 22.778 0 01-2.228 2.936 20.53 20.53 0 01-4.653 3.888 15.783 15.783 0 01-4.932 1.98c-.411.092-.83.164-1.248.225z" fill="#FFCC2A"/><path fill-rule="evenodd" clip-rule="evenodd" d="M114.946 60.635a13.926 13.926 0 00-3.544-1.386 13.613 13.613 0 00-3.844-.19 14.338 14.338 0 00-3.578.938 17.222 17.222 0 00-3.565 2.12 21.438 21.438 0 00-3.338 3.43 25.023 25.023 0 00-2.636 4.5 28.02 28.02 0 00-1.688 5.425 28.934 28.934 0 00-.456 5.945 26.41 26.41 0 00.878 5.588 22.624 22.624 0 001.89 4.564 19.137 19.137 0 002.642 3.523 16.25 16.25 0 002.917 2.276 13.569 13.569 0 003.468 1.361 13.596 13.596 0 003.623.242c.042-.003.084-.006.128-.006a14.789 14.789 0 003.747-.957 16.777 16.777 0 001.141-.552 1.386 1.386 0 01.12-.066l.038-.02c.049-.029.098-.056.149-.079.002-.007.002-.007.007-.007a18.021 18.021 0 001.793-1.16l.027-.017c.071-.056.143-.11.215-.163.062-.046.124-.092.185-.14l.024-.02.032-.03a20.778 20.778 0 003.088-3.195c.235-.308.466-.63.685-.952a25.157 25.157 0 001.967-3.505 27.33 27.33 0 001.466-4.278c.12-.473.224-.959.317-1.45a27.143 27.143 0 00.296-2.125l.005-.034.014-.151.015-.151c.006-.05.008-.097.01-.148a6.676 6.676 0 00.039-.526l.005-.077.015-.212.004-.095.002-.071c.006-.072.009-.143.009-.207l.003-.057c.002-.043.003-.085.007-.13.003-.057.005-.11.002-.17.006-.075.006-.153.006-.23.007-.039.007-.077.007-.117-.002-.054-.001-.11 0-.166v-.138a.039.039 0 00.002-.01l.002-.01-.001-.127c-.001-.296-.003-.59-.013-.888l-.003-.069-.004-.068a1.284 1.284 0 01-.008-.137l-.005-.084a35.98 35.98 0 01-.031-.461 5.418 5.418 0 01-.027-.31.113.113 0 01-.005-.046l-.033-.334a.04.04 0 01-.003-.016l-.002-.019a8.07 8.07 0 01-.036-.33c-.003-.013-.007-.027-.005-.04a1.938 1.938 0 01-.01-.079c-.01-.075-.02-.153-.034-.226a2.053 2.053 0 01-.007-.07l-.015-.108c-.007-.054-.014-.108-.023-.16l-.011-.069a7.2 7.2 0 00-.006-.037l-.014-.09-.02-.135a1.217 1.217 0 01-.014-.09l-.008-.065c-.004-.026-.01-.052-.016-.08a1.029 1.029 0 01-.016-.08 2.892 2.892 0 00-.036-.213l-.01-.054-.008-.048a3.519 3.519 0 01-.039-.207l-.01-.058c-.003-.018-.006-.029-.009-.04l-.001-.007-.03-.148a7.368 7.368 0 00-.034-.168c0-.007-.005-.007-.005-.007a28.07 28.07 0 00-.158-.693l-.001-.006.002-.007a28.29 28.29 0 00-.045-.177l-.04-.16-.011-.043a23.387 23.387 0 00-.397-1.294c-.003-.003-.005-.005-.005-.007l-.001-.006a.587.587 0 01-.037-.108 22.72 22.72 0 00-1.587-3.537 19.033 19.033 0 00-2.461-3.3 10.31 10.31 0 00-.476-.465h-.005l-.035-.034a1.61 1.61 0 00-.107-.098.572.572 0 00-.068-.063.75.75 0 01-.033-.03c-.019-.017-.038-.034-.056-.048a.172.172 0 01-.013-.012c-.039-.036-.073-.07-.116-.1l-.011-.013c-.004-.003-.006-.007-.011-.01a15.68 15.68 0 00-2.117-1.535zm.284 35.19c.004 0 .008-.003.013-.007l.004-.003-.014.012a.33.33 0 01-.005.003l.002-.004z" fill="#FFCC2A"/><path d="M97.343 95.052c-.04-.036-.074-.075-.113-.104.04.029.08.069.113.105z" fill="#F03E42"/><path d="M363.048 265c.31 0 .616.06.906.178.721.308 1.19 1.058 1.434 2.292.2 1.036.131 2.111.043 3.123a14.93 14.93 0 01-.109 1.006c.974-1.555 2.358-3.528 4.189-5.092.907-.771 1.9-1.227 2.87-1.318.091-.006.179-.013.271-.013.973 0 1.934.5 2.706 1.406 1.308 1.569 1.289 3.841-.056 6.947-.393.891-.901 1.837-1.553 2.888a18.215 18.215 0 012.028-1.475 13.22 13.22 0 011.579-.846 6.12 6.12 0 011.576-.47c.153-.025.314-.037.474-.037.295 0 .561.037.791.113.367.116.586.22.866.419.242.171.424.395.573.591.352.463.49 1.074.571 1.555.131.754.073 1.519.019 2.195-.274 3.176-1.733 6.437-4.333 9.69-1.02 1.283-2.225 2.536-3.788 3.944a56.709 56.709 0 01-4.625 3.72 76.11 76.11 0 01-2.905 2.009c1.029-.224 1.881-.313 2.672-.313.609 0 1.19.057 1.727.171.602.123 1.239.385 2.004.823.647.361 1.113.715 1.46 1.107.41.458.671.886.821 1.352.15.463.174.995.071 1.541-.162.833-.689 1.686-1.564 2.537-.754.739-1.687 1.434-2.94 2.179-1.025.606-2.189 1.197-3.661 1.859-1.173.523-2.34.983-3.468 1.371-1.215.423-2.22.701-3.162.877-1.127.215-2.316.345-3.341.451-1.351.14-2.697.213-4.006.22h-.165c-2.663 0-5.147-.328-7.381-.973a20.387 20.387 0 01-4.62-1.99 1.382 1.382 0 01-.584-.275l-.396-.341c-.46-.303-.9-.623-1.335-.965-.35-.269-.5-.747-.383-1.217a5.435 5.435 0 01-.227-.444c-.477-1.015-.746-2.157-.799-3.391-.054-1.102.089-2.303.428-3.567a15.043 15.043 0 011.489-3.578c1.451-2.55 3.505-4.774 5.315-6.735l.546-.591c.8-.868 1.601-1.732 2.372-2.625.919-1.06 1.814-2.248 2.82-3.736l-.151.29c1.199-1.864 2.366-3.789 3.492-5.65 1.421-2.343 2.888-4.765 4.487-7.051.875-1.247 1.859-2.534 3.121-3.49.569-.434 1.22-.671 1.831-.671z" fill="#F7967D"/><path fill-rule="evenodd" clip-rule="evenodd" d="M373.24 276.578c.117-.187 0-.445-.191-.534a.4.4 0 00-.321-.018.441.441 0 00-.242.2 47.341 47.341 0 01-1.169 1.789l.029-.043a43.42 43.42 0 01-3.817 4.707 51.322 51.322 0 01-4.23 4.017l.012-.012.023-.022.043-.036a52.871 52.871 0 01-4.904 3.633.4.4 0 00-.119.559.43.43 0 00.582.114c2.903-1.907 5.634-4.079 8.062-6.521 1.244-1.249 2.423-2.543 3.504-3.923a43.133 43.133 0 002.738-3.91zm-7.994-4.009a.387.387 0 00-.182-.526.4.4 0 00-.541.179 41.435 41.435 0 01-3.148 5.544c.011-.015.021-.032.031-.048l.013-.019.013-.018a37.27 37.27 0 01-2.796 3.603 36.54 36.54 0 01-3.159 3.15l.004-.003a.099.099 0 01.015-.009c-.341.285-.681.569-1.033.848-.082.067-.152.142-.17.253a.416.416 0 00.063.298c.114.167.384.246.554.11a34.134 34.134 0 006.03-6.201 40.065 40.065 0 004.306-7.161zm-9.834 11.92a.572.572 0 01.065-.055l-.057.049-.008.006z" fill="#DA8670"/><path d="M366.266 298.283c.069.219-.043.472-.247.546a26.377 26.377 0 00-3.718 1.625c.031-.02.057-.032.087-.052a27.07 27.07 0 00-2.486 1.532.395.395 0 01-.552-.119.453.453 0 01.112-.59c.483-.333.971-.651 1.473-.948.445-.274.903-.521 1.366-.765a25.317 25.317 0 013.459-1.492.342.342 0 01.119-.02c.167 0 .327.108.387.283z" fill="#DA8670"/><path d="M104.708 65h.202c.567 0 1.132.102 1.726.309.941.333 1.692 1.12 1.961 2.057.336 1.204.098 2.361-.145 3.232-.112.409-.239.804-.385 1.19.467-.531 1.032-1.043 1.757-1.63 1.178-.96 2.257-1.619 3.298-2.014.619-.23 1.215-.345 1.772-.345.571 0 1.091.12 1.546.355 1.013.513 1.646 1.4 1.692 2.375.046 1.01-.275 2.004-.628 2.924-.441 1.169-1.034 2.314-1.604 3.385a99.645 99.645 0 01-1.482 2.666c.391-.4.903-.753 1.635-1.164a4.37 4.37 0 011.772-.569c.117-.012.239-.012.361-.012.65 0 2.23.148 2.874 1.509.38.814.283 1.844-.297 3.147-.538 1.197-1.316 2.29-2.064 3.308a43.465 43.465 0 01-1.378 1.75l-.61.755-.134.177a441.698 441.698 0 01-3.311 4.162l-.425.524c-3.528 4.353-7.157 8.825-10.02 13.72-1.762 3.081-3.001 5.96-3.787 8.799a28.25 28.25 0 00-.326 1.374c-.081.361-.22.602-.453.783-.195.15-.44.233-.687.233-.43-.052-.76-.235-.961-.533a.988.988 0 01-.17-.785c.07-.324.146-.65.22-.972a10.4 10.4 0 01-3.088.448c-1.538 0-3.04-.288-4.462-.852a9.101 9.101 0 01-3.655-2.661c-.412-.488-.784-1.118-1.105-1.875-.353-.819-.493-1.731-.619-2.535-.283-1.773-.382-3.608-.317-5.836.017-.604.05-1.223.105-1.849a157.696 157.696 0 01-1.1-5.234c-.66-3.427-1.25-7.102-1.108-10.753.08-1.923.383-3.529.93-4.912a10.149 10.149 0 011.589-2.677c.22-.262.476-.474.74-.688.36-.295.809-.481 1.378-.57.093-.006.164-.013.24-.013.349 0 .717.095 1.128.286.407.199.741.545.95.8.334.396.618.839.87 1.356.328.692.607 1.449.848 2.316a49.155 49.155 0 013.57-5.653c1.564-2.137 3.465-4.61 5.697-6.762 1.268-1.225 2.466-2.075 3.664-2.601a5.357 5.357 0 011.794-.445h.002z" fill="#F7967D"/><path d="M115.246 79.218a.347.347 0 01.017.289.422.422 0 01-.188.22c-.135.082-.272.17-.403.259.024-.017.053-.035.076-.052-2.592 1.74-4.941 3.836-7.029 6.163.029-.03.053-.06.083-.089a37.974 37.974 0 00-2.545 3.197c-.818 1.148-1.534 2.364-2.196 3.611-.083.166-.325.22-.485.16-.208-.07-.355-.324-.26-.534.586-1.33 1.319-2.585 2.142-3.78.887-1.305 1.912-2.505 2.989-3.653 2.159-2.299 4.651-4.252 7.289-5.964a.304.304 0 01.16-.045c.144 0 .289.093.35.218z" fill="#DA8670"/><path fill-rule="evenodd" clip-rule="evenodd" d="M108.161 71.654c.138-.152.18-.361.036-.523a.389.389 0 00-.293-.131.31.31 0 00-.226.088c-.67.72-1.346 1.433-2.023 2.145-1.672 1.76-3.343 3.521-4.902 5.38-1.11 1.324-2.16 2.691-3.08 4.155a28.662 28.662 0 00-2.352 4.545c-.11.263.058.57.31.657a.508.508 0 00.392-.022c.131-.064.195-.163.257-.29a54.387 54.387 0 01.277-.578 51.081 51.081 0 011.65-3.066 46.969 46.969 0 011.666-2.604c1.187-1.716 2.482-3.335 3.85-4.905l-.021.028c1.19-1.367 2.425-2.693 3.66-4.02l.799-.86zm-11.56 15.34l-.017.037a.73.73 0 00.018-.037z" fill="#DA8670"/><path d="M90.022 80.02c.197.07.32.294.24.48-.948 2.235-1.901 4.464-2.77 6.728-.873 2.26-1.612 4.566-2.133 6.918.015-.041.02-.082.033-.121l-.149.663a.454.454 0 01-.135.2.53.53 0 01-.36.11c-.254-.017-.49-.24-.459-.49.346-2.446 1.103-4.814 2.039-7.11.979-2.41 2.163-4.745 3.184-7.144a.415.415 0 01.51-.234z" fill="#DA8670"/><path d="M86.712 108h.176c3.465 0 6.99 1.588 10.48 4.718.86.789 1.726 1.685 2.644 2.738 1.137 1.313 2 2.444 2.72 3.555.625.962 1.181 2.051 1.704 3.329.416 1.026.73 2.163 1.017 3.689.293 1.602.367 3.386.228 5.456-.115 1.698-.376 3.542-.8 5.638-.335 1.622-.745 3.276-1.142 4.872l-.053.211-.077.287-.088.374a268.075 268.075 0 00-1.536 6.543 198.901 198.901 0 00-2.942 16.42c.612-1.152 1.43-2.394 2.405-3.704a33.636 33.636 0 013.641-4.103 27.848 27.848 0 012.841-2.576c.05-.039.103-.072.161-.103a28.016 28.016 0 018.316-4.958 23.682 23.682 0 016.281-1.486 19.138 19.138 0 011.792-.082c.438 0 .876.012 1.315.045.934.07 1.834.293 2.701.507.218.06.467.225.633.426.304.137.561.434.663.773.532 1.645 1.011 2.933 1.505 4.053 1.449 3.182 3.425 6.317 5.873 9.313l.103.165a53.854 53.854 0 009.517 8.805c3.19 2.25 6.518 4.044 9.892 5.329 2.329.853 4.566 1.4 6.647 1.629.513.05 1.028.078 1.536.078.656 0 1.265-.043 1.815-.122a9.318 9.318 0 002.053-.582c.499-.238.98-.538 1.425-.893.357-.312.7-.688 1.052-1.153.355-.55.651-1.111.874-1.67.314-.914.522-1.89.633-2.986l.065.305a28.894 28.894 0 00-.293-5.353l-.031-.189c-.493-2.907-1.404-5.896-2.711-8.887l-.075-.172a38.002 38.002 0 00-2.452-4.567 32.12 32.12 0 01-.927-1.089 1.83 1.83 0 01-.281-.384 1.23 1.23 0 01-.663-1.189c.059-.655.622-1.151 1.307-1.151.616.031 1.177.077 1.737.153 1.157.084 2.297.288 3.387.602.414.115.834.261 1.267.439a85.107 85.107 0 019.488 2.749c3.969 1.415 8.046 3.257 12.114 5.477 7.128 3.884 13.993 8.985 20.99 15.595 5.863 5.531 11.512 11.888 17.782 20.005a289.524 289.524 0 014.636 6.2l.744 1.009.384.521c.87 1.172 1.741 2.347 2.62 3.503a245.7 245.7 0 008.911 11.06c5.1 5.966 10.47 11.589 15.962 16.714a187.628 187.628 0 0019.517 15.87c6.851 4.84 14.349 9.418 22.285 13.605l.145.123.51.237c1.975.996 3.855 1.943 5.749 2.862a134.78 134.78 0 003.575 1.65l.483.223.87.395c4.069 1.833 7.452 3.384 10.844 5.241a58.99 58.99 0 015.145 3.142 38.317 38.317 0 014.601 3.727 23.702 23.702 0 013.591 4.279 19.966 19.966 0 012.467 5.343c.616 2.063.891 4.192.814 6.326-.076 1.922-.531 3.918-1.317 5.774-.753 1.786-1.859 3.46-3.286 4.974-1.344 1.411-2.995 2.646-4.914 3.67-1.947 1.041-4.081 1.686-5.911 2.179-1.857.505-3.857.862-6.113 1.09a45.31 45.31 0 01-4.594.223c-2.655 0-5.399-.206-8.387-.627-4.162-.593-8.529-1.61-13.348-3.11-4.042-1.247-8.301-2.837-13.022-4.862-8.584-3.69-16.777-8.132-22.957-11.589-6.201-3.465-13.39-7.569-20.238-12.452 1.138 3.653 2.302 7.697 3.581 12.344.625 2.245 1.22 4.491 1.818 6.738l.362 1.36.341 1.302.332 1.249c.18.687.365 1.37.553 2.054l.247.904.285 1.072.077.266.069.257c.563 2.054 1.121 4.1 1.646 6.159 1.524 5.919 3.258 13.745 3.15 21.793a31.566 31.566 0 01-1.301 8.615c-.711 2.397-1.837 4.826-3.351 7.219-1.298 2.054-2.939 4.054-5.013 6.114-1.72 1.706-3.777 3.377-6.291 5.111-5.207 3.591-10.84 6.221-16.161 8.604-6.896 3.093-13.67 5.616-20.132 7.497-7.193 2.108-14.313 3.434-21.161 3.935a83.16 83.16 0 01-6.01.228c-1.401 0-2.944-.046-4.587-.139-3.257-.185-6.4-.593-9.045-.971-6.266-.888-12.263-2.176-17.826-3.828-6.215-1.83-11.876-4.198-16.831-7.038a50.57 50.57 0 01-7.205-4.976 34.006 34.006 0 01-3.158-2.953c-.908-.959-1.803-2.114-2.733-3.532-1.373-2.077-2.434-4.569-3.154-7.409-.595-2.366-.875-4.995-.882-8.279-.007-2.206.17-4.442.342-6.605l.084-1.071c.24-3.083.494-6.162.755-9.238l.082-1.021.045-.514c.424-5.072.905-10.82 1.277-16.45.435-6.65.659-12.563.692-18.079.026-5.672-.175-11.533-.611-17.92l.117.286c-.67-8.316-1.672-17.158-3.101-27.028-2.173 4.229-4.803 8.45-7.783 12.548-2.584 3.543-5.329 6.745-8.158 9.513-3.206 3.136-6.358 5.532-9.632 7.327-3.578 1.971-7.21 3.088-10.8 3.314a21.48 21.48 0 01-1.163.033c-1.485 0-3.01-.165-4.532-.489-1.738-.377-3.557-1.038-5.563-2.019-3.13-1.53-6.047-3.783-8.434-6.516-2.192-2.519-4.068-5.586-5.579-9.11-1.311-3.034-2.336-6.525-3.13-10.672-.665-3.439-1.09-7.162-1.297-11.381-.307-6.307-.08-13.021.736-21.769 1.023-10.858 2.749-22.21 5.126-33.744a359.929 359.929 0 018.735-33.73 360.662 360.662 0 015.481-16.306 265.827 265.827 0 012.91-7.74 57.39 57.39 0 012.757-5.919 43.75 43.75 0 013.382-5.33 26.92 26.92 0 013.85-4.225 20.797 20.797 0 012.091-1.617c.73-.489 1.513-.916 2.391-1.31A12.259 12.259 0 0186.712 108z" fill="#FFCC2A"/><path d="M168.621 150.014c1.798.328 3.575.712 5.326 1.147a234.066 234.066 0 016.698 10.706c-.051-.089-.109-.177-.158-.273 13.417 22.888 23.038 47.882 30.045 73.462-.03-.101-.056-.21-.087-.311A401.597 401.597 0 01214.287 250c-3.441-6.222-6.781-13.01-10.1-20.527-4.409-9.989-8.39-20.361-12.238-30.394l-.094-.254-1.362-3.571c-4.077-10.69-8.289-21.741-14.366-31.635l.198.248c-1.27-2-2.614-3.985-4.02-5.883a69.254 69.254 0 00-3.357-4.145c-.339-.394-.699-.75-1.072-1.114l-.251-.254c-.222-.21-.297-.587-.278-.854a1.194 1.194 0 01-.056-.476c.056-.606.605-1.141 1.159-1.141.058 0 .121.007.171.014z" fill="#6E7EAB"/><path fill-rule="evenodd" clip-rule="evenodd" d="M193.916 158.903c-4.118-2.229-8.211-4.068-12.157-5.462a82.22 82.22 0 00-4.472-1.441c13.645 20.807 23.773 43.756 31.401 67.366 3.923 12.15 7.191 24.507 9.873 36.989.367.597.738 1.187 1.11 1.774a74.087 74.087 0 008.842 11.365c3.123 3.282 6.634 6.432 10.435 9.354 6.566 5.064 13.776 9.399 20.399 13.152a77.212 77.212 0 001.268-3.614l-.042.136-.053.169.053-.169c2.189-6.964 3.289-14.194 3.625-21.475v.063c0-.04.002-.082.004-.124.001-.044.003-.089.003-.135 0-.02 0-.044.005-.07l-.002.004c-.002.002-.003.003-.003.005.425-11.438-.886-22.809-2.195-34.159-.141-1.215-.281-2.429-.418-3.643a211.357 211.357 0 01-11.418-12.265 255.315 255.315 0 01-8.945-11.046c-1.151-1.513-2.281-3.036-3.415-4.564l-.346-.467a380.004 380.004 0 00-3.882-5.185c.798 6.427 1.518 12.859 1.722 19.335.287 8.882-.371 17.919-3.443 26.324a42.815 42.815 0 01-1.395 3.345c-.281.602-.97.92-1.601.658-.599-.245-.944-.988-.663-1.589a46.27 46.27 0 002.62-7.188c1.561-5.861 2.097-11.927 2.111-17.987-.032-8.699-1.114-17.329-2.195-25.951l-.088-.698c-5.451-6.828-10.487-12.353-15.683-17.233-7.017-6.598-13.909-11.687-21.055-15.574zm70.289 107.948v-.044c0 .04-.002.079-.003.118-.002.04-.004.08-.004.122 0-.032.002-.063.004-.094.001-.033.003-.067.003-.102z" fill="#3B8D96"/><path d="M266.919 233.732a186.68 186.68 0 0019.334 15.948c.012.005.025.019.037.025 3.315 9.013 6.497 18.078 8.636 27.461l-.075-.326c1.621 7.192 2.653 14.564 2.397 21.963-.17 3.788-.687 7.536-1.637 11.197-2.905-1.025-5.924-2.226-9.144-3.628-8.453-3.694-16.585-8.162-22.732-11.645-.478-.271-.961-.545-1.448-.823a76.17 76.17 0 003.605-12.952c2.997-16.226 1.064-32.667-.775-48.952.598.583 1.198 1.16 1.802 1.732z" fill="#3B8D96"/><path d="M308.019 263.245c.007.007.089.057.083.064-.007.007.063.05.063.05 2.164 1.1 4.194 2.129 6.244 3.133.881.428 1.769.835 2.658 1.245 2.431 6.268 4.48 12.688 5.99 19.25a7.194 7.194 0 01-.071-.324c1.537 6.746 2.495 13.673 2.267 20.599v-.052.071c-.007.012-.007.026-.007.033v.064c0 .052-.001.1-.007.157v-.075a48.147 48.147 0 01-.895 7.393 46.269 46.269 0 01-3.666.147c-2.66 0-5.4-.204-8.377-.632-4.148-.601-8.507-1.625-13.324-3.125-.485-.153-.976-.31-1.468-.47.239-.883.451-1.772.638-2.666 1.091-5.216 1.363-10.589 1.053-15.898-.514-8.722-2.481-17.309-4.994-25.654-1.479-4.905-3.163-9.742-4.919-14.555 5.837 3.958 12.118 7.729 18.732 11.245z" fill="#3B8D96"/><path d="M330.412 273.828a64.483 64.483 0 015.227 3.134 40.112 40.112 0 014.665 3.718 23.96 23.96 0 013.641 4.268 19.868 19.868 0 012.509 5.327c.62 2.052.897 4.167.82 6.294a16.37 16.37 0 01-1.329 5.75c-.769 1.792-1.891 3.459-3.337 4.953-1.362 1.412-3.04 2.641-4.983 3.668-1.981 1.03-4.149 1.677-6.001 2.17a36.918 36.918 0 01-4.549.89 45.98 45.98 0 00.753-6.406c.402-8.347-.927-16.674-3.064-24.742-1.238-4.69-2.752-9.31-4.477-13.852 3.621 1.607 6.914 3.112 10.125 4.828z" fill="#3B8D96"/><path d="M325.284 307.045v-.052a.314.314 0 00.005-.027v-.01l-.005.089z" fill="#6E7EAB"/><path d="M125.192 149.045c.92.061 1.821.285 2.689.501.188.05.435.203.613.419.312.139.552.419.66.765.519 1.613.995 2.902 1.502 4.06 1.444 3.183 3.417 6.323 5.863 9.336l.101.158-.014.006c.298.356.61.706.918 1.055.166 3.997.457 7.996.844 11.981 1.413 14.77 3.892 29.445 4.544 44.284.653 14.942.463 29.922-.652 44.839l.019-.326c-.571 7.546-1.446 15.064-2.333 22.582-1.31 11.115-2.782 22.218-4.849 33.226-2.115 11.312-4.821 22.53-8.643 33.393.031-.097.071-.198.101-.301-1.685 4.756-3.588 9.432-5.766 13.977a25.825 25.825 0 01-.62-.509 34.12 34.12 0 01-3.15-2.949c-.92-.977-1.807-2.135-2.727-3.535-1.368-2.078-2.427-4.569-3.143-7.408-.589-2.372-.868-5.002-.875-8.288-.007-2.224.173-4.474.342-6.654l.083-1.03c.241-3.089.495-6.172.755-9.255l.082-1.022c.463-5.567.944-11.324 1.317-16.988.432-6.692.66-12.616.691-18.107.025-5.61-.17-11.479-.607-17.948l.043.294c-.452-6.299-1.115-12.587-1.903-18.803 2.78-6.62 4.357-13.729 5.224-20.83.958-7.817 1.084-15.725.672-23.58a201.288 201.288 0 00-.949-11.529c-.554-5.007-1.211-10.002-2.066-14.966-.844-4.9-1.851-9.775-3.1-14.593a155.33 155.33 0 00-4.499-14.464.898.898 0 00-.072-.146 27.962 27.962 0 019.552-6.127c2.091-.795 4.194-1.297 6.256-1.481a18.407 18.407 0 011.787-.082c.435 0 .873.014 1.31.045z" fill="#3B8D96"/><path fill-rule="evenodd" clip-rule="evenodd" d="M105.48 160.182l.021.073c-.268-.757-.537-1.506-.813-2.255-1.419 1.668-2.544 3.415-3.34 5.21-.489 1.086-.808 2.01-1.01 2.898a34.797 34.797 0 00-.644 3.655c-.62 4.957-.535 10.308.267 16.83.592 4.859 1.506 9.745 2.393 14.487l.061.329.081.429c.33 1.762.661 3.527.98 5.291l.235 1.342c.279 1.593.558 3.185.833 4.778a1455.512 1455.512 0 00.865 4.97l.678 3.884c.436 2.485.865 4.969 1.294 7.456 1.193 6.938 2.378 14.123 3.415 21.441a75.186 75.186 0 002.333-8.474c-.01.05-.02.1-.033.15 2.258-10.743 2.548-21.819 1.866-32.741l.01.143-.006-.093-.005-.068-.011-.17.011.17.001.018c-.221-3.405-.557-6.794-.947-10.185a242.558 242.558 0 00-1.914-13.462c-1.52-8.854-3.666-17.6-6.621-26.106zm.021.073l.024.067.034.091a3.82 3.82 0 01-.058-.158z" fill="#6E7EAB"/><path d="M146.517 173.075h.006c3.183 2.267 6.488 4.063 9.822 5.333-.007.007-.013.007-.018.007a.234.234 0 01-.096-.021c1.917.688 3.701 1.175 5.421 1.469 2.05 7.46 4.501 14.798 6.726 22.205 1.312 4.362 2.534 8.756 3.594 13.195a302.678 302.678 0 012.831 13.108v-.012c2.16 11.262 3.731 22.631 4.866 34.039a542.128 542.128 0 011.683 21.428c.339 5.827.624 11.663.78 17.496.304 11.104.191 22.212-.623 33.284v-.044.07c0 .019-.007.032-.007.045v.005c-1.114 14.609-3.416 29.26-8.263 43.106.031-.094.07-.197.101-.298a105.898 105.898 0 01-2.97 7.51c-2.912-.196-5.729-.572-8.144-.919-6.196-.883-12.147-2.164-17.682-3.821-6.164-1.837-11.788-4.203-16.7-7.043a49.69 49.69 0 01-4.557-2.957 132.498 132.498 0 004.884-11.492c4.011-10.746 6.892-21.883 9.105-33.132 2.175-11.046 3.743-22.207 5.087-33.387.68-5.605 1.349-11.211 1.917-16.83a359.496 359.496 0 001.55-22.233c.29-7.463.366-14.944.208-22.408-.075-3.726-.177-7.455-.385-11.175-.208-3.7-.504-7.396-.876-11.077-1.348-13.515-3.482-26.959-4.254-40.526a54.346 54.346 0 005.994 5.075z" fill="#3B8D96"/><path d="M171.468 150.635c.97.278 1.992.703 3.1 1.298a236.88 236.88 0 016.437 10.169c-.052-.089-.111-.176-.161-.272 13.566 22.818 23.293 47.738 30.377 73.24-.031-.1-.057-.209-.088-.309a401.32 401.32 0 017.38 31.639 443.134 443.134 0 015.65 38.814 534.352 534.352 0 011.448 17.157c.389 5.826.656 11.66.675 17.504v-.329c.014 10.523-.701 21.164-3.406 31.375a88.236 88.236 0 01-.911 3.073c-6.371 2.772-12.666 5.078-18.751 6.848-7.245 2.114-14.388 3.434-21.238 3.928-2.016.153-4.049.23-6.034.23-.941 0-1.888-.017-2.827-.053 2.76-6.33 4.856-12.958 6.469-19.657 2.685-11.152 4.12-22.577 4.835-34.014.689-11.013.714-22.064.338-33.089a582.742 582.742 0 00-.95-18.533c-.479-7.147-1.077-14.293-1.862-21.416-1.565-14.198-3.807-28.34-7.106-42.254-.83-3.465-1.71-6.925-2.698-10.346-.988-3.427-2.046-6.829-3.12-10.225-1.622-5.133-3.27-10.264-4.738-15.444l.25.001c.624 0 1.237-.037 1.825-.12a9.887 9.887 0 002.072-.585 7.886 7.886 0 001.448-.9 8.169 8.169 0 001.051-1.155 9.38 9.38 0 00.881-1.683c.312-.907.522-1.885.645-2.99l-.007.299c.127-1.587.064-3.344-.224-5.357l-.033-.189c-.503-2.939-1.422-5.924-2.729-8.9l-.077-.171c-.941-2.081-2.039-4.025-3.237-5.738-.238-.332-.257-.788-.054-1.193.033-.787.581-1.288 1.271-1.288a16.46 16.46 0 014.099.635z" fill="#3B8D96"/><path d="M181.286 334.012l.002-.024-.002.024zm-.002.009z" fill="#6E7EAB"/><path d="M181.822 157.617c2.107 2.317 4.042 4.865 5.751 7.109 1.968 2.572 3.98 5.36 6.336 8.763 3.879 5.626 7.681 11.697 11.629 18.554a363.717 363.717 0 0110.347 19.271c4.782 9.554 9.23 19.587 13.434 30.352a47.819 47.819 0 01-.832 1.927c-.28.601.063 1.344.66 1.589.508.209 1.053.039 1.397-.354 5.63 14.778 10.843 30.957 15.87 49.18.863 3.124 1.688 6.255 2.52 9.385l.329 1.247c.357 1.344.724 2.689 1.086 4.025.609 2.225 1.22 4.442 1.791 6.672 1.517 5.902 3.25 13.701 3.142 21.749a31.587 31.587 0 01-1.296 8.598c-.71 2.384-1.834 4.812-3.345 7.198-1.301 2.054-2.939 4.049-5.008 6.098-1.74 1.724-3.797 3.389-6.278 5.099-4.701 3.239-9.776 5.707-14.658 7.921a78.957 78.957 0 001.067-4.187c1.307-5.812 2.043-11.737 2.398-17.68.362-5.994.376-12.001.179-18.002-.191-5.621-.56-11.229-1.009-16.832-.489-6.097-1.06-12.18-1.771-18.249-3.098-26.292-8.4-52.399-16.511-77.62-7.12-22.132-16.429-43.682-28.763-63.43a45.873 45.873 0 011.535 1.617z" fill="#3B8D96"/><path fill-rule="evenodd" clip-rule="evenodd" d="M169.763 150.462a16.013 16.013 0 00-3.179-.462h-.053c-.631 0-1.185.48-1.24 1.175-.056.707.446 1.308 1.093 1.38.053.009.106.016.16.023l.048.006.265.071.193.053c.287.079.553.104.828-.016.384.054.77.12 1.152.2.817.205 1.605.483 2.363.874l.029.016c.285.161.547.26.881.201.313-.06.598-.26.778-.549a1.33 1.33 0 00.186-.939c-.05-.306-.237-.687-.509-.833-.471-.267-.95-.528-1.46-.721a12.446 12.446 0 00-1.535-.479z" fill="#6E7EAB"/><path d="M167.959 150.204c.28.208.56.398.851.576.246.146.41.5.46.791a1.34 1.34 0 01-.168.894 1.082 1.082 0 01-.701.518c-.301.057-.537-.036-.795-.188a9.845 9.845 0 01-.85-.577c-.488-.368-.616-1.147-.286-1.691.205-.344.544-.527.888-.527.209 0 .418.065.601.204z" fill="#6E7EAB"/><path d="M167.12 150.376c.069.081.139.157.211.23.162.136.327.26.501.38.479.323.593 1.043.278 1.534-.327.513-.97.622-1.448.293a5.922 5.922 0 01-1.121-.985c-.393-.439-.311-1.175.109-1.562a.958.958 0 01.662-.266c.294 0 .588.134.808.376z" fill="#6E7EAB"/><path d="M167.693 150.447c.408.476.823.939 1.259 1.395.509.524.416 1.388-.136 1.844-.579.476-1.431.393-1.941-.129a29.925 29.925 0 01-1.261-1.402c-.467-.552-.446-1.361.136-1.837.253-.21.589-.318.92-.318.387 0 .771.147 1.023.447zM86.619 108c2.536 0 5.105.858 7.668 2.557-3.33 6.241-7.21 12.173-11.877 17.483-3.79 4.25-8.05 8.032-12.75 11.211l.078-.047c-.036.021-.069.044-.103.066a68.813 68.813 0 01-8.348 4.73c.935-2.81 1.917-5.657 2.943-8.519.903-2.512 1.882-5.204 2.913-7.82a57.833 57.833 0 012.76-5.974 44.207 44.207 0 013.382-5.371 26.805 26.805 0 013.848-4.271 22.13 22.13 0 012.084-1.635 16.823 16.823 0 012.398-1.319A12.062 12.062 0 0186.442 108h.177z" fill="#6E7EAB"/><path d="M96.972 112.713c.833.764 1.691 1.662 2.627 2.752 1.136 1.324 1.995 2.451 2.702 3.553.619.962 1.169 2.056 1.686 3.337.41 1.031.727 2.171 1.004 3.694.222 1.203.317 2.522.292 3.998a.926.926 0 00-.209.085c-.31.153-.462.389-.607.688-.214.451-.434.904-.663 1.357.045-.097.094-.193.14-.288-3.468 6.853-7.945 13.164-12.998 18.915-5.312 5.98-11.3 11.381-17.917 15.865l-.184.127c-4.749 3.149-9.808 5.815-15.18 7.694a.21.21 0 00-.024.007h.002c-.004.002-.009.002-.012.002l-.007.004v-.002l-.044.014c-.007 0-.007 0-.012.006-.014 0-.026.007-.04.014h-.005c-.018.007-.032.012-.044.019.012-.007.026-.012.044-.019l-.056.021c.004-.002.007-.002.012-.002a2.897 2.897 0 00-.063.024c.007-.007.019-.01.032-.017A52.52 52.52 0 0152.287 176a373.643 373.643 0 016.593-24.335c.48-1.558.978-3.135 1.492-4.725a68.031 68.031 0 006.686-3.377 68.134 68.134 0 0016.89-13.769 83.167 83.167 0 006.923-8.942A103.29 103.29 0 0096.15 112c.276.227.55.465.823.713z" fill="#6E7EAB"/><path d="M69.28 139.006c0-.007.007-.007.013-.012l-.013.012zM57.252 174.01c.006-.002.015-.006.022-.007a.256.256 0 01.048-.012c-.026.005-.045.012-.07.019z" fill="#6E7EAB"/><path fill-rule="evenodd" clip-rule="evenodd" d="M103.52 142.932c.439-1.755.888-3.569 1.256-5.36a47.06 47.06 0 00.3-1.572c-3.083 5.544-6.82 10.719-10.972 15.519-5.535 6.393-11.839 12.152-18.848 16.911-4.836 3.285-10.018 6.089-15.527 8.1a55.142 55.142 0 01-7.965 2.255 334.581 334.581 0 00-1.489 6.821c-2.38 11.55-4.1 22.872-5.123 33.644a314.364 314.364 0 00-.386 4.557 55.236 55.236 0 003.987-1.165c5.395-1.861 10.466-4.512 15.236-7.634l.11-.072a11.245 11.245 0 01.15-.097l-.054.034-.042.026-.076.048c6.736-4.501 12.83-9.912 18.252-15.918l.025-.025.02-.026c0 .007-.006.007-.006.014a.777.777 0 01.098-.109l-.005.008c.019-.024.043-.048.063-.07-.005.007-.01.007-.017.012 4.368-4.904 8.297-10.189 11.554-15.885.195-.354.597-.525.99-.525.249 0 .5.07.703.208.263.178.446.455.51.767.069.342-.02.633-.19.923-3.981 6.974-8.982 13.342-14.545 19.126-5.948 6.177-12.684 11.657-20.1 15.998-4.157 2.437-8.556 4.437-13.147 5.894a47.403 47.403 0 01-3.688 1.011c-.343 5.48-.394 10.151-.178 14.607.216 4.228.637 7.937 1.295 11.347.8 4.133 1.822 7.613 3.132 10.634 1.09 2.555 2.378 4.866 3.846 6.903a65.364 65.364 0 005.307-3.125c5.1-3.397 9.706-7.456 13.805-11.992l.015-.02a.019.019 0 01.006-.005l.006-.005a.022.022 0 01.007-.009v.002l.008-.009a.142.142 0 01.023-.025.071.071 0 01.033-.031.329.329 0 01.043-.052c5.092-5.747 9.364-12.162 12.875-18.978v.011l.03-.06.002-.003m-.002.003c4.125-8.107 7.182-16.732 9.176-25.601.064-.293.355-.559.61-.686.164-.082.348-.12.533-.12.139 0 .28.021.412.064.298.107.545.321.686.607.158.323.125.609.056.942a110.596 110.596 0 01-7.631 22.443c-3.365 7.228-7.553 14.095-12.612 20.272-4.096 4.999-8.775 9.537-14 13.358a67.099 67.099 0 01-7.866 4.964l.149.165.055.062c2.368 2.715 5.283 4.961 8.418 6.498 2 .977 3.814 1.629 5.549 2a21.6 21.6 0 004.519.489c.393 0 .782-.007 1.17-.032 3.58-.228 7.204-1.335 10.771-3.291 3.27-1.791 6.412-4.182 9.624-7.309 2.833-2.766 5.574-5.957 8.151-9.488 4.23-5.796 7.803-11.916 10.653-18.245 2.102-10.57 2.356-21.454 1.69-32.189.007.115.012.221.017.331-.216-3.438-.545-6.863-.933-10.285a244.26 244.26 0 00-1.865-13.405c-1.486-8.841-3.586-17.575-6.482-26.069v.021a642.76 642.76 0 01-.755-2.13l-.096-.27a33.147 33.147 0 00-3.435 3.907 39.366 39.366 0 00-2.467 3.669 201.442 201.442 0 012.946-16.391c.482-2.183 1-4.362 1.534-6.524l.096-.368m-18.673 92.611l-.01.016c-.008.012-.016.023-.02.033a.132.132 0 00.02-.032l.01-.017m-2.366-36.678c.007-.014.02-.019.026-.032a.11.11 0 00-.026.032zm23.319-37.542a.7.7 0 01-.058-.157l.023.063.035.094z" fill="#3B8D96"/><path d="M57.275 174.004c.005-.001.008-.003.013-.006l.01-.002-.023.008zm25.009 25c.002-.002.003-.006.005-.007-.002.001-.003.005-.005.007z" fill="#6E7EAB"/><path d="M82.28 199.006c.005-.003.008-.008.013-.012-.005.004-.008.009-.013.012z" fill="#6E7EAB"/><path d="M82.267 199.026c.007-.007.007-.019.014-.026a.705.705 0 00.025-.026.538.538 0 01-.04.052zm-10.984 55.98v-.005a.054.054 0 00.007-.007c-.002.005-.007.005-.007.012z" fill="#6E7EAB"/><path d="M71.268 255.023l.029-.037.008-.009-.037.046z" fill="#6E7EAB"/><path d="M71.277 255.012c.007-.01.014-.015.02-.024-.008.009-.015.016-.02.024zm.98-.978a.665.665 0 00.04-.048l.02-.019c-.02.024-.04.046-.06.067zm-.971-.032V254l.001-.002-.001.004z" fill="#6E7EAB"/><path d="M71.256 254.033l.03-.035c.011-.013.018-.018.031-.03-.022.02-.04.042-.061.065z" fill="#6E7EAB"/><path d="M109.582 155.165h.019c.206 0 .382.05.53.139 1.126.683 2.077 1.717 3.004 3.255 1.012 1.68 1.725 3.51 2.288 5.076 1.294 3.609 2.151 7.327 2.881 10.809 1.139 5.376 1.934 10.349 2.415 15.196.55 5.458.7 10.962.452 16.356a103.28 103.28 0 01-2.015 16.081 95.918 95.918 0 01-2.631 9.923c.612-6.662.652-13.376.304-20.053-.2-3.824-.517-7.641-.936-11.448-.546-4.971-1.195-9.931-2.039-14.86-.833-4.865-1.826-9.706-3.058-14.49a154.972 154.972 0 00-4.44-14.362.875.875 0 00-.069-.141 23.292 23.292 0 012.019-1.448 1.19 1.19 0 01.669-.198c.207 0 .42.06.607.165z" fill="#2F7F87"/><path d="M109.839 155.277c.258.189.417.456.443.741.028.261-.076.613-.33.801-.934.69-1.81 1.429-2.67 2.181-.323-.769-.655-1.536-.995-2.298a31.228 31.228 0 011.681-1.333c.269-.2.517-.341.898-.363.034 0 .062-.006.096-.006.319 0 .637.101.877.277z" fill="#6E7EAB"/><path d="M109.102 155.578c.356.608.169 1.348-.317 1.775-.252.22-.498.447-.738.681-.316.312-.621.636-.924.966-.25-.813-.504-1.625-.765-2.434a.886.886 0 00-.071-.162c.405-.411.823-.809 1.254-1.184a.872.872 0 01.586-.22c.382 0 .764.22.975.578z" fill="#6E7EAB"/><path d="M109.086 155.61c.175.288.237.652.18.997-.062.371-.256.636-.516.87-.255.216-.505.454-.752.685-.273.273-.54.552-.801.838a196.64 196.64 0 00-.776-2.437.84.84 0 00-.134-.259c.371-.37.75-.726 1.144-1.073a.907.907 0 01.615-.231c.404 0 .821.239 1.04.61zm-3.799 4.39a1.825 1.825 0 01-.38-.214c-.584-.429-.785-1.188-.476-1.786.288.665.576 1.333.856 2" fill="#6E7EAB"/><path d="M108.05 155c.304 0 .597.118.827.333a1.4 1.4 0 01.406.899c.025.325-.071.748-.305.977-.598.593-1.198 1.186-1.784 1.791-.271-.844-.546-1.686-.83-2.525a.847.847 0 00-.077-.168c.287-.287.577-.571.866-.858.242-.243.476-.421.822-.449h.075zm-2.808 5.368c-.011-.043-.031-.093-.043-.137l.088.265c-.017-.043-.03-.085-.045-.128.015.043.028.085.045.128-.329.36-.649.73-.954 1.11-.403.5-1.192.513-1.656.1-.495-.438-.508-1.171-.104-1.671a26.752 26.752 0 011.841-2.035c.282.785.557 1.575.828 2.368z" fill="#2A7F88"/><path d="M142.636 305.536a11.01 11.01 0 012.145 1.258c.77.612 1.453 1.31 2.064 2.079.915 1.213 1.648 2.55 2.264 3.942 1.313 3.141 2.046 6.492 2.516 9.861.007.038.012.076.017.112.006.035.009.067.016.098a4.944 4.944 0 00-.016-.098l-.01-.105c.012.101.026.203.04.297l-.004-.01-.01-.084c0 .027.005.057.01.084.615 4.842.721 9.741.537 14.614a128.303 128.303 0 01-1.024 12.298c.011-.108.024-.217.038-.324a77.76 77.76 0 01-1.714 8.921c-1.184 4.658-2.764 9.198-4.629 13.629.045-.095.083-.196.129-.292a129.726 129.726 0 01-3.321 7.184c-5.037-1.679-9.664-3.718-13.789-6.084a50.711 50.711 0 01-4.608-2.962 145.087 145.087 0 004.926-11.546c3.726-9.913 6.73-20.765 9.19-33.175 1.23-6.196 2.345-12.801 3.407-20.233.623.129 1.232.309 1.826.536z" fill="#2F7F87"/><path d="M151.29 323.013l-.007-.007v-.019c0 .014 0 .019.007.026z" fill="#6778A4"/><path fill-rule="evenodd" clip-rule="evenodd" d="M118.568 212.043a3.143 3.143 0 00-.129-.038 1.854 1.854 0 00-.129-.005c-.059 0-.12.003-.179.012-.298.05-.574.139-.851.245-.056.025-.11.051-.165.078.428 8.309.195 15.866-.705 23.073-.985 7.927-2.717 14.717-5.307 20.767a427.482 427.482 0 012.003 18.727l-.116-.284c.438 6.377.646 12.229.619 17.879-.033 5.504-.262 11.407-.701 18.043-.381 5.618-.865 11.358-1.297 16.417l-.043.514-.084 1.02c-.264 3.071-.522 6.142-.765 9.222l-.091 1.102c-.176 2.141-.348 4.365-.341 6.554.007 3.281.289 5.904.895 8.273.72 2.829 1.797 5.318 3.193 7.389.954 1.426 1.862 2.578 2.769 3.53a36.331 36.331 0 003.208 2.939c.205.169.417.34.682.5a125.86 125.86 0 005.801-13.955l-.044.319c3.497-9.748 6.375-20.635 8.791-33.285 1.043-5.465 1.93-10.935 2.705-16.225a6.626 6.626 0 00-.704.223 8.282 8.282 0 00-1.395.822 11.562 11.562 0 00-1.76 1.779c-1.145 1.502-2.01 3.181-2.755 4.898l.07-.159.059-.134c-1.011 2.388-1.767 4.865-2.378 7.372a66.891 66.891 0 00-1.286 6.77v-.012a1.457 1.457 0 00-.026.204 261.634 261.634 0 01-.336 3.141c-.031.335-.109.613-.362.861a1.26 1.26 0 01-.873.354c-.639 0-1.283-.556-1.236-1.215.077-1.116.198-2.224.346-3.338a235.218 235.218 0 001.102-21.711c.017-4.251-.091-8.494-.31-12.732a207.383 207.383 0 00-.431-6.357c-.161-2.001-.34-4.002-.599-5.991.007.037.014.075.019.113l-.019-.14a5.825 5.825 0 01-.019-.139l.001.046a.296.296 0 01-.008-.065c-.667-4.7-1.75-9.33-2.832-13.953-.16-.684-.32-1.368-.478-2.052-1.243-5.39-2.362-10.818-2.743-16.347-.192-2.773-.27-5.554-.335-8.334a439.286 439.286 0 01-.09-8.817c-.002-1.265-.001-2.529 0-3.793.002-4.474.004-8.947-.091-13.421a1.199 1.199 0 01.047-.34 2.535 2.535 0 00-.118-.192 1.626 1.626 0 00-.108-.115.659.659 0 00-.071-.037z" fill="#2F7F87"/><path d="M125.288 280.013s0-.002-.002-.002v-.024c0 .005 0 .016.002.026z" fill="#6778A4"/><path d="M115.218 216.444c.289 9.521-.331 18.019-1.907 25.984l-.133.622-.045-.177a73.033 73.033 0 01-.361 1.753 60.005 60.005 0 01-1.842 6.746l-.121-.395a30.02 30.02 0 01-.343-2.065l-.099-.678a45.083 45.083 0 01-1.349 2.578c-1.805 3.277-3.94 6.631-6.348 9.972-2.576 3.545-5.318 6.751-8.142 9.52-3.232 3.164-6.372 5.563-9.616 7.342-3.582 1.977-7.206 3.095-10.77 3.323-.388.026-.774.031-1.173.031-1.469 0-2.989-.165-4.53-.489-1.74-.386-3.558-1.047-5.54-2.026-3.115-1.531-6.028-3.785-8.416-6.53-.126-.139-.126-.158-.126-.158 0-.006-.07-.166-.07-.166a67.793 67.793 0 007.84-4.985 71.537 71.537 0 003.117-2.431c2.927.58 6.011.747 8.942.088 2.798-.622 5.357-1.981 7.555-3.825 2.23-1.866 4.065-4.178 5.662-6.61 1.684-2.573 3.122-5.298 4.484-8.056 1.368-2.755 2.658-5.543 4.072-8.276 1.24-2.412 2.576-4.794 4.216-6.961.761-.983 1.559-1.955 2.338-2.928a198.28 198.28 0 013.736-4.553c1.482-1.745 2.995-3.467 4.592-5.113 1.354-1.403 2.756-2.774 4.283-3.981.036.821.068 1.636.094 2.444zm-64.001 39.942c1.773 1.988 3.825 3.772 6.136 5.162a24.282 24.282 0 004.934 2.262 70.872 70.872 0 01-4.414 3.11 65.866 65.866 0 01-5.367 3.08c-1.521-1.958-2.849-4.257-3.98-6.825-1.32-2.974-2.36-6.409-3.176-10.499-.465-2.362-.817-4.898-1.063-7.676 1.717 4.107 3.94 8.033 6.93 11.386z" fill="#2F7F87"/><path d="M96.119 112c.003 0 .014.005.017.009.276.23.555.472.828.715a31.589 31.589 0 012.627 2.749c1.138 1.324 1.996 2.456 2.704 3.558.602.929 1.153 2.02 1.686 3.338.419 1.054.732 2.195 1.012 3.7.22 1.2.315 2.509.29 3.998l-.231.11c-.292.148-.447.376-.592.672a70.5 70.5 0 01-.663 1.355l.02-.108c-3.16 6.298-7.49 12.6-12.876 18.73-5.508 6.201-11.537 11.535-17.918 15.849l-.183.129c-5.05 3.348-10.156 5.934-15.18 7.686l-.176.036A47.52 47.52 0 0152.286 176c1.824-7.991 4.035-16.177 6.551-24.35.48-1.553.973-3.131 1.491-4.722a70.198 70.198 0 006.699-3.387 67.92 67.92 0 0016.87-13.753 82.974 82.974 0 006.916-8.924 104.814 104.814 0 005.278-8.842c.003-.003.022-.022.027-.022z" fill="#3B8D96"/><path d="M86.425 108h.179c2.53 0 5.114.861 7.683 2.563-3.606 6.803-7.49 12.52-11.868 17.499-3.864 4.324-8.155 8.09-12.757 11.194A69.128 69.128 0 0161.287 144a216.51 216.51 0 012.9-8.545 272.785 272.785 0 012.913-7.806 55.396 55.396 0 012.761-5.966c1-1.873 2.138-3.679 3.384-5.37a26.78 26.78 0 013.85-4.265 21.8 21.8 0 012.092-1.632c.7-.476 1.485-.906 2.399-1.321A12.07 12.07 0 0186.425 108z" fill="#3B8D96"/><path d="M231.287 234.809a44.567 44.567 0 01-.464 1.906 48.27 48.27 0 01-1.754 5.285c-.347-1.153-.676-2.311-1.007-3.465-.823-2.878-1.66-5.765-2.775-8.535a67.217 67.217 0 016 4.809z" fill="#2A7F88"/><path d="M241.913 245.739c.013.014.025.024.039.045h-.002c.002.001.002.003.002.005l.017.021-.001-.006c.003.002.003.007.008.012a.34.34 0 01.052.057c-.014-.02-.031-.038-.045-.057 1.709 1.929 3.406 3.869 5.141 5.772a224.202 224.202 0 005.207 5.506c3.432 3.52 6.979 6.938 10.659 10.197.431.376.864.758 1.297 1.133-.395 7.669-1.622 14.819-3.649 21.254l.038-.325c-.313 1.151-.718 2.343-1.208 3.647-3.945-2.209-9.703-5.556-15.48-9.584a77.346 77.346 0 00-.804-3.476c-2.498-9.606-6.641-18.664-10.372-27.822-.873-2.14-1.759-4.273-2.525-6.448a1.332 1.332 0 00.331-.44 43.18 43.18 0 001.393-3.355 50.738 50.738 0 001.5-4.875c2.942 2.761 5.706 5.729 8.402 8.739z" fill="#2F7F87"/><path d="M242.288 245.001c-.001-.002-.001-.002-.003-.002.002 0 .002 0 .003.002z" fill="#6778A4"/><path d="M297.249 298.796c-.176 3.921-.728 7.693-1.639 11.204-2.908-.999-5.903-2.184-9.176-3.612-8.429-3.679-16.554-8.154-22.696-11.639-.477-.274-.961-.55-1.451-.824a79.073 79.073 0 003.586-12.972A92.39 92.39 0 00267.197 270c9.15 7.792 19.1 14.643 29.788 20.056.273 3.025.359 5.93.264 8.74z" fill="#2F7F87"/><path d="M283.287 278.999c.003.004.007.005.01.007l-.021-.012.011.005z" fill="#6778A4"/><path d="M301.85 292.364a139.737 139.737 0 0023.266 8.025 66.03 66.03 0 01.138 6.783c0 .005-.031.167-.045.167a46.399 46.399 0 01-.867 7.489 37.794 37.794 0 01-3.729.172c-2.669 0-5.426-.205-8.426-.637-4.188-.606-8.574-1.635-13.42-3.154-.492-.155-.983-.31-1.48-.477.229-.928.44-1.822.626-2.723 1.033-4.932 1.391-10.315 1.059-16.007a71.044 71.044 0 00-.065-1.002c.976.468 1.956.922 2.943 1.364zm43.437 11.468a16.249 16.249 0 01-2.7 3.624c-1.345 1.371-2.995 2.571-4.912 3.567-1.96 1.009-4.08 1.63-5.9 2.111-1.384.36-2.85.643-4.488.866a49.32 49.32 0 00.711-6.255 61.887 61.887 0 00-.046-6.745 159.99 159.99 0 0017.335 2.832" fill="#2F7F87"/><path fill-rule="evenodd" clip-rule="evenodd" d="M119.254 219.377c.401-2.316.742-4.642 1.031-6.975.024-.22-.206-.402-.412-.402-.242 0-.382.182-.408.402-.041.344-.086.684-.131 1.025l-.042.316v-.017c-.621 4.497-1.504 8.953-2.72 13.324a101.445 101.445 0 01-4.408 12.616l.02-.046.022-.05.015-.033c-1.978 4.593-4.278 9.043-6.775 13.381-2.226 3.878-4.626 7.659-7.391 11.192a9 9 0 00.116-.152c-1.46 1.854-2.995 3.65-4.659 5.322a52.493 52.493 0 01-5.03 4.445l.001-.001-.004.003a.535.535 0 00-.073.055c-1.941 1.463-4.026 2.72-6.106 3.975l-.81.489a.407.407 0 00-.148.554c.11.189.371.259.558.145l.865-.521c1.562-.939 3.124-1.879 4.63-2.896a59.491 59.491 0 004.55-3.386 59.995 59.995 0 007.927-7.962 81.402 81.402 0 003.96-5.177 89.252 89.252 0 003.642-5.587c2.463-4.148 4.479-8.543 6.155-13.058a107.731 107.731 0 002.317-6.859c.683-2.319 1.313-4.66 1.856-7.017a127.521 127.521 0 001.452-7.105zm-30.78 54.354l.004-.003a.023.023 0 00.004-.003l-.002.002-.005.004zm0 0c-.025.022-.053.042-.08.063l.012-.012" fill="#2A7F88"/><path d="M207.002 198.158c2.589 3.557 4.96 7.26 7.153 11.087 2.282 3.977 4.393 8.062 6.384 12.2 1.009 2.091 1.987 4.2 2.944 6.317.959 2.121 1.86 4.266 2.766 6.404 1.809 4.231 3.506 8.513 5.145 12.81 2.892 7.606 5.672 15.254 8.25 22.975 2.817 8.431 5.408 16.947 7.703 25.538-.007-.019-.007-.038-.014-.057a330.923 330.923 0 015.025 21.689c1.302 6.599 2.331 13.249 2.929 19.948a83.944 83.944 0 01-.154 2.929c-.204.021-.431-.13-.444-.349-.712-9.75-2.61-19.372-5.117-28.798.018.064.03.122.051.185-1.356-5.053-2.85-10.074-4.363-15.076a644.464 644.464 0 00-4.746-15.077 639.407 639.407 0 00-5.137-14.955c-1.626-4.53-3.341-9.03-4.942-13.569-1.336-3.778-2.634-7.571-3.978-11.351-.679-1.923-1.373-3.839-2.066-5.761-.724-2.01-1.501-4.009-2.269-6.007-2.932-7.632-6.272-15.114-10.355-22.203.025.038.044.075.068.113-1.695-2.913-3.491-5.765-5.465-8.488a.416.416 0 01.07-.573.402.402 0 01.252-.089c.121 0 .24.057.31.158zm-100.817-69.76c.037.498.068.995.102 1.493a64.303 64.303 0 01-.771 7.633c-.605 3.84-1.477 7.636-2.394 11.422-.898 3.688-1.855 7.37-2.656 11.083-.846 3.892-1.491 7.828-2.036 11.777v-.026c-1.386 10.231-1.953 20.564-1.758 30.875.044 2.4.143 4.797.182 7.196.047 2.378.065 4.747.019 7.122-.092 4.76-.442 9.517-1.268 14.211-.574 3.263-1.418 6.492-2.59 9.6a43.943 43.943 0 01-2.026 4.586c-.408.79-.902 1.523-1.379 2.269-.475.743-1.014 1.451-1.542 2.158-.137.179-.357.269-.572.147-.181-.102-.28-.376-.151-.562a26.743 26.743 0 001.602-2.463c.248-.427.463-.873.677-1.319.194-.401.384-.811.565-1.217a48.61 48.61 0 001.316-3.42c.397-1.166.74-2.352 1.06-3.536.665-2.476 1.138-5.007 1.497-7.542-.005.077-.02.153-.026.23.645-4.739.872-9.509.886-14.288a233.48 233.48 0 00-.098-7.101c-.065-2.435-.157-4.867-.188-7.307a192.1 192.1 0 012.095-31.033c.455-3.039.97-6.07 1.62-9.078.65-3.019 1.479-6.006 2.323-8.988.848-2.98 1.732-5.949 2.513-8.948.755-2.951 1.406-5.938 1.828-8.956v.031c.359-2.668.535-5.35.463-8.044-.006-.196.156-.363.351-.403.122.801.24 1.599.356 2.398z" fill="#2A7F88"/><path d="M104.283 135.026c0-.019.007-.033.007-.052 0 .019-.007.04-.007.052z" fill="#5D6790"/><path d="M104.283 135.021a.5.5 0 01.007-.041l-.007.041z" fill="#5D6790"/><path fill-rule="evenodd" clip-rule="evenodd" d="M131.449 155.59c-.983-1.689-1.836-3.456-2.381-5.338-.043-.165-.215-.252-.38-.252a.37.37 0 00-.152.028c-.226.095-.29.321-.226.54a27.22 27.22 0 002.066 5.156 42.102 42.102 0 002.773 4.543 65.7 65.7 0 004.182 5.325 84.726 84.726 0 003.838 4.161c2.927 2.964 6.084 5.764 9.626 7.979 1.759 1.099 3.606 2.115 5.55 2.847 1.861.698 3.831 1.233 5.82 1.368 1.019.07 2.065.084 3.086-.04.873-.102 1.74-.289 2.586-.538.68-.206 1.353-.451 1.977-.797.552-.302 1.096-.63 1.571-1.048.918-.797 1.649-1.766 2.118-2.898.461-1.102.705-2.298.763-3.486.142-2.755-.456-5.481-1.282-8.093-.881-2.789-2.041-5.488-3.35-8.096a70.874 70.874 0 00-3.458-6.14c-.162-.243-.541-.264-.76-.096-.248.193-.255.514-.093.757a59.275 59.275 0 011.101 1.814l-.002-.001v-.002l.028.052c-.004-.003-.007-.01-.011-.016l-.004-.008c-.004-.008-.009-.017-.011-.025.002.009.007.017.011.025l.004.008a62.09 62.09 0 012.938 5.759c.961 2.165 1.8 4.384 2.424 6.673a1.153 1.153 0 00.017.062l-.004-.016c.01.033.019.064.027.097l-.004-.014-.004-.014c.478 1.854.808 3.753.834 5.672-.012.962-.099 1.916-.328 2.85a8.78 8.78 0 01-.657 1.658 7.196 7.196 0 01-.921 1.243 7.037 7.037 0 01-1.313 1.018 9.266 9.266 0 01-1.776.722c-1.137.278-2.313.382-3.491.398a21.094 21.094 0 01-4.831-.643c-2.573-.692-5.008-1.765-7.332-3.059l.05.027c.048.026.097.052.144.079-4.295-2.438-8.176-5.558-11.695-9.011a1.453 1.453 0 00-.04-.039l.04.039.055.056.053.053a70.938 70.938 0 01-4.549-4.967c-1.722-2.049-3.337-4.181-4.698-6.486a.61.61 0 01.038.06l.033.054zm40.365 10.207a.155.155 0 00-.007-.023l-.006-.023-.004-.019.007.025.01.04zm-12.691 12.93a2.513 2.513 0 01.062.016l-.062-.016zm10.518-.524a.616.616 0 00-.08.043l.022-.012v-.001a.528.528 0 01.058-.03z" fill="#2A7F88"/><path d="M243.213 281.131c1.442 1.141 2.977 2.143 4.5 3.165a267.858 267.858 0 0011.422 7.215 228.441 228.441 0 0012.353 6.82 230.548 230.548 0 0012.422 5.912c4.034 1.785 8.117 3.465 12.291 4.909a.16.16 0 01-.021-.005c3.432 1.17 6.902 2.216 10.437 3.024 3.526.813 7.111 1.381 10.727 1.638-.051 0-.107-.005-.158-.005 2.263.144 4.532.175 6.803.068a46.652 46.652 0 006.68-.824l-.106.016a40.873 40.873 0 002.187-.503c.215-.05.435.031.517.253.065.188-.037.453-.253.511-2.21.572-4.455.995-6.726 1.28-2.332.289-4.683.401-7.035.395-4.727-.026-9.445-.593-14.078-1.523-4.626-.927-9.166-2.308-13.579-3.984-2.231-.852-4.425-1.798-6.612-2.754a271.778 271.778 0 01-6.777-3.077c-6.34-2.981-12.547-6.239-18.571-9.819a168.21 168.21 0 01-8.749-5.563 136.218 136.218 0 01-4.343-3.097c-.702-.516-1.397-1.032-2.098-1.55a17.585 17.585 0 01-1.973-1.657c-.215-.215-.26-.548-.05-.787a.534.534 0 01.41-.189c.134 0 .269.048.38.131z" fill="#2A7F88"/><path fill-rule="evenodd" clip-rule="evenodd" d="M115.53 276.547c-.642-9.729-2.015-19.413-4.372-28.891-.105-.402-.525-.656-.932-.656a1.05 1.05 0 00-.276.038c-.524.159-.755.674-.63 1.162a134.076 134.076 0 011.879 9.004l-.022-.075c1.637 9.684 2.313 19.512 2.378 29.317.039 4.903-.08 9.804-.323 14.701-.117 2.38-.25 4.762-.413 7.137a211.613 211.613 0 01-.618 6.908c-.203 1.917-.422 3.831-.64 5.744-.27 2.353-.539 4.704-.777 7.058-.433 4.285-.788 8.577-.801 12.884-.007 4.083.229 8.199 1.044 12.21.165.834.355 1.658.578 2.471.151.159.236.355.314.578.027.095.059.191.092.285.139.381.29.762.453 1.143a36.457 36.457 0 001.963 3.489l.571.629c.399.439.799.879 1.201 1.317.105-.151.125-.363.009-.513a21.744 21.744 0 01-2.253-3.688c-.866-1.887-1.457-3.856-1.825-5.888-.303-1.79-.427-3.601-.505-5.409-.08-1.818-.1-3.641-.052-5.456.084-3.791.378-7.568.779-11.342v.007c.368-3.424.821-6.839 1.274-10.255.64-4.824 1.281-9.65 1.681-14.502a194 194 0 00.637-14.542 198.67 198.67 0 00-.414-14.865zm-3.344 38.804l.006-.047-.017.162.011-.115z" fill="#2A7F88"/><path d="M110.3 257.088c-.006-.056-.02-.115-.027-.176.007.061.021.12.027.176z" fill="#5D6790"/><path d="M194.951 177.54a181.876 181.876 0 01-8.824 27.554 181.256 181.256 0 01-6.119 13.336c-1.134 2.229-2.33 4.411-3.653 6.534-1.33 2.133-2.761 4.195-4.224 6.233-.521.736-1.057 1.467-1.585 2.203-.196.268-.399.464-.726.56-.31.082-.648.037-.933-.127a1.208 1.208 0 01-.553-.724c-.084-.292-.063-.693.119-.941 3.081-4.22 6.081-8.5 8.519-13.134a176.337 176.337 0 006.498-13.808c-.006.024-.02.044-.027.07 6.233-14.963 10.378-30.747 12.572-46.82v-.019c.007-.021.007-.045.007-.063v.056c.007-.051.012-.11.019-.166 0-.024.005-.043.005-.069 0-.007.006-.014.006-.014v-.017c0-.007 0-.02.007-.027 0 0-.007 0-.007.007 1.612-12.206 2.104-24.527 1.661-36.811a11.593 11.593 0 001.497-.163c.303-.056.604-.111.904-.19.729 18.968-.827 38.052-5.163 56.54z" fill="#3A2238"/><path d="M196.28 158.053c.003-.036.008-.07.014-.106-.006.036-.009.07-.014.106zm.006-.047l.002-.012-.002.012z" fill="#3A2238"/><path d="M196.288 157.999c-.002 0-.002.002-.002.002 0-.002.002-.002.002-.002zm-89.055-52.865c.169-.004.336-.005.503-.009a83.574 83.574 0 00.727 10.963c0 .019 0 .033.005.043v.021-.007.039c.007.024.014.05.014.076a.057.057 0 01.007.03v.026c1.448 10.318 4.611 20.314 8.635 29.901 0-.005-.007-.01-.007-.024.014.038.033.077.045.108a.254.254 0 00.033.076c.005.013.005.025.012.032v.007c7.315 17.172 17.308 33.019 27.417 48.668 8.13 12.607 18.499 23.759 25.508 37.092.307.588.154 1.319-.439 1.662-.555.324-1.365.153-1.679-.432-4.488-8.553-10.407-16.239-16.184-23.95-2.884-3.852-5.746-7.721-8.406-11.733-1.231-1.859-2.428-3.751-3.635-5.63a968.347 968.347 0 01-3.635-5.717c-5.026-7.97-9.872-16.069-14.247-24.419-4.426-8.459-8.361-17.211-11.346-26.286-3.252-9.886-5.295-20.24-5.274-30.671.646.087 1.296.146 1.946.134z" fill="#3A2238"/><path d="M108.288 116.005l-.003-.01a.02.02 0 01.003.01zm9.007 31.016c0-.004-.001-.005-.003-.009l-.014-.032a.295.295 0 01.017.041z" fill="#3A2238"/><path fill-rule="evenodd" clip-rule="evenodd" d="M169.471 231.447a1.26 1.26 0 00-.96-.447c-.285 0-.561.096-.78.277-.226.177-.444.509-.444.807 0 3.52.328 7.029 1.022 10.485.669 3.311 1.607 6.577 2.742 9.767 2.7 7.54 6.445 14.638 10.182 21.721.667 1.265 1.334 2.529 1.995 3.795 4.437 8.493 8.165 17.343 10.93 26.508l-.012-.037-.017-.056-.021-.07c.006.024.014.047.021.07 2.707 9.087 4.468 18.479 4.69 27.969.073 4.356-.184 8.722-.684 13.044a102.242 102.242 0 01-2.254 12.719l-.041.16.007-.028.029-.114-.038.15-.011.044c-1.402 5.511-3.324 10.913-6.083 15.908l.004-.008a.039.039 0 01.01-.014c-1.634 2.883-3.557 5.604-5.854 8.012l.001-.001.211-.229c-.288.301-.616.55-.946.801l-.204.156c-.535.406-.592 1.214-.174 1.726.431.519 1.2.578 1.735.17.075-.057.151-.113.228-.169.153-.111.307-.224.453-.347.3-.255.571-.541.842-.828a35.33 35.33 0 001.478-1.667 38.635 38.635 0 002.563-3.462 52.337 52.337 0 004.248-7.915c2.492-5.743 4.15-11.841 5.255-17.985 1.432-8.015 2.043-16.234 1.491-24.358-.656-9.678-2.803-19.213-5.866-28.407a148.83 148.83 0 00-5.276-13.548 155.525 155.525 0 00-3.059-6.449c-.882-1.766-1.807-3.519-2.73-5.27l-.514-.976-.035-.065c-4.391-8.307-8.815-16.676-11.524-25.694l.048.156c.016.053.031.105.048.157-1.4-4.728-2.289-9.589-2.43-14.515 0-.047-.001-.093-.003-.139l-.003-.357a47.983 47.983 0 00-.006-.535c0-.346-.038-.631-.264-.912zm.275 1.871l-.005-.128c.001.02.003.04.003.061v.012l.001.021v.014l.001.02zm0 0v.095l.001.097v-.12l-.001-.072zm26.081 124.893l-.012.049.025-.101-.013.052zm-5.994 15.75l-.02.036.04-.071.045-.08-.065.115z" fill="#3A2238"/><path fill-rule="evenodd" clip-rule="evenodd" d="M174.663 229.835a9.082 9.082 0 00-2.833-1.43c-.804-.24-1.668-.405-2.513-.405a6.35 6.35 0 00-.589.027c-1.064.1-2.113.343-3.037.901a6.595 6.595 0 00-1.294.987 9.419 9.419 0 00-.938 1.147c-.191.263-.209.686-.124.995.085.323.296.597.578.766.287.174.642.221.97.134.342-.099.551-.317.753-.599.02-.023.039-.049.059-.076a6.52 6.52 0 01.746-.777c.305-.223.622-.41.963-.573a6.639 6.639 0 011.117-.305 7.681 7.681 0 011.546.003 9.145 9.145 0 011.709.479c.574.265 1.106.58 1.615.955.558.411 1.404.1 1.724-.464.172-.302.217-.665.125-.995-.091-.349-.302-.57-.577-.77zm-4.769.766l-.012-.002.082.013.012.002c-.028-.003-.054-.008-.082-.013zm5.238 106.978a1.23 1.23 0 00-.73-.536 1.224 1.224 0 00-.935.117c-.248.14-.513.414-.56.699l-.112.655c-.29 1.693-.579 3.384-1.24 4.978a7.246 7.246 0 01-.757 1.3 4.38 4.38 0 01-.512.498 3.278 3.278 0 01-.423.242 3.373 3.373 0 01-.442.114c-.178.01-.356.01-.536-.001a3.72 3.72 0 01-.406-.104 3.555 3.555 0 01-.378-.211 4.912 4.912 0 01-.466-.457 6.788 6.788 0 01-.63-1.063c-.614-1.462-.889-3.012-1.163-4.557-.058-.325-.115-.649-.176-.971-.12-.629-.901-.977-1.495-.819-.305.08-.57.276-.728.538-.178.287-.183.581-.119.902.061.33.12.66.179.991.306 1.726.614 3.456 1.384 5.064.449.929 1.079 1.82 1.983 2.392.926.587 2.072.775 3.156.569 2.116-.402 3.332-2.312 4.011-4.132.571-1.532.844-3.127 1.117-4.729l.099-.575c.057-.323.057-.61-.121-.904z" fill="#3A2238"/><path d="M168.986 230.4a2.13 2.13 0 01.893-.194c.532-.004.977.208 1.324.536l.027-.01.081-.05c.668-.392 1.579-.02 1.775.695.522 1.876-.044 3.765-.887 5.473-.189.38-.653.582-1.083.571-.06.121-.139.232-.236.329a1.25 1.25 0 01-.857.345c-.25 0-.493-.079-.695-.216a2.09 2.09 0 01-.241.547 1.233 1.233 0 01-1.044.574c-.461 0-.792-.23-1.045-.574a12.038 12.038 0 01-.306-.433 1.066 1.066 0 01-.694-.327c-.363-.412-.692-.839-.95-1.322a6.304 6.304 0 01-.591-1.551c-.282-1.149-.22-2.403.234-3.501.163-.387.401-.688.842-.809.214-.054.428-.054.642 0 .08.023.153.049.218.083.134-.124.297-.233.453-.32.31-.161.58-.205.918-.241.041-.003.08-.005.121-.005.399 0 .78.176 1.101.4z" fill="#3A2238"/><path fill-rule="evenodd" clip-rule="evenodd" d="M170.123 231.37c.072-.365.145-.737.162-1.103.032-.693-.582-1.267-1.229-1.267-.699 0-1.198.574-1.229 1.267l-.001.034c-.115.71-.272 1.418-.487 2.095-.211.66.237 1.385.86 1.558.67.189 1.299-.225 1.51-.884a14.854 14.854 0 00.414-1.7zm-2.284-1.165a1.21 1.21 0 00.01-.059l.009-.059-.019.118z" fill="#3A2238"/></svg>