<svg width="358" height="510" fill="none" xmlns="http://www.w3.org/2000/svg"><path fill-rule="evenodd" clip-rule="evenodd" d="M0 20C0 8.954 8.954 0 20 0h327s-51 152-10 272 0 238 0 238H20c-11.046 0-20-8.954-20-20V20z" fill="#2D415E"/><mask id="a" maskUnits="userSpaceOnUse" x="0" y="0" width="356" height="510"><path fill-rule="evenodd" clip-rule="evenodd" d="M0 20C0 8.954 8.954 0 20 0h327s-51 152-10 272 0 238 0 238H20c-11.046 0-20-8.954-20-20V20z" fill="#fff"/></mask><g mask="url(#a)" fill-rule="evenodd" clip-rule="evenodd"><path opacity=".031" d="M81.44 619c95.374 0 172.69-77.231 172.69-172.5S176.814 274 81.44 274c-95.373 0-172.688 77.231-172.688 172.5S-13.933 619 81.44 619z" fill="url(#paint0_linear)"/><path opacity=".031" d="M308.5 597C440.772 597 548 489.772 548 357.5S440.772 118 308.5 118 69 225.228 69 357.5 176.228 597 308.5 597z" fill="url(#paint1_linear)"/></g><defs><linearGradient id="paint0_linear" x1="-91.248" y1="274" x2="-91.248" y2="619" gradientUnits="userSpaceOnUse"><stop stop-color="#fff"/><stop offset="1" stop-color="#fff" stop-opacity=".01"/></linearGradient><linearGradient id="paint1_linear" x1="69" y1="118" x2="69" y2="597" gradientUnits="userSpaceOnUse"><stop stop-color="#fff"/><stop offset="1" stop-color="#fff" stop-opacity=".01"/></linearGradient></defs></svg>