<svg width="24" height="24" fill="none" xmlns="http://www.w3.org/2000/svg"><path d="M20.191 2.659v13.864a3.396 3.396 0 01-3.387 3.4H2.344v.138a3.48 3.48 0 003.479 3.478h13.96a3.46 3.46 0 003.455-3.471V6.108a3.455 3.455 0 00-3.047-3.45z" fill="#62A8FF"/><path d="M18.148 16.523V1.362c0-.744-.6-1.361-1.344-1.361h-1.201v5.4a.47.47 0 01-.804.332l-1.418-1.418a.469.469 0 00-.664 0L11.3 5.733a.455.455 0 01-.503.102.463.463 0 01-.282-.434V0h-8.87C.898 0 .3.618.3 1.361v15.162c0 .743.598 1.357 1.342 1.357h15.161a1.353 1.353 0 001.344-1.357z" fill="#62A8FF"/></svg>