<svg width="31" height="18" fill="none" xmlns="http://www.w3.org/2000/svg"><path fill-rule="evenodd" clip-rule="evenodd" d="M3.355 0h13.833c1.852.002 3.353 1.516 3.355 3.384v11.232c-.002 1.868-1.503 3.382-3.355 3.384H3.355C1.503 17.998.002 16.484 0 14.616V3.384C.002 1.516 1.503.002 3.355 0zm26.633 1.767a.667.667 0 01.674-.005c.209.12.338.345.338.588v14.31a.677.677 0 01-.376.608.667.667 0 01-.706-.074l-7.42-5.81a.68.68 0 01-.259-.534V6.768c0-.24.126-.46.33-.582l7.419-4.419z" fill="#499AFF" fill-opacity=".85"/></svg>