<svg width="29" height="22" viewBox="0 0 29 22" fill="none" xmlns="http://www.w3.org/2000/svg">
<path id="Combined Shape" fill-rule="evenodd" clip-rule="evenodd" d="M25.4083 1.03003V16.4752C25.4083 17.0415 24.9457 17.5034 24.3771 17.5048C21.9795 17.5105 17.9628 18.0102 15.1917 20.9101V4.74648C15.1917 4.55448 15.2407 4.37412 15.3332 4.22487C17.6077 0.562211 21.9782 0.00571806 24.381 0H24.3836C24.6555 0 24.9118 0.106123 25.1051 0.298987C25.3006 0.493982 25.4083 0.753621 25.4083 1.03003ZM4.40068 9.69163e-05H4.4031C6.80604 0.00571806 11.1766 0.562211 13.4509 4.22487C13.5435 4.37412 13.5925 4.55448 13.5925 4.74648V20.9102C10.8215 18.0103 6.80469 17.5106 4.40717 17.5049C3.83847 17.5035 3.37589 17.0416 3.37589 16.4752V1.03012C3.37589 0.753718 3.48356 0.494079 3.67904 0.299084C3.87239 0.10622 4.12844 9.69163e-05 4.40068 9.69163e-05ZM27.7542 3.56196H27.0074V16.4752C27.0074 17.9213 25.8292 19.1005 24.3808 19.104C22.3472 19.1089 18.9941 19.5065 16.6194 21.7541C20.7265 20.7485 25.0562 21.4022 27.5236 21.9645C27.8317 22.0347 28.1501 21.9622 28.397 21.7655C28.6429 21.5692 28.784 21.2758 28.784 20.961V4.5918C28.7841 4.02396 28.322 3.56196 27.7542 3.56196ZM1.77667 3.56196V16.4752C1.77667 17.9213 2.95498 19.1005 4.4032 19.1039C6.43679 19.1088 9.7899 19.5063 12.1645 21.7538C8.05762 20.7482 3.72789 21.4018 1.2604 21.9642C0.951815 22.0346 0.633736 21.9618 0.387084 21.7652C0.14111 21.5689 0 21.2756 0 20.9607V4.5918C0 4.02396 0.462097 3.56196 1.02983 3.56196H1.77667Z" fill="#62A8FF"/>
</svg>
