<svg width="24" height="24" viewBox="0 0 24 24" fill="none" xmlns="http://www.w3.org/2000/svg">
<path fill-rule="evenodd" clip-rule="evenodd" d="M23.8956 10.0635V0.744137C23.8956 0.334491 23.5611 0 23.1515 0H13.8322C13.4226 0 13.088 0.334491 13.0881 0.744137V10.0635C13.0881 10.4732 13.4226 10.8077 13.8322 10.8077H23.1515C23.5611 10.8077 23.8956 10.4732 23.8956 10.0635ZM21.6085 23.1515V13.8117C21.6085 13.484 21.39 13.1973 21.0896 13.1087C21.0213 13.0812 20.9461 13.0677 20.8642 13.0677H11.545C11.1353 13.0677 10.8077 12.7332 10.8077 12.3235L10.8281 3.03154C10.8281 2.94967 10.8144 2.87451 10.7871 2.80622C10.6984 2.50574 10.4116 2.28727 10.084 2.28727H0.744137C0.334491 2.28727 0 2.62176 0 3.03141V23.1515C0 23.5611 0.334491 23.8956 0.744137 23.8956H20.8644C21.2739 23.8956 21.6085 23.5611 21.6085 23.1515Z" fill="#62A8FF"/>
</svg>
