<svg width="30" height="16" fill="none" xmlns="http://www.w3.org/2000/svg"><path fill-rule="evenodd" clip-rule="evenodd" d="M29.318 7.211C29.054 6.917 22.712 0 14.769 0S.484 6.917.221 7.211a.865.865 0 000 1.155c.263.294 6.605 7.21 14.548 7.21s14.285-6.916 14.549-7.21a.866.866 0 000-1.155zm-14.549 6.635a6.065 6.065 0 01-6.057-6.058 6.065 6.065 0 016.057-6.057 6.065 6.065 0 016.058 6.057 6.065 6.065 0 01-6.058 6.058zm1.955-9.896a2.588 2.588 0 00-1.09 2.108c0 1.703 1.646 3.02 3.389 2.46-.35 2.038-2.118 3.597-4.254 3.597a4.332 4.332 0 01-4.327-4.327 4.332 4.332 0 014.327-4.326c.707 0 1.365.186 1.955.488z" fill="#62A8FF"/></svg>