<svg width="24" height="24" fill="none" xmlns="http://www.w3.org/2000/svg"><path d="M19.732 8.432l.002.052c0 5.428-4.73 9.844-10.547 9.844H6.196C7.447 21.642 10.83 24 14.812 24h8.485a.703.703 0 00.478-1.219l-1.923-1.784A8.112 8.112 0 0024 15.516c0-2.914-1.691-5.556-4.268-7.084z" fill="#62A8FF"/><path fill-rule="evenodd" clip-rule="evenodd" d="M.049 16.476a.703.703 0 01.176-.773L2.15 13.92C.757 12.4 0 10.495 0 8.484 0 3.832 4.147 0 9.188 0c5.04 0 9.14 3.832 9.14 8.484 0 4.653-4.1 8.438-9.14 8.438H.703a.703.703 0 01-.654-.447zm14.06-11.507a.703.703 0 00-.703-.703H4.97a.703.703 0 100 1.406h8.437a.703.703 0 00.703-.703zm-.703 2.11a.703.703 0 110 1.405H4.97a.703.703 0 110-1.406h8.437zm.703 3.515a.703.703 0 00-.703-.703H4.97a.703.703 0 100 1.406h8.437a.703.703 0 00.703-.703z" fill="#62A8FF"/></svg>