<svg width="29" height="16" fill="none" xmlns="http://www.w3.org/2000/svg"><path fill-rule="evenodd" clip-rule="evenodd" d="M27.608 16A1.39 1.39 0 0029 14.62V1.38A1.39 1.39 0 0027.608 0h-5.754a1.39 1.39 0 00-1.392 1.38v13.24c0 .76.627 1.38 1.392 1.38h5.754zm-8.84-1.38a1.39 1.39 0 01-1.39 1.38h-5.754a1.39 1.39 0 01-1.392-1.38V5.058a1.39 1.39 0 011.392-1.379h5.754c.765 0 1.392.62 1.392 1.38v9.563zm-10.23 0A1.39 1.39 0 017.146 16H1.392A1.39 1.39 0 010 14.62V8.369c0-.759.626-1.38 1.392-1.38h5.754a1.39 1.39 0 011.392 1.38v6.253z" fill="#AEBBCD"/></svg>