<svg width="32" height="18" fill="none" xmlns="http://www.w3.org/2000/svg"><path fill-rule="evenodd" clip-rule="evenodd" d="M30.169 17.645c.837 0 1.521-.684 1.521-1.521V1.52c0-.835-.684-1.52-1.52-1.52h-6.287c-.837 0-1.521.685-1.521 1.521v14.603c0 .837.684 1.521 1.52 1.521h6.288zm-9.66-1.521c0 .837-.684 1.521-1.52 1.521H12.7a1.526 1.526 0 01-1.52-1.521V5.577c0-.836.684-1.52 1.52-1.52h6.288c.836 0 1.52.684 1.52 1.52v10.547zm-11.18 0c0 .837-.684 1.521-1.52 1.521H1.52A1.526 1.526 0 010 16.124V9.228c0-.836.685-1.521 1.521-1.521h6.287c.837 0 1.522.685 1.522 1.521v6.896z" fill="#62A8FF"/></svg>