<svg width="23" height="27" fill="none" xmlns="http://www.w3.org/2000/svg"><path fill-rule="evenodd" clip-rule="evenodd" d="M11.506 0a2.971 2.971 0 00-2.968 2.968 2.97 2.97 0 002.968 2.967 2.971 2.971 0 002.968-2.967A2.971 2.971 0 0011.506 0zm11.49 16.345v-1.653h-7.618a3.872 3.872 0 01-7.744 0H.017v1.653l3.308.35c.206.846.54 1.642.98 2.366l-2.092 2.587 2.337 2.337 2.588-2.092a8.37 8.37 0 002.365.98l.35 3.309h3.306l.35-3.308a8.37 8.37 0 002.365-.98l2.588 2.091 2.337-2.337-2.092-2.587c.44-.724.774-1.52.98-2.366l3.308-.35zM5.707 9.394a2.641 2.641 0 012.638-2.638h6.32a2.641 2.641 0 012.638 2.638v3.764H5.708V9.394zM5.21 1.37a2.661 2.661 0 00-2.658 2.658 2.661 2.661 0 002.623 2.658A4.173 4.173 0 017.545 5.3c.206-.378.324-.81.324-1.27A2.661 2.661 0 005.21 1.37zM.017 9.786A2.366 2.366 0 012.38 7.423h2.29a4.146 4.146 0 00-.496 1.97v3.765H.017V9.786zm17.785-8.415A2.662 2.662 0 0015.467 5.3c.941.183 1.77.685 2.37 1.387a2.661 2.661 0 002.623-2.658 2.661 2.661 0 00-2.658-2.658zm.54 6.052h2.29a2.366 2.366 0 012.363 2.363v3.372h-4.157V9.394c0-.713-.18-1.384-.496-1.971z" fill="#62A8FF"/></svg>