<svg width="172" height="83" fill="none" xmlns="http://www.w3.org/2000/svg"><path d="M16.72 39.48c-2.853 0-5.44-.613-7.76-1.84-2.293-1.253-4.107-2.973-5.44-5.16-1.307-2.213-1.96-4.707-1.96-7.48 0-2.773.653-5.253 1.96-7.44a13.872 13.872 0 015.44-5.16c2.32-1.253 4.92-1.88 7.8-1.88 2.427 0 4.613.427 6.56 1.28 1.973.853 3.627 2.08 4.96 3.68l-4.16 3.84c-1.893-2.187-4.24-3.28-7.04-3.28-1.733 0-3.28.387-4.64 1.16a8.103 8.103 0 00-3.2 3.16c-.747 1.36-1.12 2.907-1.12 4.64 0 1.733.373 3.28 1.12 4.64a8.383 8.383 0 003.2 3.2c1.36.747 2.907 1.12 4.64 1.12 2.8 0 5.147-1.107 7.04-3.32l4.16 3.84c-1.333 1.627-2.987 2.867-4.96 3.72-1.973.853-4.173 1.28-6.6 1.28zm32.558 0c-2.907 0-5.534-.627-7.88-1.88-2.32-1.253-4.147-2.973-5.48-5.16-1.307-2.213-1.96-4.693-1.96-7.44 0-2.747.653-5.213 1.96-7.4 1.333-2.213 3.16-3.947 5.48-5.2 2.346-1.253 4.973-1.88 7.88-1.88 2.906 0 5.52.627 7.84 1.88 2.32 1.253 4.146 2.987 5.48 5.2 1.333 2.187 2 4.653 2 7.4 0 2.747-.667 5.227-2 7.44-1.334 2.187-3.16 3.907-5.48 5.16-2.32 1.253-4.934 1.88-7.84 1.88zm0-5.52c1.653 0 3.146-.373 4.48-1.12a8.181 8.181 0 003.12-3.2c.773-1.36 1.16-2.907 1.16-4.64 0-1.733-.387-3.28-1.16-4.64a7.908 7.908 0 00-3.12-3.16c-1.334-.773-2.827-1.16-4.48-1.16-1.654 0-3.147.387-4.48 1.16-1.334.747-2.387 1.8-3.16 3.16-.747 1.36-1.12 2.907-1.12 4.64 0 1.733.373 3.28 1.12 4.64a8.468 8.468 0 003.16 3.2c1.333.747 2.826 1.12 4.48 1.12zM97.853 11l-11.92 22.16c-1.147 2.133-2.534 3.747-4.16 4.84-1.6 1.093-3.347 1.64-5.24 1.64-1.467 0-2.987-.32-4.56-.96l1.56-4.92c1.12.347 2.053.52 2.8.52.8 0 1.52-.187 2.16-.56.64-.4 1.226-1.013 1.76-1.84l.24-.32L69.454 11h6.92l7.44 15.04L91.494 11h6.36zm20.088 28.48c-2.907 0-5.534-.627-7.88-1.88-2.32-1.253-4.147-2.973-5.48-5.16-1.307-2.213-1.96-4.693-1.96-7.44 0-2.747.653-5.213 1.96-7.4 1.333-2.213 3.16-3.947 5.48-5.2 2.346-1.253 4.973-1.88 7.88-1.88 2.906 0 5.52.627 7.84 1.88 2.32 1.253 4.146 2.987 5.48 5.2 1.333 2.187 2 4.653 2 7.4 0 2.747-.667 5.227-2 7.44-1.334 2.187-3.16 3.907-5.48 5.16-2.32 1.253-4.934 1.88-7.84 1.88zm0-5.52c1.653 0 3.146-.373 4.48-1.12a8.185 8.185 0 003.12-3.2c.773-1.36 1.16-2.907 1.16-4.64 0-1.733-.387-3.28-1.16-4.64a7.911 7.911 0 00-3.12-3.16c-1.334-.773-2.827-1.16-4.48-1.16-1.654 0-3.147.387-4.48 1.16-1.334.747-2.387 1.8-3.16 3.16-.747 1.36-1.12 2.907-1.12 4.64 0 1.733.373 3.28 1.12 4.64a8.46 8.46 0 003.16 3.2c1.333.747 2.826 1.12 4.48 1.12zM167.773 11v28h-6.44V16.28h-12.64V39h-6.44V11h25.52z" fill="#776AEB"/><path d="M9.094 67.066c-.762 0-1.452-.169-2.068-.506a3.767 3.767 0 01-1.44-1.397 3.975 3.975 0 01-.518-2.013c0-.74.173-1.408.517-2.002a3.723 3.723 0 011.452-1.408c.616-.337 1.306-.506 2.068-.506.572 0 1.1.095 1.584.286.484.19.895.47 1.232.836l-.517.517c-.601-.609-1.36-.913-2.277-.913a3.35 3.35 0 00-1.66.418c-.5.279-.892.66-1.178 1.144a3.203 3.203 0 00-.418 1.628c0 .601.14 1.144.418 1.628.286.484.679.865 1.177 1.144a3.346 3.346 0 001.661.418c.924 0 1.683-.308 2.277-.924l.517.517a3.377 3.377 0 01-1.243.847 4.284 4.284 0 01-1.584.286zm4.321-5.852h.781v4.598l3.861-4.598h.693V67h-.78v-4.598L14.12 67h-.705v-5.786zm9.993 5.841a3.15 3.15 0 01-1.54-.374 2.74 2.74 0 01-1.056-1.045 3.056 3.056 0 01-.385-1.529c0-.565.129-1.07.385-1.518a2.729 2.729 0 011.056-1.045 3.15 3.15 0 011.54-.374c.5 0 .943.099 1.331.297.396.19.708.473.935.847l-.583.396a1.782 1.782 0 00-.726-.638 2.11 2.11 0 00-.957-.22 2.26 2.26 0 00-1.133.286 1.98 1.98 0 00-.78.792 2.468 2.468 0 00-.276 1.177c0 .447.092.843.275 1.188.191.337.451.601.781.792a2.34 2.34 0 001.133.275c.345 0 .664-.07.957-.209a1.78 1.78 0 00.726-.638l.583.396c-.227.374-.539.66-.935.858-.396.19-.84.286-1.33.286zm7.741-5.148H28.96V67h-.78v-5.093h-2.19v-.693h5.16v.693zm5.92 2.442h-4.84c.045.601.276 1.089.694 1.463.418.367.946.55 1.584.55.36 0 .69-.062.99-.187.3-.132.56-.323.78-.572l.44.506a2.456 2.456 0 01-.967.704 3.215 3.215 0 01-1.265.242c-.594 0-1.122-.125-1.584-.374a2.786 2.786 0 01-1.067-1.056 2.995 2.995 0 01-.385-1.518c0-.565.12-1.07.363-1.518a2.72 2.72 0 011.012-1.045 2.85 2.85 0 011.452-.374c.535 0 1.016.125 1.44.374.426.25.76.598 1.002 1.045.242.44.363.946.363 1.518l-.011.242zm-2.793-2.508c-.557 0-1.027.18-1.408.539-.374.352-.587.814-.638 1.386h4.103c-.051-.572-.268-1.034-.65-1.386-.373-.36-.842-.539-1.407-.539zm11.002-.627V67h-.715v-4.576l-2.343 3.872h-.352l-2.343-3.883V67h-.715v-5.786h.792l2.453 4.169 2.497-4.169h.726zm7.14 0l-2.894 6.479c-.235.543-.506.928-.814 1.155-.308.227-.678.341-1.11.341-.28 0-.54-.044-.782-.132a1.692 1.692 0 01-.627-.396l.363-.583c.293.293.645.44 1.056.44.264 0 .488-.073.671-.22.19-.147.367-.396.528-.748l.253-.561-2.585-5.775h.814l2.178 4.917 2.178-4.917h.77zm6.482 5.841c-.557 0-1.06-.125-1.507-.374a2.807 2.807 0 01-1.056-1.056 2.994 2.994 0 01-.385-1.518c0-.565.128-1.07.385-1.518a2.727 2.727 0 011.056-1.045c.447-.25.95-.374 1.507-.374.557 0 1.06.125 1.507.374.447.25.796.598 1.045 1.045.257.447.385.953.385 1.518 0 .565-.129 1.07-.385 1.518-.25.447-.598.8-1.045 1.056-.447.25-.95.374-1.507.374zm0-.693c.41 0 .777-.092 1.1-.275.33-.19.587-.458.77-.803.183-.345.275-.737.275-1.177 0-.44-.092-.832-.275-1.177a1.91 1.91 0 00-.77-.792 2.12 2.12 0 00-1.1-.286c-.41 0-.781.095-1.111.286-.323.183-.58.447-.77.792a2.467 2.467 0 00-.275 1.177c0 .44.092.832.275 1.177.19.345.447.612.77.803.33.183.7.275 1.11.275zm4.606-5.148h.781v2.563h3.641v-2.563h.781V67h-.781v-2.552h-3.641V67h-.781v-5.786zm12.153 0V67h-.781v-5.093h-2.772l-.077 1.43c-.059 1.203-.198 2.127-.418 2.772-.22.645-.612.968-1.177.968a2.27 2.27 0 01-.561-.088l.055-.671c.132.03.224.044.275.044.3 0 .528-.14.682-.418.154-.279.256-.623.308-1.034.051-.41.095-.953.132-1.628l.099-2.068h4.235zm4.211-.044c.755 0 1.335.19 1.738.572.403.374.605.931.605 1.672V67h-.748v-.902c-.176.3-.436.535-.78.704-.338.169-.742.253-1.21.253-.646 0-1.16-.154-1.54-.462-.382-.308-.573-.715-.573-1.221 0-.491.176-.887.528-1.188.36-.3.928-.451 1.705-.451h1.837v-.352c0-.499-.14-.876-.418-1.133-.279-.264-.686-.396-1.22-.396a3.02 3.02 0 00-1.057.187 2.585 2.585 0 00-.869.495l-.352-.583a3.05 3.05 0 011.056-.572 3.99 3.99 0 011.298-.209zm-.275 5.269c.44 0 .818-.099 1.133-.297a1.84 1.84 0 00.704-.88v-.946h-1.815c-.99 0-1.485.345-1.485 1.034a.96.96 0 00.385.803c.257.19.616.286 1.078.286zm4.697-5.225h.781v4.598l3.861-4.598h.693V67h-.78v-4.598L84.996 67h-.705v-5.786zm2.63-.836c-.5 0-.895-.125-1.189-.374-.293-.25-.444-.601-.45-1.056h.56c.007.286.11.517.308.693.198.169.455.253.77.253.316 0 .572-.084.77-.253a.901.901 0 00.32-.693h.56c-.007.455-.161.807-.462 1.056-.293.25-.69.374-1.188.374zm4.943.836h.781v2.563h3.641v-2.563h.781V67h-.78v-2.552h-3.642V67h-.78v-5.786zm15.219 0l-2.893 6.479c-.235.543-.506.928-.814 1.155-.308.227-.678.341-1.111.341-.279 0-.539-.044-.781-.132a1.692 1.692 0 01-.627-.396l.363-.583c.293.293.645.44 1.056.44.264 0 .488-.073.671-.22.191-.147.367-.396.528-.748l.253-.561-2.585-5.775h.814l2.178 4.917 2.178-4.917h.77zm6.409 0V67h-.781v-5.093h-3.63V67h-.781v-5.786h5.192zm5.201-.044a2.94 2.94 0 011.474.374c.44.242.785.587 1.034 1.034.249.447.374.957.374 1.529 0 .58-.125 1.093-.374 1.54a2.67 2.67 0 01-1.034 1.045 2.968 2.968 0 01-1.474.363c-.469 0-.895-.095-1.276-.286a2.463 2.463 0 01-.924-.858v3.223h-.781v-7.92h.748v1.144c.235-.381.543-.675.924-.88a2.76 2.76 0 011.309-.308zm-.055 5.192c.403 0 .77-.092 1.1-.275.33-.19.587-.458.77-.803.191-.345.286-.737.286-1.177 0-.44-.095-.829-.286-1.166a1.98 1.98 0 00-.77-.803 2.16 2.16 0 00-1.1-.286c-.411 0-.781.095-1.111.286-.323.19-.579.458-.77.803a2.407 2.407 0 00-.275 1.166c0 .44.092.832.275 1.177.191.345.447.612.77.803.33.183.7.275 1.111.275zm6.574-5.192c.755 0 1.335.19 1.738.572.403.374.605.931.605 1.672V67h-.748v-.902a1.79 1.79 0 01-.781.704c-.337.169-.741.253-1.21.253-.645 0-1.159-.154-1.54-.462-.381-.308-.572-.715-.572-1.221 0-.491.176-.887.528-1.188.359-.3.928-.451 1.705-.451h1.837v-.352c0-.499-.139-.876-.418-1.133-.279-.264-.686-.396-1.221-.396-.367 0-.719.062-1.056.187a2.589 2.589 0 00-.869.495l-.352-.583c.293-.25.645-.44 1.056-.572.411-.14.843-.209 1.298-.209zm-.275 5.269c.44 0 .818-.099 1.133-.297a1.84 1.84 0 00.704-.88v-.946h-1.815c-.99 0-1.485.345-1.485 1.034a.96.96 0 00.385.803c.257.19.616.286 1.078.286zm8.382-2.431c.785.183 1.177.656 1.177 1.419 0 .506-.187.895-.561 1.166-.374.271-.931.407-1.672.407h-2.629v-5.786h2.552c.66 0 1.177.128 1.551.385.374.257.561.623.561 1.1 0 .315-.088.587-.264.814-.169.22-.407.385-.715.495zm-2.926-.22h1.738c.447 0 .788-.084 1.023-.253.242-.169.363-.414.363-.737s-.121-.565-.363-.726c-.235-.161-.576-.242-1.023-.242h-1.738v1.958zm1.837 2.596c.499 0 .873-.08 1.122-.242.249-.161.374-.414.374-.759 0-.345-.114-.598-.341-.759-.227-.169-.587-.253-1.078-.253h-1.914v2.013h1.837zm8.826-5.17V67h-.781v-5.093h-2.772l-.077 1.43c-.058 1.203-.198 2.127-.418 2.772-.22.645-.612.968-1.177.968a2.27 2.27 0 01-.561-.088l.055-.671c.132.03.224.044.275.044.301 0 .528-.14.682-.418.154-.279.257-.623.308-1.034.052-.41.096-.953.132-1.628l.099-2.068h4.235zm2.221 0h.781V67h-.781v-5.786zm.396-1.265a.552.552 0 01-.407-.165.54.54 0 01-.165-.396c0-.147.055-.275.165-.385a.552.552 0 01.407-.165c.161 0 .297.055.407.165.11.103.165.227.165.374a.553.553 0 01-.165.407.554.554 0 01-.407.165zm2.611 1.265h.781v2.563h3.641v-2.563h.781V67h-.781v-2.552h-3.641V67h-.781v-5.786zm7.423 0h.781v2.563h3.641v-2.563h.781V67h-.781v-2.552h-3.641V67h-.781v-5.786zm11.867 0V67h-.715v-1.914h-2.035L161.483 67h-.847l1.441-2.024c-.447-.125-.792-.337-1.034-.638-.242-.3-.363-.682-.363-1.144 0-.645.22-1.137.66-1.474.44-.337 1.041-.506 1.804-.506h2.431zm-4.103 2.002c0 .858.546 1.287 1.639 1.287h1.749v-2.596h-1.694c-1.129 0-1.694.436-1.694 1.309zM44.21 80.055c-.557 0-1.06-.125-1.507-.374a2.809 2.809 0 01-1.056-1.056 2.994 2.994 0 01-.385-1.518c0-.565.128-1.07.385-1.518a2.729 2.729 0 011.056-1.045c.447-.25.95-.374 1.507-.374.557 0 1.06.125 1.507.374.447.25.796.598 1.045 1.045.257.447.385.953.385 1.518 0 .565-.128 1.07-.385 1.518-.25.447-.598.8-1.045 1.056-.447.25-.95.374-1.507.374zm0-.693c.41 0 .777-.092 1.1-.275.33-.19.587-.458.77-.803.183-.345.275-.737.275-1.177 0-.44-.092-.832-.275-1.177a1.909 1.909 0 00-.77-.792 2.12 2.12 0 00-1.1-.286c-.41 0-.781.095-1.111.286-.323.183-.58.447-.77.792a2.468 2.468 0 00-.275 1.177c0 .44.092.832.275 1.177.19.345.447.612.77.803.33.183.7.275 1.11.275zm8.02.638l-1.837-2.42L48.546 80h-.88l2.288-2.97-2.178-2.816h.88l1.738 2.266 1.738-2.266h.858l-2.178 2.816 2.31 2.97h-.891zm4.354.055c-.557 0-1.06-.125-1.507-.374a2.809 2.809 0 01-1.056-1.056 2.994 2.994 0 01-.385-1.518c0-.565.128-1.07.385-1.518a2.729 2.729 0 011.056-1.045c.447-.25.95-.374 1.507-.374.557 0 1.06.125 1.507.374.447.25.796.598 1.045 1.045.257.447.385.953.385 1.518 0 .565-.128 1.07-.385 1.518-.25.447-.598.8-1.045 1.056-.447.25-.95.374-1.507.374zm0-.693c.41 0 .777-.092 1.1-.275.33-.19.587-.458.77-.803.183-.345.275-.737.275-1.177 0-.44-.092-.832-.275-1.177a1.909 1.909 0 00-.77-.792 2.12 2.12 0 00-1.1-.286c-.41 0-.781.095-1.111.286-.323.183-.58.447-.77.792a2.468 2.468 0 00-.275 1.177c0 .44.092.832.275 1.177.19.345.447.612.77.803.33.183.7.275 1.11.275zm7.587-5.192a2.94 2.94 0 011.474.374c.44.242.785.587 1.034 1.034.25.447.374.957.374 1.529 0 .58-.125 1.093-.374 1.54-.25.447-.594.796-1.034 1.045a2.968 2.968 0 01-1.474.363c-.47 0-.895-.095-1.276-.286a2.463 2.463 0 01-.924-.858v3.223h-.78v-7.92h.747v1.144c.235-.381.543-.675.924-.88a2.759 2.759 0 011.31-.308zm-.055 5.192c.403 0 .77-.092 1.1-.275.33-.19.587-.458.77-.803.19-.345.286-.737.286-1.177 0-.44-.095-.829-.286-1.166a1.982 1.982 0 00-.77-.803 2.159 2.159 0 00-1.1-.286c-.41 0-.78.095-1.11.286a2.08 2.08 0 00-.77.803 2.402 2.402 0 00-.276 1.166c0 .44.092.832.275 1.177.19.345.447.612.77.803.33.183.7.275 1.111.275zm7.002.693c-.557 0-1.06-.125-1.507-.374a2.809 2.809 0 01-1.056-1.056 2.994 2.994 0 01-.385-1.518c0-.565.128-1.07.385-1.518a2.729 2.729 0 011.056-1.045c.447-.25.95-.374 1.507-.374.557 0 1.06.125 1.507.374.447.25.796.598 1.045 1.045.257.447.385.953.385 1.518 0 .565-.128 1.07-.385 1.518-.25.447-.598.8-1.045 1.056-.447.25-.95.374-1.507.374zm0-.693c.41 0 .777-.092 1.1-.275.33-.19.587-.458.77-.803.183-.345.275-.737.275-1.177 0-.44-.092-.832-.275-1.177a1.909 1.909 0 00-.77-.792 2.12 2.12 0 00-1.1-.286c-.41 0-.78.095-1.11.286-.324.183-.58.447-.77.792a2.468 2.468 0 00-.276 1.177c0 .44.092.832.275 1.177.19.345.447.612.77.803.33.183.7.275 1.111.275zm4.606-5.148h.781v2.563h3.641v-2.563h.781V80h-.78v-2.552h-3.642V80h-.78v-5.786zm9.81 5.841c-.557 0-1.06-.125-1.507-.374a2.809 2.809 0 01-1.056-1.056 2.994 2.994 0 01-.385-1.518c0-.565.128-1.07.385-1.518a2.729 2.729 0 011.056-1.045c.447-.25.95-.374 1.507-.374.557 0 1.06.125 1.507.374.447.25.796.598 1.045 1.045.257.447.385.953.385 1.518 0 .565-.128 1.07-.385 1.518-.25.447-.598.8-1.045 1.056-.447.25-.95.374-1.507.374zm0-.693c.41 0 .777-.092 1.1-.275.33-.19.587-.458.77-.803.183-.345.275-.737.275-1.177 0-.44-.092-.832-.275-1.177a1.909 1.909 0 00-.77-.792 2.12 2.12 0 00-1.1-.286c-.41 0-.78.095-1.11.286-.324.183-.58.447-.77.792a2.468 2.468 0 00-.276 1.177c0 .44.092.832.275 1.177.19.345.447.612.77.803.33.183.7.275 1.111.275zm9.578-5.192c.543 0 1.03.125 1.463.374.44.25.785.598 1.034 1.045.25.447.374.953.374 1.518 0 .565-.124 1.07-.374 1.518-.25.447-.594.8-1.034 1.056-.432.25-.92.374-1.463.374-.513 0-.979-.11-1.397-.33a2.846 2.846 0 01-1.023-.935 2.925 2.925 0 01-.45-1.364h-1.32V80h-.782v-5.786h.781v2.497h1.331a2.94 2.94 0 01.473-1.32c.264-.389.602-.69 1.012-.902.41-.213.87-.319 1.375-.319zm0 5.203a2.021 2.021 0 001.826-1.089 2.46 2.46 0 00.275-1.177c0-.44-.091-.832-.275-1.177a1.93 1.93 0 00-.759-.792 2.021 2.021 0 00-1.067-.286c-.396 0-.755.095-1.078.286a1.95 1.95 0 00-.748.792 2.467 2.467 0 00-.275 1.177c0 .44.092.832.275 1.177.184.345.433.612.748.803.323.19.682.286 1.078.286zm12.617-5.159V80h-.781v-5.093h-3.63V80h-.781v-5.786h5.192zm5.201-.044a2.94 2.94 0 011.474.374c.44.242.785.587 1.034 1.034.249.447.374.957.374 1.529 0 .58-.125 1.093-.374 1.54a2.67 2.67 0 01-1.034 1.045 2.968 2.968 0 01-1.474.363c-.469 0-.895-.095-1.276-.286a2.463 2.463 0 01-.924-.858v3.223h-.781v-7.92h.748v1.144c.235-.381.543-.675.924-.88a2.76 2.76 0 011.309-.308zm-.055 5.192c.403 0 .77-.092 1.1-.275.33-.19.587-.458.77-.803.191-.345.286-.737.286-1.177 0-.44-.095-.829-.286-1.166a1.98 1.98 0 00-.77-.803 2.16 2.16 0 00-1.1-.286c-.411 0-.781.095-1.111.286-.323.19-.579.458-.77.803a2.407 2.407 0 00-.275 1.166c0 .44.092.832.275 1.177.191.345.447.612.77.803.33.183.7.275 1.111.275zm6.574-5.192c.755 0 1.334.19 1.738.572.403.374.605.931.605 1.672V80h-.748v-.902c-.176.3-.437.535-.781.704-.338.169-.741.253-1.21.253-.646 0-1.159-.154-1.54-.462-.382-.308-.572-.715-.572-1.221 0-.491.176-.887.528-1.188.359-.3.927-.451 1.705-.451h1.837v-.352c0-.499-.14-.876-.418-1.133-.279-.264-.686-.396-1.221-.396-.367 0-.719.062-1.056.187a2.58 2.58 0 00-.869.495l-.352-.583c.293-.25.645-.44 1.056-.572a3.99 3.99 0 011.298-.209zm-.275 5.269c.44 0 .817-.099 1.133-.297a1.84 1.84 0 00.704-.88v-.946h-1.815c-.99 0-1.485.345-1.485 1.034a.96.96 0 00.385.803c.256.19.616.286 1.078.286zm10.725-.121v2.134h-.737V80h-5.291v-5.786h.781v5.104h3.531v-5.104h.781v5.104h.935zm1.491-5.104h.781V80h-.781v-5.786zm.396-1.265a.554.554 0 01-.407-.165.54.54 0 01-.165-.396c0-.147.055-.275.165-.385a.554.554 0 01.407-.165c.162 0 .297.055.407.165.11.103.165.227.165.374a.553.553 0 01-.165.407.552.552 0 01-.407.165z" fill="#2E2E2E"/><path stroke="#776AEB" d="M3 49.5h165"/></svg>