<svg width="522" height="169" fill="none" xmlns="http://www.w3.org/2000/svg"><path d="M41.8 98.2c-7.133 0-13.6-1.533-19.4-4.6-5.733-3.133-10.267-7.433-13.6-12.9C5.533 75.167 3.9 68.933 3.9 62s1.633-13.133 4.9-18.6c3.333-5.533 7.867-9.833 13.6-12.9 5.8-3.133 12.3-4.7 19.5-4.7 6.067 0 11.533 1.067 16.4 3.2 4.933 2.133 9.067 5.2 12.4 9.2l-10.4 9.6c-4.733-5.467-10.6-8.2-17.6-8.2-4.333 0-8.2.967-11.6 2.9-3.4 1.867-6.067 4.5-8 7.9-1.867 3.4-2.8 7.267-2.8 11.6 0 4.333.933 8.2 2.8 11.6 1.933 3.4 4.6 6.067 8 8 3.4 1.867 7.267 2.8 11.6 2.8 7 0 12.867-2.767 17.6-8.3l10.4 9.6c-3.333 4.067-7.467 7.167-12.4 9.3-4.933 2.133-10.433 3.2-16.5 3.2zm71.394 0c-7.267 0-13.834-1.567-19.7-4.7-5.8-3.133-10.367-7.433-13.7-12.9-3.267-5.533-4.9-11.733-4.9-18.6 0-6.867 1.633-13.033 4.9-18.5 3.333-5.533 7.9-9.867 13.7-13 5.866-3.133 12.433-4.7 19.7-4.7 7.266 0 13.8 1.567 19.6 4.7 5.8 3.133 10.366 7.467 13.7 13 3.333 5.467 5 11.633 5 18.5 0 6.867-1.667 13.067-5 18.6-3.334 5.467-7.9 9.767-13.7 12.9-5.8 3.133-12.334 4.7-19.6 4.7zm0-13.8c4.133 0 7.866-.933 11.2-2.8 3.333-1.933 5.933-4.6 7.8-8 1.933-3.4 2.9-7.267 2.9-11.6 0-4.333-.967-8.2-2.9-11.6-1.867-3.4-4.467-6.033-7.8-7.9-3.334-1.933-7.067-2.9-11.2-2.9-4.134 0-7.867.967-11.2 2.9-3.334 1.867-5.967 4.5-7.9 7.9-1.867 3.4-2.8 7.267-2.8 11.6 0 4.333.933 8.2 2.8 11.6 1.933 3.4 4.566 6.067 7.9 8 3.333 1.867 7.066 2.8 11.2 2.8zM224.634 27l-29.8 55.4c-2.866 5.333-6.333 9.367-10.4 12.1-4 2.733-8.366 4.1-13.1 4.1-3.666 0-7.466-.8-11.4-2.4l3.9-12.3c2.8.867 5.134 1.3 7 1.3 2 0 3.8-.467 5.4-1.4 1.6-1 3.067-2.533 4.4-4.6l.6-.8-27.6-51.4h17.3l18.6 37.6 19.2-37.6h15.9zm39.92 71.2c-7.133 0-13.6-1.533-19.4-4.6-5.733-3.133-10.267-7.433-13.6-12.9-3.267-5.533-4.9-11.767-4.9-18.7s1.633-13.133 4.9-18.6c3.333-5.533 7.867-9.833 13.6-12.9 5.8-3.133 12.3-4.7 19.5-4.7 6.067 0 11.533 1.067 16.4 3.2 4.933 2.133 9.067 5.2 12.4 9.2l-10.4 9.6c-4.733-5.467-10.6-8.2-17.6-8.2-4.333 0-8.2.967-11.6 2.9-3.4 1.867-6.067 4.5-8 7.9-1.867 3.4-2.8 7.267-2.8 11.6 0 4.333.933 8.2 2.8 11.6 1.933 3.4 4.6 6.067 8 8 3.4 1.867 7.267 2.8 11.6 2.8 7 0 12.867-2.767 17.6-8.3l10.4 9.6c-3.333 4.067-7.467 7.167-12.4 9.3-4.933 2.133-10.433 3.2-16.5 3.2zm71.394 0c-7.267 0-13.834-1.567-19.7-4.7-5.8-3.133-10.367-7.433-13.7-12.9-3.267-5.533-4.9-11.733-4.9-18.6 0-6.867 1.633-13.033 4.9-18.5 3.333-5.533 7.9-9.867 13.7-13 5.866-3.133 12.433-4.7 19.7-4.7 7.266 0 13.8 1.567 19.6 4.7 5.8 3.133 10.366 7.467 13.7 13 3.333 5.467 5 11.633 5 18.5 0 6.867-1.667 13.067-5 18.6-3.334 5.467-7.9 9.767-13.7 12.9-5.8 3.133-12.334 4.7-19.6 4.7zm0-13.8c4.133 0 7.866-.933 11.2-2.8 3.333-1.933 5.933-4.6 7.8-8 1.933-3.4 2.9-7.267 2.9-11.6 0-4.333-.967-8.2-2.9-11.6-1.867-3.4-4.467-6.033-7.8-7.9-3.334-1.933-7.067-2.9-11.2-2.9-4.134 0-7.867.967-11.2 2.9-3.334 1.867-5.967 4.5-7.9 7.9-1.867 3.4-2.8 7.267-2.8 11.6 0 4.333.933 8.2 2.8 11.6 1.933 3.4 4.566 6.067 7.9 8 3.333 1.867 7.066 2.8 11.2 2.8zm103.303-44.2h-22.4V97h-16V40.2h-22.3V27h60.7v13.2zM513.223 27v70h-16.1V40.2h-31.6V97h-16.1V27h63.8z" fill="#776AEB"/><path d="M13.44 140.16c-1.4 0-2.667-.307-3.8-.92A6.96 6.96 0 017 136.68c-.64-1.093-.96-2.32-.96-3.68 0-1.36.32-2.58.96-3.66a6.733 6.733 0 012.66-2.56c1.133-.627 2.4-.94 3.8-.94 1.093 0 2.093.187 3 .56.907.36 1.68.9 2.32 1.62l-1.3 1.26c-1.053-1.107-2.367-1.66-3.94-1.66-1.04 0-1.98.233-2.82.7a5.127 5.127 0 00-1.98 1.94c-.467.813-.7 1.727-.7 2.74 0 1.013.233 1.933.7 2.76a5.175 5.175 0 001.98 1.92c.84.467 1.78.7 2.82.7 1.56 0 2.873-.56 3.94-1.68l1.3 1.26a6.201 6.201 0 01-2.34 1.64c-.907.373-1.907.56-3 .56zm7.775-10.76h1.92v7.72l6.5-7.72h1.74V140h-1.92v-7.72l-6.48 7.72h-1.76v-10.6zm18.507 10.72c-1.08 0-2.047-.233-2.9-.7a5.175 5.175 0 01-1.98-1.92c-.48-.827-.72-1.76-.72-2.8 0-1.04.24-1.967.72-2.78a4.982 4.982 0 011.98-1.92c.853-.467 1.82-.7 2.9-.7.96 0 1.813.193 2.56.58a4.12 4.12 0 011.76 1.68l-1.46.94a3.256 3.256 0 00-1.24-1.14 3.54 3.54 0 00-1.64-.38c-.693 0-1.32.153-1.88.46a3.35 3.35 0 00-1.3 1.32c-.306.56-.46 1.207-.46 1.94 0 .747.154 1.407.46 1.98.32.56.754.993 1.3 1.3.56.307 1.187.46 1.88.46.6 0 1.147-.127 1.64-.38a3.256 3.256 0 001.24-1.14l1.46.92c-.413.733-1 1.3-1.76 1.7-.746.387-1.6.58-2.56.58zm14.57-9.04h-3.88V140h-1.92v-8.92h-3.88v-1.68h9.68v1.68zm11.074 3.68c0 .147-.014.34-.04.58h-8.6c.12.933.526 1.687 1.22 2.26.706.56 1.58.84 2.62.84 1.266 0 2.286-.427 3.06-1.28l1.06 1.24c-.48.56-1.08.987-1.8 1.28-.707.293-1.5.44-2.38.44-1.12 0-2.114-.227-2.98-.68a5.055 5.055 0 01-2.02-1.94c-.467-.827-.7-1.76-.7-2.8 0-1.027.226-1.953.68-2.78a4.957 4.957 0 011.9-1.92c.813-.467 1.726-.7 2.74-.7 1.013 0 1.913.233 2.7.7.8.453 1.42 1.093 1.86 1.92.453.827.68 1.773.68 2.84zm-5.24-3.84c-.92 0-1.694.28-2.32.84-.614.56-.974 1.293-1.08 2.2h6.8c-.107-.893-.474-1.62-1.1-2.18-.614-.573-1.38-.86-2.3-.86zm20.438-1.52V140h-1.74v-7.74l-3.96 6.54h-.84l-3.92-6.56V140h-1.76v-10.6h1.98l4.16 7.16 4.28-7.16h1.8zm7.517-.1c1.467 0 2.587.36 3.36 1.08.787.72 1.18 1.793 1.18 3.22v6.4h-1.82v-1.4c-.32.493-.78.873-1.38 1.14-.586.253-1.286.38-2.1.38-1.186 0-2.14-.287-2.86-.86-.706-.573-1.06-1.327-1.06-2.26 0-.933.34-1.68 1.02-2.24.68-.573 1.76-.86 3.24-.86h3.04v-.38c0-.827-.24-1.46-.72-1.9-.48-.44-1.186-.66-2.12-.66-.626 0-1.24.107-1.84.32-.6.2-1.106.473-1.52.82l-.8-1.44c.547-.44 1.2-.773 1.96-1a7.99 7.99 0 012.42-.36zm-.44 9.34c.734 0 1.367-.16 1.9-.48.534-.333.92-.8 1.16-1.4v-1.48h-2.96c-1.626 0-2.44.547-2.44 1.64 0 .533.207.953.62 1.26.414.307.987.46 1.72.46zm20.429 1.52c-1.413 0-2.687-.307-3.82-.92a7.024 7.024 0 01-2.68-2.58c-.64-1.093-.96-2.313-.96-3.66s.32-2.567.96-3.66a6.874 6.874 0 012.68-2.56c1.133-.627 2.407-.94 3.82-.94 1.4 0 2.667.313 3.8.94a6.735 6.735 0 012.66 2.56c.64 1.08.96 2.3.96 3.66 0 1.36-.32 2.587-.96 3.68a6.923 6.923 0 01-2.66 2.56c-1.133.613-2.4.92-3.8.92zm0-1.78c1.027 0 1.947-.233 2.76-.7a5.069 5.069 0 001.94-1.92c.48-.827.72-1.747.72-2.76 0-1.013-.24-1.927-.72-2.74a5.024 5.024 0 00-1.94-1.94c-.813-.467-1.733-.7-2.76-.7-1.027 0-1.96.233-2.8.7a5.164 5.164 0 00-1.96 1.94c-.467.813-.7 1.727-.7 2.74 0 1.013.233 1.933.7 2.76a5.213 5.213 0 001.96 1.92c.84.467 1.773.7 2.8.7zm10.333-8.98h1.92v4.5h6.04v-4.5h1.92V140h-1.92v-4.44h-6.04V140h-1.92v-10.6zm22.713 0V140h-1.92v-8.92h-4.56l-.12 2.36c-.066 1.427-.193 2.62-.38 3.58-.186.947-.493 1.707-.92 2.28-.426.573-1.02.86-1.78.86-.346 0-.74-.06-1.18-.18l.12-1.62c.174.04.334.06.48.06.534 0 .934-.233 1.2-.7.267-.467.44-1.02.52-1.66.08-.64.154-1.553.22-2.74l.18-3.92h8.14zm7.493-.1c1.466 0 2.586.36 3.36 1.08.786.72 1.18 1.793 1.18 3.22v6.4h-1.82v-1.4c-.32.493-.78.873-1.38 1.14-.587.253-1.287.38-2.1.38-1.187 0-2.14-.287-2.86-.86-.707-.573-1.06-1.327-1.06-2.26 0-.933.34-1.68 1.02-2.24.68-.573 1.76-.86 3.24-.86h3.04v-.38c0-.827-.24-1.46-.72-1.9-.48-.44-1.187-.66-2.12-.66-.627 0-1.24.107-1.84.32-.6.2-1.107.473-1.52.82l-.8-1.44c.546-.44 1.2-.773 1.96-1 .76-.24 1.566-.36 2.42-.36zm-.44 9.34c.733 0 1.366-.16 1.9-.48.533-.333.92-.8 1.16-1.4v-1.48h-2.96c-1.627 0-2.44.547-2.44 1.64 0 .533.206.953.62 1.26.413.307.986.46 1.72.46zm8.437-9.24h1.92v7.72l6.5-7.72h1.74V140h-1.92v-7.72l-6.48 7.72h-1.76v-10.6zm4.96-1.38c-.987 0-1.753-.233-2.3-.7-.547-.48-.827-1.167-.84-2.06h1.3c.013.493.18.893.5 1.2.333.293.773.44 1.32.44s.987-.147 1.32-.44c.333-.307.507-.707.52-1.2h1.34c-.013.893-.3 1.58-.86 2.06-.56.467-1.327.7-2.3.7zm8.927 1.38h1.92v4.5h6.04v-4.5h1.92V140h-1.92v-4.44h-6.04V140h-1.92v-10.6zm30.764-3.4l-6.22 11.54c-.493.92-1.073 1.607-1.74 2.06a3.798 3.798 0 01-2.18.68c-.613 0-1.24-.14-1.88-.42l.52-1.6c.494.173.934.26 1.32.26.88 0 1.607-.467 2.18-1.4l.32-.5-5.64-10.62h2.14l4.54 8.88 4.66-8.88h1.98zm11.165 3.4V140h-1.92v-8.92h-5.98V140h-1.92v-10.6h9.82zm9.335-.1c1.027 0 1.947.227 2.76.68a4.816 4.816 0 011.9 1.9c.467.813.7 1.753.7 2.82s-.233 2.013-.7 2.84a4.816 4.816 0 01-1.9 1.9c-.813.453-1.733.68-2.76.68-.76 0-1.46-.147-2.1-.44a4.37 4.37 0 01-1.6-1.28v5.48h-1.92V129.4h1.84v1.68a3.996 3.996 0 011.62-1.32 5.02 5.02 0 012.16-.46zm-.16 9.14c.68 0 1.287-.153 1.82-.46.547-.32.974-.76 1.28-1.32.32-.573.48-1.227.48-1.96 0-.733-.16-1.38-.48-1.94a3.213 3.213 0 00-1.28-1.32c-.533-.307-1.14-.46-1.82-.46-.666 0-1.273.16-1.82.48a3.43 3.43 0 00-1.28 1.3c-.306.56-.46 1.207-.46 1.94 0 .733.154 1.387.46 1.96.307.56.734 1 1.28 1.32.547.307 1.154.46 1.82.46zm11.992-9.14c1.467 0 2.587.36 3.36 1.08.787.72 1.18 1.793 1.18 3.22v6.4h-1.82v-1.4c-.32.493-.78.873-1.38 1.14-.586.253-1.286.38-2.1.38-1.186 0-2.14-.287-2.86-.86-.706-.573-1.06-1.327-1.06-2.26 0-.933.34-1.68 1.02-2.24.68-.573 1.76-.86 3.24-.86h3.04v-.38c0-.827-.24-1.46-.72-1.9-.48-.44-1.186-.66-2.12-.66-.626 0-1.24.107-1.84.32-.6.2-1.106.473-1.52.82l-.8-1.44c.547-.44 1.2-.773 1.96-1 .76-.24 1.567-.36 2.42-.36zm-.44 9.34c.734 0 1.367-.16 1.9-.48.534-.333.92-.8 1.16-1.4v-1.48h-2.96c-1.626 0-2.44.547-2.44 1.64 0 .533.207.953.62 1.26.414.307.987.46 1.72.46zm15.658-4.14c1.373.347 2.06 1.207 2.06 2.58 0 .933-.354 1.653-1.06 2.16-.694.507-1.734.76-3.12.76h-5.1v-10.6h4.92c1.253 0 2.233.24 2.94.72.706.467 1.06 1.133 1.06 2 0 .56-.154 1.047-.46 1.46-.294.4-.707.707-1.24.92zm-5.34-.54h2.88c.733 0 1.286-.133 1.66-.4.386-.267.58-.653.58-1.16 0-1.013-.747-1.52-2.24-1.52h-2.88v3.08zm3.08 4.56c.8 0 1.4-.127 1.8-.38.4-.253.6-.647.6-1.18 0-.547-.187-.953-.56-1.22-.36-.267-.934-.4-1.72-.4h-3.2v3.18h3.08zm16.425-9.12V140h-1.92v-8.92h-4.56l-.12 2.36c-.067 1.427-.194 2.62-.38 3.58-.187.947-.494 1.707-.92 2.28-.427.573-1.02.86-1.78.86-.347 0-.74-.06-1.18-.18l.12-1.62c.173.04.333.06.48.06.533 0 .933-.233 1.2-.7.266-.467.44-1.02.52-1.66.08-.64.153-1.553.22-2.74l.18-3.92h8.14zm3.712 0h1.92V140h-1.92v-10.6zm.96-2.04c-.373 0-.686-.12-.94-.36-.24-.24-.36-.533-.36-.88s.12-.64.36-.88a1.28 1.28 0 01.94-.38c.374 0 .68.12.92.36.254.227.38.513.38.86 0 .36-.126.667-.38.92-.24.24-.546.36-.92.36zm4.704 2.04h1.92v4.5h6.04v-4.5h1.92V140h-1.92v-4.44h-6.04V140h-1.92v-10.6zm13.614 0h1.92v4.5h6.04v-4.5h1.92V140h-1.92v-4.44h-6.04V140h-1.92v-10.6zm22.113 0V140h-1.72v-3.36h-3.3l-2.32 3.36h-2.06l2.58-3.62c-.8-.24-1.413-.633-1.84-1.18-.427-.56-.64-1.253-.64-2.08 0-1.213.413-2.133 1.24-2.76.827-.64 1.967-.96 3.42-.96h4.64zm-7.34 3.78c0 .707.22 1.233.66 1.58.453.333 1.127.5 2.02.5h2.94v-4.18h-2.86c-1.84 0-2.76.7-2.76 2.1zM13.44 164.16c-1.4 0-2.667-.307-3.8-.92A6.96 6.96 0 017 160.68c-.64-1.093-.96-2.32-.96-3.68 0-1.36.32-2.58.96-3.66a6.733 6.733 0 012.66-2.56c1.133-.627 2.4-.94 3.8-.94 1.093 0 2.093.187 3 .56.907.36 1.68.9 2.32 1.62l-1.3 1.26c-1.053-1.107-2.367-1.66-3.94-1.66-1.04 0-1.98.233-2.82.7a5.127 5.127 0 00-1.98 1.94c-.467.813-.7 1.727-.7 2.74 0 1.013.233 1.933.7 2.76a5.175 5.175 0 001.98 1.92c.84.467 1.78.7 2.82.7 1.56 0 2.873-.56 3.94-1.68l1.3 1.26a6.201 6.201 0 01-2.34 1.64c-.907.373-1.907.56-3 .56zm7.775-10.76h1.92v7.72l6.5-7.72h1.74V164h-1.92v-7.72l-6.48 7.72h-1.76v-10.6zm18.507 10.72c-1.08 0-2.047-.233-2.9-.7a5.175 5.175 0 01-1.98-1.92c-.48-.827-.72-1.76-.72-2.8 0-1.04.24-1.967.72-2.78a4.982 4.982 0 011.98-1.92c.853-.467 1.82-.7 2.9-.7.96 0 1.813.193 2.56.58a4.12 4.12 0 011.76 1.68l-1.46.94a3.256 3.256 0 00-1.24-1.14 3.54 3.54 0 00-1.64-.38c-.693 0-1.32.153-1.88.46a3.35 3.35 0 00-1.3 1.32c-.306.56-.46 1.207-.46 1.94 0 .747.154 1.407.46 1.98.32.56.754.993 1.3 1.3.56.307 1.187.46 1.88.46.6 0 1.147-.127 1.64-.38a3.256 3.256 0 001.24-1.14l1.46.92c-.413.733-1 1.3-1.76 1.7-.746.387-1.6.58-2.56.58zm14.57-9.04h-3.88V164h-1.92v-8.92h-3.88v-1.68h9.68v1.68zm11.074 3.68c0 .147-.014.34-.04.58h-8.6c.12.933.526 1.687 1.22 2.26.706.56 1.58.84 2.62.84 1.266 0 2.286-.427 3.06-1.28l1.06 1.24c-.48.56-1.08.987-1.8 1.28-.707.293-1.5.44-2.38.44-1.12 0-2.114-.227-2.98-.68a5.055 5.055 0 01-2.02-1.94c-.467-.827-.7-1.76-.7-2.8 0-1.027.226-1.953.68-2.78a4.957 4.957 0 011.9-1.92c.813-.467 1.726-.7 2.74-.7 1.013 0 1.913.233 2.7.7.8.453 1.42 1.093 1.86 1.92.453.827.68 1.773.68 2.84zm-5.24-3.84c-.92 0-1.694.28-2.32.84-.614.56-.974 1.293-1.08 2.2h6.8c-.107-.893-.474-1.62-1.1-2.18-.614-.573-1.38-.86-2.3-.86zm20.438-1.52V164h-1.74v-7.74l-3.96 6.54h-.84l-3.92-6.56V164h-1.76v-10.6h1.98l4.16 7.16 4.28-7.16h1.8zm8.277 10.72c-1.053 0-2-.233-2.84-.7a5.175 5.175 0 01-1.98-1.92c-.466-.827-.7-1.76-.7-2.8 0-1.04.234-1.967.7-2.78a4.982 4.982 0 011.98-1.92c.84-.467 1.787-.7 2.84-.7 1.054 0 1.994.233 2.82.7a4.848 4.848 0 011.96 1.92c.48.813.72 1.74.72 2.78 0 1.04-.24 1.973-.72 2.8a5.03 5.03 0 01-1.96 1.92c-.826.467-1.766.7-2.82.7zm0-1.68c.68 0 1.287-.153 1.82-.46.547-.32.974-.76 1.28-1.32.307-.573.46-1.227.46-1.96 0-.733-.153-1.38-.46-1.94a3.22 3.22 0 00-1.28-1.32c-.533-.307-1.14-.46-1.82-.46-.68 0-1.293.153-1.84.46-.533.307-.96.747-1.28 1.32-.306.56-.46 1.207-.46 1.94 0 .733.154 1.387.46 1.96.32.56.747 1 1.28 1.32.547.307 1.16.46 1.84.46zm17.653-9.14c1.027 0 1.947.233 2.76.7a4.923 4.923 0 011.92 1.92c.467.813.7 1.74.7 2.78 0 1.04-.233 1.973-.7 2.8a5.114 5.114 0 01-1.92 1.92c-.813.467-1.733.7-2.76.7-.933 0-1.78-.193-2.54-.58a5.131 5.131 0 01-1.88-1.62 5.517 5.517 0 01-.9-2.4h-2.14V164h-1.92v-10.6h1.92v4.34h2.16c.133-.88.44-1.653.92-2.32a4.886 4.886 0 011.86-1.56c.76-.373 1.6-.56 2.52-.56zm0 9.14c.653 0 1.24-.153 1.76-.46.533-.307.953-.74 1.26-1.3.307-.573.46-1.233.46-1.98 0-.733-.153-1.38-.46-1.94a3.262 3.262 0 00-1.26-1.32 3.397 3.397 0 00-1.76-.46c-.653 0-1.247.153-1.78.46a3.262 3.262 0 00-1.26 1.32c-.293.56-.44 1.207-.44 1.94 0 .747.147 1.407.44 1.98.307.56.727.993 1.26 1.3.533.307 1.127.46 1.78.46zm20.131 1.72c-1.414 0-2.687-.307-3.82-.92a7.017 7.017 0 01-2.68-2.58c-.64-1.093-.96-2.313-.96-3.66s.32-2.567.96-3.66a6.867 6.867 0 012.68-2.56c1.133-.627 2.406-.94 3.82-.94 1.4 0 2.666.313 3.8.94a6.735 6.735 0 012.66 2.56c.64 1.08.96 2.3.96 3.66 0 1.36-.32 2.587-.96 3.68a6.923 6.923 0 01-2.66 2.56c-1.134.613-2.4.92-3.8.92zm0-1.78c1.026 0 1.946-.233 2.76-.7a5.075 5.075 0 001.94-1.92c.48-.827.72-1.747.72-2.76 0-1.013-.24-1.927-.72-2.74a5.03 5.03 0 00-1.94-1.94c-.814-.467-1.734-.7-2.76-.7-1.027 0-1.96.233-2.8.7a5.164 5.164 0 00-1.96 1.94c-.467.813-.7 1.727-.7 2.74 0 1.013.233 1.933.7 2.76a5.213 5.213 0 001.96 1.92c.84.467 1.773.7 2.8.7zm16.699 1.62l-3.06-4.06-3.1 4.06h-2.14l4.18-5.42-3.98-5.18h2.14l2.92 3.82 2.9-3.82h2.1l-4 5.18 4.22 5.42h-2.18zm8.389.12c-1.054 0-2-.233-2.84-.7a5.175 5.175 0 01-1.98-1.92c-.467-.827-.7-1.76-.7-2.8 0-1.04.233-1.967.7-2.78a4.982 4.982 0 011.98-1.92c.84-.467 1.786-.7 2.84-.7 1.053 0 1.993.233 2.82.7a4.85 4.85 0 011.96 1.92c.48.813.72 1.74.72 2.78 0 1.04-.24 1.973-.72 2.8a5.033 5.033 0 01-1.96 1.92c-.827.467-1.767.7-2.82.7zm0-1.68c.68 0 1.286-.153 1.82-.46.546-.32.973-.76 1.28-1.32.306-.573.46-1.227.46-1.96 0-.733-.154-1.38-.46-1.94a3.225 3.225 0 00-1.28-1.32c-.534-.307-1.14-.46-1.82-.46a3.69 3.69 0 00-1.84.46c-.534.307-.96.747-1.28 1.32-.307.56-.46 1.207-.46 1.94 0 .733.153 1.387.46 1.96.32.56.746 1 1.28 1.32a3.69 3.69 0 001.84.46zm13.892-9.14c1.027 0 1.947.227 2.76.68a4.823 4.823 0 011.9 1.9c.467.813.7 1.753.7 2.82s-.233 2.013-.7 2.84a4.823 4.823 0 01-1.9 1.9c-.813.453-1.733.68-2.76.68-.76 0-1.46-.147-2.1-.44a4.363 4.363 0 01-1.6-1.28v5.48h-1.92V153.4h1.84v1.68a3.996 3.996 0 011.62-1.32 5.013 5.013 0 012.16-.46zm-.16 9.14c.68 0 1.287-.153 1.82-.46.547-.32.973-.76 1.28-1.32.32-.573.48-1.227.48-1.96 0-.733-.16-1.38-.48-1.94a3.22 3.22 0 00-1.28-1.32c-.533-.307-1.14-.46-1.82-.46-.667 0-1.273.16-1.82.48a3.43 3.43 0 00-1.28 1.3c-.307.56-.46 1.207-.46 1.94 0 .733.153 1.387.46 1.96.307.56.733 1 1.28 1.32.547.307 1.153.46 1.82.46zm12.85 1.68c-1.054 0-2-.233-2.84-.7a5.175 5.175 0 01-1.98-1.92c-.467-.827-.7-1.76-.7-2.8 0-1.04.233-1.967.7-2.78a4.982 4.982 0 011.98-1.92c.84-.467 1.786-.7 2.84-.7 1.053 0 1.993.233 2.82.7a4.85 4.85 0 011.96 1.92c.48.813.72 1.74.72 2.78 0 1.04-.24 1.973-.72 2.8a5.033 5.033 0 01-1.96 1.92c-.827.467-1.767.7-2.82.7zm0-1.68c.68 0 1.286-.153 1.82-.46.546-.32.973-.76 1.28-1.32.306-.573.46-1.227.46-1.96 0-.733-.154-1.38-.46-1.94a3.225 3.225 0 00-1.28-1.32c-.534-.307-1.14-.46-1.82-.46a3.69 3.69 0 00-1.84.46c-.534.307-.96.747-1.28 1.32-.307.56-.46 1.207-.46 1.94 0 .733.153 1.387.46 1.96.32.56.746 1 1.28 1.32a3.69 3.69 0 001.84.46zm8.272-9.04h1.92v4.5h6.04v-4.5h1.92V164h-1.92v-4.44h-6.04V164h-1.92v-10.6zm13.613 0h1.92v7.72l6.5-7.72h1.74V164h-1.92v-7.72l-6.48 7.72h-1.76v-10.6zm31.638-3.4v14h-1.96v-12.26h-8.12V164h-1.98v-14h12.06zm9.666 3.3c1.027 0 1.947.227 2.76.68a4.823 4.823 0 011.9 1.9c.467.813.7 1.753.7 2.82s-.233 2.013-.7 2.84a4.823 4.823 0 01-1.9 1.9c-.813.453-1.733.68-2.76.68-.76 0-1.46-.147-2.1-.44a4.363 4.363 0 01-1.6-1.28v5.48h-1.92V153.4h1.84v1.68a3.996 3.996 0 011.62-1.32 5.013 5.013 0 012.16-.46zm-.16 9.14c.68 0 1.287-.153 1.82-.46.547-.32.973-.76 1.28-1.32.32-.573.48-1.227.48-1.96 0-.733-.16-1.38-.48-1.94a3.22 3.22 0 00-1.28-1.32c-.533-.307-1.14-.46-1.82-.46-.667 0-1.273.16-1.82.48a3.43 3.43 0 00-1.28 1.3c-.307.56-.46 1.207-.46 1.94 0 .733.153 1.387.46 1.96.307.56.733 1 1.28 1.32.547.307 1.153.46 1.82.46zm11.992-9.14c1.466 0 2.586.36 3.36 1.08.786.72 1.18 1.793 1.18 3.22v6.4h-1.82v-1.4c-.32.493-.78.873-1.38 1.14-.587.253-1.287.38-2.1.38-1.187 0-2.14-.287-2.86-.86-.707-.573-1.06-1.327-1.06-2.26 0-.933.34-1.68 1.02-2.24.68-.573 1.76-.86 3.24-.86h3.04v-.38c0-.827-.24-1.46-.72-1.9-.48-.44-1.187-.66-2.12-.66-.627 0-1.24.107-1.84.32-.6.2-1.107.473-1.52.82l-.8-1.44c.546-.44 1.2-.773 1.96-1 .76-.24 1.566-.36 2.42-.36zm-.44 9.34c.733 0 1.366-.16 1.9-.48.533-.333.92-.8 1.16-1.4v-1.48h-2.96c-1.627 0-2.44.547-2.44 1.64 0 .533.206.953.62 1.26.413.307.986.46 1.72.46zm19.757-.32v4.22h-1.82V164h-9.5v-10.6h1.92v8.92h5.8v-8.92h1.92v8.92h1.68zm2.489-8.92h1.92V164h-1.92v-10.6zm.96-2.04c-.374 0-.687-.12-.94-.36-.24-.24-.36-.533-.36-.88s.12-.64.36-.88c.253-.253.566-.38.94-.38.373 0 .68.12.92.36.253.227.38.513.38.86 0 .36-.127.667-.38.92-.24.24-.547.36-.92.36zm10.075 2.04h1.92v4.5h6.04v-4.5h1.92V164h-1.92v-4.44h-6.04V164h-1.92v-10.6zm17.393-.1c1.467 0 2.587.36 3.36 1.08.787.72 1.18 1.793 1.18 3.22v6.4h-1.82v-1.4c-.32.493-.78.873-1.38 1.14-.587.253-1.287.38-2.1.38-1.187 0-2.14-.287-2.86-.86-.707-.573-1.06-1.327-1.06-2.26 0-.933.34-1.68 1.02-2.24.68-.573 1.76-.86 3.24-.86h3.04v-.38c0-.827-.24-1.46-.72-1.9-.48-.44-1.187-.66-2.12-.66-.627 0-1.24.107-1.84.32-.6.2-1.107.473-1.52.82l-.8-1.44c.547-.44 1.2-.773 1.96-1 .76-.24 1.567-.36 2.42-.36zm-.44 9.34c.733 0 1.367-.16 1.9-.48.533-.333.92-.8 1.16-1.4v-1.48h-2.96c-1.627 0-2.44.547-2.44 1.64 0 .533.207.953.62 1.26.413.307.987.46 1.72.46zM329.299 150v14h-1.96v-12.26h-8.12V164h-1.98v-14h12.06zm4.045 3.4h1.92V164h-1.92v-10.6zm.96-2.04c-.373 0-.686-.12-.94-.36-.24-.24-.36-.533-.36-.88s.12-.64.36-.88a1.28 1.28 0 01.94-.38c.374 0 .68.12.92.36.254.227.38.513.38.86 0 .36-.126.667-.38.92-.24.24-.546.36-.92.36zm15.484 10.96v4.14h-1.8V164h-8.86v2.46h-1.82v-4.14h.56c.68-.04 1.147-.52 1.4-1.44.254-.92.427-2.22.52-3.9l.16-3.58h8.22v8.92h1.62zm-8.24-5.2c-.053 1.333-.166 2.44-.34 3.32-.16.867-.46 1.493-.9 1.88h5.94v-7.24h-4.6l-.1 2.04zm20.562-3.72V164h-1.92v-8.92h-5.98V164h-1.92v-10.6h9.82zm9.335-.1c1.027 0 1.947.227 2.76.68a4.823 4.823 0 011.9 1.9c.467.813.7 1.753.7 2.82s-.233 2.013-.7 2.84a4.823 4.823 0 01-1.9 1.9c-.813.453-1.733.68-2.76.68-.76 0-1.46-.147-2.1-.44a4.363 4.363 0 01-1.6-1.28v5.48h-1.92V153.4h1.84v1.68a3.996 3.996 0 011.62-1.32 5.013 5.013 0 012.16-.46zm-.16 9.14c.68 0 1.287-.153 1.82-.46.547-.32.973-.76 1.28-1.32.32-.573.48-1.227.48-1.96 0-.733-.16-1.38-.48-1.94a3.22 3.22 0 00-1.28-1.32c-.533-.307-1.14-.46-1.82-.46-.667 0-1.273.16-1.82.48a3.43 3.43 0 00-1.28 1.3c-.307.56-.46 1.207-.46 1.94 0 .733.153 1.387.46 1.96.307.56.733 1 1.28 1.32.547.307 1.153.46 1.82.46zm8.309-9.04h1.92v7.72l6.5-7.72h1.74V164h-1.92v-7.72l-6.48 7.72h-1.76v-10.6zm18.627 10.72c-1.08 0-2.06-.233-2.94-.7a5.191 5.191 0 01-2.04-1.94c-.493-.827-.74-1.753-.74-2.78 0-1.04.247-1.973.74-2.8a5.191 5.191 0 012.04-1.94c.88-.467 1.86-.7 2.94-.7.933 0 1.773.147 2.52.44.76.293 1.4.72 1.92 1.28l-1.12 1.12c-.853-.84-1.933-1.26-3.24-1.26-1.04 0-1.927.3-2.66.9-.733.587-1.173 1.36-1.32 2.32h5.32v1.42h-5.28c.173.92.62 1.667 1.34 2.24.72.56 1.587.84 2.6.84 1.293 0 2.373-.427 3.24-1.28l1.12 1.1a4.959 4.959 0 01-1.92 1.3c-.76.293-1.6.44-2.52.44zm19.023-10.72V164h-1.74v-7.74l-3.96 6.54h-.84l-3.92-6.56V164h-1.76v-10.6h1.98l4.16 7.16 4.28-7.16h1.8zm8.357 10.72c-1.08 0-2.047-.233-2.9-.7a5.175 5.175 0 01-1.98-1.92c-.48-.827-.72-1.76-.72-2.8 0-1.04.24-1.967.72-2.78a4.982 4.982 0 011.98-1.92c.853-.467 1.82-.7 2.9-.7.96 0 1.813.193 2.56.58a4.12 4.12 0 011.76 1.68l-1.46.94a3.256 3.256 0 00-1.24-1.14 3.54 3.54 0 00-1.64-.38c-.693 0-1.32.153-1.88.46-.547.307-.98.747-1.3 1.32-.307.56-.46 1.207-.46 1.94 0 .747.153 1.407.46 1.98.32.56.753.993 1.3 1.3.56.307 1.187.46 1.88.46.6 0 1.147-.127 1.64-.38a3.256 3.256 0 001.24-1.14l1.46.92c-.413.733-1 1.3-1.76 1.7-.747.387-1.6.58-2.56.58zm14.569-9.04h-3.88V164h-1.92v-8.92h-3.88v-1.68h9.68v1.68zm9.183 3.42c1.374.347 2.06 1.207 2.06 2.58 0 .933-.353 1.653-1.06 2.16-.693.507-1.733.76-3.12.76h-5.1v-10.6h4.92c1.254 0 2.234.24 2.94.72.707.467 1.06 1.133 1.06 2 0 .56-.153 1.047-.46 1.46-.293.4-.706.707-1.24.92zm-5.34-.54h2.88c.734 0 1.287-.133 1.66-.4.387-.267.58-.653.58-1.16 0-1.013-.746-1.52-2.24-1.52h-2.88v3.08zm3.08 4.56c.8 0 1.4-.127 1.8-.38.4-.253.6-.647.6-1.18 0-.547-.186-.953-.56-1.22-.36-.267-.933-.4-1.72-.4h-3.2v3.18h3.08zm7.326-9.12h1.92V164h-1.92v-10.6zm.96-2.04c-.374 0-.687-.12-.94-.36-.24-.24-.36-.533-.36-.88s.12-.64.36-.88c.253-.253.566-.38.94-.38.373 0 .68.12.92.36.253.227.38.513.38.86 0 .36-.127.667-.38.92-.24.24-.547.36-.92.36z" fill="#2E2E2E"/></svg>