<svg width="28" height="28" fill="none" xmlns="http://www.w3.org/2000/svg"><path transform="rotate(-44.934 22.415 7.692) skewX(.048)" stroke="#fff" stroke-linecap="round" stroke-linejoin="round" d="M.5-.5h23"/><path transform="rotate(-45 27.085 5.741) skewX(.044)" stroke="#fff" stroke-linecap="round" stroke-linejoin="round" d="M.5-.5h23"/><path transform="rotate(44.956 -21.296 10.402) skewX(-.044)" stroke="#fff" stroke-linecap="round" stroke-linejoin="round" d="M.5-.5h2.108"/><path transform="rotate(44.956 6.818 22.06) skewX(-.044)" stroke="#fff" stroke-linecap="round" stroke-linejoin="round" d="M.5-.5h2.108"/><path transform="rotate(-44.934 33.696 3.002) skewX(.048)" stroke="#fff" stroke-linecap="round" stroke-linejoin="round" d="M.5-.5h23"/><path transform="rotate(-45 38.353 1.064) skewX(.044)" stroke="#fff" stroke-linecap="round" stroke-linejoin="round" d="M.5-.5h23"/><path transform="rotate(44.956 -25.57 20.73) skewX(-.044)" stroke="#fff" stroke-linecap="round" stroke-linejoin="round" d="M.5-.5h3.662"/><path transform="rotate(44.956 2.544 32.389) skewX(-.044)" stroke="#fff" stroke-linecap="round" stroke-linejoin="round" d="M.5-.5h3.662"/><path transform="rotate(-44.934 22.415 7.692) skewX(.048)" stroke="#fff" stroke-linecap="round" stroke-linejoin="round" d="M.5-.5h23"/><path transform="rotate(-45 27.085 5.741) skewX(.044)" stroke="#fff" stroke-linecap="round" stroke-linejoin="round" d="M.5-.5h23"/><path transform="rotate(44.956 -20.908 9.463) skewX(-.044)" stroke="#fff" stroke-linecap="round" stroke-linejoin="round" d="M.5-.5h3.662"/><path transform="rotate(44.956 7.206 21.121) skewX(-.044)" stroke="#fff" stroke-linecap="round" stroke-linejoin="round" d="M.5-.5h3.662"/><path transform="rotate(44.956 -21.093 14.886) skewX(-.044)" stroke="#fff" stroke-linecap="round" stroke-linejoin="round" d="M.5-.5h5.216"/><path transform="rotate(44.956 3.507 25.087) skewX(-.044)" stroke="#fff" stroke-linecap="round" stroke-linejoin="round" d="M.5-.5h5.216"/><path transform="matrix(.92004 .3925 -.3483 .93707 7.987 16.719)" stroke="#fff" d="M0-.5h5.86"/><path transform="matrix(.92004 .3925 -.3483 .93707 12.615 12.09)" stroke="#fff" d="M0-.5h5.86"/><path transform="matrix(.92004 .3925 -.3483 .93707 17.244 7.462)" stroke="#fff" d="M0-.5h5.86"/><path transform="matrix(-.35354 -.9351 .95288 -.30437 9.779 22.62)" stroke="#fff" d="M0-.5h5.969"/><path transform="matrix(-.35354 -.9351 .95288 -.30437 14.407 17.99)" stroke="#fff" d="M0-.5h5.969"/><path transform="matrix(-.35354 -.9351 .95288 -.30437 19.036 13.363)" stroke="#fff" d="M0-.5h5.969"/></svg>