<svg width="80" height="80" fill="none" xmlns="http://www.w3.org/2000/svg"><path d="M70.511 42.332h-6.685a9.471 9.471 0 00-7.268 3.388 1.172 1.172 0 001.794 1.508 7.132 7.132 0 015.474-2.553h.795l-1.795 7.583c-.092.385.018.79.29 1.077l3.203 3.37a1.172 1.172 0 001.699 0l3.202-3.37c.273-.287.382-.692.291-1.077l-1.795-7.583h.795a7.152 7.152 0 017.144 7.144v7.518H61.02a1.172 1.172 0 100 2.343h17.16c1.003 0 1.82-.816 1.82-1.82v-8.04c0-5.232-4.256-9.488-9.488-9.488zm-1.427 9.849l-1.916 2.016-1.916-2.017 1.777-7.505h.278l1.777 7.506zM67.17 40.556c5.288 0 9.59-4.301 9.59-9.588v-5.479c0-.463-.036-.92-.105-1.364-.659-4.304-4.386-7.61-8.87-7.61h-1.228c-4.485 0-8.212 3.306-8.871 7.61a8.997 8.997 0 00-.104 1.364v5.479c0 5.287 4.301 9.588 9.589 9.588zm-.613-21.698h1.227a6.639 6.639 0 016.631 6.631v.281c-1.552-.636-2.648-1.502-2.928-2.364a1.172 1.172 0 00-2.076-.307c-1.294 1.86-6.043 3.51-9.486 2.948v-.558a6.639 6.639 0 016.632-6.63zm-6.631 9.55c3.44.41 7.795-.767 10.221-2.727 1.15 1.345 2.972 2.15 4.268 2.586v2.7c0 3.995-3.25 7.245-7.245 7.245-3.994 0-7.244-3.25-7.244-7.245v-2.56zM23.302 47.379c.496-.416.56-1.155.145-1.651a9.47 9.47 0 00-7.274-3.396H9.488C4.256 42.332 0 46.588 0 51.819v8.04c0 1.005.817 1.821 1.82 1.821h17.16a1.172 1.172 0 100-2.343H2.343v-7.518a7.152 7.152 0 017.144-7.144h.795l-1.795 7.583c-.091.385.018.79.29 1.077l3.203 3.37a1.172 1.172 0 001.699 0l3.202-3.37c.273-.287.382-.692.291-1.077l-1.795-7.583h.795c2.119 0 4.115.933 5.478 2.558.416.496 1.154.56 1.65.146zm-8.556 4.802l-1.916 2.016-1.916-2.017 1.777-7.505h.278l1.777 7.506zM3.243 30.967c0 5.288 4.3 9.589 9.587 9.589 5.288 0 9.59-4.301 9.59-9.589V25.49c0-.151-.006-.304-.014-.456a7.948 7.948 0 003.141-6.329v-2.731c0-.647-.524-1.172-1.172-1.172H11.19c-.528 0-1.057.052-1.57.155a1.172 1.172 0 00.46 2.299c.363-.073.736-.11 1.11-.11h12.015v1.56a5.62 5.62 0 01-5.614 5.613H5.586v-1.57a5.61 5.61 0 011.286-3.571 1.172 1.172 0 00-1.805-1.496 7.958 7.958 0 00-1.825 5.067v8.219zm16.832-4.705v4.705c0 3.995-3.25 7.245-7.245 7.245-3.994 0-7.244-3.25-7.244-7.245v-4.305H17.59a7.92 7.92 0 002.486-.4z" fill="#055820"/><path d="M50.122 44.442l-.054-.03a12.74 12.74 0 00-.382-.168l-.045-.019a12.65 12.65 0 00-3.642-.93l-.015-.002a12.712 12.712 0 00-.637-.048h-.014a12.718 12.718 0 00-.649-.017h-9.366c-.217 0-.433.005-.649.016h-.014c-.214.011-.426.028-.638.05h-.013c-.212.022-.423.05-.634.081l-.004.001c-1.03.158-2.035.441-3.005.85l-.045.018c-.128.055-.255.11-.382.169l-.054.029c-4.358 2.05-7.384 6.481-7.384 11.608v10.61a2.738 2.738 0 002.735 2.735h29.541a2.738 2.738 0 002.734-2.734V56.05c0-5.127-3.025-9.558-7.384-11.608zM43.788 53.6l-.775-4.259a5.739 5.739 0 002.644-3.723l.035.003.105.01c.336.036.668.086.994.153l.008.002c.156.032.311.068.465.108l.078.02c.136.035.27.074.403.114l.078.024.084.029-4.12 7.52zm-11.694-7.52c.029-.008.056-.019.084-.028l.08-.024a10.416 10.416 0 01.943-.242l.01-.002c.326-.067.658-.117.994-.153l.105-.01.035-.003a5.739 5.739 0 002.644 3.723l-.775 4.26-4.12-7.52zm8.456 2.818L42 56.864l-2 3.649-1.998-3.649 1.45-7.966c.1-.55-.201-1.093-.72-1.3a3.426 3.426 0 01-1.97-2.027h6.478a3.426 3.426 0 01-1.97 2.028c-.519.206-.82.75-.72 1.299zM55.162 66.66a.39.39 0 01-.39.39H25.23a.391.391 0 01-.39-.39V56.05c0-3.82 2.054-7.166 5.114-8.997l9.02 16.462a1.172 1.172 0 002.055 0l9.018-16.462c3.061 1.831 5.115 5.178 5.115 8.997v10.61zM39.965 41.02c2.83 0 5.583-.996 7.753-2.805a1.172 1.172 0 10-1.5-1.8 9.78 9.78 0 01-6.253 2.261c-5.388 0-9.771-4.383-9.771-9.77v-4.514c1.688 1.337 3.62 2.386 5.293 2.82a1.172 1.172 0 001.342-1.66c-.36-.718-.843-1.855-1.043-3.089 1.604 1.151 3.618 2.207 4.956 2.86 2.953 1.442 6.243 2.708 8.995 3.472v.11a9.682 9.682 0 01-.906 4.115 1.172 1.172 0 002.125.988 12.015 12.015 0 001.124-5.103v-7.044c0-6.207-5.049-11.256-11.255-11.256h-1.72c-.19 0-.38.005-.57.015l-.118.008c-.15.01-.301.02-.45.035l-.087.01a9.766 9.766 0 00-.482.062c-.01 0-.018.003-.027.004a11.173 11.173 0 00-6.166 3.107 11.207 11.207 0 00-2.847 4.668l-.01.035c-.048.156-.093.313-.134.472-.023.086-.042.174-.063.262a9.078 9.078 0 00-.134.658l-.021.12c-.026.16-.048.321-.067.484l-.006.05c-.02.172-.034.345-.046.52l-.002.027a11.5 11.5 0 00-.02.52l-.001.028v.006c-.001.055-.004.11-.004.165v7.044c0 6.68 5.435 12.115 12.115 12.115zm.86-28.072c4.913 0 8.911 3.998 8.911 8.913v4.497c-5.634-1.67-12.633-5.168-14.108-7.152a1.172 1.172 0 00-2.08.426c-.199.827-.365 2.307.162 4.304a15.977 15.977 0 01-3.494-2.671c.281-4.192 3.505-7.615 7.593-8.221l.023-.003c.132-.02.264-.036.397-.049.051-.005.103-.008.154-.012.092-.007.185-.016.279-.02.147-.007.295-.012.444-.012h1.718z" fill="#23A873"/></svg>