<svg width="80" height="80" fill="none" xmlns="http://www.w3.org/2000/svg"><path d="M75.359 14.24c-.647 0-1.172.525-1.172 1.172v36.304h-34.79a1.172 1.172 0 000 2.343h5.392v2.877a3.787 3.787 0 00-2.608 3.593 3.785 3.785 0 003.78 3.781 3.785 3.785 0 003.781-3.78c0-1.676-1.096-3.1-2.609-3.595V54.06h28.226c.647 0 1.172-.524 1.172-1.171V15.412c0-.647-.525-1.172-1.172-1.172zM45.961 61.966a1.438 1.438 0 01-1.437-1.437 1.44 1.44 0 011.437-1.437 1.438 1.438 0 010 2.874z" fill="#055820"/><path d="M33.277 55.85l.008-.012a5.51 5.51 0 00.184-.28l.038-.067a6.2 6.2 0 00.14-.252l.051-.1c.05-.102.097-.204.141-.309.013-.03.024-.06.035-.09.035-.087.068-.175.098-.265l.03-.087 13.776-15.86a1.172 1.172 0 10-1.769-1.537L33.67 51.198c-.023-.024-.043-.049-.067-.072a2.243 2.243 0 00-1.604-.667H19.094a6.92 6.92 0 00-6.913 6.912v.927h-1.405v-.445c0-.647-.525-1.172-1.172-1.172H1.172a1.172 1.172 0 000 2.344h7.26v16.196H3.39a1.172 1.172 0 000 2.344h6.214c.647 0 1.172-.525 1.172-1.172v-.445H23.14a3.151 3.151 0 002.644 1.44h4.478a3.157 3.157 0 003.154-3.153V73.7c0-.392-.075-.766-.207-1.113a3.332 3.332 0 001.95-3.027v-.582c0-.7-.217-1.349-.587-1.885a3.318 3.318 0 001.063-2.432v-.583a3.31 3.31 0 00-.426-1.625 3.325 3.325 0 001.377-2.691v-.583a3.334 3.334 0 00-3.308-3.329zm.964 3.33v.582a.988.988 0 01-.986.987h-4.878a.988.988 0 01-.986-.987v-.582c0-.544.442-.987.986-.987h4.877c.545 0 .987.443.987.987zm-.95 4.899v.582a.988.988 0 01-.987.987h-4.878a.988.988 0 01-.986-.987v-.582c0-.544.442-.987.986-.987h4.878c.544 0 .986.443.986.987zm-.476 5.482a.988.988 0 01-.987.986h-4.877a.988.988 0 01-.987-.986v-.583c0-.544.443-.986.987-.986h4.877c.544 0 .987.442.987.986v.583zm-7.566-8.669l-1.323 1.522c.676-1.108.988-2.352 1.128-3.375-.002.047-.007.093-.007.14v.583c0 .397.073.777.202 1.13zm-.138-2.36c.01-.118.02-.232.027-.339h.058c-.034.11-.062.223-.085.338zm-14.334 2.11h2.576c.647 0 1.172-.525 1.172-1.172v-2.099a4.573 4.573 0 014.569-4.568h12.823a3.13 3.13 0 01-3.125 3.046h-4.817a1.173 1.173 0 00-1.169 1.261c.003.03.204 3.033-1.335 4.69-.69.743-1.634 1.104-2.886 1.104a1.172 1.172 0 000 2.344c1.599 0 2.942-.438 4.007-1.299l-3.886 4.473a1.172 1.172 0 001.77 1.537l3.764-4.332c.1.33.25.64.443.919a3.318 3.318 0 00-1.063 2.432v.582c0 .556.139 1.08.38 1.541a3.15 3.15 0 00-1.366 2.503H10.777V60.642zM31.07 74.235a.81.81 0 01-.81.81h-4.478a.81.81 0 01-.81-.81V73.7a.81.81 0 01.81-.81h4.477a.81.81 0 01.81.81v.535z" fill="#055820"/><path opacity=".4" d="M7.393 73.142v-.146a1.172 1.172 0 00-2.344 0v.146a1.172 1.172 0 002.344 0z" fill="#23A873"/><path d="M78.828 2.435h-46.64a1.172 1.172 0 000 2.344h45.468v5.11h-63.39V4.78H37.5a1.172 1.172 0 000-2.344H13.094c-.647 0-1.172.524-1.172 1.172v7.455c0 .647.525 1.172 1.172 1.172h2.297v35.264a1.172 1.172 0 002.344 0V12.234h56.452v8.49a1.172 1.172 0 002.344 0v-8.49h2.297c.647 0 1.172-.525 1.172-1.172V3.607c0-.648-.525-1.172-1.172-1.172z" fill="#055820"/><path d="M24.482 35.08a3.68 3.68 0 00-3.675 3.675 3.68 3.68 0 003.675 3.675 3.68 3.68 0 003.676-3.675c0-.533-.115-1.039-.32-1.496l9.147-8.417a3.658 3.658 0 004.138-.348l8.415 5.162a3.68 3.68 0 003.582 4.498 3.68 3.68 0 003.675-3.676c0-.484-.095-.946-.266-1.37l9.021-7.703a3.653 3.653 0 001.888.523 3.68 3.68 0 003.675-3.676 3.68 3.68 0 00-3.675-3.675 3.68 3.68 0 00-3.676 3.675c0 .485.095.947.266 1.37l-9.021 7.704a3.654 3.654 0 00-1.888-.523 3.66 3.66 0 00-2.355.856l-8.39-5.148a3.68 3.68 0 00-3.572-4.538 3.68 3.68 0 00-3.38 5.123l-9.17 8.439a3.65 3.65 0 00-1.77-.456zm0 5.007a1.333 1.333 0 01-1.332-1.332 1.333 1.333 0 111.332 1.332zM67.438 20.92a1.333 1.333 0 010 2.664 1.333 1.333 0 01-1.332-1.332c0-.734.597-1.332 1.332-1.332zM53.119 33.146a1.333 1.333 0 010 2.664 1.333 1.333 0 01-1.331-1.332c0-.734.597-1.332 1.331-1.332zm-14.318-8.83c.734 0 1.332.598 1.332 1.332 0 .735-.598 1.332-1.332 1.332a1.333 1.333 0 01-1.332-1.332c0-.734.597-1.331 1.332-1.331z" fill="#23A873"/></svg>