<svg width="80" height="80" fill="none" xmlns="http://www.w3.org/2000/svg"><path d="M51.036 20.79a3.91 3.91 0 003.906-3.905 3.91 3.91 0 00-3.906-3.907 3.91 3.91 0 00-3.906 3.907c0 .88.292 1.692.785 2.345l-6.418 8.97a3.89 3.89 0 00-3.875.853l-4.278-2.428a3.91 3.91 0 00-3.819-4.728 3.91 3.91 0 00-3.819 4.728l-4.278 2.428a3.89 3.89 0 00-2.659-1.048 3.91 3.91 0 00-3.906 3.906 3.91 3.91 0 003.907 3.907 3.91 3.91 0 003.818-4.728l4.278-2.428a3.892 3.892 0 005.318 0l4.278 2.428a3.91 3.91 0 003.819 4.728 3.91 3.91 0 003.906-3.907 3.89 3.89 0 00-.785-2.346l6.418-8.969c.383.126.791.195 1.216.195zm0-5.468a1.564 1.564 0 010 3.125 1.564 1.564 0 01-1.563-1.562c0-.862.701-1.563 1.563-1.563zM18.769 33.474a1.564 1.564 0 01-1.562-1.563 1.564 1.564 0 013.125 0c0 .861-.701 1.563-1.563 1.563zm10.756-6.108a1.564 1.564 0 010-3.125 1.563 1.563 0 010 3.125zm10.755 6.108a1.564 1.564 0 01-1.562-1.563 1.564 1.564 0 013.125 0c0 .861-.701 1.563-1.563 1.563z" fill="#23A873"/><path d="M65.437 58.9H3.315a.972.972 0 01-.971-.97V9.583c0-.536.435-.971.97-.971H8.84a1.172 1.172 0 100-2.344H3.315A3.319 3.319 0 000 9.583V57.93a3.319 3.319 0 003.315 3.315h8.08v2.579a2.668 2.668 0 002.665 2.664h11.73L20.268 77.27a1.172 1.172 0 102.086 1.068l6.07-11.849H41.38l6.069 11.85a1.172 1.172 0 102.086-1.069l-5.522-10.78h11.73a2.667 2.667 0 002.665-2.666v-2.578h7.029a1.172 1.172 0 100-2.344zm-9.373 4.924a.32.32 0 01-.32.32H14.06a.321.321 0 01-.321-.32v-2.58h42.325v2.58z" fill="#055820"/><path d="M8.527 8.612h57.961c.536 0 .972.435.972.97v11.143a1.172 1.172 0 102.343 0V9.583a3.319 3.319 0 00-3.315-3.315H41.406V3.965a2.943 2.943 0 00-2.94-2.94h-7.128a2.943 2.943 0 00-2.94 2.94v2.303H8.528a1.172 1.172 0 100 2.344zm22.215-4.647c0-.33.267-.597.596-.597h7.128c.329 0 .596.268.596.597v2.303h-8.32V3.965z" fill="#055820"/><path d="M16.39 41.809a1.17 1.17 0 00-1.171 1.172v10.355c0 .647.524 1.172 1.172 1.172h4.754c.647 0 1.172-.525 1.172-1.172V42.98c0-.648-.525-1.172-1.172-1.172H16.39zm3.583 10.355h-2.41v-8.011h2.41v8.01zm7.173-16.344a1.17 1.17 0 00-1.171 1.172v16.344c0 .647.524 1.172 1.171 1.172h4.755c.647 0 1.172-.525 1.172-1.172V36.992c0-.648-.525-1.172-1.172-1.172h-4.755zm3.583 16.344h-2.41v-14h2.41v14zm7.173-10.355c-.647 0-1.172.524-1.172 1.172v10.355c0 .647.525 1.172 1.172 1.172h4.755c.647 0 1.171-.525 1.171-1.172V42.98a1.17 1.17 0 00-1.171-1.172h-4.755zm3.583 10.355h-2.41v-8.011h2.41v8.01zm7.173-3.44c-.647 0-1.172.524-1.172 1.172v3.44c0 .647.525 1.172 1.172 1.172h4.754a1.172 1.172 0 100-2.344H49.83v-2.269c0-.647-.525-1.171-1.172-1.171z" fill="#23A873"/><path d="M79.403 60.003L72.68 48.358a15.24 15.24 0 003.606-6.506 15.216 15.216 0 00-1.53-11.623c-4.223-7.314-13.609-9.829-20.923-5.606-7.314 4.223-9.829 13.609-5.606 20.923a15.217 15.217 0 009.3 7.136 15.4 15.4 0 003.99.529c1.162 0 2.318-.134 3.449-.398l6.721 11.644a4.456 4.456 0 007.716-4.454zm-21.27-9.584a12.89 12.89 0 01-7.877-6.045C46.68 38.18 48.81 30.23 55.005 26.653a12.892 12.892 0 016.464-1.736c4.487 0 8.857 2.327 11.257 6.484a12.885 12.885 0 011.296 9.844 12.888 12.888 0 01-6.044 7.878 12.888 12.888 0 01-9.844 1.296zm18.468 13.64a2.113 2.113 0 01-2.884-.773L67.25 52.082a15.556 15.556 0 001.9-.93 15.526 15.526 0 001.754-1.182l6.47 11.204c.185.322.283.687.283 1.054 0 .753-.405 1.454-1.056 1.83z" fill="#055820"/><path d="M72.116 41.19a11.09 11.09 0 00-.555-8.035 1.172 1.172 0 00-2.12 1 8.75 8.75 0 01.437 6.339 8.755 8.755 0 01-3.996 5 8.725 8.725 0 01-6.665.877 8.725 8.725 0 01-5.332-4.092c-2.422-4.194-.98-9.576 3.214-11.997a8.77 8.77 0 019.696.602 1.171 1.171 0 101.414-1.869 11.11 11.11 0 00-12.282-.763 11.054 11.054 0 00-5.184 6.756 11.054 11.054 0 001.112 8.443 11.054 11.054 0 006.756 5.184 11.06 11.06 0 008.443-1.112 11.09 11.09 0 005.062-6.334z" fill="#055820"/></svg>