<svg width="80" height="80" fill="none" xmlns="http://www.w3.org/2000/svg"><g clip-path="url(#clip0)"><path d="M72.216 58.459L58.452 49.28a4.017 4.017 0 00-5.379.874l-4.01 5.154a1.715 1.715 0 01-2.196.463l-.763-.42c-2.528-1.379-5.674-3.094-12.011-9.434-6.338-6.34-8.057-9.488-9.435-12.012l-.418-.762a1.716 1.716 0 01.453-2.205l5.151-4.008a4.02 4.02 0 00.875-5.38L21.54 7.787a3.996 3.996 0 00-5.387-1.213l-5.755 3.458a8.119 8.119 0 00-3.702 4.804c-2.072 7.552-.513 20.584 18.685 39.785 15.272 15.27 26.64 19.377 34.455 19.377 1.798.007 3.59-.227 5.326-.696a8.111 8.111 0 004.804-3.702l3.461-5.752a3.997 3.997 0 00-1.211-5.39zm-.741 4.226l-3.453 5.756a5.856 5.856 0 01-3.456 2.679c-6.972 1.914-19.15.328-37.582-18.103C8.554 34.587 6.968 22.408 8.882 15.436a5.865 5.865 0 012.682-3.46l5.756-3.454a1.734 1.734 0 012.337.526l4.986 7.486 4.185 6.276a1.744 1.744 0 01-.378 2.335l-5.153 4.008a3.966 3.966 0 00-1.05 5.09l.409.743c1.448 2.656 3.248 5.96 9.822 12.533 6.574 6.573 9.877 8.373 12.532 9.821l.744.41a3.966 3.966 0 005.09-1.05l4.008-5.152a1.745 1.745 0 012.335-.379l13.762 9.179a1.733 1.733 0 01.526 2.337z" fill="#23A873"/><path d="M52.464 37.736h4.533v5.666a1.133 1.133 0 001.934.801l6.467-6.467h5.197a3.4 3.4 0 003.4-3.4v-11.33a3.4 3.4 0 00-3.4-3.4H52.464a3.4 3.4 0 00-3.4 3.4v11.33a3.4 3.4 0 003.4 3.4zM51.33 23.005c0-.626.507-1.133 1.133-1.133h18.13c.626 0 1.134.507 1.134 1.133v11.332c0 .625-.508 1.133-1.134 1.133H64.93c-.301 0-.59.12-.802.332l-4.864 4.864v-4.063c0-.626-.508-1.133-1.133-1.133h-5.666a1.133 1.133 0 01-1.133-1.133V23.005z" fill="#055820"/><path d="M54.729 29.804h5.666a1.133 1.133 0 000-2.266h-5.666a1.133 1.133 0 100 2.266zm10.199 0h3.4a1.133 1.133 0 100-2.266h-3.4a1.133 1.133 0 100 2.266z" fill="#055820"/></g><defs><clipPath id="clip0"><path fill="#fff" transform="translate(6 6)" d="M0 0h68v68H0z"/></clipPath></defs></svg>