<svg width="80" height="80" fill="none" xmlns="http://www.w3.org/2000/svg"><path d="M79.596 54.377a11.125 11.125 0 00-14.056-2.023l-8.53 5.313c-1.462-4.469-5.622-7.612-10.416-7.676l-8.673-.176c-4.908-2.881-11.214-1.76-14.84 2.702-.935 1.15-1.701 2.235-2.288 3.239h-2.225v-1.177c0-.863-.7-1.562-1.562-1.562H1.562c-.862 0-1.562.7-1.562 1.562v18.457c0 .863.7 1.562 1.563 1.562h15.443c.863 0 1.562-.7 1.562-1.562v-2l21.451 4.71c1.457.326 2.938.487 4.41.487 3.718 0 7.386-1.023 10.493-2.984.12-.075 13.331-9.031 24.392-16.53a1.563 1.563 0 00.282-2.342zM15.443 71.473H3.125V56.142h12.318v15.331zm37.796-.857c-3.641 2.292-8.21 3.05-12.543 2.079l-22.128-4.859v-8.955h3.151c.59 0 1.13-.333 1.396-.86.52-1.033 1.325-2.222 2.39-3.534 2.72-3.345 7.5-4.12 11.119-1.803.242.155.523.24.81.246l9.107.185c3.436.046 6.415 2.285 7.483 5.474H35.125a1.562 1.562 0 100 3.125h20.85c.292 0 .578-.081.826-.236l10.381-6.465a7.995 7.995 0 018.715.246c-8.474 5.746-22.126 15-22.658 15.357z" fill="#055820"/><path d="M10.656 64.087c-.863 0-1.562.7-1.562 1.562v1.148a1.562 1.562 0 103.125 0v-1.148c0-.863-.7-1.563-1.563-1.563z" fill="#055820"/><path fill-rule="evenodd" clip-rule="evenodd" d="M57.79 45.205c8.412 0 15.232-6.82 15.232-15.233s-6.82-15.233-15.233-15.233-15.232 6.82-15.232 15.233 6.82 15.233 15.232 15.233zm18.67-15.233c0 10.311-8.36 18.67-18.67 18.67-10.312 0-18.67-8.359-18.67-18.67 0-10.311 8.358-18.67 18.67-18.67 10.31 0 18.67 8.359 18.67 18.67z" fill="#23A873"/><path d="M56.348 39.835v.22a1.563 1.563 0 003.125 0v-.1c3.453-.438 4.96-2.683 5.215-4.689.356-2.806-1.481-5.503-4.468-6.559a140.68 140.68 0 01-.747-.266v-5.02c.618.188 1.047.503 1.257.802a1.562 1.562 0 102.558-1.795c-.737-1.05-2.072-1.926-3.815-2.21v-.33a1.562 1.562 0 10-3.125 0v.448a10.1 10.1 0 00-.723.19c-1.96.59-3.44 2.495-3.6 4.631-.156 2.11.968 3.943 3.005 4.904.29.136.742.324 1.318.549v6.012c-.804-.24-1.542-.643-2.022-1.239a1.563 1.563 0 10-2.433 1.961c1.138 1.414 2.819 2.17 4.455 2.491zm5.24-4.962c-.125.979-.885 1.657-2.115 1.915v-5.02c1.632.7 2.245 2.073 2.114 3.105zm-6.446-9.484c.058-.777.563-1.518 1.206-1.804v3.642c-1.07-.511-1.247-1.281-1.206-1.838z" fill="#23A873"/><path fill-rule="evenodd" clip-rule="evenodd" d="M23.03 27.995c6.011 0 10.885-4.874 10.885-10.886S29.042 6.224 23.03 6.224s-10.886 4.873-10.886 10.885 4.874 10.886 10.886 10.886zm13.342-10.886c0 7.369-5.974 13.342-13.342 13.342-7.369 0-13.343-5.973-13.343-13.342 0-7.368 5.974-13.342 13.343-13.342 7.368 0 13.342 5.974 13.342 13.342z" fill="#23A873"/><path d="M22 24.158v.157a1.117 1.117 0 102.232 0v-.072c2.468-.312 3.545-1.917 3.727-3.35.255-2.006-1.058-3.933-3.192-4.687l-.534-.19v-3.589c.441.135.747.36.898.574a1.116 1.116 0 101.828-1.283c-.527-.75-1.481-1.376-2.727-1.58v-.235a1.117 1.117 0 10-2.233 0v.32a7.04 7.04 0 00-.516.136c-1.402.422-2.46 1.783-2.572 3.31-.112 1.507.69 2.817 2.147 3.504.206.097.53.232.941.392v4.296c-.574-.171-1.102-.459-1.444-.884a1.117 1.117 0 10-1.74 1.4c.814 1.011 2.015 1.551 3.184 1.78zm3.744-3.546c-.09.699-.632 1.184-1.512 1.368v-3.587c1.167.5 1.605 1.481 1.512 2.219zm-4.606-6.778c.04-.555.402-1.084.861-1.289v2.603c-.765-.365-.89-.916-.861-1.314z" fill="#23A873"/></svg>