<svg width="40" height="40" fill="none" xmlns="http://www.w3.org/2000/svg"><path d="M12.666 24a4 4 0 10-8 0 4 4 0 008 0zm-6.667 0a2.667 2.667 0 115.334 0 2.667 2.667 0 01-5.334 0zm26.667 0a4 4 0 10-8 0 4 4 0 008 0zm-6.667 0a2.667 2.667 0 115.334 0 2.667 2.667 0 01-5.334 0zM8.667 29.333A8.677 8.677 0 000 38v1.333c0 .369.299.667.667.667h16a.667.667 0 00.666-.667V38a8.677 8.677 0 00-8.666-8.667zM16 38.667H1.333V38A7.333 7.333 0 1116 38v.667zm12.667-9.334A8.677 8.677 0 0020 38v1.333c0 .369.299.667.667.667h16a.667.667 0 00.666-.667V38a8.677 8.677 0 00-8.666-8.667zM36 38.667H21.333V38A7.333 7.333 0 1136 38v.667z" fill="#23A873"/><path d="M39.333 4H22.667V.667A.667.667 0 0022 0H.667A.667.667 0 000 .667v10.666c0 .368.299.667.667.667h2.666v6a.667.667 0 001.238.343L8.377 12h8.956v3.333c0 .368.299.667.667.667h14.29l3.805 6.343A.666.666 0 0037.333 22v-6h2a.667.667 0 00.667-.667V4.667A.667.667 0 0039.333 4zM8 10.667a.666.666 0 00-.571.323l-2.762 4.603v-4.26A.667.667 0 004 10.667H1.333V1.333h20v9.334H8zm30.667 4h-2a.667.667 0 00-.667.666v4.26l-2.762-4.603a.667.667 0 00-.571-.323h-14V12H22a.667.667 0 00.667-.667v-6h16v9.334z" fill="#23A873"/></svg>