<svg width="40" height="40" fill="none" xmlns="http://www.w3.org/2000/svg"><path d="M6 32a2 2 0 11-4 0 2 2 0 014 0zm7.332-16a2 2 0 11-4 0 2 2 0 014 0zM38 32a2 2 0 11-4 0 2 2 0 014 0zM23.333 9.333a3.334 3.334 0 00-6.667 0V10h6.667v-.667zm16 29.334a3.333 3.333 0 00-6.667 0v.666h6.667v-.666zM22 2.667a2 2 0 11-4 0 2 2 0 014 0zm-7.333 20a3.333 3.333 0 00-6.667 0v.666h6.667v-.666zM.666 39.333h6.667v-.666a3.333 3.333 0 00-6.667 0v.666zm16 0h6.667v-.666a3.333 3.333 0 00-6.667 0v.666zM22 32a2 2 0 11-4 0 2 2 0 014 0zm8.666-16a2 2 0 11-4 0 2 2 0 014 0zm1.333 6.667a3.333 3.333 0 00-6.667 0v.666h6.667v-.666z" fill="#23A873"/><path d="M14.667 22.667a3.333 3.333 0 00-6.667 0v.666h6.667v-.666zm7.333-20a2 2 0 11-4 0 2 2 0 014 0zM6 32a2 2 0 11-4 0 2 2 0 014 0zm7.332-16a2 2 0 11-4 0 2 2 0 014 0zM22 32a2 2 0 11-4 0 2 2 0 014 0zm1.333-22.667a3.334 3.334 0 00-6.667 0V10h6.667v-.667zm-6.667 30h6.667v-.666a3.333 3.333 0 00-6.667 0v.666zm22.667-.666a3.333 3.333 0 00-6.667 0v.666h6.667v-.666zM38 32a2 2 0 11-4 0 2 2 0 014 0zM.666 39.333h6.667v-.666a3.333 3.333 0 00-6.667 0v.666zm31.333-16.666a3.333 3.333 0 00-6.667 0v.666h6.667v-.666zM30.666 16a2 2 0 11-4 0 2 2 0 014 0z" fill="#23A873"/><path opacity=".3" d="M22 2.667a2 2 0 11-4 0 2 2 0 014 0zm1.333 6.666a3.334 3.334 0 00-6.667 0V10h6.667v-.667zM13.332 16a2 2 0 11-4 0 2 2 0 014 0zm1.335 6.667a3.333 3.333 0 00-6.667 0v.666h6.667v-.666zM6 32a2 2 0 11-4 0 2 2 0 014 0zm1.333 6.667a3.333 3.333 0 00-6.667 0v.666h6.667v-.666zM22 32a2 2 0 11-4 0 2 2 0 014 0zm-5.334 7.333h6.667v-.666a3.333 3.333 0 00-6.667 0v.666zM38 32a2 2 0 11-4 0 2 2 0 014 0zm1.333 6.667a3.333 3.333 0 00-6.667 0v.666h6.667v-.666zM30.666 16a2 2 0 11-4 0 2 2 0 014 0zm1.333 6.667a3.333 3.333 0 00-6.667 0v.666h6.667v-.666z" fill="#23A873"/><path opacity=".3" d="M22.667 2.667a2.667 2.667 0 10-5.333 0 2.667 2.667 0 005.333 0zM20.001 4a1.333 1.333 0 110-2.667A1.333 1.333 0 0120 4z" fill="#23A873"/><path opacity=".3" d="M20 5.333a4.004 4.004 0 00-4 4V10c0 .368.299.667.667.667h6.666A.667.667 0 0024 10v-.667a4.004 4.004 0 00-4-4zm-2.667 4a2.667 2.667 0 015.334 0h-5.334zM14 16a2.667 2.667 0 10-5.334 0 2.667 2.667 0 005.333 0zm-2.667 1.333a1.333 1.333 0 110-2.666 1.333 1.333 0 010 2.666z" fill="#23A873"/><path opacity=".3" d="M11.334 18.667a4.004 4.004 0 00-4 4v.666c0 .369.298.667.667.667h6.666a.667.667 0 00.667-.667v-.666a4.004 4.004 0 00-4-4zm-2.667 4a2.667 2.667 0 015.334 0H8.667zm-2 9.333a2.667 2.667 0 10-5.333 0 2.667 2.667 0 005.333 0zm-2.666 1.333a1.333 1.333 0 110-2.666 1.333 1.333 0 010 2.666z" fill="#23A873"/><path opacity=".3" d="M4 34.667a4.004 4.004 0 00-4 4v.666c0 .369.299.667.667.667h6.666A.667.667 0 008 39.333v-.666a4.004 4.004 0 00-4-4zm-2.667 4a2.667 2.667 0 015.334 0H1.333zM22.667 32a2.667 2.667 0 10-5.333 0 2.667 2.667 0 005.333 0zm-2.666 1.333a1.333 1.333 0 110-2.666 1.333 1.333 0 010 2.666z" fill="#23A873"/><path opacity=".3" d="M20 34.667a4.004 4.004 0 00-4 4v.666c0 .369.299.667.667.667h6.666a.667.667 0 00.667-.667v-.666a4.004 4.004 0 00-4-4zm-2.667 4a2.667 2.667 0 015.334 0h-5.334zM38.667 32a2.667 2.667 0 10-5.333 0 2.667 2.667 0 005.333 0zm-2.666 1.333a1.333 1.333 0 110-2.666 1.333 1.333 0 010 2.666z" fill="#23A873"/><path opacity=".3" d="M36 34.667a4.004 4.004 0 00-4 4v.666c0 .369.298.667.667.667h6.666a.667.667 0 00.667-.667v-.666a4.004 4.004 0 00-4-4zm-2.667 4a2.667 2.667 0 015.334 0h-5.334zm-2-22.667A2.667 2.667 0 1026 16a2.667 2.667 0 005.333 0zm-2.666 1.333a1.333 1.333 0 110-2.666 1.333 1.333 0 010 2.666z" fill="#23A873"/><path opacity=".3" d="M32 24a.667.667 0 00.666-.667v-.666a4 4 0 00-8 0v.666c0 .369.299.667.667.667h6.666zm-3.334-4a2.667 2.667 0 012.667 2.667h-5.334A2.667 2.667 0 0128.666 20z" fill="#23A873"/><path d="M20 11.333a.667.667 0 00-.666.667v3.057l-2.471 2.472a.667.667 0 00.943.942L20 16.276l2.195 2.195a.667.667 0 00.943-.942l-2.471-2.472V12a.667.667 0 00-.667-.667zM12.002 28.39v-3.057a.667.667 0 00-1.334 0v3.058l-2.471 2.47a.667.667 0 00.943.944l2.195-2.196 2.195 2.196a.667.667 0 00.943-.943l-2.471-2.471zm19.803 2.472l-2.471-2.471v-3.058a.667.667 0 00-1.334 0v3.058l-2.471 2.47a.667.667 0 00.943.944l2.195-2.196 2.195 2.196a.667.667 0 00.943-.943z" fill="#23A873"/></svg>