<svg width="40" height="40" fill="none" xmlns="http://www.w3.org/2000/svg"><path opacity=".3" d="M28.666.667H11.333a2.667 2.667 0 00-2.667 2.666v1.334h22.667V3.333A2.667 2.667 0 0028.666.667zm0 38.333H11.333a2.667 2.667 0 01-2.667-2.667V35h22.667v1.333A2.667 2.667 0 0128.666 39zM16 26.933v-2.266a4 4 0 014-4 4.006 4.006 0 014 4v2.266a8.012 8.012 0 002.38-11.766 3.333 3.333 0 01-4.366-2.907A8 8 0 0016 26.933zm4-11.6a2 2 0 110 4 2 2 0 010-4z" fill="#23A873"/><path d="M28.667 0H11.333A3.337 3.337 0 008 3.333v33.334A3.337 3.337 0 0011.333 40h17.334A3.337 3.337 0 0032 36.667V3.333A3.337 3.337 0 0028.667 0zM11.333 1.333h17.334a2 2 0 012 2V4H9.333v-.667a2 2 0 012-2zm17.334 37.334H11.333a2 2 0 01-2-2V36H28v-1.333H9.333V5.333h21.334v29.334H22V36h8.667v.667a2 2 0 01-2 2z" fill="#23A873"/><path d="M22.667 17.333a2.667 2.667 0 10-5.333 0 2.667 2.667 0 005.333 0zm-2.666 1.334A1.333 1.333 0 1120 16a1.333 1.333 0 010 2.667z" fill="#23A873"/><path d="M24.334 27.51l.334-.192v-.015a8.7 8.7 0 004-7.303 8.6 8.6 0 00-1.3-4.567 3.995 3.995 0 10-5.992-3.978A8.538 8.538 0 0020 11.333a8.667 8.667 0 00-4.667 15.97v.015l.334.193a8.703 8.703 0 008.666 0zm-6.378-.482a7.232 7.232 0 01-.667-.22c-.098-.037-.193-.082-.29-.125a5.479 5.479 0 01-.333-.164v-1.852A3.337 3.337 0 0120 21.333a3.34 3.34 0 013.333 3.334v1.852c-.111.057-.222.115-.333.164-.096.043-.192.088-.29.126a7.243 7.243 0 01-.663.219c-.067.018-.128.04-.191.056a7.644 7.644 0 01-3.707 0c-.065-.017-.129-.038-.193-.056zm7.378-17.695a2.667 2.667 0 11-.506 5.284 2.679 2.679 0 01-2.149-2.409 2.48 2.48 0 01-.011-.208 2.667 2.667 0 012.666-2.667zM12.668 20a7.342 7.342 0 018.75-7.196c.005.019.013.035.017.053.043.202.103.4.177.592l.023.054c.079.193.173.38.28.56l.01.015c.108.176.231.344.367.5.015.02.03.04.046.058a3.987 3.987 0 00.498.474 4.05 4.05 0 001.1.633l.088.03c.192.07.39.123.59.16l.064.01c.403.073.816.077 1.221.013l.11-.016c.036-.007.063-.007.094-.013A7.275 7.275 0 0127.334 20a7.356 7.356 0 01-2.666 5.644v-.977A4.673 4.673 0 0020 20a4.673 4.673 0 00-4.667 4.667v.977A7.356 7.356 0 0112.668 20z" fill="#23A873"/><path d="M24.667 14h1.334v-1.333h1.333v-1.334h-1.333V10h-1.334v1.333h-1.333v1.334h1.333V14z" fill="#23A873"/></svg>