<svg width="40" height="40" fill="none" xmlns="http://www.w3.org/2000/svg"><g clip-path="url(#clip0)" fill="#23A873"><path opacity=".3" d="M17.038 6.67a16.24 16.24 0 00-8.177 2.192 16.296 16.296 0 1021.087 24.05 16.174 16.174 0 003.385-9.947c0-9-7.296-16.295-16.295-16.295z"/><path d="M11.725 33.557a11.676 11.676 0 01-3.068-2.212 11.44 11.44 0 01-1.728-2.199.74.74 0 10-1.27.763 12.949 12.949 0 001.95 2.484 13.13 13.13 0 003.458 2.492.741.741 0 00.658-1.328zm5.313-3.926a2.963 2.963 0 01-2.963-2.962h-1.481a4.448 4.448 0 003.703 4.377v1.548h1.482v-1.548a4.444 4.444 0 00-.741-8.822A2.963 2.963 0 1120 19.262h1.481a4.45 4.45 0 00-3.703-4.378v-1.548h-1.482v1.548a4.444 4.444 0 00.74 8.822 2.963 2.963 0 010 5.925zm14.995-19.487a.741.741 0 001.146-.939 17.254 17.254 0 00-2.342-2.348.743.743 0 00-.943 1.146c.78.644 1.496 1.36 2.139 2.141z"/><path d="M26.465 13.538a13.323 13.323 0 00-20.352 1.788A13.27 13.27 0 004.23 26.634a.74.74 0 101.425-.405 11.846 11.846 0 0119.762-11.643 11.795 11.795 0 01.398 16.341c-.012.01-.023.023-.034.034l-.014.013c-.008.01-.018.017-.026.026a6.42 6.42 0 01-.325.344 11.851 11.851 0 01-10.675 3.242.74.74 0 10-.288 1.453 13.332 13.332 0 0012.014-3.646c.116-.115.222-.23.33-.347a.74.74 0 00.054-.053c4.868-5.25 4.697-13.413-.386-18.455z"/><path d="M39.999 17.04A17.036 17.036 0 009.516 6.575a16.659 16.659 0 00-2.951 2.952 17.035 17.035 0 1023.91 23.91 16.998 16.998 0 002.963-2.971 16.928 16.928 0 006.56-13.427zm-1.482 0a15.424 15.424 0 01-2.273 8.09 17.03 17.03 0 00-1.493-13.654.74.74 0 10-1.281.74 15.538 15.538 0 01-.19 15.869 17.02 17.02 0 00-21.368-21.36A15.374 15.374 0 0120 4.447c2.758-.002 5.466.73 7.847 2.12a.74.74 0 00.745-1.278 17.045 17.045 0 00-13.75-1.524A15.561 15.561 0 0138.518 17.04zm-21.48 21.48a15.554 15.554 0 01-9.492-27.88c.537-.415 1.1-.794 1.687-1.137A15.565 15.565 0 0130.501 30.77a15.614 15.614 0 01-13.463 7.75z"/></g><defs><clipPath id="clip0"><path fill="#fff" d="M0 0h40v40H0z"/></clipPath></defs></svg>