<svg width="114" height="122" fill="none" xmlns="http://www.w3.org/2000/svg"><g opacity=".5" clip-path="url(#clip0)" fill="#A0A0A0"><path d="M27.87 69.087c-1.644.914-2.557 2.188-2.573 3.589-.016 1.4.872 2.696 2.492 3.646 1.552.91 3.602 1.41 5.785 1.41 2.054 0 3.996-.456 5.475-1.274 1.644-.906 2.557-2.189 2.573-3.59.012-1.4-.868-2.696-2.492-3.646-1.548-.91-3.602-1.41-5.785-1.41-2.054.005-4 .456-5.475 1.275zm11.834 2.123c.49.516.76 1.09.752 1.65-.008.674-.406 1.348-1.122 1.93-.237.197-.51.376-.82.547-1.314.731-3.07 1.134-4.944 1.134-.712 0-1.419-.061-2.09-.18l-.181-.034-.459-.092-.176-.044a8.376 8.376 0 01-.587-.162h-.008a16.956 16.956 0 01-.555-.193l-.165-.065-.382-.167-.152-.07-.483-.258c-1.206-.71-1.89-1.624-1.881-2.521.008-.898.715-1.8 1.937-2.478 1.315-.73 3.072-1.134 4.949-1.134 1.966 0 3.871.456 5.234 1.261a5.14 5.14 0 011.133.876zM80.7 51.586c1.796 0 3.508-.346 4.895-.98a8.13 8.13 0 00.575-.29c1.64-.91 2.557-2.184 2.569-3.589l-.008-.245v-.017c-.093-1.3-.965-2.495-2.484-3.384-1.552-.91-3.606-1.414-5.785-1.414-2.054 0-4 .456-5.475 1.274-1.644.91-2.557 2.184-2.569 3.59-.016 1.4.868 2.696 2.492 3.646 1.548.91 3.606 1.41 5.79 1.41zm-7.12-5.038c.012-.898.716-1.8 1.938-2.478 1.318-.73 3.075-1.133 4.948-1.133 1.966 0 3.875.455 5.238 1.26.301.18.567.368.804.565.695.604 1.085 1.282 1.073 1.957-.008.897-.715 1.799-1.933 2.477-1.319.731-3.076 1.134-4.949 1.134-1.966 0-3.871-.46-5.234-1.26-1.206-.71-1.893-1.63-1.885-2.522z"/><path d="M113.964 49.38l-.04-.096-.036-.057-.057-.079-.048-.048-.056-.048-.016-.009-.016-.013-36.36-21.322a41.17 41.17 0 00.442-5.97c-.02-7.59-2.517-13.303-6.69-16.056l-.12-.105h-.004l-5.487-3.471C63.663.963 61.585.376 59.31.376c-3.236 0-6.714 1.156-10.324 3.424-12.493 7.857-22.62 26.955-22.575 42.582.008 2.906.362 5.537 1.037 7.835L.354 69.244l-.012.013-.02.009-.053.048-.052.044-.056.074-.036.053-.045.1-.016.053-.024.158v.008L0 74.002a.645.645 0 00.306.565l6.146 3.602-6.098 3.38-.012.008-.02.01-.053.043-.052.048-.056.075-.036.052-.045.1-.016.058-.024.157v.013L0 86.303a.645.645 0 00.306.564l6.665 3.909-6.617 3.668-.012.009-.02.009-.053.043-.052.049-.056.078-.036.053-.045.096-.016.053-.024.162V95L0 99.198a.64.64 0 00.306.564l37.127 21.769.08.03.045.022.149.022.144-.022.045-.017.08-.031 75.674-41.982a.643.643 0 00.318-.56l.044-4.198-.02-.167-.016-.052-.04-.101-.036-.057-.057-.079-.048-.043-.056-.049-.016-.004-.016-.013-6.669-3.91 6.612-3.672a.63.63 0 00.318-.555l.044-4.198-.02-.167-.016-.052-.04-.1-.036-.053-.057-.08-.048-.043-.056-.052-.016-.01-.016-.008-6.151-3.607 6.098-3.38a.63.63 0 00.318-.555l.044-4.198-.02-.166-.032-.044zM66.473 5.24l.478.079.193.039c.181.04.362.079.543.131l.109.027a10.1 10.1 0 012.584 1.155l.037.018c3.903 2.486 6.174 7.796 6.198 15.053.04 15.229-9.828 33.836-21.997 41.488-3.437 2.158-6.713 3.257-9.744 3.257-2.066 0-3.911-.521-5.491-1.493l-.14-.097c-1.223-.787-2.284-1.842-3.156-3.13l-.065-.091c-.16-.24-.317-.49-.462-.744l-.016-.03c-.14-.246-.273-.5-.402-.763l-.133-.28-.245-.538-.137-.32c-.1-.25-.2-.507-.293-.774l-.129-.39-.156-.503-.125-.438a21.787 21.787 0 01-.153-.609l-.128-.56c-.045-.223-.093-.45-.137-.678l-.072-.42a18.838 18.838 0 01-.101-.688l-.052-.359c-.04-.341-.077-.687-.109-1.041l-.02-.311c-.02-.285-.04-.57-.056-.863l-.012-.337a28.25 28.25 0 01-.024-1.177C33.02 34.629 42.888 16.02 55.052 8.37c3.438-2.158 6.718-3.257 9.745-3.257l.165.004c.184.005.365.009.546.018l.266.022.454.048.245.035zM44.874 67.75c.294 0 .591-.017.889-.035 3.227 1.576 7.255 2.43 11.517 2.43 3.975 0 7.758-.757 10.817-2.158.221-.1.434-.201.647-.31.213-.106.418-.22.62-.33 3.472-1.93 5.402-4.57 5.43-7.432a6.658 6.658 0 00-.752-3.12c-.84-1.664-2.375-3.183-4.514-4.44a19.337 19.337 0 00-1.672-.857c3.658-5.42 6.548-11.661 8.245-17.92L104.18 50.04 75.984 65.685 38.78 86.325 9.857 69.361l19.488-10.807c1.037 1.668 2.332 3.02 3.871 3.992l5.492 3.475.136.062c1.745 1.085 3.77 1.667 6.03 1.667zm23.167-1.116l-.205.097c-.27.127-.535.25-.816.363a21.04 21.04 0 01-2.103.74l-.751.21-.29.07c-.18.048-.366.087-.55.131l-.322.07c-.185.04-.374.075-.567.114l-.301.052c-.266.044-.54.092-.809.127l-.112.018c-.273.035-.555.07-.832.096l-.302.03c-.205.023-.41.04-.619.058l-.33.022a26.3 26.3 0 01-.63.03l-.298.018c-.305.009-.615.013-.925.013h-.036c-3.272-.004-6.395-.53-9.089-1.51 2.264-.508 4.623-1.523 7.043-3.047 4.382-2.753 8.47-6.903 11.94-11.788.647.28 1.261.596 1.844.937 3.023 1.773 4.675 4.058 4.651 6.43-.024 2.373-1.728 4.623-4.795 6.325-.258.127-.527.263-.796.394zM27.838 55.416c.149.416.313.81.482 1.195L6.424 68.763a.657.657 0 00-.012 1.12l32.07 18.81.274.074.265-.07 68.588-38.052a.64.64 0 00.317-.56.653.653 0 00-.305-.565L76.647 31.354c.177-.779.334-1.558.475-2.337l35.045 20.556-74.416 41.295L1.873 69.826l25.965-14.41zM37.892 96.37l.08-.03L64.72 81.495a21.082 21.082 0 004.02-1.514c.213-.106.418-.215.62-.329 1.382-.766 2.516-1.646 3.388-2.609l29.028-16.103 2.4 1.405-29.02 16.1-36.38 20.183L9.853 81.667l1.314-.727 26.258 15.4.08.03.045.018.149.021.144-.021.049-.018zm0 12.305l.08-.031 24.92-13.828c.57-.11 1.129-.236 1.68-.38 1.752-.465 3.372-1.095 4.795-1.887 1.87-1.033 3.289-2.28 4.205-3.66l27.689-15.36 2.923 1.712-28.196 15.644-37.204 20.644L9.861 94.571l1.833-1.02 25.74 15.089.08.035.044.021.149.022.144-.022.04-.021zm74.279-33.898l-74.42 41.291L1.873 95.022l6.34-3.52 1.282.749-3.067 1.703a.642.642 0 00-.322.556c0 .236.12.455.31.564l32.07 18.805.274.075.265-.071 68.588-38.042a.63.63 0 00.317-.556.648.648 0 00-.305-.565l-4.141-2.425 2.287-1.27 6.4 3.752zm0-12.895l-74.42 41.29L1.873 82.126l5.821-3.23 1.283.753-2.553 1.414a.657.657 0 00-.012 1.12l32.07 18.805.274.079.265-.07 68.588-38.056a.632.632 0 00.317-.556.653.653 0 00-.305-.565l-3.622-2.123 2.287-1.27 5.885 3.455z"/><path d="M54.49 13.666a26.58 26.58 0 00-2.665 1.93c-.526.434-1.04.889-1.556 1.37-7.63 7.17-13.29 19.4-13.261 29.687.02 8.474 4.004 13.95 10.142 13.95h.004c.281 0 .559-.013.844-.035l.073-.008c.269-.022.542-.057.816-.097l.108-.017c.266-.044.539-.101.808-.162l.133-.03c.265-.067.538-.137.808-.224l.136-.044c.27-.087.547-.18.817-.284l.136-.053c.278-.11.559-.228.836-.35l.117-.053c.29-.135.583-.276.872-.429l.077-.04c.301-.157.61-.327.92-.511v-.005l.527-.32c9.672-6.084 17.522-20.874 17.486-32.986-.02-8.475-4.004-13.946-10.146-13.946-2.52-.005-5.222.889-8.032 2.657zm17.02 11.289c.029 10.243-5.78 22.473-13.494 29.306a26.483 26.483 0 01-3.417 2.578c-2.63 1.654-5.133 2.495-7.453 2.495-5.52 0-8.964-4.863-8.984-12.69-.029-11.7 7.557-26.005 16.911-31.88 2.63-1.654 5.142-2.494 7.453-2.494 5.52-.005 8.964 4.858 8.985 12.685z"/><path d="M61.42 34.458a4.008 4.008 0 00-1.258-1.033c-.587-.306-1.278-.481-2.022-.516a6.337 6.337 0 00-.763 0 7.237 7.237 0 00-.611.07l-.029-10.138a1.82 1.82 0 01.631.079c.732.232 1.07.923 1.223 1.462.18.643.659 1.041 1.246 1.041.29 0 .59-.096.896-.288l.487-.39c.892-.893 1.35-2.324 1.065-3.322-.499-1.76-1.552-2.981-2.967-3.432l-.35-.092c-.755-.17-1.587-.127-2.452.131a1.272 1.272 0 00-.767-.67l-.346-.048c-.294 0-.595.097-.897.29-.788.494-1.427 1.54-1.592 2.569l-.522.499c-1.206 1.19-2.296 2.687-3.188 4.368-1.407 2.653-2.183 5.503-2.175 8.028.004 1.33.274 2.513.776 3.414.354.635.82 1.156 1.391 1.541.748.512 1.648.784 2.673.814.346.005.692-.008 1.045-.056l.025 10.107a1.88 1.88 0 01-.776-.132l-.241-.135-.121-.092-.08-.07-.141-.15-.032-.039-.145-.197-.008-.017-.129-.236-.012-.022-.096-.245-.02-.057-.069-.241-.02-.079-.06-.31c-.129-.78-.635-1.283-1.302-1.283-.294 0-.595.1-.893.284l-.305.228a3.59 3.59 0 00-.603.678c-.535.775-.825 1.773-.696 2.57.334 2.105 1.335 3.615 2.814 4.25l.362.136c.366.118.756.18 1.166.192a5.4 5.4 0 001.692-.25c.237.382.615.605 1.057.605.21 0 .422-.048.64-.149l.028-.013.225-.118c.743-.468 1.362-1.44 1.567-2.425a16.265 16.265 0 002.477-2.828 19.58 19.58 0 001.258-2.062c1.407-2.657 2.183-5.502 2.175-8.023 0-1.51-.314-2.806-.9-3.743l-.33-.455zm-4.626 11.644l-.02-8.16.474.057c.486.097.86.307 1.105.635.133.18.234.39.306.648.084.306.129.657.129 1.081.004 1.4-.435 3.003-1.235 4.509-.229.429-.486.849-.76 1.23zm-3.896-12.318c-.558-.057-1.033-.25-1.362-.56a1.85 1.85 0 01-.47-.718c-.121-.32-.182-.696-.182-1.138 0-1.397.435-2.999 1.234-4.509.23-.433.487-.845.76-1.234l.02 8.159z"/></g><defs><clipPath id="clip0"><path fill="#fff" transform="translate(0 .377)" d="M0 0h114v121.228H0z"/></clipPath></defs></svg>