<svg width="555" height="442" fill="none" xmlns="http://www.w3.org/2000/svg"><g filter="url(#filter0_d)"><path d="M65 236l6.5 22.5c26.5 2 89.2-2.3 120-9.5l3-22" stroke="#EBE0F1" stroke-width="6" stroke-linecap="round" stroke-linejoin="round"/></g><g filter="url(#filter1_d)"><path d="M235.206 231.863l4.481 19.998c22.977 3.133 77.815 2.655 105.021-2.025l3.767-19.064" stroke="#EBE0F1" stroke-width="6" stroke-linecap="round" stroke-linejoin="round"/></g><g filter="url(#filter2_d)"><path d="M370.155 227.708l1.484 20.439c22.263 6.487 76.573 14.101 104.171 13.484l6.537-18.301" stroke="#EBE0F1" stroke-width="6" stroke-linecap="round" stroke-linejoin="round"/></g><g filter="url(#filter3_d)"><path d="M342.65 279.437c13.607-1.29 45.597-2.471 64.701 3.127" stroke="#EBE0F1" stroke-width="6" stroke-linecap="round" stroke-linejoin="round"/></g><g filter="url(#filter4_d)"><path d="M56 256c-10.5 4.833-33.4 22.1-41 52.5C33.167 296 80.6 271.6 125 274" stroke="#EBE0F1" stroke-width="6" stroke-linecap="round" stroke-linejoin="round"/></g><g filter="url(#filter5_d)"><path d="M499 263c10.5 4.833 33.4 22.1 41 52.5-18.167-12.5-65.6-36.9-110-34.5" stroke="#EBE0F1" stroke-width="6" stroke-linecap="round" stroke-linejoin="round"/></g><g filter="url(#filter6_d)"><path d="M258 280.5c10.167 6.667 23 23.5 27.5 46.5 16.5-10.5 34.1-26.6 38.5-51" stroke="#EBE0F1" stroke-width="6" stroke-linecap="round" stroke-linejoin="round"/></g><g filter="url(#filter7_d)"><path d="M49 160c20.908-44.241 84.77-145.475 212.066-144.998 21.182.079 40.44 2.116 57.934 5.667M480 160c-7.157-25.806-39.09-98.22-127-129.872" stroke="#EBE0F1" stroke-width="6" stroke-linecap="round" stroke-linejoin="round"/></g><g filter="url(#filter8_d)"><path d="M41 222.074c15.507 0 18.953-38.074 42.213-38.074 23.259 0 15.506 38.074 48.242 38.074 32.737 0 30.152-38.073 56.858-38.074 26.706-.001 24.983 38.074 53.412 38.074 28.429-.001 24.983-38.074 51.689-38.074s18.952 38.073 49.104 38.073c31.875 0 19.814-38.073 49.966-38.073s24.983 38.073 55.996 38.073c34.459 0 10.338-38.073 46.52-38.073M56.478 362.354c1.436 29.709 9.501 55.26 53.314 61.437 110.64 3.352 333.488 5.37 348.258-.643 18.917-7.703 23.242-15.465 30.096-60.794" stroke="#EBE0F1" stroke-width="6" stroke-linecap="round" stroke-linejoin="round"/></g><g filter="url(#filter9_d)"><path d="M46 311c-12.334 10.333-19.8 30.5 49 28.5 85.999-2.5 381 19.5 406 0 6.667-4.333 16-16.1 0-28.5" stroke="#EBE0F1" stroke-width="6" stroke-linecap="round" stroke-linejoin="round"/></g><g filter="url(#filter10_d)"><path d="M149 276.076c17.217-2.198 59.329-4.704 90.043 2.853" stroke="#EBE0F1" stroke-width="6" stroke-linecap="round" stroke-linejoin="round"/></g><defs><filter id="filter0_d" x="49.999" y="212" width="159.501" height="61.991" filterUnits="userSpaceOnUse" color-interpolation-filters="sRGB"><feFlood flood-opacity="0" result="BackgroundImageFix"/><feColorMatrix in="SourceAlpha" values="0 0 0 0 0 0 0 0 0 0 0 0 0 0 0 0 0 0 127 0"/><feOffset/><feGaussianBlur stdDeviation="6"/><feColorMatrix values="0 0 0 0 0.701961 0 0 0 0 0.27451 0 0 0 0 0.909804 0 0 0 1 0"/><feBlend in2="BackgroundImageFix" result="effect1_dropShadow"/><feBlend in="SourceGraphic" in2="effect1_dropShadow" result="shape"/></filter><filter id="filter1_d" x="218.824" y="208.825" width="144.825" height="65.071" filterUnits="userSpaceOnUse" color-interpolation-filters="sRGB"><feFlood flood-opacity="0" result="BackgroundImageFix"/><feColorMatrix in="SourceAlpha" values="0 0 0 0 0 0 0 0 0 0 0 0 0 0 0 0 0 0 127 0"/><feOffset/><feGaussianBlur stdDeviation="6"/><feColorMatrix values="0 0 0 0 0.701961 0 0 0 0 0.27451 0 0 0 0 0.909804 0 0 0 1 0"/><feBlend in2="BackgroundImageFix" result="effect1_dropShadow"/><feBlend in="SourceGraphic" in2="effect1_dropShadow" result="shape"/></filter><filter id="filter2_d" x="350.444" y="204.445" width="147.457" height="81.837" filterUnits="userSpaceOnUse" color-interpolation-filters="sRGB"><feFlood flood-opacity="0" result="BackgroundImageFix"/><feColorMatrix in="SourceAlpha" values="0 0 0 0 0 0 0 0 0 0 0 0 0 0 0 0 0 0 127 0"/><feOffset/><feGaussianBlur stdDeviation="6"/><feColorMatrix values="0 0 0 0 0.701961 0 0 0 0 0.27451 0 0 0 0 0.909804 0 0 0 1 0"/><feBlend in2="BackgroundImageFix" result="effect1_dropShadow"/><feBlend in="SourceGraphic" in2="effect1_dropShadow" result="shape"/></filter><filter id="filter3_d" x="327.348" y="257.318" width="95.307" height="47.365" filterUnits="userSpaceOnUse" color-interpolation-filters="sRGB"><feFlood flood-opacity="0" result="BackgroundImageFix"/><feColorMatrix in="SourceAlpha" values="0 0 0 0 0 0 0 0 0 0 0 0 0 0 0 0 0 0 127 0"/><feOffset/><feGaussianBlur stdDeviation="6"/><feColorMatrix values="0 0 0 0 0.701961 0 0 0 0 0.27451 0 0 0 0 0.909804 0 0 0 1 0"/><feBlend in2="BackgroundImageFix" result="effect1_dropShadow"/><feBlend in="SourceGraphic" in2="effect1_dropShadow" result="shape"/></filter><filter id="filter4_d" x="0" y="240.999" width="140" height="82.501" filterUnits="userSpaceOnUse" color-interpolation-filters="sRGB"><feFlood flood-opacity="0" result="BackgroundImageFix"/><feColorMatrix in="SourceAlpha" values="0 0 0 0 0 0 0 0 0 0 0 0 0 0 0 0 0 0 127 0"/><feOffset/><feGaussianBlur stdDeviation="6"/><feColorMatrix values="0 0 0 0 0.701961 0 0 0 0 0.27451 0 0 0 0 0.909804 0 0 0 1 0"/><feBlend in2="BackgroundImageFix" result="effect1_dropShadow"/><feBlend in="SourceGraphic" in2="effect1_dropShadow" result="shape"/></filter><filter id="filter5_d" x="415" y="247.999" width="140" height="82.501" filterUnits="userSpaceOnUse" color-interpolation-filters="sRGB"><feFlood flood-opacity="0" result="BackgroundImageFix"/><feColorMatrix in="SourceAlpha" values="0 0 0 0 0 0 0 0 0 0 0 0 0 0 0 0 0 0 127 0"/><feOffset/><feGaussianBlur stdDeviation="6"/><feColorMatrix values="0 0 0 0 0.701961 0 0 0 0 0.27451 0 0 0 0 0.909804 0 0 0 1 0"/><feBlend in2="BackgroundImageFix" result="effect1_dropShadow"/><feBlend in="SourceGraphic" in2="effect1_dropShadow" result="shape"/></filter><filter id="filter6_d" x="243" y="260.999" width="96.001" height="81.001" filterUnits="userSpaceOnUse" color-interpolation-filters="sRGB"><feFlood flood-opacity="0" result="BackgroundImageFix"/><feColorMatrix in="SourceAlpha" values="0 0 0 0 0 0 0 0 0 0 0 0 0 0 0 0 0 0 127 0"/><feOffset/><feGaussianBlur stdDeviation="6"/><feColorMatrix values="0 0 0 0 0.701961 0 0 0 0 0.27451 0 0 0 0 0.909804 0 0 0 1 0"/><feBlend in2="BackgroundImageFix" result="effect1_dropShadow"/><feBlend in="SourceGraphic" in2="effect1_dropShadow" result="shape"/></filter><filter id="filter7_d" x="33.999" y="0" width="461.001" height="175.001" filterUnits="userSpaceOnUse" color-interpolation-filters="sRGB"><feFlood flood-opacity="0" result="BackgroundImageFix"/><feColorMatrix in="SourceAlpha" values="0 0 0 0 0 0 0 0 0 0 0 0 0 0 0 0 0 0 127 0"/><feOffset/><feGaussianBlur stdDeviation="6"/><feColorMatrix values="0 0 0 0 0.701961 0 0 0 0 0.27451 0 0 0 0 0.909804 0 0 0 1 0"/><feBlend in2="BackgroundImageFix" result="effect1_dropShadow"/><feBlend in="SourceGraphic" in2="effect1_dropShadow" result="shape"/></filter><filter id="filter8_d" x="26" y="169" width="484" height="273" filterUnits="userSpaceOnUse" color-interpolation-filters="sRGB"><feFlood flood-opacity="0" result="BackgroundImageFix"/><feColorMatrix in="SourceAlpha" values="0 0 0 0 0 0 0 0 0 0 0 0 0 0 0 0 0 0 127 0"/><feOffset/><feGaussianBlur stdDeviation="6"/><feColorMatrix values="0 0 0 0 0.701961 0 0 0 0 0.27451 0 0 0 0 0.909804 0 0 0 1 0"/><feBlend in2="BackgroundImageFix" result="effect1_dropShadow"/><feBlend in="SourceGraphic" in2="effect1_dropShadow" result="shape"/></filter><filter id="filter9_d" x="22.9" y="296" width="501.937" height="66.637" filterUnits="userSpaceOnUse" color-interpolation-filters="sRGB"><feFlood flood-opacity="0" result="BackgroundImageFix"/><feColorMatrix in="SourceAlpha" values="0 0 0 0 0 0 0 0 0 0 0 0 0 0 0 0 0 0 127 0"/><feOffset/><feGaussianBlur stdDeviation="6"/><feColorMatrix values="0 0 0 0 0.701961 0 0 0 0 0.27451 0 0 0 0 0.909804 0 0 0 1 0"/><feBlend in2="BackgroundImageFix" result="effect1_dropShadow"/><feBlend in="SourceGraphic" in2="effect1_dropShadow" result="shape"/></filter><filter id="filter10_d" x="133.779" y="254.781" width="120.643" height="43.356" filterUnits="userSpaceOnUse" color-interpolation-filters="sRGB"><feFlood flood-opacity="0" result="BackgroundImageFix"/><feColorMatrix in="SourceAlpha" values="0 0 0 0 0 0 0 0 0 0 0 0 0 0 0 0 0 0 127 0"/><feOffset/><feGaussianBlur stdDeviation="6"/><feColorMatrix values="0 0 0 0 0.701961 0 0 0 0 0.27451 0 0 0 0 0.909804 0 0 0 1 0"/><feBlend in2="BackgroundImageFix" result="effect1_dropShadow"/><feBlend in="SourceGraphic" in2="effect1_dropShadow" result="shape"/></filter></defs></svg>