<svg width="320" height="521" fill="none" xmlns="http://www.w3.org/2000/svg"><g filter="url(#filter0_d)"><path d="M85.5 163c-12.5-6-27.875 2.753-13.5 31.5 17.5 35 69.5 118.5 95.5 147.5 26.115 29.128 82 84 124.5 115 35 25.529-9 60.5-77.001 38.5" stroke="#EBE0F1" stroke-width="6" stroke-linecap="round" stroke-linejoin="round"/></g><g filter="url(#filter1_d)"><path d="M129 15h51.265c0 11.794-6.038 36.98-30.19 43.372v19.974h63.797c1.139 6.849-9.228 22.143-59.809 28.535v49.649c6.076 4.566 16.404 18.034 9.113 35.383 16.899 10.463 39.987 40.405-2.848 76.472 3.038 5.897 18 24.654 53.544 52.503 10.253 9.321 29.05 32.612 29.05 54.786.287 6.33-.585 16.076-3.053 25.826M129.57 505.791c44.201 1.826 59.808-8.751 60.948-14.267-7.747-13.697-12.342-20.545-13.671-22.257 20.962-12.784 42.531-33.48 50.695-42.231 1.909-2.046 3.615-4.427 5.131-7.036" stroke="#EBE0F1" stroke-width="6" stroke-linecap="round" stroke-linejoin="round"/></g><g filter="url(#filter2_d)"><path d="M129.506 15H78.014c0 11.794 6.064 36.98 30.323 43.372v19.974h-64.08c-1.144 6.849 9.27 22.143 60.075 28.535v49.649c-6.103 4.566-16.477 18.034-9.154 35.383-3.096 1.908-6.398 4.464-9.468 7.587M130 505.791c-44.398 1.826-61.14-8.751-62.285-14.267 7.781-13.697 12.397-20.545 13.732-22.257-21.055-12.784-42.72-33.48-50.92-42.231-13.732-10.957-16.02-38.807-15.448-51.362-1.373-21.458 18.88-45.465 29.179-54.786 35.701-27.849 50.73-46.606 53.78-52.503C74.536 248.682 70.793 230.808 75 216.938" stroke="#EBE0F1" stroke-width="6" stroke-linecap="round" stroke-linejoin="round"/></g><defs><filter id="filter0_d" x="51.2" y="146.22" width="268.109" height="371.235" filterUnits="userSpaceOnUse" color-interpolation-filters="sRGB"><feFlood flood-opacity="0" result="BackgroundImageFix"/><feColorMatrix in="SourceAlpha" values="0 0 0 0 0 0 0 0 0 0 0 0 0 0 0 0 0 0 127 0"/><feOffset/><feGaussianBlur stdDeviation="6"/><feColorMatrix values="0 0 0 0 0.701961 0 0 0 0 0.27451 0 0 0 0 0.909804 0 0 0 1 0"/><feBlend in2="BackgroundImageFix" result="effect1_dropShadow"/><feBlend in="SourceGraphic" in2="effect1_dropShadow" result="shape"/></filter><filter id="filter1_d" x="114" y="0" width="143.974" height="521" filterUnits="userSpaceOnUse" color-interpolation-filters="sRGB"><feFlood flood-opacity="0" result="BackgroundImageFix"/><feColorMatrix in="SourceAlpha" values="0 0 0 0 0 0 0 0 0 0 0 0 0 0 0 0 0 0 127 0"/><feOffset/><feGaussianBlur stdDeviation="6"/><feColorMatrix values="0 0 0 0 0.701961 0 0 0 0 0.27451 0 0 0 0 0.909804 0 0 0 1 0"/><feBlend in2="BackgroundImageFix" result="effect1_dropShadow"/><feBlend in="SourceGraphic" in2="effect1_dropShadow" result="shape"/></filter><filter id="filter2_d" x="0" y="0" width="145" height="521" filterUnits="userSpaceOnUse" color-interpolation-filters="sRGB"><feFlood flood-opacity="0" result="BackgroundImageFix"/><feColorMatrix in="SourceAlpha" values="0 0 0 0 0 0 0 0 0 0 0 0 0 0 0 0 0 0 127 0"/><feOffset/><feGaussianBlur stdDeviation="6"/><feColorMatrix values="0 0 0 0 0.701961 0 0 0 0 0.27451 0 0 0 0 0.909804 0 0 0 1 0"/><feBlend in2="BackgroundImageFix" result="effect1_dropShadow"/><feBlend in="SourceGraphic" in2="effect1_dropShadow" result="shape"/></filter></defs></svg>