<svg width="173" height="25" fill="none" xmlns="http://www.w3.org/2000/svg"><path d="M38.997 10.957c.877 0 1.712.186 2.51.556.794.37 1.492.89 2.092 1.555l.018.037 9.447 11.563h-21.07l1.671-1.954H48.99l-6.799-8.336a4.34 4.34 0 00-1.448-1.084 4.102 4.102 0 00-1.746-.384 4.1 4.1 0 00-1.756.384 4.394 4.394 0 00-1.435 1.084l-8.415 10.29h-2.458l9.465-11.6a6.485 6.485 0 012.093-1.555 5.872 5.872 0 012.506-.556zm73.875 11.757v1.954h-25.24v-1.954h25.24zM59.879 10.976v11.738h23.324v1.954H58V10.976h1.879zm62.181-.02c.801 0 1.574.163 2.311.488.738.325 1.39.79 1.953 1.388l6.609 7.043a9.083 9.083 0 002.968 2.095 8.665 8.665 0 003.531.744h1.631l-.036-11.756h1.897l.038 13.71h-3.53a10.55 10.55 0 01-4.255-.888 10.787 10.787 0 01-3.577-2.534l-6.629-7.043a3.805 3.805 0 00-1.323-.958 3.954 3.954 0 00-1.588-.333h-2.853v11.756h-1.878V10.957h4.731zm33.275.032c.788 0 1.528.132 2.217.447.687.315 1.289.717 1.802 1.252.277.29.522.609.738.95a5.794 5.794 0 012.537-2.204 5.136 5.136 0 011.924-.439l.293-.006h7.749v1.95h-7.747c-.526 0-1.034.083-1.497.293-.464.21-.88.474-1.223.832a4.016 4.016 0 00-.842 1.26c-.172.414-.307.853-.342 1.314l-.009.232v7.764h-1.87v-7.765c0-.546-.059-1.058-.26-1.54-.199-.483-.431-.897-.776-1.255a3.81 3.81 0 00-1.209-.842 3.456 3.456 0 00-1.262-.288l-.223-.006h-7.931v-1.949h7.931zm-147.403 0c.787 0 1.527.132 2.216.447.687.315 1.289.717 1.803 1.252.276.29.52.609.737.95.214-.343.459-.653.737-.943a5.795 5.795 0 011.8-1.26 5.13 5.13 0 011.924-.44l.293-.006h7.75v1.95h-7.748c-.526 0-1.034.083-1.497.293-.464.21-.88.474-1.222.832a4.015 4.015 0 00-.843 1.26c-.172.414-.307.853-.342 1.314l-.009.232v7.764h-1.87v-7.765c0-.546-.059-1.058-.26-1.54-.199-.483-.43-.897-.776-1.255a3.808 3.808 0 00-1.21-.842 3.452 3.452 0 00-1.26-.288l-.223-.006H0v-1.949h7.932zm104.94 5.857v1.954h-25.24v-1.954h25.24zm0-5.888v1.953h-25.24v-1.953h25.24zM65.408.003v.583h-5.574c-.195 0-.377.04-.547.117a1.445 1.445 0 00-.746.78 1.48 1.48 0 00-.11.57 1.474 1.474 0 00.41 1.034 1.381 1.381 0 00.993.426h5.574v.584h-5.574a1.86 1.86 0 01-.763-.16 1.972 1.972 0 01-.625-.439 2.074 2.074 0 01-.574-1.445A2.093 2.093 0 0158.446.6c.177-.184.386-.331.625-.438.239-.106.494-.16.763-.16h5.574zM81.285.001c.27 0 .523.054.763.16.239.107.448.254.625.439a2.088 2.088 0 01.574 1.451 2.074 2.074 0 01-.574 1.446 1.947 1.947 0 01-.625.438c-.24.108-.494.162-.763.162h-5.574v-.585h5.574c.195 0 .377-.038.547-.114a1.437 1.437 0 00.747-.777c.074-.177.11-.367.11-.57a1.473 1.473 0 00-.857-1.35 1.297 1.297 0 00-.547-.116h-5.574V0h5.574zm10.916 3.51v.586h-7.537v-.585H92.2zM72.815 0c.213 0 .412.042.598.126.185.084.348.198.488.345a1.634 1.634 0 01.452 1.136v.888a1.613 1.613 0 01-.94 1.475 1.432 1.432 0 01-.598.127h-4.464a1.43 1.43 0 01-.597-.126 1.581 1.581 0 01-.488-.345 1.634 1.634 0 01-.452-1.13v-.889a1.62 1.62 0 01.94-1.481C67.94.042 68.138 0 68.35 0h4.464zm39.914 1.759v.583h-5.68c-.18 0-.348.035-.505.105a1.31 1.31 0 00-.413.29 1.336 1.336 0 00-.379.95v.41h-.56v-.41a1.949 1.949 0 01.544-1.362c.169-.175.365-.313.589-.415.225-.1.465-.151.724-.151h5.68zM102.312 0c.213 0 .411.042.597.126a1.608 1.608 0 01.819.856c.081.195.121.404.121.625v.888c0 .222-.04.429-.121.622a1.601 1.601 0 01-.819.854 1.424 1.424 0 01-.597.126h-4.464c-.213 0-.413-.042-.597-.126a1.564 1.564 0 01-.488-.345 1.634 1.634 0 01-.452-1.13v-.889a1.62 1.62 0 01.94-1.481c.184-.084.384-.126.597-.126h4.464zM72.815.585h-4.464a.876.876 0 00-.378.082.993.993 0 00-.521.543c-.05.125-.077.256-.077.397v.888a1.028 1.028 0 00.598.937c.118.053.245.08.378.08h4.464a.9.9 0 00.379-.08 1.024 1.024 0 00.597-.937v-.888c0-.139-.026-.272-.076-.397a.992.992 0 00-.21-.324 1.03 1.03 0 00-.311-.219.898.898 0 00-.379-.082zm29.497 0h-4.464a.876.876 0 00-.379.082.993.993 0 00-.521.543c-.05.125-.076.256-.076.397v.888a1.028 1.028 0 00.597.937c.118.053.245.08.379.08h4.464c.134 0 .26-.026.378-.08a1.005 1.005 0 00.521-.543 1.01 1.01 0 00.077-.394v-.888a1.023 1.023 0 00-.598-.94.9.9 0 00-.378-.082zM92.201 1.76v.584h-7.537V1.76H92.2zm0-1.759v.584h-7.537V0H92.2zm20.528 0v.584h-7.537V0h7.537z" fill="#fff"/></svg>