<svg width="346" height="50" fill="none" xmlns="http://www.w3.org/2000/svg"><g fill="#252A32"><path d="M130.816 8.193h-11.148a3.714 3.714 0 01-1.526-.32 3.937 3.937 0 01-1.249-.877 4.086 4.086 0 01-.841-1.301 4.156 4.156 0 01-.308-1.59c0-.57.104-1.1.308-1.601a4.14 4.14 0 01.841-1.302 3.937 3.937 0 011.249-.875 3.712 3.712 0 011.526-.321h11.148v1.166h-11.148c-.388 0-.754.078-1.094.234a2.881 2.881 0 00-1.491 1.56 2.943 2.943 0 00-.219 1.14c0 .404.072.785.219 1.139a3 3 0 00.599.93c.253.264.55.474.892.623.34.153.706.228 1.094.228h11.148v1.167zm31.755 0h-11.147v-1.17h11.147c.389 0 .755-.075 1.094-.227.34-.153.637-.36.893-.624a2.97 2.97 0 00.82-2.07c0-.404-.072-.785-.219-1.14a2.879 2.879 0 00-1.494-1.56 2.59 2.59 0 00-1.094-.232h-11.147V.003h11.147a3.72 3.72 0 011.526.32c.478.214.895.508 1.25.877a4.164 4.164 0 011.148 2.903c0 .56-.103 1.091-.308 1.589a4.118 4.118 0 01-.84 1.301 3.905 3.905 0 01-1.25.876 3.675 3.675 0 01-1.526.324z"/><path fill-rule="evenodd" clip-rule="evenodd" d="M210.385 1.17h15.074V.003h-15.074V1.17zm0 7.023h1.12v-.822a2.689 2.689 0 011.583-2.477 2.44 2.44 0 011.011-.21h11.36V3.518h-11.36c-.519 0-.999.102-1.448.303-.45.204-.841.48-1.178.83a3.885 3.885 0 00-.797 1.227 3.882 3.882 0 00-.291 1.496v.819zm-14.689 0h8.928c.426 0 .826-.084 1.194-.252a3.219 3.219 0 001.638-1.706c.162-.387.242-.8.242-1.245V3.215c0-.444-.08-.86-.242-1.25a3.247 3.247 0 00-.662-1.023 3.07 3.07 0 00-.976-.69A2.858 2.858 0 00204.624 0h-8.928c-.426 0-.826.084-1.195.252a3.13 3.13 0 00-.976.69 3.3 3.3 0 00-.662 1.022c-.161.39-.242.807-.242 1.25V4.99c0 .444.081.858.242 1.245.161.387.383.726.662 1.016.279.291.605.522.976.69.369.168.769.252 1.195.252zm-.757-6.858c.236-.111.486-.165.757-.165h8.928c.267 0 .521.057.757.165a1.995 1.995 0 011.042 1.086c.104.248.153.515.153.794V4.99a2.05 2.05 0 01-.573 1.437 1.966 1.966 0 01-.622.438 1.8 1.8 0 01-.757.159h-8.928a1.83 1.83 0 01-.757-.16 1.955 1.955 0 01-.622-.437 2.047 2.047 0 01-.573-1.437V3.215c0-.282.052-.546.152-.795a2.034 2.034 0 011.043-1.085zm-58.237 6.858h8.927a2.86 2.86 0 001.195-.252 3.219 3.219 0 001.638-1.706c.162-.387.242-.8.242-1.245V3.215A3.265 3.265 0 00147.8.942a3.07 3.07 0 00-.976-.69A2.86 2.86 0 00145.629 0h-8.927c-.426 0-.824.084-1.195.252a3.13 3.13 0 00-.976.69 3.246 3.246 0 00-.662 1.022c-.161.39-.242.807-.242 1.25V4.99c0 .444.081.858.242 1.245.161.387.383.726.662 1.016.282.291.605.522.976.69.371.168.769.252 1.195.252zm-.757-6.858c.236-.111.486-.165.757-.165h8.927c.271 0 .522.057.758.165a2.03 2.03 0 011.194 1.88V4.99a2.049 2.049 0 01-1.194 1.875c-.236.108-.49.159-.758.159h-8.927a1.83 1.83 0 01-.757-.16 1.978 1.978 0 01-.622-.437 2.047 2.047 0 01-.573-1.437V3.215c0-.282.052-.546.152-.795a2.022 2.022 0 011.043-1.085z"/><path d="M329.693 21.977c-1.575 0-3.054.264-4.433.89-1.374.63-2.577 1.452-3.602 2.522-.556.58-1.045 1.2-1.474 1.887a12.09 12.09 0 00-1.474-1.902c-1.028-1.07-2.231-1.874-3.605-2.504-1.379-.63-2.858-.893-4.433-.893h-15.863v3.898h15.863c1.048 0 2.041.171 2.968.588.927.42 1.736.966 2.418 1.682.691.717 1.155 1.545 1.552 2.51.403.966.521 1.989.521 3.08v15.532h3.924-.184V33.738c0-1.091.299-2.126.702-3.091.395-.966.994-1.803 1.685-2.52.685-.716 1.517-1.244 2.444-1.664.927-.42 1.943-.588 2.994-.588h15.495v-3.898h-15.498zm-294.808 0c-1.575 0-3.055.264-4.434.89-1.373.63-2.577 1.452-3.602 2.522-.555.58-1.045 1.2-1.474 1.887a12.09 12.09 0 00-1.474-1.902c-1.027-1.07-2.23-1.874-3.604-2.504-1.38-.63-2.859-.893-4.434-.893H0v3.898h15.863c1.048 0 2.041.171 2.968.588.927.42 1.736.966 2.419 1.682.69.717 1.154 1.545 1.552 2.51.403.966.52 1.989.52 3.08v15.532h3.925-.185V33.738c0-1.091.3-2.126.703-3.091.394-.966.993-1.803 1.684-2.52.685-.716 1.517-1.244 2.444-1.664.927-.42 1.944-.588 2.995-.588h15.494v-3.898H34.885zm71.243 27.358h-42.14l3.343-3.907h30.65L84.383 28.757a8.68 8.68 0 00-2.896-2.169 8.204 8.204 0 00-3.492-.767 8.2 8.2 0 00-3.513.767 8.79 8.79 0 00-2.87 2.169l-16.83 20.578h-4.915l18.93-23.2a12.97 12.97 0 014.186-3.11 11.743 11.743 0 015.012-1.112c1.753 0 3.423.372 5.018 1.113a12.97 12.97 0 014.186 3.11l.035.075 18.894 23.124zm9.872.001V21.952h3.757v23.476h46.648v3.908H116zm169.922-.001h-7.059c-2.954 0-5.79-.59-8.51-1.775a21.607 21.607 0 01-7.155-5.068l-13.257-14.086a7.62 7.62 0 00-2.646-1.916 7.906 7.906 0 00-3.176-.666h-5.706v23.511h-3.757V21.913h9.463c1.601 0 3.147.324 4.621.975 1.477.65 2.781 1.58 3.907 2.777l13.217 14.086a18.192 18.192 0 005.937 4.19 17.33 17.33 0 007.062 1.487h3.262l-.072-23.512h3.794l.075 27.42z"/></g></svg>