<svg width="366" height="80" fill="none" xmlns="http://www.w3.org/2000/svg"><path d="M185.825 8a8 8 0 018-8h137.981a8 8 0 016.384 3.179l23.834 31.557a8 8 0 01-.435 10.17l-29.17 32.443A8 8 0 01326.47 80H193.825a8 8 0 01-8-8V8z" fill="url(#paint0_linear)"/><path d="M214 20a8 8 0 018-8h102a8 8 0 016.4 3.2l14.669 19.559a8.001 8.001 0 01-.432 10.128l-18.251 20.441A8.001 8.001 0 01320.418 68H222a8 8 0 01-8-8V20z" fill="url(#paint1_linear)"/><path d="M38.04 61H.28V7.64h37.76v10h-26.4v11.28h25.84v10H11.64V51h26.4v10z" fill="url(#paint2_linear)"/><path d="M38.04 61H.28V7.64h37.76v10h-26.4v11.28h25.84v10H11.64V51h26.4v10z" fill="#fff"/><path d="M69.64 61h-10.6L74.2 22.36h10.96L69.64 61z" fill="url(#paint3_linear)"/><path d="M69.64 61h-10.6L74.2 22.36h10.96L69.64 61z" fill="#fff"/><path d="M59.822 37.778L54.5 51.5 43.16 22.36h10.88l5.782 15.418z" fill="url(#paint4_linear)"/><path d="M59.822 37.778L54.5 51.5 43.16 22.36h10.88l5.782 15.418z" fill="#fff"/><path fill-rule="evenodd" clip-rule="evenodd" d="M107.616 61.96c6.187 0 11.147-1.947 14.88-5.84 3.734-3.947 5.6-8.773 5.6-14.48 0-5.707-1.866-10.507-5.6-14.4-3.733-3.893-8.693-5.84-14.88-5.84-6.186 0-11.146 1.947-14.88 5.84-3.68 3.893-5.52 8.693-5.52 14.4 0 5.707 1.84 10.533 5.52 14.48 3.734 3.893 8.694 5.84 14.88 5.84zm0-9.04c-3.04 0-5.44-1.067-7.2-3.2-1.76-2.187-2.64-4.88-2.64-8.08 0-3.147.88-5.787 2.64-7.92 1.76-2.187 4.16-3.28 7.2-3.28s5.44 1.093 7.2 3.28c1.814 2.133 2.72 4.773 2.72 7.92 0 3.2-.906 5.893-2.72 8.08-1.76 2.133-4.16 3.2-7.2 3.2z" fill="url(#paint5_linear)"/><path fill-rule="evenodd" clip-rule="evenodd" d="M107.616 61.96c6.187 0 11.147-1.947 14.88-5.84 3.734-3.947 5.6-8.773 5.6-14.48 0-5.707-1.866-10.507-5.6-14.4-3.733-3.893-8.693-5.84-14.88-5.84-6.186 0-11.146 1.947-14.88 5.84-3.68 3.893-5.52 8.693-5.52 14.4 0 5.707 1.84 10.533 5.52 14.48 3.734 3.893 8.694 5.84 14.88 5.84zm0-9.04c-3.04 0-5.44-1.067-7.2-3.2-1.76-2.187-2.64-4.88-2.64-8.08 0-3.147.88-5.787 2.64-7.92 1.76-2.187 4.16-3.28 7.2-3.28s5.44 1.093 7.2 3.28c1.814 2.133 2.72 4.773 2.72 7.92 0 3.2-.906 5.893-2.72 8.08-1.76 2.133-4.16 3.2-7.2 3.2z" fill="#fff"/><path d="M145.794 61h-10.16V7.64h10.16V61z" fill="url(#paint6_linear)"/><path d="M145.794 61h-10.16V7.64h10.16V61z" fill="#fff"/><path fill-rule="evenodd" clip-rule="evenodd" d="M215.044 61.96c-5.974 0-10.907-1.867-14.8-5.6-3.894-3.733-5.84-8.64-5.84-14.72 0-5.707 1.866-10.507 5.6-14.4 3.786-3.893 8.586-5.84 14.4-5.84 5.76 0 10.426 1.973 14 5.92 3.573 3.893 5.36 9.013 5.36 15.36v2.24h-28.72c.32 2.56 1.466 4.693 3.44 6.4 1.973 1.707 4.533 2.56 7.68 2.56 1.706 0 3.546-.347 5.52-1.04 2.026-.693 3.626-1.627 4.8-2.8l4.48 6.56c-3.894 3.573-9.2 5.36-15.92 5.36zm8.88-23.92c-.16-2.187-1.04-4.16-2.64-5.92-1.547-1.76-3.84-2.64-6.88-2.64-2.88 0-5.12.88-6.72 2.64-1.6 1.707-2.534 3.68-2.8 5.92h19.04z" fill="url(#paint7_linear)"/><path fill-rule="evenodd" clip-rule="evenodd" d="M215.044 61.96c-5.974 0-10.907-1.867-14.8-5.6-3.894-3.733-5.84-8.64-5.84-14.72 0-5.707 1.866-10.507 5.6-14.4 3.786-3.893 8.586-5.84 14.4-5.84 5.76 0 10.426 1.973 14 5.92 3.573 3.893 5.36 9.013 5.36 15.36v2.24h-28.72c.32 2.56 1.466 4.693 3.44 6.4 1.973 1.707 4.533 2.56 7.68 2.56 1.706 0 3.546-.347 5.52-1.04 2.026-.693 3.626-1.627 4.8-2.8l4.48 6.56c-3.894 3.573-9.2 5.36-15.92 5.36zm8.88-23.92c-.16-2.187-1.04-4.16-2.64-5.92-1.547-1.76-3.84-2.64-6.88-2.64-2.88 0-5.12.88-6.72 2.64-1.6 1.707-2.534 3.68-2.8 5.92h19.04z" fill="#fff"/><path d="M177.5 61h-10.6l15.16-38.64h10.96L177.5 61z" fill="url(#paint8_linear)"/><path d="M177.5 61h-10.6l15.16-38.64h10.96L177.5 61z" fill="#fff"/><path d="M167.682 37.778L162.359 51.5 151.02 22.36h10.88l5.782 15.418z" fill="url(#paint9_linear)"/><path d="M167.682 37.778L162.359 51.5 151.02 22.36h10.88l5.782 15.418zm99.91 17.798c-3.296 0-5.76-1.216-7.392-3.648L259.528 55h-6.096l7.056-32.016h6.096l-2.592 11.712c1.952-2.304 4.288-3.456 7.008-3.456 2.656 0 4.784.848 6.384 2.544 1.6 1.696 2.4 4.048 2.4 7.056 0 2.4-.464 4.704-1.392 6.912-.896 2.208-2.304 4.064-4.224 5.568-1.888 1.504-4.08 2.256-6.576 2.256zm-1.008-5.424c1.984 0 3.616-.784 4.896-2.352 1.28-1.6 1.92-3.504 1.92-5.712 0-1.632-.48-2.944-1.44-3.936s-2.192-1.488-3.696-1.488c-2.048 0-3.824.928-5.328 2.784l-1.776 8.064c1.152 1.76 2.96 2.64 5.424 2.64zm26.925 5.424c-3.68 0-6.608-.928-8.784-2.784-2.144-1.856-3.216-4.4-3.216-7.632 0-3.84 1.28-7.12 3.84-9.84 2.56-2.72 5.744-4.08 9.552-4.08 3.04 0 5.536.944 7.488 2.832 1.952 1.856 2.928 4.368 2.928 7.536 0 1.472-.16 2.72-.48 3.744h-17.232v.576c0 1.152.56 2.24 1.68 3.264 1.152 1.024 2.704 1.536 4.656 1.536 2.4 0 4.352-.576 5.856-1.728l1.92 4.176c-2.336 1.6-5.072 2.4-8.208 2.4zm-5.28-14.352h11.616v-.48c0-1.28-.464-2.368-1.392-3.264-.896-.928-2.208-1.392-3.936-1.392-1.568 0-2.944.528-4.128 1.584-1.152 1.024-1.872 2.208-2.16 3.552zm27.251 14.352c-2.144 0-3.84-.416-5.088-1.248-1.216-.864-1.824-2.128-1.824-3.792 0-.544.064-1.072.192-1.584l2.592-11.856h-3.84l1.2-5.28h3.84l1.392-6.336h6.144l-1.392 6.336h4.704l-1.248 5.28h-4.704l-2.208 10.08a6.034 6.034 0 00-.096.96c0 1.344.752 2.016 2.256 2.016.736 0 1.296-.16 1.68-.48l.24 4.896c-.992.672-2.272 1.008-3.84 1.008z" fill="#fff"/><defs><linearGradient id="paint0_linear" x1="366" y1="40" x2="198.5" y2="40" gradientUnits="userSpaceOnUse"><stop stop-color="#1A7E57"/><stop offset="1" stop-color="#1A7E57" stop-opacity="0"/></linearGradient><linearGradient id="paint1_linear" x1="349" y1="40" x2="226.5" y2="40" gradientUnits="userSpaceOnUse"><stop stop-color="#23A873"/><stop offset="1" stop-color="#23A873" stop-opacity="0"/></linearGradient><linearGradient id="paint2_linear" x1="237" y1="36.915" x2="-3" y2="36.915" gradientUnits="userSpaceOnUse"><stop stop-color="#93ADFF"/><stop offset="1" stop-color="#39CA9F"/></linearGradient><linearGradient id="paint3_linear" x1="237" y1="36.915" x2="-3" y2="36.915" gradientUnits="userSpaceOnUse"><stop stop-color="#93ADFF"/><stop offset="1" stop-color="#39CA9F"/></linearGradient><linearGradient id="paint4_linear" x1="237" y1="36.915" x2="-3" y2="36.915" gradientUnits="userSpaceOnUse"><stop stop-color="#93ADFF"/><stop offset="1" stop-color="#39CA9F"/></linearGradient><linearGradient id="paint5_linear" x1="237" y1="36.915" x2="-3" y2="36.915" gradientUnits="userSpaceOnUse"><stop stop-color="#93ADFF"/><stop offset="1" stop-color="#39CA9F"/></linearGradient><linearGradient id="paint6_linear" x1="237" y1="36.915" x2="-3" y2="36.915" gradientUnits="userSpaceOnUse"><stop stop-color="#93ADFF"/><stop offset="1" stop-color="#39CA9F"/></linearGradient><linearGradient id="paint7_linear" x1="237" y1="36.915" x2="-3" y2="36.915" gradientUnits="userSpaceOnUse"><stop stop-color="#93ADFF"/><stop offset="1" stop-color="#39CA9F"/></linearGradient><linearGradient id="paint8_linear" x1="237" y1="36.915" x2="-3" y2="36.915" gradientUnits="userSpaceOnUse"><stop stop-color="#93ADFF"/><stop offset="1" stop-color="#39CA9F"/></linearGradient><linearGradient id="paint9_linear" x1="237" y1="36.915" x2="-3" y2="36.915" gradientUnits="userSpaceOnUse"><stop stop-color="#93ADFF"/><stop offset="1" stop-color="#39CA9F"/></linearGradient></defs></svg>