<svg xmlns="http://www.w3.org/2000/svg" width="64" height="64" viewBox="0 0 64 64"><defs><mask id="bhs1b" width="2" height="2" x="-1" y="-1"><path fill="#fff" d="M4 4h56v56H4z"/><path d="M58.977 39.258c-4.164 14.693-19.448 23.228-34.14 19.065C10.145 54.159 1.608 38.873 5.771 24.18 9.935 9.489 25.22.954 39.914 5.117 54.606 9.28 63.14 24.565 58.977 39.257z"/></mask><filter id="bhs1a" width="86" height="86" x="-11" y="-11" filterUnits="userSpaceOnUse"><feOffset in="SourceGraphic" result="FeOffset1027Out"/><feGaussianBlur in="FeOffset1027Out" result="FeGaussianBlur1028Out" stdDeviation="2 2"/></filter></defs><g><g><g><g><g filter="url(#bhs1a)"><path fill="none" d="M58.977 39.258c-4.164 14.693-19.448 23.228-34.14 19.065C10.145 54.159 1.608 38.873 5.771 24.18 9.935 9.489 25.22.954 39.914 5.117 54.606 9.28 63.14 24.565 58.977 39.257z" mask="url(&quot;#bhs1b&quot;)"/><path fill="#1d1d1b" fill-opacity=".35" d="M58.977 39.258c-4.164 14.693-19.448 23.228-34.14 19.065C10.145 54.159 1.608 38.873 5.771 24.18 9.935 9.489 25.22.954 39.914 5.117 54.606 9.28 63.14 24.565 58.977 39.257z"/></g><path fill="#673773" d="M58.977 39.258c-4.164 14.693-19.448 23.228-34.14 19.065C10.145 54.159 1.608 38.873 5.771 24.18 9.935 9.489 25.22.954 39.914 5.117 54.606 9.28 63.14 24.565 58.977 39.257z"/></g></g><g transform="rotate(14 32 30.5)"><g><g><path fill="#fff" d="M42.934 40.94c.002-5.571 0-11.143.007-16.715 0-.258-.074-.318-.322-.315-1.112.013-2.225.01-3.337.005-1.332-.005-2.177-.848-2.182-2.176-.003-1.083-.015-2.167.009-3.25.007-.324-.079-.397-.4-.395-3.556.012-7.111.008-10.668.008-.941 0-1.199.255-1.199 1.187l.001 21.473c0 .388-.004.772-.193 1.175.099.009.15.017.202.017 5.715 0 11.43.002 17.146-.001.632 0 .935-.331.936-1.013zm-4.66-21.91c0 .957-.02 1.943.008 2.928.013.468.372.782.844.788.966.014 1.933.005 2.875.005-1.244-1.243-2.487-2.482-3.728-3.72zm-14.6 21.948c.003-3.056.001-6.112.001-9.168v-9.208-.27c-.001-.082-.02-.135-.117-.165-.948-.292-1.622.2-1.622 1.192v17.409c0 .142-.002.284.012.424a.83.83 0 0 0 .83.761c.547.014.896-.357.896-.975zm20.072-18.334c.249.245.363.499.363.85-.008 5.805-.005 11.61-.006 17.415-.001 1.437-.816 2.25-2.262 2.251-3.13.004-6.26 0-9.39 0-3.143 0-6.286.003-9.43 0-1.136 0-1.903-.536-2.18-1.493-.07-.24-.072-.484-.072-.728-.001-5.896-.002-11.79 0-17.686 0-1.413.816-2.21 2.25-2.214.656-.001.656-.001.656-.67 0-.425-.003-.85 0-1.277.012-1.273.874-2.133 2.15-2.134 3.595-.004 7.192.037 10.787-.026 1.03-.018 1.753.266 2.457 1.02 1.504 1.615 3.106 3.14 4.677 4.692zm-3.314 3.025c.572 0 .763.195.763.77.002 2.386.002 4.772 0 7.158 0 .601-.185.79-.782.791-2.173.002-4.346 0-6.518 0-2.16 0-4.32.002-6.48 0-.636 0-.81-.17-.81-.79v-7.16c0-.587.175-.77.752-.77h13.075zm.045 10.472c.444.003.72.232.716.585-.003.353-.277.577-.725.577-1.656.002-3.31.002-4.966 0-.453 0-.722-.213-.732-.566-.011-.366.268-.594.741-.596.827-.003 1.655 0 2.483 0 .828 0 1.655-.003 2.483 0zm.003 2.911c.444.004.718.242.712.59-.007.348-.282.575-.73.576-1.654.005-3.308.002-4.963.002-.273.001-.513-.057-.657-.319a.537.537 0 0 1 .027-.585c.152-.236.393-.267.648-.266.827.002 1.654 0 2.482 0 .826 0 1.654-.004 2.481.002zm-5.86-16.3c.453.002.723.214.733.566.01.369-.266.596-.74.597-1.214.003-2.427.001-3.64.001-1.226 0-2.453.002-3.68-.002-.468-.001-.754-.287-.676-.68.072-.365.333-.485.684-.484 1.395.005 2.789.002 4.183.002h3.137zm.24-2.896c.324.065.502.278.484.6-.017.303-.196.505-.514.533-.218.02-.438.016-.658.016h-6.713c-.141 0-.288.002-.423-.031-.268-.065-.415-.25-.427-.527-.01-.278.119-.479.383-.56.144-.045.305-.048.458-.05h7.062c.116 0 .234-.002.347.02zm-1.847 16.848c.01.364-.253.597-.695.599-.84.004-1.68.002-2.52.002-.827 0-1.655.002-2.482-.002-.45-.002-.71-.219-.709-.582 0-.364.258-.579.712-.58 1.667-.002 3.335-.002 5 0 .43.001.683.215.694.563zm-.001 2.908c.011.34-.225.595-.615.602-.853.014-1.705.005-2.558.005-.853 0-1.706.01-2.559-.002-.495-.007-.79-.37-.646-.772.094-.258.293-.389.566-.39 1.731-.002 3.463-.006 5.194.002.38.002.606.23.618.555z"/><path fill="none" stroke="#673773" stroke-miterlimit="20" stroke-width=".1" d="M42.934 40.94c.002-5.571 0-11.143.007-16.715 0-.258-.074-.318-.322-.315-1.112.013-2.225.01-3.337.005-1.332-.005-2.177-.848-2.182-2.176-.003-1.083-.015-2.167.009-3.25.007-.324-.079-.397-.4-.395-3.556.012-7.111.008-10.668.008-.941 0-1.199.255-1.199 1.187l.001 21.473c0 .388-.004.772-.193 1.175.099.009.15.017.202.017 5.715 0 11.43.002 17.146-.001.632 0 .935-.331.936-1.013zm-4.66-21.91s0 0 0 0c0 .957-.02 1.943.008 2.928.013.468.372.782.844.788.966.014 1.933.005 2.875.005-1.244-1.243-2.487-2.482-3.728-3.72 0 0 0 0 0 0zm-14.6 21.948c.003-3.056.001-6.112.001-9.168v-9.208-.27c-.001-.082-.02-.135-.117-.165-.948-.292-1.622.2-1.622 1.192v17.409c0 .142-.002.284.012.424a.83.83 0 0 0 .83.761c.547.014.896-.357.896-.975zm20.072-18.334c.249.245.363.499.363.85-.008 5.805-.005 11.61-.006 17.415-.001 1.437-.816 2.25-2.262 2.251-3.13.004-6.26 0-9.39 0-3.143 0-6.286.003-9.43 0-1.136 0-1.903-.536-2.18-1.493-.07-.24-.072-.484-.072-.728-.001-5.896-.002-11.79 0-17.686 0-1.413.816-2.21 2.25-2.214.656-.001.656-.001.656-.67 0-.425-.003-.85 0-1.277.012-1.273.874-2.133 2.15-2.134 3.595-.004 7.192.037 10.787-.026 1.03-.018 1.753.266 2.457 1.02 1.504 1.615 3.106 3.14 4.677 4.692zm-3.314 3.025c.572 0 .763.195.763.77.002 2.386.002 4.772 0 7.158 0 .601-.185.79-.782.791-2.173.002-4.346 0-6.518 0-2.16 0-4.32.002-6.48 0-.636 0-.81-.17-.81-.79v-7.16c0-.587.175-.77.752-.77h13.075zm.045 10.472c.444.003.72.232.716.585-.003.353-.277.577-.725.577-1.656.002-3.31.002-4.966 0-.453 0-.722-.213-.732-.566-.011-.366.268-.594.741-.596.827-.003 1.655 0 2.483 0 .828 0 1.655-.003 2.483 0zm.003 2.911c.444.004.718.242.712.59-.007.348-.282.575-.73.576-1.654.005-3.308.002-4.963.002-.273.001-.513-.057-.657-.319a.537.537 0 0 1 .027-.585c.152-.236.393-.267.648-.266.827.002 1.654 0 2.482 0 .826 0 1.654-.004 2.481.002zm-5.86-16.3c.453.002.723.214.733.566.01.369-.266.596-.74.597-1.214.003-2.427.001-3.64.001-1.226 0-2.453.002-3.68-.002-.468-.001-.754-.287-.676-.68.072-.365.333-.485.684-.484 1.395.005 2.789.002 4.183.002h3.137zm.24-2.896c.324.065.502.278.484.6-.017.303-.196.505-.514.533-.218.02-.438.016-.658.016h-6.713c-.141 0-.288.002-.423-.031-.268-.065-.415-.25-.427-.527-.01-.278.119-.479.383-.56.144-.045.305-.048.458-.05h7.062c.116 0 .234-.002.347.02zm-1.847 16.848c.01.364-.253.597-.695.599-.84.004-1.68.002-2.52.002-.827 0-1.655.002-2.482-.002-.45-.002-.71-.219-.709-.582 0-.364.258-.579.712-.58 1.667-.002 3.335-.002 5 0 .43.001.683.215.694.563zm-.001 2.908c.011.34-.225.595-.615.602-.853.014-1.705.005-2.558.005v0c-.853 0-1.706.01-2.559-.002-.495-.007-.79-.37-.646-.772.094-.258.293-.389.566-.39 1.731-.002 3.463-.006 5.194.002.38.002.606.23.618.555z"/></g><g><path fill="#fff" d="M42.934 40.94c.002-5.571 0-11.143.007-16.715 0-.258-.074-.318-.322-.315-1.112.013-2.225.01-3.337.005-1.332-.005-2.177-.848-2.182-2.176-.003-1.083-.015-2.167.009-3.25.007-.324-.079-.397-.4-.395-3.556.012-7.111.008-10.668.008-.941 0-1.199.255-1.199 1.187l.001 21.473c0 .388-.004.772-.193 1.175.099.009.15.017.202.017 5.715 0 11.43.002 17.146-.001.632 0 .935-.331.936-1.013zm-4.66-21.91c0 .957-.02 1.943.008 2.928.013.468.372.782.844.788.966.014 1.933.005 2.875.005-1.244-1.243-2.487-2.482-3.728-3.72zm-14.6 21.948c.003-3.056.001-6.112.001-9.168v-9.208-.27c-.001-.082-.02-.135-.117-.165-.948-.292-1.622.2-1.622 1.192v17.409c0 .142-.002.284.012.424a.83.83 0 0 0 .83.761c.547.014.896-.357.896-.975zm20.072-18.334c.249.245.363.499.363.85-.008 5.805-.005 11.61-.006 17.415-.001 1.437-.816 2.25-2.262 2.251-3.13.004-6.26 0-9.39 0-3.143 0-6.286.003-9.43 0-1.136 0-1.903-.536-2.18-1.493-.07-.24-.072-.484-.072-.728-.001-5.896-.002-11.79 0-17.686 0-1.413.816-2.21 2.25-2.214.656-.001.656-.001.656-.67 0-.425-.003-.85 0-1.277.012-1.273.874-2.133 2.15-2.134 3.595-.004 7.192.037 10.787-.026 1.03-.018 1.753.266 2.457 1.02 1.504 1.615 3.106 3.14 4.677 4.692zm-3.314 3.025c.572 0 .763.195.763.77.002 2.386.002 4.772 0 7.158 0 .601-.185.79-.782.791-2.173.002-4.346 0-6.518 0-2.16 0-4.32.002-6.48 0-.636 0-.81-.17-.81-.79v-7.16c0-.587.175-.77.752-.77h13.075zm.045 10.472c.444.003.72.232.716.585-.003.353-.277.577-.725.577-1.656.002-3.31.002-4.966 0-.453 0-.722-.213-.732-.566-.011-.366.268-.594.741-.596.827-.003 1.655 0 2.483 0 .828 0 1.655-.003 2.483 0zm.003 2.911c.444.004.718.242.712.59-.007.348-.282.575-.73.576-1.654.005-3.308.002-4.963.002-.273.001-.513-.057-.657-.319a.537.537 0 0 1 .027-.585c.152-.236.393-.267.648-.266.827.002 1.654 0 2.482 0 .826 0 1.654-.004 2.481.002zm-5.86-16.3c.453.002.723.214.733.566.01.369-.266.596-.74.597-1.214.003-2.427.001-3.64.001-1.226 0-2.453.002-3.68-.002-.468-.001-.754-.287-.676-.68.072-.365.333-.485.684-.484 1.395.005 2.789.002 4.183.002h3.137zm.24-2.896c.324.065.502.278.484.6-.017.303-.196.505-.514.533-.218.02-.438.016-.658.016h-6.713c-.141 0-.288.002-.423-.031-.268-.065-.415-.25-.427-.527-.01-.278.119-.479.383-.56.144-.045.305-.048.458-.05h7.062c.116 0 .234-.002.347.02zm-1.847 16.848c.01.364-.253.597-.695.599-.84.004-1.68.002-2.52.002-.827 0-1.655.002-2.482-.002-.45-.002-.71-.219-.709-.582 0-.364.258-.579.712-.58 1.667-.002 3.335-.002 5 0 .43.001.683.215.694.563zm-.001 2.908c.011.34-.225.595-.615.602-.853.014-1.705.005-2.558.005-.853 0-1.706.01-2.559-.002-.495-.007-.79-.37-.646-.772.094-.258.293-.389.566-.39 1.731-.002 3.463-.006 5.194.002.38.002.606.23.618.555z"/><path fill="none" stroke="#673773" stroke-miterlimit="20" stroke-width=".1" d="M42.934 40.94c.002-5.571 0-11.143.007-16.715 0-.258-.074-.318-.322-.315-1.112.013-2.225.01-3.337.005-1.332-.005-2.177-.848-2.182-2.176-.003-1.083-.015-2.167.009-3.25.007-.324-.079-.397-.4-.395-3.556.012-7.111.008-10.668.008-.941 0-1.199.255-1.199 1.187l.001 21.473c0 .388-.004.772-.193 1.175.099.009.15.017.202.017 5.715 0 11.43.002 17.146-.001.632 0 .935-.331.936-1.013zm-4.66-21.91s0 0 0 0c0 .957-.02 1.943.008 2.928.013.468.372.782.844.788.966.014 1.933.005 2.875.005-1.244-1.243-2.487-2.482-3.728-3.72 0 0 0 0 0 0zm-14.6 21.948c.003-3.056.001-6.112.001-9.168v-9.208-.27c-.001-.082-.02-.135-.117-.165-.948-.292-1.622.2-1.622 1.192v17.409c0 .142-.002.284.012.424a.83.83 0 0 0 .83.761c.547.014.896-.357.896-.975zm20.072-18.334c.249.245.363.499.363.85-.008 5.805-.005 11.61-.006 17.415-.001 1.437-.816 2.25-2.262 2.251-3.13.004-6.26 0-9.39 0-3.143 0-6.286.003-9.43 0-1.136 0-1.903-.536-2.18-1.493-.07-.24-.072-.484-.072-.728-.001-5.896-.002-11.79 0-17.686 0-1.413.816-2.21 2.25-2.214.656-.001.656-.001.656-.67 0-.425-.003-.85 0-1.277.012-1.273.874-2.133 2.15-2.134 3.595-.004 7.192.037 10.787-.026 1.03-.018 1.753.266 2.457 1.02 1.504 1.615 3.106 3.14 4.677 4.692zm-3.314 3.025c.572 0 .763.195.763.77.002 2.386.002 4.772 0 7.158 0 .601-.185.79-.782.791-2.173.002-4.346 0-6.518 0-2.16 0-4.32.002-6.48 0-.636 0-.81-.17-.81-.79v-7.16c0-.587.175-.77.752-.77h13.075zm.045 10.472c.444.003.72.232.716.585-.003.353-.277.577-.725.577-1.656.002-3.31.002-4.966 0-.453 0-.722-.213-.732-.566-.011-.366.268-.594.741-.596.827-.003 1.655 0 2.483 0 .828 0 1.655-.003 2.483 0zm.003 2.911c.444.004.718.242.712.59-.007.348-.282.575-.73.576-1.654.005-3.308.002-4.963.002-.273.001-.513-.057-.657-.319a.537.537 0 0 1 .027-.585c.152-.236.393-.267.648-.266.827.002 1.654 0 2.482 0 .826 0 1.654-.004 2.481.002zm-5.86-16.3c.453.002.723.214.733.566.01.369-.266.596-.74.597-1.214.003-2.427.001-3.64.001-1.226 0-2.453.002-3.68-.002-.468-.001-.754-.287-.676-.68.072-.365.333-.485.684-.484 1.395.005 2.789.002 4.183.002h3.137zm.24-2.896c.324.065.502.278.484.6-.017.303-.196.505-.514.533-.218.02-.438.016-.658.016h-6.713c-.141 0-.288.002-.423-.031-.268-.065-.415-.25-.427-.527-.01-.278.119-.479.383-.56.144-.045.305-.048.458-.05h7.062c.116 0 .234-.002.347.02zm-1.847 16.848c.01.364-.253.597-.695.599-.84.004-1.68.002-2.52.002-.827 0-1.655.002-2.482-.002-.45-.002-.71-.219-.709-.582 0-.364.258-.579.712-.58 1.667-.002 3.335-.002 5 0 .43.001.683.215.694.563zm-.001 2.908c.011.34-.225.595-.615.602-.853.014-1.705.005-2.558.005v0c-.853 0-1.706.01-2.559-.002-.495-.007-.79-.37-.646-.772.094-.258.293-.389.566-.39 1.731-.002 3.463-.006 5.194.002.38.002.606.23.618.555z"/></g><g><path fill="#fff" d="M33.012 39.611c.011.34-.226.596-.615.603-.853.014-1.705.005-2.558.005-.853 0-1.706.01-2.559-.002-.495-.007-.791-.37-.646-.772.093-.258.293-.389.566-.39 1.731-.002 3.463-.006 5.194.002.38.002.606.23.618.554z"/><path fill="none" stroke="#673773" stroke-miterlimit="20" stroke-width=".1" d="M33.012 39.611c.011.34-.226.596-.615.603-.853.014-1.705.005-2.558.005v0c-.853 0-1.706.01-2.559-.002-.495-.007-.791-.37-.646-.772.093-.258.293-.389.566-.39 1.731-.002 3.463-.006 5.194.002.38.002.606.23.618.554z"/></g><g><path fill="#fff" d="M33.013 36.704c.01.364-.253.597-.695.599-.84.004-1.68.001-2.52.001-.827 0-1.655.003-2.482-.001-.45-.002-.71-.22-.709-.583 0-.363.258-.578.712-.579 1.667-.002 3.335-.002 5 0 .43.001.683.215.694.563z"/><path fill="none" stroke="#673773" stroke-miterlimit="20" stroke-width=".1" d="M33.013 36.704c.01.364-.253.597-.695.599-.84.004-1.68.001-2.52.001-.827 0-1.655.003-2.482-.001-.45-.002-.71-.22-.709-.583 0-.363.258-.578.712-.579 1.667-.002 3.335-.002 5 0 .43.001.683.215.694.563z"/></g><g><path fill="#fff" d="M26.61 20.447c-.011-.278.118-.479.382-.56.144-.045.305-.048.458-.05 2.354-.002 4.708 0 7.062 0 .116 0 .234-.002.347.02.325.064.503.277.485.6-.017.302-.196.504-.514.532-.218.02-.438.016-.658.016h-6.713c-.141 0-.288.002-.423-.031-.268-.065-.415-.25-.427-.527z"/><path fill="none" stroke="#673773" stroke-miterlimit="20" stroke-width=".1" d="M26.61 20.447c-.011-.278.118-.479.382-.56.144-.045.305-.048.458-.05 2.354-.002 4.708 0 7.062 0 .116 0 .234-.002.347.02.325.064.503.277.485.6-.017.302-.196.504-.514.532-.218.02-.438.016-.658.016h-6.713c-.141 0-.288.002-.423-.031-.268-.065-.415-.25-.427-.527z"/></g><g><path fill="#fff" d="M26.617 23.233c.072-.364.333-.484.684-.483 1.395.005 2.789.002 4.183.002h3.137c.452.002.722.214.732.566.01.369-.266.596-.74.597-1.214.003-2.427.001-3.64.001-1.226 0-2.453.002-3.68-.002-.468-.001-.754-.287-.676-.68z"/><path fill="none" stroke="#673773" stroke-miterlimit="20" stroke-width=".1" d="M26.617 23.233c.072-.364.333-.484.684-.483 1.395.005 2.789.002 4.183.002h3.137c.452.002.722.214.732.566.01.369-.266.596-.74.597-1.214.003-2.427.001-3.64.001-1.226 0-2.453.002-3.68-.002-.468-.001-.754-.287-.676-.68z"/></g><g><path fill="#fff" d="M41.192 39.642c-.007.348-.282.575-.73.576-1.654.005-3.308.001-4.963.002-.273.001-.513-.057-.657-.319a.537.537 0 0 1 .027-.585c.152-.236.393-.267.648-.266.827.002 1.654 0 2.482 0 .826 0 1.654-.004 2.481.002.444.004.718.242.712.59z"/><path fill="none" stroke="#673773" stroke-miterlimit="20" stroke-width=".1" d="M41.192 39.642c-.007.348-.282.575-.73.576-1.654.005-3.308.001-4.963.002-.273.001-.513-.057-.657-.319a.537.537 0 0 1 .027-.585c.152-.236.393-.267.648-.266.827.002 1.654 0 2.482 0 .826 0 1.654-.004 2.481.002.444.004.718.242.712.59z"/></g><g><path fill="#fff" d="M41.193 36.726c-.003.353-.277.577-.725.577-1.656.002-3.31.002-4.966 0-.453 0-.722-.213-.732-.566-.011-.366.268-.594.741-.596.827-.003 1.655 0 2.483 0 .828 0 1.655-.003 2.483 0 .444.003.72.232.716.585z"/><path fill="none" stroke="#673773" stroke-miterlimit="20" stroke-width=".1" d="M41.193 36.726c-.003.353-.277.577-.725.577-1.656.002-3.31.002-4.966 0-.453 0-.722-.213-.732-.566-.011-.366.268-.594.741-.596.827-.003 1.655 0 2.483 0 .828 0 1.655-.003 2.483 0 .444.003.72.232.716.585z"/></g><g><path fill="#fff" d="M40.035 32.857c.003.275-.046.372-.352.372-3.867-.012-7.734-.01-11.601-.002-.259 0-.317-.073-.316-.32.01-1.922.011-3.844-.001-5.766-.002-.264.083-.312.325-.31 1.94.009 3.88.004 5.82.004 1.914 0 3.828.007 5.742-.007.302-.002.387.072.385.38a390.894 390.894 0 0 0-.002 5.65zm.397-7.188c-4.358-.002-8.716-.002-13.075 0-.577 0-.751.182-.751.77-.002 2.386-.001 4.772 0 7.159 0 .62.173.79.81.79 2.16.002 4.32 0 6.479 0h6.518c.597 0 .782-.19.782-.79.002-2.387.002-4.773 0-7.16 0-.574-.191-.77-.763-.77z"/><path fill="none" stroke="#673773" stroke-miterlimit="20" stroke-width=".1" d="M40.035 32.857c.003.275-.046.372-.352.372-3.867-.012-7.734-.01-11.601-.002-.259 0-.317-.073-.316-.32.01-1.922.011-3.844-.001-5.766-.002-.264.083-.312.325-.31 1.94.009 3.88.004 5.82.004 1.914 0 3.828.007 5.742-.007.302-.002.387.072.385.38a390.894 390.894 0 0 0-.002 5.65zm.397-7.188c-4.358-.002-8.716-.002-13.075 0-.577 0-.751.182-.751.77-.002 2.386-.001 4.772 0 7.159 0 .62.173.79.81.79 2.16.002 4.32 0 6.479 0h6.518c.597 0 .782-.19.782-.79.002-2.387.002-4.773 0-7.16 0-.574-.191-.77-.763-.77z"/></g><g><path fill="#fff" d="M40.035 32.857c.003.275-.046.372-.352.372-3.867-.012-7.734-.01-11.601-.002-.259 0-.317-.073-.316-.32.01-1.922.011-3.844-.001-5.766-.002-.264.083-.312.325-.31 1.94.009 3.88.004 5.82.004 1.914 0 3.828.007 5.742-.007.302-.002.387.072.385.38a390.894 390.894 0 0 0-.002 5.65zm.397-7.188c-4.358-.002-8.716-.002-13.075 0-.577 0-.751.182-.751.77-.002 2.386-.001 4.772 0 7.159 0 .62.173.79.81.79 2.16.002 4.32 0 6.479 0h6.518c.597 0 .782-.19.782-.79.002-2.387.002-4.773 0-7.16 0-.574-.191-.77-.763-.77z"/><path fill="none" stroke="#673773" stroke-miterlimit="20" stroke-width=".1" d="M40.035 32.857c.003.275-.046.372-.352.372-3.867-.012-7.734-.01-11.601-.002-.259 0-.317-.073-.316-.32.01-1.922.011-3.844-.001-5.766-.002-.264.083-.312.325-.31 1.94.009 3.88.004 5.82.004 1.914 0 3.828.007 5.742-.007.302-.002.387.072.385.38a390.894 390.894 0 0 0-.002 5.65zm.397-7.188c-4.358-.002-8.716-.002-13.075 0-.577 0-.751.182-.751.77-.002 2.386-.001 4.772 0 7.159 0 .62.173.79.81.79 2.16.002 4.32 0 6.479 0h6.518c.597 0 .782-.19.782-.79.002-2.387.002-4.773 0-7.16 0-.574-.191-.77-.763-.77z"/></g><g><path fill="#fff" d="M35.344 20.457c-.017.302-.196.504-.514.532-.218.02-.438.016-.658.016h-6.713c-.141 0-.288.002-.423-.031-.268-.065-.415-.25-.427-.527-.01-.278.119-.479.383-.56.144-.045.305-.048.458-.05 2.354-.002 4.708 0 7.062 0 .116 0 .234-.002.347.02.325.064.503.277.485.6z"/><path fill="none" stroke="#673773" stroke-miterlimit="20" stroke-width=".1" d="M35.344 20.457c-.017.302-.196.504-.514.532-.218.02-.438.016-.658.016h-6.713c-.141 0-.288.002-.423-.031-.268-.065-.415-.25-.427-.527-.01-.278.119-.479.383-.56.144-.045.305-.048.458-.05 2.354-.002 4.708 0 7.062 0 .116 0 .234-.002.347.02.325.064.503.277.485.6z"/></g><g><path fill="#fff" d="M35.353 23.318c.01.369-.266.596-.74.597-1.214.003-2.427.001-3.64.001-1.226 0-2.453.002-3.68-.002-.468-.001-.754-.287-.676-.68.072-.365.333-.485.684-.484 1.395.005 2.789.002 4.183.002h3.137c.452.002.722.214.732.566z"/><path fill="none" stroke="#673773" stroke-miterlimit="20" stroke-width=".1" d="M35.353 23.318c.01.369-.266.596-.74.597-1.214.003-2.427.001-3.64.001-1.226 0-2.453.002-3.68-.002-.468-.001-.754-.287-.676-.68.072-.365.333-.485.684-.484 1.395.005 2.789.002 4.183.002h3.137c.452.002.722.214.732.566z"/></g><g><path fill="#fff" d="M41.193 36.726c-.003.353-.277.577-.725.577-1.656.002-3.31.002-4.966 0-.453 0-.722-.213-.732-.566-.011-.366.268-.594.741-.596.827-.003 1.655 0 2.483 0 .828 0 1.655-.003 2.483 0 .444.003.72.232.716.585z"/><path fill="none" stroke="#673773" stroke-miterlimit="20" stroke-width=".1" d="M41.193 36.726c-.003.353-.277.577-.725.577-1.656.002-3.31.002-4.966 0-.453 0-.722-.213-.732-.566-.011-.366.268-.594.741-.596.827-.003 1.655 0 2.483 0 .828 0 1.655-.003 2.483 0 .444.003.72.232.716.585z"/></g><g><path fill="#fff" d="M33.012 39.611c.011.34-.226.596-.615.603-.853.014-1.705.005-2.558.005-.853 0-1.706.01-2.559-.002-.495-.007-.791-.37-.646-.772.093-.258.293-.389.566-.39 1.731-.002 3.463-.006 5.194.002.38.002.606.23.618.554z"/><path fill="none" stroke="#673773" stroke-miterlimit="20" stroke-width=".1" d="M33.012 39.611c.011.34-.226.596-.615.603-.853.014-1.705.005-2.558.005v0c-.853 0-1.706.01-2.559-.002-.495-.007-.791-.37-.646-.772.093-.258.293-.389.566-.39 1.731-.002 3.463-.006 5.194.002.38.002.606.23.618.554z"/></g><g><path fill="#fff" d="M33.013 36.704c.01.364-.253.597-.695.599-.84.004-1.68.001-2.52.001-.827 0-1.655.003-2.482-.001-.45-.002-.71-.22-.709-.583 0-.363.258-.578.712-.579 1.667-.002 3.335-.002 5 0 .43.001.683.215.694.563z"/><path fill="none" stroke="#673773" stroke-miterlimit="20" stroke-width=".1" d="M33.013 36.704c.01.364-.253.597-.695.599-.84.004-1.68.001-2.52.001-.827 0-1.655.003-2.482-.001-.45-.002-.71-.22-.709-.583 0-.363.258-.578.712-.579 1.667-.002 3.335-.002 5 0 .43.001.683.215.694.563z"/></g><g><path fill="#fff" d="M41.192 39.642c-.007.348-.282.575-.73.576-1.654.005-3.308.001-4.963.002-.273.001-.513-.057-.657-.319a.537.537 0 0 1 .027-.585c.152-.236.393-.267.648-.266.827.002 1.654 0 2.482 0 .826 0 1.654-.004 2.481.002.444.004.718.242.712.59z"/><path fill="none" stroke="#673773" stroke-miterlimit="20" stroke-width=".1" d="M41.192 39.642c-.007.348-.282.575-.73.576-1.654.005-3.308.001-4.963.002-.273.001-.513-.057-.657-.319a.537.537 0 0 1 .027-.585c.152-.236.393-.267.648-.266.827.002 1.654 0 2.482 0 .826 0 1.654-.004 2.481.002.444.004.718.242.712.59z"/></g></g></g></g></g></svg>