<svg xmlns="http://www.w3.org/2000/svg" width="79" height="79" viewBox="0 0 79 79"><defs><mask id="393ub" width="2" height="2" x="-1" y="-1"><path fill="#fff" d="M12 11h56v57H12z"/><path d="M63.25 54c-7.968 13.03-24.987 17.135-38.016 9.168-13.029-7.966-17.137-24.987-9.171-38.017 7.968-13.03 24.99-17.135 38.019-9.17C67.113 23.95 71.217 40.971 63.25 54z"/></mask><filter id="393ua" width="106" height="107" x="-13" y="-14" filterUnits="userSpaceOnUse"><feOffset in="SourceGraphic" result="FeOffset1207Out"/><feGaussianBlur in="FeOffset1207Out" result="FeGaussianBlur1208Out" stdDeviation="6 6"/></filter></defs><g><g><g><g filter="url(#393ua)"><path fill="none" d="M63.25 54c-7.968 13.03-24.987 17.135-38.016 9.168-13.029-7.966-17.137-24.987-9.171-38.017 7.968-13.03 24.99-17.135 38.019-9.17C67.113 23.95 71.217 40.971 63.25 54z" mask="url(&quot;#393ub&quot;)"/><path fill="#1d1d1b" fill-opacity=".15" d="M63.25 54c-7.968 13.03-24.987 17.135-38.016 9.168-13.029-7.966-17.137-24.987-9.171-38.017 7.968-13.03 24.99-17.135 38.019-9.17C67.113 23.95 71.217 40.971 63.25 54z"/></g><path fill="#fbba00" d="M63.25 54c-7.968 13.03-24.987 17.135-38.016 9.168-13.029-7.966-17.137-24.987-9.171-38.017 7.968-13.03 24.99-17.135 38.019-9.17C67.113 23.95 71.217 40.971 63.25 54z"/></g><g transform="rotate(43 42 39)"><g><path fill="#fff" d="M24.585 45.821a3.282 3.282 0 0 1 1.203-4.49l5.123-2.958 3.287 5.693-5.124 2.958a3.29 3.29 0 0 1-4.49-1.203zm14.714-17.66l7.6 13.16-11.469 2.25-3.487-6.04zm1.1-1.41a.643.643 0 0 1 .57-.315.646.646 0 0 1 .56.329l7.646 13.243a.657.657 0 0 1-.553.985c-.09.002-.13.018-.36.061l-8.088-14.008c.17-.218.192-.24.225-.294zm6.897 4.742l.909 1.574-.81 1.226-1.566-2.712zM34.374 47l-.657-1.138 1.138-.658.658 1.139zm1.491 5.213a1.314 1.314 0 1 1-2.277 1.314L30.3 47.834l2.277-1.315 3.287 5.694zm-3.416 1.971a2.628 2.628 0 1 0 4.554-2.63l-1.972-3.415 1.708-.986a.658.658 0 0 0 .24-.898l-.854-1.48 12.59-2.47c1.462-.08 2.337-1.677 1.599-2.955l-2.185-3.783 1.396-2.115a.658.658 0 0 0 .021-.69l-1.314-2.278a.659.659 0 0 0-.61-.327l-2.528.151-2.425-4.2a1.955 1.955 0 0 0-1.684-.986h-.025c-.679 0-1.295.337-1.66.909L30.713 36.97l-5.583 3.223a4.604 4.604 0 0 0-1.684 6.285 4.607 4.607 0 0 0 5.693 1.972z"/></g><g><path fill="#fff" d="M55.508 26.528l-3.663 2.038a.657.657 0 0 0 .64 1.149l3.662-2.039a.657.657 0 1 0-.639-1.148z"/></g><g><path fill="#fff" d="M55.124 33.336l-2.54-.68a.657.657 0 1 0-.34 1.269l2.54.68a.657.657 0 1 0 .34-1.27z"/></g><g><path fill="#fff" d="M48.742 24.14l-.682 2.54a.657.657 0 0 0 1.27.34l.681-2.54a.657.657 0 1 0-1.27-.34z"/></g></g></g></g></svg>