<svg xmlns="http://www.w3.org/2000/svg" width="179.359" height="59.44" viewBox="0 0 179.359 59.44">
  <g id="Сгруппировать_1704" data-name="Сгруппировать 1704" transform="translate(-29.221 -748.659)">
    <g id="Сгруппировать_1703" data-name="Сгруппировать 1703" transform="translate(85.863 748.659)">
      <path id="Контур_1878" data-name="Контур 1878" d="M106.572,749.7a3.7,3.7,0,0,0-5.112-.028,3.523,3.523,0,0,0-1.116,2.614v9.087H91.607a14.326,14.326,0,0,0-4.8,1.184,10.485,10.485,0,0,0-1.7.847l-.019.011h0A9.308,9.308,0,0,0,84,764.2a11.393,11.393,0,0,0-2.366,2.775,12.143,12.143,0,0,0-1.392,3.414,15.635,15.635,0,0,0-.453,3.778,12.268,12.268,0,0,0,2.042,6.938,11.163,11.163,0,0,0,3.115,3.132h0l.063.039.015.01a13.1,13.1,0,0,0,5.905,2.128c.08.007.307.026.537.036h12.821a3.44,3.44,0,0,0,3.281-2.948,3.56,3.56,0,0,0,.067-.694V752.285a3.578,3.578,0,0,0-1.057-2.586M92.536,779.116a7.226,7.226,0,0,1-2.86-.674,5.125,5.125,0,0,1-1.218-.851,3.823,3.823,0,0,1-.71-.968,6.394,6.394,0,0,1-.569-2.838,5.962,5.962,0,0,1,.092-1.036,4.89,4.89,0,0,1,4.887-4.044l.006,0h8.179v10.409Z" transform="translate(-79.788 -748.659)" fill="#5d5c5c"/>
      <path id="Контур_1879" data-name="Контур 1879" d="M132.168,777.755H120.423a7.226,7.226,0,0,1-2.86-.674,5.11,5.11,0,0,1-1.219-.851,3.956,3.956,0,0,1-.56-.763h7.143a4.032,4.032,0,0,0,2.556-.87,2.492,2.492,0,0,0-.029-4.136,4.123,4.123,0,0,0-2.527-.823h-7.056a5,5,0,0,1,4.174-2.294l0,0h4.9l.018,0h7.2a3.684,3.684,0,0,0,0-7.337H119.493a14.315,14.315,0,0,0-4.8,1.183,10.57,10.57,0,0,0-1.7.847l-.018.011h0a9.632,9.632,0,0,0-1.091.789,11.407,11.407,0,0,0-2.365,2.775,12.157,12.157,0,0,0-1.393,3.414c-.048.2-.069.407-.11.608a15.738,15.738,0,0,0-.343,3.172,13.115,13.115,0,0,0,.295,2.657,12.005,12.005,0,0,0,1.747,4.279,11.133,11.133,0,0,0,3.115,3.132h0l.062.04.015.01a13.082,13.082,0,0,0,5.905,2.127c.08.007.307.027.537.037h12.822a3.683,3.683,0,0,0,0-7.336" transform="translate(-76.438 -747.296)" fill="#5d5c5c"/>
      <path id="Контур_1880" data-name="Контур 1880" d="M191.312,780.265l-12.223-12.224,6.031-6.03a3.719,3.719,0,0,0,0-5.154,3.527,3.527,0,0,0-2.638-1.057,3.61,3.61,0,0,0-2.515,1.057l-8.552,8.553V752.285a3.569,3.569,0,0,0-1.057-2.585,3.7,3.7,0,0,0-5.113-.029,3.524,3.524,0,0,0-1.115,2.614v30.527a3.635,3.635,0,0,0,6.257,2.526,3.611,3.611,0,0,0,1.028-2.526V775.7c.018-.016.038-.028.056-.046l2.465-2.465,12.224,12.224a3.636,3.636,0,0,0,6.211-2.638,3.613,3.613,0,0,0-1.06-2.514" transform="translate(-69.656 -748.659)" fill="#5d5c5c"/>
      <path id="Контур_1881" data-name="Контур 1881" d="M135.553,769.038h.031c0-.04-.01-.081-.015-.122,0,.041-.015.08-.017.122" transform="translate(-73.089 -746.226)" fill="#5d5c5c"/>
      <path id="Контур_1882" data-name="Контур 1882" d="M159.072,761.323h0" transform="translate(-70.264 -747.138)" fill="#5d5c5c"/>
      <path id="Контур_1883" data-name="Контур 1883" d="M164.805,776.464a7.14,7.14,0,0,0-2.677-4.694l-.026-.021a10.341,10.341,0,0,0-6.61-2.2h-5.527v0h-5.709a2.214,2.214,0,0,1-1.493-.521,1.794,1.794,0,0,1-.425-.515,1.835,1.835,0,0,1,.4-.561,2.094,2.094,0,0,1,1.519-.59h17a3.528,3.528,0,0,0,2.61-1.115,3.672,3.672,0,0,0,1.038-2.589c0-.115-.024-.222-.031-.334a3.59,3.59,0,0,0-3.608-3.316H144.256a10.043,10.043,0,0,0-6.637,2.271,6.2,6.2,0,0,0-2.691,6.235c0,.041.009.082.015.122a7.136,7.136,0,0,0,2.676,4.694l.027.021a10.339,10.339,0,0,0,6.61,2.2h7.764v0h3.472a2.21,2.21,0,0,1,1.493.521,1.793,1.793,0,0,1,.423.515,1.842,1.842,0,0,1-.4.56,2.1,2.1,0,0,1-1.52.591h-17a3.532,3.532,0,0,0-2.611,1.115,3.673,3.673,0,0,0-1.036,2.589c0,.114.02.221.03.332a3.588,3.588,0,0,0,3.609,3.317h17.007a10.041,10.041,0,0,0,6.636-2.271,6.8,6.8,0,0,0,2.773-5.5,6.6,6.6,0,0,0-.083-.733c0-.041-.008-.082-.013-.122" transform="translate(-73.174 -747.296)" fill="#5d5c5c"/>
    </g>
    <path id="Контур_1884" data-name="Контур 1884" d="M73.766,748.765H32.788a3.576,3.576,0,0,0-3.567,3.565v40.979a3.578,3.578,0,0,0,3.567,3.568H58.11l11.208,11.209V796.877h4.448a3.577,3.577,0,0,0,3.565-3.568V752.33a3.575,3.575,0,0,0-3.565-3.565" transform="translate(0 0.013)" fill="#ddd5b0" fill-rule="evenodd"/>
    <path id="Контур_1885" data-name="Контур 1885" d="M46.072,779.516l-4.133,7.052H35.674l7.184-12.235L36,762.623h6.167l3.937,6.659,3.936-6.659h6.167l-6.888,11.743,7.151,12.2H50.238Z" transform="translate(0.775 1.678)" fill="#fff"/>
    <path id="Контур_1886" data-name="Контур 1886" d="M55.208,768.776c0-2.853,2.48-4.434,4.566-5.706,1.558-.967,2.984-1.756,2.984-2.743,0-.812-.636-1.449-1.887-1.449a2.951,2.951,0,0,0-2.635,2.085l-3.291-1.668a6.186,6.186,0,0,1,5.969-3.687c3.555,0,5.729,2,5.729,4.72,0,2.655-2.217,4.016-4.346,5.311-1.427.878-2.808,1.647-3.248,2.635h7.528v3.578H55.208Z" transform="translate(3.09 0.835)" fill="#fff"/>
  </g>
</svg>
