<svg xmlns="http://www.w3.org/2000/svg" width="193.958" height="53.621" viewBox="0 0 193.958 53.621">
  <g id="Сгруппировать_1719" data-name="Сгруппировать 1719" transform="translate(-37.504 -735.43)">
    <path id="Контур_1914" data-name="Контур 1914" d="M187.35,759.623H177.172a6.248,6.248,0,0,1-2.478-.585,4.456,4.456,0,0,1-1.056-.737,3.494,3.494,0,0,1-.483-.661h6.19a3.483,3.483,0,0,0,2.213-.757,2.156,2.156,0,0,0-.025-3.581,3.579,3.579,0,0,0-2.188-.714h-6.116a4.324,4.324,0,0,1,3.617-1.986h4.249l.017,0h6.239a3.192,3.192,0,0,0,0-6.358H176.367a12.428,12.428,0,0,0-4.159,1.025,8.9,8.9,0,0,0-1.474.733l-.016.012h0a8.008,8.008,0,0,0-.944.683,9.885,9.885,0,0,0-2.051,2.4,10.483,10.483,0,0,0-1.207,2.963c-.044.173-.061.349-.1.524a13.692,13.692,0,0,0-.3,2.749,11.309,11.309,0,0,0,.257,2.3,10.355,10.355,0,0,0,1.513,3.709,9.621,9.621,0,0,0,2.7,2.712h-.005c.02.015.037.024.055.037l.011.008a11.289,11.289,0,0,0,5.119,1.843c.069,0,.265.024.465.032H187.35a3.192,3.192,0,0,0,0-6.358" transform="translate(41.212 2.825)" fill="#5d5c5c"/>
    <path id="Контур_1915" data-name="Контур 1915" d="M77.768,735.43H40.727a3.234,3.234,0,0,0-3.223,3.225V775.7a3.23,3.23,0,0,0,3.223,3.221H63.617l10.132,10.134V778.917h4.019a3.233,3.233,0,0,0,3.226-3.221V738.655a3.236,3.236,0,0,0-3.226-3.225" transform="translate(0)" fill="#eb6e40" fill-rule="evenodd"/>
    <path id="Контур_1916" data-name="Контур 1916" d="M51.85,761.325,48.116,767.7H42.452l6.493-11.059-6.2-10.584H48.32l3.559,6.018,3.557-6.018h5.575l-6.225,10.611L61.249,767.7H55.615Z" transform="translate(1.585 3.405)" fill="#fff"/>
    <path id="Контур_1917" data-name="Контур 1917" d="M57.467,752.582c0-2.579,2.242-4.009,4.126-5.158,1.408-.875,2.7-1.589,2.7-2.481,0-.734-.573-1.309-1.706-1.309a2.667,2.667,0,0,0-2.381,1.883l-2.975-1.507a5.587,5.587,0,0,1,5.4-3.334c3.215,0,5.179,1.8,5.179,4.266,0,2.4-2,3.63-3.928,4.8-1.29.8-2.538,1.488-2.937,2.383h6.805v3.232H57.467Z" transform="translate(6.32 1.681)" fill="#fff"/>
    <path id="Контур_1918" data-name="Контур 1918" d="M118.616,744.2H110.4c-5.492,0-9.945,4.878-9.945,10.9S104.91,766,110.4,766h8.214c5.49,0,9.943-4.878,9.943-10.9s-4.452-10.9-9.943-10.9m-.379,15.355H110.78a4.476,4.476,0,0,1,0-8.914h7.456a4.476,4.476,0,0,1,0,8.914" transform="translate(20.171 2.81)" fill="#5d5c5c"/>
    <path id="Контур_1919" data-name="Контур 1919" d="M105.732,753.747l0,0a9.513,9.513,0,0,0-2.165-5.481,5.527,5.527,0,0,0-.483-.591c-.038-.042-.059-.062-.059-.062a11.3,11.3,0,0,0-7.376-3.372H79.213a2.666,2.666,0,0,0-1.112.246,3.331,3.331,0,0,0-.889.651,3.368,3.368,0,0,0-.655.912,2.248,2.248,0,0,0-.24.986v16.044a3.193,3.193,0,0,0,6.359,0V750.648h5.177v12.434a3.192,3.192,0,0,0,6.358,0V750.648h.9a4.009,4.009,0,0,1,1.45.283,5.56,5.56,0,0,1,1.38.759,4.344,4.344,0,0,1,1.039,1.134,2.653,2.653,0,0,1,.409,1.435v8.274h0v.549a3.192,3.192,0,0,0,6.358,0v-9.2a1.122,1.122,0,0,0-.013-.139" transform="translate(12.436 2.824)" fill="#5d5c5c"/>
    <path id="Контур_1920" data-name="Контур 1920" d="M123.929,739.047V765.5a3.115,3.115,0,0,0,.058.6,2.98,2.98,0,0,0,2.842,2.555h11.113c.2-.008.395-.028.465-.032a11.273,11.273,0,0,0,5.115-1.843l.013-.008a.532.532,0,0,0,.053-.037h0a9.581,9.581,0,0,0,2.7-2.712,10.633,10.633,0,0,0,1.771-6.012,13.529,13.529,0,0,0-.393-3.273,10.472,10.472,0,0,0-1.206-2.96,9.844,9.844,0,0,0-2.051-2.4,7.9,7.9,0,0,0-.944-.683h0l-.015-.009a8.846,8.846,0,0,0-1.476-.736,12.412,12.412,0,0,0-4.157-1.025h-7.571v-7.874a3.047,3.047,0,0,0-.968-2.266,3.2,3.2,0,0,0-4.43.024,3.1,3.1,0,0,0-.915,2.242m6.313,23.25v-9.018h2.827l.015,0h4.249a4.236,4.236,0,0,1,4.237,3.5,5.174,5.174,0,0,1,.078.9,5.544,5.544,0,0,1-.493,2.46,3.341,3.341,0,0,1-.615.84,4.538,4.538,0,0,1-1.055.737,6.24,6.24,0,0,1-2.476.585Z" transform="translate(27.692 0.152)" fill="#5d5c5c"/>
    <path id="Контур_1921" data-name="Контур 1921" d="M147.7,743.178a3.733,3.733,0,0,0,2.694-1.1v0a3.651,3.651,0,0,0,1.1-2.641,3.722,3.722,0,0,0-1.1-2.7,3.828,3.828,0,0,0-5.336,0,3.725,3.725,0,0,0-1.1,2.7,3.774,3.774,0,0,0,3.746,3.749" transform="translate(34.11 0.071)" fill="#5d5c5c"/>
    <path id="Контур_1922" data-name="Контур 1922" d="M145.391,744.146a3.062,3.062,0,0,0-.967,2.267v16.724a3.216,3.216,0,0,0,3.156,3.156,3.039,3.039,0,0,0,2.266-.968,3.118,3.118,0,0,0,.893-2.188V746.414a3.105,3.105,0,0,0-.916-2.243,3.209,3.209,0,0,0-4.431-.024" transform="translate(34.259 2.512)" fill="#5d5c5c"/>
    <path id="Контур_1923" data-name="Контур 1923" d="M169.255,762.808a3.315,3.315,0,0,0-2.448-1.044h-3.425a5.187,5.187,0,0,1-5.144-5.142v-17.35a3.332,3.332,0,0,0-1.046-2.453,3.542,3.542,0,0,0-4.864.026,3.365,3.365,0,0,0-.994,2.427v17.35a12,12,0,0,0,12.049,12.045h3.425a3.361,3.361,0,0,0,2.427-1h0a3.365,3.365,0,0,0,1-2.43,3.449,3.449,0,0,0-.976-2.434" transform="translate(36.473 0.139)" fill="#5d5c5c"/>
  </g>
</svg>
