<svg id="Сгруппировать_1700" data-name="Сгруппировать 1700" xmlns="http://www.w3.org/2000/svg" width="263.344" height="56.711" viewBox="0 0 263.344 56.711">
  <path id="Контур_1796" data-name="Контур 1796" d="M229.043,53.917h-1.651l-9.931,0a7.145,7.145,0,0,1-2.819-.665,5.054,5.054,0,0,1-1.2-.839,3.839,3.839,0,0,1-.551-.751h7.042a4,4,0,0,0,2.521-.858,2.576,2.576,0,0,0,1.071-2.018,2.544,2.544,0,0,0-1.1-2.062,4.064,4.064,0,0,0-2.491-.812h-6.959a4.92,4.92,0,0,1,4.115-2.261h4.836c.006,0,.014,0,.021,0h7.1a3.633,3.633,0,0,0,0-7.236h-12.5a14.084,14.084,0,0,0-4.731,1.168,10.1,10.1,0,0,0-1.68.834l-.016.011h0a8.774,8.774,0,0,0-1.074.78,11.194,11.194,0,0,0-2.333,2.733,11.941,11.941,0,0,0-1.374,3.367c-.049.2-.069.4-.11.6a15.615,15.615,0,0,0-.336,3.127,12.954,12.954,0,0,0,.29,2.623,11.87,11.87,0,0,0,1.722,4.218,11.032,11.032,0,0,0,3.072,3.087h0c.019.012.041.028.061.04a.029.029,0,0,0,.014.011,12.894,12.894,0,0,0,5.824,2.1c.077.007.3.026.528.037h12.644a3.631,3.631,0,0,0,0-7.232" transform="translate(-29.185 -23.82)" fill="#6d6e70"/>
  <path id="Контур_1797" data-name="Контур 1797" d="M76.723,43.646l0,0h4.831c.007,0,.013,0,.019,0h7.1a3.633,3.633,0,0,0,0-7.236h-12.5a14.058,14.058,0,0,0-4.732,1.168,10.115,10.115,0,0,0-1.678.834l-.019.011h0a8.921,8.921,0,0,0-1.074.78,11.2,11.2,0,0,0-2.333,2.733,12.047,12.047,0,0,0-1.374,3.367,15.559,15.559,0,0,0-.445,3.728,12.093,12.093,0,0,0,2.014,6.841,10.994,10.994,0,0,0,3.071,3.087h0c.02.012.041.028.061.042l.013.008a12.9,12.9,0,0,0,5.824,2.1c.08.007.3.026.53.037H88.677a3.632,3.632,0,0,0,0-7.232H87.024l-9.93,0a7.162,7.162,0,0,1-2.822-.665,5.023,5.023,0,0,1-1.2-.839,3.692,3.692,0,0,1-.7-.955,6.291,6.291,0,0,1-.562-2.8,5.678,5.678,0,0,1,.091-1.021,4.823,4.823,0,0,1,4.819-3.99" transform="translate(-15.241 -23.82)" fill="#6d6e70"/>
  <path id="Контур_1798" data-name="Контур 1798" d="M117.517,36.338h-9.346c-6.249,0-11.315,5.554-11.315,12.4s5.066,12.4,11.315,12.4h9.346c6.25,0,11.317-5.553,11.317-12.4s-5.067-12.4-11.317-12.4m-.43,17.476H108.6a5.094,5.094,0,0,1,0-10.146h8.485a5.094,5.094,0,0,1,0,10.146" transform="translate(-18.453 -23.812)" fill="#6d6e70"/>
  <path id="Контур_1799" data-name="Контур 1799" d="M249.343,43.646l.007,0h4.83c.006,0,.013,0,.019,0h7.1a3.633,3.633,0,0,0,0-7.236H248.8a14.052,14.052,0,0,0-4.731,1.168,10.126,10.126,0,0,0-1.679.834l-.018.011h0a8.78,8.78,0,0,0-1.074.78,11.161,11.161,0,0,0-2.332,2.733,12.076,12.076,0,0,0-1.375,3.367,15.515,15.515,0,0,0-.446,3.728,12.1,12.1,0,0,0,2.015,6.841,11.011,11.011,0,0,0,3.069,3.087h0c.019.012.04.028.06.042l.013.008a12.893,12.893,0,0,0,5.825,2.1c.077.007.3.026.527.037H261.3a3.631,3.631,0,0,0,0-7.232h-1.65l-9.932,0a7.139,7.139,0,0,1-2.818-.665,5.066,5.066,0,0,1-1.2-.839,3.746,3.746,0,0,1-.7-.955,6.316,6.316,0,0,1-.562-2.8,5.6,5.6,0,0,1,.091-1.021,4.823,4.823,0,0,1,4.817-3.99" transform="translate(-32.388 -23.82)" fill="#6d6e70"/>
  <path id="Контур_1800" data-name="Контур 1800" d="M160.036,39.641a12.179,12.179,0,0,0-8.916-3.63H139.579a3.861,3.861,0,0,0-3.9,3.9V57.214a3.828,3.828,0,0,0,1.133,2.763,4.029,4.029,0,0,0,5.534.023,3.769,3.769,0,0,0,1.187-2.792l-.054-13.524h7.639a4.579,4.579,0,0,1,1.823.364,4.712,4.712,0,0,1,1.535,1.029,4.764,4.764,0,0,1,1.035,1.538,4.868,4.868,0,0,1,.361,1.887v8.713A3.753,3.753,0,0,0,157.063,60a3.918,3.918,0,0,0,2.77,1.113,3.867,3.867,0,0,0,3.9-3.9V48.5a12.143,12.143,0,0,0-3.694-8.86" transform="translate(-22.31 -23.779)" fill="#6d6e70"/>
  <path id="Контур_1801" data-name="Контур 1801" d="M195.019,39.641a12.175,12.175,0,0,0-8.917-3.63H174.561a3.863,3.863,0,0,0-3.9,3.9V57.214a3.838,3.838,0,0,0,1.132,2.763,4.029,4.029,0,0,0,5.534.023,3.773,3.773,0,0,0,1.188-2.792l-.055-13.524H186.1a4.573,4.573,0,0,1,1.823.364,4.79,4.79,0,0,1,2.57,2.567,4.852,4.852,0,0,1,.362,1.887v8.713A3.754,3.754,0,0,0,192.044,60a3.921,3.921,0,0,0,2.77,1.113,3.866,3.866,0,0,0,3.9-3.9V48.5a12.141,12.141,0,0,0-3.692-8.86" transform="translate(-25.785 -23.779)" fill="#6d6e70"/>
  <path id="Контур_1802" data-name="Контур 1802" d="M297.954,53.038a3.9,3.9,0,0,0-2.824-1.133H284.639a5.8,5.8,0,0,1-4.125-1.666,5.667,5.667,0,0,1-1.727-4.184V42.334h8.471a3.864,3.864,0,0,0,3.9-3.9,3.559,3.559,0,0,0-3.9-3.776h-8.471V26.311a3.8,3.8,0,0,0-1.191-2.792,4.024,4.024,0,0,0-5.535.029,3.839,3.839,0,0,0-1.13,2.763V46.055a13.651,13.651,0,0,0,13.709,13.7H295.13a3.942,3.942,0,0,0,2.77-1.11,3.774,3.774,0,0,0,1.189-2.786,3.914,3.914,0,0,0-1.135-2.826" transform="translate(-35.744 -22.43)" fill="#6d6e70"/>
  <path id="Контур_1803" data-name="Контур 1803" d="M50.386,25.4H13.054a3.259,3.259,0,0,0-3.248,3.248V65.976a3.257,3.257,0,0,0,3.248,3.25h23.07l10.213,10.21V69.226h4.05a3.257,3.257,0,0,0,3.249-3.25V28.644A3.258,3.258,0,0,0,50.386,25.4" transform="translate(-9.806 -22.725)" fill="#1a96a3" fill-rule="evenodd"/>
  <path id="Контур_1804" data-name="Контур 1804" d="M26.589,56.485l-3.765,6.425H17.116l6.545-11.146L17.415,41.1h5.618l3.585,6.065L30.206,41.1h5.616L29.548,51.8l6.514,11.115H30.384Z" transform="translate(-10.532 -24.285)" fill="#fff"/>
  <path id="Контур_1805" data-name="Контур 1805" d="M39.19,45.145c0-2.6,2.262-4.038,4.16-5.2,1.419-.88,2.719-1.6,2.719-2.5,0-.739-.578-1.32-1.719-1.32a2.691,2.691,0,0,0-2.4,1.9l-3-1.519a5.638,5.638,0,0,1,5.44-3.358c3.239,0,5.218,1.819,5.218,4.3,0,2.42-2.019,3.66-3.958,4.838-1.3.8-2.559,1.5-2.959,2.4h6.858v3.26H39.19Z" transform="translate(-12.701 -23.495)" fill="#fff"/>
</svg>
