<svg xmlns="http://www.w3.org/2000/svg" width="133.106" height="54.282" viewBox="0 0 133.106 54.282">
  <g id="Сгруппировать_1721" data-name="Сгруппировать 1721" transform="translate(-1398.539 -87.352)">
    <path id="Контур_1914" data-name="Контур 1914" d="M1817.615,122.379a3.429,3.429,0,0,0-2.48-.995h-9.218a5.087,5.087,0,0,1-3.624-1.466,4.97,4.97,0,0,1-1.519-3.676v-3.268h7.443a3.4,3.4,0,0,0,3.425-3.423,3.129,3.129,0,0,0-3.425-3.318h-7.443V98.9a3.321,3.321,0,0,0-1.045-2.45,3.534,3.534,0,0,0-4.863.024,3.365,3.365,0,0,0-.995,2.425v17.346a12,12,0,0,0,12.046,12.043h9.218a3.453,3.453,0,0,0,2.432-.974,3.315,3.315,0,0,0,1.045-2.449,3.433,3.433,0,0,0-1-2.483" transform="translate(-344.052 -7.081)" fill="#706f6e"/>
    <path id="Контур_1915" data-name="Контур 1915" d="M1458.833,212.6l-3.77,6.432h-5.714l6.552-11.159-6.252-10.68h5.624l3.59,6.073,3.591-6.073h5.623l-6.282,10.711,6.522,11.128h-5.684Z" transform="translate(-44.219 -95.591)" fill="#fff"/>
    <path id="Контур_1916" data-name="Контур 1916" d="M1601.368,153.946c0-2.6,2.263-4.044,4.165-5.206,1.421-.88,2.722-1.6,2.722-2.5,0-.74-.58-1.322-1.721-1.322a2.691,2.691,0,0,0-2.4,1.9l-3-1.521a5.642,5.642,0,0,1,5.444-3.364c3.243,0,5.224,1.822,5.224,4.3,0,2.422-2.022,3.663-3.963,4.844-1.3.8-2.562,1.5-2.962,2.4h6.866v3.263h-10.37Z" transform="translate(-176.311 -47.502)" fill="#fff"/>
    <path id="Контур_1917" data-name="Контур 1917" d="M2013.639,185.418a3.361,3.361,0,0,0-2-1.811,3.491,3.491,0,0,0-2.652.141,3.391,3.391,0,0,0-1.891,2.3c-.006.022-.016.04-.021.059-.288,1.349-.767,3.857-1.1,5.519-.229,1.14-.459,2.291-.7,3.492a3.92,3.92,0,0,1-2.37,3.031.259.259,0,0,1-.12.032.238.238,0,0,1-.128-.032,3.909,3.909,0,0,1-2.366-3.031c-.268-1.318-.524-2.589-.773-3.833h-.025c-.316-1.344-.838-3.849-1.058-4.884a4.016,4.016,0,0,0-.151-.424,3.362,3.362,0,0,0-1.76-1.939,3.515,3.515,0,0,0-2.652-.139,3.373,3.373,0,0,0-2,1.806,3.565,3.565,0,0,0-.281,2.163l1.027,4.707.864,3.977,0,.006a10.593,10.593,0,0,0,5.493,7.482,6.887,6.887,0,0,0,1.621.748,5.887,5.887,0,0,0,.75.192,7.371,7.371,0,0,0,1.377.14,7.523,7.523,0,0,0,1.439-.148,7.84,7.84,0,0,0,1-.258c.22-.088.439-.164.656-.265a.062.062,0,0,1,.022-.012,8.019,8.019,0,0,0,1.132-.6,10.579,10.579,0,0,0,5.109-7.281l0-.006.869-4.3.968-4.677a3.557,3.557,0,0,0-.281-2.159" transform="translate(-516.071 -83.598)" fill="#6f6f6e"/>
    <g id="Сгруппировать_1720" data-name="Сгруппировать 1720" transform="translate(1398.539 87.352)">
      <g id="Сгруппировать_1719" data-name="Сгруппировать 1719" transform="translate(0 0)">
        <path id="Контур_1918" data-name="Контур 1918" d="M2238.763,246.7h.032c-.005-.036-.009-.074-.014-.11,0,.036-.013.071-.017.11" transform="translate(-2129.774 -225.935)" fill="#6f6f6e"/>
        <path id="Контур_1919" data-name="Контур 1919" d="M2424.6,186.589h0" transform="translate(-2291.507 -173.717)" fill="#6f6f6e"/>
        <path id="Контур_1920" data-name="Контур 1920" d="M1439.3,87.352h-37.5a3.271,3.271,0,0,0-3.265,3.263v37.5a3.274,3.274,0,0,0,3.265,3.263h23.171l10.256,10.257V131.377h4.069a3.274,3.274,0,0,0,3.265-3.263v-37.5a3.271,3.271,0,0,0-3.265-3.263" transform="translate(-1398.539 -87.352)" fill="#1a7251" fill-rule="evenodd"/>
        <path id="Контур_1921" data-name="Контур 1921" d="M1459.063,212.3l-3.781,6.457h-5.732l6.573-11.2-6.273-10.718h5.642l3.6,6.1,3.6-6.1h5.644l-6.3,10.746,6.543,11.168h-5.7Z" transform="translate(-1442.933 -182.644)" fill="#fff"/>
        <path id="Контур_1922" data-name="Контур 1922" d="M1602.058,153.449c0-2.612,2.268-4.057,4.175-5.22,1.427-.884,2.733-1.61,2.733-2.51,0-.744-.583-1.325-1.727-1.325a2.7,2.7,0,0,0-2.411,1.905l-3.012-1.524a5.664,5.664,0,0,1,5.464-3.378c3.253,0,5.241,1.83,5.241,4.322,0,2.428-2.028,3.673-3.976,4.859-1.305.806-2.57,1.509-2.972,2.412h6.889v3.272h-10.4Z" transform="translate(-1575.448 -134.386)" fill="#fff"/>
      </g>
    </g>
  </g>
</svg>
