<svg xmlns="http://www.w3.org/2000/svg" width="185.685" height="55.33" viewBox="0 0 185.685 55.33">
  <g id="Сгруппировать_1718" data-name="Сгруппировать 1718" transform="translate(-37.661 -735.159)">
    <g id="Сгруппировать_1717" data-name="Сгруппировать 1717" transform="translate(37.661 735.159)">
      <path id="Контур_1887" data-name="Контур 1887" d="M120.306,760.38H109.434a6.762,6.762,0,0,1-2.65-.624,4.91,4.91,0,0,1-1.125-.787,3.774,3.774,0,0,1-.519-.709h6.614a3.74,3.74,0,0,0,2.365-.805,2.417,2.417,0,0,0,1.006-1.892,2.387,2.387,0,0,0-1.034-1.937,3.8,3.8,0,0,0-2.337-.76h-6.535a4.622,4.622,0,0,1,3.864-2.126h11.223a3.407,3.407,0,0,0,0-6.786H108.572a13.134,13.134,0,0,0-4.441,1.095,9.631,9.631,0,0,0-1.577.784l-.016.011h0a8.846,8.846,0,0,0-1.011.727,10.511,10.511,0,0,0-2.189,2.569,11.218,11.218,0,0,0-1.289,3.16c-.046.184-.063.378-.1.566a14.647,14.647,0,0,0-.317,2.931,12.166,12.166,0,0,0,.276,2.463,11.064,11.064,0,0,0,1.617,3.96,10.246,10.246,0,0,0,2.884,2.9h0a.3.3,0,0,0,.055.039l.015.008a12.046,12.046,0,0,0,5.464,1.971c.077.005.286.024.5.035h11.871a3.411,3.411,0,0,0,0-6.793" transform="translate(-16.999 -732.128)" fill="#5d5c5c"/>
      <path id="Контур_1888" data-name="Контур 1888" d="M98.971,747.107A11.437,11.437,0,0,0,90.6,743.7H79.765a3.631,3.631,0,0,0-3.66,3.657V763.6A3.6,3.6,0,0,0,77.17,766.2a3.783,3.783,0,0,0,5.194.024A3.555,3.555,0,0,0,83.48,763.6l-.052-12.7H90.6a4.28,4.28,0,0,1,1.712.344,4.466,4.466,0,0,1,2.754,4.179V763.6a3.548,3.548,0,0,0,1.113,2.618,3.693,3.693,0,0,0,2.6,1.039,3.632,3.632,0,0,0,3.657-3.657v-8.182a11.387,11.387,0,0,0-3.466-8.316" transform="translate(-24.415 -732.217)" fill="#5d5c5c"/>
      <path id="Контур_1889" data-name="Контур 1889" d="M181.472,763.891a3.668,3.668,0,0,0-2.65-1.064h-9.85a5.426,5.426,0,0,1-3.872-1.566,5.293,5.293,0,0,1-1.623-3.922v-3.5h7.953a3.634,3.634,0,0,0,3.66-3.659,3.344,3.344,0,0,0-3.66-3.546h-7.953V738.8a3.55,3.55,0,0,0-1.119-2.618,3.776,3.776,0,0,0-5.194.028,3.584,3.584,0,0,0-1.064,2.59v18.541A12.826,12.826,0,0,0,168.971,770.2h9.85a3.686,3.686,0,0,0,2.6-1.039,3.548,3.548,0,0,0,1.117-2.618,3.667,3.667,0,0,0-1.065-2.655" transform="translate(3.148 -735.159)" fill="#5d5c5c"/>
      <path id="Контур_1890" data-name="Контур 1890" d="M119.286,751.238h.032c-.005-.036-.009-.075-.015-.112,0,.036-.013.071-.018.112" transform="translate(-9.536 -729.657)" fill="#5d5c5c"/>
      <path id="Контур_1891" data-name="Контур 1891" d="M137.342,745.3h0" transform="translate(-3.316 -731.666)" fill="#5d5c5c"/>
      <path id="Контур_1892" data-name="Контур 1892" d="M78.706,735.656H40.948a3.3,3.3,0,0,0-3.287,3.286V776.7a3.3,3.3,0,0,0,3.287,3.285H64.282l10.328,10.329V779.989h4.1A3.3,3.3,0,0,0,82,776.7V738.942a3.3,3.3,0,0,0-3.289-3.286" transform="translate(-37.661 -734.988)" fill="#fbba00" fill-rule="evenodd"/>
      <path id="Контур_1893" data-name="Контур 1893" d="M52.2,761.859l-3.808,6.5H42.616l6.619-11.274-6.317-10.793H48.6l3.628,6.138,3.626-6.138h5.683l-6.347,10.821,6.588,11.246H56.034Z" transform="translate(-35.954 -731.323)" fill="#fff"/>
      <path id="Контур_1894" data-name="Контур 1894" d="M57.653,753.043c0-2.63,2.284-4.085,4.2-5.256,1.436-.89,2.752-1.622,2.752-2.529,0-.749-.588-1.334-1.74-1.334a2.715,2.715,0,0,0-2.427,1.919l-3.035-1.534a5.7,5.7,0,0,1,5.5-3.4c3.277,0,5.279,1.842,5.279,4.351,0,2.446-2.042,3.7-4,4.893-1.315.812-2.588,1.519-2.993,2.43h6.937v3.294H57.653Z" transform="translate(-30.857 -733.178)" fill="#fff"/>
      <path id="Контур_1895" data-name="Контур 1895" d="M134.644,755.583l6.138-6.138a3.279,3.279,0,0,0,0-4.551,3.091,3.091,0,0,0-2.33-.937,3.183,3.183,0,0,0-2.22.937l-6.138,6.137-6.119-6.119a3.149,3.149,0,0,0-2.274-.955,3.269,3.269,0,0,0-3.213,3.176,3.122,3.122,0,0,0,.937,2.332l6.118,6.119-6.1,6.1a3.159,3.159,0,0,0-.953,2.274,3.266,3.266,0,0,0,3.177,3.212,3.1,3.1,0,0,0,2.329-.937l6.1-6.1,6.12,6.115a3.211,3.211,0,0,0,5.486-2.329,3.186,3.186,0,0,0-.936-2.22Z" transform="translate(-9.812 -732.128)" fill="#5d5c5c"/>
      <path id="Контур_1896" data-name="Контур 1896" d="M153.5,755.583l6.139-6.138a3.286,3.286,0,0,0,0-4.551,3.1,3.1,0,0,0-2.331-.937,3.175,3.175,0,0,0-2.219.937l-6.139,6.137-6.12-6.119a3.145,3.145,0,0,0-2.274-.955,3.269,3.269,0,0,0-3.211,3.176,3.117,3.117,0,0,0,.937,2.332l6.116,6.119-6.1,6.1a3.152,3.152,0,0,0-.952,2.274,3.264,3.264,0,0,0,3.176,3.212,3.1,3.1,0,0,0,2.327-.937l6.1-6.1,6.119,6.115a3.277,3.277,0,0,0,4.55,0,3.1,3.1,0,0,0,.936-2.329,3.18,3.18,0,0,0-.936-2.22Z" transform="translate(-3.315 -732.128)" fill="#5d5c5c"/>
      <path id="Контур_1897" data-name="Контур 1897" d="M97.724,770.32a6.627,6.627,0,0,1-.834-.061V771.8a.174.174,0,0,1-.173.173h-.8a.175.175,0,0,1-.175-.173V765.75c0-.132.036-.183.235-.234a7.457,7.457,0,0,1,1.747-.229,1.92,1.92,0,0,1,2.079,2.184v.667a1.919,1.919,0,0,1-2.079,2.182m.93-2.849c0-.711-.183-1.241-.93-1.241a5.243,5.243,0,0,0-.834.058v3.033a6.925,6.925,0,0,0,.834.063c.748,0,.93-.532.93-1.246Z" transform="translate(-17.649 -724.778)" fill="#5d5c5c"/>
      <path id="Контур_1898" data-name="Контур 1898" d="M101.439,770.319a1.971,1.971,0,0,1-2.077-2.165v-.7a2.078,2.078,0,1,1,4.153,0v.7a1.969,1.969,0,0,1-2.076,2.165m.93-2.867c0-.713-.323-1.175-.93-1.175s-.93.462-.93,1.175v.7c0,.713.321,1.175.93,1.175s.93-.462.93-1.175Z" transform="translate(-16.401 -724.777)" fill="#5d5c5c"/>
      <path id="Контур_1899" data-name="Контур 1899" d="M109.6,765.535l-.792,4c-.1.52-.242.73-.772.73H107.8a.77.77,0,0,1-.826-.678l-.687-2.662c-.008-.031-.008-.043-.024-.043s-.019.012-.027.043l-.687,2.662a.769.769,0,0,1-.824.678h-.237c-.53,0-.67-.21-.774-.73l-.791-4v-.03a.174.174,0,0,1,.175-.171h.843a.165.165,0,0,1,.156.155l.55,3.676c.005.078.024.122.042.122s.044-.035.061-.122l.722-2.919c.086-.342.19-.374.487-.374h.608c.294,0,.4.032.487.374l.721,2.919c.019.087.044.122.061.122s.036-.044.044-.122l.547-3.676a.169.169,0,0,1,.156-.155h.843a.173.173,0,0,1,.175.171Z" transform="translate(-15.175 -724.762)" fill="#5d5c5c"/>
      <path id="Контур_1900" data-name="Контур 1900" d="M112.345,768.2h-2.834v.023a.982.982,0,0,0,1.043,1.107c.635,0,1.234-.052,1.6-.089h.026c.087,0,.155.043.155.132v.57c0,.143-.026.2-.18.229a7.63,7.63,0,0,1-1.687.148,2,2,0,0,1-2.1-2.182V767.5a2.081,2.081,0,1,1,4.153,0v.485c0,.14-.054.219-.173.219m-.982-.852c0-.679-.375-1.07-.914-1.07a.94.94,0,0,0-.929,1.07v.035h1.843Z" transform="translate(-13.299 -724.778)" fill="#5d5c5c"/>
      <path id="Контур_1901" data-name="Контур 1901" d="M114.53,766.263a2.447,2.447,0,0,0-1.2.312v3.493a.182.182,0,0,1-.175.182h-.8a.183.183,0,0,1-.173-.182v-4.546a.173.173,0,0,1,.173-.171h.757a.173.173,0,0,1,.173.171v.183a2.033,2.033,0,0,1,1.242-.418.178.178,0,0,1,.175.175v.625a.176.176,0,0,1-.175.176" transform="translate(-11.984 -724.778)" fill="#5d5c5c"/>
      <path id="Контур_1902" data-name="Контур 1902" d="M118.478,768.2h-2.833v.023a.981.981,0,0,0,1.042,1.107c.636,0,1.234-.052,1.6-.089h.026c.087,0,.156.043.156.132v.57c0,.143-.027.2-.182.229a7.63,7.63,0,0,1-1.687.148,2,2,0,0,1-2.1-2.182V767.5a2.081,2.081,0,1,1,4.153,0v.485c0,.14-.052.219-.173.219m-.983-.852c0-.679-.374-1.07-.913-1.07a.939.939,0,0,0-.929,1.07v.035H117.5Z" transform="translate(-11.186 -724.778)" fill="#5d5c5c"/>
      <path id="Контур_1903" data-name="Контур 1903" d="M122.011,770.514a7.286,7.286,0,0,1-1.747.229,1.92,1.92,0,0,1-2.079-2.182v-.667a1.921,1.921,0,0,1,2.079-2.184,6.028,6.028,0,0,1,.834.065v-1.539a.175.175,0,0,1,.176-.175h.8a.174.174,0,0,1,.175.175v6.049c0,.129-.034.181-.235.23m-.913-3.8a7.432,7.432,0,0,0-.834-.058c-.748,0-.929.53-.929,1.241v.667c0,.714.182,1.246.929,1.246a4.807,4.807,0,0,0,.834-.063Z" transform="translate(-9.916 -725.201)" fill="#5d5c5c"/>
      <path id="Контур_1904" data-name="Контур 1904" d="M125.644,770.742a7.3,7.3,0,0,1-1.748-.229c-.2-.048-.234-.1-.234-.23v-6.049a.174.174,0,0,1,.175-.175h.8a.171.171,0,0,1,.173.175v1.539a6.047,6.047,0,0,1,.836-.065,1.92,1.92,0,0,1,2.077,2.184v.667a1.919,1.919,0,0,1-2.077,2.182m.929-2.849c0-.711-.182-1.241-.929-1.241a7.477,7.477,0,0,0-.836.058v3.033a4.878,4.878,0,0,0,.836.063c.748,0,.929-.532.929-1.246Z" transform="translate(-8.029 -725.201)" fill="#5d5c5c"/>
      <path id="Контур_1905" data-name="Контур 1905" d="M131.558,765.535l-1.451,5.072c-.269.948-.59,1.366-1.773,1.366a4.068,4.068,0,0,1-.921-.113c-.1-.027-.181-.062-.181-.148v-.557a.162.162,0,0,1,.175-.159h.016c.242.011.737.054.983.054.372,0,.562-.1.684-.557l.07-.261h-.13c-.251,0-.563-.059-.756-.718l-1.139-3.98a.158.158,0,0,1-.011-.063c0-.089.054-.137.168-.137h.878a.192.192,0,0,1,.164.155l.877,3.535c.035.148.071.195.124.195h.078l.94-3.736a.18.18,0,0,1,.172-.148h.886a.153.153,0,0,1,.157.148.109.109,0,0,1-.009.052" transform="translate(-6.836 -724.762)" fill="#5d5c5c"/>
      <path id="Контур_1906" data-name="Контур 1906" d="M136.393,770.58a6.513,6.513,0,0,1-1.373.14,2.344,2.344,0,0,1-2.459-2.658v-1.279a2.324,2.324,0,0,1,2.459-2.657,6.821,6.821,0,0,1,1.373.136c.113.036.192.081.192.2v.585a.157.157,0,0,1-.175.18h-.017c-.305-.024-.894-.069-1.354-.069-.73,0-1.26.39-1.26,1.624v1.279c0,1.206.53,1.623,1.26,1.623.46,0,1.049-.043,1.354-.067h.017c.132,0,.175.079.175.184v.577c0,.126-.079.168-.192.2" transform="translate(-4.963 -725.178)" fill="#5d5c5c"/>
      <path id="Контур_1907" data-name="Контур 1907" d="M137.28,770.673h-.809a.182.182,0,0,1-.175-.182v-6.256a.174.174,0,0,1,.175-.175h.809a.168.168,0,0,1,.165.175v6.256a.176.176,0,0,1-.165.182" transform="translate(-3.676 -725.201)" fill="#5d5c5c"/>
      <path id="Контур_1908" data-name="Контур 1908" d="M141.892,768.2h-2.833v.023a.981.981,0,0,0,1.042,1.107c.636,0,1.234-.052,1.6-.089h.026c.086,0,.153.043.153.132v.57c0,.143-.026.2-.179.229a7.625,7.625,0,0,1-1.686.148,2,2,0,0,1-2.1-2.182V767.5a2.081,2.081,0,1,1,4.155,0v.485c0,.14-.055.219-.175.219m-.982-.852c0-.679-.374-1.07-.912-1.07a.941.941,0,0,0-.932,1.07v.035h1.843Z" transform="translate(-3.119 -724.778)" fill="#5d5c5c"/>
      <path id="Контур_1909" data-name="Контур 1909" d="M145.237,770.251H144.5a.175.175,0,0,1-.172-.175v-.141a2.363,2.363,0,0,1-1.226.383,1.327,1.327,0,0,1-1.5-1.452v-.032c0-.991.608-1.506,2.12-1.506h.547v-.385c0-.562-.251-.7-.766-.7a12,12,0,0,0-1.414.075h-.044c-.086,0-.155-.031-.155-.149v-.559c0-.094.051-.155.164-.179a7.274,7.274,0,0,1,1.449-.14c1.236,0,1.915.543,1.915,1.654v3.133a.176.176,0,0,1-.175.175m-.973-2.158h-.547c-.792,0-.964.251-.964.741v.032c0,.429.19.54.627.54a1.9,1.9,0,0,0,.885-.242Z" transform="translate(-1.849 -724.777)" fill="#5d5c5c"/>
      <path id="Контур_1910" data-name="Контур 1910" d="M147.621,766.263a2.461,2.461,0,0,0-1.2.312v3.493a.181.181,0,0,1-.172.182h-.8a.182.182,0,0,1-.175-.182v-4.546a.173.173,0,0,1,.175-.171h.757a.172.172,0,0,1,.172.171v.183a2.037,2.037,0,0,1,1.244-.418.177.177,0,0,1,.173.175v.625a.175.175,0,0,1-.173.176" transform="translate(-0.583 -724.778)" fill="#5d5c5c"/>
      <path id="Контур_1911" data-name="Контур 1911" d="M152.707,764.368l-1.425,5.448a1.267,1.267,0,0,1-2.416,0l-1.424-5.448c0-.016-.009-.027-.009-.043a.148.148,0,0,1,.156-.148h.922a.179.179,0,0,1,.164.148l1.26,5.221c.026.106.052.141.14.141s.112-.035.137-.141l1.263-5.221a.178.178,0,0,1,.164-.148h.92a.15.15,0,0,1,.159.148c0,.016-.009.027-.009.043" transform="translate(0.161 -725.161)" fill="#5d5c5c"/>
      <path id="Контур_1912" data-name="Контур 1912" d="M153.9,770.319a1.971,1.971,0,0,1-2.079-2.165v-.7a2.079,2.079,0,1,1,4.155,0v.7a1.97,1.97,0,0,1-2.076,2.165m.929-2.867c0-.713-.319-1.175-.929-1.175s-.93.462-.93,1.175v.7c0,.713.321,1.175.93,1.175s.929-.462.929-1.175Z" transform="translate(1.675 -724.777)" fill="#5d5c5c"/>
      <path id="Контур_1913" data-name="Контур 1913" d="M159.722,770.233h-.988c-.1,0-.14-.024-.234-.172l-.991-1.531-.938,1.531c-.1.148-.14.172-.235.172h-.9a.09.09,0,0,1-.1-.094.136.136,0,0,1,.024-.078l1.556-2.356-1.467-2.2a.111.111,0,0,1-.017-.052.134.134,0,0,1,.137-.118h.992c.094,0,.138.042.226.171l.878,1.358.818-1.358c.094-.153.138-.171.233-.171h.9a.093.093,0,0,1,.1.094.133.133,0,0,1-.027.077l-1.432,2.192,1.581,2.364a.117.117,0,0,1,.015.061.125.125,0,0,1-.13.112" transform="translate(2.885 -724.762)" fill="#5d5c5c"/>
    </g>
  </g>
</svg>
