<svg xmlns="http://www.w3.org/2000/svg" width="148.193" height="56.711" viewBox="0 0 148.193 56.711">
  <g id="Сгруппировать_1702" data-name="Сгруппировать 1702" transform="translate(-38.267 -735.894)">
    <path id="Контур_1870" data-name="Контур 1870" d="M80.854,735.894H41.677a3.419,3.419,0,0,0-3.41,3.408v39.178a3.417,3.417,0,0,0,3.41,3.407H65.886L76.6,792.605V781.888h4.25a3.417,3.417,0,0,0,3.41-3.407V739.3a3.419,3.419,0,0,0-3.41-3.408" transform="translate(0 0)" fill="#80358a" fill-rule="evenodd"/>
    <path id="Контур_1871" data-name="Контур 1871" d="M53.133,762.623l-3.951,6.741h-5.99l6.867-11.7-6.553-11.2H49.4l3.764,6.368,3.764-6.368h5.894L56.237,757.7l6.836,11.668H57.115Z" transform="translate(1.986 4.264)" fill="#fff"/>
    <path id="Контур_1872" data-name="Контур 1872" d="M58.15,753.707c0-2.731,2.373-4.24,4.365-5.458,1.489-.923,2.853-1.678,2.853-2.622,0-.777-.606-1.385-1.8-1.385a2.817,2.817,0,0,0-2.517,1.994L57.9,744.641a5.916,5.916,0,0,1,5.708-3.526c3.4,0,5.477,1.91,5.477,4.511,0,2.541-2.12,3.84-4.155,5.078-1.364.838-2.684,1.576-3.105,2.52h7.2v3.421H58.15Z" transform="translate(7.915 2.105)" fill="#fff"/>
    <path id="Контур_1873" data-name="Контур 1873" d="M100.123,747.128a3.532,3.532,0,0,0-2.108-1.907,3.673,3.673,0,0,0-2.792.149,3.568,3.568,0,0,0-1.993,2.423c-.006.024-.017.043-.022.063-.3,1.42-.807,4.061-1.155,5.811-.24,1.2-.483,2.413-.738,3.678a4.129,4.129,0,0,1-2.5,3.192.293.293,0,0,1-.126.034.269.269,0,0,1-.135-.034,4.117,4.117,0,0,1-2.491-3.192c-.283-1.388-.551-2.726-.814-4.037h-.027c-.333-1.416-.883-4.054-1.114-5.143a3.973,3.973,0,0,0-.16-.446,3.544,3.544,0,0,0-1.852-2.043,3.709,3.709,0,0,0-2.794-.146,3.561,3.561,0,0,0-2.109,1.9,3.748,3.748,0,0,0-.295,2.277l1.082,4.956.909,4.188,0,.006a11.149,11.149,0,0,0,5.784,7.879,7.218,7.218,0,0,0,1.708.789,6.287,6.287,0,0,0,.789.2,7.36,7.36,0,0,0,2.965-.01,8.121,8.121,0,0,0,1.054-.271c.232-.094.462-.174.69-.279a.1.1,0,0,1,.024-.014,8.542,8.542,0,0,0,1.193-.627,11.14,11.14,0,0,0,5.38-7.668l0-.006.915-4.528,1.019-4.924a3.734,3.734,0,0,0-.3-2.275" transform="translate(15.552 3.677)" fill="#5d5c5c"/>
    <path id="Контур_1874" data-name="Контур 1874" d="M114.291,744.741h-8.759c-5.86,0-10.608,5.2-10.608,11.625s4.748,11.62,10.608,11.62h8.759c5.86,0,10.605-5.2,10.605-11.62s-4.746-11.625-10.605-11.625m-.4,16.377h-7.952a4.774,4.774,0,0,1,0-9.508h7.952a4.774,4.774,0,0,1,0,9.508" transform="translate(22.843 3.567)" fill="#5d5c5c"/>
    <path id="Контур_1875" data-name="Контур 1875" d="M126.518,778.611a3.422,3.422,0,0,0,4.726.027,3.257,3.257,0,0,0,1.031-2.415v-8.4h8.074a13.145,13.145,0,0,0,4.435-1.1,9.387,9.387,0,0,0,1.573-.779l.017-.011h0a9.093,9.093,0,0,0,1.01-.727,10.644,10.644,0,0,0,2.185-2.565,11.244,11.244,0,0,0,1.287-3.157,14.581,14.581,0,0,0,.418-3.494,11.351,11.351,0,0,0-1.886-6.411,10.318,10.318,0,0,0-2.882-2.9h0l-.058-.035-.011-.008a11.994,11.994,0,0,0-5.458-1.964c-.073-.011-.285-.025-.5-.035H128.634a3.174,3.174,0,0,0-3.03,2.722,3.384,3.384,0,0,0-.063.643v28.215a3.3,3.3,0,0,0,.977,2.388m12.974-27.188a6.671,6.671,0,0,1,2.642.623,4.808,4.808,0,0,1,1.125.787,3.543,3.543,0,0,1,.657.9,5.925,5.925,0,0,1,.525,2.623,5.434,5.434,0,0,1-.084.957,4.522,4.522,0,0,1-4.517,3.738l0,0h-7.56v-9.619Z" transform="translate(35.188 3.527)" fill="#5d5c5c"/>
    <path id="Контур_1876" data-name="Контур 1876" d="M121.749,744.186a3.991,3.991,0,0,0,2.874-1.174v0a3.908,3.908,0,0,0,1.177-2.816,4,4,0,0,0-1.177-2.879,4.09,4.09,0,0,0-5.693,0,3.992,3.992,0,0,0-1.177,2.879,4.015,4.015,0,0,0,4,3.993" transform="translate(32.048 0.107)" fill="#5d5c5c"/>
    <path id="Контур_1877" data-name="Контур 1877" d="M119.251,744.743a3.249,3.249,0,0,0-1.03,2.415V765A3.361,3.361,0,0,0,124,767.333a3.337,3.337,0,0,0,.95-2.336V747.158a3.3,3.3,0,0,0-.977-2.39,3.419,3.419,0,0,0-4.726-.025" transform="translate(32.236 3.191)" fill="#5d5c5c"/>
  </g>
</svg>
