<svg xmlns="http://www.w3.org/2000/svg" width="624" height="57" viewBox="0 0 624 57"><defs><mask id="nltbb" width="2" height="2" x="-1" y="-1"><path fill="#fff" d="M14 0h596v28H14z"/><path d="M19.5 17a5.5 5.5 0 1 1 0 11 5.5 5.5 0 0 1 0-11zm294-7a5.5 5.5 0 1 1 0 11 5.5 5.5 0 0 1 0-11zm291-10a5.5 5.5 0 1 1 0 11 5.5 5.5 0 0 1 0-11z"/></mask><filter id="nltba" width="666" height="113" x="-21" y="-35" filterUnits="userSpaceOnUse"><feOffset dy="15" in="SourceGraphic" result="FeOffset1804Out"/><feGaussianBlur in="FeOffset1804Out" result="FeGaussianBlur1805Out" stdDeviation="10 10"/></filter><linearGradient id="nltbc" x1="274" x2="350" y1="28" y2="0" gradientUnits="userSpaceOnUse"><stop offset="0" stop-color="#46cb9e"/><stop offset="1" stop-color="#3aa7c6"/></linearGradient><clipPath id="nltbd"><path fill="#fff" d="M19.5 17a5.5 5.5 0 1 1 0 11 5.5 5.5 0 0 1 0-11zm294-7a5.5 5.5 0 1 1 0 11 5.5 5.5 0 0 1 0-11zm291-10a5.5 5.5 0 1 1 0 11 5.5 5.5 0 0 1 0-11z"/></clipPath></defs><g><g opacity=".4"><g filter="url(#nltba)"><path fill="none" d="M19.5 17a5.5 5.5 0 1 1 0 11 5.5 5.5 0 0 1 0-11zm294-7a5.5 5.5 0 1 1 0 11 5.5 5.5 0 0 1 0-11zm291-10a5.5 5.5 0 1 1 0 11 5.5 5.5 0 0 1 0-11z" mask="url(&quot;#nltbb&quot;)"/><path fill="#41bbaf" fill-opacity=".27" d="M19.5 17a5.5 5.5 0 1 1 0 11 5.5 5.5 0 0 1 0-11zm294-7a5.5 5.5 0 1 1 0 11 5.5 5.5 0 0 1 0-11zm291-10a5.5 5.5 0 1 1 0 11 5.5 5.5 0 0 1 0-11z"/></g><path fill="url(#nltbc)" d="M19.5 17a5.5 5.5 0 1 1 0 11 5.5 5.5 0 0 1 0-11zm294-7a5.5 5.5 0 1 1 0 11 5.5 5.5 0 0 1 0-11zm291-10a5.5 5.5 0 1 1 0 11 5.5 5.5 0 0 1 0-11z"/><path fill="none" stroke="#78af3e" stroke-miterlimit="20" stroke-width="6" d="M19.5 17a5.5 5.5 0 1 1 0 11 5.5 5.5 0 0 1 0-11zm294-7a5.5 5.5 0 1 1 0 11 5.5 5.5 0 0 1 0-11zm291-10a5.5 5.5 0 1 1 0 11 5.5 5.5 0 0 1 0-11z" clip-path="url(&quot;#nltbd&quot;)"/></g></g></svg>