<svg xmlns="http://www.w3.org/2000/svg" width="21" height="16" viewBox="0 0 21 16"><defs><mask id="r5wdb" width="2" height="2" x="-1" y="-1"><path fill="#fff" d="M3 0h15v12H3z"/><path d="M5.55 4.707l3.182 3.182 6.718-6.718a1.5 1.5 0 1 1 2.121 2.122L9.793 11.07a1.5 1.5 0 0 1-2.122 0L3.43 6.828A1.5 1.5 0 0 1 5.55 4.707z"/></mask><filter id="r5wda" width="43" height="42" x="-11" y="-14" filterUnits="userSpaceOnUse"><feOffset dy="2" in="SourceGraphic" result="FeOffset1777Out"/><feGaussianBlur in="FeOffset1777Out" result="FeGaussianBlur1778Out" stdDeviation="1.6 1.6"/></filter></defs><g><g><g filter="url(#r5wda)"><path fill="none" d="M5.55 4.707l3.182 3.182 6.718-6.718a1.5 1.5 0 1 1 2.121 2.122L9.793 11.07a1.5 1.5 0 0 1-2.122 0L3.43 6.828A1.5 1.5 0 0 1 5.55 4.707z" mask="url(&quot;#r5wdb&quot;)"/><path fill-opacity=".11" d="M5.55 4.707l3.182 3.182 6.718-6.718a1.5 1.5 0 1 1 2.121 2.122L9.793 11.07a1.5 1.5 0 0 1-2.122 0L3.43 6.828A1.5 1.5 0 0 1 5.55 4.707z"/></g><path fill="#fff" d="M5.55 4.707l3.182 3.182 6.718-6.718a1.5 1.5 0 1 1 2.121 2.122L9.793 11.07a1.5 1.5 0 0 1-2.122 0L3.43 6.828A1.5 1.5 0 0 1 5.55 4.707z"/></g></g></svg>