<svg width="20" height="15" viewBox="0 0 20 15" fill="none" xmlns="http://www.w3.org/2000/svg">
<path d="M17.5537 0H2.44634C1.09646 0 0 1.08053 0 2.41081V12.5892C0 13.9195 1.09646 15 2.44634 15H17.5537C18.9035 15 20 13.9195 20 12.5892V2.4159C20 1.08563 18.9035 0 17.5537 0ZM18.8829 12.5892C18.8829 13.3129 18.2881 13.8991 17.5537 13.8991H2.44634C1.71192 13.8991 1.11715 13.3129 1.11715 12.5892V2.4159C1.11715 1.69215 1.71192 1.10601 2.44634 1.10601H17.5537C18.2881 1.10601 18.8829 1.69215 18.8829 2.4159V12.5892Z" fill="white"/>
<path d="M12.7159 7.3671L17.8035 2.97675C18.0401 2.76966 18.0616 2.4176 17.8465 2.18463C17.6314 1.95682 17.2657 1.93611 17.0237 2.14321L10.0108 8.20064L8.64481 7.0254C8.63943 7.02022 8.63405 7.01504 8.63405 7.01504C8.60178 6.98398 8.57489 6.96327 8.53725 6.93739L2.97105 2.14321C2.72904 1.93611 2.36334 1.95682 2.14822 2.1898C1.9331 2.42278 1.95462 2.77484 2.19663 2.98193L7.34334 7.40852L2.21814 12.0267C1.98688 12.2389 1.97075 12.591 2.19125 12.8188C2.30956 12.9327 2.46015 12.9948 2.61611 12.9948C2.75593 12.9948 2.90114 12.943 3.01408 12.8447L8.21457 8.15923L9.6236 9.37071C9.73654 9.46391 9.87098 9.5105 10.0108 9.5105C10.1506 9.5105 10.2905 9.45873 10.398 9.36554L11.8501 8.11263L17.0237 12.8447C17.1366 12.9482 17.2818 13 17.4217 13C17.5776 13 17.7282 12.9431 17.8411 12.824C18.0616 12.6013 18.0509 12.2441 17.8196 12.0318L12.7159 7.3671Z" fill="white"/>
</svg>
