<svg width="18" height="18" viewBox="0 0 18 18" fill="none" xmlns="http://www.w3.org/2000/svg">
<path d="M14.2342 11.1451C13.8632 10.7606 13.421 10.5565 12.9502 10.5565C12.4842 10.5565 12.0324 10.7559 11.6472 11.1404L10.4441 12.3367C10.3442 12.2845 10.2443 12.2323 10.1492 12.1848C10.0113 12.1184 9.88292 12.0519 9.77354 11.9854C8.6465 11.2733 7.62407 10.3428 6.64445 9.13697C6.1689 8.5388 5.85028 8.03082 5.61727 7.5181C5.93113 7.23325 6.21645 6.93891 6.50178 6.65406C6.6064 6.54962 6.71578 6.43568 6.8204 6.33124C7.61932 5.53367 7.61932 4.49873 6.8204 3.70116L5.78371 2.66621C5.66482 2.54753 5.54593 2.42884 5.4318 2.30541C5.20354 2.06804 4.96577 1.82592 4.71848 1.59804C4.3428 1.23249 3.90054 1.03784 3.43926 1.03784C2.97323 1.03784 2.52621 1.23249 2.14578 1.59804L2.13627 1.60753L0.84278 2.90833C0.352967 3.39257 0.0771503 3.986 0.0153293 4.67438C-0.0750245 5.78528 0.253103 6.81548 0.500387 7.49436C1.1186 9.15596 2.0364 10.6941 3.41073 12.3415C5.07514 14.3259 7.08195 15.8973 9.37408 17.0035C10.2491 17.4165 11.4189 17.9055 12.7219 17.9909C12.8028 17.9957 12.8836 18.0004 12.9597 18.0004C13.8395 18.0004 14.5766 17.6871 15.1567 17.0604C15.1615 17.051 15.1662 17.051 15.171 17.0415C15.3707 16.8041 15.599 16.5857 15.8368 16.3531C15.9984 16.1964 16.1696 16.035 16.3313 15.8641C16.707 15.4748 16.9067 15.0191 16.9067 14.5491C16.9067 14.0791 16.707 13.6281 16.3218 13.2483L14.2342 11.1451ZM15.5942 15.1425C15.4468 15.3039 15.2946 15.4463 15.1282 15.6077C14.8809 15.8451 14.6289 16.092 14.3959 16.3673C14.0107 16.7756 13.5589 16.9702 12.9645 16.9702C12.9074 16.9702 12.8456 16.9702 12.7885 16.9655C11.6567 16.8943 10.6105 16.4528 9.8211 16.0777C7.66687 15.038 5.77895 13.5616 4.20489 11.6863C2.91141 10.1292 2.04591 8.68597 1.4705 7.13355C1.1186 6.18881 0.985444 5.45296 1.04251 4.75509C1.08055 4.30883 1.25175 3.94327 1.56561 3.6252L2.86385 2.32915C3.04932 2.15349 3.24905 2.05854 3.44402 2.05854C3.68179 2.05854 3.87677 2.20096 4.00041 2.3244L4.00992 2.33389C4.24294 2.55228 4.46169 2.7754 4.69471 3.01278C4.81359 3.13621 4.93248 3.2549 5.05612 3.38308L6.09281 4.41802C6.49703 4.82155 6.49703 5.19185 6.09281 5.59538C5.98344 5.70458 5.87406 5.81377 5.76469 5.92296C5.44607 6.25053 5.14172 6.55437 4.80884 6.84871C4.79933 6.8582 4.79457 6.8582 4.78982 6.8677C4.46169 7.19527 4.52351 7.51335 4.59009 7.73173L4.5996 7.76496C4.87066 8.42011 5.2511 9.03253 5.82651 9.76838L5.83126 9.77313C6.88222 11.0644 7.99024 12.0709 9.20764 12.84C9.36457 12.9397 9.5215 13.0204 9.67368 13.0963C9.81159 13.1628 9.93998 13.2293 10.0494 13.2957C10.0636 13.3052 10.0779 13.3147 10.0969 13.3242C10.2253 13.3907 10.349 13.4192 10.4726 13.4192C10.7865 13.4192 10.9862 13.2198 11.0528 13.1581L12.3558 11.8573C12.4842 11.7291 12.6886 11.5724 12.9312 11.5724C13.1689 11.5724 13.3592 11.7196 13.478 11.8478L15.58 13.9461C15.9842 14.3449 15.9842 14.7437 15.5942 15.1425Z" fill="white"/>
<path d="M9.73075 4.28033C10.7294 4.44649 11.6329 4.91648 12.3558 5.6381C13.0786 6.35971 13.5446 7.26172 13.7158 8.25868C13.7586 8.5103 13.9726 8.68595 14.2199 8.68595C14.2484 8.68595 14.277 8.68121 14.3055 8.67646C14.5861 8.62898 14.7715 8.36313 14.7287 8.08303C14.5243 6.87718 13.9536 5.78052 13.0833 4.91174C12.2131 4.04295 11.1146 3.47326 9.9067 3.26912C9.62612 3.22165 9.36457 3.41154 9.31226 3.6869C9.26471 3.96225 9.44542 4.23285 9.73075 4.28033Z" fill="white"/>
<path d="M17.9912 7.93551C17.6536 5.95108 16.7168 4.14705 15.2806 2.71332C13.8445 1.27959 12.0374 0.344349 10.0496 0.00728088C9.77379 -0.0401935 9.50748 0.149704 9.45992 0.425056C9.41237 0.705155 9.60259 0.966264 9.88316 1.01849C11.6569 1.31757 13.2738 2.15787 14.5578 3.43968C15.8418 4.72149 16.6787 6.33562 16.9831 8.10641C17.0259 8.35803 17.2399 8.53368 17.4871 8.53368C17.5157 8.53368 17.5442 8.52894 17.5727 8.52419C17.8533 8.47672 18.0435 8.21086 17.9912 7.93551Z" fill="white"/>
</svg>
