<svg width="17" height="22" viewBox="0 0 17 22" fill="none" xmlns="http://www.w3.org/2000/svg">
<path d="M1.26074 11.1529L1.26056 11.1525C0.813302 10.1994 0.6 9.16354 0.6 8.09195C0.6 3.96775 4.02109 0.6 8.26427 0.6C12.481 0.6 15.9263 3.96903 15.8998 8.0881H15.8998V8.09195C15.8998 9.19053 15.687 10.1985 15.2393 11.1525L15.2393 11.1525L15.2371 11.1571C13.2955 15.388 9.54869 19.8605 8.26429 21.3154C6.98102 19.8603 3.23112 15.3599 1.26074 11.1529ZM13.1685 8.09943L13.1686 8.09943V8.09195C13.1686 5.43962 10.9314 3.30549 8.26427 3.30549C5.59186 3.30549 3.38866 5.44477 3.38866 8.09195C3.38866 10.7391 5.59186 12.8784 8.26427 12.8784C10.9383 12.8784 13.1356 10.7392 13.1685 8.09943Z" stroke="white" stroke-width="1.2"/>
</svg>
