<svg width="29" height="29" viewBox="0 0 29 29" fill="none" xmlns="http://www.w3.org/2000/svg">
<path d="M12.0756 28.0482L12.0792 28.0488C12.859 28.1789 13.6518 28.25 14.4456 28.25C15.4174 28.25 16.4001 28.1433 17.3821 27.9302L17.3821 27.9302C20.9812 27.1484 24.0608 25.0154 26.05 21.9233C28.039 18.8316 28.7142 15.1461 27.9327 11.5445L27.9331 11.5445L27.9296 11.5318C27.8614 11.2815 27.6114 11.1185 27.353 11.1655L27.3424 11.1674L27.3319 11.1703C27.0816 11.2386 26.9188 11.4888 26.9658 11.747L26.9656 11.747L26.9673 11.7548C27.6859 15.0984 27.0588 18.5208 25.2109 21.3969C23.3633 24.2726 20.5017 26.2573 17.1602 26.9762L17.1598 26.9763C15.5288 27.33 13.8758 27.3642 12.2455 27.0791C11.9752 27.0305 11.7233 27.2218 11.6767 27.4783C11.6275 27.7488 11.8186 28.0014 12.0756 28.0482Z" fill="white" stroke="white" stroke-width="0.5"/>
<path d="M8.47794 22.3156L8.42217 22.7653L8.83234 22.5726L14.4465 19.9353L20.0722 22.5727L20.4822 22.7649L20.4264 22.3156L19.6619 16.15L23.9069 11.6172L24.2165 11.2866L23.7718 11.2008L17.6781 10.0248L14.6769 4.58996L14.458 4.19366L14.2392 4.58996L11.2379 10.0248L5.14416 11.2008L4.70019 11.2865L5.00883 11.6169L9.24255 16.1498L8.47794 22.3156ZM9.63444 21.1238L10.2763 15.9324L10.2907 15.8163L10.2108 15.7309L6.63684 11.9088L11.7613 10.924L11.8762 10.9019L11.9328 10.7996L14.4694 6.21627L16.9947 10.7878L17.0513 10.8903L17.1663 10.9124L22.2908 11.8971L18.7168 15.7193L18.6369 15.8047L18.6513 15.9207L19.2934 21.1137L14.5641 18.8976L14.4576 18.8477L14.3513 18.8979L9.63444 21.1238Z" fill="white" stroke="white" stroke-width="0.5"/>
<path d="M3.52893 6.98535L3.40026 7.19969L3.52893 6.98535C3.29966 6.84771 2.99454 6.91279 2.85036 7.14977C1.25243 9.68509 0.542206 12.6237 0.802593 15.6202C1.08677 18.9137 2.55474 21.9937 4.92228 24.292C5.014 24.3831 5.13458 24.4338 5.26053 24.4338C5.39217 24.4338 5.51531 24.3872 5.61175 24.2907C5.80234 24.1 5.80234 23.7906 5.61175 23.5999L5.61178 23.5999L5.60894 23.5971C3.40838 21.4638 2.05135 18.6002 1.78907 15.5424L1.78907 15.5423C1.54959 12.7584 2.21062 10.0437 3.69368 7.6695L3.69371 7.66952L3.69605 7.66562C3.83403 7.43553 3.7681 7.12893 3.52893 6.98535Z" fill="white" stroke="white" stroke-width="0.5"/>
<path d="M24.2166 6.31286L24.2241 6.32179L24.2323 6.33C24.3166 6.41441 24.4473 6.4847 24.5951 6.4847C24.7178 6.4847 24.8273 6.43697 24.9079 6.3765L24.908 6.37653L24.9114 6.37383C25.1358 6.19924 25.1476 5.88829 24.9901 5.68575L24.9903 5.68565L24.9846 5.67889C23.0546 3.3688 20.4959 1.79249 17.5598 1.10545L17.5593 1.10533C14.3406 0.359438 10.956 0.796533 8.05508 2.33485C7.78336 2.46396 7.73086 2.77565 7.83621 2.9919C7.9649 3.26892 8.2818 3.32153 8.49935 3.2127L8.49938 3.21277L8.5049 3.20983C11.2064 1.77284 14.3417 1.37328 17.3296 2.06924C20.0562 2.70848 22.4383 4.16857 24.2166 6.31286Z" fill="white" stroke="white" stroke-width="0.5"/>
</svg>
