<svg width="1045" height="51" fill="none" xmlns="http://www.w3.org/2000/svg"><path d="M1034.28 19.34c4.5 0 8.16 3.66 8.16 8.167 0 4.506-3.66 8.167-8.16 8.167h-24.58V11.079c0-4.506 3.66-8.167 8.16-8.167s8.16 3.66 8.16 8.167" stroke="#fff" stroke-width="3" stroke-miterlimit="10" stroke-linecap="round" stroke-linejoin="round"/><path d="M1034.93 35.58c2.07 0 4.13-.75 5.72-2.347 1.6-1.596 2.35-3.66 2.35-5.726 0-2.065-.75-4.13-2.35-5.727-1.59-1.595-3.65-2.346-5.72-2.346-2.06 0-4.13.75-5.72 2.346-1.59 1.596-2.35 5.54-2.35 7.604m-17.07-18.961c0-2.066.75-4.13 2.35-5.727 1.59-1.595 3.65-2.346 5.72-2.346 2.06 0 4.13.75 5.72 2.346 1.6 1.596 2.35 3.661 2.35 5.727 0 2.065-.75 4.13-2.35 5.726-1.59 1.596-3.66 2.347-5.72 2.347H2v30.347" stroke="#fff" stroke-width="3" stroke-miterlimit="10" stroke-linecap="round" stroke-linejoin="round"/></svg>