<svg width="56" height="16" fill="none" xmlns="http://www.w3.org/2000/svg"><path d="M.797 15V.723h3.027V12.5h5.791V15H.797zm24.267-7.158c0 2.363-.585 4.18-1.757 5.449-1.172 1.27-2.852 1.904-5.04 1.904-2.187 0-3.867-.635-5.038-1.904-1.172-1.27-1.758-3.092-1.758-5.469 0-2.376.586-4.19 1.758-5.44C14.407 1.127 16.093.499 18.287.499s3.87.632 5.03 1.895c1.165 1.263 1.747 3.079 1.747 5.449zm-10.42 0c0 1.595.303 2.796.909 3.603.605.808 1.51 1.211 2.715 1.211 2.415 0 3.623-1.605 3.623-4.814 0-3.216-1.201-4.824-3.604-4.824-1.204 0-2.113.406-2.724 1.22-.613.808-.918 2.009-.918 3.604zm18.8-.86h5.663v7.403c-.917.3-1.783.508-2.597.625a16.44 16.44 0 01-2.48.185c-2.156 0-3.803-.631-4.942-1.894-1.133-1.27-1.7-3.09-1.7-5.46 0-2.304.658-4.1 1.973-5.39C30.683 1.162 32.512.518 34.85.518c1.465 0 2.877.293 4.238.878l-1.006 2.422a7.184 7.184 0 00-3.252-.78c-1.308 0-2.357.439-3.144 1.317-.788.88-1.182 2.061-1.182 3.545 0 1.55.316 2.735.947 3.555.638.814 1.563 1.22 2.774 1.22.631 0 1.272-.064 1.923-.195V9.502h-2.705v-2.52zm22.03.86c0 2.363-.585 4.18-1.757 5.449-1.172 1.27-2.852 1.904-5.04 1.904-2.187 0-3.867-.635-5.038-1.904-1.172-1.27-1.758-3.092-1.758-5.469 0-2.376.586-4.19 1.758-5.44C44.817 1.127 46.503.499 48.697.499s3.87.632 5.03 1.895c1.165 1.263 1.748 3.079 1.748 5.449zm-10.42 0c0 1.595.303 2.796.909 3.603.605.808 1.51 1.211 2.715 1.211 2.415 0 3.623-1.605 3.623-4.814 0-3.216-1.201-4.824-3.604-4.824-1.204 0-2.112.406-2.724 1.22-.612.808-.918 2.009-.918 3.604z" fill="#006FAE"/></svg>