<svg width="104" height="104" fill="none" xmlns="http://www.w3.org/2000/svg"><path fill-rule="evenodd" clip-rule="evenodd" d="M104 0L0 104V67.674L67.674 0H104z" fill="#FFD116"/><path d="M102 2l2-2v4h-4l2-2zM2 102l2-2v4H0l2-2z" fill="#E67E22"/><path d="M17.853 72.648l1.952-1.952.942.942-3.14 3.14-5.923-5.923 1.188-1.188 4.981 4.981zm6.627-4.624a4.34 4.34 0 01-1.918 1.137 4.134 4.134 0 01-2.18.025c-.736-.192-1.395-.58-1.978-1.162-.576-.577-.958-1.23-1.145-1.96a4.108 4.108 0 01.017-2.19 4.34 4.34 0 011.137-1.917c.56-.56 1.2-.94 1.918-1.137a4.022 4.022 0 012.18-.009c.73.187 1.384.569 1.96 1.146.583.582.97 1.241 1.163 1.977a4.047 4.047 0 01-.017 2.172 4.34 4.34 0 01-1.137 1.918zm-1.06-1.061c.356-.356.59-.75.704-1.18a2.39 2.39 0 00-.06-1.332c-.147-.452-.418-.876-.814-1.272-.396-.397-.818-.665-1.265-.807a2.305 2.305 0 00-1.323-.05c-.43.113-.823.347-1.18.704a2.661 2.661 0 00-.713 1.188c-.113.43-.096.87.051 1.323.142.447.41.869.806 1.265.396.396.82.667 1.273.814a2.39 2.39 0 001.332.06 2.661 2.661 0 001.188-.713zm8.138-6.136l-3.615-1.002-.56.56 2.308 2.309-1.188 1.188-5.922-5.923 2.223-2.223c.458-.459.93-.767 1.417-.925.48-.164.939-.187 1.374-.068.436.107.824.33 1.163.67.39.39.63.857.721 1.4.085.538-.037 1.09-.365 1.655l3.819.984-1.375 1.375zm-5.066-1.332l.993-.993c.323-.323.487-.64.492-.95 0-.317-.138-.614-.416-.892-.271-.271-.56-.401-.865-.39-.311.006-.628.17-.95.492l-.993.993 1.74 1.74zm3.841-7.37l1.485 1.484 1.994-1.994.942.942-1.994 1.994 1.57 1.57 2.248-2.249.967.967-3.436 3.437-5.931-5.931 3.436-3.437.968.968-2.249 2.248zm8.996-10.915l5.923 5.923-1.188 1.188-3.852-3.853 2.265 5.44-.9.899-5.447-2.257 3.853 3.852-1.188 1.188-5.923-5.923 1.35-1.349 6.287 2.52-2.52-6.287 1.34-1.34zm4.724-4.724l5.923 5.923-1.188 1.188-5.923-5.923 1.188-1.188zm7.495-3.83c.317.318.538.69.662 1.12.13.425.119.883-.034 1.375-.147.487-.464.973-.95 1.46l-.993.993 2.274 2.274-1.188 1.188-5.923-5.923 2.181-2.18c.458-.459.928-.77 1.409-.934.48-.164.939-.187 1.374-.068.441.113.837.345 1.188.696zm-1.332 3.047c.328-.328.498-.645.51-.95.005-.312-.128-.603-.4-.874-.577-.577-1.188-.543-1.833.102l-.941.941 1.722 1.723.942-.942zm8.54-1.955a4.022 4.022 0 01-1.333.908c-.47.187-.933.243-1.391.17-.458-.074-.871-.289-1.239-.645l1.273-1.273c.26.226.537.334.831.322.3-.017.586-.16.857-.432.278-.278.43-.56.459-.849a.934.934 0 00-.289-.764.853.853 0 00-.594-.271 1.527 1.527 0 00-.67.144 7.9 7.9 0 00-.883.441c-.498.272-.922.476-1.273.611-.35.125-.724.164-1.12.12-.396-.057-.78-.272-1.154-.646-.35-.35-.568-.744-.653-1.18a2.328 2.328 0 01.144-1.331c.176-.459.467-.891.874-1.299.611-.61 1.256-.956 1.935-1.035.679-.09 1.304.11 1.875.603l-1.307 1.306a.935.935 0 00-.763-.237c-.294.022-.574.167-.84.432-.232.232-.36.479-.382.739-.017.254.088.495.314.721a.79.79 0 00.551.246c.21-.006.425-.05.645-.136.22-.096.515-.243.883-.441a9.77 9.77 0 011.281-.602c.356-.13.735-.17 1.137-.12.402.052.786.261 1.154.629.317.316.529.693.636 1.128.108.436.085.894-.067 1.375-.159.475-.456.93-.891 1.366zM57.24 23.299l3.666 3.666c.401.402.814.605 1.238.611.419 0 .818-.19 1.197-.569.384-.384.577-.786.577-1.204-.006-.425-.21-.838-.611-1.24l-3.666-3.665 1.197-1.196 3.657 3.657c.503.503.82 1.04.95 1.612.13.56.1 1.112-.093 1.655a3.886 3.886 0 01-.95 1.476 3.873 3.873 0 01-1.468.942 2.85 2.85 0 01-1.63.068c-.56-.142-1.091-.464-1.595-.967l-3.657-3.658L57.24 23.3zm11.372-11.372l5.923 5.923-1.188 1.188-3.852-3.853 2.265 5.44-.899.899-5.448-2.257 3.853 3.852-1.188 1.188-5.923-5.923 1.35-1.349 6.287 2.52-2.52-6.287 1.34-1.341z" fill="#fff"/></svg>