<svg width="529" height="302" fill="none" xmlns="http://www.w3.org/2000/svg"><path d="M6 3a3 3 0 00-6 0h6zm522.121 278.121a2.998 2.998 0 000-4.242l-19.092-19.092a2.998 2.998 0 00-4.242 0 2.998 2.998 0 000 4.242L521.757 279l-16.97 16.971a2.998 2.998 0 000 4.242 2.998 2.998 0 004.242 0l19.092-19.092zM6 226a3 3 0 10-6 0h6zm50 50a3 3 0 100 6v-6zM0 3.5a3 3 0 006 0H0zm6 1a3 3 0 00-6 0h6zm-6 1a3 3 0 006 0H0zm6 1a3 3 0 00-6 0h6zm-6 1a3 3 0 006 0H0zm6 1a3 3 0 00-6 0h6zm-6 1a3 3 0 106 0H0zm6 1a3 3 0 00-6 0h6zm-6 1a3 3 0 106 0H0zm6 1a3 3 0 10-6 0h6zm-6 1a3 3 0 106 0H0zm6 1a3 3 0 10-6 0h6zm-6 1a3 3 0 106 0H0zm6 1a3 3 0 10-6 0h6zm-6 1a3 3 0 106 0H0zm6 1a3 3 0 10-6 0h6zm-6 1a3 3 0 106 0H0zm6 1a3 3 0 10-6 0h6zm-6 1a3 3 0 106 0H0zm6 1a3 3 0 10-6 0h6zm-6 1a3 3 0 106 0H0zm6 1a3 3 0 10-6 0h6zm-6 1a3 3 0 106 0H0zm6 1a3 3 0 10-6 0h6zm-6 1a3 3 0 106 0H0zm6 1a3 3 0 10-6 0h6zm-6 1a3 3 0 106 0H0zm6 1a3 3 0 10-6 0h6zm-6 1a3 3 0 106 0H0zm6 1a3 3 0 10-6 0h6zm-6 1a3 3 0 106 0H0zm6 1a3 3 0 10-6 0h6zm-6 1a3 3 0 106 0H0zm6 1a3 3 0 10-6 0h6zm-6 1a3 3 0 106 0H0zm6 1a3 3 0 10-6 0h6zm-6 1a3 3 0 106 0H0zm6 1a3 3 0 10-6 0h6zm-6 1a3 3 0 106 0H0zm6 1a3 3 0 10-6 0h6zm-6 1a3 3 0 106 0H0zm6 1a3 3 0 10-6 0h6zm-6 1a3 3 0 106 0H0zm6 1a3 3 0 10-6 0h6zm-6 1a3 3 0 106 0H0zm6 1a3 3 0 10-6 0h6zm-6 1a3 3 0 106 0H0zm6 1a3 3 0 10-6 0h6zm-6 1a3 3 0 106 0H0zm6 1a3 3 0 10-6 0h6zm-6 1a3 3 0 106 0H0zm6 1a3 3 0 10-6 0h6zm-6 1a3 3 0 106 0H0zm6 1a3 3 0 10-6 0h6zm-6 1a3 3 0 106 0H0zm6 1a3 3 0 10-6 0h6zm-6 1a3 3 0 106 0H0zm6 1a3 3 0 10-6 0h6zm-6 1a3 3 0 106 0H0zm6 1a3 3 0 10-6 0h6zm-6 1a3 3 0 106 0H0zm6 1a3 3 0 10-6 0h6zm-6 1a3 3 0 106 0H0zm6 1a3 3 0 10-6 0h6zm-6 1a3 3 0 106 0H0zm6 1a3 3 0 10-6 0h6zm-6 1a3 3 0 106 0H0zm6 1a3 3 0 10-6 0h6zm-6 1a3 3 0 106 0H0zm6 1a3 3 0 10-6 0h6zm-6 1a3 3 0 106 0H0zm6 1a3 3 0 10-6 0h6zm-6 1a3 3 0 106 0H0zm6 1a3 3 0 10-6 0h6zm-6 1a3 3 0 106 0H0zm6 1a3 3 0 10-6 0h6zm-6 1a3 3 0 106 0H0zm6 1a3 3 0 10-6 0h6zm-6 1a3 3 0 106 0H0zm6 1a3 3 0 10-6 0h6zm-6 1a3 3 0 106 0H0zm6 1a3 3 0 10-6 0h6zm-6 1a3 3 0 106 0H0zm6 1a3 3 0 10-6 0h6zm-6 1a3 3 0 106 0H0zm6 1a3 3 0 10-6 0h6zm-6 1a3 3 0 106 0H0zm6 1a3 3 0 10-6 0h6zm-6 1a3 3 0 106 0H0zm6 1a3 3 0 10-6 0h6zm-6 1a3 3 0 106 0H0zm6 1a3 3 0 10-6 0h6zm-6 1a3 3 0 106 0H0zm6 1a3 3 0 10-6 0h6zm-6 1a3 3 0 106 0H0zm6 1a3 3 0 10-6 0h6zm-6 1a3 3 0 106 0H0zm6 1a3 3 0 10-6 0h6zm-6 1a3 3 0 106 0H0zm6 1a3 3 0 10-6 0h6zm-6 1a3 3 0 106 0H0zm6 1a3 3 0 10-6 0h6zm-6 1a3 3 0 106 0H0zm6 1a3 3 0 10-6 0h6zm-6 1a3 3 0 106 0H0zm6 1a3 3 0 10-6 0h6zm-6 1a3 3 0 106 0H0zm6 1a3 3 0 10-6 0h6zm-6 1a3 3 0 106 0H0zm6 1a3 3 0 10-6 0h6zm-6 1a3 3 0 106 0H0zm6 1a3 3 0 10-6 0h6zm-6 1a3 3 0 106 0H0zm6 1a3 3 0 10-6 0h6zm-6 1a3 3 0 106 0H0zm6 1a3 3 0 10-6 0h6zm-6 1a3 3 0 106 0H0zm6 1a3 3 0 10-6 0h6zm-6 1a3 3 0 106 0H0zm6 1a3 3 0 10-6 0h6zm-6 1a3 3 0 106 0H0zm6 1a3 3 0 10-6 0h6zm-6 1a3 3 0 106 0H0zm6 1a3 3 0 10-6 0h6zm-6 1a3 3 0 106 0H0zm6 1a3 3 0 10-6 0h6zm-6 1a3 3 0 106 0H0zm6 1a3 3 0 10-6 0h6zm-6 1a3 3 0 106 0H0zm6 1a3 3 0 10-6 0h6zm-6 1a3 3 0 106 0H0zm6 1a3 3 0 10-6 0h6zm-6 1a3 3 0 106 0H0zm6 1a3 3 0 10-6 0h6zm-6 1a3 3 0 106 0H0zm6 1a3 3 0 10-6 0h6zm-6 1a3 3 0 106 0H0zm6 1a3 3 0 10-6 0h6zm-6 1a3 3 0 106 0H0zm6 1a3 3 0 10-6 0h6zm-6 1a3 3 0 106 0H0zm6 1a3 3 0 10-6 0h6zm-6 1a3 3 0 106 0H0zm6 1a3 3 0 10-6 0h6zm-6 1a3 3 0 106 0H0zm6 1a3 3 0 10-6 0h6zm-6 1a3 3 0 106 0H0zm6 1a3 3 0 10-6 0h6zm-6 1a3 3 0 106 0H0zm6 1a3 3 0 10-6 0h6zm-6 1a3 3 0 106 0H0zm6 1a3 3 0 10-6 0h6zm-6 1a3 3 0 106 0H0zm6 1a3 3 0 10-6 0h6zm-6 1a3 3 0 106 0H0zm6 1a3 3 0 10-6 0h6zm-6 1a3 3 0 106 0H0zm6 1a3 3 0 10-6 0h6zm-6 1a3 3 0 106 0H0zm6 1a3 3 0 10-6 0h6zm-6 1a3 3 0 106 0H0zm6 1a3 3 0 10-6 0h6zm-6 1a3 3 0 106 0H0zm6 1a3 3 0 10-6 0h6zm-6 1a3 3 0 106 0H0zm6 1a3 3 0 10-6 0h6zm-6 1a3 3 0 106 0H0zm6 1a3 3 0 10-6 0h6zm-6 1a3 3 0 106 0H0zm6 1a3 3 0 10-6 0h6zm-6 1a3 3 0 106 0H0zm6 1a3 3 0 10-6 0h6zm-6 1a3 3 0 106 0H0zm6 1a3 3 0 10-6 0h6zm-6 1a3 3 0 106 0H0zm6 1a3 3 0 10-6 0h6zm-6 1a3 3 0 106 0H0zm6 1a3 3 0 10-6 0h6zm-6 1a3 3 0 106 0H0zm6 1a3 3 0 10-6 0h6zm-6 1a3 3 0 106 0H0zm6 1a3 3 0 10-6 0h6zm-6 1a3 3 0 106 0H0zm6 1a3 3 0 10-6 0h6zm-6 1a3 3 0 106 0H0zm6 1a3 3 0 10-6 0h6zm-6 1a3 3 0 106 0H0zm6 1a3 3 0 10-6 0h6zm-6 1a3 3 0 106 0H0zm6 1a3 3 0 10-6 0h6zm-6 1a3 3 0 106 0H0zm6 1a3 3 0 10-6 0h6zm-6 1a3 3 0 106 0H0zm6 1a3 3 0 10-6 0h6zm-6 1a3 3 0 106 0H0zm6 1a3 3 0 10-6 0h6zm-6 1a3 3 0 106 0H0zm6 1a3 3 0 10-6 0h6zm-6 1a3 3 0 106 0H0zm6 1a3 3 0 10-6 0h6zm-6 1a3 3 0 106 0H0zm6 1a3 3 0 10-6 0h6zm-6 1a3 3 0 106 0H0zm6 1a3 3 0 10-6 0h6zm-6 1a3 3 0 106 0H0zm6 1a3 3 0 10-6 0h6zm-6 1a3 3 0 106 0H0zm6 1a3 3 0 10-6 0h6zm-6 1a3 3 0 106 0H0zm6 1a3 3 0 10-6 0h6zm-6 1a3 3 0 106 0H0zm6 1a3 3 0 10-6 0h6zm-6 1a3 3 0 106 0H0zm6 1a3 3 0 10-6 0h6zm-6 1a3 3 0 106 0H0zm6 1a3 3 0 10-6 0h6zm-6 1a3 3 0 106 0H0zm6 1a3 3 0 10-6 0h6zm-6 1a3 3 0 106 0H0zm6 1a3 3 0 10-6 0h6zm-6 1a3 3 0 106 0H0zm6 1a3 3 0 10-6 0h6zm-6 1a3 3 0 106 0H0zm.002 1.032a3 3 0 006-.056l-6 .056zm6.018.893a3 3 0 10-5.998.167l5.998-.167zm-5.958 1.223a3 3 0 005.993-.279l-5.993.279zm6.046.668a3 3 0 10-5.987.391l5.987-.391zM.2 230.764a3 3 0 105.979-.504l-5.979.504zm6.067.436a3 3 0 00-5.968.616l5.968-.616zm-5.85 1.672a3 3 0 105.956-.729l-5.955.729zm6.08.208a3 3 0 10-5.94.842l5.94-.842zm-5.782 1.89a3 3 0 005.924-.954l-5.924.954zm6.083-.021a3 3 0 00-5.904 1.067l5.904-1.067zm-5.706 2.106a3 3 0 105.883-1.178l-5.883 1.178zm6.078-.251a3 3 0 00-5.86 1.29l5.86-1.29zm-5.622 2.324a3 3 0 105.834-1.402l-5.834 1.402zm6.063-.486a3 3 0 00-5.806 1.513l5.806-1.513zm-5.528 2.538a3 3 0 005.776-1.623l-5.776 1.623zm6.04-.716a3 3 0 00-5.744 1.733l5.744-1.733zm-5.428 2.745a3 3 0 105.71-1.842l-5.71 1.842zm6.01-.944a3 3 0 00-5.675 1.951l5.674-1.951zm-5.321 2.949a3 3 0 105.636-2.059l-5.636 2.059zm5.97-1.172a3 3 0 10-5.596 2.165l5.595-2.165zm-5.204 3.15a3 3 0 105.553-2.272l-5.553 2.272zm5.92-1.4a3 3 0 00-5.51 2.377l5.51-2.377zm-5.08 3.347a3 3 0 105.463-2.481l-5.463 2.481zm5.862-1.625a3 3 0 00-5.415 2.585l5.415-2.585zm-4.949 3.538a3 3 0 105.365-2.687l-5.365 2.687zm5.797-1.845a3 3 0 10-5.313 2.789l5.313-2.789zm-4.812 3.722a3.001 3.001 0 005.26-2.889l-5.26 2.889zm5.723-2.064a3 3 0 10-5.203 2.989l5.203-2.989zm-4.667 3.902a3 3 0 105.146-3.086l-5.146 3.086zm5.64-2.279a3 3 0 00-5.086 3.183l5.086-3.183zm-4.515 4.076a3 3 0 105.025-3.279l-5.025 3.279zm5.55-2.491a3 3 0 00-4.963 3.373l4.962-3.373zm-4.358 4.244a3 3 0 104.897-3.466l-4.897 3.466zm5.451-2.699a3 3 0 00-4.831 3.558l4.831-3.558zm-4.195 4.405a3 3 0 104.764-3.648l-4.764 3.648zm5.346-2.902a3 3 0 00-4.693 3.738l4.693-3.738zm-4.026 4.56a3 3 0 104.623-3.825l-4.623 3.825zm5.233-3.101a3 3 0 10-4.55 3.911l4.55-3.911zm-3.851 4.708a3 3 0 104.475-3.996l-4.475 3.996zm5.112-3.296a3 3 0 10-4.399 4.08l4.4-4.08zm-3.671 4.85a3 3 0 004.322-4.162l-4.322 4.162zm4.985-3.487a3.001 3.001 0 00-4.243 4.243l4.243-4.243zm-3.487 4.985a3 3 0 104.162-4.322l-4.162 4.322zm4.85-3.671a3 3 0 10-4.08 4.399l4.08-4.399zm-3.296 5.112a3 3 0 103.997-4.475l-3.997 4.475zm4.708-3.851a3 3 0 10-3.911 4.549l3.911-4.549zm-3.101 5.233a3 3 0 103.825-4.623l-3.825 4.623zm4.56-4.026a3 3 0 00-3.738 4.693l3.738-4.693zm-2.902 5.346a3 3 0 003.648-4.764l-3.648 4.764zm4.405-4.195a3 3 0 10-3.558 4.831l3.558-4.831zm-2.7 5.451a3 3 0 103.467-4.897l-3.466 4.897zm4.245-4.357a3 3 0 10-3.373 4.962l3.373-4.962zm-2.491 5.549a3 3 0 003.279-5.025l-3.28 5.025zm4.076-4.515a3 3 0 00-3.183 5.086l3.183-5.086zm-2.28 5.64a3 3 0 003.087-5.146l-3.086 5.146zm3.903-4.667a3 3 0 00-2.989 5.203l2.989-5.203zm-2.064 5.723a3 3 0 002.89-5.259l-2.89 5.259zm3.722-4.812a3 3 0 00-2.789 5.313l2.79-5.313zm-1.845 5.797a3 3 0 102.687-5.365l-2.687 5.365zm3.538-4.949a3 3 0 00-2.585 5.415l2.585-5.415zm-1.625 5.862a3 3 0 002.482-5.463l-2.482 5.463zm3.347-5.079a2.999 2.999 0 10-2.377 5.509l2.377-5.509zm-1.4 5.919a3 3 0 102.272-5.553l-2.272 5.553zm3.15-5.203a3 3 0 00-2.165 5.595l2.165-5.595zm-1.172 5.969a3 3 0 102.059-5.636l-2.059 5.636zm2.95-5.32a3 3 0 10-1.952 5.674l1.951-5.674zm-.945 6.009a3 3 0 101.842-5.71l-1.842 5.71zm2.745-5.428a3 3 0 10-1.733 5.744l1.733-5.744zm-.716 6.04a3 3 0 101.623-5.776l-1.623 5.776zm2.538-5.528a3 3 0 10-1.512 5.806l1.512-5.806zm-.485 6.063a3 3 0 101.401-5.834l-1.401 5.834zm2.323-5.622a3 3 0 00-1.29 5.86l1.29-5.86zm-.251 6.078a2.999 2.999 0 101.178-5.883l-1.178 5.883zm2.106-5.706a3 3 0 10-1.067 5.904l1.067-5.904zm-.02 6.083a3 3 0 10.953-5.924l-.953 5.924zm1.889-5.782a3 3 0 00-.842 5.941l.842-5.941zm.208 6.079a2.999 2.999 0 10.729-5.955l-.73 5.955zm1.672-5.849a3 3 0 00-.616 5.968l.616-5.968zm.436 6.067a3 3 0 10.504-5.979l-.504 5.979zm1.448-5.908a3 3 0 10-.391 5.987l.391-5.987zm.668 6.046a3 3 0 10.28-5.993l-.28 5.993zm1.224-5.958a3 3 0 00-.168 5.998l.167-5.998zm.892 6.018a3 3 0 00.056-6l-.056 6zM56.5 282a3 3 0 100-6v6zm1-6a3 3 0 100 6v-6zm1 6a3 3 0 100-6v6zm1-6a3 3 0 100 6v-6zm1 6a3 3 0 100-6v6zm1-6a3 3 0 100 6v-6zm1 6a3 3 0 100-6v6zm1-6a3 3 0 100 6v-6zm1 6a3 3 0 100-6v6zm1-6a3 3 0 100 6v-6zm1 6a3 3 0 100-6v6zm1-6a3 3 0 100 6v-6zm1 6a3 3 0 100-6v6zm1-6a3 3 0 100 6v-6zm1 6a3 3 0 100-6v6zm1-6a3 3 0 100 6v-6zm1 6a3 3 0 100-6v6zm1-6a3 3 0 100 6v-6zm1 6a3 3 0 100-6v6zm1-6a3 3 0 100 6v-6zm1 6a3 3 0 100-6v6zm1-6a3 3 0 100 6v-6zm1 6a3 3 0 100-6v6zm1-6a3 3 0 100 6v-6zm1 6a3 3 0 100-6v6zm1-6a3 3 0 100 6v-6zm1 6a3 3 0 100-6v6zm1-6a3 3 0 100 6v-6zm1 6a3 3 0 100-6v6zm1-6a3 3 0 100 6v-6zm1 6a3 3 0 100-6v6zm1-6a3 3 0 100 6v-6zm1 6a3 3 0 100-6v6zm1-6a3 3 0 100 6v-6zm1 6a3 3 0 100-6v6zm1-6a3 3 0 100 6v-6zm1 6a3 3 0 100-6v6zm1-6a3 3 0 100 6v-6zm1 6a3 3 0 100-6v6zm1-6a3 3 0 100 6v-6zm1 6a3 3 0 100-6v6zm1-6a3 3 0 100 6v-6zm1 6a3 3 0 100-6v6zm1-6a3 3 0 100 6v-6zm1 6a3 3 0 100-6v6zm1-6a3 3 0 100 6v-6zm1 6a3 3 0 100-6v6zm1-6a3 3 0 100 6v-6zm1 6a3 3 0 100-6v6zm1-6a3 3 0 100 6v-6zm1 6a3 3 0 100-6v6zm1-6a3 3 0 100 6v-6zm1 6a3 3 0 100-6v6zm1-6a3 3 0 100 6v-6zm1 6a3 3 0 100-6v6zm1-6a3 3 0 100 6v-6zm1 6a3 3 0 100-6v6zm1-6a3 3 0 100 6v-6zm1 6a3 3 0 100-6v6zm1-6a3 3 0 100 6v-6zm1 6a3 3 0 100-6v6zm1-6a3 3 0 100 6v-6zm1 6a3 3 0 100-6v6zm1-6a3 3 0 100 6v-6zm1 6a3 3 0 100-6v6zm1-6a3 3 0 100 6v-6zm1 6a3 3 0 100-6v6zm1-6a3 3 0 100 6v-6zm1 6a3 3 0 100-6v6zm1-6a3 3 0 100 6v-6zm1 6a3 3 0 100-6v6zm1-6a3 3 0 100 6v-6zm1 6a3 3 0 100-6v6zm1-6a3 3 0 100 6v-6zm1 6a3 3 0 100-6v6zm1-6a3 3 0 100 6v-6zm1 6a3 3 0 100-6v6zm1-6a3 3 0 100 6v-6zm1 6a3 3 0 100-6v6zm1-6a3 3 0 100 6v-6zm1 6a3 3 0 100-6v6zm1-6a3 3 0 100 6v-6zm1 6a3 3 0 100-6v6zm1-6a3 3 0 100 6v-6zm1 6a3 3 0 100-6v6zm1-6a3 3 0 100 6v-6zm1 6a3 3 0 100-6v6zm1-6a3 3 0 100 6v-6zm1 6a3 3 0 100-6v6zm1-6a3 3 0 100 6v-6zm1 6a3 3 0 100-6v6zm1-6a3 3 0 100 6v-6zm1 6a3 3 0 100-6v6zm1-6a3 3 0 100 6v-6zm1 6a3 3 0 100-6v6zm1-6a3 3 0 100 6v-6zm1 6a3 3 0 100-6v6zm1-6a3 3 0 100 6v-6zm1 6a3 3 0 100-6v6zm1-6a3 3 0 100 6v-6zm1 6a3 3 0 100-6v6zm1-6a3 3 0 100 6v-6zm1 6a3 3 0 100-6v6zm1-6a3 3 0 100 6v-6zm1 6a3 3 0 100-6v6zm1-6a3 3 0 100 6v-6zm1 6a3 3 0 100-6v6zm1-6a3 3 0 100 6v-6zm1 6a3 3 0 100-6v6zm1-6a3 3 0 100 6v-6zm1 6a3 3 0 100-6v6zm1-6a3 3 0 100 6v-6zm1 6a3 3 0 100-6v6zm1-6a3 3 0 100 6v-6zm1 6a3 3 0 100-6v6zm1-6a3 3 0 100 6v-6zm1 6a3 3 0 100-6v6zm1-6a3 3 0 100 6v-6zm1 6a3 3 0 100-6v6zm1-6a3 3 0 100 6v-6zm1 6a3 3 0 100-6v6zm1-6a3 3 0 100 6v-6zm1 6a3 3 0 100-6v6zm1-6a3 3 0 100 6v-6zm1 6a3 3 0 100-6v6zm1-6a3 3 0 100 6v-6zm1 6a3 3 0 100-6v6zm1-6a3 3 0 100 6v-6zm1 6a3 3 0 100-6v6zm1-6a3 3 0 100 6v-6zm1 6a3 3 0 100-6v6zm1-6a3 3 0 100 6v-6zm1 6a3 3 0 100-6v6zm1-6a3 3 0 100 6v-6zm1 6a3 3 0 100-6v6zm1-6a3 3 0 100 6v-6zm1 6a3 3 0 100-6v6zm1-6a3 3 0 100 6v-6zm1 6a3 3 0 100-6v6zm1-6a3 3 0 100 6v-6zm1 6a3 3 0 100-6v6zm1-6a3 3 0 100 6v-6zm1 6a3 3 0 100-6v6zm1-6a3 3 0 100 6v-6zm1 6a3 3 0 100-6v6zm1-6a3 3 0 100 6v-6zm1 6a3 3 0 100-6v6zm1-6a3 3 0 100 6v-6zm1 6a3 3 0 100-6v6zm1-6a3 3 0 100 6v-6zm1 6a3 3 0 100-6v6zm1-6a3 3 0 100 6v-6zm1 6a3 3 0 100-6v6zm1-6a3 3 0 100 6v-6zm1 6a3 3 0 100-6v6zm1-6a3 3 0 100 6v-6zm1 6a3 3 0 100-6v6zm1-6a3 3 0 100 6v-6zm1 6a3 3 0 100-6v6zm1-6a3 3 0 100 6v-6zm1 6a3 3 0 100-6v6zm1-6a3 3 0 100 6v-6zm1 6a3 3 0 100-6v6zm1-6a3 3 0 100 6v-6zm1 6a3 3 0 100-6v6zm1-6a3 3 0 100 6v-6zm1 6a3 3 0 100-6v6zm1-6a3 3 0 100 6v-6zm1 6a3 3 0 100-6v6zm1-6a3 3 0 100 6v-6zm1 6a3 3 0 100-6v6zm1-6a3 3 0 100 6v-6zm1 6a3 3 0 100-6v6zm1-6a3 3 0 100 6v-6zm1 6a3 3 0 100-6v6zm1-6a3 3 0 100 6v-6zm1 6a3 3 0 100-6v6zm1-6a3 3 0 100 6v-6zm1 6a3 3 0 100-6v6zm1-6a3 3 0 100 6v-6zm1 6a3 3 0 100-6v6zm1-6a3 3 0 100 6v-6zm1 6a3 3 0 100-6v6zm1-6a3 3 0 100 6v-6zm1 6a3 3 0 100-6v6zm1-6a3 3 0 100 6v-6zm1 6a3 3 0 100-6v6zm1-6a3 3 0 100 6v-6zm1 6a3 3 0 100-6v6zm1-6a3 3 0 100 6v-6zm1 6a3 3 0 100-6v6zm1-6a3 3 0 100 6v-6zm1 6a3 3 0 100-6v6zm1-6a3 3 0 100 6v-6zm1 6a3 3 0 100-6v6zm1-6a3 3 0 100 6v-6zm1 6a3 3 0 100-6v6zm1-6a3 3 0 100 6v-6zm1 6a3 3 0 100-6v6zm1-6a3 3 0 100 6v-6zm1 6a3 3 0 100-6v6zm1-6a3 3 0 100 6v-6zm1 6a3 3 0 100-6v6zm1-6a3 3 0 100 6v-6zm1 6a3 3 0 100-6v6zm1-6a3 3 0 100 6v-6zm1 6a3 3 0 100-6v6zm1-6a3 3 0 100 6v-6zm1 6a3 3 0 100-6v6zm1-6a3 3 0 100 6v-6zm1 6a3 3 0 100-6v6zm1-6a3 3 0 100 6v-6zm1 6a3 3 0 100-6v6zm1-6a3 3 0 100 6v-6zm1 6a3 3 0 100-6v6zm1-6a3 3 0 100 6v-6zm1 6a3 3 0 100-6v6zm1-6a3 3 0 100 6v-6zm1 6a3 3 0 100-6v6zm1-6a3 3 0 100 6v-6zm1 6a3 3 0 100-6v6zm1-6a3 3 0 100 6v-6zm1 6a3 3 0 100-6v6zm1-6a3 3 0 100 6v-6zm1 6a3 3 0 100-6v6zm1-6a3 3 0 100 6v-6zm1 6a3 3 0 100-6v6zm1-6a3 3 0 100 6v-6zm1 6a3 3 0 100-6v6zm1-6a3 3 0 100 6v-6zm1 6a3 3 0 100-6v6zm1-6a3 3 0 100 6v-6zm1 6a3 3 0 100-6v6zm1-6a3 3 0 100 6v-6zm1 6a3 3 0 100-6v6zm1-6a3 3 0 100 6v-6zm1 6a3 3 0 100-6v6zm1-6a3 3 0 100 6v-6zm1 6a3 3 0 100-6v6zm1-6a3 3 0 100 6v-6zm1 6a3 3 0 100-6v6zm1-6a3 3 0 100 6v-6zm1 6a3 3 0 100-6v6zm1-6a3 3 0 100 6v-6zm1 6a3 3 0 100-6v6zm1-6a3 3 0 100 6v-6zm1 6a3 3 0 100-6v6zm1-6a3 3 0 100 6v-6zm1 6a3 3 0 100-6v6zm1-6a3 3 0 100 6v-6zm1 6a3 3 0 100-6v6zm1-6a3 3 0 100 6v-6zm1 6a3 3 0 100-6v6zm1-6a3 3 0 100 6v-6zm1 6a3 3 0 100-6v6zm1-6a3 3 0 100 6v-6zm1 6a3 3 0 100-6v6zm1-6a3 3 0 100 6v-6zm1 6a3 3 0 100-6v6zm1-6a3 3 0 100 6v-6zm1 6a3 3 0 100-6v6zm1-6a3 3 0 100 6v-6zm1 6a3 3 0 100-6v6zm1-6a3 3 0 100 6v-6zm1 6a3 3 0 100-6v6zm1-6a3 3 0 100 6v-6zm1 6a3 3 0 100-6v6zm1-6a3 3 0 100 6v-6zm1 6a3 3 0 100-6v6zm1-6a3 3 0 100 6v-6zm1 6a3 3 0 100-6v6zm1-6a3 3 0 100 6v-6zm1 6a3 3 0 100-6v6zm1-6a3 3 0 100 6v-6zm1 6a3 3 0 100-6v6zm1-6a3 3 0 100 6v-6zm1 6a3 3 0 100-6v6zm1-6a3 3 0 100 6v-6zm1 6a3 3 0 100-6v6zm1-6a3 3 0 100 6v-6zm1 6a3 3 0 100-6v6zm1-6a3 3 0 100 6v-6zm1 6a3 3 0 100-6v6zm1-6a3 3 0 100 6v-6zm1 6a3 3 0 100-6v6zm1-6a3 3 0 100 6v-6zm1 6a3 3 0 100-6v6zm1-6a3 3 0 100 6v-6zm1 6a3 3 0 100-6v6zm1-6a3 3 0 100 6v-6zm1 6a3 3 0 100-6v6zm1-6a3 3 0 100 6v-6zm1 6a3 3 0 100-6v6zm1-6a3 3 0 100 6v-6zm1 6a3 3 0 100-6v6zm1-6a3 3 0 100 6v-6zm1 6a3 3 0 100-6v6zm1-6a3 3 0 100 6v-6zm1 6a3 3 0 100-6v6zm1-6a3 3 0 100 6v-6zm1 6a3 3 0 100-6v6zm1-6a3 3 0 100 6v-6zm1 6a3 3 0 100-6v6zm1-6a3 3 0 100 6v-6zm1 6a3 3 0 100-6v6zm1-6a3 3 0 100 6v-6zm1 6a3 3 0 100-6v6zm1-6a3 3 0 100 6v-6zm1 6a3 3 0 100-6v6zm1-6a3 3 0 100 6v-6zm1 6a3 3 0 100-6v6zm1-6a3 3 0 100 6v-6zm1 6a3 3 0 100-6v6zm1-6a3 3 0 100 6v-6zm1 6a3 3 0 100-6v6zm1-6a3 3 0 100 6v-6zm1 6a3 3 0 100-6v6zm1-6a3 3 0 100 6v-6zm1 6a3 3 0 100-6v6zm1-6a3 3 0 100 6v-6zm1 6a3 3 0 100-6v6zm1-6a3 3 0 100 6v-6zm1 6a3 3 0 100-6v6zm1-6a3 3 0 100 6v-6zm1 6a3 3 0 100-6v6zm1-6a3 3 0 100 6v-6zm1 6a3 3 0 100-6v6zm1-6a3 3 0 100 6v-6zm1 6a3 3 0 100-6v6zm1-6a3 3 0 100 6v-6zm1 6a3 3 0 100-6v6zm1-6a3 3 0 100 6v-6zm1 6a3 3 0 100-6v6zm1-6a3 3 0 100 6v-6zm1 6a3 3 0 100-6v6zm1-6a3 3 0 100 6v-6zm1 6a3 3 0 100-6v6zm1-6a3 3 0 100 6v-6zm1 6a3 3 0 100-6v6zm1-6a3 3 0 100 6v-6zm1 6a3 3 0 100-6v6zm1-6a3 3 0 100 6v-6zm1 6a3 3 0 100-6v6zm1-6a3 3 0 100 6v-6zm1 6a3 3 0 100-6v6zm1-6a3 3 0 100 6v-6zm1 6a3 3 0 100-6v6zm1-6a3 3 0 100 6v-6zm1 6a3 3 0 100-6v6zm1-6a3 3 0 100 6v-6zm1 6a3 3 0 100-6v6zm1-6a3 3 0 100 6v-6zm1 6a3 3 0 100-6v6zm1-6a3 3 0 100 6v-6zm1 6a3 3 0 100-6v6zm1-6a3 3 0 100 6v-6zm1 6a3 3 0 100-6v6zm1-6a3 3 0 100 6v-6zm1 6a3 3 0 100-6v6zm1-6a3 3 0 100 6v-6zm1 6a3 3 0 100-6v6zm1-6a3 3 0 100 6v-6zm1 6a3 3 0 100-6v6zm1-6a3 3 0 100 6v-6zm1 6a3 3 0 100-6v6zm1-6a3 3 0 100 6v-6zm1 6a3 3 0 100-6v6zm1-6a3 3 0 100 6v-6zm1 6a3 3 0 100-6v6zm1-6a3 3 0 100 6v-6zm1 6a3 3 0 100-6v6zm1-6a3 3 0 100 6v-6zm1 6a3 3 0 100-6v6zm1-6a3 3 0 100 6v-6zm1 6a3 3 0 100-6v6zm1-6a3 3 0 100 6v-6zm1 6a3 3 0 100-6v6zm1-6a3 3 0 100 6v-6zm1 6a3 3 0 100-6v6zm1-6a3 3 0 100 6v-6zm1 6a3 3 0 100-6v6zm1-6a3 3 0 100 6v-6zm1 6a3 3 0 100-6v6zm1-6a3 3 0 100 6v-6zm1 6a3 3 0 100-6v6zm1-6a3 3 0 100 6v-6zm1 6a3 3 0 100-6v6zm1-6a3 3 0 100 6v-6zm1 6a3 3 0 100-6v6zm1-6a3 3 0 100 6v-6zm1 6a3 3 0 100-6v6zm1-6a3 3 0 100 6v-6zm1 6a3 3 0 100-6v6zm1-6a3 3 0 100 6v-6zm1 6a3 3 0 100-6v6zm1-6a3 3 0 100 6v-6zm1 6a3 3 0 100-6v6zm1-6a3 3 0 100 6v-6zm1 6a3 3 0 100-6v6zm1-6a3 3 0 100 6v-6zm1 6a3 3 0 100-6v6zm1-6a3 3 0 100 6v-6zm1 6a3 3 0 100-6v6zm1-6a3 3 0 100 6v-6zm1 6a3 3 0 100-6v6zm1-6a3 3 0 100 6v-6zm1 6a3 3 0 100-6v6zm1-6a3 3 0 100 6v-6zm1 6a3 3 0 100-6v6zm1-6a3 3 0 100 6v-6zm1 6a3 3 0 100-6v6zm1-6a3 3 0 100 6v-6zm1 6a3 3 0 100-6v6zm1-6a3 3 0 100 6v-6zm1 6a3 3 0 100-6v6zm1-6a3 3 0 100 6v-6zm1 6a3 3 0 100-6v6zm1-6a3 3 0 100 6v-6zm1 6a3 3 0 100-6v6zm1-6a3 3 0 100 6v-6zm1 6a3 3 0 100-6v6zm1-6a3 3 0 100 6v-6zm1 6a3 3 0 100-6v6zm1-6a3 3 0 100 6v-6zm1 6a3 3 0 100-6v6zm1-6a3 3 0 100 6v-6zm1 6a3 3 0 100-6v6zm1-6a3 3 0 100 6v-6zm1 6a3 3 0 100-6v6zm1-6a3 3 0 100 6v-6zm1 6a3 3 0 100-6v6zm1-6a3 3 0 100 6v-6zm1 6a3 3 0 100-6v6zm1-6a3 3 0 100 6v-6zm1 6a3 3 0 100-6v6zm1-6a3 3 0 100 6v-6zm1 6a3 3 0 100-6v6zm1-6a3 3 0 100 6v-6zm1 6a3 3 0 100-6v6zm1-6a3 3 0 100 6v-6zm1 6a3 3 0 100-6v6zm1-6a3 3 0 100 6v-6zm1 6a3 3 0 100-6v6zm1-6a3 3 0 100 6v-6zm1 6a3 3 0 100-6v6zm1-6a3 3 0 100 6v-6zm1 6a3 3 0 100-6v6zm1-6a3 3 0 100 6v-6zm1 6a3 3 0 100-6v6zm1-6a3 3 0 100 6v-6zm1 6a3 3 0 100-6v6zm1-6a3 3 0 100 6v-6zm1 6a3 3 0 100-6v6zm1-6a3 3 0 100 6v-6zm1 6a3 3 0 100-6v6zm1-6a3 3 0 100 6v-6zm1 6a3 3 0 100-6v6zm1-6a3 3 0 100 6v-6zm1 6a3 3 0 100-6v6zm1-6a3 3 0 100 6v-6zm1 6a3 3 0 100-6v6zm1-6a3 3 0 100 6v-6zm1 6a3 3 0 100-6v6zm1-6a3 3 0 100 6v-6zm1 6a3 3 0 100-6v6zm1-6a3 3 0 100 6v-6zm1 6a3 3 0 100-6v6zm1-6a3 3 0 100 6v-6zm1 6a3 3 0 100-6v6zm1-6a3 3 0 100 6v-6zM0 3v.5h6V3H0zm0 1.5v1h6v-1H0zm0 2v1h6v-1H0zm0 2v1h6v-1H0zm0 2v1h6v-1H0zm0 2v1h6v-1H0zm0 2v1h6v-1H0zm0 2v1h6v-1H0zm0 2v1h6v-1H0zm0 2v1h6v-1H0zm0 2v1h6v-1H0zm0 2v1h6v-1H0zm0 2v1h6v-1H0zm0 2v1h6v-1H0zm0 2v1h6v-1H0zm0 2v1h6v-1H0zm0 2v1h6v-1H0zm0 2v1h6v-1H0zm0 2v1h6v-1H0zm0 2v1h6v-1H0zm0 2v1h6v-1H0zm0 2v1h6v-1H0zm0 2v1h6v-1H0zm0 2v1h6v-1H0zm0 2v1h6v-1H0zm0 2v1h6v-1H0zm0 2v1h6v-1H0zm0 2v1h6v-1H0zm0 2v1h6v-1H0zm0 2v1h6v-1H0zm0 2v1h6v-1H0zm0 2v1h6v-1H0zm0 2v1h6v-1H0zm0 2v1h6v-1H0zm0 2v1h6v-1H0zm0 2v1h6v-1H0zm0 2v1h6v-1H0zm0 2v1h6v-1H0zm0 2v1h6v-1H0zm0 2v1h6v-1H0zm0 2v1h6v-1H0zm0 2v1h6v-1H0zm0 2v1h6v-1H0zm0 2v1h6v-1H0zm0 2v1h6v-1H0zm0 2v1h6v-1H0zm0 2v1h6v-1H0zm0 2v1h6v-1H0zm0 2v1h6v-1H0zm0 2v1h6v-1H0zm0 2v1h6v-1H0zm0 2v1h6v-1H0zm0 2v1h6v-1H0zm0 2v1h6v-1H0zm0 2v1h6v-1H0zm0 2v1h6v-1H0zm0 2v1h6v-1H0zm0 2v1h6v-1H0zm0 2v1h6v-1H0zm0 2v1h6v-1H0zm0 2v1h6v-1H0zm0 2v1h6v-1H0zm0 2v1h6v-1H0zm0 2v1h6v-1H0zm0 2v1h6v-1H0zm0 2v1h6v-1H0zm0 2v1h6v-1H0zm0 2v1h6v-1H0zm0 2v1h6v-1H0zm0 2v1h6v-1H0zm0 2v1h6v-1H0zm0 2v1h6v-1H0zm0 2v1h6v-1H0zm0 2v1h6v-1H0zm0 2v1h6v-1H0zm0 2v1h6v-1H0zm0 2v1h6v-1H0zm0 2v1h6v-1H0zm0 2v1h6v-1H0zm0 2v1h6v-1H0zm0 2v1h6v-1H0zm0 2v1h6v-1H0zm0 2v1h6v-1H0zm0 2v1h6v-1H0zm0 2v1h6v-1H0zm0 2v1h6v-1H0zm0 2v1h6v-1H0zm0 2v1h6v-1H0zm0 2v1h6v-1H0zm0 2v1h6v-1H0zm0 2v1h6v-1H0zm0 2v1h6v-1H0zm0 2v1h6v-1H0zm0 2v1h6v-1H0zm0 2v1h6v-1H0zm0 2v1h6v-1H0zm0 2v1h6v-1H0zm0 2v1h6v-1H0zm0 2v1h6v-1H0zm0 2v1h6v-1H0zm0 2v1h6v-1H0zm0 2v1h6v-1H0zm0 2v1h6v-1H0zm0 2v1h6v-1H0zm0 2v1h6v-1H0zm0 2v1h6v-1H0zm0 2v1h6v-1H0zm0 2v1h6v-1H0zm0 2v1h6v-1H0zm0 2v1h6v-1H0zm0 2v1h6v-1H0zm0 2v1h6v-1H0zm0 1.5c0 .177 0 .355.002.532l6-.056A50.872 50.872 0 016 226H0zm.022 1.592c.01.353.023.705.04 1.056l5.993-.279a50.995 50.995 0 01-.035-.944l-5.998.167zm.099 2.115c.023.353.05.706.079 1.057l5.979-.504a50.73 50.73 0 01-.07-.944l-5.988.391zm.178 2.109c.036.353.076.705.119 1.056l5.955-.729a49.97 49.97 0 01-.106-.943l-5.968.616zm.257 2.106c.05.35.103.699.159 1.048l5.924-.954c-.05-.311-.098-.623-.142-.936l-5.94.842zm.338 2.094c.062.347.128.694.198 1.039l5.883-1.178c-.062-.308-.12-.617-.177-.928l-5.904 1.067zm.416 2.078c.076.346.155.69.238 1.034l5.834-1.402a50.027 50.027 0 01-.212-.922l-5.86 1.29zm.495 2.061c.09.343.182.684.278 1.025l5.776-1.623a50.36 50.36 0 01-.248-.915l-5.806 1.513zm.574 2.042c.102.339.207.676.316 1.012l5.71-1.842c-.097-.3-.19-.601-.282-.903l-5.744 1.733zm.651 2.019c.115.334.233.666.354.998l5.636-2.059a48.416 48.416 0 01-.316-.89l-5.674 1.951zm.728 1.991c.127.33.258.658.392.985l5.553-2.272a48.67 48.67 0 01-.35-.878l-5.595 2.165zm.802 1.962c.14.325.284.649.43.97l5.463-2.481c-.13-.288-.259-.576-.384-.866l-5.509 2.377zm.877 1.93c.153.32.308.637.466.953l5.365-2.687c-.142-.282-.28-.566-.416-.851l-5.415 2.585zm.95 1.897c.164.312.332.624.501.933l5.26-2.889a39.31 39.31 0 01-.448-.833l-5.313 2.789zm1.021 1.858c.176.306.355.611.536.913l5.146-3.086a54.56 54.56 0 01-.48-.816l-5.202 2.989zm1.09 1.817c.188.3.378.598.571.893l5.025-3.279a48.128 48.128 0 01-.51-.797l-5.086 3.183zm1.158 1.775c.2.292.4.583.605.871l4.897-3.466a52.859 52.859 0 01-.54-.778l-4.962 3.373zm1.225 1.73c.21.285.422.567.636.847l4.764-3.648c-.192-.25-.382-.503-.569-.757l-4.831 3.558zm1.289 1.683c.22.276.442.55.667.822l4.623-3.825c-.201-.243-.4-.488-.597-.735l-4.693 3.738zm1.35 1.632c.23.268.464.534.699.797l4.475-3.996a59.93 59.93 0 01-.624-.712l-4.55 3.911zm1.412 1.581c.24.259.483.515.728.77l4.322-4.162a57.61 57.61 0 01-.65-.688l-4.4 4.08zm1.47 1.526c.25.25.502.497.756.742l4.162-4.322c-.227-.218-.452-.44-.675-.663l-4.243 4.243zm1.526 1.47c.26.24.52.478.784.713l3.997-4.475a52.23 52.23 0 01-.7-.637l-4.08 4.399zm1.58 1.411c.269.231.539.458.81.684l3.826-4.623a53.602 53.602 0 01-.724-.61l-3.911 4.549zm1.633 1.351c.277.22.555.438.836.653l3.648-4.764a48 48 0 01-.746-.582l-3.738 4.693zm1.683 1.289c.284.21.57.416.859.62l3.466-4.897a48.45 48.45 0 01-.767-.554l-3.558 4.831zm1.73 1.225c.292.198.586.394.882.587l3.279-5.025a48.864 48.864 0 01-.788-.524l-3.373 4.962zm1.775 1.158c.3.187.6.372.904.554l3.086-5.146c-.27-.162-.54-.327-.807-.494l-3.183 5.086zm1.817 1.09c.307.176.615.349.925.52l2.89-5.259a50.428 50.428 0 01-.826-.464l-2.989 5.203zm1.858 1.021c.313.164.627.325.944.484l2.687-5.365a44.49 44.49 0 01-.842-.432l-2.789 5.313zm1.896.95c.319.152.639.301.96.447l2.483-5.463c-.288-.13-.573-.263-.857-.399l-2.585 5.415zm1.93.877c.325.14.65.276.978.41l2.272-5.553a45.042 45.042 0 01-.872-.366l-2.377 5.509zm1.963.802c.33.128.66.253.993.374l2.059-5.636a45.77 45.77 0 01-.887-.333l-2.165 5.595zm1.991.728c.334.115.67.227 1.007.335l1.842-5.71c-.3-.097-.6-.197-.898-.299l-1.95 5.674zm2.02.651c.337.102.676.201 1.016.296l1.623-5.776a46.296 46.296 0 01-.907-.264l-1.733 5.744zm2.041.574c.342.089.684.175 1.028.257l1.401-5.834a54.98 54.98 0 01-.916-.229l-1.512 5.806zm2.06.495c.346.076.692.149 1.04.218l1.178-5.883c-.31-.062-.619-.127-.927-.195l-1.29 5.86zm2.08.416c.347.063.696.123 1.046.179l.953-5.924a47.98 47.98 0 01-.933-.159l-1.067 5.904zm2.093.338c.349.049.699.095 1.05.138l.729-5.955c-.313-.039-.626-.08-.937-.124l-.842 5.941zm2.106.257c.35.036.7.069 1.052.099l.504-5.979a48.378 48.378 0 01-.94-.088l-.616 5.968zm2.109.178c.352.023.705.043 1.06.059l.279-5.993a49.332 49.332 0 01-.948-.053l-.391 5.987zm2.115.099c.353.01.706.016 1.06.02l.056-6a49.767 49.767 0 01-.949-.018l-.167 5.998zM56 282h.5v-6H56v6zm1.5 0h1v-6h-1v6zm2 0h1v-6h-1v6zm2 0h1v-6h-1v6zm2 0h1v-6h-1v6zm2 0h1v-6h-1v6zm2 0h1v-6h-1v6zm2 0h1v-6h-1v6zm2 0h1v-6h-1v6zm2 0h1v-6h-1v6zm2 0h1v-6h-1v6zm2 0h1v-6h-1v6zm2 0h1v-6h-1v6zm2 0h1v-6h-1v6zm2 0h1v-6h-1v6zm2 0h1v-6h-1v6zm2 0h1v-6h-1v6zm2 0h1v-6h-1v6zm2 0h1v-6h-1v6zm2 0h1v-6h-1v6zm2 0h1v-6h-1v6zm2 0h1v-6h-1v6zm2 0h1v-6h-1v6zm2 0h1v-6h-1v6zm2 0h1v-6h-1v6zm2 0h1v-6h-1v6zm2 0h1v-6h-1v6zm2 0h1v-6h-1v6zm2 0h1v-6h-1v6zm2 0h1v-6h-1v6zm2 0h1v-6h-1v6zm2 0h1v-6h-1v6zm2 0h1v-6h-1v6zm2 0h1v-6h-1v6zm2 0h1v-6h-1v6zm2 0h1v-6h-1v6zm2 0h1v-6h-1v6zm2 0h1v-6h-1v6zm2 0h1v-6h-1v6zm2 0h1v-6h-1v6zm2 0h1v-6h-1v6zm2 0h1v-6h-1v6zm2 0h1v-6h-1v6zm2 0h1v-6h-1v6zm2 0h1v-6h-1v6zm2 0h1v-6h-1v6zm2 0h1v-6h-1v6zm2 0h1v-6h-1v6zm2 0h1v-6h-1v6zm2 0h1v-6h-1v6zm2 0h1v-6h-1v6zm2 0h1v-6h-1v6zm2 0h1v-6h-1v6zm2 0h1v-6h-1v6zm2 0h1v-6h-1v6zm2 0h1v-6h-1v6zm2 0h1v-6h-1v6zm2 0h1v-6h-1v6zm2 0h1v-6h-1v6zm2 0h1v-6h-1v6zm2 0h1v-6h-1v6zm2 0h1v-6h-1v6zm2 0h1v-6h-1v6zm2 0h1v-6h-1v6zm2 0h1v-6h-1v6zm2 0h1v-6h-1v6zm2 0h1v-6h-1v6zm2 0h1v-6h-1v6zm2 0h1v-6h-1v6zm2 0h1v-6h-1v6zm2 0h1v-6h-1v6zm2 0h1v-6h-1v6zm2 0h1v-6h-1v6zm2 0h1v-6h-1v6zm2 0h1v-6h-1v6zm2 0h1v-6h-1v6zm2 0h1v-6h-1v6zm2 0h1v-6h-1v6zm2 0h1v-6h-1v6zm2 0h1v-6h-1v6zm2 0h1v-6h-1v6zm2 0h1v-6h-1v6zm2 0h1v-6h-1v6zm2 0h1v-6h-1v6zm2 0h1v-6h-1v6zm2 0h1v-6h-1v6zm2 0h1v-6h-1v6zm2 0h1v-6h-1v6zm2 0h1v-6h-1v6zm2 0h1v-6h-1v6zm2 0h1v-6h-1v6zm2 0h1v-6h-1v6zm2 0h1v-6h-1v6zm2 0h1v-6h-1v6zm2 0h1v-6h-1v6zm2 0h1v-6h-1v6zm2 0h1v-6h-1v6zm2 0h1v-6h-1v6zm2 0h1v-6h-1v6zm2 0h1v-6h-1v6zm2 0h1v-6h-1v6zm2 0h1v-6h-1v6zm2 0h1v-6h-1v6zm2 0h1v-6h-1v6zm2 0h1v-6h-1v6zm2 0h1v-6h-1v6zm2 0h1v-6h-1v6zm2 0h1v-6h-1v6zm2 0h1v-6h-1v6zm2 0h1v-6h-1v6zm2 0h1v-6h-1v6zm2 0h1v-6h-1v6zm2 0h1v-6h-1v6zm2 0h1v-6h-1v6zm2 0h1v-6h-1v6zm2 0h1v-6h-1v6zm2 0h1v-6h-1v6zm2 0h1v-6h-1v6zm2 0h1v-6h-1v6zm2 0h1v-6h-1v6zm2 0h1v-6h-1v6zm2 0h1v-6h-1v6zm2 0h1v-6h-1v6zm2 0h1v-6h-1v6zm2 0h1v-6h-1v6zm2 0h1v-6h-1v6zm2 0h1v-6h-1v6zm2 0h1v-6h-1v6zm2 0h1v-6h-1v6zm2 0h1v-6h-1v6zm2 0h1v-6h-1v6zm2 0h1v-6h-1v6zm2 0h1v-6h-1v6zm2 0h1v-6h-1v6zm2 0h1v-6h-1v6zm2 0h1v-6h-1v6zm2 0h1v-6h-1v6zm2 0h1v-6h-1v6zm2 0h1v-6h-1v6zm2 0h1v-6h-1v6zm2 0h1v-6h-1v6zm2 0h1v-6h-1v6zm2 0h1v-6h-1v6zm2 0h1v-6h-1v6zm2 0h1v-6h-1v6zm2 0h1v-6h-1v6zm2 0h1v-6h-1v6zm2 0h1v-6h-1v6zm2 0h1v-6h-1v6zm2 0h1v-6h-1v6zm2 0h1v-6h-1v6zm2 0h1v-6h-1v6zm2 0h1v-6h-1v6zm2 0h1v-6h-1v6zm2 0h1v-6h-1v6zm2 0h1v-6h-1v6zm2 0h1v-6h-1v6zm2 0h1v-6h-1v6zm2 0h1v-6h-1v6zm2 0h1v-6h-1v6zm2 0h1v-6h-1v6zm2 0h1v-6h-1v6zm2 0h1v-6h-1v6zm2 0h1v-6h-1v6zm2 0h1v-6h-1v6zm2 0h1v-6h-1v6zm2 0h1v-6h-1v6zm2 0h1v-6h-1v6zm2 0h1v-6h-1v6zm2 0h1v-6h-1v6zm2 0h1v-6h-1v6zm2 0h1v-6h-1v6zm2 0h1v-6h-1v6zm2 0h1v-6h-1v6zm2 0h1v-6h-1v6zm2 0h1v-6h-1v6zm2 0h1v-6h-1v6zm2 0h1v-6h-1v6zm2 0h1v-6h-1v6zm2 0h1v-6h-1v6zm2 0h1v-6h-1v6zm2 0h1v-6h-1v6zm2 0h1v-6h-1v6zm2 0h1v-6h-1v6zm2 0h1v-6h-1v6zm2 0h1v-6h-1v6zm2 0h1v-6h-1v6zm2 0h1v-6h-1v6zm2 0h1v-6h-1v6zm2 0h1v-6h-1v6zm2 0h1v-6h-1v6zm2 0h1v-6h-1v6zm2 0h1v-6h-1v6zm2 0h1v-6h-1v6zm2 0h1v-6h-1v6zm2 0h1v-6h-1v6zm2 0h1v-6h-1v6zm2 0h1v-6h-1v6zm2 0h1v-6h-1v6zm2 0h1v-6h-1v6zm2 0h1v-6h-1v6zm2 0h1v-6h-1v6zm2 0h1v-6h-1v6zm2 0h1v-6h-1v6zm2 0h1v-6h-1v6zm2 0h1v-6h-1v6zm2 0h1v-6h-1v6zm2 0h1v-6h-1v6zm2 0h1v-6h-1v6zm2 0h1v-6h-1v6zm2 0h1v-6h-1v6zm2 0h1v-6h-1v6zm2 0h1v-6h-1v6zm2 0h1v-6h-1v6zm2 0h1v-6h-1v6zm2 0h1v-6h-1v6zm2 0h1v-6h-1v6zm2 0h1v-6h-1v6zm2 0h1v-6h-1v6zm2 0h1v-6h-1v6zm2 0h1v-6h-1v6zm2 0h1v-6h-1v6zm2 0h1v-6h-1v6zm2 0h1v-6h-1v6zm2 0h1v-6h-1v6zm2 0h1v-6h-1v6zm2 0h1v-6h-1v6zm2 0h1v-6h-1v6zm2 0h1v-6h-1v6zm2 0h1v-6h-1v6zm2 0h1v-6h-1v6zm2 0h1v-6h-1v6zm2 0h1v-6h-1v6zm2 0h1v-6h-1v6zm2 0h1v-6h-1v6zm2 0h.5v-6h-.5v6z" fill="#FFCC2A"/></svg>