<svg xmlns="http://www.w3.org/2000/svg" width="19.591" height="17.464" viewBox="0 0 19.591 17.464">
  <g id="Сгруппировать_1838" data-name="Сгруппировать 1838" transform="translate(-347 -139)">
    <g id="Сгруппировать_143" data-name="Сгруппировать 143" transform="translate(347 139)">
      <g id="Сгруппировать_142" data-name="Сгруппировать 142" transform="translate(0 0)">
        <path id="Контур_108" data-name="Контур 108" d="M19.382,34.7,10.1,27.9a.509.509,0,0,0-.6,0L.208,34.7a.509.509,0,0,0,.6.821L9.8,28.937l8.986,6.579a.509.509,0,0,0,.6-.821Z" transform="translate(0.001 -27.797)" fill="#36373c"/>
      </g>
    </g>
    <g id="Сгруппировать_145" data-name="Сгруппировать 145" transform="translate(349.16 146.834)">
      <g id="Сгруппировать_144" data-name="Сгруппировать 144">
        <path id="Контур_109" data-name="Контур 109" d="M71.214,232.543a.509.509,0,0,0-.509.509v8.1H66.633v-4.423a2.545,2.545,0,0,0-5.091,0v4.423H57.47v-8.1a.509.509,0,1,0-1.018,0v8.611a.509.509,0,0,0,.509.509h5.09a.509.509,0,0,0,.507-.469.385.385,0,0,0,0-.04v-4.932a1.527,1.527,0,1,1,3.055,0v4.932a.373.373,0,0,0,0,.039.509.509,0,0,0,.507.47h5.09a.509.509,0,0,0,.509-.509v-8.611A.509.509,0,0,0,71.214,232.543Z" transform="translate(-56.452 -232.543)" fill="#36373c"/>
      </g>
    </g>
  </g>
</svg>
