<svg id="calendar" xmlns="http://www.w3.org/2000/svg" width="23.916" height="23.916" viewBox="0 0 23.916 23.916">
  <path id="Контур_1776" data-name="Контур 1776" d="M22.92,2.99H19.93V1a1,1,0,1,0-1.993,0V2.99H5.979V1A1,1,0,1,0,3.986,1V2.99H1a1,1,0,0,0-1,1V22.92a1,1,0,0,0,1,1H22.92a1,1,0,0,0,1-1V3.986A1,1,0,0,0,22.92,2.99ZM1.993,21.923V10.962H15.944a1,1,0,0,0,0-1.993H1.993V4.983H3.986v1a1,1,0,1,0,1.993,0v-1H17.937v1a1,1,0,1,0,1.993,0v-1h1.993V8.969H19.93a1,1,0,0,0,0,1.993h1.993V21.923Zm0,0" fill="#ea6432"/>
  <path id="Контур_1777" data-name="Контур 1777" d="M65.952,208h-.976a.976.976,0,0,0,0,1.952h.976a.976.976,0,0,0,0-1.952Zm0,0" transform="translate(-60.002 -195.021)" fill="#ea6432"/>
  <path id="Контур_1778" data-name="Контур 1778" d="M137.952,208h-.976a.976.976,0,1,0,0,1.952h.976a.976.976,0,0,0,0-1.952Zm0,0" transform="translate(-127.505 -195.021)" fill="#ea6432"/>
  <path id="Контур_1779" data-name="Контур 1779" d="M201.952,208h-.976a.976.976,0,1,0,0,1.952h.976a.976.976,0,1,0,0-1.952Zm0,0" transform="translate(-187.507 -195.021)" fill="#ea6432"/>
  <path id="Контур_1780" data-name="Контур 1780" d="M273.952,208h-.976a.976.976,0,0,0,0,1.952h.976a.976.976,0,1,0,0-1.952Zm0,0" transform="translate(-255.009 -195.021)" fill="#ea6432"/>
  <path id="Контур_1781" data-name="Контур 1781" d="M65.952,272h-.976a.976.976,0,1,0,0,1.952h.976a.976.976,0,0,0,0-1.952Zm0,0" transform="translate(-60.002 -255.027)" fill="#ea6432"/>
  <path id="Контур_1782" data-name="Контур 1782" d="M137.952,272h-.976a.976.976,0,0,0,0,1.952h.976a.976.976,0,1,0,0-1.952Zm0,0" transform="translate(-127.505 -255.027)" fill="#ea6432"/>
  <path id="Контур_1783" data-name="Контур 1783" d="M201.952,272h-.976a.976.976,0,0,0,0,1.952h.976a.976.976,0,1,0,0-1.952Zm0,0" transform="translate(-187.507 -255.027)" fill="#ea6432"/>
  <path id="Контур_1784" data-name="Контур 1784" d="M273.952,272h-.976a.976.976,0,0,0,0,1.952h.976a.976.976,0,1,0,0-1.952Zm0,0" transform="translate(-255.009 -255.027)" fill="#ea6432"/>
</svg>
