<svg id="clock" xmlns="http://www.w3.org/2000/svg" width="24.404" height="24.404" viewBox="0 0 24.404 24.404">
  <path id="Контур_1785" data-name="Контур 1785" d="M21.836,6.421a1.017,1.017,0,0,0-.472,1.358A10.065,10.065,0,0,1,22.371,12.2,10.168,10.168,0,1,1,12.2,2.034a10.046,10.046,0,0,1,6.313,2.194A1.017,1.017,0,1,0,19.78,2.636,12.2,12.2,0,1,0,24.4,12.2a12.078,12.078,0,0,0-1.21-5.308A1.016,1.016,0,0,0,21.836,6.421Zm0,0" fill="#ea6432"/>
  <path id="Контур_1786" data-name="Контур 1786" d="M177.017,64A1.017,1.017,0,0,0,176,65.017v7.118a1.017,1.017,0,0,0,1.017,1.017H182.1a1.017,1.017,0,0,0,0-2.034h-4.067v-6.1A1.017,1.017,0,0,0,177.017,64Zm0,0" transform="translate(-164.815 -59.933)" fill="#ea6432"/>
</svg>
