<svg xmlns="http://www.w3.org/2000/svg" width="44" height="29.76" viewBox="0 0 44 29.76">
  <g id="Сгруппировать_1378" data-name="Сгруппировать 1378" transform="translate(-289.504 -2672.49)">
    <path id="Контур_1773" data-name="Контур 1773" d="M209.244,196.142a1.792,1.792,0,0,0-2.353.941l-10.75,25.084a1.792,1.792,0,0,0,3.294,1.412l10.75-25.084A1.792,1.792,0,0,0,209.244,196.142Z" transform="translate(108.341 2477)" fill="#1a96a3" stroke="#1a96a3" stroke-width="1"/>
    <path id="Контур_1774" data-name="Контур 1774" d="M88.153,241.672a1.792,1.792,0,0,0-2.518-.28l-8.959,7.167a1.792,1.792,0,0,0,0,2.8l8.959,7.167a1.792,1.792,0,1,0,2.238-2.8l-7.21-5.768,7.21-5.768A1.792,1.792,0,0,0,88.153,241.672Z" transform="translate(214 2437.373)" fill="#1a96a3" stroke="#1a96a3" stroke-width="1"/>
    <path id="Контур_1775" data-name="Контур 1775" d="M342.869,248.558l-8.959-7.167a1.792,1.792,0,1,0-2.238,2.8l7.21,5.768-7.21,5.768a1.792,1.792,0,1,0,2.238,2.8l8.959-7.167A1.792,1.792,0,0,0,342.869,248.558Z" transform="translate(-10.537 2437.373)" fill="#1a96a3" stroke="#1a96a3" stroke-width="1"/>
  </g>
</svg>
