<svg xmlns="http://www.w3.org/2000/svg" width="19" height="19" viewBox="0 0 19 19"><g><g><g><path fill="#36373c" d="M7.788 1.948c3.32.008 5.914 2.695 5.898 5.981-.017 3.26-2.691 5.889-5.972 5.871-3.237-.017-5.89-2.687-5.876-5.915.009-3.28 2.611-5.946 5.95-5.937zm7.186 5.932C14.975 3.895 11.745.667 7.753.664 3.799.661.544 3.897.552 7.846c.008 4.092 3.264 7.248 7.229 7.24 3.88-.008 7.149-3.085 7.193-7.206z"/></g><g><path fill="#36373c" d="M13.197 14.168a.852.852 0 0 1 .52-.786.85.85 0 0 1 .954.188c.799.795 1.595 1.592 2.391 2.389.39.39.78.779 1.169 1.17.37.372.384.9.036 1.25-.347.35-.883.337-1.252-.031-1.174-1.173-2.346-2.349-3.52-3.52-.185-.185-.298-.395-.298-.66z"/></g><g><path fill="#36373c" d="M12.405 7.009c.004.329-.222.583-.533.597-.318.015-.564-.219-.588-.563-.05-.707-.246-1.36-.724-1.9-.594-.673-1.367-.979-2.242-1.06-.253-.024-.44-.136-.525-.38-.08-.227-.029-.444.155-.591.105-.084.266-.155.395-.144 2.06.17 3.924 1.446 4.062 4.04z"/></g></g></g></svg>