<svg xmlns="http://www.w3.org/2000/svg" width="64" height="64" viewBox="0 0 64 64"><defs><mask id="zladb" width="2" height="2" x="-1" y="-1"><path fill="#fff" d="M4 3h56v57H4z"/><path d="M58.833 39.114c-4.164 14.693-19.448 23.228-34.14 19.065-14.692-4.164-23.229-19.45-19.066-34.142C9.791 9.345 25.078.81 39.77 4.973c14.692 4.164 23.226 19.449 19.063 34.14z"/></mask><filter id="zlada" width="86" height="87" x="-11" y="-12" filterUnits="userSpaceOnUse"><feOffset in="SourceGraphic" result="FeOffset1169Out"/><feGaussianBlur in="FeOffset1169Out" result="FeGaussianBlur1170Out" stdDeviation="2 2"/></filter></defs><g><g><g><g filter="url(#zlada)"><path fill="none" d="M58.833 39.114c-4.164 14.693-19.448 23.228-34.14 19.065-14.692-4.164-23.229-19.45-19.066-34.142C9.791 9.345 25.078.81 39.77 4.973c14.692 4.164 23.226 19.449 19.063 34.14z" mask="url(&quot;#zladb&quot;)"/><path fill="#1d1d1b" fill-opacity=".35" d="M58.833 39.114c-4.164 14.693-19.448 23.228-34.14 19.065-14.692-4.164-23.229-19.45-19.066-34.142C9.791 9.345 25.078.81 39.77 4.973c14.692 4.164 23.226 19.449 19.063 34.14z"/></g><path fill="#1a96a3" d="M58.833 39.114c-4.164 14.693-19.448 23.228-34.14 19.065-14.692-4.164-23.229-19.45-19.066-34.142C9.791 9.345 25.078.81 39.77 4.973c14.692 4.164 23.226 19.449 19.063 34.14z"/></g><g transform="rotate(17 31.5 30.5)"><g><g><path fill="#fff" d="M41.616 28.77c-3.024 1.511-6.048 3.022-9.07 4.538-.215.11-.4.135-.622.023-3.98-1.996-7.965-3.986-11.947-5.98-.058-.03-.139-.036-.174-.137.119-.06.238-.125.36-.186 3.911-1.957 7.824-3.912 11.734-5.872.202-.101.377-.131.595-.023 4.008 2.012 8.02 4.016 12.03 6.023.035.017.068.036.155.085l-3.061 1.528zm-2.39 8.252c-.839.743-1.837 1.188-2.902 1.476-3.135.847-6.242.796-9.296-.382a5.783 5.783 0 0 1-1.846-1.12c-.53-.485-.817-1.062-.803-1.807.026-1.44.007-2.88.007-4.32 0-.344 0-.345.3-.196 2.277 1.142 4.56 2.278 6.832 3.43.484.246.919.243 1.402-.002 2.283-1.155 4.576-2.29 6.862-3.44.211-.107.28-.123.274.156-.016.775-.006 1.55-.006 2.325 0 .685-.021 1.37.006 2.054.03.759-.283 1.342-.83 1.826zm-17.453 5.07h-1.726l.857-1.724.869 1.724zm24.102-15.241c-.104-.036-.2-.092-.299-.14-4.227-2.115-8.454-4.228-12.678-6.345-.423-.212-.827-.264-1.265-.044-4.342 2.175-8.686 4.346-13.03 6.515-.176.088-.3.2-.297.41.003.213.136.318.309.404.568.278 1.133.561 1.697.846.077.039.16.04.16.194-.012 3.403-.01 6.806-.011 10.209 0 .361.086.75-.295 1.002-.03.02-.04.068-.058.104-.276.558-.558 1.112-.826 1.674-.308.647.076 1.27.792 1.284.554.01 1.108.01 1.661 0 .73-.012 1.117-.643.8-1.304a95.583 95.583 0 0 0-.804-1.617c-.054-.107-.115-.224-.205-.293-.147-.11-.176-.238-.176-.41.006-1.813.004-3.626.004-5.437v-4.894c.683.342 1.314.667 1.954.973.173.083.219.184.218.368-.008 1.65.005 3.302-.01 4.953a2.86 2.86 0 0 0 .687 1.913c.62.746 1.415 1.257 2.298 1.616 3.424 1.39 6.91 1.435 10.424.389 1.156-.345 2.226-.877 3.09-1.75.605-.61.928-1.332.915-2.217-.025-1.63-.003-3.262-.013-4.893-.002-.202.062-.299.238-.385 1.108-.544 2.21-1.1 3.315-1.65.475-.238.949-.479 1.427-.712.174-.086.268-.22.256-.405a.384.384 0 0 0-.278-.358z"/><path fill="none" stroke="#fff" stroke-miterlimit="20" stroke-width=".3" d="M41.616 28.77c-3.024 1.511-6.048 3.022-9.07 4.538-.215.11-.4.135-.622.023-3.98-1.996-7.965-3.986-11.947-5.98-.058-.03-.139-.036-.174-.137.119-.06.238-.125.36-.186 3.911-1.957 7.824-3.912 11.734-5.872.202-.101.377-.131.595-.023 4.008 2.012 8.02 4.016 12.03 6.023.035.017.068.036.155.085l-3.061 1.528zm-2.39 8.252c-.839.743-1.837 1.188-2.902 1.476-3.135.847-6.242.796-9.296-.382a5.783 5.783 0 0 1-1.846-1.12c-.53-.485-.817-1.062-.803-1.807.026-1.44.007-2.88.007-4.32 0-.344 0-.345.3-.196 2.277 1.142 4.56 2.278 6.832 3.43.484.246.919.243 1.402-.002 2.283-1.155 4.576-2.29 6.862-3.44.211-.107.28-.123.274.156-.016.775-.006 1.55-.006 2.325 0 .685-.021 1.37.006 2.054.03.759-.283 1.342-.83 1.826zm-17.453 5.07h-1.726l.857-1.724.869 1.724zm24.102-15.241c-.104-.036-.2-.092-.299-.14-4.227-2.115-8.454-4.228-12.678-6.345-.423-.212-.827-.264-1.265-.044-4.342 2.175-8.686 4.346-13.03 6.515-.176.088-.3.2-.297.41.003.213.136.318.309.404.568.278 1.133.561 1.697.846.077.039.16.04.16.194-.012 3.403-.01 6.806-.011 10.209 0 .361.086.75-.295 1.002-.03.02-.04.068-.058.104-.276.558-.558 1.112-.826 1.674-.308.647.076 1.27.792 1.284.554.01 1.108.01 1.661 0 .73-.012 1.117-.643.8-1.304a95.583 95.583 0 0 0-.804-1.617c-.054-.107-.115-.224-.205-.293-.147-.11-.176-.238-.176-.41.006-1.813.004-3.626.004-5.437v-4.894c.683.342 1.314.667 1.954.973.173.083.219.184.218.368-.008 1.65.005 3.302-.01 4.953a2.86 2.86 0 0 0 .687 1.913c.62.746 1.415 1.257 2.298 1.616 3.424 1.39 6.91 1.435 10.424.389 1.156-.345 2.226-.877 3.09-1.75.605-.61.928-1.332.915-2.217-.025-1.63-.003-3.262-.013-4.893-.002-.202.062-.299.238-.385 1.108-.544 2.21-1.1 3.315-1.65.475-.238.949-.479 1.427-.712.174-.086.268-.22.256-.405a.384.384 0 0 0-.278-.358z"/></g><g><path fill="#fff" d="M41.616 28.77c-3.024 1.511-6.048 3.022-9.07 4.538-.215.11-.4.135-.622.023-3.98-1.996-7.965-3.986-11.947-5.98-.058-.03-.139-.036-.174-.137.119-.06.238-.125.36-.186 3.911-1.957 7.824-3.912 11.734-5.872.202-.101.377-.131.595-.023 4.008 2.012 8.02 4.016 12.03 6.023.035.017.068.036.155.085l-3.061 1.528zm-2.39 8.252c-.839.743-1.837 1.188-2.902 1.476-3.135.847-6.242.796-9.296-.382a5.783 5.783 0 0 1-1.846-1.12c-.53-.485-.817-1.062-.803-1.807.026-1.44.007-2.88.007-4.32 0-.344 0-.345.3-.196 2.277 1.142 4.56 2.278 6.832 3.43.484.246.919.243 1.402-.002 2.283-1.155 4.576-2.29 6.862-3.44.211-.107.28-.123.274.156-.016.775-.006 1.55-.006 2.325 0 .685-.021 1.37.006 2.054.03.759-.283 1.342-.83 1.826zm-17.453 5.07h-1.726l.857-1.724.869 1.724zm24.102-15.241c-.104-.036-.2-.092-.299-.14-4.227-2.115-8.454-4.228-12.678-6.345-.423-.212-.827-.264-1.265-.044-4.342 2.175-8.686 4.346-13.03 6.515-.176.088-.3.2-.297.41.003.213.136.318.309.404.568.278 1.133.561 1.697.846.077.039.16.04.16.194-.012 3.403-.01 6.806-.011 10.209 0 .361.086.75-.295 1.002-.03.02-.04.068-.058.104-.276.558-.558 1.112-.826 1.674-.308.647.076 1.27.792 1.284.554.01 1.108.01 1.661 0 .73-.012 1.117-.643.8-1.304a95.583 95.583 0 0 0-.804-1.617c-.054-.107-.115-.224-.205-.293-.147-.11-.176-.238-.176-.41.006-1.813.004-3.626.004-5.437v-4.894c.683.342 1.314.667 1.954.973.173.083.219.184.218.368-.008 1.65.005 3.302-.01 4.953a2.86 2.86 0 0 0 .687 1.913c.62.746 1.415 1.257 2.298 1.616 3.424 1.39 6.91 1.435 10.424.389 1.156-.345 2.226-.877 3.09-1.75.605-.61.928-1.332.915-2.217-.025-1.63-.003-3.262-.013-4.893-.002-.202.062-.299.238-.385 1.108-.544 2.21-1.1 3.315-1.65.475-.238.949-.479 1.427-.712.174-.086.268-.22.256-.405a.384.384 0 0 0-.278-.358z"/><path fill="none" stroke="#fff" stroke-miterlimit="20" stroke-width=".3" d="M41.616 28.77c-3.024 1.511-6.048 3.022-9.07 4.538-.215.11-.4.135-.622.023-3.98-1.996-7.965-3.986-11.947-5.98-.058-.03-.139-.036-.174-.137.119-.06.238-.125.36-.186 3.911-1.957 7.824-3.912 11.734-5.872.202-.101.377-.131.595-.023 4.008 2.012 8.02 4.016 12.03 6.023.035.017.068.036.155.085l-3.061 1.528zm-2.39 8.252c-.839.743-1.837 1.188-2.902 1.476-3.135.847-6.242.796-9.296-.382a5.783 5.783 0 0 1-1.846-1.12c-.53-.485-.817-1.062-.803-1.807.026-1.44.007-2.88.007-4.32 0-.344 0-.345.3-.196 2.277 1.142 4.56 2.278 6.832 3.43.484.246.919.243 1.402-.002 2.283-1.155 4.576-2.29 6.862-3.44.211-.107.28-.123.274.156-.016.775-.006 1.55-.006 2.325 0 .685-.021 1.37.006 2.054.03.759-.283 1.342-.83 1.826zm-17.453 5.07h-1.726l.857-1.724.869 1.724zm24.102-15.241c-.104-.036-.2-.092-.299-.14-4.227-2.115-8.454-4.228-12.678-6.345-.423-.212-.827-.264-1.265-.044-4.342 2.175-8.686 4.346-13.03 6.515-.176.088-.3.2-.297.41.003.213.136.318.309.404.568.278 1.133.561 1.697.846.077.039.16.04.16.194-.012 3.403-.01 6.806-.011 10.209 0 .361.086.75-.295 1.002-.03.02-.04.068-.058.104-.276.558-.558 1.112-.826 1.674-.308.647.076 1.27.792 1.284.554.01 1.108.01 1.661 0 .73-.012 1.117-.643.8-1.304a95.583 95.583 0 0 0-.804-1.617c-.054-.107-.115-.224-.205-.293-.147-.11-.176-.238-.176-.41.006-1.813.004-3.626.004-5.437v-4.894c.683.342 1.314.667 1.954.973.173.083.219.184.218.368-.008 1.65.005 3.302-.01 4.953a2.86 2.86 0 0 0 .687 1.913c.62.746 1.415 1.257 2.298 1.616 3.424 1.39 6.91 1.435 10.424.389 1.156-.345 2.226-.877 3.09-1.75.605-.61.928-1.332.915-2.217-.025-1.63-.003-3.262-.013-4.893-.002-.202.062-.299.238-.385 1.108-.544 2.21-1.1 3.315-1.65.475-.238.949-.479 1.427-.712.174-.086.268-.22.256-.405a.384.384 0 0 0-.278-.358z"/></g></g></g></g></g></svg>