<svg id="Сгруппировать_1584" data-name="Сгруппировать 1584" xmlns="http://www.w3.org/2000/svg" width="17.966" height="17.969" viewBox="0 0 17.966 17.969">
  <path id="Контур_1832" data-name="Контур 1832" d="M-5.05,259.2a7.2,7.2,0,0,1-7.193,7.206,7.192,7.192,0,0,1-7.229-7.239,7.211,7.211,0,0,1,7.2-7.182A7.217,7.217,0,0,1-5.05,259.2Zm-13.136,0a5.929,5.929,0,0,0,5.877,5.916,5.922,5.922,0,0,0,5.971-5.871,5.906,5.906,0,0,0-5.9-5.981A5.91,5.91,0,0,0-18.186,259.21Z" transform="translate(19.472 -251.989)" fill="#91bf3e"/>
  <path id="Контур_1833" data-name="Контур 1833" d="M34.351,306.673a.859.859,0,0,1,1.474-.6q1.2,1.192,2.391,2.389.585.584,1.169,1.17a.862.862,0,1,1-1.216,1.219q-1.761-1.76-3.521-3.52A.9.9,0,0,1,34.351,306.673Z" transform="translate(-21.706 -293.168)" fill="#91bf3e"/>
  <path id="Контур_1834" data-name="Контур 1834" d="M15.84,265.833a.561.561,0,1,1-1.121.034,3.084,3.084,0,0,0-.724-1.9,3.255,3.255,0,0,0-2.242-1.06.559.559,0,0,1-.525-.379.5.5,0,0,1,.156-.592.624.624,0,0,1,.394-.144A4.13,4.13,0,0,1,15.84,265.833Z" transform="translate(-3.987 -259.488)" fill="#91bf3e"/>
</svg>
