<svg width="56" height="75" viewBox="0 0 56 75" fill="none" xmlns="http://www.w3.org/2000/svg">
<path opacity="0.75" fill-rule="evenodd" clip-rule="evenodd" d="M54.9199 37.6379L55.1843 36.9602L54.3504 35.8759L54.8386 35.2524L54.7843 34.3917L50.9947 31.3082L50.615 29.8173L50.0523 29.736L49.4354 30.6576L47.7338 30.3052L46.7372 29.6275L45.7407 29.3564L44.5272 29.6275L44.3984 28.7059L45.178 27.5741L44.5 26.7338L43.5374 27.7368L43.3204 29.0921L42.751 28.1773L42.4866 27.2556L42.751 26.2526L42.7035 25.6291L42.6222 23.8942H41.2663L39.6528 23.7045L39.1376 22.9726L39.002 21.9764L38.5749 21.624L36.88 21.5697L36.9546 20.621H38.4393L39.4359 21.2987L39.8697 20.9463L39.1918 19.9433V18.8048L37.4156 18.3168L36.9817 17.1783L36.3038 15.8839L38.6495 13.905L36.3852 13.1731L35.7411 10.4149L36.3038 9.84566L35.6259 8.76135L35.2733 8.19209H34.7242L34.3717 6.4843L34.8056 6.1319L34.2903 4.56643L34.2361 3.56344H33.3683L30.4058 1.99119L29.199 2.56046L28.5211 1.93698L28.7923 1.01532L27.4364 0.635803L26.589 3.61088L26.372 5.31189L25.5924 6.31488L26.2704 7.67026L24.9145 8.45639L24.2976 9.51359L23.7823 9.02565L22.379 10.2997L23.5112 10.7334L23.6467 12.4344L24.562 13.1121L26.0466 13.329L26.9076 13.6001L26.4737 15.6332L25.6399 15.5789L25.0772 14.7115L24.3993 14.6573L23.9722 15.4976L21.3621 15.5789L20.6842 15.9313L19.8232 15.5789L18.8266 16.2024L17.8301 15.85L17.2131 15.2808L15.9183 15.4163L14.8675 16.3651L13.6065 15.4163L12.393 16.3651L11.2609 15.9856L9.97278 16.4938L8.35252 15.3621H7.60679L7.4712 15.9856L6.11533 16.9818V18.6624H4.98318L3.33579 20.3973L3.41715 21.075L2.50194 23.2098L3.47138 24.4025L2.21042 24.8362L0.644394 29.8986V30.1697L2.21042 31.6064L3.41715 33.8834L5.45095 34.5611L6.23058 33.7818L7.01698 34.0529L6.58311 36.1334L7.36273 37.3261L7.49832 38.4917L9.13893 38.4104L9.92533 39.2508L8.96266 41.0263L9.25417 41.8124L10.305 41.948L10.8744 40.5384L11.9252 40.8095L13.4845 40.9721L14.3455 39.8946L15.0234 40.3215L14.759 41.2432L15.4369 42.0293L14.6573 43.5202L15.1387 44.0895L15.3556 46.231L18.3453 47.8778L18.8266 46.8748L18.5554 45.6617L20.5282 46.0141L20.0401 47.5796L20.9553 47.8778L21.6333 47.932L22.8468 49.5043L23.1451 51.944L24.623 53.2112L22.4197 55.5696L25.9721 59.3037L24.8399 60.8759L24.623 62.7193C24.5535 62.7609 24.481 62.7971 24.406 62.8277L24.4874 62.9361L26.589 64.0679L27.0229 66.2094L28.1008 68.3509L31.1922 69.7808L31.1379 72.0579L32.1345 73.847L33.1853 73.7657V72.2747C33.1853 72.2747 35.0971 70.0045 35.0971 69.8418C35.0971 69.6792 34.5344 66.5618 34.5344 66.5618L33.7548 63.5799L33.8361 62.5024L35.4021 60.6794L36.3987 58.111L37.1783 58.626L38.88 57.7857L38.9274 55.9966L40.1409 55.8068V54.3769L41.0561 53.2384L42.0527 53.4552L43.0493 51.5916L44.1475 50.514L45.2797 49.511L46.4932 48.6707L48.7507 48.2912H50.3642L52.7912 48.7249L53.842 49.0773L53.6251 46.2378L53.7064 44.8824L54.0589 43.6897L53.4895 40.8976L53.2251 38.8645L55.0555 38.0784L54.9199 37.6379Z" fill="#F15922" stroke="white" stroke-miterlimit="10"/>
</svg>
