<svg width="64" height="88" viewBox="0 0 64 88" fill="none" xmlns="http://www.w3.org/2000/svg">
<path opacity="0.75" fill-rule="evenodd" clip-rule="evenodd" d="M3.84807 8.65502L4.89891 10.2815L5.62426 11.0676L3.92942 11.2845L3.63113 12.2875L5.27176 13.1549L3.76672 14.6458L2.28204 14.7814L2.71593 15.9131L3.76672 16.0486L4.11248 17.5667L4.62772 18.407L4.54637 19.1931L3.63113 19.5455L2.95319 22.5477L1.52276 22.4664L1.30582 23.3338L2.438 23.4694L0.607564 24.5266L0.526215 27.8812L1.20415 28.0167V29.1417L2.07189 29.8736L1.99054 32.0693L2.66847 32.5844L4.02434 32.7199L3.97688 33.4992L2.76339 33.6348L2.98034 34.5022L2.2007 35.2884L2.11256 35.9118V36.1829L2.3024 35.7763L3.3803 36.21L3.86843 37.1317L3.43454 38.2634L6.26152 39.6188L7.12251 38.399L8.25465 38.4803L7.3937 41.5435L8.82414 43.5766L7.46827 43.9832L7.25132 45.1149H6.76323V45.8468L7.82081 46.0637L6.76323 46.904L7.11573 47.7715L8.24787 47.3378L9.67156 46.6601L10.8037 46.389L12.2884 45.5215L12.5053 47.1751L12.9867 49.0997L13.9832 49.154L14.2002 50.2925L15.6781 50.4484L15.5425 51.2345L14.6273 51.37L14.7629 52.373L14.0849 53.2134L14.9188 53.9995L15.9154 53.7826L16.2136 55.4904L15.6442 56.3578L14.8645 56.4866L13.8612 57.4218L14.1595 57.9911L15.0205 58.1537L15.4272 61.488L17.2848 62.7824L17.4204 65.195L17.7661 66.1979L19.4609 65.5203L20.1389 65.8184L20.0914 67.6076L21.7863 67.8786L22.132 68.7935L21.2168 69.4712L21.1422 71.3959L22.7015 71.9651L24.6946 72.4531C24.6946 72.4531 26.0505 74.8047 26.4708 74.886C26.8929 75.0144 27.2929 75.2064 27.6572 75.4552L29.8605 76.0245L32.2604 76.8648L31.9078 78.5997L32.9044 79.2232L32.7756 80.6803L35.4874 80.4092L38.1516 80.3279L38.0974 82.5507H39.8736L39.2295 84.8277L39.9075 86.095H39.7177L40.1244 86.3119L41.9006 87.3149L42.4633 86.6372L45.8055 85.8511L46.9919 84.9362L48.1986 85.2072L48.5511 87.0438L49.6291 87.1251L50.307 85.9934H52.5035L54.117 85.5054L56.6796 85.9934L56.944 85.3157L58.4558 84.9633L58.0761 81.7375L58.9439 79.413L58.4558 77.7052L59.5066 75.9432L60.1507 74.3777L60.5031 72.1007L60.8489 69.5254L62.4963 68.0955L62.3336 66.0624L58.5914 66.6317L58.3744 65.954L61.2828 63.9209L59.9608 63.0263L57.0525 60.1868V57.6048L55.6966 55.5243L51.873 55.4701L52.3001 53.1117V50.4009L52.6526 48.2052L54.4831 46.1179L58.171 46.5516L59.0863 46.8498L60.2998 44.0645V42.2212L59.4388 42.1398L58.388 43.5766L55.778 42.7904L53.9136 43.0073L52.734 41.2182L50.307 39.1851L50.3884 37.8297L52.0832 37.2062L52.9509 36.2575L55.9068 35.3358L56.2593 33.7636L59.3846 29.6974L60.5167 28.0709L62.3472 27.3932V26.4784L60.3811 25.8007L60.4354 24.1742L56.1779 20.7857L56.2593 17.2956L59.6015 15.642L59.3846 14.3748L54.639 14.4493L53.1815 16.7806L50.063 17.133L48.4427 15.9131L44.9717 14.7814L44.3683 12.877L44.4496 11.0879L39.7041 10.4645L37.5889 11.5826L34.4637 9.87487L33.4671 6.73714L32.1112 6.87268L31.4943 9.14296L29.3656 9.35981L27.4199 10.844L26.5047 10.2205L25.8607 7.86889L21.2507 6.29664L20.905 3.66719L19.4881 3.38934L19.2236 4.69051L17.6576 4.74472L15.2171 5.65283L13.8612 4.29744L11.7596 4.92092L10.3359 1.37659L6.72251 1.86453L7.07505 6.60838L5.43446 7.17764L3.84807 8.65502Z" fill="#F15922" stroke="white" stroke-miterlimit="10"/>
</svg>
