<svg width="179" height="240" viewBox="0 0 90 121" fill="none" xmlns="http://www.w3.org/2000/svg">
<path opacity="0.75" fill-rule="evenodd" clip-rule="evenodd" d="M47.7117 1.82179L49.3252 1.90311L50.0031 3.47535L50.9997 3.39403L50.8641 2.71634L51.698 1.93021L52.1318 2.41815L52.8572 1.93021L55.1215 4.28859L56.2537 5.07471L58.5112 4.91207H61.1755C61.2461 4.94363 61.3185 4.97079 61.3925 4.99339L61.5551 6.26067L62.8229 6.34201V7.0197L61.5551 7.07392L60.2874 7.23656L59.162 7.91425L60.1315 9.32385L59.7247 10.0558L59.779 11.2417L61.989 13.3832L60.9925 13.817L61.8534 16.094L62.3348 17.8763L64.3279 17.4426L64.2466 20.2347L63.1686 20.7227L63.955 24.5652L64.7347 24.3483L65.1618 25.1344L70.1175 24.6465L70.7615 26.4898L72.0293 26.273V24.9989L72.9174 24.782L73.6428 25.0802V26.7541L73.8597 27.5945L75.48 27.4589L75.7715 28.2383L76.6867 28.4619L76.9579 29.6818L75.8257 29.9461L75.9071 31.1659L75.0461 31.5183L75.3986 33.1448L76.4697 33.3074L76.6867 33.9851L76.0426 34.3375L76.7206 36.3706L75.8867 36.6688V37.238H76.5647L76.9172 38.5121L79.0459 37.726L79.3442 39.0271L80.2526 39.0814L80.7407 40.3012L82.3 39.9488L82.5983 40.6265L84.5643 40.1115L84.7812 41.8938L83.1067 42.707L83.6694 44.3335L85.6354 43.7642L86.1439 43.195L87.7642 43.0594L88.6251 47.7694L88.8421 48.7453L88.1641 49.179L88.0828 49.9109L86.049 49.8296L85.9676 50.8868L84.266 51.1036L84.1372 52.459L82.6525 54.4921L82.8695 56.2812L84.0558 58.2059L84.0016 60.6117L84.5643 61.3978V62.7532L84.7541 64.4339L84.6185 64.5355L84.4016 65.3284C84.0091 65.3951 83.6129 65.4381 83.2152 65.4572C82.6578 65.3444 82.0885 65.3012 81.5204 65.3284C80.8424 65.4843 80.3408 66.1078 79.6628 66.2975C79.1815 66.4602 78.5849 66.1078 78.1036 66.2975C77.3239 66.6228 76.7816 67.4361 76.002 67.7342C75.4664 67.924 74.8427 67.5716 74.28 67.7342C71.9886 68.4119 73.5546 69.1981 73.6021 70.5806C73.6495 72.39 73.6021 75.8598 71.2293 76.2935C70.6395 76.3748 70.5514 75.1008 69.9344 74.9923C69.5887 74.9381 69.4531 75.67 69.5345 75.9953C69.6158 76.3206 70.2124 76.5646 70.3683 76.9983C71.0124 79.1059 69.3446 80.1903 68.3752 81.8438C68.2396 82.0878 65.5482 87.9431 64.9855 86.8249C64.6398 86.1472 65.799 84.7918 65.7177 83.9786C65.6635 83.6262 65.2024 83.5177 64.9855 83.2534C64.4981 82.7666 64.1151 82.1855 63.8601 81.5456C63.7788 81.1661 64.2872 80.8137 64.2872 80.4071C64.2872 78.5367 62.3755 79.1873 61.7314 78.1301C61.2975 77.3981 62.2127 74.5586 60.5993 74.5586C60.4637 74.5586 61.4331 76.9373 60.5993 76.856C58.7959 76.673 60.0637 71.8478 56.7757 73.8538C53.7589 75.6971 56.7757 79.0788 58.6332 80.4071C59.7383 81.1932 61.8128 80.4884 62.7009 81.9726C63.0534 82.5486 62.7822 83.328 62.9992 84.0057C63.2636 84.9002 63.833 85.6592 64.1245 86.5538C64.5584 87.9634 63.1008 88.3158 62.4297 89.2646C61.8941 90.0168 61.7043 90.9656 61.1348 91.6975C60.5654 92.4294 57.2367 96.299 56.3147 96.2448C55.6368 96.2448 56.1046 94.1372 55.4809 94.4015C54.5656 94.7607 55.6164 97.5189 54.0572 97.2478C53.7318 97.1936 53.6504 96.6785 53.3792 96.5159C52.5657 96.1364 51.7047 95.4858 50.8167 95.6756C50.3624 95.784 50.9251 96.6243 50.8167 97.1123C50.0913 100.447 49.5557 94.781 49.4201 97.7899C49.3659 98.4676 49.7387 99.1995 49.4201 99.7688C49.2032 100.142 48.6879 97.8171 48.288 98.061C47.888 98.305 48.3964 98.9285 48.1252 99.1995C47.3185 100.04 46.5931 98.1695 46.2948 98.3592C45.9965 98.549 46.0236 100.602 46.1592 100.934C46.4304 101.578 47.4541 101.904 47.427 102.635C47.427 103.178 46.5389 103.313 45.9965 103.476C45.7796 103.557 45.4881 103.205 45.3186 103.34C45.1491 103.476 45.0203 105.021 44.1864 104.343C44.078 104.262 44.1864 102.798 43.9221 102.31C43.678 101.958 43.0814 101.849 42.9187 101.47C42.756 101.09 43.0272 100.792 43.0543 100.474C43.2504 99.5837 43.3414 98.6739 43.3255 97.7628C43.3255 97.3833 42.817 97.2207 42.6475 96.8954C42.3221 96.3532 42.4306 95.0792 41.8137 95.1944C41.1967 95.3096 41.895 96.4346 41.8137 97.058C41.6781 98.0068 40.8985 99.0911 40.9527 100.04C40.9527 100.419 41.5967 100.657 41.5154 101.036C41.434 101.416 40.7629 101.28 40.6815 101.605C40.3832 102.635 39.5494 106.749 40.5188 107.589C40.8984 107.888 41.9764 107.237 41.9493 107.725C41.895 108.457 40.5934 108.592 40.3832 109.297C40.3101 109.586 40.3252 109.89 40.4267 110.171C40.5282 110.451 40.7114 110.694 40.9527 110.869C41.2713 111.059 41.434 110.246 41.8137 110.138C42.0781 110.083 42.3492 110.436 42.6475 110.436C43.0746 110.436 43.617 109.839 43.9424 110.138C44.2678 110.436 43.6983 111.113 43.7797 111.574C43.861 112.035 44.2881 112.191 44.3424 112.577C44.3831 113.234 44.3831 113.893 44.3424 114.549C44.3966 114.956 44.722 115.308 44.6407 115.715C44.5034 116.389 44.2084 117.02 43.7797 117.558C43.6441 117.748 43.0272 117.314 43.1017 117.558C43.2916 118.609 45.6101 120.588 42.9662 120.398C42.782 120.352 42.609 120.269 42.4577 120.154L42.1865 119.395L41.7594 116.555L40.8171 114.854L39.5494 113.011L37.2037 112.286L35.5089 111.608L32.8988 111.391L30.4718 111.818L26.5194 112.74L24.0382 114.529L22.906 115.315L22.4247 116.67L21.3468 117.104L20.2146 115.749L19.2994 115.071L18.0317 114.773L18.0859 116.562V116.887L17.0351 117.619L17.1707 118.189L16.4928 118.805L12.8048 117.972L9.62526 116.969L5.99832 114.854L4.78481 112.713L4.35771 110.442L1.31378 108.87L2.229 107.732L3.65265 106.593L7.96433 106.674L8.52701 108.518L9.82187 107.949L9.95746 106.112L11.7337 104.892L10.7913 101.883L9.87611 101.26L9.60492 100.399L11.571 97.9865L12.4862 98.4202L13.5641 97.3359L15.2589 97.0648L15.9369 96.6311L15.3674 95.6281L18.0046 95.2757L17.4419 91.2095L18.0588 90.071L22.1264 89.2849L23.2043 88.5055L24.2551 86.9333L23.2043 85.1442L26.4652 81.1661L23.3942 77.2355L24.3365 75.8327L22.9806 71.4683L25.4619 70.4179L25.2992 69.7402L27.0211 68.4661H29.4142L29.6312 67.2463L30.8447 67.3276L31.2514 68.683L31.3328 70.6009L30.8447 72.39L30.2006 73.5827L31.5565 73.8809L32.5531 72.5255L33.231 72.5798L32.5531 71.3125L33.5496 69.2794L34.2276 69.1438L35.3529 72.3358L35.841 72.1189L36.0037 70.9872L38.2613 68.9541L38.9392 70.0113L37.8545 71.4819L39.2104 72.268L40.0781 72.3493L40.8307 74.1927L42.5526 74.1385L42.1187 72.1054L42.7967 72.024L43.2238 72.9728L44.4915 72.5391L44.2746 71.0482L45.0542 70.4857L46.4846 71.6716L46.6202 74.8161L49.0405 75.6023L49.6031 73.9487L50.8709 73.6776L52.4844 74.518L54.0504 73.6776L55.908 74.2469L55.9622 72.6746L55.1283 72.1054L52.0844 69.8351L49.5286 67.802L50.9522 66.5008L51.6302 61.4656L51.5488 59.0259L50.5658 57.3859L49.4879 55.5968L48.0846 54.0245L46.5796 55.2444L45.1423 51.8288L42.9323 52.5065L42.4509 51.1511L41.4544 51.2866L40.8917 50.4463L41.9628 49.5788L41.59 48.4403L42.3696 47.7626L42.1526 45.7905L39.8951 45.9261L39.1087 44.5707L40.973 44.0014V40.308L41.8069 39.3863L41.1832 35.8894L40.1053 36.0521L38.546 36.6756L38.6274 37.8141L37.7664 38.3291L36.4986 37.7599L35.719 36.0521L35.936 35.537L35.6377 34.0529L34.7225 33.9174L34.5869 32.4806H33.3734L32.8107 31.4776L30.7769 32.1553L31.1294 29.8783L30.5599 29.0176L29.882 29.2277L29.7464 27.8249L31.4413 26.8219L31.7938 25.0328L31.604 20.8379L33.8683 19.1843L34.2208 18.615L33.8683 17.5578L32.1734 17.4291V16.6972L33.7869 15.3418L31.9565 14.6641L31.2311 10.8961L28.8719 11.1672L27.6584 12.9495L24.8043 11.8449L23.245 8.8698L22.9738 6.7825V6.61985V6.94515L24.4043 7.16201L25.1839 5.64398V3.94296H27.1499L27.794 3.80743L27.3126 2.53336L28.2278 1.58459L31.0006 4.51222L32.9124 4.67487L34.0445 6.86382L35.8749 6.59275L36.519 7.08069L37.2986 6.15903L39.4816 5.99637L39.8341 7.16201L41.9018 6.86382L43.034 5.64398L44.5186 6.7825L45.2983 6.59275V4.67487L44.383 3.59057L44.9457 2.91288L45.4338 3.42792L47.427 2.56047L47.5083 1.74724L47.7117 1.82179Z" fill="white" stroke="#2162AF" stroke-miterlimit="10" stroke-linecap="round" stroke-linejoin="round"/>
</svg>
