<svg width="90" height="73" viewBox="0 0 90 73" fill="none" xmlns="http://www.w3.org/2000/svg">
<path opacity="0.75" fill-rule="evenodd" clip-rule="evenodd" d="M49.5238 66.3714L47.49 64.4468L45.4223 63.9589L44.2902 63.8775L42.5885 63.1998L42.0259 63.6878L41.7547 65.7209H40.4666L40.2497 64.7179L38.0667 64.9347V64.0131L36.3719 64.1486V65.2871L33.2466 61.221L34.3787 60.7873L33.111 58.6525L34.1618 57.5953L33.6805 56.8092L32.6839 56.8905L32.3314 56.0231L31.4161 56.3755L31.1179 58.029L28.0807 56.8905L24.9012 56.511L24.386 55.3183L23.2064 55.5893L21.7217 55.1285L21.7759 55.0201L20.3522 54.2407L18.732 53.6715L17.9523 52.4787L16.9016 52.6685L14.9898 50.2559H14.1288L13.9119 48.1212L16.1219 48.4668L17.4778 48.9073L18.4608 45.9187L17.9727 42.2117L17.6744 39.0943V36.8714L17.0575 35.821L14.7186 35.306L14.0407 33.9506L14.339 33.3813L13.9051 32.2428L12.6441 31.7549L11.3493 31.8904L9.81712 29.4033L10.8611 28.1292L10.5696 27.5599L10.9967 25.5269L9.60017 25.6082L9.1663 22.5518L8.7392 22.0367L7.30874 22.1181L6.12236 19.4073L7.17317 18.6212L7.04436 18.14L4.12922 17.4623L2.35303 15.1039L2.0073 14.9142L1.43784 12.8337L3.3496 11.6138L3.43095 10.0416L4.78682 10.1229L5.34952 10.6108L6.12914 10.4753L6.26474 9.63495L6.94267 9.25545V8.57775L7.7223 8.49643L7.80364 7.52055H8.48158L8.61718 8.00849L11.3899 7.73741L11.5255 9.28256L13.0305 10.0145L13.5186 9.4452L15.5118 9.49942L15.6948 9.01148L16.5558 9.14701C16.5558 9.14701 15.6948 10.5024 17.1253 9.82471C18.5557 9.14701 19.3353 9.52653 19.3353 9.52653L19.898 8.46932L20.9488 8.17114C20.9488 8.17114 21.5929 9.11991 21.6268 7.6832C21.6607 6.24649 21.925 6.41591 21.925 6.41591L23.3284 6.19905L23.5385 4.68102L24.6165 5.06052L25.9723 2.62083L26.9689 2.75636L27.2333 3.13588H27.9112V2.62083L28.962 2.70215L29.2536 3.37985L30.3043 3.16298L30.6569 1.75338L31.789 2.94612L34.4262 3.10877L34.6431 4.46415L35.6126 3.59671L36.4736 3.89489L37.0362 4.51837L38.4667 3.59671L41.1784 4.65391L43.1716 5.52135L44.0868 4.46415L45.0833 3.78646L44.9478 3.00033L45.863 2.78347H46.5409L47.6731 1.72627L49.8831 2.78347L50.6628 2.21421L51.3407 2.51239L51.4221 3.35274L51.8288 3.2172L52.1746 2.13289L55.2998 0.858826L56.5947 1.42809L56.7845 5.00631L59.4217 9.07247L59.0692 10.1297L60.764 11.4037L61.1165 11.2682L61.9504 11.3495L62.0318 12.3525L63.7266 12.8404L63.808 13.8367L62.73 14.8939L63.0283 16.5474L63.8622 17.1167L65.7197 17.7944L67.2044 17.6588L67.6315 17.3607C67.6315 17.3607 68.1196 15.5173 67.8484 15.5173C68.3603 15.6674 68.8811 15.7851 69.4077 15.8697L69.5975 16.5474L72.0245 15.2463L73.4211 15.924L73.5838 17.3607L73.0753 18.5534L72.5058 20.5865L71.7262 22.2129L71.8889 22.9991L72.4516 23.0804L72.8041 24.4358L73.5838 24.6526L75.7668 26.2181L76.6277 25.3507L77.8412 25.432L76.8447 26.3537V26.9432L79.2378 26.8077L81.5021 27.4312L81.9292 31.7074L82.9258 32.1412L83.841 33.5779L85.8748 33.8489L87.2306 33.5779L88.9255 37.3391L86.7425 37.6915L87.5764 39.0468L89.1424 39.3993L88.6543 40.7546L85.1833 40.2667L84.8308 42.0558L85.6646 42.11L85.6171 44.5429L86.451 44.7327L84.485 47.1724L84.702 48.4397L83.5698 48.9547L83.4884 48.4397L82.2749 48.6023L77.4548 47.6061L76.404 50.9336L76.9667 52.4516L77.5362 52.6414L78.0988 54.2882L78.3158 54.7219H77.2379L76.1871 53.292L75.2718 53.2106L74.5939 54.7287L74.0312 53.7325H72.7635L72.3296 54.0849L71.7669 54.0035L70.7703 55.2166L69.9094 55.3521L69.2924 56.0298L67.6451 56.1112L65.7333 59.0117L64.6011 58.3882L63.7673 58.7406L62.4114 57.7376L62.6012 59.1743L60.6352 60.5297L61.1165 62.0207L59.8488 63.9453L59.9844 65.9784L61.1979 67.5167L61.2521 68.4655L59.7742 68.6824L59.8488 69.9564L60.7708 70.0107L60.5539 71.5829L58.2082 71.5287L55.1643 70.092L54.5473 68.8179L51.3407 66.7848L49.5238 66.3714Z" fill="#F15922" stroke="white" stroke-miterlimit="10"/>
</svg>
