<svg width="209" height="25" fill="none" xmlns="http://www.w3.org/2000/svg"><path d="M3.488 12.672L1.992 24.969l-.993-.12L2.495 12.55l.993.12zm9.977 0l-1.497 12.297-.993-.12 1.497-12.298.993.12zm8.48 12.297l1.496-12.297-.992-.121-1.497 12.298.993.12zm11.473-12.297L31.92 24.969l-.992-.12 1.496-12.298.993.12zm8.48 12.297l1.496-12.297-.992-.121-1.497 12.298.993.12zM53.37 12.672l-1.497 12.297-.992-.12 1.496-12.298.993.12zm8.48 12.297l1.496-12.297-.992-.121-1.497 12.298.993.12zm11.473-12.297l-1.496 12.297-.993-.12L72.33 12.55l.993.12zm8.48 12.297L83.3 12.672l-.992-.121-1.497 12.298.993.12zm11.473-12.297L91.78 24.969l-.993-.12 1.496-12.298.993.12zm8.48 12.297l1.497-12.297-.993-.121-1.497 12.298.993.12zm11.471-12.297l-1.496 12.297-.993-.12 1.497-12.298.992.12zm8.48 12.297l1.497-12.297-.993-.121-1.496 12.298.992.12zm11.473-12.297l-1.496 12.297-.993-.12 1.497-12.298.992.12zm8.48 12.297l1.497-12.297-.993-.121-1.496 12.298.992.12zm11.474-12.297l-1.497 12.297-.993-.12 1.497-12.298.993.12zm8.48 12.297l1.496-12.297-.993-.121-1.496 12.298.993.12zm11.473-12.297l-1.497 12.297-.993-.12 1.497-12.298.993.12zm18.456 12.297l1.497-12.297-.993-.121-1.496 12.298.992.12zm-8.48-12.297l-1.496 12.297-.993-.12 1.497-12.298.992.12zm18.457 12.297l1.496-12.297-.992-.121-1.497 12.298.993.12zM8.476 12.672L6.98 24.969l-.993-.12L7.484 12.55l.992.12zm9.977 0l-1.497 12.297-.992-.12L17.46 12.55l.993.12zm8.48 12.297l1.496-12.297-.992-.121-1.497 12.298.993.12zm11.473-12.297l-1.497 12.297-.992-.12 1.496-12.298.993.12zm8.48 12.297l1.496-12.297-.992-.121-1.497 12.298.993.12zm11.473-12.297l-1.497 12.297-.992-.12 1.496-12.298.993.12zm8.48 12.297l1.497-12.297-.993-.121-1.497 12.298.993.12zm11.473-12.297l-1.496 12.297-.993-.12L77.32 12.55l.992.12zm8.48 12.297l1.497-12.297-.993-.121L85.8 24.849l.992.12zm11.473-12.297L96.77 24.969l-.993-.12 1.497-12.298.992.12zm8.48 12.297l1.497-12.297-.993-.121-1.496 12.298.992.12zm11.471-12.297l-1.496 12.297-.993-.12 1.497-12.298.992.12zm8.481 12.297l1.496-12.297-.993-.121-1.496 12.298.993.12zm11.473-12.297l-1.497 12.297-.993-.12 1.497-12.298.993.12zm8.48 12.297l1.496-12.297-.993-.121-1.496 12.298.993.12zm11.473-12.297l-1.497 12.297-.992-.12 1.496-12.298.993.12zm8.48 12.297l1.496-12.297-.992-.121-1.497 12.298.993.12zm11.473-12.297l-1.497 12.297-.992-.12 1.496-12.298.993.12zm18.456 12.297l1.497-12.297-.993-.121-1.496 12.298.992.12zm-8.48-12.297l-1.496 12.297-.993-.12 1.497-12.298.992.12zm18.457 12.297l1.497-12.297-.993-.121-1.497 12.298.993.12zM205.518.176l1.496 12.298.993-.121L206.51.056l-.992.12zm-9.977 0l1.497 12.298.992-.121L196.534.056l-.993.12zm-8.48 12.298L185.564.176l.993-.12 1.497 12.297-.993.12zM175.588.176l1.496 12.298.993-.121L176.581.056l-.993.12zm-8.48 12.298L165.611.176l.993-.12 1.497 12.297-.993.12zM155.635.176l1.496 12.298.993-.121L156.627.056l-.992.12zm-8.48 12.298L145.658.176l.993-.12 1.496 12.297-.992.12zM135.682.176l1.496 12.298.993-.121L136.674.056l-.992.12zm-8.48 12.298L125.705.176l.993-.12 1.496 12.297-.992.12zM115.729.176l1.496 12.298.993-.121L116.721.056l-.992.12zm-8.482 12.298L105.75.176l.993-.12 1.496 12.297-.992.12zM95.773.176l1.497 12.298.993-.121L96.766.056l-.993.12zm-8.48 12.298L85.797.176l.993-.12 1.496 12.297-.993.12zM75.82.176l1.497 12.298.993-.121L76.813.056l-.993.12zm-8.48 12.298L65.844.176l.993-.12 1.496 12.297-.993.12zM55.867.176l1.497 12.298.992-.121L56.86.056l-.993.12zm-8.48 12.298L45.891.176l.992-.12 1.497 12.297-.993.12zM35.914.176l1.497 12.298.992-.121L36.907.056l-.993.12zM17.457 12.474L15.961.176l.993-.12 1.496 12.297-.992.12zM25.938.176l1.497 12.298.993-.121L26.93.056l-.992.12zM7.482 12.474L5.984.176l.993-.12 1.497 12.297-.993.12zM200.529.176l1.497 12.298.992-.121L201.522.056l-.993.12zm-9.976 0l1.496 12.298.993-.121L191.545.056l-.992.12zm-8.48 12.298L180.576.176l.993-.12 1.496 12.297-.992.12zM170.6.176l1.496 12.298.993-.121L171.592.056l-.992.12zm-8.48 12.298L160.623.176l.993-.12 1.496 12.297-.992.12zM150.646.176l1.497 12.298.993-.121L151.639.056l-.993.12zm-8.48 12.298L140.67.176l.993-.12 1.496 12.297-.993.12zM130.693.176l1.497 12.298.993-.121L131.686.056l-.993.12zm-8.48 12.298L120.717.176l.992-.12 1.497 12.297-.993.12zM110.74.176l1.497 12.298.992-.121L111.733.056l-.993.12zm-8.482 12.298L100.762.176l.992-.12 1.497 12.297-.993.12zM90.785.176l1.497 12.298.992-.121L91.778.056l-.993.12zm-8.48 12.298L80.81.176l.992-.12 1.497 12.297-.993.12zM70.832.176l1.497 12.298.992-.121L71.825.056l-.993.12zm-8.48 12.298L60.856.176l.992-.12 1.497 12.297-.993.12zM50.879.176l1.496 12.298.993-.121L51.872.056l-.993.12zm-8.48 12.298L40.902.176l.993-.12 1.496 12.297-.992.12zM30.926.176l1.496 12.298.993-.121L31.919.056l-.993.12zM12.469 12.474L10.973.176l.992-.12 1.497 12.297-.993.12zM20.95.176l1.497 12.298.992-.121L21.942.056l-.993.12zM2.493 12.474L.996.176l.993-.12 1.496 12.297-.992.12z" opacity=".11" fill-rule="evenodd" clip-rule="evenodd" fill="#FFF7F7"/></svg>