<svg width="41" height="40" viewBox="0 0 41 40" fill="none" xmlns="http://www.w3.org/2000/svg">
<path d="M32.3322 13.3887C32.3322 12.7734 31.8488 12.29 31.2335 12.29H13.6553C13.0399 12.29 12.5567 12.7734 12.5567 13.3887V22.1778C12.5567 22.7928 13.0399 23.2764 13.6553 23.2764H25.5863L25.2787 21.7163C25.059 20.6397 25.3885 19.5191 26.1798 18.75C26.2018 18.7283 26.2018 18.7283 26.2237 18.7061C25.9379 18.5081 25.7403 18.179 25.7403 17.7832C25.7403 17.168 26.2235 16.6846 26.839 16.6846C27.4542 16.6846 27.9376 17.168 27.9376 17.7832V17.8489C28.1351 17.8052 28.3109 17.7832 28.5089 17.7832H28.7067L29.1461 17.8489L32.3322 18.4864V13.3887ZM18.0499 18.8819C17.4344 18.8819 16.9512 18.3982 16.9512 17.7832C16.9512 17.168 17.4344 16.6846 18.0499 16.6846C18.6654 16.6846 19.1485 17.168 19.1485 17.7832C19.1485 18.3982 18.6654 18.8819 18.0499 18.8819ZM22.4444 18.8819C21.829 18.8819 21.3458 18.3982 21.3458 17.7832C21.3458 17.168 21.829 16.6846 22.4444 16.6846C23.0599 16.6846 23.5431 17.168 23.5431 17.7832C23.5431 18.3982 23.0599 18.8819 22.4444 18.8819Z" fill="#006F9F"/>
<path d="M5.98689 18.8818C6.11872 22.4854 6.93172 26.1548 8.4698 28.6817C4.71224 26.9019 1.89241 23.2105 1.49713 18.8818H5.98689Z" fill="#006F9F"/>
<path d="M5.98689 16.6846H1.49713C1.89241 12.3557 4.71224 8.66456 8.4698 6.88477C6.93172 9.41163 6.11872 13.0811 5.98689 16.6846Z" fill="#006F9F"/>
<path d="M20.2472 25.4738H22.9276C21.829 26.836 20.4227 27.9347 18.8409 28.6817C19.4122 27.7367 19.8739 26.66 20.2472 25.4738Z" fill="#006F9F"/>
<path d="M20.2472 10.0928C19.8739 8.90626 19.4122 7.8296 18.8409 6.88477C20.4232 7.63207 21.8292 8.73071 22.9279 10.0928H20.2472Z" fill="#006F9F"/>
<path d="M10.3594 16.6846H8.18414C8.40387 11.1694 10.3153 5.69824 13.6553 5.69824C15.567 5.69824 17.0174 7.5 17.94 10.0928H13.6553C11.8314 10.0928 10.3594 11.565 10.3594 13.3887V16.6846Z" fill="#006F9F"/>
<path d="M13.6553 25.4736H17.94C17.0174 28.0664 15.5667 29.8682 13.6553 29.8682C10.3153 29.8682 8.40387 24.397 8.18414 18.8818H10.3594V22.1777C10.3594 24.0012 11.8314 25.4736 13.6553 25.4736Z" fill="#006F9F"/>
<path d="M34.7915 31.5734C34.5102 31.5734 34.2292 31.4661 34.0147 31.2514L31.6101 28.8479L30.8332 29.6247C30.5469 29.9111 30.1297 30.0184 29.738 29.8994C29.3506 29.7824 29.0587 29.4604 28.9795 29.0633L27.4261 21.2948C27.354 20.9343 27.4666 20.5621 27.7264 20.3023C27.9871 20.0416 28.3593 19.9322 28.7186 20.0021L36.4875 21.5555C36.8846 21.6347 37.2064 21.9265 37.3232 22.314C37.4413 22.7024 37.3351 23.1231 37.0485 23.4094L36.2717 24.1863L38.6752 26.5907C39.1043 27.0198 39.1043 27.7152 38.6752 28.1441L35.5681 31.2512C35.3536 31.4661 35.0724 31.5734 34.7915 31.5734Z" fill="#006F9F"/>
<path d="M2.59577 7.82228C1.98854 7.82228 1.49713 7.3311 1.49713 6.72365V2.3291C1.49713 1.72188 1.98854 1.23047 2.59577 1.23047H6.99031C7.5973 1.23047 8.08894 1.72188 8.08894 2.3291C8.08894 2.93656 7.5973 3.42774 6.99031 3.42774H3.6944V6.72365C3.6944 7.3311 3.20276 7.82228 2.59577 7.82228Z" fill="#006F9F"/>
<path d="M37.8986 7.82228C37.2914 7.82228 36.7999 7.3311 36.7999 6.72365V3.42774H33.504C32.8968 3.42774 32.4054 2.93656 32.4054 2.3291C32.4054 1.72188 32.8968 1.23047 33.504 1.23047H37.8986C38.5056 1.23047 38.9972 1.72188 38.9972 2.3291V6.72365C38.9972 7.3311 38.5056 7.82228 37.8986 7.82228Z" fill="#006F9F"/>
<path d="M6.99031 38.7306H2.59577C1.98854 38.7306 1.49713 38.2392 1.49713 37.632V33.2374C1.49713 32.6302 1.98854 32.1388 2.59577 32.1388C3.20276 32.1388 3.6944 32.6302 3.6944 33.2374V36.5333H6.99031C7.5973 36.5333 8.08894 37.0247 8.08894 37.632C8.08894 38.2392 7.5973 38.7306 6.99031 38.7306Z" fill="#006F9F"/>
<path d="M37.8986 38.7306H33.504C32.8968 38.7306 32.4054 38.2392 32.4054 37.632C32.4054 37.0247 32.8968 36.5333 33.504 36.5333H36.7999V33.2374C36.7999 32.6302 37.2914 32.1388 37.8986 32.1388C38.5056 32.1388 38.9972 32.6302 38.9972 33.2374V37.632C38.9972 38.2392 38.5056 38.7306 37.8986 38.7306Z" fill="#006F9F"/>
</svg>
