<svg width="14" height="14" viewBox="0 0 14 14" fill="none" xmlns="http://www.w3.org/2000/svg">
<path d="M13.776 2.97296L13.3174 2.51438C13.1733 2.37017 12.9812 2.29083 12.7761 2.29083C12.571 2.29083 12.3787 2.37017 12.2346 2.51438L5.79088 8.95802L1.76491 4.93194C1.62081 4.78796 1.42857 4.70851 1.22346 4.70851C1.01847 4.70851 0.826342 4.78796 0.68213 4.93194L0.223431 5.39041C0.0792195 5.53485 0 5.72721 0 5.93209C0 6.13708 0.0792195 6.32932 0.223431 6.47353L4.76899 11.0189C4.77502 11.0274 4.7814 11.0354 4.7888 11.0427L5.2475 11.4937C5.39159 11.6374 5.58384 11.7092 5.79054 11.7092H5.79293C5.99815 11.7092 6.19039 11.6374 6.33426 11.4937L6.79307 11.0387C6.80047 11.0314 6.80673 11.0254 6.81049 11.0192L13.7759 4.05449C14.0747 3.75639 14.0747 3.2714 13.776 2.97296Z" fill="#1BB934"/>
</svg>
