<svg width="17" height="16" viewBox="0 0 17 16" fill="none" xmlns="http://www.w3.org/2000/svg">
<path d="M15.9544 11.3079C15.9731 12.5509 15.5087 13.7527 14.6592 14.6603C13.7533 15.5126 12.5504 15.9774 11.3068 15.9555C9.98107 15.9555 6.01917 15.9555 4.70869 15.9555C3.46595 15.9726 2.26474 15.5085 1.35631 14.6603C0.478895 13.766 -0.00871139 12.5607 0.000117848 11.3079C0.000117848 9.98218 0.000117848 6.09647 0.000117848 4.69456C-0.00871139 3.44177 0.478895 2.23645 1.35631 1.34218C2.25396 0.471757 3.45837 -0.010009 4.70869 0.00123249C6.09536 0.00123249 9.98107 0.00123249 11.3068 0.00123249C12.5515 -0.0272364 13.7569 0.438472 14.6592 1.29647C15.0854 1.74228 15.4193 2.26798 15.6416 2.84332C15.8638 3.41865 15.9702 4.03227 15.9544 4.64885C16.0306 6.09647 16.0306 9.98218 15.9544 11.3079ZM14.5677 8.00123C14.67 6.42446 14.5624 4.84109 14.2477 3.29266C14.1129 2.9471 13.9079 2.63326 13.6456 2.37097C13.3833 2.10869 13.0695 1.90366 12.7239 1.76885C11.167 1.47921 9.57858 1.39723 8.00012 1.52504C6.42335 1.41529 4.83897 1.52296 3.29155 1.84504C2.94598 1.97985 2.63214 2.18488 2.36986 2.44716C2.10757 2.70945 1.90255 3.02329 1.76774 3.36885C1.48525 4.89579 1.40329 6.45307 1.52393 8.00123C1.4212 9.58306 1.5288 11.1715 1.84393 12.725C1.98111 13.0692 2.18698 13.3818 2.44897 13.6438C2.71095 13.9058 3.02357 14.1117 3.36774 14.2488C4.91617 14.5635 6.49954 14.6711 8.07631 14.5688C9.65814 14.6716 11.2466 14.564 12.8001 14.2488C13.1443 14.1117 13.4569 13.9058 13.7189 13.6438C13.9809 13.3818 14.1867 13.0692 14.3239 12.725C14.6136 11.1681 14.6956 9.57969 14.5677 8.00123ZM12.1906 8.00123C12.1936 8.8156 11.9549 9.61255 11.5046 10.2911C11.0544 10.9697 10.4129 11.4994 9.66137 11.8132C8.90985 12.1269 8.08213 12.2106 7.28303 12.0535C6.48394 11.8965 5.74942 11.5059 5.1725 10.9311C4.59558 10.3563 4.20222 9.62325 4.04223 8.82475C3.88224 8.02624 3.96282 7.19822 4.27377 6.44554C4.58472 5.69286 5.11204 5.0494 5.78896 4.59664C6.46588 4.14388 7.26193 3.90219 8.07631 3.90218C8.61589 3.90018 9.15055 4.00472 9.64963 4.20982C10.1487 4.41492 10.6024 4.71653 10.9846 5.09737C11.3669 5.4782 11.6702 5.93075 11.8771 6.42907C12.0841 6.92738 12.1906 7.46165 12.1906 8.00123ZM10.6668 8.00123C10.6668 7.47381 10.5104 6.95824 10.2174 6.51971C9.92436 6.08118 9.50788 5.73939 9.02061 5.53755C8.53334 5.33572 7.99716 5.28291 7.47988 5.3858C6.9626 5.4887 6.48744 5.74267 6.1145 6.11561C5.74156 6.48855 5.48759 6.96371 5.38469 7.48099C5.2818 7.99827 5.33461 8.53445 5.53644 9.02172C5.73827 9.50899 6.08007 9.92547 6.5186 10.2185C6.95713 10.5115 7.4727 10.6679 8.00012 10.6679C8.70736 10.6679 9.38564 10.3869 9.88574 9.88685C10.3858 9.38675 10.6668 8.70848 10.6668 8.00123ZM12.282 4.69456C12.156 4.69456 12.0311 4.66973 11.9146 4.62149C11.7982 4.57325 11.6923 4.50253 11.6032 4.41339C11.5141 4.32424 11.4433 4.21841 11.3951 4.10194C11.3469 3.98547 11.322 3.86063 11.322 3.73457C11.322 3.6085 11.3469 3.48366 11.3951 3.36719C11.4433 3.25072 11.5141 3.14489 11.6032 3.05574C11.6923 2.9666 11.7982 2.89589 11.9146 2.84764C12.0311 2.7994 12.156 2.77457 12.282 2.77457C12.5366 2.77457 12.7808 2.87571 12.9608 3.05574C13.1409 3.23578 13.242 3.47996 13.242 3.73457C13.242 3.98917 13.1409 4.23335 12.9608 4.41339C12.7808 4.59342 12.5366 4.69456 12.282 4.69456Z" fill="white"/>
</svg>
