<svg width="155" height="191" fill="none" xmlns="http://www.w3.org/2000/svg"><path d="M62.704 155.471c22.526 0 40.787-18.261 40.787-40.787s-18.26-40.787-40.787-40.787c-22.526 0-40.787 18.26-40.787 40.787 0 22.526 18.261 40.787 40.787 40.787z" fill="#23A873"/><path d="M53.276 110.688L7.12 105.437a6.183 6.183 0 01-5.442-6.844L12.086 6.956a6.181 6.181 0 016.838-5.446L65.08 6.76a6.183 6.183 0 015.442 6.844l-10.408 91.638a6.181 6.181 0 01-6.838 5.446z" fill="#fff"/><path d="M53.989 112.198a7.92 7.92 0 01-.88-.05l-46.156-5.251a7.6 7.6 0 01-5.12-2.839 7.606 7.606 0 01-1.615-5.63L10.626 6.79a7.608 7.608 0 012.836-5.125A7.593 7.593 0 0119.09.05L65.245 5.3a7.6 7.6 0 015.12 2.84 7.607 7.607 0 011.615 5.63l-10.408 91.637a7.611 7.611 0 01-2.836 5.125 7.595 7.595 0 01-4.747 1.666zM18.216 2.94a4.67 4.67 0 00-2.925 1.026 4.69 4.69 0 00-1.747 3.156L3.136 98.759a4.688 4.688 0 00.995 3.469 4.682 4.682 0 003.154 1.749l46.156 5.251a4.679 4.679 0 003.466-.996 4.69 4.69 0 001.748-3.156l10.407-91.637a4.687 4.687 0 00-.995-3.469 4.684 4.684 0 00-3.153-1.75L18.758 2.97a5.271 5.271 0 00-.542-.03z" fill="#2A2929"/><path d="M59.489 41.868a4 4 0 01-4.427 3.523L20.02 41.405a4 4 0 01-3.523-4.426l1.58-13.905a4 4 0 014.426-3.523l35.043 3.987a4 4 0 013.522 4.426l-1.58 13.904zM17.58 36.116a4 4 0 003.523 4.426L54.2 44.307a4 4 0 004.427-3.523l1.358-11.957a4 4 0 00-3.523-4.426l-33.098-3.765a4 4 0 00-4.426 3.523L17.58 36.116z" fill="#23A873"/><path d="M21.838 34.029a.255.255 0 01-.177-.098.255.255 0 01-.056-.194l.811-7.127c.01-.08.042-.139.098-.177a.255.255 0 01.194-.055l1.017.116c.08.009.139.041.177.097.046.05.064.115.055.195l-.692 6.087 3.464.395c.08.009.143.042.188.099a.268.268 0 01.054.205l-.087.765a.268.268 0 01-.099.188.294.294 0 01-.204.043l-4.743-.54zm9.456 1.186c-.991-.113-1.735-.452-2.232-1.018-.496-.565-.703-1.345-.62-2.34.018-.212.05-.522.096-.93.047-.415.086-.728.117-.939.14-.965.523-1.674 1.15-2.127.628-.453 1.422-.625 2.384-.515.962.11 1.697.455 2.207 1.037.517.583.734 1.36.653 2.333a29.47 29.47 0 01-.085.942 30.24 30.24 0 01-.127.927c-.15.987-.53 1.7-1.14 2.14-.611.44-1.413.603-2.403.49zm.143-1.257c.488.056.894-.045 1.219-.304.325-.265.533-.7.624-1.302.064-.435.105-.73.123-.882.019-.168.045-.464.078-.888.047-.607-.058-1.073-.317-1.398-.257-.332-.63-.526-1.118-.581-.481-.055-.884.05-1.21.316-.324.258-.532.689-.622 1.291-.032.21-.07.505-.112.884-.043.372-.072.667-.09.887-.047.607.055 1.076.305 1.407.258.325.631.515 1.12.57zm8.035 2.188c-.998-.114-1.748-.461-2.25-1.042-.495-.58-.708-1.336-.64-2.265.017-.212.052-.551.105-1.018a33.8 33.8 0 01.127-1.015c.14-.9.518-1.572 1.137-2.018.627-.453 1.433-.623 2.417-.512.67.077 1.233.255 1.688.536.455.28.787.606.996.977.21.363.303.71.28 1.039l-.002.022a.21.21 0 01-.083.145.249.249 0 01-.17.036l-1.126-.128a.327.327 0 01-.16-.051.373.373 0 01-.083-.153 1.533 1.533 0 00-.457-.75c-.232-.226-.575-.364-1.026-.416-.51-.058-.927.035-1.25.279-.316.244-.517.653-.605 1.226a30.9 30.9 0 00-.12.961c-.048.423-.08.744-.098.963-.088 1.163.407 1.807 1.485 1.93.517.058.949-.033 1.293-.274.346-.249.55-.65.613-1.204l.039-.339-1.334-.151a.268.268 0 01-.188-.1.293.293 0 01-.043-.203l.066-.58a.294.294 0 01.088-.189.268.268 0 01.206-.054l2.612.297c.08.01.139.042.177.098a.268.268 0 01.054.205l-.13 1.148c-.07.605-.264 1.118-.585 1.539a2.621 2.621 0 01-1.254.898c-.523.184-1.116.238-1.779.163zm5.501.514a.255.255 0 01-.177-.097.255.255 0 01-.055-.194l.81-7.126c.01-.08.042-.14.098-.177a.255.255 0 01.195-.056l1.027.117c.08.01.14.042.177.098.046.05.065.114.056.194l-.811 7.126a.255.255 0 01-.098.177.233.233 0 01-.194.056l-1.028-.117zm3.813.435a.255.255 0 01-.177-.098.255.255 0 01-.056-.194l.81-7.115a.293.293 0 01.088-.19.268.268 0 01.205-.054l.842.096c.087.01.15.035.19.077a.49.49 0 01.107.134l2.59 5.254.547-4.798a.293.293 0 01.087-.189.268.268 0 01.206-.054l.918.104c.08.01.143.042.188.1a.268.268 0 01.054.205l-.808 7.104a.268.268 0 01-.099.188.255.255 0 01-.195.055l-.852-.097c-.124-.014-.223-.084-.297-.21l-2.592-5.145-.535 4.7a.268.268 0 01-.099.188.294.294 0 01-.204.043l-.918-.104z" fill="#23A873"/><path d="M55.585 88.911c-1.075.077-2.002.058-2.805-.056-5.333-.741-5.266-5.509-7.012-12.732-.864-3.575-.474-5.623.253-6.795.967-1.554 2.52-1.571 2.52-1.571s15.242 20.568 7.044 21.154z" fill="#2A2929"/><path d="M132.939 146.543L91.65 163.921c-.07-.158-.142-.316-.21-.475-.141-.316-.277-.632-.414-.945-1.67-3.815-3.195-7.601-4.094-10.567l-.146-.497c-2.654-9.22-13.563-13.809-13.563-13.809s-19.517-14.202-22.52-18.191c-3.005-3.986-12.405-12.609-13.32-17.848-.683-3.927-2.48-12.201-3.338-16.096l-.469-2.114s10.063-2.917 13.457 7.682c3.363 10.525 10.934 16.866 11.053 16.965l.001.001s-1.655-10.224-3.58-19.069l-.001-.001c-1.084-4.97-2.254-9.501-3.265-11.538-.84-1.689-2.352-5.165-4.066-9.233-4.017-9.548-9.138-22.342-9.238-22.828-.107-.508-2.17-4.813-1.838-8.029.12-1.183.565-2.22 1.55-2.864 3.658-2.395 6.886 1.365 7.703 3.097.805 1.72 15.04 27.134 15.242 27.49v.002l.002.001 2.159-.539 4.455-1.118s5.306-1.022 9.751 5.562c4.455 6.578 4.402 8.492 14.033 7.835.347-.028.686-.042 1.023-.06a34.74 34.74 0 012.381-.018c.083.003.169.004.253.008.127.001.25.01.378.015a28.04 28.04 0 011.047.067l.425.04c.121.012.24.026.359.039.118.012.237.026.353.042a23.01 23.01 0 012.041.344c.655.14 1.286.308 1.887.503a13.972 13.972 0 011.166.417c.082.032.165.066.245.099.029.012.058.026.086.036.076.033.151.067.225.101a13.004 13.004 0 011.782.952c.003 0 .003 0 .005.002.095.06.185.122.279.183.092.062.183.127.273.19.091.066.182.13.269.198a9.848 9.848 0 01.95.813c.045.038.089.08.133.123.007.008.014.014.018.02.068.063.13.13.191.194l.166.175c.359.396.685.818.974 1.265.047.073.092.148.139.222.047.075.091.15.135.228.045.075.085.153.126.23.045.078.086.154.122.233l.117.24.108.241.105.249c.098.237.182.481.26.73.058.184.108.37.158.56 1.581 6.279 9.222 39.792 9.222 39.792l8.804 12.885 2.412 3.525 2.433 3.555.862 1.264.033.046z" fill="#F4F7FA"/><path d="M66.388 76.782c-.03.007-6.604-11.903-6.604-11.903l4.255-.833c1.73 4.706 2.328 12.633 2.35 12.736z" fill="#2C2E30"/><path d="M129.616 141.681l-6.747 4.333-13.344-15.416s-1.023-22.17-3.185-37.06c-1.21-8.338-8.305-13.695-14.32-16.802 9.097-.379 15.632 2.691 17.157 8.74 1.584 6.279 9.222 39.795 9.222 39.795l11.217 16.41zm-71.527-33.655c-6.937-1.275-10.255-10.378-13.79-16.413-2.67-4.557-7.866-5.792-10.251-6.123l-.469-2.114s10.063-2.917 13.457 7.682c3.361 10.526 10.932 16.868 11.053 16.968zm2.507-42.974l-.002.002C50.62 54.552 45.2 38.148 41.404 36.275c-2.234-1.103-4.128-.023-5.305 1.054.12-1.183.565-2.22 1.55-2.864 3.657-2.395 6.886 1.365 7.703 3.097.806 1.718 15.04 27.132 15.244 27.49z" fill="#fff"/><path d="M91.652 164.546a.624.624 0 01-.571-.372l-.09-.2-.123-.278-.285-.651-.129-.292c-1.93-4.413-3.317-7.991-4.119-10.636l-.146-.503c-2.543-8.832-13.1-13.364-13.206-13.409a.68.68 0 01-.125-.071c-.8-.581-19.628-14.303-22.652-18.319-.845-1.12-2.204-2.615-3.779-4.344-3.997-4.391-8.973-9.857-9.656-13.771-.897-5.165-3.77-18.052-3.799-18.182a.625.625 0 01.436-.736c.11-.031 2.698-.764 5.753-.145 2.846.576 6.626 2.474 8.47 8.237 2.453 7.68 7.23 13.133 9.541 15.445-.562-3.327-1.844-10.66-3.261-17.178a.43.43 0 01-.013-.049c-1.268-5.818-2.349-9.65-3.213-11.392-.767-1.543-2.141-4.662-4.081-9.267-3.67-8.724-9.144-22.317-9.274-22.944-.015-.063-.125-.34-.22-.585-.922-2.359-3.368-8.624.203-10.958 1.304-.853 2.673-1.088 4.067-.694 2.228.629 3.937 2.764 4.541 4.046.74 1.58 13.132 23.724 14.99 27.038l1.699-.423 4.453-1.118.034-.008c.233-.045 5.764-1.02 10.388 5.825.512.756.972 1.463 1.378 2.085 3.175 4.875 3.931 6.032 12.094 5.476.258-.022.517-.035.769-.047l.264-.014a35.68 35.68 0 012.132-.027l.555.016c.084.001.173.006.262.01l.122.007c.232.01.475.023.762.045l.74.063.388.042.35.04.351.048a25.226 25.226 0 011.737.306 20.385 20.385 0 012.56.724c.217.076.413.151.592.226.086.033.174.068.256.104l.018.007.042.02.04.015.225.101a13.623 13.623 0 011.85.987l.014.008c.081.05.158.101.236.154l.059.041a14.665 14.665 0 01.795.581c.267.213.531.443.776.68.05.044.099.091.149.141.008.01.019.02.031.033.053.05.103.103.153.155l.035.036.176.187a10.226 10.226 0 011.172 1.562l.01.017c.052.083.099.164.147.249.042.072.088.154.131.237.057.1.102.186.141.27l.113.232.007.016.108.24c.042.096.077.183.113.27.096.237.189.492.278.78.057.185.112.378.167.592.511 2.029 1.701 7.081 3.536 15.019a.624.624 0 11-1.215.281c-1.834-7.93-3.023-12.973-3.53-14.992a12.203 12.203 0 00-.149-.53 7.818 7.818 0 00-.242-.675c-.033-.082-.064-.16-.098-.237l-.216-.46a2.866 2.866 0 00-.103-.196c-.003-.005-.004-.01-.008-.014a5.777 5.777 0 00-.114-.208 5.27 5.27 0 00-.126-.214l-.011-.017-.123-.197a9.207 9.207 0 00-.913-1.184c-.05-.055-.101-.108-.154-.164l-.038-.039a2.496 2.496 0 00-.126-.128.406.406 0 01-.05-.052l-.089-.084-.021-.019a9.18 9.18 0 00-1.143-.944c-.092-.066-.177-.127-.264-.184l-.063-.043a5.406 5.406 0 00-.215-.139 4.349 4.349 0 00-.277-.169 12.364 12.364 0 00-1.419-.735l-.214-.095c-.032-.012-.064-.026-.096-.04-.07-.03-.142-.06-.214-.086l-.022-.01a14.255 14.255 0 00-1.11-.4 18.95 18.95 0 00-2.48-.616c-.305-.056-.633-.11-1-.16l-.346-.046a11.069 11.069 0 00-.323-.038l-.789-.078-.295-.022a18.45 18.45 0 00-.72-.042l-.13-.006c-.078-.003-.156-.008-.234-.01l-.551-.015a33.95 33.95 0 00-2.045.025l-.26.012c-.243.013-.493.025-.738.046-8.904.606-9.994-1.068-13.234-6.04-.403-.62-.86-1.32-1.366-2.069-4.066-6.02-8.748-5.361-9.105-5.3l-6.595 1.65a.622.622 0 01-.694-.297c-.134-.236-14.43-25.755-15.265-27.535-.488-1.033-1.937-2.864-3.75-3.377-1.033-.292-2.058-.11-3.047.538-2.72 1.78-.465 7.56.277 9.459.172.438.245.628.276.77.206.71 5.04 12.825 9.205 22.728 1.93 4.582 3.293 7.675 4.049 9.196.908 1.829 2.02 5.743 3.305 11.636.005.016.01.033.013.049 1.907 8.758 3.569 19 3.586 19.102a.62.62 0 01-.306.641.622.622 0 01-.708-.061c-.318-.264-7.844-6.597-11.248-17.258-1.334-4.164-3.867-6.653-7.53-7.395-1.956-.396-3.72-.174-4.588-.006.583 2.629 2.887 13.088 3.676 17.632.621 3.558 5.665 9.1 9.35 13.147 1.595 1.752 2.974 3.267 3.853 4.433 2.835 3.766 21.175 17.173 22.334 18.02.456.199 2.996 1.349 5.85 3.496 4.111 3.092 6.877 6.787 8.002 10.689l.145.497c.786 2.589 2.154 6.121 4.066 10.489l.128.294.247.564 40.021-16.845-14.11-20.642a.614.614 0 01-.094-.214s-1.023-4.485-2.396-10.481a.626.626 0 01.469-.749.626.626 0 01.748.469c1.246 5.435 2.202 9.629 2.371 10.367l8.736 12.787 5.744 8.401a.623.623 0 01-.281.916l-41.288 17.378a.7.7 0 01-.239.045zm14.405-83.291l.028.039-.028-.04z" fill="#2A2929"/><path d="M154.523 166.47l-.931.366-7.513 2.954-52.698 20.717-7.265-28.204-.534-2.078 3.172-1.485 5.72-2.676 6.566-3.075 5.718-2.676 6.567-3.072 5.72-2.677 6.565-3.074 7.329-3.429 3.648 4.8 3.267 4.301 2.846 3.747 3.268 4.298 2.846 3.747 3.268 4.301 2.441 3.215z" fill="#23A873"/><path d="M112.778 176L109 177.54l3.827 9.402 3.778-1.54-3.827-9.402zm27.077-28.838l-20.809-2.598 6.565-3.073 10.976 1.371 3.268 4.3zm6.114 8.046l-39.21-4.895 6.566-3.071 29.376 3.667 3.268 4.299zm6.114 8.047l-57.607-7.191 6.565-3.075 47.774 5.965 3.268 4.301zm1.509 3.581l-7.513 2.954-59.963-7.487-.534-2.078 3.172-1.485 64.838 8.096z" fill="#2A2929"/></svg>