<svg width="124" height="180" fill="none" xmlns="http://www.w3.org/2000/svg"><path d="M82.787 138.574c22.526 0 40.787-18.261 40.787-40.787S105.313 57 82.787 57 42 75.261 42 97.787s18.261 40.787 40.787 40.787z" fill="#23A873"/><path d="M99.28 95.007l1.839 14.639s-.147 2.943-2.573 2.428c-2.427-.514-8.16-4.193-7.793-6.401.368-2.207-2.794-16.036-2.794-16.036l11.01-1.619.312 6.989z" fill="#2A2929"/><path d="M83.291 33.235L98.398 22.2s4.19-1.765 4.741 4.524c.55 6.29-4.08 14.454-15.658 21.738l-4.19-15.227z" fill="#F4F7FA"/><path d="M87.482 49.123a.664.664 0 01-.638-.487l-4.19-15.228a.666.666 0 01.247-.71l15.106-11.036a.665.665 0 01.134-.075c.072-.03 1.788-.736 3.368.217 1.305.787 2.075 2.422 2.288 4.859.301 3.433-.872 7.212-3.393 10.926-2.766 4.076-6.996 7.922-12.573 11.43a.615.615 0 01-.35.104zM84.052 33.5l3.83 13.922c9.738-6.332 15.181-14.005 14.599-20.64-.171-1.963-.743-3.29-1.653-3.84-.866-.521-1.861-.238-2.112-.153L84.051 33.498z" fill="#2A2929"/><path d="M90.79 48.462l18.414 6.62s4.301 2.318-2.206 6.841c-6.505 4.524-20.398.883-21.28 0-.882-.882 5.072-13.461 5.072-13.461z" fill="#F4F7FA"/><path d="M97.866 64.809c-1.299 0-2.552-.081-3.684-.198-4.218-.438-8.265-1.551-8.931-2.218-.385-.384-.457-1 .26-3.154.39-1.17.996-2.728 1.803-4.635a197.324 197.324 0 012.879-6.426.66.66 0 01.82-.34l18.414 6.62a.934.934 0 01.091.04c.067.036 1.638.902 1.737 2.646.096 1.676-1.21 3.466-3.879 5.322-2.606 1.815-6.201 2.343-9.51 2.343zm-11.58-3.298c.773.409 4.1 1.394 8.22 1.801 3.731.368 8.861.332 12.115-1.931 2.823-1.962 3.358-3.344 3.312-4.16-.051-.892-.839-1.43-1.01-1.535l-17.79-6.398c-2.454 5.231-4.82 10.966-4.847 12.223zm.008.124h.002-.002z" fill="#2A2929"/><path d="M84.706 66.364c.358.175 10.664-1.778 15.057 9.32 4.393 11.097 10.305 23.547 5.293 24.338-5.011.79-13.214-7.12-17.136-18.838-3.921-11.718-3.214-14.82-3.214-14.82z" fill="#F4F7FA"/><path d="M104.35 100.736c-2.572 0-5.709-1.775-8.752-4.989-3.493-3.687-6.442-8.784-8.306-14.354-3.935-11.759-3.264-15.042-3.233-15.175a.666.666 0 01.772-.504c.067 0 .209-.006.336-.013 1.063-.05 3.885-.181 6.902.984 3.793 1.466 6.589 4.41 8.308 8.753.594 1.5 1.225 3.047 1.835 4.545 3.567 8.75 6.648 16.307 4.929 19.359-.419.742-1.085 1.191-1.982 1.331a5 5 0 01-.809.063zM85.32 67.021c-.011 1.285.287 5.164 3.226 13.952 3.816 11.406 11.81 19.118 16.406 18.394.491-.078.819-.292 1.035-.675 1.406-2.494-1.998-10.842-5.001-18.208-.612-1.5-1.245-3.052-1.84-4.556-2.453-6.197-7.103-9.192-13.826-8.907z" fill="#2A2929"/><path d="M87.96 106.751s-2.007 15.888-10.772 23.007c-8.765 7.118-13.893 7.448-17.035 22.51l-18.69-3.14-4.961-49.494 51.459 7.117z" fill="#F4F7FA"/><path d="M60.152 152.929a.602.602 0 01-.11-.01l-18.69-3.139a.66.66 0 01-.55-.587l-4.96-49.495a.662.662 0 01.748-.722l51.46 7.117a.66.66 0 01.565.739c-.022.165-.53 4.091-2.129 8.957-1.485 4.521-4.233 10.702-8.885 14.48-1.821 1.48-3.511 2.684-5.001 3.748-5.837 4.164-9.36 6.678-11.802 18.383a.66.66 0 01-.646.529zm-18.082-4.37l17.568 2.95c2.55-11.685 6.407-14.438 12.197-18.568 1.475-1.052 3.147-2.245 4.937-3.698 7.472-6.068 9.947-18.903 10.436-21.928l-49.963-6.911 4.825 48.155z" fill="#2A2929"/><path d="M84.678 115.613H38.816c-4.727 0-8.56-3.836-8.56-8.567V10.124c0-4.731 3.833-8.567 8.56-8.567h45.862c4.728 0 8.56 3.836 8.56 8.567v96.922c0 4.731-3.832 8.567-8.56 8.567z" fill="#fff"/><rect x="29" y="88" width="58" height="16" rx="2" fill="#23A873"/><path d="M46.73 98.07c-.415 0-.772-.063-1.07-.189-.3-.126-.526-.292-.68-.497a1.165 1.165 0 01-.245-.665.142.142 0 01.147-.147h.623c.056 0 .098.012.126.035a.268.268 0 01.091.098.713.713 0 00.322.399c.168.107.397.161.686.161.332 0 .581-.054.75-.161a.527.527 0 00.251-.462.424.424 0 00-.133-.322 1.02 1.02 0 00-.385-.217 9.717 9.717 0 00-.756-.224c-.55-.13-.954-.303-1.21-.518-.253-.22-.379-.53-.379-.931 0-.27.073-.511.217-.721.15-.21.362-.376.637-.497a2.43 2.43 0 01.973-.182c.383 0 .714.068.994.203s.493.306.637.511c.15.2.229.401.238.602a.142.142 0 01-.147.147h-.65a.203.203 0 01-.204-.133c-.028-.15-.121-.273-.28-.371a1.061 1.061 0 00-.588-.154c-.261 0-.466.049-.616.147a.48.48 0 00-.224.427c0 .13.038.238.112.322a.943.943 0 00.35.224c.164.065.397.138.7.217.411.093.738.198.98.315.248.117.43.264.546.441.117.177.175.404.175.679 0 .299-.084.56-.252.784a1.53 1.53 0 01-.7.504 2.834 2.834 0 01-1.036.175zm5.094 0c-.63 0-1.12-.161-1.47-.483-.35-.322-.525-.81-.525-1.463v-2.849c0-.051.014-.093.042-.126a.17.17 0 01.126-.049h.637c.05 0 .09.016.119.049a.17.17 0 01.049.126v2.849c0 .373.088.656.266.847.177.187.429.28.756.28.326 0 .576-.093.749-.28.177-.191.266-.474.266-.847v-2.849a.17.17 0 01.049-.126.17.17 0 01.126-.049h.63c.05 0 .09.016.119.049a.17.17 0 01.049.126v2.849c0 .653-.175 1.141-.525 1.463-.346.322-.833.483-1.463.483zm3.555-.07a.162.162 0 01-.12-.049.162.162 0 01-.048-.119v-4.557c0-.051.014-.093.042-.126a.17.17 0 01.126-.049h2.03c.546 0 .952.121 1.218.364.27.238.406.565.406.98 0 .243-.06.45-.182.623a1.05 1.05 0 01-.413.364c.196.089.36.233.49.434.135.2.203.43.203.686 0 .434-.147.784-.441 1.05-.29.266-.698.399-1.225.399h-2.086zm1.904-2.891c.242 0 .427-.058.553-.175a.608.608 0 00.189-.469c0-.2-.063-.355-.19-.462-.125-.112-.31-.168-.552-.168h-1.1v1.274h1.1zm.07 2.149c.242 0 .431-.065.567-.196a.693.693 0 00.203-.511.68.68 0 00-.203-.511c-.136-.135-.325-.203-.567-.203h-1.17v1.421h1.17zm3.182.742a.187.187 0 01-.126-.042.17.17 0 01-.05-.126v-4.557a.17.17 0 01.05-.126.17.17 0 01.126-.049h.553c.098 0 .168.044.21.133l1.35 2.52 1.366-2.52c.046-.089.116-.133.21-.133h.546a.17.17 0 01.126.049.17.17 0 01.049.126v4.557a.17.17 0 01-.05.126.187.187 0 01-.125.042h-.588a.162.162 0 01-.12-.049.162.162 0 01-.048-.119v-3.031l-.98 1.869c-.061.103-.14.154-.238.154h-.287c-.098 0-.178-.051-.238-.154l-.98-1.869v3.031a.162.162 0 01-.05.119.148.148 0 01-.118.049h-.588zm6.017 0a.162.162 0 01-.12-.049.162.162 0 01-.049-.119v-4.564c0-.051.017-.091.05-.119a.162.162 0 01.118-.049h.659c.05 0 .09.016.119.049a.148.148 0 01.049.119v4.564a.162.162 0 01-.05.119.148.148 0 01-.118.049h-.658zm3.519 0a.162.162 0 01-.119-.049.162.162 0 01-.049-.119v-3.871h-1.295a.162.162 0 01-.119-.049.162.162 0 01-.049-.119v-.518c0-.051.014-.093.042-.126a.17.17 0 01.126-.049h3.57c.052 0 .094.016.126.049a.17.17 0 01.05.126v.518a.162.162 0 01-.05.119.17.17 0 01-.126.049H70.89v3.871a.162.162 0 01-.049.119.17.17 0 01-.126.049h-.644z" fill="#fff"/><path fill="#F4F7FA" d="M36 25h51v16H36z"/><path stroke="#000" d="M40 36.5h14"/><path fill="#23A873" d="M72 25h15v16H72z"/><path d="M77 32.846L79.1 35l3.9-4" stroke="#fff"/><path stroke="#000" d="M40 30.5h25m-25 3h21"/><path fill="#F4F7FA" d="M36 45h51v16H36z"/><path fill="#23A873" d="M72 45h15v16H72z"/><path d="M77 52.846L79.1 55l3.9-4" stroke="#fff"/><path stroke="#000" d="M40 50.5h25m-25 3h21"/><path fill="#F4F7FA" d="M36 66h51v15H36z"/><path stroke="#23A873" d="M72.5 66.5h14v14h-14z"/><path stroke="#000" d="M40 71.5h25m-25 3h21"/><path d="M84.679 117.172H38.817c-5.579 0-10.117-4.542-10.117-10.124V10.124C28.7 4.542 33.238 0 38.817 0h45.862c5.578 0 10.117 4.542 10.117 10.124v96.922c0 5.583-4.539 10.126-10.117 10.126zM38.817 3.116c-3.86 0-7.003 3.145-7.003 7.008v96.922c0 3.864 3.142 7.008 7.003 7.008h45.862c3.86 0 7.003-3.144 7.003-7.008V10.124c0-3.863-3.142-7.008-7.003-7.008H38.817z" fill="#2A2929"/><path d="M46.26 150.115s-5.765-1.041-12.18-2.821c-9.143-2.537-19.61-6.577-16.598-11.246 5.127-7.945 3.805-24.165.828-31.448-2.976-7.284-4.261-20.937-1.947-26.345 2.316-5.407 6.726-34.648 7.057-39.282.331-4.634 7.608-2.318 7.608-2.318 1.243.995 2.237 2.075 3.025 3.233 5.184 7.612 1.426 18.495.135 29.127-1.485 12.248 12.733 26.646 17.695 41.212 4.963 14.565-5.623 39.888-5.623 39.888z" fill="#F4F7FA"/><path d="M34.08 147.294c-9.143-2.537-19.61-6.577-16.598-11.246 5.127-7.945 3.805-24.165.828-31.448-2.976-7.284-4.261-20.937-1.947-26.345 2.316-5.407 6.726-34.648 7.057-39.282.331-4.634 7.608-2.318 7.608-2.318 1.243.995 2.237 2.075 3.025 3.233-3.045.169-6.258 1.439-6.56 5.956-.585 8.771-4.554 32.108-6.539 36.908-1.985 4.801 5.79 25.32 9.345 31.279 2.857 4.786 6.446 22.446 3.78 33.263z" fill="#fff"/><path d="M32.812 147.596a.664.664 0 01-.185-.027c-9.577-2.773-14.997-5.688-16.108-8.662-.406-1.087-.27-2.171.407-3.221 3.742-5.797 3.961-16.447 2.52-24.432a.66.66 0 111.303-.234c1.378 7.637 1.495 18.868-2.712 25.386-.444.688-.536 1.354-.28 2.037.93 2.49 6.341 5.279 15.238 7.854a.662.662 0 01-.183 1.299zm19.964-20.983a.662.662 0 01-.658-.744c.78-6.27.49-11.462-.862-15.428-1.93-5.663-5.309-11.358-8.576-16.865-5.182-8.735-10.077-16.987-9.149-24.64.292-2.403.712-4.838 1.118-7.193 1.657-9.6 3.221-18.67-3.938-24.491-1.2-.358-4.253-.964-5.739.044-.545.37-.837.934-.893 1.724-.346 4.844-4.79 34.083-7.108 39.498-1.553 3.627-1.515 11.82.092 19.48a.66.66 0 11-1.294.272c-1.377-6.565-1.968-15.709-.013-20.274 2.278-5.322 6.661-34.266 7.004-39.07.086-1.204.582-2.121 1.472-2.725 2.382-1.617 6.808-.234 6.996-.175.078.025.15.063.213.114 3.557 2.846 5.473 6.66 5.859 11.663.34 4.4-.48 9.145-1.345 14.166-.404 2.338-.821 4.757-1.108 7.127-.874 7.206 3.908 15.27 8.972 23.805 3.302 5.565 6.716 11.321 8.69 17.115 1.416 4.157 1.727 9.546.923 16.018a.662.662 0 01-.657.579z" fill="#2A2929"/><path d="M65.32 145.898l-.143.995-4.268 29.901-43.392-7.579-7.8-1.362-7.82-1.366-1.633-.286 2.072-4.934 2.624-6.257 2.62-6.243 2.626-6.259 2.619-6.241 2.347-5.597L21 132.438l6.495 1.973 6.513 1.978 6.496 1.973 6.514 1.977 6.496 1.973 6.513 1.98 5.293 1.606z" fill="#23A873"/><path d="M27.495 134.411l-17.289 8.097 2.62-6.241L21 132.438l6.495 1.973zm13.009 3.951L4.96 155.01l2.62-6.243 26.428-12.378 6.496 1.973zm13.01 3.95L1.897 166.486l-1.633-.285 2.072-4.934 44.681-20.928 6.497 1.973zm11.806 3.586l-.143.995-47.66 22.322-7.8-1.363 50.31-23.561 5.294 1.607zm-19.999 22.786l-3.778 1.54 3.827 9.402 3.778-1.54-3.827-9.402z" fill="#2A2929"/></svg>