<svg width="173" height="200" fill="none" xmlns="http://www.w3.org/2000/svg"><path d="M172.365 101.24l-68.654-7.87-6.471 49.831 68.654 7.869 6.471-49.83z" fill="#23A873"/><path d="M76.832 101.774s-10.302.346-10.353 3.803c-.05 3.456 3.266 4.211 6.19 4.729 2.923.517 19.069 3.35 23.248 7.255 4.179 3.905-.615-13.489-.96-13.461-.346.026-18.125-2.326-18.125-2.326z" fill="#F4F7FA"/><path d="M96.927 118.789c-.453 0-.955-.257-1.5-.766-2.542-2.372-10.86-4.948-22.822-7.064l-.066-.012c-2.548-.45-6.814-1.206-6.755-5.378.057-3.963 9.901-4.408 11.023-4.446a.613.613 0 01.122.007c6.866.909 17.268 2.267 18.02 2.317.56-.016.736.487.908.973.412 1.165 1.298 4.321 1.894 7.396 1.025 5.289.46 6.411-.23 6.811a1.188 1.188 0 01-.594.162zm.018-1.307h.001-.001zm-20.148-15.055c-3.169.116-9.592 1.03-9.624 3.156-.041 2.845 2.523 3.53 5.623 4.08l.066.012c7.186 1.271 19.803 3.926 23.544 7.421.183.172.316.266.403.319.13-.389.346-1.81-.651-6.471-.613-2.865-1.362-5.416-1.662-6.24-1.14-.121-4.899-.583-17.7-2.277zm18.034 2.313a.76.76 0 00.18.008c-.02.001-.053.003-.18-.008zm.1-1.294l-.034.001.034-.001zM75.523 82.533s-12.637-4.547-14.112 2.1c-1.475 6.647 9.186 6.087 18.225 9.294 9.04 3.206 11.58 3.665 11.58 3.665L88.33 86.138l-12.807-3.605z" fill="#2A2929"/><path d="M87.523 94.744L69.15 93.127s-7.534-.8-7.567 4.574c-.033 5.375 7.483 5.119 8.456 5.018.973-.101 15.157.07 23.598 4.578l-2.75-9.24-3.363-3.313z" fill="#F4F7FA"/><path d="M93.637 107.949a.721.721 0 01-.342-.084c-8.232-4.397-22.133-4.606-23.18-4.498-.046.005-4.844.434-7.517-1.829-1.143-.968-1.718-2.26-1.71-3.842.011-1.524.562-2.754 1.642-3.655 2.394-1.996 6.525-1.583 6.698-1.565l18.36 1.615a.708.708 0 01.439.2l3.362 3.314a.65.65 0 01.167.274l2.75 9.24a.63.63 0 01-.242.69.716.716 0 01-.427.14zm-22.92-5.899c3.076 0 14.157.531 21.819 3.974l-2.272-7.633-3.064-3.019-18.116-1.594c-.05-.005-3.71-.366-5.637 1.245-.78.653-1.163 1.53-1.17 2.685-.007 1.209.4 2.146 1.248 2.864 2.188 1.85 6.395 1.506 6.436 1.501a7.65 7.65 0 01.756-.023z" fill="#2A2929"/><path d="M148.78 157.295s-6.181-19.557-6.033-27.087c.147-7.529 4.497-31.405-.275-37.434-4.77-6.028-31.939-20.08-48.3-24.74-16.361-4.663 2.243 33.419 2.243 33.419l26.992 65.778 25.373-9.936z" fill="#fff"/><path d="M123.015 168.09l-27.24-66.386c-.197-.403-3.38-6.997-5.889-14.19-3.523-10.105-4.075-16.558-1.641-19.179 1.302-1.401 3.364-1.715 6.128-.926 7.669 2.185 18.371 6.636 28.628 11.91 10.226 5.255 17.713 10.14 20.027 13.066 3.71 4.688 2.214 19.01 1.123 29.469-.363 3.469-.675 6.467-.712 8.368-.144 7.343 5.943 26.694 6.005 26.889l.177.563-26.606 10.416zm-31.34-99.805c-1.033 0-1.822.302-2.385.907-4.231 4.556 4.162 24.634 7.754 31.987l.018.038 26.735 65.153 24.139-9.452c-1.03-3.322-6.02-19.806-5.885-26.721.038-1.953.355-4.974.719-8.471 1.01-9.667 2.535-24.278-.856-28.561-4.763-6.02-32.097-19.991-47.944-24.507-.869-.25-1.631-.373-2.295-.373z" fill="#2A2929"/><path d="M139.064 131.8l-.009.156-1.914 31.176-17.462 6.838-26.992-65.779s-18.606-38.082-2.243-33.42c16.361 4.663 43.531 18.714 48.299 24.743 4.549 5.75.806 27.73.321 36.286z" fill="#F4F7FA"/><path d="M108.055 73.061c-2.046 3.558-5.456 13.793-5.242 14.017l-5.852-4.92 4.719-11.63 6.375 2.533z" fill="#2A2929"/><path d="M111.45 98.165s-9.608-13.23-10.727-18.05l-3.055 3.5 13.782 14.55z" fill="#2A2929"/><path d="M9.118 61.443l20.067-46.336 88.013 34.002L96.522 95.07 9.118 61.444z" fill="#fff" stroke="#23A873" stroke-width="2"/><path d="M15.71 58.208l16.11-37.727 79.064 31.136-16.6 37.423L15.71 58.208z" fill="#fff" stroke="#23A873" stroke-width=".5"/><path d="M76.917 60.236c-3.203 7.681-12.443 11.485-20.65 8.469-8.207-3.017-12.239-11.699-9.035-19.38 3.203-7.68 12.442-11.485 20.65-8.468 8.207 3.016 12.238 11.698 9.035 19.38zm15.129 6.079c-.616 1.477-2.4 2.22-3.998 1.633-1.598-.587-2.37-2.27-1.754-3.746.616-1.477 2.4-2.22 3.998-1.633 1.597.587 2.37 2.27 1.754 3.746zM39.391 46.963c-.616 1.476-2.4 2.22-3.997 1.633-1.598-.588-2.37-2.27-1.754-3.747.615-1.477 2.4-2.22 3.997-1.633 1.598.587 2.37 2.27 1.754 3.747z" stroke="#23A873"/><path d="M58.877 59.825a.386.386 0 01-.22-.185.268.268 0 01-.013-.26l.38-.909c-.701-.327-1.265-.704-1.691-1.13-.413-.431-.683-.87-.811-1.316a2.156 2.156 0 01.048-1.285.28.28 0 01.172-.161.435.435 0 01.274.01l1.345.495c.111.04.188.094.23.16a.54.54 0 01.12.253c-.011.335.118.667.388.996.28.332.737.615 1.372.849.705.259 1.28.356 1.726.29.45-.075.75-.293.902-.657a.785.785 0 00-.023-.697c-.117-.222-.338-.459-.664-.708-.322-.258-.813-.599-1.474-1.021-1.088-.68-1.826-1.32-2.215-1.922-.374-.607-.406-1.282-.096-2.026.282-.675.8-1.139 1.556-1.39.77-.256 1.67-.255 2.7.005l.374-.896a.294.294 0 01.198-.182.418.418 0 01.295.004l.922.338c.1.038.174.1.219.186.045.086.05.173.014.26l-.385.921c.623.319 1.112.693 1.467 1.123.369.425.604.85.705 1.277.111.43.11.81-.003 1.137a.28.28 0 01-.172.161.368.368 0 01-.26-.005l-1.405-.517c-.222-.081-.339-.22-.35-.413.064-.296-.037-.597-.303-.905-.264-.316-.652-.569-1.166-.758-.555-.204-1.03-.274-1.429-.21-.398.063-.67.267-.814.613a.832.832 0 00-.007.687c.096.215.29.446.582.693.302.25.75.57 1.344.958.815.499 1.439.953 1.873 1.362.444.413.723.83.838 1.251.114.421.065.887-.148 1.398-.31.744-.877 1.24-1.7 1.486-.82.238-1.789.206-2.907-.095l-.373.896a.32.32 0 01-.198.181.418.418 0 01-.295-.003l-.922-.34z" fill="#2A2929"/><path d="M8.67 56.472L33.492 12.17l84.004 41.85-25.391 43.875L8.669 56.472z" fill="#fff" stroke="#23A873" stroke-width="2"/><path d="M15.604 53.853l19.956-36.07 75.448 38.235L90.594 91.74l-74.99-37.887z" fill="#fff" stroke="#23A873" stroke-width=".5"/><path d="M76.306 61.481c-3.986 7.35-13.577 10.29-21.432 6.535C47.017 64.26 43.91 55.25 47.895 47.9c3.986-7.349 13.576-10.29 21.432-6.534 7.856 3.755 10.964 12.765 6.978 20.114zm14.429 7.439c-.766 1.41-2.618 1.989-4.149 1.257-1.53-.732-2.122-2.478-1.357-3.89.766-1.41 2.618-1.989 4.149-1.257 1.53.732 2.122 2.478 1.357 3.89zM40.344 44.832c-.765 1.411-2.618 1.99-4.148 1.258-1.531-.732-2.123-2.478-1.357-3.89.765-1.41 2.617-1.989 4.148-1.257 1.531.732 2.123 2.478 1.357 3.89z" stroke="#23A873"/><path d="M58.395 59.419a.38.38 0 01-.199-.205.272.272 0 01.013-.26l.472-.869c-.663-.39-1.184-.816-1.565-1.28-.366-.467-.589-.928-.67-1.384a2.163 2.163 0 01.181-1.274.286.286 0 01.188-.145.433.433 0 01.272.036l1.288.615a.443.443 0 01.212.18c.05.065.08.153.094.264-.047.332.047.674.281 1.026.244.357.67.68 1.277.97.675.323 1.238.472 1.689.448.455-.033.776-.223.965-.571a.785.785 0 00.05-.696c-.093-.232-.289-.488-.587-.766-.294-.286-.748-.67-1.361-1.151-1.012-.776-1.68-1.481-2.004-2.116-.31-.638-.272-1.313.115-2.025.35-.646.914-1.06 1.693-1.24.792-.185 1.688-.101 2.687.251l.465-.857a.3.3 0 01.215-.163.417.417 0 01.294.031l.882.422a.38.38 0 01.199.204.293.293 0 01-.014.26l-.478.882c.586.374 1.034.791 1.343 1.252.323.457.513.902.569 1.336.066.438.025.815-.122 1.13a.287.287 0 01-.188.146.367.367 0 01-.257-.03l-1.345-.643c-.213-.101-.315-.25-.306-.443.095-.288.026-.598-.207-.928-.23-.34-.59-.626-1.082-.861-.53-.254-.997-.368-1.4-.341-.403.026-.694.205-.874.536a.834.834 0 00-.078.683c.073.222.242.47.507.743.275.277.688.636 1.238 1.076.759.572 1.333 1.08 1.722 1.528.399.45.633.892.704 1.322.07.43-.027.889-.292 1.377-.386.713-1.002 1.154-1.847 1.323-.84.162-1.802.041-2.883-.36l-.465.857a.327.327 0 01-.216.162.417.417 0 01-.293-.03l-.882-.422z" fill="#2A2929"/><path d="M8.649 54.717l26.43-43.476 82.424 44.535-26.982 43.03L8.649 54.717z" fill="#fff" stroke="#23A873" stroke-width="2"/><path d="M15.672 52.323l21.265-35.405 74.004 40.645-21.709 35.043-73.56-40.283z" fill="#fff" stroke="#23A873" stroke-width=".5"/><path d="M76.058 61.906c-4.252 7.216-13.945 9.845-21.659 5.839-7.714-4.006-10.49-13.112-6.237-20.328 4.252-7.216 13.945-9.845 21.659-5.839 7.714 4.006 10.49 13.112 6.237 20.328zm14.143 7.898c-.816 1.385-2.688 1.903-4.192 1.123-1.503-.781-2.03-2.546-1.214-3.931.817-1.386 2.69-1.904 4.193-1.123 1.503.78 2.03 2.545 1.213 3.93zM40.723 44.106c-.817 1.386-2.689 1.904-4.192 1.123-1.504-.78-2.03-2.545-1.214-3.93.816-1.386 2.689-1.905 4.192-1.124 1.504.78 2.03 2.545 1.214 3.93z" stroke="#23A873"/><path d="M58.233 59.266a.378.378 0 01-.19-.21c-.038-.084-.03-.17.022-.26l.503-.854c-.648-.41-1.154-.854-1.517-1.33-.348-.478-.555-.946-.619-1.404-.05-.461.026-.884.228-1.268a.288.288 0 01.193-.139.433.433 0 01.27.045l1.265.657a.436.436 0 01.205.186.531.531 0 01.084.267c-.059.33.023.675.244 1.035.23.364.644.7 1.24 1.01.664.345 1.22.512 1.672.502.456-.018.784-.198.986-.54a.786.786 0 00.075-.694c-.085-.234-.27-.496-.559-.783-.283-.296-.723-.694-1.318-1.195-.983-.808-1.625-1.534-1.925-2.179-.286-.648-.223-1.321.189-2.02.374-.635.953-1.03 1.737-1.185.798-.16 1.69-.047 2.676.338l.496-.842a.301.301 0 01.222-.156.421.421 0 01.292.04l.866.45c.095.05.159.12.191.211a.292.292 0 01-.023.26l-.51.865c.572.393 1.005.825 1.296 1.295.306.467.48.918.52 1.353.05.44-.004.816-.163 1.127a.288.288 0 01-.193.138.367.367 0 01-.256-.037l-1.321-.686c-.209-.108-.305-.26-.29-.453.106-.285.049-.597-.173-.935-.216-.346-.566-.644-1.049-.895-.52-.27-.983-.4-1.387-.386-.403.014-.701.183-.893.508a.839.839 0 00-.103.68c.065.225.225.478.48.759.264.286.664.658 1.198 1.116.737.595 1.292 1.122 1.665 1.581.382.464.6.912.655 1.344.054.432-.06.888-.343 1.368-.412.7-1.043 1.12-1.894 1.263-.846.134-1.802-.017-2.868-.454l-.496.841a.328.328 0 01-.221.156.417.417 0 01-.292-.04l-.867-.45z" fill="#2A2929"/><path d="M8.822 50.904L38.638 9.403l78.65 50.188-30.33 41.018L8.823 50.904z" fill="#fff" stroke="#23A873" stroke-width="2"/><path d="M16.021 49.01l24.022-33.816 70.565 45.72-24.436 33.422-70.15-45.326z" fill="#fff" stroke="#23A873" stroke-width=".5"/><path d="M75.475 62.798c-4.815 6.897-14.69 8.84-22.063 4.305-7.374-4.536-9.418-13.811-4.604-20.709 4.815-6.897 14.69-8.84 22.063-4.304 7.374 4.536 9.418 13.81 4.604 20.708zm13.479 8.868c-.925 1.324-2.833 1.71-4.27.826-1.438-.885-1.823-2.681-.898-4.005.924-1.325 2.832-1.71 4.27-.826 1.437.884 1.822 2.68.898 4.005zM41.658 42.571c-.924 1.324-2.832 1.71-4.27.826-1.437-.884-1.822-2.68-.897-4.005.924-1.324 2.833-1.71 4.27-.826 1.437.884 1.822 2.68.897 4.005z" stroke="#23A873"/><path d="M57.912 58.916a.372.372 0 01-.173-.223c-.031-.086-.017-.171.043-.257l.57-.816c-.614-.456-1.083-.933-1.407-1.432-.31-.502-.478-.983-.506-1.445a2.18 2.18 0 01.328-1.248.291.291 0 01.204-.125.43.43 0 01.266.064l1.208.743a.43.43 0 01.19.2c.042.07.063.161.063.272-.085.326-.032.675.16 1.05.202.378.587.743 1.158 1.094.633.39 1.175.596 1.626.617.456.014.798-.142 1.026-.468a.789.789 0 00.13-.687c-.065-.24-.23-.514-.495-.821-.258-.315-.665-.743-1.219-1.284-.916-.874-1.498-1.644-1.747-2.307-.234-.667-.117-1.334.35-2.002.423-.607 1.032-.96 1.826-1.06.81-.103 1.69.072 2.642.525l.562-.805a.305.305 0 01.233-.14.415.415 0 01.288.06l.828.51c.09.056.149.13.174.224a.293.293 0 01-.043.257l-.578.828c.54.431.936.892 1.19 1.381.267.488.404.95.41 1.386.015.443-.07.813-.252 1.112a.292.292 0 01-.204.125.365.365 0 01-.252-.055l-1.263-.777c-.199-.123-.283-.28-.252-.472.128-.277.095-.591-.099-.944-.188-.36-.513-.683-.975-.967-.498-.306-.948-.467-1.352-.481-.404-.015-.714.133-.93.444a.835.835 0 00-.158.67c.047.229.187.492.418.79.241.304.61.703 1.106 1.197.688.646 1.2 1.21 1.534 1.694.345.49.527.952.547 1.386.02.435-.13.882-.45 1.34-.467.669-1.13 1.044-1.99 1.127-.854.074-1.795-.144-2.823-.654l-.562.804a.332.332 0 01-.233.14.415.415 0 01-.288-.06l-.829-.51z" fill="#2A2929"/><path d="M133.323 163.346l-9.918 3.884-11.55-.077-2.659-.018c-3.798-3.774-12.117-39.041-14.948-51.628-2.833-12.587-12.507-26.66-13.469-28.258-.578-.964-3.142-6.433-3.688-11.141-.361-3.106.157-5.878 2.7-6.81 2.086-.764 3.98-.53 5.643.24 3.44 1.593 5.905 5.47 7.09 7.552 1.61 2.83 12.826 15.392 17.528 20.37.429.455.804.845 1.112 1.16 2.386 2.437 4.973 2.946 6.585 3.027.879.044 1.468-.039 1.575-.008l.12.527 13.879 61.18z" fill="#F4F7FA"/><path d="M110.052 97.462a3.966 3.966 0 01-.74-.253c-9.027-3.915-20.218-23.126-25.001-25.445-3.3-1.6-5.917 1.975-7.218 4.346-.361-3.106.157-5.878 2.7-6.81 2.086-.764 3.98-.53 5.643.24 3.44 1.592 5.904 5.47 7.09 7.552 1.608 2.83 12.824 15.392 17.526 20.37z" fill="#fff"/><path d="M123.408 167.882h-.005l-14.209-.094a.721.721 0 01-.5-.204c-1.331-1.322-3.158-5.958-5.589-14.172-.102-.347.115-.706.483-.803.37-.096.753.106.855.454 2.701 9.137 4.237 12.376 5.077 13.422l13.89.092c.384.003.693.297.69.658 0 .359-.311.647-.692.647zm-23.995-30.108a.69.69 0 01-.675-.501 885.898 885.898 0 01-5.164-21.629c-1.671-7.422-5.986-16.567-12.828-27.182-.268-.416-.463-.717-.567-.89-.728-1.209-5.352-10.973-3.406-16.098.517-1.361 1.449-2.298 2.77-2.781 3.028-1.108 5.997-.44 8.826 1.986 1.678 1.438 3.283 3.492 4.77 6.106 1.65 2.899 14.631 17.406 18.54 21.395a.626.626 0 01-.04.922.727.727 0 01-.982-.038c-3.531-3.603-16.929-18.476-18.742-21.663-2.543-4.468-6.665-9.397-11.868-7.492-.941.344-1.586 1-1.966 2.002-1.638 4.315 2.333 13.398 3.307 15.018.094.155.283.45.544.855 6.922 10.742 11.296 20.024 12.998 27.589a879.782 879.782 0 005.158 21.597c.088.351-.143.702-.515.785a.66.66 0 01-.16.019z" fill="#2A2929"/><path d="M45.978 134.427l-32.65 13.724 4.256 8.936 32.65-13.724-4.256-8.936zm126.604 46.816l-1.166.349-9.11 2.727-8.945 2.677-9.112 2.726-8.944 2.677-9.113 2.728L109.909 200l-1.462-6.469-.817-3.621-.802-3.554-.817-3.62-.802-3.554-.817-3.62-.802-3.554-.817-3.619-.486-2.151s49.119-15.006 49.813-13.865c.468.767 9.563 13.55 15.478 21.845 1.014 1.423 1.933 2.714 2.701 3.789 1.41 1.984 2.303 3.236 2.303 3.236z" fill="#23A873"/><path d="M170.277 178.007l-66.689-5.999-.817-3.619 64.805 5.829a2166 2166 0 002.701 3.789zm1.137 3.584l-9.11 2.727-57.099-5.137-.816-3.619 67.025 6.029zm-18.052 5.403l-9.113 2.727-37.421-3.367-.818-3.619 47.352 4.259zm-18.056 5.403l-9.113 2.729-17.744-1.596-.818-3.622 27.675 2.489zm23.511-40.098l-7.549 9.075 2.37 1.74 7.55-9.075-2.371-1.74z" fill="#2A2929"/></svg>