<svg width="528" height="721" fill="none" xmlns="http://www.w3.org/2000/svg"><circle cx="264" cy="238.333" r="88" fill="#101517"/><circle opacity=".4" cx="264" cy="238.333" r="77.889" stroke="#fff" stroke-width="6"/><path d="M217.319 245.927v1.962h-9.45v-12.6h9.198v1.962h-6.858v3.276h6.084v1.926h-6.084v3.474h7.11zm14.853-10.638l-5.49 12.6h-2.304l-5.508-12.6h2.538l4.194 9.72 4.23-9.72h2.34zm7.975 12.78c-1.284 0-2.442-.276-3.474-.828a6.283 6.283 0 01-2.43-2.322c-.588-.996-.882-2.106-.882-3.33 0-1.224.294-2.328.882-3.312a6.116 6.116 0 012.43-2.322c1.032-.564 2.19-.846 3.474-.846 1.284 0 2.442.282 3.474.846a6.154 6.154 0 012.43 2.304c.588.984.882 2.094.882 3.33 0 1.236-.294 2.346-.882 3.33a6.283 6.283 0 01-2.43 2.322c-1.032.552-2.19.828-3.474.828zm0-2.052c.84 0 1.596-.186 2.268-.558a4.183 4.183 0 001.584-1.584c.384-.684.576-1.446.576-2.286 0-.84-.192-1.596-.576-2.268a4.022 4.022 0 00-1.584-1.584c-.672-.384-1.428-.576-2.268-.576-.84 0-1.596.192-2.268.576-.672.372-1.2.9-1.584 1.584-.384.672-.576 1.428-.576 2.268 0 .84.192 1.602.576 2.286.384.672.912 1.2 1.584 1.584.672.372 1.428.558 2.268.558zm10.167-10.728h2.34v10.62h6.588v1.98h-8.928v-12.6zm22.298 0l-5.49 12.6h-2.304l-5.508-12.6h2.538l4.194 9.72 4.23-9.72h2.34zm11.68 10.638v1.962h-9.45v-12.6h9.198v1.962h-6.858v3.276h6.084v1.926h-6.084v3.474h7.11z" fill="#FCFDFF"/><path d="M296.729 241.337c.696.228 1.248.612 1.656 1.152.408.528.612 1.188.612 1.98 0 1.092-.42 1.938-1.26 2.538-.84.588-2.064.882-3.672.882h-6.264v-12.6h5.904c1.488 0 2.634.294 3.438.882.804.576 1.206 1.374 1.206 2.394 0 .624-.144 1.176-.432 1.656-.288.48-.684.852-1.188 1.116zm-6.588-4.212v3.474h3.312c.816 0 1.44-.144 1.872-.432.444-.3.666-.732.666-1.296 0-.576-.222-1.008-.666-1.296-.432-.3-1.056-.45-1.872-.45h-3.312zm3.78 8.928c1.812 0 2.718-.606 2.718-1.818 0-1.212-.906-1.818-2.718-1.818h-3.78v3.636h3.78zm17.923-.126v1.962h-9.45v-12.6h9.198v1.962h-6.858v3.276h6.084v1.926h-6.084v3.474h7.11zm6.065-8.658h-4.176v-1.98h10.692v1.98h-4.176v10.62h-2.34v-10.62z" fill="#23A873"/><circle cx="263.999" cy="413.444" r="61.333" fill="#23A873"/><circle cx="263.999" cy="413.444" r="57.333" stroke="#AAFFD6" stroke-opacity=".65" stroke-width="8"/><g opacity=".5" clip-path="url(#clip0)"><path fill-rule="evenodd" clip-rule="evenodd" d="M273.04 397.14a8.14 8.14 0 01-8.14 8.14 8.14 8.14 0 01-8.14-8.14 8.14 8.14 0 018.14-8.14 8.14 8.14 0 018.14 8.14zm-5.908 56.982c.924 0 .716-.903-.208-.903h-4.041c-.924 0-1.132.903-.208.903h4.457zm8.115-41.107l.363 2.822a3 3 0 01-2.976 3.382h-15.468a3 3 0 01-2.975-3.381l.368-2.876c.204-2.035 1.946-3.61 4.046-3.61h2.226c.542 0 1.059.215 1.441.594l.508.508a3.001 3.001 0 004.243 0l.508-.508a2.045 2.045 0 011.44-.594h2.231a4.053 4.053 0 014.045 3.663z" fill="#fff"/></g><path d="M242.537 442a.417.417 0 01-.306-.126.417.417 0 01-.126-.306v-11.736c0-.132.042-.234.126-.306a.417.417 0 01.306-.126h1.674c.132 0 .234.042.306.126a.381.381 0 01.126.306v10.026h5.706c.132 0 .24.042.324.126a.439.439 0 01.126.324v1.26c0 .132-.042.24-.126.324a.48.48 0 01-.324.108h-7.812zm12.911 0c-.348 0-.576-.168-.684-.504l-3.852-11.556-.036-.162a.366.366 0 01.378-.378h1.584c.156 0 .276.042.36.126a.55.55 0 01.198.27l3.042 9.27 3.042-9.27a.537.537 0 01.18-.27.553.553 0 01.378-.126h1.584c.096 0 .18.036.252.108a.341.341 0 01.126.27l-.036.162-3.852 11.556c-.108.336-.336.504-.684.504h-1.98zm9.789 0a.417.417 0 01-.306-.126.417.417 0 01-.126-.306v-11.736c0-.132.042-.234.126-.306a.417.417 0 01.306-.126h1.674c.132 0 .234.042.306.126a.381.381 0 01.126.306v10.026h5.706c.132 0 .24.042.324.126a.439.439 0 01.126.324v1.26c0 .132-.042.24-.126.324a.48.48 0 01-.324.108h-7.812zm19.048 0a.417.417 0 01-.306-.126.417.417 0 01-.126-.306v-9.324l-2.736 2.106a.382.382 0 01-.252.09.43.43 0 01-.36-.198l-.756-.972a.515.515 0 01-.09-.27.43.43 0 01.198-.36l4.032-3.114c.108-.084.258-.126.45-.126h1.584c.132 0 .234.042.306.126a.381.381 0 01.126.306v11.736c0 .12-.042.222-.126.306a.381.381 0 01-.306.126h-1.638z" fill="#FCFDFF"/><circle cx="62.222" cy="61.444" r="58.833" fill="#478ECC" stroke="#BFD9FF" stroke-width="5"/><path d="M21.338 52.9c1.632 0 2.916.39 3.852 1.17.936.78 1.404 1.854 1.404 3.222 0 1.368-.468 2.442-1.404 3.222-.936.78-2.22 1.17-3.852 1.17h-3.114V65.5h-1.8V52.9h4.914zm-.054 7.218c1.14 0 2.01-.24 2.61-.72.6-.492.9-1.194.9-2.106 0-.912-.3-1.608-.9-2.088-.6-.492-1.47-.738-2.61-.738h-3.06v5.652h3.06zm16.25 2.232h-6.697l-1.386 3.15h-1.854l5.706-12.6h1.782l5.724 12.6h-1.89l-1.386-3.15zm-.63-1.44l-2.719-6.174-2.718 6.174h5.436zm15.109 4.59l-2.718-3.87c-.336.024-.6.036-.792.036h-3.114V65.5h-1.8V52.9h4.914c1.632 0 2.916.39 3.852 1.17.936.78 1.404 1.854 1.404 3.222 0 .972-.24 1.8-.72 2.484-.48.684-1.164 1.182-2.052 1.494l2.988 4.23h-1.962zm-3.564-5.364c1.14 0 2.01-.246 2.61-.738.6-.492.9-1.194.9-2.106 0-.912-.3-1.608-.9-2.088-.6-.492-1.47-.738-2.61-.738h-3.06v5.67h3.06zm11.444-5.67h-4.32V52.9h10.422v1.566h-4.32V65.5h-1.782V54.466zM79.692 52.9v12.6h-1.476l-7.56-9.396V65.5h-1.8V52.9h1.476l7.56 9.396V52.9h1.8zm13.815 11.034V65.5h-9.144V52.9h8.892v1.566h-7.092v3.87h6.318v1.53h-6.318v4.068h7.344zm12.239 1.566l-2.718-3.87c-.336.024-.6.036-.792.036h-3.114V65.5h-1.8V52.9h4.914c1.632 0 2.916.39 3.852 1.17.936.78 1.404 1.854 1.404 3.222 0 .972-.24 1.8-.72 2.484-.48.684-1.164 1.182-2.052 1.494l2.988 4.23h-1.962zm-3.564-5.364c1.14 0 2.01-.246 2.61-.738.6-.492.9-1.194.9-2.106 0-.912-.3-1.608-.9-2.088-.6-.492-1.47-.738-2.61-.738h-3.06v5.67h3.06zM60.404 81.668c-.876 0-1.584-.318-2.124-.954-.54-.636-.81-1.464-.81-2.484s.27-1.848.81-2.484c.54-.636 1.248-.954 2.124-.954.876 0 1.578.318 2.106.954.54.624.81 1.452.81 2.484s-.27 1.866-.81 2.502c-.528.624-1.23.936-2.106.936zM68 74.9h1.386l-8.604 12.6h-1.386L68 74.9zm-7.596 5.742c.552 0 .984-.21 1.296-.63.312-.432.468-1.026.468-1.782s-.156-1.344-.468-1.764c-.312-.432-.744-.648-1.296-.648-.54 0-.972.216-1.296.648-.312.432-.468 1.02-.468 1.764s.156 1.332.468 1.764a1.54 1.54 0 001.296.648zm7.974 6.966c-.876 0-1.584-.312-2.124-.936-.528-.636-.792-1.47-.792-2.502 0-1.032.264-1.86.792-2.484.54-.636 1.248-.954 2.124-.954.876 0 1.584.318 2.124.954.54.636.81 1.464.81 2.484s-.27 1.848-.81 2.484c-.54.636-1.248.954-2.124.954zm0-1.026c.54 0 .966-.216 1.278-.648.324-.432.486-1.02.486-1.764s-.162-1.332-.486-1.764c-.312-.432-.738-.648-1.278-.648-.552 0-.984.216-1.296.648-.312.42-.468 1.008-.468 1.764s.156 1.35.468 1.782c.312.42.744.63 1.296.63z" fill="#FCFDFF"/><circle cx="263.999" cy="61.444" r="58.833" fill="#478ECC" stroke="#BFD9FF" stroke-width="5"/><path d="M222.949 53.4c1.632 0 2.916.39 3.852 1.17.936.78 1.404 1.854 1.404 3.222 0 1.368-.468 2.442-1.404 3.222-.936.78-2.22 1.17-3.852 1.17h-3.114V66h-1.8V53.4h4.914zm-.054 7.218c1.14 0 2.01-.24 2.61-.72.6-.492.9-1.194.9-2.106 0-.912-.3-1.608-.9-2.088-.6-.492-1.47-.738-2.61-.738h-3.06v5.652h3.06zm16.25 2.232h-6.696L231.063 66h-1.854l5.706-12.6h1.782l5.724 12.6h-1.89l-1.386-3.15zm-.63-1.44l-2.718-6.174-2.718 6.174h5.436zM253.624 66l-2.718-3.87c-.336.024-.6.036-.792.036H247V66h-1.8V53.4h4.914c1.632 0 2.916.39 3.852 1.17.936.78 1.404 1.854 1.404 3.222 0 .972-.24 1.8-.72 2.484-.48.684-1.164 1.182-2.052 1.494l2.988 4.23h-1.962zm-3.564-5.364c1.14 0 2.01-.246 2.61-.738.6-.492.9-1.194.9-2.106 0-.912-.3-1.608-.9-2.088-.6-.492-1.47-.738-2.61-.738H247v5.67h3.06zm11.444-5.67h-4.32V53.4h10.422v1.566h-4.32V66h-1.782V54.966zm19.799-1.566V66h-1.476l-7.56-9.396V66h-1.8V53.4h1.476l7.56 9.396V53.4h1.8zm13.815 11.034V66h-9.144V53.4h8.892v1.566h-7.092v3.87h6.318v1.53h-6.318v4.068h7.344zM307.357 66l-2.718-3.87c-.336.024-.6.036-.792.036h-3.114V66h-1.8V53.4h4.914c1.632 0 2.916.39 3.852 1.17.936.78 1.404 1.854 1.404 3.222 0 .972-.24 1.8-.72 2.484-.48.684-1.164 1.182-2.052 1.494l2.988 4.23h-1.962zm-3.564-5.364c1.14 0 2.01-.246 2.61-.738.6-.492.9-1.194.9-2.106 0-.912-.3-1.608-.9-2.088-.6-.492-1.47-.738-2.61-.738h-3.06v5.67h3.06zm-41.778 21.532c-.876 0-1.584-.318-2.124-.954-.54-.636-.81-1.464-.81-2.484s.27-1.848.81-2.484c.54-.636 1.248-.954 2.124-.954.876 0 1.578.318 2.106.954.54.624.81 1.452.81 2.484s-.27 1.866-.81 2.502c-.528.624-1.23.936-2.106.936zm7.596-6.768h1.386L262.393 88h-1.386l8.604-12.6zm-7.596 5.742c.552 0 .984-.21 1.296-.63.312-.432.468-1.026.468-1.782s-.156-1.344-.468-1.764c-.312-.432-.744-.648-1.296-.648-.54 0-.972.216-1.296.648-.312.432-.468 1.02-.468 1.764s.156 1.332.468 1.764a1.54 1.54 0 001.296.648zm7.974 6.966c-.876 0-1.584-.312-2.124-.936-.528-.636-.792-1.47-.792-2.502 0-1.032.264-1.86.792-2.484.54-.636 1.248-.954 2.124-.954.876 0 1.584.318 2.124.954.54.636.81 1.464.81 2.484s-.27 1.848-.81 2.484c-.54.636-1.248.954-2.124.954zm0-1.026c.54 0 .966-.216 1.278-.648.324-.432.486-1.02.486-1.764s-.162-1.332-.486-1.764c-.312-.432-.738-.648-1.278-.648-.552 0-.984.216-1.296.648-.312.42-.468 1.008-.468 1.764s.156 1.35.468 1.782c.312.42.744.63 1.296.63z" fill="#FCFDFF"/><circle cx="465.779" cy="61.444" r="58.833" fill="#478ECC" stroke="#BFD9FF" stroke-width="5"/><path d="M424.894 52.9c1.632 0 2.916.39 3.852 1.17.936.78 1.404 1.854 1.404 3.222 0 1.368-.468 2.442-1.404 3.222-.936.78-2.22 1.17-3.852 1.17h-3.114V65.5h-1.8V52.9h4.914zm-.054 7.218c1.14 0 2.01-.24 2.61-.72.6-.492.9-1.194.9-2.106 0-.912-.3-1.608-.9-2.088-.6-.492-1.47-.738-2.61-.738h-3.06v5.652h3.06zm16.25 2.232h-6.696l-1.386 3.15h-1.854l5.706-12.6h1.782l5.724 12.6h-1.89l-1.386-3.15zm-.63-1.44l-2.718-6.174-2.718 6.174h5.436zm15.109 4.59l-2.718-3.87c-.336.024-.6.036-.792.036h-3.114V65.5h-1.8V52.9h4.914c1.632 0 2.916.39 3.852 1.17.936.78 1.404 1.854 1.404 3.222 0 .972-.24 1.8-.72 2.484-.48.684-1.164 1.182-2.052 1.494l2.988 4.23h-1.962zm-3.564-5.364c1.14 0 2.01-.246 2.61-.738.6-.492.9-1.194.9-2.106 0-.912-.3-1.608-.9-2.088-.6-.492-1.47-.738-2.61-.738h-3.06v5.67h3.06zm11.445-5.67h-4.32V52.9h10.422v1.566h-4.32V65.5h-1.782V54.466zm19.798-1.566v12.6h-1.476l-7.56-9.396V65.5h-1.8V52.9h1.476l7.56 9.396V52.9h1.8zm13.816 11.034V65.5h-9.144V52.9h8.892v1.566h-7.092v3.87h6.318v1.53h-6.318v4.068h7.344zm12.238 1.566l-2.718-3.87c-.336.024-.6.036-.792.036h-3.114V65.5h-1.8V52.9h4.914c1.632 0 2.916.39 3.852 1.17.936.78 1.404 1.854 1.404 3.222 0 .972-.24 1.8-.72 2.484-.48.684-1.164 1.182-2.052 1.494l2.988 4.23h-1.962zm-3.564-5.364c1.14 0 2.01-.246 2.61-.738.6-.492.9-1.194.9-2.106 0-.912-.3-1.608-.9-2.088-.6-.492-1.47-.738-2.61-.738h-3.06v5.67h3.06zM463.96 81.668c-.876 0-1.584-.318-2.124-.954-.54-.636-.81-1.464-.81-2.484s.27-1.848.81-2.484c.54-.636 1.248-.954 2.124-.954.876 0 1.578.318 2.106.954.54.624.81 1.452.81 2.484s-.27 1.866-.81 2.502c-.528.624-1.23.936-2.106.936zm7.596-6.768h1.386l-8.604 12.6h-1.386l8.604-12.6zm-7.596 5.742c.552 0 .984-.21 1.296-.63.312-.432.468-1.026.468-1.782s-.156-1.344-.468-1.764c-.312-.432-.744-.648-1.296-.648-.54 0-.972.216-1.296.648-.312.432-.468 1.02-.468 1.764s.156 1.332.468 1.764a1.54 1.54 0 001.296.648zm7.974 6.966c-.876 0-1.584-.312-2.124-.936-.528-.636-.792-1.47-.792-2.502 0-1.032.264-1.86.792-2.484.54-.636 1.248-.954 2.124-.954.876 0 1.584.318 2.124.954.54.636.81 1.464.81 2.484s-.27 1.848-.81 2.484c-.54.636-1.248.954-2.124.954zm0-1.026c.54 0 .966-.216 1.278-.648.324-.432.486-1.02.486-1.764s-.162-1.332-.486-1.764c-.312-.432-.738-.648-1.278-.648-.552 0-.984.216-1.296.648-.312.42-.468 1.008-.468 1.764s.156 1.35.468 1.782c.312.42.744.63 1.296.63z" fill="#FCFDFF"/><circle cx="153.779" cy="536.111" r="61.333" fill="#23A873"/><circle cx="153.779" cy="536.111" r="57.333" stroke="#AAFFD6" stroke-opacity=".65" stroke-width="8"/><g opacity=".5" clip-path="url(#clip1)"><path fill-rule="evenodd" clip-rule="evenodd" d="M162.819 519.807a8.14 8.14 0 11-16.28 0 8.14 8.14 0 0116.28 0zm-5.908 56.982c.924 0 .716-.903-.208-.903h-4.041c-.924 0-1.131.903-.208.903h4.457zm8.116-41.108l.362 2.823a3 3 0 01-2.975 3.382h-15.468a3 3 0 01-2.976-3.382l.369-2.876c.203-2.035 1.945-3.61 4.045-3.61h2.227a2.05 2.05 0 011.44.594l.508.508a3 3 0 004.243 0l.508-.508a2.052 2.052 0 011.441-.594h2.23a4.055 4.055 0 014.046 3.663z" fill="#fff"/></g><path d="M130.91 564.667a.417.417 0 01-.306-.126.417.417 0 01-.126-.306v-11.736c0-.132.042-.234.126-.306a.417.417 0 01.306-.126h1.674c.132 0 .234.042.306.126a.381.381 0 01.126.306v10.026h5.706c.132 0 .24.042.324.126a.439.439 0 01.126.324v1.26c0 .132-.042.24-.126.324a.48.48 0 01-.324.108h-7.812zm12.912 0c-.348 0-.576-.168-.684-.504l-3.852-11.556-.036-.162a.366.366 0 01.378-.378h1.584c.156 0 .276.042.36.126a.55.55 0 01.198.27l3.042 9.27 3.042-9.27a.537.537 0 01.18-.27.553.553 0 01.378-.126h1.584c.096 0 .18.036.252.108a.341.341 0 01.126.27l-.036.162-3.852 11.556c-.108.336-.336.504-.684.504h-1.98zm9.788 0a.417.417 0 01-.306-.126.417.417 0 01-.126-.306v-11.736c0-.132.042-.234.126-.306a.417.417 0 01.306-.126h1.674c.132 0 .234.042.306.126a.381.381 0 01.126.306v10.026h5.706c.132 0 .24.042.324.126a.439.439 0 01.126.324v1.26c0 .132-.042.24-.126.324a.48.48 0 01-.324.108h-7.812zm15.304 0a.417.417 0 01-.306-.126.417.417 0 01-.126-.306v-.918c0-.324.15-.606.45-.846l2.844-2.826c1.236-.972 2.094-1.728 2.574-2.268.492-.552.738-1.092.738-1.62 0-.564-.156-1.008-.468-1.332-.3-.324-.756-.486-1.368-.486-.6 0-1.074.18-1.422.54-.348.348-.564.804-.648 1.368a.556.556 0 01-.198.324.599.599 0 01-.324.09h-1.602a.366.366 0 01-.27-.108.345.345 0 01-.108-.252 4.122 4.122 0 01.576-1.98c.36-.624.882-1.122 1.566-1.494.684-.384 1.488-.576 2.412-.576.96 0 1.77.168 2.43.504.672.324 1.176.774 1.512 1.35.336.576.504 1.23.504 1.962 0 .804-.228 1.53-.684 2.178-.444.648-1.128 1.344-2.052 2.088l-2.556 2.592h5.13c.132 0 .234.042.306.126a.381.381 0 01.126.306v1.278c0 .12-.042.222-.126.306a.381.381 0 01-.306.126h-8.604z" fill="#FCFDFF"/><circle cx="374.222" cy="536.111" r="61.333" fill="#23A873"/><circle cx="374.222" cy="536.111" r="57.333" stroke="#AAFFD6" stroke-opacity=".65" stroke-width="8"/><g opacity=".5" clip-path="url(#clip2)"><path fill-rule="evenodd" clip-rule="evenodd" d="M383.263 519.807a8.14 8.14 0 11-16.282-.002 8.14 8.14 0 0116.282.002zm-5.909 56.982c.924 0 .716-.903-.208-.903h-4.041c-.923 0-1.131.903-.207.903h4.456zm8.116-41.108l.363 2.823a3 3 0 01-2.976 3.382h-15.468a3.001 3.001 0 01-2.976-3.382l.369-2.876c.204-2.035 1.946-3.61 4.046-3.61h2.226c.541 0 1.058.216 1.441.594l.508.508a2.998 2.998 0 004.242 0l.508-.508c.383-.378.9-.594 1.441-.594h2.231a4.053 4.053 0 014.045 3.663z" fill="#fff"/></g><path d="M351.353 564.667a.417.417 0 01-.306-.126.417.417 0 01-.126-.306v-11.736c0-.132.042-.234.126-.306a.417.417 0 01.306-.126h1.674c.132 0 .234.042.306.126a.381.381 0 01.126.306v10.026h5.706c.132 0 .24.042.324.126a.439.439 0 01.126.324v1.26c0 .132-.042.24-.126.324a.48.48 0 01-.324.108h-7.812zm12.912 0c-.348 0-.576-.168-.684-.504l-3.852-11.556-.036-.162a.366.366 0 01.378-.378h1.584c.156 0 .276.042.36.126a.55.55 0 01.198.27l3.042 9.27 3.042-9.27a.537.537 0 01.18-.27.553.553 0 01.378-.126h1.584c.096 0 .18.036.252.108a.341.341 0 01.126.27l-.036.162-3.852 11.556c-.108.336-.336.504-.684.504h-1.98zm9.789 0a.417.417 0 01-.306-.126.417.417 0 01-.126-.306v-11.736c0-.132.042-.234.126-.306a.417.417 0 01.306-.126h1.674c.132 0 .234.042.306.126a.381.381 0 01.126.306v10.026h5.706c.132 0 .24.042.324.126a.439.439 0 01.126.324v1.26c0 .132-.042.24-.126.324a.48.48 0 01-.324.108h-7.812zm15.303 0a.417.417 0 01-.306-.126.417.417 0 01-.126-.306v-.918c0-.324.15-.606.45-.846l2.844-2.826c1.236-.972 2.094-1.728 2.574-2.268.492-.552.738-1.092.738-1.62 0-.564-.156-1.008-.468-1.332-.3-.324-.756-.486-1.368-.486-.6 0-1.074.18-1.422.54-.348.348-.564.804-.648 1.368a.556.556 0 01-.198.324.599.599 0 01-.324.09h-1.602a.366.366 0 01-.27-.108.345.345 0 01-.108-.252 4.122 4.122 0 01.576-1.98c.36-.624.882-1.122 1.566-1.494.684-.384 1.488-.576 2.412-.576.96 0 1.77.168 2.43.504.672.324 1.176.774 1.512 1.35.336.576.504 1.23.504 1.962 0 .804-.228 1.53-.684 2.178-.444.648-1.128 1.344-2.052 2.088l-2.556 2.592h5.13c.132 0 .234.042.306.126a.381.381 0 01.126.306v1.278c0 .12-.042.222-.126.306a.381.381 0 01-.306.126h-8.604z" fill="#FCFDFF"/><circle cx="61.333" cy="658.778" r="61.333" fill="#23A873"/><circle cx="61.333" cy="658.778" r="57.333" stroke="#AAFFD6" stroke-opacity=".65" stroke-width="8"/><g opacity=".5" clip-path="url(#clip3)"><path fill-rule="evenodd" clip-rule="evenodd" d="M70.374 642.473a8.14 8.14 0 01-8.14 8.14 8.14 8.14 0 110-16.28 8.14 8.14 0 018.14 8.14zm-5.908 56.982c.924 0 .716-.903-.208-.903h-4.041c-.924 0-1.132.903-.208.903h4.457zm8.116-41.107l.362 2.822a3 3 0 01-2.976 3.382H54.5a3 3 0 01-2.975-3.381l.368-2.876c.204-2.035 1.946-3.61 4.046-3.61h2.226a2.05 2.05 0 011.441.594l.508.508a3 3 0 004.243 0l.508-.508c.382-.378.9-.594 1.44-.594h2.23a4.054 4.054 0 014.047 3.663z" fill="#fff"/></g><path d="M38.368 687.333a.417.417 0 01-.306-.126.417.417 0 01-.126-.306v-11.736c0-.132.042-.234.126-.306a.417.417 0 01.306-.126h1.674c.132 0 .234.042.306.126a.381.381 0 01.126.306v10.026h5.706c.132 0 .24.042.324.126a.439.439 0 01.126.324v1.26c0 .132-.042.24-.126.324a.48.48 0 01-.324.108h-7.812zm12.911 0c-.348 0-.576-.168-.684-.504l-3.852-11.556-.035-.162a.366.366 0 01.378-.378h1.584c.155 0 .276.042.36.126a.55.55 0 01.197.27l3.043 9.27 3.041-9.27a.537.537 0 01.18-.27.553.553 0 01.379-.126h1.584c.096 0 .18.036.252.108a.341.341 0 01.125.27l-.036.162-3.852 11.556c-.107.336-.335.504-.683.504h-1.98zm9.79 0a.417.417 0 01-.307-.126.417.417 0 01-.126-.306v-11.736c0-.132.042-.234.126-.306a.417.417 0 01.306-.126h1.674c.132 0 .234.042.306.126a.381.381 0 01.126.306v10.026h5.706c.132 0 .24.042.324.126a.439.439 0 01.126.324v1.26c0 .132-.042.24-.126.324a.48.48 0 01-.324.108h-7.812zm19.66.18c-1.057 0-1.957-.168-2.7-.504-.733-.336-1.285-.756-1.657-1.26-.36-.516-.552-1.044-.576-1.584a.31.31 0 01.108-.252.43.43 0 01.288-.108h1.62c.264 0 .438.12.522.36.264.864 1.068 1.296 2.412 1.296.732 0 1.308-.168 1.728-.504.42-.348.63-.84.63-1.476 0-1.2-.75-1.8-2.25-1.8H79a.439.439 0 01-.324-.126.417.417 0 01-.126-.306v-.756c0-.192.084-.372.252-.54l3.222-3.15h-5.148a.417.417 0 01-.306-.126.417.417 0 01-.126-.306v-1.188a.48.48 0 01.108-.324.439.439 0 01.324-.126h7.722c.132 0 .24.042.324.126a.439.439 0 01.126.324v1.08c0 .18-.078.348-.234.504l-3.114 3.204.216.018c1.152.096 2.064.444 2.736 1.044.684.6 1.026 1.458 1.026 2.574 0 .792-.216 1.482-.648 2.07-.42.588-1.008 1.044-1.764 1.368-.744.312-1.59.468-2.538.468z" fill="#FCFDFF"/><circle cx="466.667" cy="658.778" r="61.333" fill="#23A873"/><circle cx="466.667" cy="658.778" r="57.333" stroke="#AAFFD6" stroke-opacity=".65" stroke-width="8"/><g opacity=".5" clip-path="url(#clip4)"><path fill-rule="evenodd" clip-rule="evenodd" d="M475.708 642.473a8.14 8.14 0 01-8.14 8.14 8.14 8.14 0 118.14-8.14zm-5.908 56.982c.924 0 .716-.903-.208-.903h-4.041c-.924 0-1.132.903-.208.903h4.457zm8.115-41.107l.363 2.822a3 3 0 01-2.976 3.382h-15.468a3 3 0 01-2.975-3.381l.368-2.876c.204-2.035 1.946-3.61 4.046-3.61h2.226a2.05 2.05 0 011.441.594l.508.508a3 3 0 004.243 0l.508-.508a2.05 2.05 0 011.44-.594h2.231a4.053 4.053 0 014.045 3.663z" fill="#fff"/></g><path d="M443.702 687.333a.417.417 0 01-.306-.126.417.417 0 01-.126-.306v-11.736c0-.132.042-.234.126-.306a.417.417 0 01.306-.126h1.674c.132 0 .234.042.306.126a.381.381 0 01.126.306v10.026h5.706c.132 0 .24.042.324.126a.439.439 0 01.126.324v1.26c0 .132-.042.24-.126.324a.48.48 0 01-.324.108h-7.812zm12.912 0c-.348 0-.576-.168-.684-.504l-3.852-11.556-.036-.162a.366.366 0 01.378-.378h1.584c.156 0 .276.042.36.126a.55.55 0 01.198.27l3.042 9.27 3.042-9.27a.537.537 0 01.18-.27.553.553 0 01.378-.126h1.584c.096 0 .18.036.252.108a.341.341 0 01.126.27l-.036.162-3.852 11.556c-.108.336-.336.504-.684.504h-1.98zm9.788 0a.417.417 0 01-.306-.126.417.417 0 01-.126-.306v-11.736c0-.132.042-.234.126-.306a.417.417 0 01.306-.126h1.674c.132 0 .234.042.306.126a.381.381 0 01.126.306v10.026h5.706c.132 0 .24.042.324.126a.439.439 0 01.126.324v1.26c0 .132-.042.24-.126.324a.48.48 0 01-.324.108h-7.812zm19.66.18c-1.056 0-1.956-.168-2.7-.504-.732-.336-1.284-.756-1.656-1.26-.36-.516-.552-1.044-.576-1.584a.31.31 0 01.108-.252.43.43 0 01.288-.108h1.62c.264 0 .438.12.522.36.264.864 1.068 1.296 2.412 1.296.732 0 1.308-.168 1.728-.504.42-.348.63-.84.63-1.476 0-1.2-.75-1.8-2.25-1.8h-1.854a.439.439 0 01-.324-.126.417.417 0 01-.126-.306v-.756c0-.192.084-.372.252-.54l3.222-3.15h-5.148a.417.417 0 01-.306-.126.417.417 0 01-.126-.306v-1.188a.48.48 0 01.108-.324.439.439 0 01.324-.126h7.722c.132 0 .24.042.324.126a.439.439 0 01.126.324v1.08c0 .18-.078.348-.234.504l-3.114 3.204.216.018c1.152.096 2.064.444 2.736 1.044.684.6 1.026 1.458 1.026 2.574 0 .792-.216 1.482-.648 2.07-.42.588-1.008 1.044-1.764 1.368-.744.312-1.59.468-2.538.468z" fill="#FCFDFF"/><path d="M171.52 246.54C92.271 313.993 59.555 394.902 59.555 598.333" stroke="#23A873" stroke-width=".5" stroke-dasharray="4 2"/><path d="M165.877 246.171l5.969.105.809 5.914m189.085-6.652l-5.946.529-.387 5.956" stroke="#23A873" stroke-linecap="round" stroke-linejoin="round"/><path d="M356.278 246.473c32.818 43.807 44.267 95.118 25.055 229.194M171.521 246.473c-32.818 43.807-44.267 95.118-25.055 229.194" stroke="#23A873" stroke-width=".5" stroke-dasharray="4 2"/><path d="M264.889 129.737v20.152" stroke="#478ECC" stroke-width=".5" stroke-dasharray="4 2"/><path d="M260.826 335.242l4.445-3.555 4.444 3.555" stroke="#23A873" stroke-linecap="round" stroke-linejoin="round"/><path d="M356.255 246.402c79.863 67.454 113.079 148.5 113.079 351.931" stroke="#23A873" stroke-width=".5" stroke-dasharray="4 2"/><path d="M353.344 237.395c81.091-22.316 115.982-41.07 115.982-108.371m-295.25 110.087c-81.092-22.315-115.41-43.91-115.41-111.211" stroke="#478ECC" stroke-width=".5" stroke-dasharray="4 2"/><path d="M54.135 129.842l4.532-3.884 4.532 3.884m197.158 1.062l4.533-3.884 4.532 3.884m195.381 0l4.532-3.884 4.532 3.884" stroke="#478ECC" stroke-linecap="round" stroke-linejoin="round"/><path d="M265.271 331.954v17.54M119.203 587.146l-18 25m120.988-153.985l-27 32M411.2 585.85l18 24M306.193 457.842l27 33" stroke="#23A873" stroke-width=".5" stroke-dasharray="4 2"/><defs><clipPath id="clip0"><path fill="#fff" transform="translate(243.166 383)" d="M0 0h42v42H0z"/></clipPath><clipPath id="clip1"><path fill="#fff" transform="translate(132.945 505.667)" d="M0 0h42v42H0z"/></clipPath><clipPath id="clip2"><path fill="#fff" transform="translate(353.389 505.667)" d="M0 0h42v42H0z"/></clipPath><clipPath id="clip3"><path fill="#fff" transform="translate(40.5 628.333)" d="M0 0h42v42H0z"/></clipPath><clipPath id="clip4"><path fill="#fff" transform="translate(445.834 628.333)" d="M0 0h42v42H0z"/></clipPath></defs></svg>