<svg width="594" height="516" fill="none" xmlns="http://www.w3.org/2000/svg"><g clip-path="url(#clip0)"><path opacity=".05" d="M519.627 109.291C423.069-.731 257.292-19.057 183.374 16.297c-30.882 14.78-57.009 32.87-78.837 52.755a295.127 295.127 0 00-8.999 8.514 308.41 308.41 0 00-25.535 28.524 300.145 300.145 0 00-25.548 37.948c-11.63 20.478-20.01 40.901-25.535 59.986-4.369 15.069-6.96 29.31-7.965 42.102-2.109 26.784-.276 53.762 3.32 80.381.332 2.539.69 5.078 1.076 7.617.096.704.193 1.408.303 2.112 3.955 26.453 9.55 53.141 22.035 76.214 13.614 25.156 61.226 95.16 112.833 96.995 26.775.952 50.422-16.6 74.689-28.992 38.612-19.706 82.255-23.569 124.836-24.715 42.581-1.145 85.686.083 127.178-10.487 41.493-10.557 82.186-34.858 103.394-75.276 7.207-13.717 12.678-33.477 12.692-49.291.013-46.656-7.607-87.461-20.891-122.911a289.647 289.647 0 00-14.732-33.022 280.897 280.897 0 00-28.828-44.393l-9.233-11.067z" fill="#23A873"/><path d="M593.311 507.817H.689m136.55-200.188c.014.014.014.028 0 .042-.013.055-.027.096-.041.152-.055.248-.096.51-.165.786-.469 2.222-1.006 5.285-1.392 9.149a108.692 108.692 0 00-.524 8.997c-.124 6.472.235 14.228 1.585 23.101.303 2.028.661 4.112 1.089 6.264a163.757 163.757 0 002.521 10.971c.469 1.766.979 3.56 1.53 5.396.221.745.441 1.476.648 2.221.248.897.496 1.808.744 2.705 0 .014.014.027.014.041 1.598 6.113 2.838 12.378 3.789 18.602 1.172 7.797 1.902 15.538 2.302 22.865.537 9.757.509 18.781.275 26.247 0 .124 0 .234-.014.359-.248 7.562-.716 13.468-1.033 16.849a116.878 116.878 0 01-.317 3.16" stroke="#263238" stroke-miterlimit="10" stroke-linecap="round" stroke-linejoin="round"/><path d="M137.197 307.823c.013-.028.013-.028.027-.028.014-.028.014-.028.028-.028a17.828 17.828 0 013.224-2.249 17.421 17.421 0 014.01-1.518" fill="#fff"/><path d="M137.197 307.823c.013-.028.013-.028.027-.028.014-.028.014-.028.028-.028a17.828 17.828 0 013.224-2.249 17.421 17.421 0 014.01-1.518m-8.832 13.758l-3.665-3.326m8.336 52.687c.193-.98.469-1.932.868-2.843a14.423 14.423 0 012.191-3.712 14.333 14.333 0 012.302-2.277m-2.426 19.181c-1.006-2.567-3.156-4.692-5.733-5.671" stroke="#263238" stroke-miterlimit="10" stroke-linecap="round" stroke-linejoin="round"/><path d="M149.627 428.802c-1.227-1.477-2.15-7.121-2.66-10.157-.124-.731-.22-1.338-.303-1.794" fill="#fff"/><path d="M149.627 428.802c-1.227-1.477-2.15-7.121-2.66-10.157-.124-.731-.22-1.338-.303-1.794" stroke="#263238" stroke-miterlimit="10" stroke-linecap="round" stroke-linejoin="round"/><path d="M159.08 438.986a6.2 6.2 0 00-1.24.041c-3.569.331-6.918 2.788-8.227 6.141" fill="#fff"/><path d="M159.08 438.986a6.2 6.2 0 00-1.24.041c-3.569.331-6.918 2.788-8.227 6.141m-11.81-88.978s-.648-22.397 11.631-30.525" stroke="#263238" stroke-miterlimit="10" stroke-linecap="round" stroke-linejoin="round"/><path d="M136.701 404.253c-1.612 5.216 9.633 15.165 9.633 15.165s14.882-1.863 16.495-7.079c1.612-5.216-2.164-13.772-9.371-15.993-7.221-2.236-15.145 2.691-16.757 7.907zm-12.473-63.381c1.419 5.548 12.072 9.48 12.072 9.48s7.413-8.597 5.994-14.144c-1.419-5.547-7.304-11.66-12.292-10.377-4.988 1.297-7.193 9.494-5.774 15.041zm42.706 82.893c-6.683 2.608-10.776 14.448-10.776 14.448s11.011 5.947 17.694 3.339 13.753-9.949 11.851-14.862c-1.915-4.912-12.085-5.533-18.769-2.925zm-14.648-65.119c-1.419 1.049-2.866 2.125-4.561 2.58-1.695.456-3.721.18-4.865-1.145-1.433-1.642-1.047-4.209-.151-6.196 1.791-3.947 8.364-10.626 13.435-8.707 7.29 2.759-.606 11.039-3.858 13.468zm-14.951 10.032c.965 1.187 1.971 2.691 1.447 4.126-.468 1.269-2.026 1.863-3.362 1.656-1.337-.207-2.508-.994-3.611-1.766-2.577-1.794-7.868-5.548-4.492-9.067 3.514-3.67 8.006 2.553 10.018 5.051zm21.58-50.064c1.102.124 2.218.855 2.411 1.959.221 1.284-.84 2.401-1.874 3.188-2.563 1.973-10.253 7.314-11.975 2.166-1.626-4.857 8.034-7.686 11.438-7.313zm-14.195-16.918c1.585.152 3.17-.428 4.768-.331 1.585.096 3.363 1.38 3.005 2.939-.331 1.435-2.109 1.918-3.583 2.015a28.616 28.616 0 01-7.511-.525c-.578-.11-1.199-.29-1.515-.773-.648-.952.385-2.221 1.474-2.552 1.089-.332 2.329-.221 3.321-.787l.041.014zm-15.502 10.943c-1.598.041-3.142-.635-4.726-.635-1.599 0-3.445 1.159-3.197 2.732.234 1.463 1.984 2.056 3.445 2.249 2.494.318 5.029.318 7.524-.027.579-.083 1.212-.207 1.571-.663.703-.91-.235-2.235-1.309-2.649-1.075-.414-2.316-.373-3.266-1.007h-.042zm1.57 117.598c-.399-.331-.84-.676-1.35-.676-.689 0-1.227.648-1.351 1.325-.124.676.055 1.366.262 2.014 1.075 3.616 13.216 29.834 15.999 25.129 1.654-2.788-2.411-12.006-3.597-14.614-2.328-5.036-5.732-9.59-9.963-13.178z" fill="#23A873"/><path d="M136.687 309.354s.73-6.361-.799-6.872" stroke="#263238" stroke-miterlimit="10" stroke-linecap="round" stroke-linejoin="round"/><path d="M138.037 302.689c-.965-2.166-1.998-4.429-3.913-5.823-1.916-1.394-4.975-1.504-6.367.414-1.557 2.139 0 5.395 2.384 6.541 2.384 1.145 5.181.8 7.8.428.027-.387.041-.773.069-1.173l.027-.387z" fill="#23A873"/><path d="M131.505 507.5a117.143 117.143 0 0039.246 0l15.269-45.111h-69.784l15.269 45.111z" fill="#fff" stroke="#263238" stroke-miterlimit="10" stroke-linecap="round" stroke-linejoin="round"/><path d="M397.839 181.586c.014.014.014.028 0 .041-.014.056-.027.097-.041.152-.055.249-.097.511-.166.787-.468 2.221-1.006 5.285-1.391 9.149a108.665 108.665 0 00-.524 8.997c-.124 6.472.234 14.227 1.585 23.1.303 2.029.661 4.112 1.088 6.265a164.38 164.38 0 002.522 10.97 171.04 171.04 0 001.53 5.396c.22.745.441 1.477.647 2.222.248.897.496 1.807.745 2.704 0 .014.013.028.013.042 1.599 6.113 2.839 12.378 3.79 18.601 1.171 7.797 1.902 15.538 2.301 22.866.538 9.756.51 18.781.276 26.246 0 .125 0 .235-.014.359-.248 7.562-.717 13.468-1.034 16.849-.179 1.96-.303 3.077-.316 3.16" stroke="#263238" stroke-miterlimit="10" stroke-linecap="round" stroke-linejoin="round"/><path d="M397.796 181.779c.014-.027.014-.027.028-.027.014-.028.014-.028.027-.028a17.8 17.8 0 013.225-2.249 17.358 17.358 0 014.01-1.518" fill="#fff"/><path d="M397.796 181.779c.014-.027.014-.027.028-.027.014-.028.014-.028.027-.028a17.8 17.8 0 013.225-2.249 17.358 17.358 0 014.01-1.518m-8.832 13.758l-3.666-3.326m8.337 52.686c.193-.98.468-1.932.868-2.843a14.383 14.383 0 012.191-3.712c.675-.841 1.447-1.6 2.301-2.276m-2.439 19.181c-1.006-2.567-3.156-4.692-5.733-5.672" stroke="#263238" stroke-miterlimit="10" stroke-linecap="round" stroke-linejoin="round"/><path d="M410.227 302.758c-1.227-1.476-2.15-7.12-2.66-10.156-.124-.731-.221-1.339-.303-1.794" fill="#fff"/><path d="M410.227 302.758c-1.227-1.476-2.15-7.12-2.66-10.156-.124-.731-.221-1.339-.303-1.794" stroke="#263238" stroke-miterlimit="10" stroke-linecap="round" stroke-linejoin="round"/><path d="M419.666 312.942a6.201 6.201 0 00-1.24.042c-3.569.331-6.918 2.787-8.227 6.14" fill="#fff"/><path d="M419.666 312.942a6.201 6.201 0 00-1.24.042c-3.569.331-6.918 2.787-8.227 6.14m-11.796-88.978s-.648-22.396 11.63-30.51" stroke="#263238" stroke-miterlimit="10" stroke-linecap="round" stroke-linejoin="round"/><path d="M397.301 278.209c-1.613 5.216 9.632 15.166 9.632 15.166s14.883-1.863 16.495-7.079c1.612-5.216-2.163-13.772-9.37-15.994-7.221-2.235-15.145 2.691-16.757 7.907zm-12.472-63.38c1.419 5.547 12.071 9.48 12.071 9.48s7.428-8.597 5.995-14.144c-1.42-5.548-7.304-11.661-12.293-10.378-5.002 1.298-7.207 9.494-5.773 15.042zm42.705 82.893c-6.684 2.608-10.776 14.447-10.776 14.447s11.01 5.948 17.694 3.34c6.683-2.608 13.752-9.949 11.851-14.862-1.916-4.913-12.086-5.534-18.769-2.925zm-14.648-65.12c-1.42 1.049-2.867 2.125-4.562 2.581-1.695.455-3.72.179-4.864-1.146-1.433-1.642-1.047-4.208-.152-6.195 1.792-3.947 8.365-10.626 13.436-8.708 7.29 2.76-.606 11.04-3.858 13.468zm-14.953 10.032c.965 1.187 1.97 2.691 1.447 4.127-.469 1.269-2.026 1.862-3.363 1.655-1.336-.207-2.508-.993-3.61-1.766-2.577-1.794-7.869-5.547-4.492-9.066 3.514-3.671 8.006 2.553 10.018 5.05zm21.568-50.064c1.102.125 2.218.856 2.411 1.96.221 1.283-.841 2.401-1.874 3.188-2.563 1.973-10.253 7.313-11.975 2.166-1.612-4.857 8.034-7.686 11.438-7.314zm-14.181-16.918c1.585.152 3.169-.427 4.768-.331 1.585.097 3.362 1.38 3.004 2.939-.331 1.436-2.108 1.918-3.583 2.015a28.608 28.608 0 01-7.51-.524c-.579-.111-1.199-.29-1.516-.773-.648-.952.386-2.222 1.475-2.553 1.088-.331 2.329-.221 3.321-.787l.041.014zm-15.516 10.943c-1.598.042-3.142-.635-4.726-.635-1.599 0-3.445 1.16-3.197 2.733.234 1.462 1.984 2.056 3.445 2.249a28.63 28.63 0 007.524-.028c.578-.082 1.212-.207 1.571-.662.702-.911-.235-2.235-1.309-2.649-1.075-.414-2.316-.373-3.266-1.008h-.042zm1.57 117.599c-.399-.332-.84-.677-1.35-.677-.689 0-1.227.649-1.351 1.325-.124.676.055 1.366.262 2.015 1.075 3.615 13.216 29.834 15.999 25.128 1.654-2.787-2.411-12.005-3.597-14.613-2.328-5.037-5.718-9.591-9.963-13.178z" fill="#23A873"/><path d="M397.287 183.311s.73-6.362-.8-6.872" stroke="#263238" stroke-miterlimit="10" stroke-linecap="round" stroke-linejoin="round"/><path d="M398.637 176.646c-.965-2.167-1.998-4.43-3.914-5.824-1.915-1.393-4.975-1.504-6.366.414-1.558 2.139 0 5.396 2.384 6.541 2.384 1.146 5.181.801 7.799.428.028-.386.042-.773.069-1.173l.028-.386z" fill="#23A873"/><path d="M572.42 334.124V197.773M147.297 334.124h16.84m-148.786 0h34.272m116.043-207.142h-60.73v-57.93m414.691 40.239h-64.519v47.125h-70.707m173.288 112.465v-104.13m-28.814-45.193v81.609m-28.814-81.609v72.143m-28.815-72.143v126.195M333.193 101.66V18.684H215.882v82.976" stroke="#263238" stroke-miterlimit="10" stroke-linecap="round" stroke-linejoin="round"/><path d="M324.594 59.903V28.537h-21.677m-4.78 31.366V28.537H276.46m-4.782 31.366V28.537h-21.677m-4.782 31.366V28.537h-21.677m101.052 73.123V70.294h-21.677m-4.78 31.366V70.294H276.46m-4.782 31.366V70.294h-21.677m-4.782 31.366V70.294h-21.677M95.553 76.228v103.978m-42.61 146.301h-3.32M70.004 106.09v116.411m-25.549 74.282v29.724H24.074m20.381-182.469v79.056m-25.535-19.07v122.483h-4.644" stroke="#263238" stroke-miterlimit="10" stroke-linecap="round" stroke-linejoin="round"/><path d="M330.107 336.622h263.204v171.195H330.107V336.622z" fill="#fff" stroke="#263238" stroke-miterlimit="10" stroke-linecap="round" stroke-linejoin="round"/><path d="M593.311 336.622l-131.602 85.597-131.602-85.597h263.204z" fill="#fff" stroke="#263238" stroke-miterlimit="10" stroke-linecap="round" stroke-linejoin="round"/><path d="M501.272 396.497l92.039 111.32m-171.883-111.32l-92.039 111.32" stroke="#263238" stroke-miterlimit="10" stroke-linecap="round" stroke-linejoin="round"/><path d="M189.258 118.178h61.184a9.819 9.819 0 018.627 5.119l.027.056c4.658 8.403 15.241 11.439 23.634 6.775a17.47 17.47 0 006.766-6.775 9.846 9.846 0 018.668-5.175h61.088c7.055-.083 12.843 5.561 12.939 12.626v345.55c-.096 7.066-5.884 12.723-12.939 12.627H189.258c-7.056.083-12.857-5.561-12.954-12.627v-345.55c.097-7.065 5.898-12.723 12.954-12.626z" fill="#23A873"/><path d="M170.339 126.982c0-9.77 7.91-17.677 17.653-17.677h172.515c9.757 0 17.667 7.907 17.667 17.677v363.172c0 9.77-7.91 17.677-17.653 17.677H188.019c-9.756 0-17.666-7.907-17.666-17.677V126.982h-.014zm5.967 349.372c.097 7.066 5.898 12.723 12.954 12.627h169.993c7.056.083 12.844-5.561 12.94-12.627v-345.55c-.096-7.065-5.884-12.723-12.94-12.626h-61.129a9.848 9.848 0 00-8.668 5.175c-4.658 8.403-15.241 11.439-23.633 6.775a17.464 17.464 0 01-6.766-6.775l-.028-.056a9.816 9.816 0 00-8.626-5.119h-61.185c-7.055-.083-12.857 5.561-12.953 12.626l.041 345.55z" fill="#263238"/><path opacity=".2" d="M228.96 109.291l114.569 398.526-45.488-.055-110.353-398.471h41.272zm17.087 0l121.129 398.526-6.629-.041-118.868-398.485h4.368z" fill="#fff"/><path d="M243.348 405.55c-.289 16.697 12.995 30.234 29.669 30.234s30.441-13.537 30.73-30.234c.29-16.697-12.995-30.235-29.669-30.235s-30.427 13.538-30.73 30.235z" fill="#fff" stroke="#263238" stroke-miterlimit="10" stroke-linecap="round" stroke-linejoin="round"/><path d="M264.803 428.126a22.466 22.466 0 01-7.566-4.665 20.722 20.722 0 01-5.002-7.575 27.036 27.036 0 01-1.805-10.074 23.898 23.898 0 011.529-8.611 21.62 21.62 0 014.121-6.858 27.495 27.495 0 0113.187-8.045 29.762 29.762 0 017.635-1.007 25.759 25.759 0 016.339.759 20.592 20.592 0 015.691 2.359 18.72 18.72 0 014.644 3.947 17.088 17.088 0 013.114 5.658 22.555 22.555 0 011.13 7.299 20.315 20.315 0 01-4.809 12.999 17.767 17.767 0 01-4.685 3.795 10.257 10.257 0 01-4.989 1.394 5.518 5.518 0 01-3.349-1.076 3.886 3.886 0 01-1.584-3.119c-2.054 2.898-4.837 4.347-8.337 4.347-2.853 0-5.14-.98-6.849-2.926-1.709-1.959-2.563-4.36-2.55-7.217a19.389 19.389 0 011.117-6.375 21.201 21.201 0 013.045-5.768 15.014 15.014 0 014.823-4.209 12.632 12.632 0 016.188-1.628 8.972 8.972 0 014.327 1.062 7.12 7.12 0 013.004 3.078l.275-.911a2.575 2.575 0 013.252-1.629c.249.083.497.207.703.373.427.345.662.869.62 1.421 0 .263-.041.511-.124.759l-4.464 14.876c-.51 1.697-.758 2.87-.758 3.505 0 1.076.551 1.601 1.639 1.601 1.42 0 2.825-.663 4.203-1.974a14.273 14.273 0 003.349-5.229 18.329 18.329 0 001.295-6.762 19.316 19.316 0 00-.882-6.017 14.426 14.426 0 00-2.37-4.65 14.256 14.256 0 00-3.596-3.215 15.433 15.433 0 00-4.438-1.918 19.823 19.823 0 00-4.933-.635 22.72 22.72 0 00-6.242.883 22.053 22.053 0 00-5.898 2.663 23.069 23.069 0 00-4.961 4.223 18.525 18.525 0 00-3.432 5.851 20.572 20.572 0 00-1.281 7.3 22.493 22.493 0 001.571 8.624 16.21 16.21 0 004.299 6.21 19.264 19.264 0 006.229 3.643 21.738 21.738 0 007.51 1.256c2.729 0 5.457-.414 8.062-1.228a2.34 2.34 0 01.813-.125 1.845 1.845 0 011.419.58c.345.359.537.842.537 1.338a1.667 1.667 0 01-1.295 1.767 35.399 35.399 0 01-10.046 1.545 26.21 26.21 0 01-9.425-1.669zm11.382-14.31a7.827 7.827 0 002.88-3.961l2.88-10.142-.193-.414a4.348 4.348 0 00-.661-.925c-.345-.4-.717-.759-1.116-1.104a5.517 5.517 0 00-1.723-.938 6.81 6.81 0 00-5.002.179 8.003 8.003 0 00-2.343 1.532 12.724 12.724 0 00-1.901 2.236 16.222 16.222 0 00-1.447 2.69 16.559 16.559 0 00-.896 2.912 13.575 13.575 0 00-.317 2.884c0 .621.028 1.242.11 1.863.069.552.193 1.09.359 1.615.151.469.372.924.647 1.338.248.386.579.718.937.994.4.289.841.496 1.309.634.552.152 1.13.235 1.695.221a7.994 7.994 0 004.782-1.614z" fill="#23A873" stroke="#263238" stroke-miterlimit="10" stroke-linecap="round" stroke-linejoin="round"/><path d="M244.036 301.875c-.29 16.697 12.995 30.235 29.669 30.235s30.44-13.538 30.73-30.235c.289-16.697-12.995-30.234-29.669-30.234-16.688 0-30.441 13.537-30.73 30.234z" fill="#fff" stroke="#263238" stroke-miterlimit="10" stroke-linecap="round" stroke-linejoin="round"/><path d="M255.281 299.115c9.453-6.21 28.016-6.21 37.042 0 3.362.635 5.843 3.602 5.705 7.162-.138 4.016-16.798 4.016-16.661 0 .055-1.725.744-3.312 1.806-4.554-5.967-1.352-12.899-1.352-18.962 0 .978 1.256 1.557 2.829 1.488 4.554-.138 4.016-16.798 4.016-16.66 0 .151-3.56 2.838-6.527 6.242-7.162z" fill="#23A873" stroke="#263238" stroke-miterlimit="10" stroke-linecap="round" stroke-linejoin="round"/><path d="M244.022 201.167c-.165 7.438 3.886 14.089 10.39 18.519v18.063l12.94-12.957c2.04.359 4.162.538 6.339.538 16.674 0 30.441-10.805 30.73-24.163.29-13.344-12.981-24.149-29.669-24.149-16.674 0-30.427 10.819-30.73 24.149z" fill="#fff" stroke="#263238" stroke-miterlimit="10" stroke-linecap="round" stroke-linejoin="round"/><path d="M287.085 201.167a3.913 3.913 0 107.827 0 3.914 3.914 0 00-3.914-3.919c-2.163.014-3.913 1.767-3.913 3.919zm-16.742 0a3.913 3.913 0 107.827 0 3.914 3.914 0 00-3.914-3.919c-2.163.014-3.913 1.767-3.913 3.919zm-16.729 0a3.913 3.913 0 107.827 0 3.914 3.914 0 00-3.913-3.919c-2.164.014-3.914 1.767-3.914 3.919z" fill="#23A873" stroke="#263238" stroke-miterlimit="10" stroke-linecap="round" stroke-linejoin="round"/><path d="M442.953 256.241c.414.938 1.254 1.614 2.054 2.263a403.742 403.742 0 0019.526 14.613c2.439 1.725 4.975 3.478 7.331 5.41 14.167 9.494 5.526 11.812 14.167 31.904 0 .014.013.014.013.014 2.04 4.802 1.668 28.343 1.668 28.343h.703c1.557-1.448 3.693-3.518 5.333-4.595 0 0 .013.014.013 0 .276-.193.551-.345.8-.469 0 0 .013.014.013 0 .303-.152.593-.248.813-.262 1.392-.083 6.629.552 11.948.193.455-.028.909-.055 1.378-.11.772-.083 1.543-.18 2.301-.304.744-.138 1.475-.29 2.178-.483 3.982-1.104 9.522-3.45 14.8-5.713l.013-.014c.813-.345 1.613-.69 2.398-1.035.4-.179.799-.345 1.185-.51.372-.166.731-.318 1.089-.469.262-.111.524-.221.772-.332.248-.11.509-.206.744-.317.013 0 .013 0 .013.014a120.325 120.325 0 013.487-1.421 10.91 10.91 0 011.502-.456 56.95 56.95 0 00.331 3.409c.675 5.395 2.149 10.377 4.768 11.067.055.027.11.041.179.041.234.042.468.069.689.069a.51.51 0 00.207 0 5.428 5.428 0 001.708-.331c.014-.014.014-.014.028-.014 2.232-.814 4.382-2.912 5.54-5.175.537-1.062.868-2.166.868-3.173 0-4.016 1.116-27.71 1.116-34.609 0-6.9-1.447-18.974-4.809-23.445-2.04-2.705-3.873-4.099-4.989-4.775-2.673-2.263-5.829-3.891-8.489-4.761-3.679-1.187-11.878-4.264-17.583-6.417v.056c2.535.979 5.595 2.18 8.626 3.339-2.191 3.754-6.931 9.701-15.351 10.419-7.965.676-12.898-6.541-15.42-11.813-.221.083-14.084-2.552-17.308-2.414-10.446.469-18.99-5.217-22.848-7.466-5.002-2.912-11.52-.552-13.188 5.009a.42.42 0 00-.027.111c-.51 1.518-.951 3.187-.29 4.609z" fill="#23A873" stroke="#263238" stroke-linecap="round" stroke-linejoin="round"/><path d="M496.41 283.447v.504h-3.029v-4.056h2.946v.504h-2.35v1.246h2.093v.493h-2.093v1.309h2.433zm4.533-3.552l-1.831 4.056h-.59l-1.837-4.056h.644l1.503 3.332 1.515-3.332h.596zm2.37 4.103c-.421 0-.801-.089-1.139-.267a2.069 2.069 0 01-.799-.747 2.016 2.016 0 01-.286-1.061c0-.39.095-.744.286-1.06a2.02 2.02 0 01.799-.742 2.365 2.365 0 011.139-.273c.417 0 .795.091 1.133.273a1.993 1.993 0 011.079 1.802c0 .394-.095.75-.286 1.066a2.034 2.034 0 01-.793.742 2.395 2.395 0 01-1.133.267zm0-.516c.306 0 .58-.068.823-.203.246-.135.439-.32.578-.556.143-.24.215-.506.215-.8a1.5 1.5 0 00-.215-.794 1.48 1.48 0 00-.578-.562 1.665 1.665 0 00-.823-.203c-.306 0-.584.068-.835.203a1.524 1.524 0 00-.584.562c-.139.236-.209.5-.209.794 0 .294.07.56.209.8.143.236.338.421.584.556.251.135.529.203.835.203zm3.124-3.587h.596v3.552h2.26v.504h-2.856v-4.056zm6.857 0l-1.831 4.056h-.59l-1.836-4.056h.644l1.502 3.332 1.515-3.332h.596zm3.562 3.552v.504h-3.03v-4.056h2.946v.504h-2.349v1.246h2.093v.493h-2.093v1.309h2.433z" fill="#101517"/><path d="M521.035 281.848c.243.066.433.185.573.359.139.17.208.387.208.649 0 .352-.137.622-.411.812-.27.189-.666.284-1.187.284h-1.991v-4.057h1.872c.477 0 .845.093 1.103.278a.893.893 0 01.394.771.968.968 0 01-.561.904zm-2.212-1.484v1.298h1.222c.306 0 .541-.054.704-.162a.55.55 0 00.25-.487.537.537 0 00-.25-.481c-.163-.112-.398-.168-.704-.168h-1.222zm1.371 3.118c.338 0 .593-.054.764-.162.171-.108.256-.278.256-.51 0-.452-.34-.678-1.02-.678h-1.371v1.35h1.371zm5.575-.035v.505h-3.029v-4.057h2.945v.504h-2.349v1.246h2.093v.493h-2.093v1.309h2.433zm1.794-3.048h-1.431v-.504h3.453v.504h-1.431v3.553h-.591v-3.553z" fill="#fff"/><path d="M496.532 256.379c0 .013.014.013.014.013.207-.082.413-.151.62-.22l-.634.207zm-11.754 88.454c0 .055.014.11.027.165.138.538.882.745 1.461.414.62-.359 1.612-2.663 1.612-2.663l1.089-1.132.703-.772c0 .013 0 .013-.014.013-.11.263-.965 2.388-.524 3.354a.48.48 0 00.111.179 3.281 3.281 0 002.618 1.311h.041c.593-.028 2.329.207 3.845.304.055 0 .096 0 .151.013h.014c.524.028 1.02.042 1.42.014a9.41 9.41 0 003.472-1.173s4.934-.759 7.125-1.697c.151-.055.275-.124.413-.207.124-.083.262-.152.372-.235.248-.152.469-.331.675-.524 1.117-.98 1.819-2.208 1.985-2.553.027-.041.027-.055.027-.055v-.014s5.595-.235 13.105-.814c2.743-.207 5.733-.469 8.806-.773 4.754-.483 8.668-.455 11.741-.883.082-.014.151-.028.22-.041a18.847 18.847 0 001.709-.332c.014-.013.014-.013.028-.013 2.701-.704 4.561-2.098 5.539-5.175a14.63 14.63 0 00.441-1.849l-2.384-4.154s-1.64-1.408-4.175-2.401c-1.998-.8-4.561-1.311-7.318-.676-.496.11-.992.262-1.502.455-1.074.414-2.246.897-3.486 1.421-.248.097-.51.207-.758.318-.248.11-.51.207-.772.331-.358.152-.716.304-1.088.469-6.229 2.677-13.477 5.92-18.383 7.273-1.406.386-2.922.634-4.479.8a15.18 15.18 0 01-1.378.11c-5.305.345-10.542-.276-11.947-.193-1.502.097-4.796 3.312-6.959 5.327a23.149 23.149 0 01-1.475 1.283c-.055.041-.11.083-.165.138-.042.028-.083.055-.124.11-.841.773-1.337 1.96-1.599 2.926 0 0-.014 0 0 .014-.11.441-.179.828-.22 1.131v.456z" fill="#fff" stroke="#263238" stroke-linecap="round" stroke-linejoin="round"/><path d="M484.778 344.833c0 .055.013.11.027.165.166.525.896.745 1.461.4.62-.372 1.612-2.663 1.612-2.663l1.089-1.118.716-.745.014-.014c-.096.221-.978 2.374-.537 3.367a.481.481 0 00.11.18c.152.207.331.386.524.552a3.375 3.375 0 002.094.745h.055c.607-.028 2.329.193 3.831.304.069 0 .124.013.179.013.524.028 1.02.042 1.42.014a9.404 9.404 0 003.472-1.173s4.934-.773 7.125-1.697c.138-.055.275-.124.399-.193.124-.083.262-.152.373-.235.248-.166.468-.331.675-.524 1.116-.98 1.819-2.208 1.984-2.553.014-.028.028-.042.028-.055v-.014c.013-.014.013-.028.013-.028s5.43-.234 12.775-.8c2.825-.207 5.939-.483 9.136-.8 4.355-.442 7.965-.552 10.859-1.008.303-.055.606-.11.896-.165.358-.083.703-.152 1.033-.235.179-1.421.166-3.243-.523-5.023-.813-2.167-2.605-4.292-6.188-5.658-.013 0-.027-.014-.041-.014a37.165 37.165 0 00-5.278-1.517l-.014-.014c-.248.11-.496.207-.744.317-.248.11-.51.207-.772.331-.358.152-.716.304-1.088.469-6.243 2.691-13.477 5.948-18.383 7.287-1.406.386-2.935.634-4.479.786a15.15 15.15 0 01-1.378.111c-5.305.358-10.542-.263-11.933-.194-1.503.083-4.782 3.312-6.946 5.313-.606.552-1.13 1.021-1.502 1.297l-.165.124c-.041.028-.083.056-.124.111-.841.759-1.337 1.946-1.599 2.925 0 0-.013 0 0 .014a6.156 6.156 0 00-.22 1.132c.014.22.014.372.014.483z" fill="#fff" stroke="#263238" stroke-linecap="round" stroke-linejoin="round"/><path d="M501.273 341.162s-3.114 1.628-4.368 2.18c-1.254.552-1.13 2.843-1.13 2.843" fill="#fff"/><path d="M501.273 341.162s-3.114 1.628-4.368 2.18c-1.254.552-1.13 2.843-1.13 2.843" stroke="#263238" stroke-linecap="round" stroke-linejoin="round"/><path d="M497.938 338.94s-4.782 3.491-5.678 4.513a2.199 2.199 0 00-.344 2.29" fill="#fff"/><path d="M497.938 338.94s-4.782 3.491-5.678 4.513a2.199 2.199 0 00-.344 2.29" stroke="#263238" stroke-linecap="round" stroke-linejoin="round"/><path d="M489.684 340.831s4.575-4.761 5.168-4.968l-5.168 4.968z" fill="#fff"/><path d="M489.684 340.831s4.575-4.761 5.168-4.968" stroke="#263238" stroke-linecap="round" stroke-linejoin="round"/><path d="M496.545 256.406c2.508 5.258 7.441 12.475 15.406 11.799 8.434-.718 13.174-6.665 15.365-10.433-3.031-1.159-6.09-2.346-8.626-3.339v-.055c0-2.567.083-5.644.358-8.694.055-.662.138-1.339.221-2.001.069-.524.138-1.062.234-1.573h-16.04s.096.649.22 1.711c0 .014 0 .028.014.042.096.952.234 2.221.317 3.656.124 1.905.22 4.085.151 6.251-.771.276-1.557.552-2.342.856-.496.166-1.006.359-1.516.524-.606.221-1.199.414-1.833.621l-1.309.414c-.22.056-.413.138-.62.221z" fill="#fff" stroke="#263238" stroke-linecap="round" stroke-linejoin="round"/><path d="M519.27 243.683s-2.991 7.783-7.332 9.108c-4.34 1.338-8.24-8.942-8.24-8.942s6.118 6.554 8.392 5.464c2.26-1.062 7.18-5.63 7.18-5.63z" fill="#263238"/><path d="M521.833 200.712c4.189 3.464 7.069 8.238 9.412 13.151 1.97 4.14 3.638 8.9 2.122 13.233-.772 2.194-2.302 4.044-3.79 5.824-2.976 3.574-7.152 13.551-10.128 17.125-.193-6.362 5.126-16.642 4.561-21.983-.441-4.153-2.232-8.017-3.996-11.798-2.219-4.733-4.465-9.536-7.8-13.551-1.805-2.18-7.607-6.058-1.75-6.527 3.941-.331 8.433 2.097 11.369 4.526z" fill="#263238" stroke="#263238" stroke-linecap="round" stroke-linejoin="round"/><path d="M525.581 222.363s2.067-3.974 4.217-.193c1.557 2.732-.689 7.107-1.654 8.707a3.227 3.227 0 01-2.894 1.449l.331-9.963z" fill="#fff" stroke="#263238" stroke-linecap="round" stroke-linejoin="round"/><path d="M498.6 236.811c.386 1.228 2.522 4.264 5.085 7.052.4.441.813.869 1.24 1.283 2.563 2.539 5.333 4.554 7.152 4.181 1.585-.317 3.652-1.946 5.678-4.029a43.31 43.31 0 001.502-1.615v-.014c2.549-2.898 4.823-6.182 5.636-7.989.372-.815.62-2.001.813-3.381.427-3.243.399-7.521.358-10.419a143.648 143.648 0 01-.041-2.746c0-2.415-8.971-10.763-8.971-10.763-.193-.083-.455-.111-.758-.083-.992.083-2.591.676-4.41 1.573-5.443 2.649-13.036 7.907-13.587 9.908-.813 2.898-.496 14.434.303 17.042z" fill="#fff" stroke="#263238" stroke-linecap="round" stroke-linejoin="round"/><path d="M516.445 225.73c0 .966.358 1.766.758 1.766.399 0 .799-.758.799-1.766 0-1.007-.358-1.766-.799-1.766-.441-.014-.758.8-.758 1.766zm-10.266-1.766c-.441 0-.799.786-.799 1.766s.358 1.766.799 1.766c.441 0 .8-.786.8-1.766s-.359-1.766-.8-1.766z" fill="#263238"/><path d="M521.586 221.383s-1.447-2.732-6.256-1.918m-13.686 1.918s1.447-2.732 6.256-1.918m2.77 13.013c-1.075-.124-1.957-.869-2.108-1.78 0 0 2.687-4.167 1.874-8.197" stroke="#263238" stroke-linecap="round" stroke-linejoin="round"/><path d="M527.332 212.786a16.103 16.103 0 012.467 4.996m-14.001-16.035s1.53 2.553 8.241 7.714c.427.317.841.662 1.24 1.021" stroke="#fff" stroke-linecap="round" stroke-linejoin="round"/><path d="M537.405 282.597c.895 13.137 1.805 26.261 2.7 39.384 0-.331-.013-.676-.013-1.008" fill="#263238"/><path d="M537.405 282.597c.895 13.137 1.805 26.261 2.7 39.384 0-.331-.013-.676-.013-1.008" stroke="#263238" stroke-linecap="round" stroke-linejoin="round"/><path d="M450.353 239.281c-2.452-1.062-5.401-.593-7.62.883-2.219 1.477-3.748 3.864-4.534 6.417-.799 2.581-.868 5.465.248 7.921 1.116 2.456 3.556 4.388 6.243 4.485 1.984.069 3.886-.814 5.484-2.001 5.182-3.864 7.772-14.421.179-17.705z" fill="#fff" stroke="#263238" stroke-linecap="round" stroke-linejoin="round"/><path d="M438.944 195.22c0 .152-.041 1.255-.082 1.449-.483 2.125-1.503 7.438 1.074 8.514-.978 3.505-3.376 26.315-3.059 37.948.083 3.464.689 7.604 3.804 9.094 5.25 2.498 10.238-3.602 9.577-8.349-.91-6.499-.607-13.123-1.406-19.691-.84-6.817-2.384-13.841-.689-20.465.414-.441 3.059-5.699 3.914-7.162.372-.634.73-1.269.909-1.973.386-1.49.496-6.251.496-7.189-.785-1.491-1.805-.111-2.342.855-.386.704-.524 2.139-.441 3.753.014.318.041.649-.124.897-.221.318-.648.525-1.034.47-1.681-.249-1.612-1.67-1.598-2.733 0-3.656.014-7.3.014-10.943 0-.607-.18-2.249-.772-2.304-.648-.055-1.447.414-1.53 2.373-.096 2.195-.096 8.942-.096 8.942-.111.097-.29.18-.427.125-.138-.069-.207-.249-.248-.387-.814-3.394-1.64-6.789-2.467-10.184-.097-.4-.689-1.228-1.116-1.228-1.02 0-1.048 1.187-1.103 1.532-.358 1.821 2.191 9.314 2.618 11.053.069.304-.027.759-.316.676l-3.997-8.072c-.344-.856-1.254-1.836-2.163-1.96a.35.35 0 00-.207.014.383.383 0 00-.165.166c-.386.69 0 1.642.234 2.401.234.745 3.211 6.334 4.258 8.583.152.317.4 1.035.096 1.325-.44.179-.854-.318-1.074-.759a90.055 90.055 0 01-1.93-4.044c-.193-.4-.482-.952-.923-.855-2.604.566 1.213 6.21 2.315 8.128z" fill="#fff" stroke="#263238" stroke-linecap="round" stroke-linejoin="round"/><path d="M446.357 194.033c-1.336 1.159-2.659 2.374-3.569 3.891-.909 1.518-1.35 3.395-.827 5.079.069.22.152.441.262.648" fill="#fff"/><path d="M446.357 194.033c-1.336 1.159-2.659 2.374-3.569 3.891-.909 1.518-1.35 3.395-.827 5.079.069.22.152.441.262.648m42.955 76.6c-1.557 3.409-2.536 6.293-2.908 9.356-.4 3.257-.524 5.81 1.695 14.959" stroke="#263238" stroke-linecap="round" stroke-linejoin="round"/><path d="M516.28 206.301c.166.565.276 1.173.138 1.752-.193.745-.785 1.325-1.364 1.835a61.646 61.646 0 01-14.649 9.577c-.606.29-1.267.594-1.626 1.159-.372.566-.386 1.284-.386 1.96-.013 3.546-.041 7.107-.055 10.653 0 1.104-.013 2.222.317 3.27.772 2.484 2.481 4.499 3.721 6.776 1.24 2.277 1.929 4.581 1.846 7.176.345-2.636-8.874-7.756-11.354-18.133-.345-1.449-7.525-10.156-3.225-20.381 4.134-9.812 10.638-14.034 12.829-14.545 3.377-.773 5.967-.359 8.751 1.684 2.425 1.766 4.258 4.333 5.057 7.217z" fill="#263238" stroke="#263238" stroke-linecap="round" stroke-linejoin="round"/><path d="M507.254 236.135a28.46 28.46 0 002.398.414c2.687.345 5.705-.083 7.496-2.098-.137 1.808-1.405 8.639-5.071 8.818-3.858.193-4.823-7.134-4.823-7.134z" stroke="#263238" stroke-linecap="round" stroke-linejoin="round"/><path d="M510.836 202.119a21.878 21.878 0 01-7.331 9.025c-2.329 1.656-4.989 2.871-7.125 4.775-2.811 2.511-4.561 6.527-3.5 10.156" stroke="#fff" stroke-linecap="round" stroke-linejoin="round"/><path d="M482.035 257.869s3.982 2.787 4.892 8.569c.455 2.898.124 5.948-1.047 8.639" stroke="#263238" stroke-linecap="round" stroke-linejoin="round"/><path d="M533.368 280.638c.22 3.615 2.466 6.748 4.644 9.646l-4.644-9.646z" fill="#263238"/><path d="M533.368 280.638c.22 3.615 2.466 6.748 4.644 9.646m.73 17.994a15.298 15.298 0 01-10.115 7.176m-42.609-5.023s3.707 5.561 16.302 6.679" stroke="#263238" stroke-linecap="round" stroke-linejoin="round"/><path d="M117.051 262.064s48.024 14.903 57.064 3.132l-1.212-60.041h-7.304l-8.571 42.295-39.357-7.203s-5.043 15.649-.62 21.817z" fill="#fff"/><path d="M137.294 264.161c2.673 1.298 5.498 2.374 7.827 4.209-3.252 1.021-6.725-.29-9.963-1.325-4.286-1.366-8.695-2.276-13.105-3.077-.207-1.228 1.364-4.029 1.998-5.119 1.13-1.905 1.337-2.07 3.28-1.132 3.459 1.67 6.394 4.719 9.963 6.444z" fill="#23A873"/><path d="M117.051 262.064s48.024 14.903 57.064 3.132l-1.212-60.041h-7.304l-8.571 42.295-39.357-7.203s-5.043 15.649-.62 21.817z" stroke="#263238" stroke-miterlimit="10" stroke-linecap="round" stroke-linejoin="round"/><path d="M121.765 263.637l-8.448 51.996c.234 33.712-15.82 28.634-26.968 28.537-12.885-.11-32.439-12.902-22.848-32.815l-3.693-72.074 22.462-1.739c7.414-.565 37.717.387 40.128 4.251 6.243 10.087-.633 21.844-.633 21.844z" fill="#fff"/><path d="M76.04 274.036l-.025.459-2.76-.157.21-3.697 2.683.154-.026.459-2.14-.122-.065 1.135 1.907.109-.025.449-1.907-.109-.068 1.193 2.217.127zm4.315-3.001l-1.878 3.601-.538-.031-1.464-3.792.587.034 1.197 3.114 1.552-2.957.544.031zm1.947 3.862a2.206 2.206 0 01-1.024-.302 1.887 1.887 0 01-.69-.723 1.842 1.842 0 01-.205-.981 1.84 1.84 0 01.315-.952c.194-.278.45-.49.767-.634a2.158 2.158 0 011.052-.189c.38.022.72.124 1.018.307a1.817 1.817 0 01.89 1.699c-.02.359-.126.678-.316.956a1.86 1.86 0 01-.76.635 2.188 2.188 0 01-1.047.184zm.027-.47a1.51 1.51 0 00.76-.142 1.396 1.396 0 00.793-1.194 1.369 1.369 0 00-.155-.735 1.351 1.351 0 00-.498-.542 1.515 1.515 0 00-.739-.228 1.579 1.579 0 00-.771.141 1.391 1.391 0 00-.562.482 1.4 1.4 0 00-.23.713 1.41 1.41 0 00.148.739c.118.223.286.402.504.538.22.136.47.212.75.228zm3.031-3.106l.544.031-.184 3.237 2.06.118-.027.459-2.602-.149.21-3.696zm6.25.357l-1.879 3.601-.538-.031-1.463-3.792.587.034 1.196 3.114 1.553-2.957.543.031zm3.06 3.422l-.026.46-2.76-.158.21-3.696 2.684.153-.026.46-2.14-.123-.065 1.136 1.907.109-.025.448-1.908-.109-.067 1.194 2.216.126z" fill="#101517"/><path d="M98.562 273.86a.975.975 0 01.503.358c.118.162.17.363.156.602-.018.32-.157.56-.417.718-.256.158-.621.224-1.096.197l-1.814-.104.21-3.696 1.706.097c.434.025.765.129.99.311.23.183.336.424.32.723a.878.878 0 01-.17.493.874.874 0 01-.388.301zm-1.94-1.467l-.067 1.183 1.114.064c.28.016.496-.021.65-.111a.503.503 0 00.253-.431.49.49 0 00-.203-.451c-.143-.111-.354-.174-.633-.19l-1.113-.064zm1.089 2.913c.308.017.542-.019.704-.108.161-.09.248-.24.26-.452.023-.412-.275-.635-.894-.671l-1.25-.071-.07 1.23 1.25.072zm5.081.258l-.026.46-2.76-.158.21-3.696 2.684.153-.026.459-2.141-.122-.065 1.135 1.908.109-.026.449-1.907-.109-.068 1.194 2.217.126zm1.793-2.684l-1.304-.074.026-.46 3.146.18-.026.46-1.304-.075-.184 3.237-.538-.031.184-3.237zm15.855-4.896c-4.864 18.781-17.156 35.533-33.61 45.8 1.805-.138 3.5-.925 5.21-1.518 1.708-.593 3.637-.966 5.318-.276 1.682.676 2.894 2.774 2.054 4.388-.345.676-.979 1.146-1.585 1.587a35.39 35.39 0 01-8.888 4.554c2.77-.29 5.58-.069 8.268.648.496 2.388-2.177 4.071-4.272 5.313a26.358 26.358 0 00-8.434 7.935c7.4.014 14.787.441 22.145 1.269.979.111 2.04.221 2.908-.276 1.02-.579 1.461-1.807 1.778-2.953a75.656 75.656 0 002.838-17.621c.138-3.354.055-6.721.441-10.06.304-2.622.896-5.216 1.447-7.797a303.948 303.948 0 004.92-30.082c.523-.042-.538-.911-.538-.911zm-56.926-4.209c1.116-.359 3.404-1.283 5.127-2.76-.428 2.07-3.514 5.644-5.32 6.748-.386.235-.923.428-1.24.11-.276-.276-.551-1.131-.882-1.338l2.315-2.76z" fill="#23A873"/><path d="M121.765 263.637l-8.448 51.996c.234 33.712-15.82 28.634-26.968 28.537-12.885-.11-32.439-12.902-22.848-32.815l-3.693-72.074 22.462-1.739c7.414-.565 37.717.387 40.128 4.251 6.243 10.087-.633 21.844-.633 21.844z" stroke="#263238" stroke-miterlimit="10" stroke-linecap="round" stroke-linejoin="round"/><path d="M105.352 236.507a27.79 27.79 0 013.362 14.49c-.014.441-.055.897-.248 1.283-.62 1.228-2.315 1.228-3.666 1.394-5.305.676-8.599 6.279-13.615 8.155-.385.152-.813.276-1.226.152-.372-.11-.661-.414-.91-.718-2.177-2.69-2.949-6.623-5.925-8.403-1.295-.773-2.949-1.09-3.83-2.319-1.02-1.407-.566-3.367-.07-5.036.813-2.746 1.723-5.631 3.831-7.562 2.095-1.905 5.03-2.54 7.855-2.774a35.756 35.756 0 0112.388 1.159c-.041.538 2.054.179 2.054.179z" fill="#23A873" stroke="#263238" stroke-linecap="round" stroke-linejoin="round"/><path d="M38.668 271.792a50.338 50.338 0 007.317-16.145c.73-2.842 1.213-5.796 2.522-8.431 2.081-4.209 6.256-7.3 10.873-8.073.992-.165 2.04-.221 2.976.138 1.998.759 2.867 3.064 3.28 5.161a27.987 27.987 0 01-.744 13.537c-.923 2.967-12.016 24.591-19.375 32.967.703-4.223-4.148-18.326-6.849-19.154z" fill="#fff"/><path d="M60.414 267.556c-2.274 4.292-4.534 8.569-6.808 12.861-.964 1.835-2.08 3.795-3.982 4.595a54.837 54.837 0 002.025-13.04c.083-2.208.028-4.471.758-6.569.276.235.58-.759.58-.759.288.566 1.102.58 1.722.456 4.45-.925 7.496-4.913 10.142-8.611.716 2.456.207 5.244-1.337 7.272 0 .014-2.88 3.367-3.1 3.795z" fill="#23A873"/><path d="M38.668 271.792a50.338 50.338 0 007.317-16.145c.73-2.842 1.213-5.796 2.522-8.431 2.081-4.209 6.256-7.3 10.873-8.073.992-.165 2.04-.221 2.976.138 1.998.759 2.867 3.064 3.28 5.161a27.987 27.987 0 01-.744 13.537c-.923 2.967-12.016 24.591-19.375 32.967.703-4.223-4.148-18.326-6.849-19.154z" stroke="#263238" stroke-miterlimit="10" stroke-linecap="round" stroke-linejoin="round"/><path d="M48.22 287.248c7.413-14.227 3.83-47.015 4.064-52.286l-9.784-.524c-.978 0-5.498 27.957-8.599 39.562-2.825 10.571-.123 21.265 4.768 21.265 4.038 0 7.993-5.023 9.55-8.017z" fill="#fff" stroke="#263238" stroke-miterlimit="10" stroke-linecap="round" stroke-linejoin="round"/><path d="M136.578 250.321c-6.918-10.074-20.409-10.874-20.409-10.874" stroke="#263238" stroke-miterlimit="10" stroke-linecap="round" stroke-linejoin="round"/><path d="M163.146 255.951c-2.384-1.987-4.189-5.341-4.768-6.886l4.768 6.886z" fill="#fff"/><path d="M163.146 255.951c-2.384-1.987-4.189-5.341-4.768-6.886m-46.411 54.494c-3.941 6.43-29.366 13.33-39.508 11.853m32.301 6.265a53.22 53.22 0 01-22.09-.842m-11.658-61.6l-4.837 6.582c-.662.897-1.585 1.905-2.674 1.656" stroke="#263238" stroke-miterlimit="10" stroke-linecap="round" stroke-linejoin="round"/><path d="M34.96 508.907c.427 1.766.565 3.85-.689 5.161-1.171 1.228-3.073 1.283-4.768 1.256-1.943-.042-3.886-.069-5.829-.111-2.246-.041-4.575-.096-6.614-1.034-2.04-.939-3.735-3.023-3.514-5.258.096-.883.468-1.697.826-2.512.524-1.131 1.034-2.276 1.558-3.408 6.49-14.213 16.274-5.575 19.03 5.906zm8.214-16.738a85.13 85.13 0 001.626 19.429c.29 1.449.028 3.643-1.447 3.505-.523-.041-.937-.428-1.309-.787a39.591 39.591 0 01-10.487-18.173c-.386-1.477-.647-3.16.152-4.457.358-.58.896-1.022 1.433-1.449 4.616-3.754 10.46-7.452 10.032 1.932z" fill="#fff" stroke="#263238" stroke-miterlimit="10" stroke-linecap="round" stroke-linejoin="round"/><path d="M59.172 325.375s-7.248 12.641-8.806 15.594c-1.557 2.939-34.506 46.228-40.762 77.745-1.185 5.989 23.082 72.971 23.082 72.971l5.485-3.132s-3.831-61.09-2.894-66.168c.923-5.064 25.149-42.557 25.149-42.557s13.532-9.963 19.086-21.514l-20.34-32.939z" fill="#263238"/><path d="M58.387 357.045s4.19 9.218 4.203 10.543c.014 1.324-22.751 73.274-29.42 89.916a352.242 352.242 0 00-11.177 32.884s-2.59 3.409-.633 6.886c1.956 3.478 9.728 5.768 11.34 2.65 1.6-3.119 17.35-19.319 23.992-35.437 6.6-16.021 15.944-43.013 21.25-53.086a361.466 361.466 0 0018.506-39.618c6.698-17.125 13.519-35.575 13.519-35.575a67.712 67.712 0 01-8.351.221 69.575 69.575 0 01-19.306-3.423c-14.525-4.885-20.81-14.227-20.81-14.227s-3.596 9.743-4.52 11.633l1.406 26.633z" fill="#263238"/><path d="M12.016 424.869c1.42 2.429 3.335 4.581 5.623 6.223m-7.401-10.239c.207.676.455 1.325.744 1.974m60.538-87.295c-3.666 6.32-7.097 15.414-6.546 22.714.083 1.159 1.42 3.794 1.42 3.794m27.326-19.471c-.399 3.519-.936 9.37-.178 12.82.771 3.464 2.632 6.803 5.636 8.694m-36.725-34.83c-.923.897-1.295 2.18-1.915 3.298-1.985 3.574-5.816 6.362-8.985 6.817m22.599 3.988c-4.864 10.653-8.585 21.334-16.136 39.439m18.726-44.89c-.413.828-.813 1.656-1.213 2.484m-39.273 79.015a50.375 50.375 0 01-8.42 11.771m6.119-7.796a57.488 57.488 0 01-7.855 18.974m42.126-18.629c10.735-22.935 22.187-45.69 36.256-80.368m-38.696 87.046c.262-.8.538-1.614.827-2.414M28.69 500.903c2.742-3.601 22.848-31.697 27.836-44.489 3.321-8.5 5.83-14.503 8.324-22.976m-28.594 13.317l-9.55 28.109" stroke="#fff" stroke-miterlimit="10" stroke-linecap="round" stroke-linejoin="round"/><path d="M42.692 234.451l2.907.249c2.191.179 4.81.993 10.997-.511 2.301-.566 7.634-2.222 8.254-2.332 1.255-.248 3.528-.676 4.81-.759 4.85-.303 2.398-2.111.372-2.028-2.674.124-3.57.055-5.623.22.235-.138 1.006-.289 1.006-.883.028-1.449-1.901-1.352-1.901-1.352s2.08-.883 1.791-1.987c-.262-.966-1.681-1.366-2.577-1.297 0 0 1.172-.552 1.116-1.173-.234-2.346-5.057-2.512-5.057-2.512 1.378-.814 2.343-1.09 3.239-2.001.358-.358.62-.855.73-1.352.262-1.159-.951-2.029-1.985-1.449-1.281.704-2.37 1.822-3.582 2.691-1.489 1.049-3.211 1.739-4.782 2.691-.675.414-2.853 2.856-3.624 4.761-.235.372-6.091 9.024-6.091 9.024zm130.21-29.296v-7.658c0-3.809-.523-7.618-1.667-11.247-.634-2.015-1.364-3.781-2.053-4.029-1.254-.456-1.806 4.636-1.806 4.636s1.806-7.948 1.806-12.378c0-4.429-5.953 13.965-5.953 13.965l2.37 16.725h7.303v-.014z" fill="#fff" stroke="#263238" stroke-miterlimit="10" stroke-linecap="round" stroke-linejoin="round"/><path d="M165.668 192.791a4.474 4.474 0 01-1.543-2.18l1.543 2.18z" fill="#fff"/><path d="M165.668 192.791a4.474 4.474 0 01-1.543-2.18" stroke="#263238" stroke-miterlimit="10" stroke-linecap="round" stroke-linejoin="round"/><path d="M107.984 221.025a29.635 29.635 0 00-4.189 14.309c-.248 8.39-9.95 20.148-12.72 20.7-2.769.551-5.332-13.234-5.208-17.429.124-4.195 1.667-15.731 1.667-15.731s13.326-10.06 20.45-1.849z" fill="#fff" stroke="#263238" stroke-miterlimit="10" stroke-linecap="round" stroke-linejoin="round"/><path d="M104.084 232.119s-12.72 17.387-17.708-.29c-4.988-17.677 13.987 4.83 17.708.29z" fill="#263238"/><path d="M82.614 219.576c.675 10.308 5.374 16.104 10.79 17.125 4.947.924 12.182-4.154 15.792-11.633l.014-.014c.276-.179 4.672-3.243 5.719-3.988 1.089-.773 1.819-2.07 1.75-3.408-.069-1.27-.951-2.512-2.163-2.871-.042-.014-.097-.027-.138-.041-.634-.152-1.254-.069-1.861.138a104.936 104.936 0 002.219-10.695c-.262-8.321-3.004-15.041-11.823-15.717-8.834-.676-16.192 4.278-16.523 7.838-.262 2.76-1.144 10.06-1.957 17.608-.22 2.097-1.957 3.395-1.819 5.658z" fill="#fff" stroke="#263238" stroke-miterlimit="10" stroke-linecap="round" stroke-linejoin="round"/><path d="M86.376 207.708s5.677-2.608 4.713 5.865c-.193 1.67-3.307 4.209-3.307 4.209s.799 2.497 2.273 2.497" fill="#fff"/><path d="M86.376 207.708s5.677-2.608 4.713 5.865c-.193 1.67-3.307 4.209-3.307 4.209s.799 2.497 2.273 2.497" stroke="#263238" stroke-miterlimit="10" stroke-linecap="round" stroke-linejoin="round"/><path d="M97.346 210.606s2.894-1.766 4.878-.676a5.818 5.818 0 012.536 2.153" fill="#fff"/><path d="M97.346 210.606s2.894-1.766 4.878-.676a5.818 5.818 0 012.536 2.153" stroke="#263238" stroke-miterlimit="10" stroke-linecap="round" stroke-linejoin="round"/><path d="M98.998 215.45c-.22 1.021.055 1.945.593 2.056.551.11 1.157-.607 1.378-1.642.22-1.022-.055-1.932-.607-2.056-.55-.111-1.157.648-1.364 1.642zm-11.19-2.926c-.22 1.021.056 1.932.593 2.056.537.125 1.171-.621 1.378-1.642.207-1.007-.055-1.945-.593-2.056-.55-.11-1.157.621-1.378 1.642z" fill="#263238"/><path d="M115.398 193.619c1.061.911 1.626 2.277 2.012 3.629 1.681 5.81.896 12.296-2.109 17.539 0 0-1.529-.193-2.769.124-.965.249-2.205 1.891-2.66 2.774-.455.883-.565 1.891-.675 2.884.22-2.608.427-5.23.647-7.838.083-1.049.166-2.139-.137-3.146 0-.014 0-.014-.014-.028-.675-2.152.069-7.231-.124-11.771-5.719 7.011-14.029 5.769-16.785 5.534-4.134-.345-7.661-4.581-7.427-7.603.234-3.078 1.033-10.805 14.662-11.606 2.99-.179 6.146.18 8.654 1.808 1.695 1.104 2.784 2.898 3.101 4.885.193 1.27-.29 1.38.675 2.001.785.497 2.012 0 2.949.814z" fill="#263238" stroke="#263238" stroke-miterlimit="10" stroke-linecap="round" stroke-linejoin="round"/><path d="M97.346 225.082s-2.026 2.221-6.257.759l6.257-.759z" fill="#fff"/><path d="M97.346 225.082s-2.026 2.221-6.257.759" stroke="#263238" stroke-miterlimit="10" stroke-linecap="round" stroke-linejoin="round"/></g><defs><clipPath id="clip0"><path fill="#fff" transform="matrix(-1 0 0 1 594 0)" d="M0 0h594v516H0z"/></clipPath></defs></svg>