<svg width="490" height="593" fill="none" xmlns="http://www.w3.org/2000/svg"><path d="M117.292 434.875l24.943-11.7c-.455 24.975 5.92 34.182 24.945 49.236l-25.355 14.214c-.695-26.045-6.209-37.49-24.533-51.75zm123 0l24.943-11.7c-.455 24.975 5.92 34.182 24.945 49.236l-25.355 14.214c-.695-26.045-6.209-37.49-24.533-51.75zM220.3 302.102l27.55.137c-11.128 22.363-9.322 33.415 1.403 55.177l-29.002 1.958c10.55-23.824 11.749-36.207.049-57.272zm-1-132l27.55.137c-11.128 22.363-9.322 33.415 1.403 55.177l-29.002 1.958c10.55-23.824 11.749-36.207.049-57.272zm140.992 264.773l24.943-11.7c-.455 24.975 5.92 34.182 24.945 49.236l-25.355 14.214c-.695-26.045-6.209-37.49-24.533-51.75z" fill="#D7EFF6"/><path d="M221.886 280.548l49.79-30.105c11.324 65.771 43.13 91.599 108.325 119.224L331 407.167c-26-78.5-33.5-89.5-109.114-126.619z" fill="#D7EFF7"/><path d="M199.986 249.528l35.911 41.139c-67.397 23-69.397 41-105.236 121.96l-43.155-39.46c79.494-42 89.994-52.5 112.48-123.639zM85.234 422.963l23.936 13.643c-20.672 14.02-24.524 24.536-25.863 48.76L57.08 472.835c20.886-15.577 27.061-26.679 28.155-49.872z" fill="#D7EFF6"/><circle cx="233" cy="88" r="88" fill="#101517"/><circle cx="232.998" cy="88" r="77.889" stroke="#219E6D" stroke-width="6"/><g clip-path="url(#clip0)"><path d="M236.496 69.467a2.81 2.81 0 012.82-2.8h48.632c.885 0 1.718.412 2.251 1.112l8.4 11.045a2.786 2.786 0 01-.153 3.56l-10.282 11.355a2.827 2.827 0 01-2.096.928h-46.752a2.81 2.81 0 01-2.82-2.8v-22.4z" fill="url(#paint0_linear)"/><path d="M246.426 73.667a2.81 2.81 0 012.819-2.8h35.951c.888 0 1.723.415 2.256 1.12l5.17 6.845a2.785 2.785 0 01-.152 3.545l-6.433 7.155c-.535.595-1.3.935-2.103.935h-34.689a2.81 2.81 0 01-2.819-2.8v-14z" fill="url(#paint1_linear)"/><path d="M184.408 88.017H171.1V69.34h13.308v3.5h-9.304v3.948h9.107v3.5h-9.107v4.228h9.304v3.5z" fill="url(#paint2_linear)"/><path d="M184.408 88.017H171.1V69.34h13.308v3.5h-9.304v3.948h9.107v3.5h-9.107v4.228h9.304v3.5z" fill="#fff"/><path d="M195.545 88.017h-3.736l5.343-13.524h3.863l-5.47 13.524z" fill="url(#paint3_linear)"/><path d="M195.545 88.017h-3.736l5.343-13.524h3.863l-5.47 13.524z" fill="#fff"/><path d="M192.085 79.89l-1.875 4.802-3.997-10.2h3.835l2.037 5.397z" fill="url(#paint4_linear)"/><path d="M192.085 79.89l-1.875 4.802-3.997-10.2h3.835l2.037 5.397z" fill="#fff"/><path fill-rule="evenodd" clip-rule="evenodd" d="M208.93 88.353c2.181 0 3.929-.682 5.245-2.044 1.316-1.382 1.974-3.07 1.974-5.068 0-1.998-.658-3.678-1.974-5.04-1.316-1.363-3.064-2.044-5.245-2.044-2.18 0-3.928.681-5.244 2.044-1.297 1.362-1.946 3.042-1.946 5.04 0 1.997.649 3.686 1.946 5.068 1.316 1.362 3.064 2.044 5.244 2.044zm0-3.164c-1.071 0-1.917-.374-2.537-1.12-.621-.766-.931-1.708-.931-2.828 0-1.102.31-2.026.931-2.772.62-.766 1.466-1.148 2.537-1.148 1.072 0 1.918.382 2.538 1.148.639.746.959 1.67.959 2.772 0 1.12-.32 2.062-.959 2.828-.62.746-1.466 1.12-2.538 1.12z" fill="url(#paint5_linear)"/><path fill-rule="evenodd" clip-rule="evenodd" d="M208.93 88.353c2.181 0 3.929-.682 5.245-2.044 1.316-1.382 1.974-3.07 1.974-5.068 0-1.998-.658-3.678-1.974-5.04-1.316-1.363-3.064-2.044-5.245-2.044-2.18 0-3.928.681-5.244 2.044-1.297 1.362-1.946 3.042-1.946 5.04 0 1.997.649 3.686 1.946 5.068 1.316 1.362 3.064 2.044 5.244 2.044zm0-3.164c-1.071 0-1.917-.374-2.537-1.12-.621-.766-.931-1.708-.931-2.828 0-1.102.31-2.026.931-2.772.62-.766 1.466-1.148 2.537-1.148 1.072 0 1.918.382 2.538 1.148.639.746.959 1.67.959 2.772 0 1.12-.32 2.062-.959 2.828-.62.746-1.466 1.12-2.538 1.12z" fill="#fff"/><path d="M222.386 88.017h-3.581V69.34h3.581v18.676z" fill="url(#paint6_linear)"/><path d="M222.386 88.017h-3.581V69.34h3.581v18.676z" fill="#fff"/><path fill-rule="evenodd" clip-rule="evenodd" d="M246.794 88.353c-2.105 0-3.844-.654-5.216-1.96-1.373-1.307-2.058-3.024-2.058-5.152 0-1.998.657-3.678 1.973-5.04 1.335-1.363 3.027-2.044 5.076-2.044 2.03 0 3.674.69 4.934 2.072 1.259 1.362 1.889 3.154 1.889 5.376v.784H243.27a3.42 3.42 0 001.212 2.24c.696.597 1.598.896 2.707.896.601 0 1.25-.122 1.946-.364.714-.243 1.278-.57 1.691-.98l1.579 2.296c-1.372 1.25-3.242 1.876-5.611 1.876zm3.13-8.372c-.056-.766-.366-1.456-.93-2.072-.546-.616-1.354-.924-2.425-.924-1.015 0-1.805.308-2.369.924a3.574 3.574 0 00-.987 2.072h6.711z" fill="url(#paint7_linear)"/><path fill-rule="evenodd" clip-rule="evenodd" d="M246.794 88.353c-2.105 0-3.844-.654-5.216-1.96-1.373-1.307-2.058-3.024-2.058-5.152 0-1.998.657-3.678 1.973-5.04 1.335-1.363 3.027-2.044 5.076-2.044 2.03 0 3.674.69 4.934 2.072 1.259 1.362 1.889 3.154 1.889 5.376v.784H243.27a3.42 3.42 0 001.212 2.24c.696.597 1.598.896 2.707.896.601 0 1.25-.122 1.946-.364.714-.243 1.278-.57 1.691-.98l1.579 2.296c-1.372 1.25-3.242 1.876-5.611 1.876zm3.13-8.372c-.056-.766-.366-1.456-.93-2.072-.546-.616-1.354-.924-2.425-.924-1.015 0-1.805.308-2.369.924a3.574 3.574 0 00-.987 2.072h6.711z" fill="#fff"/><path d="M233.562 88.017h-3.736l5.343-13.524h3.863l-5.47 13.524z" fill="url(#paint8_linear)"/><path d="M233.562 88.017h-3.736l5.343-13.524h3.863l-5.47 13.524z" fill="#fff"/><path d="M230.101 79.89l-1.876 4.802-3.996-10.2h3.834l2.038 5.397z" fill="url(#paint9_linear)"/><path d="M230.101 79.89l-1.876 4.802-3.996-10.2h3.834l2.038 5.397zm35.214 6.228c-1.162 0-2.03-.425-2.605-1.276l-.237 1.075h-2.149l2.487-11.206h2.149l-.914 4.1c.688-.807 1.512-1.21 2.47-1.21.936 0 1.686.297 2.25.89.564.594.846 1.417.846 2.47 0 .84-.163 1.646-.49 2.419a4.675 4.675 0 01-1.489 1.949c-.666.526-1.438.79-2.318.79zm-.355-1.898c.699 0 1.274-.274 1.725-.823.452-.56.677-1.227.677-2 0-.57-.169-1.03-.507-1.377-.339-.347-.773-.52-1.303-.52-.722 0-1.348.324-1.878.974l-.626 2.822c.406.616 1.043.924 1.912.924zm9.49 1.898c-1.297 0-2.329-.324-3.096-.974-.755-.65-1.133-1.54-1.133-2.671 0-1.344.451-2.492 1.353-3.444.902-.952 2.025-1.428 3.367-1.428 1.071 0 1.951.33 2.639.991.688.65 1.032 1.529 1.032 2.638 0 .515-.056.952-.169 1.31h-6.074v.202c0 .403.198.784.592 1.142.406.358.953.538 1.641.538.846 0 1.534-.202 2.064-.605l.677 1.461c-.823.56-1.787.84-2.893.84zm-1.861-5.023h4.094v-.168c0-.448-.163-.829-.49-1.142-.316-.325-.778-.487-1.388-.487-.552 0-1.037.184-1.454.554-.406.358-.66.773-.762 1.243zm9.604 5.023c-.756 0-1.353-.145-1.793-.436-.429-.303-.643-.745-.643-1.328 0-.19.023-.375.068-.554l.913-4.15h-1.353l.423-1.848h1.353l.491-2.217h2.165l-.49 2.217h1.658l-.44 1.848h-1.658l-.778 3.528a2.05 2.05 0 00-.034.336c0 .47.265.706.795.706.259 0 .457-.056.592-.168l.085 1.714c-.35.235-.801.352-1.354.352z" fill="#fff"/></g><path d="M185.109 101.956c1.632 0 2.916.39 3.852 1.17.936.78 1.404 1.854 1.404 3.222 0 1.368-.468 2.442-1.404 3.222-.936.78-2.22 1.17-3.852 1.17h-3.114v3.816h-1.8v-12.6h4.914zm-.054 7.218c1.14 0 2.01-.24 2.61-.72.6-.492.9-1.194.9-2.106 0-.912-.3-1.608-.9-2.088-.6-.492-1.47-.738-2.61-.738h-3.06v5.652h3.06zm16.25 2.232h-6.696l-1.386 3.15h-1.854l5.706-12.6h1.782l5.724 12.6h-1.89l-1.386-3.15zm-.63-1.44l-2.718-6.174-2.718 6.174h5.436zm15.109 4.59l-2.718-3.87c-.336.024-.6.036-.792.036h-3.114v3.834h-1.8v-12.6h4.914c1.632 0 2.916.39 3.852 1.17.936.78 1.404 1.854 1.404 3.222 0 .972-.24 1.8-.72 2.484-.48.684-1.164 1.182-2.052 1.494l2.988 4.23h-1.962zm-3.564-5.364c1.14 0 2.01-.246 2.61-.738.6-.492.9-1.194.9-2.106 0-.912-.3-1.608-.9-2.088-.6-.492-1.47-.738-2.61-.738h-3.06v5.67h3.06zm11.445-5.67h-4.32v-1.566h10.422v1.566h-4.32v11.034h-1.782v-11.034zm19.798-1.566v12.6h-1.476l-7.56-9.396v9.396h-1.8v-12.6h1.476l7.56 9.396v-9.396h1.8zm13.816 11.034v1.566h-9.144v-12.6h8.892v1.566h-7.092v3.87h6.318v1.53h-6.318v4.068h7.344zm12.238 1.566l-2.718-3.87c-.336.024-.6.036-.792.036h-3.114v3.834h-1.8v-12.6h4.914c1.632 0 2.916.39 3.852 1.17.936.78 1.404 1.854 1.404 3.222 0 .972-.24 1.8-.72 2.484-.48.684-1.164 1.182-2.052 1.494l2.988 4.23h-1.962zm-3.564-5.364c1.14 0 2.01-.246 2.61-.738.6-.492.9-1.194.9-2.106 0-.912-.3-1.608-.9-2.088-.6-.492-1.47-.738-2.61-.738h-3.06v5.67h3.06zm12.79 5.508a8.871 8.871 0 01-2.754-.432c-.876-.3-1.566-.684-2.07-1.152l.666-1.404c.48.432 1.092.786 1.836 1.062.756.264 1.53.396 2.322.396 1.044 0 1.824-.174 2.34-.522.516-.36.774-.834.774-1.422 0-.432-.144-.78-.432-1.044a2.677 2.677 0 00-1.044-.63c-.408-.144-.99-.306-1.746-.486-.948-.228-1.716-.456-2.304-.684a3.924 3.924 0 01-1.494-1.044c-.408-.48-.612-1.122-.612-1.926 0-.672.174-1.278.522-1.818.36-.54.9-.972 1.62-1.296.72-.324 1.614-.486 2.682-.486.744 0 1.476.096 2.196.288.72.192 1.338.468 1.854.828l-.594 1.44a6.298 6.298 0 00-1.692-.756 6.12 6.12 0 00-1.764-.27c-1.02 0-1.788.186-2.304.558-.504.372-.756.852-.756 1.44 0 .432.144.786.432 1.062.288.264.642.474 1.062.63.432.144 1.014.3 1.746.468.948.228 1.71.456 2.286.684a3.774 3.774 0 011.476 1.044c.42.468.63 1.098.63 1.89 0 .66-.18 1.266-.54 1.818-.36.54-.906.972-1.638 1.296-.732.312-1.632.468-2.7.468z" fill="#FCFDFF"/><g filter="url(#filter0_d)"><circle cx="54" cy="515.333" r="47" fill="#008FCF"/><circle cx="54" cy="515.333" r="43" stroke="#AAF0FF" stroke-opacity=".65" stroke-width="8"/></g><g opacity=".5"><path d="M65.5 492.667c1.288 0 2.333-1.12 2.333-2.5 0-1.381-1.045-2.5-2.334-2.5-1.288 0-2.333 1.119-2.333 2.5 0 1.38 1.045 2.5 2.333 2.5zm3.495 6.795l-.53-4.42c-.06-.641-.559-1.125-1.16-1.125h-.639a.566.566 0 00-.413.183l-.753.807-.754-.807a.566.566 0 00-.413-.183h-.638c-.602 0-1.101.484-1.16 1.109l-.53 4.437a.651.651 0 00.14.491.57.57 0 00.438.213h.63l.488 6.375c.058.64.559 1.125 1.16 1.125h1.278c.602 0 1.101-.485 1.162-1.136l.486-6.364h.63a.566.566 0 00.437-.213.643.643 0 00.14-.492zM45.5 492.667c1.288 0 2.333-1.12 2.333-2.5 0-1.381-1.045-2.5-2.334-2.5-1.288 0-2.333 1.119-2.333 2.5 0 1.38 1.045 2.5 2.333 2.5zm3.495 6.795l-.53-4.42c-.06-.641-.559-1.125-1.16-1.125h-.639a.566.566 0 00-.413.183l-.753.807-.754-.807a.566.566 0 00-.413-.183h-.638c-.602 0-1.101.484-1.16 1.109l-.53 4.437a.651.651 0 00.14.491.57.57 0 00.438.213h.63l.488 6.375c.058.64.559 1.125 1.16 1.125h1.278c.602 0 1.101-.485 1.162-1.136l.486-6.364h.63a.566.566 0 00.437-.213.643.643 0 00.14-.492z" fill="#66B8DB"/><path d="M61.5 496.917c1.656 0 2.999-1.399 2.999-3.125s-1.343-3.125-3-3.125-3 1.399-3 3.125 1.343 3.125 3 3.125zm4.493 8.494l-.68-5.525c-.077-.802-.719-1.406-1.491-1.406H63c-.2 0-.39.082-.531.228l-.97 1.009-.968-1.009a.737.737 0 00-.531-.228h-.82c-.775 0-1.417.604-1.492 1.386l-.682 5.546a.8.8 0 00.181.614.735.735 0 00.563.266h.81l.627 7.969c.075.8.718 1.406 1.492 1.406h1.643c.774 0 1.416-.606 1.494-1.421l.625-7.954h.808c.217 0 .42-.097.563-.266a.79.79 0 00.181-.615zM49.5 496.917c1.656 0 2.999-1.399 2.999-3.125s-1.343-3.125-3-3.125-3 1.399-3 3.125 1.343 3.125 3 3.125zm4.493 8.494l-.68-5.525c-.077-.802-.719-1.406-1.491-1.406H51c-.2 0-.39.082-.531.228l-.97 1.009-.968-1.009a.737.737 0 00-.531-.228h-.82c-.775 0-1.417.604-1.492 1.386l-.682 5.546a.8.8 0 00.181.614.735.735 0 00.563.266h.81l.627 7.969c.075.8.718 1.406 1.492 1.406h1.643c.774 0 1.416-.606 1.494-1.421l.625-7.954h.808c.216 0 .42-.097.563-.266a.79.79 0 00.181-.615z" fill="#95D1EA"/><path d="M55.499 499.833c2.025 0 3.666-1.679 3.666-3.75 0-2.071-1.641-3.75-3.666-3.75s-3.666 1.679-3.666 3.75c0 2.071 1.641 3.75 3.666 3.75zm5.493 10.193l-.832-6.63c-.094-.961-.878-1.687-1.822-1.687h-1.005a.91.91 0 00-.65.274l-1.183 1.211-1.185-1.211a.91.91 0 00-.649-.274h-1.002c-.946 0-1.731.726-1.823 1.663l-.834 6.656a.95.95 0 00.222.737.907.907 0 00.688.319h.99l.766 9.562c.091.96.878 1.687 1.824 1.687h2.007c.946 0 1.73-.727 1.826-1.704l.765-9.545h.988a.907.907 0 00.687-.319.939.939 0 00.222-.739z" fill="#B2E7F8"/></g><path d="M35.353 531.533h1.4v8.582h5.306v1.218h-6.706v-9.8zm16.8 0l-4.298 9.8H46.47l-4.312-9.8h1.512l3.528 8.05 3.556-8.05h1.4zm1.95 0h1.4v8.582h5.306v1.218h-6.706v-9.8zm16.426 4.116c.961.094 1.694.392 2.198.896.504.495.756 1.13.756 1.904 0 .56-.14 1.069-.42 1.526-.28.448-.7.808-1.26 1.078-.55.262-1.227.392-2.03.392-.7 0-1.372-.102-2.016-.308-.644-.214-1.171-.508-1.582-.882l.644-1.106c.336.318.765.574 1.288.77a4.91 4.91 0 001.666.28c.728 0 1.293-.154 1.694-.462.41-.308.616-.732.616-1.274 0-.541-.2-.961-.602-1.26-.401-.298-1.008-.448-1.82-.448h-.784v-.98l2.464-3.024h-4.718v-1.218h6.468v.952l-2.562 3.164z" fill="#FCFDFF"/><g filter="url(#filter1_d)"><circle cx="114" cy="392.333" r="47" fill="#008FCF"/><circle cx="114" cy="392.333" r="43" stroke="#AAF0FF" stroke-opacity=".65" stroke-width="8"/></g><g opacity=".5"><path d="M121.499 373.917c1.657 0 3-1.4 3-3.125 0-1.726-1.343-3.125-3-3.125s-3 1.399-3 3.125c0 1.725 1.343 3.125 3 3.125zm4.494 8.494l-.68-5.525c-.077-.802-.719-1.406-1.491-1.406H123c-.2 0-.39.082-.531.228l-.969 1.009-.969-1.009a.738.738 0 00-.531-.228h-.821c-.774 0-1.416.604-1.491 1.385l-.682 5.547a.802.802 0 00.181.614.737.737 0 00.563.266h.81l.627 7.968c.075.8.718 1.407 1.492 1.407h1.643c.774 0 1.416-.607 1.494-1.421l.625-7.954h.809c.216 0 .42-.097.562-.266a.788.788 0 00.181-.615zm-16.494-8.494c1.657 0 3-1.4 3-3.125 0-1.726-1.343-3.125-3-3.125s-3 1.399-3 3.125c0 1.725 1.343 3.125 3 3.125zm4.494 8.494l-.68-5.525c-.077-.802-.719-1.406-1.491-1.406H111c-.2 0-.39.082-.531.228l-.969 1.009-.969-1.009a.738.738 0 00-.531-.228h-.821c-.774 0-1.416.604-1.491 1.385l-.682 5.547a.802.802 0 00.181.614.737.737 0 00.563.266h.81l.627 7.968c.075.8.718 1.407 1.492 1.407h1.643c.774 0 1.416-.607 1.494-1.421l.625-7.954h.809c.216 0 .42-.097.562-.266a.788.788 0 00.181-.615z" fill="#95D1EA"/><path d="M115.499 376.833c2.025 0 3.666-1.679 3.666-3.75 0-2.071-1.641-3.75-3.666-3.75s-3.667 1.679-3.667 3.75c0 2.071 1.642 3.75 3.667 3.75zm5.493 10.193l-.832-6.63c-.094-.962-.878-1.687-1.822-1.687h-1.005a.91.91 0 00-.649.274l-1.184 1.211-1.185-1.211a.91.91 0 00-.649-.274h-1.002c-.946 0-1.731.725-1.823 1.663l-.834 6.656a.95.95 0 00.222.737.908.908 0 00.688.319h.989l.767 9.562c.091.96.878 1.687 1.824 1.687h2.007c.946 0 1.731-.727 1.826-1.704l.765-9.545h.988a.906.906 0 00.687-.319.938.938 0 00.222-.739z" fill="#B2E7F8"/></g><path d="M95.34 408.533h1.4v8.582h5.306v1.218h-6.707v-9.8zm16.799 0l-4.298 9.8h-1.386l-4.312-9.8h1.512l3.528 8.05 3.556-8.05h1.4zm1.95 0h1.4v8.582h5.306v1.218h-6.706v-9.8zm19.562 8.582v1.218h-7.042v-.952l3.99-3.85c.486-.466.812-.868.98-1.204.168-.345.252-.69.252-1.036 0-.513-.182-.91-.546-1.19-.354-.289-.868-.434-1.54-.434-1.082 0-1.918.355-2.506 1.064l-.952-.826c.383-.466.882-.83 1.498-1.092.626-.261 1.321-.392 2.086-.392 1.027 0 1.844.248 2.45.742.607.486.91 1.148.91 1.988 0 .523-.112 1.018-.336 1.484-.224.467-.648.999-1.274 1.596l-2.996 2.884h5.026z" fill="#FCFDFF"/><g filter="url(#filter2_d)"><circle cx="354" cy="392.333" r="47" fill="#008FCF"/><circle cx="354" cy="392.333" r="43" stroke="#AAF0FF" stroke-opacity=".65" stroke-width="8"/></g><g opacity=".5"><path d="M361.499 373.917c1.657 0 3-1.4 3-3.125 0-1.726-1.343-3.125-3-3.125s-3 1.399-3 3.125c0 1.725 1.343 3.125 3 3.125zm4.494 8.494l-.68-5.525c-.077-.802-.719-1.406-1.491-1.406H363c-.2 0-.39.082-.531.228l-.969 1.009-.969-1.009a.738.738 0 00-.531-.228h-.821c-.774 0-1.416.604-1.491 1.385l-.682 5.547a.802.802 0 00.181.614.737.737 0 00.563.266h.81l.627 7.968c.075.8.718 1.407 1.492 1.407h1.643c.774 0 1.416-.607 1.494-1.421l.625-7.954h.809c.216 0 .42-.097.562-.266a.788.788 0 00.181-.615zm-16.494-8.494c1.657 0 3-1.4 3-3.125 0-1.726-1.343-3.125-3-3.125s-3 1.399-3 3.125c0 1.725 1.343 3.125 3 3.125zm4.494 8.494l-.68-5.525c-.077-.802-.719-1.406-1.491-1.406H351c-.2 0-.39.082-.531.228l-.969 1.009-.969-1.009a.738.738 0 00-.531-.228h-.821c-.774 0-1.416.604-1.491 1.385l-.682 5.547a.802.802 0 00.181.614.737.737 0 00.563.266h.81l.627 7.968c.075.8.718 1.407 1.492 1.407h1.643c.774 0 1.416-.607 1.494-1.421l.625-7.954h.809c.216 0 .42-.097.562-.266a.788.788 0 00.181-.615z" fill="#95D1EA"/><path d="M355.499 376.833c2.025 0 3.666-1.679 3.666-3.75 0-2.071-1.641-3.75-3.666-3.75s-3.667 1.679-3.667 3.75c0 2.071 1.642 3.75 3.667 3.75zm5.493 10.193l-.832-6.63c-.094-.962-.878-1.687-1.822-1.687h-1.005a.91.91 0 00-.649.274l-1.184 1.211-1.185-1.211a.91.91 0 00-.649-.274h-1.002c-.946 0-1.731.725-1.823 1.663l-.834 6.656a.95.95 0 00.222.737.908.908 0 00.688.319h.989l.767 9.562c.091.96.878 1.687 1.824 1.687h2.007c.946 0 1.731-.727 1.826-1.704l.765-9.545h.988a.906.906 0 00.687-.319.938.938 0 00.222-.739z" fill="#B2E7F8"/></g><path d="M335.34 408.533h1.4v8.582h5.306v1.218h-6.706v-9.8zm16.799 0l-4.298 9.8h-1.386l-4.312-9.8h1.512l3.528 8.05 3.556-8.05h1.4zm1.95 0h1.4v8.582h5.306v1.218h-6.706v-9.8zm19.562 8.582v1.218h-7.042v-.952l3.99-3.85c.486-.466.812-.868.98-1.204.168-.345.252-.69.252-1.036 0-.513-.182-.91-.546-1.19-.354-.289-.868-.434-1.54-.434-1.082 0-1.918.355-2.506 1.064l-.952-.826c.383-.466.882-.83 1.498-1.092.626-.261 1.321-.392 2.086-.392 1.027 0 1.844.248 2.45.742.607.486.91 1.148.91 1.988 0 .523-.112 1.018-.336 1.484-.224.467-.648.999-1.274 1.596l-2.996 2.884h5.026z" fill="#FCFDFF"/><g filter="url(#filter3_d)"><circle cx="234" cy="392.333" r="47" fill="#008FCF"/><circle cx="234" cy="392.333" r="43" stroke="#AAF0FF" stroke-opacity=".65" stroke-width="8"/></g><g opacity=".5"><path d="M241.499 373.917c1.657 0 3-1.4 3-3.125 0-1.726-1.343-3.125-3-3.125s-3 1.399-3 3.125c0 1.725 1.343 3.125 3 3.125zm4.494 8.494l-.68-5.525c-.077-.802-.719-1.406-1.491-1.406H243c-.2 0-.39.082-.531.228l-.969 1.009-.969-1.009a.738.738 0 00-.531-.228h-.821c-.774 0-1.416.604-1.491 1.385l-.682 5.547a.802.802 0 00.181.614.737.737 0 00.563.266h.81l.627 7.968c.075.8.718 1.407 1.492 1.407h1.643c.774 0 1.416-.607 1.494-1.421l.625-7.954h.809c.216 0 .42-.097.562-.266a.788.788 0 00.181-.615zm-16.494-8.494c1.657 0 3-1.4 3-3.125 0-1.726-1.343-3.125-3-3.125s-3 1.399-3 3.125c0 1.725 1.343 3.125 3 3.125zm4.494 8.494l-.68-5.525c-.077-.802-.719-1.406-1.491-1.406H231c-.2 0-.39.082-.531.228l-.969 1.009-.969-1.009a.738.738 0 00-.531-.228h-.821c-.774 0-1.416.604-1.491 1.385l-.682 5.547a.802.802 0 00.181.614.737.737 0 00.563.266h.81l.627 7.968c.075.8.718 1.407 1.492 1.407h1.643c.774 0 1.416-.607 1.494-1.421l.625-7.954h.809c.216 0 .42-.097.562-.266a.788.788 0 00.181-.615z" fill="#95D1EA"/><path d="M235.499 376.833c2.025 0 3.666-1.679 3.666-3.75 0-2.071-1.641-3.75-3.666-3.75s-3.667 1.679-3.667 3.75c0 2.071 1.642 3.75 3.667 3.75zm5.493 10.193l-.832-6.63c-.094-.962-.878-1.687-1.822-1.687h-1.005a.91.91 0 00-.649.274l-1.184 1.211-1.185-1.211a.91.91 0 00-.649-.274h-1.002c-.946 0-1.731.725-1.823 1.663l-.834 6.656a.95.95 0 00.222.737.908.908 0 00.688.319h.989l.767 9.562c.091.96.878 1.687 1.824 1.687h2.007c.946 0 1.731-.727 1.826-1.704l.765-9.545h.988a.906.906 0 00.687-.319.938.938 0 00.222-.739z" fill="#B2E7F8"/></g><path d="M215.34 408.533h1.4v8.582h5.306v1.218h-6.706v-9.8zm16.799 0l-4.298 9.8h-1.386l-4.312-9.8h1.512l3.528 8.05 3.556-8.05h1.4zm1.95 0h1.4v8.582h5.306v1.218h-6.706v-9.8zm19.562 8.582v1.218h-7.042v-.952l3.99-3.85c.486-.466.812-.868.98-1.204.168-.345.252-.69.252-1.036 0-.513-.182-.91-.546-1.19-.354-.289-.868-.434-1.54-.434-1.082 0-1.918.355-2.506 1.064l-.952-.826c.383-.466.882-.83 1.498-1.092.626-.261 1.321-.392 2.086-.392 1.027 0 1.844.248 2.45.742.607.486.91 1.148.91 1.988 0 .523-.112 1.018-.336 1.484-.224.467-.648.999-1.274 1.596l-2.996 2.884h5.026z" fill="#FCFDFF"/><g filter="url(#filter4_d)"><circle cx="234" cy="265.333" r="47" fill="#008FCF"/><circle cx="234" cy="265.333" r="43" stroke="#AAF0FF" stroke-opacity=".65" stroke-width="8"/></g><path d="M234.499 244.833c2.025 0 3.666-1.679 3.666-3.75 0-2.071-1.641-3.75-3.666-3.75s-3.667 1.679-3.667 3.75c0 2.071 1.642 3.75 3.667 3.75zm5.493 10.193l-.832-6.63c-.094-.962-.878-1.687-1.822-1.687h-1.005a.91.91 0 00-.649.274l-1.184 1.211-1.185-1.211a.91.91 0 00-.649-.274h-1.002c-.946 0-1.731.725-1.823 1.663l-.834 6.656a.95.95 0 00.222.737.908.908 0 00.688.319h.989l.767 9.562c.091.96.878 1.687 1.824 1.687h2.007c.946 0 1.731-.727 1.826-1.704l.765-9.545h.988a.906.906 0 00.687-.319.938.938 0 00.222-.739z" opacity=".5" fill="#B2E7F8"/><path d="M216.768 281.533h1.4v8.582h5.306v1.218h-6.706v-9.8zm16.8 0l-4.298 9.8h-1.386l-4.312-9.8h1.512l3.528 8.05 3.556-8.05h1.4zm1.95 0h1.4v8.582h5.306v1.218h-6.706v-9.8zm15.712 0v9.8h-1.386v-8.582h-2.212v-1.218h3.598z" fill="#FCFDFF"/><g filter="url(#filter5_d)"><circle cx="174" cy="515.333" r="47" fill="#008FCF"/><circle cx="174" cy="515.333" r="43" stroke="#AAF0FF" stroke-opacity=".65" stroke-width="8"/></g><g opacity=".5"><path d="M185.499 492.667c1.289 0 2.334-1.12 2.334-2.5 0-1.381-1.045-2.5-2.334-2.5-1.288 0-2.333 1.119-2.333 2.5 0 1.38 1.045 2.5 2.333 2.5zm3.496 6.795l-.53-4.42c-.059-.641-.559-1.125-1.159-1.125h-.64a.567.567 0 00-.413.183l-.753.807-.754-.807a.567.567 0 00-.413-.183h-.638c-.602 0-1.101.484-1.16 1.109l-.53 4.437a.65.65 0 00.141.491.566.566 0 00.437.213h.63l.488 6.375c.058.64.559 1.125 1.161 1.125h1.277c.602 0 1.101-.485 1.162-1.136l.486-6.364h.629a.568.568 0 00.438-.213.644.644 0 00.141-.492zm-23.496-6.795c1.289 0 2.334-1.12 2.334-2.5 0-1.381-1.045-2.5-2.334-2.5-1.288 0-2.333 1.119-2.333 2.5 0 1.38 1.045 2.5 2.333 2.5zm3.496 6.795l-.53-4.42c-.059-.641-.559-1.125-1.159-1.125h-.64a.567.567 0 00-.413.183l-.753.807-.754-.807a.567.567 0 00-.413-.183h-.638c-.602 0-1.101.484-1.16 1.109l-.53 4.437a.65.65 0 00.141.491.566.566 0 00.437.213h.63l.488 6.375c.058.64.559 1.125 1.161 1.125h1.277c.602 0 1.101-.485 1.162-1.136l.486-6.364h.629a.568.568 0 00.438-.213.644.644 0 00.141-.492z" fill="#66B8DB"/><path d="M181.499 496.917c1.657 0 3-1.399 3-3.125s-1.343-3.125-3-3.125-3 1.399-3 3.125 1.343 3.125 3 3.125zm4.494 8.494l-.68-5.525c-.077-.802-.719-1.406-1.491-1.406H183c-.2 0-.39.082-.531.228l-.969 1.009-.969-1.009a.738.738 0 00-.531-.228h-.821c-.774 0-1.416.604-1.491 1.386l-.682 5.546a.802.802 0 00.181.614.737.737 0 00.563.266h.81l.627 7.969c.075.8.718 1.406 1.492 1.406h1.643c.774 0 1.416-.606 1.494-1.421l.625-7.954h.809c.216 0 .42-.097.562-.266a.788.788 0 00.181-.615zm-16.494-8.494c1.657 0 3-1.399 3-3.125s-1.343-3.125-3-3.125-3 1.399-3 3.125 1.343 3.125 3 3.125zm4.494 8.494l-.68-5.525c-.077-.802-.719-1.406-1.491-1.406H171c-.2 0-.39.082-.531.228l-.969 1.009-.969-1.009a.738.738 0 00-.531-.228h-.821c-.774 0-1.416.604-1.491 1.386l-.682 5.546a.802.802 0 00.181.614.737.737 0 00.563.266h.81l.627 7.969c.075.8.718 1.406 1.492 1.406h1.643c.774 0 1.416-.606 1.494-1.421l.625-7.954h.809c.216 0 .42-.097.562-.266a.788.788 0 00.181-.615z" fill="#95D1EA"/><path d="M175.499 499.833c2.025 0 3.666-1.679 3.666-3.75 0-2.071-1.641-3.75-3.666-3.75s-3.667 1.679-3.667 3.75c0 2.071 1.642 3.75 3.667 3.75zm5.493 10.193l-.832-6.63c-.094-.961-.878-1.687-1.822-1.687h-1.005a.91.91 0 00-.649.274l-1.184 1.211-1.185-1.211a.91.91 0 00-.649-.274h-1.002c-.946 0-1.731.726-1.823 1.663l-.834 6.656a.95.95 0 00.222.737.908.908 0 00.688.319h.989l.767 9.562c.091.96.878 1.687 1.824 1.687h2.007c.946 0 1.731-.727 1.826-1.704l.765-9.545h.988a.906.906 0 00.687-.319.938.938 0 00.222-.739z" fill="#B2E7F8"/></g><path d="M155.353 531.533h1.4v8.582h5.306v1.218h-6.706v-9.8zm16.8 0l-4.298 9.8h-1.386l-4.312-9.8h1.512l3.528 8.05 3.556-8.05h1.4zm1.95 0h1.4v8.582h5.306v1.218h-6.706v-9.8zm16.426 4.116c.961.094 1.694.392 2.198.896.504.495.756 1.13.756 1.904 0 .56-.14 1.069-.42 1.526-.28.448-.7.808-1.26 1.078-.551.262-1.227.392-2.03.392-.7 0-1.372-.102-2.016-.308-.644-.214-1.171-.508-1.582-.882l.644-1.106c.336.318.765.574 1.288.77a4.91 4.91 0 001.666.28c.728 0 1.293-.154 1.694-.462.411-.308.616-.732.616-1.274 0-.541-.201-.961-.602-1.26-.401-.298-1.008-.448-1.82-.448h-.784v-.98l2.464-3.024h-4.718v-1.218h6.468v.952l-2.562 3.164z" fill="#FCFDFF"/><g filter="url(#filter6_d)"><circle cx="294" cy="515.333" r="47" fill="#008FCF"/><circle cx="294" cy="515.333" r="43" stroke="#AAF0FF" stroke-opacity=".65" stroke-width="8"/></g><g opacity=".5"><path d="M305.499 492.667c1.289 0 2.334-1.12 2.334-2.5 0-1.381-1.045-2.5-2.334-2.5-1.288 0-2.333 1.119-2.333 2.5 0 1.38 1.045 2.5 2.333 2.5zm3.496 6.795l-.53-4.42c-.059-.641-.559-1.125-1.159-1.125h-.64a.567.567 0 00-.413.183l-.753.807-.754-.807a.567.567 0 00-.413-.183h-.638c-.602 0-1.101.484-1.16 1.109l-.53 4.437a.65.65 0 00.141.491.566.566 0 00.437.213h.63l.488 6.375c.058.64.559 1.125 1.161 1.125h1.277c.602 0 1.101-.485 1.162-1.136l.486-6.364h.629a.568.568 0 00.438-.213.644.644 0 00.141-.492zm-23.496-6.795c1.289 0 2.334-1.12 2.334-2.5 0-1.381-1.045-2.5-2.334-2.5-1.288 0-2.333 1.119-2.333 2.5 0 1.38 1.045 2.5 2.333 2.5zm3.496 6.795l-.53-4.42c-.059-.641-.559-1.125-1.159-1.125h-.64a.567.567 0 00-.413.183l-.753.807-.754-.807a.567.567 0 00-.413-.183h-.638c-.602 0-1.101.484-1.16 1.109l-.53 4.437a.65.65 0 00.141.491.566.566 0 00.437.213h.63l.488 6.375c.058.64.559 1.125 1.161 1.125h1.277c.602 0 1.101-.485 1.162-1.136l.486-6.364h.629a.568.568 0 00.438-.213.644.644 0 00.141-.492z" fill="#66B8DB"/><path d="M301.499 496.917c1.657 0 3-1.399 3-3.125s-1.343-3.125-3-3.125-3 1.399-3 3.125 1.343 3.125 3 3.125zm4.494 8.494l-.68-5.525c-.077-.802-.719-1.406-1.491-1.406H303c-.2 0-.39.082-.531.228l-.969 1.009-.969-1.009a.738.738 0 00-.531-.228h-.821c-.774 0-1.416.604-1.491 1.386l-.682 5.546a.802.802 0 00.181.614.737.737 0 00.563.266h.81l.627 7.969c.075.8.718 1.406 1.492 1.406h1.643c.774 0 1.416-.606 1.494-1.421l.625-7.954h.809c.216 0 .42-.097.562-.266a.788.788 0 00.181-.615zm-16.494-8.494c1.657 0 3-1.399 3-3.125s-1.343-3.125-3-3.125-3 1.399-3 3.125 1.343 3.125 3 3.125zm4.494 8.494l-.68-5.525c-.077-.802-.719-1.406-1.491-1.406H291c-.2 0-.39.082-.531.228l-.969 1.009-.969-1.009a.738.738 0 00-.531-.228h-.821c-.774 0-1.416.604-1.491 1.386l-.682 5.546a.802.802 0 00.181.614.737.737 0 00.563.266h.81l.627 7.969c.075.8.718 1.406 1.492 1.406h1.643c.774 0 1.416-.606 1.494-1.421l.625-7.954h.809c.216 0 .42-.097.562-.266a.788.788 0 00.181-.615z" fill="#95D1EA"/><path d="M295.499 499.833c2.025 0 3.666-1.679 3.666-3.75 0-2.071-1.641-3.75-3.666-3.75s-3.667 1.679-3.667 3.75c0 2.071 1.642 3.75 3.667 3.75zm5.493 10.193l-.832-6.63c-.094-.961-.878-1.687-1.822-1.687h-1.005a.91.91 0 00-.649.274l-1.184 1.211-1.185-1.211a.91.91 0 00-.649-.274h-1.002c-.946 0-1.731.726-1.823 1.663l-.834 6.656a.95.95 0 00.222.737.908.908 0 00.688.319h.989l.767 9.562c.091.96.878 1.687 1.824 1.687h2.007c.946 0 1.731-.727 1.826-1.704l.765-9.545h.988a.906.906 0 00.687-.319.938.938 0 00.222-.739z" fill="#B2E7F8"/></g><path d="M275.353 531.533h1.4v8.582h5.306v1.218h-6.706v-9.8zm16.8 0l-4.298 9.8h-1.386l-4.312-9.8h1.512l3.528 8.05 3.556-8.05h1.4zm1.95 0h1.4v8.582h5.306v1.218h-6.706v-9.8zm16.426 4.116c.961.094 1.694.392 2.198.896.504.495.756 1.13.756 1.904 0 .56-.14 1.069-.42 1.526-.28.448-.7.808-1.26 1.078-.551.262-1.227.392-2.03.392-.7 0-1.372-.102-2.016-.308-.644-.214-1.171-.508-1.582-.882l.644-1.106c.336.318.765.574 1.288.77a4.91 4.91 0 001.666.28c.728 0 1.293-.154 1.694-.462.411-.308.616-.732.616-1.274 0-.541-.201-.961-.602-1.26-.401-.298-1.008-.448-1.82-.448h-.784v-.98l2.464-3.024h-4.718v-1.218h6.468v.952l-2.562 3.164z" fill="#FCFDFF"/><g filter="url(#filter7_d)"><circle cx="414" cy="515.333" r="47" fill="#008FCF"/><circle cx="414" cy="515.333" r="43" stroke="#AAF0FF" stroke-opacity=".65" stroke-width="8"/></g><g opacity=".5"><path d="M425.499 492.667c1.289 0 2.334-1.12 2.334-2.5 0-1.381-1.045-2.5-2.334-2.5-1.288 0-2.333 1.119-2.333 2.5 0 1.38 1.045 2.5 2.333 2.5zm3.496 6.795l-.53-4.42c-.059-.641-.559-1.125-1.159-1.125h-.64a.567.567 0 00-.413.183l-.753.807-.754-.807a.567.567 0 00-.413-.183h-.638c-.602 0-1.101.484-1.16 1.109l-.53 4.437a.65.65 0 00.141.491.566.566 0 00.437.213h.63l.488 6.375c.058.64.559 1.125 1.161 1.125h1.277c.602 0 1.101-.485 1.162-1.136l.486-6.364h.629a.568.568 0 00.438-.213.644.644 0 00.141-.492zm-23.496-6.795c1.289 0 2.334-1.12 2.334-2.5 0-1.381-1.045-2.5-2.334-2.5-1.288 0-2.333 1.119-2.333 2.5 0 1.38 1.045 2.5 2.333 2.5zm3.496 6.795l-.53-4.42c-.059-.641-.559-1.125-1.159-1.125h-.64a.567.567 0 00-.413.183l-.753.807-.754-.807a.567.567 0 00-.413-.183h-.638c-.602 0-1.101.484-1.16 1.109l-.53 4.437a.65.65 0 00.141.491.566.566 0 00.437.213h.63l.488 6.375c.058.64.559 1.125 1.161 1.125h1.277c.602 0 1.101-.485 1.162-1.136l.486-6.364h.629a.568.568 0 00.438-.213.644.644 0 00.141-.492z" fill="#66B8DB"/><path d="M421.499 496.917c1.657 0 3-1.399 3-3.125s-1.343-3.125-3-3.125-3 1.399-3 3.125 1.343 3.125 3 3.125zm4.494 8.494l-.68-5.525c-.077-.802-.719-1.406-1.491-1.406H423c-.2 0-.39.082-.531.228l-.969 1.009-.969-1.009a.738.738 0 00-.531-.228h-.821c-.774 0-1.416.604-1.491 1.386l-.682 5.546a.802.802 0 00.181.614.737.737 0 00.563.266h.81l.627 7.969c.075.8.718 1.406 1.492 1.406h1.643c.774 0 1.416-.606 1.494-1.421l.625-7.954h.809c.216 0 .42-.097.562-.266a.788.788 0 00.181-.615zm-16.494-8.494c1.657 0 3-1.399 3-3.125s-1.343-3.125-3-3.125-3 1.399-3 3.125 1.343 3.125 3 3.125zm4.494 8.494l-.68-5.525c-.077-.802-.719-1.406-1.491-1.406H411c-.2 0-.39.082-.531.228l-.969 1.009-.969-1.009a.738.738 0 00-.531-.228h-.821c-.774 0-1.416.604-1.491 1.386l-.682 5.546a.802.802 0 00.181.614.737.737 0 00.563.266h.81l.627 7.969c.075.8.718 1.406 1.492 1.406h1.643c.774 0 1.416-.606 1.494-1.421l.625-7.954h.809c.216 0 .42-.097.562-.266a.788.788 0 00.181-.615z" fill="#95D1EA"/><path d="M415.499 499.833c2.025 0 3.666-1.679 3.666-3.75 0-2.071-1.641-3.75-3.666-3.75s-3.667 1.679-3.667 3.75c0 2.071 1.642 3.75 3.667 3.75zm5.493 10.193l-.832-6.63c-.094-.961-.878-1.687-1.822-1.687h-1.005a.91.91 0 00-.649.274l-1.184 1.211-1.185-1.211a.91.91 0 00-.649-.274h-1.002c-.946 0-1.731.726-1.823 1.663l-.834 6.656a.95.95 0 00.222.737.908.908 0 00.688.319h.989l.767 9.562c.091.96.878 1.687 1.824 1.687h2.007c.946 0 1.731-.727 1.826-1.704l.765-9.545h.988a.906.906 0 00.687-.319.938.938 0 00.222-.739z" fill="#B2E7F8"/></g><path d="M395.353 531.533h1.4v8.582h5.306v1.218h-6.706v-9.8zm16.8 0l-4.298 9.8h-1.386l-4.312-9.8h1.512l3.528 8.05 3.556-8.05h1.4zm1.95 0h1.4v8.582h5.306v1.218h-6.706v-9.8zm16.426 4.116c.961.094 1.694.392 2.198.896.504.495.756 1.13.756 1.904 0 .56-.14 1.069-.42 1.526-.28.448-.7.808-1.26 1.078-.551.262-1.227.392-2.03.392-.7 0-1.372-.102-2.016-.308-.644-.214-1.171-.508-1.582-.882l.644-1.106c.336.318.765.574 1.288.77a4.91 4.91 0 001.666.28c.728 0 1.293-.154 1.694-.462.411-.308.616-.732.616-1.274 0-.541-.201-.961-.602-1.26-.401-.298-1.008-.448-1.82-.448h-.784v-.98l2.464-3.024h-4.718v-1.218h6.468v.952l-2.562 3.164z" fill="#FCFDFF"/><defs><linearGradient id="paint0_linear" x1="300" y1="80.667" x2="240.964" y2="80.667" gradientUnits="userSpaceOnUse"><stop stop-color="#1A7E57"/><stop offset="1" stop-color="#1A7E57" stop-opacity="0"/></linearGradient><linearGradient id="paint1_linear" x1="294.008" y1="80.667" x2="250.832" y2="80.667" gradientUnits="userSpaceOnUse"><stop stop-color="#23A873"/><stop offset="1" stop-color="#23A873" stop-opacity="0"/></linearGradient><linearGradient id="paint2_linear" x1="254.534" y1="79.587" x2="169.944" y2="79.587" gradientUnits="userSpaceOnUse"><stop stop-color="#93ADFF"/><stop offset="1" stop-color="#39CA9F"/></linearGradient><linearGradient id="paint3_linear" x1="254.532" y1="79.587" x2="169.942" y2="79.587" gradientUnits="userSpaceOnUse"><stop stop-color="#93ADFF"/><stop offset="1" stop-color="#39CA9F"/></linearGradient><linearGradient id="paint4_linear" x1="254.533" y1="79.587" x2="169.943" y2="79.587" gradientUnits="userSpaceOnUse"><stop stop-color="#93ADFF"/><stop offset="1" stop-color="#39CA9F"/></linearGradient><linearGradient id="paint5_linear" x1="254.533" y1="79.587" x2="169.943" y2="79.587" gradientUnits="userSpaceOnUse"><stop stop-color="#93ADFF"/><stop offset="1" stop-color="#39CA9F"/></linearGradient><linearGradient id="paint6_linear" x1="254.532" y1="79.587" x2="169.942" y2="79.587" gradientUnits="userSpaceOnUse"><stop stop-color="#93ADFF"/><stop offset="1" stop-color="#39CA9F"/></linearGradient><linearGradient id="paint7_linear" x1="254.533" y1="79.587" x2="169.943" y2="79.587" gradientUnits="userSpaceOnUse"><stop stop-color="#93ADFF"/><stop offset="1" stop-color="#39CA9F"/></linearGradient><linearGradient id="paint8_linear" x1="254.534" y1="79.587" x2="169.943" y2="79.587" gradientUnits="userSpaceOnUse"><stop stop-color="#93ADFF"/><stop offset="1" stop-color="#39CA9F"/></linearGradient><linearGradient id="paint9_linear" x1="254.533" y1="79.587" x2="169.943" y2="79.587" gradientUnits="userSpaceOnUse"><stop stop-color="#93ADFF"/><stop offset="1" stop-color="#39CA9F"/></linearGradient><filter id="filter0_d" x="0" y="461.333" width="108" height="108" filterUnits="userSpaceOnUse" color-interpolation-filters="sRGB"><feFlood flood-opacity="0" result="BackgroundImageFix"/><feColorMatrix in="SourceAlpha" values="0 0 0 0 0 0 0 0 0 0 0 0 0 0 0 0 0 0 127 0"/><feMorphology radius="2" operator="dilate" in="SourceAlpha" result="effect1_dropShadow"/><feOffset/><feGaussianBlur stdDeviation="2.5"/><feColorMatrix values="0 0 0 0 0 0 0 0 0 0 0 0 0 0 0 0 0 0 0.1 0"/><feBlend in2="BackgroundImageFix" result="effect1_dropShadow"/><feBlend in="SourceGraphic" in2="effect1_dropShadow" result="shape"/></filter><filter id="filter1_d" x="60" y="338.333" width="108" height="108" filterUnits="userSpaceOnUse" color-interpolation-filters="sRGB"><feFlood flood-opacity="0" result="BackgroundImageFix"/><feColorMatrix in="SourceAlpha" values="0 0 0 0 0 0 0 0 0 0 0 0 0 0 0 0 0 0 127 0"/><feMorphology radius="2" operator="dilate" in="SourceAlpha" result="effect1_dropShadow"/><feOffset/><feGaussianBlur stdDeviation="2.5"/><feColorMatrix values="0 0 0 0 0 0 0 0 0 0 0 0 0 0 0 0 0 0 0.1 0"/><feBlend in2="BackgroundImageFix" result="effect1_dropShadow"/><feBlend in="SourceGraphic" in2="effect1_dropShadow" result="shape"/></filter><filter id="filter2_d" x="300" y="338.333" width="108" height="108" filterUnits="userSpaceOnUse" color-interpolation-filters="sRGB"><feFlood flood-opacity="0" result="BackgroundImageFix"/><feColorMatrix in="SourceAlpha" values="0 0 0 0 0 0 0 0 0 0 0 0 0 0 0 0 0 0 127 0"/><feMorphology radius="2" operator="dilate" in="SourceAlpha" result="effect1_dropShadow"/><feOffset/><feGaussianBlur stdDeviation="2.5"/><feColorMatrix values="0 0 0 0 0 0 0 0 0 0 0 0 0 0 0 0 0 0 0.1 0"/><feBlend in2="BackgroundImageFix" result="effect1_dropShadow"/><feBlend in="SourceGraphic" in2="effect1_dropShadow" result="shape"/></filter><filter id="filter3_d" x="180" y="338.333" width="108" height="108" filterUnits="userSpaceOnUse" color-interpolation-filters="sRGB"><feFlood flood-opacity="0" result="BackgroundImageFix"/><feColorMatrix in="SourceAlpha" values="0 0 0 0 0 0 0 0 0 0 0 0 0 0 0 0 0 0 127 0"/><feMorphology radius="2" operator="dilate" in="SourceAlpha" result="effect1_dropShadow"/><feOffset/><feGaussianBlur stdDeviation="2.5"/><feColorMatrix values="0 0 0 0 0 0 0 0 0 0 0 0 0 0 0 0 0 0 0.1 0"/><feBlend in2="BackgroundImageFix" result="effect1_dropShadow"/><feBlend in="SourceGraphic" in2="effect1_dropShadow" result="shape"/></filter><filter id="filter4_d" x="180" y="211.333" width="108" height="108" filterUnits="userSpaceOnUse" color-interpolation-filters="sRGB"><feFlood flood-opacity="0" result="BackgroundImageFix"/><feColorMatrix in="SourceAlpha" values="0 0 0 0 0 0 0 0 0 0 0 0 0 0 0 0 0 0 127 0"/><feMorphology radius="2" operator="dilate" in="SourceAlpha" result="effect1_dropShadow"/><feOffset/><feGaussianBlur stdDeviation="2.5"/><feColorMatrix values="0 0 0 0 0 0 0 0 0 0 0 0 0 0 0 0 0 0 0.1 0"/><feBlend in2="BackgroundImageFix" result="effect1_dropShadow"/><feBlend in="SourceGraphic" in2="effect1_dropShadow" result="shape"/></filter><filter id="filter5_d" x="120" y="461.333" width="108" height="108" filterUnits="userSpaceOnUse" color-interpolation-filters="sRGB"><feFlood flood-opacity="0" result="BackgroundImageFix"/><feColorMatrix in="SourceAlpha" values="0 0 0 0 0 0 0 0 0 0 0 0 0 0 0 0 0 0 127 0"/><feMorphology radius="2" operator="dilate" in="SourceAlpha" result="effect1_dropShadow"/><feOffset/><feGaussianBlur stdDeviation="2.5"/><feColorMatrix values="0 0 0 0 0 0 0 0 0 0 0 0 0 0 0 0 0 0 0.1 0"/><feBlend in2="BackgroundImageFix" result="effect1_dropShadow"/><feBlend in="SourceGraphic" in2="effect1_dropShadow" result="shape"/></filter><filter id="filter6_d" x="240" y="461.333" width="108" height="108" filterUnits="userSpaceOnUse" color-interpolation-filters="sRGB"><feFlood flood-opacity="0" result="BackgroundImageFix"/><feColorMatrix in="SourceAlpha" values="0 0 0 0 0 0 0 0 0 0 0 0 0 0 0 0 0 0 127 0"/><feMorphology radius="2" operator="dilate" in="SourceAlpha" result="effect1_dropShadow"/><feOffset/><feGaussianBlur stdDeviation="2.5"/><feColorMatrix values="0 0 0 0 0 0 0 0 0 0 0 0 0 0 0 0 0 0 0.1 0"/><feBlend in2="BackgroundImageFix" result="effect1_dropShadow"/><feBlend in="SourceGraphic" in2="effect1_dropShadow" result="shape"/></filter><filter id="filter7_d" x="360" y="461.333" width="108" height="108" filterUnits="userSpaceOnUse" color-interpolation-filters="sRGB"><feFlood flood-opacity="0" result="BackgroundImageFix"/><feColorMatrix in="SourceAlpha" values="0 0 0 0 0 0 0 0 0 0 0 0 0 0 0 0 0 0 127 0"/><feMorphology radius="2" operator="dilate" in="SourceAlpha" result="effect1_dropShadow"/><feOffset/><feGaussianBlur stdDeviation="2.5"/><feColorMatrix values="0 0 0 0 0 0 0 0 0 0 0 0 0 0 0 0 0 0 0.1 0"/><feBlend in2="BackgroundImageFix" result="effect1_dropShadow"/><feBlend in="SourceGraphic" in2="effect1_dropShadow" result="shape"/></filter><clipPath id="clip0"><path fill="#fff" transform="translate(171 66.667)" d="M0 0h129v28H0z"/></clipPath></defs></svg>