<svg width="594" height="977" fill="none" xmlns="http://www.w3.org/2000/svg"><path fill-rule="evenodd" clip-rule="evenodd" d="M401.001 875.961c91.659 0 165.962-74.303 165.962-165.962 0-91.658-74.303-165.962-165.962-165.962-91.658 0-165.962 74.304-165.962 165.962 0 91.659 74.304 165.962 165.962 165.962zm0 2c92.763 0 167.962-75.199 167.962-167.962 0-92.763-75.199-167.962-167.962-167.962-92.763 0-167.962 75.199-167.962 167.962 0 92.763 75.199 167.962 167.962 167.962z" fill="#23A873"/><path d="M437.325 899.551a192.999 192.999 0 01-107.372-10.104l.939-2.372a190.45 190.45 0 00105.953 9.97l.48 2.506zm-166.852-47.383a193.003 193.003 0 01-55.9-92.228l2.465-.66a190.447 190.447 0 0055.161 91.009l-1.726 1.879zm-62.396-136.717a192.996 192.996 0 0127.195-104.361l2.191 1.307a190.454 190.454 0 00-26.836 102.982l-2.55.072zm148.147-193.185a192.994 192.994 0 01107.717 5.286l-.832 2.412a190.446 190.446 0 00-106.293-5.216l-.592-2.482zm219.595 105.957a193.012 193.012 0 0116.583 106.564l-2.531-.327a190.441 190.441 0 00-16.363-105.155l2.311-1.082z" fill="#CCF4D8"/><path d="M319.429 748.6a2.562 2.562 0 01-1.88-.774 2.56 2.56 0 01-.774-1.88v-71.99c0-.811.222-1.474.664-1.991.516-.516 1.179-.774 1.99-.774h9.732c.811 0 1.474.258 1.99.774.516.517.774 1.18.774 1.991v25.877l24.992-26.651c.959-1.327 2.396-1.991 4.313-1.991h10.948c.59 0 1.106.222 1.548.664.516.442.774.995.774 1.659 0 .516-.147.958-.442 1.327l-30.411 33.396 32.512 36.603c.369.443.553.922.553 1.438 0 .663-.258 1.216-.774 1.659-.443.442-.959.663-1.548.663h-11.391c-1.843 0-3.28-.663-4.312-1.99l-26.762-29.305v28.641c0 .811-.258 1.475-.774 1.991-.516.442-1.179.663-1.99.663h-9.732zm69.871 0a2.56 2.56 0 01-1.88-.774 2.56 2.56 0 01-.774-1.88v-71.99c0-.811.221-1.474.664-1.991.516-.516 1.179-.774 1.99-.774h29.637c8.846 0 15.813 2.102 20.9 6.304 5.087 4.128 7.63 10.21 7.63 18.246 0 8.036-2.543 14.118-7.63 18.246-5.013 4.055-11.98 6.082-20.9 6.082H402.46v25.877a2.56 2.56 0 01-.774 1.88c-.443.516-1.069.774-1.88.774H389.3zm29.084-40.805c4.276 0 7.556-.996 9.842-2.986 2.285-2.064 3.428-5.087 3.428-9.068 0-3.834-1.106-6.819-3.318-8.957-2.211-2.212-5.529-3.318-9.952-3.318h-16.145v24.329h16.145zm43.811 40.805a2.56 2.56 0 01-1.88-.774 2.56 2.56 0 01-.774-1.88v-72.101c0-.811.258-1.437.774-1.88a2.56 2.56 0 011.88-.774h10.395c.811 0 1.437.258 1.88.774.516.443.774 1.069.774 1.88v72.101a2.56 2.56 0 01-.774 1.88c-.443.516-1.069.774-1.88.774h-10.395z" fill="#23A873"/><path fill-rule="evenodd" clip-rule="evenodd" d="M89.003 964.452c42.224 0 76.454-34.23 76.454-76.454s-34.23-76.454-76.454-76.454-76.454 34.23-76.454 76.454 34.23 76.454 76.454 76.454zm0 1c42.777 0 77.454-34.677 77.454-77.454 0-42.777-34.677-77.454-77.454-77.454-42.777 0-77.454 34.677-77.454 77.454 0 42.777 34.677 77.454 77.454 77.454z" fill="#23A873"/><g opacity=".2"><mask id="a" fill="#fff"><path d="M105.751 975.409a88.99 88.99 0 01-49.514-4.659l.434-1.094a87.83 87.83 0 0048.859 4.598l.221 1.155z"/></mask><path d="M105.751 975.409a88.99 88.99 0 01-49.514-4.659l.434-1.094a87.83 87.83 0 0048.859 4.598l.221 1.155z" stroke="#23A873" stroke-width="2" mask="url(#a)"/></g><g opacity=".2"><mask id="b" fill="#fff"><path d="M28.809 953.559a88.995 88.995 0 01-25.778-42.53l1.137-.304a87.825 87.825 0 0025.437 41.968l-.796.866z"/></mask><path d="M28.809 953.559a88.995 88.995 0 01-25.778-42.53l1.137-.304a87.825 87.825 0 0025.437 41.968l-.796.866z" stroke="#23A873" stroke-width="2" mask="url(#b)"/></g><g opacity=".2"><mask id="c" fill="#fff"><path d="M.036 890.514a88.998 88.998 0 0112.54-48.125l1.01.603A87.822 87.822 0 001.213 890.48l-1.176.034z"/></mask><path d="M.036 890.514a88.998 88.998 0 0112.54-48.125l1.01.603A87.822 87.822 0 001.213 890.48l-1.176.034z" stroke="#23A873" stroke-width="2" mask="url(#c)"/></g><path d="M68.352 801.428a89.003 89.003 0 0149.673 2.438l-.384 1.112a87.827 87.827 0 00-49.016-2.405l-.273-1.145zm101.264 48.862a88.997 88.997 0 017.647 49.14l-1.167-.151a87.82 87.82 0 00-7.546-48.491l1.066-.498z" fill="#CCF4D8"/><g clip-path="url(#clip0)" fill="#23A873"><path d="M88.998 876.061a8.14 8.14 0 100-16.28 8.14 8.14 0 000 16.28zm12.195 22.127l-1.848-14.392a4.054 4.054 0 00-4.046-3.663h-2.23a2.05 2.05 0 00-1.44.594l-2.63 2.629-2.63-2.629a2.052 2.052 0 00-1.44-.594h-2.226c-2.1 0-3.843 1.575-4.046 3.61l-1.852 14.449a2.028 2.028 0 00.493 1.599c.386.44.94.692 1.526.692h2.198l1.701 20.757a4.056 4.056 0 004.05 3.663h4.456c2.1 0 3.843-1.579 4.054-3.699l1.697-20.721h2.194c.586 0 1.14-.252 1.526-.692.391-.435.57-1.021.493-1.603zm8.156-22.127a8.14 8.14 0 100-16.28 8.14 8.14 0 000 16.28zm-40.697-16.28c-4.49 0-8.14 3.651-8.14 8.14 0 4.49 3.65 8.14 8.14 8.14 4.485 0 8.14-3.65 8.14-8.14 0-4.489-3.655-8.14-8.14-8.14zm52.888 38.407l-1.848-14.388a4.053 4.053 0 00-4.046-3.667h-2.23c-.541 0-1.058.216-1.441.594l-2.629 2.629-2.629-2.629a2.051 2.051 0 00-1.437-.594h-2.231c-.252 0-.48.089-.72.134.525.928.936 1.933 1.058 3.061l1.844 14.343a6.087 6.087 0 01-1.49 4.827c-.553.635-1.261 1.082-2.018 1.432l1.351 13.24a4.055 4.055 0 004.05 3.663h4.456c2.1 0 3.842-1.579 4.054-3.699l1.693-16.651h2.194c.586 0 1.14-.252 1.526-.692.391-.435.57-1.021.493-1.603zm-47.3 4.289a6.094 6.094 0 01-1.474-4.798l1.852-14.453c.106-1.083.505-2.059 1.014-2.963-.228-.041-.444-.13-.684-.13h-2.23a2.05 2.05 0 00-1.441.594l-2.63 2.629-2.629-2.629a2.049 2.049 0 00-1.436-.594h-2.23c-2.101 0-3.843 1.575-4.046 3.61l-1.852 14.449a2.027 2.027 0 00.492 1.599c.387.44.944.692 1.526.692h2.198l1.701 16.687a4.056 4.056 0 004.05 3.663h4.457c2.1 0 3.842-1.579 4.054-3.699l1.35-13.208c-.76-.354-1.472-.806-2.042-1.449z"/></g><path fill-rule="evenodd" clip-rule="evenodd" d="M293.504 269.647c41.504 0 75.149-33.645 75.149-75.149 0-41.503-33.645-75.148-75.149-75.148-41.503 0-75.149 33.645-75.149 75.148 0 41.504 33.646 75.149 75.149 75.149zm0 1c42.056 0 76.149-34.093 76.149-76.149 0-42.055-34.093-76.148-76.149-76.148s-76.149 34.093-76.149 76.148c0 42.056 34.093 76.149 76.149 76.149z" fill="#23A873"/><g opacity=".2"><mask id="d" fill="#fff"><path d="M309.969 280.436a87.502 87.502 0 01-48.679-4.58l.425-1.076a86.337 86.337 0 0048.036 4.52l.218 1.136z"/></mask><path d="M309.969 280.436a87.502 87.502 0 01-48.679-4.58l.425-1.076a86.337 86.337 0 0048.036 4.52l.218 1.136z" stroke="#23A873" stroke-width="2" mask="url(#d)"/></g><g opacity=".2"><mask id="e" fill="#fff"><path d="M234.323 258.954a87.5 87.5 0 01-25.343-41.813l1.117-.299a86.338 86.338 0 0025.009 41.26l-.783.852z"/></mask><path d="M234.323 258.954a87.5 87.5 0 01-25.343-41.813l1.117-.299a86.338 86.338 0 0025.009 41.26l-.783.852z" stroke="#23A873" stroke-width="2" mask="url(#e)"/></g><g opacity=".2"><mask id="f" fill="#fff"><path d="M206.035 196.971a87.501 87.501 0 0112.329-47.314l.994.593a86.346 86.346 0 00-12.167 46.689l-1.156.032z"/></mask><path d="M206.035 196.971a87.501 87.501 0 0112.329-47.314l.994.593a86.346 86.346 0 00-12.167 46.689l-1.156.032z" stroke="#23A873" stroke-width="2" mask="url(#f)"/></g><g opacity=".2"><mask id="g" fill="#fff"><path d="M273.2 109.387a87.499 87.499 0 0148.835 2.397l-.377 1.093a86.344 86.344 0 00-48.189-2.364l-.269-1.126z"/></mask><path d="M273.2 109.387a87.499 87.499 0 0148.835 2.397l-.377 1.093a86.344 86.344 0 00-48.189-2.364l-.269-1.126z" stroke="#23A873" stroke-width="2" mask="url(#g)"/></g><g opacity=".2"><mask id="h" fill="#fff"><path d="M372.757 157.425a87.498 87.498 0 017.518 48.313l-1.147-.149a86.339 86.339 0 00-7.419-47.674l1.048-.49z"/></mask><path d="M372.757 157.425a87.498 87.498 0 017.518 48.313l-1.147-.149a86.339 86.339 0 00-7.419-47.674l1.048-.49z" stroke="#23A873" stroke-width="2" mask="url(#h)"/></g><g clip-path="url(#clip1)" fill="#23A873"><path d="M295.272 192.807c-.014-.014-.018-.033-.032-.047l-14.044-14.045v-8.825c0-.653-.26-1.278-.721-1.74l-14.766-14.929a2.461 2.461 0 00-4.201 1.74v7.383h-7.547a2.459 2.459 0 00-1.739 4.2l14.929 14.93a2.457 2.457 0 001.74.721h8.825l14.044 14.044c.014.015.034.019.048.032a2.418 2.418 0 003.384 0c1.023-.976 1-2.5.08-3.464z"/><path d="M293.5 152.5c-6.297 0-12.251 1.602-17.612 4.105l7.549 7.549a31.803 31.803 0 0110.063-1.646c17.64 0 31.992 14.352 31.992 31.992s-14.352 31.992-31.992 31.992-31.992-14.352-31.992-31.992c0-3.518.592-6.895 1.646-10.063l-7.55-7.549c-2.502 5.361-4.104 11.315-4.104 17.612 0 23.068 18.931 41.999 42 41.999 23.068 0 42-18.931 42-41.999 0-23.069-18.931-42-42-42z"/><path d="M293.5 172.352c-2.601 0-5.062.533-7.383 1.36v2.965l5.689 5.69c.559-.079 1.114-.172 1.694-.172 6.784 0 12.305 5.521 12.305 12.305s-5.521 12.305-12.305 12.305c-6.785 0-12.305-5.521-12.305-12.305 0-.58.093-1.135.171-1.694l-5.689-5.689h-2.965c-.827 2.321-1.36 4.782-1.36 7.383 0 12.213 9.935 22.148 22.148 22.148s22.148-9.935 22.148-22.148-9.935-22.148-22.148-22.148z"/></g><path fill-rule="evenodd" clip-rule="evenodd" d="M278.003 454.917c33.092 0 59.919-26.826 59.919-59.918 0-33.093-26.827-59.919-59.919-59.919s-59.919 26.826-59.919 59.919c0 33.092 26.827 59.918 59.919 59.918zm0 1c33.644 0 60.919-27.274 60.919-60.918 0-33.645-27.275-60.919-60.919-60.919-33.645 0-60.919 27.274-60.919 60.919 0 33.644 27.274 60.918 60.919 60.918z" fill="#23A873"/><g opacity=".2"><mask id="i" fill="#fff"><path d="M291.175 463.749a70 70 0 01-38.943-3.664l.34-.861a69.07 69.07 0 0038.429 3.616l.174.909z"/></mask><path d="M291.175 463.749a70 70 0 01-38.943-3.664l.34-.861a69.07 69.07 0 0038.429 3.616l.174.909z" stroke="#23A873" stroke-width="2" mask="url(#i)"/></g><g opacity=".2"><mask id="j" fill="#fff"><path d="M230.659 446.564a70.001 70.001 0 01-20.275-33.451l.894-.24a69.075 69.075 0 0020.007 33.009l-.626.682z"/></mask><path d="M230.659 446.564a70.001 70.001 0 01-20.275-33.451l.894-.24a69.075 69.075 0 0020.007 33.009l-.626.682z" stroke="#23A873" stroke-width="2" mask="url(#j)"/></g><g opacity=".2"><mask id="k" fill="#fff"><path d="M208.028 396.977a70.002 70.002 0 019.863-37.851l.795.474a69.072 69.072 0 00-9.733 37.351l-.925.026z"/></mask><path d="M208.028 396.977a70.002 70.002 0 019.863-37.851l.795.474a69.072 69.072 0 00-9.733 37.351l-.925.026z" stroke="#23A873" stroke-width="2" mask="url(#k)"/></g><g opacity=".2"><mask id="l" fill="#fff"><path d="M261.76 326.91a70.007 70.007 0 0139.068 1.917l-.301.875a69.073 69.073 0 00-38.552-1.892l-.215-.9z"/></mask><path d="M261.76 326.91a70.007 70.007 0 0139.068 1.917l-.301.875a69.073 69.073 0 00-38.552-1.892l-.215-.9z" stroke="#23A873" stroke-width="2" mask="url(#l)"/></g><g opacity=".2"><mask id="m" fill="#fff"><path d="M341.406 365.34a69.994 69.994 0 016.014 38.65l-.917-.119a69.078 69.078 0 00-5.935-38.139l.838-.392z"/></mask><path d="M341.406 365.34a69.994 69.994 0 016.014 38.65l-.917-.119a69.078 69.078 0 00-5.935-38.139l.838-.392z" stroke="#23A873" stroke-width="2" mask="url(#m)"/></g><g clip-path="url(#clip2)"><path d="M271.234 399.58l-1.77-15.529c-.425-3.703-3.356-6.495-6.818-6.495h-6.829c-3.465 0-6.398 2.792-6.818 6.495l-1.77 15.529a4.547 4.547 0 001.099 3.537c.727.816 1.695 1.289 2.743 1.35l1.476 19.978a1.34 1.34 0 001.334 1.238h10.695c.701 0 1.281-.54 1.334-1.238l1.476-19.978c1.051-.058 2.019-.534 2.746-1.35.85-.946 1.249-2.238 1.102-3.537zm-12.003-24.695a6.683 6.683 0 006.684-6.685 6.683 6.683 0 00-6.684-6.684 6.683 6.683 0 00-6.684 6.684 6.684 6.684 0 006.684 6.685zm39.954-4.949a.603.603 0 00-.603.603v.604a4.832 4.832 0 00-4.828 4.827 4.832 4.832 0 004.828 4.828 4.833 4.833 0 004.828-4.828h.603c.333 0 .604-.27.604-.603a5.438 5.438 0 00-5.432-5.431zm.604 4.827v-3.577a4.236 4.236 0 013.578 3.577h-3.578z" fill="#23A873"/><path fill-rule="evenodd" clip-rule="evenodd" d="M269.312 366.055a1.94 1.94 0 011.94-1.94H301.9c4.5 0 8.147 3.648 8.147 8.147v18.622a8.147 8.147 0 01-8.147 8.147h-15.643l13.83 23.856a1.94 1.94 0 11-3.356 1.946l-11.9-20.528v19.555a1.94 1.94 0 01-3.88 0v-18.858l-10.307 19.755a1.94 1.94 0 11-3.439-1.794l12.486-23.932h-4.171a1.94 1.94 0 110-3.88h26.38a4.267 4.267 0 004.268-4.267v-18.622a4.267 4.267 0 00-4.268-4.267h-30.648a1.94 1.94 0 01-1.94-1.94z" fill="#32C98D"/><path d="M274.357 386.229c0-.429.348-.776.776-.776h8.535a.775.775 0 110 1.551h-8.535a.776.776 0 01-.776-.775zm17.846 0c0-.429.348-.776.776-.776h8.535a.775.775 0 110 1.551h-8.535a.776.776 0 01-.776-.775zm-17.846 2.715c0-.643.521-1.164 1.164-1.164h7.759a1.164 1.164 0 110 2.328h-7.759a1.164 1.164 0 01-1.164-1.164zm17.846 0c0-.643.521-1.164 1.164-1.164h7.759a1.164 1.164 0 110 2.328h-7.759a1.164 1.164 0 01-1.164-1.164zm-17.846 2.716c0-.429.348-.776.776-.776h8.535a.775.775 0 110 1.552h-8.535a.777.777 0 01-.776-.776z" fill="#00CA3D"/></g><path fill-rule="evenodd" clip-rule="evenodd" d="M506.504 487.647c41.504 0 75.149-33.645 75.149-75.149 0-41.503-33.645-75.148-75.149-75.148-41.503 0-75.149 33.645-75.149 75.148 0 41.504 33.646 75.149 75.149 75.149zm0 1c42.056 0 76.149-34.093 76.149-76.149 0-42.055-34.093-76.148-76.149-76.148s-76.149 34.093-76.149 76.148c0 42.056 34.093 76.149 76.149 76.149z" fill="#23A873"/><g clip-path="url(#clip3)" fill="#23A873"><path d="M532.859 437.219h-51.078v-51.078a1.64 1.64 0 10-3.281 0v52.718a1.64 1.64 0 001.641 1.641h52.718a1.64 1.64 0 100-3.281z"/><path d="M486.703 433.938h6.672a1.64 1.64 0 001.641-1.641v-9.953a1.64 1.64 0 00-1.641-1.641h-6.672a1.64 1.64 0 00-1.641 1.641v9.953a1.64 1.64 0 001.641 1.641zm13.235-19.797a1.64 1.64 0 00-1.641 1.64v16.516a1.64 1.64 0 001.641 1.641h6.562a1.64 1.64 0 001.641-1.641v-16.516a1.64 1.64 0 00-1.641-1.64h-6.562zm13.124-6.563a1.64 1.64 0 00-1.64 1.641v23.078a1.64 1.64 0 001.64 1.641h6.563a1.64 1.64 0 001.641-1.641v-23.078a1.64 1.64 0 00-1.641-1.641h-6.563zm19.797-6.562h-6.671a1.64 1.64 0 00-1.641 1.64v29.641a1.64 1.64 0 001.641 1.641h6.671a1.64 1.64 0 001.641-1.641v-29.641a1.64 1.64 0 00-1.641-1.64zm-47.6 12.261a1.642 1.642 0 002.222.668l38.203-20.512-.964 1.927a1.64 1.64 0 002.936 1.468l3.281-6.563a1.638 1.638 0 00-1.468-2.374h-8.203c-.907 0-1.64.733-1.64 1.64a1.64 1.64 0 001.64 1.641h1.696l-37.035 19.883a1.641 1.641 0 00-.668 2.222z"/></g><g opacity=".2"><mask id="n" fill="#fff"><path d="M522.969 498.436a87.502 87.502 0 01-48.679-4.58l.425-1.076a86.337 86.337 0 0048.036 4.52l.218 1.136z"/></mask><path d="M522.969 498.436a87.502 87.502 0 01-48.679-4.58l.425-1.076a86.337 86.337 0 0048.036 4.52l.218 1.136z" stroke="#23A873" stroke-width="2" mask="url(#n)"/></g><g opacity=".2"><mask id="o" fill="#fff"><path d="M447.323 476.954a87.5 87.5 0 01-25.343-41.813l1.117-.299a86.338 86.338 0 0025.009 41.26l-.783.852z"/></mask><path d="M447.323 476.954a87.5 87.5 0 01-25.343-41.813l1.117-.299a86.338 86.338 0 0025.009 41.26l-.783.852z" stroke="#23A873" stroke-width="2" mask="url(#o)"/></g><g opacity=".2"><mask id="p" fill="#fff"><path d="M419.035 414.971a87.501 87.501 0 0112.329-47.314l.994.593a86.346 86.346 0 00-12.167 46.689l-1.156.032z"/></mask><path d="M419.035 414.971a87.501 87.501 0 0112.329-47.314l.994.593a86.346 86.346 0 00-12.167 46.689l-1.156.032z" stroke="#23A873" stroke-width="2" mask="url(#p)"/></g><g opacity=".2"><mask id="q" fill="#fff"><path d="M486.2 327.387a87.499 87.499 0 0148.835 2.397l-.377 1.093a86.344 86.344 0 00-48.189-2.364l-.269-1.126z"/></mask><path d="M486.2 327.387a87.499 87.499 0 0148.835 2.397l-.377 1.093a86.344 86.344 0 00-48.189-2.364l-.269-1.126z" stroke="#23A873" stroke-width="2" mask="url(#q)"/></g><g opacity=".2"><mask id="r" fill="#fff"><path d="M585.757 375.425a87.498 87.498 0 017.518 48.313l-1.147-.149a86.339 86.339 0 00-7.419-47.674l1.048-.49z"/></mask><path d="M585.757 375.425a87.498 87.498 0 017.518 48.313l-1.147-.149a86.339 86.339 0 00-7.419-47.674l1.048-.49z" stroke="#23A873" stroke-width="2" mask="url(#r)"/></g><path d="M42.294 45.837c-1.241 0-2.17-.389-2.786-1.167-.607-.778-.938-1.798-.994-3.06-.01-.283-.014-.767-.014-1.45 0-.694.005-1.188.014-1.482.047-1.24.383-2.25 1.008-3.028s1.55-1.167 2.772-1.167c1.232 0 2.16.39 2.786 1.167.625.778.957 1.787.994 3.028.019.294.028.788.028 1.482 0 .684-.01 1.167-.028 1.45-.047 1.262-.378 2.282-.994 3.06-.607.778-1.535 1.167-2.786 1.167zm0-1.813c.588 0 1.027-.216 1.316-.647.29-.442.443-1.056.462-1.845.019-.61.028-1.072.028-1.388 0-.346-.01-.804-.028-1.371-.019-.778-.173-1.388-.462-1.83-.29-.441-.728-.662-1.316-.662-.579 0-1.017.22-1.316.662-.29.442-.443 1.052-.462 1.83-.01.283-.014.74-.014 1.371 0 .62.005 1.083.014 1.388.019.789.173 1.404.462 1.845.299.431.737.647 1.316.647zm8.487 1.656a.307.307 0 01-.238-.111.39.39 0 01-.098-.268v-8.168l-2.128 1.844a.277.277 0 01-.196.08c-.112 0-.205-.058-.28-.174l-.588-.852a.49.49 0 01-.07-.236c0-.126.051-.231.154-.316l3.136-2.727a.51.51 0 01.35-.11h1.232a.28.28 0 01.238.11c.066.063.098.152.098.267v10.282a.39.39 0 01-.098.268.282.282 0 01-.238.11h-1.274zm9.013.157c-1.241 0-2.17-.389-2.786-1.167-.607-.778-.938-1.798-.994-3.06-.01-.283-.014-.767-.014-1.45 0-.694.005-1.188.014-1.482.047-1.24.383-2.25 1.008-3.028s1.55-1.167 2.772-1.167c1.232 0 2.16.39 2.786 1.167.625.778.957 1.787.994 3.028.019.294.028.788.028 1.482 0 .684-.01 1.167-.028 1.45-.047 1.262-.378 2.282-.994 3.06-.607.778-1.535 1.167-2.786 1.167zm0-1.813c.588 0 1.027-.216 1.316-.647.29-.442.443-1.056.462-1.845.019-.61.028-1.072.028-1.388 0-.346-.01-.804-.028-1.371-.019-.778-.173-1.388-.462-1.83-.29-.441-.728-.662-1.316-.662-.579 0-1.017.22-1.316.662-.29.442-.443 1.052-.462 1.83-.01.283-.014.74-.014 1.371 0 .62.005 1.083.014 1.388.019.789.173 1.404.462 1.845.299.431.737.647 1.316.647zm8.487 1.656a.307.307 0 01-.238-.111.39.39 0 01-.098-.268v-8.168l-2.128 1.844a.277.277 0 01-.196.08c-.112 0-.205-.058-.28-.174l-.588-.852a.49.49 0 01-.07-.236c0-.126.051-.231.154-.316l3.136-2.727a.51.51 0 01.35-.11h1.232a.28.28 0 01.238.11c.066.063.098.152.098.267v10.282a.39.39 0 01-.098.268.281.281 0 01-.238.11h-1.274zm8.299 0a.307.307 0 01-.238-.111.39.39 0 01-.098-.268v-8.168l-2.128 1.844a.277.277 0 01-.196.08c-.112 0-.205-.058-.28-.174l-.588-.852a.49.49 0 01-.07-.236c0-.126.051-.231.154-.316l3.136-2.727a.51.51 0 01.35-.11h1.232a.28.28 0 01.238.11.355.355 0 01.098.267v10.282a.39.39 0 01-.098.268.281.281 0 01-.238.11H76.58zm7.195.157c-1.242 0-2.17-.389-2.787-1.167-.606-.778-.938-1.798-.993-3.06-.01-.283-.014-.767-.014-1.45 0-.694.004-1.188.014-1.482.046-1.24.382-2.25 1.007-3.028.626-.778 1.55-1.167 2.773-1.167 1.231 0 2.16.39 2.785 1.167.626.778.957 1.787.995 3.028.018.294.027.788.027 1.482 0 .684-.009 1.167-.027 1.45-.047 1.262-.379 2.282-.995 3.06-.606.778-1.535 1.167-2.785 1.167zm0-1.813c.587 0 1.026-.216 1.316-.647.289-.442.443-1.056.462-1.845.018-.61.028-1.072.028-1.388 0-.346-.01-.804-.029-1.371-.018-.778-.172-1.388-.462-1.83-.289-.441-.728-.662-1.316-.662-.578 0-1.017.22-1.316.662-.289.442-.443 1.052-.462 1.83-.009.283-.013.74-.013 1.371 0 .62.004 1.083.013 1.388.02.789.173 1.404.463 1.845.298.431.737.647 1.316.647zM42.294 61.606c-1.241 0-2.17-.39-2.786-1.167-.607-.778-.938-1.798-.994-3.06-.01-.283-.014-.767-.014-1.45 0-.694.005-1.188.014-1.482.047-1.24.383-2.25 1.008-3.028s1.55-1.167 2.772-1.167c1.232 0 2.16.39 2.786 1.167.625.778.957 1.787.994 3.028.019.294.028.788.028 1.482a26.1 26.1 0 01-.028 1.45c-.047 1.262-.378 2.282-.994 3.06-.607.778-1.535 1.167-2.786 1.167zm0-1.814c.588 0 1.027-.215 1.316-.646.29-.442.443-1.057.462-1.845.019-.61.028-1.072.028-1.388 0-.347-.01-.804-.028-1.372-.019-.777-.173-1.387-.462-1.829-.29-.441-.728-.662-1.316-.662-.579 0-1.017.22-1.316.662-.29.442-.443 1.051-.462 1.83-.01.283-.014.74-.014 1.371 0 .62.005 1.083.014 1.388.019.788.173 1.403.462 1.845.299.43.737.646 1.316.646zm8.487 1.656a.307.307 0 01-.238-.11.39.39 0 01-.098-.268V52.9l-2.128 1.845a.277.277 0 01-.196.08c-.112 0-.205-.059-.28-.174l-.588-.852a.49.49 0 01-.07-.236c0-.126.051-.231.154-.316l3.136-2.728c.084-.073.2-.11.35-.11h1.232c.103 0 .182.037.238.11.066.063.098.153.098.268V61.07a.39.39 0 01-.098.268.282.282 0 01-.238.11h-1.274zm9.013.158c-1.241 0-2.17-.39-2.786-1.167-.607-.778-.938-1.798-.994-3.06-.01-.283-.014-.767-.014-1.45 0-.694.005-1.188.014-1.482.047-1.24.383-2.25 1.008-3.028s1.55-1.167 2.772-1.167c1.232 0 2.16.39 2.786 1.167.625.778.957 1.787.994 3.028.019.294.028.788.028 1.482a26.1 26.1 0 01-.028 1.45c-.047 1.262-.378 2.282-.994 3.06-.607.778-1.535 1.167-2.786 1.167zm0-1.814c.588 0 1.027-.215 1.316-.646.29-.442.443-1.057.462-1.845.019-.61.028-1.072.028-1.388 0-.347-.01-.804-.028-1.372-.019-.777-.173-1.387-.462-1.829-.29-.441-.728-.662-1.316-.662-.579 0-1.017.22-1.316.662-.29.442-.443 1.051-.462 1.83-.01.283-.014.74-.014 1.371 0 .62.005 1.083.014 1.388.019.788.173 1.403.462 1.845.299.43.737.646 1.316.646zm8.487 1.656a.307.307 0 01-.238-.11.39.39 0 01-.098-.268V52.9l-2.128 1.845a.277.277 0 01-.196.08c-.112 0-.205-.059-.28-.174l-.588-.852a.49.49 0 01-.07-.236c0-.126.051-.231.154-.316l3.136-2.728c.084-.073.2-.11.35-.11h1.232c.103 0 .182.037.238.11.066.063.098.153.098.268V61.07a.39.39 0 01-.098.268.281.281 0 01-.238.11h-1.274zm8.299 0a.307.307 0 01-.238-.11.39.39 0 01-.098-.268V52.9l-2.128 1.845a.277.277 0 01-.196.08c-.112 0-.205-.059-.28-.174l-.588-.852a.49.49 0 01-.07-.236c0-.126.051-.231.154-.316l3.136-2.728c.084-.073.2-.11.35-.11h1.232c.103 0 .182.037.238.11a.357.357 0 01.098.268V61.07a.39.39 0 01-.098.268.281.281 0 01-.238.11H76.58zm7.195.158c-1.242 0-2.17-.39-2.787-1.167-.606-.778-.938-1.798-.993-3.06-.01-.283-.014-.767-.014-1.45 0-.694.004-1.188.014-1.482.046-1.24.382-2.25 1.007-3.028.626-.778 1.55-1.167 2.773-1.167 1.231 0 2.16.39 2.785 1.167.626.778.957 1.787.995 3.028.018.294.027.788.027 1.482 0 .683-.009 1.167-.027 1.45-.047 1.262-.379 2.282-.995 3.06-.606.778-1.535 1.167-2.785 1.167zm0-1.814c.587 0 1.026-.215 1.316-.646.289-.442.443-1.057.462-1.845.018-.61.028-1.072.028-1.388 0-.347-.01-.804-.029-1.372-.018-.777-.172-1.387-.462-1.829-.289-.441-.728-.662-1.316-.662-.578 0-1.017.22-1.316.662-.289.442-.443 1.051-.462 1.83-.009.283-.013.74-.013 1.371 0 .62.004 1.083.013 1.388.02.788.173 1.403.463 1.845.298.43.737.646 1.316.646zM42.294 77.375c-1.241 0-2.17-.39-2.786-1.167-.607-.778-.938-1.798-.994-3.06-.01-.283-.014-.767-.014-1.45 0-.694.005-1.188.014-1.482.047-1.24.383-2.25 1.008-3.028s1.55-1.167 2.772-1.167c1.232 0 2.16.39 2.786 1.167.625.778.957 1.787.994 3.028.019.294.028.788.028 1.482a26.1 26.1 0 01-.028 1.45c-.047 1.262-.378 2.282-.994 3.06-.607.778-1.535 1.167-2.786 1.167zm0-1.814c.588 0 1.027-.215 1.316-.646.29-.442.443-1.057.462-1.845.019-.61.028-1.072.028-1.388 0-.347-.01-.804-.028-1.372-.019-.778-.173-1.387-.462-1.829-.29-.441-.728-.662-1.316-.662-.579 0-1.017.22-1.316.662-.29.442-.443 1.051-.462 1.83-.01.283-.014.74-.014 1.371 0 .62.005 1.083.014 1.388.019.788.173 1.403.462 1.845.299.43.737.646 1.316.646zm8.487 1.656a.307.307 0 01-.238-.11.389.389 0 01-.098-.268V68.67l-2.128 1.845a.278.278 0 01-.196.08c-.112 0-.205-.059-.28-.174l-.588-.852a.49.49 0 01-.07-.236.39.39 0 01.154-.316l3.136-2.728c.084-.073.2-.11.35-.11h1.232c.103 0 .182.037.238.11.066.063.098.153.098.268V76.84a.39.39 0 01-.098.268.282.282 0 01-.238.11h-1.274zm9.013.158c-1.241 0-2.17-.39-2.786-1.167-.607-.778-.938-1.798-.994-3.06-.01-.283-.014-.767-.014-1.45 0-.694.005-1.188.014-1.482.047-1.24.383-2.25 1.008-3.028s1.55-1.167 2.772-1.167c1.232 0 2.16.39 2.786 1.167.625.778.957 1.787.994 3.028.019.294.028.788.028 1.482a26.1 26.1 0 01-.028 1.45c-.047 1.262-.378 2.282-.994 3.06-.607.778-1.535 1.167-2.786 1.167zm0-1.814c.588 0 1.027-.215 1.316-.646.29-.442.443-1.057.462-1.845.019-.61.028-1.072.028-1.388 0-.347-.01-.804-.028-1.372-.019-.778-.173-1.387-.462-1.829-.29-.441-.728-.662-1.316-.662-.579 0-1.017.22-1.316.662-.29.442-.443 1.051-.462 1.83-.01.283-.014.74-.014 1.371 0 .62.005 1.083.014 1.388.019.788.173 1.403.462 1.845.299.43.737.646 1.316.646zm8.487 1.656a.307.307 0 01-.238-.11.39.39 0 01-.098-.268V68.67l-2.128 1.845a.278.278 0 01-.196.08c-.112 0-.205-.059-.28-.174l-.588-.852a.49.49 0 01-.07-.236.39.39 0 01.154-.316l3.136-2.728c.084-.073.2-.11.35-.11h1.232c.103 0 .182.037.238.11.066.063.098.153.098.268V76.84a.39.39 0 01-.098.268.281.281 0 01-.238.11h-1.274zm8.299 0a.307.307 0 01-.238-.11.39.39 0 01-.098-.268V68.67l-2.128 1.845a.278.278 0 01-.196.08c-.112 0-.205-.059-.28-.174l-.588-.852a.49.49 0 01-.07-.236.39.39 0 01.154-.316l3.136-2.728c.084-.073.2-.11.35-.11h1.232c.103 0 .182.037.238.11a.357.357 0 01.098.268V76.84a.389.389 0 01-.098.268.281.281 0 01-.238.11H76.58zm7.195.158c-1.242 0-2.17-.39-2.787-1.167-.606-.778-.938-1.798-.993-3.06-.01-.283-.014-.767-.014-1.45 0-.694.004-1.188.014-1.482.046-1.24.382-2.25 1.007-3.028.626-.778 1.55-1.167 2.773-1.167 1.231 0 2.16.39 2.785 1.167.626.778.957 1.787.995 3.028.018.294.027.788.027 1.482 0 .683-.009 1.167-.027 1.45-.047 1.262-.379 2.282-.995 3.06-.606.778-1.535 1.167-2.785 1.167zm0-1.814c.587 0 1.026-.215 1.316-.646.289-.442.443-1.057.462-1.845.018-.61.028-1.072.028-1.388 0-.347-.01-.804-.029-1.372-.018-.778-.172-1.387-.462-1.829-.289-.441-.728-.662-1.316-.662-.578 0-1.017.22-1.316.662-.289.442-.443 1.051-.462 1.83-.009.283-.013.74-.013 1.371 0 .62.004 1.083.013 1.388.02.788.173 1.403.463 1.845.298.43.737.646 1.316.646zM42.294 93.144c-1.241 0-2.17-.39-2.786-1.167-.607-.778-.938-1.798-.994-3.06-.01-.283-.014-.767-.014-1.45 0-.694.005-1.188.014-1.483.047-1.24.383-2.25 1.008-3.027.625-.778 1.55-1.167 2.772-1.167 1.232 0 2.16.389 2.786 1.167.625.778.957 1.787.994 3.028.019.294.028.788.028 1.482a26.1 26.1 0 01-.028 1.45c-.047 1.262-.378 2.282-.994 3.06-.607.778-1.535 1.167-2.786 1.167zm0-1.814c.588 0 1.027-.215 1.316-.646.29-.442.443-1.057.462-1.845.019-.61.028-1.073.028-1.388 0-.347-.01-.804-.028-1.372-.019-.778-.173-1.387-.462-1.83-.29-.44-.728-.661-1.316-.661-.579 0-1.017.22-1.316.662-.29.442-.443 1.051-.462 1.83-.01.283-.014.74-.014 1.371 0 .62.005 1.083.014 1.388.019.788.173 1.403.462 1.845.299.43.737.646 1.316.646zm8.487 1.656a.307.307 0 01-.238-.11.39.39 0 01-.098-.269V84.44l-2.128 1.845a.277.277 0 01-.196.079c-.112 0-.205-.058-.28-.174l-.588-.851a.49.49 0 01-.07-.236.39.39 0 01.154-.316l3.136-2.728a.51.51 0 01.35-.11h1.232c.103 0 .182.037.238.11.066.063.098.152.098.268v10.281a.39.39 0 01-.098.269.282.282 0 01-.238.11h-1.274zm9.013.158c-1.241 0-2.17-.39-2.786-1.167-.607-.778-.938-1.798-.994-3.06-.01-.283-.014-.767-.014-1.45 0-.694.005-1.188.014-1.483.047-1.24.383-2.25 1.008-3.027.625-.778 1.55-1.167 2.772-1.167 1.232 0 2.16.389 2.786 1.167.625.778.957 1.787.994 3.028.019.294.028.788.028 1.482a26.1 26.1 0 01-.028 1.45c-.047 1.262-.378 2.282-.994 3.06-.607.778-1.535 1.167-2.786 1.167zm0-1.814c.588 0 1.027-.215 1.316-.646.29-.442.443-1.057.462-1.845.019-.61.028-1.073.028-1.388 0-.347-.01-.804-.028-1.372-.019-.778-.173-1.387-.462-1.83-.29-.44-.728-.661-1.316-.661-.579 0-1.017.22-1.316.662-.29.442-.443 1.051-.462 1.83-.01.283-.014.74-.014 1.371 0 .62.005 1.083.014 1.388.019.788.173 1.403.462 1.845.299.43.737.646 1.316.646zm8.487 1.656a.307.307 0 01-.238-.11.39.39 0 01-.098-.269V84.44l-2.128 1.845a.277.277 0 01-.196.079c-.112 0-.205-.058-.28-.174l-.588-.851a.49.49 0 01-.07-.236.39.39 0 01.154-.316l3.136-2.728a.51.51 0 01.35-.11h1.232c.103 0 .182.037.238.11.066.063.098.152.098.268v10.281a.39.39 0 01-.098.269.281.281 0 01-.238.11h-1.274zm8.299 0a.307.307 0 01-.238-.11.39.39 0 01-.098-.269V84.44l-2.128 1.845a.277.277 0 01-.196.079c-.112 0-.205-.058-.28-.174l-.588-.851a.49.49 0 01-.07-.236.39.39 0 01.154-.316l3.136-2.728a.51.51 0 01.35-.11h1.232c.103 0 .182.037.238.11a.356.356 0 01.098.268v10.281a.39.39 0 01-.098.269.281.281 0 01-.238.11H76.58zm7.195.158c-1.242 0-2.17-.39-2.787-1.167-.606-.778-.938-1.798-.993-3.06-.01-.283-.014-.767-.014-1.45 0-.694.004-1.188.014-1.483.046-1.24.382-2.25 1.007-3.027.626-.778 1.55-1.167 2.773-1.167 1.231 0 2.16.389 2.785 1.167.626.778.957 1.787.995 3.028.018.294.027.788.027 1.482 0 .683-.009 1.167-.027 1.45-.047 1.262-.379 2.282-.995 3.06-.606.778-1.535 1.167-2.785 1.167zm0-1.814c.587 0 1.026-.215 1.316-.646.289-.442.443-1.057.462-1.845.018-.61.028-1.073.028-1.388 0-.347-.01-.804-.029-1.372-.018-.778-.172-1.387-.462-1.83-.289-.44-.728-.661-1.316-.661-.578 0-1.017.22-1.316.662-.289.442-.443 1.051-.462 1.83-.009.283-.013.74-.013 1.371 0 .62.004 1.083.013 1.388.02.788.173 1.403.463 1.845.298.43.737.646 1.316.646zm-41.481 17.582c-1.241 0-2.17-.389-2.786-1.166-.607-.778-.938-1.798-.994-3.06-.01-.283-.014-.767-.014-1.45 0-.694.005-1.188.014-1.483.047-1.24.383-2.25 1.008-3.027.625-.778 1.55-1.167 2.772-1.167 1.232 0 2.16.389 2.786 1.167.625.778.957 1.787.994 3.027.019.295.028.789.028 1.483a26.1 26.1 0 01-.028 1.45c-.047 1.262-.378 2.282-.994 3.06-.607.777-1.535 1.166-2.786 1.166zm0-1.813c.588 0 1.027-.215 1.316-.646.29-.442.443-1.057.462-1.845.019-.61.028-1.073.028-1.388 0-.347-.01-.804-.028-1.372-.019-.778-.173-1.388-.462-1.829-.29-.442-.728-.663-1.316-.663-.579 0-1.017.221-1.316.663-.29.441-.443 1.051-.462 1.829-.01.284-.014.741-.014 1.372 0 .62.005 1.083.014 1.388.019.788.173 1.403.462 1.845.299.431.737.646 1.316.646zm8.487 1.656a.306.306 0 01-.238-.111.388.388 0 01-.098-.268v-8.168l-2.128 1.845a.276.276 0 01-.196.079c-.112 0-.205-.058-.28-.174l-.588-.851a.49.49 0 01-.07-.237.39.39 0 01.154-.315l3.136-2.728a.51.51 0 01.35-.11h1.232a.28.28 0 01.238.11c.066.063.098.152.098.268v10.281a.389.389 0 01-.098.268.281.281 0 01-.238.111h-1.274zm9.013.157c-1.241 0-2.17-.389-2.786-1.166-.607-.778-.938-1.798-.994-3.06-.01-.283-.014-.767-.014-1.45 0-.694.005-1.188.014-1.483.047-1.24.383-2.25 1.008-3.027.625-.778 1.55-1.167 2.772-1.167 1.232 0 2.16.389 2.786 1.167.625.778.957 1.787.994 3.027.019.295.028.789.028 1.483a26.1 26.1 0 01-.028 1.45c-.047 1.262-.378 2.282-.994 3.06-.607.777-1.535 1.166-2.786 1.166zm0-1.813c.588 0 1.027-.215 1.316-.646.29-.442.443-1.057.462-1.845.019-.61.028-1.073.028-1.388 0-.347-.01-.804-.028-1.372-.019-.778-.173-1.388-.462-1.829-.29-.442-.728-.663-1.316-.663-.579 0-1.017.221-1.316.663-.29.441-.443 1.051-.462 1.829-.01.284-.014.741-.014 1.372 0 .62.005 1.083.014 1.388.019.788.173 1.403.462 1.845.299.431.737.646 1.316.646zm8.487 1.656a.306.306 0 01-.238-.111.389.389 0 01-.098-.268v-8.168l-2.128 1.845a.276.276 0 01-.196.079c-.112 0-.205-.058-.28-.174l-.588-.851a.49.49 0 01-.07-.237.39.39 0 01.154-.315l3.136-2.728a.51.51 0 01.35-.11h1.232a.28.28 0 01.238.11c.066.063.098.152.098.268v10.281a.389.389 0 01-.098.268.28.28 0 01-.238.111h-1.274zm8.299 0a.306.306 0 01-.238-.111.389.389 0 01-.098-.268v-8.168l-2.128 1.845a.276.276 0 01-.196.079c-.112 0-.205-.058-.28-.174l-.588-.851a.49.49 0 01-.07-.237.39.39 0 01.154-.315l3.136-2.728a.51.51 0 01.35-.11h1.232a.28.28 0 01.238.11.356.356 0 01.098.268v10.281a.388.388 0 01-.098.268.28.28 0 01-.238.111H76.58zm7.195.157c-1.242 0-2.17-.389-2.787-1.166-.606-.778-.938-1.798-.993-3.06-.01-.283-.014-.767-.014-1.45 0-.694.004-1.188.014-1.483.046-1.24.382-2.25 1.007-3.027.626-.778 1.55-1.167 2.773-1.167 1.231 0 2.16.389 2.785 1.167.626.778.957 1.787.995 3.027.018.295.027.789.027 1.483 0 .683-.009 1.167-.027 1.45-.047 1.262-.379 2.282-.995 3.06-.606.777-1.535 1.166-2.785 1.166zm0-1.813c.587 0 1.026-.215 1.316-.646.289-.442.443-1.057.462-1.845.018-.61.028-1.073.028-1.388 0-.347-.01-.804-.029-1.372-.018-.778-.172-1.388-.462-1.829-.289-.442-.728-.663-1.316-.663-.578 0-1.017.221-1.316.663-.289.441-.443 1.051-.462 1.829-.009.284-.013.741-.013 1.372 0 .62.004 1.083.013 1.388.02.788.173 1.403.463 1.845.298.431.737.646 1.316.646zm-41.481 17.582c-1.241 0-2.17-.389-2.786-1.167-.607-.778-.938-1.797-.994-3.059-.01-.284-.014-.767-.014-1.45 0-.694.005-1.188.014-1.483.047-1.24.383-2.249 1.008-3.027s1.55-1.167 2.772-1.167c1.232 0 2.16.389 2.786 1.167.625.778.957 1.787.994 3.027.019.295.028.789.028 1.483 0 .683-.01 1.166-.028 1.45-.047 1.262-.378 2.281-.994 3.059-.607.778-1.535 1.167-2.786 1.167zm0-1.813c.588 0 1.027-.216 1.316-.647.29-.441.443-1.056.462-1.845.019-.609.028-1.072.028-1.387 0-.347-.01-.804-.028-1.372-.019-.778-.173-1.388-.462-1.829-.29-.442-.728-.663-1.316-.663-.579 0-1.017.221-1.316.663-.29.441-.443 1.051-.462 1.829-.01.284-.014.741-.014 1.372 0 .62.005 1.083.014 1.387.019.789.173 1.404.462 1.845.299.431.737.647 1.316.647zm8.487 1.656a.306.306 0 01-.238-.111.388.388 0 01-.098-.268v-8.168l-2.128 1.845a.28.28 0 01-.196.079c-.112 0-.205-.058-.28-.174l-.588-.851a.49.49 0 01-.07-.237.39.39 0 01.154-.315l3.136-2.728a.511.511 0 01.35-.111h1.232a.28.28 0 01.238.111c.066.063.098.152.098.268v10.281a.389.389 0 01-.098.268.281.281 0 01-.238.111h-1.274zm9.013.157c-1.241 0-2.17-.389-2.786-1.167-.607-.778-.938-1.797-.994-3.059-.01-.284-.014-.767-.014-1.45 0-.694.005-1.188.014-1.483.047-1.24.383-2.249 1.008-3.027s1.55-1.167 2.772-1.167c1.232 0 2.16.389 2.786 1.167.625.778.957 1.787.994 3.027.019.295.028.789.028 1.483 0 .683-.01 1.166-.028 1.45-.047 1.262-.378 2.281-.994 3.059-.607.778-1.535 1.167-2.786 1.167zm0-1.813c.588 0 1.027-.216 1.316-.647.29-.441.443-1.056.462-1.845.019-.609.028-1.072.028-1.387 0-.347-.01-.804-.028-1.372-.019-.778-.173-1.388-.462-1.829-.29-.442-.728-.663-1.316-.663-.579 0-1.017.221-1.316.663-.29.441-.443 1.051-.462 1.829-.01.284-.014.741-.014 1.372 0 .62.005 1.083.014 1.387.019.789.173 1.404.462 1.845.299.431.737.647 1.316.647zm8.487 1.656a.306.306 0 01-.238-.111.389.389 0 01-.098-.268v-8.168l-2.128 1.845a.28.28 0 01-.196.079c-.112 0-.205-.058-.28-.174l-.588-.851a.49.49 0 01-.07-.237.39.39 0 01.154-.315l3.136-2.728a.512.512 0 01.35-.111h1.232a.28.28 0 01.238.111c.066.063.098.152.098.268v10.281a.389.389 0 01-.098.268.28.28 0 01-.238.111h-1.274zm8.299 0a.306.306 0 01-.238-.111.389.389 0 01-.098-.268v-8.168l-2.128 1.845a.28.28 0 01-.196.079c-.112 0-.205-.058-.28-.174l-.588-.851a.49.49 0 01-.07-.237.39.39 0 01.154-.315l3.136-2.728a.512.512 0 01.35-.111h1.232a.28.28 0 01.238.111.356.356 0 01.098.268v10.281a.388.388 0 01-.098.268.28.28 0 01-.238.111H76.58zm7.195.157c-1.242 0-2.17-.389-2.787-1.167-.606-.778-.938-1.797-.993-3.059-.01-.284-.014-.767-.014-1.45 0-.694.004-1.188.014-1.483.046-1.24.382-2.249 1.007-3.027.626-.778 1.55-1.167 2.773-1.167 1.231 0 2.16.389 2.785 1.167.626.778.957 1.787.995 3.027.018.295.027.789.027 1.483 0 .683-.009 1.166-.027 1.45-.047 1.262-.379 2.281-.995 3.059-.606.778-1.535 1.167-2.785 1.167zm0-1.813c.587 0 1.026-.216 1.316-.647.289-.441.443-1.056.462-1.845a51.84 51.84 0 00.028-1.387c0-.347-.01-.804-.029-1.372-.018-.778-.172-1.388-.462-1.829-.289-.442-.728-.663-1.316-.663-.578 0-1.017.221-1.316.663-.289.441-.443 1.051-.462 1.829-.009.284-.013.741-.013 1.372 0 .62.004 1.083.013 1.387.02.789.173 1.404.463 1.845.298.431.737.647 1.316.647zM42.294 140.45c-1.241 0-2.17-.389-2.786-1.167-.607-.778-.938-1.797-.994-3.059-.01-.284-.014-.767-.014-1.451 0-.693.005-1.188.014-1.482.047-1.24.383-2.25 1.008-3.028.625-.777 1.55-1.166 2.772-1.166 1.232 0 2.16.389 2.786 1.166.625.778.957 1.788.994 3.028.019.294.028.789.028 1.482 0 .684-.01 1.167-.028 1.451-.047 1.262-.378 2.281-.994 3.059-.607.778-1.535 1.167-2.786 1.167zm0-1.813c.588 0 1.027-.216 1.316-.647.29-.441.443-1.056.462-1.845.019-.609.028-1.072.028-1.387 0-.347-.01-.805-.028-1.372-.019-.778-.173-1.388-.462-1.829-.29-.442-.728-.663-1.316-.663-.579 0-1.017.221-1.316.663-.29.441-.443 1.051-.462 1.829-.01.284-.014.741-.014 1.372 0 .62.005 1.082.014 1.387.019.789.173 1.404.462 1.845.299.431.737.647 1.316.647zm8.487 1.656a.306.306 0 01-.238-.111.388.388 0 01-.098-.268v-8.168l-2.128 1.845a.28.28 0 01-.196.079c-.112 0-.205-.058-.28-.174l-.588-.851a.494.494 0 01-.07-.237.39.39 0 01.154-.315l3.136-2.728a.511.511 0 01.35-.111h1.232a.28.28 0 01.238.111c.066.063.098.152.098.268v10.281a.389.389 0 01-.098.268.281.281 0 01-.238.111h-1.274zm9.013.157c-1.241 0-2.17-.389-2.786-1.167-.607-.778-.938-1.797-.994-3.059-.01-.284-.014-.767-.014-1.451 0-.693.005-1.188.014-1.482.047-1.24.383-2.25 1.008-3.028.625-.777 1.55-1.166 2.772-1.166 1.232 0 2.16.389 2.786 1.166.625.778.957 1.788.994 3.028.019.294.028.789.028 1.482 0 .684-.01 1.167-.028 1.451-.047 1.262-.378 2.281-.994 3.059-.607.778-1.535 1.167-2.786 1.167zm0-1.813c.588 0 1.027-.216 1.316-.647.29-.441.443-1.056.462-1.845.019-.609.028-1.072.028-1.387 0-.347-.01-.805-.028-1.372-.019-.778-.173-1.388-.462-1.829-.29-.442-.728-.663-1.316-.663-.579 0-1.017.221-1.316.663-.29.441-.443 1.051-.462 1.829-.01.284-.014.741-.014 1.372 0 .62.005 1.082.014 1.387.019.789.173 1.404.462 1.845.299.431.737.647 1.316.647zm8.487 1.656a.306.306 0 01-.238-.111.389.389 0 01-.098-.268v-8.168l-2.128 1.845a.28.28 0 01-.196.079c-.112 0-.205-.058-.28-.174l-.588-.851a.494.494 0 01-.07-.237.39.39 0 01.154-.315l3.136-2.728a.512.512 0 01.35-.111h1.232a.28.28 0 01.238.111c.066.063.098.152.098.268v10.281a.389.389 0 01-.098.268.28.28 0 01-.238.111h-1.274zm8.299 0a.306.306 0 01-.238-.111.389.389 0 01-.098-.268v-8.168l-2.128 1.845a.28.28 0 01-.196.079c-.112 0-.205-.058-.28-.174l-.588-.851a.494.494 0 01-.07-.237.39.39 0 01.154-.315l3.136-2.728a.512.512 0 01.35-.111h1.232a.28.28 0 01.238.111.356.356 0 01.098.268v10.281a.388.388 0 01-.098.268.28.28 0 01-.238.111H76.58zm7.195.157c-1.242 0-2.17-.389-2.787-1.167-.606-.778-.938-1.797-.993-3.059-.01-.284-.014-.767-.014-1.451 0-.693.004-1.188.014-1.482.046-1.24.382-2.25 1.007-3.028.626-.777 1.55-1.166 2.773-1.166 1.231 0 2.16.389 2.785 1.166.626.778.957 1.788.995 3.028.018.294.027.789.027 1.482 0 .684-.009 1.167-.027 1.451-.047 1.262-.379 2.281-.995 3.059-.606.778-1.535 1.167-2.785 1.167zm0-1.813c.587 0 1.026-.216 1.316-.647.289-.441.443-1.056.462-1.845a51.84 51.84 0 00.028-1.387c0-.347-.01-.805-.029-1.372-.018-.778-.172-1.388-.462-1.829-.289-.442-.728-.663-1.316-.663-.578 0-1.017.221-1.316.663-.289.441-.443 1.051-.462 1.829-.009.284-.013.741-.013 1.372 0 .62.004 1.082.013 1.387.02.789.173 1.404.463 1.845.298.431.737.647 1.316.647zm11.019-92.8c-1.241 0-2.17-.389-2.786-1.167-.607-.778-.938-1.798-.994-3.06-.01-.283-.014-.767-.014-1.45 0-.694.005-1.188.014-1.482.047-1.24.383-2.25 1.008-3.028s1.55-1.167 2.772-1.167c1.232 0 2.16.39 2.786 1.167.625.778.957 1.787.994 3.028.019.294.028.788.028 1.482 0 .684-.01 1.167-.028 1.45-.047 1.262-.378 2.282-.994 3.06-.607.778-1.535 1.167-2.786 1.167zm0-1.813c.588 0 1.027-.216 1.316-.647.29-.442.443-1.056.462-1.845.019-.61.028-1.072.028-1.388 0-.346-.01-.804-.028-1.371-.019-.778-.173-1.388-.462-1.83-.29-.441-.728-.662-1.316-.662-.579 0-1.017.22-1.316.662-.29.442-.443 1.052-.462 1.83-.01.283-.014.74-.014 1.371 0 .62.005 1.083.014 1.388.019.789.173 1.404.462 1.845.299.431.737.647 1.316.647zm8.487 1.656a.308.308 0 01-.238-.111.391.391 0 01-.098-.268v-8.168l-2.128 1.844a.277.277 0 01-.196.08c-.112 0-.205-.058-.28-.174l-.588-.852a.49.49 0 01-.07-.236c0-.126.051-.231.154-.316l3.136-2.727a.514.514 0 01.35-.11h1.232a.28.28 0 01.238.11c.066.063.098.152.098.267v10.282a.386.386 0 01-.098.268.281.281 0 01-.238.11h-1.274zm9.013.157c-1.241 0-2.17-.389-2.786-1.167-.607-.778-.938-1.798-.994-3.06a52.253 52.253 0 01-.014-1.45c0-.694.005-1.188.014-1.482.047-1.24.383-2.25 1.008-3.028s1.549-1.167 2.772-1.167c1.232 0 2.161.39 2.786 1.167.625.778.957 1.787.994 3.028.019.294.028.788.028 1.482a25.1 25.1 0 01-.028 1.45c-.047 1.262-.378 2.282-.994 3.06-.607.778-1.535 1.167-2.786 1.167zm0-1.813c.588 0 1.027-.216 1.316-.647.289-.442.443-1.056.462-1.845.019-.61.028-1.072.028-1.388 0-.346-.009-.804-.028-1.371-.019-.778-.173-1.388-.462-1.83-.289-.441-.728-.662-1.316-.662-.579 0-1.017.22-1.316.662-.289.442-.443 1.052-.462 1.83-.009.283-.014.74-.014 1.371 0 .62.005 1.083.014 1.388.019.789.173 1.404.462 1.845.299.431.737.647 1.316.647zm8.487 1.656a.308.308 0 01-.238-.111.391.391 0 01-.098-.268v-8.168l-2.128 1.844a.277.277 0 01-.196.08c-.112 0-.205-.058-.28-.174l-.588-.852a.499.499 0 01-.07-.236c0-.126.052-.231.154-.316l3.136-2.727a.514.514 0 01.35-.11h1.232a.28.28 0 01.238.11c.066.063.098.152.098.267v10.282a.386.386 0 01-.098.268.281.281 0 01-.238.11h-1.274zm8.299 0a.307.307 0 01-.238-.111.391.391 0 01-.098-.268v-8.168l-2.128 1.844a.277.277 0 01-.196.08c-.112 0-.205-.058-.28-.174l-.588-.852a.488.488 0 01-.07-.236.39.39 0 01.154-.316l3.136-2.727a.514.514 0 01.35-.11h1.232a.28.28 0 01.238.11.356.356 0 01.098.267v10.282a.391.391 0 01-.098.268.281.281 0 01-.238.11h-1.274zm7.195.157c-1.242 0-2.17-.389-2.786-1.167-.607-.778-.938-1.798-.994-3.06-.01-.283-.014-.767-.014-1.45 0-.694.004-1.188.014-1.482.046-1.24.382-2.25 1.008-3.028.625-.778 1.549-1.167 2.772-1.167 1.232 0 2.16.39 2.786 1.167.625.778.956 1.787.994 3.028.018.294.028.788.028 1.482 0 .684-.01 1.167-.028 1.45-.047 1.262-.378 2.282-.994 3.06-.607.778-1.536 1.167-2.786 1.167zm0-1.813c.588 0 1.026-.216 1.316-.647.289-.442.443-1.056.462-1.845.018-.61.028-1.072.028-1.388 0-.346-.01-.804-.028-1.371-.019-.778-.173-1.388-.462-1.83-.29-.441-.728-.662-1.316-.662-.579 0-1.018.22-1.316.662-.29.442-.444 1.052-.462 1.83-.01.283-.014.74-.014 1.371 0 .62.004 1.083.014 1.388.018.789.172 1.404.462 1.845.298.431.737.647 1.316.647zM94.794 61.606c-1.241 0-2.17-.39-2.786-1.167-.607-.778-.938-1.798-.994-3.06-.01-.283-.014-.767-.014-1.45 0-.694.005-1.188.014-1.482.047-1.24.383-2.25 1.008-3.028s1.55-1.167 2.772-1.167c1.232 0 2.16.39 2.786 1.167.625.778.957 1.787.994 3.028.019.294.028.788.028 1.482a26.1 26.1 0 01-.028 1.45c-.047 1.262-.378 2.282-.994 3.06-.607.778-1.535 1.167-2.786 1.167zm0-1.814c.588 0 1.027-.215 1.316-.646.29-.442.443-1.057.462-1.845.019-.61.028-1.072.028-1.388 0-.347-.01-.804-.028-1.372-.019-.777-.173-1.387-.462-1.829-.29-.441-.728-.662-1.316-.662-.579 0-1.017.22-1.316.662-.29.442-.443 1.051-.462 1.83-.01.283-.014.74-.014 1.371 0 .62.005 1.083.014 1.388.019.788.173 1.403.462 1.845.299.43.737.646 1.316.646zm8.487 1.656a.308.308 0 01-.238-.11.391.391 0 01-.098-.268V52.9l-2.128 1.845a.277.277 0 01-.196.08c-.112 0-.205-.059-.28-.174l-.588-.852a.49.49 0 01-.07-.236c0-.126.051-.231.154-.316l3.136-2.728a.514.514 0 01.35-.11h1.232c.103 0 .182.037.238.11.066.063.098.153.098.268V61.07a.387.387 0 01-.098.268.281.281 0 01-.238.11h-1.274zm9.013.158c-1.241 0-2.17-.39-2.786-1.167-.607-.778-.938-1.798-.994-3.06a52.253 52.253 0 01-.014-1.45c0-.694.005-1.188.014-1.482.047-1.24.383-2.25 1.008-3.028s1.549-1.167 2.772-1.167c1.232 0 2.161.39 2.786 1.167.625.778.957 1.787.994 3.028.019.294.028.788.028 1.482 0 .683-.009 1.167-.028 1.45-.047 1.262-.378 2.282-.994 3.06-.607.778-1.535 1.167-2.786 1.167zm0-1.814c.588 0 1.027-.215 1.316-.646.289-.442.443-1.057.462-1.845.019-.61.028-1.072.028-1.388a42.7 42.7 0 00-.028-1.372c-.019-.777-.173-1.387-.462-1.829-.289-.441-.728-.662-1.316-.662-.579 0-1.017.22-1.316.662-.289.442-.443 1.051-.462 1.83-.009.283-.014.74-.014 1.371 0 .62.005 1.083.014 1.388.019.788.173 1.403.462 1.845.299.43.737.646 1.316.646zm8.487 1.656a.308.308 0 01-.238-.11.391.391 0 01-.098-.268V52.9l-2.128 1.845a.277.277 0 01-.196.08c-.112 0-.205-.059-.28-.174l-.588-.852a.499.499 0 01-.07-.236c0-.126.052-.231.154-.316l3.136-2.728a.514.514 0 01.35-.11h1.232c.103 0 .182.037.238.11.066.063.098.153.098.268V61.07a.387.387 0 01-.098.268.281.281 0 01-.238.11h-1.274zm8.299 0a.307.307 0 01-.238-.11.391.391 0 01-.098-.268V52.9l-2.128 1.845a.277.277 0 01-.196.08c-.112 0-.205-.059-.28-.174l-.588-.852a.488.488 0 01-.07-.236.39.39 0 01.154-.316l3.136-2.728a.514.514 0 01.35-.11h1.232c.103 0 .182.037.238.11a.357.357 0 01.098.268V61.07a.391.391 0 01-.098.268.281.281 0 01-.238.11h-1.274zm7.195.158c-1.242 0-2.17-.39-2.786-1.167-.607-.778-.938-1.798-.994-3.06-.01-.283-.014-.767-.014-1.45 0-.694.004-1.188.014-1.482.046-1.24.382-2.25 1.008-3.028.625-.778 1.549-1.167 2.772-1.167 1.232 0 2.16.39 2.786 1.167.625.778.956 1.787.994 3.028.018.294.028.788.028 1.482a26.1 26.1 0 01-.028 1.45c-.047 1.262-.378 2.282-.994 3.06-.607.778-1.536 1.167-2.786 1.167zm0-1.814c.588 0 1.026-.215 1.316-.646.289-.442.443-1.057.462-1.845.018-.61.028-1.072.028-1.388 0-.347-.01-.804-.028-1.372-.019-.777-.173-1.387-.462-1.829-.29-.441-.728-.662-1.316-.662-.579 0-1.018.22-1.316.662-.29.442-.444 1.051-.462 1.83-.01.283-.014.74-.014 1.371 0 .62.004 1.083.014 1.388.018.788.172 1.403.462 1.845.298.43.737.646 1.316.646zM94.794 77.375c-1.241 0-2.17-.39-2.786-1.167-.607-.778-.938-1.798-.994-3.06-.01-.283-.014-.767-.014-1.45 0-.694.005-1.188.014-1.482.047-1.24.383-2.25 1.008-3.028s1.55-1.167 2.772-1.167c1.232 0 2.16.39 2.786 1.167.625.778.957 1.787.994 3.028.019.294.028.788.028 1.482a26.1 26.1 0 01-.028 1.45c-.047 1.262-.378 2.282-.994 3.06-.607.778-1.535 1.167-2.786 1.167zm0-1.814c.588 0 1.027-.215 1.316-.646.29-.442.443-1.057.462-1.845.019-.61.028-1.072.028-1.388 0-.347-.01-.804-.028-1.372-.019-.778-.173-1.387-.462-1.829-.29-.441-.728-.662-1.316-.662-.579 0-1.017.22-1.316.662-.29.442-.443 1.051-.462 1.83-.01.283-.014.74-.014 1.371 0 .62.005 1.083.014 1.388.019.788.173 1.403.462 1.845.299.43.737.646 1.316.646zm8.487 1.656a.308.308 0 01-.238-.11.39.39 0 01-.098-.268V68.67l-2.128 1.845a.277.277 0 01-.196.08c-.112 0-.205-.059-.28-.174l-.588-.852a.49.49 0 01-.07-.236.39.39 0 01.154-.316l3.136-2.728a.514.514 0 01.35-.11h1.232c.103 0 .182.037.238.11.066.063.098.153.098.268V76.84a.386.386 0 01-.098.268.281.281 0 01-.238.11h-1.274zm9.013.158c-1.241 0-2.17-.39-2.786-1.167-.607-.778-.938-1.798-.994-3.06a52.267 52.267 0 01-.014-1.45c0-.694.005-1.188.014-1.482.047-1.24.383-2.25 1.008-3.028s1.549-1.167 2.772-1.167c1.232 0 2.161.39 2.786 1.167.625.778.957 1.787.994 3.028.019.294.028.788.028 1.482 0 .683-.009 1.167-.028 1.45-.047 1.262-.378 2.282-.994 3.06-.607.778-1.535 1.167-2.786 1.167zm0-1.814c.588 0 1.027-.215 1.316-.646.289-.442.443-1.057.462-1.845.019-.61.028-1.072.028-1.388a42.7 42.7 0 00-.028-1.372c-.019-.778-.173-1.387-.462-1.829-.289-.441-.728-.662-1.316-.662-.579 0-1.017.22-1.316.662-.289.442-.443 1.051-.462 1.83-.009.283-.014.74-.014 1.371 0 .62.005 1.083.014 1.388.019.788.173 1.403.462 1.845.299.43.737.646 1.316.646zm8.487 1.656a.308.308 0 01-.238-.11.39.39 0 01-.098-.268V68.67l-2.128 1.845a.277.277 0 01-.196.08c-.112 0-.205-.059-.28-.174l-.588-.852a.498.498 0 01-.07-.236c0-.127.052-.232.154-.316l3.136-2.728a.514.514 0 01.35-.11h1.232c.103 0 .182.037.238.11.066.063.098.153.098.268V76.84a.386.386 0 01-.098.268.281.281 0 01-.238.11h-1.274zm8.299 0a.307.307 0 01-.238-.11.39.39 0 01-.098-.268V68.67l-2.128 1.845a.277.277 0 01-.196.08c-.112 0-.205-.059-.28-.174l-.588-.852a.487.487 0 01-.07-.236.39.39 0 01.154-.316l3.136-2.728a.514.514 0 01.35-.11h1.232c.103 0 .182.037.238.11a.357.357 0 01.098.268V76.84a.39.39 0 01-.098.268.281.281 0 01-.238.11h-1.274zm7.195.158c-1.242 0-2.17-.39-2.786-1.167-.607-.778-.938-1.798-.994-3.06-.01-.283-.014-.767-.014-1.45 0-.694.004-1.188.014-1.482.046-1.24.382-2.25 1.008-3.028.625-.778 1.549-1.167 2.772-1.167 1.232 0 2.16.39 2.786 1.167.625.778.956 1.787.994 3.028.018.294.028.788.028 1.482a26.1 26.1 0 01-.028 1.45c-.047 1.262-.378 2.282-.994 3.06-.607.778-1.536 1.167-2.786 1.167zm0-1.814c.588 0 1.026-.215 1.316-.646.289-.442.443-1.057.462-1.845.018-.61.028-1.072.028-1.388 0-.347-.01-.804-.028-1.372-.019-.778-.173-1.387-.462-1.829-.29-.441-.728-.662-1.316-.662-.579 0-1.018.22-1.316.662-.29.442-.444 1.051-.462 1.83-.01.283-.014.74-.014 1.371 0 .62.004 1.083.014 1.388.018.788.172 1.403.462 1.845.298.43.737.646 1.316.646zM94.794 93.144c-1.241 0-2.17-.39-2.786-1.167-.607-.778-.938-1.798-.994-3.06-.01-.283-.014-.767-.014-1.45 0-.694.005-1.188.014-1.483.047-1.24.383-2.25 1.008-3.027.625-.778 1.55-1.167 2.772-1.167 1.232 0 2.16.389 2.786 1.167.625.778.957 1.787.994 3.028.019.294.028.788.028 1.482a26.1 26.1 0 01-.028 1.45c-.047 1.262-.378 2.282-.994 3.06-.607.778-1.535 1.167-2.786 1.167zm0-1.814c.588 0 1.027-.215 1.316-.646.29-.442.443-1.057.462-1.845.019-.61.028-1.073.028-1.388 0-.347-.01-.804-.028-1.372-.019-.778-.173-1.387-.462-1.83-.29-.44-.728-.661-1.316-.661-.579 0-1.017.22-1.316.662-.29.442-.443 1.051-.462 1.83-.01.283-.014.74-.014 1.371 0 .62.005 1.083.014 1.388.019.788.173 1.403.462 1.845.299.43.737.646 1.316.646zm8.487 1.656a.308.308 0 01-.238-.11.391.391 0 01-.098-.269V84.44l-2.128 1.845a.277.277 0 01-.196.079c-.112 0-.205-.058-.28-.174l-.588-.851a.49.49 0 01-.07-.236.39.39 0 01.154-.316l3.136-2.728a.514.514 0 01.35-.11h1.232c.103 0 .182.037.238.11.066.063.098.152.098.268v10.281a.386.386 0 01-.098.269.281.281 0 01-.238.11h-1.274zm9.013.158c-1.241 0-2.17-.39-2.786-1.167-.607-.778-.938-1.798-.994-3.06a52.253 52.253 0 01-.014-1.45c0-.694.005-1.188.014-1.483.047-1.24.383-2.25 1.008-3.027.625-.778 1.549-1.167 2.772-1.167 1.232 0 2.161.389 2.786 1.167s.957 1.787.994 3.028c.019.294.028.788.028 1.482 0 .683-.009 1.167-.028 1.45-.047 1.262-.378 2.282-.994 3.06-.607.778-1.535 1.167-2.786 1.167zm0-1.814c.588 0 1.027-.215 1.316-.646.289-.442.443-1.057.462-1.845.019-.61.028-1.073.028-1.388a42.7 42.7 0 00-.028-1.372c-.019-.778-.173-1.387-.462-1.83-.289-.44-.728-.661-1.316-.661-.579 0-1.017.22-1.316.662-.289.442-.443 1.051-.462 1.83-.009.283-.014.74-.014 1.371 0 .62.005 1.083.014 1.388.019.788.173 1.403.462 1.845.299.43.737.646 1.316.646zm8.487 1.656a.308.308 0 01-.238-.11.391.391 0 01-.098-.269V84.44l-2.128 1.845a.277.277 0 01-.196.079c-.112 0-.205-.058-.28-.174l-.588-.851a.498.498 0 01-.07-.236c0-.127.052-.232.154-.316l3.136-2.728a.514.514 0 01.35-.11h1.232c.103 0 .182.037.238.11.066.063.098.152.098.268v10.281a.386.386 0 01-.098.269.281.281 0 01-.238.11h-1.274zm8.299 0a.307.307 0 01-.238-.11.391.391 0 01-.098-.269V84.44l-2.128 1.845a.277.277 0 01-.196.079c-.112 0-.205-.058-.28-.174l-.588-.851a.487.487 0 01-.07-.236.39.39 0 01.154-.316l3.136-2.728a.514.514 0 01.35-.11h1.232c.103 0 .182.037.238.11a.356.356 0 01.098.268v10.281a.391.391 0 01-.098.269.281.281 0 01-.238.11h-1.274zm7.195.158c-1.242 0-2.17-.39-2.786-1.167-.607-.778-.938-1.798-.994-3.06-.01-.283-.014-.767-.014-1.45 0-.694.004-1.188.014-1.483.046-1.24.382-2.25 1.008-3.027.625-.778 1.549-1.167 2.772-1.167 1.232 0 2.16.389 2.786 1.167.625.778.956 1.787.994 3.028.018.294.028.788.028 1.482a26.1 26.1 0 01-.028 1.45c-.047 1.262-.378 2.282-.994 3.06-.607.778-1.536 1.167-2.786 1.167zm0-1.814c.588 0 1.026-.215 1.316-.646.289-.442.443-1.057.462-1.845.018-.61.028-1.073.028-1.388 0-.347-.01-.804-.028-1.372-.019-.778-.173-1.387-.462-1.83-.29-.44-.728-.661-1.316-.661-.579 0-1.018.22-1.316.662-.29.442-.444 1.051-.462 1.83-.01.283-.014.74-.014 1.371 0 .62.004 1.083.014 1.388.018.788.172 1.403.462 1.845.298.43.737.646 1.316.646zm-41.481 17.582c-1.241 0-2.17-.389-2.786-1.166-.607-.778-.938-1.798-.994-3.06-.01-.283-.014-.767-.014-1.45 0-.694.005-1.188.014-1.483.047-1.24.383-2.25 1.008-3.027.625-.778 1.55-1.167 2.772-1.167 1.232 0 2.16.389 2.786 1.167.625.778.957 1.787.994 3.027.019.295.028.789.028 1.483a26.1 26.1 0 01-.028 1.45c-.047 1.262-.378 2.282-.994 3.06-.607.777-1.535 1.166-2.786 1.166zm0-1.813c.588 0 1.027-.215 1.316-.646.29-.442.443-1.057.462-1.845.019-.61.028-1.073.028-1.388 0-.347-.01-.804-.028-1.372-.019-.778-.173-1.388-.462-1.829-.29-.442-.728-.663-1.316-.663-.579 0-1.017.221-1.316.663-.29.441-.443 1.051-.462 1.829-.01.284-.014.741-.014 1.372 0 .62.005 1.083.014 1.388.019.788.173 1.403.462 1.845.299.431.737.646 1.316.646zm8.487 1.656a.308.308 0 01-.238-.111.39.39 0 01-.098-.268v-8.168l-2.128 1.845a.275.275 0 01-.196.079c-.112 0-.205-.058-.28-.174l-.588-.851a.49.49 0 01-.07-.237.39.39 0 01.154-.315l3.136-2.728a.514.514 0 01.35-.11h1.232a.28.28 0 01.238.11c.066.063.098.152.098.268v10.281a.385.385 0 01-.098.268.28.28 0 01-.238.111h-1.274zm9.013.157c-1.241 0-2.17-.389-2.786-1.166-.607-.778-.938-1.798-.994-3.06a52.167 52.167 0 01-.014-1.45c0-.694.005-1.188.014-1.483.047-1.24.383-2.25 1.008-3.027.625-.778 1.549-1.167 2.772-1.167 1.232 0 2.161.389 2.786 1.167s.957 1.787.994 3.027c.019.295.028.789.028 1.483 0 .683-.009 1.167-.028 1.45-.047 1.262-.378 2.282-.994 3.06-.607.777-1.535 1.166-2.786 1.166zm0-1.813c.588 0 1.027-.215 1.316-.646.289-.442.443-1.057.462-1.845.019-.61.028-1.073.028-1.388a42.7 42.7 0 00-.028-1.372c-.019-.778-.173-1.388-.462-1.829-.289-.442-.728-.663-1.316-.663-.579 0-1.017.221-1.316.663-.289.441-.443 1.051-.462 1.829-.009.284-.014.741-.014 1.372 0 .62.005 1.083.014 1.388.019.788.173 1.403.462 1.845.299.431.737.646 1.316.646zm8.487 1.656a.308.308 0 01-.238-.111.39.39 0 01-.098-.268v-8.168l-2.128 1.845a.275.275 0 01-.196.079c-.112 0-.205-.058-.28-.174l-.588-.851a.499.499 0 01-.07-.237c0-.126.052-.231.154-.315l3.136-2.728a.514.514 0 01.35-.11h1.232a.28.28 0 01.238.11c.066.063.098.152.098.268v10.281a.385.385 0 01-.098.268.28.28 0 01-.238.111h-1.274zm8.299 0a.306.306 0 01-.238-.111.39.39 0 01-.098-.268v-8.168l-2.128 1.845a.275.275 0 01-.196.079c-.112 0-.205-.058-.28-.174l-.588-.851a.488.488 0 01-.07-.237.39.39 0 01.154-.315l3.136-2.728a.514.514 0 01.35-.11h1.232a.28.28 0 01.238.11.357.357 0 01.098.268v10.281a.39.39 0 01-.098.268.28.28 0 01-.238.111h-1.274zm7.195.157c-1.242 0-2.17-.389-2.786-1.166-.607-.778-.938-1.798-.994-3.06-.01-.283-.014-.767-.014-1.45 0-.694.004-1.188.014-1.483.046-1.24.382-2.25 1.008-3.027.625-.778 1.549-1.167 2.772-1.167 1.232 0 2.16.389 2.786 1.167.625.778.956 1.787.994 3.027.018.295.028.789.028 1.483a26.1 26.1 0 01-.028 1.45c-.047 1.262-.378 2.282-.994 3.06-.607.777-1.536 1.166-2.786 1.166zm0-1.813c.588 0 1.026-.215 1.316-.646.289-.442.443-1.057.462-1.845.018-.61.028-1.073.028-1.388 0-.347-.01-.804-.028-1.372-.019-.778-.173-1.388-.462-1.829-.29-.442-.728-.663-1.316-.663-.579 0-1.018.221-1.316.663-.29.441-.444 1.051-.462 1.829-.01.284-.014.741-.014 1.372 0 .62.004 1.083.014 1.388.018.788.172 1.403.462 1.845.298.431.737.646 1.316.646zm-41.481 17.582c-1.241 0-2.17-.389-2.786-1.167-.607-.778-.938-1.797-.994-3.059-.01-.284-.014-.767-.014-1.45 0-.694.005-1.188.014-1.483.047-1.24.383-2.249 1.008-3.027s1.55-1.167 2.772-1.167c1.232 0 2.16.389 2.786 1.167.625.778.957 1.787.994 3.027.019.295.028.789.028 1.483 0 .683-.01 1.166-.028 1.45-.047 1.262-.378 2.281-.994 3.059-.607.778-1.535 1.167-2.786 1.167zm0-1.813c.588 0 1.027-.216 1.316-.647.29-.441.443-1.056.462-1.845.019-.609.028-1.072.028-1.387 0-.347-.01-.804-.028-1.372-.019-.778-.173-1.388-.462-1.829-.29-.442-.728-.663-1.316-.663-.579 0-1.017.221-1.316.663-.29.441-.443 1.051-.462 1.829-.01.284-.014.741-.014 1.372 0 .62.005 1.083.014 1.387.019.789.173 1.404.462 1.845.299.431.737.647 1.316.647zm8.487 1.656a.308.308 0 01-.238-.111.39.39 0 01-.098-.268v-8.168l-2.128 1.845a.28.28 0 01-.196.079c-.112 0-.205-.058-.28-.174l-.588-.851a.49.49 0 01-.07-.237.39.39 0 01.154-.315l3.136-2.728a.512.512 0 01.35-.111h1.232a.28.28 0 01.238.111c.066.063.098.152.098.268v10.281a.385.385 0 01-.098.268.28.28 0 01-.238.111h-1.274zm9.013.157c-1.241 0-2.17-.389-2.786-1.167-.607-.778-.938-1.797-.994-3.059a52.218 52.218 0 01-.014-1.45c0-.694.005-1.188.014-1.483.047-1.24.383-2.249 1.008-3.027s1.549-1.167 2.772-1.167c1.232 0 2.161.389 2.786 1.167s.957 1.787.994 3.027c.019.295.028.789.028 1.483 0 .683-.009 1.166-.028 1.45-.047 1.262-.378 2.281-.994 3.059-.607.778-1.535 1.167-2.786 1.167zm0-1.813c.588 0 1.027-.216 1.316-.647.289-.441.443-1.056.462-1.845.019-.609.028-1.072.028-1.387a42.7 42.7 0 00-.028-1.372c-.019-.778-.173-1.388-.462-1.829-.289-.442-.728-.663-1.316-.663-.579 0-1.017.221-1.316.663-.289.441-.443 1.051-.462 1.829-.009.284-.014.741-.014 1.372 0 .62.005 1.083.014 1.387.019.789.173 1.404.462 1.845.299.431.737.647 1.316.647zm8.487 1.656a.308.308 0 01-.238-.111.39.39 0 01-.098-.268v-8.168l-2.128 1.845a.28.28 0 01-.196.079c-.112 0-.205-.058-.28-.174l-.588-.851a.499.499 0 01-.07-.237c0-.126.052-.231.154-.315l3.136-2.728a.512.512 0 01.35-.111h1.232a.28.28 0 01.238.111c.066.063.098.152.098.268v10.281a.385.385 0 01-.098.268.28.28 0 01-.238.111h-1.274zm8.299 0a.306.306 0 01-.238-.111.39.39 0 01-.098-.268v-8.168l-2.128 1.845a.28.28 0 01-.196.079c-.112 0-.205-.058-.28-.174l-.588-.851a.488.488 0 01-.07-.237.39.39 0 01.154-.315l3.136-2.728a.512.512 0 01.35-.111h1.232a.28.28 0 01.238.111.356.356 0 01.098.268v10.281a.39.39 0 01-.098.268.28.28 0 01-.238.111h-1.274zm7.195.157c-1.242 0-2.17-.389-2.786-1.167-.607-.778-.938-1.797-.994-3.059-.01-.284-.014-.767-.014-1.45 0-.694.004-1.188.014-1.483.046-1.24.382-2.249 1.008-3.027.625-.778 1.549-1.167 2.772-1.167 1.232 0 2.16.389 2.786 1.167.625.778.956 1.787.994 3.027.018.295.028.789.028 1.483 0 .683-.01 1.166-.028 1.45-.047 1.262-.378 2.281-.994 3.059-.607.778-1.536 1.167-2.786 1.167zm0-1.813c.588 0 1.026-.216 1.316-.647.289-.441.443-1.056.462-1.845a51.84 51.84 0 00.028-1.387c0-.347-.01-.804-.028-1.372-.019-.778-.173-1.388-.462-1.829-.29-.442-.728-.663-1.316-.663-.579 0-1.018.221-1.316.663-.29.441-.444 1.051-.462 1.829-.01.284-.014.741-.014 1.372 0 .62.004 1.083.014 1.387.018.789.172 1.404.462 1.845.298.431.737.647 1.316.647zM94.794 140.45c-1.241 0-2.17-.389-2.786-1.167-.607-.778-.938-1.797-.994-3.059-.01-.284-.014-.767-.014-1.451 0-.693.005-1.188.014-1.482.047-1.24.383-2.25 1.008-3.028.625-.777 1.55-1.166 2.772-1.166 1.232 0 2.16.389 2.786 1.166.625.778.957 1.788.994 3.028.019.294.028.789.028 1.482 0 .684-.01 1.167-.028 1.451-.047 1.262-.378 2.281-.994 3.059-.607.778-1.535 1.167-2.786 1.167zm0-1.813c.588 0 1.027-.216 1.316-.647.29-.441.443-1.056.462-1.845.019-.609.028-1.072.028-1.387 0-.347-.01-.805-.028-1.372-.019-.778-.173-1.388-.462-1.829-.29-.442-.728-.663-1.316-.663-.579 0-1.017.221-1.316.663-.29.441-.443 1.051-.462 1.829-.01.284-.014.741-.014 1.372 0 .62.005 1.082.014 1.387.019.789.173 1.404.462 1.845.299.431.737.647 1.316.647zm8.487 1.656a.308.308 0 01-.238-.111.39.39 0 01-.098-.268v-8.168l-2.128 1.845a.28.28 0 01-.196.079c-.112 0-.205-.058-.28-.174l-.588-.851a.494.494 0 01-.07-.237.39.39 0 01.154-.315l3.136-2.728a.512.512 0 01.35-.111h1.232a.28.28 0 01.238.111c.066.063.098.152.098.268v10.281a.385.385 0 01-.098.268.28.28 0 01-.238.111h-1.274zm9.013.157c-1.241 0-2.17-.389-2.786-1.167-.607-.778-.938-1.797-.994-3.059a52.253 52.253 0 01-.014-1.451c0-.693.005-1.188.014-1.482.047-1.24.383-2.25 1.008-3.028.625-.777 1.549-1.166 2.772-1.166 1.232 0 2.161.389 2.786 1.166.625.778.957 1.788.994 3.028.019.294.028.789.028 1.482 0 .684-.009 1.167-.028 1.451-.047 1.262-.378 2.281-.994 3.059-.607.778-1.535 1.167-2.786 1.167zm0-1.813c.588 0 1.027-.216 1.316-.647.289-.441.443-1.056.462-1.845.019-.609.028-1.072.028-1.387 0-.347-.009-.805-.028-1.372-.019-.778-.173-1.388-.462-1.829-.289-.442-.728-.663-1.316-.663-.579 0-1.017.221-1.316.663-.289.441-.443 1.051-.462 1.829-.009.284-.014.741-.014 1.372 0 .62.005 1.082.014 1.387.019.789.173 1.404.462 1.845.299.431.737.647 1.316.647zm8.487 1.656a.308.308 0 01-.238-.111.39.39 0 01-.098-.268v-8.168l-2.128 1.845a.28.28 0 01-.196.079c-.112 0-.205-.058-.28-.174l-.588-.851a.502.502 0 01-.07-.237c0-.126.052-.231.154-.315l3.136-2.728a.512.512 0 01.35-.111h1.232a.28.28 0 01.238.111c.066.063.098.152.098.268v10.281a.385.385 0 01-.098.268.28.28 0 01-.238.111h-1.274zm8.299 0a.306.306 0 01-.238-.111.39.39 0 01-.098-.268v-8.168l-2.128 1.845a.28.28 0 01-.196.079c-.112 0-.205-.058-.28-.174l-.588-.851a.49.49 0 01-.07-.237.39.39 0 01.154-.315l3.136-2.728a.512.512 0 01.35-.111h1.232a.28.28 0 01.238.111.356.356 0 01.098.268v10.281a.39.39 0 01-.098.268.28.28 0 01-.238.111h-1.274zm7.195.157c-1.242 0-2.17-.389-2.786-1.167-.607-.778-.938-1.797-.994-3.059-.01-.284-.014-.767-.014-1.451 0-.693.004-1.188.014-1.482.046-1.24.382-2.25 1.008-3.028.625-.777 1.549-1.166 2.772-1.166 1.232 0 2.16.389 2.786 1.166.625.778.956 1.788.994 3.028.018.294.028.789.028 1.482 0 .684-.01 1.167-.028 1.451-.047 1.262-.378 2.281-.994 3.059-.607.778-1.536 1.167-2.786 1.167zm0-1.813c.588 0 1.026-.216 1.316-.647.289-.441.443-1.056.462-1.845a51.84 51.84 0 00.028-1.387c0-.347-.01-.805-.028-1.372-.019-.778-.173-1.388-.462-1.829-.29-.442-.728-.663-1.316-.663-.579 0-1.018.221-1.316.663-.29.441-.444 1.051-.462 1.829-.01.284-.014.741-.014 1.372 0 .62.004 1.082.014 1.387.018.789.172 1.404.462 1.845.298.431.737.647 1.316.647z" opacity=".21" fill="#23A873"/><path fill-rule="evenodd" clip-rule="evenodd" d="M87.504 162.647c41.504 0 75.149-33.645 75.149-75.149 0-41.503-33.645-75.148-75.149-75.148-41.503 0-75.148 33.645-75.148 75.148 0 41.504 33.645 75.149 75.148 75.149zm0 1c42.056 0 76.149-34.093 76.149-76.149S129.56 11.35 87.504 11.35 11.356 45.443 11.356 87.498c0 42.056 34.092 76.149 76.148 76.149z" fill="#23A873"/><ellipse cx="82.597" cy="90.423" rx="30.097" ry="34.113" fill="#23A873"/><path d="M117.862 134.978c-1.169-.043-2.281-.585-3.113-1.517l-7.127-9.384c-1.528-1.574-1.653-4.249-.28-5.997.642-.733 1.516-1.144 2.427-1.144.912 0 1.786.411 2.428 1.144l8.964 8.078c1.291 1.489 1.69 3.699 1.017 5.642-.672 1.943-2.29 3.257-4.129 3.354l-.187-.176z" fill="#23A873"/><g opacity=".2"><mask id="s" fill="#fff"><path d="M103.969 173.436a87.504 87.504 0 01-48.68-4.58l.426-1.076a86.334 86.334 0 0048.036 4.52l.218 1.136z"/></mask><path d="M103.969 173.436a87.504 87.504 0 01-48.68-4.58l.426-1.076a86.334 86.334 0 0048.036 4.52l.218 1.136z" stroke="#23A873" stroke-width="2" mask="url(#s)"/></g><g opacity=".2"><mask id="t" fill="#fff"><path d="M28.323 151.954A87.497 87.497 0 012.98 110.141l1.117-.299a86.34 86.34 0 0025.009 41.26l-.783.852z"/></mask><path d="M28.323 151.954A87.497 87.497 0 012.98 110.141l1.117-.299a86.34 86.34 0 0025.009 41.26l-.783.852z" stroke="#23A873" stroke-width="2" mask="url(#t)"/></g><g opacity=".2"><mask id="u" fill="#fff"><path d="M.035 89.971a87.5 87.5 0 0112.33-47.314l.993.593A86.343 86.343 0 001.19 89.94l-1.156.032z"/></mask><path d="M.035 89.971a87.5 87.5 0 0112.33-47.314l.993.593A86.343 86.343 0 001.19 89.94l-1.156.032z" stroke="#23A873" stroke-width="2" mask="url(#u)"/></g><g opacity=".2"><mask id="v" fill="#fff"><path d="M67.2 2.387a87.498 87.498 0 0148.835 2.397l-.377 1.093a86.342 86.342 0 00-48.19-2.364L67.2 2.387z"/></mask><path d="M67.2 2.387a87.498 87.498 0 0148.835 2.397l-.377 1.093a86.342 86.342 0 00-48.19-2.364L67.2 2.387z" stroke="#23A873" stroke-width="2" mask="url(#v)"/></g><g opacity=".2"><mask id="w" fill="#fff"><path d="M166.757 50.425a87.498 87.498 0 017.518 48.313l-1.147-.149a86.337 86.337 0 00-7.419-47.674l1.048-.49z"/></mask><path d="M166.757 50.425a87.498 87.498 0 017.518 48.313l-1.147-.149a86.337 86.337 0 00-7.419-47.674l1.048-.49z" stroke="#23A873" stroke-width="2" mask="url(#w)"/></g><path fill-rule="evenodd" clip-rule="evenodd" d="M92.003 635.452c42.224 0 76.454-34.23 76.454-76.454s-34.23-76.454-76.454-76.454-76.454 34.23-76.454 76.454 34.23 76.454 76.454 76.454zm0 1c42.777 0 77.454-34.677 77.454-77.454 0-42.777-34.677-77.454-77.454-77.454-42.777 0-77.454 34.677-77.454 77.454 0 42.777 34.677 77.454 77.454 77.454z" fill="#23A873"/><g opacity=".2"><mask id="x" fill="#fff"><path d="M108.751 646.409a88.99 88.99 0 01-49.514-4.659l.434-1.094a87.83 87.83 0 0048.859 4.598l.221 1.155z"/></mask><path d="M108.751 646.409a88.99 88.99 0 01-49.514-4.659l.434-1.094a87.83 87.83 0 0048.859 4.598l.221 1.155z" stroke="#23A873" stroke-width="2" mask="url(#x)"/></g><g opacity=".2"><mask id="y" fill="#fff"><path d="M31.809 624.559a88.995 88.995 0 01-25.778-42.53l1.137-.304a87.825 87.825 0 0025.437 41.968l-.796.866z"/></mask><path d="M31.809 624.559a88.995 88.995 0 01-25.778-42.53l1.137-.304a87.825 87.825 0 0025.437 41.968l-.796.866z" stroke="#23A873" stroke-width="2" mask="url(#y)"/></g><g opacity=".2"><mask id="z" fill="#fff"><path d="M3.036 561.514a88.998 88.998 0 0112.54-48.125l1.01.603A87.822 87.822 0 004.213 561.48l-1.176.034z"/></mask><path d="M3.036 561.514a88.998 88.998 0 0112.54-48.125l1.01.603A87.822 87.822 0 004.213 561.48l-1.176.034z" stroke="#23A873" stroke-width="2" mask="url(#z)"/></g><g opacity=".2"><mask id="A" fill="#fff"><path d="M71.352 472.428a89.003 89.003 0 0149.673 2.438l-.384 1.112a87.827 87.827 0 00-49.016-2.405l-.273-1.145z"/></mask><path d="M71.352 472.428a89.003 89.003 0 0149.673 2.438l-.384 1.112a87.827 87.827 0 00-49.016-2.405l-.273-1.145z" stroke="#23A873" stroke-width="2" mask="url(#A)"/></g><g opacity=".2"><mask id="B" fill="#fff"><path d="M172.616 521.29a88.997 88.997 0 017.647 49.14l-1.167-.151a87.82 87.82 0 00-7.546-48.491l1.066-.498z"/></mask><path d="M172.616 521.29a88.997 88.997 0 017.647 49.14l-1.167-.151a87.82 87.82 0 00-7.546-48.491l1.066-.498z" stroke="#23A873" stroke-width="2" mask="url(#B)"/></g><g clip-path="url(#clip4)" fill="#23A873"><path d="M66.969 556.775a6.223 6.223 0 004.331-1.76l6.175 3.088c-.03.251-.077.498-.077.758a6.266 6.266 0 006.258 6.258 6.266 6.266 0 006.258-6.258c0-.963-.237-1.865-.627-2.681l8.376-8.376a6.19 6.19 0 002.681.627 6.265 6.265 0 006.258-6.258c0-.649-.128-1.264-.313-1.853l7.278-5.457a6.218 6.218 0 003.464 1.053 6.265 6.265 0 006.258-6.258 6.265 6.265 0 00-6.258-6.258 6.265 6.265 0 00-6.258 6.258c0 .649.128 1.264.313 1.853l-7.278 5.457a6.217 6.217 0 00-3.464-1.052 6.265 6.265 0 00-6.258 6.257c0 .963.237 1.865.627 2.681l-8.376 8.376a6.19 6.19 0 00-2.68-.627 6.227 6.227 0 00-4.332 1.759l-6.175-3.087c.03-.251.077-.498.077-.758a6.266 6.266 0 00-6.258-6.258 6.266 6.266 0 00-6.258 6.258 6.265 6.265 0 006.258 6.258z"/><path d="M125.514 590.428h-2.225v-44.083a2.085 2.085 0 00-2.085-2.086h-8.344a2.085 2.085 0 00-2.086 2.086v44.083h-4.172v-31.567a2.085 2.085 0 00-2.086-2.086h-8.344a2.085 2.085 0 00-2.086 2.086v31.567h-4.171v-14.88a2.086 2.086 0 00-2.087-2.086h-8.343a2.086 2.086 0 00-2.086 2.086v14.88h-4.172v-23.223a2.085 2.085 0 00-2.086-2.086h-8.344a2.085 2.085 0 00-2.086 2.086v23.223h-2.225a2.085 2.085 0 100 4.172h67.028a2.085 2.085 0 002.086-2.086 2.085 2.085 0 00-2.086-2.086z"/></g><path fill-rule="evenodd" clip-rule="evenodd" d="M506.504 173.647c41.504 0 75.149-33.645 75.149-75.149 0-41.503-33.645-75.148-75.149-75.148-41.503 0-75.149 33.645-75.149 75.148 0 41.504 33.646 75.149 75.149 75.149zm0 1c42.056 0 76.149-34.093 76.149-76.149S548.56 22.35 506.504 22.35s-76.149 34.093-76.149 76.148c0 42.056 34.093 76.149 76.149 76.149z" fill="#23A873"/><g opacity=".2"><mask id="C" fill="#fff"><path d="M522.969 184.436a87.502 87.502 0 01-48.679-4.58l.425-1.076a86.337 86.337 0 0048.036 4.52l.218 1.136z"/></mask><path d="M522.969 184.436a87.502 87.502 0 01-48.679-4.58l.425-1.076a86.337 86.337 0 0048.036 4.52l.218 1.136z" stroke="#23A873" stroke-width="2" mask="url(#C)"/></g><g opacity=".2"><mask id="D" fill="#fff"><path d="M447.323 162.954a87.5 87.5 0 01-25.343-41.813l1.117-.299a86.338 86.338 0 0025.009 41.26l-.783.852z"/></mask><path d="M447.323 162.954a87.5 87.5 0 01-25.343-41.813l1.117-.299a86.338 86.338 0 0025.009 41.26l-.783.852z" stroke="#23A873" stroke-width="2" mask="url(#D)"/></g><g opacity=".2"><mask id="E" fill="#fff"><path d="M419.035 100.971a87.498 87.498 0 0112.329-47.314l.994.593a86.345 86.345 0 00-12.167 46.689l-1.156.032z"/></mask><path d="M419.035 100.971a87.498 87.498 0 0112.329-47.314l.994.593a86.345 86.345 0 00-12.167 46.689l-1.156.032z" stroke="#23A873" stroke-width="2" mask="url(#E)"/></g><g opacity=".2"><mask id="F" fill="#fff"><path d="M486.2 13.387a87.499 87.499 0 0148.835 2.397l-.377 1.093a86.341 86.341 0 00-48.189-2.364l-.269-1.126z"/></mask><path d="M486.2 13.387a87.499 87.499 0 0148.835 2.397l-.377 1.093a86.341 86.341 0 00-48.189-2.364l-.269-1.126z" stroke="#23A873" stroke-width="2" mask="url(#F)"/></g><g opacity=".2"><mask id="G" fill="#fff"><path d="M585.757 61.425a87.498 87.498 0 017.518 48.313l-1.147-.149a86.337 86.337 0 00-7.419-47.674l1.048-.49z"/></mask><path d="M585.757 61.425a87.498 87.498 0 017.518 48.313l-1.147-.149a86.337 86.337 0 00-7.419-47.674l1.048-.49z" stroke="#23A873" stroke-width="2" mask="url(#G)"/></g><g clip-path="url(#clip5)" fill="#23A873"><path d="M500.45 79.011c5.092 0 9.234-4.143 9.234-9.236 0-5.092-4.142-9.235-9.234-9.235s-9.235 4.143-9.235 9.235c0 5.093 4.143 9.236 9.235 9.236z"/><path d="M540.14 56.9a12.978 12.978 0 00-3.295-.4c-3.072 0-6.122.897-8.35 1.551-.564.166-1.097.323-1.552.441-.736.192-1.638.232-2.266.232-.741 0-1.501-.06-2.044-.155a1.455 1.455 0 00-2.593.904v31.608l-9.51-9.807c-.617-.636-1.629-1.212-3.135-1.212h-13.159c-2.069 0-3.317 1.097-3.869 2.375l-7.488 17.315a3.89 3.89 0 003.564 5.427c1.552 0 2.951-.92 3.567-2.344l1.363-3.152.01 33.039a4.283 4.283 0 004.278 4.278 4.284 4.284 0 004.279-4.278v-22.667h1.804v22.667a4.283 4.283 0 004.278 4.278 4.283 4.283 0 004.278-4.278V92.197l8.407 8.668c.384.396.838.697 1.333.897v32.787a1.454 1.454 0 102.91 0v-32.785a3.89 3.89 0 001.334-6.308l-1.334-1.375V74.633c.109.002.218.006.329.006 2.884 0 6.193-.648 9.081-1.779 1.205-.472 2.53-.711 3.939-.711 1.904 0 3.322.436 3.711.57a.749.749 0 00.245.042.616.616 0 00.513-.267c.111-.156.167-.368.167-.63l.004-13.963c0-.576-.49-.92-.799-1.001z"/></g><path fill-rule="evenodd" clip-rule="evenodd" d="M155.754 849.565l100.5-57 .493.87-100.5 57-.493-.87zM249.999 640l-93-40 .396-.918 93 40-.396.918zm86-84l-40-103 .933-.362 40 103-.933.362z" fill="#23A873"/><path fill-rule="evenodd" clip-rule="evenodd" d="M224.999 162l-73-35 .433-.902 73 35-.433.902z" fill="#CCF4D8"/><path fill-rule="evenodd" clip-rule="evenodd" d="M224.999 162l-73-35 .433-.902 73 35-.433.902z" fill="#23A873"/><path fill-rule="evenodd" clip-rule="evenodd" d="M282 335v-66h1v66h-1z" fill="#CCF4D8"/><path fill-rule="evenodd" clip-rule="evenodd" d="M282 335v-66h1v66h-1zm189.001 224l19-73 .968.252-19 73-.968-.252zM438 130l-77 30-.363-.932 77-30L438 130z" fill="#23A873"/><defs><clipPath id="clip0"><path fill="#fff" transform="translate(56.438 859.781)" d="M0 0h65.122v65.122H0z"/></clipPath><clipPath id="clip1"><path fill="#fff" transform="translate(251.5 152.5)" d="M0 0h84v84H0z"/></clipPath><clipPath id="clip2"><path fill="#fff" transform="translate(247.199 361.4)" d="M0 0h64.4v64.4H0z"/></clipPath><clipPath id="clip3"><path fill="#fff" transform="translate(478.5 384.5)" d="M0 0h56v56H0z"/></clipPath><clipPath id="clip4"><path fill="#fff" transform="translate(56.4 523.4)" d="M0 0h71.2v71.2H0z"/></clipPath><clipPath id="clip5"><path fill="#fff" transform="translate(471.5 56.5)" d="M0 0h80.5v80.5H0z"/></clipPath></defs></svg>