<svg width="49" height="256" fill="none" xmlns="http://www.w3.org/2000/svg"><path fill="#96C7EE" d="M0 124h49v35H0z"/><path fill="#27AE60" d="M0 62h49v62H0z"/><path fill="#5DC287" d="M0 0h49v62H0z"/><path d="M0 159h49v43.404L24.5 221 0 202.404V159z" fill="#478ECE"/><path d="M7.514 248a.39.39 0 01-.288-.108.39.39 0 01-.108-.288v-.27c0-.24.15-.492.45-.756l4.662-4.662c.66-.612 1.104-1.128 1.332-1.548.228-.42.342-.918.342-1.494 0-.804-.234-1.434-.702-1.89-.456-.456-1.11-.684-1.962-.684-.804 0-1.446.234-1.926.702-.48.468-.768 1.098-.864 1.89a.41.41 0 01-.162.306.389.389 0 01-.252.108h-.36a.435.435 0 01-.288-.09.382.382 0 01-.09-.252c.024-.588.18-1.17.468-1.746.288-.576.726-1.05 1.314-1.422.588-.384 1.308-.576 2.16-.576 1.284 0 2.238.348 2.862 1.044.624.696.936 1.566.936 2.61 0 .72-.156 1.368-.468 1.944-.312.576-.81 1.182-1.494 1.818l-4.212 4.284h6.03c.132 0 .234.036.306.108.072.072.108.174.108.306v.27a.36.36 0 01-.126.288.39.39 0 01-.288.108h-7.38zm14.284.18c-1.512 0-2.604-.456-3.276-1.368-.66-.912-1.008-2.112-1.044-3.6l-.018-1.494.018-1.53c.036-1.488.384-2.688 1.044-3.6.672-.912 1.764-1.368 3.276-1.368 1.512 0 2.598.456 3.258 1.368.672.912 1.026 2.112 1.062 3.6.012.336.018.846.018 1.53 0 .672-.006 1.17-.018 1.494-.036 1.488-.39 2.688-1.062 3.6-.66.912-1.746 1.368-3.258 1.368zm0-1.08c1.032 0 1.812-.342 2.34-1.026.54-.696.822-1.68.846-2.952.012-.348.018-.828.018-1.44s-.006-1.08-.018-1.404c-.024-1.248-.306-2.22-.846-2.916-.528-.708-1.308-1.062-2.34-1.062-1.032 0-1.818.354-2.358 1.062-.528.696-.804 1.668-.828 2.916l-.018 1.404.018 1.44c.024 1.272.3 2.256.828 2.952.54.684 1.326 1.026 2.358 1.026zm10.516.9a.39.39 0 01-.288-.108.39.39 0 01-.108-.288v-10.728l-3.222 2.484a.495.495 0 01-.252.09.376.376 0 01-.306-.162l-.198-.252a.432.432 0 01-.09-.252c0-.12.054-.222.162-.306l3.834-2.952a.799.799 0 01.468-.126h.342a.39.39 0 01.288.108.39.39 0 01.108.288v11.808a.39.39 0 01-.108.288.39.39 0 01-.288.108h-.342zm5.822 0a.366.366 0 01-.27-.108.483.483 0 01-.09-.288c0-.072.03-.15.09-.234l2.844-3.996a4.53 4.53 0 01-1.17.144c-.912 0-1.692-.198-2.34-.594a3.875 3.875 0 01-1.44-1.548 4.345 4.345 0 010-3.996 3.875 3.875 0 011.44-1.548c.648-.408 1.428-.612 2.34-.612.912 0 1.692.204 2.34.612a3.839 3.839 0 011.458 1.548c.324.636.486 1.302.486 1.998 0 .624-.102 1.176-.306 1.656-.204.48-.456.936-.756 1.368l-3.708 5.238a1.039 1.039 0 01-.108.144.684.684 0 01-.198.162.557.557 0 01-.252.054h-.36zm1.404-5.562c.564 0 1.086-.126 1.566-.378s.864-.612 1.152-1.08a2.994 2.994 0 00.432-1.602c0-.612-.144-1.152-.432-1.62a2.931 2.931 0 00-1.152-1.08 3.318 3.318 0 00-1.566-.378c-.564 0-1.086.126-1.566.378s-.864.612-1.152 1.08c-.276.468-.414 1.008-.414 1.62 0 .612.138 1.152.414 1.62.288.456.672.81 1.152 1.062.48.252 1.002.378 1.566.378z" fill="#101517"/></svg>