<svg width="49" height="231" fill="none" xmlns="http://www.w3.org/2000/svg"><path fill="#96C7EE" d="M0 112h49v32H0z"/><path fill="#27AE60" d="M0 56h49v56H0z"/><path fill="#5DC287" d="M0 0h49v56H0z"/><path d="M0 144h49v33.404L24.5 196 0 177.404V144z" fill="#478ECE"/><path d="M6.6 223a.39.39 0 01-.287-.108.39.39 0 01-.108-.288v-.27c0-.24.15-.492.45-.756l4.662-4.662c.66-.612 1.104-1.128 1.332-1.548.228-.42.342-.918.342-1.494 0-.804-.234-1.434-.702-1.89-.456-.456-1.11-.684-1.962-.684-.804 0-1.446.234-1.926.702-.48.468-.768 1.098-.864 1.89a.41.41 0 01-.162.306.389.389 0 01-.252.108h-.36a.435.435 0 01-.288-.09.382.382 0 01-.09-.252c.024-.588.18-1.17.468-1.746.288-.576.726-1.05 1.314-1.422.588-.384 1.308-.576 2.16-.576 1.284 0 2.238.348 2.862 1.044.624.696.936 1.566.936 2.61 0 .72-.156 1.368-.468 1.944-.312.576-.81 1.182-1.494 1.818L7.95 221.92h6.03c.132 0 .234.036.306.108.072.072.108.174.108.306v.27a.36.36 0 01-.126.288.39.39 0 01-.288.108H6.6zm14.285.18c-1.512 0-2.604-.456-3.276-1.368-.66-.912-1.008-2.112-1.044-3.6l-.018-1.494.018-1.53c.036-1.488.384-2.688 1.044-3.6.672-.912 1.764-1.368 3.276-1.368 1.512 0 2.598.456 3.258 1.368.672.912 1.026 2.112 1.062 3.6.012.336.018.846.018 1.53 0 .672-.006 1.17-.018 1.494-.036 1.488-.39 2.688-1.062 3.6-.66.912-1.746 1.368-3.258 1.368zm0-1.08c1.032 0 1.812-.342 2.34-1.026.54-.696.822-1.68.846-2.952.012-.348.018-.828.018-1.44s-.006-1.08-.018-1.404c-.024-1.248-.306-2.22-.846-2.916-.528-.708-1.308-1.062-2.34-1.062-1.032 0-1.818.354-2.358 1.062-.528.696-.804 1.668-.828 2.916l-.018 1.404.018 1.44c.024 1.272.3 2.256.828 2.952.54.684 1.326 1.026 2.358 1.026zm10.516.9a.39.39 0 01-.288-.108.39.39 0 01-.108-.288v-10.728l-3.222 2.484a.495.495 0 01-.252.09.376.376 0 01-.306-.162l-.198-.252a.432.432 0 01-.09-.252c0-.12.054-.222.162-.306l3.834-2.952a.799.799 0 01.468-.126h.342a.39.39 0 01.288.108.39.39 0 01.108.288v11.808a.39.39 0 01-.108.288.39.39 0 01-.288.108H31.4zm7.765.18c-.84 0-1.601-.144-2.285-.432a3.681 3.681 0 01-1.602-1.278c-.397-.564-.595-1.236-.595-2.016 0-.744.18-1.386.54-1.926.36-.54.859-.96 1.495-1.26a3.04 3.04 0 01-1.17-1.098c-.276-.468-.414-1.014-.414-1.638 0-1.044.378-1.854 1.134-2.43.767-.588 1.733-.882 2.898-.882 1.163 0 2.123.294 2.88.882.768.576 1.152 1.386 1.152 2.43 0 .624-.145 1.17-.432 1.638-.277.456-.66.822-1.153 1.098.637.3 1.135.72 1.495 1.26.36.54.54 1.182.54 1.926 0 .78-.199 1.452-.595 2.016-.396.564-.936.99-1.62 1.278-.671.288-1.427.432-2.267.432zm0-7.434c.817-.024 1.5-.234 2.053-.63.563-.396.846-.924.846-1.584 0-.684-.276-1.224-.828-1.62-.553-.408-1.242-.612-2.07-.612-.828 0-1.519.204-2.07.612-.553.396-.828.936-.828 1.62s.276 1.224.828 1.62c.551.396 1.242.594 2.07.594zm0 6.354c.949 0 1.74-.24 2.377-.72.648-.48.971-1.122.971-1.926 0-.792-.318-1.428-.954-1.908-.636-.48-1.434-.72-2.394-.72-.96 0-1.758.24-2.393.72-.637.48-.955 1.116-.955 1.908 0 .804.319 1.446.955 1.926.647.48 1.445.72 2.393.72z" fill="#101517"/></svg>