<svg width="432" height="330" fill="none" xmlns="http://www.w3.org/2000/svg"><path d="M383 196h40v70h-40v-70z" fill="#478ECC"/><path d="M383 83h40v84h-40V83z" fill="#23A873"/><path d="M383 159h40v38h-40v-38z" fill="#96C8ED"/><path d="M383 19h40v64h-40V19z" fill="#198459"/><path d="M396.42 304.104V305h-6.874v-.714l4.074-3.99c.513-.504.859-.938 1.036-1.302a2.48 2.48 0 00.28-1.12c0-.579-.201-1.027-.602-1.344-.392-.327-.957-.49-1.694-.49-1.148 0-2.039.364-2.674 1.092l-.714-.616a3.775 3.775 0 011.456-1.036c.597-.243 1.269-.364 2.016-.364.999 0 1.787.238 2.366.714.588.467.882 1.111.882 1.932 0 .504-.112.989-.336 1.456-.224.467-.649 1.003-1.274 1.61l-3.332 3.276h5.39zm5.536.98a3.56 3.56 0 01-2.03-.602c-.588-.401-1.05-.975-1.386-1.722-.326-.756-.49-1.643-.49-2.66 0-1.017.164-1.899.49-2.646.336-.756.798-1.335 1.386-1.736a3.56 3.56 0 012.03-.602c.756 0 1.428.201 2.016.602.598.401 1.064.98 1.4 1.736.336.747.504 1.629.504 2.646s-.168 1.904-.504 2.66c-.336.747-.802 1.321-1.4 1.722-.588.401-1.26.602-2.016.602zm0-.924c.57 0 1.069-.159 1.498-.476.439-.317.78-.779 1.022-1.386.243-.607.364-1.339.364-2.198s-.121-1.591-.364-2.198c-.242-.607-.583-1.069-1.022-1.386a2.452 2.452 0 00-1.498-.476c-.569 0-1.073.159-1.512.476-.429.317-.765.779-1.008 1.386-.242.607-.364 1.339-.364 2.198s.122 1.591.364 2.198c.243.607.579 1.069 1.008 1.386.439.317.943.476 1.512.476zm12.449-.056V305h-6.874v-.714l4.074-3.99c.513-.504.858-.938 1.036-1.302.186-.373.28-.747.28-1.12 0-.579-.201-1.027-.602-1.344-.392-.327-.957-.49-1.694-.49-1.148 0-2.04.364-2.674 1.092l-.714-.616a3.768 3.768 0 011.456-1.036c.597-.243 1.269-.364 2.016-.364.998 0 1.787.238 2.366.714.588.467.882 1.111.882 1.932 0 .504-.112.989-.336 1.456-.224.467-.649 1.003-1.274 1.61l-3.332 3.276h5.39zm4.401-8.904v9.8h-1.008v-8.904h-2.31v-.896h3.318z" fill="#000"/><path d="M395.16 230.94c.687.067 1.21.28 1.57.64.36.353.54.807.54 1.36 0 .4-.1.763-.3 1.09-.2.32-.5.577-.9.77-.393.187-.877.28-1.45.28-.5 0-.98-.073-1.44-.22-.46-.153-.837-.363-1.13-.63l.46-.79c.24.227.547.41.92.55.373.133.77.2 1.19.2.52 0 .923-.11 1.21-.33.293-.22.44-.523.44-.91s-.143-.687-.43-.9c-.287-.213-.72-.32-1.3-.32h-.56v-.7l1.76-2.16h-3.37V228h4.62v.68l-1.83 2.26zm6.203 4.14c-.554 0-1.047-.14-1.48-.42-.427-.287-.764-.7-1.01-1.24-.247-.54-.37-1.18-.37-1.92s.123-1.38.37-1.92c.246-.54.583-.95 1.01-1.23.433-.287.926-.43 1.48-.43.546 0 1.033.143 1.46.43.433.28.773.69 1.02 1.23.246.54.37 1.18.37 1.92s-.124 1.38-.37 1.92c-.247.54-.587.953-1.02 1.24-.427.28-.914.42-1.46.42zm0-.89c.56 0 1.006-.23 1.34-.69.34-.46.51-1.127.51-2s-.17-1.54-.51-2c-.334-.46-.78-.69-1.34-.69-.567 0-1.02.23-1.36.69-.334.46-.5 1.127-.5 2s.166 1.54.5 2c.34.46.793.69 1.36.69zm5.63-2.43c-.487 0-.88-.177-1.18-.53-.3-.353-.45-.813-.45-1.38s.15-1.027.45-1.38c.3-.353.693-.53 1.18-.53.486 0 .876.177 1.17.53.3.347.45.807.45 1.38 0 .573-.15 1.037-.45 1.39-.294.347-.684.52-1.17.52zm4.22-3.76h.77l-4.78 7h-.77l4.78-7zm-4.22 3.19a.85.85 0 00.72-.35c.173-.24.26-.57.26-.99 0-.42-.087-.747-.26-.98a.84.84 0 00-.72-.36c-.3 0-.54.12-.72.36-.174.24-.26.567-.26.98 0 .413.086.74.26.98.18.24.42.36.72.36zm4.43 3.87c-.487 0-.88-.173-1.18-.52-.294-.353-.44-.817-.44-1.39s.146-1.033.44-1.38c.3-.353.693-.53 1.18-.53.486 0 .88.177 1.18.53.3.353.45.813.45 1.38s-.15 1.027-.45 1.38c-.3.353-.694.53-1.18.53zm0-.57c.3 0 .536-.12.71-.36.18-.24.27-.567.27-.98 0-.413-.09-.74-.27-.98a.83.83 0 00-.71-.36.838.838 0 00-.72.36c-.174.233-.26.56-.26.98 0 .42.086.75.26.99.173.233.413.35.72.35zM395.16 124.94c.687.067 1.21.28 1.57.64.36.353.54.807.54 1.36 0 .4-.1.763-.3 1.09-.2.32-.5.577-.9.77-.393.187-.877.28-1.45.28-.5 0-.98-.073-1.44-.22-.46-.153-.837-.363-1.13-.63l.46-.79c.24.227.547.41.92.55.373.133.77.2 1.19.2.52 0 .923-.11 1.21-.33.293-.22.44-.523.44-.91s-.143-.687-.43-.9c-.287-.213-.72-.32-1.3-.32h-.56v-.7l1.76-2.16h-3.37V122h4.62v.68l-1.83 2.26zm6.203 4.14c-.554 0-1.047-.14-1.48-.42-.427-.287-.764-.7-1.01-1.24-.247-.54-.37-1.18-.37-1.92s.123-1.38.37-1.92c.246-.54.583-.95 1.01-1.23.433-.287.926-.43 1.48-.43.546 0 1.033.143 1.46.43.433.28.773.69 1.02 1.23.246.54.37 1.18.37 1.92s-.124 1.38-.37 1.92c-.247.54-.587.953-1.02 1.24-.427.28-.914.42-1.46.42zm0-.89c.56 0 1.006-.23 1.34-.69.34-.46.51-1.127.51-2s-.17-1.54-.51-2c-.334-.46-.78-.69-1.34-.69-.567 0-1.02.23-1.36.69-.334.46-.5 1.127-.5 2s.166 1.54.5 2c.34.46.793.69 1.36.69zm5.63-2.43c-.487 0-.88-.177-1.18-.53-.3-.353-.45-.813-.45-1.38s.15-1.027.45-1.38c.3-.353.693-.53 1.18-.53.486 0 .876.177 1.17.53.3.347.45.807.45 1.38 0 .573-.15 1.037-.45 1.39-.294.347-.684.52-1.17.52zm4.22-3.76h.77l-4.78 7h-.77l4.78-7zm-4.22 3.19a.85.85 0 00.72-.35c.173-.24.26-.57.26-.99 0-.42-.087-.747-.26-.98a.84.84 0 00-.72-.36c-.3 0-.54.12-.72.36-.174.24-.26.567-.26.98 0 .413.086.74.26.98.18.24.42.36.72.36zm4.43 3.87c-.487 0-.88-.173-1.18-.52-.294-.353-.44-.817-.44-1.39s.146-1.033.44-1.38c.3-.353.693-.53 1.18-.53.486 0 .88.177 1.18.53.3.353.45.813.45 1.38s-.15 1.027-.45 1.38c-.3.353-.694.53-1.18.53zm0-.57c.3 0 .536-.12.71-.36.18-.24.27-.567.27-.98 0-.413-.09-.74-.27-.98a.83.83 0 00-.71-.36.838.838 0 00-.72.36c-.174.233-.26.56-.26.98 0 .42.086.75.26.99.173.233.413.35.72.35zM395.16 50.94c.687.067 1.21.28 1.57.64.36.353.54.807.54 1.36 0 .4-.1.763-.3 1.09-.2.32-.5.577-.9.77-.393.187-.877.28-1.45.28-.5 0-.98-.073-1.44-.22-.46-.153-.837-.363-1.13-.63l.46-.79c.24.227.547.41.92.55.373.133.77.2 1.19.2.52 0 .923-.11 1.21-.33.293-.22.44-.523.44-.91s-.143-.687-.43-.9c-.287-.213-.72-.32-1.3-.32h-.56v-.7l1.76-2.16h-3.37V48h4.62v.68l-1.83 2.26zm6.203 4.14c-.554 0-1.047-.14-1.48-.42-.427-.287-.764-.7-1.01-1.24-.247-.54-.37-1.18-.37-1.92s.123-1.38.37-1.92c.246-.54.583-.95 1.01-1.23.433-.287.926-.43 1.48-.43a2.56 2.56 0 011.46.43c.433.28.773.69 1.02 1.23.246.54.37 1.18.37 1.92s-.124 1.38-.37 1.92c-.247.54-.587.953-1.02 1.24-.427.28-.914.42-1.46.42zm0-.89c.56 0 1.006-.23 1.34-.69.34-.46.51-1.127.51-2s-.17-1.54-.51-2c-.334-.46-.78-.69-1.34-.69-.567 0-1.02.23-1.36.69-.334.46-.5 1.127-.5 2s.166 1.54.5 2c.34.46.793.69 1.36.69zm5.63-2.43c-.487 0-.88-.177-1.18-.53-.3-.353-.45-.813-.45-1.38s.15-1.027.45-1.38c.3-.353.693-.53 1.18-.53.486 0 .876.177 1.17.53.3.347.45.807.45 1.38 0 .573-.15 1.037-.45 1.39-.294.347-.684.52-1.17.52zm4.22-3.76h.77l-4.78 7h-.77l4.78-7zm-4.22 3.19a.849.849 0 00.72-.35c.173-.24.26-.57.26-.99 0-.42-.087-.747-.26-.98a.84.84 0 00-.72-.36c-.3 0-.54.12-.72.36-.174.24-.26.567-.26.98 0 .413.086.74.26.98.18.24.42.36.72.36zm4.43 3.87c-.487 0-.88-.173-1.18-.52-.294-.353-.44-.817-.44-1.39s.146-1.033.44-1.38c.3-.353.693-.53 1.18-.53.486 0 .88.177 1.18.53.3.353.45.813.45 1.38s-.15 1.027-.45 1.38c-.3.353-.694.53-1.18.53zm0-.57c.3 0 .536-.12.71-.36.18-.24.27-.567.27-.98 0-.413-.09-.74-.27-.98a.83.83 0 00-.71-.36.838.838 0 00-.72.36c-.174.233-.26.56-.26.98 0 .42.086.75.26.99.173.233.413.35.72.35zM395.65 175v7h-.99v-6.13h-1.58V175h2.57zm4.691 7.08a2.67 2.67 0 01-1.48-.42c-.426-.287-.763-.7-1.01-1.24-.246-.54-.37-1.18-.37-1.92s.124-1.38.37-1.92c.247-.54.584-.95 1.01-1.23.434-.287.927-.43 1.48-.43.547 0 1.034.143 1.46.43.434.28.774.69 1.02 1.23.247.54.37 1.18.37 1.92s-.123 1.38-.37 1.92c-.246.54-.586.953-1.02 1.24-.426.28-.913.42-1.46.42zm0-.89c.56 0 1.007-.23 1.34-.69.34-.46.51-1.127.51-2s-.17-1.54-.51-2c-.333-.46-.78-.69-1.34-.69-.566 0-1.02.23-1.36.69-.333.46-.5 1.127-.5 2s.167 1.54.5 2c.34.46.794.69 1.36.69zm5.63-2.43c-.487 0-.88-.177-1.18-.53-.3-.353-.45-.813-.45-1.38s.15-1.027.45-1.38c.3-.353.693-.53 1.18-.53s.877.177 1.17.53c.3.347.45.807.45 1.38 0 .573-.15 1.037-.45 1.39-.293.347-.683.52-1.17.52zm4.22-3.76h.77l-4.78 7h-.77l4.78-7zm-4.22 3.19a.847.847 0 00.72-.35c.173-.24.26-.57.26-.99 0-.42-.087-.747-.26-.98a.838.838 0 00-.72-.36c-.3 0-.54.12-.72.36-.173.24-.26.567-.26.98 0 .413.087.74.26.98.18.24.42.36.72.36zm4.43 3.87c-.487 0-.88-.173-1.18-.52-.293-.353-.44-.817-.44-1.39s.147-1.033.44-1.38c.3-.353.693-.53 1.18-.53s.88.177 1.18.53c.3.353.45.813.45 1.38s-.15 1.027-.45 1.38c-.3.353-.693.53-1.18.53zm0-.57c.3 0 .537-.12.71-.36.18-.24.27-.567.27-.98 0-.413-.09-.74-.27-.98a.829.829 0 00-.71-.36.838.838 0 00-.72.36c-.173.233-.26.56-.26.98 0 .42.087.75.26.99.173.233.413.35.72.35z" fill="#fff"/><path d="M403 284l-19.919-18h39.838L403 284zm-80-80h40v62h-40v-62z" fill="#478ECC"/><path d="M323 103h40v63h-40v-63z" fill="#23A873"/><path d="M323 166h40v38h-40v-38z" fill="#96C8ED"/><path d="M323 39h40v64h-40V39z" fill="#198459"/><path d="M334.42 304.104V305h-6.874v-.714l4.074-3.99c.513-.504.859-.938 1.036-1.302a2.48 2.48 0 00.28-1.12c0-.579-.201-1.027-.602-1.344-.392-.327-.957-.49-1.694-.49-1.148 0-2.039.364-2.674 1.092l-.714-.616a3.775 3.775 0 011.456-1.036c.597-.243 1.269-.364 2.016-.364.999 0 1.787.238 2.366.714.588.467.882 1.111.882 1.932 0 .504-.112.989-.336 1.456-.224.467-.649 1.003-1.274 1.61l-3.332 3.276h5.39zm5.536.98a3.56 3.56 0 01-2.03-.602c-.588-.401-1.05-.975-1.386-1.722-.326-.756-.49-1.643-.49-2.66 0-1.017.164-1.899.49-2.646.336-.756.798-1.335 1.386-1.736a3.56 3.56 0 012.03-.602c.756 0 1.428.201 2.016.602.598.401 1.064.98 1.4 1.736.336.747.504 1.629.504 2.646s-.168 1.904-.504 2.66c-.336.747-.802 1.321-1.4 1.722-.588.401-1.26.602-2.016.602zm0-.924c.57 0 1.069-.159 1.498-.476.439-.317.78-.779 1.022-1.386.243-.607.364-1.339.364-2.198s-.121-1.591-.364-2.198c-.242-.607-.583-1.069-1.022-1.386a2.452 2.452 0 00-1.498-.476c-.569 0-1.073.159-1.512.476-.429.317-.765.779-1.008 1.386-.242.607-.364 1.339-.364 2.198s.122 1.591.364 2.198c.243.607.579 1.069 1.008 1.386.439.317.943.476 1.512.476zm12.449-.056V305h-6.874v-.714l4.074-3.99c.513-.504.858-.938 1.036-1.302.186-.373.28-.747.28-1.12 0-.579-.201-1.027-.602-1.344-.392-.327-.957-.49-1.694-.49-1.148 0-2.04.364-2.674 1.092l-.714-.616a3.768 3.768 0 011.456-1.036c.597-.243 1.269-.364 2.016-.364.998 0 1.787.238 2.366.714.588.467.882 1.111.882 1.932 0 .504-.112.989-.336 1.456-.224.467-.649 1.003-1.274 1.61l-3.332 3.276h5.39zm5.536.98a3.558 3.558 0 01-2.03-.602c-.588-.401-1.05-.975-1.386-1.722-.327-.756-.49-1.643-.49-2.66 0-1.017.163-1.899.49-2.646.336-.756.798-1.335 1.386-1.736a3.558 3.558 0 012.03-.602c.756 0 1.428.201 2.016.602.597.401 1.064.98 1.4 1.736.336.747.504 1.629.504 2.646s-.168 1.904-.504 2.66c-.336.747-.803 1.321-1.4 1.722-.588.401-1.26.602-2.016.602zm0-.924c.569 0 1.069-.159 1.498-.476.439-.317.779-.779 1.022-1.386.243-.607.364-1.339.364-2.198s-.121-1.591-.364-2.198-.583-1.069-1.022-1.386a2.454 2.454 0 00-1.498-.476c-.569 0-1.073.159-1.512.476-.429.317-.765.779-1.008 1.386-.243.607-.364 1.339-.364 2.198s.121 1.591.364 2.198.579 1.069 1.008 1.386c.439.317.943.476 1.512.476z" fill="#000"/><path d="M335.16 234.94c.687.067 1.21.28 1.57.64.36.353.54.807.54 1.36 0 .4-.1.763-.3 1.09-.2.32-.5.577-.9.77-.393.187-.877.28-1.45.28-.5 0-.98-.073-1.44-.22-.46-.153-.837-.363-1.13-.63l.46-.79c.24.227.547.41.92.55.373.133.77.2 1.19.2.52 0 .923-.11 1.21-.33.293-.22.44-.523.44-.91s-.143-.687-.43-.9c-.287-.213-.72-.32-1.3-.32h-.56v-.7l1.76-2.16h-3.37V232h4.62v.68l-1.83 2.26zm6.203 4.14c-.554 0-1.047-.14-1.48-.42-.427-.287-.764-.7-1.01-1.24-.247-.54-.37-1.18-.37-1.92s.123-1.38.37-1.92c.246-.54.583-.95 1.01-1.23.433-.287.926-.43 1.48-.43.546 0 1.033.143 1.46.43.433.28.773.69 1.02 1.23.246.54.37 1.18.37 1.92s-.124 1.38-.37 1.92c-.247.54-.587.953-1.02 1.24-.427.28-.914.42-1.46.42zm0-.89c.56 0 1.006-.23 1.34-.69.34-.46.51-1.127.51-2s-.17-1.54-.51-2c-.334-.46-.78-.69-1.34-.69-.567 0-1.02.23-1.36.69-.334.46-.5 1.127-.5 2s.166 1.54.5 2c.34.46.793.69 1.36.69zm5.63-2.43c-.487 0-.88-.177-1.18-.53-.3-.353-.45-.813-.45-1.38s.15-1.027.45-1.38c.3-.353.693-.53 1.18-.53.486 0 .876.177 1.17.53.3.347.45.807.45 1.38 0 .573-.15 1.037-.45 1.39-.294.347-.684.52-1.17.52zm4.22-3.76h.77l-4.78 7h-.77l4.78-7zm-4.22 3.19a.85.85 0 00.72-.35c.173-.24.26-.57.26-.99 0-.42-.087-.747-.26-.98a.84.84 0 00-.72-.36c-.3 0-.54.12-.72.36-.174.24-.26.567-.26.98 0 .413.086.74.26.98.18.24.42.36.72.36zm4.43 3.87c-.487 0-.88-.173-1.18-.52-.294-.353-.44-.817-.44-1.39s.146-1.033.44-1.38c.3-.353.693-.53 1.18-.53.486 0 .88.177 1.18.53.3.353.45.813.45 1.38s-.15 1.027-.45 1.38c-.3.353-.694.53-1.18.53zm0-.57c.3 0 .536-.12.71-.36.18-.24.27-.567.27-.98 0-.413-.09-.74-.27-.98a.83.83 0 00-.71-.36.838.838 0 00-.72.36c-.174.233-.26.56-.26.98 0 .42.086.75.26.99.173.233.413.35.72.35zM335.16 134.94c.687.067 1.21.28 1.57.64.36.353.54.807.54 1.36 0 .4-.1.763-.3 1.09-.2.32-.5.577-.9.77-.393.187-.877.28-1.45.28-.5 0-.98-.073-1.44-.22-.46-.153-.837-.363-1.13-.63l.46-.79c.24.227.547.41.92.55.373.133.77.2 1.19.2.52 0 .923-.11 1.21-.33.293-.22.44-.523.44-.91s-.143-.687-.43-.9c-.287-.213-.72-.32-1.3-.32h-.56v-.7l1.76-2.16h-3.37V132h4.62v.68l-1.83 2.26zm6.203 4.14c-.554 0-1.047-.14-1.48-.42-.427-.287-.764-.7-1.01-1.24-.247-.54-.37-1.18-.37-1.92s.123-1.38.37-1.92c.246-.54.583-.95 1.01-1.23.433-.287.926-.43 1.48-.43.546 0 1.033.143 1.46.43.433.28.773.69 1.02 1.23.246.54.37 1.18.37 1.92s-.124 1.38-.37 1.92c-.247.54-.587.953-1.02 1.24-.427.28-.914.42-1.46.42zm0-.89c.56 0 1.006-.23 1.34-.69.34-.46.51-1.127.51-2s-.17-1.54-.51-2c-.334-.46-.78-.69-1.34-.69-.567 0-1.02.23-1.36.69-.334.46-.5 1.127-.5 2s.166 1.54.5 2c.34.46.793.69 1.36.69zm5.63-2.43c-.487 0-.88-.177-1.18-.53-.3-.353-.45-.813-.45-1.38s.15-1.027.45-1.38c.3-.353.693-.53 1.18-.53.486 0 .876.177 1.17.53.3.347.45.807.45 1.38 0 .573-.15 1.037-.45 1.39-.294.347-.684.52-1.17.52zm4.22-3.76h.77l-4.78 7h-.77l4.78-7zm-4.22 3.19a.85.85 0 00.72-.35c.173-.24.26-.57.26-.99 0-.42-.087-.747-.26-.98a.84.84 0 00-.72-.36c-.3 0-.54.12-.72.36-.174.24-.26.567-.26.98 0 .413.086.74.26.98.18.24.42.36.72.36zm4.43 3.87c-.487 0-.88-.173-1.18-.52-.294-.353-.44-.817-.44-1.39s.146-1.033.44-1.38c.3-.353.693-.53 1.18-.53.486 0 .88.177 1.18.53.3.353.45.813.45 1.38s-.15 1.027-.45 1.38c-.3.353-.694.53-1.18.53zm0-.57c.3 0 .536-.12.71-.36.18-.24.27-.567.27-.98 0-.413-.09-.74-.27-.98a.83.83 0 00-.71-.36.838.838 0 00-.72.36c-.174.233-.26.56-.26.98 0 .42.086.75.26.99.173.233.413.35.72.35zM335.16 70.94c.687.067 1.21.28 1.57.64.36.353.54.807.54 1.36 0 .4-.1.763-.3 1.09-.2.32-.5.577-.9.77-.393.187-.877.28-1.45.28-.5 0-.98-.073-1.44-.22-.46-.153-.837-.363-1.13-.63l.46-.79c.24.227.547.41.92.55.373.133.77.2 1.19.2.52 0 .923-.11 1.21-.33.293-.22.44-.523.44-.91s-.143-.687-.43-.9c-.287-.213-.72-.32-1.3-.32h-.56v-.7l1.76-2.16h-3.37V68h4.62v.68l-1.83 2.26zm6.203 4.14c-.554 0-1.047-.14-1.48-.42-.427-.287-.764-.7-1.01-1.24-.247-.54-.37-1.18-.37-1.92s.123-1.38.37-1.92c.246-.54.583-.95 1.01-1.23.433-.287.926-.43 1.48-.43a2.56 2.56 0 011.46.43c.433.28.773.69 1.02 1.23.246.54.37 1.18.37 1.92s-.124 1.38-.37 1.92c-.247.54-.587.953-1.02 1.24-.427.28-.914.42-1.46.42zm0-.89c.56 0 1.006-.23 1.34-.69.34-.46.51-1.127.51-2s-.17-1.54-.51-2c-.334-.46-.78-.69-1.34-.69-.567 0-1.02.23-1.36.69-.334.46-.5 1.127-.5 2s.166 1.54.5 2c.34.46.793.69 1.36.69zm5.63-2.43c-.487 0-.88-.177-1.18-.53-.3-.353-.45-.813-.45-1.38s.15-1.027.45-1.38c.3-.353.693-.53 1.18-.53.486 0 .876.177 1.17.53.3.347.45.807.45 1.38 0 .573-.15 1.037-.45 1.39-.294.347-.684.52-1.17.52zm4.22-3.76h.77l-4.78 7h-.77l4.78-7zm-4.22 3.19a.849.849 0 00.72-.35c.173-.24.26-.57.26-.99 0-.42-.087-.747-.26-.98a.84.84 0 00-.72-.36c-.3 0-.54.12-.72.36-.174.24-.26.567-.26.98 0 .413.086.74.26.98.18.24.42.36.72.36zm4.43 3.87c-.487 0-.88-.173-1.18-.52-.294-.353-.44-.817-.44-1.39s.146-1.033.44-1.38c.3-.353.693-.53 1.18-.53.486 0 .88.177 1.18.53.3.353.45.813.45 1.38s-.15 1.027-.45 1.38c-.3.353-.694.53-1.18.53zm0-.57c.3 0 .536-.12.71-.36.18-.24.27-.567.27-.98 0-.413-.09-.74-.27-.98a.83.83 0 00-.71-.36.838.838 0 00-.72.36c-.174.233-.26.56-.26.98 0 .42.086.75.26.99.173.233.413.35.72.35zM335.65 182v7h-.99v-6.13h-1.58V182h2.57zm4.691 7.08a2.67 2.67 0 01-1.48-.42c-.426-.287-.763-.7-1.01-1.24-.246-.54-.37-1.18-.37-1.92s.124-1.38.37-1.92c.247-.54.584-.95 1.01-1.23.434-.287.927-.43 1.48-.43.547 0 1.034.143 1.46.43.434.28.774.69 1.02 1.23.247.54.37 1.18.37 1.92s-.123 1.38-.37 1.92c-.246.54-.586.953-1.02 1.24-.426.28-.913.42-1.46.42zm0-.89c.56 0 1.007-.23 1.34-.69.34-.46.51-1.127.51-2s-.17-1.54-.51-2c-.333-.46-.78-.69-1.34-.69-.566 0-1.02.23-1.36.69-.333.46-.5 1.127-.5 2s.167 1.54.5 2c.34.46.794.69 1.36.69zm5.63-2.43c-.487 0-.88-.177-1.18-.53-.3-.353-.45-.813-.45-1.38s.15-1.027.45-1.38c.3-.353.693-.53 1.18-.53s.877.177 1.17.53c.3.347.45.807.45 1.38 0 .573-.15 1.037-.45 1.39-.293.347-.683.52-1.17.52zm4.22-3.76h.77l-4.78 7h-.77l4.78-7zm-4.22 3.19a.847.847 0 00.72-.35c.173-.24.26-.57.26-.99 0-.42-.087-.747-.26-.98a.838.838 0 00-.72-.36c-.3 0-.54.12-.72.36-.173.24-.26.567-.26.98 0 .413.087.74.26.98.18.24.42.36.72.36zm4.43 3.87c-.487 0-.88-.173-1.18-.52-.293-.353-.44-.817-.44-1.39s.147-1.033.44-1.38c.3-.353.693-.53 1.18-.53s.88.177 1.18.53c.3.353.45.813.45 1.38s-.15 1.027-.45 1.38c-.3.353-.693.53-1.18.53zm0-.57c.3 0 .537-.12.71-.36.18-.24.27-.567.27-.98 0-.413-.09-.74-.27-.98a.829.829 0 00-.71-.36.838.838 0 00-.72.36c-.173.233-.26.56-.26.98 0 .42.087.75.26.99.173.233.413.35.72.35z" fill="#fff"/><path d="M343 284l-19.919-18h39.838L343 284zm-140-61h40v43h-40v-43z" fill="#478ECC"/><path d="M203 133h40v53h-40v-53z" fill="#23A873"/><path d="M203 186h40v38h-40v-38z" fill="#96C8ED"/><path d="M203 85h40v48h-40V85z" fill="#198459"/><path d="M213.42 304.104V305h-6.874v-.714l4.074-3.99c.513-.504.859-.938 1.036-1.302a2.48 2.48 0 00.28-1.12c0-.579-.201-1.027-.602-1.344-.392-.327-.957-.49-1.694-.49-1.148 0-2.039.364-2.674 1.092l-.714-.616a3.775 3.775 0 011.456-1.036c.597-.243 1.269-.364 2.016-.364.999 0 1.787.238 2.366.714.588.467.882 1.111.882 1.932 0 .504-.112.989-.336 1.456-.224.467-.649 1.003-1.274 1.61l-3.332 3.276h5.39zm5.536.98a3.56 3.56 0 01-2.03-.602c-.588-.401-1.05-.975-1.386-1.722-.326-.756-.49-1.643-.49-2.66 0-1.017.164-1.899.49-2.646.336-.756.798-1.335 1.386-1.736a3.56 3.56 0 012.03-.602c.756 0 1.428.201 2.016.602.598.401 1.064.98 1.4 1.736.336.747.504 1.629.504 2.646s-.168 1.904-.504 2.66c-.336.747-.802 1.321-1.4 1.722-.588.401-1.26.602-2.016.602zm0-.924c.57 0 1.069-.159 1.498-.476.439-.317.78-.779 1.022-1.386.243-.607.364-1.339.364-2.198s-.121-1.591-.364-2.198c-.242-.607-.583-1.069-1.022-1.386a2.452 2.452 0 00-1.498-.476c-.569 0-1.073.159-1.512.476-.429.317-.765.779-1.008 1.386-.242.607-.364 1.339-.364 2.198s.122 1.591.364 2.198c.243.607.579 1.069 1.008 1.386.439.317.943.476 1.512.476zm8.473-8.96v9.8h-1.008v-8.904h-2.31v-.896h3.318zm8.376 4.662c.616.205 1.087.513 1.414.924.336.411.504.905.504 1.484 0 .569-.154 1.069-.462 1.498-.308.42-.751.747-1.33.98-.569.224-1.241.336-2.016.336-1.176 0-2.1-.252-2.772-.756-.672-.504-1.008-1.19-1.008-2.058 0-.588.159-1.083.476-1.484.327-.411.798-.719 1.414-.924-.504-.196-.887-.476-1.148-.84-.261-.373-.392-.812-.392-1.316 0-.793.308-1.423.924-1.89.625-.467 1.461-.7 2.506-.7.691 0 1.293.107 1.806.322.523.205.929.504 1.218.896.289.392.434.849.434 1.372 0 .504-.135.943-.406 1.316-.271.364-.658.644-1.162.84zm-4.312-2.128c0 .541.215.971.644 1.288.429.317 1.022.476 1.778.476s1.349-.159 1.778-.476c.439-.317.658-.742.658-1.274a1.51 1.51 0 00-.672-1.302c-.439-.317-1.027-.476-1.764-.476-.747 0-1.339.159-1.778.476-.429.317-.644.747-.644 1.288zm2.422 6.496c.868 0 1.545-.177 2.03-.532.495-.355.742-.835.742-1.442s-.247-1.083-.742-1.428c-.485-.355-1.162-.532-2.03-.532-.859 0-1.535.177-2.03.532-.485.345-.728.821-.728 1.428 0 .616.243 1.101.728 1.456.485.345 1.162.518 2.03.518z" fill="#000"/><path d="M215.16 244.94c.687.067 1.21.28 1.57.64.36.353.54.807.54 1.36 0 .4-.1.763-.3 1.09-.2.32-.5.577-.9.77-.393.187-.877.28-1.45.28-.5 0-.98-.073-1.44-.22-.46-.153-.837-.363-1.13-.63l.46-.79c.24.227.547.41.92.55.373.133.77.2 1.19.2.52 0 .923-.11 1.21-.33.293-.22.44-.523.44-.91s-.143-.687-.43-.9c-.287-.213-.72-.32-1.3-.32h-.56v-.7l1.76-2.16h-3.37V242h4.62v.68l-1.83 2.26zm6.203 4.14c-.554 0-1.047-.14-1.48-.42-.427-.287-.764-.7-1.01-1.24-.247-.54-.37-1.18-.37-1.92s.123-1.38.37-1.92c.246-.54.583-.95 1.01-1.23.433-.287.926-.43 1.48-.43.546 0 1.033.143 1.46.43.433.28.773.69 1.02 1.23.246.54.37 1.18.37 1.92s-.124 1.38-.37 1.92c-.247.54-.587.953-1.02 1.24-.427.28-.914.42-1.46.42zm0-.89c.56 0 1.006-.23 1.34-.69.34-.46.51-1.127.51-2s-.17-1.54-.51-2c-.334-.46-.78-.69-1.34-.69-.567 0-1.02.23-1.36.69-.334.46-.5 1.127-.5 2s.166 1.54.5 2c.34.46.793.69 1.36.69zm5.63-2.43c-.487 0-.88-.177-1.18-.53-.3-.353-.45-.813-.45-1.38s.15-1.027.45-1.38c.3-.353.693-.53 1.18-.53.486 0 .876.177 1.17.53.3.347.45.807.45 1.38 0 .573-.15 1.037-.45 1.39-.294.347-.684.52-1.17.52zm4.22-3.76h.77l-4.78 7h-.77l4.78-7zm-4.22 3.19a.85.85 0 00.72-.35c.173-.24.26-.57.26-.99 0-.42-.087-.747-.26-.98a.84.84 0 00-.72-.36c-.3 0-.54.12-.72.36-.174.24-.26.567-.26.98 0 .413.086.74.26.98.18.24.42.36.72.36zm4.43 3.87c-.487 0-.88-.173-1.18-.52-.294-.353-.44-.817-.44-1.39s.146-1.033.44-1.38c.3-.353.693-.53 1.18-.53.486 0 .88.177 1.18.53.3.353.45.813.45 1.38s-.15 1.027-.45 1.38c-.3.353-.694.53-1.18.53zm0-.57c.3 0 .536-.12.71-.36.18-.24.27-.567.27-.98 0-.413-.09-.74-.27-.98a.83.83 0 00-.71-.36.838.838 0 00-.72.36c-.174.233-.26.56-.26.98 0 .42.086.75.26.99.173.233.413.35.72.35zm-16.263-89.55c.687.067 1.21.28 1.57.64.36.353.54.807.54 1.36 0 .4-.1.763-.3 1.09-.2.32-.5.577-.9.77-.393.187-.877.28-1.45.28-.5 0-.98-.073-1.44-.22-.46-.153-.837-.363-1.13-.63l.46-.79c.24.227.547.41.92.55.373.133.77.2 1.19.2.52 0 .923-.11 1.21-.33.293-.22.44-.523.44-.91s-.143-.687-.43-.9c-.287-.213-.72-.32-1.3-.32h-.56v-.7l1.76-2.16h-3.37V156h4.62v.68l-1.83 2.26zm6.203 4.14c-.554 0-1.047-.14-1.48-.42-.427-.287-.764-.7-1.01-1.24-.247-.54-.37-1.18-.37-1.92s.123-1.38.37-1.92c.246-.54.583-.95 1.01-1.23.433-.287.926-.43 1.48-.43.546 0 1.033.143 1.46.43.433.28.773.69 1.02 1.23.246.54.37 1.18.37 1.92s-.124 1.38-.37 1.92c-.247.54-.587.953-1.02 1.24-.427.28-.914.42-1.46.42zm0-.89c.56 0 1.006-.23 1.34-.69.34-.46.51-1.127.51-2s-.17-1.54-.51-2c-.334-.46-.78-.69-1.34-.69-.567 0-1.02.23-1.36.69-.334.46-.5 1.127-.5 2s.166 1.54.5 2c.34.46.793.69 1.36.69zm5.63-2.43c-.487 0-.88-.177-1.18-.53-.3-.353-.45-.813-.45-1.38s.15-1.027.45-1.38c.3-.353.693-.53 1.18-.53.486 0 .876.177 1.17.53.3.347.45.807.45 1.38 0 .573-.15 1.037-.45 1.39-.294.347-.684.52-1.17.52zm4.22-3.76h.77l-4.78 7h-.77l4.78-7zm-4.22 3.19a.85.85 0 00.72-.35c.173-.24.26-.57.26-.99 0-.42-.087-.747-.26-.98a.84.84 0 00-.72-.36c-.3 0-.54.12-.72.36-.174.24-.26.567-.26.98 0 .413.086.74.26.98.18.24.42.36.72.36zm4.43 3.87c-.487 0-.88-.173-1.18-.52-.294-.353-.44-.817-.44-1.39s.146-1.033.44-1.38c.3-.353.693-.53 1.18-.53.486 0 .88.177 1.18.53.3.353.45.813.45 1.38s-.15 1.027-.45 1.38c-.3.353-.694.53-1.18.53zm0-.57c.3 0 .536-.12.71-.36.18-.24.27-.567.27-.98 0-.413-.09-.74-.27-.98a.83.83 0 00-.71-.36.838.838 0 00-.72.36c-.174.233-.26.56-.26.98 0 .42.086.75.26.99.173.233.413.35.72.35zm-16.263-53.55c.687.067 1.21.28 1.57.64.36.353.54.807.54 1.36 0 .4-.1.763-.3 1.09-.2.32-.5.577-.9.77-.393.187-.877.28-1.45.28-.5 0-.98-.073-1.44-.22-.46-.153-.837-.363-1.13-.63l.46-.79c.24.227.547.41.92.55.373.133.77.2 1.19.2.52 0 .923-.11 1.21-.33.293-.22.44-.523.44-.91s-.143-.687-.43-.9c-.287-.213-.72-.32-1.3-.32h-.56v-.7l1.76-2.16h-3.37V106h4.62v.68l-1.83 2.26zm6.203 4.14c-.554 0-1.047-.14-1.48-.42-.427-.287-.764-.7-1.01-1.24-.247-.54-.37-1.18-.37-1.92s.123-1.38.37-1.92c.246-.54.583-.95 1.01-1.23.433-.287.926-.43 1.48-.43.546 0 1.033.143 1.46.43.433.28.773.69 1.02 1.23.246.54.37 1.18.37 1.92s-.124 1.38-.37 1.92c-.247.54-.587.953-1.02 1.24-.427.28-.914.42-1.46.42zm0-.89c.56 0 1.006-.23 1.34-.69.34-.46.51-1.127.51-2s-.17-1.54-.51-2c-.334-.46-.78-.69-1.34-.69-.567 0-1.02.23-1.36.69-.334.46-.5 1.127-.5 2s.166 1.54.5 2c.34.46.793.69 1.36.69zm5.63-2.43c-.487 0-.88-.177-1.18-.53-.3-.353-.45-.813-.45-1.38s.15-1.027.45-1.38c.3-.353.693-.53 1.18-.53.486 0 .876.177 1.17.53.3.347.45.807.45 1.38 0 .573-.15 1.037-.45 1.39-.294.347-.684.52-1.17.52zm4.22-3.76h.77l-4.78 7h-.77l4.78-7zm-4.22 3.19a.85.85 0 00.72-.35c.173-.24.26-.57.26-.99 0-.42-.087-.747-.26-.98a.84.84 0 00-.72-.36c-.3 0-.54.12-.72.36-.174.24-.26.567-.26.98 0 .413.086.74.26.98.18.24.42.36.72.36zm4.43 3.87c-.487 0-.88-.173-1.18-.52-.294-.353-.44-.817-.44-1.39s.146-1.033.44-1.38c.3-.353.693-.53 1.18-.53.486 0 .88.177 1.18.53.3.353.45.813.45 1.38s-.15 1.027-.45 1.38c-.3.353-.694.53-1.18.53zm0-.57c.3 0 .536-.12.71-.36.18-.24.27-.567.27-.98 0-.413-.09-.74-.27-.98a.83.83 0 00-.71-.36.838.838 0 00-.72.36c-.174.233-.26.56-.26.98 0 .42.086.75.26.99.173.233.413.35.72.35zM215.65 202v7h-.99v-6.13h-1.58V202h2.57zm4.691 7.08a2.67 2.67 0 01-1.48-.42c-.426-.287-.763-.7-1.01-1.24-.246-.54-.37-1.18-.37-1.92s.124-1.38.37-1.92c.247-.54.584-.95 1.01-1.23.434-.287.927-.43 1.48-.43.547 0 1.034.143 1.46.43.434.28.774.69 1.02 1.23.247.54.37 1.18.37 1.92s-.123 1.38-.37 1.92c-.246.54-.586.953-1.02 1.24-.426.28-.913.42-1.46.42zm0-.89c.56 0 1.007-.23 1.34-.69.34-.46.51-1.127.51-2s-.17-1.54-.51-2c-.333-.46-.78-.69-1.34-.69-.566 0-1.02.23-1.36.69-.333.46-.5 1.127-.5 2s.167 1.54.5 2c.34.46.794.69 1.36.69zm5.63-2.43c-.487 0-.88-.177-1.18-.53-.3-.353-.45-.813-.45-1.38s.15-1.027.45-1.38c.3-.353.693-.53 1.18-.53s.877.177 1.17.53c.3.347.45.807.45 1.38 0 .573-.15 1.037-.45 1.39-.293.347-.683.52-1.17.52zm4.22-3.76h.77l-4.78 7h-.77l4.78-7zm-4.22 3.19a.847.847 0 00.72-.35c.173-.24.26-.57.26-.99 0-.42-.087-.747-.26-.98a.838.838 0 00-.72-.36c-.3 0-.54.12-.72.36-.173.24-.26.567-.26.98 0 .413.087.74.26.98.18.24.42.36.72.36zm4.43 3.87c-.487 0-.88-.173-1.18-.52-.293-.353-.44-.817-.44-1.39s.147-1.033.44-1.38c.3-.353.693-.53 1.18-.53s.88.177 1.18.53c.3.353.45.813.45 1.38s-.15 1.027-.45 1.38c-.3.353-.693.53-1.18.53zm0-.57c.3 0 .537-.12.71-.36.18-.24.27-.567.27-.98 0-.413-.09-.74-.27-.98a.829.829 0 00-.71-.36.838.838 0 00-.72.36c-.173.233-.26.56-.26.98 0 .42.087.75.26.99.173.233.413.35.72.35z" fill="#fff"/><path d="M223 284l-19.919-18h39.838L223 284zm40-72h40v54h-40v-54z" fill="#478ECC"/><path d="M263 118h40v58h-40v-58z" fill="#23A873"/><path d="M263 175h40v38h-40v-38z" fill="#96C8ED"/><path d="M263 61h40v57h-40V61z" fill="#198459"/><path d="M275.42 304.104V305h-6.874v-.714l4.074-3.99c.513-.504.859-.938 1.036-1.302a2.48 2.48 0 00.28-1.12c0-.579-.201-1.027-.602-1.344-.392-.327-.957-.49-1.694-.49-1.148 0-2.039.364-2.674 1.092l-.714-.616a3.775 3.775 0 011.456-1.036c.597-.243 1.269-.364 2.016-.364.999 0 1.787.238 2.366.714.588.467.882 1.111.882 1.932 0 .504-.112.989-.336 1.456-.224.467-.649 1.003-1.274 1.61l-3.332 3.276h5.39zm5.536.98a3.56 3.56 0 01-2.03-.602c-.588-.401-1.05-.975-1.386-1.722-.326-.756-.49-1.643-.49-2.66 0-1.017.164-1.899.49-2.646.336-.756.798-1.335 1.386-1.736a3.56 3.56 0 012.03-.602c.756 0 1.428.201 2.016.602.598.401 1.064.98 1.4 1.736.336.747.504 1.629.504 2.646s-.168 1.904-.504 2.66c-.336.747-.802 1.321-1.4 1.722-.588.401-1.26.602-2.016.602zm0-.924c.57 0 1.069-.159 1.498-.476.439-.317.78-.779 1.022-1.386.243-.607.364-1.339.364-2.198s-.121-1.591-.364-2.198c-.242-.607-.583-1.069-1.022-1.386a2.452 2.452 0 00-1.498-.476c-.569 0-1.073.159-1.512.476-.429.317-.765.779-1.008 1.386-.242.607-.364 1.339-.364 2.198s.122 1.591.364 2.198c.243.607.579 1.069 1.008 1.386.439.317.943.476 1.512.476zm8.473-8.96v9.8h-1.008v-8.904h-2.31v-.896h3.318zm5.814-.084c1.297 0 2.291.429 2.982 1.288.691.849 1.036 2.053 1.036 3.612 0 1.092-.187 2.016-.56 2.772-.373.756-.896 1.33-1.568 1.722-.672.383-1.456.574-2.352.574-.971 0-1.745-.177-2.324-.532l.406-.812c.467.308 1.101.462 1.904.462 1.083 0 1.932-.341 2.548-1.022.616-.691.924-1.689.924-2.996 0-.243-.014-.509-.042-.798-.243.532-.63.947-1.162 1.246-.532.289-1.143.434-1.834.434-.644 0-1.218-.121-1.722-.364a2.814 2.814 0 01-1.162-1.022c-.28-.448-.42-.966-.42-1.554 0-.597.145-1.125.434-1.582a2.83 2.83 0 011.19-1.05 3.853 3.853 0 011.722-.378zm.112 5.096c.495 0 .929-.093 1.302-.28.383-.187.681-.443.896-.77.215-.327.322-.691.322-1.092 0-.373-.103-.719-.308-1.036-.196-.317-.49-.574-.882-.77-.392-.196-.859-.294-1.4-.294-.709 0-1.288.196-1.736.588-.439.383-.658.896-.658 1.54s.219 1.157.658 1.54c.448.383 1.05.574 1.806.574z" fill="#000"/><path d="M275.16 238.94c.687.067 1.21.28 1.57.64.36.353.54.807.54 1.36 0 .4-.1.763-.3 1.09-.2.32-.5.577-.9.77-.393.187-.877.28-1.45.28-.5 0-.98-.073-1.44-.22-.46-.153-.837-.363-1.13-.63l.46-.79c.24.227.547.41.92.55.373.133.77.2 1.19.2.52 0 .923-.11 1.21-.33.293-.22.44-.523.44-.91s-.143-.687-.43-.9c-.287-.213-.72-.32-1.3-.32h-.56v-.7l1.76-2.16h-3.37V236h4.62v.68l-1.83 2.26zm6.203 4.14c-.554 0-1.047-.14-1.48-.42-.427-.287-.764-.7-1.01-1.24-.247-.54-.37-1.18-.37-1.92s.123-1.38.37-1.92c.246-.54.583-.95 1.01-1.23.433-.287.926-.43 1.48-.43.546 0 1.033.143 1.46.43.433.28.773.69 1.02 1.23.246.54.37 1.18.37 1.92s-.124 1.38-.37 1.92c-.247.54-.587.953-1.02 1.24-.427.28-.914.42-1.46.42zm0-.89c.56 0 1.006-.23 1.34-.69.34-.46.51-1.127.51-2s-.17-1.54-.51-2c-.334-.46-.78-.69-1.34-.69-.567 0-1.02.23-1.36.69-.334.46-.5 1.127-.5 2s.166 1.54.5 2c.34.46.793.69 1.36.69zm5.63-2.43c-.487 0-.88-.177-1.18-.53-.3-.353-.45-.813-.45-1.38s.15-1.027.45-1.38c.3-.353.693-.53 1.18-.53.486 0 .876.177 1.17.53.3.347.45.807.45 1.38 0 .573-.15 1.037-.45 1.39-.294.347-.684.52-1.17.52zm4.22-3.76h.77l-4.78 7h-.77l4.78-7zm-4.22 3.19a.85.85 0 00.72-.35c.173-.24.26-.57.26-.99 0-.42-.087-.747-.26-.98a.84.84 0 00-.72-.36c-.3 0-.54.12-.72.36-.174.24-.26.567-.26.98 0 .413.086.74.26.98.18.24.42.36.72.36zm4.43 3.87c-.487 0-.88-.173-1.18-.52-.294-.353-.44-.817-.44-1.39s.146-1.033.44-1.38c.3-.353.693-.53 1.18-.53.486 0 .88.177 1.18.53.3.353.45.813.45 1.38s-.15 1.027-.45 1.38c-.3.353-.694.53-1.18.53zm0-.57c.3 0 .536-.12.71-.36.18-.24.27-.567.27-.98 0-.413-.09-.74-.27-.98a.83.83 0 00-.71-.36.838.838 0 00-.72.36c-.174.233-.26.56-.26.98 0 .42.086.75.26.99.173.233.413.35.72.35zm-16.263-96.55c.687.067 1.21.28 1.57.64.36.353.54.807.54 1.36 0 .4-.1.763-.3 1.09-.2.32-.5.577-.9.77-.393.187-.877.28-1.45.28-.5 0-.98-.073-1.44-.22-.46-.153-.837-.363-1.13-.63l.46-.79c.24.227.547.41.92.55.373.133.77.2 1.19.2.52 0 .923-.11 1.21-.33.293-.22.44-.523.44-.91s-.143-.687-.43-.9c-.287-.213-.72-.32-1.3-.32h-.56v-.7l1.76-2.16h-3.37V143h4.62v.68l-1.83 2.26zm6.203 4.14c-.554 0-1.047-.14-1.48-.42-.427-.287-.764-.7-1.01-1.24-.247-.54-.37-1.18-.37-1.92s.123-1.38.37-1.92c.246-.54.583-.95 1.01-1.23.433-.287.926-.43 1.48-.43.546 0 1.033.143 1.46.43.433.28.773.69 1.02 1.23.246.54.37 1.18.37 1.92s-.124 1.38-.37 1.92c-.247.54-.587.953-1.02 1.24-.427.28-.914.42-1.46.42zm0-.89c.56 0 1.006-.23 1.34-.69.34-.46.51-1.127.51-2s-.17-1.54-.51-2c-.334-.46-.78-.69-1.34-.69-.567 0-1.02.23-1.36.69-.334.46-.5 1.127-.5 2s.166 1.54.5 2c.34.46.793.69 1.36.69zm5.63-2.43c-.487 0-.88-.177-1.18-.53-.3-.353-.45-.813-.45-1.38s.15-1.027.45-1.38c.3-.353.693-.53 1.18-.53.486 0 .876.177 1.17.53.3.347.45.807.45 1.38 0 .573-.15 1.037-.45 1.39-.294.347-.684.52-1.17.52zm4.22-3.76h.77l-4.78 7h-.77l4.78-7zm-4.22 3.19a.85.85 0 00.72-.35c.173-.24.26-.57.26-.99 0-.42-.087-.747-.26-.98a.84.84 0 00-.72-.36c-.3 0-.54.12-.72.36-.174.24-.26.567-.26.98 0 .413.086.74.26.98.18.24.42.36.72.36zm4.43 3.87c-.487 0-.88-.173-1.18-.52-.294-.353-.44-.817-.44-1.39s.146-1.033.44-1.38c.3-.353.693-.53 1.18-.53.486 0 .88.177 1.18.53.3.353.45.813.45 1.38s-.15 1.027-.45 1.38c-.3.353-.694.53-1.18.53zm0-.57c.3 0 .536-.12.71-.36.18-.24.27-.567.27-.98 0-.413-.09-.74-.27-.98a.83.83 0 00-.71-.36.838.838 0 00-.72.36c-.174.233-.26.56-.26.98 0 .42.086.75.26.99.173.233.413.35.72.35zM275.16 88.94c.687.067 1.21.28 1.57.64.36.353.54.807.54 1.36 0 .4-.1.763-.3 1.09-.2.32-.5.577-.9.77-.393.187-.877.28-1.45.28-.5 0-.98-.073-1.44-.22-.46-.153-.837-.363-1.13-.63l.46-.79c.24.227.547.41.92.55.373.133.77.2 1.19.2.52 0 .923-.11 1.21-.33.293-.22.44-.523.44-.91s-.143-.687-.43-.9c-.287-.213-.72-.32-1.3-.32h-.56v-.7l1.76-2.16h-3.37V86h4.62v.68l-1.83 2.26zm6.203 4.14c-.554 0-1.047-.14-1.48-.42-.427-.287-.764-.7-1.01-1.24-.247-.54-.37-1.18-.37-1.92s.123-1.38.37-1.92c.246-.54.583-.95 1.01-1.23.433-.287.926-.43 1.48-.43a2.56 2.56 0 011.46.43c.433.28.773.69 1.02 1.23.246.54.37 1.18.37 1.92s-.124 1.38-.37 1.92c-.247.54-.587.953-1.02 1.24-.427.28-.914.42-1.46.42zm0-.89c.56 0 1.006-.23 1.34-.69.34-.46.51-1.127.51-2s-.17-1.54-.51-2c-.334-.46-.78-.69-1.34-.69-.567 0-1.02.23-1.36.69-.334.46-.5 1.127-.5 2s.166 1.54.5 2c.34.46.793.69 1.36.69zm5.63-2.43c-.487 0-.88-.177-1.18-.53-.3-.353-.45-.813-.45-1.38s.15-1.027.45-1.38c.3-.353.693-.53 1.18-.53.486 0 .876.177 1.17.53.3.347.45.807.45 1.38 0 .573-.15 1.037-.45 1.39-.294.347-.684.52-1.17.52zm4.22-3.76h.77l-4.78 7h-.77l4.78-7zm-4.22 3.19a.849.849 0 00.72-.35c.173-.24.26-.57.26-.99 0-.42-.087-.747-.26-.98a.84.84 0 00-.72-.36c-.3 0-.54.12-.72.36-.174.24-.26.567-.26.98 0 .413.086.74.26.98.18.24.42.36.72.36zm4.43 3.87c-.487 0-.88-.173-1.18-.52-.294-.353-.44-.817-.44-1.39s.146-1.033.44-1.38c.3-.353.693-.53 1.18-.53.486 0 .88.177 1.18.53.3.353.45.813.45 1.38s-.15 1.027-.45 1.38c-.3.353-.694.53-1.18.53zm0-.57c.3 0 .536-.12.71-.36.18-.24.27-.567.27-.98 0-.413-.09-.74-.27-.98a.83.83 0 00-.71-.36.838.838 0 00-.72.36c-.174.233-.26.56-.26.98 0 .42.086.75.26.99.173.233.413.35.72.35zM275.65 191v7h-.99v-6.13h-1.58V191h2.57zm4.691 7.08a2.67 2.67 0 01-1.48-.42c-.426-.287-.763-.7-1.01-1.24-.246-.54-.37-1.18-.37-1.92s.124-1.38.37-1.92c.247-.54.584-.95 1.01-1.23.434-.287.927-.43 1.48-.43.547 0 1.034.143 1.46.43.434.28.774.69 1.02 1.23.247.54.37 1.18.37 1.92s-.123 1.38-.37 1.92c-.246.54-.586.953-1.02 1.24-.426.28-.913.42-1.46.42zm0-.89c.56 0 1.007-.23 1.34-.69.34-.46.51-1.127.51-2s-.17-1.54-.51-2c-.333-.46-.78-.69-1.34-.69-.566 0-1.02.23-1.36.69-.333.46-.5 1.127-.5 2s.167 1.54.5 2c.34.46.794.69 1.36.69zm5.63-2.43c-.487 0-.88-.177-1.18-.53-.3-.353-.45-.813-.45-1.38s.15-1.027.45-1.38c.3-.353.693-.53 1.18-.53s.877.177 1.17.53c.3.347.45.807.45 1.38 0 .573-.15 1.037-.45 1.39-.293.347-.683.52-1.17.52zm4.22-3.76h.77l-4.78 7h-.77l4.78-7zm-4.22 3.19a.847.847 0 00.72-.35c.173-.24.26-.57.26-.99 0-.42-.087-.747-.26-.98a.838.838 0 00-.72-.36c-.3 0-.54.12-.72.36-.173.24-.26.567-.26.98 0 .413.087.74.26.98.18.24.42.36.72.36zm4.43 3.87c-.487 0-.88-.173-1.18-.52-.293-.353-.44-.817-.44-1.39s.147-1.033.44-1.38c.3-.353.693-.53 1.18-.53s.88.177 1.18.53c.3.353.45.813.45 1.38s-.15 1.027-.45 1.38c-.3.353-.693.53-1.18.53zm0-.57c.3 0 .537-.12.71-.36.18-.24.27-.567.27-.98 0-.413-.09-.74-.27-.98a.829.829 0 00-.71-.36.838.838 0 00-.72.36c-.173.233-.26.56-.26.98 0 .42.087.75.26.99.173.233.413.35.72.35z" fill="#fff"/><path d="M283 284l-19.919-18h39.838L283 284zm-140-46h40v28h-40v-28z" fill="#478ECC"/><path d="M143 149h40v52h-40v-52z" fill="#23A873"/><path d="M143 201h40v38h-40v-38z" fill="#96C8ED"/><path d="M143 108h40v42h-40v-42z" fill="#198459"/><path d="M153.42 304.104V305h-6.874v-.714l4.074-3.99c.513-.504.859-.938 1.036-1.302a2.48 2.48 0 00.28-1.12c0-.579-.201-1.027-.602-1.344-.392-.327-.957-.49-1.694-.49-1.148 0-2.039.364-2.674 1.092l-.714-.616a3.775 3.775 0 011.456-1.036c.597-.243 1.269-.364 2.016-.364.999 0 1.787.238 2.366.714.588.467.882 1.111.882 1.932 0 .504-.112.989-.336 1.456-.224.467-.649 1.003-1.274 1.61l-3.332 3.276h5.39zm5.536.98a3.56 3.56 0 01-2.03-.602c-.588-.401-1.05-.975-1.386-1.722-.326-.756-.49-1.643-.49-2.66 0-1.017.164-1.899.49-2.646.336-.756.798-1.335 1.386-1.736a3.56 3.56 0 012.03-.602c.756 0 1.428.201 2.016.602.598.401 1.064.98 1.4 1.736.336.747.504 1.629.504 2.646s-.168 1.904-.504 2.66c-.336.747-.802 1.321-1.4 1.722-.588.401-1.26.602-2.016.602zm0-.924c.57 0 1.069-.159 1.498-.476.439-.317.78-.779 1.022-1.386.243-.607.364-1.339.364-2.198s-.121-1.591-.364-2.198c-.242-.607-.583-1.069-1.022-1.386a2.452 2.452 0 00-1.498-.476c-.569 0-1.073.159-1.512.476-.429.317-.765.779-1.008 1.386-.242.607-.364 1.339-.364 2.198s.122 1.591.364 2.198c.243.607.579 1.069 1.008 1.386.439.317.943.476 1.512.476zm8.473-8.96v9.8h-1.008v-8.904h-2.31v-.896h3.318zm9.678 0v.714L173.005 305h-1.092l4.032-8.904h-5.04v1.834h-.994v-2.73h7.196z" fill="#000"/><path d="M155.16 251.94c.687.067 1.21.28 1.57.64.36.353.54.807.54 1.36 0 .4-.1.763-.3 1.09-.2.32-.5.577-.9.77-.393.187-.877.28-1.45.28-.5 0-.98-.073-1.44-.22-.46-.153-.837-.363-1.13-.63l.46-.79c.24.227.547.41.92.55.373.133.77.2 1.19.2.52 0 .923-.11 1.21-.33.293-.22.44-.523.44-.91s-.143-.687-.43-.9c-.287-.213-.72-.32-1.3-.32h-.56v-.7l1.76-2.16h-3.37V249h4.62v.68l-1.83 2.26zm6.203 4.14c-.554 0-1.047-.14-1.48-.42-.427-.287-.764-.7-1.01-1.24-.247-.54-.37-1.18-.37-1.92s.123-1.38.37-1.92c.246-.54.583-.95 1.01-1.23.433-.287.926-.43 1.48-.43.546 0 1.033.143 1.46.43.433.28.773.69 1.02 1.23.246.54.37 1.18.37 1.92s-.124 1.38-.37 1.92c-.247.54-.587.953-1.02 1.24-.427.28-.914.42-1.46.42zm0-.89c.56 0 1.006-.23 1.34-.69.34-.46.51-1.127.51-2s-.17-1.54-.51-2c-.334-.46-.78-.69-1.34-.69-.567 0-1.02.23-1.36.69-.334.46-.5 1.127-.5 2s.166 1.54.5 2c.34.46.793.69 1.36.69zm5.63-2.43c-.487 0-.88-.177-1.18-.53-.3-.353-.45-.813-.45-1.38s.15-1.027.45-1.38c.3-.353.693-.53 1.18-.53.486 0 .876.177 1.17.53.3.347.45.807.45 1.38 0 .573-.15 1.037-.45 1.39-.294.347-.684.52-1.17.52zm4.22-3.76h.77l-4.78 7h-.77l4.78-7zm-4.22 3.19a.85.85 0 00.72-.35c.173-.24.26-.57.26-.99 0-.42-.087-.747-.26-.98a.84.84 0 00-.72-.36c-.3 0-.54.12-.72.36-.174.24-.26.567-.26.98 0 .413.086.74.26.98.18.24.42.36.72.36zm4.43 3.87c-.487 0-.88-.173-1.18-.52-.294-.353-.44-.817-.44-1.39s.146-1.033.44-1.38c.3-.353.693-.53 1.18-.53.486 0 .88.177 1.18.53.3.353.45.813.45 1.38s-.15 1.027-.45 1.38c-.3.353-.694.53-1.18.53zm0-.57c.3 0 .536-.12.71-.36.18-.24.27-.567.27-.98 0-.413-.09-.74-.27-.98a.83.83 0 00-.71-.36.838.838 0 00-.72.36c-.174.233-.26.56-.26.98 0 .42.086.75.26.99.173.233.413.35.72.35zm-16.263-80.55c.687.067 1.21.28 1.57.64.36.353.54.807.54 1.36 0 .4-.1.763-.3 1.09-.2.32-.5.577-.9.77-.393.187-.877.28-1.45.28-.5 0-.98-.073-1.44-.22-.46-.153-.837-.363-1.13-.63l.46-.79c.24.227.547.41.92.55.373.133.77.2 1.19.2.52 0 .923-.11 1.21-.33.293-.22.44-.523.44-.91s-.143-.687-.43-.9c-.287-.213-.72-.32-1.3-.32h-.56v-.7l1.76-2.16h-3.37V172h4.62v.68l-1.83 2.26zm6.203 4.14c-.554 0-1.047-.14-1.48-.42-.427-.287-.764-.7-1.01-1.24-.247-.54-.37-1.18-.37-1.92s.123-1.38.37-1.92c.246-.54.583-.95 1.01-1.23.433-.287.926-.43 1.48-.43.546 0 1.033.143 1.46.43.433.28.773.69 1.02 1.23.246.54.37 1.18.37 1.92s-.124 1.38-.37 1.92c-.247.54-.587.953-1.02 1.24-.427.28-.914.42-1.46.42zm0-.89c.56 0 1.006-.23 1.34-.69.34-.46.51-1.127.51-2s-.17-1.54-.51-2c-.334-.46-.78-.69-1.34-.69-.567 0-1.02.23-1.36.69-.334.46-.5 1.127-.5 2s.166 1.54.5 2c.34.46.793.69 1.36.69zm5.63-2.43c-.487 0-.88-.177-1.18-.53-.3-.353-.45-.813-.45-1.38s.15-1.027.45-1.38c.3-.353.693-.53 1.18-.53.486 0 .876.177 1.17.53.3.347.45.807.45 1.38 0 .573-.15 1.037-.45 1.39-.294.347-.684.52-1.17.52zm4.22-3.76h.77l-4.78 7h-.77l4.78-7zm-4.22 3.19a.85.85 0 00.72-.35c.173-.24.26-.57.26-.99 0-.42-.087-.747-.26-.98a.84.84 0 00-.72-.36c-.3 0-.54.12-.72.36-.174.24-.26.567-.26.98 0 .413.086.74.26.98.18.24.42.36.72.36zm4.43 3.87c-.487 0-.88-.173-1.18-.52-.294-.353-.44-.817-.44-1.39s.146-1.033.44-1.38c.3-.353.693-.53 1.18-.53.486 0 .88.177 1.18.53.3.353.45.813.45 1.38s-.15 1.027-.45 1.38c-.3.353-.694.53-1.18.53zm0-.57c.3 0 .536-.12.71-.36.18-.24.27-.567.27-.98 0-.413-.09-.74-.27-.98a.83.83 0 00-.71-.36.838.838 0 00-.72.36c-.174.233-.26.56-.26.98 0 .42.086.75.26.99.173.233.413.35.72.35zm-16.263-49.55c.687.067 1.21.28 1.57.64.36.353.54.807.54 1.36 0 .4-.1.763-.3 1.09-.2.32-.5.577-.9.77-.393.187-.877.28-1.45.28-.5 0-.98-.073-1.44-.22-.46-.153-.837-.363-1.13-.63l.46-.79c.24.227.547.41.92.55.373.133.77.2 1.19.2.52 0 .923-.11 1.21-.33.293-.22.44-.523.44-.91s-.143-.687-.43-.9c-.287-.213-.72-.32-1.3-.32h-.56v-.7l1.76-2.16h-3.37V126h4.62v.68l-1.83 2.26zm6.203 4.14c-.554 0-1.047-.14-1.48-.42-.427-.287-.764-.7-1.01-1.24-.247-.54-.37-1.18-.37-1.92s.123-1.38.37-1.92c.246-.54.583-.95 1.01-1.23.433-.287.926-.43 1.48-.43.546 0 1.033.143 1.46.43.433.28.773.69 1.02 1.23.246.54.37 1.18.37 1.92s-.124 1.38-.37 1.92c-.247.54-.587.953-1.02 1.24-.427.28-.914.42-1.46.42zm0-.89c.56 0 1.006-.23 1.34-.69.34-.46.51-1.127.51-2s-.17-1.54-.51-2c-.334-.46-.78-.69-1.34-.69-.567 0-1.02.23-1.36.69-.334.46-.5 1.127-.5 2s.166 1.54.5 2c.34.46.793.69 1.36.69zm5.63-2.43c-.487 0-.88-.177-1.18-.53-.3-.353-.45-.813-.45-1.38s.15-1.027.45-1.38c.3-.353.693-.53 1.18-.53.486 0 .876.177 1.17.53.3.347.45.807.45 1.38 0 .573-.15 1.037-.45 1.39-.294.347-.684.52-1.17.52zm4.22-3.76h.77l-4.78 7h-.77l4.78-7zm-4.22 3.19a.85.85 0 00.72-.35c.173-.24.26-.57.26-.99 0-.42-.087-.747-.26-.98a.84.84 0 00-.72-.36c-.3 0-.54.12-.72.36-.174.24-.26.567-.26.98 0 .413.086.74.26.98.18.24.42.36.72.36zm4.43 3.87c-.487 0-.88-.173-1.18-.52-.294-.353-.44-.817-.44-1.39s.146-1.033.44-1.38c.3-.353.693-.53 1.18-.53.486 0 .88.177 1.18.53.3.353.45.813.45 1.38s-.15 1.027-.45 1.38c-.3.353-.694.53-1.18.53zm0-.57c.3 0 .536-.12.71-.36.18-.24.27-.567.27-.98 0-.413-.09-.74-.27-.98a.83.83 0 00-.71-.36.838.838 0 00-.72.36c-.174.233-.26.56-.26.98 0 .42.086.75.26.99.173.233.413.35.72.35zM155.65 217v7h-.99v-6.13h-1.58V217h2.57zm4.691 7.08a2.67 2.67 0 01-1.48-.42c-.426-.287-.763-.7-1.01-1.24-.246-.54-.37-1.18-.37-1.92s.124-1.38.37-1.92c.247-.54.584-.95 1.01-1.23.434-.287.927-.43 1.48-.43.547 0 1.034.143 1.46.43.434.28.774.69 1.02 1.23.247.54.37 1.18.37 1.92s-.123 1.38-.37 1.92c-.246.54-.586.953-1.02 1.24-.426.28-.913.42-1.46.42zm0-.89c.56 0 1.007-.23 1.34-.69.34-.46.51-1.127.51-2s-.17-1.54-.51-2c-.333-.46-.78-.69-1.34-.69-.566 0-1.02.23-1.36.69-.333.46-.5 1.127-.5 2s.167 1.54.5 2c.34.46.794.69 1.36.69zm5.63-2.43c-.487 0-.88-.177-1.18-.53-.3-.353-.45-.813-.45-1.38s.15-1.027.45-1.38c.3-.353.693-.53 1.18-.53s.877.177 1.17.53c.3.347.45.807.45 1.38 0 .573-.15 1.037-.45 1.39-.293.347-.683.52-1.17.52zm4.22-3.76h.77l-4.78 7h-.77l4.78-7zm-4.22 3.19a.847.847 0 00.72-.35c.173-.24.26-.57.26-.99 0-.42-.087-.747-.26-.98a.838.838 0 00-.72-.36c-.3 0-.54.12-.72.36-.173.24-.26.567-.26.98 0 .413.087.74.26.98.18.24.42.36.72.36zm4.43 3.87c-.487 0-.88-.173-1.18-.52-.293-.353-.44-.817-.44-1.39s.147-1.033.44-1.38c.3-.353.693-.53 1.18-.53s.88.177 1.18.53c.3.353.45.813.45 1.38s-.15 1.027-.45 1.38c-.3.353-.693.53-1.18.53zm0-.57c.3 0 .537-.12.71-.36.18-.24.27-.567.27-.98 0-.413-.09-.74-.27-.98a.829.829 0 00-.71-.36.838.838 0 00-.72.36c-.173.233-.26.56-.26.98 0 .42.087.75.26.99.173.233.413.35.72.35z" fill="#fff"/><path d="M163 284l-19.919-18h39.838L163 284z" fill="#478ECC"/><path d="M383.71 7.745a2.1 2.1 0 01-.66 1.551c-.44.425-1.074.69-1.903.792v1.232h-1.1v-1.199a5.979 5.979 0 01-1.551-.286c-.491-.161-.887-.36-1.188-.594l.605-1.342c.279.205.605.378.979.517.374.14.759.227 1.155.264V6.843a8.276 8.276 0 01-1.32-.418 2.353 2.353 0 01-.902-.671c-.242-.3-.363-.697-.363-1.188 0-.609.22-1.13.66-1.562.447-.44 1.089-.708 1.925-.803V.98h1.1v1.199c.902.073 1.646.297 2.233.671l-.55 1.353a4.375 4.375 0 00-1.683-.572v1.87a7.36 7.36 0 011.298.407c.359.147.66.37.902.671.242.293.363.682.363 1.166zm-4.477-3.267c0 .183.07.334.209.451.139.117.341.216.605.297V3.664c-.279.066-.484.172-.616.319a.696.696 0 00-.198.495zm1.914 4.158c.264-.059.462-.154.594-.286a.646.646 0 00.198-.473.564.564 0 00-.209-.451c-.132-.117-.326-.22-.583-.308v1.518zm6.489-6.336V10h-1.782V3.73h-1.54V2.3h3.322zm6.937 3.652c.381.19.671.44.869.748.205.308.308.664.308 1.067 0 .477-.136.895-.407 1.254-.271.352-.653.627-1.144.825-.491.19-1.06.286-1.705.286s-1.214-.095-1.705-.286c-.484-.198-.862-.473-1.133-.825a2.061 2.061 0 01-.396-1.254c0-.403.099-.759.297-1.067.205-.308.495-.557.869-.748a1.895 1.895 0 01-.66-.66 1.839 1.839 0 01-.231-.924c0-.447.125-.836.374-1.166.249-.33.598-.583 1.045-.759.447-.183.961-.275 1.54-.275.587 0 1.104.092 1.551.275.455.176.807.429 1.056.759s.374.719.374 1.166c0 .345-.077.653-.231.924a1.872 1.872 0 01-.671.66zm-2.079-2.475c-.359 0-.649.088-.869.264-.213.169-.319.403-.319.704 0 .293.106.524.319.693.213.169.502.253.869.253s.66-.084.88-.253c.22-.169.33-.4.33-.693 0-.3-.11-.535-.33-.704-.22-.176-.513-.264-.88-.264zm0 5.346c.447 0 .799-.099 1.056-.297a.98.98 0 00.396-.814.951.951 0 00-.396-.803c-.257-.198-.609-.297-1.056-.297-.44 0-.788.099-1.045.297a.96.96 0 00-.385.803c0 .345.128.616.385.814.257.198.605.297 1.045.297zm7.702 1.309a3.123 3.123 0 01-1.705-.473c-.499-.315-.891-.77-1.177-1.364-.279-.601-.418-1.316-.418-2.145s.139-1.54.418-2.134c.286-.601.678-1.06 1.177-1.375a3.123 3.123 0 011.705-.473c.638 0 1.206.158 1.705.473.498.315.887.774 1.166 1.375.286.594.429 1.305.429 2.134s-.143 1.544-.429 2.145c-.279.594-.668 1.049-1.166 1.364a3.123 3.123 0 01-1.705.473zm0-1.507c.469 0 .836-.202 1.1-.605.271-.403.407-1.027.407-1.87 0-.843-.136-1.467-.407-1.87-.264-.403-.631-.605-1.1-.605-.462 0-.829.202-1.1.605-.264.403-.396 1.027-.396 1.87 0 .843.132 1.467.396 1.87.271.403.638.605 1.1.605zm5.368 1.463a1.03 1.03 0 01-.759-.308 1.042 1.042 0 01-.308-.77c0-.315.102-.568.308-.759a1.05 1.05 0 01.759-.297c.3 0 .553.099.759.297.205.19.308.444.308.759 0 .308-.103.565-.308.77a1.034 1.034 0 01-.759.308zm4.995-7.788V10h-1.782V3.73h-1.54V2.3h3.322zm11.251 3.696c.44.14.784.374 1.034.704.249.323.374.722.374 1.199 0 .675-.264 1.195-.792 1.562-.521.36-1.284.539-2.288.539h-3.982V2.3h3.762c.938 0 1.657.18 2.156.539.506.36.759.847.759 1.463 0 .374-.092.708-.275 1.001a1.853 1.853 0 01-.748.693zm-3.883-2.354v1.815h1.771c.44 0 .773-.077 1.001-.231.227-.154.341-.381.341-.682 0-.3-.114-.524-.341-.671-.228-.154-.561-.231-1.001-.231h-1.771zm2.079 5.016c.469 0 .821-.077 1.056-.231.242-.154.363-.392.363-.715 0-.638-.473-.957-1.419-.957h-2.079v1.903h2.079zm8.367-4.664c.733 0 1.323.22 1.771.66.454.44.682 1.093.682 1.958V10h-1.716V6.876c0-.47-.103-.818-.308-1.045-.206-.235-.503-.352-.891-.352-.433 0-.778.136-1.034.407-.257.264-.385.66-.385 1.188V10h-1.716V4.082h1.639v.693c.227-.25.509-.44.847-.572a2.88 2.88 0 011.111-.209zM323.71 27.745a2.1 2.1 0 01-.66 1.551c-.44.425-1.074.69-1.903.792v1.232h-1.1v-1.199a5.98 5.98 0 01-1.551-.286c-.491-.161-.887-.36-1.188-.594l.605-1.342c.279.205.605.378.979.517.374.14.759.227 1.155.264v-1.837a8.28 8.28 0 01-1.32-.418 2.354 2.354 0 01-.902-.671c-.242-.3-.363-.697-.363-1.188 0-.609.22-1.13.66-1.562.447-.44 1.089-.708 1.925-.803V20.98h1.1v1.199c.902.073 1.646.297 2.233.671l-.55 1.353a4.375 4.375 0 00-1.683-.572v1.87a7.36 7.36 0 011.298.407c.359.147.66.37.902.671.242.293.363.682.363 1.166zm-4.477-3.267c0 .183.07.334.209.451.139.117.341.216.605.297v-1.562c-.279.066-.484.172-.616.319a.695.695 0 00-.198.495zm1.914 4.158c.264-.059.462-.154.594-.286a.646.646 0 00.198-.473.564.564 0 00-.209-.451c-.132-.117-.326-.22-.583-.308v1.518zm6.489-6.336V30h-1.782v-6.27h-1.54V22.3h3.322zm5.375 2.871c.491 0 .939.099 1.342.297.403.198.722.48.957.847.235.36.352.777.352 1.254 0 .513-.128.964-.385 1.353s-.609.69-1.056.902c-.44.205-.931.308-1.474.308-1.078 0-1.921-.33-2.53-.99-.609-.66-.913-1.602-.913-2.827 0-.873.165-1.62.495-2.244a3.378 3.378 0 011.375-1.419c.594-.323 1.28-.484 2.057-.484.411 0 .803.048 1.177.143.381.088.704.216.968.385l-.66 1.309c-.381-.257-.862-.385-1.441-.385-.653 0-1.17.19-1.551.572-.381.381-.587.935-.616 1.661.455-.455 1.089-.682 1.903-.682zm-.363 3.63c.381 0 .689-.103.924-.308.242-.205.363-.484.363-.836s-.121-.63-.363-.836c-.235-.213-.55-.319-.946-.319-.389 0-.708.11-.957.33a1.035 1.035 0 00-.374.825c0 .337.121.612.363.825.242.213.572.319.99.319zm6.63-3.608c1.085 0 1.884.216 2.398.649.52.433.781 1.012.781 1.738 0 .47-.118.898-.352 1.287-.235.381-.594.69-1.078.924-.477.227-1.067.341-1.771.341-.543 0-1.078-.07-1.606-.209a4.203 4.203 0 01-1.331-.616l.704-1.364c.293.22.63.392 1.012.517.381.117.773.176 1.177.176.447 0 .799-.088 1.056-.264a.846.846 0 00.385-.737c0-.33-.136-.58-.407-.748-.264-.169-.726-.253-1.386-.253h-1.969l.396-4.334h4.697v1.43h-3.212l-.121 1.463h.627zm5.244 4.895a1.03 1.03 0 01-.759-.308 1.042 1.042 0 01-.308-.77c0-.315.102-.568.308-.759a1.05 1.05 0 01.759-.297c.3 0 .553.099.759.297.205.19.308.444.308.759 0 .308-.103.565-.308.77a1.034 1.034 0 01-.759.308zm4.995-7.788V30h-1.782v-6.27h-1.54V22.3h3.322zm11.251 3.696c.44.14.784.374 1.034.704.249.323.374.722.374 1.199 0 .675-.264 1.195-.792 1.562-.521.36-1.284.539-2.288.539h-3.982v-7.7h3.762c.938 0 1.657.18 2.156.539.506.36.759.847.759 1.463 0 .374-.092.708-.275 1.001a1.853 1.853 0 01-.748.693zm-3.883-2.354v1.815h1.771c.44 0 .773-.077 1.001-.231.227-.154.341-.381.341-.682 0-.3-.114-.524-.341-.671-.228-.154-.561-.231-1.001-.231h-1.771zm2.079 5.016c.469 0 .821-.077 1.056-.231.242-.154.363-.392.363-.715 0-.638-.473-.957-1.419-.957h-2.079v1.903h2.079zm8.367-4.664c.733 0 1.323.22 1.771.66.454.44.682 1.093.682 1.958V30h-1.716v-3.124c0-.47-.103-.818-.308-1.045-.206-.235-.503-.352-.891-.352-.433 0-.778.136-1.034.407-.257.264-.385.66-.385 1.188V30h-1.716v-5.918h1.639v.693c.227-.25.509-.44.847-.572a2.88 2.88 0 011.111-.209zM263.71 49.745a2.1 2.1 0 01-.66 1.551c-.44.425-1.074.69-1.903.792v1.232h-1.1v-1.199a5.98 5.98 0 01-1.551-.286c-.491-.161-.887-.36-1.188-.594l.605-1.342c.279.205.605.378.979.517.374.14.759.227 1.155.264v-1.837a8.28 8.28 0 01-1.32-.418 2.354 2.354 0 01-.902-.671c-.242-.3-.363-.697-.363-1.188 0-.609.22-1.13.66-1.562.447-.44 1.089-.708 1.925-.803V42.98h1.1v1.199c.902.073 1.646.297 2.233.671l-.55 1.353a4.375 4.375 0 00-1.683-.572v1.87a7.36 7.36 0 011.298.407c.359.147.66.37.902.671.242.293.363.682.363 1.166zm-4.477-3.267c0 .183.07.334.209.451.139.117.341.216.605.297v-1.562c-.279.066-.484.172-.616.319a.695.695 0 00-.198.495zm1.914 4.158c.264-.059.462-.154.594-.286a.646.646 0 00.198-.473.564.564 0 00-.209-.451c-.132-.117-.326-.22-.583-.308v1.518zm6.489-6.336V52h-1.782v-6.27h-1.54V44.3h3.322zm4.308 2.893c1.085 0 1.885.216 2.398.649.521.433.781 1.012.781 1.738 0 .47-.117.898-.352 1.287-.235.381-.594.69-1.078.924-.477.227-1.067.341-1.771.341-.543 0-1.078-.07-1.606-.209a4.213 4.213 0 01-1.331-.616l.704-1.364c.293.22.631.392 1.012.517a3.98 3.98 0 001.177.176c.447 0 .799-.088 1.056-.264a.843.843 0 00.385-.737c0-.33-.136-.58-.407-.748-.264-.169-.726-.253-1.386-.253h-1.969l.396-4.334h4.697v1.43h-3.212l-.121 1.463h.627zm7.202-2.893V52h-1.782v-6.27h-1.54V44.3h3.322zm2.679 7.788c-.3 0-.553-.103-.759-.308a1.046 1.046 0 01-.308-.77c0-.315.103-.568.308-.759.206-.198.459-.297.759-.297.301 0 .554.099.759.297.206.19.308.444.308.759 0 .308-.102.565-.308.77a1.03 1.03 0 01-.759.308zm4.903-7.92c1.078 0 1.922.33 2.53.99.609.653.913 1.595.913 2.827 0 .873-.165 1.62-.495 2.244a3.293 3.293 0 01-1.375 1.419c-.594.323-1.279.484-2.057.484-.41 0-.803-.044-1.177-.132a3.265 3.265 0 01-.957-.396l.66-1.309c.374.257.855.385 1.441.385.653 0 1.17-.19 1.551-.572.382-.389.587-.946.616-1.672-.462.462-1.1.693-1.914.693-.491 0-.938-.099-1.342-.297a2.363 2.363 0 01-.957-.836 2.3 2.3 0 01-.352-1.265c0-.513.129-.964.385-1.353a2.482 2.482 0 011.045-.891 3.418 3.418 0 011.485-.319zm.132 3.63c.389 0 .704-.106.946-.319.25-.22.374-.499.374-.836 0-.337-.121-.612-.363-.825-.234-.213-.561-.319-.979-.319-.381 0-.693.103-.935.308-.234.205-.352.484-.352.836s.118.634.352.847c.242.205.561.308.957.308zm14.08.198c.44.14.784.374 1.034.704.249.323.374.722.374 1.199 0 .675-.264 1.195-.792 1.562-.521.36-1.284.539-2.288.539h-3.982v-7.7h3.762c.938 0 1.657.18 2.156.539.506.36.759.847.759 1.463 0 .374-.092.708-.275 1.001a1.853 1.853 0 01-.748.693zm-3.883-2.354v1.815h1.771c.44 0 .773-.077 1.001-.231.227-.154.341-.381.341-.682 0-.3-.114-.524-.341-.671-.228-.154-.561-.231-1.001-.231h-1.771zm2.079 5.016c.469 0 .821-.077 1.056-.231.242-.154.363-.392.363-.715 0-.638-.473-.957-1.419-.957h-2.079v1.903h2.079zm8.367-4.664c.733 0 1.323.22 1.771.66.454.44.682 1.093.682 1.958V52h-1.716v-3.124c0-.47-.103-.818-.308-1.045-.206-.235-.503-.352-.891-.352-.433 0-.778.136-1.034.407-.257.264-.385.66-.385 1.188V52h-1.716v-5.918h1.639v.693c.227-.25.509-.44.847-.572a2.88 2.88 0 011.111-.209zM201.71 73.745a2.1 2.1 0 01-.66 1.551c-.44.425-1.074.69-1.903.792v1.232h-1.1v-1.199a5.98 5.98 0 01-1.551-.286c-.491-.161-.887-.36-1.188-.594l.605-1.342c.279.205.605.378.979.517.374.14.759.227 1.155.264v-1.837a8.28 8.28 0 01-1.32-.418 2.354 2.354 0 01-.902-.671c-.242-.3-.363-.697-.363-1.188 0-.609.22-1.13.66-1.562.447-.44 1.089-.708 1.925-.803V66.98h1.1v1.199c.902.073 1.646.297 2.233.671l-.55 1.353a4.375 4.375 0 00-1.683-.572v1.87a7.36 7.36 0 011.298.407c.359.147.66.37.902.671.242.293.363.682.363 1.166zm-4.477-3.267c0 .183.07.334.209.451.139.117.341.216.605.297v-1.562c-.279.066-.484.172-.616.319a.695.695 0 00-.198.495zm1.914 4.158c.264-.059.462-.154.594-.286a.646.646 0 00.198-.473.564.564 0 00-.209-.451c-.132-.117-.326-.22-.583-.308v1.518zm6.489-6.336V76h-1.782v-6.27h-1.54V68.3h3.322zm5.265 3.135c.675.11 1.192.363 1.551.759.359.389.539.873.539 1.452 0 .447-.117.862-.352 1.243-.235.374-.594.675-1.078.902-.477.227-1.063.341-1.76.341-.543 0-1.078-.07-1.606-.209a4.213 4.213 0 01-1.331-.616l.693-1.364c.293.22.631.392 1.012.517.389.117.785.176 1.188.176.447 0 .799-.084 1.056-.253a.843.843 0 00.385-.737c0-.63-.48-.946-1.441-.946h-.814v-1.177l1.584-1.793h-3.278V68.3h5.39v1.155l-1.738 1.98zm9.174-3.135v1.155L217.215 76h-1.936l2.761-6.248h-2.552v1.254h-1.584V68.3h6.171zm1.598 7.788a1.03 1.03 0 01-.759-.308 1.046 1.046 0 01-.308-.77c0-.315.103-.568.308-.759a1.05 1.05 0 01.759-.297c.301 0 .554.099.759.297.205.19.308.444.308.759 0 .308-.103.565-.308.77a1.03 1.03 0 01-.759.308zm7.573-4.136c.382.19.671.44.869.748.206.308.308.664.308 1.067 0 .477-.135.895-.407 1.254-.271.352-.652.627-1.144.825-.491.19-1.059.286-1.705.286-.645 0-1.213-.095-1.705-.286-.484-.198-.861-.473-1.133-.825a2.061 2.061 0 01-.396-1.254c0-.403.099-.759.297-1.067.206-.308.495-.557.869-.748a1.895 1.895 0 01-.66-.66 1.839 1.839 0 01-.231-.924c0-.447.125-.836.374-1.166.25-.33.598-.583 1.045-.759.448-.183.961-.275 1.54-.275.587 0 1.104.092 1.551.275.455.176.807.429 1.056.759.25.33.374.719.374 1.166 0 .345-.077.653-.231.924a1.864 1.864 0 01-.671.66zm-2.079-2.475c-.359 0-.649.088-.869.264-.212.169-.319.403-.319.704a.84.84 0 00.319.693c.213.169.503.253.869.253.367 0 .66-.084.88-.253.22-.169.33-.4.33-.693 0-.3-.11-.535-.33-.704-.22-.176-.513-.264-.88-.264zm0 5.346c.448 0 .8-.099 1.056-.297a.98.98 0 00.396-.814.951.951 0 00-.396-.803c-.256-.198-.608-.297-1.056-.297-.44 0-.788.099-1.045.297a.963.963 0 00-.385.803c0 .345.129.616.385.814.257.198.605.297 1.045.297zm13.985-2.827c.44.14.785.374 1.034.704.25.323.374.722.374 1.199 0 .675-.264 1.195-.792 1.562-.52.36-1.283.539-2.288.539h-3.982v-7.7h3.762c.939 0 1.658.18 2.156.539.506.36.759.847.759 1.463 0 .374-.091.708-.275 1.001a1.847 1.847 0 01-.748.693zm-3.883-2.354v1.815h1.771c.44 0 .774-.077 1.001-.231.228-.154.341-.381.341-.682 0-.3-.113-.524-.341-.671-.227-.154-.561-.231-1.001-.231h-1.771zm2.079 5.016c.47 0 .822-.077 1.056-.231.242-.154.363-.392.363-.715 0-.638-.473-.957-1.419-.957h-2.079v1.903h2.079zm8.368-4.664c.733 0 1.323.22 1.771.66.454.44.682 1.093.682 1.958V76h-1.716v-3.124c0-.47-.103-.818-.308-1.045-.206-.235-.503-.352-.891-.352-.433 0-.778.136-1.034.407-.257.264-.385.66-.385 1.188V76h-1.716v-5.918h1.639v.693c.227-.25.509-.44.847-.572a2.88 2.88 0 011.111-.209zM140.71 96.745a2.1 2.1 0 01-.66 1.551c-.44.425-1.074.69-1.903.792v1.232h-1.1v-1.199a5.98 5.98 0 01-1.551-.286c-.491-.161-.887-.36-1.188-.594l.605-1.342c.279.205.605.378.979.517.374.14.759.227 1.155.264v-1.837a8.28 8.28 0 01-1.32-.418 2.354 2.354 0 01-.902-.671c-.242-.3-.363-.697-.363-1.188 0-.609.22-1.13.66-1.562.447-.44 1.089-.708 1.925-.803V89.98h1.1v1.199c.902.073 1.646.297 2.233.671l-.55 1.353a4.375 4.375 0 00-1.683-.572v1.87a7.36 7.36 0 011.298.407c.359.147.66.37.902.671.242.293.363.682.363 1.166zm-4.477-3.267c0 .183.07.334.209.451.139.117.341.216.605.297v-1.562c-.279.066-.484.172-.616.319a.695.695 0 00-.198.495zm1.914 4.158c.264-.059.462-.154.594-.286a.646.646 0 00.198-.473.564.564 0 00-.209-.451c-.132-.117-.326-.22-.583-.308v1.518zm6.489-6.336V99h-1.782v-6.27h-1.54V91.3h3.322zm7.421 6.248V99h-5.819v-1.155l2.97-2.805c.315-.3.528-.557.638-.77.11-.22.165-.436.165-.649 0-.308-.106-.543-.319-.704-.205-.169-.51-.253-.913-.253a2.06 2.06 0 00-.913.198 1.704 1.704 0 00-.682.572l-1.298-.836a3.008 3.008 0 011.243-1.045c.528-.257 1.133-.385 1.815-.385.572 0 1.071.095 1.496.286.433.183.766.447 1.001.792.242.337.363.737.363 1.199 0 .418-.088.81-.264 1.177-.176.367-.517.785-1.023 1.254l-1.771 1.672h3.311zm6.818 0V99h-5.819v-1.155l2.97-2.805c.315-.3.528-.557.638-.77.11-.22.165-.436.165-.649 0-.308-.106-.543-.319-.704-.205-.169-.51-.253-.913-.253a2.06 2.06 0 00-.913.198 1.704 1.704 0 00-.682.572l-1.298-.836a3.008 3.008 0 011.243-1.045c.528-.257 1.133-.385 1.815-.385.572 0 1.071.095 1.496.286.433.183.766.447 1.001.792.242.337.363.737.363 1.199 0 .418-.088.81-.264 1.177-.176.367-.517.785-1.023 1.254l-1.771 1.672h3.311zm2.185 1.54a1.03 1.03 0 01-.759-.308 1.042 1.042 0 01-.308-.77c0-.315.102-.568.308-.759a1.05 1.05 0 01.759-.297c.3 0 .553.099.759.297.205.19.308.444.308.759 0 .308-.103.565-.308.77a1.034 1.034 0 01-.759.308zm8.053-7.788v1.155L166.253 99h-1.936l2.761-6.248h-2.552v1.254h-1.584V91.3h6.171zm10.706 3.696c.44.14.785.374 1.034.704.25.323.374.722.374 1.199 0 .675-.264 1.195-.792 1.562-.52.36-1.283.539-2.288.539h-3.982v-7.7h3.762c.939 0 1.658.18 2.156.539.506.36.759.847.759 1.463 0 .374-.091.708-.275 1.001a1.847 1.847 0 01-.748.693zm-3.883-2.354v1.815h1.771c.44 0 .774-.077 1.001-.231.228-.154.341-.381.341-.682 0-.3-.113-.524-.341-.671-.227-.154-.561-.231-1.001-.231h-1.771zm2.079 5.016c.47 0 .822-.077 1.056-.231.242-.154.363-.392.363-.715 0-.638-.473-.957-1.419-.957h-2.079v1.903h2.079zm8.368-4.664c.733 0 1.323.22 1.771.66.454.44.682 1.093.682 1.958V99h-1.716v-3.124c0-.47-.103-.818-.308-1.045-.206-.235-.503-.352-.891-.352-.433 0-.778.136-1.034.407-.257.264-.385.66-.385 1.188V99h-1.716v-5.918h1.639v.693c.227-.25.509-.44.847-.572a2.88 2.88 0 011.111-.209z" fill="#6C6C6D"/><path d="M21.11 163.1c-.54 0-1.063-.077-1.57-.23-.5-.153-.897-.357-1.19-.61l.45-1.01c.287.227.637.413 1.05.56.42.14.84.21 1.26.21.52 0 .907-.083 1.16-.25.26-.167.39-.387.39-.66 0-.2-.073-.363-.22-.49a1.42 1.42 0 00-.54-.31 12.15 12.15 0 00-.9-.25 10.785 10.785 0 01-1.3-.38 2.2 2.2 0 01-.85-.59c-.233-.273-.35-.64-.35-1.1 0-.387.103-.737.31-1.05.213-.32.53-.573.95-.76.427-.187.947-.28 1.56-.28.427 0 .847.053 1.26.16.413.107.77.26 1.07.46l-.41 1.01a4.032 4.032 0 00-.96-.41 3.604 3.604 0 00-.97-.14c-.513 0-.897.087-1.15.26a.804.804 0 00-.37.69c0 .2.07.363.21.49a1.6 1.6 0 00.55.3c.22.073.52.157.9.25.52.12.947.247 1.28.38.333.127.617.323.85.59.24.267.36.627.36 1.08 0 .387-.107.737-.32 1.05-.207.313-.523.563-.95.75-.427.187-.947.28-1.56.28zm7.5-7.1c.606 0 1.132.1 1.58.3.452.2.8.487 1.04.86s.36.817.36 1.33c0 .507-.12.95-.36 1.33-.24.373-.588.66-1.04.86-.448.2-.974.3-1.58.3h-1.58V163h-1.3v-7h2.88zm-.06 3.88c.566 0 .996-.12 1.29-.36.292-.24.44-.583.44-1.03 0-.447-.148-.79-.44-1.03-.294-.24-.724-.36-1.29-.36h-1.52v2.78h1.52zm8.205 3.22c-.713 0-1.357-.153-1.93-.46a3.486 3.486 0 01-1.35-1.29 3.57 3.57 0 01-.49-1.85c0-.68.163-1.293.49-1.84a3.403 3.403 0 011.35-1.29c.573-.313 1.217-.47 1.93-.47.713 0 1.357.157 1.93.47a3.418 3.418 0 011.35 1.28c.327.547.49 1.163.49 1.85s-.163 1.303-.49 1.85a3.485 3.485 0 01-1.35 1.29c-.573.307-1.217.46-1.93.46zm0-1.14c.467 0 .887-.103 1.26-.31.373-.213.667-.507.88-.88.213-.38.32-.803.32-1.27 0-.467-.107-.887-.32-1.26a2.236 2.236 0 00-.88-.88 2.497 2.497 0 00-1.26-.32c-.467 0-.887.107-1.26.32-.373.207-.667.5-.88.88-.213.373-.32.793-.32 1.26 0 .467.107.89.32 1.27.213.373.507.667.88.88.373.207.793.31 1.26.31zM46.983 163l-1.43-2.05c-.06.007-.15.01-.27.01h-1.58V163h-1.3v-7h2.88c.607 0 1.133.1 1.58.3.453.2.8.487 1.04.86s.36.817.36 1.33c0 .527-.13.98-.39 1.36-.253.38-.62.663-1.1.85l1.61 2.3h-1.4zm-.03-4.51c0-.447-.147-.79-.44-1.03-.293-.24-.723-.36-1.29-.36h-1.52v2.79h1.52c.567 0 .997-.12 1.29-.36.293-.247.44-.593.44-1.04zm4.587-1.39h-2.32V156h5.94v1.1h-2.32v5.9h-1.3v-5.9zm7.197 6c-.54 0-1.063-.077-1.57-.23-.5-.153-.897-.357-1.19-.61l.45-1.01a3.64 3.64 0 001.05.56c.42.14.84.21 1.26.21.52 0 .907-.083 1.16-.25.26-.167.39-.387.39-.66 0-.2-.073-.363-.22-.49a1.42 1.42 0 00-.54-.31 12.15 12.15 0 00-.9-.25 10.78 10.78 0 01-1.3-.38 2.2 2.2 0 01-.85-.59c-.233-.273-.35-.64-.35-1.1 0-.387.103-.737.31-1.05.213-.32.53-.573.95-.76.427-.187.947-.28 1.56-.28.427 0 .847.053 1.26.16.413.107.77.26 1.07.46l-.41 1.01a4.032 4.032 0 00-.96-.41 3.605 3.605 0 00-.97-.14c-.513 0-.897.087-1.15.26a.804.804 0 00-.37.69c0 .2.07.363.21.49a1.6 1.6 0 00.55.3c.22.073.52.157.9.25.52.12.947.247 1.28.38.333.127.617.323.85.59.24.267.36.627.36 1.08 0 .387-.107.737-.32 1.05-.207.313-.523.563-.95.75-.427.187-.947.28-1.56.28zm12.843-3.74c.386.127.693.34.92.64.226.293.34.66.34 1.1 0 .607-.234 1.077-.7 1.41-.467.327-1.147.49-2.04.49h-3.48v-7h3.28c.826 0 1.463.163 1.91.49.446.32.67.763.67 1.33 0 .347-.08.653-.24.92-.16.267-.38.473-.66.62zm-3.66-2.34v1.93h1.84c.453 0 .8-.08 1.04-.24a.818.818 0 00.37-.72c0-.32-.124-.56-.37-.72-.24-.167-.587-.25-1.04-.25h-1.84zm2.1 4.96c1.006 0 1.51-.337 1.51-1.01s-.504-1.01-1.51-1.01h-2.1v2.02h2.1zm9.957-.07V163h-5.25v-7h5.11v1.09h-3.81v1.82h3.38v1.07h-3.38v1.93h3.95zm3.37-4.81h-2.32V156h5.94v1.1h-2.32v5.9h-1.3v-5.9zm6.613 0h-2.32V156h5.94v1.1h-2.32v5.9h-1.3v-5.9zm5.095-1.1h1.3v7h-1.3v-7zm9.914 0v7h-1.07l-3.86-4.74V163h-1.29v-7h1.07l3.86 4.74V156h1.29zm7.155 3.42h1.23v2.79c-.36.287-.78.507-1.26.66-.48.153-.973.23-1.48.23-.713 0-1.356-.153-1.93-.46a3.49 3.49 0 01-1.35-1.29 3.543 3.543 0 01-.49-1.85c0-.687.164-1.303.49-1.85a3.424 3.424 0 011.35-1.28c.58-.313 1.23-.47 1.95-.47.587 0 1.12.097 1.6.29.48.193.884.477 1.21.85l-.82.8a2.63 2.63 0 00-1.93-.8c-.493 0-.933.103-1.32.31-.38.207-.68.497-.9.87-.213.373-.32.8-.32 1.28 0 .467.107.887.32 1.26.22.373.52.667.9.88.387.213.824.32 1.31.32.547 0 1.027-.12 1.44-.36v-2.18zM25.34 178l-3.05 7h-1.28l-3.06-7h1.41l2.33 5.4 2.35-5.4h1.3zm1.239 0h1.3v7h-1.3v-7zm8.273 7l-1.43-2.05c-.06.007-.15.01-.27.01h-1.58V185h-1.3v-7h2.88c.607 0 1.133.1 1.58.3.453.2.8.487 1.04.86s.36.817.36 1.33c0 .527-.13.98-.39 1.36-.253.38-.62.663-1.1.85l1.61 2.3h-1.4zm-.03-4.51c0-.447-.147-.79-.44-1.03-.293-.24-.723-.36-1.29-.36h-1.52v2.79h1.52c.567 0 .997-.12 1.29-.36.293-.247.44-.593.44-1.04zm4.587-1.39h-2.32V178h5.94v1.1h-2.32v5.9h-1.3v-5.9zm7.979 6c-.967 0-1.72-.27-2.26-.81-.54-.547-.81-1.327-.81-2.34V178h1.3v3.9c0 1.373.593 2.06 1.78 2.06 1.18 0 1.77-.687 1.77-2.06V178h1.28v3.95c0 1.013-.27 1.793-.81 2.34-.534.54-1.284.81-2.25.81zm9.774-1.72h-3.5l-.69 1.62h-1.34l3.15-7h1.28l3.16 7h-1.36l-.7-1.62zm-.43-1.02l-1.32-3.06-1.31 3.06h2.63zm3.88-4.36h1.3v5.9h3.66v1.1h-4.96v-7zm11.92 7.1c-.54 0-1.063-.077-1.57-.23-.5-.153-.897-.357-1.19-.61l.45-1.01a3.64 3.64 0 001.05.56c.42.14.84.21 1.26.21.52 0 .907-.083 1.16-.25.26-.167.39-.387.39-.66 0-.2-.073-.363-.22-.49a1.42 1.42 0 00-.54-.31 12.15 12.15 0 00-.9-.25 10.78 10.78 0 01-1.3-.38 2.2 2.2 0 01-.85-.59c-.234-.273-.35-.64-.35-1.1 0-.387.103-.737.31-1.05.213-.32.53-.573.95-.76.427-.187.947-.28 1.56-.28.426 0 .846.053 1.26.16.413.107.77.26 1.07.46l-.41 1.01a4.032 4.032 0 00-.96-.41 3.605 3.605 0 00-.97-.14c-.513 0-.897.087-1.15.26a.804.804 0 00-.37.69c0 .2.07.363.21.49a1.6 1.6 0 00.55.3c.22.073.52.157.9.25.52.12.947.247 1.28.38.333.127.617.323.85.59.24.267.36.627.36 1.08 0 .387-.107.737-.32 1.05-.207.313-.523.563-.95.75-.427.187-.947.28-1.56.28zm7.499-7.1c.607 0 1.133.1 1.58.3.453.2.8.487 1.04.86s.36.817.36 1.33c0 .507-.12.95-.36 1.33-.24.373-.587.66-1.04.86-.447.2-.973.3-1.58.3h-1.58V185h-1.3v-7h2.88zm-.06 3.88c.567 0 .997-.12 1.29-.36.293-.24.44-.583.44-1.03 0-.447-.147-.79-.44-1.03-.293-.24-.723-.36-1.29-.36h-1.52v2.78h1.52zm8.206 3.22c-.714 0-1.357-.153-1.93-.46a3.486 3.486 0 01-1.35-1.29 3.57 3.57 0 01-.49-1.85c0-.68.163-1.293.49-1.84a3.403 3.403 0 011.35-1.29c.573-.313 1.216-.47 1.93-.47.713 0 1.356.157 1.93.47a3.42 3.42 0 011.35 1.28c.327.547.49 1.163.49 1.85s-.163 1.303-.49 1.85a3.486 3.486 0 01-1.35 1.29c-.573.307-1.217.46-1.93.46zm0-1.14c.466 0 .886-.103 1.26-.31.373-.213.666-.507.88-.88.213-.38.32-.803.32-1.27 0-.467-.107-.887-.32-1.26a2.237 2.237 0 00-.88-.88 2.497 2.497 0 00-1.26-.32c-.467 0-.887.107-1.26.32a2.23 2.23 0 00-.88.88c-.214.373-.32.793-.32 1.26 0 .467.106.89.32 1.27.213.373.506.667.88.88.373.207.793.31 1.26.31zM98.405 185l-1.43-2.05c-.06.007-.15.01-.27.01h-1.58V185h-1.3v-7h2.88c.606 0 1.133.1 1.58.3.453.2.8.487 1.04.86s.36.817.36 1.33c0 .527-.13.98-.39 1.36-.254.38-.62.663-1.1.85l1.61 2.3h-1.4zm-.03-4.51c0-.447-.147-.79-.44-1.03-.294-.24-.724-.36-1.29-.36h-1.52v2.79h1.52c.566 0 .996-.12 1.29-.36.293-.247.44-.593.44-1.04zm4.587-1.39h-2.32V178h5.94v1.1h-2.32v5.9h-1.3v-5.9zm7.197 6c-.54 0-1.064-.077-1.57-.23-.5-.153-.897-.357-1.19-.61l.45-1.01c.286.227.636.413 1.05.56.42.14.84.21 1.26.21.52 0 .906-.083 1.16-.25.26-.167.39-.387.39-.66a.62.62 0 00-.22-.49 1.42 1.42 0 00-.54-.31 12.15 12.15 0 00-.9-.25 10.73 10.73 0 01-1.3-.38 2.199 2.199 0 01-.85-.59c-.234-.273-.35-.64-.35-1.1 0-.387.103-.737.31-1.05.213-.32.53-.573.95-.76.426-.187.946-.28 1.56-.28.426 0 .846.053 1.26.16.413.107.77.26 1.07.46l-.41 1.01a4.043 4.043 0 00-.96-.41 3.61 3.61 0 00-.97-.14c-.514 0-.897.087-1.15.26a.803.803 0 00-.37.69c0 .2.07.363.21.49.146.127.33.227.55.3.22.073.52.157.9.25.52.12.946.247 1.28.38.333.127.616.323.85.59.24.267.36.627.36 1.08 0 .387-.107.737-.32 1.05-.207.313-.524.563-.95.75-.427.187-.947.28-1.56.28zm-86.785 22c-.54 0-1.064-.077-1.57-.23-.5-.153-.897-.357-1.19-.61l.45-1.01a3.64 3.64 0 001.05.56c.42.14.84.21 1.26.21.52 0 .906-.083 1.16-.25.26-.167.39-.387.39-.66a.62.62 0 00-.22-.49 1.42 1.42 0 00-.54-.31 12.15 12.15 0 00-.9-.25 10.78 10.78 0 01-1.3-.38 2.2 2.2 0 01-.85-.59c-.234-.273-.35-.64-.35-1.1 0-.387.103-.737.31-1.05.213-.32.53-.573.95-.76.426-.187.946-.28 1.56-.28.426 0 .846.053 1.26.16.413.107.77.26 1.07.46l-.41 1.01a4.032 4.032 0 00-.96-.41 3.605 3.605 0 00-.97-.14c-.514 0-.897.087-1.15.26a.804.804 0 00-.37.69c0 .2.07.363.21.49.146.127.33.227.55.3.22.073.52.157.9.25.52.12.946.247 1.28.38.333.127.616.323.85.59.24.267.36.627.36 1.08 0 .387-.107.737-.32 1.05-.207.313-.524.563-.95.75-.427.187-.947.28-1.56.28zm4.619-7.1h1.3v5.9h3.66v1.1h-4.96v-7zm9.63 7.1c-.714 0-1.358-.153-1.93-.46a3.486 3.486 0 01-1.35-1.29 3.57 3.57 0 01-.49-1.85c0-.68.162-1.293.49-1.84a3.403 3.403 0 011.35-1.29c.572-.313 1.216-.47 1.93-.47.712 0 1.356.157 1.93.47a3.42 3.42 0 011.35 1.28c.326.547.49 1.163.49 1.85s-.164 1.303-.49 1.85a3.486 3.486 0 01-1.35 1.29c-.574.307-1.218.46-1.93.46zm0-1.14c.466 0 .886-.103 1.26-.31.372-.213.666-.507.88-.88.212-.38.32-.803.32-1.27 0-.467-.108-.887-.32-1.26a2.237 2.237 0 00-.88-.88 2.497 2.497 0 00-1.26-.32 2.49 2.49 0 00-1.26.32c-.374.207-.668.5-.88.88-.214.373-.32.793-.32 1.26 0 .467.106.89.32 1.27.212.373.506.667.88.88.372.207.792.31 1.26.31zm6.97-4.86h-2.32V200h5.94v1.1h-2.32v5.9h-1.3v-5.9zm14.789 5.9l-.01-4.64-2.3 3.84h-.58l-2.3-3.78V207h-1.24v-7h1.07l2.78 4.64 2.73-4.64h1.07l.01 7h-1.23zm8.16-1.62h-3.5l-.69 1.62h-1.34l3.15-7h1.28l3.16 7h-1.36l-.7-1.62zm-.43-1.02l-1.32-3.06-1.31 3.06h2.63zm7.023 2.74a4.002 4.002 0 01-1.92-.46 3.504 3.504 0 01-1.34-1.29 3.593 3.593 0 01-.48-1.85c0-.687.163-1.303.49-1.85a3.436 3.436 0 011.34-1.28 3.94 3.94 0 011.92-.47c.573 0 1.097.1 1.57.3.473.2.873.49 1.2.87l-.84.79a2.449 2.449 0 00-1.87-.82c-.48 0-.91.107-1.29.32a2.24 2.24 0 00-.89.87c-.213.373-.32.797-.32 1.27s.107.897.32 1.27c.213.373.51.667.89.88.38.207.81.31 1.29.31.74 0 1.363-.277 1.87-.83l.84.8c-.327.38-.73.67-1.21.87-.473.2-.997.3-1.57.3zm10.746-7.1v7h-1.3v-3h-3.62v3h-1.3v-7h1.3v2.89h3.62V200h1.3zm2.375 0h1.3v7h-1.3v-7zm9.914 0v7H96.1l-3.86-4.74V207h-1.29v-7h1.07l3.86 4.74V200h1.29zm7.625 5.91V207h-5.25v-7h5.11v1.09h-3.81v1.82h3.38v1.07h-3.38v1.93h3.95zm4.12 1.19c-.54 0-1.064-.077-1.57-.23-.5-.153-.897-.357-1.19-.61l.45-1.01c.286.227.636.413 1.05.56.42.14.84.21 1.26.21.52 0 .906-.083 1.16-.25.26-.167.39-.387.39-.66a.62.62 0 00-.22-.49 1.42 1.42 0 00-.54-.31 12.15 12.15 0 00-.9-.25 10.73 10.73 0 01-1.3-.38 2.199 2.199 0 01-.85-.59c-.234-.273-.35-.64-.35-1.1 0-.387.103-.737.31-1.05.213-.32.53-.573.95-.76.426-.187.946-.28 1.56-.28.426 0 .846.053 1.26.16.413.107.77.26 1.07.46l-.41 1.01a4.043 4.043 0 00-.96-.41 3.61 3.61 0 00-.97-.14c-.514 0-.897.087-1.15.26a.803.803 0 00-.37.69c0 .2.07.363.21.49.146.127.33.227.55.3.22.073.52.157.9.25.52.12.946.247 1.28.38.333.127.616.323.85.59.24.267.36.627.36 1.08 0 .387-.107.737-.32 1.05-.207.313-.524.563-.95.75-.427.187-.947.28-1.56.28zM18.94 222h1.3v5.9h3.66v1.1h-4.96v-7zm6.486 0h1.3v7h-1.3v-7zm10.045 0l-3.05 7h-1.28l-3.06-7h1.41l2.33 5.4 2.35-5.4h1.3zm6.489 5.91V229h-5.25v-7h5.11v1.09h-3.81v1.82h3.38v1.07h-3.38v1.93h3.95zm8.452 1.19a4.002 4.002 0 01-1.92-.46 3.506 3.506 0 01-1.34-1.29 3.593 3.593 0 01-.48-1.85c0-.687.164-1.303.49-1.85a3.438 3.438 0 011.34-1.28 3.941 3.941 0 011.92-.47c.574 0 1.097.1 1.57.3.474.2.874.49 1.2.87l-.84.79a2.448 2.448 0 00-1.87-.82c-.48 0-.91.107-1.29.32a2.24 2.24 0 00-.89.87c-.213.373-.32.797-.32 1.27s.107.897.32 1.27c.214.373.51.667.89.88.38.207.81.31 1.29.31.74 0 1.364-.277 1.87-.83l.84.8c-.326.38-.73.67-1.21.87-.473.2-.996.3-1.57.3zm8.92-1.72h-3.5l-.69 1.62h-1.34l3.15-7h1.28l3.16 7h-1.36l-.7-1.62zm-.43-1.02l-1.32-3.06-1.31 3.06h2.63zm6.05 2.74c-.54 0-1.063-.077-1.57-.23-.5-.153-.897-.357-1.19-.61l.45-1.01c.286.227.636.413 1.05.56.42.14.84.21 1.26.21.52 0 .907-.083 1.16-.25.26-.167.39-.387.39-.66 0-.2-.073-.363-.22-.49a1.42 1.42 0 00-.54-.31 12.15 12.15 0 00-.9-.25 10.785 10.785 0 01-1.3-.38 2.2 2.2 0 01-.85-.59c-.233-.273-.35-.64-.35-1.1 0-.387.103-.737.31-1.05.213-.32.53-.573.95-.76.426-.187.947-.28 1.56-.28.426 0 .846.053 1.26.16.413.107.77.26 1.07.46l-.41 1.01a4.032 4.032 0 00-.96-.41 3.604 3.604 0 00-.97-.14c-.514 0-.897.087-1.15.26a.804.804 0 00-.37.69c0 .2.07.363.21.49a1.6 1.6 0 00.55.3c.22.073.52.157.9.25.52.12.947.247 1.28.38.333.127.617.323.85.59.24.267.36.627.36 1.08 0 .387-.107.737-.32 1.05-.207.313-.523.563-.95.75-.427.187-.947.28-1.56.28zm4.619-7.1h1.3v7h-1.3v-7zm9.913 0v7h-1.07l-3.86-4.74V229h-1.29v-7h1.07l3.86 4.74V222h1.29zm5.646 7.1c-.713 0-1.357-.153-1.93-.46a3.486 3.486 0 01-1.35-1.29 3.57 3.57 0 01-.49-1.85c0-.68.163-1.293.49-1.84a3.403 3.403 0 011.35-1.29c.573-.313 1.217-.47 1.93-.47.713 0 1.357.157 1.93.47a3.418 3.418 0 011.35 1.28c.327.547.49 1.163.49 1.85s-.163 1.303-.49 1.85a3.485 3.485 0 01-1.35 1.29c-.573.307-1.217.46-1.93.46zm0-1.14c.467 0 .887-.103 1.26-.31.373-.213.667-.507.88-.88.213-.38.32-.803.32-1.27 0-.467-.107-.887-.32-1.26a2.236 2.236 0 00-.88-.88 2.497 2.497 0 00-1.26-.32c-.467 0-.887.107-1.26.32-.373.207-.667.5-.88.88-.213.373-.32.793-.32 1.26 0 .467.107.89.32 1.27.213.373.507.667.88.88.373.207.793.31 1.26.31z" fill="#000"/><circle cx="6" cy="159" r="6" fill="#198459"/><circle cx="6" cy="181" r="6" fill="#23A873"/><circle cx="6" cy="203" r="6" fill="#96C8ED"/><circle cx="6" cy="225" r="6" fill="#478ECC"/></svg>