<svg width="125" height="126" fill="none" xmlns="http://www.w3.org/2000/svg"><path fill="#fff" d="M0 0h125v24H0z"/><rect y="3" width="18" height="18" rx="2" fill="#6FCF97"/><path d="M32.56 17.15c-.78 0-1.46-.125-2.04-.375-.57-.26-1.01-.595-1.32-1.005-.3-.41-.46-.85-.48-1.32 0-.08.03-.15.09-.21s.135-.09.225-.09h.3c.18 0 .29.1.33.3.07.48.345.9.825 1.26s1.17.54 2.07.54c.95 0 1.655-.17 2.115-.51.47-.35.705-.835.705-1.455 0-.38-.115-.69-.345-.93-.22-.25-.545-.465-.975-.645-.43-.19-1.08-.425-1.95-.705-.77-.25-1.375-.495-1.815-.735-.43-.24-.75-.535-.96-.885-.21-.35-.315-.795-.315-1.335 0-.51.135-.97.405-1.38.28-.41.68-.73 1.2-.96.52-.24 1.14-.36 1.86-.36.74 0 1.375.135 1.905.405.53.26.93.595 1.2 1.005.27.4.415.805.435 1.215 0 .08-.03.15-.09.21-.05.06-.125.09-.225.09h-.3a.42.42 0 01-.21-.06c-.07-.05-.11-.13-.12-.24-.06-.5-.33-.91-.81-1.23-.47-.33-1.065-.495-1.785-.495-.77 0-1.385.15-1.845.45-.45.3-.675.75-.675 1.35 0 .39.1.715.3.975.21.25.52.47.93.66.41.18 1.015.4 1.815.66.82.26 1.46.51 1.92.75.46.24.805.53 1.035.87.24.34.36.78.36 1.32 0 .9-.335 1.605-1.005 2.115-.67.5-1.59.75-2.76.75zm6.082 2.7c-.1 0-.18-.03-.24-.09a.324.324 0 01-.09-.24V9.53c0-.1.03-.18.09-.24s.14-.09.24-.09h.255c.1 0 .18.03.24.09s.09.14.09.24v.705c.58-.79 1.42-1.185 2.52-1.185 1.08 0 1.875.345 2.385 1.035.52.68.795 1.52.825 2.52.01.1.015.265.015.495 0 .23-.005.395-.015.495-.03 1-.305 1.845-.825 2.535-.51.68-1.305 1.02-2.385 1.02-1.09 0-1.93-.395-2.52-1.185v3.555c0 .1-.03.18-.09.24s-.14.09-.24.09h-.255zm3.015-3.57c.81 0 1.4-.255 1.77-.765.38-.52.585-1.185.615-1.995.01-.1.015-.24.015-.42 0-.93-.18-1.69-.54-2.28-.36-.6-.98-.9-1.86-.9-.79 0-1.385.265-1.785.795-.4.52-.615 1.135-.645 1.845l-.015.585.015.585c.01.43.105.84.285 1.23.18.38.45.695.81.945.36.25.805.375 1.335.375zm8.326.87c-1.04 0-1.85-.315-2.43-.945-.57-.64-.87-1.465-.9-2.475l-.015-.63.015-.63c.03-1.01.33-1.83.9-2.46.58-.64 1.39-.96 2.43-.96 1.04 0 1.845.32 2.415.96.58.63.885 1.45.915 2.46.01.1.015.31.015.63s-.005.53-.015.63c-.03 1.01-.335 1.835-.915 2.475-.57.63-1.375.945-2.415.945zm0-.87c.71 0 1.28-.225 1.71-.675.44-.46.675-1.11.705-1.95.01-.1.015-.285.015-.555 0-.27-.005-.455-.015-.555-.03-.84-.265-1.485-.705-1.935-.43-.46-1-.69-1.71-.69s-1.285.23-1.725.69c-.43.45-.66 1.095-.69 1.935l-.015.555.015.555c.03.84.26 1.49.69 1.95.44.45 1.015.675 1.725.675zm5.724.72c-.1 0-.18-.03-.24-.09a.324.324 0 01-.09-.24V9.545c0-.1.03-.18.09-.24a.3.3 0 01.24-.105h.24a.3.3 0 01.24.105.3.3 0 01.105.24v.69c.36-.69 1.04-1.035 2.04-1.035h.555c.1 0 .18.03.24.09s.09.14.09.24v.21c0 .1-.03.18-.09.24s-.14.09-.24.09h-.645c-.6 0-1.075.175-1.425.525-.35.35-.525.825-.525 1.425v4.65a.3.3 0 01-.105.24c-.06.06-.14.09-.24.09h-.24zm7.51 0c-.74 0-1.265-.22-1.575-.66-.31-.45-.465-1.065-.465-1.845V10.07h-1.17c-.1 0-.18-.03-.24-.09a.324.324 0 01-.09-.24v-.21c0-.1.03-.18.09-.24s.14-.09.24-.09h1.17V6.68c0-.1.03-.18.09-.24s.14-.09.24-.09h.255c.1 0 .18.03.24.09s.09.14.09.24V9.2h1.86c.1 0 .18.03.24.09s.09.14.09.24v.21c0 .1-.03.18-.09.24s-.14.09-.24.09h-1.86v4.365c0 .56.09.985.27 1.275.19.28.5.42.93.42h.81c.1 0 .18.03.24.09s.09.14.09.24v.21c0 .1-.03.18-.09.24s-.14.09-.24.09h-.885zm5.24.15c-.65 0-1.2-.11-1.65-.33-.44-.22-.774-.47-1.004-.75-.22-.28-.33-.505-.33-.675 0-.09.035-.16.105-.21a.34.34 0 01.225-.09h.225a.27.27 0 01.165.045c.05.02.105.07.165.15.22.31.485.555.795.735.32.17.755.255 1.305.255.62 0 1.12-.115 1.5-.345.38-.24.57-.58.57-1.02 0-.27-.08-.49-.24-.66-.15-.17-.4-.315-.75-.435-.34-.13-.85-.275-1.53-.435-.89-.2-1.5-.475-1.83-.825-.32-.35-.48-.795-.48-1.335 0-.37.1-.72.3-1.05.21-.33.515-.6.915-.81.41-.21.9-.315 1.47-.315.6 0 1.105.105 1.515.315.42.2.73.435.93.705.21.27.315.49.315.66 0 .09-.035.165-.105.225a.34.34 0 01-.225.075h-.225a.37.37 0 01-.33-.195c-.2-.3-.43-.525-.69-.675-.25-.16-.645-.24-1.185-.24-.58 0-1.02.12-1.32.36-.3.24-.45.555-.45.945 0 .24.06.44.18.6.12.16.345.31.675.45.33.13.81.265 1.44.405.93.21 1.585.49 1.965.84.38.35.57.815.57 1.395 0 .41-.115.785-.345 1.125-.23.34-.57.61-1.02.81-.45.2-.99.3-1.62.3zm12.226 0c-1.1 0-1.94-.395-2.52-1.185v.705c0 .1-.03.18-.09.24s-.14.09-.24.09h-.255c-.1 0-.18-.03-.24-.09a.324.324 0 01-.09-.24V6.68c0-.1.03-.18.09-.24s.14-.09.24-.09h.255c.1 0 .18.03.24.09s.09.14.09.24v3.555c.59-.79 1.43-1.185 2.52-1.185 1.08 0 1.875.355 2.385 1.065.52.7.795 1.555.825 2.565.01.1.015.24.015.42s-.005.32-.015.42c-.03 1.01-.305 1.87-.825 2.58-.51.7-1.305 1.05-2.385 1.05zm-.09-.87c.81 0 1.4-.255 1.77-.765.38-.52.585-1.185.615-1.995.01-.1.015-.24.015-.42 0-.93-.18-1.69-.54-2.28-.36-.6-.98-.9-1.86-.9-.53 0-.975.125-1.335.375s-.63.57-.81.96c-.18.38-.275.785-.285 1.215l-.015.585.015.585c.03.71.245 1.33.645 1.86.4.52.995.78 1.785.78zm8.236.87c-.95 0-1.715-.31-2.295-.93-.58-.63-.91-1.47-.99-2.52l-.015-.6.015-.6c.08-1.04.405-1.875.975-2.505.58-.63 1.35-.945 2.31-.945 1.04 0 1.85.345 2.43 1.035.59.69.885 1.635.885 2.835v.225a.3.3 0 01-.105.24c-.06.06-.14.09-.24.09h-5.34v.15c.02.47.125.91.315 1.32.2.4.475.725.825.975.35.24.76.36 1.23.36.55 0 .995-.105 1.335-.315.35-.22.6-.44.75-.66.09-.12.155-.195.195-.225a.526.526 0 01.255-.045h.24a.34.34 0 01.225.075c.06.05.09.115.09.195 0 .21-.135.465-.405.765-.26.29-.625.545-1.095.765-.47.21-1 .315-1.59.315zm2.4-4.515v-.06c0-.77-.22-1.405-.66-1.905-.43-.5-1.01-.75-1.74-.75s-1.31.25-1.74.75c-.42.5-.63 1.135-.63 1.905v.06h4.77zM96.689 17c-.74 0-1.265-.22-1.575-.66-.31-.45-.465-1.065-.465-1.845V10.07h-1.17c-.1 0-.18-.03-.24-.09a.324.324 0 01-.09-.24v-.21c0-.1.03-.18.09-.24s.14-.09.24-.09h1.17V6.68c0-.1.03-.18.09-.24s.14-.09.24-.09h.255c.1 0 .18.03.24.09s.09.14.09.24V9.2h1.86c.1 0 .18.03.24.09s.09.14.09.24v.21c0 .1-.03.18-.09.24s-.14.09-.24.09h-1.86v4.365c0 .56.09.985.27 1.275.19.28.5.42.93.42h.81c.1 0 .18.03.24.09s.09.14.09.24v.21c0 .1-.03.18-.09.24s-.14.09-.24.09h-.885zm5.39 0c-.74 0-1.265-.22-1.575-.66-.31-.45-.465-1.065-.465-1.845V10.07h-1.17c-.1 0-.18-.03-.24-.09a.324.324 0 01-.09-.24v-.21c0-.1.03-.18.09-.24s.14-.09.24-.09h1.17V6.68c0-.1.03-.18.09-.24s.14-.09.24-.09h.255c.1 0 .18.03.24.09s.09.14.09.24V9.2h1.86c.1 0 .18.03.24.09s.09.14.09.24v.21c0 .1-.03.18-.09.24s-.14.09-.24.09h-1.86v4.365c0 .56.09.985.27 1.275.19.28.5.42.93.42h.81c.1 0 .18.03.24.09s.09.14.09.24v.21c0 .1-.03.18-.09.24s-.14.09-.24.09h-.885zm2.931-9.405c-.1 0-.18-.03-.24-.09a.324.324 0 01-.09-.24v-.57c0-.1.03-.18.09-.24a.3.3 0 01.24-.105h.57a.3.3 0 01.24.105.3.3 0 01.105.24v.57a.3.3 0 01-.105.24c-.06.06-.14.09-.24.09h-.57zm.165 9.405c-.1 0-.18-.03-.24-.09a.324.324 0 01-.09-.24V9.53c0-.1.03-.18.09-.24s.14-.09.24-.09h.255c.1 0 .18.03.24.09s.09.14.09.24v7.14c0 .1-.03.18-.09.24s-.14.09-.24.09h-.255zm3.34 0c-.1 0-.18-.03-.24-.09a.324.324 0 01-.09-.24V9.53c0-.1.03-.18.09-.24s.14-.09.24-.09h.255c.1 0 .18.03.24.09s.09.14.09.24v.705c.3-.39.64-.685 1.02-.885.39-.2.89-.3 1.5-.3.98 0 1.735.315 2.265.945.53.62.795 1.425.795 2.415v4.26c0 .1-.03.18-.09.24s-.14.09-.24.09h-.255c-.1 0-.18-.03-.24-.09a.324.324 0 01-.09-.24v-4.185c0-.81-.2-1.44-.6-1.89-.39-.45-.955-.675-1.695-.675-.72 0-1.295.23-1.725.69-.43.45-.645 1.075-.645 1.875v4.185c0 .1-.03.18-.09.24s-.14.09-.24.09h-.255zm11.427 3.3c-.78 0-1.405-.135-1.875-.405s-.8-.58-.99-.93c-.18-.34-.27-.64-.27-.9 0-.09.03-.165.09-.225.07-.06.15-.09.24-.09h.21c.09 0 .16.02.21.06.06.05.11.135.15.255.31.91 1.03 1.365 2.16 1.365.86 0 1.495-.18 1.905-.54.41-.35.615-.98.615-1.89v-1.035c-.58.79-1.42 1.185-2.52 1.185-1.08 0-1.88-.35-2.4-1.05-.51-.71-.78-1.57-.81-2.58l-.015-.42.015-.42c.03-1.01.3-1.865.81-2.565.52-.71 1.32-1.065 2.4-1.065 1.09 0 1.93.395 2.52 1.185v-.69c0-.1.03-.18.09-.24a.3.3 0 01.24-.105h.24a.3.3 0 01.24.105.3.3 0 01.105.24v7.305c0 1.07-.25 1.91-.75 2.52-.5.62-1.37.93-2.61.93zm.015-4.02c.79 0 1.385-.26 1.785-.78.4-.53.615-1.15.645-1.86.01-.1.015-.28.015-.54s-.005-.44-.015-.54c-.03-.71-.245-1.325-.645-1.845-.4-.53-.995-.795-1.785-.795-.81 0-1.405.26-1.785.78-.37.51-.57 1.17-.6 1.98l-.015.42.015.42c.03.81.23 1.475.6 1.995.38.51.975.765 1.785.765z" fill="#A0A0A0"/><rect y="37" width="18" height="18" rx="2" fill="#27AE60"/><path d="M32.575 51c-.25 0-.42-.12-.51-.36l-3.48-9.675-.03-.165c0-.08.03-.15.09-.21s.13-.09.21-.09h.315c.09 0 .16.025.21.075.06.05.1.1.12.15l3.285 9.18 3.285-9.18c.02-.05.055-.1.105-.15a.34.34 0 01.225-.075h.315c.08 0 .15.03.21.09s.09.13.09.21l-.03.165-3.48 9.675c-.09.24-.26.36-.51.36h-.42zm6.37-9.405c-.1 0-.18-.03-.24-.09a.324.324 0 01-.09-.24v-.57c0-.1.03-.18.09-.24a.3.3 0 01.24-.105h.57a.3.3 0 01.24.105.3.3 0 01.105.24v.57a.3.3 0 01-.105.24c-.06.06-.14.09-.24.09h-.57zM39.11 51c-.1 0-.18-.03-.24-.09a.324.324 0 01-.09-.24v-7.14c0-.1.03-.18.09-.24s.14-.09.24-.09h.255c.1 0 .18.03.24.09s.09.14.09.24v7.14c0 .1-.03.18-.09.24s-.14.09-.24.09h-.255zm3.34 0c-.1 0-.18-.03-.24-.09a.324.324 0 01-.09-.24v-7.125c0-.1.03-.18.09-.24a.3.3 0 01.24-.105h.24a.3.3 0 01.24.105.3.3 0 01.105.24v.69c.36-.69 1.04-1.035 2.04-1.035h.555c.1 0 .18.03.24.09s.09.14.09.24v.21c0 .1-.03.18-.09.24s-.14.09-.24.09h-.645c-.6 0-1.075.175-1.425.525-.35.35-.525.825-.525 1.425v4.65a.3.3 0 01-.105.24c-.06.06-.14.09-.24.09h-.24zm7.51 0c-.74 0-1.265-.22-1.575-.66-.31-.45-.465-1.065-.465-1.845V44.07h-1.17c-.1 0-.18-.03-.24-.09a.324.324 0 01-.09-.24v-.21c0-.1.03-.18.09-.24s.14-.09.24-.09h1.17v-2.52c0-.1.03-.18.09-.24s.14-.09.24-.09h.255c.1 0 .18.03.24.09s.09.14.09.24v2.52h1.86c.1 0 .18.03.24.09s.09.14.09.24v.21c0 .1-.03.18-.09.24s-.14.09-.24.09h-1.86v4.365c0 .56.09.985.27 1.275.19.28.5.42.93.42h.81c.1 0 .18.03.24.09s.09.14.09.24v.21c0 .1-.03.18-.09.24s-.14.09-.24.09h-.885zm5.69.15c-.98 0-1.724-.31-2.234-.93-.51-.62-.765-1.43-.765-2.43v-4.26c0-.1.03-.18.09-.24s.14-.09.24-.09h.255c.1 0 .18.03.24.09s.09.14.09.24v4.185c0 1.71.745 2.565 2.235 2.565.72 0 1.29-.225 1.71-.675.43-.46.645-1.09.645-1.89V43.53c0-.1.03-.18.09-.24s.14-.09.24-.09h.255c.1 0 .18.03.24.09s.09.14.09.24v7.14c0 .1-.03.18-.09.24s-.14.09-.24.09h-.255c-.1 0-.18-.03-.24-.09a.324.324 0 01-.09-.24v-.705c-.3.39-.645.685-1.035.885-.38.2-.87.3-1.47.3zm7.95 0c-.48 0-.925-.1-1.335-.3-.41-.2-.74-.47-.99-.81-.24-.34-.36-.715-.36-1.125 0-.66.265-1.2.795-1.62.54-.42 1.265-.69 2.175-.81l2.37-.33v-.525c0-.55-.17-.97-.51-1.26-.33-.3-.84-.45-1.53-.45-.51 0-.93.1-1.26.3-.32.2-.525.44-.615.72a.555.555 0 01-.15.255c-.05.04-.12.06-.21.06h-.21c-.09 0-.17-.03-.24-.09a.358.358 0 01-.09-.24c0-.22.1-.475.3-.765.2-.3.51-.56.93-.78.42-.22.935-.33 1.545-.33 1.07 0 1.83.255 2.28.765.45.51.675 1.13.675 1.86v4.995c0 .1-.03.18-.09.24s-.14.09-.24.09h-.255c-.1 0-.18-.03-.24-.09a.324.324 0 01-.09-.24v-.705c-.22.33-.545.61-.975.84-.42.23-.98.345-1.68.345zm.15-.87c.73 0 1.33-.24 1.8-.72s.705-1.17.705-2.07v-.51l-1.935.27c-.82.11-1.44.3-1.86.57-.42.27-.63.61-.63 1.02 0 .46.19.815.57 1.065.39.25.84.375 1.35.375zm6.137.72c-.1 0-.18-.03-.24-.09a.324.324 0 01-.09-.24v-9.99c0-.1.03-.18.09-.24s.14-.09.24-.09h.255c.1 0 .18.03.24.09s.09.14.09.24v9.99c0 .1-.03.18-.09.24s-.14.09-.24.09h-.255zm9.367.15c-.65 0-1.2-.11-1.65-.33-.44-.22-.775-.47-1.005-.75-.22-.28-.33-.505-.33-.675 0-.09.034-.16.105-.21a.34.34 0 01.225-.09h.224a.27.27 0 01.166.045c.05.02.105.07.164.15.22.31.485.555.795.735.32.17.756.255 1.306.255.62 0 1.12-.115 1.5-.345.38-.24.57-.58.57-1.02 0-.27-.08-.49-.24-.66-.15-.17-.4-.315-.75-.435-.34-.13-.85-.275-1.53-.435-.89-.2-1.5-.475-1.83-.825-.32-.35-.48-.795-.48-1.335 0-.37.1-.72.3-1.05.21-.33.514-.6.915-.81.41-.21.9-.315 1.47-.315.6 0 1.105.105 1.514.315.42.2.73.435.93.705.21.27.316.49.316.66 0 .09-.035.165-.105.225a.34.34 0 01-.225.075h-.225a.37.37 0 01-.33-.195c-.2-.3-.43-.525-.69-.675-.25-.16-.645-.24-1.186-.24-.58 0-1.02.12-1.32.36-.3.24-.45.555-.45.945 0 .24.06.44.18.6.12.16.346.31.675.45.33.13.81.265 1.44.405.93.21 1.585.49 1.965.84.38.35.57.815.57 1.395 0 .41-.114.785-.344 1.125-.23.34-.57.61-1.02.81-.45.2-.99.3-1.62.3zm5.252 2.7c-.1 0-.18-.03-.24-.09a.324.324 0 01-.09-.24v-9.99c0-.1.03-.18.09-.24s.14-.09.24-.09h.255c.1 0 .18.03.24.09s.09.14.09.24v.705c.58-.79 1.42-1.185 2.52-1.185 1.08 0 1.875.345 2.385 1.035.52.68.795 1.52.825 2.52.01.1.015.265.015.495 0 .23-.005.395-.015.495-.03 1-.305 1.845-.825 2.535-.51.68-1.305 1.02-2.385 1.02-1.09 0-1.93-.395-2.52-1.185v3.555c0 .1-.03.18-.09.24s-.14.09-.24.09h-.255zm3.015-3.57c.81 0 1.4-.255 1.77-.765.38-.52.585-1.185.615-1.995.01-.1.015-.24.015-.42 0-.93-.18-1.69-.54-2.28-.36-.6-.98-.9-1.86-.9-.79 0-1.385.265-1.785.795-.4.52-.615 1.135-.645 1.845l-.015.585.015.585c.01.43.105.84.285 1.23.18.38.45.695.81.945.36.25.805.375 1.335.375zm8.326.87c-1.04 0-1.85-.315-2.43-.945-.57-.64-.87-1.465-.9-2.475l-.015-.63.015-.63c.03-1.01.33-1.83.9-2.46.58-.64 1.39-.96 2.43-.96 1.04 0 1.845.32 2.415.96.58.63.885 1.45.915 2.46.01.1.015.31.015.63s-.005.53-.015.63c-.03 1.01-.335 1.835-.915 2.475-.57.63-1.375.945-2.415.945zm0-.87c.71 0 1.28-.225 1.71-.675.44-.46.675-1.11.705-1.95.01-.1.015-.285.015-.555 0-.27-.005-.455-.015-.555-.03-.84-.265-1.485-.705-1.935-.43-.46-1-.69-1.71-.69s-1.285.23-1.725.69c-.43.45-.66 1.095-.69 1.935l-.015.555.015.555c.03.84.26 1.49.69 1.95.44.45 1.015.675 1.725.675zm5.724.72c-.1 0-.18-.03-.24-.09a.324.324 0 01-.09-.24v-7.125c0-.1.03-.18.09-.24a.3.3 0 01.24-.105h.24a.3.3 0 01.24.105.3.3 0 01.105.24v.69c.36-.69 1.04-1.035 2.04-1.035h.555c.1 0 .18.03.24.09s.09.14.09.24v.21c0 .1-.03.18-.09.24s-.14.09-.24.09h-.645c-.6 0-1.075.175-1.425.525-.35.35-.525.825-.525 1.425v4.65a.3.3 0 01-.105.24c-.06.06-.14.09-.24.09h-.24zm7.51 0c-.74 0-1.265-.22-1.575-.66-.31-.45-.465-1.065-.465-1.845V44.07h-1.17c-.1 0-.18-.03-.24-.09a.324.324 0 01-.09-.24v-.21c0-.1.03-.18.09-.24s.14-.09.24-.09h1.17v-2.52c0-.1.03-.18.09-.24s.14-.09.24-.09h.255c.1 0 .18.03.24.09s.09.14.09.24v2.52h1.86c.1 0 .18.03.24.09s.09.14.09.24v.21c0 .1-.03.18-.09.24s-.14.09-.24.09h-1.86v4.365c0 .56.09.985.27 1.275.19.28.5.42.93.42h.81c.1 0 .18.03.24.09s.09.14.09.24v.21c0 .1-.03.18-.09.24s-.14.09-.24.09h-.885zm5.241.15c-.65 0-1.2-.11-1.65-.33-.44-.22-.775-.47-1.005-.75-.22-.28-.33-.505-.33-.675 0-.09.035-.16.105-.21a.34.34 0 01.225-.09h.225a.27.27 0 01.165.045c.05.02.105.07.165.15.22.31.485.555.795.735.32.17.755.255 1.305.255.62 0 1.12-.115 1.5-.345.38-.24.57-.58.57-1.02 0-.27-.08-.49-.24-.66-.15-.17-.4-.315-.75-.435-.34-.13-.85-.275-1.53-.435-.89-.2-1.5-.475-1.83-.825-.32-.35-.48-.795-.48-1.335 0-.37.1-.72.3-1.05.21-.33.515-.6.915-.81.41-.21.9-.315 1.47-.315.6 0 1.105.105 1.515.315.42.2.73.435.93.705.21.27.315.49.315.66 0 .09-.035.165-.105.225a.34.34 0 01-.225.075h-.225a.37.37 0 01-.33-.195c-.2-.3-.43-.525-.69-.675-.25-.16-.645-.24-1.185-.24-.58 0-1.02.12-1.32.36-.3.24-.45.555-.45.945 0 .24.06.44.18.6.12.16.345.31.675.45.33.13.81.265 1.44.405.93.21 1.585.49 1.965.84.38.35.57.815.57 1.395 0 .41-.115.785-.345 1.125-.23.34-.57.61-1.02.81-.45.2-.99.3-1.62.3z" fill="#A0A0A0"/><rect y="71" width="18" height="18" rx="2" fill="#95C6EA"/><path d="M32.56 85.15c-.78 0-1.46-.125-2.04-.375-.57-.26-1.01-.595-1.32-1.005-.3-.41-.46-.85-.48-1.32 0-.08.03-.15.09-.21s.135-.09.225-.09h.3c.18 0 .29.1.33.3.07.48.345.9.825 1.26s1.17.54 2.07.54c.95 0 1.655-.17 2.115-.51.47-.35.705-.835.705-1.455 0-.38-.115-.69-.345-.93-.22-.25-.545-.465-.975-.645-.43-.19-1.08-.425-1.95-.705-.77-.25-1.375-.495-1.815-.735-.43-.24-.75-.535-.96-.885-.21-.35-.315-.795-.315-1.335 0-.51.135-.97.405-1.38.28-.41.68-.73 1.2-.96.52-.24 1.14-.36 1.86-.36.74 0 1.375.135 1.905.405.53.26.93.595 1.2 1.005.27.4.415.805.435 1.215 0 .08-.03.15-.09.21-.05.06-.125.09-.225.09h-.3a.42.42 0 01-.21-.06c-.07-.05-.11-.13-.12-.24-.06-.5-.33-.91-.81-1.23-.47-.33-1.065-.495-1.785-.495-.77 0-1.385.15-1.845.45-.45.3-.675.75-.675 1.35 0 .39.1.715.3.975.21.25.52.47.93.66.41.18 1.015.4 1.815.66.82.26 1.46.51 1.92.75.46.24.805.53 1.035.87.24.34.36.78.36 1.32 0 .9-.335 1.605-1.005 2.115-.67.5-1.59.75-2.76.75zm6.082-.15c-.1 0-.18-.03-.24-.09a.324.324 0 01-.09-.24v-9.99c0-.1.03-.18.09-.24s.14-.09.24-.09h.255c.1 0 .18.03.24.09s.09.14.09.24v9.99c0 .1-.03.18-.09.24s-.14.09-.24.09h-.255zm5.994.15c-1.04 0-1.85-.315-2.43-.945-.57-.64-.87-1.465-.9-2.475l-.015-.63.015-.63c.03-1.01.33-1.83.9-2.46.58-.64 1.39-.96 2.43-.96 1.04 0 1.845.32 2.415.96.58.63.885 1.45.915 2.46.01.1.015.31.015.63s-.005.53-.015.63c-.03 1.01-.335 1.835-.915 2.475-.57.63-1.375.945-2.415.945zm0-.87c.71 0 1.28-.225 1.71-.675.44-.46.675-1.11.705-1.95.01-.1.015-.285.015-.555 0-.27-.005-.455-.015-.555-.03-.84-.265-1.485-.705-1.935-.43-.46-1-.69-1.71-.69s-1.285.23-1.725.69c-.43.45-.66 1.095-.69 1.935l-.015.555.015.555c.03.84.26 1.49.69 1.95.44.45 1.015.675 1.725.675zm7.931.72c-.74 0-1.264-.22-1.575-.66-.31-.45-.464-1.065-.464-1.845V78.07h-1.17c-.1 0-.18-.03-.24-.09a.324.324 0 01-.09-.24v-.21c0-.1.03-.18.09-.24s.14-.09.24-.09h1.17v-2.52c0-.1.03-.18.09-.24s.14-.09.24-.09h.255c.1 0 .18.03.24.09s.09.14.09.24v2.52h1.86c.1 0 .18.03.24.09s.09.14.09.24v.21c0 .1-.03.18-.09.24s-.14.09-.24.09h-1.86v4.365c0 .56.09.985.27 1.275.19.28.5.42.93.42h.81c.1 0 .18.03.24.09s.09.14.09.24v.21c0 .1-.03.18-.09.24s-.14.09-.24.09h-.886zm6.963 0c-.1 0-.18-.03-.24-.09a.324.324 0 01-.09-.24v-7.14c0-.1.03-.18.09-.24s.14-.09.24-.09h.255c.1 0 .18.03.24.09s.09.14.09.24v.525c.26-.33.56-.58.9-.75.35-.17.765-.255 1.245-.255 1.12 0 1.92.47 2.4 1.41.24-.43.58-.77 1.02-1.02.45-.26.96-.39 1.53-.39.83 0 1.505.285 2.025.855.52.56.78 1.36.78 2.4v4.365c0 .1-.03.18-.09.24s-.14.09-.24.09h-.255c-.1 0-.18-.03-.24-.09a.324.324 0 01-.09-.24v-4.215c0-.91-.19-1.56-.57-1.95-.37-.39-.86-.585-1.47-.585-.54 0-1.01.2-1.41.6-.39.39-.585 1.035-.585 1.935v4.215c0 .1-.03.18-.09.24s-.14.09-.24.09h-.255c-.1 0-.18-.03-.24-.09a.324.324 0 01-.09-.24v-4.215c0-.9-.195-1.545-.585-1.935-.39-.4-.875-.6-1.455-.6-.54 0-1.01.2-1.41.6-.39.39-.585 1.03-.585 1.92v4.23c0 .1-.03.18-.09.24s-.14.09-.24.09h-.255zm14.94.15c-.48 0-.926-.1-1.336-.3-.41-.2-.74-.47-.99-.81-.24-.34-.36-.715-.36-1.125 0-.66.265-1.2.795-1.62.54-.42 1.265-.69 2.175-.81l2.37-.33v-.525c0-.55-.17-.97-.51-1.26-.33-.3-.84-.45-1.53-.45-.51 0-.93.1-1.26.3-.32.2-.525.44-.615.72a.555.555 0 01-.15.255c-.05.04-.12.06-.21.06h-.21c-.09 0-.17-.03-.24-.09a.358.358 0 01-.09-.24c0-.22.1-.475.3-.765.2-.3.51-.56.93-.78.42-.22.935-.33 1.545-.33 1.07 0 1.83.255 2.28.765.45.51.675 1.13.675 1.86v4.995c0 .1-.03.18-.09.24s-.14.09-.24.09h-.255c-.1 0-.18-.03-.24-.09a.324.324 0 01-.09-.24v-.705c-.22.33-.545.61-.975.84-.42.23-.98.345-1.68.345zm.15-.87c.73 0 1.33-.24 1.8-.72s.704-1.17.704-2.07v-.51l-1.935.27c-.82.11-1.44.3-1.86.57-.42.27-.63.61-.63 1.02 0 .46.19.815.57 1.065.39.25.84.375 1.35.375zm8.746.87c-1.04 0-1.845-.3-2.415-.9-.57-.61-.87-1.46-.9-2.55l-.015-.6.015-.6c.03-1.09.33-1.935.9-2.535.57-.61 1.375-.915 2.415-.915.66 0 1.22.12 1.68.36.47.23.82.53 1.05.9.23.36.355.735.375 1.125.01.09-.02.17-.09.24-.07.06-.15.09-.24.09h-.21c-.1 0-.175-.02-.225-.06a1.13 1.13 0 01-.135-.255c-.2-.55-.48-.94-.84-1.17-.36-.24-.815-.36-1.365-.36-.72 0-1.295.22-1.725.66-.42.43-.645 1.095-.675 1.995l-.015.525.015.525c.03.9.255 1.57.675 2.01.43.43 1.005.645 1.725.645.55 0 1.005-.115 1.365-.345.36-.24.64-.635.84-1.185a.8.8 0 01.135-.24c.05-.05.125-.075.225-.075h.21c.09 0 .17.035.24.105.07.06.1.135.09.225-.02.39-.145.77-.375 1.14-.23.36-.58.66-1.05.9-.46.23-1.02.345-1.68.345zm5.432-.15c-.1 0-.18-.03-.24-.09a.324.324 0 01-.09-.24v-9.99c0-.1.03-.18.09-.24s.14-.09.24-.09h.255c.1 0 .18.03.24.09s.09.14.09.24v3.555c.3-.39.64-.685 1.02-.885.39-.2.89-.3 1.5-.3.98 0 1.735.315 2.265.945.53.62.795 1.425.795 2.415v4.26c0 .1-.03.18-.09.24s-.14.09-.24.09h-.255c-.1 0-.18-.03-.24-.09a.324.324 0 01-.09-.24v-4.185c0-.81-.2-1.44-.6-1.89-.39-.45-.955-.675-1.695-.675-.72 0-1.295.23-1.725.69-.43.45-.645 1.075-.645 1.875v4.185c0 .1-.03.18-.09.24s-.14.09-.24.09h-.255zm8.683-9.405c-.1 0-.18-.03-.24-.09a.324.324 0 01-.09-.24v-.57c0-.1.03-.18.09-.24a.3.3 0 01.24-.105h.57a.3.3 0 01.24.105.3.3 0 01.105.24v.57a.3.3 0 01-.105.24c-.06.06-.14.09-.24.09h-.57zM97.646 85c-.1 0-.18-.03-.24-.09a.324.324 0 01-.09-.24v-7.14c0-.1.03-.18.09-.24s.14-.09.24-.09h.255c.1 0 .18.03.24.09s.09.14.09.24v7.14c0 .1-.03.18-.09.24S98 85 97.9 85h-.255zm3.339 0c-.1 0-.18-.03-.24-.09a.324.324 0 01-.09-.24v-7.14c0-.1.03-.18.09-.24s.14-.09.24-.09h.255c.1 0 .18.03.24.09s.09.14.09.24v.705c.3-.39.64-.685 1.02-.885.39-.2.89-.3 1.5-.3.98 0 1.735.315 2.265.945.53.62.795 1.425.795 2.415v4.26c0 .1-.03.18-.09.24s-.14.09-.24.09h-.255c-.1 0-.18-.03-.24-.09a.324.324 0 01-.09-.24v-4.185c0-.81-.2-1.44-.6-1.89-.39-.45-.955-.675-1.695-.675-.72 0-1.295.23-1.725.69-.43.45-.645 1.075-.645 1.875v4.185c0 .1-.03.18-.09.24s-.14.09-.24.09h-.255zm11.413.15c-.95 0-1.715-.31-2.295-.93-.58-.63-.91-1.47-.99-2.52l-.015-.6.015-.6c.08-1.04.405-1.875.975-2.505.58-.63 1.35-.945 2.31-.945 1.04 0 1.85.345 2.43 1.035.59.69.885 1.635.885 2.835v.225a.3.3 0 01-.105.24c-.06.06-.14.09-.24.09h-5.34v.15c.02.47.125.91.315 1.32.2.4.475.725.825.975.35.24.76.36 1.23.36.55 0 .995-.105 1.335-.315.35-.22.6-.44.75-.66.09-.12.155-.195.195-.225a.526.526 0 01.255-.045h.24a.34.34 0 01.225.075c.06.05.09.115.09.195 0 .21-.135.465-.405.765-.26.29-.625.545-1.095.765-.47.21-1 .315-1.59.315zm2.4-4.515v-.06c0-.77-.22-1.405-.66-1.905-.43-.5-1.01-.75-1.74-.75s-1.31.25-1.74.75c-.42.5-.63 1.135-.63 1.905v.06h4.77zm5.369 4.515c-.65 0-1.2-.11-1.65-.33-.44-.22-.775-.47-1.005-.75-.22-.28-.33-.505-.33-.675 0-.09.035-.16.105-.21a.34.34 0 01.225-.09h.225a.27.27 0 01.165.045c.05.02.105.07.165.15.22.31.485.555.795.735.32.17.755.255 1.305.255.62 0 1.12-.115 1.5-.345.38-.24.57-.58.57-1.02 0-.27-.08-.49-.24-.66-.15-.17-.4-.315-.75-.435-.34-.13-.85-.275-1.53-.435-.89-.2-1.5-.475-1.83-.825-.32-.35-.48-.795-.48-1.335 0-.37.1-.72.3-1.05.21-.33.515-.6.915-.81.41-.21.9-.315 1.47-.315.6 0 1.105.105 1.515.315.42.2.73.435.93.705.21.27.315.49.315.66 0 .09-.035.165-.105.225a.34.34 0 01-.225.075h-.225a.37.37 0 01-.33-.195c-.2-.3-.43-.525-.69-.675-.25-.16-.645-.24-1.185-.24-.58 0-1.02.12-1.32.36-.3.24-.45.555-.45.945 0 .24.06.44.18.6.12.16.345.31.675.45.33.13.81.265 1.44.405.93.21 1.585.49 1.965.84.38.35.57.815.57 1.395 0 .41-.115.785-.345 1.125-.23.34-.57.61-1.02.81-.45.2-.99.3-1.62.3z" fill="#A0A0A0"/><rect y="105" width="18" height="18" rx="2" fill="#478ECE"/><path d="M29.74 119c-.1 0-.18-.03-.24-.09a.324.324 0 01-.09-.24v-9.84c0-.1.03-.18.09-.24s.14-.09.24-.09h.285c.1 0 .18.03.24.09s.09.14.09.24v9.27h5.175c.11 0 .195.03.255.09s.09.145.09.255v.225a.3.3 0 01-.105.24c-.06.06-.14.09-.24.09h-5.79zm7.858-9.405c-.1 0-.18-.03-.24-.09a.324.324 0 01-.09-.24v-.57c0-.1.03-.18.09-.24a.3.3 0 01.24-.105h.57a.3.3 0 01.24.105.3.3 0 01.105.24v.57a.3.3 0 01-.105.24c-.06.06-.14.09-.24.09h-.57zm.165 9.405c-.1 0-.18-.03-.24-.09a.324.324 0 01-.09-.24v-7.14c0-.1.03-.18.09-.24s.14-.09.24-.09h.255c.1 0 .18.03.24.09s.09.14.09.24v7.14c0 .1-.03.18-.09.24s-.14.09-.24.09h-.255zm5.695 0c-.28 0-.47-.125-.57-.375l-2.76-6.96-.03-.165c0-.08.03-.15.09-.21s.13-.09.21-.09h.315c.09 0 .16.025.21.075.06.05.1.1.12.15l2.535 6.48 2.535-6.48c.02-.05.055-.1.105-.15a.34.34 0 01.225-.075h.315c.08 0 .15.03.21.09s.09.13.09.21l-.03.165-2.76 6.96c-.1.25-.29.375-.57.375h-.24zm7.988.15c-.95 0-1.715-.31-2.295-.93-.58-.63-.91-1.47-.99-2.52l-.015-.6.015-.6c.08-1.04.405-1.875.975-2.505.58-.63 1.35-.945 2.31-.945 1.04 0 1.85.345 2.43 1.035.59.69.885 1.635.885 2.835v.225a.3.3 0 01-.105.24c-.06.06-.14.09-.24.09h-5.34v.15c.02.47.125.91.315 1.32.2.4.475.725.825.975.35.24.76.36 1.23.36.55 0 .995-.105 1.335-.315.35-.22.6-.44.75-.66.09-.12.155-.195.195-.225a.526.526 0 01.255-.045h.24a.34.34 0 01.225.075c.06.05.09.115.09.195 0 .21-.135.465-.405.765-.26.29-.625.545-1.095.765-.47.21-1 .315-1.59.315zm2.4-4.515v-.06c0-.77-.22-1.405-.66-1.905-.43-.5-1.01-.75-1.74-.75s-1.31.25-1.74.75c-.42.5-.63 1.135-.63 1.905v.06h4.77zm9.716 4.515c-1.04 0-1.845-.3-2.415-.9-.57-.61-.87-1.46-.9-2.55l-.015-.6.015-.6c.03-1.09.33-1.935.9-2.535.57-.61 1.375-.915 2.415-.915.66 0 1.22.12 1.68.36.47.23.82.53 1.05.9.23.36.355.735.375 1.125.01.09-.02.17-.09.24-.07.06-.15.09-.24.09h-.21c-.1 0-.175-.02-.225-.06a1.13 1.13 0 01-.135-.255c-.2-.55-.48-.94-.84-1.17-.36-.24-.815-.36-1.365-.36-.72 0-1.295.22-1.725.66-.42.43-.645 1.095-.675 1.995l-.015.525.015.525c.03.9.255 1.57.675 2.01.43.43 1.005.645 1.725.645.55 0 1.005-.115 1.365-.345.36-.24.64-.635.84-1.185a.8.8 0 01.135-.24c.05-.05.125-.075.225-.075h.21c.09 0 .17.035.24.105.07.06.1.135.09.225-.02.39-.145.77-.375 1.14-.23.36-.58.66-1.05.9-.46.23-1.02.345-1.68.345zm7.187 0c-.48 0-.925-.1-1.335-.3-.41-.2-.74-.47-.99-.81-.24-.34-.36-.715-.36-1.125 0-.66.265-1.2.795-1.62.54-.42 1.265-.69 2.175-.81l2.37-.33v-.525c0-.55-.17-.97-.51-1.26-.33-.3-.84-.45-1.53-.45-.51 0-.93.1-1.26.3-.32.2-.525.44-.615.72a.555.555 0 01-.15.255c-.05.04-.12.06-.21.06h-.21c-.09 0-.17-.03-.24-.09a.358.358 0 01-.09-.24c0-.22.1-.475.3-.765.2-.3.51-.56.93-.78.42-.22.935-.33 1.545-.33 1.07 0 1.83.255 2.28.765.45.51.675 1.13.675 1.86v4.995c0 .1-.03.18-.09.24s-.14.09-.24.09h-.255c-.1 0-.18-.03-.24-.09a.324.324 0 01-.09-.24v-.705c-.22.33-.545.61-.975.84-.42.23-.98.345-1.68.345zm.15-.87c.73 0 1.33-.24 1.8-.72s.705-1.17.705-2.07v-.51l-1.935.27c-.82.11-1.44.3-1.86.57-.42.27-.63.61-.63 1.02 0 .46.19.815.57 1.065.39.25.84.375 1.35.375zm8.267.87c-.65 0-1.2-.11-1.65-.33-.44-.22-.775-.47-1.005-.75-.22-.28-.33-.505-.33-.675 0-.09.035-.16.105-.21a.34.34 0 01.225-.09h.225a.27.27 0 01.165.045c.05.02.105.07.165.15.22.31.485.555.795.735.32.17.755.255 1.305.255.62 0 1.12-.115 1.5-.345.38-.24.57-.58.57-1.02 0-.27-.08-.49-.24-.66-.15-.17-.4-.315-.75-.435-.34-.13-.85-.275-1.53-.435-.89-.2-1.5-.475-1.83-.825-.32-.35-.48-.795-.48-1.335 0-.37.1-.72.3-1.05.21-.33.515-.6.915-.81.41-.21.9-.315 1.47-.315.6 0 1.105.105 1.515.315.42.2.73.435.93.705.21.27.315.49.315.66 0 .09-.035.165-.105.225a.34.34 0 01-.225.075h-.225a.37.37 0 01-.33-.195c-.2-.3-.43-.525-.69-.675-.25-.16-.645-.24-1.185-.24-.58 0-1.02.12-1.32.36-.3.24-.45.555-.45.945 0 .24.06.44.18.6.12.16.345.31.675.45.33.13.81.265 1.44.405.93.21 1.585.49 1.965.84.38.35.57.815.57 1.395 0 .41-.115.785-.345 1.125-.23.34-.57.61-1.02.81-.45.2-.99.3-1.62.3zm5.072-9.555c-.1 0-.18-.03-.24-.09a.324.324 0 01-.09-.24v-.57c0-.1.03-.18.09-.24a.3.3 0 01.24-.105h.57a.3.3 0 01.24.105.3.3 0 01.105.24v.57a.3.3 0 01-.105.24c-.06.06-.14.09-.24.09h-.57zm.165 9.405c-.1 0-.18-.03-.24-.09a.324.324 0 01-.09-.24v-7.14c0-.1.03-.18.09-.24s.14-.09.24-.09h.255c.1 0 .18.03.24.09s.09.14.09.24v7.14c0 .1-.03.18-.09.24s-.14.09-.24.09h-.255zm3.34 0c-.1 0-.18-.03-.24-.09a.324.324 0 01-.09-.24v-7.14c0-.1.03-.18.09-.24s.14-.09.24-.09h.255c.1 0 .18.03.24.09s.09.14.09.24v.705c.3-.39.64-.685 1.02-.885.39-.2.89-.3 1.5-.3.98 0 1.735.315 2.265.945.53.62.795 1.425.795 2.415v4.26c0 .1-.03.18-.09.24s-.14.09-.24.09h-.255c-.1 0-.18-.03-.24-.09a.324.324 0 01-.09-.24v-4.185c0-.81-.2-1.44-.6-1.89-.39-.45-.955-.675-1.695-.675-.72 0-1.295.23-1.725.69-.43.45-.645 1.075-.645 1.875v4.185c0 .1-.03.18-.09.24s-.14.09-.24.09h-.255zm11.488.15c-1.04 0-1.85-.315-2.43-.945-.57-.64-.87-1.465-.9-2.475l-.015-.63.015-.63c.03-1.01.33-1.83.9-2.46.58-.64 1.39-.96 2.43-.96 1.04 0 1.845.32 2.415.96.58.63.885 1.45.915 2.46.01.1.015.31.015.63s-.005.53-.015.63c-.03 1.01-.335 1.835-.915 2.475-.57.63-1.375.945-2.415.945zm0-.87c.71 0 1.28-.225 1.71-.675.44-.46.675-1.11.705-1.95.01-.1.015-.285.015-.555 0-.27-.005-.455-.015-.555-.03-.84-.265-1.485-.705-1.935-.43-.46-1-.69-1.71-.69s-1.285.23-1.725.69c-.43.45-.66 1.095-.69 1.935l-.015.555.015.555c.03.84.26 1.49.69 1.95.44.45 1.015.675 1.725.675z" fill="#A0A0A0"/></svg>