<svg width="1018" height="646" fill="none" xmlns="http://www.w3.org/2000/svg"><ellipse cx="291.511" cy="323.35" rx="117.774" ry="116.792" fill="#23A873"/><path d="M405.944 323.35c0 62.631-51.207 113.451-114.433 113.451-63.227 0-114.434-50.82-114.434-113.451 0-62.63 51.207-113.451 114.434-113.451 63.226 0 114.433 50.821 114.433 113.451z" stroke="#AAFFD6" stroke-opacity=".65" stroke-width="6.682"/><path d="M223.835 327.959v2.731h-13.156v-17.541h12.805v2.732h-9.547v4.56h8.47v2.681h-8.47v4.837h9.898zm20.677-14.81l-7.643 17.541h-3.207l-7.668-17.541h3.533l5.839 13.532 5.888-13.532h3.258zm11.102 17.792c-1.787 0-3.399-.385-4.836-1.153-1.437-.785-2.564-1.863-3.383-3.233-.818-1.386-1.228-2.931-1.228-4.635 0-1.704.41-3.241 1.228-4.611a8.517 8.517 0 013.383-3.233c1.437-.785 3.049-1.177 4.836-1.177 1.788 0 3.4.392 4.837 1.177 1.436.769 2.564 1.838 3.382 3.208.819 1.37 1.228 2.915 1.228 4.636 0 1.72-.409 3.266-1.228 4.635-.818 1.37-1.946 2.448-3.382 3.233-1.437.768-3.049 1.153-4.837 1.153zm0-2.857c1.17 0 2.222-.259 3.158-.777a5.822 5.822 0 002.205-2.205c.534-.952.802-2.013.802-3.182 0-1.17-.268-2.222-.802-3.158a5.607 5.607 0 00-2.205-2.205c-.936-.534-1.988-.802-3.158-.802-1.169 0-2.222.268-3.157.802a5.594 5.594 0 00-2.205 2.205c-.535.936-.802 1.988-.802 3.158 0 1.169.267 2.23.802 3.182a5.808 5.808 0 002.205 2.205c.935.518 1.988.777 3.157.777zm14.153-14.935h3.258v14.785h9.171v2.756h-12.429v-17.541zm31.043 0l-7.643 17.541h-3.207l-7.668-17.541h3.533l5.839 13.532 5.889-13.532h3.257zm16.26 14.81v2.731h-13.156v-17.541h12.805v2.732h-9.547v4.56h8.469v2.681h-8.469v4.837h9.898z" fill="#fff"/><path d="M334.383 321.569c.969.317 1.737.852 2.305 1.604.568.735.852 1.653.852 2.756 0 1.52-.584 2.698-1.754 3.533-1.169.819-2.873 1.228-5.112 1.228h-8.72v-17.541h8.219c2.072 0 3.667.409 4.786 1.228 1.12.802 1.679 1.913 1.679 3.333 0 .869-.2 1.637-.601 2.305a4.122 4.122 0 01-1.654 1.554zm-9.171-5.864v4.836h4.61c1.136 0 2.005-.2 2.607-.601.618-.418.927-1.019.927-1.804 0-.802-.309-1.403-.927-1.804-.602-.418-1.471-.627-2.607-.627h-4.61zm5.262 12.429c2.523 0 3.784-.844 3.784-2.531 0-1.687-1.261-2.531-3.784-2.531h-5.262v5.062h5.262zm24.952-.175v2.731H342.27v-17.541h12.805v2.732h-9.547v4.56h8.469v2.681h-8.469v4.837h9.898zm8.442-12.053h-5.813v-2.757h14.885v2.757h-5.814v14.784h-3.258v-14.784z" fill="#101517"/><circle cx="51.787" cy="195.886" r="50.117" fill="#101517" stroke="#23A873" stroke-width="3.341"/><path d="M15.227 183.994h2.165v9.355h-2.165v-9.355zm13.634 0v9.355h-1.778l-4.664-5.68v5.68h-2.138v-9.355h1.79l4.651 5.68v-5.68h2.139zm11.823 0l-4.05 9.355h-2.137l-4.037-9.355h2.34l2.846 6.682 2.887-6.682h2.151zm8.693 7.617v1.738h-7.243v-9.355h7.07v1.737h-4.919v2.032h4.344v1.683h-4.344v2.165h5.092zm5.465 1.898c-.74 0-1.457-.098-2.152-.294-.686-.205-1.238-.468-1.657-.788l.735-1.631c.401.294.878.53 1.43.709a5.377 5.377 0 001.657.267c.615 0 1.07-.089 1.363-.267.294-.188.441-.433.441-.735a.67.67 0 00-.267-.548 1.823 1.823 0 00-.668-.361 12.63 12.63 0 00-1.096-.294 15.443 15.443 0 01-1.75-.508 2.894 2.894 0 01-1.177-.815c-.32-.375-.48-.873-.48-1.497 0-.544.146-1.034.44-1.47.294-.446.735-.798 1.323-1.056.597-.258 1.323-.388 2.179-.388.597 0 1.18.072 1.75.214.57.143 1.07.348 1.497.615l-.668 1.644c-.864-.49-1.728-.735-2.593-.735-.606 0-1.056.098-1.35.294-.285.196-.427.454-.427.775s.165.561.494.722c.339.151.851.303 1.537.454a15.23 15.23 0 011.75.508 2.84 2.84 0 011.164.802c.33.365.494.859.494 1.483 0 .535-.151 1.025-.454 1.47-.294.437-.74.784-1.337 1.043-.597.258-1.323.387-2.178.387zm7.924-7.751h-2.994v-1.764h8.153v1.764H64.93v7.591h-2.165v-7.591zm11.392 7.751c-.971 0-1.849-.209-2.633-.628a4.737 4.737 0 01-1.83-1.724c-.437-.739-.656-1.568-.656-2.486 0-.917.219-1.742.655-2.472a4.697 4.697 0 011.831-1.737c.784-.419 1.662-.629 2.633-.629.971 0 1.844.21 2.62.629a4.697 4.697 0 011.83 1.737c.446.73.668 1.555.668 2.472 0 .918-.222 1.747-.668 2.486a4.737 4.737 0 01-1.83 1.724c-.776.419-1.649.628-2.62.628zm0-1.844c.552 0 1.051-.125 1.497-.374a2.74 2.74 0 001.042-1.069c.259-.455.388-.972.388-1.551s-.13-1.096-.388-1.55a2.648 2.648 0 00-1.042-1.056 2.932 2.932 0 00-1.497-.387c-.552 0-1.051.129-1.497.387a2.74 2.74 0 00-1.056 1.056c-.25.454-.374.971-.374 1.55 0 .579.125 1.096.374 1.551.259.454.61.81 1.056 1.069.446.249.945.374 1.497.374zm13.374 1.684l-1.804-2.606h-1.991v2.606h-2.165v-9.355h4.05c.828 0 1.545.138 2.151.414.615.276 1.087.668 1.417 1.176.33.508.494 1.109.494 1.804 0 .695-.17 1.297-.508 1.805-.33.498-.802.882-1.416 1.149l2.098 3.007h-2.326zm-.04-5.961c0-.525-.169-.926-.508-1.202-.338-.286-.833-.428-1.483-.428h-1.764v3.261H85.5c.65 0 1.145-.143 1.483-.428.339-.285.508-.686.508-1.203zm-56.568 20.223v1.738H23.68v-9.355h7.07v1.737h-4.918v2.032h4.344v1.683h-4.344v2.165h5.092zm11.255-7.617l-4.05 9.355h-2.138l-4.036-9.355h2.339l2.846 6.682 2.887-6.682h2.152zm5.862 9.515c-.971 0-1.849-.209-2.633-.628a4.737 4.737 0 01-1.83-1.724c-.437-.739-.656-1.568-.656-2.486 0-.917.219-1.742.655-2.472a4.697 4.697 0 011.831-1.737c.784-.419 1.662-.629 2.633-.629.971 0 1.844.21 2.62.629a4.697 4.697 0 011.83 1.737c.446.73.669 1.555.669 2.472 0 .918-.223 1.747-.668 2.486a4.737 4.737 0 01-1.831 1.724c-.776.419-1.649.628-2.62.628zm0-1.844c.553 0 1.051-.125 1.497-.374a2.74 2.74 0 001.042-1.069c.259-.455.388-.972.388-1.551s-.13-1.096-.388-1.55a2.648 2.648 0 00-1.042-1.056 2.932 2.932 0 00-1.497-.387c-.552 0-1.051.129-1.497.387a2.74 2.74 0 00-1.055 1.056c-.25.454-.375.971-.375 1.55 0 .579.125 1.096.375 1.551.258.454.61.81 1.055 1.069.446.249.945.374 1.497.374zm7.414-7.671h2.165v7.591h4.691v1.764h-6.856v-9.355zm17.076 0l-4.05 9.355h-2.138l-4.036-9.355h2.339l2.846 6.682 2.887-6.682h2.152zm8.692 7.617v1.738H73.98v-9.355h7.07v1.737h-4.918v2.032h4.343v1.683h-4.343v2.165h5.091z" fill="#FCFDFF"/><circle cx="51.787" cy="324.519" r="50.117" fill="#101517" stroke="#23A873" stroke-width="3.341"/><path d="M15.227 312.627h2.165v9.355h-2.165v-9.355zm13.634 0v9.355h-1.778l-4.664-5.68v5.68h-2.138v-9.355h1.79l4.651 5.68v-5.68h2.139zm11.823 0l-4.05 9.355h-2.137l-4.037-9.355h2.34l2.846 6.682 2.887-6.682h2.151zm8.693 7.618v1.737h-7.243v-9.355h7.07v1.737h-4.919v2.032h4.344v1.684h-4.344v2.165h5.092zm5.465 1.897c-.74 0-1.457-.098-2.152-.294-.686-.205-1.238-.467-1.657-.788l.735-1.631c.401.294.878.53 1.43.709a5.377 5.377 0 001.657.267c.615 0 1.07-.089 1.363-.267.294-.187.441-.432.441-.735a.67.67 0 00-.267-.548 1.823 1.823 0 00-.668-.361 12.63 12.63 0 00-1.096-.294 15.238 15.238 0 01-1.75-.508 2.894 2.894 0 01-1.177-.815c-.32-.374-.48-.873-.48-1.497 0-.544.146-1.034.44-1.47.294-.446.735-.798 1.323-1.056.597-.258 1.323-.388 2.179-.388.597 0 1.18.072 1.75.214.57.143 1.07.348 1.497.615l-.668 1.644c-.864-.49-1.728-.735-2.593-.735-.606 0-1.056.098-1.35.294-.285.196-.427.454-.427.775s.165.561.494.722c.339.151.851.303 1.537.454a15.23 15.23 0 011.75.508 2.84 2.84 0 011.164.802c.33.365.494.86.494 1.483 0 .535-.151 1.025-.454 1.47-.294.437-.74.784-1.337 1.043-.597.258-1.323.387-2.178.387zm7.924-7.751h-2.994v-1.764h8.153v1.764H64.93v7.591h-2.165v-7.591zm11.392 7.751c-.971 0-1.849-.209-2.633-.628a4.737 4.737 0 01-1.83-1.724c-.437-.739-.656-1.568-.656-2.486 0-.917.219-1.741.655-2.472a4.697 4.697 0 011.831-1.737c.784-.419 1.662-.629 2.633-.629.971 0 1.844.21 2.62.629a4.697 4.697 0 011.83 1.737c.446.731.668 1.555.668 2.472 0 .918-.222 1.747-.668 2.486a4.737 4.737 0 01-1.83 1.724c-.776.419-1.649.628-2.62.628zm0-1.844c.552 0 1.051-.125 1.497-.374a2.74 2.74 0 001.042-1.069c.259-.455.388-.972.388-1.551s-.13-1.096-.388-1.55a2.648 2.648 0 00-1.042-1.056 2.932 2.932 0 00-1.497-.387c-.552 0-1.051.129-1.497.387a2.74 2.74 0 00-1.056 1.056c-.25.454-.374.971-.374 1.55 0 .579.125 1.096.374 1.551.259.454.61.81 1.056 1.069.446.249.945.374 1.497.374zm13.374 1.684l-1.804-2.606h-1.991v2.606h-2.165v-9.355h4.05c.828 0 1.545.138 2.151.414.615.276 1.087.668 1.417 1.176.33.508.494 1.109.494 1.804 0 .695-.17 1.297-.508 1.805-.33.499-.802.882-1.416 1.149l2.098 3.007h-2.326zm-.04-5.961c0-.525-.169-.926-.508-1.202-.338-.286-.833-.428-1.483-.428h-1.764v3.261H85.5c.65 0 1.145-.143 1.483-.428.339-.285.508-.686.508-1.203zm-56.568 20.224v1.737H23.68v-9.355h7.07v1.737h-4.918v2.032h4.344v1.684h-4.344v2.165h5.092zm11.255-7.618l-4.05 9.355h-2.138l-4.036-9.355h2.339l2.846 6.682 2.887-6.682h2.152zm5.862 9.515c-.971 0-1.849-.209-2.633-.628a4.737 4.737 0 01-1.83-1.724c-.437-.739-.656-1.568-.656-2.486 0-.917.219-1.741.655-2.472a4.697 4.697 0 011.831-1.737c.784-.419 1.662-.629 2.633-.629.971 0 1.844.21 2.62.629a4.697 4.697 0 011.83 1.737c.446.731.669 1.555.669 2.472 0 .918-.223 1.747-.668 2.486a4.737 4.737 0 01-1.831 1.724c-.776.419-1.649.628-2.62.628zm0-1.844c.553 0 1.051-.125 1.497-.374a2.74 2.74 0 001.042-1.069c.259-.455.388-.972.388-1.551s-.13-1.096-.388-1.55a2.648 2.648 0 00-1.042-1.056 2.932 2.932 0 00-1.497-.387c-.552 0-1.051.129-1.497.387a2.74 2.74 0 00-1.055 1.056c-.25.454-.375.971-.375 1.55 0 .579.125 1.096.375 1.551.258.454.61.81 1.055 1.069.446.249.945.374 1.497.374zm7.414-7.671h2.165v7.591h4.691v1.764h-6.856v-9.355zm17.076 0l-4.05 9.355h-2.138l-4.036-9.355h2.339l2.846 6.682 2.887-6.682h2.152zm8.692 7.618v1.737H73.98v-9.355h7.07v1.737h-4.918v2.032h4.343v1.684h-4.343v2.165h5.091z" fill="#FCFDFF"/><circle cx="51.787" cy="453.152" r="50.117" fill="#101517" stroke="#23A873" stroke-width="3.341"/><path d="M15.227 441.26h2.165v9.355h-2.165v-9.355zm13.634 0v9.355h-1.778l-4.664-5.68v5.68h-2.138v-9.355h1.79l4.651 5.68v-5.68h2.139zm11.823 0l-4.05 9.355h-2.137l-4.037-9.355h2.34l2.846 6.682 2.887-6.682h2.151zm8.693 7.617v1.738h-7.243v-9.355h7.07v1.737h-4.919v2.031h4.344v1.684h-4.344v2.165h5.092zm5.465 1.898c-.74 0-1.457-.098-2.152-.294-.686-.205-1.238-.468-1.657-.788l.735-1.631c.401.294.878.53 1.43.708a5.348 5.348 0 001.657.268c.615 0 1.07-.089 1.363-.268.294-.187.441-.432.441-.735a.673.673 0 00-.267-.548 1.837 1.837 0 00-.668-.36 12.63 12.63 0 00-1.096-.294 15.443 15.443 0 01-1.75-.508 2.904 2.904 0 01-1.177-.815c-.32-.375-.48-.874-.48-1.497 0-.544.146-1.034.44-1.47.294-.446.735-.798 1.323-1.056.597-.259 1.323-.388 2.179-.388.597 0 1.18.072 1.75.214.57.143 1.07.348 1.497.615l-.668 1.644c-.864-.49-1.728-.735-2.593-.735-.606 0-1.056.098-1.35.294-.285.196-.427.454-.427.775s.165.561.494.721c.339.152.851.303 1.537.455a15.03 15.03 0 011.75.508 2.84 2.84 0 011.164.802c.33.365.494.859.494 1.483 0 .535-.151 1.025-.454 1.47-.294.437-.74.784-1.337 1.043-.597.258-1.323.387-2.178.387zm7.924-7.751h-2.994v-1.764h8.153v1.764H64.93v7.591h-2.165v-7.591zm11.392 7.751c-.971 0-1.849-.209-2.633-.628a4.737 4.737 0 01-1.83-1.724c-.437-.74-.656-1.568-.656-2.486 0-.918.219-1.742.655-2.472a4.707 4.707 0 011.831-1.738c.784-.418 1.662-.628 2.633-.628.971 0 1.844.21 2.62.628a4.707 4.707 0 011.83 1.738c.446.73.668 1.554.668 2.472 0 .918-.222 1.746-.668 2.486a4.737 4.737 0 01-1.83 1.724c-.776.419-1.649.628-2.62.628zm0-1.844c.552 0 1.051-.125 1.497-.374a2.736 2.736 0 001.042-1.07c.259-.454.388-.971.388-1.55 0-.579-.13-1.096-.388-1.55a2.648 2.648 0 00-1.042-1.056 2.932 2.932 0 00-1.497-.387c-.552 0-1.051.129-1.497.387a2.74 2.74 0 00-1.056 1.056c-.25.454-.374.971-.374 1.55 0 .579.125 1.096.374 1.55.259.455.61.811 1.056 1.07.446.249.945.374 1.497.374zm13.374 1.684l-1.804-2.606h-1.991v2.606h-2.165v-9.355h4.05c.828 0 1.545.138 2.151.414.615.276 1.087.668 1.417 1.176.33.508.494 1.109.494 1.804 0 .695-.17 1.297-.508 1.804-.33.499-.802.882-1.416 1.15l2.098 3.007h-2.326zm-.04-5.961c0-.525-.169-.926-.508-1.203-.338-.285-.833-.427-1.483-.427h-1.764v3.261H85.5c.65 0 1.145-.143 1.483-.428.339-.285.508-.686.508-1.203zm-56.568 20.223v1.738H23.68v-9.355h7.07v1.737h-4.918v2.031h4.344v1.684h-4.344v2.165h5.092zm11.255-7.617l-4.05 9.355h-2.138l-4.036-9.355h2.339l2.846 6.682 2.887-6.682h2.152zm5.862 9.515c-.971 0-1.849-.209-2.633-.628a4.737 4.737 0 01-1.83-1.724c-.437-.74-.656-1.568-.656-2.486 0-.918.219-1.742.655-2.472a4.707 4.707 0 011.831-1.738c.784-.418 1.662-.628 2.633-.628.971 0 1.844.21 2.62.628a4.706 4.706 0 011.83 1.738c.446.73.669 1.554.669 2.472 0 .918-.223 1.746-.668 2.486a4.737 4.737 0 01-1.831 1.724c-.776.419-1.649.628-2.62.628zm0-1.844c.553 0 1.051-.125 1.497-.374a2.735 2.735 0 001.042-1.07c.259-.454.388-.971.388-1.55 0-.579-.13-1.096-.388-1.55a2.648 2.648 0 00-1.042-1.056 2.932 2.932 0 00-1.497-.387c-.552 0-1.051.129-1.497.387a2.74 2.74 0 00-1.055 1.056c-.25.454-.375.971-.375 1.55 0 .579.125 1.096.375 1.55.258.455.61.811 1.055 1.07.446.249.945.374 1.497.374zm7.414-7.671h2.165v7.591h4.691v1.764h-6.856v-9.355zm17.076 0l-4.05 9.355h-2.138l-4.036-9.355h2.339l2.846 6.682 2.887-6.682h2.152zm8.692 7.617v1.738H73.98v-9.355h7.07v1.737h-4.918v2.031h4.343v1.684h-4.343v2.165h5.091z" fill="#FCFDFF"/><circle cx="520.379" cy="108.426" r="41.764" fill="#00D9AD"/><circle cx="520.379" cy="108.426" r="40.093" stroke="#AAFFD6" stroke-opacity=".65" stroke-width="3.341"/><path d="M524.275 113.089h-7.017l-1.383 3.247h-2.686l6.315-14.032h2.566l6.334 14.032h-2.726l-1.403-3.247zm-.862-2.045l-2.646-6.134-2.627 6.134h5.273z" fill="#FCFDFF"/><circle cx="520.379" cy="217.012" r="41.764" fill="#00D9AD"/><circle cx="520.379" cy="217.012" r="40.093" stroke="#AAFFD6" stroke-opacity=".65" stroke-width="3.341"/><path d="M524.275 221.675h-7.017l-1.383 3.248h-2.686l6.315-14.033h2.566l6.334 14.033h-2.726l-1.403-3.248zm-.862-2.045l-2.646-6.134-2.627 6.134h5.273z" fill="#FCFDFF"/><circle cx="520.379" cy="325.597" r="41.764" fill="#00D9AD"/><circle cx="520.379" cy="325.597" r="40.093" stroke="#AAFFD6" stroke-opacity=".65" stroke-width="3.341"/><path d="M524.275 330.261h-7.017l-1.383 3.248h-2.686l6.315-14.033h2.566l6.334 14.033h-2.726l-1.403-3.248zm-.862-2.045l-2.646-6.134-2.627 6.134h5.273z" fill="#FCFDFF"/><circle cx="520.379" cy="434.185" r="41.764" fill="#00D9AD"/><circle cx="520.379" cy="434.185" r="40.093" stroke="#AAFFD6" stroke-opacity=".65" stroke-width="3.341"/><path d="M524.275 438.848h-7.017l-1.383 3.247h-2.686l6.315-14.033h2.566l6.334 14.033h-2.726l-1.403-3.247zm-.862-2.045l-2.646-6.135-2.627 6.135h5.273z" fill="#FCFDFF"/><circle cx="520.379" cy="542.771" r="41.764" fill="#00D9AD"/><circle cx="520.379" cy="542.771" r="40.093" stroke="#AAFFD6" stroke-opacity=".65" stroke-width="3.341"/><path d="M523.773 547.434h-7.016l-1.384 3.247h-2.686l6.315-14.032h2.566l6.334 14.032h-2.726l-1.403-3.247zm-.862-2.045l-2.646-6.134-2.626 6.134h5.272z" fill="#FCFDFF"/><circle cx="653.188" cy="107.591" r="41.764" fill="#6F84E7"/><circle cx="653.188" cy="107.591" r="40.093" stroke="#AAF0FF" stroke-opacity=".65" stroke-width="3.341"/><path d="M655.522 101.469v14.033h-2.606v-11.848h-2.967v-2.185h5.573z" fill="#FCFDFF"/><circle cx="653.19" cy="216.178" r="41.764" fill="#6F84E7"/><circle cx="653.19" cy="216.178" r="40.093" stroke="#AAF0FF" stroke-opacity=".65" stroke-width="3.341"/><path d="M658.819 222.718v2.206h-10.345v-1.744l5.573-5.293c.629-.601 1.05-1.122 1.263-1.563.228-.455.341-.903.341-1.344 0-.654-.22-1.156-.661-1.503-.441-.348-1.09-.521-1.945-.521-1.43 0-2.526.488-3.288 1.463l-1.824-1.403c.548-.735 1.283-1.303 2.205-1.704.936-.414 1.978-.622 3.128-.622 1.523 0 2.739.361 3.648 1.083.909.722 1.363 1.704 1.363 2.947 0 .762-.16 1.477-.481 2.145-.321.668-.935 1.43-1.844 2.285l-3.749 3.568h6.616z" fill="#FCFDFF"/><circle cx="653.19" cy="324.764" r="41.764" fill="#6F84E7"/><circle cx="653.19" cy="324.764" r="40.093" stroke="#AAF0FF" stroke-opacity=".65" stroke-width="3.341"/><path d="M654.629 324.435c1.296.161 2.285.602 2.967 1.324.681.721 1.022 1.623 1.022 2.706a4.14 4.14 0 01-.621 2.225c-.415.668-1.043 1.203-1.885 1.604-.828.387-1.844.581-3.047.581-1.002 0-1.971-.14-2.907-.421-.922-.294-1.71-.695-2.365-1.203l1.122-2.024c.508.427 1.123.768 1.845 1.022.735.241 1.49.361 2.265.361.922 0 1.644-.187 2.165-.561.535-.388.802-.909.802-1.564s-.254-1.163-.762-1.524c-.494-.374-1.256-.561-2.285-.561h-1.283v-1.784l3.187-3.789h-6.375v-2.185h9.563v1.744l-3.408 4.049z" fill="#FCFDFF"/><circle cx="653.19" cy="433.349" r="41.764" fill="#6F84E7"/><circle cx="653.19" cy="433.349" r="40.093" stroke="#AAF0FF" stroke-opacity=".65" stroke-width="3.341"/><path d="M660.196 438.073h-2.486v3.188h-2.526v-3.188h-7.698v-1.804l6.916-9.041h2.787l-6.515 8.64h4.59v-2.826h2.446v2.826h2.486v2.205z" fill="#FCFDFF"/><circle cx="653.19" cy="541.937" r="41.764" fill="#6F84E7"/><circle cx="653.19" cy="541.937" r="40.093" stroke="#AAF0FF" stroke-opacity=".65" stroke-width="3.341"/><path d="M653.025 541.247c1.978 0 3.442.388 4.39 1.163.949.761 1.424 1.804 1.424 3.127 0 .842-.207 1.604-.622 2.285-.414.682-1.035 1.223-1.864 1.624-.829.401-1.851.602-3.067.602-1.003 0-1.971-.141-2.907-.421-.935-.294-1.724-.695-2.365-1.203l1.102-2.025c.521.428 1.143.768 1.864 1.022a7.23 7.23 0 002.266.361c.922 0 1.644-.187 2.165-.561.534-.388.802-.916.802-1.584 0-.721-.288-1.263-.862-1.624-.562-.374-1.531-.561-2.907-.561h-3.388l.722-7.638h8.239v2.185h-6.034l-.301 3.248h1.343z" fill="#FCFDFF"/><path d="M705.81 107.309h33.538a3.341 3.341 0 013.338 3.213l4.053 105.237M705.81 542.777h32.727a3.34 3.34 0 003.337-3.187l4.865-105.263m0-218.568H705.81m40.929 0l3.341 110.118m0 0h-44.27 66.405-22.135zm0 0l-3.341 108.45m0 0H705.81" stroke="#6F84E7" stroke-width="1.253"/><ellipse cx="899.597" cy="323.35" rx="117.774" ry="116.792" fill="#008FCF"/><path d="M1014.03 323.35c0 62.631-51.207 113.451-114.433 113.451-63.227 0-114.434-50.82-114.434-113.451 0-62.63 51.207-113.451 114.434-113.451 63.226 0 114.433 50.821 114.433 113.451z" stroke="#AAF0FF" stroke-opacity=".65" stroke-width="6.682"/><path d="M842.022 330.941c-2.422 0-4.31-.677-5.663-2.03-1.353-1.37-2.03-3.324-2.03-5.864v-9.898h3.258v9.773c0 3.441 1.487 5.162 4.46 5.162 2.957 0 4.436-1.721 4.436-5.162v-9.773h3.207v9.898c0 2.54-.676 4.494-2.03 5.864-1.336 1.353-3.215 2.03-5.638 2.03zm20.7-17.792c1.52 0 2.84.251 3.959.752 1.136.501 2.005 1.219 2.606 2.155.602.935.902 2.046.902 3.333 0 1.269-.3 2.38-.902 3.333-.601.935-1.47 1.653-2.606 2.155-1.119.501-2.439.751-3.959.751h-3.959v5.062h-3.258v-17.541h7.217zm-.15 9.723c1.42 0 2.497-.301 3.232-.902.735-.602 1.103-1.462 1.103-2.581 0-1.12-.368-1.98-1.103-2.581-.735-.602-1.812-.902-3.232-.902h-3.809v6.966h3.809zm19.666 8.069c-2.422 0-4.31-.677-5.663-2.03-1.353-1.37-2.03-3.324-2.03-5.864v-9.898h3.258v9.773c0 3.441 1.487 5.162 4.46 5.162 2.957 0 4.435-1.721 4.435-5.162v-9.773h3.208v9.898c0 2.54-.677 4.494-2.03 5.864-1.336 1.353-3.216 2.03-5.638 2.03zm20.7-17.792c1.52 0 2.84.251 3.959.752 1.136.501 2.005 1.219 2.606 2.155.602.935.902 2.046.902 3.333 0 1.269-.3 2.38-.902 3.333-.601.935-1.47 1.653-2.606 2.155-1.119.501-2.439.751-3.959.751h-3.959v5.062h-3.258v-17.541h7.217zm-.151 9.723c1.42 0 2.498-.301 3.233-.902.735-.602 1.103-1.462 1.103-2.581 0-1.12-.368-1.98-1.103-2.581-.735-.602-1.813-.902-3.233-.902h-3.808v6.966h3.808z" fill="#55EBFF"/><path d="M927.585 321.569c.969.317 1.737.852 2.305 1.604.568.735.852 1.653.852 2.756 0 1.52-.584 2.698-1.754 3.533-1.169.819-2.873 1.228-5.112 1.228h-8.72v-17.541h8.219c2.072 0 3.667.409 4.786 1.228 1.119.802 1.679 1.913 1.679 3.333 0 .869-.2 1.637-.601 2.305a4.122 4.122 0 01-1.654 1.554zm-9.171-5.864v4.836h4.61c1.136 0 2.005-.2 2.606-.601.618-.418.927-1.019.927-1.804 0-.802-.309-1.403-.927-1.804-.601-.418-1.47-.627-2.606-.627h-4.61zm5.262 12.429c2.522 0 3.784-.844 3.784-2.531 0-1.687-1.262-2.531-3.784-2.531h-5.262v5.062h5.262zm24.951-.175v2.731h-13.155v-17.541h12.805v2.732h-9.548v4.56h8.47v2.681h-8.47v4.837h9.898zm8.443-12.053h-5.813v-2.757h14.884v2.757h-5.813v14.784h-3.258v-14.784z" fill="#fff"/><path d="M188.803 252.71a.21.21 0 00.146-.257l-.501-1.811a.21.21 0 00-.403.111l.445 1.61-1.61.445a.209.209 0 00.111.403l1.812-.501zm-81.156-45.946l1.841 1.044.206-.363-1.841-1.044-.206.363zm5.523 3.132l3.681 2.087.206-.363-3.681-2.088-.206.364zm7.363 4.175l3.682 2.087.206-.363-3.682-2.088-.206.364zm7.363 4.175l3.682 2.087.206-.363-3.682-2.088-.206.364zm7.364 4.175l3.681 2.087.206-.363-3.681-2.087-.206.363zm7.363 4.175l3.682 2.088.206-.364-3.682-2.087-.206.363zm7.363 4.175l3.682 2.088.206-.364-3.682-2.087-.206.363zm7.364 4.175l3.682 2.088.206-.364-3.682-2.087-.206.363zm7.363 4.175l3.682 2.088.206-.363-3.682-2.088-.206.363zm7.364 4.175l3.681 2.088.206-.363-3.681-2.088-.206.363zm7.363 4.176l3.682 2.087.206-.363-3.682-2.088-.206.364zm7.363 4.175l1.841 1.043.206-.363-1.841-1.044-.206.364zm2.056 1.264a.417.417 0 00.291-.513l-1.001-3.623a.418.418 0 00-.805.222l.89 3.221-3.221.889a.418.418 0 00.223.805l3.623-1.001zm-81.315-45.965l1.841 1.044.412-.727-1.841-1.044-.412.727zm5.523 3.131l3.681 2.088.412-.727-3.681-2.087-.412.726zm7.363 4.175l3.682 2.088.412-.727-3.682-2.087-.412.726zm7.363 4.175l3.682 2.088.412-.727-3.682-2.087-.412.726zm7.364 4.176l3.681 2.087.412-.727-3.681-2.087-.412.727zm7.363 4.175l3.682 2.087.412-.726-3.682-2.088-.412.727zm7.363 4.175l3.682 2.087.412-.726-3.682-2.088-.412.727zm7.364 4.175l3.682 2.087.412-.726-3.682-2.088-.412.727zm7.363 4.175l3.682 2.088.412-.727-3.682-2.088-.412.727zm7.364 4.175l3.681 2.088.412-.727-3.681-2.087-.412.726zm7.363 4.175l3.682 2.088.412-.727-3.682-2.087-.412.726zm7.363 4.175l1.841 1.044.412-.726-1.841-1.044-.412.726z" fill="#23A873"/><path d="M101.851 218.06a.21.21 0 00-.149.256l.484 1.815a.21.21 0 00.404-.108l-.43-1.613 1.615-.431a.208.208 0 10-.107-.403l-1.817.484zm79.51 45.904l-1.804-1.043-.209.361 1.803 1.043.21-.361zm-5.411-3.129l-3.607-2.085-.209.361 3.607 2.086.209-.362zm-7.214-4.171l-3.606-2.085-.21.361 3.607 2.086.209-.362zm-7.213-4.171l-3.607-2.085-.21.361 3.607 2.085.21-.361zm-7.214-4.171l-3.607-2.086-.209.362 3.606 2.085.21-.361zm-7.214-4.171l-3.607-2.086-.209.362 3.607 2.085.209-.361zm-7.214-4.171l-3.606-2.086-.21.361 3.607 2.086.209-.361zm-7.213-4.171l-3.607-2.086-.21.361 3.607 2.086.21-.361zm-7.214-4.172l-3.607-2.085-.209.361 3.606 2.086.21-.362zm-7.214-4.171l-3.607-2.085-.209.361 3.607 2.086.209-.362zm-7.214-4.171l-3.607-2.085-.209.361 3.607 2.085.209-.361zm-7.213-4.171l-1.804-1.043-.209.361 1.803 1.043.21-.361zm-2.016-1.266a.418.418 0 00-.296.511l.968 3.63a.418.418 0 10.807-.215l-.86-3.227 3.23-.861a.418.418 0 10-.215-.807l-3.634.969zm79.668 45.925l-1.803-1.043-.419.723 1.803 1.043.419-.723zm-5.41-3.128l-3.607-2.086-.419.723 3.607 2.085.419-.722zm-7.214-4.171l-3.607-2.086-.419.723 3.607 2.085.419-.722zm-7.214-4.172l-3.606-2.085-.419.723 3.607 2.085.418-.723zm-7.213-4.171l-3.607-2.085-.419.722 3.607 2.086.419-.723zm-7.214-4.171l-3.607-2.085-.419.722 3.607 2.086.419-.723zm-7.214-4.171l-3.607-2.086-.419.723 3.607 2.086.419-.723zm-7.214-4.171l-3.607-2.086-.418.723 3.606 2.085.419-.722zm-7.213-4.171l-3.607-2.086-.419.723 3.607 2.085.419-.722zm-7.214-4.171l-3.607-2.086-.419.723 3.607 2.085.419-.722zm-7.214-4.172l-3.607-2.085-.419.722 3.607 2.086.419-.723zm-7.214-4.171l-1.803-1.043-.419.723 1.803 1.043.419-.723zm84.886 175.096a.21.21 0 01.146.257l-.501 1.811a.208.208 0 01-.257.146.21.21 0 01-.146-.257l.445-1.61-1.61-.445a.209.209 0 01.111-.403l1.812.501zm-81.156 45.946l1.841-1.044.206.363-1.841 1.044-.206-.363zm5.523-3.131l3.681-2.088.206.363-3.681 2.088-.206-.363zm7.363-4.175l3.682-2.088.206.363-3.682 2.088-.206-.363zm7.363-4.176l3.682-2.087.206.363-3.682 2.088-.206-.364zm7.364-4.175l3.681-2.087.206.363-3.681 2.088-.206-.364zm7.363-4.175l3.682-2.087.206.363-3.682 2.087-.206-.363zm7.363-4.175l3.682-2.088.206.364-3.682 2.087-.206-.363zm7.364-4.175l3.682-2.088.206.364-3.682 2.087-.206-.363zm7.363-4.175l3.682-2.088.206.364-3.682 2.087-.206-.363zm7.364-4.175l3.681-2.088.206.363-3.681 2.088-.206-.363zm7.363-4.175l3.682-2.088.206.363-3.682 2.088-.206-.363zm7.363-4.176l1.841-1.043.206.363-1.841 1.044-.206-.364zm2.056-1.264a.418.418 0 01.291.514l-1.001 3.623a.419.419 0 01-.805-.223l.89-3.22-3.221-.89a.418.418 0 01.223-.805l3.623 1.001zm-81.315 45.965l1.841-1.043.412.726-1.841 1.044-.412-.727zm5.523-3.131l3.681-2.088.412.727-3.681 2.088-.412-.727zm7.363-4.175l3.682-2.088.412.727-3.682 2.087-.412-.726zm7.363-4.175l3.682-2.088.412.727-3.682 2.087-.412-.726zm7.364-4.175l3.681-2.088.412.727-3.681 2.087-.412-.726zm7.363-4.175l3.682-2.088.412.727-3.682 2.087-.412-.726zm7.363-4.176l3.682-2.087.412.726-3.682 2.088-.412-.727zm7.364-4.175l3.682-2.087.412.726-3.682 2.088-.412-.727zm7.363-4.175l3.682-2.087.412.726-3.682 2.088-.412-.727zm7.364-4.175l3.681-2.088.412.727-3.681 2.088-.412-.727zm7.363-4.175l3.682-2.088.412.727-3.682 2.088-.412-.727zm7.363-4.175l1.841-1.044.412.727-1.841 1.043-.412-.726z" fill="#913E98"/><path d="M101.851 428.689a.21.21 0 01-.149-.255l.484-1.815a.209.209 0 01.404.107l-.43 1.614 1.615.43a.208.208 0 11-.107.404l-1.817-.485zm79.51-45.904l-1.804 1.043-.209-.361 1.803-1.043.21.361zm-5.411 3.129l-3.607 2.085-.209-.361 3.607-2.086.209.362zm-7.214 4.171l-3.606 2.085-.21-.361 3.607-2.085.209.361zm-7.213 4.171l-3.607 2.086-.21-.362 3.607-2.085.21.361zm-7.214 4.171l-3.607 2.086-.209-.362 3.606-2.085.21.361zm-7.214 4.171l-3.607 2.086-.209-.361 3.607-2.086.209.361zm-7.214 4.171l-3.606 2.086-.21-.361 3.607-2.086.209.361zm-7.213 4.172l-3.607 2.085-.21-.361 3.607-2.086.21.362zm-7.214 4.171l-3.607 2.085-.209-.361 3.606-2.086.21.362zm-7.214 4.171l-3.607 2.085-.209-.361 3.607-2.085.209.361zm-7.214 4.171l-3.607 2.086-.209-.362 3.607-2.085.209.361zm-7.213 4.171l-1.804 1.043-.209-.361 1.803-1.043.21.361zm-2.016 1.266a.418.418 0 01-.296-.511l.968-3.63a.418.418 0 11.807.215l-.86 3.227 3.23.861a.418.418 0 01-.215.807l-3.634-.969zm79.668-45.925l-1.803 1.043-.419-.723 1.803-1.043.419.723zm-5.41 3.128l-3.607 2.086-.419-.723 3.607-2.085.419.722zm-7.214 4.172l-3.607 2.085-.419-.723 3.607-2.085.419.723zm-7.214 4.171l-3.606 2.085-.419-.722 3.607-2.086.418.723zm-7.213 4.171l-3.607 2.085-.419-.722 3.607-2.086.419.723zm-7.214 4.171l-3.607 2.086-.419-.723 3.607-2.086.419.723zm-7.214 4.171l-3.607 2.086-.419-.723 3.607-2.085.419.722zm-7.214 4.171l-3.607 2.086-.418-.723 3.606-2.085.419.722zm-7.213 4.171l-3.607 2.086-.419-.723 3.607-2.085.419.722zm-7.214 4.172l-3.607 2.085-.419-.722 3.607-2.086.419.723zm-7.214 4.171l-3.607 2.085-.419-.722 3.607-2.086.419.723zm-7.214 4.171l-1.803 1.043-.419-.723 1.803-1.043.419.723z" fill="#101517"/><path d="M171.379 331.03a.21.21 0 000-.295l-1.329-1.329a.21.21 0 00-.295.296l1.181 1.181-1.181 1.181a.208.208 0 000 .295.208.208 0 00.295 0l1.329-1.329zm-63.629.062h1.984v-.418h-1.984v.418zm5.951 0h3.968v-.418h-3.968v.418zm7.936 0h3.967v-.418h-3.967v.418zm7.935 0h3.967v-.418h-3.967v.418zm7.935 0h3.967v-.418h-3.967v.418zm7.935 0h3.968v-.418h-3.968v.418zm7.935 0h3.968v-.418h-3.968v.418zm7.935 0h3.968v-.418h-3.968v.418zm7.935 0h1.984v-.418h-1.984v.418zm2.28.086a.417.417 0 000-.59l-2.658-2.658a.418.418 0 00-.591.59l2.363 2.363-2.363 2.362a.418.418 0 00.591.591l2.658-2.658zm-63.777.122h1.984v-.835h-1.984v.835zm5.951 0h3.968v-.835h-3.968v.835zm7.936 0h3.967v-.835h-3.967v.835zm7.935 0h3.967v-.835h-3.967v.835zm7.935 0h3.967v-.835h-3.967v.835zm7.935 0h3.968v-.835h-3.968v.835zm7.935 0h3.968v-.835h-3.968v.835zm7.935 0h3.968v-.835h-3.968v.835zm7.935 0h1.984v-.835h-1.984v.835z" fill="#913E98"/><path d="M107.602 319.056a.208.208 0 000 .295l1.329 1.329a.208.208 0 00.295 0 .21.21 0 000-.295l-1.181-1.182 1.181-1.181a.21.21 0 000-.295.208.208 0 00-.295 0l-1.329 1.329zm63.628-.061h-1.983v.417h1.983v-.417zm-5.951 0h-3.967v.417h3.967v-.417zm-7.935 0h-3.968v.417h3.968v-.417zm-7.935 0h-3.968v.417h3.968v-.417zm-7.935 0h-3.968v.417h3.968v-.417zm-7.935 0h-3.968v.417h3.968v-.417zm-7.936 0h-3.967v.417h3.967v-.417zm-7.935 0h-3.967v.417h3.967v-.417zm-7.935 0h-1.984v.417h1.984v-.417zm-2.279-.087a.418.418 0 000 .591l2.658 2.658a.417.417 0 10.59-.591l-2.362-2.363 2.362-2.362a.417.417 0 10-.59-.591l-2.658 2.658zm63.776-.122h-1.983v.835h1.983v-.835zm-5.951 0h-3.967v.835h3.967v-.835zm-7.935 0h-3.968v.835h3.968v-.835zm-7.935 0h-3.968v.835h3.968v-.835zm-7.935 0h-3.968v.835h3.968v-.835zm-7.935 0h-3.968v.835h3.968v-.835zm-7.936 0h-3.967v.835h3.967v-.835zm-7.935 0h-3.967v.835h3.967v-.835zm-7.935 0h-1.984v.835h1.984v-.835z" fill="#101517"/><path d="M467.755 107.309h-33.537a3.342 3.342 0 00-3.339 3.213l-4.053 105.237m40.929 327.018h-32.727a3.34 3.34 0 01-3.337-3.187l-4.865-105.263m0-218.568h40.929m-40.929 0l-3.341 110.118m0 0h44.27-50.534 6.264zm0 0l3.341 108.45m0 0h40.929" stroke="#23A873" stroke-width="1.253"/><path d="M590.125 103.972v438.805m0-438.805h-15.87m15.87 0h14.617m-30.07 112.829h30.07m-30.07 108.45h30.07m-30.07 108.45h30.07m-30.07 108.449h30.07" stroke="#00D9AD" stroke-width="1.253"/><path d="M469.035 107.752a.626.626 0 000-.886l-3.986-3.987a.628.628 0 00-.886.886l3.543 3.544-3.543 3.544a.626.626 0 10.886.886l3.986-3.987zm-14.642.184h14.199v-1.253h-14.199v1.253zm14.642 108.266a.626.626 0 000-.886l-3.986-3.987a.628.628 0 00-.886.886l3.543 3.544-3.543 3.544a.626.626 0 10.886.886l3.986-3.987zm-14.642.183h14.199v-1.252h-14.199v1.252zm14.642 109.935a.626.626 0 000-.886l-3.986-3.987a.628.628 0 00-.886.886l3.543 3.544-3.543 3.544a.626.626 0 10.886.886l3.986-3.987zm-14.642.184h14.199v-1.253h-14.199v1.253z" fill="#23A873"/><path d="M776.416 326.32a.626.626 0 000-.886l-3.987-3.987a.628.628 0 00-.886.886l3.544 3.544-3.544 3.544a.628.628 0 00.886.886l3.987-3.987zm-14.643.184h14.2v-1.253h-14.2v1.253z" fill="#6F84E7"/><path d="M469.035 434.77a.626.626 0 000-.886l-3.986-3.987a.628.628 0 00-.886.886l3.543 3.544-3.543 3.544a.626.626 0 10.886.886l3.986-3.987zm-14.642.183h14.199v-1.252h-14.199v1.252z" fill="#23A873"/><path d="M606.986 434.126a.626.626 0 000-.886L603 429.253a.628.628 0 00-.886.886l3.544 3.544-3.544 3.544a.626.626 0 10.886.886l3.986-3.987zm-14.642.183h14.199v-1.252h-14.199v1.252zm14.642 108.297a.626.626 0 000-.886L603 537.733a.626.626 0 10-.886.886l3.544 3.544-3.544 3.543a.626.626 0 10.886.886l3.986-3.986zm-14.642.183h14.199v-1.253h-14.199v1.253zm14.502-217.081a.628.628 0 000-.886l-3.987-3.987a.626.626 0 10-.886.886l3.544 3.544-3.544 3.543a.626.626 0 10.886.886l3.987-3.986zm-14.643.183h14.2v-1.253h-14.2v1.253zm14.11-109.524a.628.628 0 010 .886l-3.987 3.987a.628.628 0 01-.886-.886l3.544-3.544-3.544-3.544a.626.626 0 11.886-.886l3.987 3.987zm-14.168-.184h13.725v1.253h-13.725v-1.253zm14.062-112.654a.626.626 0 010 .886l-3.987 3.987a.626.626 0 11-.886-.886l3.544-3.544-3.544-3.543a.626.626 0 11.886-.886l3.987 3.986zm-14.168-.183h13.725v1.253h-13.725v-1.253z" fill="#00D9AD"/><path d="M469.035 543.22a.626.626 0 000-.886l-3.986-3.987a.626.626 0 10-.886.886l3.543 3.544-3.543 3.544a.626.626 0 10.886.886l3.986-3.987zm-14.642.183h14.199v-1.253h-14.199v1.253z" fill="#23A873"/><ellipse cx="416.803" cy="325.877" rx="2.506" ry="2.503" fill="#00CA3D"/><path d="M416.803 330.051a4.175 4.175 0 004.176-4.174 4.175 4.175 0 00-4.176-4.173 4.175 4.175 0 00-4.177 4.173 4.176 4.176 0 004.177 4.174z" stroke="#AAFFD6" stroke-opacity=".65" stroke-width="3.341"/><ellipse cx="575.508" cy="325.085" rx="2.506" ry="2.503" fill="#00D9AD"/><path d="M575.508 329.258a4.175 4.175 0 004.176-4.173 4.175 4.175 0 00-4.176-4.173 4.175 4.175 0 00-4.177 4.173 4.175 4.175 0 004.177 4.173z" stroke="#AAFFD6" stroke-opacity=".65" stroke-width="3.341"/><path d="M296.727 447.379a.836.836 0 00-.848.823l-.102 7.512a.835.835 0 001.672.023l.091-6.678 6.685.091a.834.834 0 10.023-1.669l-7.521-.102zm7.304 7.145l-6.717-6.893-1.198 1.164 6.717 6.894 1.198-1.165z" fill="#008FCF"/><ellipse cx="902.52" cy="449.845" rx="2.506" ry="2.503" fill="#008FCF"/><path d="M902.52 453.183a3.34 3.34 0 003.341-3.338 3.34 3.34 0 00-3.341-3.338 3.34 3.34 0 00-3.342 3.338 3.34 3.34 0 003.342 3.338z" stroke="#AAF0FF" stroke-opacity=".65" stroke-width="1.671"/><path d="M902.712 450.321c-56.938 143.905-257.877 355.321-605.353-1.395" stroke="#008FCF" stroke-width=".835" stroke-dasharray="5.01 5.01"/><path d="M296.727 198.621a.836.836 0 01-.848-.823l-.102-7.512a.835.835 0 011.672-.023l.091 6.678 6.685-.091a.834.834 0 11.023 1.669l-7.521.102zm7.304-7.145l-6.717 6.893-1.198-1.164 6.717-6.894 1.198 1.165z" fill="#008FCF"/><ellipse rx="2.506" ry="2.503" transform="matrix(1 0 0 -1 902.52 196.155)" fill="#008FCF"/><path d="M902.52 192.817a3.34 3.34 0 013.341 3.338 3.34 3.34 0 01-3.341 3.338 3.34 3.34 0 01-3.342-3.338 3.34 3.34 0 013.342-3.338z" stroke="#AAF0FF" stroke-opacity=".65" stroke-width="1.671"/><path d="M902.712 195.679c-56.938-143.905-257.877-355.321-605.353 1.395" stroke="#008FCF" stroke-width=".835" stroke-dasharray="5.01 5.01"/><ellipse cx="575.508" cy="433.671" rx="2.506" ry="2.503" fill="#00D9AD"/><path d="M575.508 437.845a4.175 4.175 0 100-8.347 4.175 4.175 0 100 8.347z" stroke="#AAFFD6" stroke-opacity=".65" stroke-width="3.341"/><ellipse cx="575.508" cy="542.258" rx="2.506" ry="2.503" fill="#00D9AD"/><path d="M575.508 546.431a4.175 4.175 0 004.176-4.173 4.175 4.175 0 00-4.176-4.174 4.176 4.176 0 00-4.177 4.174 4.175 4.175 0 004.177 4.173z" stroke="#AAFFD6" stroke-opacity=".65" stroke-width="3.341"/><ellipse cx="575.508" cy="216.499" rx="2.506" ry="2.503" fill="#00D9AD"/><path d="M575.508 220.672a4.175 4.175 0 004.176-4.173 4.175 4.175 0 00-4.176-4.173 4.175 4.175 0 00-4.177 4.173 4.175 4.175 0 004.177 4.173z" stroke="#AAFFD6" stroke-opacity=".65" stroke-width="3.341"/><ellipse cx="575.508" cy="103.736" rx="2.506" ry="2.503" fill="#00D9AD"/><path d="M575.508 107.909a4.175 4.175 0 004.176-4.173 4.175 4.175 0 00-4.176-4.173 4.175 4.175 0 00-4.177 4.173 4.175 4.175 0 004.177 4.173z" stroke="#AAFFD6" stroke-opacity=".65" stroke-width="3.341"/><ellipse cx="705.811" cy="107.077" rx="2.506" ry="2.503" fill="#6F84E7"/><path d="M705.811 111.251a4.175 4.175 0 100-8.347 4.175 4.175 0 100 8.347z" stroke="#AADBFF" stroke-opacity=".65" stroke-width="3.341"/><ellipse cx="705.811" cy="216.499" rx="2.506" ry="2.503" fill="#6F84E7"/><path d="M705.811 220.672a4.175 4.175 0 004.176-4.173 4.175 4.175 0 00-4.176-4.173 4.175 4.175 0 00-4.177 4.173 4.175 4.175 0 004.177 4.173z" stroke="#AADBFF" stroke-opacity=".65" stroke-width="3.341"/><ellipse cx="705.811" cy="325.92" rx="2.506" ry="2.503" fill="#6F84E7"/><path d="M705.811 330.094a4.175 4.175 0 004.176-4.174 4.175 4.175 0 00-4.176-4.173 4.175 4.175 0 00-4.177 4.173 4.176 4.176 0 004.177 4.174z" stroke="#AADBFF" stroke-opacity=".65" stroke-width="3.341"/><ellipse cx="705.811" cy="434.507" rx="2.506" ry="2.503" fill="#6F84E7"/><path d="M705.811 438.68a4.175 4.175 0 004.176-4.173 4.175 4.175 0 00-4.176-4.174 4.176 4.176 0 00-4.177 4.174 4.175 4.175 0 004.177 4.173z" stroke="#AADBFF" stroke-opacity=".65" stroke-width="3.341"/><ellipse cx="705.811" cy="543.093" rx="2.506" ry="2.503" fill="#6F84E7"/><path d="M705.811 547.266a4.175 4.175 0 004.176-4.173 4.175 4.175 0 00-4.176-4.173 4.175 4.175 0 00-4.177 4.173 4.175 4.175 0 004.177 4.173z" stroke="#AADBFF" stroke-opacity=".65" stroke-width="3.341"/></svg>