<svg width="1146" height="460" fill="none" xmlns="http://www.w3.org/2000/svg"><circle r="3.835" transform="matrix(1 0 0 -1 790 330.733)" fill="#478ECC" stroke="#95CAF7" stroke-width="1.671"/><circle r="3.835" transform="matrix(1 0 0 -1 674 336.733)" fill="#263238" stroke="#ADB8BD" stroke-width="1.671"/><path d="M722.5 312.733v-1c-.152 0-.303.035-.44.102l.44.898zm72.5 0l-10-5.773v11.547l10-5.774zm-119.56 24.165l47.5-23.267-.88-1.796-47.5 23.267.88 1.796zm47.06-23.165H786v-2h-63.5v2z" fill="#263238"/><path d="M723.5 331l-.008-1c-.151.001-.3.037-.436.104l.444.896zm-51.406 25.465l11.523.734-5.125-10.347-6.398 9.613zM789.492 329.5l-66 .5.016 2 66-.5-.016-2zm-66.436.604l-43.341 21.47.887 1.792 43.342-21.47-.888-1.792z" fill="#478ECC"/><circle r="3.835" transform="matrix(1 0 0 -1 790 54.733)" fill="#23A873" stroke="#30E39C" stroke-width="1.671"/><circle r="3.835" transform="matrix(1 0 0 -1 674 60.733)" fill="#A0A0A0" stroke="#DBDBDB" stroke-width="1.671"/><path d="M722.5 36.733v-1c-.151 0-.3.034-.436.1l.436.9zm72.5 0l-10-5.773v11.547l10-5.774zm-120.564 24.4l48.5-23.5-.872-1.8-48.5 23.5.872 1.8zm48.064-23.4H786v-2h-63.5v2z" fill="#A0A0A0"/><path d="M698.005 67.933l.436.9.003-.001-.439-.899zm-25.911 12.532l11.516.843-5.027-10.395-6.489 9.552zM724 55.233l-.008-1a1 1 0 00-.431.102l.439.898zm-26.43 11.8l-17.809 8.613.87 1.8 17.81-8.613-.871-1.8zm92.422-13.3l-66 .5.016 2 66-.5-.016-2zm-66.431.602l-25.995 12.7.878 1.797 25.995-12.7-.878-1.797z" fill="#23A873"/><circle r="3.835" transform="matrix(1 0 0 -1 470.002 92.734)" fill="#9930CB" stroke="#C678EB" stroke-width="1.671"/><path d="M419 92.733v-1c-.21 0-.415.067-.586.19l.586.81zm-49.356 35.689l11.486-1.181-6.765-9.357-4.721 10.538zM469.5 91.733H419v2h50.5v-2zm-51.086.19l-42.063 30.415 1.172 1.621 42.063-30.415-1.172-1.62z" fill="#9930CB"/><circle r="3.835" transform="scale(-1 1) rotate(-35.304 338.544 751.888)" fill="#478ECC" stroke="#95CAF7" stroke-width="1.671"/><path d="M419.002 369.154l-.595.804a.995.995 0 00.602.196l-.007-1zm53.787-.363l-10.039-5.706.078 11.547 9.961-5.841zm-101.882-33.987l47.5 35.154 1.19-1.608-47.5-35.154-1.19 1.608zm48.102 35.35l44.787-.302-.014-2-44.787.302.014 2z" fill="#478ECC"/><circle r="3.835" transform="matrix(1 0 0 -1 674 122.733)" fill="#A0A0A0" stroke="#DBDBDB" stroke-width="1.671"/><circle r="3.835" transform="matrix(1 0 0 -1 790 129.733)" fill="#23A873" stroke="#30E39C" stroke-width="1.671"/><path d="M720 147.733l-.486.874a.997.997 0 00.486.126v-1zm75 0l-10-5.774v11.547l10-5.773zm-120.486-24.126l45 25 .972-1.748-45-25-.972 1.748zM720 148.733h66v-2h-66v2z" fill="#A0A0A0"/><path d="M723.999 129.733l-.459.888c.142.074.3.112.459.112v-1zm-51.927-26.854l6.23 9.722 5.305-10.257-11.535.535zM789 128.733h-65.001v2H789v-2zm-64.541.112l-43.933-22.72-.919 1.776 43.933 22.72.919-1.776z" fill="#23A873"/><circle r="3.835" transform="matrix(1 0 0 -1 674 397.733)" fill="#263238" stroke="#ADB8BD" stroke-width="1.671"/><circle r="3.835" transform="matrix(1 0 0 -1 790 405.733)" fill="#478ECC" stroke="#95CAF7" stroke-width="1.671"/><path d="M720 423.204l-.481.877c.145.08.308.122.474.123l.007-1zm75 .529l-9.959-5.844-.081 11.547 10.04-5.703zm-120.481-24.356l45 24.704.962-1.753-45-24.705-.962 1.754zm45.474 24.827l66 .466.014-2-66-.466-.014 2z" fill="#263238"/><path d="M723.5 405.417l-.459.888c.142.073.299.112.459.112v-1zm-51.427-26.538l6.239 9.716 5.295-10.261-11.534.545zm118.428 25.538H723.5v2h67.001v-2zm-66.543.111l-43.429-22.41-.917 1.777 43.429 22.41.917-1.777z" fill="#478ECC"/><circle r="4.335" transform="matrix(1 0 0 -1 576.504 264.233)" fill="#82D700" stroke="#C9F584" stroke-width="1.671"/><path d="M576.943 191.733l-5.835 9.964 11.547.071-5.712-10.035zm.563 71.507l.382-62.501-2-.013-.382 62.502 2 .012z" fill="#82D700"/><path d="M118.786 147.126l27.684 40.306c24.544-41.147 66.413-42.591 66.413-42.591l20.511-43.67-26.286-40.069s-85.904 2.166-134.606 88.942l46.284-2.918z" fill="#1C855B"/><path d="M322.455 315.391l-27.277-39.167s-20.935 37.538-66.413 40.425l-21.17 44.071 26.223 38.946s88.637-2.165 135.715-85.904l-47.078 1.629z" fill="#2BB87F"/><path d="M243.766 102.047l-20.776 42.072c46.922.722 70.022 37.538 70.022 37.538l46.909-2.498 23.836-42.259s-44.035-77.242-145.101-76.52l25.11 41.667z" fill="#1F9767"/><path d="M200.172 359.788l20.652-42.417s-42.591 2.166-70.023-36.816l-46.355 1.598-22.224 43.881c29.597 43.313 79.407 72.91 142.211 73.632l-24.261-39.878z" fill="#30CB8D"/><path d="M345.37 186.749l-48.027 2.127s23.1 37.538 2.166 79.407l26.595 39.69 48.482-2.874s41.868-82.295-5.776-160.258l-23.44 41.908z" fill="#26B079"/><path d="M97.562 275.991l48.646-2.24c-13.381-28.557-15.296-45.673-2.969-79.456l-25.74-39.421-48.993 2.961s-41.87 70.745 7.942 158.093l21.114-39.937z" fill="#146846"/><path d="M233.511 337.853c-.713 0-1.36-.153-1.94-.46a3.56 3.56 0 01-1.36-1.29c-.327-.553-.49-1.176-.49-1.87 0-.693.163-1.313.49-1.86a3.473 3.473 0 011.36-1.29c.58-.313 1.23-.47 1.95-.47a4.05 4.05 0 011.64.32c.493.214.907.52 1.24.92l-1.04.96c-.473-.546-1.06-.82-1.76-.82-.433 0-.82.097-1.16.29-.34.187-.607.45-.8.79-.187.34-.28.727-.28 1.16 0 .434.093.82.28 1.16.193.34.46.607.8.8.34.187.727.28 1.16.28.7 0 1.287-.276 1.76-.83l1.04.96a3.235 3.235 0 01-1.24.93 4.102 4.102 0 01-1.65.32zm7.728 0c-.727 0-1.384-.156-1.97-.47a3.538 3.538 0 01-1.37-1.29 3.585 3.585 0 01-.49-1.86c0-.686.163-1.303.49-1.85.333-.553.79-.986 1.37-1.3.586-.313 1.243-.47 1.97-.47.726 0 1.38.157 1.96.47.58.314 1.036.747 1.37 1.3.333.547.5 1.164.5 1.85 0 .687-.167 1.307-.5 1.86-.334.547-.79.977-1.37 1.29-.58.314-1.234.47-1.96.47zm0-1.38c.413 0 .786-.093 1.12-.28.333-.193.593-.46.78-.8.193-.34.29-.726.29-1.16 0-.433-.097-.82-.29-1.16a1.983 1.983 0 00-.78-.79 2.197 2.197 0 00-1.12-.29c-.414 0-.787.097-1.12.29a2.04 2.04 0 00-.79.79c-.187.34-.28.727-.28 1.16 0 .434.093.82.28 1.16.193.34.456.607.79.8.333.187.706.28 1.12.28zm5.547-5.74h1.62v5.68h3.51v1.32h-5.13v-7zm6.535 0h1.62v5.68h3.51v1.32h-5.13v-7zm11.204 5.5h-3.25l-.62 1.5h-1.66l3.12-7h1.6l3.13 7h-1.7l-.62-1.5zm-.51-1.23l-1.11-2.68-1.11 2.68h2.22zm9.196-.91c.4.127.714.34.94.64.227.294.34.657.34 1.09 0 .614-.24 1.087-.72 1.42-.473.327-1.166.49-2.08.49h-3.62v-7h3.42c.854 0 1.507.164 1.96.49.46.327.69.77.69 1.33 0 .34-.083.644-.25.91-.16.267-.386.477-.68.63zm-3.53-2.14v1.65h1.61c.4 0 .704-.07.91-.21.207-.14.31-.346.31-.62 0-.273-.103-.476-.31-.61-.206-.14-.51-.21-.91-.21h-1.61zm1.89 4.56c.427 0 .747-.07.96-.21.22-.14.33-.356.33-.65 0-.58-.43-.87-1.29-.87h-1.89v1.73h1.89zm8.037 1.34c-.727 0-1.384-.156-1.97-.47a3.538 3.538 0 01-1.37-1.29 3.585 3.585 0 01-.49-1.86c0-.686.163-1.303.49-1.85.333-.553.79-.986 1.37-1.3.586-.313 1.243-.47 1.97-.47.726 0 1.38.157 1.96.47.58.314 1.036.747 1.37 1.3.333.547.5 1.164.5 1.85 0 .687-.167 1.307-.5 1.86-.334.547-.79.977-1.37 1.29-.58.314-1.234.47-1.96.47zm0-1.38c.413 0 .786-.093 1.12-.28.333-.193.593-.46.78-.8.193-.34.29-.726.29-1.16 0-.433-.097-.82-.29-1.16a1.983 1.983 0 00-.78-.79 2.197 2.197 0 00-1.12-.29c-.414 0-.787.097-1.12.29a2.04 2.04 0 00-.79.79c-.187.34-.28.727-.28 1.16 0 .434.093.82.28 1.16.193.34.456.607.79.8.333.187.706.28 1.12.28zm10.007 1.26l-1.35-1.95h-1.49v1.95h-1.62v-7h3.03c.62 0 1.157.104 1.61.31.46.207.814.5 1.06.88.247.38.37.83.37 1.35 0 .52-.126.97-.38 1.35-.246.374-.6.66-1.06.86l1.57 2.25h-1.74zm-.03-4.46c0-.393-.126-.693-.38-.9-.253-.213-.623-.32-1.11-.32h-1.32v2.44h1.32c.487 0 .857-.106 1.11-.32.254-.213.38-.513.38-.9zm8.034 2.96h-3.25l-.62 1.5h-1.66l3.12-7h1.6l3.13 7h-1.7l-.62-1.5zm-.51-1.23l-1.11-2.68-1.11 2.68h2.22zm5.154-2.95h-2.24v-1.32h6.1v1.32h-2.24v5.68h-1.62v-5.68zm5.232-1.32h1.62v7h-1.62v-7zm7.171 7.12c-.726 0-1.383-.156-1.97-.47a3.545 3.545 0 01-1.37-1.29 3.594 3.594 0 01-.49-1.86c0-.686.164-1.303.49-1.85.334-.553.79-.986 1.37-1.3a4.122 4.122 0 011.97-.47c.727 0 1.38.157 1.96.47.58.314 1.037.747 1.37 1.3.334.547.5 1.164.5 1.85 0 .687-.166 1.307-.5 1.86-.333.547-.79.977-1.37 1.29-.58.314-1.233.47-1.96.47zm0-1.38c.414 0 .787-.093 1.12-.28.334-.193.594-.46.78-.8.194-.34.29-.726.29-1.16a2.3 2.3 0 00-.29-1.16 1.97 1.97 0 00-.78-.79 2.192 2.192 0 00-1.12-.29c-.413 0-.786.097-1.12.29-.333.187-.596.45-.79.79-.186.34-.28.727-.28 1.16 0 .434.094.82.28 1.16.194.34.457.607.79.8.334.187.707.28 1.12.28zm11.968-5.74v7h-1.33l-3.49-4.25v4.25h-1.6v-7h1.34l3.48 4.25v-4.25h1.6zm4.456 7.12c-.553 0-1.09-.073-1.61-.22-.513-.153-.927-.35-1.24-.59l.55-1.22c.3.22.657.397 1.07.53a4 4 0 001.24.2c.46 0 .8-.066 1.02-.2.22-.14.33-.323.33-.55a.504.504 0 00-.2-.41 1.38 1.38 0 00-.5-.27c-.2-.066-.473-.14-.82-.22-.533-.126-.97-.253-1.31-.38a2.162 2.162 0 01-.88-.61c-.24-.28-.36-.653-.36-1.12 0-.406.11-.773.33-1.1.22-.333.55-.596.99-.79.447-.193.99-.29 1.63-.29.447 0 .883.054 1.31.16.427.107.8.26 1.12.46l-.5 1.23c-.647-.366-1.293-.55-1.94-.55-.453 0-.79.074-1.01.22-.213.147-.32.34-.32.58 0 .24.123.42.37.54.253.114.637.227 1.15.34.533.127.97.254 1.31.38.34.127.63.327.87.6.247.274.37.644.37 1.11 0 .4-.113.767-.34 1.1-.22.327-.553.587-1 .78-.447.194-.99.29-1.63.29zm-84.043 7.88l-2.29 7h-1.74l-1.54-4.74-1.59 4.74h-1.73l-2.3-7h1.68l1.58 4.92 1.65-4.92h1.5l1.6 4.96 1.63-4.96h1.55zm1.404 0h1.62v7h-1.62v-7zm5.231 1.32h-2.24v-1.32h6.1v1.32h-2.24v5.68h-1.62v-5.68zm11.652-1.32v7h-1.62v-2.87h-3.18v2.87h-1.62v-7h1.62v2.76h3.18v-2.76h1.62zm10.628 3.36c.4.127.714.34.94.64.227.294.34.657.34 1.09 0 .614-.24 1.087-.72 1.42-.473.327-1.166.49-2.08.49h-3.62v-7h3.42c.854 0 1.507.164 1.96.49.46.327.69.77.69 1.33 0 .34-.083.644-.25.91-.16.267-.386.477-.68.63zm-3.53-2.14v1.65h1.61c.4 0 .704-.07.91-.21.207-.14.31-.346.31-.62 0-.273-.103-.476-.31-.61-.206-.14-.51-.21-.91-.21h-1.61zm1.89 4.56c.427 0 .747-.07.96-.21.22-.14.33-.356.33-.65 0-.58-.43-.87-1.29-.87h-1.89v1.73h1.89zm4.647-5.78h1.62v5.68h3.51v1.32h-5.13v-7zm9.808 7.12c-.727 0-1.384-.156-1.97-.47a3.538 3.538 0 01-1.37-1.29 3.585 3.585 0 01-.49-1.86c0-.686.163-1.303.49-1.85.333-.553.79-.986 1.37-1.3.586-.313 1.243-.47 1.97-.47.726 0 1.38.157 1.96.47.58.314 1.036.747 1.37 1.3.333.547.5 1.164.5 1.85 0 .687-.167 1.307-.5 1.86-.334.547-.79.977-1.37 1.29-.58.314-1.234.47-1.96.47zm0-1.38c.413 0 .786-.093 1.12-.28.333-.193.593-.46.78-.8.193-.34.29-.726.29-1.16 0-.433-.097-.82-.29-1.16a1.983 1.983 0 00-.78-.79 2.197 2.197 0 00-1.12-.29c-.414 0-.787.097-1.12.29a2.04 2.04 0 00-.79.79c-.187.34-.28.727-.28 1.16 0 .434.093.82.28 1.16.193.34.456.607.79.8.333.187.706.28 1.12.28zm10.277-2.35h1.48v2.84c-.38.287-.82.507-1.32.66-.5.154-1.003.23-1.51.23-.727 0-1.38-.153-1.96-.46a3.538 3.538 0 01-1.37-1.29c-.327-.553-.49-1.176-.49-1.87 0-.693.163-1.313.49-1.86a3.434 3.434 0 011.38-1.29c.587-.313 1.247-.47 1.98-.47.613 0 1.17.104 1.67.31.5.207.92.507 1.26.9l-1.04.96c-.5-.526-1.103-.79-1.81-.79-.447 0-.843.094-1.19.28-.347.187-.617.45-.81.79-.193.34-.29.73-.29 1.17 0 .434.097.82.29 1.16.193.34.46.607.8.8.347.187.74.28 1.18.28.467 0 .887-.1 1.26-.3v-2.05zm8.215 0h1.48v2.84c-.38.287-.82.507-1.32.66-.5.154-1.003.23-1.51.23-.727 0-1.38-.153-1.96-.46a3.538 3.538 0 01-1.37-1.29c-.327-.553-.49-1.176-.49-1.87 0-.693.163-1.313.49-1.86a3.434 3.434 0 011.38-1.29c.587-.313 1.247-.47 1.98-.47.613 0 1.17.104 1.67.31.5.207.92.507 1.26.9l-1.04.96c-.5-.526-1.103-.79-1.81-.79-.447 0-.843.094-1.19.28-.347.187-.617.45-.81.79-.193.34-.29.73-.29 1.17 0 .434.097.82.29 1.16.193.34.46.607.8.8.347.187.74.28 1.18.28.467 0 .887-.1 1.26-.3v-2.05zm8.905 2.31v1.3h-5.42v-7h5.29v1.3h-3.68v1.52h3.25v1.26h-3.25v1.62h3.81zm6.249 1.3l-1.35-1.95h-1.49v1.95h-1.62v-7h3.03c.62 0 1.156.104 1.61.31.46.207.813.5 1.06.88.246.38.37.83.37 1.35 0 .52-.127.97-.38 1.35-.247.374-.6.66-1.06.86l1.57 2.25h-1.74zm-.03-4.46c0-.393-.127-.693-.38-.9-.254-.213-.624-.32-1.11-.32h-1.32v2.44h1.32c.486 0 .856-.106 1.11-.32.253-.213.38-.513.38-.9zm5.723 4.58c-.553 0-1.09-.073-1.61-.22-.513-.153-.926-.35-1.24-.59l.55-1.22c.3.22.657.397 1.07.53.414.134.827.2 1.24.2.46 0 .8-.066 1.02-.2.22-.14.33-.323.33-.55a.502.502 0 00-.2-.41 1.372 1.372 0 00-.5-.27c-.2-.066-.473-.14-.82-.22-.533-.126-.97-.253-1.31-.38a2.162 2.162 0 01-.88-.61c-.24-.28-.36-.653-.36-1.12 0-.406.11-.773.33-1.1.22-.333.55-.596.99-.79.447-.193.99-.29 1.63-.29.447 0 .884.054 1.31.16.427.107.8.26 1.12.46l-.5 1.23c-.646-.366-1.293-.55-1.94-.55-.453 0-.79.074-1.01.22-.213.147-.32.34-.32.58 0 .24.124.42.37.54.254.114.637.227 1.15.34.534.127.97.254 1.31.38.34.127.63.327.87.6.247.274.37.644.37 1.11 0 .4-.113.767-.34 1.1-.22.327-.553.587-1 .78-.446.194-.99.29-1.63.29zm-64.635 6.46h1.39l-3.3 9.42h-1.39l3.3-9.42zm7.058 2.74h-2.24v-1.32h6.1v1.32h-2.24v5.68h-1.62v-5.68zm15.684-1.32l-2.29 7h-1.74l-1.54-4.74-1.59 4.74h-1.73l-2.3-7h1.68l1.58 4.92 1.65-4.92h1.5l1.6 4.96 1.63-4.96h1.55zm1.405 0h1.62v7h-1.62v-7zm7.131 7.12c-.713 0-1.36-.153-1.94-.46a3.56 3.56 0 01-1.36-1.29c-.327-.553-.49-1.176-.49-1.87 0-.693.163-1.313.49-1.86a3.473 3.473 0 011.36-1.29c.58-.313 1.23-.47 1.95-.47a4.05 4.05 0 011.64.32c.493.214.907.52 1.24.92l-1.04.96c-.473-.546-1.06-.82-1.76-.82-.433 0-.82.097-1.16.29-.34.187-.607.45-.8.79-.187.34-.28.727-.28 1.16 0 .434.093.82.28 1.16.193.34.46.607.8.8.34.187.727.28 1.16.28.7 0 1.287-.276 1.76-.83l1.04.96a3.235 3.235 0 01-1.24.93 4.102 4.102 0 01-1.65.32zm10.904-7.12v7h-1.62v-2.87h-3.18v2.87h-1.62v-7h1.62v2.76h3.18v-2.76h1.62zm-35.408-245.88c-.713 0-1.36-.153-1.94-.46a3.567 3.567 0 01-1.36-1.29 3.612 3.612 0 01-.49-1.87c0-.693.164-1.313.49-1.86a3.48 3.48 0 011.36-1.29c.58-.313 1.23-.47 1.95-.47.607 0 1.154.107 1.64.32.494.214.907.52 1.24.92l-1.04.96c-.473-.546-1.06-.82-1.76-.82-.433 0-.82.097-1.16.29-.34.187-.606.45-.8.79-.186.34-.28.727-.28 1.16 0 .434.094.82.28 1.16.194.34.46.607.8.8.34.187.727.28 1.16.28.7 0 1.287-.276 1.76-.83l1.04.96a3.228 3.228 0 01-1.24.93 4.102 4.102 0 01-1.65.32zm7.728 0c-.727 0-1.384-.156-1.97-.47a3.538 3.538 0 01-1.37-1.29 3.585 3.585 0 01-.49-1.86c0-.686.163-1.303.49-1.85.333-.553.79-.986 1.37-1.3.586-.313 1.243-.47 1.97-.47.726 0 1.38.157 1.96.47.58.314 1.036.747 1.37 1.3.333.547.5 1.164.5 1.85 0 .687-.167 1.307-.5 1.86-.334.547-.79.977-1.37 1.29-.58.314-1.234.47-1.96.47zm0-1.38c.413 0 .786-.093 1.12-.28.333-.193.593-.46.78-.8.193-.34.29-.726.29-1.16 0-.433-.097-.82-.29-1.16a1.983 1.983 0 00-.78-.79 2.197 2.197 0 00-1.12-.29c-.414 0-.787.097-1.12.29a2.04 2.04 0 00-.79.79c-.187.34-.28.727-.28 1.16 0 .434.093.82.28 1.16.193.34.456.607.79.8.333.187.706.28 1.12.28zm11.967-5.74v7h-1.33l-3.49-4.25v4.25h-1.6v-7h1.34l3.48 4.25v-4.25h1.6zm3.606 1.32h-2.24v-1.32h6.1v1.32h-2.24v5.68h-1.62v-5.68zm10.652 4.38v1.3h-5.42v-7h5.29v1.3h-3.68v1.52h3.25v1.26h-3.25v1.62h3.81zm8.209-5.7v7h-1.33l-3.49-4.25v4.25h-1.6v-7h1.34l3.48 4.25v-4.25h1.6zm3.606 1.32h-2.24v-1.32h6.1v1.32h-2.24v5.68h-1.62v-5.68zm-58.631 20.68l-.01-4.2-2.06 3.46h-.73l-2.05-3.37v4.11h-1.52v-7h1.34l2.62 4.35 2.58-4.35h1.33l.02 7h-1.52zm8.291-1.5h-3.25l-.62 1.5h-1.66l3.12-7h1.6l3.13 7h-1.7l-.62-1.5zm-.51-1.23l-1.11-2.68-1.11 2.68h2.22zm10.476-4.27v7h-1.33l-3.49-4.25v4.25h-1.6v-7h1.34l3.48 4.25v-4.25h1.6zm6.767 5.5h-3.25l-.62 1.5h-1.66l3.12-7h1.6l3.13 7h-1.7l-.62-1.5zm-.51-1.23l-1.11-2.68-1.11 2.68h2.22zm8.688-.88h1.48v2.84c-.38.287-.82.507-1.32.66-.5.154-1.003.23-1.51.23-.726 0-1.38-.153-1.96-.46a3.545 3.545 0 01-1.37-1.29 3.612 3.612 0 01-.49-1.87c0-.693.164-1.313.49-1.86a3.447 3.447 0 011.38-1.29c.587-.313 1.247-.47 1.98-.47.614 0 1.17.104 1.67.31.5.207.92.507 1.26.9l-1.04.96c-.5-.526-1.103-.79-1.81-.79a2.48 2.48 0 00-1.19.28 2.02 2.02 0 00-.81.79c-.193.34-.29.73-.29 1.17 0 .434.097.82.29 1.16.194.34.46.607.8.8.347.187.74.28 1.18.28.467 0 .887-.1 1.26-.3v-2.05zm8.905 2.31v1.3h-5.42v-7h5.29v1.3h-3.68v1.52h3.25v1.26h-3.25v1.62h3.81zm8.159 1.3l-.01-4.2-2.06 3.46h-.73l-2.05-3.37v4.11h-1.52v-7h1.34l2.62 4.35 2.58-4.35h1.33l.02 7h-1.52zm9.101-1.3v1.3h-5.42v-7h5.29v1.3h-3.68v1.52h3.25v1.26h-3.25v1.62h3.81zm8.209-5.7v7h-1.33l-3.49-4.25v4.25h-1.6v-7h1.34l3.48 4.25v-4.25h1.6zm3.606 1.32h-2.24v-1.32h6.1v1.32h-2.24v5.68h-1.62v-5.68zm-65.459 12.26h1.39l-3.3 9.42h-1.39l3.3-9.42zm7.908 8.54c-.554 0-1.09-.073-1.61-.22-.514-.153-.927-.35-1.24-.59l.55-1.22c.3.22.656.397 1.07.53.413.134.826.2 1.24.2.46 0 .8-.066 1.02-.2.22-.14.33-.323.33-.55a.504.504 0 00-.2-.41 1.389 1.389 0 00-.5-.27c-.2-.066-.474-.14-.82-.22-.534-.126-.97-.253-1.31-.38a2.155 2.155 0 01-.88-.61c-.24-.28-.36-.653-.36-1.12 0-.406.11-.773.33-1.1.22-.333.55-.596.99-.79.446-.193.99-.29 1.63-.29.446 0 .883.054 1.31.16.426.107.8.26 1.12.46l-.5 1.23c-.647-.366-1.294-.55-1.94-.55-.454 0-.79.074-1.01.22-.214.147-.32.34-.32.58 0 .24.123.42.37.54.253.114.636.227 1.15.34.533.127.97.254 1.31.38.34.127.63.327.87.6.246.274.37.644.37 1.11 0 .4-.114.767-.34 1.1-.22.327-.554.587-1 .78-.447.194-.99.29-1.63.29zm5.929-5.8h-2.24v-1.32h6.1v1.32h-2.24v5.68h-1.62v-5.68zm9.692 5.68l-1.35-1.95h-1.49v1.95h-1.62v-7h3.03c.62 0 1.156.104 1.61.31.46.207.813.5 1.06.88.246.38.37.83.37 1.35 0 .52-.127.97-.38 1.35-.247.374-.6.66-1.06.86l1.57 2.25h-1.74zm-.03-4.46c0-.393-.127-.693-.38-.9-.254-.213-.624-.32-1.11-.32h-1.32v2.44h1.32c.486 0 .856-.106 1.11-.32.253-.213.38-.513.38-.9zm8.033 2.96h-3.25l-.62 1.5h-1.66l3.12-7h1.6l3.13 7h-1.7l-.62-1.5zm-.51-1.23l-1.11-2.68-1.11 2.68h2.22zm5.155-2.95h-2.24v-1.32h6.1v1.32h-2.24v5.68h-1.62v-5.68zm10.651 4.38v1.3h-5.42v-7h5.29v1.3h-3.68v1.52h3.25v1.26h-3.25v1.62h3.81zm6.5-2.31h1.48v2.84c-.38.287-.82.507-1.32.66-.5.154-1.004.23-1.51.23-.727 0-1.38-.153-1.96-.46a3.538 3.538 0 01-1.37-1.29c-.327-.553-.49-1.176-.49-1.87 0-.693.163-1.313.49-1.86a3.434 3.434 0 011.38-1.29c.586-.313 1.246-.47 1.98-.47.613 0 1.17.104 1.67.31.5.207.92.507 1.26.9l-1.04.96c-.5-.526-1.104-.79-1.81-.79-.447 0-.844.094-1.19.28-.347.187-.617.45-.81.79-.194.34-.29.73-.29 1.17 0 .434.096.82.29 1.16.193.34.46.607.8.8.346.187.74.28 1.18.28.466 0 .886-.1 1.26-.3v-2.05zm6.845 1.13v2.48h-1.62v-2.5l-2.71-4.5h1.72l1.87 3.11 1.87-3.11h1.59l-2.72 4.52zm5.865 66.6c-.553 0-1.09-.073-1.61-.22-.513-.153-.926-.35-1.24-.59l.55-1.22c.3.22.657.397 1.07.53.414.134.827.2 1.24.2.46 0 .8-.066 1.02-.2.22-.14.33-.323.33-.55a.502.502 0 00-.2-.41 1.372 1.372 0 00-.5-.27c-.2-.066-.473-.14-.82-.22-.533-.126-.97-.253-1.31-.38a2.162 2.162 0 01-.88-.61c-.24-.28-.36-.653-.36-1.12 0-.406.11-.773.33-1.1.22-.333.55-.596.99-.79.447-.193.99-.29 1.63-.29.447 0 .884.054 1.31.16.427.107.8.26 1.12.46l-.5 1.23c-.646-.366-1.293-.55-1.94-.55-.453 0-.79.074-1.01.22-.213.147-.32.34-.32.58 0 .24.124.42.37.54.254.114.637.227 1.15.34.534.127.97.254 1.31.38.34.127.63.327.87.6.247.274.37.644.37 1.11 0 .4-.113.767-.34 1.1-.22.327-.553.587-1 .78-.446.194-.99.29-1.63.29zm7.967 0c-.726 0-1.383-.156-1.97-.47a3.545 3.545 0 01-1.37-1.29 3.594 3.594 0 01-.49-1.86c0-.686.164-1.303.49-1.85.334-.553.79-.986 1.37-1.3a4.122 4.122 0 011.97-.47c.727 0 1.38.157 1.96.47.58.314 1.037.747 1.37 1.3.334.547.5 1.164.5 1.85 0 .687-.166 1.307-.5 1.86-.333.547-.79.977-1.37 1.29-.58.314-1.233.47-1.96.47zm0-1.38c.414 0 .787-.093 1.12-.28.334-.193.594-.46.78-.8.194-.34.29-.726.29-1.16a2.3 2.3 0 00-.29-1.16 1.97 1.97 0 00-.78-.79 2.192 2.192 0 00-1.12-.29c-.413 0-.786.097-1.12.29-.333.187-.596.45-.79.79-.186.34-.28.727-.28 1.16 0 .434.094.82.28 1.16.194.34.457.607.79.8.334.187.707.28 1.12.28zm8.898 1.38c-.713 0-1.36-.153-1.94-.46a3.56 3.56 0 01-1.36-1.29c-.327-.553-.49-1.176-.49-1.87 0-.693.163-1.313.49-1.86a3.473 3.473 0 011.36-1.29c.58-.313 1.23-.47 1.95-.47a4.05 4.05 0 011.64.32c.493.214.907.52 1.24.92l-1.04.96c-.473-.546-1.06-.82-1.76-.82-.433 0-.82.097-1.16.29-.34.187-.607.45-.8.79-.187.34-.28.727-.28 1.16 0 .434.093.82.28 1.16.193.34.46.607.8.8.34.187.727.28 1.16.28.7 0 1.287-.276 1.76-.83l1.04.96a3.235 3.235 0 01-1.24.93 4.102 4.102 0 01-1.65.32zm4.484-7.12h1.62v7h-1.62v-7zm8.391 5.5h-3.25l-.62 1.5h-1.66l3.12-7h1.6l3.13 7h-1.7l-.62-1.5zm-.51-1.23l-1.11-2.68-1.11 2.68h2.22zm4.056-4.27h1.62v5.68h3.51v1.32h-5.13v-7zm-27.135 22l-.01-4.2-2.06 3.46h-.73l-2.05-3.37v4.11h-1.52v-7h1.34l2.62 4.35 2.58-4.35h1.33l.02 7h-1.52zm9.101-1.3v1.3h-5.42v-7h5.29v1.3h-3.68v1.52h3.25v1.26h-3.25v1.62h3.81zm1.789-5.7h3.18c.76 0 1.43.147 2.01.44a3.19 3.19 0 011.36 1.22c.327.527.49 1.14.49 1.84 0 .7-.163 1.314-.49 1.84-.32.527-.773.937-1.36 1.23-.58.287-1.25.43-2.01.43h-3.18v-7zm3.1 5.67c.7 0 1.257-.193 1.67-.58.42-.393.63-.923.63-1.59 0-.666-.21-1.193-.63-1.58-.413-.393-.97-.59-1.67-.59h-1.48v4.34h1.48zm5.662-5.67h1.62v7h-1.62v-7zm8.391 5.5h-3.25l-.62 1.5h-1.66l3.12-7h1.6l3.13 7h-1.7l-.62-1.5zm-.51-1.23l-1.11-2.68-1.11 2.68h2.22zm-42.766 17.73l-.01-4.2-2.06 3.46h-.73l-2.05-3.37v4.11h-1.52v-7h1.34l2.62 4.35 2.58-4.35h1.33l.02 7h-1.52zm8.291-1.5h-3.25l-.62 1.5h-1.66l3.12-7h1.6l3.13 7h-1.7l-.62-1.5zm-.51-1.23l-1.11-2.68-1.11 2.68h2.22zm8.516 2.73l-1.35-1.95h-1.49v1.95h-1.62v-7h3.03c.62 0 1.157.104 1.61.31.46.207.813.5 1.06.88.247.38.37.83.37 1.35 0 .52-.127.97-.38 1.35-.247.374-.6.66-1.06.86l1.57 2.25h-1.74zm-.03-4.46c0-.393-.127-.693-.38-.9-.253-.213-.623-.32-1.11-.32h-1.32v2.44h1.32c.487 0 .857-.106 1.11-.32.253-.213.38-.513.38-.9zm5.974 1.71l-.94.98v1.77h-1.61v-7h1.61v3.27l3.1-3.27h1.8l-2.9 3.12 3.07 3.88h-1.89l-2.24-2.75zm10.772 1.45v1.3h-5.42v-7h5.29v1.3h-3.68v1.52h3.25v1.26h-3.25v1.62h3.81zm3.239-4.38h-2.24v-1.32h6.1v1.32h-2.24v5.68h-1.62v-5.68zm5.232-1.32h1.62v7h-1.62v-7zm10.201 0v7h-1.33l-3.49-4.25v4.25h-1.6v-7h1.34l3.48 4.25v-4.25h1.6zm6.886 3.39h1.48v2.84c-.38.287-.82.507-1.32.66-.5.154-1.003.23-1.51.23-.727 0-1.38-.153-1.96-.46a3.538 3.538 0 01-1.37-1.29c-.327-.553-.49-1.176-.49-1.87 0-.693.163-1.313.49-1.86a3.434 3.434 0 011.38-1.29c.587-.313 1.247-.47 1.98-.47.613 0 1.17.104 1.67.31.5.207.92.507 1.26.9l-1.04.96c-.5-.526-1.103-.79-1.81-.79-.447 0-.843.094-1.19.28-.347.187-.617.45-.81.79-.193.34-.29.73-.29 1.17 0 .434.097.82.29 1.16.193.34.46.607.8.8.347.187.74.28 1.18.28.467 0 .887-.1 1.26-.3v-2.05zm-52.878 17.162a5.868 5.868 0 01-.744-1.688 7.98 7.98 0 01-.256-2.056c0-.73.086-1.416.256-2.056a5.749 5.749 0 01.744-1.688h1.192a7.265 7.265 0 00-.736 1.808 7.864 7.864 0 00-.232 1.936c0 .683.078 1.331.232 1.944.155.608.4 1.208.736 1.8h-1.192zm3.445-6.096h-1.792v-1.056h4.88v1.056h-1.792v4.544h-1.296v-4.544zm12.548-1.056l-1.832 5.6h-1.392l-1.232-3.792-1.272 3.792h-1.384l-1.84-5.6h1.344l1.264 3.936 1.32-3.936h1.2l1.28 3.968 1.304-3.968h1.24zm1.123 0h1.296v5.6h-1.296v-5.6zm4.185 1.056h-1.792v-1.056h4.88v1.056h-1.792v4.544h-1.296v-4.544zm5.424 0h-1.792v-1.056h4.88v1.056h-1.792v4.544h-1.296v-4.544zm8.521 3.504v1.04h-4.336v-5.6h4.232v1.04h-2.944v1.216h2.6v1.008h-2.6v1.296h3.048zm4.999 1.04l-1.08-1.56h-1.192v1.56h-1.296v-5.6h2.424c.496 0 .926.083 1.288.248.368.166.651.4.848.704.198.304.296.664.296 1.08 0 .416-.101.776-.304 1.08-.197.299-.48.528-.848.688l1.256 1.8h-1.392zm-.024-3.568c0-.314-.101-.554-.304-.72-.202-.17-.498-.256-.888-.256h-1.056v1.952h1.056c.39 0 .686-.085.888-.256.203-.17.304-.41.304-.72zm3.131 2.08c.224 0 .408.072.552.216a.732.732 0 01.216.552c0 .107-.013.214-.04.32a3.58 3.58 0 01-.176.48l-.456 1.152h-.792l.352-1.272a.683.683 0 01-.32-.256.794.794 0 01-.112-.424c0-.229.072-.413.216-.552a.774.774 0 01.56-.216zm-49.452 7.888h1.296v5.6h-1.296v-5.6zm8.161 0v5.6h-1.064l-2.792-3.4v3.4h-1.28v-5.6h1.072l2.784 3.4v-3.4h1.28zm3.565 5.696c-.443 0-.872-.058-1.288-.176-.411-.122-.741-.28-.992-.472l.44-.976c.24.176.525.318.856.424.331.107.661.16.992.16.368 0 .64-.053.816-.16.176-.112.264-.258.264-.44a.402.402 0 00-.16-.328 1.117 1.117 0 00-.4-.216 7.684 7.684 0 00-.656-.176 8.906 8.906 0 01-1.048-.304 1.728 1.728 0 01-.704-.488c-.192-.224-.288-.522-.288-.896 0-.325.088-.618.264-.88.176-.266.44-.477.792-.632.357-.154.792-.232 1.304-.232.357 0 .707.043 1.048.128.341.086.64.208.896.368l-.4.984c-.517-.293-1.035-.44-1.552-.44-.363 0-.632.059-.808.176a.54.54 0 00-.256.464c0 .192.099.336.296.432.203.091.509.182.92.272a9.31 9.31 0 011.048.304c.272.102.504.262.696.48.197.219.296.515.296.888 0 .32-.091.614-.272.88-.176.262-.443.47-.8.624-.357.155-.792.232-1.304.232zm4.743-4.64h-1.792v-1.056h4.88v1.056h-1.792v4.544h-1.296v-4.544zm7.592 3.344h-2.6l-.496 1.2h-1.328l2.496-5.6h1.28l2.504 5.6h-1.36l-.496-1.2zm-.408-.984l-.888-2.144-.888 2.144h1.776zm6.951-.704h1.184v2.272c-.304.23-.656.406-1.056.528-.4.123-.802.184-1.208.184a3.296 3.296 0 01-1.568-.368 2.829 2.829 0 01-1.096-1.032 2.887 2.887 0 01-.392-1.496c0-.554.131-1.05.392-1.488a2.76 2.76 0 011.104-1.032 3.32 3.32 0 011.584-.376c.491 0 .936.083 1.336.248.4.166.736.406 1.008.72l-.832.768a1.924 1.924 0 00-1.448-.632c-.357 0-.674.075-.952.224-.277.15-.493.36-.648.632a1.867 1.867 0 00-.232.936c0 .347.078.656.232.928.155.272.368.486.64.64.278.15.592.224.944.224.374 0 .71-.08 1.008-.24v-1.64zm6.356 2.888l-1.08-1.56h-1.192v1.56h-1.296v-5.6h2.424c.496 0 .926.083 1.288.248.368.166.651.4.848.704.198.304.296.664.296 1.08 0 .416-.101.776-.304 1.08-.197.299-.48.528-.848.688l1.256 1.8h-1.392zm-.024-3.568c0-.314-.101-.554-.304-.72-.202-.17-.498-.256-.888-.256h-1.056v1.952h1.056c.39 0 .686-.085.888-.256.203-.17.304-.41.304-.72zm6.427 2.368h-2.6l-.496 1.2h-1.328l2.496-5.6h1.28l2.504 5.6h-1.36l-.496-1.2zm-.408-.984l-.888-2.144-.888 2.144h1.776zm8.341 2.184l-.008-3.36-1.648 2.768h-.584l-1.64-2.696v3.288h-1.216v-5.6h1.072l2.096 3.48 2.064-3.48h1.064l.016 5.6h-1.216zm3.337-1.488c.224 0 .408.072.552.216a.732.732 0 01.216.552c0 .107-.014.214-.04.32a3.728 3.728 0 01-.176.48l-.456 1.152h-.792l.352-1.272a.678.678 0 01-.32-.256.794.794 0 01-.112-.424c0-.229.072-.413.216-.552a.774.774 0 01.56-.216zm-50.332 8.928v1.48h2.592v1.04h-2.592v2.04h-1.296v-5.6h4.232v1.04h-2.936zm7.667 3.36h-2.6l-.496 1.2h-1.328l2.496-5.6h1.28l2.504 5.6h-1.36l-.496-1.2zm-.408-.984l-.888-2.144-.888 2.144h1.776zm5.847 2.28c-.57 0-1.088-.122-1.552-.368a2.849 2.849 0 01-1.088-1.032 2.887 2.887 0 01-.392-1.496c0-.554.131-1.05.392-1.488a2.79 2.79 0 011.088-1.032c.464-.25.984-.376 1.56-.376.486 0 .923.086 1.312.256.395.171.726.416.992.736l-.832.768c-.378-.437-.848-.656-1.408-.656-.346 0-.656.078-.928.232-.272.15-.485.36-.64.632a1.902 1.902 0 00-.224.928c0 .347.075.656.224.928.155.272.368.486.64.64.272.15.582.224.928.224.56 0 1.03-.221 1.408-.664l.832.768a2.573 2.573 0 01-.992.744 3.282 3.282 0 01-1.32.256zm7.924-1.136v1.04h-4.336v-5.6h4.232v1.04h-2.944v1.216h2.6v1.008h-2.6v1.296h3.048zm5.543-1.872c.32.102.57.272.752.512.181.235.272.526.272.872 0 .491-.192.87-.576 1.136-.379.262-.934.392-1.664.392h-2.896v-5.6h2.736c.682 0 1.205.131 1.568.392.368.262.552.616.552 1.064 0 .272-.067.515-.2.728a1.34 1.34 0 01-.544.504zm-2.824-1.712v1.32h1.288c.32 0 .562-.056.728-.168a.56.56 0 00.248-.496c0-.218-.083-.381-.248-.488-.166-.112-.408-.168-.728-.168h-1.288zm1.512 3.648c.341 0 .597-.056.768-.168.176-.112.264-.285.264-.52 0-.464-.344-.696-1.032-.696h-1.512v1.384h1.512zm6.429 1.072a3.288 3.288 0 01-1.576-.376 2.829 2.829 0 01-1.096-1.032 2.871 2.871 0 01-.392-1.488c0-.549.131-1.042.392-1.48a2.827 2.827 0 011.096-1.04 3.3 3.3 0 011.576-.376c.581 0 1.104.126 1.568.376.464.251.829.598 1.096 1.04.267.438.4.931.4 1.48 0 .55-.133 1.046-.4 1.488a2.829 2.829 0 01-1.096 1.032 3.243 3.243 0 01-1.568.376zm0-1.104c.331 0 .629-.074.896-.224.267-.154.475-.368.624-.64a1.84 1.84 0 00.232-.928c0-.346-.077-.656-.232-.928a1.581 1.581 0 00-.624-.632 1.76 1.76 0 00-.896-.232 1.76 1.76 0 00-.896.232 1.64 1.64 0 00-.632.632 1.902 1.902 0 00-.224.928c0 .347.075.656.224.928.155.272.365.486.632.64.267.15.565.224.896.224zm7.15 1.104a3.288 3.288 0 01-1.576-.376 2.829 2.829 0 01-1.096-1.032 2.871 2.871 0 01-.392-1.488c0-.549.131-1.042.392-1.48a2.827 2.827 0 011.096-1.04 3.3 3.3 0 011.576-.376c.581 0 1.104.126 1.568.376.464.251.829.598 1.096 1.04.267.438.4.931.4 1.48 0 .55-.133 1.046-.4 1.488a2.829 2.829 0 01-1.096 1.032 3.243 3.243 0 01-1.568.376zm0-1.104c.331 0 .629-.074.896-.224.267-.154.475-.368.624-.64a1.84 1.84 0 00.232-.928c0-.346-.077-.656-.232-.928a1.581 1.581 0 00-.624-.632 1.76 1.76 0 00-.896-.232 1.76 1.76 0 00-.896.232 1.64 1.64 0 00-.632.632 1.902 1.902 0 00-.224.928c0 .347.075.656.224.928.155.272.365.486.632.64.267.15.565.224.896.224zm6.478-1.192l-.752.784v1.416h-1.288v-5.6h1.288v2.616l2.48-2.616h1.44l-2.32 2.496 2.456 3.104h-1.512l-1.792-2.2zm4.674.712c.224 0 .408.072.552.216a.732.732 0 01.216.552c0 .107-.014.214-.04.32a3.728 3.728 0 01-.176.48l-.456 1.152h-.792l.352-1.272a.678.678 0 01-.32-.256.794.794 0 01-.112-.424c0-.229.072-.413.216-.552a.774.774 0 01.56-.216zm-45.321 11.504v1.984h-1.296v-2l-2.168-3.6h1.376l1.496 2.488 1.496-2.488h1.272l-2.176 3.616zm5.588 2.08a3.285 3.285 0 01-1.576-.376 2.822 2.822 0 01-1.096-1.032 2.862 2.862 0 01-.392-1.488c0-.549.13-1.042.392-1.48a2.82 2.82 0 011.096-1.04c.469-.25.994-.376 1.576-.376.581 0 1.104.126 1.568.376.464.251.829.598 1.096 1.04.266.438.4.931.4 1.48a2.83 2.83 0 01-.4 1.488 2.829 2.829 0 01-1.096 1.032 3.243 3.243 0 01-1.568.376zm0-1.104c.33 0 .629-.074.896-.224a1.64 1.64 0 00.624-.64 1.85 1.85 0 00.232-.928c0-.346-.078-.656-.232-.928a1.594 1.594 0 00-.624-.632 1.762 1.762 0 00-.896-.232c-.331 0-.63.078-.896.232-.267.15-.478.36-.632.632a1.89 1.89 0 00-.224.928c0 .347.074.656.224.928.154.272.365.486.632.64.266.15.565.224.896.224zm6.926 1.104c-.8 0-1.424-.221-1.872-.664-.443-.442-.664-1.074-.664-1.896v-3.136h1.296v3.088c0 1.003.416 1.504 1.248 1.504.405 0 .714-.12.928-.36.213-.245.32-.626.32-1.144v-3.088h1.28v3.136c0 .822-.224 1.454-.672 1.896-.443.443-1.064.664-1.864.664zm5.283-4.64h-1.792v-1.056h4.88v1.056h-1.792v4.544h-1.296v-4.544zm6.579 4.64c-.8 0-1.424-.221-1.872-.664-.443-.442-.664-1.074-.664-1.896v-3.136h1.296v3.088c0 1.003.416 1.504 1.248 1.504.405 0 .715-.12.928-.36.213-.245.32-.626.32-1.144v-3.088h1.28v3.136c0 .822-.224 1.454-.672 1.896-.443.443-1.064.664-1.864.664zm8.329-3.008c.32.102.571.272.752.512.181.235.272.526.272.872 0 .491-.192.87-.576 1.136-.379.262-.933.392-1.664.392h-2.896v-5.6h2.736c.683 0 1.205.131 1.568.392.368.262.552.616.552 1.064 0 .272-.067.515-.2.728a1.333 1.333 0 01-.544.504zm-2.824-1.712v1.32h1.288c.32 0 .563-.056.728-.168a.56.56 0 00.248-.496c0-.218-.083-.381-.248-.488-.165-.112-.408-.168-.728-.168h-1.288zm1.512 3.648c.341 0 .597-.056.768-.168.176-.112.264-.285.264-.52 0-.464-.344-.696-1.032-.696h-1.512v1.384h1.512zm8.053-.064v1.04h-4.336v-5.6h4.232v1.04h-2.944v1.216h2.6v1.008h-2.6v1.296h3.048zm.847 2.592a7.253 7.253 0 00.736-1.8 7.67 7.67 0 00.24-1.944c0-.682-.08-1.328-.24-1.936a7.228 7.228 0 00-.736-1.808h1.192c.326.475.574 1.035.744 1.68.176.64.264 1.328.264 2.064s-.085 1.424-.256 2.064a5.458 5.458 0 01-.752 1.68h-1.192zM125.137 108.733c.62 0 1.157.104 1.61.31.46.207.814.5 1.06.88.247.38.37.83.37 1.35 0 .514-.123.964-.37 1.35-.246.38-.6.674-1.06.88-.453.2-.99.3-1.61.3h-1.41v1.93h-1.62v-7h3.03zm-.09 3.75c.487 0 .857-.103 1.11-.31.254-.213.38-.513.38-.9 0-.393-.126-.693-.38-.9-.253-.213-.623-.32-1.11-.32h-1.32v2.43h1.32zm9.247 3.25l-1.35-1.95h-1.49v1.95h-1.62v-7h3.03c.62 0 1.157.104 1.61.31.46.207.813.5 1.06.88.247.38.37.83.37 1.35 0 .52-.127.97-.38 1.35-.247.374-.6.66-1.06.86l1.57 2.25h-1.74zm-.03-4.46c0-.393-.127-.693-.38-.9-.253-.213-.623-.32-1.11-.32h-1.32v2.44h1.32c.487 0 .857-.106 1.11-.32.253-.213.38-.513.38-.9zm6.813 4.58c-.726 0-1.383-.156-1.97-.47a3.545 3.545 0 01-1.37-1.29 3.594 3.594 0 01-.49-1.86c0-.686.164-1.303.49-1.85.334-.553.79-.986 1.37-1.3a4.122 4.122 0 011.97-.47c.727 0 1.38.157 1.96.47.58.314 1.037.747 1.37 1.3.334.547.5 1.164.5 1.85 0 .687-.166 1.307-.5 1.86-.333.547-.79.977-1.37 1.29-.58.314-1.233.47-1.96.47zm0-1.38c.414 0 .787-.093 1.12-.28.334-.193.594-.46.78-.8.194-.34.29-.726.29-1.16a2.3 2.3 0 00-.29-1.16 1.97 1.97 0 00-.78-.79 2.192 2.192 0 00-1.12-.29c-.413 0-.786.097-1.12.29-.333.187-.596.45-.79.79-.186.34-.28.727-.28 1.16 0 .434.094.82.28 1.16.194.34.457.607.79.8.334.187.707.28 1.12.28zm10.278-2.35h1.48v2.84c-.38.287-.82.507-1.32.66-.5.154-1.003.23-1.51.23-.727 0-1.38-.153-1.96-.46a3.538 3.538 0 01-1.37-1.29c-.327-.553-.49-1.176-.49-1.87 0-.693.163-1.313.49-1.86a3.434 3.434 0 011.38-1.29c.587-.313 1.247-.47 1.98-.47.613 0 1.17.104 1.67.31.5.207.92.507 1.26.9l-1.04.96c-.5-.526-1.103-.79-1.81-.79-.447 0-.843.094-1.19.28-.347.187-.617.45-.81.79-.193.34-.29.73-.29 1.17 0 .434.097.82.29 1.16.193.34.46.607.8.8.347.187.74.28 1.18.28.467 0 .887-.1 1.26-.3v-2.05zm7.945 3.61l-1.35-1.95h-1.49v1.95h-1.62v-7h3.03c.62 0 1.156.104 1.61.31.46.207.813.5 1.06.88.246.38.37.83.37 1.35 0 .52-.127.97-.38 1.35-.247.374-.6.66-1.06.86l1.57 2.25h-1.74zm-.03-4.46c0-.393-.127-.693-.38-.9-.254-.213-.624-.32-1.11-.32h-1.32v2.44h1.32c.486 0 .856-.106 1.11-.32.253-.213.38-.513.38-.9zm8.033 2.96h-3.25l-.62 1.5h-1.66l3.12-7h1.6l3.13 7h-1.7l-.62-1.5zm-.51-1.23l-1.11-2.68-1.11 2.68h2.22zm10.427 2.73l-.01-4.2-2.06 3.46h-.73l-2.05-3.37v4.11h-1.52v-7h1.34l2.62 4.35 2.58-4.35h1.33l.02 7h-1.52zm10.05 0l-.01-4.2-2.06 3.46h-.73l-2.05-3.37v4.11h-1.52v-7h1.34l2.62 4.35 2.58-4.35h1.33l.02 7h-1.52zm8.291-1.5h-3.25l-.62 1.5h-1.66l3.12-7h1.6l3.13 7h-1.7l-.62-1.5zm-.51-1.23l-1.11-2.68-1.11 2.68h2.22zm5.155-2.95h-2.24v-1.32h6.1v1.32h-2.24v5.68h-1.62v-5.68zm5.231-1.32h1.62v7h-1.62v-7zm7.132 7.12a4.08 4.08 0 01-1.94-.46 3.553 3.553 0 01-1.36-1.29c-.327-.553-.49-1.176-.49-1.87 0-.693.163-1.313.49-1.86a3.466 3.466 0 011.36-1.29c.58-.313 1.23-.47 1.95-.47.606 0 1.153.107 1.64.32a3.3 3.3 0 011.24.92l-1.04.96c-.474-.546-1.06-.82-1.76-.82-.434 0-.82.097-1.16.29-.34.187-.607.45-.8.79-.187.34-.28.727-.28 1.16 0 .434.093.82.28 1.16.193.34.46.607.8.8.34.187.726.28 1.16.28.7 0 1.286-.276 1.76-.83l1.04.96a3.243 3.243 0 01-1.24.93 4.109 4.109 0 01-1.65.32zm-77.066 13.38h-3.25l-.62 1.5h-1.661l3.121-7h1.6l3.13 7h-1.7l-.62-1.5zm-.51-1.23l-1.11-2.68-1.11 2.68h2.22zm4.056-4.27h3.18c.76 0 1.43.147 2.01.44.586.287 1.04.694 1.36 1.22.326.527.49 1.14.49 1.84 0 .7-.164 1.314-.49 1.84a3.25 3.25 0 01-1.36 1.23c-.58.287-1.25.43-2.01.43h-3.18v-7zm3.1 5.67c.7 0 1.256-.193 1.67-.58.42-.393.63-.923.63-1.59 0-.666-.21-1.193-.63-1.58-.414-.393-.97-.59-1.67-.59h-1.48v4.34h1.48zm12.157-5.67l-3.03 7h-1.6l-3.02-7h1.75l2.13 5 2.16-5h1.61zm6.505 5.7v1.3h-5.42v-7h5.29v1.3h-3.68v1.52h3.25v1.26h-3.25v1.62h3.81zm6.249 1.3l-1.35-1.95h-1.49v1.95h-1.62v-7h3.03c.62 0 1.156.104 1.61.31.46.207.813.5 1.06.88.246.38.37.83.37 1.35 0 .52-.127.97-.38 1.35-.247.374-.6.66-1.06.86l1.57 2.25h-1.74zm-.03-4.46c0-.393-.127-.693-.38-.9-.254-.213-.624-.32-1.11-.32h-1.32v2.44h1.32c.486 0 .856-.106 1.11-.32.253-.213.38-.513.38-.9zm4.775-1.22h-2.24v-1.32h6.1v1.32h-2.24v5.68h-1.62v-5.68zm5.232-1.32h1.62v7h-1.62v-7zm6.081 7.12c-.553 0-1.09-.073-1.61-.22-.513-.153-.926-.35-1.24-.59l.55-1.22c.3.22.657.397 1.07.53.414.134.827.2 1.24.2.46 0 .8-.066 1.02-.2.22-.14.33-.323.33-.55a.502.502 0 00-.2-.41 1.372 1.372 0 00-.5-.27c-.2-.066-.473-.14-.82-.22-.533-.126-.97-.253-1.31-.38a2.162 2.162 0 01-.88-.61c-.24-.28-.36-.653-.36-1.12 0-.406.11-.773.33-1.1.22-.333.55-.596.99-.79.447-.193.99-.29 1.63-.29.447 0 .884.054 1.31.16.427.107.8.26 1.12.46l-.5 1.23c-.646-.366-1.293-.55-1.94-.55-.453 0-.79.074-1.01.22-.213.147-.32.34-.32.58 0 .24.124.42.37.54.254.114.637.227 1.15.34.534.127.97.254 1.31.38.34.127.63.327.87.6.247.274.37.644.37 1.11 0 .4-.113.767-.34 1.1-.22.327-.553.587-1 .78-.446.194-.99.29-1.63.29zm4.577-7.12h1.62v7h-1.62v-7zm10.201 0v7h-1.33l-3.49-4.25v4.25h-1.6v-7h1.34l3.48 4.25v-4.25h1.6zm6.887 3.39h1.48v2.84c-.38.287-.82.507-1.32.66-.5.154-1.004.23-1.51.23-.727 0-1.38-.153-1.96-.46a3.538 3.538 0 01-1.37-1.29c-.327-.553-.49-1.176-.49-1.87 0-.693.163-1.313.49-1.86a3.434 3.434 0 011.38-1.29c.586-.313 1.246-.47 1.98-.47.613 0 1.17.104 1.67.31.5.207.92.507 1.26.9l-1.04.96c-.5-.526-1.104-.79-1.81-.79-.447 0-.844.094-1.19.28-.347.187-.617.45-.81.79-.194.34-.29.73-.29 1.17 0 .434.096.82.29 1.16.193.34.46.607.8.8.346.187.74.28 1.18.28.466 0 .886-.1 1.26-.3v-2.05zm-122.478 93.61l-.01-4.2-2.06 3.46h-.73l-2.05-3.37v4.11h-1.52v-7h1.34l2.62 4.35 2.58-4.35h1.33l.02 7h-1.52zm9.1-1.3v1.3h-5.42v-7h5.29v1.3h-3.68v1.52h3.25v1.26h-3.25v1.62h3.81zm1.79-5.7h3.18c.76 0 1.43.147 2.01.44.586.287 1.04.694 1.36 1.22.326.527.489 1.14.489 1.84 0 .7-.163 1.314-.49 1.84-.32.527-.773.937-1.36 1.23-.58.287-1.25.43-2.01.43h-3.18v-7zm3.1 5.67c.7 0 1.256-.193 1.67-.58.42-.393.63-.923.63-1.59 0-.666-.21-1.193-.63-1.58-.414-.393-.97-.59-1.67-.59h-1.48v4.34h1.48zm5.661-5.67h1.62v7h-1.62v-7zm8.391 5.5h-3.25l-.62 1.5h-1.66l3.12-7h1.6l3.13 7h-1.7l-.62-1.5zm-.51-1.23l-1.11-2.68-1.11 2.68h2.22zm-30.213 14.09c.4.127.714.34.94.64.227.294.34.657.34 1.09 0 .614-.24 1.087-.72 1.42-.473.327-1.166.49-2.08.49h-3.62v-7h3.42c.854 0 1.507.164 1.96.49.46.327.69.77.69 1.33 0 .34-.083.644-.25.91-.16.267-.386.477-.68.63zm-3.53-2.14v1.65h1.61c.4 0 .704-.07.91-.21.207-.14.31-.346.31-.62 0-.273-.103-.476-.31-.61-.206-.14-.51-.21-.91-.21h-1.61zm1.89 4.56c.427 0 .747-.07.96-.21.22-.14.33-.356.33-.65 0-.58-.43-.87-1.29-.87h-1.89v1.73h1.89zm7.757 1.34c-1 0-1.78-.276-2.34-.83-.554-.553-.83-1.343-.83-2.37v-3.92h1.62v3.86c0 1.254.52 1.88 1.56 1.88.506 0 .893-.15 1.16-.45.266-.306.4-.783.4-1.43v-3.86h1.6v3.92c0 1.027-.28 1.817-.84 2.37-.554.554-1.33.83-2.33.83zm8.533-2.6v2.48h-1.62v-2.5l-2.71-4.5h1.72l1.87 3.11 1.87-3.11h1.59l-2.72 4.52zm3.83-4.52h1.62v7h-1.62v-7zm10.201 0v7h-1.33l-3.49-4.25v4.25h-1.6v-7h1.34l3.48 4.25v-4.25h1.6zm6.886 3.39h1.48v2.84c-.38.287-.82.507-1.32.66-.5.154-1.003.23-1.51.23-.727 0-1.38-.153-1.96-.46a3.538 3.538 0 01-1.37-1.29c-.327-.553-.49-1.176-.49-1.87 0-.693.163-1.313.49-1.86a3.434 3.434 0 011.38-1.29c.587-.313 1.247-.47 1.98-.47.613 0 1.17.104 1.67.31.5.207.92.507 1.26.9l-1.04.96c-.5-.526-1.103-.79-1.81-.79-.447 0-.843.094-1.19.28-.347.187-.617.45-.81.79-.193.34-.29.73-.29 1.17 0 .434.097.82.29 1.16.193.34.46.607.8.8.347.187.74.28 1.18.28.467 0 .887-.1 1.26-.3v-2.05zm9.388 92.11h-3.25l-.62 1.5h-1.66l3.12-7h1.6l3.13 7h-1.7l-.62-1.5zm-.51-1.23l-1.11-2.68-1.11 2.68h2.22zm5.676-2.97v1.85h3.24v1.3h-3.24v2.55h-1.62v-7h5.29v1.3h-3.67zm6.887 0v1.85h3.24v1.3h-3.24v2.55h-1.62v-7h5.29v1.3h-3.67zm5.266-1.3h1.62v7h-1.62v-7zm3.782 0h1.62v5.68h3.51v1.32h-5.13v-7zm6.535 0h1.62v7h-1.62v-7zm8.391 5.5h-3.25l-.62 1.5h-1.66l3.12-7h1.6l3.13 7h-1.7l-.62-1.5zm-.51-1.23l-1.11-2.68-1.11 2.68h2.22zm5.155-2.95h-2.24v-1.32h6.1v1.32h-2.24v5.68h-1.62v-5.68zm10.651 4.38v1.3h-5.42v-7h5.29v1.3h-3.68v1.52h3.25v1.26h-3.25v1.62h3.81zm-58.239 16.3l-.01-4.2-2.06 3.46h-.73l-2.05-3.37v4.11h-1.52v-7h1.34l2.62 4.35 2.58-4.35h1.33l.02 7h-1.52zm8.291-1.5h-3.25l-.62 1.5h-1.66l3.12-7h1.6l3.13 7h-1.7l-.62-1.5zm-.51-1.23l-1.11-2.68-1.11 2.68h2.22zm10.476-4.27v7h-1.33l-3.49-4.25v4.25h-1.6v-7h1.34l3.48 4.25v-4.25h1.6zm6.766 5.5h-3.25l-.62 1.5h-1.66l3.12-7h1.6l3.13 7h-1.7l-.62-1.5zm-.51-1.23l-1.11-2.68-1.11 2.68h2.22zm8.689-.88h1.48v2.84c-.38.287-.82.507-1.32.66-.5.154-1.004.23-1.51.23-.727 0-1.38-.153-1.96-.46a3.538 3.538 0 01-1.37-1.29c-.327-.553-.49-1.176-.49-1.87 0-.693.163-1.313.49-1.86a3.434 3.434 0 011.38-1.29c.586-.313 1.246-.47 1.98-.47.613 0 1.17.104 1.67.31.5.207.92.507 1.26.9l-1.04.96c-.5-.526-1.104-.79-1.81-.79-.447 0-.844.094-1.19.28-.347.187-.617.45-.81.79-.194.34-.29.73-.29 1.17 0 .434.096.82.29 1.16.193.34.46.607.8.8.346.187.74.28 1.18.28.466 0 .886-.1 1.26-.3v-2.05zm9.855 3.61l-.01-4.2-2.06 3.46h-.73l-2.05-3.37v4.11h-1.52v-7h1.34l2.62 4.35 2.58-4.35h1.33l.02 7h-1.52zm9.1-1.3v1.3h-5.42v-7h5.29v1.3h-3.68v1.52h3.25v1.26h-3.25v1.62h3.81zm8.209-5.7v7h-1.33l-3.49-4.25v4.25h-1.6v-7h1.34l3.48 4.25v-4.25h1.6zm3.606 1.32h-2.24v-1.32h6.1v1.32h-2.24v5.68h-1.62v-5.68z" fill="#fff"/><circle cx="221.5" cy="230.233" r="79.5" fill="#3D4254"/><circle cx="574" cy="93.733" r="89.659" fill="#3D4254" stroke="#23A873" stroke-width="6.682"/><circle cx="574" cy="366.733" r="89.659" fill="#263238" stroke="#82D700" stroke-width="6.682"/><g clip-path="url(#clip0)"><path d="M577.496 82.533a2.81 2.81 0 012.82-2.8h48.632c.885 0 1.718.412 2.251 1.113l8.4 11.045a2.786 2.786 0 01-.153 3.56l-10.282 11.354a2.826 2.826 0 01-2.096.928h-46.752a2.81 2.81 0 01-2.82-2.8v-22.4z" fill="url(#paint0_linear)"/><path d="M587.426 86.733a2.81 2.81 0 012.819-2.8h35.951c.888 0 1.723.415 2.256 1.12l5.17 6.846a2.785 2.785 0 01-.152 3.545l-6.433 7.154c-.535.595-1.3.935-2.103.935h-34.689a2.81 2.81 0 01-2.819-2.8v-14z" fill="url(#paint1_linear)"/><path d="M525.408 101.083H512.1V82.407h13.308v3.5h-9.304v3.948h9.107v3.5h-9.107v4.228h9.304v3.5z" fill="url(#paint2_linear)"/><path d="M525.408 101.083H512.1V82.407h13.308v3.5h-9.304v3.948h9.107v3.5h-9.107v4.228h9.304v3.5z" fill="#fff"/><path d="M536.545 101.083h-3.736l5.343-13.524h3.863l-5.47 13.524z" fill="url(#paint3_linear)"/><path d="M536.545 101.083h-3.736l5.343-13.524h3.863l-5.47 13.524z" fill="#fff"/><path d="M533.085 92.956l-1.875 4.802-3.997-10.199h3.835l2.037 5.397z" fill="url(#paint4_linear)"/><path d="M533.085 92.956l-1.875 4.802-3.997-10.199h3.835l2.037 5.397z" fill="#fff"/><path fill-rule="evenodd" clip-rule="evenodd" d="M549.93 101.419c2.181 0 3.929-.681 5.245-2.044 1.316-1.38 1.974-3.07 1.974-5.068 0-1.997-.658-3.677-1.974-5.04-1.316-1.362-3.064-2.044-5.245-2.044-2.18 0-3.928.682-5.244 2.044-1.297 1.363-1.946 3.043-1.946 5.04 0 1.998.649 3.687 1.946 5.068 1.316 1.363 3.064 2.044 5.244 2.044zm0-3.164c-1.071 0-1.917-.373-2.537-1.12-.621-.765-.931-1.708-.931-2.828 0-1.1.31-2.025.931-2.772.62-.765 1.466-1.148 2.537-1.148 1.072 0 1.918.383 2.538 1.148.639.747.959 1.671.959 2.772 0 1.12-.32 2.063-.959 2.828-.62.747-1.466 1.12-2.538 1.12z" fill="url(#paint5_linear)"/><path fill-rule="evenodd" clip-rule="evenodd" d="M549.93 101.419c2.181 0 3.929-.681 5.245-2.044 1.316-1.38 1.974-3.07 1.974-5.068 0-1.997-.658-3.677-1.974-5.04-1.316-1.362-3.064-2.044-5.245-2.044-2.18 0-3.928.682-5.244 2.044-1.297 1.363-1.946 3.043-1.946 5.04 0 1.998.649 3.687 1.946 5.068 1.316 1.363 3.064 2.044 5.244 2.044zm0-3.164c-1.071 0-1.917-.373-2.537-1.12-.621-.765-.931-1.708-.931-2.828 0-1.1.31-2.025.931-2.772.62-.765 1.466-1.148 2.537-1.148 1.072 0 1.918.383 2.538 1.148.639.747.959 1.671.959 2.772 0 1.12-.32 2.063-.959 2.828-.62.747-1.466 1.12-2.538 1.12z" fill="#fff"/><path d="M563.386 101.083h-3.581V82.407h3.581v18.676z" fill="url(#paint6_linear)"/><path d="M563.386 101.083h-3.581V82.407h3.581v18.676z" fill="#fff"/><path fill-rule="evenodd" clip-rule="evenodd" d="M587.794 101.419c-2.105 0-3.844-.653-5.216-1.96-1.373-1.306-2.058-3.024-2.058-5.152 0-1.997.657-3.677 1.973-5.04 1.335-1.362 3.027-2.044 5.076-2.044 2.03 0 3.674.691 4.934 2.072 1.259 1.363 1.889 3.155 1.889 5.376v.784H584.27a3.42 3.42 0 001.212 2.24c.696.598 1.598.896 2.707.896.601 0 1.25-.12 1.946-.364.714-.242 1.278-.569 1.691-.98l1.579 2.296c-1.372 1.251-3.242 1.876-5.611 1.876zm3.13-8.372c-.056-.765-.366-1.456-.93-2.072-.546-.616-1.354-.924-2.425-.924-1.015 0-1.805.308-2.369.924a3.574 3.574 0 00-.987 2.072h6.711z" fill="url(#paint7_linear)"/><path fill-rule="evenodd" clip-rule="evenodd" d="M587.794 101.419c-2.105 0-3.844-.653-5.216-1.96-1.373-1.306-2.058-3.024-2.058-5.152 0-1.997.657-3.677 1.973-5.04 1.335-1.362 3.027-2.044 5.076-2.044 2.03 0 3.674.691 4.934 2.072 1.259 1.363 1.889 3.155 1.889 5.376v.784H584.27a3.42 3.42 0 001.212 2.24c.696.598 1.598.896 2.707.896.601 0 1.25-.12 1.946-.364.714-.242 1.278-.569 1.691-.98l1.579 2.296c-1.372 1.251-3.242 1.876-5.611 1.876zm3.13-8.372c-.056-.765-.366-1.456-.93-2.072-.546-.616-1.354-.924-2.425-.924-1.015 0-1.805.308-2.369.924a3.574 3.574 0 00-.987 2.072h6.711z" fill="#fff"/><path d="M574.562 101.083h-3.736l5.343-13.524h3.863l-5.47 13.524z" fill="url(#paint8_linear)"/><path d="M574.562 101.083h-3.736l5.343-13.524h3.863l-5.47 13.524z" fill="#fff"/><path d="M571.101 92.956l-1.876 4.802-3.996-10.199h3.834l2.038 5.397z" fill="url(#paint9_linear)"/><path d="M571.101 92.956l-1.876 4.802-3.996-10.199h3.834l2.038 5.397zm35.214 6.229c-1.162 0-2.03-.426-2.605-1.277l-.237 1.075h-2.149l2.487-11.205h2.149l-.914 4.099c.688-.806 1.512-1.21 2.47-1.21.936 0 1.686.297 2.25.89.564.594.846 1.418.846 2.47a6.15 6.15 0 01-.49 2.42 4.675 4.675 0 01-1.489 1.948c-.666.527-1.438.79-2.318.79zm-.355-1.898c.699 0 1.274-.275 1.725-.824.452-.56.677-1.226.677-1.999 0-.571-.169-1.03-.507-1.377-.339-.348-.773-.521-1.303-.521-.722 0-1.348.325-1.878.974l-.626 2.823c.406.616 1.043.924 1.912.924zm9.49 1.898c-1.297 0-2.329-.325-3.096-.974-.755-.65-1.133-1.54-1.133-2.672 0-1.344.451-2.492 1.353-3.444.902-.952 2.025-1.428 3.367-1.428 1.071 0 1.951.33 2.639.992.688.65 1.032 1.528 1.032 2.637 0 .515-.056.952-.169 1.31h-6.074v.202c0 .403.198.784.592 1.143.406.358.953.537 1.641.537.846 0 1.534-.201 2.064-.605l.677 1.462c-.823.56-1.787.84-2.893.84zm-1.861-5.023h4.094v-.168c0-.448-.163-.829-.49-1.143-.316-.324-.778-.487-1.388-.487-.552 0-1.037.185-1.454.555-.406.358-.66.772-.762 1.243zm9.604 5.023c-.756 0-1.353-.146-1.793-.437-.429-.302-.643-.745-.643-1.327 0-.19.023-.375.068-.554l.913-4.15h-1.353l.423-1.848h1.353l.491-2.218h2.165l-.49 2.218h1.658l-.44 1.848h-1.658l-.778 3.528a2.05 2.05 0 00-.034.336c0 .47.265.706.795.706.259 0 .457-.056.592-.168l.085 1.713c-.35.235-.801.353-1.354.353z" fill="#fff"/></g><g clip-path="url(#clip1)"><path d="M576.878 361.441a.452.452 0 01.545.44v16.399c0 .249-.203.45-.453.45h-4.863a.395.395 0 01-.397-.393c0-.352-.448-.542-.738-.338a5.364 5.364 0 01-1.122.6 6.477 6.477 0 01-2.258.392c-1.842 0-3.322-.548-4.438-1.645-1.116-1.114-1.674-2.785-1.674-5.013v-6.84c0-.207.144-.388.347-.437l5.099-1.219a.452.452 0 01.559.437v7.041c0 .975.16 1.671.479 2.089.319.417.788.626 1.408.626.585 0 1.072-.226 1.461-.679.39-.47.585-1.201.585-2.193v-8.235a.45.45 0 01.362-.44l5.098-1.042zm13.13-2.135c.882.092 2.285.356 3.348.965 1.081.592 1.931 1.454 2.551 2.585.638 1.131.957 2.437.957 3.916 0 1.48-.319 2.785-.957 3.917a6.573 6.573 0 01-2.551 2.585c-1.063.591-2.232.887-3.507.887-1.131 0-2.074-.201-2.83-.603-.353-.188-.864.041-.864.439v3.675a.45.45 0 01-.38.443l-5.099.82a.452.452 0 01-.526-.443v-17.559c0-.211.146-.393.353-.438 1.085-.237 4.359-.948 5.36-1.097 1.206-.18 3.263-.184 4.145-.092zm-1.594 10.26c.691 0 1.641-.244 2.083-.731.443-.487.732-1.175.732-2.063 0-.887-.289-1.575-.732-2.062-.442-.505-1.392-.757-2.083-.757-.691 0-1.258.252-1.701.757-.442.487-.664 1.175-.664 2.062 0 .888.222 1.576.664 2.063.443.487 1.01.731 1.701.731zm-65.013-8.129a.452.452 0 01.542.44v16.403c0 .249-.203.45-.454.45h-4.863a.394.394 0 01-.396-.393c0-.352-.449-.542-.739-.338a5.356 5.356 0 01-1.121.6 6.483 6.483 0 01-2.259.392c-1.842 0-3.321-.548-4.437-1.645-1.116-1.114-1.674-2.785-1.674-5.013v-7.037a.45.45 0 01.362-.44l5.098-1.042a.453.453 0 01.545.44v7.061c0 .975.16 1.671.478 2.089.319.417.789.626 1.409.626.584 0 1.071-.226 1.461-.679.39-.47.585-1.201.585-2.193v-8.273a.45.45 0 01.364-.441l5.099-1.007zm13.003-2.131c.882.092 2.286.356 3.349.965 1.08.592 1.931 1.454 2.551 2.585.637 1.131.956 2.437.956 3.916 0 1.48-.319 2.785-.956 3.917a6.58 6.58 0 01-2.551 2.585c-1.063.591-2.232.887-3.508.887-1.13 0-2.074-.201-2.829-.603-.353-.188-.864.041-.864.439v3.675a.45.45 0 01-.381.443l-5.098.82a.451.451 0 01-.526-.443v-17.559c0-.211.145-.393.352-.438 1.085-.237 4.36-.948 5.361-1.097 1.206-.18 3.262-.184 4.144-.092zm-1.593 10.26c.69 0 1.64-.244 2.083-.731.443-.487.731-1.175.731-2.063 0-.887-.288-1.575-.731-2.062-.443-.505-1.393-.757-2.083-.757-.691 0-1.258.252-1.701.757-.443.487-.664 1.175-.664 2.062 0 .888.221 1.576.664 2.063.443.487 1.01.731 1.701.731z" fill="#fff"/><path fill-rule="evenodd" clip-rule="evenodd" d="M561.699 360.502a.973.973 0 01.76-1.151l.201.953.2.952a.98.98 0 01-1.161-.754zm24.522-5.064l.2.953-23.561 4.865-.2-.952-.201-.953 23.561-4.865.201.952zm0 0l.2.953a.973.973 0 00.761-1.151.982.982 0 00-1.162-.754l.201.952zm-70.767 29.331a.974.974 0 01.761-1.151l.201.953.2.952a.982.982 0 01-1.162-.754zm24.523-5.064l.2.953-23.561 4.865-.2-.952-.201-.953 23.561-4.865.201.952zm0 0l.2.953a.973.973 0 00.761-1.151.982.982 0 00-1.162-.754l.201.952z" fill="#fff"/><path d="M598.084 379.02c-.874 0-1.602-.258-2.184-.775-.568-.53-.851-1.204-.851-2.022 0-.817.283-1.477.851-1.979.582-.516 1.31-.775 2.184-.775.873 0 1.594.259 2.161.775.582.502.874 1.162.874 1.979 0 .818-.292 1.492-.874 2.022-.567.517-1.288.775-2.161.775zm13.031-12.198c1.103 0 2.115.251 3.035.753a5.362 5.362 0 012.207 2.13c.552.917.828 1.986.828 3.205s-.276 2.295-.828 3.227a5.515 5.515 0 01-2.207 2.151c-.92.488-1.932.732-3.035.732-1.22 0-2.193-.245-2.918-.735-.208-.14-.531-.005-.531.244a.277.277 0 01-.278.276h-4.212a.452.452 0 01-.453-.45v-14.323a.45.45 0 01.383-.444l4.289-.665a.452.452 0 01.524.444v3.439c0 .391.501.626.859.459.634-.296 1.413-.443 2.337-.443zm-1.242 8.411c.598 0 1.088-.2 1.472-.602.383-.416.574-.99.574-1.721 0-.731-.191-1.298-.574-1.7-.384-.401-.874-.602-1.472-.602s-1.088.201-1.471.602c-.384.402-.575.969-.575 1.7s.191 1.305.575 1.721c.383.402.873.602 1.471.602zm22.327-2.323c0 .056-.013.296-.041.72a.45.45 0 01-.452.42h-7.637c-.322 0-.536.328-.327.571.157.181.348.335.571.462.429.229.965.344 1.61.344.552 0 1.011-.064 1.379-.194.293-.098.603-.251.931-.458a.478.478 0 01.583.048l2.11 1.992a.418.418 0 01.001.623c-1.216 1.055-2.937 1.582-5.166 1.582-1.517 0-2.85-.258-4-.775-1.149-.53-2.039-1.262-2.667-2.194-.628-.932-.943-1.979-.943-3.141 0-1.176.307-2.223.92-3.141.628-.932 1.48-1.657 2.552-2.173 1.088-.516 2.307-.774 3.655-.774 1.274 0 2.431.236 3.473.71 1.057.473 1.893 1.169 2.506 2.086.628.918.942 2.015.942 3.292zm-6.874-2.775c-.537 0-.981.136-1.334.409-.218.168-.389.38-.513.636-.125.258.095.525.384.525h2.924c.288 0 .508-.269.379-.526a1.785 1.785 0 00-.506-.614c-.353-.287-.798-.43-1.334-.43zm17.646 7.895a.413.413 0 01-.22.532c-.739.305-1.686.458-2.841.458-1.763 0-3.119-.395-4.069-1.183-.951-.804-1.426-2.001-1.426-3.593v-2.563a.451.451 0 00-.454-.449h-.817a.451.451 0 01-.454-.449v-2.651c0-.249.203-.45.454-.45h.817a.451.451 0 00.454-.449v-1.728a.45.45 0 01.39-.445l4.29-.597a.452.452 0 01.516.445v2.325c0 .248.203.449.454.449h1.667c.251 0 .454.201.454.45v2.651a.451.451 0 01-.454.449h-1.667a.451.451 0 00-.454.449v2.52c0 .358.099.638.299.839.199.201.46.301.781.301.235 0 .454-.03.659-.09.279-.081.609.025.708.296l.913 2.483zm-107.154-30.985c.411-.594.953-.914 2.03-1.198.373-.098.411-.094 1.101.113.393.118.842.27.998.337.266.116.642.482.865.841.055.087.244.325.422.529.389.445.543.736.492.928-.022.087.077.339.253.641.16.273.281.532.27.574-.011.043.019.182.067.31.076.201.067.285-.061.618l-.15.387.329.033c.534.055 3.113.742 3.558.947.223.104.628.276.898.382l.985.39c.27.107.692.273.937.367.245.095.527.248.626.34a.943.943 0 00.299.197c.066.017.265.136.443.263.178.128.484.343.68.477.196.135.419.306.495.381.077.076.272.227.433.338.161.11.303.23.315.267.013.036.134.183.27.327.135.143.309.348.386.455.266.373 2.053 2.144 2.407 2.387.196.134.476.33.622.436.145.106.421.258.612.338.191.08.501.219.689.31.189.091.498.234.688.318.668.296.971.447 1.178.586.114.078.364.207.555.289.631.269.968.435 1.303.643.182.113.441.269.575.346.134.078.39.268.57.423.18.156.366.293.415.306.048.012.203.147.346.3.142.153.295.288.341.299.045.012.161.136.258.275.097.14.219.268.273.285.053.017.228.191.389.386.89 1.077.989 1.129 1.182 1.371.193.243.926 1.559.926 1.559.112.233.119.335.041.631-.075.286-.147.402-.378.609-.347.31-1.696 1.1-2.183 1.279a3.705 3.705 0 00-.498.218c-.08.048-.393.193-.697.322-.304.13-.592.258-.641.286-.05.028-.311.136-.582.241-.27.104-.831.328-1.245.496-.415.169-.855.331-.979.36-.383.091-3.183 1.757-3.852 2.293-.347.278-.642.546-.655.595-.013.048.015.19.062.315s.059.291.026.369c-.077.183-.489.271-.852.182-.246-.06-.311-.041-.627.186-.195.139-.362.284-.372.322-.01.038-.14.19-.29.337-.81.801-.834.829-1.421 1.688-.439.641-.703.814-1.092.713a1.288 1.288 0 01-.453-.223c-.333-.3-.464-.938-.496-2.417-.01-.462.395-1.485.686-1.732a.71.71 0 00.205-.284c.02-.076.165-.288.321-.469.254-.295.754-1.055 1.197-1.819.178-.306.532-.625.713-.642.065-.006.211-.045.324-.087.159-.059.329-.045.742.062.295.076.587.186.65.244.246.228.78.048 1.178-.398.13-.145.461-.393.737-.55.275-.158.513-.332.527-.389.036-.136.45-.387.583-.353.241.062 1.567-.892 1.643-1.183.014-.054.181-.264.371-.465.19-.202.341-.405.336-.453-.005-.052-.305-.196-.766-.368-1.041-.388-1.1-.412-1.413-.583a9.327 9.327 0 00-.558-.277 2.355 2.355 0 01-.52-.341c-.43-.387-.778-.581-1.113-.62-.172-.02-.495-.066-.716-.102-.485-.078-.637-.012-.781.34-.217.529-.446 1.03-.596 1.302a9.461 9.461 0 00-.279.562c-.07.156-.187.348-.26.426-.073.077-.19.253-.259.39-.07.137-.188.36-.264.496a8.791 8.791 0 00-.289.593c-.454 1.033-.612 1.301-.942 1.598-.127.115-.242.25-.255.3-.028.108-.772.572-1.2.748a5.51 5.51 0 00-.581.289c-.326.192-.739.33-.883.293-.118-.03-.688.225-.713.319-.032.124-.58.556-1.122.885-.589.357-.704.466-.969.916-.107.18-.297.371-.481.484-.813.497-2.305 1.878-2.393 2.215-.013.048-.138.167-.277.265-.14.098-.264.209-.275.246-.041.133-.724.462-.929.448-.687-.048-1.02-.435-1.077-1.25-.046-.677.215-1.728.552-2.215.124-.18.24-.381.257-.446.041-.155.866-.884 1.299-1.149.185-.113.49-.34.678-.504.187-.165.418-.34.513-.389.095-.049.18-.118.189-.153.026-.101.961-.825 1.236-.957.137-.065.316-.102.399-.081.102.027.31-.068.65-.294.501-.334.608-.469.845-1.065.089-.224.188-.32.543-.529.285-.168.54-.259.746-.268.172-.007.357-.034.412-.06.137-.065.196-.33.159-.719a4.048 4.048 0 01.015-.7c.025-.207.044-.519.043-.693-.002-.175.09-.72.203-1.212.121-.522.186-.94.157-1.003l-.155-1.753c-.085-.262-.145-.515-.132-.563.021-.08-.05-.549-.213-1.405-.069-.369-.42-.928-.665-1.061-.497-.268-.869-.423-1.627-.677-.932-.311-2.054-.696-3.215-1.101-1.887-.659-1.705-.619-1.981-.447-.135.084-.268.147-.295.14-.027-.007-.215.039-.417.103a4.733 4.733 0 01-.747.159c-.209.024-.551.066-.761.094-.209.027-.64.077-.957.111-.318.033-.708.078-.868.099-.159.021-.563-.004-.896-.056-.955-.149-3.025-.644-3.194-.764-.084-.059-.36-.181-.614-.271l-.463-.164-.753.405-.075.442c-.154.903-.172.96-.307 1.004-.2.066-.351-.214-.275-.51.074-.289-.165-.964-.359-1.014-.077-.02-.287.095-.545.299-.858.679-1.187.81-1.346.536-.106-.18.012-.364.455-.713.47-.37.582-.554.37-.609-.124-.031-.762.061-1.168.169-.513.138-.664.15-.816.067-.101-.055-.148-.132-.127-.211.037-.139.584-.489.714-.455.082.021.825-.174 1.13-.297.241-.097.143-.316-.203-.454-.304-.121-.703-.45-.801-.661-.097-.208.086-.333.352-.239 1.085.384 1.087.385 1.297.269.114-.062.207-.17.217-.249.013-.117-.033-.152-.285-.217-.704-.181-.555-.732.177-.654 1.251.134 1.564.3 2.072 1.098.121.191.179.218.826.384.485.124.795.168 1.021.145.178-.018.522-.006.763.028.585.082.946.087 1.236.02.142-.033.394-.017.62.041.56.143.848.09 1.518-.281.332-.183.743-.395.914-.471.364-.162.669-.586.607-.845a1.059 1.059 0 01.03-.405c.102-.389.022-.919-.23-1.524-.261-.627-.448-.91-.718-1.094-.386-.261-.973-.925-1.228-1.389-.629-1.143-.675-1.847-.167-2.581z" fill="#82D700"/></g><rect x="802.5" y="287.233" width="325" height="75" rx="37.5" fill="#263238" stroke="#A0A0A0" stroke-width="5"/><rect x="802.5" y="10.233" width="325" height="75" rx="37.5" fill="#3D4254" stroke="#23A873" stroke-width="5"/><rect x="802.5" y="371.233" width="325" height="75" rx="37.5" fill="#263238" stroke="#A0A0A0" stroke-width="5"/><rect x="802.5" y="98.233" width="325" height="75" rx="37.5" fill="#3D4254" stroke="#23A873" stroke-width="5"/><path d="M862.083 318.733c1.24 0 2.314.207 3.22.62.92.414 1.627 1 2.12 1.76.494.76.74 1.66.74 2.7 0 1.027-.246 1.927-.74 2.7-.493.76-1.2 1.347-2.12 1.76-.906.4-1.98.6-3.22.6h-2.82v3.86h-3.24v-14h6.06zm-.18 7.5c.974 0 1.714-.206 2.22-.62.507-.426.76-1.026.76-1.8 0-.786-.253-1.386-.76-1.8-.506-.426-1.246-.64-2.22-.64h-2.64v4.86h2.64zm18.09 3.5h-6.5l-1.24 3h-3.32l6.24-14h3.2l6.26 14h-3.4l-1.24-3zm-1.02-2.46l-2.22-5.36-2.22 5.36h4.44zm17.033 5.46l-2.7-3.9h-2.98v3.9h-3.24v-14h6.06c1.24 0 2.313.207 3.22.62.92.414 1.626 1 2.12 1.76.493.76.74 1.66.74 2.7 0 1.04-.254 1.94-.76 2.7-.494.747-1.2 1.32-2.12 1.72l3.14 4.5h-3.48zm-.06-8.92c0-.786-.254-1.386-.76-1.8-.507-.426-1.247-.64-2.22-.64h-2.64v4.88h2.64c.973 0 1.713-.213 2.22-.64.506-.426.76-1.026.76-1.8zm9.552-2.44h-4.48v-2.64h12.2v2.64h-4.48v11.36h-3.24v-11.36zm23.303-2.64v14h-2.66l-6.98-8.5v8.5h-3.2v-14h2.68l6.96 8.5v-8.5h3.2zm15.152 11.4v2.6h-10.84v-14h10.58v2.6h-7.36v3.04h6.5v2.52h-6.5v3.24h7.62zm12.498 2.6l-2.7-3.9h-2.98v3.9h-3.24v-14h6.06c1.24 0 2.313.207 3.22.62.92.414 1.627 1 2.12 1.76.493.76.74 1.66.74 2.7 0 1.04-.253 1.94-.76 2.7-.493.747-1.2 1.32-2.12 1.72l3.14 4.5h-3.48zm-.06-8.92c0-.786-.253-1.386-.76-1.8-.507-.426-1.247-.64-2.22-.64h-2.64v4.88h2.64c.973 0 1.713-.213 2.22-.64.507-.426.76-1.026.76-1.8zm11.447 9.16c-1.107 0-2.18-.146-3.22-.44-1.027-.306-1.853-.7-2.48-1.18l1.1-2.44c.6.44 1.313.794 2.14 1.06.827.267 1.653.4 2.48.4.92 0 1.6-.133 2.04-.4.44-.28.66-.646.66-1.1 0-.333-.133-.606-.4-.82-.253-.226-.587-.406-1-.54-.4-.133-.947-.28-1.64-.44-1.067-.253-1.94-.506-2.62-.76a4.327 4.327 0 01-1.76-1.22c-.48-.56-.72-1.306-.72-2.24 0-.813.22-1.546.66-2.2.44-.666 1.1-1.193 1.98-1.58.893-.386 1.98-.58 3.26-.58.893 0 1.767.107 2.62.32.853.214 1.6.52 2.24.92l-1 2.46c-1.293-.733-2.587-1.1-3.88-1.1-.907 0-1.58.147-2.02.44-.427.294-.64.68-.64 1.16 0 .48.247.84.74 1.08.507.227 1.273.454 2.3.68 1.067.254 1.94.507 2.62.76.68.254 1.26.654 1.74 1.2.493.547.74 1.287.74 2.22 0 .8-.227 1.534-.68 2.2-.44.654-1.107 1.174-2 1.56-.893.387-1.98.58-3.26.58z" fill="#FCFDFF"/><path d="M989.876 332.973c-2 0-3.56-.553-4.68-1.66-1.107-1.106-1.66-2.686-1.66-4.74v-7.84h3.24v7.72c0 2.507 1.04 3.76 3.12 3.76 1.013 0 1.787-.3 2.32-.9.533-.613.8-1.566.8-2.86v-7.72h3.2v7.84c0 2.054-.56 3.634-1.68 4.74-1.107 1.107-2.66 1.66-4.66 1.66zm16.604-14.24c1.24 0 2.31.207 3.22.62.92.414 1.62 1 2.12 1.76.49.76.74 1.66.74 2.7 0 1.027-.25 1.927-.74 2.7-.5.76-1.2 1.347-2.12 1.76-.91.4-1.98.6-3.22.6h-2.82v3.86h-3.24v-14h6.06zm-.18 7.5c.97 0 1.71-.206 2.22-.62.5-.426.76-1.026.76-1.8 0-.786-.26-1.386-.76-1.8-.51-.426-1.25-.64-2.22-.64h-2.64v4.86h2.64zm15.73 6.74c-2 0-3.56-.553-4.68-1.66-1.1-1.106-1.66-2.686-1.66-4.74v-7.84h3.24v7.72c0 2.507 1.04 3.76 3.12 3.76 1.02 0 1.79-.3 2.32-.9.54-.613.8-1.566.8-2.86v-7.72h3.2v7.84c0 2.054-.56 3.634-1.68 4.74-1.1 1.107-2.66 1.66-4.66 1.66zm16.6-14.24c1.24 0 2.32.207 3.22.62.92.414 1.63 1 2.12 1.76.5.76.74 1.66.74 2.7 0 1.027-.24 1.927-.74 2.7-.49.76-1.2 1.347-2.12 1.76-.9.4-1.98.6-3.22.6h-2.82v3.86h-3.24v-14h6.06zm-.18 7.5c.98 0 1.72-.206 2.22-.62.51-.426.76-1.026.76-1.8 0-.786-.25-1.386-.76-1.8-.5-.426-1.24-.64-2.22-.64h-2.64v4.86h2.64z" fill="#fff"/><path d="M1058.5 325.453c.8.254 1.43.68 1.88 1.28.46.587.68 1.314.68 2.18 0 1.227-.48 2.174-1.44 2.84-.94.654-2.33.98-4.16.98h-7.24v-14h6.84c1.71 0 3.02.327 3.92.98.92.654 1.38 1.54 1.38 2.66 0 .68-.16 1.287-.5 1.82-.32.534-.77.954-1.36 1.26zm-7.06-4.28v3.3h3.22c.8 0 1.41-.14 1.82-.42.42-.28.62-.693.62-1.24 0-.546-.2-.953-.62-1.22-.41-.28-1.02-.42-1.82-.42h-3.22zm3.78 9.12c.86 0 1.5-.14 1.92-.42.44-.28.66-.713.66-1.3 0-1.16-.86-1.74-2.58-1.74h-3.78v3.46h3.78zm20.14-.16v2.6h-10.84v-14h10.58v2.6h-7.36v3.04h6.5v2.52h-6.5v3.24h7.62zm6.47-8.76h-4.48v-2.64h12.2v2.64h-4.48v11.36h-3.24v-11.36z" fill="#82D700"/><path d="M862.083 402.733c1.24 0 2.314.207 3.22.62.92.414 1.627 1 2.12 1.76.494.76.74 1.66.74 2.7 0 1.027-.246 1.927-.74 2.7-.493.76-1.2 1.347-2.12 1.76-.906.4-1.98.6-3.22.6h-2.82v3.86h-3.24v-14h6.06zm-.18 7.5c.974 0 1.714-.206 2.22-.62.507-.426.76-1.026.76-1.8 0-.786-.253-1.386-.76-1.8-.506-.426-1.246-.64-2.22-.64h-2.64v4.86h2.64zm18.09 3.5h-6.5l-1.24 3h-3.32l6.24-14h3.2l6.26 14h-3.4l-1.24-3zm-1.02-2.46l-2.22-5.36-2.22 5.36h4.44zm17.033 5.46l-2.7-3.9h-2.98v3.9h-3.24v-14h6.06c1.24 0 2.313.207 3.22.62.92.414 1.626 1 2.12 1.76.493.76.74 1.66.74 2.7 0 1.04-.254 1.94-.76 2.7-.494.747-1.2 1.32-2.12 1.72l3.14 4.5h-3.48zm-.06-8.92c0-.786-.254-1.386-.76-1.8-.507-.426-1.247-.64-2.22-.64h-2.64v4.88h2.64c.973 0 1.713-.213 2.22-.64.506-.426.76-1.026.76-1.8zm9.552-2.44h-4.48v-2.64h12.2v2.64h-4.48v11.36h-3.24v-11.36zm23.303-2.64v14h-2.66l-6.98-8.5v8.5h-3.2v-14h2.68l6.96 8.5v-8.5h3.2zm15.152 11.4v2.6h-10.84v-14h10.58v2.6h-7.36v3.04h6.5v2.52h-6.5v3.24h7.62zm12.498 2.6l-2.7-3.9h-2.98v3.9h-3.24v-14h6.06c1.24 0 2.313.207 3.22.62.92.414 1.627 1 2.12 1.76.493.76.74 1.66.74 2.7 0 1.04-.253 1.94-.76 2.7-.493.747-1.2 1.32-2.12 1.72l3.14 4.5h-3.48zm-.06-8.92c0-.786-.253-1.386-.76-1.8-.507-.426-1.247-.64-2.22-.64h-2.64v4.88h2.64c.973 0 1.713-.213 2.22-.64.507-.426.76-1.026.76-1.8zm11.447 9.16c-1.107 0-2.18-.146-3.22-.44-1.027-.306-1.853-.7-2.48-1.18l1.1-2.44c.6.44 1.313.794 2.14 1.06.827.267 1.653.4 2.48.4.92 0 1.6-.133 2.04-.4.44-.28.66-.646.66-1.1 0-.333-.133-.606-.4-.82-.253-.226-.587-.406-1-.54-.4-.133-.947-.28-1.64-.44-1.067-.253-1.94-.506-2.62-.76a4.327 4.327 0 01-1.76-1.22c-.48-.56-.72-1.306-.72-2.24 0-.813.22-1.546.66-2.2.44-.666 1.1-1.193 1.98-1.58.893-.386 1.98-.58 3.26-.58.893 0 1.767.107 2.62.32.853.214 1.6.52 2.24.92l-1 2.46c-1.293-.733-2.587-1.1-3.88-1.1-.907 0-1.58.147-2.02.44-.427.294-.64.68-.64 1.16 0 .48.247.84.74 1.08.507.227 1.273.454 2.3.68 1.067.254 1.94.507 2.62.76.68.254 1.26.654 1.74 1.2.493.547.74 1.287.74 2.22 0 .8-.227 1.534-.68 2.2-.44.654-1.107 1.174-2 1.56-.893.387-1.98.58-3.26.58z" fill="#FCFDFF"/><path d="M989.876 416.973c-2 0-3.56-.553-4.68-1.66-1.107-1.106-1.66-2.686-1.66-4.74v-7.84h3.24v7.72c0 2.507 1.04 3.76 3.12 3.76 1.013 0 1.787-.3 2.32-.9.533-.613.8-1.566.8-2.86v-7.72h3.2v7.84c0 2.054-.56 3.634-1.68 4.74-1.107 1.107-2.66 1.66-4.66 1.66zm16.604-14.24c1.24 0 2.31.207 3.22.62.92.414 1.62 1 2.12 1.76.49.76.74 1.66.74 2.7 0 1.027-.25 1.927-.74 2.7-.5.76-1.2 1.347-2.12 1.76-.91.4-1.98.6-3.22.6h-2.82v3.86h-3.24v-14h6.06zm-.18 7.5c.97 0 1.71-.206 2.22-.62.5-.426.76-1.026.76-1.8 0-.786-.26-1.386-.76-1.8-.51-.426-1.25-.64-2.22-.64h-2.64v4.86h2.64zm15.73 6.74c-2 0-3.56-.553-4.68-1.66-1.1-1.106-1.66-2.686-1.66-4.74v-7.84h3.24v7.72c0 2.507 1.04 3.76 3.12 3.76 1.02 0 1.79-.3 2.32-.9.54-.613.8-1.566.8-2.86v-7.72h3.2v7.84c0 2.054-.56 3.634-1.68 4.74-1.1 1.107-2.66 1.66-4.66 1.66zm16.6-14.24c1.24 0 2.32.207 3.22.62.92.414 1.63 1 2.12 1.76.5.76.74 1.66.74 2.7 0 1.027-.24 1.927-.74 2.7-.49.76-1.2 1.347-2.12 1.76-.9.4-1.98.6-3.22.6h-2.82v3.86h-3.24v-14h6.06zm-.18 7.5c.98 0 1.72-.206 2.22-.62.51-.426.76-1.026.76-1.8 0-.786-.25-1.386-.76-1.8-.5-.426-1.24-.64-2.22-.64h-2.64v4.86h2.64z" fill="#fff"/><path d="M1058.5 409.453c.8.254 1.43.68 1.88 1.28.46.587.68 1.314.68 2.18 0 1.227-.48 2.174-1.44 2.84-.94.654-2.33.98-4.16.98h-7.24v-14h6.84c1.71 0 3.02.327 3.92.98.92.654 1.38 1.54 1.38 2.66 0 .68-.16 1.287-.5 1.82-.32.534-.77.954-1.36 1.26zm-7.06-4.28v3.3h3.22c.8 0 1.41-.14 1.82-.42.42-.28.62-.693.62-1.24 0-.546-.2-.953-.62-1.22-.41-.28-1.02-.42-1.82-.42h-3.22zm3.78 9.12c.86 0 1.5-.14 1.92-.42.44-.28.66-.713.66-1.3 0-1.16-.86-1.74-2.58-1.74h-3.78v3.46h3.78zm20.14-.16v2.6h-10.84v-14h10.58v2.6h-7.36v3.04h6.5v2.52h-6.5v3.24h7.62zm6.47-8.76h-4.48v-2.64h12.2v2.64h-4.48v11.36h-3.24v-11.36z" fill="#82D700"/><path d="M835.072 41.733h3.24v14h-3.24v-14zm20.403 0v14h-2.66l-6.98-8.5v8.5h-3.2v-14h2.68l6.96 8.5v-8.5h3.2zm17.694 0l-6.06 14h-3.2l-6.04-14h3.5l4.26 10 4.32-10h3.22zm13.009 11.4v2.6h-10.84v-14h10.58v2.6h-7.36v3.04h6.5v2.52h-6.5v3.24h7.62zm8.178 2.84c-1.107 0-2.18-.146-3.22-.44-1.027-.306-1.854-.7-2.48-1.18l1.1-2.44c.6.44 1.313.794 2.14 1.06.826.267 1.653.4 2.48.4.92 0 1.6-.133 2.04-.4.44-.28.66-.646.66-1.1 0-.333-.134-.606-.4-.82-.254-.226-.587-.406-1-.54-.4-.133-.947-.28-1.64-.44-1.067-.253-1.94-.506-2.62-.76a4.33 4.33 0 01-1.76-1.22c-.48-.56-.72-1.306-.72-2.24 0-.813.22-1.546.66-2.2.44-.666 1.1-1.193 1.98-1.58.893-.386 1.98-.58 3.26-.58.893 0 1.766.107 2.62.32.853.214 1.6.52 2.24.92l-1 2.46c-1.294-.733-2.587-1.1-3.88-1.1-.907 0-1.58.147-2.02.44-.427.294-.64.68-.64 1.16 0 .48.246.84.74 1.08.506.227 1.273.454 2.3.68 1.066.254 1.94.507 2.62.76a4.26 4.26 0 011.74 1.2c.493.547.74 1.287.74 2.22 0 .8-.227 1.534-.68 2.2-.44.654-1.107 1.174-2 1.56-.894.387-1.98.58-3.26.58zm11.858-11.6h-4.48v-2.64h12.2v2.64h-4.48v11.36h-3.24v-11.36zm17.048 11.6c-1.453 0-2.766-.313-3.94-.94a7.094 7.094 0 01-2.74-2.58c-.653-1.106-.98-2.346-.98-3.72 0-1.373.327-2.606.98-3.7a7.046 7.046 0 012.74-2.6c1.174-.626 2.487-.94 3.94-.94 1.454 0 2.76.314 3.92.94a7.04 7.04 0 012.74 2.6c.667 1.094 1 2.327 1 3.7 0 1.374-.333 2.614-1 3.72a7.087 7.087 0 01-2.74 2.58c-1.16.627-2.466.94-3.92.94zm0-2.76c.827 0 1.574-.186 2.24-.56a4.086 4.086 0 001.56-1.6c.387-.68.58-1.453.58-2.32 0-.866-.193-1.64-.58-2.32a3.949 3.949 0 00-1.56-1.58c-.666-.386-1.413-.58-2.24-.58-.826 0-1.573.194-2.24.58a4.1 4.1 0 00-1.58 1.58c-.373.68-.56 1.454-.56 2.32 0 .867.187 1.64.56 2.32.387.68.914 1.214 1.58 1.6.667.374 1.414.56 2.24.56zm20.015 2.52l-2.7-3.9h-2.98v3.9h-3.24v-14h6.06c1.24 0 2.314.207 3.22.62.92.414 1.627 1 2.12 1.76.494.76.74 1.66.74 2.7 0 1.04-.253 1.94-.76 2.7-.493.747-1.2 1.32-2.12 1.72l3.14 4.5h-3.48zm-.06-8.92c0-.786-.253-1.386-.76-1.8-.506-.426-1.246-.64-2.22-.64h-2.64v4.88h2.64c.974 0 1.714-.213 2.22-.64.507-.426.76-1.026.76-1.8zm11.447 9.16a11.81 11.81 0 01-3.22-.44c-1.026-.306-1.853-.7-2.48-1.18l1.1-2.44c.6.44 1.314.794 2.14 1.06.827.267 1.654.4 2.48.4.92 0 1.6-.133 2.04-.4.44-.28.66-.646.66-1.1 0-.333-.133-.606-.4-.82-.253-.226-.586-.406-1-.54-.4-.133-.946-.28-1.64-.44-1.066-.253-1.94-.506-2.62-.76a4.337 4.337 0 01-1.76-1.22c-.48-.56-.72-1.306-.72-2.24 0-.813.22-1.546.66-2.2.44-.666 1.1-1.193 1.98-1.58.894-.386 1.98-.58 3.26-.58.894 0 1.767.107 2.62.32.854.214 1.6.52 2.24.92l-1 2.46c-1.293-.733-2.586-1.1-3.88-1.1-.906 0-1.58.147-2.02.44-.426.294-.64.68-.64 1.16 0 .48.247.84.74 1.08.507.227 1.274.454 2.3.68 1.067.254 1.94.507 2.62.76a4.26 4.26 0 011.74 1.2c.494.547.74 1.287.74 2.22 0 .8-.226 1.534-.68 2.2-.44.654-1.106 1.174-2 1.56-.893.387-1.98.58-3.26.58zm26.658-2.84v2.6h-10.84v-14h10.58v2.6h-7.36v3.04h6.5v2.52h-6.5v3.24h7.62zm16.843-11.4l-6.06 14h-3.2l-6.04-14h3.5l4.26 10 4.32-10h3.22zm8.775 14.24c-1.46 0-2.77-.313-3.94-.94-1.16-.626-2.08-1.486-2.74-2.58-.655-1.106-.982-2.346-.982-3.72 0-1.373.327-2.606.982-3.7.66-1.106 1.58-1.973 2.74-2.6 1.17-.626 2.48-.94 3.94-.94 1.45 0 2.76.314 3.92.94a7.066 7.066 0 012.74 2.6c.66 1.094 1 2.327 1 3.7 0 1.374-.34 2.614-1 3.72a7.115 7.115 0 01-2.74 2.58c-1.16.627-2.47.94-3.92.94zm0-2.76c.82 0 1.57-.186 2.24-.56.66-.386 1.18-.92 1.56-1.6.38-.68.58-1.453.58-2.32 0-.866-.2-1.64-.58-2.32a4.04 4.04 0 00-1.56-1.58 4.408 4.408 0 00-2.24-.58c-.83 0-1.58.194-2.24.58-.67.374-1.2.9-1.58 1.58-.38.68-.56 1.454-.56 2.32 0 .867.18 1.64.56 2.32.38.68.91 1.214 1.58 1.6.66.374 1.41.56 2.24.56zm11.09-11.48h3.24v11.36h7.02v2.64h-10.26v-14zm25.56 0l-6.06 14h-3.2l-6.04-14h3.5l4.26 10 4.32-10h3.22zm13.01 11.4v2.6h-10.84v-14h10.58v2.6h-7.36v3.04h6.5v2.52h-6.5v3.24h7.62z" fill="#FCFDFF"/><path d="M1070.45 48.453c.8.254 1.43.68 1.88 1.28.46.587.68 1.314.68 2.18 0 1.227-.48 2.174-1.44 2.84-.94.654-2.33.98-4.16.98h-7.24v-14h6.84c1.71 0 3.02.327 3.92.98.92.654 1.38 1.54 1.38 2.66 0 .68-.16 1.287-.5 1.82a3.34 3.34 0 01-1.36 1.26zm-7.06-4.28v3.3h3.22c.8 0 1.41-.14 1.82-.42.42-.28.62-.693.62-1.24 0-.546-.2-.953-.62-1.22-.41-.28-1.02-.42-1.82-.42h-3.22zm3.78 9.12c.86 0 1.5-.14 1.92-.42.44-.28.66-.713.66-1.3 0-1.16-.86-1.74-2.58-1.74h-3.78v3.46h3.78zm20.14-.16v2.6h-10.84v-14h10.58v2.6h-7.36v3.04h6.5v2.52h-6.5v3.24h7.62zm6.47-8.76h-4.48v-2.64h12.2v2.64h-4.48v11.36h-3.24v-11.36z" fill="#23A873"/><path d="M204.153 219.365c.48.152.856.408 1.128.768.272.352.408.788.408 1.308 0 .736-.288 1.304-.864 1.704-.568.392-1.4.588-2.496.588h-4.344v-8.4h4.104c1.024 0 1.808.196 2.352.588.552.392.828.924.828 1.596 0 .408-.1.772-.3 1.092-.192.32-.464.572-.816.756zm-4.236-2.568v1.98h1.932c.48 0 .844-.084 1.092-.252.248-.168.372-.416.372-.744s-.124-.572-.372-.732c-.248-.168-.612-.252-1.092-.252h-1.932zm2.268 5.472c.512 0 .896-.084 1.152-.252.264-.168.396-.428.396-.78 0-.696-.516-1.044-1.548-1.044h-2.268v2.076h2.268zm9.308 1.608c-1.2 0-2.136-.332-2.808-.996-.664-.664-.996-1.612-.996-2.844v-4.704h1.944v4.632c0 1.504.624 2.256 1.872 2.256.608 0 1.072-.18 1.392-.54.32-.368.48-.94.48-1.716v-4.632h1.92v4.704c0 1.232-.336 2.18-1.008 2.844-.664.664-1.596.996-2.796.996zm10.24-3.12v2.976h-1.944v-3l-3.252-5.4h2.064l2.244 3.732 2.244-3.732h1.908l-3.264 5.424zm4.595-5.424h1.944v8.4h-1.944v-8.4zm12.242 0v8.4h-1.596l-4.188-5.1v5.1h-1.92v-8.4h1.608l4.176 5.1v-5.1h1.92zm8.263 4.068h1.776v3.408a5.074 5.074 0 01-1.584.792 6.15 6.15 0 01-1.812.276c-.872 0-1.656-.184-2.352-.552a4.255 4.255 0 01-1.644-1.548c-.392-.664-.588-1.412-.588-2.244 0-.832.196-1.576.588-2.232a4.12 4.12 0 011.656-1.548c.704-.376 1.496-.564 2.376-.564.736 0 1.404.124 2.004.372a3.97 3.97 0 011.512 1.08l-1.248 1.152c-.6-.632-1.324-.948-2.172-.948-.536 0-1.012.112-1.428.336a2.41 2.41 0 00-.972.948c-.232.408-.348.876-.348 1.404 0 .52.116.984.348 1.392.232.408.552.728.96.96.416.224.888.336 1.416.336.56 0 1.064-.12 1.512-.36v-2.46zm-62.926 19.532h-3.9l-.744 1.8h-1.992l3.744-8.4h1.92l3.756 8.4h-2.04l-.744-1.8zm-.612-1.476l-1.332-3.216-1.332 3.216h2.664zm4.867-5.124h3.816c.912 0 1.716.176 2.412.528a3.822 3.822 0 011.632 1.464c.392.632.588 1.368.588 2.208 0 .84-.196 1.576-.588 2.208-.384.632-.928 1.124-1.632 1.476-.696.344-1.5.516-2.412.516h-3.816v-8.4zm3.72 6.804c.84 0 1.508-.232 2.004-.696.504-.472.756-1.108.756-1.908 0-.8-.252-1.432-.756-1.896-.496-.472-1.164-.708-2.004-.708h-1.776v5.208h1.776zm14.589-6.804l-3.636 8.4h-1.92l-3.624-8.4h2.1l2.556 6 2.592-6h1.932zm7.806 6.84v1.56h-6.504v-8.4h6.348v1.56h-4.416v1.824h3.9v1.512h-3.9v1.944h4.572zm7.498 1.56l-1.62-2.34h-1.788v2.34h-1.944v-8.4h3.636c.744 0 1.388.124 1.932.372.552.248.976.6 1.272 1.056.296.456.444.996.444 1.62 0 .624-.152 1.164-.456 1.62-.296.448-.72.792-1.272 1.032l1.884 2.7h-2.088zm-.036-5.352c0-.472-.152-.832-.456-1.08-.304-.256-.748-.384-1.332-.384h-1.584v2.928h1.584c.584 0 1.028-.128 1.332-.384.304-.256.456-.616.456-1.08zm5.731-1.464h-2.688v-1.584h7.32v1.584h-2.688v6.816h-1.944v-6.816zm6.278-1.584h1.944v8.4h-1.944v-8.4zm7.298 8.544a7.083 7.083 0 01-1.932-.264c-.616-.184-1.112-.42-1.488-.708l.66-1.464c.36.264.788.476 1.284.636.496.16.992.24 1.488.24.552 0 .96-.08 1.224-.24.264-.168.396-.388.396-.66 0-.2-.08-.364-.24-.492a1.645 1.645 0 00-.6-.324c-.24-.08-.568-.168-.984-.264a13.685 13.685 0 01-1.572-.456 2.6 2.6 0 01-1.056-.732c-.288-.336-.432-.784-.432-1.344 0-.488.132-.928.396-1.32.264-.4.66-.716 1.188-.948.536-.232 1.188-.348 1.956-.348.536 0 1.06.064 1.572.192s.96.312 1.344.552l-.6 1.476c-.776-.44-1.552-.66-2.328-.66-.544 0-.948.088-1.212.264-.256.176-.384.408-.384.696s.148.504.444.648c.304.136.764.272 1.38.408.64.152 1.164.304 1.572.456.408.152.756.392 1.044.72.296.328.444.772.444 1.332 0 .48-.136.92-.408 1.32-.264.392-.664.704-1.2.936-.536.232-1.188.348-1.956.348zm5.492-8.544h1.944v8.4h-1.944v-8.4zm12.242 0v8.4h-1.596l-4.188-5.1v5.1h-1.92v-8.4h1.608l4.176 5.1v-5.1h1.92zm8.263 4.068h1.776v3.408a5.074 5.074 0 01-1.584.792 6.15 6.15 0 01-1.812.276c-.872 0-1.656-.184-2.352-.552a4.255 4.255 0 01-1.644-1.548c-.392-.664-.588-1.412-.588-2.244 0-.832.196-1.576.588-2.232a4.12 4.12 0 011.656-1.548c.704-.376 1.496-.564 2.376-.564.736 0 1.404.124 2.004.372a3.97 3.97 0 011.512 1.08l-1.248 1.152c-.6-.632-1.324-.948-2.172-.948-.536 0-1.012.112-1.428.336a2.41 2.41 0 00-.972.948c-.232.408-.348.876-.348 1.404 0 .52.116.984.348 1.392.232.408.552.728.96.96.416.224.888.336 1.416.336.56 0 1.064-.12 1.512-.36v-2.46z" fill="#fff"/><path d="M835.072 130.733h3.24v14h-3.24v-14zm20.403 0v14h-2.66l-6.98-8.5v8.5h-3.2v-14h2.68l6.96 8.5v-8.5h3.2zm17.694 0l-6.06 14h-3.2l-6.04-14h3.5l4.26 10 4.32-10h3.22zm13.009 11.4v2.6h-10.84v-14h10.58v2.6h-7.36v3.04h6.5v2.52h-6.5v3.24h7.62zm8.178 2.84c-1.107 0-2.18-.146-3.22-.44-1.027-.306-1.854-.7-2.48-1.18l1.1-2.44c.6.44 1.313.794 2.14 1.06.826.267 1.653.4 2.48.4.92 0 1.6-.133 2.04-.4.44-.28.66-.646.66-1.1 0-.333-.134-.606-.4-.82-.254-.226-.587-.406-1-.54-.4-.133-.947-.28-1.64-.44-1.067-.253-1.94-.506-2.62-.76a4.327 4.327 0 01-1.76-1.22c-.48-.56-.72-1.306-.72-2.24 0-.813.22-1.546.66-2.2.44-.666 1.1-1.193 1.98-1.58.893-.386 1.98-.58 3.26-.58.893 0 1.766.107 2.62.32.853.214 1.6.52 2.24.92l-1 2.46c-1.294-.733-2.587-1.1-3.88-1.1-.907 0-1.58.147-2.02.44-.427.294-.64.68-.64 1.16 0 .48.246.84.74 1.08.506.227 1.273.454 2.3.68 1.066.254 1.94.507 2.62.76.68.254 1.26.654 1.74 1.2.493.547.74 1.287.74 2.22 0 .8-.227 1.534-.68 2.2-.44.654-1.107 1.174-2 1.56-.894.387-1.98.58-3.26.58zm11.858-11.6h-4.48v-2.64h12.2v2.64h-4.48v11.36h-3.24v-11.36zm17.048 11.6c-1.453 0-2.766-.313-3.94-.94a7.083 7.083 0 01-2.74-2.58c-.653-1.106-.98-2.346-.98-3.72 0-1.373.327-2.606.98-3.7a7.053 7.053 0 012.74-2.6c1.174-.626 2.487-.94 3.94-.94 1.454 0 2.76.314 3.92.94a7.046 7.046 0 012.74 2.6c.667 1.094 1 2.327 1 3.7 0 1.374-.333 2.614-1 3.72a7.076 7.076 0 01-2.74 2.58c-1.16.627-2.466.94-3.92.94zm0-2.76c.827 0 1.574-.186 2.24-.56a4.082 4.082 0 001.56-1.6c.387-.68.58-1.453.58-2.32 0-.866-.193-1.64-.58-2.32a3.953 3.953 0 00-1.56-1.58c-.666-.386-1.413-.58-2.24-.58-.826 0-1.573.194-2.24.58a4.1 4.1 0 00-1.58 1.58c-.373.68-.56 1.454-.56 2.32 0 .867.187 1.64.56 2.32.387.68.914 1.214 1.58 1.6.667.374 1.414.56 2.24.56zm20.015 2.52l-2.7-3.9h-2.98v3.9h-3.24v-14h6.06c1.24 0 2.314.207 3.22.62.92.414 1.627 1 2.12 1.76.494.76.74 1.66.74 2.7 0 1.04-.253 1.94-.76 2.7-.493.747-1.2 1.32-2.12 1.72l3.14 4.5h-3.48zm-.06-8.92c0-.786-.253-1.386-.76-1.8-.506-.426-1.246-.64-2.22-.64h-2.64v4.88h2.64c.974 0 1.714-.213 2.22-.64.507-.426.76-1.026.76-1.8zm11.447 9.16c-1.106 0-2.18-.146-3.22-.44-1.026-.306-1.853-.7-2.48-1.18l1.1-2.44c.6.44 1.314.794 2.14 1.06.827.267 1.654.4 2.48.4.92 0 1.6-.133 2.04-.4.44-.28.66-.646.66-1.1 0-.333-.133-.606-.4-.82-.253-.226-.586-.406-1-.54-.4-.133-.946-.28-1.64-.44-1.066-.253-1.94-.506-2.62-.76a4.334 4.334 0 01-1.76-1.22c-.48-.56-.72-1.306-.72-2.24 0-.813.22-1.546.66-2.2.44-.666 1.1-1.193 1.98-1.58.894-.386 1.98-.58 3.26-.58.894 0 1.767.107 2.62.32.854.214 1.6.52 2.24.92l-1 2.46c-1.293-.733-2.586-1.1-3.88-1.1-.906 0-1.58.147-2.02.44-.426.294-.64.68-.64 1.16 0 .48.247.84.74 1.08.507.227 1.274.454 2.3.68 1.067.254 1.94.507 2.62.76.68.254 1.26.654 1.74 1.2.494.547.74 1.287.74 2.22 0 .8-.226 1.534-.68 2.2-.44.654-1.106 1.174-2 1.56-.893.387-1.98.58-3.26.58zm26.658-2.84v2.6h-10.84v-14h10.58v2.6h-7.36v3.04h6.5v2.52h-6.5v3.24h7.62zm16.843-11.4l-6.06 14h-3.2l-6.04-14h3.5l4.26 10 4.32-10h3.22zm8.775 14.24c-1.46 0-2.77-.313-3.94-.94-1.16-.626-2.08-1.486-2.74-2.58-.655-1.106-.982-2.346-.982-3.72 0-1.373.327-2.606.982-3.7.66-1.106 1.58-1.973 2.74-2.6 1.17-.626 2.48-.94 3.94-.94 1.45 0 2.76.314 3.92.94a7.074 7.074 0 012.74 2.6c.66 1.094 1 2.327 1 3.7 0 1.374-.34 2.614-1 3.72a7.104 7.104 0 01-2.74 2.58c-1.16.627-2.47.94-3.92.94zm0-2.76c.82 0 1.57-.186 2.24-.56.66-.386 1.18-.92 1.56-1.6.38-.68.58-1.453.58-2.32 0-.866-.2-1.64-.58-2.32-.38-.68-.9-1.206-1.56-1.58a4.415 4.415 0 00-2.24-.58c-.83 0-1.58.194-2.24.58-.67.374-1.2.9-1.58 1.58-.38.68-.56 1.454-.56 2.32 0 .867.18 1.64.56 2.32.38.68.91 1.214 1.58 1.6.66.374 1.41.56 2.24.56zm11.09-11.48h3.24v11.36h7.02v2.64h-10.26v-14zm25.56 0l-6.06 14h-3.2l-6.04-14h3.5l4.26 10 4.32-10h3.22zm13.01 11.4v2.6h-10.84v-14h10.58v2.6h-7.36v3.04h6.5v2.52h-6.5v3.24h7.62z" fill="#FCFDFF"/><path d="M1070.45 137.453c.8.254 1.43.68 1.88 1.28.46.587.68 1.314.68 2.18 0 1.227-.48 2.174-1.44 2.84-.94.654-2.33.98-4.16.98h-7.24v-14h6.84c1.71 0 3.02.327 3.92.98.92.654 1.38 1.54 1.38 2.66 0 .68-.16 1.287-.5 1.82-.32.534-.77.954-1.36 1.26zm-7.06-4.28v3.3h3.22c.8 0 1.41-.14 1.82-.42.42-.28.62-.693.62-1.24 0-.546-.2-.953-.62-1.22-.41-.28-1.02-.42-1.82-.42h-3.22zm3.78 9.12c.86 0 1.5-.14 1.92-.42.44-.28.66-.713.66-1.3 0-1.16-.86-1.74-2.58-1.74h-3.78v3.46h3.78zm20.14-.16v2.6h-10.84v-14h10.58v2.6h-7.36v3.04h6.5v2.52h-6.5v3.24h7.62zm6.47-8.76h-4.48v-2.64h12.2v2.64h-4.48v11.36h-3.24v-11.36z" fill="#23A873"/><defs><linearGradient id="paint0_linear" x1="641" y1="93.733" x2="581.964" y2="93.733" gradientUnits="userSpaceOnUse"><stop stop-color="#1A7E57"/><stop offset="1" stop-color="#1A7E57" stop-opacity="0"/></linearGradient><linearGradient id="paint1_linear" x1="635.008" y1="93.733" x2="591.832" y2="93.733" gradientUnits="userSpaceOnUse"><stop stop-color="#23A873"/><stop offset="1" stop-color="#23A873" stop-opacity="0"/></linearGradient><linearGradient id="paint2_linear" x1="595.534" y1="92.653" x2="510.944" y2="92.653" gradientUnits="userSpaceOnUse"><stop stop-color="#93ADFF"/><stop offset="1" stop-color="#39CA9F"/></linearGradient><linearGradient id="paint3_linear" x1="595.532" y1="92.654" x2="510.942" y2="92.654" gradientUnits="userSpaceOnUse"><stop stop-color="#93ADFF"/><stop offset="1" stop-color="#39CA9F"/></linearGradient><linearGradient id="paint4_linear" x1="595.533" y1="92.654" x2="510.943" y2="92.654" gradientUnits="userSpaceOnUse"><stop stop-color="#93ADFF"/><stop offset="1" stop-color="#39CA9F"/></linearGradient><linearGradient id="paint5_linear" x1="595.533" y1="92.653" x2="510.943" y2="92.653" gradientUnits="userSpaceOnUse"><stop stop-color="#93ADFF"/><stop offset="1" stop-color="#39CA9F"/></linearGradient><linearGradient id="paint6_linear" x1="595.532" y1="92.653" x2="510.942" y2="92.653" gradientUnits="userSpaceOnUse"><stop stop-color="#93ADFF"/><stop offset="1" stop-color="#39CA9F"/></linearGradient><linearGradient id="paint7_linear" x1="595.533" y1="92.653" x2="510.943" y2="92.653" gradientUnits="userSpaceOnUse"><stop stop-color="#93ADFF"/><stop offset="1" stop-color="#39CA9F"/></linearGradient><linearGradient id="paint8_linear" x1="595.534" y1="92.654" x2="510.943" y2="92.654" gradientUnits="userSpaceOnUse"><stop stop-color="#93ADFF"/><stop offset="1" stop-color="#39CA9F"/></linearGradient><linearGradient id="paint9_linear" x1="595.533" y1="92.654" x2="510.943" y2="92.654" gradientUnits="userSpaceOnUse"><stop stop-color="#93ADFF"/><stop offset="1" stop-color="#39CA9F"/></linearGradient><clipPath id="clip0"><path fill="#fff" transform="translate(512 79.733)" d="M0 0h129v28H0z"/></clipPath><clipPath id="clip1"><path fill="#fff" transform="translate(508 345.733)" d="M0 0h135v40H0z"/></clipPath></defs></svg>