<svg width="115" height="153" fill="none" xmlns="http://www.w3.org/2000/svg"><path d="M87.755 12.287c-.146.09-.33.14-.549.149a1.124 1.124 0 01-.55-.149l-4.02-2.467-3.91 2.4a1.164 1.164 0 01-.57.162c-.206 0-.389-.05-.55-.149l-1.603-.984c-.161-.099-.242-.211-.242-.337 0-.144.08-.265.242-.364l3.91-2.4-3.888-2.388c-.161-.098-.242-.21-.242-.337.015-.135.095-.247.242-.337l1.801-1.106c.161-.099.344-.148.55-.148.204 0 .387.05.548.148l3.889 2.387L86.7 3.98a.99.99 0 01.57-.135c.206 0 .389.05.55.149l1.604.984c.16.1.241.212.241.337 0 .126-.08.239-.241.338l-3.888 2.386 4.02 2.468c.146.09.227.203.241.338 0 .125-.08.238-.242.337l-1.8 1.105zM82.05 29.231a.74.74 0 01-.362.098.74.74 0 01-.362-.098l-2.652-1.627-2.58 1.583a.768.768 0 01-.376.107.679.679 0 01-.362-.098l-1.058-.65c-.106-.065-.16-.139-.16-.222 0-.095.054-.175.16-.24l2.58-1.583-2.566-1.575c-.106-.065-.16-.139-.16-.222.01-.089.064-.163.16-.222l1.189-.73a.679.679 0 01.362-.098.68.68 0 01.362.098l2.565 1.575 2.564-1.575a.654.654 0 01.377-.089.68.68 0 01.362.098l1.058.65c.106.065.16.139.16.222 0 .083-.054.157-.16.222l-2.564 1.575 2.651 1.627c.097.06.15.134.16.223 0 .083-.054.157-.16.222l-1.188.73zm17.26 6.717a.742.742 0 01-.362.098.742.742 0 01-.363-.098l-2.651-1.628-2.58 1.583a.768.768 0 01-.376.107.679.679 0 01-.363-.098l-1.057-.649c-.107-.065-.16-.14-.16-.222 0-.095.053-.175.16-.24l2.579-1.583-2.565-1.575c-.106-.065-.16-.139-.16-.222.01-.089.063-.163.16-.222l1.188-.73a.679.679 0 01.363-.097.67.67 0 01.362.098l2.564 1.574 2.565-1.574a.653.653 0 01.377-.09.68.68 0 01.362.098l1.058.65c.106.065.159.139.159.222 0 .083-.053.157-.159.222l-2.565 1.574 2.652 1.628c.097.06.15.133.159.222 0 .083-.053.157-.159.223l-1.188.729z" fill="#23A873"/><g clip-path="url(#clip0)" fill="#23A873"><path opacity=".4" d="M5.254 138.604l23.488 13.549 13.413-7.788-23.488-13.562-13.413 7.801z"/><path d="M11.955 70.92L.779 98.613l4.475-2.584v42.564l13.5-7.801V88.228l4.487-2.584-11.286-14.723z"/></g><path opacity=".4" d="M29.979 123.219l23.488 14.408 13.413-8.282-23.488-14.421-13.414 8.295z" fill="#23A873"/><path d="M36.68 11.807L25.503 41.254l4.475-2.748v84.7l13.5-8.295v-84.7l4.487-2.747L36.68 11.807z" fill="#23A873"/><g clip-path="url(#clip1)" fill="#23A873"><path opacity=".4" d="M55.94 108.935l23.488 13.549 13.413-7.788-23.489-13.562-13.413 7.801z"/><path d="M62.64 41.252L51.465 68.943l4.475-2.583v42.563l13.5-7.801V58.559l4.487-2.584L62.64 41.252z"/></g><defs><clipPath id="clip0"><path fill="#fff" transform="translate(.78 70.92)" d="M0 0h41.376v81.232H0z"/></clipPath><clipPath id="clip1"><path fill="#fff" transform="translate(51.465 41.252)" d="M0 0h41.376v81.232H0z"/></clipPath></defs></svg>