<svg width="125" height="160" fill="none" xmlns="http://www.w3.org/2000/svg"><g clip-path="url(#clip0)"><path d="M64.811 140.4c-33.24 0-60.188-14.282-60.188-31.899 0-17.618 26.947-31.9 60.188-31.9 33.242 0 60.189 14.282 60.189 31.9 0 17.617-26.947 31.899-60.189 31.899z" fill="#000"/><path d="M96.54 84.333c-1.066 16.418-7.08 29.041-16.072 37.546-5.562 5.268-12.677 8.577-20.153 10.321-4.912 1.151-10.077 1.762-15.837 1.673-18.546-1.745-30.14-4.999-39.964-17.353-6.031-7.606-10.022-25.372 15.296-42.562 5.815-3.938 10.347-9.53 12.93-16.04 2.961-7.408 5.164-15.212 7.385-21.92 2.872-8.72 10.33-13.018 20.262-12.946 10.98.072 18.853 5.089 26.004 15.716 10.185 15.14 10.51 39.901 10.149 45.565z" fill="#23A873"/><path opacity=".4" d="M68.658 65.92c.253 6.653.776 20.391-2.438 27.908-11.774 27.583-33.986-8.506-31.584-9.1 20.027-4.926 5.544-6.688 4.514-23.609-.09-1.492 1.915-16.363 2.619-19.33.47-1.978 1.336-4.118 2.348-6.168 1.823-3.686 3.25-4.154 6.826-6.293 1.227-.738 2.907-.881 4.713-.666 7.06.846 12.532 6.438 13.923 13.379 1.408 6.959-1.319 13.81-.921 23.88z" fill="#046727"/><path d="M20.153 126.536c.253-.593 7.042 10.807 7.331 12.425-1.336 2.446-1.3 2.913-3.34 3.651-2.474.899-9.409-4.82-8.253-7.229.74-1.546 3.16-6.348 4.262-8.847z" fill="#455B66"/><path d="M26.617 140.525c-1.065 1.907-2.203 3.669-3.81 4.244-2.474.899-7.26-1.888-8.018-3.866-.65-1.672-.018-3.255 1.264-5.844 3.124 2.446 6.483 4.424 10.564 5.466zm15.783-4.117c-.199 2.284-5.508 10.214-5.96 11.023-5.904 10.627-6.861 12.767-9.064 12.551-.85-.09-2.15-.539-2.782-1.115-2.004-1.834-.794-2.823.326-5.286 1.968-4.334 2.257-9.944 2.058-13.109-.126-2.032 4.75-7.48 6.339-8.254.18-.089.379-.179.596-.251 1.914-.738 3.774.198 5.471 1.384 1.517 1.061 3.124 1.798 3.016 3.057z" fill="#F2F1EB"/><path d="M40.666 134.951c-.198 2.284-5.525 10.196-5.959 11.023-2.004 3.722-3.45 6.383-4.55 8.272-2.764 4.729-7.64.341-6.52-2.104 1.969-4.334 2.276-10.43 1.625-13.594-.415-1.996 4.75-6.995 6.339-7.75 1.373-.666 3.557-1.205 5.02-.468.921 2.589 4.172 2.949 4.045 4.621z" fill="#455B66"/><path d="M24.09 150.937c1.931 1.546 5.344 1.942 7.259 1.331-3.775 6.743-4.316 7.876-5.924 7.12-.758-.359-1.896-1.348-2.455-1.978-1.355-1.528.902-6.329 1.12-6.473z" fill="#F2F1EB"/><path d="M54.843 108.788c-1.319 2.535-2.51 4.819-3.576 6.689-1.102 1.924-2.655 3.542-4.587 4.657-4.424 2.554-11.72 5.521-15.187 7.57-3.955-5.178-5.96-11.4-5.038-12.317 2.89-2.877 7.404-5.484 7.404-5.484 3.088-8.649 4.37-18.252 3.9-19.42-.74-1.87-.433-4.784.398-7.445.614-1.96 1.968-3.812 4.099-7.12.253-.378.506-.774.885-1.008.668-.395 1.499-.251 2.275-.251 2.366-.018 4.406-1.583 6.718-2.122 1.806-.432 3.684-.198 5.526.09 1.733.27 3.756.557 5.219 1.6 1.137.81 1.408 1.637 1.318 2.95 0 0 0 .09-.018.269-1.048 10.933-4.244 21.578-9.336 31.342z" fill="#101517"/><path d="M39.854 91.832c1.607-.126 9.192-12.372 4.858-16.31-2.818-2.553-6.718-3.488-10.42-4.333-.759-.18-1.607-.342-2.294.054-.469.27-.758.737-1.047 1.186C19.34 82.805 6.103 87.588 1.733 96.093c-1.752 3.399.27 6.33 4.894 13.414 1.498 2.302 6.898 7.732 17.588 28.771 1.842 3.614 15.53-4.999 12.894-8.11-8.487-9.998-7.892-15.248-13.11-23.52-.976-1.546-2.384-4.117-2.384-4.117 1.047-.989 13.616-10.304 18.239-10.7z" fill="#101517"/><path d="M36.098 24.436c.126 1.133.144 2.302.108 3.453-.289 6.527-1.625 17.73-3.575 23.97-4.118.862-7.53.017-9.319-4.838.85-7.174 1.048-17.64 3.233-24.257 3.142.666 6.338 1.205 9.553 1.672z" fill="#FBBD9E"/><path d="M37.687 41.25s-6.627 4.207-15.26-1.26c-.162-6.113 2.655-23.7 9.59-22.692 8.83 1.277 7.494 12.245 5.67 23.951z" fill="#FFE651"/><path d="M27.25 37.995c-.09-2.05-1.481-9.728.072-15.23.903-3.255 4.225-5.251 7.602-4.91 4.804.486 8.18 1.151 13.725 3.974 3.033 1.69 14.14 8.2 14.7 10.681.378 1.727 1.408 3.237 1.426 5 .036 6.49-1.427 20.588-.506 40.098-2.727 5.053-14.591 6.24-20.46 5.233-8.74-1.51-11.864-4.873-12.858-10.376-.036-.144-3.358-26.972-3.702-34.47z" fill="#FFE651"/><path d="M.216 64.84l.65.684 20.352 11.778 2.817.863s12.19-.09 12.226-.198l-.199.576c-.036.108-.198.18-.505.18l-11.72.018c-.74 0-2.005-.378-2.817-.864L.668 66.1c-.488-.288-.705-.522-.65-.684l.198-.575z" fill="url(#paint0_linear)"/><path d="M.722 64.661l11.72-.018c.74 0 2.005.378 2.817.863l20.352 11.76c.813.468.885.863.145.863l-11.72.018c-.74 0-2.005-.377-2.817-.863L.867 65.506c-.813-.45-.885-.845-.145-.845z" fill="#B6B0BE"/><path d="M1.083 65.057l11.756-.018c.795 0 1.571.198 2.257.593L34.581 76.89c.109.072.073.234-.054.234l-12.605.036c-.307-.036-.577-.036-.993-.27L1.011 65.363c-.163-.072-.108-.306.072-.306z" fill="#09963B"/><path d="M28.171 77.464h1.3a.3.3 0 01.18.054l.38.216c.036.018.018.09-.018.09h-1.318a.257.257 0 01-.109-.036l-.451-.252c-.036-.036-.054-.09.036-.072z" fill="url(#paint1_linear)"/><path d="M29.724 78.705a3.672 3.672 0 002.673-1.169c.47-.521.903-1.007.849-1.043-.56-.323-1.319-.413-1.933-.575-.415-.108-3.142-.72-2.528-1.583.18-.251.722-.161.975-.161.632.017 1.282.09 1.914.09.705 0 1.39.071 2.095.18 1.535.215 3.793.539 4.045.629l13.598-9.89a3.76 3.76 0 001.553-2.967c.109-7.3-1.21-25.39.38-28.627 1.914-3.92 12.406-4.675 11.485 5.538-.632 7.013-2.24 20.553-3.684 28.879a3.75 3.75 0 01-1.752 2.59c-4.081 2.48-14.97 8.253-19.81 10.23-1.047.63-2.456 1.313-3.395 1.763a2.49 2.49 0 01-2.059.036c-.379-.162-.758-.306-1.155-.378-.416-.072-.867-.054-1.283-.144-.957-.233-1.372-.611-2.058-1.258-.361-.342-.957-.54-1.409-.773-.47-.234-1.462-1.044-1.896-1.367h3.395zM5.67 63.439c-.578-.414-.596-.846-.487-1.259.054-.198.433-3.021 1.697-3.722.433-.252 7.205-.09 7.205-.09s8.993-10.663 9.192-11.346l5.526 4.171.325 2.176c-1.788.881-11.9 9.98-12.009 10.052-.596.36-.83 1.438-.903 2.122-.09.827.217 1.852-.74 1.852-.596 0-1.048-.54-1.246-1.061-.343-.845-.054-1.745-.325-2.59a1.297 1.297 0 00-.163-.36c-.397-.61-1.083-.359-1.643-.18-.289.09-.94.199-1.174.432-.542.594-.632 2.68-1.246 3.165-.289.234-1.03.252-1.065-.36-.181.612-.343 1.241-.362 1.277-.397.666-1.372.288-1.535-.377-.469.215-1.047-.072-1.318-.504-.397-.647-.198-1.276-.108-1.96.09-.413.38-1.438.38-1.438z" fill="#FBBD9E"/><path d="M66.22 51.679s-5.887 5.179-15.278 1.097c-1.101-6.024-1.047-23.826 5.96-23.898 8.92-.072 9.318 10.969 9.318 22.8z" fill="#FFE651"/><path d="M36.117 18.772c2.239-.036 6.609.342 9.932 2.068 3.99 2.068 6.32 3.399 5.598 4.64-2.781 4.782-7.946 9.763-13.327 7.713l-.127-.053c-3.828-1.475-5.959-5.647-4.731-9.549.686-2.085 1.68-3.11 2.654-4.819z" fill="#FCBE9F"/><path d="M42.979 14.17l5.887 9.98s.054 1.438-1.788 3.865c-2.817 3.722-5.742 4.118-7.584 3.866-1.21-.162-2.185-1.007-2.565-2.157l-.36-1.133 6.41-14.422z" fill="#F3A984"/><path d="M39.873 1.528c4.37 1.69 7.603 4.801 6.573 13.145-.794 6.42-6.212 12.91-11.051 16.399-1.192.863-4.858 1.78-6.05-.99-.993-2.355-3.359-9.224-3.413-15.212-.036-4.819.145-8.936 3.828-11.885C32.288.97 35.286-.235 39.873 1.528z" fill="#FCBE9F"/><path d="M38.88 17.82c-.073-1.385-.813-2.5-1.807-3.003-2.42-1.223-8.27-.252-11.105-3.057-.759-2.536.343-6.51 3.774-9.333C32.234.36 35.647-.935 40.234.827c4.37 1.69 7.819 5.125 6.573 13.846-.09.647-1.084 5.664-2.258 5.664-.74-.162-.18-2.841-.306-3.596-.2-1.241-1.553-1.906-2.474-.935-1.409 1.51-.56 2.949-.65 5.07-.037 1.007-1.156 2.104-1.843 1.061-.343-.521-.27-1.025-.27-1.582 0 .036-.055-1.169-.127-2.535z" fill="#253238"/><path d="M101.558 9.648a.95.95 0 01-.444.113.95.95 0 01-.444-.113L97.418 7.77l-3.163 1.826a.987.987 0 01-.462.123.872.872 0 01-.444-.113l-1.297-.749c-.13-.075-.196-.16-.196-.256 0-.11.065-.202.196-.277l3.162-1.826-3.145-1.816c-.13-.075-.195-.16-.195-.257.012-.102.077-.188.195-.256l1.457-.841a.872.872 0 01.445-.113c.165 0 .314.037.444.113l3.145 1.815 3.145-1.815a.844.844 0 01.462-.103c.166 0 .314.038.445.113l1.297.749c.13.075.195.16.195.256s-.065.181-.195.257l-3.145 1.815 3.251 1.878c.119.068.184.154.196.256 0 .096-.065.181-.196.257l-1.457.84zm-4.615 12.89a.629.629 0 01-.293.074.628.628 0 01-.293-.074l-2.145-1.239-2.086 1.205a.651.651 0 01-.305.08.575.575 0 01-.293-.074l-.856-.494c-.085-.05-.129-.106-.129-.169 0-.072.043-.133.13-.182l2.086-1.205-2.075-1.198c-.086-.05-.129-.106-.129-.169.008-.067.051-.124.13-.169l.96-.555a.575.575 0 01.293-.074.58.58 0 01.293.074l2.075 1.198 2.075-1.198a.555.555 0 01.304-.067.57.57 0 01.293.074l.856.494c.086.05.129.106.129.17 0 .062-.043.119-.129.168l-2.075 1.198 2.145 1.238c.079.045.121.102.13.17 0 .063-.044.119-.13.169l-.96.555zm13.961 5.108a.627.627 0 01-.293.075.627.627 0 01-.293-.075l-2.145-1.238-2.086 1.204a.653.653 0 01-.305.082.577.577 0 01-.293-.075l-.856-.494c-.086-.05-.129-.106-.129-.169 0-.072.043-.133.129-.183l2.087-1.204-2.075-1.198c-.086-.05-.129-.106-.129-.169.008-.068.051-.124.129-.169l.961-.555a.577.577 0 01.293-.074.57.57 0 01.293.074l2.075 1.198 2.075-1.198a.553.553 0 01.304-.068.57.57 0 01.293.075l.856.494c.086.05.129.106.129.169 0 .063-.043.12-.129.17l-2.075 1.197 2.145 1.238c.078.045.121.102.129.17 0 .063-.043.119-.129.169l-.961.554z" fill="#23A873"/></g><defs><linearGradient id="paint0_linear" x1="36.266" y1="71.779" x2=".015" y2="71.779" gradientUnits="userSpaceOnUse"><stop stop-color="#E0DBE1"/><stop offset="1" stop-color="#D9D4DC"/></linearGradient><linearGradient id="paint1_linear" x1="30.066" y1="77.634" x2="28.107" y2="77.634" gradientUnits="userSpaceOnUse"><stop stop-color="#E0DBE1"/><stop offset="1" stop-color="#D9D4DC"/></linearGradient><clipPath id="clip0"><path fill="#fff" transform="matrix(-1 0 0 1 125 0)" d="M0 0h125v160H0z"/></clipPath></defs></svg>