<svg width="1163" height="763" fill="none" xmlns="http://www.w3.org/2000/svg"><g opacity=".3" stroke-dasharray="4 4"><path transform="scale(1.22477 .70706) rotate(-45 811.746 247.993)" stroke="url(#paint0_linear)" d="M0-.5h699.384"/><path transform="scale(1.22477 .70706) rotate(-45 937.986 195.703)" stroke="url(#paint1_linear)" d="M0-.5h699.384"/><path transform="scale(1.22477 .70706) rotate(-45 1064.227 143.412)" stroke="url(#paint2_linear)" d="M0-.5h699.384"/><path transform="scale(1.22477 .70706) rotate(-45 1190.469 91.123)" stroke="url(#paint3_linear)" d="M0-.5h699.384"/><path transform="scale(1.22477 .70706) rotate(-45 1316.707 38.831)" stroke="url(#paint4_linear)" d="M0-.5h699.384"/><path transform="scale(1.22477 .70706) rotate(-45 1442.948 -13.46)" stroke="url(#paint5_linear)" d="M0-.5h699.384"/><path transform="scale(-1.22477 -.70706) rotate(45 948.405 -1180.467)" stroke="url(#paint6_linear)" d="M0-.5h699.384"/><path transform="scale(-1.22477 -.70706) rotate(45 822.165 -1232.758)" stroke="url(#paint7_linear)" d="M0-.5h699.384"/><path transform="scale(-1.22477 -.70706) rotate(45 695.925 -1285.048)" stroke="url(#paint8_linear)" d="M0-.5h699.384"/><path transform="scale(-1.22477 -.70706) rotate(45 569.684 -1337.339)" stroke="url(#paint9_linear)" d="M0-.5h699.384"/><path transform="scale(-1.22477 -.70706) rotate(45 443.446 -1389.625)" stroke="url(#paint10_linear)" d="M0-.5h699.384"/><path transform="scale(-1.22477 -.70706) rotate(45 317.202 -1441.923)" stroke="url(#paint11_linear)" d="M0-.5h699.384"/></g><path d="M473.185 463.977V231.073l201.332 114.851V574.71L473.185 463.977z" fill="#C4C4C4"/><path d="M473.185 463.977V231.073l201.332 114.851V574.71L473.185 463.977z" fill="url(#paint12_linear)"/><path d="M515.739 438.747V302.912l117.139 66.983v133.433l-117.139-64.581z" fill="#C4C4C4"/><path d="M515.739 438.747V302.912l117.139 66.983v133.433l-117.139-64.581z" fill="url(#paint13_linear)"/><path d="M564.242 410.379v-80.013l68.636 39.456v78.598l-68.636-38.041z" fill="#C4C4C4"/><path d="M564.242 410.379v-80.013l68.636 39.456v78.598l-68.636-38.041z" fill="url(#paint14_linear)"/><path d="M670.856 116.68L473.185 231.073l201.332 114.851L869.9 227.413 670.856 116.68z" fill="#C4C4C4"/><path d="M670.856 116.68L473.185 231.073l201.332 114.851L869.9 227.413 670.856 116.68z" fill="url(#paint15_linear)"/><path d="M670.471 166.556l-110.805 63.932 112.857 64.188 109.523-66.234-111.575-61.886z" fill="#C4C4C4"/><path d="M670.471 166.556l-110.805 63.932 112.857 64.188 109.523-66.234-111.575-61.886z" fill="url(#paint16_linear)"/><path d="M671.08 216.888l-67.487 38.816 68.736 38.972 66.706-40.214-67.955-37.574z" fill="#C4C4C4"/><path d="M671.08 216.888l-67.487 38.816 68.736 38.972 66.706-40.214-67.955-37.574z" fill="url(#paint17_linear)"/><path d="M869.9 459.859L674.517 574.71V345.924L869.9 227.413v232.446z" fill="#C4C4C4"/><path d="M869.9 459.859L674.517 574.71V345.924L869.9 227.413v232.446z" fill="url(#paint18_linear)"/><path d="M826.887 430.933L717.07 495.092V367.285l109.817-66.203v129.851z" fill="#C4C4C4"/><path d="M826.887 430.933L717.07 495.092V367.285l109.817-66.203v129.851z" fill="url(#paint19_linear)"/><path d="M782.045 405.099l-64.975 37.83v-75.358l64.975-39.035v76.563z" fill="#C4C4C4"/><path d="M782.045 405.099l-64.975 37.83v-75.358l64.975-39.035v76.563z" fill="url(#paint20_linear)"/><path d="M996.396 199l-279.5 168.5 1.5 279.5 278-448z" fill="url(#paint21_linear)"/><path d="M379.396 224l254.512 146.209v249.512L379.396 224z" fill="url(#paint22_linear)"/><mask id="a" maskUnits="userSpaceOnUse" x="491" y="0" width="362" height="356"><path d="M491.396 196.554l126.27 110.742L677.967 356l174.429-186.117L685.657 0 491.396 196.554z" fill="url(#paint23_linear)"/></mask><g mask="url(#a)"><path d="M419.686 147.302l191.195 112.469 62.066 34.99L922.876 142.72 665.396 15l-245.71 132.302z" fill="url(#paint24_linear)"/></g><path d="M395.396 505.904V273l201.332 114.851v228.785L395.396 505.904z" fill="url(#paint25_linear)"/><mask id="b" maskUnits="userSpaceOnUse" x="395" y="273" width="202" height="344"><path d="M395.396 505.904V273l201.332 114.851v228.785L395.396 505.904z" fill="#C4C4C4"/><path d="M395.396 505.904V273l201.332 114.851v228.785L395.396 505.904z" fill="url(#paint26_linear)"/></mask><g filter="url(#filter0_f)" mask="url(#b)"><g opacity=".3" stroke-dasharray="4 4"><path transform="scale(1.22477 .70706) rotate(-45 828.446 265.616)" stroke="url(#paint27_linear)" d="M0-.5h699.384"/><path transform="scale(1.22477 .70706) rotate(-45 954.688 213.326)" stroke="url(#paint28_linear)" d="M0-.5h699.384"/><path transform="scale(1.22477 .70706) rotate(-45 1080.927 161.035)" stroke="url(#paint29_linear)" d="M0-.5h699.384"/><path transform="scale(1.22477 .70706) rotate(-45 1207.169 108.745)" stroke="url(#paint30_linear)" d="M0-.5h699.384"/><path transform="scale(1.22477 .70706) rotate(-45 1333.41 56.455)" stroke="url(#paint31_linear)" d="M0-.5h699.384"/><path transform="scale(1.22477 .70706) rotate(-45 1459.648 4.164)" stroke="url(#paint32_linear)" d="M0-.5h699.384"/><path transform="scale(-1.22477 -.70706) rotate(45 972.675 -1179.815)" stroke="url(#paint33_linear)" d="M0-.5h699.384"/><path transform="scale(-1.22477 -.70706) rotate(45 846.437 -1232.106)" stroke="url(#paint34_linear)" d="M0-.5h699.384"/><path transform="scale(-1.22477 -.70706) rotate(45 720.194 -1284.396)" stroke="url(#paint35_linear)" d="M0-.5h699.384"/><path transform="scale(-1.22477 -.70706) rotate(45 593.954 -1336.686)" stroke="url(#paint36_linear)" d="M0-.5h699.384"/><path transform="scale(-1.22477 -.70706) rotate(45 467.717 -1388.974)" stroke="url(#paint37_linear)" d="M0-.5h699.384"/><path transform="scale(-1.22477 -.70706) rotate(45 341.477 -1441.263)" stroke="url(#paint38_linear)" d="M0-.5h699.384"/></g><path d="M463.914 475.977V243.073l201.331 114.85v228.786L463.914 475.977z" fill="#C4C4C4"/><path d="M463.914 475.977V243.073l201.331 114.85v228.786L463.914 475.977z" fill="url(#paint39_linear)"/><path d="M506.468 450.746V314.911l117.138 66.984v133.433l-117.138-64.582z" fill="#C4C4C4"/><path d="M506.468 450.746V314.911l117.138 66.984v133.433l-117.138-64.582z" fill="url(#paint40_linear)"/><path d="M554.97 422.378v-80.012l68.636 39.456v78.597l-68.636-38.041z" fill="#C4C4C4"/><path d="M554.97 422.378v-80.012l68.636 39.456v78.597l-68.636-38.041z" fill="url(#paint41_linear)"/><path d="M661.585 128.68L463.914 243.073l201.331 114.85 195.383-118.511L661.585 128.68z" fill="#C4C4C4"/><path d="M661.585 128.68L463.914 243.073l201.331 114.85 195.383-118.511L661.585 128.68z" fill="url(#paint42_linear)"/><path d="M661.2 178.555l-110.805 63.932 112.857 64.188 109.523-66.234L661.2 178.555z" fill="#C4C4C4"/><path d="M661.2 178.555l-110.805 63.932 112.857 64.188 109.523-66.234L661.2 178.555z" fill="url(#paint43_linear)"/><path d="M661.808 228.888l-67.486 38.816 68.736 38.971 66.705-40.213-67.955-37.574z" fill="#C4C4C4"/><path d="M661.808 228.888l-67.486 38.816 68.736 38.971 66.705-40.213-67.955-37.574z" fill="url(#paint44_linear)"/><path d="M336.125 217l288 165v275l-288-440z" fill="url(#paint45_linear)"/></g><path d="M954.729 505.904V273L753.397 387.851v228.785l201.332-110.732z" fill="#C4C4C4"/><path d="M954.729 505.904V273L753.397 387.851v228.785l201.332-110.732z" fill="url(#paint46_linear)"/><mask id="c" maskUnits="userSpaceOnUse" x="753" y="273" width="202" height="344"><path d="M954.729 505.904V273L753.397 387.851v228.785l201.332-110.732z" fill="#C4C4C4"/><path d="M954.729 505.904V273L753.397 387.851v228.785l201.332-110.732z" fill="url(#paint47_linear)"/></mask><g filter="url(#filter1_f)" mask="url(#c)"><g opacity=".3" stroke-dasharray="4 4"><path transform="scale(-1.22477 .70706) rotate(-45 284.361 1608.126)" stroke="url(#paint48_linear)" d="M0-.5h699.384"/><path transform="scale(-1.22477 .70706) rotate(-45 410.602 1555.838)" stroke="url(#paint49_linear)" d="M0-.5h699.384"/><path transform="scale(-1.22477 .70706) rotate(-45 536.84 1503.549)" stroke="url(#paint50_linear)" d="M0-.5h699.384"/><path transform="scale(-1.22477 .70706) rotate(-45 663.082 1451.26)" stroke="url(#paint51_linear)" d="M0-.5h699.384"/><path transform="scale(-1.22477 .70706) rotate(-45 789.323 1398.968)" stroke="url(#paint52_linear)" d="M0-.5h699.384"/><path transform="scale(-1.22477 .70706) rotate(-45 915.562 1346.676)" stroke="url(#paint53_linear)" d="M0-.5h699.384"/><path transform="scale(1.22477 -.70706) rotate(45 1537.248 154.212)" stroke="url(#paint54_linear)" d="M0-.5h699.384"/><path transform="scale(1.22477 -.70706) rotate(45 1411.01 101.92)" stroke="url(#paint55_linear)" d="M0-.5h699.384"/><path transform="scale(1.22477 -.70706) rotate(45 1284.767 49.631)" stroke="url(#paint56_linear)" d="M0-.5h699.384"/><path transform="scale(1.22477 -.70706) rotate(45 1158.527 -2.66)" stroke="url(#paint57_linear)" d="M0-.5h699.384"/><path transform="scale(1.22477 -.70706) rotate(45 1032.289 -54.95)" stroke="url(#paint58_linear)" d="M0-.5h699.384"/><path transform="scale(1.22477 -.70706) rotate(45 906.048 -107.24)" stroke="url(#paint59_linear)" d="M0-.5h699.384"/></g><path d="M893.94 481.977V249.073l-201.332 114.85v228.786L893.94 481.977z" fill="#C4C4C4"/><path d="M893.94 481.977V249.073l-201.332 114.85v228.786L893.94 481.977z" fill="url(#paint60_linear)"/><path d="M851.386 456.746V320.911l-117.139 66.984v133.433l117.139-64.582z" fill="#C4C4C4"/><path d="M851.386 456.746V320.911l-117.139 66.984v133.433l117.139-64.582z" fill="url(#paint61_linear)"/><path d="M802.883 428.378v-80.012l-68.636 39.456v78.597l68.636-38.041z" fill="#C4C4C4"/><path d="M802.883 428.378v-80.012l-68.636 39.456v78.597l68.636-38.041z" fill="url(#paint62_linear)"/><path d="M696.269 134.68L893.94 249.073l-201.332 114.85-195.383-118.511L696.269 134.68z" fill="#C4C4C4"/><path d="M696.269 134.68L893.94 249.073l-201.332 114.85-195.383-118.511L696.269 134.68z" fill="url(#paint63_linear)"/><path d="M696.654 184.555l110.805 63.932-112.857 64.188-109.523-66.234 111.575-61.886z" fill="#C4C4C4"/><path d="M696.654 184.555l110.805 63.932-112.857 64.188-109.523-66.234 111.575-61.886z" fill="url(#paint64_linear)"/><path d="M696.045 234.888l67.487 38.816-68.736 38.971-66.706-40.213 67.955-37.574z" fill="#C4C4C4"/><path d="M696.045 234.888l67.487 38.816-68.736 38.971-66.706-40.213 67.955-37.574z" fill="url(#paint65_linear)"/><path d="M1021.73 223L733.729 388v275l288.001-440z" fill="url(#paint66_linear)"/></g><defs><linearGradient id="paint0_linear" x1="786.807" y1="0" x2="197.562" y2="-363.811" gradientUnits="userSpaceOnUse"><stop offset=".097" stop-color="#fff" stop-opacity="0"/><stop offset=".502" stop-color="#fff" stop-opacity=".46"/><stop offset=".96" stop-color="#fff" stop-opacity="0"/></linearGradient><linearGradient id="paint1_linear" x1="786.807" y1="0" x2="197.562" y2="-363.811" gradientUnits="userSpaceOnUse"><stop offset=".097" stop-color="#fff" stop-opacity="0"/><stop offset=".502" stop-color="#fff" stop-opacity=".46"/><stop offset=".96" stop-color="#fff" stop-opacity="0"/></linearGradient><linearGradient id="paint2_linear" x1="786.807" y1="0" x2="197.562" y2="-363.811" gradientUnits="userSpaceOnUse"><stop offset=".097" stop-color="#fff" stop-opacity="0"/><stop offset=".502" stop-color="#fff" stop-opacity=".46"/><stop offset=".96" stop-color="#fff" stop-opacity="0"/></linearGradient><linearGradient id="paint3_linear" x1="786.807" y1="0" x2="197.562" y2="-363.811" gradientUnits="userSpaceOnUse"><stop offset=".097" stop-color="#fff" stop-opacity="0"/><stop offset=".502" stop-color="#fff" stop-opacity=".46"/><stop offset=".96" stop-color="#fff" stop-opacity="0"/></linearGradient><linearGradient id="paint4_linear" x1="786.807" y1="0" x2="197.562" y2="-363.811" gradientUnits="userSpaceOnUse"><stop offset=".097" stop-color="#fff" stop-opacity="0"/><stop offset=".502" stop-color="#fff" stop-opacity=".46"/><stop offset=".96" stop-color="#fff" stop-opacity="0"/></linearGradient><linearGradient id="paint5_linear" x1="786.807" y1="0" x2="197.562" y2="-363.811" gradientUnits="userSpaceOnUse"><stop offset=".097" stop-color="#fff" stop-opacity="0"/><stop offset=".502" stop-color="#fff" stop-opacity=".46"/><stop offset=".96" stop-color="#fff" stop-opacity="0"/></linearGradient><linearGradient id="paint6_linear" x1="-116.071" y1="-39.046" x2="367.694" y2="-432.484" gradientUnits="userSpaceOnUse"><stop offset=".173" stop-color="#fff" stop-opacity=".27"/><stop offset=".443" stop-color="#fff"/><stop offset=".953" stop-color="#fff" stop-opacity="0"/></linearGradient><linearGradient id="paint7_linear" x1="-116.071" y1="-39.046" x2="367.694" y2="-432.484" gradientUnits="userSpaceOnUse"><stop offset=".173" stop-color="#fff" stop-opacity=".27"/><stop offset=".443" stop-color="#fff"/><stop offset=".953" stop-color="#fff" stop-opacity="0"/></linearGradient><linearGradient id="paint8_linear" x1="-116.071" y1="-39.046" x2="367.694" y2="-432.484" gradientUnits="userSpaceOnUse"><stop offset=".173" stop-color="#fff" stop-opacity=".27"/><stop offset=".443" stop-color="#fff"/><stop offset=".953" stop-color="#fff" stop-opacity="0"/></linearGradient><linearGradient id="paint9_linear" x1="-116.071" y1="-39.046" x2="367.694" y2="-432.484" gradientUnits="userSpaceOnUse"><stop offset=".173" stop-color="#fff" stop-opacity=".27"/><stop offset=".443" stop-color="#fff"/><stop offset=".953" stop-color="#fff" stop-opacity="0"/></linearGradient><linearGradient id="paint10_linear" x1="-116.071" y1="-39.046" x2="367.694" y2="-432.484" gradientUnits="userSpaceOnUse"><stop offset=".173" stop-color="#fff" stop-opacity=".27"/><stop offset=".443" stop-color="#fff"/><stop offset=".953" stop-color="#fff" stop-opacity="0"/></linearGradient><linearGradient id="paint11_linear" x1="-116.071" y1="-39.046" x2="367.694" y2="-432.484" gradientUnits="userSpaceOnUse"><stop offset=".173" stop-color="#fff" stop-opacity=".27"/><stop offset=".443" stop-color="#fff"/><stop offset=".953" stop-color="#fff" stop-opacity="0"/></linearGradient><linearGradient id="paint12_linear" x1="699.683" y1="231.073" x2="365.104" y2="387.756" gradientUnits="userSpaceOnUse"><stop offset=".212" stop-color="#1D1D1D"/><stop offset=".861"/></linearGradient><linearGradient id="paint13_linear" x1="647.52" y1="302.912" x2="452.688" y2="393.932" gradientUnits="userSpaceOnUse"><stop offset=".08" stop-color="#242424"/><stop offset=".617"/></linearGradient><linearGradient id="paint14_linear" x1="641.457" y1="330.366" x2="527.082" y2="383.518" gradientUnits="userSpaceOnUse"><stop offset=".08" stop-color="#22FFCA"/><stop offset=".926" stop-color="#E4EE74"/></linearGradient><linearGradient id="paint15_linear" x1="750.396" y1="97" x2="612.359" y2="422.176" gradientUnits="userSpaceOnUse"><stop offset=".08" stop-color="#242424"/><stop offset=".581" stop-color="#050505"/></linearGradient><linearGradient id="paint16_linear" x1="809.844" y1="166.556" x2="505.759" y2="368.377" gradientUnits="userSpaceOnUse"><stop offset=".08" stop-color="#1D1D1D"/><stop offset=".754" stop-color="#0D0D0D"/></linearGradient><linearGradient id="paint17_linear" x1="755.965" y1="216.888" x2="662.519" y2="346.939" gradientUnits="userSpaceOnUse"><stop offset=".08" stop-color="#22FFCA"/><stop offset=".926" stop-color="#E4EE74"/></linearGradient><linearGradient id="paint18_linear" x1="894.323" y1="227.413" x2="565.012" y2="375.495" gradientUnits="userSpaceOnUse"><stop offset=".08" stop-color="#242424"/><stop offset=".496" stop-color="#0A0A0A"/></linearGradient><linearGradient id="paint19_linear" x1="840.615" y1="301.082" x2="633.982" y2="345.805" gradientUnits="userSpaceOnUse"><stop offset=".08" stop-color="#010101"/><stop offset=".754" stop-color="#0D0D0D"/></linearGradient><linearGradient id="paint20_linear" x1="790.167" y1="328.536" x2="681.009" y2="378.094" gradientUnits="userSpaceOnUse"><stop offset=".08" stop-color="#22FFCA"/><stop offset=".926" stop-color="#E4EE74"/></linearGradient><linearGradient id="paint21_linear" x1="871.179" y1="574.28" x2="664.045" y2="457.374" gradientUnits="userSpaceOnUse"><stop offset=".461" stop-color="#090A0D" stop-opacity="0"/><stop offset=".926" stop-color="#70F8A7"/></linearGradient><linearGradient id="paint22_linear" x1="495.197" y1="556.406" x2="680.736" y2="451.586" gradientUnits="userSpaceOnUse"><stop offset=".461" stop-color="#090A0D" stop-opacity="0"/><stop offset=".926" stop-color="#5BFAB1"/></linearGradient><linearGradient id="paint23_linear" x1="661.172" y1="8.117" x2="661.172" y2="356" gradientUnits="userSpaceOnUse"><stop stop-color="#090A0D" stop-opacity="0"/><stop offset="1" stop-color="#7AE390"/></linearGradient><linearGradient id="paint24_linear" x1="655.66" y1="44.832" x2="682.944" y2="291.012" gradientUnits="userSpaceOnUse"><stop offset=".353" stop-color="#090A0D" stop-opacity="0"/><stop offset=".87" stop-color="#6DF8A8"/></linearGradient><linearGradient id="paint25_linear" x1="621.895" y1="273" x2="287.316" y2="429.683" gradientUnits="userSpaceOnUse"><stop offset=".312" stop-color="#0A0A0A"/><stop offset=".808" stop-color="#0C0C0C"/></linearGradient><linearGradient id="paint26_linear" x1="621.895" y1="273" x2="287.316" y2="429.683" gradientUnits="userSpaceOnUse"><stop offset=".212" stop-color="#0C0C0C"/><stop offset=".861"/></linearGradient><linearGradient id="paint27_linear" x1="786.807" y1="0" x2="197.562" y2="-363.811" gradientUnits="userSpaceOnUse"><stop offset=".097" stop-color="#fff" stop-opacity="0"/><stop offset=".502" stop-color="#fff" stop-opacity=".46"/><stop offset=".96" stop-color="#fff" stop-opacity="0"/></linearGradient><linearGradient id="paint28_linear" x1="786.807" y1="0" x2="197.562" y2="-363.811" gradientUnits="userSpaceOnUse"><stop offset=".097" stop-color="#fff" stop-opacity="0"/><stop offset=".502" stop-color="#fff" stop-opacity=".46"/><stop offset=".96" stop-color="#fff" stop-opacity="0"/></linearGradient><linearGradient id="paint29_linear" x1="786.807" y1="0" x2="197.562" y2="-363.811" gradientUnits="userSpaceOnUse"><stop offset=".097" stop-color="#fff" stop-opacity="0"/><stop offset=".502" stop-color="#fff" stop-opacity=".46"/><stop offset=".96" stop-color="#fff" stop-opacity="0"/></linearGradient><linearGradient id="paint30_linear" x1="786.807" y1="0" x2="197.562" y2="-363.811" gradientUnits="userSpaceOnUse"><stop offset=".097" stop-color="#fff" stop-opacity="0"/><stop offset=".502" stop-color="#fff" stop-opacity=".46"/><stop offset=".96" stop-color="#fff" stop-opacity="0"/></linearGradient><linearGradient id="paint31_linear" x1="786.807" y1="0" x2="197.562" y2="-363.811" gradientUnits="userSpaceOnUse"><stop offset=".097" stop-color="#fff" stop-opacity="0"/><stop offset=".502" stop-color="#fff" stop-opacity=".46"/><stop offset=".96" stop-color="#fff" stop-opacity="0"/></linearGradient><linearGradient id="paint32_linear" x1="786.807" y1="0" x2="197.562" y2="-363.811" gradientUnits="userSpaceOnUse"><stop offset=".097" stop-color="#fff" stop-opacity="0"/><stop offset=".502" stop-color="#fff" stop-opacity=".46"/><stop offset=".96" stop-color="#fff" stop-opacity="0"/></linearGradient><linearGradient id="paint33_linear" x1="-116.071" y1="-39.046" x2="367.694" y2="-432.484" gradientUnits="userSpaceOnUse"><stop offset=".173" stop-color="#fff" stop-opacity=".27"/><stop offset=".443" stop-color="#fff"/><stop offset=".953" stop-color="#fff" stop-opacity="0"/></linearGradient><linearGradient id="paint34_linear" x1="-116.071" y1="-39.046" x2="367.694" y2="-432.484" gradientUnits="userSpaceOnUse"><stop offset=".173" stop-color="#fff" stop-opacity=".27"/><stop offset=".443" stop-color="#fff"/><stop offset=".953" stop-color="#fff" stop-opacity="0"/></linearGradient><linearGradient id="paint35_linear" x1="-116.071" y1="-39.046" x2="367.694" y2="-432.484" gradientUnits="userSpaceOnUse"><stop offset=".173" stop-color="#fff" stop-opacity=".27"/><stop offset=".443" stop-color="#fff"/><stop offset=".953" stop-color="#fff" stop-opacity="0"/></linearGradient><linearGradient id="paint36_linear" x1="-116.071" y1="-39.046" x2="367.694" y2="-432.484" gradientUnits="userSpaceOnUse"><stop offset=".173" stop-color="#fff" stop-opacity=".27"/><stop offset=".443" stop-color="#fff"/><stop offset=".953" stop-color="#fff" stop-opacity="0"/></linearGradient><linearGradient id="paint37_linear" x1="-116.071" y1="-39.046" x2="367.694" y2="-432.484" gradientUnits="userSpaceOnUse"><stop offset=".173" stop-color="#fff" stop-opacity=".27"/><stop offset=".443" stop-color="#fff"/><stop offset=".953" stop-color="#fff" stop-opacity="0"/></linearGradient><linearGradient id="paint38_linear" x1="-116.071" y1="-39.046" x2="367.694" y2="-432.484" gradientUnits="userSpaceOnUse"><stop offset=".173" stop-color="#fff" stop-opacity=".27"/><stop offset=".443" stop-color="#fff"/><stop offset=".953" stop-color="#fff" stop-opacity="0"/></linearGradient><linearGradient id="paint39_linear" x1="690.412" y1="243.073" x2="355.833" y2="399.756" gradientUnits="userSpaceOnUse"><stop offset=".212" stop-color="#1D1D1D"/><stop offset=".861"/></linearGradient><linearGradient id="paint40_linear" x1="638.249" y1="314.911" x2="443.416" y2="405.932" gradientUnits="userSpaceOnUse"><stop offset=".08" stop-color="#242424"/><stop offset=".617"/></linearGradient><linearGradient id="paint41_linear" x1="632.186" y1="342.366" x2="517.811" y2="395.517" gradientUnits="userSpaceOnUse"><stop offset=".08" stop-color="#22FFCA"/><stop offset=".926" stop-color="#E4EE74"/></linearGradient><linearGradient id="paint42_linear" x1="741.125" y1="109" x2="603.088" y2="434.176" gradientUnits="userSpaceOnUse"><stop offset=".08" stop-color="#242424"/><stop offset=".581" stop-color="#050505"/></linearGradient><linearGradient id="paint43_linear" x1="800.572" y1="178.555" x2="496.488" y2="380.376" gradientUnits="userSpaceOnUse"><stop offset=".08" stop-color="#1D1D1D"/><stop offset=".754" stop-color="#0D0D0D"/></linearGradient><linearGradient id="paint44_linear" x1="535.24" y1="335.568" x2="586.106" y2="186.282" gradientUnits="userSpaceOnUse"><stop offset=".08" stop-color="#fff"/><stop offset=".926" stop-color="#fff"/></linearGradient><linearGradient id="paint45_linear" x1="469.343" y1="586.28" x2="676.477" y2="469.374" gradientUnits="userSpaceOnUse"><stop offset=".461" stop-color="#A8AFC5" stop-opacity="0"/><stop offset=".926" stop-color="#52FAB4"/></linearGradient><linearGradient id="paint46_linear" x1="728.23" y1="273" x2="1062.81" y2="429.683" gradientUnits="userSpaceOnUse"><stop offset=".26" stop-color="#101313"/><stop offset=".861" stop-color="#0C0C0C"/></linearGradient><linearGradient id="paint47_linear" x1="728.23" y1="273" x2="1062.81" y2="429.683" gradientUnits="userSpaceOnUse"><stop offset=".212" stop-color="#0C0C0C"/><stop offset=".861"/></linearGradient><linearGradient id="paint48_linear" x1="786.807" y1="0" x2="197.562" y2="-363.811" gradientUnits="userSpaceOnUse"><stop offset=".097" stop-color="#fff" stop-opacity="0"/><stop offset=".502" stop-color="#fff" stop-opacity=".46"/><stop offset=".96" stop-color="#fff" stop-opacity="0"/></linearGradient><linearGradient id="paint49_linear" x1="786.807" y1="0" x2="197.562" y2="-363.811" gradientUnits="userSpaceOnUse"><stop offset=".097" stop-color="#fff" stop-opacity="0"/><stop offset=".502" stop-color="#fff" stop-opacity=".46"/><stop offset=".96" stop-color="#fff" stop-opacity="0"/></linearGradient><linearGradient id="paint50_linear" x1="786.807" y1="0" x2="197.562" y2="-363.811" gradientUnits="userSpaceOnUse"><stop offset=".097" stop-color="#fff" stop-opacity="0"/><stop offset=".502" stop-color="#fff" stop-opacity=".46"/><stop offset=".96" stop-color="#fff" stop-opacity="0"/></linearGradient><linearGradient id="paint51_linear" x1="786.807" y1="0" x2="197.562" y2="-363.811" gradientUnits="userSpaceOnUse"><stop offset=".097" stop-color="#fff" stop-opacity="0"/><stop offset=".502" stop-color="#fff" stop-opacity=".46"/><stop offset=".96" stop-color="#fff" stop-opacity="0"/></linearGradient><linearGradient id="paint52_linear" x1="786.807" y1="0" x2="197.562" y2="-363.811" gradientUnits="userSpaceOnUse"><stop offset=".097" stop-color="#fff" stop-opacity="0"/><stop offset=".502" stop-color="#fff" stop-opacity=".46"/><stop offset=".96" stop-color="#fff" stop-opacity="0"/></linearGradient><linearGradient id="paint53_linear" x1="786.807" y1="0" x2="197.562" y2="-363.811" gradientUnits="userSpaceOnUse"><stop offset=".097" stop-color="#fff" stop-opacity="0"/><stop offset=".502" stop-color="#fff" stop-opacity=".46"/><stop offset=".96" stop-color="#fff" stop-opacity="0"/></linearGradient><linearGradient id="paint54_linear" x1="-116.071" y1="-39.046" x2="367.694" y2="-432.484" gradientUnits="userSpaceOnUse"><stop offset=".173" stop-color="#fff" stop-opacity=".27"/><stop offset=".443" stop-color="#fff"/><stop offset=".953" stop-color="#fff" stop-opacity="0"/></linearGradient><linearGradient id="paint55_linear" x1="-116.071" y1="-39.046" x2="367.694" y2="-432.484" gradientUnits="userSpaceOnUse"><stop offset=".173" stop-color="#fff" stop-opacity=".27"/><stop offset=".443" stop-color="#fff"/><stop offset=".953" stop-color="#fff" stop-opacity="0"/></linearGradient><linearGradient id="paint56_linear" x1="-116.071" y1="-39.046" x2="367.694" y2="-432.484" gradientUnits="userSpaceOnUse"><stop offset=".173" stop-color="#fff" stop-opacity=".27"/><stop offset=".443" stop-color="#fff"/><stop offset=".953" stop-color="#fff" stop-opacity="0"/></linearGradient><linearGradient id="paint57_linear" x1="-116.071" y1="-39.046" x2="367.694" y2="-432.484" gradientUnits="userSpaceOnUse"><stop offset=".173" stop-color="#fff" stop-opacity=".27"/><stop offset=".443" stop-color="#fff"/><stop offset=".953" stop-color="#fff" stop-opacity="0"/></linearGradient><linearGradient id="paint58_linear" x1="-116.071" y1="-39.046" x2="367.694" y2="-432.484" gradientUnits="userSpaceOnUse"><stop offset=".173" stop-color="#fff" stop-opacity=".27"/><stop offset=".443" stop-color="#fff"/><stop offset=".953" stop-color="#fff" stop-opacity="0"/></linearGradient><linearGradient id="paint59_linear" x1="-116.071" y1="-39.046" x2="367.694" y2="-432.484" gradientUnits="userSpaceOnUse"><stop offset=".173" stop-color="#fff" stop-opacity=".27"/><stop offset=".443" stop-color="#fff"/><stop offset=".953" stop-color="#fff" stop-opacity="0"/></linearGradient><linearGradient id="paint60_linear" x1="667.442" y1="249.073" x2="1002.02" y2="405.756" gradientUnits="userSpaceOnUse"><stop offset=".212" stop-color="#1D1D1D"/><stop offset=".861"/></linearGradient><linearGradient id="paint61_linear" x1="719.605" y1="320.911" x2="914.437" y2="411.932" gradientUnits="userSpaceOnUse"><stop offset=".08" stop-color="#242424"/><stop offset=".617"/></linearGradient><linearGradient id="paint62_linear" x1="725.668" y1="348.366" x2="840.043" y2="401.517" gradientUnits="userSpaceOnUse"><stop offset=".08" stop-color="#22FFCA"/><stop offset=".926" stop-color="#E4EE74"/></linearGradient><linearGradient id="paint63_linear" x1="616.729" y1="115" x2="754.766" y2="440.176" gradientUnits="userSpaceOnUse"><stop offset=".08" stop-color="#242424"/><stop offset=".581" stop-color="#050505"/></linearGradient><linearGradient id="paint64_linear" x1="557.281" y1="184.555" x2="861.366" y2="386.376" gradientUnits="userSpaceOnUse"><stop offset=".08" stop-color="#1D1D1D"/><stop offset=".754" stop-color="#0D0D0D"/></linearGradient><linearGradient id="paint65_linear" x1="822.613" y1="341.568" x2="771.747" y2="192.282" gradientUnits="userSpaceOnUse"><stop offset=".08" stop-color="#fff"/><stop offset=".926" stop-color="#fff"/></linearGradient><linearGradient id="paint66_linear" x1="888.511" y1="592.28" x2="681.377" y2="475.374" gradientUnits="userSpaceOnUse"><stop offset=".461" stop-color="#A8AFC5" stop-opacity="0"/><stop offset=".926" stop-color="#47FBB9"/></linearGradient><filter id="filter0_f" x="-7.717" y="45.034" width="1207.42" height="760.103" filterUnits="userSpaceOnUse" color-interpolation-filters="sRGB"><feFlood flood-opacity="0" result="BackgroundImageFix"/><feBlend in="SourceGraphic" in2="BackgroundImageFix" result="shape"/><feGaussianBlur stdDeviation="37" result="effect1_foregroundBlur"/></filter><filter id="filter1_f" x="158.147" y="51.034" width="1207.42" height="760.103" filterUnits="userSpaceOnUse" color-interpolation-filters="sRGB"><feFlood flood-opacity="0" result="BackgroundImageFix"/><feBlend in="SourceGraphic" in2="BackgroundImageFix" result="shape"/><feGaussianBlur stdDeviation="37" result="effect1_foregroundBlur"/></filter></defs></svg>