<svg xmlns="http://www.w3.org/2000/svg" width="27" height="34" viewBox="0 0 27 34"><g><g><g><path fill="#80358a" d="M22.524 12.073v1.974h-6.273v-1.695c0-1.575 1.369-2.447 2.519-3.146.86-.534 1.646-.97 1.646-1.515 0-.447-.35-.797-1.041-.797-.714 0-1.184.519-1.451 1.15l-1.815-.92c.616-1.271 1.68-2.034 3.292-2.034 1.962 0 3.157 1.101 3.157 2.601 0 1.466-1.225 2.214-2.398 2.928-.785.485-1.544.91-1.789 1.454zm-10.29 10.554l-2.3-3.89-2.275 3.89H4.205l3.962-6.746-3.781-6.457h3.401l2.173 3.668 2.168-3.668h3.398L11.73 15.9l3.943 6.727zM24.78.862H2.187A1.97 1.97 0 0 0 .221 2.827v22.6a1.97 1.97 0 0 0 1.966 1.966H16.15l6.179 6.18v-6.18h2.45c1.087 0 1.97-.887 1.97-1.965v-22.6a1.973 1.973 0 0 0-1.97-1.966z"/></g></g></g></svg>