<svg xmlns="http://www.w3.org/2000/svg" width="26.528" height="32.711" viewBox="0 0 26.528 32.711">
  <g id="Сгруппировать_1218" data-name="Сгруппировать 1218" transform="translate(-354.44 247.36)">
    <path id="Контур_1738" data-name="Контур 1738" d="M379-247.36H356.406a1.97,1.97,0,0,0-1.966,1.966v22.6a1.97,1.97,0,0,0,1.966,1.966h13.963l6.179,6.179v-6.179H379a1.973,1.973,0,0,0,1.969-1.966v-22.6A1.973,1.973,0,0,0,379-247.36Zm-12.546,21.766-2.3-3.89-2.274,3.89h-3.454l3.961-6.747L358.6-238.8h3.4l2.172,3.668,2.169-3.668h3.4l-3.8,6.476,3.943,6.728Zm10.291-10.554v1.973H370.47v-1.7c0-1.575,1.368-2.447,2.518-3.146.861-.534,1.646-.97,1.646-1.515,0-.447-.35-.8-1.041-.8a1.623,1.623,0,0,0-1.451,1.15l-1.815-.921a3.409,3.409,0,0,1,3.292-2.033c1.962,0,3.157,1.1,3.157,2.6,0,1.466-1.225,2.214-2.4,2.928-.786.485-1.545.91-1.789,1.455Z" transform="translate(0 0)" fill="#ddd5b0" fill-rule="evenodd"/>
  </g>
</svg>
