<svg xmlns="http://www.w3.org/2000/svg" viewBox="0 0 211.8 47.38"><defs><style>.cls-1{fill:#fff;fill-rule:evenodd;}</style></defs><title>logo_bottom</title><g id="Слой_2" data-name="Слой 2"><g id="Слой_1-2" data-name="Слой 1"><path class="cls-1" d="M203.19,26.91a.42.42,0,0,0,.21,0h1.46a.47.47,0,0,0,.21,0,.26.26,0,0,0,.13-.08,1.14,1.14,0,0,0,.15-.17h0a1.58,1.58,0,0,0,.12-.15h0l2.14-3.77.53-.93v8.64a.35.35,0,0,0,.1.24l.11.08.12,0h3l.13,0,.1-.08h0a.26.26,0,0,0,.08-.11.44.44,0,0,0,0-.13V15.68a.37.37,0,0,0,0-.12.21.21,0,0,0-.08-.11.35.35,0,0,0-.1-.08.27.27,0,0,0-.13,0h-2.65a1,1,0,0,0-.31,0,.52.52,0,0,0-.17.12l-.18.2-.08.12h0l-3.71,6.33-.24.42-.25-.42-3.7-6.34h0l-.09-.11-.17-.2a.57.57,0,0,0-.18-.12.87.87,0,0,0-.3,0h-2.65a.27.27,0,0,0-.13,0,.59.59,0,0,0-.11.08.26.26,0,0,0-.07.11.21.21,0,0,0,0,.12V30.45a.25.25,0,0,0,0,.13.34.34,0,0,0,.07.11h0l.11.08.13,0h3a.33.33,0,0,0,.23-.1h0a.34.34,0,0,0,.07-.11.25.25,0,0,0,0-.13V21.81l.54.93,2.14,3.77h0a4.34,4.34,0,0,0,.27.32h0A.26.26,0,0,0,203.19,26.91Z"/><path class="cls-1" d="M192.13,15.37a.27.27,0,0,0-.13,0h-3a.27.27,0,0,0-.13,0,.59.59,0,0,0-.11.08.26.26,0,0,0-.07.11.21.21,0,0,0,0,.12v9a4.35,4.35,0,0,1-.18,1.3,2.78,2.78,0,0,1-.56,1,2.85,2.85,0,0,1-2.26.88,3.47,3.47,0,0,1-1.3-.22,2.27,2.27,0,0,1-1-.66,2.93,2.93,0,0,1-.56-1,4.35,4.35,0,0,1-.18-1.3v-9a.37.37,0,0,0,0-.12.28.28,0,0,0-.08-.11.38.38,0,0,0-.11-.08.23.23,0,0,0-.12,0h-3a.22.22,0,0,0-.12,0,.28.28,0,0,0-.11.08h0a.28.28,0,0,0-.08.11.37.37,0,0,0,0,.12v9.13a8,8,0,0,0,.12,1.43,6.23,6.23,0,0,0,.36,1.25,5.41,5.41,0,0,0,.58,1.06,5.27,5.27,0,0,0,.76.87,6,6,0,0,0,1,.69,6.55,6.55,0,0,0,1.14.5,7.48,7.48,0,0,0,1.3.3,9.59,9.59,0,0,0,1.45.11,9.29,9.29,0,0,0,1.42-.11,7.48,7.48,0,0,0,1.3-.3,6.55,6.55,0,0,0,1.14-.5,6.08,6.08,0,0,0,1-.69,4.9,4.9,0,0,0,.77-.87,5.41,5.41,0,0,0,.58-1.06,6.23,6.23,0,0,0,.36-1.25,8,8,0,0,0,.12-1.43V15.68a.22.22,0,0,0,0-.12.26.26,0,0,0-.07-.11A.59.59,0,0,0,192.13,15.37Z"/><path class="cls-1" d="M171.43,30.77l.12,0h3a.34.34,0,0,0,.23-.1h0a.38.38,0,0,0,.08-.11.44.44,0,0,0,0-.13V15.68a.37.37,0,0,0,0-.12.28.28,0,0,0-.08-.11.38.38,0,0,0-.11-.08.23.23,0,0,0-.12,0h-3a.22.22,0,0,0-.12,0,.44.44,0,0,0-.19.19.37.37,0,0,0,0,.12V30.45a.44.44,0,0,0,0,.13.38.38,0,0,0,.08.11h0Z"/><path class="cls-1" d="M161.35,22.28h-2.88v-4h2.88a4.59,4.59,0,0,1,.94.1,2.89,2.89,0,0,1,.79.31,1.39,1.39,0,0,1,.58.64,2.37,2.37,0,0,1,0,1.86,1.39,1.39,0,0,1-.58.64,2.89,2.89,0,0,1-.79.31,4.59,4.59,0,0,1-.94.1ZM164,15.66a10,10,0,0,0-2.62-.31h-6.2a.27.27,0,0,0-.13,0,.59.59,0,0,0-.11.08.26.26,0,0,0-.07.11.21.21,0,0,0,0,.12V30.45a.25.25,0,0,0,0,.13.34.34,0,0,0,.07.11h0l.11.08.13,0h3a.37.37,0,0,0,.24-.1h0a.34.34,0,0,0,.07-.11.25.25,0,0,0,0-.13V25.28H161l.08.15,2.54,4.9h0l.11.16a1.19,1.19,0,0,0,.15.18.37.37,0,0,0,.14.08h0a1.21,1.21,0,0,0,.3,0h3.12l.08,0h0l.07-.05h0a.18.18,0,0,0,.05-.07h0a.19.19,0,0,0,0-.08.35.35,0,0,0,0-.12h0L164.82,25l-.14-.27.28-.12a4.75,4.75,0,0,0,1.08-.69,4,4,0,0,0,.81-.93,4,4,0,0,0,.49-1.2,6.31,6.31,0,0,0,.17-1.5,5.6,5.6,0,0,0-.11-1.19,4.66,4.66,0,0,0-.31-1,3.92,3.92,0,0,0-.51-.84,3.65,3.65,0,0,0-.68-.68A5.14,5.14,0,0,0,165,16,6.17,6.17,0,0,0,164,15.66Z"/><path class="cls-1" d="M145.74,27.81h-4.06V24.45h4.06a2.09,2.09,0,0,1,.72.12,1.6,1.6,0,0,1,.95.91,1.57,1.57,0,0,1,.13.65,1.64,1.64,0,0,1-.5,1.2,1.78,1.78,0,0,1-1.3.48Zm1.35-8.53a2,2,0,0,1,0,1.26,1.54,1.54,0,0,1-.33.52h0a1.55,1.55,0,0,1-.55.34,2.52,2.52,0,0,1-.7.1h-3.83V18.32h3.83a2.19,2.19,0,0,1,.7.11,1.4,1.4,0,0,1,.55.33h0a1.65,1.65,0,0,1,.33.52Zm-8.86,11.49.12,0h7.85a8.59,8.59,0,0,0,1.3-.1,5.09,5.09,0,0,0,1.06-.3,4.33,4.33,0,0,0,1.53-1.05,3.79,3.79,0,0,0,.51-.7,4.49,4.49,0,0,0,.34-.78,6.42,6.42,0,0,0,.19-.87,5.14,5.14,0,0,0,.07-.88,6.18,6.18,0,0,0-.08-1,4,4,0,0,0-.25-.83,2.79,2.79,0,0,0-.44-.69,4,4,0,0,0-.71-.62l-.31-.21.29-.24.15-.13.18-.19a1.37,1.37,0,0,0,.19-.22,1.62,1.62,0,0,0,.19-.29,3,3,0,0,0,.18-.36c0-.13.1-.27.15-.43a2.36,2.36,0,0,0,.1-.49,3.45,3.45,0,0,0,0-.58,4.43,4.43,0,0,0-.07-.81,5.23,5.23,0,0,0-.19-.81h0a3.91,3.91,0,0,0-.34-.75h0a4,4,0,0,0-.5-.67,3.8,3.8,0,0,0-.68-.57,5.42,5.42,0,0,0-.9-.46,5.6,5.6,0,0,0-1.11-.3,8.32,8.32,0,0,0-1.37-.1h-7.37a.25.25,0,0,0-.12,0,.38.38,0,0,0-.11.08.44.44,0,0,0-.08.11.37.37,0,0,0,0,.12V30.45a.44.44,0,0,0,0,.13.76.76,0,0,0,.08.11h0Z"/><path class="cls-1" d="M130.29,30.77l.12,0h3a.33.33,0,0,0,.23-.1h0a.38.38,0,0,0,.08-.11.25.25,0,0,0,0-.13V15.68a.22.22,0,0,0,0-.12.21.21,0,0,0-.08-.11.28.28,0,0,0-.11-.08.22.22,0,0,0-.12,0h-3a.25.25,0,0,0-.12,0,.38.38,0,0,0-.11.08.44.44,0,0,0-.08.11.37.37,0,0,0,0,.12V30.45a.44.44,0,0,0,0,.13.76.76,0,0,0,.08.11h0Z"/><path class="cls-1" d="M126.83,27.72l-.12,0h-7.27v-12a.22.22,0,0,0,0-.12.21.21,0,0,0-.08-.11.35.35,0,0,0-.1-.08.27.27,0,0,0-.13,0h-3a.27.27,0,0,0-.13,0,.38.38,0,0,0-.11.08.26.26,0,0,0-.07.11.21.21,0,0,0,0,.12V30.45a.25.25,0,0,0,0,.13.34.34,0,0,0,.07.11h0l.11.08.13,0h10.59l.12,0,.11-.08h0a.34.34,0,0,0,.07-.11.25.25,0,0,0,0-.13V28a.33.33,0,0,0-.1-.23A.38.38,0,0,0,126.83,27.72Z"/><path class="cls-1" d="M108.05,30.77l.13,0h3a.33.33,0,0,0,.23-.1h0a.28.28,0,0,0,.1-.24V15.68a.22.22,0,0,0,0-.12.21.21,0,0,0-.08-.11.35.35,0,0,0-.1-.08.27.27,0,0,0-.13,0h-3a.27.27,0,0,0-.13,0,.38.38,0,0,0-.11.08.44.44,0,0,0-.08.11.37.37,0,0,0,0,.12V30.45a.44.44,0,0,0,0,.13.76.76,0,0,0,.08.11h0Z"/><path class="cls-1" d="M103.51,15.37a.22.22,0,0,0-.12,0h-3a.25.25,0,0,0-.12,0,.38.38,0,0,0-.11.08.44.44,0,0,0-.08.11.37.37,0,0,0,0,.12v9a4.35,4.35,0,0,1-.18,1.3,2.78,2.78,0,0,1-.56,1,2.86,2.86,0,0,1-2.27.88,3.42,3.42,0,0,1-1.29-.22,2.27,2.27,0,0,1-1-.66,2.78,2.78,0,0,1-.56-1,4.35,4.35,0,0,1-.18-1.3v-9a.37.37,0,0,0,0-.12.44.44,0,0,0-.08-.11.38.38,0,0,0-.11-.08.25.25,0,0,0-.12,0h-3a.22.22,0,0,0-.12,0,.28.28,0,0,0-.11.08h0a.28.28,0,0,0-.08.11.22.22,0,0,0,0,.12v9.13a8,8,0,0,0,.12,1.43,6.23,6.23,0,0,0,.36,1.25,6,6,0,0,0,.57,1.06,5.84,5.84,0,0,0,.77.87,5.58,5.58,0,0,0,1,.69,6.55,6.55,0,0,0,1.14.5,7.48,7.48,0,0,0,1.3.3,9.55,9.55,0,0,0,1.44.11,9.32,9.32,0,0,0,1.43-.11,7.48,7.48,0,0,0,1.3-.3,6.55,6.55,0,0,0,1.14-.5,6.08,6.08,0,0,0,1-.69,4.9,4.9,0,0,0,.77-.87,5.41,5.41,0,0,0,.58-1.06,6.23,6.23,0,0,0,.36-1.25,8,8,0,0,0,.12-1.43V15.68a.22.22,0,0,0,0-.12.21.21,0,0,0-.08-.11A.28.28,0,0,0,103.51,15.37Z"/><path class="cls-1" d="M83.16,24.56c0,.17,0,.32,0,.44v0a3.75,3.75,0,0,1-.28,1.13,3.26,3.26,0,0,1-.59.93,2.43,2.43,0,0,1-1,.64,3.83,3.83,0,0,1-1.33.21,3.87,3.87,0,0,1-1.33-.21h0a2.33,2.33,0,0,1-1-.64,3.09,3.09,0,0,1-.6-.93A3.81,3.81,0,0,1,76.75,25h0a8.7,8.7,0,0,1,0-.93c0-.17,0-.34,0-.51s0-.42,0-.52,0-.29,0-.53,0-.34,0-.5,0-.33,0-.48,0-.29,0-.42a5.4,5.4,0,0,1,.09-.58A4,4,0,0,1,77,20a2.84,2.84,0,0,1,.61-.93,3.09,3.09,0,0,1,.45-.36,3.76,3.76,0,0,1,.53-.27,4.16,4.16,0,0,1,.63-.17h0a5.39,5.39,0,0,1,.71-.05,5.27,5.27,0,0,1,.71.05,3.61,3.61,0,0,1,.63.17,3.76,3.76,0,0,1,.53.27,2.73,2.73,0,0,1,.45.36h0a2.69,2.69,0,0,1,.61.93h0a3.09,3.09,0,0,1,.17.54h0a2.8,2.8,0,0,1,.09.58h0c0,.13,0,.27,0,.42s0,.29,0,.46c0,.35,0,.69,0,1s0,.68,0,1h0l0,.47Zm-9.9-4.71a6.8,6.8,0,0,0-.17,1.2h0q0,.49,0,1c0,.31,0,.66,0,1.05s0,.73,0,1,0,.64,0,1a6.56,6.56,0,0,0,.17,1.19,6.13,6.13,0,0,0,.37,1.12,5.22,5.22,0,0,0,.56,1,5.85,5.85,0,0,0,.77.88,5.27,5.27,0,0,0,1,.72,7.29,7.29,0,0,0,2.48.89,9.47,9.47,0,0,0,1.55.12l.53,0L81,31l.48-.07h0l.47-.09.2-.05.11.16.63,1L83,32l.17.17a.53.53,0,0,0,.15.08h0a1.26,1.26,0,0,0,.3,0h3.31l.07,0,0,0a.11.11,0,0,0,0-.05v-.06h0L87,32h0l-1.8-2.59L85,29.22l.16-.17a6,6,0,0,0,.66-.84h0a5.29,5.29,0,0,0,.48-.95,6,6,0,0,0,.32-1,7.14,7.14,0,0,0,.15-1.13h0c0-.32,0-.64,0-1s0-.64,0-1,0-.74,0-1.05,0-.66,0-1h0a6.8,6.8,0,0,0-.16-1.2,7.34,7.34,0,0,0-.37-1.12h0a5.76,5.76,0,0,0-.57-1,5.64,5.64,0,0,0-.76-.87,6.28,6.28,0,0,0-1-.71,6.81,6.81,0,0,0-1.15-.56,9.06,9.06,0,0,0-5.76,0,6.81,6.81,0,0,0-1.15.56,5.45,5.45,0,0,0-1.72,1.58,5.14,5.14,0,0,0-.56,1A6.13,6.13,0,0,0,73.26,19.85Z"/><path class="cls-1" d="M69.86,27.72l-.12,0H62.22V24.57h6.83a.33.33,0,0,0,.23-.1.33.33,0,0,0,.08-.11.27.27,0,0,0,0-.13V21.81a.22.22,0,0,0,0-.12.28.28,0,0,0-.08-.11.35.35,0,0,0-.1-.08.27.27,0,0,0-.13,0H62.22v-3h7.33a.28.28,0,0,0,.13,0l.11-.07a.49.49,0,0,0,.07-.11.28.28,0,0,0,0-.13V15.68a.21.21,0,0,0,0-.12.26.26,0,0,0-.07-.11h0a.38.38,0,0,0-.11-.08.27.27,0,0,0-.13,0H58.9a.27.27,0,0,0-.13,0,.59.59,0,0,0-.11.08.26.26,0,0,0-.07.11.21.21,0,0,0,0,.12V30.45a.25.25,0,0,0,0,.13.34.34,0,0,0,.07.11h0l.11.08.13,0H69.74l.12,0,.11-.08a.38.38,0,0,0,.08-.11.44.44,0,0,0,0-.13V28a.29.29,0,0,0-.1-.23A.38.38,0,0,0,69.86,27.72Z"/><path class="cls-1" d="M44.16,35.6a23.7,23.7,0,1,0-3.92,5L36.42,36.8H13l3-5.93H39.46v0Zm-14.4-9H6.21l3-5.93H32.72Zm5.13-10.16H11.34l3-5.93H37.85Z"/></g></g></svg>