<svg width="448" height="333" fill="none" xmlns="http://www.w3.org/2000/svg"><path d="M439.319 317.583a6.305 6.305 0 006.298-6.303 6.304 6.304 0 00-6.298-6.302h-18.967v18.98a6.305 6.305 0 006.298 6.303 6.305 6.305 0 006.298-6.303" stroke="#E63946" stroke-width="3" stroke-miterlimit="10" stroke-linecap="round" stroke-linejoin="round"/><path d="M439.826 305.05c1.593 0 3.185.58 4.416 1.812 1.231 1.231 1.81 2.825 1.81 4.419 0 1.593-.579 3.187-1.81 4.419-1.231 1.231-2.823 1.811-4.416 1.811-1.593 0-3.185-.58-4.416-1.811-1.231-1.232-1.81-4.275-1.81-5.868m-13.176 14.633c0 1.594.58 3.188 1.81 4.419 1.231 1.232 2.824 1.812 4.416 1.812 1.593 0 3.186-.58 4.416-1.812 1.231-1.231 1.81-2.825 1.81-4.419 0-1.593-.579-3.187-1.81-4.419-1.23-1.231-2.823-1.811-4.416-1.811H2.112v-23.419m431.416 4.729V2.219h-22.66" stroke="#E63946" stroke-width="3" stroke-miterlimit="10" stroke-linecap="round" stroke-linejoin="round"/></svg>