<svg width="24" height="21" fill="none" xmlns="http://www.w3.org/2000/svg"><path d="M21.811.399a2.59 2.59 0 00-.816.195h-.004c-.249.099-1.435.597-3.237 1.353l-6.46 2.72-9.19 3.873.054-.02s-.314.103-.642.328a1.776 1.776 0 00-.513.496c-.161.236-.29.597-.242.971.078.632.488 1.01.782 1.22.297.211.58.31.58.31h.008l4.272 1.44c.192.615 1.302 4.265 1.57 5.106.157.502.31.817.502 1.056.092.123.2.225.331.308.068.039.14.07.215.092l-.043-.01c.013.003.023.014.033.017.035.01.059.013.103.02.677.205 1.22-.215 1.22-.215l.03-.024 2.523-2.297 4.228 3.243.096.041c.882.387 1.774.172 2.246-.208.475-.382.66-.871.66-.871l.03-.079 3.267-16.738c.093-.413.117-.8.014-1.175a1.581 1.581 0 00-.683-.916 1.638 1.638 0 00-.934-.236zm-.088 1.793c-.004.055.007.05-.018.155v.01L18.47 18.92c-.014.023-.038.075-.103.127-.068.054-.122.088-.407-.025l-5.17-3.965-3.124 2.848.656-4.192L18.77 5.84c.348-.323.232-.392.232-.392.024-.397-.526-.116-.526-.116l-10.654 6.6-.004-.017-5.106-1.72v-.003l-.013-.003a.246.246 0 00.026-.01l.028-.014.027-.01s4.56-1.922 9.195-3.873c2.32-.977 4.658-1.962 6.456-2.721a702.817 702.817 0 013.203-1.339c.071-.028.037-.028.089-.028z" fill="#687A95"/></svg>