<svg version="1.1" id="Layer_1" xmlns="http://www.w3.org/2000/svg" x="0" y="0" viewBox="0 0 359.98 103.3" xml:space="preserve"><style>.st1{fill:#fff}</style><g id="XMLID_1_"><path id="XMLID_4_" d="M359.98 92.95c0 5.72-4.63 10.36-10.37 10.36H10.38C4.65 103.3 0 98.67 0 92.95V10.37C0 4.65 4.65 0 10.38 0h339.23c5.73 0 10.37 4.65 10.37 10.37v82.58z"/><path id="XMLID_5_" class="st1" d="M79.05 51.08c-.08-8.71 7.14-12.95 7.46-13.15-4.09-5.96-10.42-6.77-12.64-6.83-5.32-.56-10.48 3.18-13.19 3.18-2.76 0-6.94-3.13-11.43-3.04-5.79.09-11.2 3.44-14.17 8.64-6.13 10.61-1.56 26.19 4.31 34.77 2.94 4.2 6.37 8.89 10.86 8.72 4.39-.18 6.03-2.8 11.34-2.8 5.25 0 6.79 2.8 11.37 2.7 4.72-.08 7.68-4.22 10.52-8.45 3.39-4.81 4.76-9.55 4.81-9.8-.1-.04-9.15-3.49-9.24-13.94z"/><path id="XMLID_6_" class="st1" d="M70.4 25.46c2.36-2.96 3.98-6.98 3.53-11.06-3.42.15-7.7 2.37-10.16 5.26-2.18 2.55-4.13 6.72-3.62 10.65 3.84.28 7.78-1.94 10.25-4.85z"/><path id="XMLID_9_" class="st1" d="M142.63 82.77h-6.14l-3.36-10.57h-11.69l-3.2 10.57h-5.98l11.58-35.98h7.15l11.64 35.98zm-10.51-15l-3.04-9.4c-.32-.96-.92-3.22-1.81-6.78h-.11c-.35 1.53-.92 3.79-1.71 6.78l-2.99 9.4h9.66z"/><path id="XMLID_12_" class="st1" d="M172.42 69.48c0 4.41-1.19 7.9-3.58 10.46-2.14 2.28-4.79 3.42-7.95 3.42-3.42 0-5.87-1.23-7.37-3.68h-.11v13.67h-5.76V65.37c0-2.77-.07-5.62-.21-8.54h5.07l.32 4.11h.11c1.92-3.1 4.84-4.65 8.75-4.65 3.06 0 5.62 1.21 7.66 3.63 2.05 2.42 3.07 5.61 3.07 9.56zm-5.87.21c0-2.53-.57-4.61-1.71-6.25-1.25-1.71-2.92-2.56-5.02-2.56-1.42 0-2.71.48-3.87 1.41-1.16.95-1.91 2.18-2.27 3.71-.18.71-.27 1.3-.27 1.76v4.33c0 1.89.58 3.48 1.74 4.78 1.16 1.3 2.66 1.95 4.51 1.95 2.17 0 3.86-.84 5.07-2.51 1.21-1.67 1.82-3.88 1.82-6.62z"/><path id="XMLID_15_" class="st1" d="M202.26 69.48c0 4.41-1.19 7.9-3.58 10.46-2.13 2.28-4.79 3.42-7.95 3.42-3.42 0-5.87-1.23-7.36-3.68h-.11v13.67h-5.76V65.37c0-2.77-.07-5.62-.21-8.54h5.07l.32 4.11h.11c1.92-3.1 4.84-4.65 8.75-4.65 3.06 0 5.61 1.21 7.66 3.63 2.04 2.42 3.06 5.61 3.06 9.56zm-5.87.21c0-2.53-.57-4.61-1.71-6.25-1.25-1.71-2.91-2.56-5.02-2.56-1.42 0-2.71.48-3.87 1.41-1.16.95-1.91 2.18-2.27 3.71-.18.71-.27 1.3-.27 1.76v4.33c0 1.89.58 3.48 1.73 4.78 1.16 1.3 2.66 1.95 4.52 1.95 2.17 0 3.86-.84 5.07-2.51 1.21-1.67 1.82-3.88 1.82-6.62z"/><path id="XMLID_16_" class="st1" d="M235.63 72.68c0 3.06-1.06 5.55-3.2 7.47-2.34 2.1-5.61 3.15-9.8 3.15-3.87 0-6.98-.75-9.33-2.24l1.34-4.8c2.53 1.53 5.31 2.3 8.33 2.3 2.17 0 3.86-.49 5.07-1.47 1.21-.98 1.81-2.29 1.81-3.93 0-1.46-.5-2.69-1.5-3.69-.99-1-2.65-1.93-4.96-2.78-6.3-2.35-9.45-5.79-9.45-10.32 0-2.96 1.1-5.38 3.31-7.27 2.2-1.89 5.14-2.83 8.81-2.83 3.27 0 5.99.57 8.17 1.71l-1.44 4.7c-2.03-1.1-4.32-1.65-6.89-1.65-2.03 0-3.61.5-4.75 1.5-.96.89-1.44 1.97-1.44 3.26 0 1.42.55 2.6 1.65 3.52.96.85 2.7 1.78 5.23 2.78 3.1 1.25 5.37 2.7 6.83 4.37 1.48 1.65 2.21 3.73 2.21 6.22z"/><path id="XMLID_17_" class="st1" d="M254.68 61.15h-6.35v12.6c0 3.2 1.12 4.8 3.36 4.8 1.03 0 1.88-.09 2.56-.27l.16 4.38c-1.14.42-2.63.64-4.48.64-2.28 0-4.06-.69-5.34-2.08-1.28-1.39-1.92-3.72-1.92-6.99V61.15h-3.79v-4.33h3.79v-4.75l5.66-1.71v6.46h6.35v4.33z"/><path id="XMLID_20_" class="st1" d="M283.35 69.59c0 3.99-1.14 7.26-3.42 9.82-2.39 2.64-5.56 3.95-9.51 3.95-3.81 0-6.84-1.26-9.1-3.79-2.26-2.53-3.39-5.71-3.39-9.55 0-4.02 1.16-7.31 3.5-9.87 2.33-2.56 5.47-3.84 9.42-3.84 3.81 0 6.87 1.26 9.18 3.79 2.22 2.44 3.32 5.61 3.32 9.49zm-5.98.18c0-2.39-.51-4.44-1.55-6.16-1.21-2.07-2.94-3.1-5.17-3.1-2.32 0-4.08 1.04-5.29 3.1-1.04 1.71-1.55 3.8-1.55 6.26 0 2.39.51 4.44 1.55 6.15 1.25 2.07 2.99 3.1 5.23 3.1 2.2 0 3.93-1.05 5.17-3.16 1.07-1.72 1.61-3.8 1.61-6.19z"/><path id="XMLID_21_" class="st1" d="M302.09 61.9c-.57-.11-1.18-.16-1.82-.16-2.03 0-3.6.77-4.7 2.3-.96 1.35-1.44 3.06-1.44 5.12v13.61h-5.76l.05-17.77c0-2.99-.07-5.71-.22-8.17h5.02l.21 4.96h.16c.61-1.71 1.57-3.08 2.88-4.11 1.28-.93 2.67-1.39 4.17-1.39.53 0 1.01.04 1.44.11v5.5z"/><path id="XMLID_24_" class="st1" d="M327.87 68.57c0 1.03-.07 1.9-.21 2.61h-17.29c.07 2.56.9 4.52 2.51 5.88 1.46 1.21 3.34 1.81 5.66 1.81 2.56 0 4.9-.41 7-1.23l.9 4c-2.45 1.07-5.35 1.6-8.7 1.6-4.02 0-7.18-1.18-9.48-3.55-2.29-2.37-3.44-5.54-3.44-9.53 0-3.91 1.07-7.17 3.21-9.77 2.24-2.77 5.26-4.16 9.07-4.16 3.74 0 6.57 1.39 8.49 4.16 1.51 2.22 2.28 4.94 2.28 8.18zm-5.5-1.49c.04-1.71-.34-3.19-1.12-4.43-1-1.6-2.53-2.4-4.59-2.4-1.88 0-3.42.78-4.59 2.35-.96 1.25-1.53 2.74-1.71 4.48h12.01z"/><path id="XMLID_27_" class="st1" d="M130.21 24.66c0 3.18-.95 5.58-2.86 7.19-1.77 1.48-4.27 2.23-7.52 2.23-1.61 0-2.99-.07-4.14-.21v-17.4c1.51-.24 3.13-.37 4.88-.37 3.1 0 5.43.67 7 2.02 1.76 1.53 2.64 3.7 2.64 6.54zm-2.99.07c0-2.06-.55-3.64-1.64-4.75-1.09-1.1-2.69-1.65-4.79-1.65-.89 0-1.65.06-2.28.18v13.22c.35.05.99.08 1.91.08 2.17 0 3.84-.6 5.02-1.81 1.19-1.2 1.78-2.96 1.78-5.27z"/><path id="XMLID_30_" class="st1" d="M146.05 27.43c0 1.96-.56 3.57-1.68 4.83-1.17 1.3-2.73 1.94-4.67 1.94-1.87 0-3.36-.62-4.47-1.86-1.11-1.24-1.66-2.81-1.66-4.69 0-1.97.57-3.59 1.72-4.85 1.15-1.26 2.69-1.89 4.63-1.89 1.87 0 3.37.62 4.51 1.86 1.08 1.2 1.62 2.76 1.62 4.66zm-2.94.1c0-1.18-.25-2.18-.76-3.03-.59-1.02-1.44-1.52-2.54-1.52-1.14 0-2 .51-2.6 1.52-.51.84-.76 1.87-.76 3.08 0 1.18.25 2.18.76 3.03.61 1.02 1.47 1.52 2.57 1.52 1.08 0 1.93-.52 2.54-1.55.53-.86.79-1.88.79-3.05z"/><path id="XMLID_31_" class="st1" d="M167.29 21.17l-3.99 12.75h-2.6l-1.65-5.53c-.42-1.38-.76-2.76-1.02-4.12h-.05c-.25 1.4-.59 2.77-1.02 4.12l-1.75 5.53h-2.63l-3.75-12.75h2.91l1.44 6.06c.35 1.43.64 2.8.87 4.09h.05c.21-1.07.56-2.42 1.05-4.06l1.81-6.08h2.31l1.73 5.95c.42 1.45.76 2.85 1.02 4.2h.08c.19-1.31.48-2.71.87-4.2l1.55-5.95 2.77-.01z"/><path id="XMLID_32_" class="st1" d="M181.98 33.91h-2.83v-7.3c0-2.25-.85-3.37-2.57-3.37-.84 0-1.52.31-2.05.93-.52.62-.79 1.35-.79 2.18v7.56h-2.83v-9.1c0-1.12-.04-2.33-.1-3.65h2.49l.13 1.99h.08c.33-.62.82-1.13 1.47-1.54.77-.48 1.63-.72 2.57-.72 1.19 0 2.18.38 2.97 1.15.98.94 1.47 2.35 1.47 4.22v7.65z"/><path id="XMLID_33_" class="st1" d="M186.96 15.32h2.83v18.59h-2.83z"/><path id="XMLID_36_" class="st1" d="M206.48 27.43c0 1.96-.56 3.57-1.68 4.83-1.17 1.3-2.73 1.94-4.67 1.94-1.87 0-3.36-.62-4.47-1.86-1.11-1.24-1.66-2.81-1.66-4.69 0-1.97.57-3.59 1.72-4.85 1.15-1.26 2.69-1.89 4.63-1.89 1.87 0 3.37.62 4.52 1.86 1.06 1.2 1.61 2.76 1.61 4.66zm-2.95.1c0-1.18-.25-2.18-.76-3.03-.59-1.02-1.44-1.52-2.54-1.52-1.14 0-2.01.51-2.6 1.52-.51.84-.76 1.87-.76 3.08 0 1.18.25 2.18.76 3.03.61 1.02 1.47 1.52 2.57 1.52 1.08 0 1.93-.52 2.54-1.55.54-.86.79-1.88.79-3.05z"/><path id="XMLID_39_" class="st1" d="M220.19 33.91h-2.54l-.21-1.47h-.08c-.87 1.17-2.11 1.76-3.72 1.76-1.2 0-2.18-.39-2.91-1.15-.67-.7-1-1.57-1-2.6 0-1.56.65-2.74 1.95-3.57 1.3-.82 3.14-1.22 5.5-1.21v-.24c0-1.68-.88-2.52-2.65-2.52-1.26 0-2.37.32-3.32.94l-.58-1.86c1.18-.73 2.65-1.1 4.37-1.1 3.33 0 5 1.76 5 5.27v4.69c.01 1.3.07 2.31.19 3.06zm-2.94-4.38v-1.97c-3.13-.05-4.69.8-4.69 2.57 0 .67.18 1.16.54 1.5.36.33.83.5 1.38.5.62 0 1.2-.2 1.73-.59.53-.39.86-.89.98-1.51l.06-.5z"/><path id="XMLID_42_" class="st1" d="M236.29 33.91h-2.51l-.13-2.05h-.08c-.8 1.56-2.17 2.34-4.09 2.34-1.54 0-2.81-.6-3.83-1.81-1.01-1.21-1.52-2.77-1.52-4.69 0-2.06.55-3.73 1.65-5.01 1.07-1.19 2.38-1.78 3.93-1.78 1.71 0 2.91.58 3.59 1.73h.05v-7.32h2.84v15.16c0 1.24.03 2.38.1 3.43zm-2.94-5.37v-2.13c0-.37-.03-.67-.08-.89-.16-.68-.5-1.25-1.02-1.72-.53-.46-1.16-.69-1.9-.69-1.06 0-1.88.42-2.49 1.26-.6.84-.91 1.91-.91 3.23 0 1.26.29 2.28.87 3.07.61.84 1.44 1.26 2.48 1.26.93 0 1.67-.35 2.24-1.05.55-.66.81-1.43.81-2.34z"/><path id="XMLID_45_" class="st1" d="M260.52 27.43c0 1.96-.56 3.57-1.68 4.83-1.17 1.3-2.73 1.94-4.67 1.94-1.87 0-3.36-.62-4.47-1.86-1.11-1.24-1.66-2.81-1.66-4.69 0-1.97.57-3.59 1.72-4.85 1.15-1.26 2.69-1.89 4.63-1.89 1.87 0 3.37.62 4.51 1.86 1.08 1.2 1.62 2.76 1.62 4.66zm-2.93.1c0-1.18-.25-2.18-.76-3.03-.6-1.02-1.44-1.52-2.54-1.52-1.14 0-2 .51-2.6 1.52-.51.84-.76 1.87-.76 3.08 0 1.18.25 2.18.76 3.03.61 1.02 1.47 1.52 2.57 1.52 1.08 0 1.93-.52 2.54-1.55.52-.86.79-1.88.79-3.05z"/><path id="XMLID_46_" class="st1" d="M275.76 33.91h-2.83v-7.3c0-2.25-.85-3.37-2.57-3.37-.84 0-1.52.31-2.04.93-.52.62-.79 1.35-.79 2.18v7.56h-2.84v-9.1c0-1.12-.03-2.33-.1-3.65h2.49l.13 1.99h.08c.33-.62.82-1.13 1.47-1.54.77-.48 1.63-.72 2.57-.72 1.19 0 2.18.38 2.96 1.15.98.94 1.47 2.35 1.47 4.22v7.65z"/><path id="XMLID_47_" class="st1" d="M294.83 23.29h-3.12v6.19c0 1.57.55 2.36 1.65 2.36.51 0 .93-.04 1.26-.13l.07 2.15c-.56.21-1.29.32-2.2.32-1.12 0-1.99-.34-2.62-1.02-.63-.68-.95-1.83-.95-3.44v-6.43h-1.86v-2.12h1.86v-2.34l2.78-.84v3.17h3.12l.01 2.13z"/><path id="XMLID_48_" class="st1" d="M309.83 33.91h-2.84v-7.25c0-2.28-.85-3.43-2.57-3.43-1.31 0-2.21.66-2.7 1.99-.08.28-.13.62-.13 1.02v7.67h-2.83V15.32h2.83V23h.05c.89-1.4 2.17-2.1 3.83-2.1 1.17 0 2.14.38 2.91 1.15.96.96 1.44 2.39 1.44 4.27v7.59z"/><path id="XMLID_51_" class="st1" d="M325.3 26.94c0 .51-.04.94-.11 1.28h-8.5c.04 1.26.44 2.22 1.23 2.88.72.59 1.65.89 2.78.89 1.26 0 2.4-.2 3.44-.6l.44 1.97c-1.21.52-2.63.79-4.28.79-1.97 0-3.53-.58-4.65-1.74-1.13-1.16-1.69-2.72-1.69-4.68 0-1.92.52-3.52 1.57-4.8 1.1-1.36 2.58-2.04 4.46-2.04 1.83 0 3.23.68 4.17 2.04.77 1.08 1.14 2.42 1.14 4.01zm-2.7-.74c.02-.84-.16-1.57-.55-2.18-.49-.79-1.24-1.18-2.26-1.18-.92 0-1.68.38-2.25 1.15-.47.61-.75 1.35-.84 2.2h5.9z"/></g></svg>