<svg width="18" height="18" viewBox="0 0 18 18" fill="none" xmlns="http://www.w3.org/2000/svg">
<path fill-rule="evenodd" clip-rule="evenodd" d="M17.9028 5.00593L16.4474 10.7208C16.1257 11.9205 15.2092 12.3756 13.7807 12.3756H5.21135C4.90071 12.3756 4.64913 12.6269 4.64913 12.9378C4.64913 12.9804 4.65353 13.0216 4.66232 13.0616C4.66313 13.0636 4.66232 13.0644 4.66232 13.0666L4.80129 13.7837C4.92736 14.2663 5.36488 14.6255 5.88811 14.6255H7.31222C8.24386 14.6255 8.99944 15.3811 8.99944 16.3127C8.99944 17.2452 8.24386 18 7.31222 18C6.8464 18 6.42396 17.8107 6.11828 17.5058L6.11909 17.505C6.01471 17.4032 5.94963 17.2611 5.94963 17.1038C5.94963 16.7931 6.20177 16.541 6.51241 16.541C6.66981 16.541 6.8118 16.6061 6.91397 16.7113L6.91453 16.7105C7.0167 16.8126 7.15651 16.875 7.31222 16.875C7.6223 16.875 7.87444 16.6237 7.87444 16.3128C7.87444 16.0019 7.6223 15.7506 7.31222 15.7506H5.90541C4.82379 15.7506 3.92266 14.9856 3.70814 13.9664L3.5068 12.9246C3.49003 12.8384 3.47987 12.7485 3.47987 12.6565C3.47987 11.8801 4.10938 11.2506 4.88612 11.2506H5.6244H14.0616C14.7499 11.2506 15.1998 11.0295 15.3608 10.4296L16.8159 4.71452C16.8442 4.61099 16.8755 4.5025 16.8747 4.39509C16.8681 3.88093 16.527 3.37528 16.0307 3.37528H5.6244H4.49912H3.94569C3.26261 3.37528 2.69406 2.8883 2.56637 2.24286C2.56637 2.24205 2.56444 2.24367 2.56363 2.24286L2.51009 1.96682C2.38402 1.48454 1.9465 1.125 1.42327 1.125H0.561938C0.251297 1.125 0 0.873703 0 0.562781C0 0.252141 0.251297 0 0.561938 0H1.40597C2.48759 0 3.38871 0.76493 3.60323 1.78418L3.60541 1.79515C3.65681 2.05305 3.88283 2.25 4.15666 2.25C4.23548 2.25 16.3119 2.25 16.3119 2.25C17.2175 2.25 18.0008 3.38597 18 4.46541C18 4.64861 17.9497 4.83124 17.9028 5.00593ZM3.93722 9.00028C4.24786 9.00028 4.49916 9.25242 4.49916 9.5625C4.49916 9.87342 4.24786 10.1253 3.93722 10.1253C3.6263 10.1253 3.37416 9.87342 3.37416 9.5625C3.37419 9.25242 3.6263 9.00028 3.93722 9.00028ZM3.65323 4.4967C3.98777 4.47198 4.28055 4.70461 4.30745 5.01606L4.49779 7.27102C4.52471 7.58194 4.27395 7.8544 3.9394 7.87883C3.60461 7.90355 3.31179 7.67092 3.28598 7.35947L3.09456 5.10507C3.06847 4.79362 3.31843 4.52116 3.65323 4.4967ZM10.6867 14.6256H12.9367C13.8691 14.6256 14.6248 15.3811 14.6248 16.3128C14.6248 17.2452 13.8692 18 12.9367 18C12.4709 18 12.0487 17.8108 11.7436 17.5059L11.7444 17.5051C11.64 17.4032 11.5749 17.2617 11.5749 17.1038C11.5749 16.7932 11.8262 16.541 12.1369 16.541C12.2948 16.541 12.4362 16.6061 12.5384 16.7113L12.5398 16.7097C12.6419 16.8118 12.7818 16.875 12.9367 16.875C13.2476 16.875 13.4997 16.6237 13.4997 16.3128C13.4997 16.0019 13.2476 15.7506 12.9367 15.7506H11.3533H11.2494H10.6867C10.3766 15.7506 10.1244 15.4984 10.1244 15.1878C10.1244 14.8769 10.3766 14.6256 10.6867 14.6256Z" fill="white"/>
</svg>
