<svg width="16" height="16" viewBox="0 0 16 16" fill="none" xmlns="http://www.w3.org/2000/svg">
<path d="M12.0001 2.66667H9.33344C9.09769 2.66667 8.8716 2.76032 8.7049 2.92702C8.5382 3.09372 8.44455 3.31981 8.44455 3.55556V6.22222H12.0001C12.0499 6.22112 12.0993 6.232 12.144 6.25394C12.1888 6.27589 12.2276 6.30826 12.2572 6.34834C12.2868 6.38841 12.3064 6.43501 12.3142 6.48422C12.3221 6.53343 12.318 6.58381 12.3023 6.63111L11.6446 8.58667C11.615 8.67423 11.5589 8.75039 11.484 8.80456C11.4091 8.85872 11.3192 8.8882 11.2268 8.88889H8.44455V15.5556C8.44455 15.6734 8.39773 15.7865 8.31438 15.8698C8.23103 15.9532 8.11798 16 8.00011 16H5.77789C5.66001 16 5.54697 15.9532 5.46362 15.8698C5.38027 15.7865 5.33344 15.6734 5.33344 15.5556V8.88889H4.00011C3.88223 8.88889 3.76919 8.84206 3.68584 8.75871C3.60249 8.67537 3.55566 8.56232 3.55566 8.44444V6.66667C3.55566 6.54879 3.60249 6.43575 3.68584 6.3524C3.76919 6.26905 3.88223 6.22222 4.00011 6.22222H5.33344V3.55556C5.33344 2.61256 5.70804 1.70819 6.37484 1.0414C7.04164 0.374602 7.94601 0 8.889 0H12.0001C12.118 0 12.231 0.0468253 12.3144 0.130175C12.3977 0.213524 12.4446 0.32657 12.4446 0.444444V2.22222C12.4446 2.3401 12.3977 2.45314 12.3144 2.53649C12.231 2.61984 12.118 2.66667 12.0001 2.66667Z" fill="#A88A4C"/>
</svg>
