<svg width="16" height="16" viewBox="0 0 16 16" fill="none" xmlns="http://www.w3.org/2000/svg">
<path d="M11.5556 0H4.44444C3.2657 0 2.13524 0.468253 1.30175 1.30175C0.468253 2.13524 0 3.2657 0 4.44444V11.5556C0 12.7343 0.468253 13.8648 1.30175 14.6983C2.13524 15.5317 3.2657 16 4.44444 16H11.5556C12.7343 16 13.8648 15.5317 14.6983 14.6983C15.5317 13.8648 16 12.7343 16 11.5556V4.44444C16 3.2657 15.5317 2.13524 14.6983 1.30175C13.8648 0.468253 12.7343 0 11.5556 0ZM14.4444 11.5556C14.4421 12.321 14.137 13.0545 13.5957 13.5957C13.0545 14.137 12.321 14.4421 11.5556 14.4444H4.44444C3.67898 14.4421 2.94555 14.137 2.40428 13.5957C1.86302 13.0545 1.5579 12.321 1.55556 11.5556V4.44444C1.5579 3.67898 1.86302 2.94555 2.40428 2.40428C2.94555 1.86302 3.67898 1.5579 4.44444 1.55556H11.5556C12.321 1.5579 13.0545 1.86302 13.5957 2.40428C14.137 2.94555 14.4421 3.67898 14.4444 4.44444V11.5556ZM13.1111 3.77778C13.1111 3.95358 13.059 4.12544 12.9613 4.27162C12.8636 4.4178 12.7248 4.53173 12.5624 4.599C12.4 4.66628 12.2212 4.68389 12.0488 4.64959C11.8764 4.61529 11.718 4.53063 11.5937 4.40632C11.4694 4.282 11.3847 4.12362 11.3504 3.95119C11.3161 3.77876 11.3337 3.60004 11.401 3.43761C11.4683 3.27519 11.5822 3.13637 11.7284 3.03869C11.8746 2.94102 12.0464 2.88889 12.2222 2.88889C12.458 2.88889 12.6841 2.98254 12.8508 3.14924C13.0175 3.31594 13.1111 3.54203 13.1111 3.77778ZM8 4C7.20887 4 6.43552 4.2346 5.77772 4.67412C5.11992 5.11365 4.60723 5.73836 4.30448 6.46927C4.00173 7.20017 3.92252 8.00444 4.07686 8.78036C4.2312 9.55629 4.61216 10.269 5.17157 10.8284C5.73098 11.3878 6.44371 11.7688 7.21964 11.9231C7.99556 12.0775 8.79983 11.9983 9.53073 11.6955C10.2616 11.3928 10.8864 10.8801 11.3259 10.2223C11.7654 9.56448 12 8.79113 12 8C12.0012 7.47438 11.8985 6.95371 11.6979 6.46788C11.4973 5.98205 11.2027 5.54063 10.831 5.16896C10.4594 4.79729 10.018 4.5027 9.53212 4.30209C9.04629 4.10149 8.52562 3.99883 8 4ZM8 10.4444C7.51653 10.4444 7.04393 10.3011 6.64194 10.0325C6.23995 9.76388 5.92664 9.38211 5.74163 8.93545C5.55661 8.48878 5.50821 7.99729 5.60252 7.52311C5.69684 7.04894 5.92966 6.61338 6.27152 6.27152C6.61338 5.92966 7.04894 5.69684 7.52311 5.60252C7.99729 5.50821 8.48878 5.55661 8.93545 5.74163C9.38211 5.92664 9.76388 6.23995 10.0325 6.64194C10.3011 7.04393 10.4444 7.51653 10.4444 8C10.4444 8.64831 10.1869 9.27006 9.72848 9.72848C9.27006 10.1869 8.64831 10.4444 8 10.4444Z" fill="#7E766B"/>
</svg>
