<svg width="18" height="18" viewBox="0 0 18 18" fill="none" xmlns="http://www.w3.org/2000/svg">
<path d="M13.9987 17.3206C12.3451 17.3193 10.7173 16.9415 9.25911 16.2206L8.80916 15.9895C5.7002 14.4441 3.15139 12.0877 1.47986 9.2134L1.22988 8.79741C0.429783 7.44162 0.00712703 5.92308 6.2787e-07 4.37864V3.75927C-0.000208472 3.5153 0.0518117 3.27371 0.153063 3.04841C0.254314 2.82312 0.402794 2.61858 0.589944 2.44658L2.27978 0.884294C2.36075 0.808853 2.4594 0.751631 2.5681 0.71705C2.6768 0.682469 2.79264 0.671454 2.90668 0.684856C3.02072 0.698258 3.1299 0.735719 3.22578 0.794344C3.32167 0.852968 3.40169 0.931187 3.45967 1.02296L5.70945 4.59126C5.82009 4.76788 5.86439 4.97338 5.83545 5.17572C5.80651 5.37806 5.70596 5.56585 5.54947 5.70982L3.65965 7.45699C3.58322 7.52687 3.53319 7.61767 3.51698 7.71592C3.50077 7.81417 3.51924 7.91463 3.56966 8.0024L3.91962 8.61252C5.17655 10.765 7.08858 12.5295 9.4191 13.6876L10.079 14.0204C10.174 14.067 10.2826 14.0841 10.3889 14.0691C10.4952 14.0542 10.5934 14.0079 10.669 13.9372L12.5588 12.1901C12.7145 12.0454 12.9176 11.9524 13.1365 11.9257C13.3554 11.8989 13.5776 11.9399 13.7687 12.0422L17.6283 14.1221C17.7276 14.1757 17.8122 14.2497 17.8756 14.3384C17.939 14.427 17.9795 14.5279 17.994 14.6334C18.0085 14.7388 17.9966 14.8459 17.9592 14.9464C17.9218 15.0469 17.8599 15.1381 17.7783 15.2129L16.0885 16.7752C15.9024 16.9483 15.6812 17.0855 15.4375 17.1791C15.1938 17.2727 14.9325 17.3208 14.6686 17.3206H13.9987Z" fill="#C6A96E"/>
</svg>
