<svg width="16" height="12" viewBox="0 0 16 12" fill="none" xmlns="http://www.w3.org/2000/svg">
<path d="M13.818 0.538602L12.7562 0.429515C9.57926 0.102271 6.37711 0.102271 3.20017 0.429515L2.18202 0.538602C1.57532 0.607175 1.01585 0.899089 0.612555 1.3575C0.209258 1.81592 -0.00899783 2.40802 0.000284354 3.01851V8.98194C-0.00899783 9.59243 0.209258 10.1845 0.612555 10.643C1.01585 11.1014 1.57532 11.3933 2.18202 11.4619L3.24381 11.5709C6.42074 11.8982 9.62289 11.8982 12.7998 11.5709L13.818 11.4619C14.4247 11.3933 14.9841 11.1014 15.3874 10.643C15.7907 10.1845 16.009 9.59243 15.9997 8.98194V3.01851C16.009 2.40802 15.7907 1.81592 15.3874 1.3575C14.9841 0.899089 14.4247 0.607175 13.818 0.538602ZM10.1817 6.45112L7.35275 8.34196C7.27172 8.38645 7.18071 8.40961 7.08827 8.40927C6.99583 8.40893 6.90499 8.38511 6.82428 8.34003C6.74358 8.29495 6.67565 8.2301 6.62689 8.15157C6.57813 8.07303 6.55012 7.98339 6.54551 7.89107V4.10938C6.54569 4.01045 6.57277 3.91343 6.62387 3.82871C6.67496 3.74399 6.74813 3.67476 6.83555 3.62843C6.92297 3.58211 7.02134 3.56043 7.12013 3.56573C7.21893 3.57102 7.31442 3.60309 7.39639 3.65849L10.2254 5.54933C10.3004 5.59822 10.3621 5.66506 10.4047 5.7438C10.4474 5.82253 10.4697 5.91067 10.4697 6.00023C10.4697 6.08978 10.4474 6.17792 10.4047 6.25665C10.3621 6.33539 10.3004 6.40223 10.2254 6.45112H10.1817Z" fill="#A88A4C"/>
</svg>
