<svg width="16" height="12" viewBox="0 0 16 12" fill="none" xmlns="http://www.w3.org/2000/svg">
<path d="M13.818 0.538358L12.7562 0.429271C9.57926 0.102027 6.37711 0.102027 3.20017 0.429271L2.18202 0.538358C1.57532 0.606931 1.01585 0.898845 0.612555 1.35726C0.209258 1.81567 -0.00899783 2.40777 0.000284354 3.01827V8.98169C-0.00899783 9.59219 0.209258 10.1843 0.612555 10.6427C1.01585 11.1011 1.57532 11.393 2.18202 11.4616L3.24381 11.5707C6.42074 11.8979 9.62289 11.8979 12.7998 11.5707L13.818 11.4616C14.4247 11.393 14.9841 11.1011 15.3874 10.6427C15.7907 10.1843 16.009 9.59219 15.9997 8.98169V3.01827C16.009 2.40777 15.7907 1.81567 15.3874 1.35726C14.9841 0.898845 14.4247 0.606931 13.818 0.538358ZM10.1817 6.45087L7.35275 8.34172C7.27172 8.3862 7.18071 8.40937 7.08827 8.40903C6.99583 8.40869 6.90499 8.38486 6.82428 8.33978C6.74358 8.29471 6.67565 8.22986 6.62689 8.15132C6.57813 8.07279 6.55012 7.98315 6.54551 7.89082V4.10914C6.54569 4.01021 6.57277 3.91318 6.62387 3.82846C6.67496 3.74374 6.74813 3.67451 6.83555 3.62819C6.92297 3.58186 7.02134 3.56019 7.12013 3.56548C7.21893 3.57078 7.31442 3.60284 7.39639 3.65825L10.2254 5.54909C10.3004 5.59798 10.3621 5.66482 10.4047 5.74355C10.4474 5.82229 10.4697 5.91043 10.4697 5.99998C10.4697 6.08954 10.4474 6.17768 10.4047 6.25641C10.3621 6.33514 10.3004 6.40199 10.2254 6.45087H10.1817Z" fill="#7E766B"/>
</svg>
