<svg width="218" height="97" fill="none" xmlns="http://www.w3.org/2000/svg"><path d="M170.303.038C167.369.038 116.354 0 113.872 0c-6.99 0-21.586 14.892-35.115 25.699-4.977 3.975-8.392 5.193-16.15 5.193-8.338 0-10.644-5.284-10.644-5.284l-2.316 11.218 66.293.03s.789-3.798 1.169-5.648c.393-1.926 2.021-2.316 3.578-2.316.738 0 1.412.068 1.412.068l-4.721 22.138s11.03-4.072 12.883-13.197c.699-3.439 1.148-5.284 1.913-9.016.695-3.399 2.418-3.492 5.942-3.492 2.652 0 3.484 1.74 3.176 3.288-.376 1.88-1.29 2.98-3.324 2.98-1.506 0-3.773.05-3.773.05l-.877 5.018c1.3 0 26.543.053 35.553.053 1.454 0 2.406-.93 2.679-2.298h-28.222c.034-.292.69-3.24.806-3.65.424-1.52 1.574-1.797 2.786-1.797.97 0 6.237-.012 9.955-.012h12.068c3.423 0 3.9-.32 4.363-2.591.798-3.926 3.01-14.372 3.814-18.59 1.018-5.322-2.045-7.806-6.817-7.806z" fill="#fff"/><path d="M138.307 28.413c-.107.912-.55 1.207-1.538 1.207-.949 0-1.43-.252-1.328-1.207.098-.89.676-1.205 1.622-1.205.989 0 1.344.36 1.244 1.206zm28.306 30.037h-9.376l-.674 3.195h9.378l.672-3.195z" fill="#fff"/><path d="M217.089 68.037l.911-4.248h-9.376l-1.346 6.39c-.132.567-.442 1.06-.931 1.476-.486.42-1.007.628-1.561.628h-2.097l2.887-13.833H196.2l-4.873 23.42h-4.658c1.109-1.267 1.834-2.683 2.176-4.247h-9.377l-.434 2.104a2.744 2.744 0 01-.931 1.516c-.487.42-1.021.628-1.601.628h-2.058l2.65-12.785a2.663 2.663 0 01.93-1.494c.489-.405 1.023-.607 1.604-.607 1.107 0 1.663.553 1.663 1.657 0 .136-.017.283-.042.444l-.435 2.145h9.376a7.558 7.558 0 00.159-1.536c0-1.7-.548-3.108-1.642-4.227-1.096-1.12-2.512-1.68-4.253-1.68h-8.348c-2.005 0-3.871.728-5.598 2.186-1.728 1.456-2.802 3.208-3.225 5.257l-2.221 10.64h-3.315l3.76-18.082h-9.377l-3.767 18.082h-6.435c1.133-1.268 1.858-2.684 2.175-4.248l2.453-11.73a7.59 7.59 0 00.159-1.539c0-1.699-.548-3.106-1.642-4.227-1.096-1.117-2.513-1.677-4.253-1.677h-16.657l-5.538 26.615h77.414l1.978-9.587h2.098c1.106 0 1.66.568 1.66 1.7 0 .135-.013.283-.039.445l-1.543 7.442h9.488l.632-3.194.365-2.144a7.379 7.379 0 00.156-1.497c0-1.754-.578-3.196-1.738-4.328 2.136-1.484 3.467-3.44 3.993-5.865zm-75.475-4.248l-3.323 15.938a2.782 2.782 0 01-.909 1.516c-.475.42-1.002.628-1.582.628h-3.127l4.195-20.226h3.126c1.108 0 1.661.566 1.661 1.699 0 .135-.014.284-.041.445zm-35.761 18.084h-2.034c-1.108 0-1.662-.567-1.662-1.7 0-.134.013-.282.04-.445l3.323-15.937h-9.376l-3.766 18.082H88.06c1.133-1.268 1.871-2.684 2.215-4.248l1.346-6.392a8.222 8.222 0 00.157-1.577c0-1.672-.553-3.067-1.661-4.186-1.107-1.12-2.519-1.68-4.233-1.68h-6.25l1.106-5.338h-9.375l-4.875 23.42h-4.64c1.133-1.267 1.86-2.683 2.175-4.247l1.346-6.392a8.24 8.24 0 00.157-1.577c0-1.672-.553-3.067-1.66-4.186-1.108-1.12-2.52-1.68-4.235-1.68h-8.347c-2.005 0-3.87.728-5.598 2.186-1.728 1.455-2.803 3.208-3.224 5.257l-2.221 10.64h-4.76l3.284-15.979a7.61 7.61 0 00.158-1.538c0-1.699-.547-3.106-1.642-4.227-1.095-1.117-2.512-1.677-4.252-1.677H12.819c-2.005 0-3.872.727-5.599 2.183-1.728 1.457-2.802 3.21-3.224 5.26L0 85.066h8.835l4.431-21.276c.132-.593.548-1.348 1.384-1.743 1.565-.739 2.193-.401 2.773-.401l-4.906 23.42h9.738l4.866-23.42c.5 0 1.548-.215 2.39.215.954.487.922 1.793.896 1.929l-4.43 21.276h79.186L102.655 97s10.335-3.909 11.965-12.285l4.431-20.924h-9.377l-3.821 18.082zM56.429 69.088l-2.215 10.64a2.75 2.75 0 01-.93 1.517c-.489.42-1.023.627-1.603.627h-2.056l2.65-12.784a2.644 2.644 0 01.93-1.494c.488-.405 1.022-.607 1.602-.607 1.108 0 1.663.553 1.663 1.657 0 .135-.014.283-.041.444zm26.25 0l-2.215 10.64a2.748 2.748 0 01-.93 1.517c-.488.42-1.022.627-1.602.627h-2.058l3.087-14.885h2.096c1.107 0 1.662.553 1.662 1.657 0 .162-.013.31-.04.444z" fill="#fff"/></svg>