<svg width="165" height="27" fill="none" xmlns="http://www.w3.org/2000/svg"><path d="M23.248.8V26H21.34V3.608l-9.324 15.48h-.324L2.368 3.608V26H.46V.8h2.376l9 14.904 9-14.904h2.412zM43 .8v1.8h-7.92V26h-1.944V2.6h-7.92V.8H43zM62.081 26h-2.556L46.889 13.58V26H44.98V.8h1.908v11.736L59.165.8h2.556L48.977 13.04 62.08 26z" fill="#fff"/><path d="M86.498.8v4.752h-6.804V26h-4.968V5.552h-6.768V.8h18.54zM101.116 26l-5.076-8.748h-3.78V26h-4.968V.8h10.08c2.328 0 4.308.816 5.94 2.448 1.632 1.632 2.448 3.6 2.448 5.904 0 1.56-.444 3.012-1.332 4.356a8.383 8.383 0 01-3.528 2.988L106.48 26h-5.364zM92.26 5.444v7.452h5.112c.936 0 1.74-.36 2.412-1.08.672-.744 1.008-1.632 1.008-2.664 0-1.032-.336-1.908-1.008-2.628-.672-.72-1.476-1.08-2.412-1.08H92.26zm24.385 21.06c-2.808 0-5.112-.792-6.912-2.376-1.8-1.584-2.7-3.708-2.7-6.372V.8h4.932v16.56c0 1.32.372 2.364 1.116 3.132.768.768 1.956 1.152 3.564 1.152s2.784-.384 3.528-1.152c.768-.768 1.152-1.812 1.152-3.132V.8h4.968v16.956c0 2.664-.9 4.788-2.7 6.372-1.8 1.584-4.116 2.376-6.948 2.376zm20.748 0c-2.496 0-4.596-.552-6.3-1.656a9.046 9.046 0 01-3.6-4.572l4.248-2.484c.984 2.568 2.916 3.852 5.796 3.852 1.392 0 2.412-.252 3.06-.756.648-.504.972-1.14.972-1.908 0-.888-.396-1.572-1.188-2.052-.792-.504-2.208-1.044-4.248-1.62-1.128-.336-2.088-.672-2.88-1.008a13.758 13.758 0 01-2.34-1.332 5.71 5.71 0 01-1.764-2.16c-.408-.864-.612-1.872-.612-3.024 0-2.28.804-4.092 2.412-5.436C132.581.98 134.537.296 136.817.296c2.04 0 3.828.504 5.364 1.512 1.56.984 2.772 2.364 3.636 4.14l-4.176 2.412c-1.008-2.16-2.616-3.24-4.824-3.24-1.032 0-1.848.24-2.448.72-.576.456-.864 1.056-.864 1.8 0 .792.324 1.44.972 1.944.672.48 1.944 1.008 3.816 1.584.768.24 1.344.432 1.728.576.408.12.948.324 1.62.612.696.264 1.224.516 1.584.756.384.24.816.564 1.296.972.48.408.84.828 1.08 1.26.264.432.48.96.648 1.584.192.6.288 1.26.288 1.98 0 2.328-.852 4.176-2.556 5.544-1.68 1.368-3.876 2.052-6.588 2.052zm18.235 0c-2.496 0-4.596-.552-6.3-1.656a9.046 9.046 0 01-3.6-4.572l4.248-2.484c.984 2.568 2.916 3.852 5.796 3.852 1.392 0 2.412-.252 3.06-.756.648-.504.972-1.14.972-1.908 0-.888-.396-1.572-1.188-2.052-.792-.504-2.208-1.044-4.248-1.62-1.128-.336-2.088-.672-2.88-1.008a13.758 13.758 0 01-2.34-1.332 5.71 5.71 0 01-1.764-2.16c-.408-.864-.612-1.872-.612-3.024 0-2.28.804-4.092 2.412-5.436C150.816.98 152.772.296 155.052.296c2.04 0 3.828.504 5.364 1.512 1.56.984 2.772 2.364 3.636 4.14l-4.176 2.412c-1.008-2.16-2.616-3.24-4.824-3.24-1.032 0-1.848.24-2.448.72-.576.456-.864 1.056-.864 1.8 0 .792.324 1.44.972 1.944.672.48 1.944 1.008 3.816 1.584.768.24 1.344.432 1.728.576.408.12.948.324 1.62.612.696.264 1.224.516 1.584.756.384.24.816.564 1.296.972.48.408.84.828 1.08 1.26.264.432.48.96.648 1.584.192.6.288 1.26.288 1.98 0 2.328-.852 4.176-2.556 5.544-1.68 1.368-3.876 2.052-6.588 2.052z" fill="#CE152A"/></svg>