<svg width="470" height="667" viewBox="0 0 470 667" fill="none" xmlns="http://www.w3.org/2000/svg">
<path d="M63.4422 269.658L55.5277 312.215C55.8428 316.086 56.4276 319.93 57.2777 323.72L69.2283 259.462C67.0614 262.72 65.1279 266.127 63.4422 269.658Z" fill="#FFC359"/>
<path d="M79.0815 247.497L62.1579 338.495C63.0213 340.469 63.961 342.44 65.0064 344.407L83.8505 243.082C82.201 244.51 80.6114 245.981 79.0815 247.497Z" fill="#FFC359"/>
<path d="M92.6706 236.389L70.82 353.88C71.8019 355.311 72.8666 356.704 73.9671 358.093L97.1049 233.68C95.5918 234.542 94.1337 235.484 92.6706 236.389Z" fill="#FFC359"/>
<path d="M105.475 229.498L80.2305 365.241C81.3025 366.344 82.4104 367.442 83.5517 368.517L109.725 227.781C108.284 228.318 106.871 228.895 105.475 229.498Z" fill="#FFC359"/>
<path d="M117.805 225.196L90.0942 374.196C91.2068 375.091 92.3515 375.97 93.5281 376.834L121.918 224.182C120.528 224.488 119.157 224.825 117.805 225.196Z" fill="#FFC359"/>
<path d="M129.802 222.803L100.268 381.453C101.42 382.186 102.598 382.912 103.79 383.618L133.807 222.247C132.464 222.411 131.126 222.582 129.802 222.803Z" fill="#FFC359"/>
<path d="M141.563 221.369L110.687 387.42L111.038 387.602C112.119 388.159 113.196 388.697 114.274 389.236L145.564 220.993C144.24 221.108 142.906 221.233 141.563 221.369Z" fill="#FFC359"/>
<path d="M153.276 220.38L121.238 392.648C122.441 393.226 123.643 393.797 124.844 394.363L157.275 220.104C155.927 220.203 154.606 220.284 153.276 220.38Z" fill="#FFC359"/>
<path d="M164.895 219.742L131.852 397.567L135.473 399.173L168.884 219.58L164.895 219.742Z" fill="#FFC359"/>
<path d="M176.523 219.333L142.519 402.175C143.731 402.68 144.95 403.181 146.16 403.668L180.465 219.243L176.523 219.333Z" fill="#FFC359"/>
<path d="M188.069 219.118L153.246 406.456C154.468 406.928 155.695 407.397 156.926 407.863L192.022 219.06L188.069 219.118Z" fill="#FFC359"/>
<path d="M199.638 218.966L164.034 410.41C165.266 410.843 166.499 411.265 167.722 411.685L203.573 218.911L199.638 218.966Z" fill="#FFC359"/>
<path d="M211.2 218.79L174.889 414.033C176.135 414.416 177.382 414.799 178.62 415.17L215.141 218.701L211.2 218.79Z" fill="#FFC359"/>
<path d="M222.789 218.437L185.805 417.299C187.033 417.656 188.295 417.989 189.539 418.326L226.735 218.227C225.434 218.323 224.117 218.381 222.789 218.437Z" fill="#FFC359"/>
<path d="M234.44 217.747L196.788 420.205C198.042 420.514 199.297 420.823 200.549 421.114L238.432 217.387C237.117 217.516 235.787 217.636 234.44 217.747Z" fill="#FFC359"/>
<path d="M246.228 216.452L207.86 422.754C209.128 423.025 210.388 423.284 211.64 423.533L250.245 215.858C248.905 216.083 247.566 216.281 246.228 216.452Z" fill="#FFC359"/>
<path d="M258.126 214.314L218.968 424.895C220.24 425.114 221.511 425.333 222.773 425.539L262.243 213.307C260.872 213.678 259.499 214.014 258.126 214.314Z" fill="#FFC359"/>
<path d="M270.308 210.801L230.191 426.633C231.476 426.813 232.753 426.983 234.022 427.141L274.536 209.167C273.145 209.748 271.736 210.293 270.308 210.801Z" fill="#FFC359"/>
<path d="M282.889 205.145L241.437 428.001C242.73 428.136 244.017 428.259 245.299 428.369L287.298 202.513C285.853 203.445 284.378 204.32 282.889 205.145Z" fill="#FFC359"/>
<path d="M296.13 195.91L252.789 428.922C254.092 429.005 255.389 429.075 256.68 429.133L300.86 191.453C299.313 192.997 297.748 194.514 296.13 195.91Z" fill="#FFC359"/>
<path d="M315.508 172.047C313.952 174.708 312.325 177.181 310.691 179.572L264.229 429.4C265.536 429.427 266.843 429.454 268.143 429.457L316.253 170.768L315.508 172.047Z" fill="#FFC359"/>
<path d="M327.378 151.843L275.767 429.446C277.072 429.436 278.388 429.401 279.717 429.341L333.044 142.476C331.159 145.527 329.27 148.649 327.378 151.843Z" fill="#FFC359"/>
<path d="M343.711 125.979L287.359 428.954C288.696 428.869 290.024 428.777 291.34 428.68L349.028 118.553C347.239 120.932 345.464 123.419 343.711 125.979Z" fill="#FFC359"/>
<path d="M358.87 106.429L299.069 427.978C300.414 427.831 301.748 427.683 303.08 427.516L363.746 101.311C362.097 102.935 360.479 104.646 358.87 106.429Z" fill="#FFC359"/>
<path d="M372.795 93.3894L310.874 426.464C312.23 426.261 313.578 426.047 314.918 425.822L377.334 90.274C375.794 91.2588 374.281 92.2973 372.795 93.3894Z" fill="#FFC359"/>
<path d="M385.788 85.6413L322.788 424.393C324.15 424.114 325.512 423.835 326.874 423.556L390.031 83.9287C388.599 84.4399 387.185 85.0107 385.788 85.6413Z" fill="#FFC359"/>
<path d="M398.046 81.6929L334.809 421.719C336.192 421.37 337.568 421.025 338.931 420.66L402.092 81.04C400.727 81.2099 399.378 81.4275 398.046 81.6929Z" fill="#FFC359"/>
<path d="M409.78 80.5625L346.949 418.402C348.35 417.978 349.74 417.548 351.119 417.113L413.67 80.7146C412.361 80.6228 411.065 80.5721 409.78 80.5625Z" fill="#FFC359"/>
<path d="M421.13 81.5539L359.224 414.392C360.634 413.896 362.042 413.383 363.434 412.86L424.914 82.2809C423.639 82.0088 422.377 81.7665 421.13 81.5539Z" fill="#FFC359"/>
<path d="M432.163 84.1597L371.63 409.643C373.059 409.046 374.482 408.453 375.89 407.84L435.872 85.3511C434.616 84.925 433.384 84.5211 432.163 84.1597Z" fill="#FFC359"/>
<path d="M442.972 88.0302L384.192 404.06C385.643 403.379 387.086 402.674 388.507 401.964L446.608 89.5868C445.374 89.0368 444.169 88.5268 442.972 88.0302Z" fill="#FFC359"/>
<path d="M453.582 92.9425L396.926 397.582C398.359 396.804 399.855 395.974 401.304 395.147L457.142 94.905C455.969 94.2281 454.783 93.574 453.582 92.9425Z" fill="#FFC359"/>
<path d="M463.948 99.1627L409.857 390.014C411.353 389.086 412.838 388.155 414.31 387.204L467.42 101.628C466.282 100.786 465.117 99.9633 463.948 99.1627Z" fill="#FFC359"/>
<path d="M474.028 106.927L422.984 381.387C424.526 380.329 426.037 379.239 427.517 378.119L477.382 109.994C476.308 108.931 475.172 107.921 474.028 106.927Z" fill="#FFC359"/>
<path d="M483.761 116.552L436.378 371.329C437.954 370.07 439.491 368.799 441.012 367.519L486.99 120.324C485.934 119.043 484.859 117.765 483.761 116.552Z" fill="#FFC359"/>
<path d="M493.08 128.437L450.1 359.541C451.719 358.046 453.307 356.533 454.865 355.021L496.134 133.117C495.145 131.514 494.127 129.954 493.08 128.437Z" fill="#FFC359"/>
<path d="M501.849 143.277L464.259 345.367C465.963 343.542 467.613 341.705 469.209 339.855L504.658 149.246C503.762 147.225 502.831 145.238 501.849 143.277Z" fill="#FFC359"/>
<path d="M509.788 162.551L479.034 327.821C480.874 325.411 482.629 323.006 484.3 320.607L512.185 170.672C511.47 167.911 510.671 165.204 509.788 162.551Z" fill="#FFC359"/>
<path d="M517.56 203.821C517.278 199.216 516.819 194.65 516.183 190.123L495.144 303.251C497.387 299.174 499.46 295.03 501.363 290.82L517.56 203.821Z" fill="#FFC359"/>
<path d="M129.482 414.459C97.1833 326.595 145.959 227.813 238.425 193.822C330.892 159.831 214.512 407.452 464.333 291.367C714.155 175.283 447.857 478.014 355.39 512.005C262.923 545.995 161.781 502.323 129.482 414.459Z" fill="#FFC359"/>
</svg>
