<svg width="250" height="402" viewBox="0 0 250 402" fill="none" xmlns="http://www.w3.org/2000/svg">
<path d="M215.707 162.341L213.72 131.368C212.82 128.733 211.737 126.164 210.479 123.68L213.48 170.446C214.413 167.8 215.157 165.092 215.707 162.341Z" fill="#B3A4F5"/>
<path d="M208.737 180.497L204.487 114.269C203.54 113.049 202.54 111.844 201.467 110.661L206.199 184.404C207.094 183.122 207.94 181.819 208.737 180.497Z" fill="#B3A4F5"/>
<path d="M201.246 190.608L195.759 105.099C194.825 104.278 193.84 103.496 192.83 102.725L198.64 193.271C199.54 192.406 200.388 191.495 201.246 190.608Z" fill="#B3A4F5"/>
<path d="M193.558 197.651L187.219 98.8588C186.28 98.2806 185.317 97.7121 184.334 97.1655L190.906 199.592C191.813 198.966 192.694 198.316 193.558 197.651Z" fill="#B3A4F5"/>
<path d="M185.745 202.811L178.787 94.3701C177.857 93.9438 176.906 93.5338 175.936 93.1402L183.065 204.239C183.977 203.783 184.871 203.306 185.745 202.811Z" fill="#B3A4F5"/>
<path d="M177.828 206.586L170.439 91.1163C169.509 90.8093 168.563 90.5116 167.61 90.2309L175.142 207.677C176.046 207.326 176.946 206.972 177.828 206.586Z" fill="#B3A4F5"/>
<path d="M169.906 209.652L162.147 88.8018L161.871 88.7371C161.022 88.5403 160.178 88.3556 159.334 88.1708L167.191 210.617C168.091 210.304 168.996 209.982 169.906 209.652Z" fill="#B3A4F5"/>
<path d="M161.938 212.4L153.894 87.0247C152.956 86.8349 152.02 86.6492 151.086 86.4675L159.207 213.296C160.127 212.99 161.031 212.701 161.938 212.4Z" fill="#B3A4F5"/>
<path d="M153.975 214.888L145.65 85.4733L142.851 84.9938L151.23 215.703L153.975 214.888Z" fill="#B3A4F5"/>
<path d="M145.964 217.219L137.426 84.1476C136.494 84.0096 135.559 83.876 134.632 83.7501L143.24 217.974L145.964 217.219Z" fill="#B3A4F5"/>
<path d="M137.977 219.399L129.216 83.0595C128.283 82.9464 127.348 82.8361 126.41 82.7288L135.239 220.135L137.977 219.399Z" fill="#B3A4F5"/>
<path d="M129.962 221.541L121.022 82.2095C120.09 82.1251 119.158 82.049 118.235 81.9723L127.237 222.272L129.962 221.541Z" fill="#B3A4F5"/>
<path d="M121.957 223.698L112.839 81.6016C111.905 81.5544 110.972 81.5073 110.046 81.4678L119.233 224.453L121.957 223.698Z" fill="#B3A4F5"/>
<path d="M113.964 225.982L104.677 81.2522C103.761 81.2204 102.825 81.2104 101.901 81.1955L111.258 226.823C112.145 226.527 113.05 226.255 113.964 225.982Z" fill="#B3A4F5"/>
<path d="M105.987 228.512L96.5323 81.165C95.6059 81.1709 94.6794 81.1768 93.7579 81.1947L103.276 229.465C104.167 229.144 105.07 228.826 105.987 228.512Z" fill="#B3A4F5"/>
<path d="M98.0213 231.487L88.3874 81.3416C87.4587 81.3765 86.5373 81.4177 85.6231 81.4654L95.3333 232.606C96.2253 232.214 97.1213 231.841 98.0213 231.487Z" fill="#B3A4F5"/>
<path d="M90.1278 235.066L80.29 81.8077C79.3678 81.8793 78.4456 81.9508 77.5321 82.03L87.4429 236.491C88.3308 235.992 89.2258 235.517 90.1278 235.066Z" fill="#B3A4F5"/>
<path d="M82.2786 239.652L72.1834 82.5749C71.2589 82.6754 70.3417 82.7823 69.4318 82.8956L79.627 241.531C80.4916 240.883 81.3755 240.256 82.2786 239.652Z" fill="#B3A4F5"/>
<path d="M74.5291 245.797L64.1263 83.6029C63.2039 83.7362 62.2875 83.8774 61.3771 84.0264L71.9282 248.402C72.7683 247.5 73.6395 246.632 74.5291 245.797Z" fill="#B3A4F5"/>
<path d="M66.9511 254.546L56.0739 84.9598C55.154 85.1314 54.24 85.3109 53.3321 85.4982L64.4475 258.476C65.2509 257.131 66.0719 255.801 66.9511 254.546Z" fill="#B3A4F5"/>
<path d="M57.6806 274.542C58.294 272.419 58.9892 270.413 59.7044 268.464L48.0379 86.6411C47.1247 86.8521 46.2114 87.0631 45.3074 87.29L57.3876 275.562L57.6806 274.542Z" fill="#B3A4F5"/>
<path d="M52.986 290.674L40.0103 88.6392C39.1055 88.8757 38.1965 89.1318 37.2832 89.4073L50.6955 298.182C51.4691 295.729 52.2326 293.226 52.986 290.674Z" fill="#B3A4F5"/>
<path d="M46.184 311.525L32.0397 91.0206C31.1249 91.3155 30.2185 91.6126 29.3205 91.9118L43.7948 317.622C44.62 315.654 45.4159 313.613 46.184 311.525Z" fill="#B3A4F5"/>
<path d="M39.088 327.781L24.0723 93.7603C23.163 94.0988 22.262 94.4367 21.3659 94.7867L36.599 332.196C37.4595 330.778 38.2835 329.304 39.088 327.781Z" fill="#B3A4F5"/>
<path d="M31.7034 339.295L16.1333 96.8896C15.2267 97.269 14.3274 97.6549 13.4353 98.0472L29.0967 342.259C29.9937 341.303 30.8627 340.315 31.7034 339.295Z" fill="#B3A4F5"/>
<path d="M24.0353 346.967L8.21628 100.425C7.31866 100.859 6.42105 101.293 5.52343 101.727L21.3874 348.904C22.2931 348.296 23.1757 347.651 24.0353 346.967Z" fill="#B3A4F5"/>
<path d="M16.2104 351.868L0.331873 104.399C-0.567882 104.886 -1.46381 105.367 -2.34663 105.861L13.513 353.034C14.4319 352.675 15.3311 352.287 16.2104 351.868Z" fill="#B3A4F5"/>
<path d="M8.2535 354.718L-7.52291 108.841C-8.42189 109.382 -9.31248 109.926 -10.1947 110.471L5.52254 355.297C6.44829 355.131 7.35861 354.938 8.2535 354.718Z" fill="#B3A4F5"/>
<path d="M0.190088 356.026L-15.3487 113.788C-16.2416 114.381 -17.1297 114.986 -18.0051 115.594L-2.56773 356.187C-1.63356 356.152 -0.714278 356.098 0.190088 356.026Z" fill="#B3A4F5"/>
<path d="M-7.93727 356.157L-23.1367 119.272C-24.0249 119.939 -24.9092 120.601 -25.7804 121.275L-10.7249 355.981C-9.77677 356.056 -8.84993 356.12 -7.93727 356.157Z" fill="#B3A4F5"/>
<path d="M-16.1312 355.368L-30.8851 125.363C-31.7735 126.092 -32.6525 126.836 -33.5152 127.579L-18.9318 354.926C-17.9779 355.091 -17.0502 355.234 -16.1312 355.368Z" fill="#B3A4F5"/>
<path d="M-24.3705 353.821L-38.5965 132.107C-39.456 132.899 -40.3496 133.739 -41.2108 134.569L-27.1901 353.083C-26.2559 353.347 -25.316 353.593 -24.3705 353.821Z" fill="#B3A4F5"/>
<path d="M-32.6704 351.322L-46.2526 139.642C-47.1294 140.551 -47.9979 141.459 -48.8533 142.379L-35.5175 350.219C-34.5784 350.604 -33.6238 350.971 -32.6704 351.322Z" fill="#B3A4F5"/>
<path d="M-41.0425 347.699L-53.8592 147.948C-54.7448 148.955 -55.6032 149.978 -56.4345 151.018L-43.9136 346.157C-42.9803 346.707 -42.0131 347.209 -41.0425 347.699Z" fill="#B3A4F5"/>
<path d="M-49.5015 342.722L-61.3991 157.297C-62.2726 158.448 -63.1171 159.602 -63.9491 160.76L-52.4096 340.667C-51.45 341.372 -50.4783 342.072 -49.5015 342.722Z" fill="#B3A4F5"/>
<path d="M-58.0697 336.1L-68.8618 167.905C-69.7243 169.229 -70.5616 170.559 -71.3787 171.885L-61.0162 333.385C-60.0469 334.325 -59.0647 335.23 -58.0697 336.1Z" fill="#B3A4F5"/>
<path d="M-66.7762 327.328L-76.2094 180.247C-77.0726 181.816 -77.8961 183.383 -78.6799 184.95L-69.7788 323.674C-68.8008 324.921 -67.8041 326.138 -66.7762 327.328Z" fill="#B3A4F5"/>
<path d="M188.864 157.774C359.067 157.774 127.781 281 52.4321 281C-22.9173 281 -84 225.83 -84 157.774C-84 89.7186 -78.3006 35 -2.95123 35C72.3981 35 18.6618 157.774 188.864 157.774Z" fill="#BDAFF6"/>
</svg>
