<svg width="405" height="548" fill="none" xmlns="http://www.w3.org/2000/svg"><path d="M545 339.5c0 93.612-79.863 169.5-178.379 169.5-98.517 0 96.153-192.261-178.38-169.5C-86.292 362.261 268.104 170 366.621 170 465.137 170 545 245.888 545 339.5zM37.944 302.366L36.2 345.617a83.514 83.514 0 003.378 11.136l2.634-65.307a82.958 82.958 0 00-4.268 10.92z" fill="#FFC359"/><path d="M50.252 278.194l-3.73 92.484a86.24 86.24 0 003.665 5.444l4.154-102.979a96.89 96.89 0 00-4.089 5.051zm11.86-12.936l-4.817 119.408c1.177 1.275 2.43 2.502 3.718 3.719l5.1-126.443c-1.374 1.069-2.682 2.21-4 3.316zm11.688-8.652l-5.565 137.957c1.218.938 2.472 1.867 3.755 2.768l5.77-143.033a88.081 88.081 0 00-3.96 2.308zm11.587-6.023l-6.11 151.432a99.405 99.405 0 003.777 2.12l6.259-155.143a82.575 82.575 0 00-3.926 1.591zm11.532-4.085l-6.534 161.243c1.246.561 2.515 1.112 3.796 1.64l6.622-164.006a94.956 94.956 0 00-3.884 1.123zm11.434-3.102l-6.802 168.761.373.13c1.149.396 2.293.775 3.437 1.154l6.897-170.989a327.7 327.7 0 00-3.905.944zm11.451-2.653l-7.062 175.079c1.273.399 2.544.793 3.814 1.181l7.167-177.106c-1.32.291-2.616.56-3.919.846zm11.408-2.294l-7.262 180.723 3.813 1.071 7.374-182.525-3.925.731zm11.451-2.069l-7.497 185.826c1.272.327 2.551.648 3.818.957l7.567-187.435-3.888.652zm11.395-1.864l-7.663 190.392c1.277.293 2.559.582 3.844.867l7.723-191.882-3.904.623zm11.429-1.806l-7.849 194.568c1.281.253 2.562.494 3.832.734l7.903-195.92-3.886.618zm11.417-1.828L168.9 429.311c1.288.201 2.577.402 3.855.591l8.037-199.673-3.888.653zm11.42-2.007l-8.153 202.107c1.266.177 2.563.327 3.842.482l8.186-203.362c-1.273.281-2.568.527-3.875.773zm11.433-2.35l-8.301 205.761c1.286.127 2.572.253 3.853.362l8.347-207.051c-1.283.316-2.583.625-3.899.928zm11.481-2.969l-8.458 209.669c1.293.087 2.577.163 3.852.23l8.497-211.061a102.83 102.83 0 01-3.891 1.162zm11.469-3.818l-8.628 214.017c1.29.035 2.579.07 3.858.093l8.701-215.695a86.982 86.982 0 01-3.931 1.585zm11.554-5.22l-8.825 219.351c1.297-.005 2.584-.02 3.863-.045l8.914-221.528a83.262 83.262 0 01-3.952 2.222zm11.643-7.397l-9.142 226.494c1.298-.051 2.59-.114 3.875-.188l9.254-229.542a76.566 76.566 0 01-3.987 3.236zm11.783-11.035l-9.559 236.817c1.301-.105 2.595-.221 3.882-.349l9.721-241.555c-1.31 1.749-2.642 3.474-4.044 5.087zm15.766-26.39c-1.16 2.857-2.415 5.537-3.691 8.137l-10.243 253.905c1.298-.16 2.595-.32 3.882-.503l10.606-262.911-.554 1.372zm8.857-21.694l-11.365 282.131c1.29-.196 2.588-.419 3.895-.669l11.738-291.543a585.25 585.25 0 00-4.268 10.081zm12.465-27.934l-12.428 307.92a389.03 389.03 0 003.901-.841l12.727-315.19a205.898 205.898 0 00-4.2 8.111zm12.206-21.518l-13.183 326.796c1.31-.337 2.609-.675 3.903-1.03l13.374-331.529a119.644 119.644 0 00-4.094 5.762zm11.916-14.898L305.264 422.16c1.313-.394 2.617-.799 3.911-1.213L322.944 79.92a84.797 84.797 0 00-4.047 3.732zm11.751-9.527L316.76 418.406l3.924-1.414 13.919-345.169a56.132 56.132 0 00-3.955 2.302zm11.567-5.661l-13.941 345.575c1.319-.544 2.632-1.082 3.928-1.638l13.924-345.162c-1.327.363-2.63.771-3.911 1.225zm11.451-2.798L339.815 409.02c1.326-.62 2.64-1.244 3.943-1.872L357.539 65.26c-1.309.097-2.6.232-3.873.406zm11.376-.642L351.39 403.295a218.119 218.119 0 003.947-2.119L368.89 65.202a92.846 92.846 0 00-3.848-.178zm11.292 1L362.989 396.82c1.329-.796 2.652-1.586 3.958-2.394l13.228-327.753a99.076 99.076 0 00-3.841-.649zm11.251 2.284l-12.962 321.189a199.808 199.808 0 003.97-2.692l12.813-317.476c-1.299-.368-2.565-.7-3.821-1.02zm11.204 3.344l-12.49 309.611c1.308-.974 2.669-2.01 3.984-3.035l12.31-305.143c-1.257-.502-2.525-.98-3.804-1.433zm11.15 4.673l-11.925 295.599a289.12 289.12 0 004.006-3.419l11.708-290.236a118.538 118.538 0 00-3.789-1.944zm11.086 6.243l-11.252 278.94a121.007 121.007 0 004.018-3.884l10.993-272.5c-1.215-.898-2.484-1.736-3.759-2.556zm11.01 8.132l-10.446 258.936a232.347 232.347 0 004.041-4.433l10.14-251.23a107.953 107.953 0 00-3.735-3.272zm10.924 10.431l-9.475 234.875a265.057 265.057 0 004.069-5.155l9.098-225.525a108.58 108.58 0 00-3.692-4.195zm10.801 13.433l-8.291 205.389a187.39 187.39 0 004.11-6.163l7.815-193.72a138.5 138.5 0 00-3.634-5.506zm10.615 17.94l-6.793 167.969a203.322 203.322 0 004.18-7.893l6.147-152.382a125.149 125.149 0 00-3.534-7.694z" fill="#FFC359"/></svg>