<svg width="405" height="548" viewBox="0 0 405 548" fill="none" xmlns="http://www.w3.org/2000/svg">
<path d="M545 339.5C545 433.112 465.137 509 366.621 509C268.104 509 462.774 316.739 188.241 339.5C-86.2916 362.261 268.104 170 366.621 170C465.137 170 545 245.888 545 339.5Z" fill="#FFC359"/>
<path d="M37.9445 302.366L36.1998 345.617C37.0655 349.403 38.1942 353.124 39.5778 356.753L42.2123 291.446C40.5339 294.981 39.1077 298.63 37.9445 302.366Z" fill="#FFC359"/>
<path d="M50.2523 278.194L46.5214 370.678C47.6583 372.508 48.8704 374.324 50.1865 376.122L54.3406 273.143C52.9123 274.792 51.5495 276.476 50.2523 278.194Z" fill="#FFC359"/>
<path d="M62.1125 265.258L57.2955 384.666C58.472 385.941 59.7251 387.168 61.0129 388.385L66.1137 261.942C64.7393 263.011 63.431 264.152 62.1125 265.258Z" fill="#FFC359"/>
<path d="M73.7999 256.606L68.2347 394.563C69.4534 395.501 70.707 396.43 71.9904 397.331L77.7604 254.298C76.4109 255.035 75.0944 255.809 73.7999 256.606Z" fill="#FFC359"/>
<path d="M85.3867 250.583L79.2779 402.015C80.5071 402.741 81.7658 403.448 83.054 404.135L89.3126 248.992C87.9803 249.493 86.6717 250.023 85.3867 250.583Z" fill="#FFC359"/>
<path d="M96.9187 246.498L90.3854 407.741C91.6309 408.302 92.8997 408.853 94.1809 409.381L100.803 245.375C99.4974 245.73 98.1975 246.091 96.9187 246.498Z" fill="#FFC359"/>
<path d="M108.353 243.396L101.551 412.157L101.924 412.287C103.073 412.683 104.217 413.062 105.361 413.441L112.258 242.452C110.965 242.756 109.663 243.071 108.353 243.396Z" fill="#FFC359"/>
<path d="M119.804 240.743L112.742 415.822C114.015 416.221 115.286 416.615 116.556 417.003L123.723 239.897C122.403 240.188 121.107 240.457 119.804 240.743Z" fill="#FFC359"/>
<path d="M131.212 238.449L123.95 419.172L127.763 420.243L135.137 237.718L131.212 238.449Z" fill="#FFC359"/>
<path d="M142.663 236.38L135.166 422.206C136.438 422.533 137.717 422.854 138.984 423.163L146.551 235.728L142.663 236.38Z" fill="#FFC359"/>
<path d="M154.058 234.516L146.395 424.908C147.672 425.201 148.954 425.49 150.239 425.775L157.962 233.893L154.058 234.516Z" fill="#FFC359"/>
<path d="M165.487 232.71L157.638 427.278C158.919 427.531 160.2 427.772 161.47 428.012L169.373 232.092L165.487 232.71Z" fill="#FFC359"/>
<path d="M176.904 230.882L168.9 429.311C170.188 429.512 171.477 429.713 172.755 429.902L180.792 230.229L176.904 230.882Z" fill="#FFC359"/>
<path d="M188.324 228.875L180.171 430.982C181.437 431.159 182.734 431.309 184.013 431.464L192.199 228.102C190.926 228.383 189.631 228.629 188.324 228.875Z" fill="#FFC359"/>
<path d="M199.757 226.525L191.456 432.286C192.742 432.413 194.028 432.539 195.309 432.648L203.656 225.597C202.373 225.913 201.073 226.222 199.757 226.525Z" fill="#FFC359"/>
<path d="M211.238 223.556L202.78 433.225C204.073 433.312 205.357 433.388 206.632 433.455L215.129 222.394C213.835 222.808 212.538 223.196 211.238 223.556Z" fill="#FFC359"/>
<path d="M222.707 219.738L214.079 433.755C215.369 433.79 216.658 433.825 217.937 433.848L226.638 218.153C225.334 218.716 224.024 219.244 222.707 219.738Z" fill="#FFC359"/>
<path d="M234.261 214.518L225.436 433.869C226.733 433.864 228.02 433.849 229.299 433.824L238.213 212.296C236.919 213.071 235.602 213.811 234.261 214.518Z" fill="#FFC359"/>
<path d="M245.904 207.121L236.762 433.615C238.06 433.564 239.352 433.501 240.637 433.427L249.891 203.885C248.594 205.015 247.26 206.091 245.904 207.121Z" fill="#FFC359"/>
<path d="M257.687 196.086L248.128 432.903C249.429 432.798 250.723 432.682 252.01 432.554L261.731 190.999C260.421 192.748 259.089 194.473 257.687 196.086Z" fill="#FFC359"/>
<path d="M273.453 169.696C272.293 172.553 271.038 175.233 269.762 177.833L259.519 431.738C260.817 431.578 262.114 431.418 263.401 431.235L274.007 168.324L273.453 169.696Z" fill="#FFC359"/>
<path d="M282.31 148.002L270.945 430.133C272.235 429.937 273.533 429.714 274.84 429.464L286.578 137.921C285.148 141.21 283.726 144.571 282.31 148.002Z" fill="#FFC359"/>
<path d="M294.775 120.068L282.347 427.988C283.659 427.712 284.959 427.432 286.248 427.147L298.975 111.957C297.544 114.568 296.144 117.283 294.775 120.068Z" fill="#FFC359"/>
<path d="M306.981 98.5495L293.798 425.346C295.108 425.009 296.407 424.671 297.701 424.316L311.075 92.7873C309.675 94.6301 308.318 96.555 306.981 98.5495Z" fill="#FFC359"/>
<path d="M318.897 83.6524L305.264 422.159C306.577 421.765 307.881 421.36 309.175 420.946L322.944 79.9196C321.56 81.1146 320.212 82.3589 318.897 83.6524Z" fill="#FFC359"/>
<path d="M330.648 74.1251L316.76 418.406C318.068 417.934 319.376 417.463 320.684 416.992L334.603 71.8231C333.258 72.5339 331.94 73.3012 330.648 74.1251Z" fill="#FFC359"/>
<path d="M342.215 68.4637L328.274 414.039C329.593 413.495 330.906 412.957 332.202 412.401L346.126 67.2386C344.799 67.602 343.496 68.0104 342.215 68.4637Z" fill="#FFC359"/>
<path d="M353.666 65.6663L339.815 409.019C341.141 408.399 342.455 407.775 343.758 407.147L357.539 65.2602C356.23 65.3566 354.939 65.492 353.666 65.6663Z" fill="#FFC359"/>
<path d="M365.042 65.0237L351.39 403.295C352.715 402.602 354.034 401.892 355.337 401.176L368.89 65.2018C367.589 65.1149 366.307 65.0556 365.042 65.0237Z" fill="#FFC359"/>
<path d="M376.334 66.0242L362.989 396.82C364.318 396.024 365.641 395.234 366.947 394.426L380.175 66.6726C378.871 66.4306 377.594 66.207 376.334 66.0242Z" fill="#FFC359"/>
<path d="M387.585 68.3085L374.623 389.497C375.961 388.615 377.288 387.711 378.593 386.805L391.406 69.3291C390.107 68.9611 388.841 68.6289 387.585 68.3085Z" fill="#FFC359"/>
<path d="M398.789 71.6523L386.299 381.263C387.607 380.289 388.968 379.253 390.283 378.228L402.593 73.0854C401.336 72.5833 400.068 72.1056 398.789 71.6523Z" fill="#FFC359"/>
<path d="M409.939 76.3254L398.014 371.924C399.362 370.791 400.699 369.657 402.02 368.505L413.728 78.2686C412.481 77.5985 411.21 76.9505 409.939 76.3254Z" fill="#FFC359"/>
<path d="M421.025 82.568L409.773 361.508C411.147 360.239 412.487 358.945 413.791 357.624L424.784 85.1238C423.569 84.2256 422.3 83.3883 421.025 82.568Z" fill="#FFC359"/>
<path d="M432.035 90.7009L421.589 349.636C422.969 348.165 424.308 346.687 425.63 345.203L435.77 93.9731C434.542 92.8563 433.295 91.7445 432.035 90.7009Z" fill="#FFC359"/>
<path d="M442.959 101.131L433.484 336.006C434.872 334.295 436.227 332.571 437.553 330.851L446.651 105.326C445.443 103.881 444.212 102.482 442.959 101.131Z" fill="#FFC359"/>
<path d="M453.76 114.564L445.469 319.953C446.895 317.903 448.265 315.848 449.579 313.79L457.394 120.07C456.219 118.198 455.013 116.364 453.76 114.564Z" fill="#FFC359"/>
<path d="M464.375 132.504L457.582 300.473C459.058 297.825 460.452 295.194 461.762 292.58L467.909 140.198C466.806 137.568 465.628 135.003 464.375 132.504Z" fill="#FFC359"/>
</svg>
