<svg width="470" height="667" fill="none" xmlns="http://www.w3.org/2000/svg"><path d="M63.442 269.658l-7.914 42.557a83.53 83.53 0 001.75 11.505l11.95-64.258a82.91 82.91 0 00-5.786 10.196zm15.64-22.161l-16.924 90.998a85.985 85.985 0 002.848 5.912L83.85 243.082a96.57 96.57 0 00-4.768 4.415zm13.588-11.108L70.82 353.88c.982 1.431 2.047 2.824 3.147 4.213L97.105 233.68c-1.513.862-2.971 1.804-4.434 2.709zm12.805-6.891L80.231 365.241a105.757 105.757 0 003.32 3.276l26.174-140.736a89.744 89.744 0 00-4.25 1.717zm12.33-4.302l-27.71 149a98.325 98.325 0 003.433 2.638l28.39-152.652c-1.39.306-2.761.643-4.113 1.014zm11.997-2.393l-29.534 158.65a129.64 129.64 0 003.522 2.165l30.017-161.371a92.268 92.268 0 00-4.005.556zm11.761-1.434L110.687 387.42l.351.182c1.081.557 2.158 1.095 3.236 1.634l31.29-168.243c-1.324.115-2.658.24-4.001.376zm11.713-.989l-32.038 172.268c1.203.578 2.405 1.149 3.606 1.715l32.431-174.259c-1.348.099-2.669.18-3.999.276zm11.619-.638l-33.043 177.825 3.621 1.606 33.411-179.593-3.989.162zm11.628-.409l-34.004 182.842c1.212.505 2.431 1.006 3.641 1.493l34.305-184.425-3.942.09zm11.546-.215l-34.823 187.338c1.222.472 2.449.941 3.68 1.407l35.096-188.803-3.953.058zm11.569-.152L164.034 410.41c1.232.433 2.465.855 3.688 1.275l35.851-192.774-3.935.055zm11.562-.176l-36.311 195.243c1.246.383 2.493.766 3.731 1.137l36.521-196.469-3.941.089zm11.589-.353l-36.984 198.862c1.228.357 2.49.69 3.734 1.027l37.196-200.099c-1.301.096-2.618.154-3.946.21zm11.651-.69l-37.652 202.458c1.254.309 2.509.618 3.761.909l37.883-203.727c-1.315.129-2.645.249-3.992.36zm11.788-1.295L207.86 422.754c1.268.271 2.528.53 3.78.779l38.605-207.675c-1.34.225-2.679.423-4.017.594zm11.898-2.138l-39.158 210.581c1.272.219 2.543.438 3.805.644l39.47-212.232a86.241 86.241 0 01-4.117 1.007zm12.182-3.513l-40.117 215.832c1.285.18 2.562.35 3.831.508l40.514-217.974a84.12 84.12 0 01-4.228 1.634zm12.581-5.656l-41.452 222.856c1.293.135 2.58.258 3.862.368l41.999-225.856a76.828 76.828 0 01-4.409 2.632zm13.241-9.235l-43.341 233.012c1.303.083 2.6.153 3.891.211l44.18-237.68c-1.547 1.544-3.112 3.061-4.73 4.457zm19.378-23.863c-1.556 2.661-3.183 5.134-4.817 7.525L264.229 429.4c1.307.027 2.614.054 3.914.057l48.11-258.689-.745 1.279zm11.87-20.204l-51.611 277.603a105.48 105.48 0 003.95-.105l53.327-286.865a587.244 587.244 0 00-5.666 9.367zm16.333-25.864l-56.352 302.975a395.7 395.7 0 003.981-.274l57.688-310.127a206.517 206.517 0 00-5.317 7.426zm15.159-19.55l-59.801 321.549c1.345-.147 2.679-.295 4.011-.462l60.666-326.205a120.16 120.16 0 00-4.876 5.118zm13.925-13.039l-61.921 333.074c1.356-.203 2.704-.417 4.044-.642l62.416-335.548a84.901 84.901 0 00-4.539 3.115zm12.993-7.749l-63 338.752 4.086-.837 63.157-339.627a56.384 56.384 0 00-4.243 1.712zm12.258-3.948l-63.237 340.026c1.383-.349 2.759-.694 4.122-1.059l63.161-339.62c-1.365.17-2.714.387-4.046.653zm11.734-1.13l-62.831 337.839c1.401-.424 2.791-.854 4.17-1.289L413.67 80.715a62.227 62.227 0 00-3.89-.153zm11.35.991l-61.906 332.838c1.41-.496 2.818-1.009 4.21-1.532l61.48-330.58a93.122 93.122 0 00-3.784-.726zm11.033 2.606L371.63 409.643c1.429-.597 2.852-1.19 4.26-1.803l59.982-322.489a99.392 99.392 0 00-3.709-1.191zm10.809 3.87l-58.78 316.03a195.724 195.724 0 004.315-2.096l58.101-312.377c-1.234-.55-2.439-1.06-3.636-1.557zm10.61 4.912l-56.656 304.64a238.702 238.702 0 004.378-2.435l55.838-300.242a103.401 103.401 0 00-3.56-1.963zm10.366 6.221l-54.091 290.851a286.493 286.493 0 004.453-2.81l53.11-285.576a116.91 116.91 0 00-3.472-2.465zm10.08 7.764l-51.044 274.46a120.284 120.284 0 004.533-3.268l49.865-268.125c-1.074-1.063-2.21-2.073-3.354-3.067zm9.733 9.625l-47.383 254.777a234.54 234.54 0 004.634-3.81l45.978-247.195a107.966 107.966 0 00-3.229-3.772zm9.319 11.885L450.1 359.541a264.734 264.734 0 004.765-4.52l41.269-221.904a108.936 108.936 0 00-3.054-4.68zm8.769 14.84l-37.59 202.09a188.507 188.507 0 004.95-5.512l35.449-190.609a140.365 140.365 0 00-2.809-5.969zm7.939 19.274l-30.754 165.27c1.84-2.41 3.595-4.815 5.266-7.214l27.885-149.935a124.7 124.7 0 00-2.397-8.121zm7.772 41.27a175.546 175.546 0 00-1.377-13.698l-21.039 113.128a177.202 177.202 0 006.219-12.431l16.197-86.999z" fill="#FFC359"/><path d="M129.482 414.459c-32.299-87.864 16.477-186.646 108.943-220.637 92.467-33.991-23.913 213.63 225.908 97.545 249.822-116.084-16.476 186.647-108.943 220.638-92.467 33.99-193.609-9.682-225.908-97.546z" fill="#FFC359"/></svg>