<svg width="250" height="402" fill="none" xmlns="http://www.w3.org/2000/svg"><path d="M215.707 162.341l-1.987-30.973a59.791 59.791 0 00-3.241-7.688l3.001 46.766a59.375 59.375 0 002.227-8.105zm-6.97 18.156l-4.25-66.228a61.325 61.325 0 00-3.02-3.608l4.732 73.743a69.608 69.608 0 002.538-3.907zm-7.491 10.111l-5.487-85.509a54.668 54.668 0 00-2.929-2.374l5.81 90.546c.9-.865 1.748-1.776 2.606-2.663zm-7.688 7.043l-6.339-98.792a75.327 75.327 0 00-2.885-1.694l6.572 102.427a63.319 63.319 0 002.652-1.941zm-7.813 5.16l-6.958-108.44a70.066 70.066 0 00-2.851-1.23l7.129 111.098a58.796 58.796 0 002.68-1.428zm-7.917 3.775l-7.389-115.47a91.626 91.626 0 00-2.829-.885l7.532 117.446a68.833 68.833 0 002.686-1.091zm-7.922 3.066l-7.759-120.85-.276-.065c-.849-.197-1.693-.381-2.537-.566l7.857 122.446c.9-.313 1.805-.635 2.715-.965zm-7.968 2.748l-8.044-125.375a386.6 386.6 0 00-2.808-.558l8.121 126.829c.92-.306 1.824-.595 2.731-.896zm-7.963 2.488L145.65 85.473l-2.799-.48 8.379 130.71 2.745-.815zm-8.011 2.331l-8.538-133.071a235.46 235.46 0 00-2.794-.398l8.608 134.224 2.724-.755zm-7.987 2.18l-8.761-136.34c-.933-.113-1.868-.223-2.806-.33l8.829 137.406 2.738-.736zm-8.015 2.142l-8.94-139.332c-.932-.084-1.864-.16-2.787-.237l9.002 140.3 2.725-.731zm-8.005 2.157l-9.118-142.096c-.934-.048-1.867-.095-2.793-.134l9.187 142.985 2.724-.755zm-7.993 2.284l-9.287-144.73c-.916-.032-1.852-.042-2.776-.056l9.357 145.627a89.291 89.291 0 012.706-.841zm-7.977 2.53L96.532 81.165c-.926.006-1.853.012-2.774.03l9.518 148.27c.891-.321 1.794-.639 2.711-.953zm-7.966 2.975L88.387 81.342c-.928.034-1.85.076-2.764.123l9.71 151.141a74.067 74.067 0 012.688-1.119zm-7.893 3.579L80.29 81.808c-.922.071-1.844.143-2.758.222l9.91 154.461a62.85 62.85 0 012.686-1.425zm-7.849 4.586L72.183 82.575c-.924.1-1.841.207-2.751.32l10.195 158.636a60.543 60.543 0 012.652-1.879zm-7.749 6.145L64.125 83.603c-.922.133-1.839.274-2.749.423l10.551 164.376c.84-.902 1.712-1.77 2.601-2.605zm-7.579 8.749L56.074 84.96c-.92.171-1.834.35-2.742.538l11.116 172.978c.803-1.345 1.624-2.675 2.503-3.93zm-9.271 19.996c.614-2.123 1.31-4.129 2.024-6.078L48.038 86.641c-.913.211-1.827.422-2.73.649l12.08 188.272.293-1.02zm-4.694 16.132L40.01 88.639c-.904.237-1.813.493-2.727.768l13.413 208.775a426.016 426.016 0 002.29-7.508zm-6.802 20.851L32.04 91.021a300.4 300.4 0 00-2.72.89l14.475 225.711a147.444 147.444 0 002.389-6.097zm-7.096 16.256L24.072 93.761c-.909.338-1.81.676-2.706 1.026l15.233 237.409a85.34 85.34 0 002.489-4.415zm-7.385 11.514L16.133 96.89c-.906.379-1.806.765-2.698 1.157L29.097 342.26a61.445 61.445 0 002.606-2.964zm-7.668 7.672L8.216 100.425l-2.693 1.302 15.864 247.177a40.53 40.53 0 002.648-1.937zm-7.825 4.901L.332 104.399c-.9.487-1.796.968-2.679 1.462l15.86 247.173a40.677 40.677 0 002.697-1.166zm-7.956 2.85L-7.523 108.841a268.88 268.88 0 00-2.672 1.63L5.523 355.297a43.872 43.872 0 002.73-.579zM.19 356.026l-15.539-242.238a156.57 156.57 0 00-2.656 1.806l15.437 240.593a65.78 65.78 0 002.758-.161zm-8.127.131l-15.2-236.885c-.888.667-1.772 1.329-2.643 2.003l15.055 234.706c.948.075 1.875.139 2.788.176zm-8.194-.789l-14.754-230.005a143.58 143.58 0 00-2.63 2.216l14.583 227.347c.954.165 1.882.308 2.8.442zm-8.239-1.547l-14.226-221.714c-.86.792-1.754 1.632-2.615 2.462l14.02 218.514c.935.264 1.875.51 2.82.738zm-8.3-2.499l-13.583-211.68c-.876.909-1.745 1.817-2.6 2.737l13.336 207.84c.939.385 1.893.752 2.847 1.103zm-8.372-3.623L-53.86 147.948a85.227 85.227 0 00-2.575 3.07l12.52 195.139c.934.55 1.9 1.052 2.872 1.542zm-8.46-4.977l-11.897-185.425a164.106 164.106 0 00-2.55 3.463l11.54 179.907a76.4 76.4 0 002.907 2.055zm-8.568-6.622l-10.792-168.195c-.862 1.324-1.7 2.654-2.517 3.98l10.363 161.5c.97.94 1.951 1.845 2.946 2.715zm-8.706-8.772l-9.433-147.081a135.634 135.634 0 00-2.47 4.703l8.9 138.724a99.768 99.768 0 003.003 3.654z" fill="#B3A4F5"/><path d="M188.864 157.774C359.067 157.774 127.781 281 52.432 281-22.918 281-84 225.83-84 157.774-84 89.719-78.3 35-2.951 35c75.35 0 21.613 122.774 191.815 122.774z" fill="#BDAFF6"/></svg>