<svg width="577" height="612" viewBox="0 0 577 612" fill="none" xmlns="http://www.w3.org/2000/svg">
<g clip-path="url(#clip0)">
<path d="M418.3 411.277C434.398 436.664 486.394 380.789 470.558 359.069C454.722 337.35 397.714 378.788 418.3 411.277Z" fill="#F8F7FF"/>
<path d="M46.1263 590.458C22.1373 590.458 -12.2175 562.465 7.13464 525.169C20.0445 500.289 63.7582 478.633 104.139 463.705C134.756 452.398 89.1455 436.868 89.1455 380.448C89.1455 350.261 118.185 321.356 193.214 321.356C253.502 321.356 240.453 281.912 310.656 269.709C348.012 263.212 416.397 287.658 409.001 346.683C402.893 395.523 372.071 398.249 389.236 431.75C394.728 442.466 415.503 459.376 444.369 451.502C482.247 441.177 503.594 460.979 515.998 481.877C540.477 523.114 518.659 590.441 447.311 590.441L46.1263 590.458Z" fill="#F8F7FF"/>
<path d="M443.239 274.667C441.661 273.427 440.714 272.749 440.692 272.743L441.399 271.637C441.44 271.664 442.371 272.332 443.987 273.591L443.239 274.667Z" fill="#CCC2FF"/>
<path d="M241.277 498.516L241.002 497.213C243.107 496.718 245.167 496.224 247.183 495.73L247.467 497.032C245.44 497.527 243.377 498.021 241.277 498.516ZM253.647 495.509L253.354 494.21C255.443 493.682 257.495 493.153 259.509 492.623L259.824 493.919C257.798 494.442 255.739 494.968 253.647 495.496V495.509ZM265.957 492.269L265.642 490.973C267.729 490.405 269.77 489.834 271.765 489.259L272.081 490.549C270.092 491.114 268.054 491.683 265.967 492.256L265.957 492.269ZM278.211 488.758L277.866 487.472C279.912 486.861 281.97 486.233 283.949 485.605L284.309 486.888C282.32 487.502 280.269 488.134 278.22 488.745L278.211 488.758ZM290.382 484.927L290.003 483.651C292.045 482.983 294.075 482.284 296.029 481.6L296.426 482.866C294.473 483.54 292.44 484.235 290.391 484.913L290.382 484.927ZM302.436 480.694L302.017 479.435C304.056 478.673 306.057 477.905 307.96 477.144L308.405 478.396C306.502 479.144 304.494 479.919 302.446 480.681L302.436 480.694ZM314.327 475.951L313.853 474.712C315.848 473.857 317.805 472.981 319.674 472.113L320.182 473.339C318.313 474.197 316.34 475.076 314.336 475.934L314.327 475.951ZM325.961 470.529L325.412 469.324C327.363 468.321 329.257 467.319 331.046 466.317L331.637 467.496C329.844 468.495 327.934 469.517 325.977 470.516L325.961 470.529ZM337.183 464.183L336.532 463.037C338.391 461.858 340.172 460.648 341.829 459.439L342.545 460.542C340.876 461.747 339.073 462.973 337.192 464.166L337.183 464.183ZM347.659 456.5L346.863 455.461C348.487 454.069 350.045 452.592 351.529 451.035L352.419 451.98C350.908 453.566 349.323 455.07 347.668 456.486L347.659 456.5ZM356.667 446.906L355.67 446.091C356.944 444.354 358.087 442.513 359.088 440.586L360.196 441.227C359.164 443.21 357.988 445.104 356.677 446.893L356.667 446.906ZM455.325 439.891C453.132 439.679 450.999 439.015 449.047 437.937L449.625 436.748C451.432 437.746 453.406 438.362 455.436 438.562L455.325 439.891ZM461.831 439.089L461.443 437.817C462.553 437.436 463.626 436.942 464.646 436.343C465.418 435.898 466.157 435.391 466.856 434.827L467.623 435.889C466.875 436.493 466.086 437.037 465.262 437.516C464.169 438.143 463.024 438.661 461.84 439.063L461.831 439.089ZM362.775 435.004L361.576 434.58C362.232 432.495 362.712 430.354 363.012 428.18L364.274 428.377C363.962 430.619 363.463 432.828 362.785 434.977L362.775 435.004ZM443.807 433.845C442.274 432.215 440.946 430.383 439.856 428.393L440.948 427.725C441.983 429.614 443.244 431.354 444.698 432.903L443.807 433.845ZM472.014 430.782L470.947 430.067C472.034 428.219 472.869 426.217 473.424 424.121L474.637 424.492C474.048 426.699 473.168 428.808 472.023 430.755L472.014 430.782ZM437.293 422.097C436.679 419.899 436.36 417.621 436.346 415.329L437.362 415.295H437.608C437.616 417.47 437.913 419.632 438.489 421.719L437.293 422.097ZM363.432 421.606C363.421 419.392 363.293 417.18 363.05 414.981L364.312 414.831C364.56 417.079 364.689 419.339 364.701 421.602L363.432 421.606ZM475.757 417.771L474.495 417.66C474.583 416.495 474.63 415.279 474.63 414.043C474.63 413.067 474.602 412.059 474.545 411.036L475.808 410.96C475.864 411.998 475.893 413.031 475.893 414.033C475.909 415.279 475.871 416.531 475.776 417.734L475.757 417.771ZM438.666 408.942L437.482 408.474C437.726 407.788 438.011 407.119 438.334 406.47C439.024 405.093 439.798 403.765 440.651 402.495L441.683 403.263C440.863 404.488 440.118 405.766 439.452 407.091C439.161 407.679 438.905 408.284 438.685 408.905L438.666 408.942ZM362.109 408.387C361.708 406.069 361.254 403.771 360.846 401.827L362.081 401.546C362.475 403.5 362.936 405.812 363.343 408.147L362.109 408.387ZM473.847 404.446C473.532 402.341 473.093 400.147 472.585 397.925L473.81 397.591C474.34 399.849 474.779 402.077 475.11 404.219L473.847 404.446ZM445.616 398.099L444.669 397.207C445.985 395.657 447.444 394.07 449.12 392.35L450 393.309C448.365 394.959 446.929 396.526 445.635 398.052L445.616 398.099ZM359.524 395.266C359.013 392.687 358.634 390.59 358.324 388.649L359.568 388.425C359.884 390.346 360.253 392.434 360.761 394.992L359.524 395.266ZM470.824 391.525C470.192 389.461 469.473 387.346 468.69 385.245L469.867 384.754C470.656 386.882 471.382 389.02 472.026 391.101L470.824 391.525ZM454.647 388.766L453.807 387.764C455.212 386.427 456.736 385.038 458.608 383.344L459.429 384.346C457.582 386.003 456.061 387.413 454.666 388.719L454.647 388.766ZM357.482 381.945C357.314 379.987 357.232 378.163 357.232 376.369C357.232 375.969 357.232 375.568 357.232 375.164L358.495 375.197C358.495 375.588 358.495 375.979 358.495 376.369C358.495 378.123 358.574 379.907 358.741 381.824L357.482 381.945ZM464.271 380.021L463.456 379.018L465.401 377.275C464.769 375.882 464.11 374.492 463.431 373.126L464.549 372.501C465.18 373.781 465.811 375.08 466.395 376.383C467.026 375.81 467.658 375.238 468.289 374.666L469.113 375.668L466.954 377.619C467.093 377.929 467.228 378.237 467.364 378.547L466.215 379.105C466.13 378.908 466.045 378.711 465.956 378.514L464.271 380.021ZM473.898 371.215L473.049 370.213C474.769 368.57 476.272 367.066 477.648 365.623L478.535 366.572C477.171 367.995 475.65 369.508 473.917 371.168L473.898 371.215ZM359.12 368.57L357.876 368.342C357.924 368.035 357.977 367.728 358.034 367.424C358.386 365.506 358.837 363.61 359.385 361.745L360.591 362.143C360.056 363.962 359.616 365.811 359.275 367.681C359.215 367.975 359.161 368.272 359.12 368.57ZM460.373 367.233C459.287 365.309 458.163 363.412 456.992 361.591L458.04 360.843C459.211 362.684 460.36 364.604 461.455 366.549L460.373 367.233ZM482.935 361.598L481.988 360.726C483.362 359.059 484.627 357.296 485.776 355.448L486.836 356.177C485.65 358.074 484.344 359.885 482.929 361.598H482.935ZM453.312 356.17C452.005 354.363 450.66 352.629 449.312 351.016L450.259 350.13C451.623 351.767 452.99 353.528 454.315 355.358L453.312 356.17ZM362.87 355.993L361.733 355.412C362.667 353.363 363.755 351.398 364.988 349.536L366.02 350.304C364.824 352.107 363.769 354.009 362.863 355.993H362.87ZM489.715 350.047L488.522 349.613C489.094 347.904 489.395 346.107 489.412 344.295V344.041C489.412 343.787 489.412 343.533 489.393 343.276L490.656 343.226C490.656 343.49 490.656 343.753 490.674 344.021V344.295C490.656 346.255 490.329 348.199 489.709 350.047H489.715ZM444.963 346.202C443.539 344.756 442.094 343.413 440.66 342.214C440.518 342.093 440.376 341.976 440.228 341.859L440.989 340.791C441.143 340.914 441.304 341.041 441.443 341.165C442.908 342.391 444.385 343.763 445.837 345.237L444.963 346.202ZM370.022 345.26L369.129 344.318C370.647 342.707 372.29 341.233 374.04 339.912L374.773 341.001C373.077 342.277 371.486 343.702 370.016 345.26H370.022ZM434.906 338.459C433.028 337.49 431.095 336.641 429.121 335.917L429.537 334.654C431.561 335.395 433.541 336.265 435.465 337.26L434.906 338.459ZM380.113 337.597L379.545 336.405C381.462 335.387 383.441 334.507 385.47 333.772L385.88 335.038C383.903 335.752 381.975 336.607 380.107 337.597H380.113ZM488.676 336.715C488.279 334.545 487.752 332.404 487.098 330.305L488.298 329.887C488.969 332.042 489.509 334.24 489.914 336.468L488.676 336.715ZM423.095 334.043C421.084 333.525 419.01 333.087 416.924 332.743L417.12 331.407C419.238 331.741 421.349 332.199 423.395 332.743L423.095 334.043ZM391.922 333.275L391.653 331.968C393.739 331.494 395.846 331.135 397.966 330.893L398.105 332.229C396.026 332.461 393.96 332.808 391.915 333.268L391.922 333.275ZM410.677 331.998C408.575 331.841 406.476 331.781 404.393 331.815L404.374 330.479C406.495 330.445 408.626 330.509 410.766 330.669L410.677 331.998ZM484.816 324.128C483.986 322.178 483.026 320.183 481.975 318.196L483.074 317.528C484.15 319.532 485.125 321.58 485.975 323.564L484.816 324.128ZM478.667 312.514C477.54 310.72 476.309 308.893 475.006 307.079L476.013 306.27C477.329 308.104 478.576 309.945 479.718 311.776L478.667 312.514ZM471.054 301.871C469.725 300.201 468.314 298.531 466.856 296.861L467.781 295.952C469.252 297.622 470.675 299.322 472.017 300.996L471.054 301.871ZM462.456 292.07C460.982 290.524 459.438 288.97 457.876 287.451L458.731 286.468C460.309 287.998 461.856 289.565 463.343 291.118L462.456 292.07ZM453.141 283.011C451.534 281.558 449.893 280.122 448.258 278.745L449.044 277.7C450.692 279.086 452.346 280.533 453.959 281.996L453.141 283.011Z" fill="#CCC2FF"/>
<path d="M231.814 500.69L231.552 499.384L234.636 498.686L234.901 499.992C233.878 500.226 232.849 500.459 231.814 500.69Z" fill="#CCC2FF"/>
<path d="M302.061 482.485C304.387 485.013 305.148 488.223 303.759 489.656C302.37 491.089 299.359 490.198 297.029 487.652C294.7 485.107 293.942 481.91 295.331 480.48C296.72 479.051 299.734 479.943 302.061 482.485Z" fill="white"/>
<path d="M339.198 469.715C339.286 468.725 338.053 467.793 336.444 467.632C334.835 467.472 333.459 468.145 333.371 469.135C333.283 470.125 334.516 471.058 336.125 471.218C337.734 471.378 339.11 470.705 339.198 469.715Z" fill="white"/>
<path d="M306.896 456.112C307.471 457.736 306.896 459.453 305.608 459.977C304.321 460.501 302.815 459.586 302.241 457.973C301.666 456.359 302.241 454.632 303.525 454.108C304.81 453.584 306.322 454.489 306.896 456.112Z" fill="white"/>
<path d="M174.688 429.476C174.077 427.434 173.084 425.544 171.769 423.917L172.716 423.052C174.137 424.813 175.211 426.857 175.872 429.065L174.688 429.476ZM167.085 419.832C165.301 418.741 163.418 417.846 161.463 417.159L161.873 415.893C163.91 416.616 165.872 417.558 167.729 418.703L167.085 419.832ZM155.45 415.436C153.556 415.022 151.47 414.671 149.27 414.39L149.418 413.054C151.656 413.338 153.771 413.695 155.702 414.116L155.45 415.436ZM98.9116 415.042V413.705C100.446 413.705 101.999 413.619 103.533 413.502L105.18 413.378L105.269 414.714L103.624 414.841C102.052 414.955 100.474 415.025 98.9116 415.042ZM92.5545 414.838C90.4523 414.681 88.3249 414.434 86.2416 414.1L86.4278 412.763C88.489 413.098 90.5817 413.335 92.6523 413.488L92.5545 414.838ZM111.55 414.267L111.474 412.93C113.608 412.79 115.712 412.667 117.787 412.56L117.85 413.896C115.784 414.005 113.684 414.129 111.55 414.267ZM143.017 413.796C141.038 413.665 138.913 413.575 136.735 413.525L136.761 412.189C138.97 412.239 141.101 412.333 143.096 412.463L143.017 413.796ZM124.144 413.625L124.103 412.289C126.313 412.216 128.44 412.169 130.416 412.149V413.485C128.459 413.508 126.341 413.555 124.144 413.625ZM79.9792 412.84C77.9054 412.333 75.8411 411.735 73.8431 411.06L74.225 409.787C76.1915 410.455 78.2242 411.04 80.2664 411.538L79.9792 412.84ZM67.8648 408.748C65.8667 407.866 63.9255 406.901 62.0979 405.869L62.6945 404.69C64.4842 405.692 66.3875 406.65 68.3477 407.512L67.8648 408.748ZM56.6373 402.375C54.8742 401.101 53.1962 399.7 51.6153 398.182L52.4676 397.18C54.0044 398.657 55.636 400.018 57.3506 401.256L56.6373 402.375ZM47.2626 393.185C45.9479 391.374 44.8535 389.396 44.0052 387.296L45.1667 386.778C45.9781 388.773 47.0192 390.655 48.2664 392.38L47.2626 393.185ZM42.4616 380.635C42.4301 380.171 42.4143 379.7 42.4143 379.232C42.4173 377.395 42.6606 375.567 43.1371 373.801L44.3524 374.165C43.9075 375.813 43.6801 377.518 43.6769 379.232C43.6769 379.666 43.6769 380.107 43.7211 380.542L42.4616 380.635ZM46.8807 368.276L45.8138 367.564C46.9732 365.65 48.312 363.865 49.8099 362.236L50.7189 363.161C49.2829 364.73 47.9992 366.446 46.887 368.286L46.8807 368.276ZM55.3526 358.779L54.5761 357.727C56.2556 356.348 58.0002 355.06 59.8032 353.868L60.4723 355.001C58.7089 356.172 57.0022 357.436 55.3589 358.789L55.3526 358.779ZM65.9046 351.707L65.3175 350.525C67.1135 349.522 69.0358 348.537 71.0275 347.588L71.5452 348.804C69.5819 349.756 67.6848 350.732 65.9109 351.717L65.9046 351.707ZM77.3341 346.222L76.8701 344.979C78.764 344.188 80.7746 343.403 82.8137 342.641L83.2272 343.9C81.2102 344.655 79.228 345.447 77.3404 346.232L77.3341 346.222Z" fill="#CCC2FF"/>
<path d="M29.517 349.415C24.18 349.405 18.9203 348.064 14.1649 345.499C9.40952 342.935 5.29234 339.221 2.14746 334.657L3.17015 333.869C7.67469 340.422 14.217 345.086 21.6479 347.041C29.0788 348.997 36.9231 348.119 43.8032 344.561C50.6832 341.004 56.1589 334.995 59.2685 327.59C62.3781 320.185 62.9228 311.857 60.8069 304.069L62.019 303.698C63.4661 309.03 63.7236 314.644 62.7712 320.099C61.8187 325.554 59.6824 330.7 56.5304 335.132C53.3785 339.565 49.297 343.162 44.6077 345.64C39.9184 348.119 34.7492 349.411 29.5076 349.415H29.517Z" fill="#DDD6FF"/>
<path d="M59.3171 299.73C56.3365 292.594 51.1592 286.737 44.6295 283.115C38.0999 279.493 30.6031 278.319 23.362 279.784L23.1252 278.475C30.6466 276.947 38.4351 278.164 45.219 281.925C52.0028 285.687 57.381 291.772 60.4755 299.186L59.3171 299.73Z" fill="#DDD6FF"/>
<path d="M-2.98494 323.554C-5.42216 314.558 -4.43875 304.91 -0.244777 296.671C3.9492 288.432 11.0212 282.255 19.4606 279.46L19.8362 280.736C11.7077 283.426 4.8962 289.374 0.858516 297.31C-3.17917 305.245 -4.12249 314.538 -1.7697 323.2L-2.98494 323.554Z" fill="#DDD6FF"/>
<path d="M40.0028 289.846C45.5397 292.58 49.9283 297.38 52.3271 303.327C54.7259 309.274 54.9661 315.949 53.0018 322.072C51.0374 328.195 47.0067 333.335 41.6823 336.507C36.3579 339.679 30.1146 340.659 24.1493 339.26C18.184 337.862 12.9164 334.182 9.35656 328.926C5.7967 323.671 4.195 317.21 4.85855 310.782C5.52209 304.354 8.40418 298.412 12.9523 294.094C17.5004 289.776 23.3944 287.387 29.5044 287.384C33.1319 287.382 36.7156 288.222 40.0028 289.846Z" fill="#FFE4E0"/>
<path d="M37.7301 295.02C42.0621 297.16 45.4953 300.917 47.3714 305.57C49.2475 310.224 49.4344 315.446 47.8964 320.237C46.3583 325.027 43.2035 329.048 39.0369 331.529C34.8703 334.009 29.985 334.775 25.3179 333.679C20.6508 332.583 16.5302 329.702 13.7462 325.589C10.9623 321.476 9.7109 316.42 10.232 311.391C10.7531 306.362 13.0101 301.713 16.5701 298.336C20.1301 294.959 24.7427 293.092 29.5234 293.093C32.3592 293.092 35.1605 293.75 37.7301 295.02Z" fill="#FFD4CC"/>
<path d="M20.2308 332.416C15.597 329.844 12.0977 325.456 10.4809 320.189C8.86412 314.923 9.25811 309.196 11.5787 304.233C13.8992 299.27 17.9622 295.464 22.8992 293.63C27.8361 291.795 33.2553 292.077 37.9984 294.415L37.4618 295.625C34.9761 294.39 32.2629 293.754 29.5171 293.761C25.3179 293.762 21.2405 295.253 17.9364 297.996C14.6323 300.738 12.2923 304.574 11.2905 308.889C10.2887 313.205 10.6828 317.751 12.4099 321.802C14.137 325.852 17.0974 329.173 20.8179 331.233L20.2308 332.416Z" fill="#FAB4A8"/>
<path d="M29.5171 334.825C27.1471 334.827 24.7956 334.382 22.5729 333.512L23.0116 332.259C25.6685 333.296 28.5126 333.684 31.3312 333.395C34.1499 333.105 36.8701 332.145 39.2888 330.586C41.7074 329.027 43.7617 326.909 45.2983 324.392C46.8349 321.875 47.8139 319.022 48.1622 316.048L49.4248 316.212C48.8265 321.352 46.4716 326.082 42.8043 329.511C39.1369 332.94 34.4106 334.83 29.5171 334.825Z" fill="#FAB4A8"/>
<path d="M47.0764 306.595C46.8775 306.033 46.6503 305.479 46.4041 304.924L47.5372 304.34C47.8023 304.914 48.0454 305.509 48.2569 306.103L47.0764 306.595Z" fill="#FAB4A8"/>
<path d="M44.0367 301.039C42.2571 298.742 40.0165 296.892 37.4775 295.625L38.0141 294.415C40.7293 295.765 43.1262 297.738 45.0309 300.191L44.0367 301.039Z" fill="#FAB4A8"/>
<path d="M52.1488 325.902L51.0251 325.291C53.7828 319.592 54.4212 313.006 52.8141 306.833C51.2071 300.661 47.4714 295.35 42.3448 291.95L43.014 290.818C48.4067 294.395 52.3365 299.981 54.0276 306.475C55.7187 312.968 55.0483 319.896 52.1488 325.892V325.902Z" fill="#A796F2"/>
<path d="M8.94646 300.201L7.87012 299.5C11.0318 294.08 15.9053 290.022 21.6259 288.044C27.3465 286.067 33.5441 286.298 39.119 288.697L38.6423 289.936C33.3479 287.662 27.4636 287.445 22.0326 289.324C16.6015 291.203 11.9745 295.056 8.97172 300.201H8.94646Z" fill="#A796F2"/>
<path d="M29.517 340.533C25.1299 340.53 20.8181 339.327 17.0004 337.039C13.1826 334.752 9.98856 331.459 7.72846 327.48C5.46835 323.501 4.21896 318.971 4.10163 314.33C3.9843 309.688 5.00301 305.094 7.05883 300.993L8.17621 301.621C5.51476 306.919 4.69866 313.04 5.87072 318.911C7.04277 324.782 10.1283 330.03 14.5875 333.737C19.0467 337.443 24.5955 339.372 30.263 339.186C35.9305 339.001 41.3558 336.712 45.5896 332.72L46.4292 333.722C41.7746 338.115 35.7539 340.54 29.517 340.533Z" fill="#A796F2"/>
<path d="M36.1603 301.872L18.4073 320.66L22.8713 325.384L40.6242 306.597L36.1603 301.872Z" fill="white"/>
<path d="M22.8744 301.866L18.4105 306.59L36.1635 325.378L40.6274 320.653L22.8744 301.866Z" fill="white"/>
<path d="M427.895 213.49L427.264 212.324C427.895 211.947 428.527 211.543 429.142 211.122L429.827 212.244C429.193 212.678 428.561 213.099 427.895 213.49Z" fill="#B3A4F5"/>
<path d="M433.312 209.565L432.51 208.53C438.424 203.414 442.698 196.487 444.746 188.7C446.794 180.913 446.515 172.645 443.949 165.032C441.383 157.418 436.654 150.831 430.412 146.174C424.169 141.516 416.718 139.015 409.08 139.015C388.923 139.015 372.317 156.365 372.061 177.691H370.798C371.064 155.644 388.235 137.696 409.08 137.696C416.978 137.697 424.683 140.283 431.138 145.1C437.593 149.917 442.482 156.728 445.136 164.601C447.79 172.473 448.078 181.022 445.961 189.075C443.844 197.128 439.426 204.291 433.312 209.582V209.565Z" fill="#B3A4F5"/>
<path d="M409.08 218.721C401.806 218.701 394.687 216.498 388.548 212.368C382.41 208.238 377.504 202.35 374.4 195.388L375.543 194.82C379.076 202.789 385.039 209.268 392.472 213.216C399.905 217.165 408.377 218.353 416.526 216.59L416.782 217.9C414.247 218.446 411.667 218.721 409.08 218.721Z" fill="#B3A4F5"/>
<path d="M432.955 141.741C431.869 140.943 430.746 140.188 429.572 139.496L435.758 127.861C437.267 128.757 438.747 129.742 440.177 130.781L432.955 141.741Z" fill="#E9E6FF"/>
<path d="M426.936 138.06C421.46 135.319 415.482 133.881 409.424 133.848L409.525 120.486C417.412 120.534 425.194 122.407 432.324 125.974L426.936 138.06Z" fill="#E9E6FF"/>
<path d="M403.824 134.188L402.246 120.934C402.811 120.857 403.376 120.793 403.948 120.736L405.131 134.038C404.696 134.081 404.257 134.132 403.824 134.188Z" fill="#E9E6FF"/>
<path d="M360.793 205.025C357.384 198.15 355.321 190.618 354.726 182.879C354.13 175.141 355.016 167.355 357.329 159.986C359.642 152.618 363.335 145.819 368.188 139.996C373.04 134.173 378.952 129.445 385.571 126.094L391.022 138.147C383.898 141.78 377.884 147.461 373.666 154.541C369.449 161.62 367.198 169.813 367.172 178.182C367.148 185.367 368.795 192.449 371.966 198.802L360.793 205.025Z" fill="#E9E6FF"/>
<path d="M372.692 221.183C370.307 218.92 368.113 216.44 366.136 213.771L376.073 205.527C377.596 207.582 379.286 209.492 381.123 211.235L372.692 221.183Z" fill="#E9E6FF"/>
<path d="M378.847 226.234C378.03 225.656 377.222 225.052 376.442 224.434L384.018 213.744C384.614 214.218 385.236 214.683 385.864 215.127L378.847 226.234Z" fill="#E9E6FF"/>
<path d="M429.855 200.181C441.328 188.038 441.328 168.351 429.855 156.209C418.381 144.066 399.779 144.066 388.305 156.209C376.831 168.351 376.831 188.038 388.305 200.181C399.779 212.323 418.381 212.323 429.855 200.181Z" fill="#FFD259"/>
<path d="M420.32 163.404C419.866 163.02 419.392 162.655 418.915 162.321C415.996 160.285 412.576 159.201 409.08 159.205V157.869C412.822 157.866 416.483 159.028 419.607 161.209C420.121 161.567 420.626 161.954 421.109 162.368L420.32 163.404Z" fill="white"/>
<path d="M424.303 190.575L423.303 189.763C425.381 186.912 426.646 183.492 426.949 179.906C426.999 179.361 427.021 178.79 427.021 178.199C427.026 173.405 425.311 168.788 422.223 165.281L423.148 164.373C426.453 168.126 428.289 173.068 428.284 178.199C428.284 178.83 428.258 179.448 428.205 180.029C427.881 183.866 426.527 187.525 424.303 190.575Z" fill="white"/>
<path d="M422.214 177.681C422.1 174.079 420.665 170.666 418.213 168.165C415.761 165.665 412.485 164.273 409.08 164.285V162.949C412.814 162.936 416.407 164.464 419.094 167.208C421.782 169.952 423.353 173.697 423.473 177.647L422.214 177.681Z" fill="white"/>
<path d="M420.494 187.482L419.496 186.667C420.836 184.831 421.717 182.668 422.059 180.377L423.322 180.584C422.942 183.098 421.97 185.471 420.494 187.482Z" fill="white"/>
<path d="M407.925 197.496C408.767 198.434 409.782 199.18 410.907 199.687C412.155 200.25 413.507 200.505 414.862 200.433C416.216 200.362 417.538 199.965 418.726 199.273L421.4 197.72L415.797 186.93L412.804 188.059C411.585 188.519 410.246 188.471 409.058 187.926C408.025 187.451 407.168 186.629 406.621 185.587L401.997 176.682C401.453 175.636 401.253 174.428 401.429 173.248C401.627 171.894 402.304 170.67 403.323 169.824L405.826 167.76L400.223 156.97L397.546 158.527C396.362 159.218 395.341 160.184 394.559 161.353C393.778 162.521 393.257 163.862 393.036 165.274C392.836 166.552 392.888 167.86 393.187 169.116C395.709 179.761 400.785 189.537 407.925 197.496Z" fill="white"/>
<path d="M120.429 100.43L117.067 122.443H105.158L106.225 115.462H85.9985L88.2933 100.43H120.429Z" fill="#F2F0FF"/>
<path d="M106.225 115.462L105.158 122.443H84.9318L85.9986 115.462H106.225Z" fill="#DDD6FF"/>
<path d="M105.158 122.443L102.867 137.475H70.7277L74.0893 115.462H85.9986L84.9317 122.443H105.158Z" fill="#E9E6FF"/>
<path d="M55.0875 137.475H44.6176L45.7097 130.3H56.1828L55.0875 137.475Z" fill="#F2F0FF"/>
<path d="M91.2508 114.794H60.9395V116.13H91.2508V114.794Z" fill="#B3A4F5"/>
<path d="M56.1796 114.794H51.2808V116.13H56.1796V114.794Z" fill="#B3A4F5"/>
<path d="M344.521 564.091V581.101H198.479V564.091C198.481 538.792 205.368 514.028 218.318 492.762C231.267 471.495 249.731 454.625 271.5 444.17C275.291 445.988 278.993 448.008 282.592 450.223C301.433 461.805 317.07 478.42 327.938 498.405C338.806 518.391 344.525 541.046 344.521 564.105V564.091Z" fill="white"/>
<path d="M272.762 473.178C272.762 478.663 274.322 485.331 277.598 492.139C272.384 506.897 263.375 516.384 251.538 526.665C250.996 520.928 251.055 515.145 251.715 509.422C251.924 507.498 252.189 505.601 252.511 503.743C262.845 494.417 270.237 482.926 270.237 469.671V469.317H272.762V473.178Z" fill="#FFC159"/>
<path d="M344.524 575.215V581.101H198.482V564.091C198.485 538.792 205.373 514.029 218.322 492.763C231.272 471.496 249.734 454.627 271.503 444.17C275.295 445.988 278.997 448.008 282.595 450.223C265.392 467.212 254.256 485.792 251.718 509.435C247.792 546.083 263.561 578.569 344.524 575.215Z" fill="#E9E6FF"/>
<path d="M344.521 575.215V581.101H198.479V564.091C198.479 563.35 198.485 562.608 198.498 561.867C198.498 561.366 198.517 560.865 198.529 560.35C198.529 559.762 198.561 559.174 198.592 558.586C198.624 557.998 198.636 557.471 198.668 556.916C198.665 556.869 198.665 556.823 198.668 556.776C198.706 556.008 198.75 555.239 198.807 554.471C198.851 553.803 198.902 553.155 198.958 552.5C198.99 552.066 199.028 551.632 199.072 551.197C199.091 550.984 199.11 550.763 199.135 550.549C199.173 550.115 199.217 549.674 199.268 549.24C199.318 548.806 199.362 548.358 199.419 547.924C199.457 547.57 199.501 547.209 199.546 546.855C199.571 546.594 199.609 546.327 199.647 546.066C199.71 545.539 199.785 545.018 199.855 544.496C199.95 543.848 200.044 543.207 200.145 542.566C200.246 541.924 200.354 541.23 200.461 540.588C200.852 538.27 201.305 535.972 201.818 533.694C201.957 533.079 202.096 532.464 202.241 531.856C202.266 531.763 202.285 531.669 202.311 531.576C202.468 530.908 202.626 530.24 202.809 529.592C202.806 529.572 202.806 529.551 202.809 529.531C216.616 526.137 237.6 517.172 252.479 503.75C252.164 505.607 251.892 507.505 251.684 509.429C247.789 546.083 263.558 578.569 344.521 575.215Z" fill="#FFAA45"/>
<path d="M343.947 551.405C327.849 561.479 306.619 567.305 286.935 569.035C262.978 560.684 253.451 544.984 251.539 526.665C263.375 516.383 272.371 506.897 277.598 492.139C286.076 509.763 306.063 528.382 340.336 530.22C342.083 537.165 343.29 544.251 343.947 551.405Z" fill="#FFD259"/>
<path d="M286.935 569.035C265.017 570.966 237.063 563.26 229.56 553.736C225.034 547.987 228.241 544.47 232.189 540.708C235.722 537.345 241.4 535.45 251.166 526.992C251.292 526.886 251.412 526.779 251.539 526.658C253.451 544.984 262.978 560.691 286.935 569.035Z" fill="#FFC159"/>
<path d="M344.521 564.092V575.215C319.585 576.251 300.836 573.879 286.935 569.035C306.619 567.305 327.843 561.479 343.947 551.405C344.326 555.594 344.517 559.823 344.521 564.092Z" fill="#FFC159"/>
<path d="M344.524 298.528V315.537C344.533 334.963 340.471 354.149 332.631 371.713C330.305 376.95 327.652 382.016 324.689 386.879C319.403 395.563 313.169 403.559 306.117 410.702C295.988 420.973 284.286 429.349 271.509 435.475C249.741 425.018 231.279 408.148 218.33 386.882C205.381 365.615 198.493 340.853 198.488 315.554V298.544L344.524 298.528Z" fill="white"/>
<path d="M306.11 410.699C295.982 420.969 284.28 429.346 271.503 435.472C249.735 425.014 231.273 408.144 218.324 386.878C205.375 365.612 198.486 340.85 198.482 315.55V298.541H266.446C228.348 332.964 259.534 434.513 306.11 410.699Z" fill="#E9E6FF"/>
<path d="M297.885 418.329C289.803 425.189 280.94 430.948 271.503 435.472C255.464 427.773 241.155 416.555 229.522 402.562C237.95 401.75 246.423 403.465 253.972 407.512C270.152 416.271 281.155 423.733 297.885 418.329Z" fill="#FFAA45"/>
<path d="M381.663 600.482H101.364V601.818H381.663V600.482Z" fill="#C4B8FF"/>
<path d="M329.932 610.664H314.708V612H329.932V610.664Z" fill="#C4B8FF"/>
<path d="M490.153 610.664H485.182V612H490.153V610.664Z" fill="#C4B8FF"/>
<path d="M464.687 610.664H369.82V612H464.687V610.664Z" fill="#C4B8FF"/>
<path d="M307.067 610.664H22.2477V612H307.067V610.664Z" fill="#C4B8FF"/>
<path d="M520.354 600.639H480.056V601.976H520.354V600.639Z" fill="#C4B8FF"/>
<path d="M577 590.458H570.58V591.794H577V590.458Z" fill="#C4B8FF"/>
<path d="M563.251 590.458H-50.4169V591.794H563.251V590.458Z" fill="#C4B8FF"/>
<path d="M445.499 590.458H438.555V591.794H445.499V590.458Z" fill="#40327A"/>
<path d="M428.211 590.458H371.326V591.794H428.211V590.458Z" fill="#40327A"/>
<path d="M320.917 590.458H112.036V591.794H320.917V590.458Z" fill="#40327A"/>
<path d="M355.954 590.458H326.678V591.794H355.954V590.458Z" fill="#40327A"/>
<path d="M99.7512 590.458H94.7798V591.794H99.7512V590.458Z" fill="#40327A"/>
<path d="M344.524 289.175H198.482V298.528H344.524V289.175Z" fill="#8B77E8"/>
<path d="M344.524 581.105H198.482V590.458H344.524V581.105Z" fill="#8B77E8"/>
<path d="M323.48 327.078C320.595 335.884 327.154 353.04 332.975 343.917C338.795 334.795 337.861 318.63 332.366 315.433C329.79 313.924 325.384 321.272 323.48 327.078Z" fill="#E9E6FF"/>
<path d="M390.436 246.674L416.635 279.33L426.104 266.239L391.121 246.864C391.112 246.861 391.105 246.854 391.102 246.845C391.098 246.836 391.097 246.825 391.101 246.816C391.104 246.807 391.111 246.799 391.119 246.795C391.128 246.791 391.138 246.791 391.147 246.794L433.639 255.843L441.04 245.625L390.537 246.457C390.514 246.459 390.492 246.467 390.473 246.48C390.454 246.494 390.438 246.513 390.428 246.535C390.418 246.557 390.413 246.581 390.415 246.605C390.416 246.63 390.424 246.653 390.436 246.674Z" fill="#DDD6FF"/>
<path d="M391.126 246.848L426.109 266.222L435.768 271.567C435.94 271.663 436.135 271.704 436.328 271.685C436.522 271.666 436.706 271.587 436.858 271.46C437.011 271.332 437.125 271.16 437.187 270.965C437.249 270.77 437.256 270.56 437.207 270.361L433.647 255.807L391.151 246.781C391.144 246.779 391.135 246.781 391.128 246.785C391.121 246.789 391.116 246.795 391.113 246.803C391.11 246.811 391.11 246.82 391.112 246.828C391.115 246.836 391.119 246.843 391.126 246.848Z" fill="#CCC2FF"/>
<path d="M411.34 250.413L411.091 251.723L433.541 256.505L433.79 255.195L411.34 250.413Z" fill="white"/>
<path d="M416.652 280.395L389.952 247.105L390.915 246.24L416.602 278.268L425.607 265.831L426.608 266.646L416.652 280.395Z" fill="#CCC2FF"/>
<path d="M152.612 317.434L117.292 351.547L108.04 334.701L151.776 317.528C151.785 317.524 151.792 317.517 151.797 317.507C151.801 317.498 151.803 317.488 151.8 317.477C151.798 317.467 151.792 317.458 151.784 317.452C151.776 317.446 151.767 317.443 151.757 317.444L100.682 321.302L93.4573 308.155L152.53 317.147C152.559 317.152 152.587 317.166 152.609 317.186C152.631 317.207 152.647 317.234 152.656 317.263C152.665 317.293 152.665 317.325 152.657 317.356C152.65 317.386 152.634 317.413 152.612 317.434Z" fill="#DDD6FF"/>
<path d="M151.776 317.528L108.04 334.701L95.9604 339.438C95.7451 339.522 95.5112 339.539 95.2871 339.486C95.063 339.432 94.8583 339.311 94.6979 339.137C94.5375 338.963 94.4283 338.744 94.3834 338.505C94.3386 338.267 94.3601 338.02 94.4453 337.794L100.679 321.306L151.754 317.448C151.763 317.448 151.771 317.451 151.779 317.456C151.786 317.462 151.791 317.47 151.793 317.479C151.796 317.488 151.796 317.498 151.792 317.507C151.789 317.515 151.783 317.523 151.776 317.528Z" fill="#CCC2FF"/>
<path d="M117.14 352.599L107.491 335.039L108.583 334.364L117.443 350.495L144.898 323.982L145.75 324.967L117.14 352.599Z" fill="#CCC2FF"/>
<path d="M125.926 318.72L121.04 319.09L121.13 320.423L126.016 320.053L125.926 318.72Z" fill="white"/>
<path d="M115.492 319.507L100.644 320.631L100.734 321.963L115.582 320.84L115.492 319.507Z" fill="white"/>
<path d="M324.039 360.58C320.046 359.37 320.883 353.478 323.856 353.16C329.651 352.546 328.941 362.063 324.039 360.58Z" fill="#E9E6FF"/>
<path d="M330.355 534.689C338.294 534.993 339.326 546.337 333.916 548.385C323.42 552.34 320.611 534.315 330.355 534.689Z" fill="white"/>
<path d="M333.123 554.795C336.551 554.926 336.999 559.826 334.66 560.708C330.125 562.421 328.906 554.635 333.123 554.795Z" fill="white"/>
<path d="M199.116 590.457H197.854V564.092C197.886 533.977 207.584 504.766 225.359 481.249L226.344 482.084C208.753 505.361 199.153 534.269 199.116 564.075V590.457Z" fill="#7760DB"/>
<path d="M230.823 476.519L229.876 475.627C235.745 468.711 242.287 462.469 249.392 457.004L250.134 458.083C243.103 463.494 236.631 469.673 230.823 476.519Z" fill="#7760DB"/>
<path d="M338.887 527.183C334.146 510.204 326.218 494.411 315.575 480.751C304.932 467.09 291.794 455.842 276.948 447.681L277.529 446.492C292.525 454.737 305.795 466.098 316.546 479.896C327.297 493.694 335.308 509.646 340.099 526.796L338.887 527.183Z" fill="#7760DB"/>
<path d="M342.918 547.64C342.631 545.228 342.286 542.793 341.86 540.405L343.101 540.164C343.521 542.576 343.88 545.038 344.171 547.473L342.918 547.64Z" fill="#7760DB"/>
<path d="M345.156 590.458H343.893V564.092C343.893 559.983 343.71 555.824 343.344 551.732L344.606 551.605C344.973 555.734 345.159 559.933 345.159 564.085L345.156 590.458Z" fill="#7760DB"/>
<path d="M283.722 580.437H203.734V581.773H283.722V580.437Z" fill="white"/>
<path d="M289.012 580.463H286.408V581.799H289.012V580.463Z" fill="white"/>
<path d="M337.066 580.463H307.067V581.799H337.066V580.463Z" fill="#7760DB"/>
<path d="M257.785 288.506H254.727V289.842H257.785V288.506Z" fill="#4F37B3"/>
<path d="M69.8565 200.112L68.171 211.142H44.2925L45.9749 200.112H69.8565Z" fill="#F2F0FF"/>
<path d="M64.6862 231.736H58.9288V233.072H64.6862V231.736Z" fill="#B3A4F5"/>
<path d="M125.539 231.736H67.5775V233.072H125.539V231.736Z" fill="#B3A4F5"/>
<path d="M135.994 231.736H131.06V233.072H135.994V231.736Z" fill="#B3A4F5"/>
<path d="M140.895 227.43H79.2532L85.6986 185.207H147.341L140.895 227.43Z" fill="#DDD6FF"/>
<path d="M150.696 218.501H89.054L95.4994 176.278H157.142L150.696 218.501Z" fill="#F2F0FF"/>
<path d="M89.054 218.501L152.249 208.336L150.696 218.501H89.054Z" fill="white"/>
<path d="M95.4994 176.278L122.948 198.371L157.142 176.278L157.255 175.54H95.613L95.4994 176.278Z" fill="white"/>
<path d="M174.811 195.839L166.112 186.152C166.458 185.803 166.787 185.435 167.097 185.05L176.724 193.695C176.123 194.445 175.484 195.161 174.811 195.839Z" fill="#DDD6FF"/>
<path d="M178.432 191.33L167.968 183.85C169.288 181.782 170.057 179.377 170.197 176.886L182.801 177.667C182.528 182.554 181.02 187.273 178.432 191.33Z" fill="#DDD6FF"/>
<path d="M169.951 173.204C169.404 170.408 168.062 167.855 166.103 165.891C164.144 163.926 161.664 162.644 158.996 162.217C156.328 161.79 153.6 162.238 151.18 163.501C148.759 164.765 146.763 166.782 145.46 169.283L134.412 162.816C136.963 157.925 140.869 153.979 145.604 151.508C150.339 149.038 155.675 148.162 160.895 148.999C166.114 149.836 170.966 152.346 174.797 156.19C178.627 160.034 181.253 165.027 182.321 170.499L169.951 173.204Z" fill="#DDD6FF"/>
<path d="M162.278 177.334C162.965 174.254 161.163 171.169 158.253 170.442C155.343 169.715 152.428 171.622 151.741 174.702C151.054 177.781 152.856 180.867 155.766 181.593C158.676 182.32 161.591 180.413 162.278 177.334Z" fill="#FF95A9"/>
<path d="M151.236 219.169H88.3154L89.5938 210.784L90.8406 210.998L89.7958 217.833H150.16L155.201 184.809L156.447 185.02L151.236 219.169Z" fill="#B3A4F5"/>
<path d="M122.91 199.18L94.8146 176.565L95.0766 174.871H153.43V176.208H96.4559L122.986 197.563L130.782 192.529L131.439 193.668L122.91 199.18Z" fill="#B3A4F5"/>
<path d="M136.266 189.019L133.858 190.576L134.516 191.716L136.924 190.159L136.266 189.019Z" fill="#B3A4F5"/>
<path d="M93.9137 182.499L90.9304 202.079L92.1769 202.291L95.1602 182.712L93.9137 182.499Z" fill="white"/>
<path d="M157.022 185.671C156.01 185.671 155.005 185.494 154.048 185.146L154.462 183.884C155.682 184.33 156.987 184.451 158.262 184.236C159.537 184.021 160.742 183.477 161.771 182.651C162.8 181.826 163.62 180.744 164.159 179.503C164.699 178.262 164.94 176.899 164.863 175.535C164.786 174.171 164.392 172.849 163.716 171.684C163.041 170.52 162.104 169.55 160.99 168.861C159.875 168.171 158.617 167.783 157.327 167.731C156.037 167.678 154.755 167.964 153.594 168.561L153.042 167.362C154.28 166.719 155.642 166.387 157.022 166.39C159.438 166.39 161.755 167.406 163.463 169.214C165.172 171.022 166.131 173.474 166.131 176.03C166.131 178.587 165.172 181.039 163.463 182.847C161.755 184.655 159.438 185.671 157.022 185.671Z" fill="#8B77E8"/>
<path d="M150.179 171.972L149.077 171.304C149.41 170.679 149.807 170.096 150.261 169.563L151.208 170.458C150.811 170.92 150.466 171.428 150.179 171.972Z" fill="#8B77E8"/>
<path d="M34.5453 254.167H-34.5493V255.503H34.5453V254.167Z" fill="#B3A4F5"/>
<path d="M48.7241 254.167H44.2925V255.503H48.7241V254.167Z" fill="#B3A4F5"/>
<path d="M55.7313 223.959L54.191 234.054L52.9789 241.991L51.8142 249.627H-3.74878L0.168373 223.959H55.7313Z" fill="#F2F0FF"/>
<path d="M54.1911 234.054L52.979 241.991H4.84314L54.1911 234.054Z" fill="white"/>
<path d="M229.826 121.882C246.604 104.126 246.604 75.3379 229.826 57.5821C213.048 39.8263 185.846 39.8263 169.068 57.5821C152.29 75.3379 152.29 104.126 169.068 121.882C185.846 139.637 213.048 139.637 229.826 121.882Z" fill="#FFCCD6"/>
<path d="M231.284 105.935C233.144 99.0164 233.225 91.6975 231.518 84.7346C229.811 77.7718 226.378 71.4177 221.574 66.329C216.77 61.2403 210.769 57.6017 204.191 55.7891C197.613 53.9766 190.697 54.056 184.158 56.019C190.757 52.6819 198.173 51.5934 205.381 52.9033C212.59 54.2133 219.237 57.8573 224.407 63.3332C229.577 68.809 233.014 75.847 234.246 83.477C235.478 91.1071 234.443 98.9536 231.284 105.935Z" fill="#FF95A9"/>
<path d="M232.748 94.8448C232.754 98.5953 232.264 102.328 231.293 105.935C228.848 111.32 225.22 116.007 220.712 119.602C216.204 123.198 210.947 125.599 205.382 126.602C199.817 127.606 194.106 127.184 188.727 125.372C183.348 123.56 178.457 120.41 174.465 116.186C170.472 111.963 167.494 106.788 165.78 101.096C164.066 95.4039 163.665 89.36 164.612 83.4704C165.559 77.5808 167.825 72.017 171.221 67.2449C174.618 62.4728 179.045 58.6314 184.132 56.0423H184.167C189.842 54.3385 195.813 54.05 201.611 55.1995C207.409 56.3489 212.876 58.905 217.583 62.6671C222.29 66.4291 226.11 71.2948 228.741 76.8819C231.372 82.469 232.744 88.6256 232.748 94.8682V94.8448Z" fill="#FFB0BF"/>
<path d="M241.211 113.013L240.188 112.232C242.874 108.312 244.938 103.954 246.299 99.3311L247.505 99.7319C246.102 104.491 243.976 108.977 241.211 113.013Z" fill="#8B77E8"/>
<path d="M248.231 96.9593L247.003 96.6453C247.154 95.9773 247.29 95.3259 247.413 94.6779L248.65 94.9351C248.527 95.6031 248.385 96.2846 248.231 96.9593Z" fill="#8B77E8"/>
<path d="M256.219 59.5466C255.988 59.0544 255.751 58.5689 255.509 58.0901L277.791 45.5134C278.142 46.2082 278.483 46.9086 278.813 47.6146L256.219 59.5466Z" fill="#F0EDFF"/>
<path d="M252.448 52.7262C242.663 37.4505 227.155 27.9503 209.889 26.6709L211.673 0.0142822C236.716 1.88826 259.199 15.6441 273.353 37.7611L252.448 52.7262Z" fill="#F0EDFF"/>
<path d="M183.937 31.2197L174.057 6.62744C174.552 6.40474 175.049 6.18205 175.55 5.95935L184.982 30.7487C184.641 30.9124 184.293 31.0627 183.937 31.2197Z" fill="#F0EDFF"/>
<path d="M274.843 94.7913L273.58 94.6343C273.905 91.7665 274.067 88.8808 274.066 85.9926C274.066 85.2744 274.066 84.5629 274.038 83.8514L275.3 83.8113C275.319 84.5362 275.329 85.261 275.329 85.9926C275.331 88.9331 275.169 91.8711 274.843 94.7913Z" fill="#B3A4F5"/>
<path d="M273.769 79.0913C273.697 78.2696 273.605 77.4211 273.501 76.576L274.764 76.4056C274.868 77.2675 274.959 78.1293 275.035 78.9644L273.769 79.0913Z" fill="#B3A4F5"/>
<path d="M270.925 64.2766C266.361 49.1514 257.25 36.0201 244.979 26.8838L245.705 25.7915C258.202 35.0956 267.481 48.4687 272.128 63.8724L270.925 64.2766Z" fill="#B3A4F5"/>
<path d="M238.777 22.7786C237.852 22.2374 236.883 21.7096 235.936 21.2119L236.492 20.0127C237.467 20.5204 238.439 21.0582 239.383 21.6094L238.777 22.7786Z" fill="#B3A4F5"/>
<path d="M140.545 65.242L139.333 64.8578C143.635 49.8988 152.292 36.7597 164.067 27.3147C172.123 20.8797 181.408 16.3805 191.275 14.1306C201.142 11.8806 211.353 11.934 221.199 14.287L220.921 15.5898C215.982 14.4108 210.934 13.817 205.871 13.8194C176.011 13.8127 149.146 34.961 140.545 65.242Z" fill="#B3A4F5"/>
<path d="M139.652 68.696L138.424 68.3787C138.49 68.0914 138.56 67.8075 138.629 67.5236L139.851 67.8576L139.652 68.696Z" fill="#B3A4F5"/>
<path d="M139.589 68.9598L138.361 68.6492L138.424 68.3752L139.652 68.6993L139.589 68.9598Z" fill="#B3A4F5"/>
<path d="M136.644 92.0355C136.489 90.0313 136.41 88.0036 136.41 85.9894C136.41 82.9285 136.589 79.8706 136.947 76.8333L138.209 77.0003C137.858 79.9822 137.682 82.9843 137.682 85.9894C137.682 87.9702 137.761 89.9645 137.913 91.9253L136.644 92.0355Z" fill="#B3A4F5"/>
<path d="M262.318 89.303L261.055 89.2329C261.112 88.1539 261.14 87.0649 261.14 85.9893C261.141 82.0181 260.761 78.0572 260.004 74.1675L261.241 73.897C262.014 77.8758 262.403 81.9273 262.403 85.9893C262.406 87.0883 262.375 88.204 262.318 89.303Z" fill="#B3A4F5"/>
<path d="M258.631 68.5422C255.732 58.7863 250.473 50.0022 243.376 43.0614L244.231 42.0793C251.489 49.1772 256.869 58.159 259.837 68.1347L258.631 68.5422Z" fill="#B3A4F5"/>
<path d="M249.159 91.5345L247.896 91.3775C248.096 89.5893 248.196 87.7901 248.196 85.9894C248.196 61.2869 229.207 41.1909 205.865 41.1909C199.175 41.2033 192.582 42.8878 186.623 46.1072C180.665 49.3265 175.509 53.9897 171.576 59.7169L170.553 58.9319C174.604 53.0312 179.915 48.2267 186.053 44.9098C192.191 41.5928 198.982 39.8574 205.874 39.8447C229.914 39.8447 249.468 60.5387 249.468 85.9794C249.468 87.8359 249.365 89.6909 249.159 91.5345Z" fill="#8B77E8"/>
<path d="M166.437 105.678C166.049 104.803 165.68 103.907 165.345 103.005L166.52 102.514C166.835 103.38 167.201 104.248 167.58 105.097L166.437 105.678Z" fill="#8B77E8"/>
<path d="M205.874 132.124C199.235 132.144 192.68 130.55 186.714 127.465C180.749 124.38 175.533 119.886 171.469 114.33L172.466 113.508C175.906 118.183 180.188 122.089 185.064 125.002C189.939 127.914 195.313 129.774 200.872 130.474C206.432 131.173 212.067 130.7 217.453 129.079C222.838 127.459 227.866 124.724 232.246 121.034L233.032 122.079C225.333 128.618 215.746 132.164 205.874 132.124Z" fill="#8B77E8"/>
<path d="M201.544 100.43L191.014 97.3067L198.722 61.6075L212.49 65.6929L201.544 100.43Z" fill="white"/>
<path d="M199.902 106.688L189.37 103.566L186.42 114.712L196.952 117.834L199.902 106.688Z" fill="white"/>
<path d="M60.9048 243.033H4.06348L4.70108 238.864L5.94788 239.078L5.54701 241.697H59.8316L63.5436 217.369H9.26215L8.63086 221.494L7.38406 221.28L8.1858 216.032H65.0272L60.9048 243.033Z" fill="#B3A4F5"/>
<path d="M7.33764 221.6L5.23022 235.431L6.47671 235.644L8.58412 221.813L7.33764 221.6Z" fill="#B3A4F5"/>
<path d="M34.5296 230.256L34.2897 230.146L8.4668 217.993L8.97814 216.771L34.5643 228.813L53.9702 220.903L54.4247 222.152L34.5296 230.256Z" fill="#B3A4F5"/>
<path d="M58.6891 218.996L56.8362 219.75L57.2897 220.997L59.1426 220.243L58.6891 218.996Z" fill="#B3A4F5"/>
<path d="M85.1399 176.158H43.8063L46.8333 156.325H88.1543L85.1399 176.158ZM45.3024 174.821H84.0636L86.6834 157.662H47.9097L45.3024 174.821Z" fill="#B3A4F5"/>
<path d="M49.1059 188.484H-2.79553L0.976422 163.761H52.8811L51.4701 173.001L50.2233 172.787L51.3975 165.097H2.05277L-1.312 187.148H48.0327L48.7366 182.528L49.9834 182.742L49.1059 188.484Z" fill="#B3A4F5"/>
<path d="M49.4804 177.697L49.301 178.875L50.5475 179.087L50.7269 177.91L49.4804 177.697Z" fill="#B3A4F5"/>
<path d="M41.0476 156.325H30.5398V157.662H41.0476V156.325Z" fill="#B3A4F5"/>
<path d="M97.0588 254.167H78.4326V255.503H97.0588V254.167Z" fill="#B3A4F5"/>
<path d="M160.579 242.863H158.919V244.199H160.579V242.863Z" fill="#CCC2FF"/>
<path d="M546.155 173.906C544.782 173.906 543.439 173.475 542.297 172.667C541.155 171.86 540.265 170.712 539.74 169.369C539.214 168.026 539.076 166.549 539.344 165.123C539.612 163.698 540.274 162.388 541.245 161.36C542.216 160.333 543.453 159.633 544.8 159.349C546.148 159.066 547.544 159.211 548.813 159.767C550.082 160.324 551.166 161.266 551.929 162.474C552.692 163.683 553.1 165.103 553.1 166.557C553.1 168.506 552.368 170.375 551.066 171.753C549.763 173.132 547.997 173.906 546.155 173.906ZM546.155 160.544C545.032 160.544 543.933 160.897 542.999 161.558C542.064 162.218 541.336 163.157 540.906 164.256C540.476 165.355 540.363 166.564 540.583 167.73C540.802 168.896 541.343 169.968 542.138 170.809C542.932 171.65 543.945 172.222 545.047 172.454C546.149 172.686 547.291 172.567 548.33 172.112C549.368 171.657 550.255 170.886 550.879 169.897C551.504 168.909 551.837 167.746 551.837 166.557C551.837 164.962 551.238 163.433 550.173 162.305C549.107 161.178 547.662 160.544 546.155 160.544Z" fill="#DDD6FF"/>
<path d="M392.616 79.5524C391.243 79.5524 389.9 79.1214 388.758 78.3138C387.616 77.5063 386.726 76.3586 386.2 75.0157C385.675 73.6729 385.537 72.1953 385.805 70.7697C386.073 69.3442 386.735 68.0347 387.706 67.0069C388.677 65.9792 389.914 65.2793 391.261 64.9957C392.608 64.7121 394.005 64.8577 395.274 65.4139C396.542 65.9701 397.627 66.912 398.39 68.1206C399.153 69.3291 399.56 70.7499 399.56 72.2034C399.56 74.1525 398.829 76.0217 397.526 77.3999C396.224 78.7781 394.458 79.5524 392.616 79.5524ZM392.616 66.1907C391.492 66.1907 390.394 66.5433 389.46 67.204C388.525 67.8647 387.797 68.8038 387.367 69.9024C386.937 71.0011 386.824 72.2101 387.044 73.3765C387.263 74.5428 387.804 75.6142 388.599 76.4551C389.393 77.296 390.406 77.8687 391.508 78.1007C392.61 78.3327 393.752 78.2136 394.79 77.7585C395.829 77.3034 396.716 76.5327 397.34 75.5439C397.964 74.5551 398.298 73.3926 398.298 72.2034C398.298 70.6087 397.699 69.0794 396.634 67.9518C395.568 66.8241 394.123 66.1907 392.616 66.1907Z" fill="#DDD6FF"/>
<path d="M505.825 398.139H504.563C504.563 395.127 503.432 392.238 501.419 390.108C499.407 387.978 496.677 386.782 493.831 386.782V385.445C496.677 385.445 499.407 384.249 501.419 382.119C503.432 379.989 504.563 377.1 504.563 374.088H505.825C505.825 377.1 506.956 379.989 508.969 382.119C510.981 384.249 513.711 385.445 516.557 385.445V386.782C513.711 386.782 510.981 387.978 508.969 390.108C506.956 392.238 505.825 395.127 505.825 398.139ZM497.675 386.113C499.42 386.742 501.006 387.787 502.309 389.166C503.613 390.546 504.6 392.223 505.194 394.07C505.789 392.224 506.777 390.546 508.081 389.167C509.385 387.787 510.971 386.743 512.716 386.113C510.971 385.484 509.385 384.44 508.081 383.06C506.777 381.681 505.789 380.003 505.194 378.157C504.601 380.002 503.616 381.679 502.315 383.058C501.014 384.438 499.431 385.483 497.688 386.113H497.675Z" fill="#DDD6FF"/>
<path d="M59.9674 466.838H58.7048C58.7048 463.826 57.5742 460.937 55.5615 458.807C53.5489 456.677 50.8192 455.481 47.9729 455.481V454.145C50.8192 454.145 53.5489 452.948 55.5615 450.818C57.5742 448.688 58.7048 445.799 58.7048 442.787H59.9674C59.9674 445.799 61.0981 448.688 63.1107 450.818C65.1234 452.948 67.8531 454.145 70.6993 454.145V455.481C67.8531 455.481 65.1234 456.677 63.1107 458.807C61.0981 460.937 59.9674 463.826 59.9674 466.838ZM51.8175 454.813C53.5627 455.442 55.1481 456.487 56.4517 457.867C57.7552 459.247 58.742 460.926 59.3361 462.773C59.9308 460.925 60.9181 459.247 62.2222 457.867C63.5263 456.487 65.1122 455.442 66.858 454.813C65.1143 454.185 63.5298 453.143 62.2259 451.767C60.922 450.39 59.9334 448.716 59.3361 446.872C58.7393 448.716 57.7513 450.39 56.448 451.766C55.1446 453.143 53.5606 454.185 51.8175 454.813Z" fill="#DDD6FF"/>
<path d="M257.51 194.533L256.983 193.889L257.51 194.533Z" fill="#7760DB"/>
<path d="M276.964 181.419L276.468 181.115L280.556 173.652C281.146 174.013 281.823 174.18 282.503 174.132C283.183 174.085 283.834 173.825 284.374 173.386C284.914 172.947 285.319 172.348 285.538 171.666C285.756 170.983 285.779 170.247 285.602 169.551C285.426 168.855 285.058 168.229 284.546 167.754C284.033 167.279 283.399 166.976 282.724 166.882C282.049 166.788 281.362 166.909 280.752 167.228C280.141 167.547 279.633 168.051 279.293 168.675L278.82 169.54L273.432 179.378C272.323 181.397 270.565 182.927 268.478 183.686C266.391 184.445 264.116 184.384 262.068 183.513L259.499 194.537H275.755L278.655 182.107C278.06 181.976 277.489 181.744 276.964 181.419Z" fill="#FF95A9"/>
<path d="M270.629 169.186C271.497 169.718 272.527 169.867 273.499 169.602C274.47 169.337 275.304 168.679 275.821 167.77L282.712 155.197C281.437 155.618 280.093 155.754 278.765 155.597C277.438 155.44 276.156 154.993 275 154.285L265.828 148.656C264.932 149.48 264.151 150.433 263.508 151.489L261.898 154.121L257.586 161.183L270.629 169.186Z" fill="#FF95A9"/>
<path d="M272.848 139.887C272.393 140.052 271.92 140.149 271.44 140.175L263.568 140.599L262.173 141.481L261.806 141.711C260.967 142.487 260.296 143.446 259.839 144.522C259.382 145.598 259.15 146.766 259.159 147.945C259.168 149.124 259.417 150.288 259.89 151.356C260.362 152.424 261.047 153.372 261.898 154.134L263.508 151.502C264.151 150.447 264.932 149.493 265.828 148.669L275 154.298C276.156 155.007 277.438 155.454 278.766 155.611C280.093 155.768 281.437 155.631 282.712 155.21L275.821 167.783C275.304 168.692 274.47 169.35 273.499 169.615C272.528 169.88 271.497 169.731 270.629 169.2L257.586 161.183L251.453 171.204C251.116 171.757 250.888 172.376 250.784 173.025C250.679 173.674 250.7 174.338 250.845 174.978C250.99 175.618 251.257 176.22 251.628 176.748C252 177.275 252.469 177.718 253.006 178.048L260.897 182.892C261.276 183.122 261.67 183.324 262.075 183.497C264.122 184.367 266.398 184.429 268.484 183.669C270.571 182.91 272.33 181.38 273.438 179.361L278.826 169.524L279.299 168.658C279.64 168.034 280.147 167.53 280.758 167.211C281.369 166.892 282.055 166.772 282.731 166.865C283.406 166.959 284.04 167.263 284.552 167.738C285.064 168.213 285.432 168.838 285.609 169.534C285.785 170.23 285.763 170.966 285.544 171.649C285.326 172.331 284.921 172.93 284.38 173.369C283.84 173.808 283.189 174.068 282.509 174.115C281.83 174.163 281.152 173.996 280.562 173.636L276.474 181.098L276.97 181.402C277.498 181.721 278.072 181.946 278.668 182.07C279.849 182.335 281.079 182.197 282.183 181.678C283.286 181.158 284.205 180.283 284.811 179.177L287.099 174.999L292.178 165.732C292.953 164.323 293.45 162.761 293.639 161.143L292.951 160.454C292.639 160.143 292.378 159.779 292.181 159.375L288.157 151.058C287.936 150.607 287.779 150.124 287.689 149.625C287.459 148.34 287.683 147.011 288.321 145.89C287.801 144.817 286.922 143.988 285.856 143.564C284.79 143.14 283.612 143.153 282.554 143.599C282.226 142.401 281.474 141.384 280.455 140.759L279.959 140.455L275.445 137.686C274.839 138.709 273.924 139.485 272.848 139.887ZM259.805 165.398C261.503 166.4 260.844 172.253 260.844 172.253C260.226 171.447 259.486 170.756 258.653 170.208C258.052 169.851 257.381 169.646 256.693 169.607C256.693 169.607 258.113 164.373 259.805 165.382V165.398Z" fill="#40327A"/>
<path d="M285.079 280.91C284.823 283.005 283.856 284.93 282.358 286.326C280.861 287.723 278.934 288.495 276.938 288.5H249.556V289.836H276.938C279.242 289.831 281.465 288.94 283.194 287.329C284.922 285.717 286.038 283.495 286.332 281.077L291.846 235.21L291.215 235.126L290.584 235.039L285.079 280.91Z" fill="#4F37B3"/>
<path d="M234.708 288.5L234.816 289.836H242.978V289.168V288.5H234.708Z" fill="#4F37B3"/>
<path d="M261.803 141.698L262.169 141.467L263.568 140.585L264.369 140.081V140.078L262.173 141.464L258 134.058L254.373 135.434L258.921 143.518L261.803 141.698Z" fill="white"/>
<path d="M262.173 141.464L264.382 140.078L263.58 140.582L271.452 140.158C271.932 140.132 272.406 140.035 272.86 139.871C274.126 139.405 275.164 138.426 275.748 137.149C276.331 135.873 276.411 134.404 275.971 133.064C275.531 131.725 274.606 130.626 273.4 130.009C272.193 129.391 270.805 129.306 269.54 129.772L261.197 132.846L261.163 132.862L258.006 134.058L262.173 141.464Z" fill="#FF95A9"/>
<path d="M287.689 149.645C287.778 150.144 287.936 150.627 288.156 151.078L292.181 159.395C292.378 159.799 292.638 160.164 292.951 160.474L294.81 162.335L300.41 156.078L298.967 155.113L297.613 147.64C297.331 146.281 296.558 145.092 295.46 144.326C294.362 143.56 293.025 143.277 291.733 143.538C290.441 143.799 289.297 144.583 288.543 145.724C287.789 146.864 287.485 148.271 287.696 149.645H287.689Z" fill="#FF95A9"/>
<path d="M339.565 182.311L339.461 182.244L300.41 156.078L303.667 158.26L297.569 165.098L317.77 185.317L284.312 194.533H275.789L274.527 199.928L265.373 238.727L264.442 242.682L256.409 208.643V208.603V194.533V193.114L251.068 186.573L250.592 187.011L249.364 185.504L249.843 185.07L246.627 181.128L246.147 181.563L229.598 161.283L238.717 155.527L239.033 156.098L258.969 143.515L254.42 135.435L214.494 150.577L214.378 150.62C213.156 151.082 212.049 151.831 211.139 152.81C210.229 153.789 209.54 154.973 209.124 156.274C208.708 157.574 208.575 158.958 208.735 160.32C208.896 161.683 209.345 162.989 210.05 164.142L241.116 215.151C241.42 215.65 241.756 216.128 242.12 216.58L239.49 270.929H201.36C199.357 270.929 197.416 271.668 195.872 273.018C194.327 274.368 193.276 276.246 192.898 278.328L175.992 372.127C175.927 372.477 175.895 372.833 175.894 373.19H186.55V373.938L188.962 364.391L188.353 364.217L202.724 307.363L203.333 307.537L204.694 302.149L204.084 301.975L204.526 300.235L205.136 300.408L207.976 289.168H218.026L230.81 373.223L230.867 373.19H241.529C241.529 373.026 241.529 372.856 241.504 372.702L239.373 346.373L238.742 346.429L238.657 345.381L238.455 342.869L238.363 341.746L234.576 294.76L235.207 294.703L234.816 289.836L234.708 288.5H242.975V289.168H249.553V288.5H276.935C278.931 288.495 280.858 287.723 282.355 286.327C283.853 284.93 284.82 283.005 285.076 280.91L290.59 235.039L291.221 235.126L293.144 219.136L338.398 198.345C339.833 197.685 341.072 196.624 341.98 195.275C342.888 193.925 343.431 192.34 343.551 190.688C343.671 189.037 343.364 187.382 342.661 185.902C341.959 184.421 340.889 183.172 339.565 182.287V182.311Z" fill="#7760DB"/>
<path d="M294.804 162.345L292.945 160.484L292.942 160.488L293.633 161.179L294.804 162.348L297.553 165.098L303.658 158.26L300.4 156.078L294.804 162.345Z" fill="white"/>
<path d="M257.51 194.533L256.983 193.889L256.352 193.117V194.533V208.603L256.361 208.643L264.395 242.682L259.707 222.8L263.766 197.727H265.029L269.085 222.8L265.329 238.731L274.486 199.932L275.761 194.533H275.758H259.502H257.51Z" fill="white"/>
<path d="M265.029 197.727H263.767L259.707 222.8L264.395 242.682H264.398L265.329 238.731L269.085 222.8L265.029 197.727Z" fill="#40327A"/>
<path d="M175.894 373.189L169.767 376.724C169.453 376.898 169.203 377.18 169.058 377.523C168.913 377.866 168.882 378.251 168.969 378.616C169.057 378.98 169.258 379.303 169.541 379.531C169.823 379.759 170.17 379.88 170.525 379.874H186.55V373.193L175.894 373.189Z" fill="#40327A"/>
<path d="M230.876 373.189L230.82 373.223L224.756 376.724C224.441 376.898 224.191 377.18 224.046 377.524C223.901 377.867 223.87 378.253 223.958 378.617C224.046 378.982 224.248 379.304 224.531 379.532C224.814 379.76 225.161 379.881 225.517 379.874H241.539V373.193L230.876 373.189Z" fill="#40327A"/>
<path d="M238.382 341.746L238.471 342.869L238.676 345.384L238.761 346.433L239.389 346.376L240.017 346.319L239.73 342.755L235.838 294.646L235.21 294.703L234.582 294.76L238.382 341.746Z" fill="#4F37B3"/>
<path d="M258.653 170.192C259.486 170.739 260.226 171.43 260.844 172.236C260.844 172.236 261.503 166.39 259.805 165.382C258.107 164.373 256.693 169.59 256.693 169.59C257.381 169.629 258.052 169.835 258.653 170.192Z" fill="white"/>
<path d="M188.353 364.217L188.962 364.391L189.571 364.565L203.942 307.71L203.333 307.537L202.721 307.363L188.353 364.217Z" fill="#4F37B3"/>
<path d="M204.084 301.978L204.694 302.149L205.303 302.322L205.745 300.582L205.132 300.408L204.523 300.238L204.084 301.978Z" fill="#4F37B3"/>
<path d="M250.266 184.632L249.787 185.07L249.31 185.508L250.538 187.011L251.015 186.573L251.491 186.139L250.266 184.632Z" fill="#4F37B3"/>
<path d="M231.482 161.614L239.31 156.673L238.985 156.102L238.663 155.527L229.544 161.283L246.094 181.566L246.57 181.128L247.05 180.691L231.482 161.614Z" fill="#4F37B3"/>
<path d="M236.056 270.922H270.591V266.914H236.056V270.922Z" fill="#40327A"/>
<path d="M174.177 225.162L181.077 260.597L181.128 260.857L183.085 270.926H243.689L234.781 225.162H174.177Z" fill="white"/>
<path d="M172.441 225.162L179.341 260.597L179.392 260.858L181.349 270.926H241.952L233.045 225.162H172.441Z" fill="#C4B8FF"/>
<path d="M210.833 251.518C212.308 249.788 211.875 246.831 209.867 244.913C207.858 242.995 205.034 242.842 203.559 244.572C202.084 246.302 202.517 249.26 204.526 251.178C206.534 253.096 209.358 253.248 210.833 251.518Z" fill="white"/>
<path d="M179.341 260.597L179.392 260.857L181.349 270.925H241.952L179.341 260.597Z" fill="#DDD6FF"/>
<path d="M272.763 459.092H270.237V492.139H272.763V459.092Z" fill="#FFC159"/>
<path d="M270.24 421.883V464.119C271.055 463.05 271.901 461.988 272.766 460.932V421.883H270.24Z" fill="#FFAA45"/>
<path d="M275.474 434.226L274.915 433.026C279.074 430.852 283.114 428.433 287.017 425.781L287.699 426.907C283.756 429.586 279.675 432.029 275.474 434.226Z" fill="#624AC9"/>
<path d="M289.545 425.628L288.845 424.515C313.196 407.273 330.998 381.469 339.098 351.67L340.311 352.041C332.147 382.153 314.16 408.226 289.545 425.628Z" fill="#624AC9"/>
<path d="M341.381 347.836L340.156 347.502C340.341 346.731 340.519 345.952 340.689 345.163L341.92 345.464C341.759 346.272 341.567 347.054 341.381 347.836Z" fill="#624AC9"/>
<path d="M220.321 391.238C219.087 389.364 217.885 387.426 216.742 385.485L217.812 384.781C218.945 386.701 220.138 388.619 221.36 390.459L220.321 391.238Z" fill="#624AC9"/>
<path d="M270.512 435.726C251.708 426.523 235.35 412.534 222.9 395.009L223.91 394.208C236.238 411.558 252.435 425.405 271.055 434.513L270.512 435.726Z" fill="#624AC9"/>
<path d="M345.156 317.404H343.893V289.843H262.138V288.506H345.156V317.404Z" fill="#4F37B3"/>
<path d="M323.97 297.859H259.019V299.196H323.97V297.859Z" fill="#624AC9"/>
<path d="M334.913 297.859H331.229V299.196H334.913V297.859Z" fill="#624AC9"/>
<path d="M176.974 251.751L171.665 224.494H217.717V225.83H173.214L178.208 251.481L176.974 251.751Z" fill="#7760DB"/>
<path d="M226.713 224.494H221.189V225.83H226.713V224.494Z" fill="#7760DB"/>
<path d="M531.478 263.025H457.749L460.467 261.746C462.408 260.832 464.056 259.342 465.213 257.457C466.37 255.571 466.986 253.371 466.985 251.123V223.498C466.989 220.065 468.28 216.774 470.574 214.347C472.868 211.919 475.979 210.554 479.223 210.551H531.478C534.721 210.555 537.831 211.921 540.124 214.348C542.418 216.775 543.708 220.066 543.712 223.498V250.065C543.711 253.499 542.422 256.794 540.129 259.224C537.835 261.654 534.723 263.021 531.478 263.025ZM463.1 261.689H531.478C534.387 261.685 537.176 260.46 539.232 258.282C541.289 256.105 542.446 253.153 542.45 250.075V223.508C542.446 220.43 541.289 217.478 539.232 215.302C537.175 213.125 534.387 211.9 531.478 211.897H479.223C476.313 211.9 473.524 213.124 471.466 215.3C469.409 217.477 468.251 220.429 468.248 223.508V251.123C468.248 253.192 467.781 255.23 466.886 257.068C465.99 258.906 464.692 260.491 463.1 261.689Z" fill="#B3A4F5"/>
<path d="M532.241 224.791H477.891V226.127H532.241V224.791Z" fill="#B3A4F5"/>
<path d="M497.729 230.787H477.891V232.123H497.729V230.787Z" fill="#B3A4F5"/>
<path d="M532.241 237.094H477.891V238.43H532.241V237.094Z" fill="#B3A4F5"/>
<path d="M497.729 243.404H477.891V244.74H497.729V243.404Z" fill="#B3A4F5"/>
<path d="M531.478 263.025H460.726C460.581 263.026 460.439 262.975 460.326 262.878C460.213 262.782 460.135 262.648 460.104 262.497C460.074 262.347 460.093 262.19 460.159 262.053C460.226 261.917 460.334 261.808 460.467 261.746C462.408 260.832 464.056 259.342 465.213 257.457C466.37 255.571 466.985 253.372 466.985 251.124V223.498C466.989 220.065 468.28 216.774 470.574 214.347C472.868 211.919 475.979 210.554 479.223 210.551H531.478C534.721 210.555 537.831 211.921 540.124 214.348C542.418 216.775 543.708 220.066 543.712 223.498V250.065C543.711 253.499 542.422 256.794 540.129 259.224C537.835 261.654 534.723 263.021 531.478 263.025ZM463.099 261.689H531.478C534.387 261.685 537.176 260.46 539.232 258.282C541.289 256.105 542.446 253.153 542.45 250.075V223.508C542.446 220.43 541.289 217.478 539.232 215.302C537.175 213.125 534.387 211.9 531.478 211.897H479.223C476.313 211.9 473.524 213.124 471.466 215.3C469.408 217.477 468.251 220.429 468.248 223.508V251.124C468.248 253.192 467.781 255.23 466.886 257.068C465.99 258.906 464.692 260.491 463.099 261.689Z" fill="#B3A4F5"/>
<path d="M523.031 230.787H503.193V232.123H523.031V230.787Z" fill="#B3A4F5"/>
<path d="M433.637 36.7413H423.474V38.0775H433.637V36.7413Z" fill="#DDD6FF"/>
<path d="M429.187 32.0314H427.924V42.7876H429.187V32.0314Z" fill="#DDD6FF"/>
<path d="M346.046 39.1565L328.973 69.4909L340.642 67.7004L314.128 102.207L310.526 95.4794L294.927 118.034L308.825 76.5058L315.769 90.539L327.208 75.4736L313.414 77.3376L346.046 39.1565Z" fill="#DDD6FF"/>
<path d="M299.049 129.742L341.169 116.825L330.472 110.622L347.7 90.1516L309.463 111.851L317.256 116.371L299.049 129.742Z" fill="#B3A4F5"/>
</g>
<defs>
<clipPath id="clip0">
<rect width="632" height="612" fill="white" transform="translate(-55)"/>
</clipPath>
</defs>
</svg>
