<svg width="716" height="557" viewBox="0 0 716 557" fill="none" xmlns="http://www.w3.org/2000/svg">
<path d="M977.899 257.349C789.409 343.78 853.575 559.459 528.285 543.06C424.106 537.807 492.06 590.837 290.06 518.936C88.06 447.036 -35.4397 342.241 9.06013 257.349C53.56 172.458 177.15 189.535 381.682 201.153C586.214 212.772 493.679 127.917 528.285 61.7094C627.209 -127.551 1166.39 170.919 977.899 257.349Z" fill="#FFC359"/>
<g clip-path="url(#clip0)">
<path d="M719.095 514.098H140.101C65.7485 428.819 39.7896 332.199 66.8815 312.015C103.92 284.417 206.84 391.563 243.071 372.591C346.598 318.374 149.823 150.755 218.078 130.288C280.876 111.471 328.545 265.058 382.562 221.899C420.051 191.964 385.844 143.297 392.701 105.491C403.573 45.4991 497.369 76.2768 579.695 226.384C614.393 289.658 661.97 171.48 700.767 157.594C736.79 144.706 795.872 225.525 794.789 334.106C794.239 389.845 771.579 453.849 719.095 514.098Z" fill="#F8F7FF"/>
<path d="M446.302 383.143L482.907 513.231H487.114L457.182 383.143H446.302Z" fill="#DDD6FF"/>
<path d="M408.021 383.143L371.416 513.231H367.208L397.141 383.143H408.021Z" fill="#DDD6FF"/>
<path d="M427.157 421.37C461.205 421.37 488.805 392.903 488.805 357.787C488.805 322.671 461.205 294.204 427.157 294.204C393.11 294.204 365.509 322.671 365.509 357.787C365.509 392.903 393.11 421.37 427.157 421.37Z" fill="#FF809F"/>
<path d="M486.856 376.871L485.265 376.355C489.754 361.324 488.631 345.105 482.116 330.885L483.615 330.146C490.315 344.757 491.471 361.425 486.856 376.871Z" fill="#40327A"/>
<path d="M408.579 419.334C397.38 415.702 387.393 408.902 379.753 399.709C372.113 390.515 367.126 379.295 365.359 367.325L367.025 367.076C368.744 378.727 373.598 389.648 381.035 398.596C388.472 407.544 398.194 414.16 409.096 417.693L408.579 419.334Z" fill="#40327A"/>
<path d="M482.166 388.385L480.699 387.568C481.751 385.557 482.696 383.489 483.532 381.373L485.073 382.018C484.218 384.193 483.247 386.319 482.166 388.385Z" fill="#40327A"/>
<path d="M293.814 469.066C291.408 469.066 289.056 468.331 287.056 466.952C285.056 465.574 283.497 463.614 282.577 461.322C281.656 459.03 281.415 456.508 281.884 454.074C282.354 451.641 283.512 449.406 285.213 447.651C286.914 445.897 289.081 444.702 291.441 444.218C293.8 443.734 296.246 443.982 298.468 444.932C300.691 445.881 302.59 447.489 303.927 449.552C305.263 451.615 305.977 454.04 305.977 456.522C305.972 459.847 304.689 463.035 302.409 465.387C300.129 467.739 297.038 469.062 293.814 469.066ZM293.814 445.695C291.738 445.695 289.708 446.33 287.982 447.52C286.256 448.709 284.91 450.4 284.116 452.379C283.321 454.357 283.113 456.534 283.519 458.634C283.924 460.734 284.923 462.663 286.391 464.177C287.859 465.691 289.73 466.722 291.766 467.14C293.802 467.558 295.913 467.343 297.831 466.524C299.749 465.704 301.388 464.317 302.542 462.536C303.695 460.756 304.311 458.663 304.311 456.522C304.308 453.651 303.202 450.899 301.234 448.869C299.266 446.839 296.597 445.698 293.814 445.695Z" fill="#40327A"/>
<path d="M333.802 456.522H253.826V513.231H333.802V456.522Z" fill="#FF95A9"/>
<path d="M333.802 456.522H325.471V513.231H333.802V456.522Z" fill="#40327A"/>
<path d="M325.471 484.017H253.826V485.735H325.471V484.017Z" fill="#40327A"/>
<path d="M295.48 484.017H283.817V491.75H295.48V484.017Z" fill="white"/>
<path d="M457.54 381.536C457.544 385.555 456.797 389.537 455.34 393.265H398.991C397.318 388.981 396.584 384.369 396.842 379.758C397.099 375.148 398.342 370.653 400.481 366.596C402.62 362.539 405.602 359.019 409.214 356.29C412.826 353.561 416.979 351.689 421.374 350.808C425.77 349.928 430.3 350.06 434.64 351.197C438.98 352.333 443.022 354.445 446.478 357.382C449.934 360.318 452.718 364.006 454.631 368.182C456.543 372.358 457.536 376.918 457.54 381.536Z" fill="#40327A"/>
<path d="M427.157 390.137C431.758 390.137 435.488 386.29 435.488 381.545C435.488 376.8 431.758 372.953 427.157 372.953C422.556 372.953 418.826 376.8 418.826 381.545C418.826 386.29 422.556 390.137 427.157 390.137Z" fill="#40327A"/>
<path d="M500.856 342.038C506.371 338.95 508.414 331.835 505.42 326.146C502.425 320.458 495.527 318.35 490.011 321.439C484.496 324.527 482.453 331.642 485.447 337.331C488.442 343.019 495.34 345.127 500.856 342.038Z" fill="#7760DB"/>
<path d="M441.878 315.642L490.097 342.098L502.61 322.662L460.231 287.15L441.878 315.642Z" fill="#FFC359"/>
<path d="M454.662 316.912C463.446 314.084 468.344 304.446 465.601 295.387C462.858 286.327 453.514 281.276 444.731 284.105C435.947 286.934 431.049 296.571 433.792 305.63C436.535 314.69 445.879 319.741 454.662 316.912Z" fill="#FFC359"/>
<path d="M414.094 314.602L369.2 346.669L354.571 328.874L392.651 288.499L414.094 314.602Z" fill="#FFC359"/>
<path d="M421.231 301.54C421.804 292.068 414.824 283.91 405.64 283.319C396.455 282.728 388.546 289.927 387.973 299.4C387.4 308.872 394.38 317.03 403.565 317.621C412.749 318.212 420.658 311.012 421.231 301.54Z" fill="#FFC359"/>
<path d="M408.704 405.002C414.985 405.002 420.076 399.751 420.076 393.274C420.076 386.796 414.985 381.545 408.704 381.545C402.424 381.545 397.333 386.796 397.333 393.274C397.333 399.751 402.424 405.002 408.704 405.002Z" fill="#40327A"/>
<path d="M445.602 405.002C451.882 405.002 456.973 399.751 456.973 393.274C456.973 386.796 451.882 381.545 445.602 381.545C439.321 381.545 434.23 386.796 434.23 393.274C434.23 399.751 439.321 405.002 445.602 405.002Z" fill="#40327A"/>
<path d="M461.614 295.905L457.54 381.536H396.783L392.717 295.905C392.64 294.277 392.884 292.648 393.435 291.12C393.986 289.591 394.833 288.194 395.923 287.014C397.014 285.833 398.327 284.894 399.78 284.252C401.234 283.611 402.799 283.281 404.381 283.283H449.95C451.532 283.281 453.097 283.611 454.551 284.252C456.004 284.894 457.317 285.833 458.408 287.014C459.498 288.194 460.345 289.591 460.896 291.12C461.448 292.648 461.692 294.277 461.614 295.905Z" fill="#FFC359"/>
<path d="M457.531 381.536L456.973 393.265V393.841C456.836 396.851 455.58 399.692 453.465 401.772C451.351 403.852 448.541 405.012 445.618 405.011H408.729C405.807 405.012 402.997 403.852 400.882 401.772C398.768 399.692 397.512 396.851 397.374 393.841V393.265L396.816 381.536H457.531Z" fill="#40327A"/>
<path d="M455.093 509.684C457.774 506.787 457.67 502.197 454.861 499.432C452.051 496.666 447.601 496.774 444.92 499.671C442.239 502.569 442.343 507.159 445.152 509.924C447.962 512.689 452.412 512.582 455.093 509.684Z" fill="#40327A"/>
<path d="M447.418 405.174C452.741 405.174 457.057 400.723 457.057 395.233C457.057 389.742 452.741 385.291 447.418 385.291C442.094 385.291 437.779 389.742 437.779 395.233C437.779 400.723 442.094 405.174 447.418 405.174Z" fill="#40327A"/>
<path d="M442.986 504.639L437.779 395.233H457.048V504.639H442.986Z" fill="#40327A"/>
<path d="M464.113 513.239H442.977V504.647H457.048L465.121 509.184C465.452 509.37 465.728 509.644 465.92 509.978C466.112 510.313 466.213 510.694 466.212 511.083C466.212 511.367 466.158 511.648 466.052 511.91C465.947 512.172 465.792 512.41 465.597 512.611C465.402 512.811 465.17 512.97 464.916 513.078C464.661 513.186 464.388 513.241 464.113 513.239Z" fill="#FF95A9"/>
<path d="M500.934 412.373C501.804 408.469 499.441 404.578 495.656 403.681C491.871 402.784 488.098 405.221 487.229 409.125C486.359 413.028 488.722 416.919 492.507 417.816C496.292 418.713 500.065 416.276 500.934 412.373Z" fill="#40327A"/>
<path d="M396.541 367.247C398.338 367.907 399.905 369.101 401.044 370.679C402.182 372.257 402.841 374.148 402.938 376.113C403.034 378.077 402.563 380.027 401.584 381.716C400.605 383.404 399.163 384.755 397.439 385.597C395.716 386.44 393.789 386.736 391.902 386.448C390.015 386.161 388.253 385.302 386.84 383.982C385.426 382.661 384.425 380.937 383.961 379.029C383.498 377.121 383.594 375.114 384.237 373.262C385.097 370.783 386.876 368.758 389.183 367.63C391.49 366.503 394.136 366.365 396.541 367.247Z" fill="#40327A"/>
<path d="M491.755 417.616L390.077 385.979L396.541 367.256L496.47 403.945L491.755 417.616Z" fill="#40327A"/>
<path d="M497.228 427.385L504.317 406.841L496.47 403.954L491.755 417.624L493.196 426.998C493.251 427.384 493.406 427.748 493.645 428.05C493.884 428.353 494.198 428.583 494.554 428.717C494.814 428.811 495.09 428.85 495.365 428.834C495.64 428.818 495.91 428.746 496.158 428.622C496.407 428.499 496.629 428.326 496.812 428.113C496.996 427.901 497.137 427.654 497.228 427.385Z" fill="#FF95A9"/>
<path d="M440.321 262.151L419.494 260.862L418.14 284.139L438.967 285.428L440.321 262.151Z" fill="#FF95A9"/>
<path d="M438.804 283.911C438.683 286.031 437.956 288.067 436.714 289.761C435.472 291.455 433.771 292.731 431.826 293.428C429.881 294.125 427.779 294.212 425.787 293.677C423.794 293.143 421.999 292.011 420.63 290.424C419.261 288.838 418.378 286.869 418.094 284.765C417.81 282.662 418.137 280.519 419.033 278.607C419.93 276.695 421.356 275.1 423.131 274.024C424.906 272.947 426.951 272.438 429.007 272.56C430.373 272.641 431.71 272.999 432.942 273.614C434.174 274.228 435.276 275.087 436.186 276.141C437.096 277.195 437.795 278.424 438.245 279.757C438.694 281.09 438.884 282.502 438.804 283.911Z" fill="#FF95A9"/>
<path d="M399.882 400.672L385.845 382.903L399.74 369.215L416.302 384.535L399.882 400.672Z" fill="#40327A"/>
<path d="M285.6 348.765L284.725 357.358L268.155 513.231H263.948L276.386 348.765H285.6Z" fill="#DDD6FF"/>
<path d="M674.3 348.765L675.175 357.358L691.753 513.231H695.952L683.522 348.765H674.3Z" fill="#DDD6FF"/>
<path d="M691.02 348.765H267.405V357.358H691.02V348.765Z" fill="#7760DB"/>
<path d="M362.726 348.757C369.002 348.757 374.09 343.51 374.09 337.037C374.09 330.564 369.002 325.317 362.726 325.317C356.451 325.317 351.363 330.564 351.363 337.037C351.363 343.51 356.451 348.757 362.726 348.757Z" fill="#FFC359"/>
<path d="M475.726 343.61H435.738V348.765H475.726V343.61Z" fill="#40327A"/>
<path d="M555.127 289.908L553.053 335.817L552.47 348.765H472.494L475.151 289.908H555.127Z" fill="#C4B8FF"/>
<path d="M517.805 323.589C520.165 321.212 520.295 317.402 518.096 315.08C515.897 312.758 512.201 312.804 509.841 315.181C507.481 317.559 507.351 321.368 509.55 323.69C511.75 326.012 515.445 325.967 517.805 323.589Z" fill="white"/>
<path d="M553.053 335.817L552.47 348.765H472.494L553.053 335.817Z" fill="#DDD6FF"/>
<path d="M451.208 243.57L448.184 243.819L446.518 222.802L449.542 222.553C450.88 222.441 452.225 222.603 453.503 223.028C454.78 223.453 455.963 224.133 456.985 225.03C458.007 225.927 458.848 227.023 459.459 228.255C460.07 229.487 460.44 230.831 460.547 232.211C460.764 234.993 459.903 237.751 458.152 239.88C456.402 242.009 453.905 243.335 451.208 243.57Z" fill="#40327A"/>
<path d="M411.555 250.471L426.652 249.218L427.922 265.491L420.373 266.118C418.371 266.284 416.387 265.623 414.858 264.28C413.328 262.938 412.379 261.023 412.218 258.959L411.549 250.394L411.555 250.471Z" fill="#40327A"/>
<path d="M438.798 216.878L446.122 216.271C447.312 216.172 448.509 216.316 449.645 216.694C450.78 217.072 451.833 217.678 452.742 218.476C453.651 219.274 454.399 220.248 454.942 221.344C455.486 222.44 455.815 223.636 455.911 224.863L456.632 234.113C456.807 236.352 456.112 238.572 454.7 240.283C453.288 241.994 451.275 243.057 449.103 243.237L440.907 243.917L438.798 216.878Z" fill="#40327A"/>
<path d="M448.559 271.735L421.767 273.961L419.335 242.839C419.157 240.588 419.411 238.322 420.083 236.173C420.755 234.023 421.831 232.03 423.25 230.31C424.669 228.589 426.403 227.174 428.353 226.145C430.303 225.117 432.43 224.494 434.613 224.314C438.876 223.967 443.106 225.324 446.426 228.104C449.746 230.883 451.903 234.873 452.45 239.248L455.424 262.945C455.556 263.991 455.481 265.054 455.204 266.069C454.927 267.084 454.453 268.031 453.812 268.853C453.17 269.674 452.374 270.353 451.472 270.848C450.569 271.344 449.578 271.645 448.559 271.735Z" fill="#FF95A9"/>
<path d="M424.543 222.235L426.802 222.048L429.087 251.348L411.732 252.788L410.659 239.033C410.344 234.907 411.629 230.821 414.232 227.672C416.835 224.522 420.544 222.567 424.543 222.235Z" fill="#40327A"/>
<path d="M420.276 254.989L424.808 254.619L424.441 249.945C424.394 249.332 424.23 248.734 423.959 248.186C423.687 247.638 423.314 247.151 422.86 246.752C422.405 246.353 421.879 246.05 421.312 245.861C420.744 245.672 420.146 245.6 419.551 245.649C418.349 245.75 417.236 246.339 416.455 247.286C415.673 248.233 415.289 249.462 415.386 250.701C415.433 251.314 415.597 251.912 415.869 252.459C416.14 253.007 416.514 253.494 416.968 253.892C417.422 254.29 417.948 254.592 418.516 254.78C419.084 254.969 419.682 255.039 420.276 254.989Z" fill="#FF95A9"/>
<path d="M454.491 234.333L437.296 235.759C433.93 236.035 430.595 234.924 428.022 232.669C425.449 230.415 423.847 227.2 423.567 223.73C423.486 222.904 423.566 222.069 423.802 221.274C424.038 220.48 424.425 219.742 424.941 219.104C425.456 218.466 426.09 217.941 426.805 217.558C427.521 217.176 428.302 216.945 429.105 216.878C429.908 216.811 430.716 216.91 431.481 217.169C432.246 217.428 432.954 217.842 433.562 218.386C434.17 218.931 434.667 219.595 435.024 220.34C435.38 221.085 435.589 221.896 435.638 222.725C435.653 222.897 435.733 223.057 435.86 223.169C435.988 223.282 436.154 223.338 436.321 223.326L453.516 221.9L454.491 234.333Z" fill="#40327A"/>
<path d="M447.584 228.636L439.037 229.349C438.244 229.415 437.446 229.32 436.688 229.068C435.931 228.816 435.229 228.412 434.623 227.88C434.017 227.349 433.519 226.699 433.156 225.968C432.793 225.238 432.574 224.441 432.51 223.623C432.446 222.805 432.539 221.982 432.783 221.201C433.027 220.419 433.419 219.696 433.934 219.071C434.45 218.445 435.08 217.931 435.788 217.557C436.496 217.183 437.269 216.957 438.062 216.891L446.618 216.186C447.421 216.101 448.232 216.182 449.003 216.425C449.775 216.668 450.492 217.067 451.112 217.6C451.732 218.132 452.242 218.787 452.614 219.526C452.985 220.264 453.209 221.072 453.274 221.902C453.338 222.731 453.241 223.565 452.988 224.356C452.736 225.146 452.333 225.876 451.803 226.503C451.273 227.131 450.627 227.643 449.902 228.009C449.178 228.375 448.39 228.588 447.584 228.636Z" fill="#40327A"/>
<path d="M456.248 269.218C456.355 270.057 456.295 270.911 456.072 271.726C455.849 272.541 455.467 273.3 454.951 273.958C454.434 274.617 453.793 275.16 453.067 275.554C452.34 275.949 451.544 276.187 450.725 276.255L438.729 277.252C437.141 277.384 435.544 277.193 434.029 276.688C432.513 276.183 431.11 275.374 429.898 274.309C428.686 273.243 427.689 271.941 426.966 270.478C426.243 269.015 425.807 267.418 425.683 265.781L424.541 251.174L429.065 250.796C429.117 251.478 429.3 252.143 429.602 252.752C429.904 253.362 430.319 253.904 430.825 254.348C431.33 254.791 431.915 255.128 432.547 255.338C433.178 255.549 433.844 255.628 434.505 255.573L454.332 253.923L456.248 269.218Z" fill="#40327A"/>
<path d="M446.351 339.941C445.982 338.636 445.245 337.473 444.235 336.6C443.224 335.726 441.985 335.182 440.675 335.035C439.364 334.888 438.041 335.145 436.872 335.774C435.703 336.402 434.741 337.375 434.108 338.568C433.475 339.76 433.199 341.12 433.315 342.474C433.432 343.829 433.935 345.117 434.761 346.177C435.588 347.236 436.7 348.019 437.958 348.426C439.216 348.834 440.563 348.847 441.828 348.465C443.523 347.952 444.952 346.767 445.8 345.169C446.648 343.57 446.847 341.69 446.351 339.941Z" fill="#FF95A9"/>
<path d="M433.097 342.149C433.374 343.128 433.363 344.17 433.066 345.142C432.769 346.115 432.199 346.975 431.428 347.613C430.657 348.251 429.72 348.64 428.735 348.729C427.75 348.818 426.762 348.603 425.895 348.113C425.028 347.623 424.322 346.879 423.865 345.974C423.409 345.07 423.222 344.046 423.33 343.033C423.437 342.019 423.834 341.061 424.469 340.28C425.104 339.499 425.95 338.929 426.899 338.644C428.172 338.261 429.54 338.415 430.702 339.073C431.864 339.73 432.726 340.837 433.097 342.149Z" fill="#FF95A9"/>
<path d="M439.953 348.748L428.299 348.757L426.899 338.652L438.087 335.275L439.953 348.748Z" fill="#FF95A9"/>
<path d="M364.909 325.54L429.257 338.541L428.298 348.757H424.924H419.926L362.735 348.765L364.909 325.54Z" fill="#FFC359"/>
<path d="M428.307 348.757L429.257 338.541L424.925 337.664V348.757H428.307Z" fill="#FF95A9"/>
<path d="M398.158 326.4H388.719V336.135H398.158V326.4Z" fill="#FFC359"/>
<path d="M382.711 328.249L382.391 329.935L424.757 338.492L425.077 336.806L382.711 328.249Z" fill="white"/>
<path d="M408.28 390.776L407.799 392.421L437.094 401.538L437.575 399.892L408.28 390.776Z" fill="#7760DB"/>
<path d="M150.507 232.022C148.057 243.733 143.95 255.006 140.676 266.494C137.344 278.326 133.895 290.355 133.936 302.685C134.068 318.906 140.115 334.483 150.873 346.317C155.038 350.888 159.937 354.909 163.161 360.21C166.385 365.512 167.568 372.867 163.994 377.945C158.804 385.257 147.699 383.676 140.11 388.256C130.554 394.012 129.221 408.68 134.67 418.612C140.118 428.545 164.936 456.968 200.342 449.931C216.17 446.786 237.672 431.226 237.056 414.6C236.414 397.278 220.394 383.246 220.927 365.924C221.285 354.574 228.683 344.985 235.09 335.748C241.496 326.511 247.461 315.255 244.512 304.317C240.171 288.215 220.061 283.24 210.355 269.879C204.082 261.287 202.699 249.962 202.316 239.205C201.933 228.447 202.191 217.423 198.709 207.276C190.186 182.642 160.229 185.58 150.507 232.022Z" fill="#C4B8FF"/>
<path d="M188.553 293.921H186.887V480.589H188.553V293.921Z" fill="#40327A"/>
<path d="M188.545 347.855L186.879 347.571C189.578 330.687 208.198 320.187 208.989 319.749L209.822 321.261C209.606 321.365 191.103 331.804 188.545 347.855Z" fill="#40327A"/>
<path d="M186.896 421.362C185.08 409.96 171.9 402.51 171.75 402.459L172.542 400.946C173.116 401.264 186.587 408.86 188.545 421.113L186.896 421.362Z" fill="#40327A"/>
<path d="M157.588 474.144H217.57V491.973C217.561 497.608 215.385 503.008 211.519 506.989C207.653 510.969 202.414 513.205 196.951 513.205H178.207C172.738 513.205 167.494 510.964 163.627 506.976C159.76 502.988 157.588 497.579 157.588 491.939V474.144Z" fill="#FFC359"/>
<path d="M168.235 511.564C164.767 509.691 161.864 506.873 159.84 503.418C157.816 499.963 156.749 496.002 156.755 491.965V485.409H158.421V491.965C158.422 495.682 159.41 499.329 161.276 502.509C163.142 505.69 165.817 508.283 169.009 510.009L168.235 511.564Z" fill="#40327A"/>
<path d="M217.57 479.729H157.588V481.448H217.57V479.729Z" fill="white"/>
<path d="M819.065 513.231H58.9672V514.949H819.065V513.231Z" fill="#C4B8FF"/>
<path d="M611.702 526.128H434.138V527.846H611.702V526.128Z" fill="#C4B8FF"/>
<path d="M679.34 539.223H568.007V540.941H679.34V539.223Z" fill="#C4B8FF"/>
<path d="M521.262 539.223H374.356V540.941H521.262V539.223Z" fill="#C4B8FF"/>
<path d="M714.93 526.326H661.745V528.044H714.93V526.326Z" fill="#C4B8FF"/>
<path d="M406.205 526.128H298.529V527.846H406.205V526.128Z" fill="#C4B8FF"/>
<path d="M217.562 473.285H179.356V475.004H217.562V473.285Z" fill="#40327A"/>
<path d="M571.622 114.23C572.197 108.816 573.73 105.13 577.362 103.06C588.126 97.045 615.151 106.806 626.389 121.885C642.06 142.911 627.764 175.235 612.543 177.306C594.832 179.746 568.623 142.155 571.622 114.23Z" fill="#F8F7FF"/>
<path d="M452.308 258.391C452.363 259.012 452.298 259.638 452.119 260.233C451.939 260.828 451.647 261.38 451.261 261.859C450.874 262.338 450.399 262.733 449.864 263.023C449.329 263.312 448.744 263.49 448.143 263.547C447.541 263.603 446.934 263.537 446.357 263.351C445.781 263.166 445.245 262.865 444.781 262.466C444.317 262.068 443.933 261.578 443.652 261.026C443.371 260.475 443.199 259.871 443.144 259.251L452.308 258.391Z" fill="white"/>
<path d="M649.345 439.909C650.774 430.875 644.833 422.356 636.073 420.881C627.314 419.407 619.054 425.535 617.624 434.57C616.194 443.604 622.136 452.123 630.896 453.598C639.655 455.072 647.915 448.944 649.345 439.909Z" fill="white"/>
<path d="M633.529 454.709C630.186 454.709 626.918 453.686 624.138 451.77C621.358 449.855 619.192 447.132 617.912 443.946C616.633 440.761 616.298 437.255 616.95 433.874C617.602 430.492 619.212 427.385 621.576 424.947C623.94 422.509 626.952 420.849 630.231 420.176C633.51 419.503 636.909 419.848 639.997 421.168C643.086 422.488 645.726 424.722 647.583 427.589C649.441 430.456 650.432 433.827 650.432 437.275C650.426 441.896 648.643 446.327 645.474 449.595C642.305 452.863 638.01 454.702 633.529 454.709ZM633.529 421.559C630.515 421.559 627.569 422.481 625.064 424.208C622.558 425.935 620.605 428.389 619.452 431.261C618.298 434.132 617.997 437.292 618.584 440.341C619.172 443.389 620.624 446.189 622.755 448.387C624.885 450.585 627.601 452.082 630.556 452.688C633.512 453.295 636.576 452.983 639.36 451.794C642.144 450.604 644.524 448.59 646.198 446.006C647.872 443.421 648.766 440.383 648.766 437.275C648.762 433.108 647.155 429.114 644.298 426.167C641.442 423.221 637.569 421.564 633.529 421.559Z" fill="#40327A"/>
<path d="M617.44 453.995C623.331 451.453 626.109 444.467 623.645 438.391C621.181 432.314 614.407 429.449 608.515 431.991C602.624 434.532 599.846 441.519 602.31 447.595C604.774 453.672 611.548 456.537 617.44 453.995Z" fill="white"/>
<path d="M612.985 455.748C610.531 455.75 608.132 455.001 606.091 453.596C604.05 452.192 602.459 450.194 601.519 447.856C600.578 445.519 600.332 442.946 600.809 440.464C601.287 437.981 602.468 435.701 604.202 433.911C605.937 432.121 608.147 430.901 610.554 430.407C612.96 429.912 615.455 430.165 617.722 431.133C619.989 432.102 621.927 433.741 623.29 435.845C624.653 437.95 625.381 440.424 625.381 442.954C625.377 446.345 624.07 449.595 621.746 451.993C619.422 454.391 616.272 455.742 612.985 455.748ZM612.985 431.887C610.86 431.886 608.783 432.534 607.016 433.75C605.249 434.967 603.871 436.696 603.057 438.721C602.243 440.745 602.03 442.972 602.444 445.122C602.858 447.271 603.881 449.245 605.383 450.794C606.886 452.344 608.8 453.399 610.884 453.826C612.968 454.253 615.127 454.033 617.09 453.194C619.052 452.354 620.729 450.933 621.909 449.111C623.088 447.288 623.717 445.146 623.715 442.954C623.711 440.021 622.579 437.208 620.567 435.134C618.556 433.059 615.829 431.892 612.985 431.887Z" fill="#40327A"/>
<path d="M654.731 438.993L653.64 447.646L653.431 449.364L650.466 472.984L646.85 501.709L646.492 504.57L645.4 513.239H598.523L597.431 504.57L597.215 502.851L594.591 481.955L590.492 449.364L590.283 447.646L589.192 438.993H654.731Z" fill="#A796F2"/>
<path d="M643.109 289.908H625.615V348.765H643.109V289.908Z" fill="#FF809F"/>
<path d="M637.278 295.923H631.446V319.766H637.278V295.923Z" fill="white"/>
<path d="M637.694 334.262C637.694 334.941 637.499 335.606 637.133 336.171C636.766 336.736 636.246 337.177 635.637 337.437C635.028 337.697 634.358 337.765 633.712 337.632C633.065 337.5 632.472 337.173 632.006 336.692C631.54 336.211 631.222 335.599 631.094 334.932C630.965 334.265 631.031 333.574 631.283 332.946C631.535 332.318 631.963 331.782 632.511 331.404C633.059 331.026 633.703 330.825 634.362 330.825C635.246 330.825 636.093 331.187 636.718 331.831C637.343 332.476 637.694 333.35 637.694 334.262Z" fill="#40327A"/>
<path d="M625.615 289.908H608.12V348.765H625.615V289.908Z" fill="#A796F2"/>
<path d="M619.783 295.923H613.951V319.766H619.783V295.923Z" fill="white"/>
<path d="M620.199 334.262C620.199 334.941 620.004 335.606 619.638 336.171C619.272 336.736 618.751 337.177 618.142 337.437C617.533 337.697 616.863 337.765 616.217 337.632C615.571 337.5 614.977 337.173 614.511 336.692C614.045 336.211 613.727 335.599 613.599 334.932C613.47 334.265 613.536 333.574 613.788 332.946C614.041 332.318 614.468 331.782 615.016 331.404C615.564 331.026 616.208 330.825 616.867 330.825C617.751 330.825 618.599 331.187 619.223 331.831C619.848 332.476 620.199 333.35 620.199 334.262Z" fill="#40327A"/>
<path d="M608.12 289.908H590.625V348.765H608.12V289.908Z" fill="#FFC359"/>
<path d="M602.288 295.923H596.457V319.766H602.288V295.923Z" fill="white"/>
<path d="M602.705 334.262C602.705 334.941 602.509 335.606 602.143 336.171C601.777 336.736 601.257 337.177 600.648 337.437C600.039 337.697 599.369 337.765 598.722 337.632C598.076 337.5 597.482 337.173 597.016 336.692C596.55 336.211 596.233 335.599 596.104 334.932C595.975 334.265 596.042 333.574 596.294 332.946C596.546 332.318 596.973 331.782 597.521 331.404C598.069 331.026 598.713 330.825 599.372 330.825C600.256 330.825 601.104 331.187 601.729 331.831C602.354 332.476 602.705 333.35 602.705 334.262Z" fill="#40327A"/>
<path d="M316.607 239.454C308.733 239.454 301.035 237.046 294.488 232.534C287.941 228.022 282.838 221.609 279.824 214.105C276.811 206.602 276.023 198.346 277.559 190.38C279.095 182.415 282.887 175.098 288.455 169.356C294.023 163.613 301.117 159.702 308.84 158.118C316.563 156.533 324.568 157.346 331.843 160.454C339.118 163.562 345.336 168.825 349.71 175.578C354.085 182.331 356.42 190.27 356.42 198.391C356.407 209.278 352.208 219.714 344.744 227.412C337.281 235.11 327.162 239.44 316.607 239.454ZM316.607 159.047C309.062 159.047 301.687 161.355 295.414 165.678C289.14 170.001 284.251 176.146 281.364 183.335C278.477 190.524 277.721 198.435 279.193 206.067C280.665 213.699 284.298 220.71 289.633 226.212C294.968 231.714 301.765 235.461 309.165 236.98C316.565 238.498 324.235 237.719 331.205 234.741C338.176 231.763 344.133 226.72 348.325 220.25C352.517 213.78 354.754 206.173 354.754 198.391C354.741 187.961 350.717 177.961 343.566 170.586C336.415 163.21 326.72 159.061 316.607 159.047Z" fill="#40327A"/>
<path d="M316.607 232.769C335.011 232.769 349.93 217.382 349.93 198.4C349.93 179.418 335.011 164.031 316.607 164.031C298.203 164.031 283.284 179.418 283.284 198.4C283.284 217.382 298.203 232.769 316.607 232.769Z" fill="#7760DB"/>
<path d="M316.607 233.62C309.851 233.62 303.248 231.554 297.631 227.683C292.014 223.812 287.636 218.31 285.05 211.873C282.465 205.436 281.789 198.352 283.107 191.519C284.425 184.685 287.678 178.408 292.455 173.481C297.231 168.554 303.318 165.199 309.943 163.84C316.569 162.48 323.437 163.178 329.678 165.844C335.919 168.511 341.254 173.026 345.007 178.819C348.76 184.613 350.763 191.424 350.763 198.391C350.763 207.735 347.165 216.695 340.759 223.302C334.354 229.908 325.666 233.62 316.607 233.62ZM316.607 164.881C310.181 164.881 303.899 166.847 298.556 170.529C293.213 174.211 289.049 179.444 286.59 185.568C284.131 191.691 283.487 198.429 284.741 204.929C285.995 211.429 289.089 217.4 293.633 222.086C298.177 226.773 303.966 229.964 310.268 231.257C316.571 232.55 323.104 231.887 329.04 229.351C334.977 226.814 340.052 222.519 343.622 217.009C347.192 211.498 349.097 205.019 349.097 198.391C349.097 189.504 345.674 180.981 339.581 174.696C333.488 168.412 325.224 164.881 316.607 164.881Z" fill="white"/>
<path d="M317.44 164.031H315.774V171.257H317.44V164.031Z" fill="white"/>
<path d="M317.44 225.534H315.774V232.761H317.44V225.534Z" fill="white"/>
<path d="M299.945 168.628L303.444 174.891L299.945 168.628Z" fill="#333854"/>
<path d="M300.665 168.199L299.222 169.059L302.725 175.317L304.168 174.457L300.665 168.199Z" fill="white"/>
<path d="M329.761 221.9L333.269 228.155L329.761 221.9Z" fill="#333854"/>
<path d="M330.481 221.463L329.038 222.322L332.541 228.58L333.984 227.721L330.481 221.463Z" fill="white"/>
<path d="M287.749 181.207L293.814 184.824L287.749 181.207Z" fill="#333854"/>
<path d="M288.163 180.478L287.329 181.966L293.397 185.579L294.23 184.091L288.163 180.478Z" fill="white"/>
<path d="M339.392 211.967L345.465 215.576L339.392 211.967Z" fill="#333854"/>
<path d="M339.81 211.222L338.977 212.71L345.044 216.323L345.877 214.835L339.81 211.222Z" fill="white"/>
<path d="M290.29 197.541H283.284V199.259H290.29V197.541Z" fill="white"/>
<path d="M349.922 197.541H342.916V199.259H349.922V197.541Z" fill="white"/>
<path d="M287.749 215.576L293.814 211.967L287.749 215.576Z" fill="#333854"/>
<path d="M293.392 211.255L287.324 214.867L288.157 216.356L294.225 212.744L293.392 211.255Z" fill="white"/>
<path d="M339.392 184.824L345.465 181.207L339.392 184.824Z" fill="#333854"/>
<path d="M345.051 180.513L338.983 184.125L339.816 185.613L345.884 182.001L345.051 180.513Z" fill="white"/>
<path d="M299.945 228.155L303.444 221.9L299.945 228.155Z" fill="#333854"/>
<path d="M302.703 221.444L299.201 227.703L300.645 228.562L304.147 222.303L302.703 221.444Z" fill="white"/>
<path d="M329.761 174.891L333.269 168.628L329.761 174.891Z" fill="#333854"/>
<path d="M332.524 168.174L329.022 174.433L330.465 175.292L333.967 169.033L332.524 168.174Z" fill="white"/>
<path d="M332.436 199.259H315.774V177.46H317.44V197.541H332.436V199.259Z" fill="white"/>
<path d="M330.353 348.929H318.273L316.607 322.464H332.019L330.353 348.929Z" fill="#FF809F"/>
<path d="M331.152 305.305C331.152 307.391 330.349 309.39 328.92 310.865C327.49 312.339 325.551 313.167 323.53 313.167V306.672C322.205 306.711 320.887 306.476 319.652 305.981C318.417 305.486 317.291 304.74 316.341 303.788C315.39 302.835 314.635 301.696 314.119 300.438C313.603 299.179 313.337 297.826 313.337 296.46C313.337 295.093 313.603 293.74 314.119 292.482C314.635 291.223 315.39 290.084 316.341 289.132C317.291 288.18 318.417 287.434 319.652 286.938C320.887 286.443 322.205 286.208 323.53 286.248V297.418C324.533 297.419 325.525 297.624 326.451 298.021C327.377 298.418 328.218 299 328.926 299.732C329.634 300.465 330.195 301.334 330.577 302.29C330.959 303.247 331.155 304.271 331.152 305.305Z" fill="white"/>
<path d="M323.53 314.018H322.697V307.488C319.91 307.294 317.307 305.987 315.441 303.845C313.574 301.703 312.59 298.894 312.698 296.016C312.807 293.138 313.999 290.417 316.021 288.431C318.044 286.445 320.737 285.351 323.53 285.38H324.363V296.61C326.54 296.809 328.558 297.869 329.994 299.569C331.43 301.269 332.171 303.476 332.064 305.727C331.956 307.979 331.007 310.1 329.416 311.646C327.825 313.191 325.715 314.042 323.53 314.018ZM322.697 287.141C320.363 287.348 318.198 288.477 316.654 290.294C315.111 292.11 314.309 294.473 314.417 296.886C314.524 299.298 315.533 301.575 317.232 303.237C318.931 304.9 321.188 305.819 323.53 305.804H324.363V312.248C326.07 312.016 327.627 311.126 328.722 309.756C329.817 308.385 330.367 306.638 330.261 304.866C330.155 303.094 329.402 301.429 328.152 300.208C326.903 298.987 325.251 298.3 323.53 298.286H322.697V287.141Z" fill="#40327A"/>
<path d="M650.465 472.984L646.85 501.709L646.492 504.57L645.4 513.239H598.523L597.431 504.57L597.215 502.851L594.59 481.955L650.465 472.984Z" fill="#C4B8FF"/>
<path d="M604.596 503.642L602.938 503.796L602.855 502.851L598.073 449.364L598.014 448.591L599.681 448.436L599.764 449.364L604.529 502.851L604.596 503.642Z" fill="white"/>
<path d="M608.92 448.479L607.256 448.573L610.202 503.781L611.866 503.687L608.92 448.479Z" fill="white"/>
<path d="M619.127 447.336L617.461 447.37L618.532 502.584L620.198 502.55L619.127 447.336Z" fill="white"/>
<path d="M625.74 448.478L624.749 503.682L626.415 503.714L627.406 448.51L625.74 448.478Z" fill="white"/>
<path d="M634.988 448.422L632.005 503.628L633.669 503.723L636.652 448.517L634.988 448.422Z" fill="white"/>
<path d="M645.95 448.591L645.892 449.364L641.068 502.851L640.985 503.796L639.335 503.642L639.394 502.851L644.209 449.364L644.292 448.436L645.95 448.591Z" fill="white"/>
<path d="M590.292 447.646L590.5 449.364H653.439L653.648 447.646H590.292ZM646.708 502.851H597.223L597.44 504.57H646.5L646.858 501.7V501.657L646.708 502.851Z" fill="white"/>
<path d="M474.324 289.878L471.673 348.732L473.338 348.812L475.989 289.958L474.324 289.878Z" fill="white"/>
<path d="M378.988 356.498H267.405V358.217H378.988V356.498Z" fill="#40327A"/>
<path d="M617.842 356.498H433.014V358.217H617.842V356.498Z" fill="#40327A"/>
<path d="M691.02 356.498H643.109V358.217H691.02V356.498Z" fill="#40327A"/>
<path d="M634.679 356.498H626.989V358.217H634.679V356.498Z" fill="#40327A"/>
<path d="M613.535 438.134H589.192V439.852H613.535V438.134Z" fill="#40327A"/>
<path d="M664.528 513.231H617.45V514.949H664.528V513.231Z" fill="#40327A"/>
<path d="M387.511 513.231H284.866V514.949H387.511V513.231Z" fill="#40327A"/>
<path d="M226.742 513.231H188.32V514.949H226.742V513.231Z" fill="#40327A"/>
<path d="M606.212 513.231H592.941V514.949H606.212V513.231Z" fill="#40327A"/>
<path d="M475.726 175.184C474.631 175.183 473.538 175.08 472.46 174.874C470.871 174.571 469.434 173.702 468.401 172.42C467.367 171.137 466.802 169.522 466.804 167.854V166.669H468.47V167.829C468.469 169.094 468.897 170.319 469.681 171.292C470.465 172.265 471.554 172.925 472.76 173.156C474.72 173.534 476.732 173.534 478.692 173.156C479.841 172.933 480.886 172.321 481.66 171.417C482.434 170.513 482.894 169.368 482.967 168.164C483.039 166.96 482.721 165.766 482.061 164.77C481.401 163.774 480.439 163.033 479.325 162.665L471.611 160.173C470.134 159.697 468.855 158.724 467.978 157.41C467.1 156.096 466.676 154.516 466.772 152.923C466.868 151.331 467.479 149.818 468.507 148.625C469.535 147.433 470.921 146.631 472.444 146.348C474.602 145.935 476.816 145.935 478.975 146.348C480.564 146.651 481.999 147.518 483.032 148.799C484.066 150.079 484.631 151.693 484.632 153.359V154.553H482.966V153.359C482.967 152.094 482.538 150.868 481.754 149.895C480.971 148.922 479.881 148.263 478.675 148.032C476.714 147.662 474.705 147.662 472.744 148.032C471.594 148.255 470.55 148.867 469.776 149.771C469.001 150.675 468.541 151.819 468.469 153.023C468.396 154.227 468.715 155.422 469.374 156.418C470.034 157.414 470.997 158.155 472.11 158.523L479.808 161.049C481.281 161.528 482.556 162.501 483.429 163.814C484.303 165.127 484.726 166.704 484.63 168.293C484.534 169.883 483.926 171.393 482.901 172.585C481.876 173.776 480.494 174.579 478.975 174.866C477.904 175.073 476.816 175.179 475.726 175.184Z" fill="#C4B8FF"/>
<path d="M476.559 141.682H474.893V146.906H476.559V141.682Z" fill="#C4B8FF"/>
<path d="M476.559 174.281H474.893V179.505H476.559V174.281Z" fill="#C4B8FF"/>
<path d="M475.726 189.249C470.229 189.249 464.856 187.568 460.286 184.418C455.715 181.269 452.153 176.792 450.05 171.554C447.946 166.317 447.396 160.553 448.468 154.993C449.541 149.433 452.188 144.325 456.074 140.317C459.961 136.308 464.913 133.578 470.304 132.472C475.695 131.366 481.283 131.934 486.361 134.103C491.44 136.273 495.78 139.947 498.834 144.66C501.888 149.374 503.518 154.916 503.518 160.585C503.509 168.185 500.578 175.47 495.368 180.844C490.158 186.217 483.094 189.24 475.726 189.249ZM475.726 133.64C470.559 133.64 465.508 135.22 461.211 138.181C456.915 141.142 453.567 145.35 451.589 150.274C449.612 155.197 449.094 160.615 450.102 165.842C451.111 171.069 453.599 175.87 457.253 179.639C460.906 183.407 465.561 185.973 470.629 187.013C475.697 188.053 480.95 187.519 485.724 185.48C490.498 183.44 494.578 179.986 497.449 175.555C500.319 171.124 501.852 165.914 501.852 160.585C501.843 153.442 499.087 146.593 494.19 141.542C489.292 136.491 482.652 133.649 475.726 133.64Z" fill="#C4B8FF"/>
<path d="M664.328 278.669V276.951C667.002 276.951 669.751 276.822 672.509 276.59L672.642 278.308C669.885 278.523 667.044 278.669 664.328 278.669ZM655.997 278.334C653.206 278.094 650.432 277.724 647.733 277.243L648.024 275.525C650.665 275.997 653.398 276.384 656.13 276.59L655.997 278.334ZM680.873 277.312L680.623 275.593C683.272 275.181 685.988 274.665 688.696 274.055L689.046 275.731C686.33 276.349 683.572 276.874 680.89 277.295L680.873 277.312ZM639.61 275.353C636.928 274.579 634.27 273.634 631.696 272.638L632.304 271.031C634.803 272.045 637.428 272.938 640.052 273.694L639.61 275.353ZM697.093 273.677L696.643 272.019C699.226 271.28 701.867 270.438 704.491 269.518L705.024 271.142C702.375 272.053 699.734 272.904 697.126 273.66L697.093 273.677ZM624.09 269.149C621.591 267.929 619.091 266.769 616.592 265.712L617.242 264.131C619.741 265.214 622.299 266.391 624.815 267.62L624.09 269.149ZM712.813 268.195L712.205 266.597C714.705 265.583 717.262 264.475 719.778 263.306L720.461 264.87C717.954 266.03 715.388 267.147 712.847 268.178L712.813 268.195ZM608.936 262.602C606.345 261.631 603.729 260.729 601.147 259.921L601.63 258.271C604.238 259.13 606.887 259.99 609.503 260.986L608.936 262.602ZM727.951 261.193L727.201 259.663C729.658 258.383 732.099 257.042 734.465 255.676L735.298 257.171C732.932 258.538 730.466 259.887 727.984 261.175L727.951 261.193ZM593.241 257.653C590.567 256.982 587.867 256.381 585.218 255.883L585.518 254.164C588.201 254.662 590.925 255.264 593.641 255.951L593.241 257.653ZM536.474 257.3L536.033 255.642C538.641 254.903 541.373 254.259 544.156 253.743L544.455 255.461C541.748 255.943 539.09 256.57 536.499 257.3H536.474ZM577.129 254.611C574.396 254.276 571.647 254.035 568.956 253.898L569.048 252.179C571.772 252.325 574.555 252.566 577.329 252.901L577.129 254.611ZM552.586 254.259L552.428 252.54C555.152 252.274 557.943 252.102 560.759 252.042V253.76C558.018 253.846 555.269 254.009 552.586 254.276V254.259Z" fill="#DDD6FF"/>
<path d="M525.045 261.717L524.212 260.213C525.471 259.53 526.767 258.922 528.094 258.391L528.719 259.981C527.463 260.487 526.236 261.066 525.045 261.717Z" fill="#DDD6FF"/>
<path d="M582.411 230.887H537.541V198.761H582.411V230.887ZM539.24 229.169H580.745V200.479H539.207L539.24 229.169Z" fill="#C4B8FF"/>
<path d="M560.509 219.786L537.841 200.299L538.907 198.976L560.484 217.526L580.995 198.993L582.094 200.282L560.509 219.786Z" fill="#C4B8FF"/>
<path d="M587.109 199.62C587.111 200.756 586.786 201.866 586.176 202.811C585.565 203.756 584.697 204.493 583.68 204.929C582.663 205.365 581.544 205.48 580.464 205.259C579.384 205.039 578.391 204.493 577.612 203.69C576.833 202.888 576.302 201.865 576.087 200.752C575.872 199.638 575.981 198.483 576.402 197.434C576.823 196.385 577.537 195.488 578.452 194.857C579.367 194.226 580.443 193.889 581.544 193.889C583.019 193.889 584.433 194.493 585.477 195.567C586.52 196.642 587.107 198.099 587.109 199.62Z" fill="white"/>
<path d="M581.578 206.228C580.312 206.228 579.075 205.84 578.023 205.115C576.971 204.39 576.151 203.36 575.667 202.154C575.182 200.948 575.056 199.621 575.303 198.341C575.55 197.061 576.159 195.885 577.054 194.963C577.948 194.04 579.088 193.411 580.33 193.157C581.571 192.902 582.857 193.033 584.026 193.532C585.195 194.032 586.195 194.877 586.898 195.962C587.601 197.048 587.976 198.323 587.976 199.629C587.976 201.379 587.302 203.057 586.102 204.295C584.902 205.532 583.275 206.228 581.578 206.228ZM581.578 194.757C580.642 194.757 579.726 195.043 578.948 195.58C578.17 196.117 577.563 196.879 577.205 197.772C576.847 198.664 576.754 199.646 576.937 200.593C577.121 201.539 577.572 202.409 578.235 203.091C578.897 203.773 579.741 204.238 580.66 204.425C581.578 204.612 582.53 204.514 583.394 204.144C584.259 203.773 584.997 203.146 585.516 202.342C586.035 201.539 586.311 200.594 586.31 199.629C586.31 198.988 586.187 198.354 585.949 197.762C585.711 197.171 585.363 196.633 584.923 196.181C584.484 195.728 583.962 195.369 583.388 195.125C582.814 194.881 582.199 194.756 581.578 194.757Z" fill="#C4B8FF"/>
<path d="M715.362 308.4L714.529 309.888L718.576 312.298L719.409 310.81L715.362 308.4Z" fill="#C4B8FF"/>
<path d="M717.437 316.725H712.764V318.443H717.437V316.725Z" fill="#C4B8FF"/>
<path d="M718.595 322.917L714.547 325.326L715.38 326.814L719.428 324.405L718.595 322.917Z" fill="#C4B8FF"/>
<path d="M390.91 87.8684H389.244V92.6887H390.91V87.8684Z" fill="#C4B8FF"/>
<path d="M390.91 116.79H389.244V121.61H390.91V116.79Z" fill="#C4B8FF"/>
<path d="M382.618 89.6878L381.175 90.5471L383.512 94.7216L384.955 93.8623L382.618 89.6878Z" fill="#C4B8FF"/>
<path d="M396.639 114.734L395.196 115.593L397.533 119.768L398.976 118.909L396.639 114.734Z" fill="#C4B8FF"/>
<path d="M376.743 93.9327L375.91 95.4278L379.976 97.8379L380.809 96.3429L376.743 93.9327Z" fill="#C4B8FF"/>
<path d="M400.6 110.001L399.767 111.489L403.815 113.899L404.648 112.411L400.6 110.001Z" fill="#C4B8FF"/>
<path d="M378.397 103.885H373.723V105.603H378.397V103.885Z" fill="#C4B8FF"/>
<path d="M406.438 103.885H401.765V105.603H406.438V103.885Z" fill="#C4B8FF"/>
<path d="M379.548 110.062L375.5 112.472L376.333 113.96L380.381 111.551L379.548 110.062Z" fill="#C4B8FF"/>
<path d="M403.836 95.6039L399.789 98.0133L400.621 99.5017L404.669 97.0923L403.836 95.6039Z" fill="#C4B8FF"/>
<path d="M383.536 114.775L381.2 118.949L382.643 119.808L384.979 115.634L383.536 114.775Z" fill="#C4B8FF"/>
<path d="M397.511 89.6748L395.175 93.8497L396.618 94.7087L398.954 90.5338L397.511 89.6748Z" fill="#C4B8FF"/>
</g>
<defs>
<clipPath id="clip0">
<rect width="762.639" height="464.225" fill="white" transform="translate(56.4263 76.7156)"/>
</clipPath>
</defs>
</svg>
