<svg width="746" height="967" fill="none" xmlns="http://www.w3.org/2000/svg"><path d="M417.193 176.168c36.962 28.105 384.023 489.157 89.61 451.705-294.414-37.451-475.91 197.368-531.038 47.471C-79.362 525.447 86.62 505.533 27.341 287.478c-59.277-218.055 352.89-139.415 389.852-111.31z" fill="#FFC359"/><g clip-path="url(#clip0)"><path d="M88.148 520.423c-26.23-29.413-15.547-69.214 5.442-92.602 60.972-67.943 85.283-79.437 53.442-129.971-15.342-24.344-20.773-87.497 52.1-77.818 29.702 3.948 27.485 8.965 84.476 16.721 98.188 13.365 219.654-84.433 310.132-35.858 56.528 30.327 17.636 83.786 17.636 136.849 0 43.388 113.818 56.45 105.136 140.565-3.338 32.327-28.884 42.628-28.884 42.628l-599.48-.514z" fill="#F8F7FF"/><path d="M206.595 253.562h-3.801v267.323h3.801V253.562z" fill="#E9E6FF"/><path d="M463.346 528.138H273.193v1.028h190.153v-1.028zm-209.681 0H242.34v1.028h11.325v-1.028zm167.528 7.834h-12.401V537h12.401v-1.028zm287.064 0h-4.053V537h4.053v-1.028zm-25.896 0H489.699V537h192.662v-1.028zm-279.792 0H208.734V537h193.835v-1.028zm-200.521 0h-7.37V537h7.37v-1.028zm535.957-7.71h-37.977v1.028h37.977v-1.028zm-502.747-.124h-80.511v1.028h80.511v-1.028zm-88.226 0H79.04v1.028h67.992v-1.028zm578.953-7.71h-5.23v1.028h5.23v-1.028zm-11.031 0H292.753v1.028h422.201v-1.028zm-422.201 0H66.973v1.028h225.78v-1.028z" fill="#C4B8FF"/><path d="M258.952 520.428h-63.369v1.028h63.369v-1.028zm-70.26 0h-70.369v1.028h70.369v-1.028zm-76.685 0h-5.148v1.028h5.148v-1.028zm560.942 0h-5.657v1.028h5.657v-1.028zm-12.214 0h-18.413v1.028h18.413v-1.028zm-243.878 0h-9.988v1.028h9.988v-1.028zm179.778 0h-155.4v1.028h155.4v-1.028zm-244.366 0h-47.358v1.028h47.358v-1.028z" fill="#40327A"/><path d="M58.056 520.428H53v1.028h5.056v-1.028z" fill="#C4B8FF"/><path d="M275.441 520.428h-10.554v1.028h10.554v-1.028zm123.132 0h-5.637v1.028h5.637v-1.028z" fill="#40327A"/><path d="M647.475 475.086c0-12.239-36.094-43.389-36.094-67.564 0-13.364 10.286-23.897 27.773-17.631 0 0-24.173-75.047 22.115-87.224 19.668-5.182 43.496 15.364 19.375 42.551-16.5 18.597-19.73 37.606-9.685 32.779 23.73-11.411 27.372 16.916 1.455 53.073-7.529 10.501-24.939 34.44-24.939 44.016z" fill="#E9E6FF"/><path d="M625.36 494.254l1.857 9.478 3.286 16.696h33.945l4.217-21.461.926-4.713H625.36z" fill="#DDD6FF"/><path d="M625.36 494.254l1.857 9.478 41.448-4.765.926-4.713H625.36z" fill="#CCC2FF"/><path d="M647.99 490.666h-1.029v-44.993c0-70.678 9.345-107.693 9.438-108.058l.998.257c-.098.365-9.407 37.267-9.407 107.801v44.993z" fill="#7760DB"/><path d="M647.99 438.323h-1.029c0-18.783 7.386-33.237 22.579-44.206l.601.832c-14.904 10.764-22.151 24.946-22.151 43.374zm7.241 55.417h-32.916v1.028h32.916v-1.028zm6.193 0h-2.916v1.028h2.916v-1.028zm11.207 0h-8.373v1.028h8.373v-1.028z" fill="#7760DB"/><path d="M383.056 169.282c62.448 23.131-70.718 59.344-84.178 45.522-13.459-13.822-2.427-30.497 29.111-41.122 26.708-9 47.461-7.211 55.067-4.4z" fill="#F8F7FF"/><path d="M460.533 258.496l-80.763-13.873v275.748h79.076l1.687-261.875z" fill="#E9E6FF"/><path d="M133.017 430.628v-.005h-12.343v.031h-1.029v-.031h-17.492v33.925h21.036l2.376-33.92h7.452z" fill="#FF809F"/><path d="M130.07 425.508h2.947v5.14h.514l.432-6.168h-3.6a3.612 3.612 0 01-.293 1.028zm-9.397 5.14v-5.14h2.839a3.635 3.635 0 01-.288-1.028h-3.6v6.168h1.049z" fill="#40327A"/><path d="M133.511 430.628h-7.946l-2.377 33.92v.005h7.941l2.382-33.925z" fill="#E5659B"/><path d="M126.727 427.626a3.598 3.598 0 003.636-3.146c.008-.13.008-.26 0-.391l.108-6.168.083-4.785-5.745.277.468 4.154-1.872 5.248a3.495 3.495 0 00-.186 1.681 3.6 3.6 0 003.503 3.145l.005-.015z" fill="#FF95A9"/><path d="M130.579 413.136l.484-28.261h-9.438l3.209 28.538 5.745-.277z" fill="#FFD4CC"/><path d="M130.604 381.004l-.439 24.89 1.028.018.439-24.89-1.028-.018zm-.171 28.523l-.023 1.157 1.028.02.023-1.156-1.028-.021z" fill="#FF95A9"/><path d="M413.812 236.753h-7.113v283.67h7.113v-283.67z" fill="#fff"/><path d="M590.428 250.277H460.821v270.151h129.607V250.277zm-249.078 0H206.6v270.151h134.75V250.277z" fill="#CCC2FF"/><path d="M333.121 258.502H214.829v261.926h118.292V258.502z" fill="#FFD4CC"/><path d="M323.349 510.656h-98.748V268.263h98.748v242.393zm-97.719-1.028h96.691V269.291H225.63v240.337zm356.569-251.126H469.05v261.926h113.149V258.502z" fill="#fff"/><path d="M590.942 274.092h-1.029v-23.306h-95.137v-1.028h96.166v24.334z" fill="#8B77E8"/><path d="M469.132 520.428h-55.32V236.753l55.32 21.743v261.932z" fill="#FFD4CC"/><path d="M459.365 510.656h-35.781V251.074l35.781 14.064v245.518zm-34.752-1.028h33.723V265.852l-33.723-13.257v257.033z" fill="#fff"/><path d="M407.213 374.275h-1.028V236.244h7.725l.087.031 55.325 21.743-.375.962-55.233-21.708h-6.501v137.003z" fill="#8B77E8"/><path d="M146.389 450.274h-2.597l-2.073 14.279h4.67v-14.279z" fill="#E5659B"/><path d="M151.532 450.274h-5.143v14.274h5.143v-14.274z" fill="#40327A"/><path d="M143.797 450.274h-11.665l2.68-37.108v-.796l-.849 12.115-.432 6.169-2.376 33.925-3.6 51.012v.236h6.722l7.447-51.268 2.073-14.285z" fill="#FF95A9"/><path d="M134.236 515.797h-6.686v4.626h9.371a1.44 1.44 0 001.378-1.064 1.435 1.435 0 00-.663-1.609l-3.364-1.933-.036-.02z" fill="#40327A"/><path d="M150.241 332.043v16.187l7.201-.381c0-.154 0-.313-.031-.473l-.864-7.114.684-.082a8.325 8.325 0 007.308-7.71l-9.304-8.538a9.11 9.11 0 00-4.994 8.111z" fill="#FF95A9"/><path d="M155.559 515.797v4.626h9.371a1.437 1.437 0 001.378-1.064 1.428 1.428 0 00-.663-1.609l-3.399-1.953h-6.687z" fill="#40327A"/><path d="M167.137 450.608c0-.113.025-.221.036-.334l-.036.334z" fill="#F04F4F"/><path d="M155.559 450.274v65.528h6.687l4.891-65.194.025-.334h-11.603z" fill="#FF95A9"/><path d="M142.964 392.426l-.144.113-1.147.889a17.815 17.815 0 00-5.069 6.23 17.815 17.815 0 00-1.813 7.823v5.675l-2.679 37.108h35.045l2.762-37.108c0-.18.026-.36.026-.54v-7.042a29.656 29.656 0 00-3.086-13.159h-23.916l.021.011z" fill="#7760DB"/><path d="M131.068 384.874h19.173v-52.831a9.103 9.103 0 015.005-8.132l-.823-.755-2.819-2.571-5.21-.149a3.587 3.587 0 01-3.408-2.737 3.585 3.585 0 01.585-2.977 3.613 3.613 0 012.654-1.472 3.596 3.596 0 011.537.227l5.776 2.164c.205.078.399.184.576.313l3.914 2.755 5.256 3.701 4.166-.514-.113-.956a18.123 18.123 0 00-5.628-11.058 18.146 18.146 0 00-30.055 9.182l-15.121 65.81h14.535z" fill="#40327A"/><path d="M154.114 315.934a2.477 2.477 0 00-.576-.314l-.262 1.347.838-1.033z" fill="#FF809F"/><path d="M183.05 336.294l-19.76-13.915-5.257-3.701-3.6 4.472.823.756 9.304 8.538 7.581 6.96-14.319 8.425h-.36l-7.2.38v36.645h-9.772l2.361 7.664.144-.113h23.915v-.632l-.108-17.852a6.688 6.688 0 005.558-6.301 6.68 6.68 0 00-.548-2.952l-3.667-8.337 15.203-12.28c.349-.284.658-.612.92-.977a4.85 4.85 0 00.105-5.413 4.88 4.88 0 00-1.323-1.367z" fill="#FFD4CC"/><path d="M175.039 330.039l-.592.84 1.03.725.592-.84-1.03-.725zm-3.5 24.169l-.648-.787 12.097-9.766a4.342 4.342 0 00-.206-6.924l-.432-.303-4.058-2.863.592-.838 4.927 3.469a5.375 5.375 0 01.879 7.156c-.19.272-.407.525-.648.755l-.38.319-12.123 9.782z" fill="#FF95A9"/><path d="M170.891 353.417l-5.384 4.349.646.8 5.384-4.35-.646-.799z" fill="#FF95A9"/><path d="M168.564 356.116l-.942.413.993 2.259.942-.413-.993-2.259zm-2.23 33.585l-.097-16.197.432-.072a6.168 6.168 0 005.143-6.404 6.234 6.234 0 00-.515-2.154l-.195-.447-1.934-4.4.962-.437 2.33 5.294a7.203 7.203 0 01-.452 5.875 7.202 7.202 0 01-4.691 3.568l.092 15.338-1.075.036zm-12.22-73.767l-.838 1.028.262-1.347-5.776-2.164a3.597 3.597 0 10-1.368 6.96l5.21.149 2.819 2.57 3.6-4.472-3.914-2.755.005.031z" fill="#FF95A9"/><path d="M582.194 497.821h-90.448v22.602h90.448v-22.602zm0-22.602h-67.839v22.602h67.839v-22.602zm.005-22.596h-45.224v22.596h45.224v-22.596zm0-22.602h-22.615v22.602h22.615v-22.602z" fill="#F2F0FF"/><path d="M407.214 383.065h-1.029v8.394h1.029v-8.394zm175.499 129.113h-1.029V259.01H469.05v-1.028h113.663v254.196z" fill="#8B77E8"/><path d="M254.889 362.828l-2.572-2.57 2.572 2.57z" fill="#fff"/><path d="M252.678 359.867l-.727.727 2.571 2.57.728-.727-2.572-2.57z" fill="#FAB4A8"/><path d="M311.186 342.308v2.411l-21.797 21.784h-30.828l-1.64-1.64 54.265-22.555z" fill="#fff"/><path d="M289.6 367.017h-31.255l-1.784-1.789.725-.724 1.486 1.485h30.401l21.499-21.486v-2.195h1.028v2.622l-22.1 22.087zm22.1-39.533h-1.028v11.504h1.028v-11.504zm0-3.424h-1.028v1.45h1.028v-1.45z" fill="#FAB4A8"/><path d="M258.772 365.989l-21.498-21.486v-30.384l21.498-21.486h30.401l21.499 21.486v30.384l-21.499 21.486h-30.401z" fill="#fff"/><path d="M288.325 294.689h-28.699l-20.295 20.283v28.678l20.295 20.283h28.699l20.289-20.283v-28.678l-20.289-20.283z" fill="#FF809F"/><path d="M253.768 333.786a2.359 2.359 0 00-.592-1.743 6.776 6.776 0 00-2.139-1.218c-1.893-.72-3.252-1.559-4.079-2.519a5.057 5.057 0 01-1.244-3.408 4.765 4.765 0 011.687-3.824 6.388 6.388 0 014.294-1.445 6.505 6.505 0 013.086.73 5.087 5.087 0 012.088 2.056c.499.931.75 1.973.731 3.028h-3.791a3.132 3.132 0 00-.566-2.015 1.985 1.985 0 00-1.625-.689 2.059 2.059 0 00-1.543.586 2.226 2.226 0 00-.555 1.589 1.943 1.943 0 00.622 1.403 7.11 7.11 0 002.201 1.3c1.838.665 3.174 1.481 4.007 2.447a5.44 5.44 0 011.25 3.686 4.856 4.856 0 01-.355 2.097 4.855 4.855 0 01-1.214 1.747c-1.029.919-2.448 1.38-4.259 1.383a7.361 7.361 0 01-3.327-.75 5.626 5.626 0 01-2.351-2.149 6.222 6.222 0 01-.848-3.3h3.821a3.6 3.6 0 00.633 2.37 2.572 2.572 0 002.057.735c1.342.01 2.011-.689 2.011-2.097zm18.561-10.728h-4.659v15.673h-3.816v-15.673h-4.583v-3.172h13.058v3.172zm15.101 7.947c0 2.525-.599 4.487-1.795 5.885-1.197 1.398-2.856 2.098-4.979 2.098a6.288 6.288 0 01-4.984-2.057c-1.21-1.37-1.822-3.31-1.836-5.818v-3.239c0-2.59.599-4.612 1.795-6.065a6.81 6.81 0 019.957-.036c1.211 1.422 1.824 3.425 1.842 6.009v3.223zm-3.822-3.156c0-1.714-.241-2.978-.725-3.794a2.673 2.673 0 00-3.513-.932c-.395.209-.73.514-.977.886-.483.797-.735 2.015-.751 3.644v3.352c0 1.645.242 2.858.736 3.639a2.504 2.504 0 002.278 1.172 2.455 2.455 0 002.217-1.141c.483-.766.725-1.948.735-3.557v-3.269zm10.359 4.256v6.626h-3.806v-18.845h6.418a5.917 5.917 0 014.465 1.738 6.246 6.246 0 011.661 4.503 5.822 5.822 0 01-1.646 4.374c-1.097 1.069-2.616 1.604-4.557 1.604h-2.535zm0-3.172h2.612a2.085 2.085 0 001.687-.709c.43-.596.639-1.323.592-2.056a3.74 3.74 0 00-.607-2.247 1.962 1.962 0 00-1.631-.848h-2.653v5.86z" fill="#fff"/><path d="M484.757 249.763h-6.229v1.028h6.229v-1.028zM341.865 502.997h-1.029v9.181h1.029v-9.181zm-134.751-64.674h-1.028V249.758h135.779v19.019h-1.029v-17.991H207.114v187.537zm134.751 47.084h-1.029v3.64h1.029v-3.64zm-8.229-183.383h-1.029v148.25h1.029v-148.25zm0-6.173h-1.029v2.698h1.029v-2.698z" fill="#8B77E8"/><path d="M215.343 486.523h-1.028V257.982h119.321v27.331h-1.029V259.01H215.343v227.513zm-8.229-37.493h-1.028v58.558h1.028V449.03zm383.828-168.939h-1.029v9.596h1.029v-9.596zm-53.458 186.015h-1.028v-13.997h39.936v1.028h-38.908v12.969zm22.615-28.986h-1.029v-7.613h23.129v1.028h-22.1v6.585zm0 1.974h-1.029v1.197h1.029v-1.197zm-22.61 28.996h-1.028v1.115h1.028v-1.115zm-22.619 23.563h-1.029v-16.948h39.931v1.028H514.87v15.92zm37.93 5.654h-4.855v1.028h4.855v-1.028zm21.021-22.602h-17.137v1.028h17.137v-1.028zm3.728 0h-.966v1.028h.966v-1.028zm-85.288 33.011h-1.029v-10.409h51.292v1.028h-50.263v9.381zm.02 3.896h-1.029v1.116h1.029v-1.116zm-85.067-47.064h-1.029v29.125h1.029v-29.125z" fill="#8B77E8"/><path d="M484.278 313.235a6.41 6.41 0 01-1.743.108l1.286 6.43 3.086-.617.889 3.542-2.458-9.766a6.081 6.081 0 01-1.06.303zm-20.907 24.18h12.858l-.087 2.57.185-5.418.262-7.71-9.967 1.994c-1 .203-2.039.068-2.952-.386l-.381 11.499.082-2.549z" fill="#FF95A9"/><path d="M466.632 328.841l9.968-1.995-.263 7.711 3.601-.72 6.326-1.27a3.716 3.716 0 002.408-1.657 3.697 3.697 0 00.461-2.887l-1.337-5.315-.89-3.541-3.085.617-1.286-6.457a6.41 6.41 0 001.743-.107 6.157 6.157 0 001.065-.319 6.25 6.25 0 00.411-11.463 5.565 5.565 0 00-4.906-4.076 3.643 3.643 0 00-1.271.031l-.282.056-4.871.977-.458.092a3.705 3.705 0 00-2.304 1.507 3.719 3.719 0 00-5.495.774 3.714 3.714 0 00-.62 1.965 9.258 9.258 0 00-5.488 4.071 9.247 9.247 0 00-1.198 6.724l1.615 8.029.725 3.598a4.636 4.636 0 001.975 2.951 4.625 4.625 0 003.487.683l-.031.021zm10.621-9.767a1.952 1.952 0 01-.003-.769 1.97 1.97 0 011.546-1.554l1.265-.257.777 3.876-1.266.251a1.986 1.986 0 01-1.481-.292 1.984 1.984 0 01-.838-1.255z" fill="#40327A"/><path d="M420.071 425.647v.031h-1.028v-.031h-12.344v.031h-1.028v-.031h-17.492v33.926h32.052l5.704-33.926h-5.864z" fill="#FF809F"/><path d="M432.415 446.979L436 425.647h-3.585v21.332zm-15.1-27.475c-.03.352-.106.697-.227 1.028h1.97v5.141h1.029v-6.169h-2.772zm-10.6 6.169v-5.141h2.653a4.057 4.057 0 01-.221-1.028h-3.461v6.169h1.029z" fill="#40327A"/><path d="M432.415 446.979v-21.332h-6.48l-5.704 33.926h9.134l1.312-2.272 1.738-10.322z" fill="#E5659B"/><path d="M479.578 320.621l1.265-.251-.777-3.876-1.265.257c-.511.105-.96.408-1.249.843a1.973 1.973 0 002.026 3.027z" fill="#FF95A9"/><path d="M463.372 337.929l-.088 2.554v.016h12.863v-.016l.087-2.554h-12.862z" fill="#fff"/><path d="M514.253 420.44a3.969 3.969 0 00-.87-.781l-5.343-3.599.36.653-1.029-1.825-5.822 3.187 1.744 2.092 4.628 5.526a4.115 4.115 0 007.203-2.281 4.106 4.106 0 00-.882-2.982l.011.01z" fill="#FF95A9"/><path d="M489.951 383.045l2.289-31.531c.049-.664.033-1.332-.046-1.994a10.29 10.29 0 00-10.209-9.032H454.14a10.245 10.245 0 00-7.833 3.599l-21.874 25.634a6.868 6.868 0 00-1.394 2.57l-9.906 33.869 6.949 2.056 15.228-29.381 8.559-6.785-4.423 33.17-3.415 20.427-3.601 21.327-1.733 10.321-1.353 2.278-28.508 49.284-.062.113 6.969 4.246.458.298 33.163-50.888c.399-.616.68-1.301.828-2.02l9.15-43.692a18.741 18.741 0 0016.972-2.108l32.093 27.136-8.64 50.045a4.37 4.37 0 00-.067.74h8.687l.103.057 12.173-51.871a5.87 5.87 0 00-1.759-5.726l-33.944-31.273 2.849-11.941 19.76 23.707 6.352-3.48-15.97-29.155z" fill="#7760DB"/><path d="M413.617 406.325l-.988-.288 10.06-34.409h.026c.108-.283.231-.559.37-.827.192-.361.414-.705.664-1.028l.293-.355 22.275-26.097c.348-.37.723-.713 1.121-1.028a10.646 10.646 0 016.203-2.324h28.842a10.802 10.802 0 0110.204 9.474c.063.487.088.979.078 1.47l-.047.622-2.273 31.355 8.584 15.673-.9.514-8.743-15.935v-.154l2.283-31.525c.046-.632.032-1.267-.041-1.897a9.764 9.764 0 00-3.218-6.126 9.78 9.78 0 00-6.472-2.458h-27.85a9.69 9.69 0 00-6.069 2.107c-.494.398-.95.84-1.363 1.322l-.375.442-21.493 25.187a6.538 6.538 0 00-.828 1.218 6.805 6.805 0 00-.468 1.172l-.155.54-9.72 33.355zm85.44-7.677l-.902.493 7.308 13.342.902-.494-7.308-13.341z" fill="#4F37B3"/><path d="M509.382 457.085l-1.029-.237 3.652-15.559.108-.514a5.49 5.49 0 00.149-1.244 5.351 5.351 0 00-1.759-3.989l-.36-.334-33.8-31.14 2.936-12.239 1.029.242-2.798 11.648 34.084 31.432a6.457 6.457 0 011.738 4.395c0 .329-.026.657-.077.982l-.108.514-3.765 16.043zm-3.037 8.526l-.505 2.147 1.002.235.504-2.147-1.001-.235z" fill="#4F37B3"/><path d="M426.413 486.471l-.864-.56 15.373-23.599a5.483 5.483 0 00.761-1.85l.103-.514 9.16-43.769.555.205a18.27 18.27 0 0016.52-2.056l.319-.221 32.618 27.577-6.069 35.139-1.029-.175 5.971-34.557-31.573-26.699a19.246 19.246 0 01-16.561 2.144l-9.14 43.645c-.129.43-.302.845-.514 1.239l-.288.447-15.342 23.604zm-7.843-9.232l-15.945 27.534.891.515 15.944-27.534-.89-.515zm7.475-12.926l-3.82 6.597.89.515 3.82-6.597-.89-.515z" fill="#4F37B3"/><path d="M413 423.236a4.111 4.111 0 004.315-3.732v-.154l.349-6.518.952-1.83-6.367-1.86-.587 1.999v-.031l-2.34 6.657a4.19 4.19 0 00-.231 1.146 3.644 3.644 0 000 .591c.028.351.102.697.221 1.028a4.116 4.116 0 003.688 2.704z" fill="#FF95A9"/><path d="M411.673 411.141l.581-1.999 6.372 1.866 1.445-2.786-6.948-2.036-.869 2.956-.576 1.968-.011.031h.006z" fill="#fff"/><path d="M491.705 492.681v5.14h13.053a1.291 1.291 0 00.618-2.421l-4.881-2.678-.103-.057-8.687.016zm-90.91 16.289l.062-.113-2.757 4.195 10.914 7.16a1.289 1.289 0 001.846-1.686l-2.674-5.007-.458-.298-6.933-4.251z" fill="#40327A"/><path d="M134.075 416.11l-.062 1.036 1.027.062.062-1.037-1.027-.061z" fill="#4F37B3"/><path d="M167.656 450.788h-36.074l.566-7.88 1.029.077-.515 6.775h34.012l2.721-36.635c0-.185.025-.339.025-.514v-7.042a29.29 29.29 0 00-2.89-12.645h-23.391l-1.152.895a17.165 17.165 0 00-6.686 13.647v5.14s0 .036-.093 1.619l-1.029-.061c.047-.828.088-1.542.093-1.578v-5.141a18.176 18.176 0 011.859-8.047 18.202 18.202 0 015.228-6.397l1.425-1.11h24.414l.139.288a30.27 30.27 0 013.138 13.364v7.109l-.031.514-2.788 37.622zm-3.963 57.257l-.264 3.768 1.029.072.263-3.768-1.028-.072zm2.558-54.764l-3.618 52.774 1.026.071 3.619-52.775-1.027-.07zm332.927-37.282l-22.116-26.539a7.54 7.54 0 01-1.64-3.444l-.067-.514-1.317-10.594 1.029-.124 1.296 10.605a6.447 6.447 0 001.456 3.377l22.156 26.575-.797.658zm-24.548-44.793l-1.021.124.148 1.214 1.021-.124-.148-1.214zm-29.109-15.812l-6.888 51.805 1.019.135 6.889-51.805-1.02-.135zm-8.292 53.699l-.579 4.412 1.018.133.58-4.412-1.019-.133z" fill="#4F37B3"/><path d="M367.051 447.616l-7.201 12.465-103.259-59.58-28.981-16.721-35.863-20.69 7.2-12.465 49.451 28.528 28.977 16.722 89.676 51.741z" fill="#B3A4F5"/><path d="M200.33 362.386a1.285 1.285 0 10.002-2.57 1.285 1.285 0 00-.002 2.57zm152.706 86.644a1.285 1.285 0 100-2.57 1.285 1.285 0 000 2.57z" fill="#fff"/><path d="M277.375 395.875l-20.784 4.626-5.271-3.043-18.444-10.646 20.784-4.621 18.448 10.646 5.267 3.038zm82.66 64.911l-85.365-49.259.514-.89 84.476 48.745 4.649-8.049.89.514-5.164 8.939z" fill="#8B77E8"/><path d="M200.587 367.59l-.515.89 69.765 40.256.514-.891-69.764-40.255z" fill="#8B77E8"/><path d="M360.694 373.134l-88.586 19.703-20.788 4.621-70.626 15.708-3.132-14.048 55.314-12.306 20.784-4.621 103.907-23.11 3.127 14.053z" fill="#B3A4F5"/><path d="M190.044 406.299a1.285 1.285 0 10.001-2.57 1.285 1.285 0 00-.001 2.57zm160.42-36.974a1.285 1.285 0 10.001-2.57 1.285 1.285 0 00-.001 2.57z" fill="#fff"/><path d="M347.034 375.66l-115.852 25.754.224 1.003 115.852-25.754-.224-1.003zm-117.848 26.213l-35.645 7.924.223 1.004 35.645-7.924-.223-1.004z" fill="#8B77E8"/><path d="M293.881 445.254l-1.541.236.156 1.017 1.54-.236-.155-1.017zm3.748.481l-.155-1.018 55.407-8.481-1.779-11.607 1.018-.159 1.934 12.629-56.425 8.636zm52.729-32.929l-1.016.155 1.24 8.094 1.017-.155-1.241-8.094z" fill="#4F37B3"/><path d="M388.693 444.275h-1.029v-19.142h29.424v1.028h-28.395v18.114zm0 3.532h-1.029v1.223h1.029v-1.223zm-51.504-84.391l-5.5 1.209.221 1.004 5.501-1.209-.222-1.004zm-7.793 1.763L198.919 393.85l.221 1.004 130.477-28.671-.221-1.004z" fill="#fff"/><path d="M234.839 370.743l-.514.891 19.081 11.01.515-.89-19.082-11.011zm-14.478-8.367l-.515.891 11.198 6.461.514-.89-11.197-6.462zm63.502 36.651l-.514.89 28.198 16.272.515-.891-28.199-16.271z" fill="#fff"/><path d="M345.532 417.027l-22.681-21.168-18.989 19.641-.741-.714 19.694-20.371 23.421 21.861-.704.751zm-44.804.226l-7.132 7.373.74.715 7.131-7.373-.739-.715z" fill="#8B77E8"/><path d="M349.843 412.894l-61.062 9.349 3.641 23.754 61.062-9.35-3.641-23.753z" fill="#7760DB"/><path d="M300.833 429.065a2.005 2.005 0 00-1.589 1.172 4.432 4.432 0 00-.237 2.57c.343 2.211 1.353 3.187 3.029 2.93a5.197 5.197 0 001.451-.437c.452-.216.905-.457 1.357-.73l.402 2.622a7.976 7.976 0 01-3.158 1.136c-1.732.267-3.139-.033-4.223-.9-1.075-.863-1.764-2.246-2.057-4.148a7.028 7.028 0 01.19-3.238 4.895 4.895 0 011.615-2.375 5.934 5.934 0 012.86-1.182 8.282 8.282 0 013.682.267l-.576 2.57a10.974 10.974 0 00-1.352-.308 4.407 4.407 0 00-1.394.051zm6.727 8.291l-1.759-11.488 3.086-.478 1.378 8.985 4.423-.678.386 2.508-7.514 1.151zm19.251-8.841c.295 1.933.044 3.475-.751 4.626-.796 1.152-2.107 1.868-3.935 2.149-1.803.271-3.264-.024-4.382-.884-1.117-.86-1.824-2.258-2.119-4.195-.291-1.912-.036-3.445.767-4.6.802-1.157 2.114-1.871 3.939-2.154 1.826-.283 3.292 0 4.388.864 1.095.863 1.794 2.256 2.093 4.194zm-7.91 1.208c.342 2.224 1.285 3.218 2.828 2.981a2.055 2.055 0 001.626-1.079 5.914 5.914 0 00-.787-5.063 1.99 1.99 0 00-1.852-.555c-1.553.236-2.158 1.475-1.815 3.716zm17.867-.406a3.49 3.49 0 01-.252 1.984 3.59 3.59 0 01-1.368 1.542 5.955 5.955 0 01-2.33.828c-.644.106-1.297.151-1.949.134a7.508 7.508 0 01-1.708-.314l-.422-2.771a9.16 9.16 0 001.955.432 6.952 6.952 0 001.8 0 1.71 1.71 0 00.977-.396.746.746 0 00.232-.663.73.73 0 00-.196-.396 1.563 1.563 0 00-.473-.293c-.206-.092-.756-.257-1.641-.514a7.332 7.332 0 01-1.836-.735 3.024 3.024 0 01-1.028-.971 3.658 3.658 0 01-.515-1.429 2.997 2.997 0 01.777-2.652 5.137 5.137 0 013.04-1.373 9.09 9.09 0 013.769.267l-.586 2.57a6.98 6.98 0 00-2.895-.313c-.313.023-.61.143-.849.344a.658.658 0 00-.196.571.771.771 0 00.443.55c.666.283 1.354.511 2.057.684.84.184 1.624.568 2.284 1.12.489.484.809 1.113.91 1.794zm9.119 2.174l-6.825 1.028-1.78-11.473 6.825-1.028.381 2.488-3.719.571.278 1.809 3.441-.514.386 2.493-3.446.514.334 2.169 3.749-.565.376 2.508zm-19.308-36.871h-16.972v2.057h16.972v-2.057zm10.643 19.703l-5.943.91.155 1.016 5.943-.91-.155-1.016z" fill="#fff"/><path d="M290.114 434.473l-1.933-12.64 40.204-6.153.154 1.013-39.186 5.998 1.78 11.627-1.019.155z" fill="#fff"/></g><defs><clipPath id="clip0"><path fill="#fff" transform="translate(53 167)" d="M0 0h685v370H0z"/></clipPath></defs></svg>