<svg width="577" height="612" fill="none" xmlns="http://www.w3.org/2000/svg"><g clip-path="url(#clip0)"><path d="M418.3 411.277c16.098 25.387 68.094-30.488 52.258-52.208-15.836-21.719-72.844 19.719-52.258 52.208z" fill="#F8F7FF"/><path d="M46.126 590.458c-23.989 0-58.343-27.993-38.991-65.289 12.91-24.88 56.623-46.536 97.004-61.464 30.617-11.307-14.993-26.837-14.993-83.257 0-30.187 29.039-59.092 104.068-59.092 60.288 0 47.239-39.444 117.442-51.647 37.356-6.497 105.741 17.949 98.345 76.974-6.108 48.84-36.93 51.566-19.765 85.067 5.492 10.716 26.267 27.626 55.133 19.752 37.878-10.325 59.225 9.477 71.629 30.375 24.479 41.237 2.661 108.564-68.687 108.564l-401.185.017z" fill="#F8F7FF"/><path d="M443.239 274.667c-1.578-1.24-2.525-1.918-2.547-1.924l.707-1.106c.041.027.972.695 2.588 1.954l-.748 1.076zM241.277 498.516l-.275-1.303c2.105-.495 4.165-.989 6.181-1.483l.284 1.302c-2.027.495-4.09.989-6.19 1.484zm12.37-3.007l-.293-1.299a651.753 651.753 0 006.155-1.587l.315 1.296c-2.026.523-4.085 1.049-6.177 1.577v.013zm12.31-3.24l-.315-1.296a427.225 427.225 0 006.123-1.714l.316 1.29a720.182 720.182 0 01-6.114 1.707l-.01.013zm12.254-3.511l-.345-1.286a375.818 375.818 0 006.083-1.867l.36 1.283a663.04 663.04 0 01-6.089 1.857l-.009.013zm12.171-3.831l-.379-1.276a310.468 310.468 0 006.026-2.051l.397 1.266a500.424 500.424 0 01-6.035 2.047l-.009.014zm12.054-4.233l-.419-1.259c2.039-.762 4.04-1.53 5.943-2.291l.445 1.252a349.447 349.447 0 01-5.959 2.285l-.01.013zm11.891-4.743l-.474-1.239a214.18 214.18 0 005.821-2.599l.508 1.226a248.929 248.929 0 01-5.846 2.595l-.009.017zm11.634-5.422l-.549-1.205a180.272 180.272 0 005.634-3.007l.591 1.179a177.66 177.66 0 01-5.66 3.02l-.016.013zm11.222-6.346l-.651-1.146a98.811 98.811 0 005.297-3.598l.716 1.103a108.14 108.14 0 01-5.353 3.624l-.009.017zm10.476-7.683l-.796-1.039a63.852 63.852 0 004.666-4.426l.89.945a64.293 64.293 0 01-4.751 4.506l-.009.014zm9.008-9.594l-.997-.815a42.199 42.199 0 003.418-5.505l1.108.641a43.76 43.76 0 01-3.519 5.666l-.01.013zm98.658-7.015a16.207 16.207 0 01-6.278-1.954l.578-1.189a15.07 15.07 0 005.811 1.814l-.111 1.329zm6.506-.802l-.388-1.272a17.629 17.629 0 003.203-1.474 17.197 17.197 0 002.21-1.516l.767 1.062a18.791 18.791 0 01-2.361 1.627 19.43 19.43 0 01-3.422 1.547l-.009.026zm-99.056-4.085l-1.199-.424a39.16 39.16 0 001.436-6.4l1.262.197a40.493 40.493 0 01-1.489 6.6l-.01.027zm81.032-1.159a26.62 26.62 0 01-3.951-5.452l1.092-.668a25.389 25.389 0 003.75 5.178l-.891.942zm28.207-3.063l-1.067-.715a23.692 23.692 0 002.477-5.946l1.213.371a25.15 25.15 0 01-2.614 6.263l-.009.027zm-34.721-8.685a25.75 25.75 0 01-.947-6.768l1.016-.034h.246c.008 2.175.305 4.337.881 6.424l-1.196.378zm-73.861-.491a63.184 63.184 0 00-.382-6.625l1.262-.15c.248 2.248.377 4.508.389 6.771l-1.269.004zm112.325-3.835l-1.262-.111c.088-1.165.135-2.381.135-3.617 0-.976-.028-1.984-.085-3.007l1.263-.076a57.3 57.3 0 01.085 3.073 40.715 40.715 0 01-.117 3.701l-.019.037zm-37.091-8.829l-1.184-.468c.244-.686.529-1.355.852-2.004a36.277 36.277 0 012.317-3.975l1.032.768a35.713 35.713 0 00-2.231 3.828 16.539 16.539 0 00-.767 1.814l-.019.037zm-76.557-.555a191.44 191.44 0 00-1.263-6.56l1.235-.281c.394 1.954.855 4.266 1.262 6.601l-1.234.24zm111.738-3.941c-.315-2.105-.754-4.299-1.262-6.521l1.225-.334c.53 2.258.969 4.486 1.3 6.628l-1.263.227zm-28.231-6.347l-.947-.892a95.953 95.953 0 014.451-4.857l.88.959a82.875 82.875 0 00-4.365 4.743l-.019.047zm-86.092-2.833c-.511-2.579-.89-4.676-1.2-6.617l1.244-.224c.316 1.921.685 4.009 1.193 6.567l-1.237.274zm111.3-3.741a111.898 111.898 0 00-2.134-6.28l1.177-.491a122.672 122.672 0 012.159 6.347l-1.202.424zm-16.177-2.759l-.84-1.002c1.405-1.337 2.929-2.726 4.801-4.42l.821 1.002a294.378 294.378 0 00-4.763 4.373l-.019.047zm-97.165-6.821a64.704 64.704 0 01-.25-5.576v-1.205l1.263.033v1.172c0 1.754.079 3.538.246 5.455l-1.259.121zm106.789-1.924l-.815-1.003 1.945-1.743a130.135 130.135 0 00-1.97-4.149l1.118-.625c.631 1.28 1.262 2.579 1.846 3.882l1.894-1.717.824 1.002-2.159 1.951c.139.31.274.618.41.928l-1.149.558c-.085-.197-.17-.394-.259-.591l-1.685 1.507zm9.627-8.806l-.849-1.002a138.468 138.468 0 004.599-4.59l.887.949a152.921 152.921 0 01-4.618 4.596l-.019.047zM359.12 368.57l-1.244-.228a56.008 56.008 0 011.509-6.597l1.206.398a53.896 53.896 0 00-1.316 5.538c-.06.294-.114.591-.155.889zm101.253-1.337a114.605 114.605 0 00-3.381-5.642l1.048-.748a124.281 124.281 0 013.415 5.706l-1.082.684zm22.562-5.635l-.947-.872a48.848 48.848 0 003.788-5.278l1.06.729a50.79 50.79 0 01-3.907 5.421h.006zm-29.623-5.428a93.76 93.76 0 00-4-5.154l.947-.886a97.878 97.878 0 014.056 5.228l-1.003.812zm-90.442-.177l-1.137-.581a42.775 42.775 0 013.255-5.876l1.032.768a41.395 41.395 0 00-3.157 5.689h.007zm126.845-5.946l-1.193-.434c.572-1.709.873-3.506.89-5.318v-.254c0-.254 0-.508-.019-.765l1.263-.05c0 .264 0 .527.018.795v.274a18.635 18.635 0 01-.965 5.752h.006zm-44.752-3.845a61.052 61.052 0 00-4.303-3.988 15.106 15.106 0 00-.432-.355l.761-1.068c.154.123.315.25.454.374a62.73 62.73 0 014.394 4.072l-.874.965zm-74.941-.942l-.893-.942a39.203 39.203 0 014.911-4.406l.733 1.089a37.727 37.727 0 00-4.757 4.259h.006zm64.884-6.801a50.67 50.67 0 00-5.785-2.542l.416-1.263a51.294 51.294 0 015.928 2.606l-.559 1.199zm-54.793-.862l-.568-1.192a46.137 46.137 0 015.925-2.633l.41 1.266a44.886 44.886 0 00-5.773 2.559h.006zm108.563-.882a54.552 54.552 0 00-1.578-6.41l1.2-.418a55.565 55.565 0 011.616 6.581l-1.238.247zm-65.581-2.672a71.414 71.414 0 00-6.171-1.3l.196-1.336c2.118.334 4.229.792 6.275 1.336l-.3 1.3zm-31.173-.768l-.269-1.307a58.359 58.359 0 016.313-1.075l.139 1.336a57.019 57.019 0 00-6.19 1.039l.007.007zm18.755-1.277a69.239 69.239 0 00-6.284-.183l-.019-1.336c2.121-.034 4.252.03 6.392.19l-.089 1.329zm74.139-7.87a78.67 78.67 0 00-2.841-5.932l1.099-.668a76.676 76.676 0 012.901 6.036l-1.159.564zm-6.149-11.614a106.195 106.195 0 00-3.661-5.435l1.007-.809a102.905 102.905 0 013.705 5.506l-1.051.738zm-7.613-10.643c-1.329-1.67-2.74-3.34-4.198-5.01l.925-.909c1.471 1.67 2.894 3.37 4.236 5.044l-.963.875zm-8.598-9.801a173.066 173.066 0 00-4.58-4.619l.855-.983a176.947 176.947 0 014.612 4.65l-.887.952zm-9.315-9.059a185.247 185.247 0 00-4.883-4.266l.786-1.045a175.356 175.356 0 014.915 4.296l-.818 1.015zM231.814 500.69l-.262-1.306 3.084-.698.265 1.306c-1.023.234-2.052.467-3.087.698z" fill="#CCC2FF"/><path d="M302.061 482.485c2.326 2.528 3.087 5.738 1.698 7.171-1.389 1.433-4.4.542-6.73-2.004-2.329-2.545-3.087-5.742-1.698-7.172 1.389-1.429 4.403-.537 6.73 2.005zm37.137-12.77c.088-.99-1.145-1.922-2.754-2.083-1.609-.16-2.985.513-3.073 1.503-.088.99 1.145 1.923 2.754 2.083 1.609.16 2.985-.513 3.073-1.503zm-32.302-13.603c.575 1.624 0 3.341-1.288 3.865-1.287.524-2.793-.391-3.367-2.004-.575-1.614 0-3.341 1.284-3.865 1.285-.524 2.797.381 3.371 2.004z" fill="#fff"/><path d="M174.688 429.476a16.252 16.252 0 00-2.919-5.559l.947-.865a17.62 17.62 0 013.156 6.013l-1.184.411zm-7.603-9.644a29.554 29.554 0 00-5.622-2.673l.41-1.266a30.768 30.768 0 015.856 2.81l-.644 1.129zm-11.635-4.396a71.828 71.828 0 00-6.18-1.046l.148-1.336a72.65 72.65 0 016.284 1.062l-.252 1.32zm-56.538-.394v-1.337c1.534 0 3.087-.086 4.621-.203l1.647-.124.089 1.336-1.645.127c-1.572.114-3.15.184-4.712.201zm-6.358-.204a75.685 75.685 0 01-6.312-.738l.186-1.337a72.01 72.01 0 006.224.725l-.097 1.35zm18.996-.571l-.076-1.337c2.134-.14 4.238-.263 6.313-.37l.063 1.336c-2.066.109-4.166.233-6.3.371zm31.467-.471a147.186 147.186 0 00-6.282-.271l.026-1.336c2.209.05 4.34.144 6.335.274l-.079 1.333zm-18.873-.171l-.041-1.336c2.21-.073 4.337-.12 6.313-.14v1.336c-1.957.023-4.075.07-6.272.14zm-44.165-.785a74.605 74.605 0 01-6.136-1.78l.382-1.273c1.967.668 4 1.253 6.041 1.751l-.287 1.302zm-12.114-4.092a65.865 65.865 0 01-5.767-2.879l.596-1.179a66.101 66.101 0 005.654 2.822l-.483 1.236zm-11.228-6.373a46.977 46.977 0 01-5.022-4.193l.853-1.002a45.399 45.399 0 004.883 4.076l-.714 1.119zm-9.374-9.19a27.651 27.651 0 01-3.258-5.889l1.162-.518a26.78 26.78 0 003.1 5.602l-1.004.805zm-4.801-12.55a20.782 20.782 0 01.675-6.834l1.215.364a19.59 19.59 0 00-.675 5.067c0 .434 0 .875.044 1.31l-1.26.093zm4.419-12.359l-1.067-.712a33.549 33.549 0 013.996-5.328l.909.925a32.454 32.454 0 00-3.832 5.125l-.006-.01zm8.472-9.497l-.777-1.052a62.919 62.919 0 015.227-3.859l.67 1.133a62.037 62.037 0 00-5.114 3.788l-.006-.01zm10.552-7.072l-.588-1.182a99.923 99.923 0 015.71-2.937l.518 1.216c-1.963.952-3.86 1.928-5.634 2.913l-.006-.01zm11.43-5.485l-.465-1.243a169.653 169.653 0 015.944-2.338l.413 1.259a177.239 177.239 0 00-5.887 2.332l-.006-.01z" fill="#CCC2FF"/><path d="M29.517 349.415a32.432 32.432 0 01-15.352-3.916c-4.755-2.564-8.873-6.278-12.018-10.842l1.023-.788c4.505 6.553 11.047 11.217 18.478 13.172 7.43 1.956 15.275 1.078 22.155-2.48 6.88-3.557 12.356-9.566 15.466-16.971 3.11-7.405 3.654-15.733 1.538-23.521l1.212-.371a37.848 37.848 0 01.752 16.401c-.952 5.455-3.089 10.601-6.24 15.033-3.152 4.433-7.234 8.03-11.923 10.508a32.33 32.33 0 01-15.1 3.775h.009zm29.8-49.685c-2.98-7.136-8.158-12.993-14.688-16.615-6.53-3.622-14.026-4.796-21.267-3.331l-.237-1.309c7.522-1.528 15.31-.311 22.094 3.45 6.784 3.762 12.162 9.847 15.256 17.261l-1.158.544zm-62.302 23.824c-2.437-8.996-1.454-18.644 2.74-26.883s11.266-14.416 19.706-17.211l.375 1.276c-8.128 2.69-14.94 8.638-18.977 16.574-4.038 7.935-4.981 17.228-2.629 25.89l-1.215.354z" fill="#DDD6FF"/><path d="M40.003 289.846c5.537 2.734 9.925 7.534 12.324 13.481a27.676 27.676 0 01.675 18.745c-1.965 6.123-5.995 11.263-11.32 14.435-5.324 3.172-11.567 4.152-17.533 2.753-5.965-1.398-11.233-5.078-14.792-10.334-3.56-5.255-5.162-11.716-4.498-18.144.663-6.428 3.545-12.37 8.093-16.688s10.442-6.707 16.552-6.71a23.65 23.65 0 0110.499 2.462z" fill="#FFE4E0"/><path d="M37.73 295.02c4.332 2.14 7.765 5.897 9.641 10.55a21.654 21.654 0 01.525 14.667c-1.538 4.79-4.693 8.811-8.86 11.292-4.166 2.48-9.051 3.246-13.718 2.15s-8.788-3.977-11.572-8.09c-2.784-4.113-4.035-9.169-3.514-14.198.521-5.029 2.778-9.678 6.338-13.055 3.56-3.377 8.173-5.244 12.953-5.243a18.49 18.49 0 018.207 1.927z" fill="#FFD4CC"/><path d="M20.23 332.416c-4.633-2.572-8.132-6.96-9.75-12.227-1.616-5.266-1.222-10.993 1.099-15.956 2.32-4.963 6.383-8.769 11.32-10.603 4.937-1.835 10.356-1.553 15.1.785l-.537 1.21a17.736 17.736 0 00-7.945-1.864c-4.2.001-8.276 1.492-11.58 4.235-3.305 2.742-5.645 6.578-6.647 10.893a20.94 20.94 0 001.12 12.913c1.727 4.05 4.687 7.371 8.408 9.431l-.587 1.183zm9.287 2.409a18.995 18.995 0 01-6.944-1.313l.439-1.253a17.846 17.846 0 008.32 1.136 18.1 18.1 0 007.957-2.809 19.339 19.339 0 006.01-6.194 20.628 20.628 0 002.863-8.344l1.263.164c-.598 5.14-2.953 9.87-6.62 13.299-3.668 3.429-8.394 5.319-13.288 5.314zm17.559-28.23a23.267 23.267 0 00-.672-1.671l1.133-.584c.265.574.508 1.169.72 1.763l-1.18.492zm-3.039-5.556a19.109 19.109 0 00-6.56-5.414l.537-1.21a20.4 20.4 0 017.017 5.776l-.994.848z" fill="#FAB4A8"/><path d="M52.149 325.902l-1.124-.611c2.758-5.699 3.396-12.285 1.79-18.458-1.608-6.172-5.344-11.483-10.47-14.883l.669-1.132c5.393 3.577 9.322 9.163 11.014 15.657 1.69 6.493 1.02 13.421-1.88 19.417v.01zM8.946 300.201L7.87 299.5c3.162-5.42 8.035-9.478 13.756-11.456a24.15 24.15 0 0117.493.653l-.477 1.239a22.94 22.94 0 00-16.61-.612c-5.43 1.879-10.057 5.732-13.06 10.877h-.026zm20.571 40.332c-4.387-.003-8.699-1.206-12.517-3.494-3.817-2.287-7.011-5.58-9.272-9.559-2.26-3.979-3.509-8.509-3.626-13.15a28.206 28.206 0 012.957-13.337l1.117.628c-2.661 5.298-3.477 11.419-2.305 17.29 1.172 5.871 4.257 11.119 8.716 14.826 4.46 3.706 10.009 5.635 15.676 5.449 5.668-.185 11.093-2.474 15.327-6.466l.84 1.002c-4.655 4.393-10.676 6.818-16.913 6.811z" fill="#A796F2"/><path d="M36.16 301.872L18.407 320.66l4.464 4.724 17.753-18.787-4.464-4.725z" fill="#fff"/><path d="M22.874 301.866l-4.463 4.724 17.752 18.788 4.464-4.725-17.753-18.787z" fill="#fff"/><path d="M427.895 213.49l-.631-1.166a36.284 36.284 0 001.878-1.202l.685 1.122c-.634.434-1.266.855-1.932 1.246zm5.417-3.925l-.802-1.035c5.914-5.116 10.188-12.043 12.236-19.83a41.352 41.352 0 00-.797-23.668c-2.566-7.614-7.295-14.201-13.537-18.858-6.243-4.658-13.694-7.159-21.332-7.159-20.157 0-36.763 17.35-37.019 38.676h-1.263c.266-22.047 17.437-39.995 38.282-39.995 7.898.001 15.603 2.587 22.058 7.404s11.344 11.628 13.998 19.501a42.761 42.761 0 01.825 24.474c-2.117 8.053-6.535 15.216-12.649 20.507v-.017zm-24.232 9.156c-7.274-.02-14.393-2.223-20.532-6.353-6.138-4.13-11.044-10.018-14.148-16.98l1.143-.568c3.533 7.969 9.496 14.448 16.929 18.396 7.433 3.949 15.905 5.137 24.054 3.374l.256 1.31a36.567 36.567 0 01-7.702.821z" fill="#B3A4F5"/><path d="M432.955 141.741a40.14 40.14 0 00-3.383-2.245l6.186-11.635a57.45 57.45 0 014.419 2.92l-7.222 10.96zm-6.019-3.681a39.571 39.571 0 00-17.512-4.212l.101-13.362c7.887.048 15.669 1.921 22.799 5.488l-5.388 12.086zm-23.112-3.872l-1.578-13.254a47.34 47.34 0 011.702-.198l1.183 13.302c-.435.043-.874.094-1.307.15zm-43.031 70.837c-3.409-6.875-5.472-14.407-6.067-22.146a60.901 60.901 0 012.603-22.893c2.313-7.368 6.006-14.167 10.859-19.99 4.852-5.823 10.764-10.551 17.383-13.902l5.451 12.053c-7.124 3.633-13.138 9.314-17.356 16.394-4.217 7.079-6.468 15.272-6.494 23.641-.024 7.185 1.623 14.267 4.794 20.62l-11.173 6.223zm11.899 16.158a56.912 56.912 0 01-6.556-7.412l9.937-8.244a43.895 43.895 0 005.05 5.708l-8.431 9.948zm6.155 5.051a55.514 55.514 0 01-2.405-1.8l7.576-10.69c.596.474 1.218.939 1.846 1.383l-7.017 11.107z" fill="#E9E6FF"/><path d="M429.855 200.181c11.473-12.143 11.473-31.83 0-43.972-11.474-12.143-30.076-12.143-41.55 0-11.474 12.142-11.474 31.829 0 43.972 11.474 12.142 30.076 12.142 41.55 0z" fill="#FFD259"/><path d="M420.32 163.404a19.564 19.564 0 00-1.405-1.083c-2.919-2.036-6.339-3.12-9.835-3.116v-1.336c3.742-.003 7.403 1.159 10.527 3.34.514.358 1.019.745 1.502 1.159l-.789 1.036zm3.983 27.171l-1-.812c2.078-2.851 3.343-6.271 3.646-9.857.05-.545.072-1.116.072-1.707.005-4.794-1.71-9.411-4.798-12.918l.925-.908c3.305 3.753 5.141 8.695 5.136 13.826 0 .631-.026 1.249-.079 1.83-.324 3.837-1.678 7.496-3.902 10.546z" fill="#fff"/><path d="M422.214 177.681c-.114-3.602-1.549-7.015-4.001-9.516-2.452-2.5-5.728-3.892-9.133-3.88v-1.336c3.734-.013 7.327 1.515 10.014 4.259 2.688 2.744 4.259 6.489 4.379 10.439l-1.259.034zm-1.72 9.801l-.998-.815a14.237 14.237 0 002.563-6.29l1.263.207a15.602 15.602 0 01-2.828 6.898zm-12.569 10.014a8.96 8.96 0 002.982 2.191 8.507 8.507 0 007.819-.414l2.674-1.553-5.603-10.79-2.993 1.129a4.846 4.846 0 01-3.746-.133 5.24 5.24 0 01-2.437-2.339l-4.624-8.905a5.652 5.652 0 01-.568-3.434c.198-1.354.875-2.578 1.894-3.424l2.503-2.064-5.603-10.79-2.677 1.557a9.156 9.156 0 00-2.987 2.826 9.777 9.777 0 00-1.523 3.921 9.96 9.96 0 00.151 3.842c2.522 10.645 7.598 20.421 14.738 28.38z" fill="#fff"/><path d="M120.429 100.43l-3.362 22.013h-11.909l1.067-6.981H85.999l2.294-15.032h32.136z" fill="#F2F0FF"/><path d="M106.225 115.462l-1.067 6.981H84.932l1.067-6.981h20.226z" fill="#DDD6FF"/><path d="M105.158 122.443l-2.291 15.032h-32.14l3.362-22.013H86l-1.067 6.981h20.226z" fill="#E9E6FF"/><path d="M55.087 137.475h-10.47l1.093-7.175h10.473l-1.096 7.175z" fill="#F2F0FF"/><path d="M91.25 114.794H60.94v1.336h30.31v-1.336zm-35.07 0h-4.9v1.336h4.9v-1.336z" fill="#B3A4F5"/><path d="M344.521 564.091v17.01H198.479v-17.01c.002-25.299 6.889-50.063 19.839-71.329 12.949-21.267 31.413-38.137 53.182-48.592a120.92 120.92 0 0111.092 6.053c18.841 11.582 34.478 28.197 45.346 48.182 10.868 19.986 16.587 42.641 16.583 65.7v-.014z" fill="#fff"/><path d="M272.762 473.178c0 5.485 1.56 12.153 4.836 18.961-5.214 14.758-14.223 24.245-26.06 34.526a82.68 82.68 0 01.177-17.243 90.56 90.56 0 01.796-5.679c10.334-9.326 17.726-20.817 17.726-34.072v-.354h2.525v3.861z" fill="#FFC159"/><path d="M344.524 575.215v5.886H198.482v-17.01c.003-25.299 6.891-50.062 19.84-71.328 12.95-21.267 31.412-38.136 53.181-48.593a120.657 120.657 0 0111.092 6.053c-17.203 16.989-28.339 35.569-30.877 59.212-3.926 36.648 11.843 69.134 92.806 65.78z" fill="#E9E6FF"/><path d="M344.521 575.215v5.886H198.479v-17.01c0-.741.006-1.483.019-2.224 0-.501.019-1.002.031-1.517 0-.588.032-1.176.063-1.764.032-.588.044-1.115.076-1.67a1.09 1.09 0 010-.14c.038-.768.082-1.537.139-2.305.044-.668.095-1.316.151-1.971.032-.434.07-.868.114-1.303.019-.213.038-.434.063-.648.038-.434.082-.875.133-1.309.05-.434.094-.882.151-1.316.038-.354.082-.715.127-1.069.025-.261.063-.528.101-.789.063-.527.138-1.048.208-1.57.095-.648.189-1.289.29-1.93.101-.642.209-1.336.316-1.978.391-2.318.844-4.616 1.357-6.894.139-.615.278-1.23.423-1.838.025-.093.044-.187.07-.28.157-.668.315-1.336.498-1.984a.208.208 0 010-.061c13.807-3.394 34.791-12.359 49.67-25.781a95.12 95.12 0 00-.795 5.679c-3.895 36.654 11.874 69.14 92.837 65.786z" fill="#FFAA45"/><path d="M343.947 551.405c-16.098 10.074-37.328 15.9-57.012 17.63-23.957-8.351-33.484-24.051-35.396-42.37 11.836-10.282 20.832-19.768 26.059-34.526 8.478 17.624 28.465 36.243 62.738 38.081a138.947 138.947 0 013.611 21.185z" fill="#FFD259"/><path d="M286.935 569.035c-21.918 1.931-49.872-5.775-57.375-15.299-4.526-5.749-1.319-9.266 2.629-13.028 3.533-3.363 9.211-5.258 18.977-13.716.126-.106.246-.213.373-.334 1.912 18.326 11.439 34.033 35.396 42.377zm57.586-4.943v11.123c-24.936 1.036-43.685-1.336-57.586-6.18 19.684-1.73 40.908-7.556 57.012-17.63.379 4.189.57 8.418.574 12.687z" fill="#FFC159"/><path d="M344.524 298.528v17.009c.009 19.426-4.053 38.612-11.893 56.176a132.55 132.55 0 01-7.942 15.166 130.404 130.404 0 01-18.572 23.823c-10.129 10.271-21.831 18.647-34.608 24.773-21.768-10.457-40.23-27.327-53.179-48.593-12.949-21.267-19.837-46.029-19.842-71.328v-17.01l146.036-.016z" fill="#fff"/><path d="M306.11 410.699c-10.128 10.27-21.83 18.647-34.607 24.773-21.768-10.458-40.23-27.328-53.179-48.594-12.949-21.266-19.838-46.028-19.842-71.328v-17.009h67.964c-38.098 34.423-6.912 135.972 39.664 112.158z" fill="#E9E6FF"/><path d="M297.885 418.329a122.846 122.846 0 01-26.382 17.143c-16.039-7.699-30.348-18.917-41.981-32.91 8.428-.812 16.901.903 24.45 4.95 16.18 8.759 27.183 16.221 43.913 10.817z" fill="#FFAA45"/><path d="M381.663 600.482H101.364v1.336h280.299v-1.336zm-51.731 10.182h-15.224V612h15.224v-1.336zm160.221 0h-4.971V612h4.971v-1.336zm-25.466 0H369.82V612h94.867v-1.336zm-157.62 0H22.247V612h284.82v-1.336zm213.287-10.025h-40.298v1.337h40.298v-1.337zM577 590.458h-6.42v1.336H577v-1.336zm-13.749 0H-50.417v1.336h613.668v-1.336z" fill="#C4B8FF"/><path d="M445.499 590.458h-6.944v1.336h6.944v-1.336zm-17.288 0h-56.885v1.336h56.885v-1.336zm-107.294 0H112.036v1.336h208.881v-1.336zm35.037 0h-29.276v1.336h29.276v-1.336zm-256.203 0H94.78v1.336h4.971v-1.336z" fill="#40327A"/><path d="M344.524 289.175H198.482v9.353h146.042v-9.353zm0 291.93H198.482v9.353h146.042v-9.353z" fill="#8B77E8"/><path d="M323.48 327.078c-2.885 8.806 3.674 25.962 9.495 16.839 5.82-9.122 4.886-25.287-.609-28.484-2.576-1.509-6.982 5.839-8.886 11.645z" fill="#E9E6FF"/><path d="M390.436 246.674l26.199 32.656 9.469-13.091-34.983-19.375a.03.03 0 01-.019-.019.037.037 0 01-.001-.029.037.037 0 01.018-.021.039.039 0 01.028-.001l42.492 9.049 7.401-10.218-50.503.832a.134.134 0 00-.064.023.142.142 0 00-.058.125.15.15 0 00.021.069z" fill="#DDD6FF"/><path d="M391.126 246.848l34.983 19.374 9.659 5.345a.956.956 0 001.09-.107c.153-.128.267-.3.329-.495s.069-.405.02-.604l-3.56-14.554-42.496-9.026a.032.032 0 00-.023.004.034.034 0 00-.015.018.043.043 0 00-.001.025.04.04 0 00.014.02z" fill="#CCC2FF"/><path d="M411.34 250.413l-.249 1.31 22.45 4.782.249-1.31-22.45-4.782z" fill="#fff"/><path d="M416.652 280.395l-26.7-33.29.963-.865 25.687 32.028 9.005-12.437 1.001.815-9.956 13.749z" fill="#CCC2FF"/><path d="M152.612 317.434l-35.32 34.113-9.252-16.846 43.736-17.173a.043.043 0 00.021-.021.044.044 0 00.003-.03.042.042 0 00-.016-.025.038.038 0 00-.027-.008l-51.075 3.858-7.225-13.147 59.073 8.992a.16.16 0 01.126.116.173.173 0 01-.044.171z" fill="#DDD6FF"/><path d="M151.776 317.528l-43.736 17.173-12.08 4.737a1.131 1.131 0 01-.673.048 1.177 1.177 0 01-.59-.349 1.28 1.28 0 01-.314-.632 1.325 1.325 0 01.062-.711l6.234-16.488 51.075-3.858c.009 0 .017.003.025.008a.043.043 0 01.014.023.039.039 0 01-.001.028.047.047 0 01-.016.021z" fill="#CCC2FF"/><path d="M117.14 352.599l-9.649-17.56 1.092-.675 8.86 16.131 27.455-26.513.852.985-28.61 27.632z" fill="#CCC2FF"/><path d="M125.926 318.72l-4.886.37.09 1.333 4.886-.37-.09-1.333zm-10.434.787l-14.848 1.124.09 1.332 14.848-1.123-.09-1.333z" fill="#fff"/><path d="M324.039 360.58c-3.993-1.21-3.156-7.102-.183-7.42 5.795-.614 5.085 8.903.183 7.42z" fill="#E9E6FF"/><path d="M330.355 534.689c7.939.304 8.971 11.648 3.561 13.696-10.496 3.955-13.305-14.07-3.561-13.696zm2.768 20.106c3.428.131 3.876 5.031 1.537 5.913-4.535 1.713-5.754-6.073-1.537-5.913z" fill="#fff"/><path d="M199.116 590.457h-1.262v-26.365c.032-30.115 9.73-59.326 27.505-82.843l.985.835c-17.591 23.277-27.191 52.185-27.228 81.991v26.382zm31.707-113.938l-.947-.892a127.817 127.817 0 0119.516-18.623l.742 1.079a126.57 126.57 0 00-19.311 18.436zm108.064 50.664c-4.741-16.979-12.669-32.772-23.312-46.432-10.643-13.661-23.781-24.909-38.627-33.07l.581-1.189c14.996 8.245 28.266 19.606 39.017 33.404 10.751 13.798 18.762 29.75 23.553 46.9l-1.212.387zm4.031 20.457a126.411 126.411 0 00-1.058-7.235l1.241-.241c.42 2.412.779 4.874 1.07 7.309l-1.253.167zm2.238 42.818h-1.263v-26.366c0-4.109-.183-8.268-.549-12.36l1.262-.127c.367 4.129.553 8.328.553 12.48l-.003 26.373z" fill="#7760DB"/><path d="M283.722 580.437h-79.988v1.336h79.988v-1.336zm5.29.026h-2.604v1.336h2.604v-1.336z" fill="#fff"/><path d="M337.066 580.463h-29.999v1.336h29.999v-1.336z" fill="#7760DB"/><path d="M257.785 288.506h-3.058v1.336h3.058v-1.336z" fill="#4F37B3"/><path d="M69.856 200.112l-1.685 11.03H44.292l1.683-11.03h23.881z" fill="#F2F0FF"/><path d="M64.686 231.736H58.93v1.336h5.757v-1.336zm60.853 0H67.577v1.336h57.962v-1.336zm10.455 0h-4.934v1.336h4.934v-1.336z" fill="#B3A4F5"/><path d="M140.895 227.43H79.253l6.446-42.223h61.642l-6.446 42.223z" fill="#DDD6FF"/><path d="M150.696 218.501H89.054l6.445-42.223h61.643l-6.446 42.223z" fill="#F2F0FF"/><path d="M89.054 218.501l63.195-10.165-1.553 10.165H89.054zm6.446-42.223l27.448 22.093 34.194-22.093.113-.738H95.613l-.114.738z" fill="#fff"/><path d="M174.811 195.839l-8.699-9.687c.346-.349.675-.717.985-1.102l9.627 8.645c-.601.75-1.24 1.466-1.913 2.144zm3.621-4.509l-10.464-7.48a14.46 14.46 0 002.229-6.964l12.604.781c-.273 4.887-1.781 9.606-4.369 13.663zm-8.481-18.126c-.547-2.796-1.889-5.349-3.848-7.313-1.959-1.965-4.439-3.247-7.107-3.674a12.565 12.565 0 00-7.816 1.284c-2.421 1.264-4.417 3.281-5.72 5.782l-11.048-6.467c2.551-4.891 6.457-8.837 11.192-11.308 4.735-2.47 10.071-3.346 15.291-2.509 5.219.837 10.071 3.347 13.902 7.191 3.83 3.844 6.456 8.837 7.524 14.309l-12.37 2.705z" fill="#DDD6FF"/><path d="M162.278 177.334c.687-3.08-1.115-6.165-4.025-6.892-2.91-.727-5.825 1.18-6.512 4.26-.687 3.079 1.115 6.165 4.025 6.891 2.91.727 5.825-1.18 6.512-4.259z" fill="#FF95A9"/><path d="M151.236 219.169h-62.92l1.278-8.385 1.247.214-1.045 6.835h60.364l5.041-33.024 1.246.211-5.211 34.149z" fill="#B3A4F5"/><path d="M122.91 199.18l-28.095-22.615.262-1.694h58.353v1.337H96.456l26.53 21.355 7.796-5.034.657 1.139-8.529 5.512z" fill="#B3A4F5"/><path d="M136.266 189.019l-2.408 1.557.658 1.14 2.408-1.557-.658-1.14z" fill="#B3A4F5"/><path d="M93.914 182.499l-2.984 19.58 1.247.212 2.983-19.579-1.246-.213z" fill="#fff"/><path d="M157.022 185.671a8.696 8.696 0 01-2.974-.525l.414-1.262a7.444 7.444 0 003.8.352 7.632 7.632 0 003.509-1.585 8.229 8.229 0 002.388-3.148 8.724 8.724 0 00.704-3.968 8.649 8.649 0 00-1.147-3.851 8.07 8.07 0 00-2.726-2.823 7.531 7.531 0 00-3.663-1.13 7.482 7.482 0 00-3.733.83l-.552-1.199a8.585 8.585 0 013.98-.972c2.416 0 4.733 1.016 6.441 2.824 1.709 1.808 2.668 4.26 2.668 6.816 0 2.557-.959 5.009-2.668 6.817-1.708 1.808-4.025 2.824-6.441 2.824zm-6.843-13.699l-1.102-.668a9.763 9.763 0 011.184-1.741l.947.895c-.397.462-.742.97-1.029 1.514z" fill="#8B77E8"/><path d="M34.545 254.167h-69.094v1.336h69.094v-1.336zm14.179 0h-4.431v1.336h4.431v-1.336z" fill="#B3A4F5"/><path d="M55.731 223.959l-1.54 10.095-1.212 7.937-1.165 7.636H-3.749l3.917-25.668h55.563z" fill="#F2F0FF"/><path d="M54.191 234.054l-1.212 7.937H4.843l49.348-7.937z" fill="#fff"/><path d="M229.826 121.882c16.778-17.756 16.778-46.544 0-64.3s-43.98-17.756-60.758 0c-16.778 17.756-16.778 46.544 0 64.3 16.778 17.755 43.98 17.755 60.758 0z" fill="#FFCCD6"/><path d="M231.284 105.935a42.672 42.672 0 00.234-21.2c-1.707-6.963-5.14-13.317-9.944-18.406-4.804-5.089-10.805-8.727-17.383-10.54a36.143 36.143 0 00-20.033.23c6.599-3.337 14.015-4.426 21.223-3.116 7.209 1.31 13.856 4.954 19.026 10.43s8.607 12.514 9.839 20.144c1.232 7.63.197 15.477-2.962 22.458z" fill="#FF95A9"/><path d="M232.748 94.845a42.422 42.422 0 01-1.455 11.09c-2.445 5.385-6.073 10.072-10.581 13.667-4.508 3.596-9.765 5.997-15.33 7a33.472 33.472 0 01-16.655-1.23c-5.379-1.812-10.27-4.962-14.262-9.186-3.993-4.223-6.971-9.398-8.685-15.09a39.48 39.48 0 01-1.168-17.626c.947-5.89 3.213-11.453 6.609-16.225 3.397-4.772 7.824-8.614 12.911-11.203h.035a36.135 36.135 0 0117.444-.843c5.798 1.15 11.265 3.706 15.972 7.468 4.707 3.762 8.527 8.628 11.158 14.215a42.325 42.325 0 014.007 17.986v-.023z" fill="#FFB0BF"/><path d="M241.211 113.013l-1.023-.781a45.614 45.614 0 006.111-12.9l1.206.4a47.028 47.028 0 01-6.294 13.281zm7.02-16.053l-1.228-.315c.151-.668.287-1.32.41-1.967l1.237.257c-.123.668-.265 1.35-.419 2.024z" fill="#8B77E8"/><path d="M256.219 59.547a55.535 55.535 0 00-.71-1.457l22.282-12.577c.351.695.692 1.396 1.022 2.102l-22.594 11.932zm-3.771-6.821c-9.785-15.276-25.293-24.776-42.559-26.055L211.673.014c25.043 1.874 47.526 15.63 61.68 37.747l-20.905 14.965zM183.937 31.22l-9.88-24.593c.495-.222.992-.445 1.493-.668l9.432 24.79c-.341.163-.689.314-1.045.47z" fill="#F0EDFF"/><path d="M274.843 94.791l-1.263-.157c.325-2.868.487-5.753.486-8.641 0-.719 0-1.43-.028-2.142l1.262-.04c.019.725.029 1.45.029 2.182a78.82 78.82 0 01-.486 8.798zm-1.074-15.7a72.694 72.694 0 00-.268-2.515l1.263-.17a88.2 88.2 0 01.271 2.558l-1.266.127zm-2.844-14.814c-4.564-15.126-13.675-28.257-25.946-37.393l.726-1.093c12.497 9.305 21.776 22.678 26.423 38.081l-1.203.405zm-32.148-41.498a72.031 72.031 0 00-2.841-1.567l.556-1.2a68.524 68.524 0 012.891 1.597l-.606 1.17zm-98.232 42.463l-1.212-.384c4.302-14.96 12.959-28.098 24.734-37.543 8.056-6.435 17.341-10.934 27.208-13.184a65.71 65.71 0 0129.924.156l-.278 1.303a64.666 64.666 0 00-15.05-1.77c-29.86-.007-56.725 21.141-65.326 51.422zm-.893 3.454l-1.228-.317c.066-.288.136-.572.205-.855l1.222.334-.199.838z" fill="#B3A4F5"/><path d="M139.589 68.96l-1.228-.31.063-.275 1.228.324-.063.26zm-2.945 23.075a78.226 78.226 0 01.303-15.202l1.262.167a76.901 76.901 0 00-.296 14.925l-1.269.11zm125.674-2.732l-1.263-.07a61.817 61.817 0 00-1.051-15.065l1.237-.271a63.421 63.421 0 011.077 15.406zm-3.687-20.761c-2.899-9.756-8.158-18.54-15.255-25.48l.855-.983c7.258 7.098 12.638 16.08 15.606 26.056l-1.206.407z" fill="#B3A4F5"/><path d="M249.159 91.534l-1.263-.157c.2-1.788.3-3.587.3-5.388 0-24.702-18.989-44.798-42.331-44.798-6.69.012-13.283 1.697-19.242 4.916-5.958 3.22-11.114 7.883-15.047 13.61l-1.023-.785c4.051-5.9 9.362-10.705 15.5-14.022s12.929-5.053 19.821-5.065c24.04 0 43.594 20.694 43.594 46.134a50.03 50.03 0 01-.309 5.555zm-82.722 14.144a46.897 46.897 0 01-1.092-2.673l1.175-.491c.315.866.681 1.734 1.06 2.583l-1.143.581zm39.437 26.446c-6.639.02-13.194-1.574-19.16-4.659-5.965-3.085-11.181-7.579-15.245-13.135l.997-.822c3.44 4.675 7.722 8.581 12.598 11.494a40.743 40.743 0 0015.808 5.472c5.56.699 11.195.226 16.581-1.395 5.385-1.62 10.413-4.355 14.793-8.045l.786 1.045c-7.699 6.539-17.286 10.085-27.158 10.045z" fill="#8B77E8"/><path d="M201.544 100.43l-10.53-3.123 7.708-35.7 13.768 4.086-10.946 34.737zm-1.642 6.258l-10.532-3.122-2.95 11.146 10.532 3.122 2.95-11.146z" fill="#fff"/><path d="M60.905 243.033H4.063l.638-4.169 1.247.214-.401 2.619h54.285l3.712-24.328H9.262l-.631 4.125-1.247-.214.802-5.248h56.841l-4.122 27.001z" fill="#B3A4F5"/><path d="M7.338 221.6L5.23 235.431l1.247.213 2.107-13.831-1.246-.213zm27.192 8.656l-.24-.11-25.823-12.153.511-1.222 25.586 12.042 19.406-7.91.455 1.249-19.895 8.104zm24.16-11.26l-1.854.754.454 1.247 1.853-.754-.454-1.247zm26.45-42.838H43.806l3.027-19.833h41.321l-3.014 19.833zm-39.838-1.337h38.762l2.62-17.159H47.91l-2.608 17.159z" fill="#B3A4F5"/><path d="M49.106 188.484H-2.796l3.772-24.723h51.905l-1.41 9.24-1.248-.214 1.175-7.69H2.053l-3.365 22.051h49.345l.704-4.62 1.246.214-.877 5.742z" fill="#B3A4F5"/><path d="M49.48 177.697l-.179 1.178 1.246.212.18-1.177-1.247-.213zm-8.432-21.372H30.54v1.337h10.508v-1.337zm56.011 97.842H78.433v1.336h18.626v-1.336z" fill="#B3A4F5"/><path d="M160.579 242.863h-1.66v1.336h1.66v-1.336z" fill="#CCC2FF"/><path d="M546.155 173.906a6.673 6.673 0 01-3.858-1.239 7.266 7.266 0 01-2.557-3.298 7.743 7.743 0 01-.396-4.246 7.497 7.497 0 011.901-3.763 6.84 6.84 0 013.555-2.011 6.597 6.597 0 014.013.418 7.052 7.052 0 013.116 2.707 7.658 7.658 0 011.171 4.083c0 1.949-.732 3.818-2.034 5.196-1.303 1.379-3.069 2.153-4.911 2.153zm0-13.362a5.46 5.46 0 00-3.156 1.014 5.942 5.942 0 00-2.093 2.698 6.332 6.332 0 00-.323 3.474 6.127 6.127 0 001.555 3.079 5.588 5.588 0 002.909 1.645 5.394 5.394 0 003.283-.342 5.76 5.76 0 002.549-2.215 6.256 6.256 0 00.958-3.34c0-1.595-.599-3.124-1.664-4.252-1.066-1.127-2.511-1.761-4.018-1.761zM392.616 79.552a6.676 6.676 0 01-3.858-1.238 7.278 7.278 0 01-2.558-3.298 7.752 7.752 0 01-.395-4.246 7.494 7.494 0 011.901-3.763 6.833 6.833 0 013.555-2.011 6.592 6.592 0 014.013.418 7.048 7.048 0 013.116 2.707 7.657 7.657 0 011.17 4.082c0 1.95-.731 3.819-2.034 5.197-1.302 1.378-3.068 2.152-4.91 2.152zm0-13.361a5.458 5.458 0 00-3.156 1.013 5.95 5.95 0 00-2.093 2.698 6.332 6.332 0 00-.323 3.474 6.124 6.124 0 001.555 3.08 5.59 5.59 0 002.909 1.645 5.39 5.39 0 003.282-.343 5.759 5.759 0 002.55-2.214 6.268 6.268 0 00.958-3.34c0-1.595-.599-3.125-1.664-4.252-1.066-1.128-2.511-1.761-4.018-1.761zm113.209 331.948h-1.262c0-3.012-1.131-5.901-3.144-8.031-2.012-2.13-4.742-3.326-7.588-3.326v-1.337c2.846 0 5.576-1.196 7.588-3.326 2.013-2.13 3.144-5.019 3.144-8.031h1.262c0 3.012 1.131 5.901 3.144 8.031 2.012 2.13 4.742 3.326 7.588 3.326v1.337c-2.846 0-5.576 1.196-7.588 3.326-2.013 2.13-3.144 5.019-3.144 8.031zm-8.15-12.026a11.969 11.969 0 014.634 3.053 12.872 12.872 0 012.885 4.904 12.886 12.886 0 012.887-4.903 11.982 11.982 0 014.635-3.054 11.968 11.968 0 01-4.635-3.053 12.886 12.886 0 01-2.887-4.903 12.88 12.88 0 01-2.879 4.901 11.949 11.949 0 01-4.627 3.055h-.013zM59.967 466.838h-1.262c0-3.012-1.13-5.901-3.143-8.031-2.013-2.13-4.743-3.326-7.59-3.326v-1.336c2.847 0 5.577-1.197 7.59-3.327 2.012-2.13 3.143-5.019 3.143-8.031h1.262c0 3.012 1.131 5.901 3.144 8.031 2.012 2.13 4.742 3.327 7.588 3.327v1.336c-2.846 0-5.576 1.196-7.588 3.326-2.013 2.13-3.144 5.019-3.144 8.031zm-8.15-12.025a11.964 11.964 0 014.635 3.054 12.887 12.887 0 012.884 4.906 12.883 12.883 0 012.886-4.906 11.968 11.968 0 014.636-3.054 11.984 11.984 0 01-4.632-3.046 12.891 12.891 0 01-2.89-4.895 12.877 12.877 0 01-2.888 4.894 11.97 11.97 0 01-4.63 3.047z" fill="#DDD6FF"/><path d="M257.51 194.533l-.527-.644.527.644z" fill="#7760DB"/><path d="M276.964 181.419l-.496-.304 4.088-7.463a3.28 3.28 0 001.947.48 3.329 3.329 0 001.871-.746 3.651 3.651 0 001.164-1.72 3.85 3.85 0 00.064-2.115 3.68 3.68 0 00-1.056-1.797 3.366 3.366 0 00-1.822-.872 3.275 3.275 0 00-1.972.346 3.531 3.531 0 00-1.459 1.447l-.473.865-5.388 9.838c-1.109 2.019-2.867 3.549-4.954 4.308a8.712 8.712 0 01-6.41-.173l-2.569 11.024h16.256l2.9-12.43a5.43 5.43 0 01-1.691-.688zm-6.335-12.233a3.639 3.639 0 002.87.416 3.853 3.853 0 002.322-1.832l6.891-12.573a9.148 9.148 0 01-3.947.4 9.298 9.298 0 01-3.765-1.312l-9.172-5.629a13.105 13.105 0 00-2.32 2.833l-1.61 2.632-4.312 7.062 13.043 8.003z" fill="#FF95A9"/><path d="M272.848 139.887a4.903 4.903 0 01-1.408.288l-7.872.424-1.395.882-.367.23a8.18 8.18 0 00-1.967 2.811 8.598 8.598 0 00-.68 3.423 8.594 8.594 0 00.731 3.411 8.143 8.143 0 002.008 2.778l1.61-2.632a13.129 13.129 0 012.32-2.833l9.172 5.629a9.284 9.284 0 003.766 1.313 9.145 9.145 0 003.946-.401l-6.891 12.573a3.853 3.853 0 01-2.322 1.832 3.643 3.643 0 01-2.87-.415l-13.043-8.017-6.133 10.021a5.03 5.03 0 00-.669 1.821 5.134 5.134 0 00.061 1.953c.145.64.412 1.242.783 1.77.372.527.841.97 1.378 1.3l7.891 4.844c.379.23.773.432 1.178.605a8.71 8.71 0 006.409.172c2.087-.759 3.846-2.289 4.954-4.308l5.388-9.837.473-.866a3.537 3.537 0 011.459-1.447 3.285 3.285 0 011.973-.346 3.36 3.36 0 011.821.873c.512.475.88 1.1 1.057 1.796a3.85 3.85 0 01-.065 2.115 3.637 3.637 0 01-1.164 1.72 3.288 3.288 0 01-3.818.267l-4.088 7.462.496.304a5.417 5.417 0 001.698.668 5.441 5.441 0 003.515-.392 5.862 5.862 0 002.628-2.501l2.288-4.178 5.079-9.267a12.55 12.55 0 001.461-4.589l-.688-.689a3.995 3.995 0 01-.77-1.079l-4.024-8.317a5.581 5.581 0 01.164-5.168 4.68 4.68 0 00-2.465-2.326 4.34 4.34 0 00-3.302.035c-.328-1.198-1.08-2.215-2.099-2.84l-.496-.304-4.514-2.769a5.113 5.113 0 01-2.597 2.201zm-13.043 25.511c1.698 1.002 1.039 6.855 1.039 6.855a8.992 8.992 0 00-2.191-2.045 4.313 4.313 0 00-1.96-.601s1.42-5.234 3.112-4.225v.016z" fill="#40327A"/><path d="M285.079 280.91c-.256 2.095-1.223 4.02-2.721 5.416-1.497 1.397-3.424 2.169-5.42 2.174h-27.382v1.336h27.382c2.304-.005 4.527-.896 6.256-2.507 1.728-1.612 2.844-3.834 3.138-6.252l5.514-45.867-.631-.084-.631-.087-5.505 45.871zm-50.371 7.59l.108 1.336h8.162V288.5h-8.27z" fill="#4F37B3"/><path d="M261.803 141.698l.366-.231 1.399-.882.801-.504v-.003l-2.196 1.386-4.173-7.406-3.627 1.376 4.548 8.084 2.882-1.82z" fill="#fff"/><path d="M262.173 141.464l2.209-1.386-.802.504 7.872-.424c.48-.026.954-.123 1.408-.287 1.266-.466 2.304-1.445 2.888-2.722a5.635 5.635 0 00.223-4.085c-.44-1.339-1.365-2.438-2.571-3.055a4.796 4.796 0 00-3.86-.237l-8.343 3.074-.034.016-3.157 1.196 4.167 7.406zm25.516 8.181c.089.499.247.982.467 1.433l4.025 8.317c.197.404.457.769.77 1.079l1.859 1.861 5.6-6.257-1.443-.965-1.354-7.473c-.282-1.359-1.055-2.548-2.153-3.314a4.825 4.825 0 00-3.727-.788c-1.292.261-2.436 1.045-3.19 2.186a5.59 5.59 0 00-.847 3.921h-.007z" fill="#FF95A9"/><path d="M339.565 182.311l-.104-.067-39.051-26.166 3.257 2.182-6.098 6.838 20.201 20.219-33.458 9.216h-8.523l-1.262 5.395-9.154 38.799-.931 3.955-8.033-34.039v-15.529l-5.341-6.541-.476.438-1.228-1.507.479-.434-3.216-3.942-.48.435-16.549-20.28 9.119-5.756.316.571 19.936-12.583-4.549-8.08-39.926 15.142-.116.043a8.563 8.563 0 00-3.239 2.19 9.2 9.2 0 00-2.015 3.464 9.615 9.615 0 00-.389 4.046 9.454 9.454 0 001.315 3.822l31.066 51.009c.304.499.64.977 1.004 1.429l-2.63 54.349h-38.13c-2.003 0-3.944.739-5.488 2.089-1.545 1.35-2.596 3.228-2.974 5.31l-16.906 93.799c-.065.35-.097.706-.098 1.063h10.656v.748l2.412-9.547-.609-.174 14.371-56.854.609.174 1.361-5.388-.61-.174.442-1.74.61.173 2.84-11.24h10.05l12.784 84.055.057-.033h10.662c0-.164 0-.334-.025-.488l-2.131-26.329-.631.056-.085-1.048-.202-2.512-.092-1.123-3.787-46.986.631-.057-.391-4.867-.108-1.336h8.267v.668h6.578v-.668h27.382c1.996-.005 3.923-.777 5.42-2.173 1.498-1.397 2.465-3.322 2.721-5.417l5.514-45.871.631.087 1.923-15.99 45.254-20.791a8.727 8.727 0 003.582-3.07 9.45 9.45 0 001.571-4.587 9.557 9.557 0 00-.89-4.786 8.94 8.94 0 00-3.096-3.615v.024z" fill="#7760DB"/><path d="M294.804 162.345l-1.859-1.861-.003.004.691.691 1.171 1.169 2.749 2.75 6.105-6.838-3.258-2.182-5.596 6.267zm-37.294 32.188l-.527-.644-.631-.772v15.486l.009.04 8.034 34.039-4.688-19.882 4.059-25.073h1.263l4.056 25.073-3.756 15.931 9.157-38.799 1.275-5.399H257.51z" fill="#fff"/><path d="M265.029 197.727h-1.262l-4.06 25.073 4.688 19.882h.003l.931-3.951 3.756-15.931-4.056-25.073zm-89.135 175.462l-6.127 3.535a1.639 1.639 0 00-.709.799 1.764 1.764 0 00-.089 1.093c.088.364.289.687.572.915.282.228.629.349.984.343h16.025v-6.681l-10.656-.004zm54.982 0l-.056.034-6.064 3.501a1.634 1.634 0 00-.71.8 1.757 1.757 0 00-.088 1.093c.088.365.29.687.573.915.283.228.63.349.986.342h16.022v-6.681l-10.663-.004z" fill="#40327A"/><path d="M238.382 341.746l.089 1.123.205 2.515.085 1.049.628-.057.628-.057-.287-3.564-3.892-48.109-.628.057-.628.057 3.8 46.986z" fill="#4F37B3"/><path d="M258.653 170.192a8.969 8.969 0 012.191 2.044s.659-5.846-1.039-6.854c-1.698-1.009-3.112 4.208-3.112 4.208a4.314 4.314 0 011.96.602z" fill="#fff"/><path d="M188.353 364.217l.609.174.609.174 14.371-56.855-.609-.173-.612-.174-14.368 56.854zm15.731-62.239l.61.171.609.173.442-1.74-.613-.174-.609-.17-.439 1.74zm46.182-117.346l-.479.438-.477.438 1.228 1.503.477-.438.476-.434-1.225-1.507zm-18.784-23.018l7.828-4.941-.325-.571-.322-.575-9.119 5.756 16.55 20.283.476-.438.48-.437-15.568-19.077z" fill="#4F37B3"/><path d="M236.056 270.922h34.535v-4.008h-34.535v4.008z" fill="#40327A"/><path d="M174.177 225.162l6.9 35.435.051.26 1.957 10.069h60.604l-8.908-45.764h-60.604z" fill="#fff"/><path d="M172.441 225.162l6.9 35.435.051.261 1.957 10.068h60.603l-8.907-45.764h-60.604z" fill="#C4B8FF"/><path d="M210.833 251.518c1.475-1.73 1.042-4.687-.966-6.605-2.009-1.918-4.833-2.071-6.308-.341-1.475 1.73-1.042 4.688.967 6.606 2.008 1.918 4.832 2.07 6.307.34z" fill="#fff"/><path d="M179.341 260.597l.051.26 1.957 10.068h60.603l-62.611-10.328z" fill="#DDD6FF"/><path d="M272.763 459.092h-2.526v33.047h2.526v-33.047z" fill="#FFC159"/><path d="M270.24 421.883v42.236a116.651 116.651 0 012.526-3.187v-39.049h-2.526z" fill="#FFAA45"/><path d="M275.474 434.226l-.559-1.2a122.542 122.542 0 0012.102-7.245l.682 1.126a124.028 124.028 0 01-12.225 7.319zm14.071-8.598l-.7-1.113c24.351-17.242 42.153-43.046 50.253-72.845l1.213.371c-8.164 30.112-26.151 56.185-50.766 73.587zm51.836-77.792l-1.225-.334c.185-.771.363-1.55.533-2.339l1.231.301c-.161.808-.353 1.59-.539 2.372zm-121.06 43.402a135.847 135.847 0 01-3.579-5.753l1.07-.704a126.794 126.794 0 003.548 5.678l-1.039.779zm50.191 44.488c-18.804-9.203-35.162-23.192-47.612-40.717l1.01-.801c12.328 17.35 28.525 31.197 47.145 40.305l-.543 1.213z" fill="#624AC9"/><path d="M345.156 317.404h-1.263v-27.561h-81.755v-1.337h83.018v28.898z" fill="#4F37B3"/><path d="M323.97 297.859h-64.951v1.337h64.951v-1.337zm10.943 0h-3.684v1.337h3.684v-1.337z" fill="#624AC9"/><path d="M176.974 251.751l-5.309-27.257h46.052v1.336h-44.503l4.994 25.651-1.234.27zm49.739-27.257h-5.524v1.336h5.524v-1.336z" fill="#7760DB"/><path d="M531.478 263.025h-73.729l2.718-1.279c1.941-.914 3.589-2.404 4.746-4.289a12.118 12.118 0 001.772-6.334v-27.625c.004-3.433 1.295-6.724 3.589-9.151 2.294-2.428 5.405-3.793 8.649-3.796h52.255c3.243.004 6.353 1.37 8.646 3.797 2.294 2.427 3.584 5.718 3.588 9.15v26.567c-.001 3.434-1.29 6.729-3.583 9.159-2.294 2.43-5.406 3.797-8.651 3.801zm-68.378-1.336h68.378c2.909-.004 5.698-1.229 7.754-3.407 2.057-2.177 3.214-5.129 3.218-8.207v-26.567c-.004-3.078-1.161-6.03-3.218-8.206-2.057-2.177-4.845-3.402-7.754-3.405h-52.255c-2.91.003-5.699 1.227-7.757 3.403-2.057 2.177-3.215 5.129-3.218 8.208v27.615c0 2.069-.467 4.107-1.362 5.945a12.778 12.778 0 01-3.786 4.621z" fill="#B3A4F5"/><path d="M532.241 224.791h-54.35v1.336h54.35v-1.336zm-34.512 5.996h-19.838v1.336h19.838v-1.336zm34.512 6.307h-54.35v1.336h54.35v-1.336zm-34.512 6.31h-19.838v1.336h19.838v-1.336z" fill="#B3A4F5"/><path d="M531.478 263.025h-70.752a.607.607 0 01-.4-.147.676.676 0 01-.222-.381.707.707 0 01.055-.444.655.655 0 01.308-.307c1.941-.914 3.589-2.404 4.746-4.289a12.124 12.124 0 001.772-6.333v-27.626c.004-3.433 1.295-6.724 3.589-9.151 2.294-2.428 5.405-3.793 8.649-3.796h52.255c3.243.004 6.353 1.37 8.646 3.797 2.294 2.427 3.584 5.718 3.588 9.15v26.567c-.001 3.434-1.29 6.729-3.583 9.159-2.294 2.43-5.406 3.797-8.651 3.801zm-68.379-1.336h68.379c2.909-.004 5.698-1.229 7.754-3.407 2.057-2.177 3.214-5.129 3.218-8.207v-26.567c-.004-3.078-1.161-6.03-3.218-8.206-2.057-2.177-4.845-3.402-7.754-3.405h-52.255c-2.91.003-5.699 1.227-7.757 3.403-2.058 2.177-3.215 5.129-3.218 8.208v27.616c0 2.068-.467 4.106-1.362 5.944a12.77 12.77 0 01-3.787 4.621z" fill="#B3A4F5"/><path d="M523.031 230.787h-19.838v1.336h19.838v-1.336z" fill="#B3A4F5"/><path d="M433.637 36.741h-10.163v1.337h10.163V36.74z" fill="#DDD6FF"/><path d="M429.187 32.031h-1.263v10.757h1.263V32.03zm-83.141 7.126L328.973 69.49l11.669-1.79-26.514 34.506-3.602-6.728-15.599 22.555 13.898-41.528 6.944 14.033 11.439-15.065-13.794 1.864 32.632-38.181z" fill="#DDD6FF"/><path d="M299.049 129.742l42.12-12.917-10.697-6.203 17.228-20.47-38.237 21.699 7.793 4.52-18.207 13.371z" fill="#B3A4F5"/></g><defs><clipPath id="clip0"><path fill="#fff" transform="translate(-55)" d="M0 0h632v612H0z"/></clipPath></defs></svg>