<svg width="521" height="525" fill="none" xmlns="http://www.w3.org/2000/svg"><g clip-path="url(#clip0)"><path d="M103.152 494.82h325.223c109.777-63.852 141.392-141.975 130.641-179.895-13.51-47.68-47.716-61.764-84.206-86.817-43.871-30.124 32.859-107.835 25.159-149.012-12.163-65.34-105.426-61.11-197.884 102.371-38.969 68.923-92.402-59.8-135.974-74.923-40.457-14.037-162.565 49.403-36.256 192.248 40.204 45.481-158.036 64.628-26.703 196.028z" fill="#F8F7FF"/><path d="M65.643 277.951c-.617-5.615-2.245-9.406-6.119-11.511-11.48-6.223-40.297 3.874-52.273 19.465-16.71 21.739-1.469 55.167 14.755 57.301 18.89 2.48 46.828-36.385 43.637-65.255z" fill="#F8F7FF"/><path d="M302.291 508.866H145.218v1.872h157.073v-1.872zm-110.03 14.262h-64.82V525h64.82v-1.872zm177.17 0H234V525h135.431v-1.872zm-251.383-14.046H77.039v1.871h41.009v-1.871zm336.543-.216H333.662v1.872h120.929v-1.872z" fill="#DDD6FF"/><path d="M523.276 493.884H32.943v1.871h490.333v-1.871z" fill="#C4B8FF"/><path d="M460.299 493.884H451.7v1.871h8.599v-1.871zm-20.612 0h-43.151v1.871h43.151v-1.871zm-275.288 0H151.3v1.871h13.099v-1.871zm169.263 0H176.683v1.871h156.979v-1.871z" fill="#40327A"/><path d="M363.349 0h-1.871v5.25h1.871V0zm0 31.5h-1.871v5.25h1.871V31.5zm-9.316-29.518l-1.62.936 2.624 4.547 1.621-.936-2.625-4.547zm15.747 27.289l-1.621.936 2.625 4.546 1.62-.935-2.624-4.547zM346.969 8.377l-.935 1.621 4.545 2.625.936-1.62-4.546-2.626zm27.283 15.76l-.935 1.621 4.545 2.625.936-1.62-4.546-2.626zm-24.965-6.702h-5.249v1.871h5.249v-1.871zm31.493 0h-5.249v1.871h5.249v-1.871zm-30.201 6.674l-4.546 2.625.936 1.62 4.545-2.624-.935-1.621zm27.273-15.741l-4.546 2.625.936 1.62 4.545-2.624-.935-1.621zm-22.836 20.885l-2.624 4.547 1.621.936 2.623-4.547-1.62-.936zm15.742-27.276l-2.624 4.547 1.621.935 2.624-4.547-1.621-.935zM40.045 212.845h-1.871a10.546 10.546 0 00-10.536-10.537v-1.872a10.544 10.544 0 0010.498-10.538h1.871a10.544 10.544 0 0010.526 10.538v1.872a10.54 10.54 0 00-10.488 10.537zm-7.682-11.473a12.462 12.462 0 016.746 6.738 12.444 12.444 0 016.737-6.738 12.465 12.465 0 01-6.737-6.748 12.484 12.484 0 01-6.746 6.748z" fill="#C4B8FF"/><path d="M435.462 96.59l-.113 2.525 1.87.083.112-2.524-1.869-.084z" fill="#40327A"/><path d="M524.052 163.938a50.744 50.744 0 01-14.455-2.985c-13.099-5.166-18.498-19.016-32.158-23.395-13.66-4.38-27.863 17.041-27.863 17.041l-1.515 4.005a43.29 43.29 0 016.437-4.997c5.614-3.575 7.419.496 7.419.496a12.163 12.163 0 011.937-3.098 8.805 8.805 0 00-.281 1.264c-.626 4.679.824 7.346 2.049 8.656a13.014 13.014 0 012.807-5.924c-1.113 3.744-1.534 7.796.085 10.8 2.236 4.174 4.958 5.484 6.717 5.83-1.235-2.218-1.45-5.615-1.001-9.358 2.807 13.532 17.655 13.653 17.655 13.653s-4.36-2.807-8.86-11.229a22.461 22.461 0 007.962 6.953c8.037 3.949 13.389 1.544 14.615.477a36.48 36.48 0 01-13.651-7.749l.711.393c20.322 10.959 31.39-.833 31.39-.833zM334.018 95.455a50.964 50.964 0 0012.818 7.28c13.22 4.745 26.459-2.058 39.577 3.744 13.117 5.802 9.665 31.2 9.665 31.2l-1.516 4.006a43.544 43.544 0 00-1.535-8.002c-1.871-6.41-5.894-4.529-5.894-4.529.376-1.165.575-2.379.589-3.603-.181.392-.39.77-.626 1.132-2.63 3.94-5.465 4.969-7.252 5.147a12.955 12.955 0 001.825-6.289c-1.666 3.585-3.995 6.869-7.186 8.058-4.444 1.656-7.344.833-8.897-.066 2.385-.842 4.818-3.275 6.923-6.363-11.04 8.31-22.268-1.413-22.268-1.413s5.156.748 14.091-2.611c-3.47.847-7.093.847-10.563 0-8.655-2.34-11.078-7.683-11.284-9.293a36.337 36.337 0 0015.325 3.163l-.785-.178c-22.502-5.203-23.007-21.383-23.007-21.383z" fill="#FFD4CC"/><path d="M428.432 173.381c16.721 0 30.276-13.558 30.276-30.283s-13.555-30.284-30.276-30.284c-16.722 0-30.277 13.559-30.277 30.284s13.555 30.283 30.277 30.283z" fill="#FFD259"/><path d="M428.422 174.326a31.232 31.232 0 01-20.995-8.113l1.263-1.385a29.36 29.36 0 0032.447 4.728 29.362 29.362 0 009.207-6.928l1.403 1.245a31.332 31.332 0 01-23.325 10.453zm26.113-14.103l-1.562-1.029a28.752 28.752 0 002.404-4.492l1.722.739a31.307 31.307 0 01-2.564 4.782zm1.497-27.083a28.31 28.31 0 00-.87-2.124 29.302 29.302 0 00-31.811-16.845l-.327-1.872a31.155 31.155 0 0133.869 17.884c.337.739.646 1.497.936 2.265l-1.797.692zm-58.701 12.737a31.258 31.258 0 014.145-18.516 31.24 31.24 0 0114.091-12.703 23.555 23.555 0 011.871-.768l.655 1.75c-.571.225-1.151.459-1.722.721a29.386 29.386 0 00-17.15 29.357l-1.89.159z" fill="#FF9D45"/><path d="M407.427 166.213a31.536 31.536 0 01-9.244-15.357l1.815-.468a29.682 29.682 0 001.693 4.81 29.313 29.313 0 006.999 9.63l-1.263 1.385z" fill="#FF9D45"/><path d="M438.976 166.437a25.597 25.597 0 01-35.477-17.538 25.612 25.612 0 0110.039-26.617 25.595 25.595 0 0138.219 10.269 25.509 25.509 0 01-4.629 28.092 25.487 25.487 0 01-8.152 5.794z" fill="#FFE159"/><path d="M451.757 132.551l-46.651 21.112a25.64 25.64 0 01-.617-19.587 25.63 25.63 0 0113.398-14.299 25.611 25.611 0 0133.87 12.774z" fill="#FFC359"/><path d="M264.726 279.738l23.063-.028v3.902l-25.374 19.185 2.311-23.059z" fill="#C4B8FF"/><path d="M296.181 282.197a7.486 7.486 0 10-14.809-2.19 7.486 7.486 0 1014.809 2.19z" fill="#FF95A9"/><path d="M294.216 275.639a5.626 5.626 0 002.429 2.178 5.618 5.618 0 007.643-7.021 5.623 5.623 0 00-5.043-3.679 5.612 5.612 0 00-5.684 4.285 5.619 5.619 0 00.655 4.237z" fill="#FF95A9"/><path d="M294.291 286.177l8.861-9.639-7.036-8.61-11.209 6.766 9.384 11.483z" fill="#FF95A9"/><path d="M332.244 211.173c4.721-5.234 4.307-13.306-.926-18.028-5.233-4.723-13.303-4.309-18.024.926-4.722 5.234-4.308 13.305.925 18.028 5.233 4.722 13.303 4.308 18.025-.926z" fill="#7760DB"/><path d="M260.478 196.019l58.392 18.782 10.086-23.321-53.677-29.657-14.801 34.196z" fill="#7760DB"/><path d="M304.144 275.049l-10.582-3.603 16.795-71.712 24.055 8.17-26.404 58.573-2.301 5.11-1.563 3.462z" fill="#7760DB"/><path d="M304.143 275.05l-10.581-3.603 2.432-10.388 12.014 5.418-2.302 5.11-1.563 3.463z" fill="#fff"/><path d="M304.134 275.049l-10.582-3.593 1.132-4.829 11.012 4.96-1.562 3.462z" fill="#FF95A9"/><path d="M199.962 279.71l-23.064.028.01 3.902 25.421 19.119-2.367-23.049z" fill="#C4B8FF"/><path d="M214.287 196.381c8.561-5.791 10.807-17.426 5.018-25.989-5.79-8.563-17.423-10.81-25.984-5.019-8.56 5.791-10.807 17.427-5.017 25.989 5.789 8.563 17.422 10.81 25.983 5.019zm.131 102.724c6.964-1.124 11.697-7.681 10.573-14.646-1.124-6.965-7.68-11.7-14.643-10.575-6.963 1.124-11.697 7.681-10.573 14.646 1.124 6.965 7.68 11.7 14.643 10.575zm48.263-3.459c5.087-4.887 5.251-12.973.365-18.062-4.885-5.088-12.97-5.252-18.057-.366-5.088 4.887-5.251 12.974-.366 18.062 4.886 5.089 12.97 5.252 18.058.366z" fill="#7760DB"/><path d="M267.214 273.636l-.608 12.774v.627a12.781 12.781 0 01-12.743 12.166l-41.392.047a12.762 12.762 0 01-12.771-12.166v-.627l-.646-12.774 68.16-.047z" fill="#7760DB"/><path d="M225.148 285.905l3.556 79.218-21.622.973-7.439-79.049 25.505-1.142zm4.665 205.639a7.899 7.899 0 00-7.408-13.951 7.899 7.899 0 007.408 13.951z" fill="#7760DB"/><path d="M222.678 166.671l16.926 67.427 11.854-47.746-.018-19.709-28.762.028z" fill="#fff"/><path d="M222.841 375.204c5.32-2.728 7.421-9.254 4.693-14.575-2.728-5.321-9.253-7.422-14.572-4.694-5.32 2.729-7.421 9.255-4.693 14.576 2.728 5.321 9.252 7.422 14.572 4.693z" fill="#7760DB"/><path d="M218.253 484.872l-11.171-118.776 21.622-.973 5.324 119.047-15.775.702z" fill="#7760DB"/><path d="M248.701 137.723l-23.302-2.031-3.007 34.514 23.303 2.031 3.006-34.514z" fill="#FF95A9"/><path d="M210.281 493.884h23.747v-9.359h-15.794l-9.066 4.942a2.348 2.348 0 00-.538 3.723 2.358 2.358 0 001.651.694z" fill="#40327A"/><path d="M256.735 483.206a7.893 7.893 0 01-3.57 8.018 7.894 7.894 0 01-11.586-3.854 7.899 7.899 0 0111.934-9.275 7.895 7.895 0 013.222 5.111z" fill="#7760DB"/><path d="M264.8 493.884h-23.746v-9.359h15.803l9.075 4.942a2.355 2.355 0 011.217 2.068 2.352 2.352 0 01-2.349 2.349z" fill="#40327A"/><path d="M241.054 286.41v198.097l15.784.411 9.749-197.853-25.533-.655z" fill="#7760DB"/><path d="M257.036 461.083l-1.231 24.613 1.871.093 1.231-24.612-1.871-.094zm3.087-80.461l-3.622 73.289 1.869.093 3.622-73.289-1.869-.093zm.382-8.14l-.245 4.991 1.869.092.245-4.991-1.869-.092zm167.244-213.4a7.744 7.744 0 01-1.385-.122 20.068 20.068 0 01-6.858-2.592 7.76 7.76 0 01-3.247-9.359l.459-1.216 1.749.664-.458 1.217a5.884 5.884 0 002.46 7.131 18.43 18.43 0 006.232 2.349 5.9 5.9 0 006.395-3.404 5.905 5.905 0 00-1.717-7.04l-7.12-5.615a7.778 7.778 0 011.195-12.982 7.769 7.769 0 014.998-.775 20.082 20.082 0 016.859 2.593 7.776 7.776 0 013.256 9.358l-.459 1.216-1.759-.664.459-1.217a5.888 5.888 0 00-2.461-7.131 18.264 18.264 0 00-6.231-2.349 5.901 5.901 0 00-6.396 3.404 5.905 5.905 0 001.718 7.04l7.12 5.615a7.778 7.778 0 01-4.809 13.879zm6.274-38.422l-1.991 5.349 1.759.655 1.991-5.349-1.759-.655z" fill="#40327A"/><path d="M422.308 156.737l-2.008 5.324 1.751.66 2.008-5.323-1.751-.661z" fill="#40327A"/><path d="M357.015 362.1a79.191 79.191 0 01-9.403-1.085l.328-1.872c3.035.54 6.1.893 9.178 1.058l-.103 1.899zm9.469-.103l-.141-1.871a64.838 64.838 0 009.113-1.339l.403 1.825a67.114 67.114 0 01-9.375 1.385zm-28.069-3.172a89.66 89.66 0 01-8.898-3.191l.721-1.722a88.129 88.129 0 008.71 3.116l-.533 1.797zm46.538-.936l-.674-1.75a56.653 56.653 0 008.29-3.968l.936 1.619a59.568 59.568 0 01-8.552 4.118v-.019zm-63.95-6.364a100.29 100.29 0 01-8.065-4.913l1.048-1.544a100.355 100.355 0 007.915 4.81l-.898 1.647zm80.286-3.191l-1.198-1.432a52.453 52.453 0 006.55-6.485l1.431 1.207a54.303 54.303 0 01-6.783 6.729v-.019zm-95.93-7.346a113.199 113.199 0 01-7.054-6.261l1.3-1.347a109.887 109.887 0 006.943 6.157l-1.189 1.451zm108.13-7.131l-1.618-.936a55.33 55.33 0 003.939-8.301l1.749.665a58.151 58.151 0 01-4.07 8.591v-.019zm-121.696-5.933a132.022 132.022 0 01-5.988-7.281l1.488-1.142a113.697 113.697 0 005.894 7.178l-1.394 1.245zm128.433-11.745l-1.825-.393a69.956 69.956 0 001.301-9.124l1.871.14a70.68 70.68 0 01-1.347 9.396v-.019zm-139.866-3.21c-.431-.655-.871-1.329-1.301-2.012l1.581-1.001c.431.674.852 1.329 1.282 1.984l-1.562 1.029zm139.473-15.525a90.723 90.723 0 00-.936-9.218l1.872-.271c.468 3.117.78 6.256.935 9.405l-1.871.084zm-2.657-18.324c-.412-1.722-.88-3.481-1.385-5.222a420.18 420.18 0 01-1.057-3.743l1.806-.487c.336 1.236.683 2.49 1.047 3.744.515 1.769.936 3.556 1.404 5.315l-1.815.393zm-4.678-18.136a298.815 298.815 0 01-1.872-9.218l1.872-.318c.533 3.041 1.15 6.12 1.871 9.134l-1.871.402zm-3.247-18.501a209.13 209.13 0 01-1.001-9.359l1.871-.159c.262 3.079.59 6.195.992 9.265l-1.862.253zm-1.562-18.717c-.094-2.461-.141-4.95-.141-7.402v-2.003h1.872v1.984c0 2.424-.001 4.894.13 7.327l-1.861.094zm2.058-18.717l-1.871-.112c.177-3.163.449-6.317.795-9.358l1.871.215a162.849 162.849 0 00-.804 9.265l.009-.01zm2.086-18.501l-1.871-.318c1.02-5.877 1.956-9.115 1.993-9.255l1.796.524s-.907 3.303-1.918 9.049z" fill="#DDD6FF"/><path d="M283.856 184.392c3.429-9.751-1.694-20.436-11.443-23.866-9.749-3.431-20.432 1.694-23.861 11.445-3.43 9.751 1.693 20.437 11.442 23.867 9.75 3.43 20.433-1.694 23.862-11.446z" fill="#7760DB"/><path d="M271.677 180.362l-4.463 93.274-68.226.085-4.678-93.265a13.107 13.107 0 017.93-12.701 13.102 13.102 0 015.169-1.056l51.216-.065a13.092 13.092 0 0112.245 8.533c.617 1.659.892 3.427.807 5.195z" fill="#7760DB"/><path d="M251.44 166.643l.018 19.709-4.94 19.886-6.914 27.86-6.989-27.841-9.937-39.577 28.762-.037z" fill="#fff"/><path d="M246.518 206.238l-6.914 27.86-6.989-27.841 5.969-35.131h1.871l6.063 35.112z" fill="#40327A"/><path d="M187.639 287.618a7.491 7.491 0 00-.384-8.306 7.49 7.49 0 00-3.479-2.6 7.49 7.49 0 00-8.072 1.989 7.493 7.493 0 00-1.257 8.219 7.489 7.489 0 005.65 4.233 7.491 7.491 0 005.571-1.373 7.48 7.48 0 001.971-2.162z" fill="#FF95A9"/><path d="M175.804 278.259a5.614 5.614 0 11-9.601-5.82 5.614 5.614 0 019.601 5.82z" fill="#FF95A9"/><path d="M175.719 288.825l-8.86-9.63 7.036-8.609 11.209 6.766-9.385 11.473z" fill="#FF95A9"/><path d="M151.253 217.431a12.767 12.767 0 01-13.669-3.773 12.775 12.775 0 01-1.746-14.075 12.76 12.76 0 0124.132 6.657 12.782 12.782 0 01-1.324 4.803 12.78 12.78 0 01-7.393 6.388z" fill="#7760DB"/><path d="M209.533 198.667l-58.383 18.791-10.095-23.32 53.686-29.657 14.792 34.186z" fill="#7760DB"/><path d="M165.867 277.707l10.582-3.603-16.794-71.712-24.055 8.17 26.403 58.564 2.311 5.119 1.553 3.462z" fill="#7760DB"/><path d="M165.867 277.707l10.582-3.603-2.432-10.378-12.014 5.4 2.311 5.119 1.553 3.462z" fill="#fff"/><path d="M165.877 277.707l10.582-3.593-1.132-4.829-11.013 4.96 1.563 3.462z" fill="#FF95A9"/><path d="M211.233 198.057c9.485-4.103 13.849-15.121 9.746-24.609-4.103-9.487-15.118-13.851-24.604-9.748-9.485 4.104-13.848 15.121-9.746 24.609 4.103 9.487 15.118 13.852 24.604 9.748z" fill="#7760DB"/><path d="M268.019 134.282l-3.35-.59 3.977-22.609 3.349.589a11.491 11.491 0 017.433 4.704 11.483 11.483 0 01.298 12.772 11.465 11.465 0 01-7.218 5.046 11.46 11.46 0 01-4.489.088zm-44.982-3.954l16.753 2.945-3.078 17.512-8.376-1.472a8.505 8.505 0 01-6.904-9.851l1.62-9.217-.015.083z" fill="#40327A"/><path d="M261.856 102.626l8.128 1.429a10.207 10.207 0 018.286 11.824l-1.751 9.963a9.228 9.228 0 01-10.683 7.491l-9.095-1.599 5.115-29.108z" fill="#40327A"/><path d="M257.427 163.227l-21.369-3.743a8.5 8.5 0 01-6.896-9.836l4.416-25.127a18.723 18.723 0 017.688-12.098 18.717 18.717 0 0113.991-3.109 18.713 18.713 0 0115.372 20.785l-3.256 25.819a8.506 8.506 0 01-9.946 7.309z" fill="#FF95A9"/><path d="M244.895 104.251l2.507.441-5.542 31.531-19.259-3.386 2.592-14.747a17 17 0 016.982-11.006 17.008 17.008 0 0112.72-2.833z" fill="#40327A"/><path d="M231.277 137.586l5.024.889.88-5.026a5.108 5.108 0 00-4.136-5.914 5.107 5.107 0 00-5.868 6.136 5.1 5.1 0 004.1 3.915z" fill="#FF95A9"/><path d="M274.119 125.476l-19.077-3.35a14.348 14.348 0 01-11.63-16.583 6.808 6.808 0 0112.291-2.697 6.813 6.813 0 011.116 5.092.702.702 0 00.571.824l19.077 3.35-2.348 13.364z" fill="#40327A"/><path d="M268.178 117.521l-9.497-1.665a6.81 6.81 0 01-4.391-2.797 6.805 6.805 0 016.749-10.604l9.487 1.665a6.803 6.803 0 11-2.348 13.401zm-1.703 45.229a6.815 6.815 0 01-2.712 4.629 6.807 6.807 0 01-5.222 1.229l-13.314-2.339a13.605 13.605 0 01-11.04-15.76l2.76-15.684 5.024.879a5.674 5.674 0 004.603 6.551l22.006 3.865-2.105 16.63z" fill="#40327A"/><path d="M254.228 154.515a4.247 4.247 0 014.949-3.519c1.974.393 2.994 2.667 2.573 4.791l-7.522-1.272z" fill="#fff"/><path d="M228.348 394.33l-4.35-96.961 14.596-.019v1.872l-12.641.019 4.267 95.005-1.872.084zm2.199 7.669l-1.87.084.339 7.582 1.87-.084-.339-7.582zm37.077-151.275l-.808 16.162 1.871.094.808-16.162-1.871-.094zm-.814-7.595l-.144 3.029 1.869.089.145-3.029-1.87-.089zm2.182-6.561l-1.871-.084 1.89-39.679 35.553 11.436-.58 1.778-33.214-10.687-1.778 37.236zm-96.88 19.101l-1.822.427.753 3.216 1.822-.426-.753-3.217zm-2.979-4.596l-9.001-38.471 18.067-5.812.571 1.778-16.43 5.288 8.617 36.796-1.824.421zm31.688-51.561l-18.663 5.993.572 1.782 18.663-5.993-.572-1.782z" fill="#40327A"/></g><defs><clipPath id="clip0"><path fill="#fff" d="M0 0h561v525H0z"/></clipPath></defs></svg>