<svg width="521" height="525" viewBox="0 0 521 525" fill="none" xmlns="http://www.w3.org/2000/svg">
<g clip-path="url(#clip0)">
<path d="M103.152 494.82H428.375C538.152 430.968 569.767 352.845 559.016 314.925C545.506 267.245 511.3 253.161 474.81 228.108C430.939 197.984 507.669 120.273 499.969 79.0963C487.806 13.7568 394.543 17.9867 302.085 181.467C263.116 250.39 209.683 121.667 166.111 106.544C125.654 92.5068 3.54589 155.947 129.855 298.792C170.059 344.273 -28.1811 363.42 103.152 494.82Z" fill="#F8F7FF"/>
<path d="M65.6433 277.951C65.0258 272.336 63.3978 268.545 59.5243 266.44C48.0442 260.217 19.227 270.314 7.25103 285.905C-9.45921 307.644 5.7821 341.072 22.0058 343.206C40.8961 345.686 68.8338 306.821 65.6433 277.951Z" fill="#F8F7FF"/>
<path d="M302.291 508.866H145.218V510.738H302.291V508.866Z" fill="#DDD6FF"/>
<path d="M192.261 523.128H127.441V525H192.261V523.128Z" fill="#DDD6FF"/>
<path d="M369.431 523.128H234V525H369.431V523.128Z" fill="#DDD6FF"/>
<path d="M118.048 509.082H77.0393V510.953H118.048V509.082Z" fill="#DDD6FF"/>
<path d="M454.591 508.866H333.662V510.738H454.591V508.866Z" fill="#DDD6FF"/>
<path d="M523.276 493.884H32.9434V495.755H523.276V493.884Z" fill="#C4B8FF"/>
<path d="M460.299 493.884H451.7V495.755H460.299V493.884Z" fill="#40327A"/>
<path d="M439.687 493.884H396.536V495.755H439.687V493.884Z" fill="#40327A"/>
<path d="M164.399 493.884H151.3V495.755H164.399V493.884Z" fill="#40327A"/>
<path d="M333.662 493.884H176.683V495.755H333.662V493.884Z" fill="#40327A"/>
<path d="M363.349 0H361.478V5.25H363.349V0Z" fill="#C4B8FF"/>
<path d="M363.349 31.5H361.478V36.75H363.349V31.5Z" fill="#C4B8FF"/>
<path d="M354.033 1.98238L352.413 2.91821L355.037 7.46485L356.658 6.52902L354.033 1.98238Z" fill="#C4B8FF"/>
<path d="M369.78 29.271L368.159 30.2068L370.784 34.7534L372.404 33.8176L369.78 29.271Z" fill="#C4B8FF"/>
<path d="M346.969 8.37739L346.034 9.99829L350.579 12.6233L351.515 11.0024L346.969 8.37739Z" fill="#C4B8FF"/>
<path d="M374.252 24.1372L373.317 25.7581L377.862 28.3831L378.798 26.7622L374.252 24.1372Z" fill="#C4B8FF"/>
<path d="M349.287 17.4346H344.038V19.3062H349.287V17.4346Z" fill="#C4B8FF"/>
<path d="M380.78 17.4346H375.531V19.3062H380.78V17.4346Z" fill="#C4B8FF"/>
<path d="M350.579 24.1086L346.033 26.7336L346.969 28.3545L351.514 25.7296L350.579 24.1086Z" fill="#C4B8FF"/>
<path d="M377.852 8.36791L373.306 10.9929L374.242 12.6138L378.787 9.98882L377.852 8.36791Z" fill="#C4B8FF"/>
<path d="M355.016 29.2535L352.392 33.8005L354.013 34.7361L356.636 30.189L355.016 29.2535Z" fill="#C4B8FF"/>
<path d="M370.758 1.97658L368.134 6.52368L369.755 7.45923L372.379 2.91212L370.758 1.97658Z" fill="#C4B8FF"/>
<path d="M40.0448 212.845H38.1736C38.1711 210.051 37.0603 207.372 35.0852 205.397C33.11 203.421 30.4318 202.31 27.6384 202.308V200.436C30.4253 200.424 33.0939 199.308 35.061 197.334C37.0281 195.359 38.1337 192.686 38.1361 189.898H40.0074C40.0098 192.691 41.1193 195.368 43.0925 197.344C45.0656 199.319 47.7414 200.431 50.5331 200.436V202.308C47.7479 202.322 45.0817 203.439 43.1166 205.413C41.1515 207.387 40.0472 210.059 40.0448 212.845ZM32.3633 201.372C35.4159 202.635 37.8422 205.058 39.1092 208.11C39.7345 206.599 40.6514 205.226 41.8072 204.07C42.9631 202.914 44.3354 201.997 45.8457 201.372C42.7949 200.104 40.3719 197.678 39.1092 194.624C37.8426 197.678 35.4165 200.105 32.3633 201.372Z" fill="#C4B8FF"/>
<path d="M435.462 96.5902L435.349 99.1145L437.219 99.1978L437.331 96.6735L435.462 96.5902Z" fill="#40327A"/>
<path d="M524.052 163.938C519.114 163.653 514.244 162.647 509.597 160.953C496.498 155.787 491.099 141.937 477.439 137.558C463.779 133.178 449.576 154.599 449.576 154.599L448.061 158.604C450.045 156.74 452.2 155.066 454.498 153.607C460.112 150.032 461.917 154.103 461.917 154.103C462.403 152.979 463.056 151.934 463.854 151.005C463.729 151.419 463.636 151.841 463.573 152.269C462.947 156.948 464.397 159.615 465.622 160.925C466.037 158.743 467.003 156.704 468.429 155.001C467.316 158.745 466.895 162.797 468.514 165.801C470.75 169.975 473.472 171.285 475.231 171.631C473.996 169.413 473.781 166.016 474.23 162.273C477.037 175.805 491.885 175.926 491.885 175.926C491.885 175.926 487.525 173.119 483.025 164.697C485.088 167.615 487.818 169.999 490.987 171.65C499.024 175.599 504.376 173.194 505.602 172.127C500.543 170.565 495.885 167.921 491.951 164.378L492.662 164.771C512.984 175.73 524.052 163.938 524.052 163.938Z" fill="#FFD4CC"/>
<path d="M334.018 95.4546C337.915 98.4898 342.233 100.942 346.836 102.735C360.056 107.48 373.295 100.677 386.413 106.479C399.53 112.281 396.078 137.679 396.078 137.679L394.562 141.685C394.301 138.975 393.788 136.296 393.027 133.683C391.156 127.273 387.133 129.154 387.133 129.154C387.509 127.989 387.708 126.775 387.722 125.551C387.541 125.943 387.332 126.321 387.096 126.683C384.466 130.623 381.631 131.652 379.844 131.83C380.981 129.925 381.609 127.759 381.669 125.541C380.003 129.126 377.674 132.41 374.483 133.599C370.039 135.255 367.139 134.432 365.586 133.533C367.971 132.691 370.404 130.258 372.509 127.17C361.469 135.48 350.241 125.757 350.241 125.757C350.241 125.757 355.397 126.505 364.332 123.146C360.862 123.993 357.239 123.993 353.769 123.146C345.114 120.806 342.691 115.463 342.485 113.853C347.303 116.008 352.533 117.087 357.81 117.016L357.025 116.838C334.523 111.635 334.018 95.4546 334.018 95.4546Z" fill="#FFD4CC"/>
<path d="M428.432 173.381C445.153 173.381 458.708 159.823 458.708 143.098C458.708 126.373 445.153 112.814 428.432 112.814C411.71 112.814 398.155 126.373 398.155 143.098C398.155 159.823 411.71 173.381 428.432 173.381Z" fill="#FFD259"/>
<path d="M428.422 174.326C420.659 174.325 413.174 171.433 407.427 166.213L408.69 164.828C411.562 167.434 414.921 169.446 418.574 170.748C422.228 172.049 426.102 172.614 429.975 172.409C433.848 172.205 437.641 171.235 441.137 169.556C444.633 167.878 447.762 165.523 450.344 162.628L451.747 163.873C448.812 167.157 445.218 169.785 441.199 171.587C437.18 173.388 432.826 174.321 428.422 174.326Z" fill="#FF9D45"/>
<path d="M454.535 160.223L452.973 159.194C453.906 157.771 454.71 156.267 455.377 154.702L457.099 155.441C456.384 157.106 455.527 158.706 454.535 160.223Z" fill="#FF9D45"/>
<path d="M456.032 133.14C455.77 132.42 455.48 131.709 455.162 131.016C452.489 125.069 447.909 120.184 442.147 117.133C436.386 114.082 429.771 113.04 423.351 114.171L423.024 112.299C429.854 111.083 436.895 112.182 443.03 115.421C449.166 118.661 454.044 123.856 456.893 130.183C457.23 130.922 457.539 131.68 457.829 132.448L456.032 133.14Z" fill="#FF9D45"/>
<path d="M397.331 145.877C396.761 139.425 398.209 132.954 401.476 127.361C404.743 121.768 409.667 117.329 415.567 114.658C416.175 114.377 416.792 114.124 417.438 113.89L418.093 115.64C417.522 115.865 416.942 116.099 416.371 116.361C410.823 118.873 406.193 123.047 403.12 128.306C400.048 133.566 398.685 139.65 399.221 145.718L397.331 145.877Z" fill="#FF9D45"/>
<path d="M407.427 166.213C402.925 162.096 399.714 156.761 398.183 150.856L399.998 150.388C400.423 152.037 400.99 153.646 401.691 155.198C403.341 158.853 405.723 162.131 408.69 164.828L407.427 166.213Z" fill="#FF9D45"/>
<path d="M438.976 166.437C434.363 168.523 429.235 169.193 424.241 168.363C419.247 167.534 414.611 165.242 410.919 161.778C407.227 158.313 404.645 153.831 403.499 148.899C402.354 143.967 402.696 138.805 404.483 134.068C406.27 129.33 409.421 125.229 413.538 122.282C417.655 119.336 422.553 117.676 427.613 117.514C432.673 117.352 437.667 118.693 441.965 121.37C446.262 124.047 449.67 127.938 451.757 132.551C453.157 135.613 453.937 138.922 454.051 142.287C454.166 145.653 453.613 149.007 452.425 152.158C451.237 155.308 449.437 158.192 447.128 160.643C444.82 163.094 442.049 165.063 438.976 166.437Z" fill="#FFE159"/>
<path d="M451.757 132.551L405.106 153.663C402.315 147.474 402.093 140.429 404.489 134.076C406.885 127.723 411.704 122.58 417.887 119.777C424.072 116.982 431.114 116.757 437.465 119.153C443.816 121.548 448.956 126.367 451.757 132.551Z" fill="#FFC359"/>
<path d="M264.726 279.738L287.789 279.71V283.612L262.415 302.797L264.726 279.738Z" fill="#C4B8FF"/>
<path d="M296.181 282.197C296.786 278.107 293.961 274.301 289.872 273.696C285.782 273.092 281.977 275.917 281.372 280.007C280.768 284.098 283.593 287.904 287.682 288.509C291.771 289.113 295.577 286.288 296.181 282.197Z" fill="#FF95A9"/>
<path d="M294.216 275.639C294.793 276.589 295.638 277.347 296.645 277.817C297.652 278.286 298.776 278.446 299.874 278.277C300.972 278.107 301.995 277.615 302.814 276.863C303.632 276.111 304.209 275.133 304.471 274.053C304.734 272.973 304.67 271.84 304.288 270.796C303.905 269.753 303.222 268.846 302.324 268.191C301.427 267.536 300.355 267.162 299.245 267.117C298.134 267.072 297.036 267.357 296.088 267.937C294.82 268.712 293.912 269.958 293.561 271.402C293.211 272.845 293.446 274.369 294.216 275.639Z" fill="#FF95A9"/>
<path d="M294.291 286.177L303.152 276.538L296.116 267.928L284.907 274.694L294.291 286.177Z" fill="#FF95A9"/>
<path d="M332.244 211.173C336.965 205.939 336.551 197.867 331.318 193.145C326.085 188.422 318.015 188.836 313.294 194.071C308.572 199.305 308.986 207.376 314.219 212.099C319.452 216.821 327.522 216.407 332.244 211.173Z" fill="#7760DB"/>
<path d="M260.478 196.019L318.87 214.801L328.956 191.48L275.279 161.823L260.478 196.019Z" fill="#7760DB"/>
<path d="M304.144 275.049L293.562 271.446L310.357 199.734L334.412 207.904L308.008 266.477L305.707 271.587L304.144 275.049Z" fill="#7760DB"/>
<path d="M304.143 275.05L293.562 271.447L295.994 261.059L308.008 266.477L305.706 271.587L304.143 275.05Z" fill="white"/>
<path d="M304.134 275.049L293.552 271.456L294.684 266.627L305.696 271.587L304.134 275.049Z" fill="#FF95A9"/>
<path d="M199.962 279.71L176.898 279.738L176.908 283.64L202.329 302.759L199.962 279.71Z" fill="#C4B8FF"/>
<path d="M214.287 196.381C222.848 190.59 225.094 178.955 219.305 170.392C213.515 161.829 201.882 159.582 193.321 165.373C184.761 171.164 182.514 182.8 188.304 191.362C194.093 199.925 205.726 202.172 214.287 196.381Z" fill="#7760DB"/>
<path d="M214.418 299.105C221.382 297.981 226.115 291.424 224.991 284.459C223.867 277.494 217.311 272.759 210.348 273.884C203.385 275.008 198.651 281.565 199.775 288.53C200.899 295.495 207.455 300.23 214.418 299.105Z" fill="#7760DB"/>
<path d="M262.681 295.646C267.768 290.759 267.932 282.673 263.046 277.584C258.161 272.496 250.076 272.332 244.989 277.218C239.901 282.105 239.738 290.192 244.623 295.28C249.509 300.369 257.593 300.532 262.681 295.646Z" fill="#7760DB"/>
<path d="M267.214 273.636L266.606 286.41V287.037C266.448 290.313 265.037 293.403 262.665 295.667C260.293 297.931 257.142 299.197 253.863 299.203L212.471 299.25C209.186 299.256 206.025 297.995 203.646 295.729C201.267 293.463 199.854 290.366 199.7 287.084V286.457L199.054 273.683L267.214 273.636Z" fill="#7760DB"/>
<path d="M225.148 285.905L228.704 365.123L207.082 366.096L199.643 287.047L225.148 285.905Z" fill="#7760DB"/>
<path d="M229.813 491.544C233.664 489.498 235.129 484.717 233.083 480.864C231.038 477.011 226.257 475.547 222.405 477.593C218.554 479.639 217.089 484.42 219.135 488.273C221.18 492.126 225.961 493.59 229.813 491.544Z" fill="#7760DB"/>
<path d="M222.678 166.671L239.604 234.098L251.458 186.352L251.44 166.643L222.678 166.671Z" fill="white"/>
<path d="M222.841 375.204C228.161 372.476 230.262 365.95 227.534 360.629C224.806 355.308 218.281 353.207 212.962 355.935C207.642 358.664 205.541 365.19 208.269 370.511C210.997 375.832 217.521 377.933 222.841 375.204Z" fill="#7760DB"/>
<path d="M218.253 484.872L207.082 366.096L228.704 365.123L234.028 484.17L218.253 484.872Z" fill="#7760DB"/>
<path d="M248.701 137.723L225.399 135.692L222.392 170.206L245.695 172.237L248.701 137.723Z" fill="#FF95A9"/>
<path d="M210.281 493.884H234.028V484.525H218.234L209.168 489.467C208.796 489.669 208.486 489.968 208.271 490.332C208.055 490.696 207.941 491.112 207.942 491.535C207.945 492.155 208.192 492.75 208.63 493.19C209.067 493.629 209.661 493.879 210.281 493.884Z" fill="#40327A"/>
<path d="M256.735 483.206C257 484.746 256.802 486.329 256.166 487.757C255.531 489.184 254.486 490.391 253.165 491.224C251.844 492.058 250.305 492.48 248.743 492.439C247.182 492.398 245.667 491.894 244.392 490.992C243.117 490.089 242.138 488.829 241.579 487.37C241.02 485.911 240.906 484.319 241.252 482.795C241.598 481.271 242.387 479.885 243.521 478.81C244.655 477.735 246.082 477.021 247.622 476.758C249.685 476.405 251.804 476.886 253.513 478.095C255.222 479.304 256.381 481.142 256.735 483.206Z" fill="#7760DB"/>
<path d="M264.8 493.884H241.054V484.525H256.857L265.932 489.467C266.302 489.671 266.609 489.971 266.823 490.334C267.037 490.698 267.15 491.113 267.149 491.535C267.149 492.158 266.901 492.755 266.461 493.196C266.02 493.636 265.423 493.884 264.8 493.884Z" fill="#40327A"/>
<path d="M241.054 286.41V484.507L256.838 484.918L266.587 287.065L241.054 286.41Z" fill="#7760DB"/>
<path d="M257.036 461.083L255.805 485.696L257.676 485.789L258.907 461.177L257.036 461.083Z" fill="#40327A"/>
<path d="M260.123 380.622L256.501 453.911L258.37 454.004L261.992 380.715L260.123 380.622Z" fill="#40327A"/>
<path d="M260.505 372.482L260.26 377.473L262.129 377.565L262.374 372.574L260.505 372.482Z" fill="#40327A"/>
<path d="M427.749 159.082C427.284 159.083 426.821 159.042 426.364 158.96C423.938 158.524 421.613 157.646 419.506 156.368C417.959 155.431 416.788 153.983 416.195 152.274C415.602 150.565 415.625 148.703 416.259 147.009L416.718 145.793L418.467 146.457L418.009 147.674C417.519 148.963 417.497 150.382 417.947 151.685C418.397 152.989 419.289 154.093 420.469 154.805C422.387 155.96 424.498 156.756 426.701 157.154C427.993 157.378 429.324 157.165 430.482 156.548C431.64 155.932 432.56 154.947 433.096 153.75C433.633 152.552 433.755 151.21 433.444 149.935C433.133 148.661 432.406 147.526 431.379 146.71L424.259 141.095C422.899 140.02 421.936 138.522 421.525 136.838C421.114 135.153 421.277 133.38 421.989 131.799C422.701 130.218 423.92 128.921 425.454 128.113C426.987 127.304 428.746 127.032 430.452 127.338C432.878 127.774 435.203 128.653 437.311 129.931C438.857 130.868 440.027 132.316 440.622 134.024C441.216 135.732 441.196 137.594 440.567 139.289L440.108 140.505L438.349 139.841L438.808 138.624C439.297 137.336 439.319 135.916 438.869 134.613C438.42 133.31 437.527 132.206 436.347 131.493C434.431 130.335 432.319 129.538 430.116 129.144C428.823 128.92 427.492 129.133 426.334 129.75C425.176 130.366 424.256 131.351 423.72 132.548C423.183 133.746 423.061 135.088 423.372 136.363C423.683 137.638 424.41 138.773 425.438 139.588L432.558 145.203C433.824 146.204 434.748 147.575 435.2 149.124C435.653 150.674 435.612 152.326 435.083 153.852C434.555 155.377 433.565 156.7 432.25 157.637C430.936 158.574 429.363 159.079 427.749 159.082Z" fill="#40327A"/>
<path d="M434.023 120.66L432.032 126.009L433.791 126.664L435.782 121.315L434.023 120.66Z" fill="#40327A"/>
<path d="M422.308 156.737L420.3 162.061L422.051 162.721L424.059 157.398L422.308 156.737Z" fill="#40327A"/>
<path d="M357.015 362.1C353.862 361.926 350.722 361.564 347.612 361.015L347.94 359.143C350.975 359.683 354.04 360.036 357.118 360.201L357.015 362.1ZM366.484 361.997L366.343 360.126C369.409 359.896 372.454 359.449 375.456 358.787L375.859 360.612C372.77 361.294 369.637 361.757 366.484 361.997ZM338.415 358.825C335.395 357.919 332.425 356.853 329.517 355.634L330.238 353.912C333.085 355.102 335.992 356.143 338.948 357.028L338.415 358.825ZM384.953 357.889L384.279 356.139C387.145 355.043 389.918 353.716 392.569 352.171L393.505 353.79C390.768 355.388 387.909 356.765 384.953 357.908V357.889ZM321.003 351.525C318.28 350.037 315.567 348.39 312.938 346.612L313.986 345.068C316.559 346.799 319.225 348.418 321.901 349.878L321.003 351.525ZM401.289 348.334L400.091 346.902C402.46 344.937 404.652 342.767 406.641 340.417L408.072 341.624C406.013 344.062 403.743 346.314 401.289 348.353V348.334ZM305.359 340.988C302.955 339.032 300.588 336.926 298.305 334.727L299.605 333.38C301.842 335.541 304.181 337.61 306.548 339.537L305.359 340.988ZM413.489 333.857L411.871 332.921C413.412 330.268 414.729 327.492 415.81 324.62L417.559 325.285C416.439 328.255 415.078 331.128 413.489 333.876V333.857ZM291.793 327.924C289.744 325.612 287.732 323.16 285.805 320.643L287.293 319.501C289.164 321.991 291.166 324.405 293.187 326.679L291.793 327.924ZM420.226 316.179L418.401 315.786C419.035 312.777 419.469 309.729 419.702 306.662L421.573 306.802C421.335 309.961 420.885 313.1 420.226 316.198V316.179ZM280.36 312.969C279.929 312.314 279.489 311.64 279.059 310.957L280.64 309.956C281.071 310.63 281.492 311.285 281.922 311.94L280.36 312.969ZM419.833 297.444C419.678 294.357 419.366 291.281 418.897 288.226L420.769 287.955C421.237 291.072 421.549 294.211 421.704 297.36L419.833 297.444ZM417.176 279.12C416.764 277.398 416.296 275.639 415.791 273.898C415.426 272.626 415.071 271.372 414.734 270.155L416.54 269.668C416.876 270.904 417.223 272.158 417.587 273.412C418.102 275.181 418.523 276.968 418.991 278.727L417.176 279.12ZM412.498 260.984C411.824 257.943 411.207 254.845 410.626 251.766L412.498 251.448C413.031 254.489 413.648 257.568 414.369 260.582L412.498 260.984ZM409.251 242.483C408.849 239.385 408.512 236.241 408.25 233.124L410.121 232.965C410.383 236.044 410.711 239.16 411.113 242.23L409.251 242.483ZM407.689 223.766C407.595 221.305 407.548 218.816 407.548 216.364C407.548 215.69 407.548 215.025 407.548 214.361H409.42C409.42 215.016 409.42 215.68 409.42 216.345C409.42 218.769 409.419 221.239 409.55 223.672L407.689 223.766ZM409.747 205.049L407.876 204.937C408.053 201.774 408.325 198.62 408.671 195.579L410.542 195.794C410.187 198.808 409.925 201.933 409.738 205.059L409.747 205.049ZM411.833 186.548L409.962 186.23C410.982 180.353 411.918 177.115 411.955 176.975L413.751 177.499C413.751 177.499 412.844 180.802 411.833 186.548Z" fill="#DDD6FF"/>
<path d="M283.856 184.392C287.285 174.641 282.162 163.956 272.413 160.526C262.664 157.095 251.981 162.22 248.552 171.971C245.122 181.722 250.245 192.408 259.994 195.838C269.744 199.268 280.427 194.144 283.856 184.392Z" fill="#7760DB"/>
<path d="M271.677 180.362L267.214 273.636L198.988 273.721L194.31 180.456C194.221 178.681 194.495 176.907 195.113 175.241C195.731 173.575 196.682 172.052 197.907 170.765C199.133 169.478 200.607 168.454 202.24 167.755C203.874 167.056 205.632 166.697 207.409 166.699L258.625 166.634C260.395 166.638 262.146 167.001 263.772 167.701C265.398 168.401 266.866 169.424 268.086 170.707C269.305 171.99 270.253 173.507 270.87 175.167C271.487 176.826 271.762 178.594 271.677 180.362Z" fill="#7760DB"/>
<path d="M251.44 166.643L251.458 186.352L246.518 206.238L239.604 234.098L232.615 206.257L222.678 166.68L251.44 166.643Z" fill="white"/>
<path d="M246.518 206.238L239.604 234.098L232.615 206.257L238.584 171.126H240.455L246.518 206.238Z" fill="#40327A"/>
<path d="M187.639 287.618C188.403 286.35 188.774 284.885 188.706 283.407C188.638 281.928 188.133 280.504 187.255 279.312C186.378 278.121 185.167 277.216 183.776 276.712C182.384 276.209 180.875 276.129 179.438 276.483C178.002 276.837 176.702 277.609 175.704 278.701C174.706 279.794 174.054 281.157 173.83 282.62C173.606 284.083 173.821 285.579 174.447 286.92C175.073 288.261 176.082 289.386 177.347 290.154C178.189 290.665 179.124 291.004 180.097 291.153C181.07 291.302 182.063 291.257 183.019 291.022C183.975 290.786 184.876 290.364 185.668 289.78C186.461 289.196 187.131 288.461 187.639 287.618Z" fill="#FF95A9"/>
<path d="M175.804 278.259C175.227 279.21 174.382 279.968 173.375 280.437C172.368 280.907 171.244 281.067 170.146 280.897C169.048 280.727 168.025 280.235 167.206 279.483C166.388 278.732 165.811 277.754 165.549 276.674C165.286 275.594 165.35 274.46 165.732 273.417C166.115 272.373 166.798 271.466 167.696 270.811C168.593 270.156 169.665 269.783 170.776 269.738C171.886 269.692 172.984 269.978 173.932 270.558C175.2 271.333 176.108 272.578 176.459 274.022C176.809 275.466 176.574 276.989 175.804 278.259Z" fill="#FF95A9"/>
<path d="M175.719 288.825L166.859 279.195L173.895 270.586L185.104 277.352L175.719 288.825Z" fill="#FF95A9"/>
<path d="M151.253 217.431C148.857 218.224 146.28 218.289 143.847 217.618C141.414 216.946 139.234 215.568 137.584 213.658C135.935 211.747 134.888 209.391 134.577 206.885C134.266 204.38 134.705 201.839 135.838 199.583C136.971 197.327 138.747 195.458 140.942 194.212C143.137 192.966 145.652 192.398 148.169 192.582C150.686 192.765 153.092 193.691 155.084 195.242C157.075 196.794 158.561 198.901 159.355 201.297C159.883 202.888 160.092 204.568 159.97 206.24C159.848 207.913 159.398 209.544 158.646 211.043C157.893 212.541 156.853 213.876 155.585 214.972C154.316 216.068 152.844 216.904 151.253 217.431Z" fill="#7760DB"/>
<path d="M209.533 198.667L151.15 217.458L141.055 194.138L194.741 164.481L209.533 198.667Z" fill="#7760DB"/>
<path d="M165.867 277.707L176.449 274.104L159.655 202.392L135.6 210.562L162.003 269.126L164.314 274.245L165.867 277.707Z" fill="#7760DB"/>
<path d="M165.867 277.707L176.449 274.104L174.017 263.726L162.003 269.126L164.314 274.245L165.867 277.707Z" fill="white"/>
<path d="M165.877 277.707L176.459 274.114L175.327 269.285L164.314 274.245L165.877 277.707Z" fill="#FF95A9"/>
<path d="M211.233 198.057C220.718 193.954 225.082 182.936 220.979 173.448C216.876 163.961 205.861 159.597 196.375 163.7C186.89 167.804 182.527 178.821 186.629 188.309C190.732 197.796 201.747 202.161 211.233 198.057Z" fill="#7760DB"/>
<path d="M268.019 134.282L264.669 133.692L268.646 111.083L271.995 111.672C273.482 111.929 274.904 112.477 276.18 113.284C277.455 114.091 278.559 115.142 279.428 116.376C280.297 117.61 280.914 119.004 281.244 120.477C281.574 121.95 281.611 123.474 281.351 124.961C281.091 126.45 280.538 127.873 279.726 129.148C278.915 130.423 277.859 131.525 276.62 132.391C275.382 133.257 273.984 133.87 272.508 134.194C271.032 134.519 269.506 134.549 268.019 134.282Z" fill="#40327A"/>
<path d="M223.037 130.328L239.79 133.273L236.712 150.785L228.336 149.313C226.114 148.922 224.139 147.665 222.844 145.817C221.55 143.97 221.042 141.684 221.432 139.462L223.052 130.245L223.037 130.328Z" fill="#40327A"/>
<path d="M261.856 102.626L269.984 104.055C272.65 104.524 275.021 106.033 276.575 108.251C278.129 110.468 278.739 113.212 278.27 115.879L276.519 125.842C276.095 128.253 274.732 130.396 272.728 131.801C270.725 133.205 268.246 133.757 265.836 133.333L256.741 131.734L261.856 102.626Z" fill="#40327A"/>
<path d="M257.427 163.227L236.058 159.484C233.84 159.093 231.867 157.838 230.574 155.994C229.281 154.149 228.773 151.867 229.162 149.648L233.578 124.521C234.002 122.098 234.899 119.783 236.218 117.707C237.538 115.631 239.253 113.836 241.266 112.423C243.28 111.011 245.552 110.009 247.952 109.476C250.353 108.942 252.835 108.887 255.257 109.314C260 110.136 264.244 112.754 267.107 116.625C269.97 120.496 271.232 125.322 270.629 130.099L267.373 155.918C267.229 157.064 266.853 158.169 266.268 159.165C265.683 160.16 264.901 161.027 263.971 161.71C263.04 162.394 261.98 162.881 260.855 163.142C259.73 163.403 258.564 163.432 257.427 163.227Z" fill="#FF95A9"/>
<path d="M244.895 104.251L247.402 104.692L241.86 136.223L222.601 132.837L225.193 118.09C225.576 115.886 226.39 113.78 227.588 111.892C228.786 110.003 230.345 108.37 232.175 107.084C234.005 105.799 236.07 104.887 238.253 104.401C240.436 103.915 242.693 103.864 244.895 104.251Z" fill="#40327A"/>
<path d="M231.277 137.586L236.301 138.475L237.181 133.449C237.415 132.117 237.111 130.746 236.335 129.637C235.56 128.528 234.377 127.772 233.045 127.535C231.711 127.301 230.34 127.606 229.231 128.384C228.122 129.161 227.367 130.347 227.132 131.681C227.016 132.34 227.032 133.017 227.177 133.671C227.323 134.325 227.596 134.944 227.981 135.492C228.366 136.04 228.855 136.508 229.421 136.867C229.986 137.226 230.617 137.47 231.277 137.586Z" fill="#FF95A9"/>
<path d="M274.119 125.476L255.042 122.126C251.304 121.463 247.981 119.346 245.801 116.238C243.621 113.129 242.762 109.284 243.412 105.543C243.729 103.764 244.74 102.185 246.222 101.152C247.704 100.119 249.535 99.7177 251.313 100.035C253.091 100.353 254.67 101.364 255.703 102.846C256.735 104.328 257.137 106.16 256.819 107.938C256.802 108.03 256.803 108.124 256.822 108.216C256.841 108.307 256.879 108.393 256.932 108.47C256.985 108.547 257.053 108.612 257.132 108.662C257.21 108.712 257.298 108.746 257.39 108.762L276.467 112.112L274.119 125.476Z" fill="#40327A"/>
<path d="M268.178 117.521L258.681 115.856C257.802 115.701 256.961 115.374 256.207 114.894C255.454 114.415 254.802 113.791 254.29 113.059C253.254 111.582 252.848 109.753 253.161 107.976C253.474 106.199 254.479 104.619 255.957 103.583C257.434 102.548 259.262 102.142 261.039 102.455L270.526 104.12C271.417 104.263 272.27 104.58 273.037 105.056C273.804 105.531 274.468 106.154 274.992 106.888C275.516 107.623 275.888 108.454 276.088 109.334C276.287 110.214 276.31 111.125 276.154 112.013C275.998 112.902 275.667 113.751 275.181 114.51C274.694 115.27 274.061 115.925 273.319 116.437C272.576 116.95 271.74 117.31 270.857 117.496C269.975 117.682 269.064 117.691 268.178 117.521Z" fill="#40327A"/>
<path d="M266.475 162.75C266.36 163.665 266.06 164.547 265.594 165.343C265.127 166.138 264.504 166.831 263.763 167.379C263.021 167.927 262.175 168.318 261.278 168.529C260.38 168.741 259.449 168.767 258.541 168.608L245.227 166.269C243.468 165.959 241.786 165.306 240.279 164.346C238.772 163.386 237.469 162.139 236.444 160.676C235.418 159.213 234.691 157.562 234.304 155.817C233.917 154.073 233.877 152.269 234.187 150.509L236.947 134.825L241.971 135.704C241.715 137.183 242.057 138.703 242.919 139.931C243.782 141.159 245.097 141.995 246.574 142.255L268.58 146.12L266.475 162.75Z" fill="#40327A"/>
<path d="M254.228 154.515C254.316 153.956 254.515 153.42 254.813 152.939C255.11 152.458 255.501 152.042 255.962 151.714C256.423 151.386 256.945 151.154 257.497 151.031C258.049 150.907 258.62 150.895 259.177 150.996C261.151 151.389 262.171 153.663 261.75 155.787L254.228 154.515Z" fill="white"/>
<path d="M228.348 394.33L223.998 297.369L238.594 297.35V299.222L225.953 299.241L230.22 394.246L228.348 394.33Z" fill="#40327A"/>
<path d="M230.547 401.999L228.677 402.083L229.016 409.665L230.886 409.581L230.547 401.999Z" fill="#40327A"/>
<path d="M267.624 250.724L266.816 266.886L268.687 266.98L269.495 250.818L267.624 250.724Z" fill="#40327A"/>
<path d="M266.81 243.129L266.666 246.158L268.535 246.247L268.68 243.218L266.81 243.129Z" fill="#40327A"/>
<path d="M268.992 236.568L267.121 236.484L269.011 196.805L304.564 208.241L303.984 210.019L270.77 199.332L268.992 236.568Z" fill="#40327A"/>
<path d="M172.112 255.669L170.29 256.096L171.043 259.312L172.865 258.886L172.112 255.669Z" fill="#40327A"/>
<path d="M169.133 251.073L160.132 212.602L178.199 206.79L178.77 208.568L162.34 213.856L170.957 250.652L169.133 251.073Z" fill="#40327A"/>
<path d="M200.821 199.512L182.158 205.505L182.73 207.287L201.393 201.294L200.821 199.512Z" fill="#40327A"/>
</g>
<defs>
<clipPath id="clip0">
<rect width="561" height="525" fill="white"/>
</clipPath>
</defs>
</svg>
