<svg width="716" height="557" fill="none" xmlns="http://www.w3.org/2000/svg"><path d="M977.899 257.349c-188.49 86.431-124.324 302.11-449.614 285.711-104.179-5.253-36.225 47.777-238.225-24.124-202-71.9-325.5-176.695-281-261.587 44.5-84.891 168.09-67.814 372.622-56.196 204.532 11.619 111.997-73.236 146.603-139.444 98.924-189.26 638.105 109.21 449.614 195.64z" fill="#FFC359"/><g clip-path="url(#clip0)"><path d="M719.095 514.098H140.101C65.749 428.819 39.79 332.199 66.881 312.015c37.039-27.598 139.959 79.548 176.19 60.576 103.527-54.217-93.248-221.836-24.993-242.303 62.798-18.817 110.467 134.77 164.484 91.611 37.489-29.935 3.282-78.602 10.139-116.408 10.872-59.992 104.668-29.214 186.994 120.893 34.698 63.274 82.275-54.904 121.072-68.79 36.023-12.888 95.105 67.931 94.022 176.512-.55 55.739-23.21 119.743-75.694 179.992z" fill="#F8F7FF"/><path d="M446.302 383.143l36.605 130.088h4.207l-29.932-130.088h-10.88zm-38.281 0l-36.605 130.088h-4.208l29.933-130.088h10.88z" fill="#DDD6FF"/><path d="M427.157 421.37c34.048 0 61.648-28.467 61.648-63.583s-27.6-63.583-61.648-63.583c-34.047 0-61.648 28.467-61.648 63.583s27.601 63.583 61.648 63.583z" fill="#FF809F"/><path d="M486.856 376.871l-1.591-.516c4.489-15.031 3.366-31.25-3.149-45.47l1.499-.739c6.7 14.611 7.856 31.279 3.241 46.725zm-78.277 42.463c-11.199-3.632-21.186-10.432-28.826-19.625-7.64-9.194-12.627-20.414-14.394-32.384l1.666-.249c1.719 11.651 6.573 22.572 14.01 31.52 7.437 8.948 17.159 15.564 28.061 19.097l-.517 1.641zm73.587-30.949l-1.467-.817a64.467 64.467 0 002.833-6.195l1.541.645a65.143 65.143 0 01-2.907 6.367zm-188.352 80.681c-2.406 0-4.758-.735-6.758-2.114a12.465 12.465 0 01-4.479-5.63 12.91 12.91 0 01-.693-7.248 12.68 12.68 0 013.329-6.423 12.054 12.054 0 016.228-3.433 11.814 11.814 0 017.027.714 12.25 12.25 0 015.459 4.62 12.83 12.83 0 012.05 6.97c-.005 3.325-1.288 6.513-3.568 8.865-2.28 2.352-5.371 3.675-8.595 3.679zm0-23.371a10.27 10.27 0 00-5.832 1.825 10.753 10.753 0 00-3.866 4.859 11.128 11.128 0 00-.597 6.255 10.934 10.934 0 002.872 5.543 10.407 10.407 0 005.375 2.963c2.036.418 4.147.203 6.065-.616a10.579 10.579 0 004.711-3.988 11.07 11.07 0 001.769-6.014c-.003-2.871-1.109-5.623-3.077-7.653-1.968-2.03-4.637-3.171-7.42-3.174z" fill="#40327A"/><path d="M333.802 456.522h-79.976v56.709h79.976v-56.709z" fill="#FF95A9"/><path d="M333.802 456.522h-8.331v56.709h8.331v-56.709zm-8.331 27.495h-71.645v1.718h71.645v-1.718z" fill="#40327A"/><path d="M295.48 484.017h-11.663v7.733h11.663v-7.733z" fill="#fff"/><path d="M457.54 381.536a32.147 32.147 0 01-2.2 11.729h-56.349a32.206 32.206 0 01-2.149-13.507 32.06 32.06 0 013.639-13.162 31.056 31.056 0 018.733-10.306 29.933 29.933 0 0112.16-5.482 29.476 29.476 0 0113.266.389 30.025 30.025 0 0111.838 6.185 31.22 31.22 0 018.153 10.8 32.161 32.161 0 012.909 13.354z" fill="#40327A"/><path d="M427.157 390.137c4.601 0 8.331-3.847 8.331-8.592 0-4.745-3.73-8.592-8.331-8.592-4.601 0-8.331 3.847-8.331 8.592 0 4.745 3.73 8.592 8.331 8.592z" fill="#40327A"/><path d="M500.856 342.038c5.515-3.088 7.558-10.203 4.564-15.892-2.995-5.688-9.893-7.796-15.409-4.707-5.515 3.088-7.558 10.203-4.564 15.892 2.995 5.688 9.893 7.796 15.409 4.707z" fill="#7760DB"/><path d="M441.878 315.642l48.219 26.456 12.513-19.436-42.379-35.512-18.353 28.492z" fill="#FFC359"/><path d="M454.662 316.912c8.784-2.828 13.682-12.466 10.939-21.525-2.743-9.06-12.087-14.111-20.87-11.282-8.784 2.829-13.682 12.466-10.939 21.525 2.743 9.06 12.087 14.111 20.87 11.282zm-40.568-2.31L369.2 346.669l-14.629-17.795 38.08-40.375 21.443 26.103z" fill="#FFC359"/><path d="M421.231 301.54c.573-9.472-6.407-17.63-15.591-18.221-9.185-.591-17.094 6.608-17.667 16.081-.573 9.472 6.407 17.63 15.592 18.221 9.184.591 17.093-6.609 17.666-16.081z" fill="#FFC359"/><path d="M408.704 405.002c6.281 0 11.372-5.251 11.372-11.728 0-6.478-5.091-11.729-11.372-11.729-6.28 0-11.371 5.251-11.371 11.729 0 6.477 5.091 11.728 11.371 11.728zm36.898 0c6.28 0 11.371-5.251 11.371-11.728 0-6.478-5.091-11.729-11.371-11.729-6.281 0-11.372 5.251-11.372 11.729 0 6.477 5.091 11.728 11.372 11.728z" fill="#40327A"/><path d="M461.614 295.905l-4.074 85.631h-60.757l-4.066-85.631a12.392 12.392 0 01.718-4.785 12.09 12.09 0 012.488-4.106 11.68 11.68 0 013.857-2.762 11.364 11.364 0 014.601-.969h45.569a11.364 11.364 0 014.601.969 11.68 11.68 0 013.857 2.762 12.09 12.09 0 012.488 4.106c.552 1.528.796 3.157.718 4.785z" fill="#FFC359"/><path d="M457.531 381.536l-.558 11.729v.576c-.137 3.01-1.393 5.851-3.508 7.931-2.114 2.08-4.924 3.24-7.847 3.239h-36.889c-2.922.001-5.732-1.159-7.847-3.239-2.114-2.08-3.37-4.921-3.508-7.931v-.576l-.558-11.729h60.715zm-2.438 128.148c2.681-2.897 2.577-7.487-.232-10.252-2.81-2.766-7.26-2.658-9.941.239-2.681 2.898-2.577 7.488.232 10.253 2.81 2.765 7.26 2.658 9.941-.24z" fill="#40327A"/><path d="M447.418 405.174c5.323 0 9.639-4.451 9.639-9.941 0-5.491-4.316-9.942-9.639-9.942-5.324 0-9.639 4.451-9.639 9.942 0 5.49 4.315 9.941 9.639 9.941z" fill="#40327A"/><path d="M442.986 504.639l-5.207-109.406h19.269v109.406h-14.062z" fill="#40327A"/><path d="M464.113 513.239h-21.136v-8.592h14.071l8.073 4.537c.331.186.607.46.799.794.192.335.293.716.292 1.105a2.205 2.205 0 01-.615 1.528c-.195.2-.427.359-.681.467a2.021 2.021 0 01-.803.161z" fill="#FF95A9"/><path d="M500.934 412.373c.87-3.904-1.493-7.795-5.278-8.692-3.785-.897-7.558 1.54-8.427 5.444-.87 3.903 1.493 7.794 5.278 8.691 3.785.897 7.558-1.54 8.427-5.443zm-104.393-45.126a9.676 9.676 0 014.503 3.432 10.15 10.15 0 011.894 5.434 10.19 10.19 0 01-1.354 5.603 9.75 9.75 0 01-4.145 3.881 9.368 9.368 0 01-5.537.851 9.514 9.514 0 01-5.062-2.466 10.01 10.01 0 01-2.879-4.953 10.241 10.241 0 01.276-5.767c.86-2.479 2.639-4.504 4.946-5.632a9.374 9.374 0 017.358-.383z" fill="#40327A"/><path d="M491.755 417.616l-101.678-31.637 6.464-18.723 99.929 36.689-4.715 13.671z" fill="#40327A"/><path d="M497.228 427.385l7.089-20.544-7.847-2.887-4.715 13.67 1.441 9.374c.055.386.21.75.449 1.052a2.1 2.1 0 00.909.667 2.037 2.037 0 001.604-.095c.249-.123.471-.296.654-.509a2.17 2.17 0 00.416-.728zm-56.907-165.234l-20.827-1.289-1.354 23.277 20.827 1.289 1.354-23.277z" fill="#FF95A9"/><path d="M438.804 283.911a10.954 10.954 0 01-2.09 5.85 10.436 10.436 0 01-4.888 3.667 10.108 10.108 0 01-6.039.249 10.357 10.357 0 01-5.157-3.253 10.89 10.89 0 01-2.536-5.659 11.045 11.045 0 01.939-6.158 10.624 10.624 0 014.098-4.583 10.158 10.158 0 015.876-1.464c1.366.081 2.703.439 3.935 1.054a10.444 10.444 0 013.244 2.527 10.833 10.833 0 012.059 3.616c.449 1.333.639 2.745.559 4.154z" fill="#FF95A9"/><path d="M399.882 400.672l-14.037-17.769 13.895-13.688 16.562 15.32-16.42 16.137z" fill="#40327A"/><path d="M285.6 348.765l-.875 8.593-16.57 155.873h-4.207l12.438-164.466h9.214zm388.7 0l.875 8.593 16.578 155.873h4.199l-12.43-164.466H674.3z" fill="#DDD6FF"/><path d="M691.02 348.765H267.405v8.593H691.02v-8.593z" fill="#7760DB"/><path d="M362.726 348.757c6.276 0 11.364-5.247 11.364-11.72 0-6.473-5.088-11.72-11.364-11.72-6.275 0-11.363 5.247-11.363 11.72 0 6.473 5.088 11.72 11.363 11.72z" fill="#FFC359"/><path d="M475.726 343.61h-39.988v5.155h39.988v-5.155z" fill="#40327A"/><path d="M555.127 289.908l-2.074 45.909-.583 12.948h-79.976l2.657-58.857h79.976z" fill="#C4B8FF"/><path d="M517.805 323.589c2.36-2.377 2.49-6.187.291-8.509-2.199-2.322-5.895-2.276-8.255.101-2.36 2.378-2.49 6.187-.291 8.509 2.2 2.322 5.895 2.277 8.255-.101z" fill="#fff"/><path d="M553.053 335.817l-.583 12.948h-79.976l80.559-12.948z" fill="#DDD6FF"/><path d="M451.208 243.57l-3.024.249-1.666-21.017 3.024-.249a9.92 9.92 0 013.961.475 10.128 10.128 0 013.482 2.002 10.49 10.49 0 012.474 3.225 10.782 10.782 0 011.088 3.956 10.767 10.767 0 01-2.395 7.669c-1.75 2.129-4.247 3.455-6.944 3.69zm-39.653 6.901l15.097-1.253 1.27 16.273-7.549.627a7.42 7.42 0 01-5.515-1.838 7.891 7.891 0 01-2.64-5.321l-.669-8.565.006.077z" fill="#40327A"/><path d="M438.798 216.878l7.324-.607a8.833 8.833 0 013.523.423 9.016 9.016 0 013.097 1.782 9.32 9.32 0 012.2 2.868 9.603 9.603 0 01.969 3.519l.721 9.25a8.646 8.646 0 01-1.932 6.17c-1.412 1.711-3.425 2.774-5.597 2.954l-8.196.68-2.109-27.039z" fill="#40327A"/><path d="M448.559 271.735l-26.792 2.226-2.432-31.122a17.68 17.68 0 01.748-6.666 17.34 17.34 0 013.167-5.863 16.752 16.752 0 015.103-4.165 16.291 16.291 0 016.26-1.831c4.263-.347 8.493 1.01 11.813 3.79 3.32 2.779 5.477 6.769 6.024 11.144l2.974 23.697a8.047 8.047 0 01-.22 3.124 7.918 7.918 0 01-1.392 2.784 7.64 7.64 0 01-2.34 1.995 7.4 7.4 0 01-2.913.887z" fill="#FF95A9"/><path d="M424.543 222.235l2.259-.187 2.285 29.3-17.355 1.44-1.073-13.755c-.315-4.126.97-8.212 3.573-11.361 2.603-3.15 6.312-5.105 10.311-5.437z" fill="#40327A"/><path d="M420.276 254.989l4.532-.37-.367-4.674a4.798 4.798 0 00-.482-1.759 4.672 4.672 0 00-1.099-1.434 4.515 4.515 0 00-1.548-.891 4.423 4.423 0 00-1.761-.212 4.505 4.505 0 00-3.096 1.637 4.783 4.783 0 00-1.069 3.415 4.77 4.77 0 00.483 1.758 4.641 4.641 0 001.099 1.433c.454.398.98.7 1.548.888a4.4 4.4 0 001.76.209z" fill="#FF95A9"/><path d="M454.491 234.333l-17.195 1.426c-3.366.276-6.701-.835-9.274-3.09-2.573-2.254-4.175-5.469-4.455-8.939a6.43 6.43 0 01.235-2.456 6.308 6.308 0 011.139-2.17 6.095 6.095 0 011.864-1.546 5.881 5.881 0 014.676-.389 6.017 6.017 0 012.081 1.217 6.249 6.249 0 011.462 1.954c.356.745.565 1.556.614 2.385a.67.67 0 00.222.444.628.628 0 00.461.157l17.195-1.426.975 12.433z" fill="#40327A"/><path d="M447.584 228.636l-8.547.713a5.892 5.892 0 01-2.349-.281 6.009 6.009 0 01-2.065-1.188 6.214 6.214 0 01-1.467-1.912 6.442 6.442 0 01-.373-4.767 6.3 6.3 0 011.151-2.13 6.091 6.091 0 011.854-1.514 5.918 5.918 0 012.274-.666l8.556-.705a5.873 5.873 0 012.385.239 5.997 5.997 0 012.109 1.175 6.22 6.22 0 011.502 1.926 6.405 6.405 0 01.374 4.83 6.283 6.283 0 01-1.185 2.147 6.067 6.067 0 01-1.901 1.506 5.915 5.915 0 01-2.318.627zm8.664 40.582a6.43 6.43 0 01-.176 2.508 6.32 6.32 0 01-1.121 2.232 6.088 6.088 0 01-1.884 1.596 5.929 5.929 0 01-2.342.701l-11.996.997a11.77 11.77 0 01-4.7-.564 12.011 12.011 0 01-4.131-2.379 12.44 12.44 0 01-2.932-3.831 12.788 12.788 0 01-1.283-4.697l-1.142-14.607 4.524-.378c.052.682.235 1.347.537 1.956.302.61.717 1.152 1.223 1.596.505.443 1.09.78 1.722.99.631.211 1.297.29 1.958.235l19.827-1.65 1.916 15.295z" fill="#40327A"/><path d="M446.351 339.941a6.892 6.892 0 00-2.116-3.341 6.562 6.562 0 00-3.56-1.565 6.49 6.49 0 00-3.803.739 6.76 6.76 0 00-2.764 2.794 7.054 7.054 0 00.653 7.609 6.665 6.665 0 003.197 2.249 6.468 6.468 0 003.87.039 6.712 6.712 0 003.972-3.296 7.065 7.065 0 00.551-5.228z" fill="#FF95A9"/><path d="M433.097 342.149a5.31 5.31 0 01-.031 2.993 5.158 5.158 0 01-1.638 2.471 4.919 4.919 0 01-2.693 1.116 4.875 4.875 0 01-2.84-.616 5.08 5.08 0 01-2.03-2.139 5.293 5.293 0 01.604-5.694 4.985 4.985 0 012.43-1.636 4.86 4.86 0 013.803.429 5.127 5.127 0 012.395 3.076z" fill="#FF95A9"/><path d="M439.953 348.748l-11.654.009-1.4-10.105 11.188-3.377 1.866 13.473z" fill="#FF95A9"/><path d="M364.909 325.54l64.348 13.001-.959 10.216h-8.372l-57.191.008 2.174-23.225z" fill="#FFC359"/><path d="M428.307 348.757l.95-10.216-4.332-.877v11.093h3.382z" fill="#FF95A9"/><path d="M398.158 326.4h-9.439v9.735h9.439V326.4z" fill="#FFC359"/><path d="M382.711 328.249l-.32 1.686 42.366 8.557.32-1.686-42.366-8.557z" fill="#fff"/><path d="M408.28 390.776l-.481 1.645 29.295 9.117.481-1.646-29.295-9.116z" fill="#7760DB"/><path d="M150.507 232.022c-2.45 11.711-6.557 22.984-9.831 34.472-3.332 11.832-6.781 23.861-6.74 36.191.132 16.221 6.179 31.798 16.937 43.632 4.165 4.571 9.064 8.592 12.288 13.893 3.224 5.302 4.407 12.657.833 17.735-5.19 7.312-16.295 5.731-23.884 10.311-9.556 5.756-10.889 20.424-5.44 30.356 5.448 9.933 30.266 38.356 65.672 31.319 15.828-3.145 37.33-18.705 36.714-35.331-.642-17.322-16.662-31.354-16.129-48.676.358-11.35 7.756-20.939 14.163-30.176 6.406-9.237 12.371-20.493 9.422-31.431-4.341-16.102-24.451-21.077-34.157-34.438-6.273-8.592-7.656-19.917-8.039-30.674-.383-10.758-.125-21.782-3.607-31.929-8.523-24.634-38.48-21.696-48.202 24.746z" fill="#C4B8FF"/><path d="M188.553 293.921h-1.666v186.668h1.666V293.921z" fill="#40327A"/><path d="M188.545 347.855l-1.666-.284c2.699-16.884 21.319-27.384 22.11-27.822l.833 1.512c-.216.104-18.719 10.543-21.277 26.594zm-1.649 73.507c-1.816-11.402-14.996-18.852-15.146-18.903l.792-1.513c.574.318 14.045 7.914 16.003 20.167l-1.649.249z" fill="#40327A"/><path d="M157.588 474.144h59.982v17.829c-.009 5.635-2.185 11.035-6.051 15.016-3.866 3.98-9.105 6.216-14.568 6.216h-18.744c-5.469 0-10.713-2.241-14.58-6.229-3.867-3.988-6.039-9.397-6.039-15.037v-17.795z" fill="#FFC359"/><path d="M168.235 511.564c-3.468-1.873-6.371-4.691-8.395-8.146a22.606 22.606 0 01-3.085-11.453v-6.556h1.666v6.556a20.861 20.861 0 002.855 10.544 20.028 20.028 0 007.733 7.5l-.774 1.555z" fill="#40327A"/><path d="M217.57 479.729h-59.982v1.719h59.982v-1.719z" fill="#fff"/><path d="M819.065 513.231H58.967v1.718h760.098v-1.718zm-207.363 12.897H434.138v1.718h177.564v-1.718zm67.638 13.095H568.007v1.718H679.34v-1.718zm-158.078 0H374.356v1.718h146.906v-1.718zm193.668-12.897h-53.185v1.718h53.185v-1.718zm-308.725-.198H298.529v1.718h107.676v-1.718z" fill="#C4B8FF"/><path d="M217.562 473.285h-38.206v1.719h38.206v-1.719z" fill="#40327A"/><path d="M571.622 114.23c.575-5.414 2.108-9.1 5.74-11.17 10.764-6.015 37.789 3.746 49.027 18.825 15.671 21.026 1.375 53.35-13.846 55.421-17.711 2.44-43.92-35.151-40.921-63.076z" fill="#F8F7FF"/><path d="M452.308 258.391a4.899 4.899 0 01-.189 1.842 4.812 4.812 0 01-.858 1.626 4.638 4.638 0 01-1.397 1.164 4.469 4.469 0 01-3.507.328 4.556 4.556 0 01-1.576-.885 4.714 4.714 0 01-1.129-1.44 4.853 4.853 0 01-.508-1.775l9.164-.86zm197.037 181.518c1.429-9.034-4.512-17.553-13.272-19.028-8.759-1.474-17.019 4.654-18.449 13.689-1.43 9.034 4.512 17.553 13.272 19.028 8.759 1.474 17.019-4.654 18.449-13.689z" fill="#fff"/><path d="M633.529 454.709a16.54 16.54 0 01-9.391-2.939c-2.78-1.915-4.946-4.638-6.226-7.824a17.945 17.945 0 01-.962-10.072 17.608 17.608 0 014.626-8.927 16.754 16.754 0 018.655-4.771 16.418 16.418 0 019.766.992 17.027 17.027 0 017.586 6.421 17.822 17.822 0 012.849 9.686c-.006 4.621-1.789 9.052-4.958 12.32-3.169 3.268-7.464 5.107-11.945 5.114zm0-33.15c-3.014 0-5.96.922-8.465 2.649a15.617 15.617 0 00-5.612 7.053 16.175 16.175 0 00-.868 9.08 15.876 15.876 0 004.171 8.046 15.093 15.093 0 007.801 4.301c2.956.607 6.02.295 8.804-.894a15.354 15.354 0 006.838-5.788 16.073 16.073 0 002.568-8.731c-.004-4.167-1.611-8.161-4.468-11.108-2.856-2.946-6.729-4.603-10.769-4.608z" fill="#40327A"/><path d="M617.44 453.995c5.891-2.542 8.669-9.528 6.205-15.604-2.464-6.077-9.238-8.942-15.13-6.4-5.891 2.541-8.669 9.528-6.205 15.604 2.464 6.077 9.238 8.942 15.13 6.4z" fill="#fff"/><path d="M612.985 455.748a12.133 12.133 0 01-6.894-2.152 12.709 12.709 0 01-4.572-5.74 13.164 13.164 0 01-.71-7.392 12.927 12.927 0 013.393-6.553 12.294 12.294 0 016.352-3.504 12.05 12.05 0 017.168.726 12.5 12.5 0 015.568 4.712 13.09 13.09 0 012.091 7.109c-.004 3.391-1.311 6.641-3.635 9.039-2.324 2.398-5.474 3.749-8.761 3.755zm0-23.861a10.513 10.513 0 00-5.969 1.863 11.013 11.013 0 00-3.959 4.971 11.397 11.397 0 00-.613 6.401 11.185 11.185 0 002.939 5.672 10.642 10.642 0 005.501 3.032c2.084.427 4.243.207 6.206-.632a10.833 10.833 0 004.819-4.083 11.325 11.325 0 001.806-6.157c-.004-2.933-1.136-5.746-3.148-7.82-2.011-2.075-4.738-3.242-7.582-3.247z" fill="#40327A"/><path d="M654.731 438.993l-1.091 8.653-.209 1.718-2.965 23.62-3.616 28.725-.358 2.861-1.092 8.669h-46.877l-1.092-8.669-.216-1.719-2.624-20.896-4.099-32.591-.209-1.718-1.091-8.653h65.539z" fill="#A796F2"/><path d="M643.109 289.908h-17.494v58.857h17.494v-58.857z" fill="#FF809F"/><path d="M637.278 295.923h-5.832v23.843h5.832v-23.843z" fill="#fff"/><path d="M637.694 334.262c0 .679-.195 1.344-.561 1.909a3.363 3.363 0 01-1.496 1.266 3.235 3.235 0 01-1.925.195 3.292 3.292 0 01-1.706-.94 3.468 3.468 0 01-.912-1.76 3.536 3.536 0 01.189-1.986 3.417 3.417 0 011.228-1.542 3.257 3.257 0 011.851-.579c.884 0 1.731.362 2.356 1.006.625.645.976 1.519.976 2.431z" fill="#40327A"/><path d="M625.615 289.908H608.12v58.857h17.495v-58.857z" fill="#A796F2"/><path d="M619.783 295.923h-5.832v23.843h5.832v-23.843z" fill="#fff"/><path d="M620.199 334.262c0 .679-.195 1.344-.561 1.909a3.357 3.357 0 01-1.496 1.266 3.235 3.235 0 01-1.925.195 3.295 3.295 0 01-1.706-.94 3.468 3.468 0 01-.912-1.76 3.536 3.536 0 01.189-1.986 3.424 3.424 0 011.228-1.542 3.257 3.257 0 011.851-.579 3.28 3.28 0 012.356 1.006c.625.645.976 1.519.976 2.431z" fill="#40327A"/><path d="M608.12 289.908h-17.495v58.857h17.495v-58.857z" fill="#FFC359"/><path d="M602.288 295.923h-5.831v23.843h5.831v-23.843z" fill="#fff"/><path d="M602.705 334.262c0 .679-.196 1.344-.562 1.909a3.355 3.355 0 01-1.495 1.266 3.238 3.238 0 01-1.926.195 3.295 3.295 0 01-1.706-.94 3.476 3.476 0 01-.912-1.76 3.536 3.536 0 01.19-1.986 3.415 3.415 0 011.227-1.542 3.257 3.257 0 014.208.427c.625.645.976 1.519.976 2.431zm-286.098-94.808c-7.874 0-15.572-2.408-22.119-6.92-6.547-4.512-11.65-10.925-14.664-18.429a42.265 42.265 0 01-2.265-23.725c1.536-7.965 5.328-15.282 10.896-21.024 5.568-5.743 12.662-9.654 20.385-11.238a38.684 38.684 0 0123.003 2.336c7.275 3.108 13.493 8.371 17.867 15.124 4.375 6.753 6.71 14.692 6.71 22.813-.013 10.887-4.212 21.323-11.676 29.021-7.463 7.698-17.582 12.028-28.137 12.042zm0-80.407c-7.545 0-14.92 2.308-21.193 6.631-6.274 4.323-11.163 10.468-14.05 17.657a40.494 40.494 0 00-2.171 22.732c1.472 7.632 5.105 14.643 10.44 20.145 5.335 5.502 12.132 9.249 19.532 10.768 7.4 1.518 15.07.739 22.04-2.239 6.971-2.978 12.928-8.021 17.12-14.491 4.192-6.47 6.429-14.077 6.429-21.859-.013-10.43-4.037-20.43-11.188-27.805-7.151-7.376-16.846-11.525-26.959-11.539z" fill="#40327A"/><path d="M316.607 232.769c18.404 0 33.323-15.387 33.323-34.369s-14.919-34.369-33.323-34.369-33.323 15.387-33.323 34.369 14.919 34.369 33.323 34.369z" fill="#7760DB"/><path d="M316.607 233.62c-6.756 0-13.359-2.066-18.976-5.937-5.617-3.871-9.995-9.373-12.581-15.81a36.258 36.258 0 01-1.943-20.354c1.318-6.834 4.571-13.111 9.348-18.038 4.776-4.927 10.863-8.282 17.488-9.641a33.19 33.19 0 0119.735 2.004c6.241 2.667 11.576 7.182 15.329 12.975 3.753 5.794 5.756 12.605 5.756 19.572 0 9.344-3.598 18.304-10.004 24.911-6.405 6.606-15.093 10.318-24.152 10.318zm0-68.739c-6.426 0-12.708 1.966-18.051 5.648-5.343 3.682-9.507 8.915-11.966 15.039a34.485 34.485 0 00-1.849 19.361c1.254 6.5 4.348 12.471 8.892 17.157 4.544 4.687 10.333 7.878 16.635 9.171a31.574 31.574 0 0018.772-1.906c5.937-2.537 11.012-6.832 14.582-12.342 3.57-5.511 5.475-11.99 5.475-18.618 0-8.887-3.423-17.41-9.516-23.695-6.093-6.284-14.357-9.815-22.974-9.815z" fill="#fff"/><path d="M317.44 164.031h-1.666v7.226h1.666v-7.226zm0 61.503h-1.666v7.227h1.666v-7.227z" fill="#fff"/><path d="M299.945 168.628l3.499 6.263-3.499-6.263z" fill="#333854"/><path d="M300.665 168.199l-1.443.86 3.503 6.258 1.443-.86-3.503-6.258z" fill="#fff"/><path d="M329.761 221.9l3.508 6.255-3.508-6.255z" fill="#333854"/><path d="M330.481 221.463l-1.443.859 3.503 6.258 1.443-.859-3.503-6.258z" fill="#fff"/><path d="M287.749 181.207l6.065 3.617-6.065-3.617z" fill="#333854"/><path d="M288.163 180.478l-.834 1.488 6.068 3.613.833-1.488-6.067-3.613z" fill="#fff"/><path d="M339.392 211.967l6.073 3.609-6.073-3.609z" fill="#333854"/><path d="M339.81 211.222l-.833 1.488 6.067 3.613.833-1.488-6.067-3.613zm-49.52-13.681h-7.006v1.718h7.006v-1.718zm59.632 0h-7.006v1.718h7.006v-1.718z" fill="#fff"/><path d="M287.749 215.576l6.065-3.609-6.065 3.609z" fill="#333854"/><path d="M293.392 211.255l-6.068 3.612.833 1.489 6.068-3.612-.833-1.489z" fill="#fff"/><path d="M339.392 184.824l6.073-3.617-6.073 3.617z" fill="#333854"/><path d="M345.051 180.513l-6.068 3.612.833 1.488 6.068-3.612-.833-1.488z" fill="#fff"/><path d="M299.945 228.155l3.499-6.255-3.499 6.255z" fill="#333854"/><path d="M302.703 221.444l-3.502 6.259 1.444.859 3.502-6.259-1.444-.859z" fill="#fff"/><path d="M329.761 174.891l3.508-6.263-3.508 6.263z" fill="#333854"/><path d="M332.524 168.174l-3.502 6.259 1.443.859 3.502-6.259-1.443-.859zm-.088 31.085h-16.662V177.46h1.666v20.081h14.996v1.718z" fill="#fff"/><path d="M330.353 348.929h-12.08l-1.666-26.465h15.412l-1.666 26.465z" fill="#FF809F"/><path d="M331.152 305.305a7.992 7.992 0 01-2.232 5.56 7.51 7.51 0 01-5.39 2.302v-6.495a9.653 9.653 0 01-3.878-.691 9.866 9.866 0 01-3.311-2.193 10.242 10.242 0 01-2.222-3.35 10.496 10.496 0 010-7.956 10.221 10.221 0 012.222-3.35 9.884 9.884 0 013.311-2.194 9.635 9.635 0 013.878-.69v11.17a7.427 7.427 0 012.921.603 7.628 7.628 0 012.475 1.711 7.9 7.9 0 011.651 2.558c.382.957.578 1.981.575 3.015z" fill="#fff"/><path d="M323.53 314.018h-.833v-6.53c-2.787-.194-5.39-1.501-7.256-3.643-1.867-2.142-2.851-4.951-2.743-7.829.109-2.878 1.301-5.599 3.323-7.585 2.023-1.986 4.716-3.08 7.509-3.051h.833v11.23a8.374 8.374 0 015.631 2.959 8.895 8.895 0 012.07 6.158 8.843 8.843 0 01-2.648 5.919 8.318 8.318 0 01-5.886 2.372zm-.833-26.877a8.974 8.974 0 00-6.043 3.153 9.531 9.531 0 00-2.237 6.592 9.473 9.473 0 002.815 6.351 8.919 8.919 0 006.298 2.567h.833v6.444a6.748 6.748 0 004.359-2.492 7.157 7.157 0 001.539-4.89 7.103 7.103 0 00-2.109-4.658 6.689 6.689 0 00-4.622-1.922h-.833v-11.145z" fill="#40327A"/><path d="M650.465 472.984l-3.615 28.725-.358 2.861-1.092 8.669h-46.877l-1.092-8.669-.216-1.719-2.625-20.896 55.875-8.971z" fill="#C4B8FF"/><path d="M604.596 503.642l-1.658.154-.083-.945-4.782-53.487-.059-.773 1.667-.155.083.928 4.765 53.487.067.791zm4.324-55.163l-1.664.094 2.946 55.208 1.664-.094-2.946-55.208zm10.207-1.143l-1.666.034 1.071 55.214 1.666-.034-1.071-55.214zm6.613 1.142l-.991 55.204 1.666.032.991-55.204-1.666-.032zm9.248-.056l-2.983 55.206 1.664.095 2.983-55.206-1.664-.095zm10.962.169l-.058.773-4.824 53.487-.083.945-1.65-.154.059-.791 4.815-53.487.083-.928 1.658.155z" fill="#fff"/><path d="M590.292 447.646l.208 1.718h62.939l.209-1.718h-63.356zm56.416 55.205h-49.485l.217 1.719h49.06l.358-2.87v-.043l-.15 1.194zM474.324 289.878l-2.651 58.854 1.665.08 2.651-58.854-1.665-.08z" fill="#fff"/><path d="M378.988 356.498H267.405v1.719h111.583v-1.719zm238.854 0H433.014v1.719h184.828v-1.719zm73.178 0h-47.911v1.719h47.911v-1.719zm-56.341 0h-7.69v1.719h7.69v-1.719zm-21.144 81.636h-24.343v1.718h24.343v-1.718zm50.993 75.097H617.45v1.718h47.078v-1.718zm-277.017 0H284.866v1.718h102.645v-1.718zm-160.769 0H188.32v1.718h38.422v-1.718zm379.47 0h-13.271v1.718h13.271v-1.718z" fill="#40327A"/><path d="M475.726 175.184a17.48 17.48 0 01-3.266-.31 6.874 6.874 0 01-4.059-2.454 7.265 7.265 0 01-1.597-4.566v-1.185h1.666v1.16a5.514 5.514 0 001.211 3.463 5.22 5.22 0 003.079 1.864c1.96.378 3.972.378 5.932 0a5.221 5.221 0 002.968-1.739 5.517 5.517 0 001.307-3.253 5.549 5.549 0 00-.906-3.394 5.273 5.273 0 00-2.736-2.105l-7.714-2.492a6.934 6.934 0 01-3.633-2.763 7.293 7.293 0 01-1.206-4.487 7.255 7.255 0 011.735-4.298 6.858 6.858 0 013.937-2.277 17.368 17.368 0 016.531 0 6.87 6.87 0 014.057 2.451 7.267 7.267 0 011.6 4.56v1.194h-1.666v-1.194a5.518 5.518 0 00-1.212-3.464 5.216 5.216 0 00-3.079-1.863c-1.961-.37-3.97-.37-5.931 0a5.218 5.218 0 00-2.968 1.739 5.501 5.501 0 00-1.307 3.252 5.55 5.55 0 00.905 3.395 5.277 5.277 0 002.736 2.105l7.698 2.526a6.93 6.93 0 013.621 2.765 7.297 7.297 0 011.201 4.479 7.253 7.253 0 01-1.729 4.292 6.866 6.866 0 01-3.926 2.281 17.547 17.547 0 01-3.249.318z" fill="#C4B8FF"/><path d="M476.559 141.682h-1.666v5.224h1.666v-5.224zm0 32.599h-1.666v5.224h1.666v-5.224z" fill="#C4B8FF"/><path d="M475.726 189.249c-5.497 0-10.87-1.681-15.44-4.831-4.571-3.149-8.133-7.626-10.236-12.864a29.498 29.498 0 01-1.582-16.561c1.073-5.56 3.72-10.668 7.606-14.676 3.887-4.009 8.839-6.739 14.23-7.845a27.01 27.01 0 0116.057 1.631c5.079 2.17 9.419 5.844 12.473 10.557a29.308 29.308 0 014.684 15.925c-.009 7.6-2.94 14.885-8.15 20.259-5.21 5.373-12.274 8.396-19.642 8.405zm0-55.609a25.565 25.565 0 00-14.515 4.541c-4.296 2.961-7.644 7.169-9.622 12.093a27.734 27.734 0 00-1.487 15.568c1.009 5.227 3.497 10.028 7.151 13.797 3.653 3.768 8.308 6.334 13.376 7.374a25.39 25.39 0 0015.095-1.533c4.774-2.04 8.854-5.494 11.725-9.925a27.557 27.557 0 004.403-14.97c-.009-7.143-2.765-13.992-7.662-19.043-4.898-5.051-11.538-7.893-18.464-7.902z" fill="#C4B8FF"/><path d="M664.328 278.669v-1.718c2.674 0 5.423-.129 8.181-.361l.133 1.718c-2.757.215-5.598.361-8.314.361zm-8.331-.335a92.332 92.332 0 01-8.264-1.091l.291-1.718c2.641.472 5.374.859 8.106 1.065l-.133 1.744zm24.876-1.022l-.25-1.719c2.649-.412 5.365-.928 8.073-1.538l.35 1.676a122.918 122.918 0 01-8.156 1.564l-.017.017zm-41.263-1.959c-2.682-.774-5.34-1.719-7.914-2.715l.608-1.607a78.664 78.664 0 007.748 2.663l-.442 1.659zm57.483-1.676l-.45-1.658a141.36 141.36 0 007.848-2.501l.533 1.624c-2.649.911-5.29 1.762-7.898 2.518l-.033.017zm-73.003-4.528a153.069 153.069 0 00-7.498-3.437l.65-1.581a184.687 184.687 0 017.573 3.489l-.725 1.529zm88.723-.954l-.608-1.598c2.5-1.014 5.057-2.122 7.573-3.291l.683 1.564a174.233 174.233 0 01-7.614 3.308l-.034.017zm-103.877-5.593a149.622 149.622 0 00-7.789-2.681l.483-1.65c2.608.859 5.257 1.719 7.873 2.715l-.567 1.616zm119.015-1.409l-.75-1.53a192.066 192.066 0 007.264-3.987l.833 1.495a185.424 185.424 0 01-7.314 4.004l-.033.018zm-134.71-3.54a137.6 137.6 0 00-8.023-1.77l.3-1.719c2.683.498 5.407 1.1 8.123 1.787l-.4 1.702zm-56.767-.353l-.441-1.658a90.302 90.302 0 018.123-1.899l.299 1.718a83.06 83.06 0 00-7.956 1.839h-.025zm40.655-2.689a115.918 115.918 0 00-8.173-.713l.092-1.719c2.724.146 5.507.387 8.281.722l-.2 1.71zm-24.543-.352l-.158-1.719c2.724-.266 5.515-.438 8.331-.498v1.718c-2.741.086-5.49.249-8.173.516v-.017zm-27.541 7.458l-.833-1.504a36.85 36.85 0 013.882-1.822l.625 1.59a34.674 34.674 0 00-3.674 1.736z" fill="#DDD6FF"/><path d="M582.411 230.887h-44.87v-32.126h44.87v32.126zm-43.171-1.718h41.505v-28.69h-41.538l.033 28.69z" fill="#C4B8FF"/><path d="M560.509 219.786l-22.668-19.487 1.066-1.323 21.577 18.55 20.511-18.533 1.099 1.289-21.585 19.504z" fill="#C4B8FF"/><path d="M587.109 199.62a5.868 5.868 0 01-.933 3.191 5.61 5.61 0 01-2.496 2.118 5.402 5.402 0 01-3.216.33 5.508 5.508 0 01-2.852-1.569 5.793 5.793 0 01-1.525-2.938 5.912 5.912 0 01.315-3.318 5.71 5.71 0 012.05-2.577 5.443 5.443 0 013.092-.968c1.475 0 2.889.604 3.933 1.678a5.832 5.832 0 011.632 4.053z" fill="#fff"/><path d="M581.578 206.228a6.262 6.262 0 01-3.555-1.113 6.555 6.555 0 01-2.356-2.961 6.785 6.785 0 01-.364-3.813 6.66 6.66 0 011.751-3.378 6.329 6.329 0 013.276-1.806 6.216 6.216 0 013.696.375 6.45 6.45 0 012.872 2.43 6.75 6.75 0 011.078 3.667c0 1.75-.674 3.428-1.874 4.666a6.303 6.303 0 01-4.524 1.933zm0-11.471c-.936 0-1.852.286-2.63.823a4.854 4.854 0 00-1.743 2.192 5.024 5.024 0 00-.268 2.821 4.934 4.934 0 001.298 2.498 4.684 4.684 0 002.425 1.334c.918.187 1.87.089 2.734-.281a4.767 4.767 0 002.122-1.802 4.993 4.993 0 00.794-2.713c0-.641-.123-1.275-.361-1.867a4.877 4.877 0 00-1.026-1.581 4.7 4.7 0 00-1.535-1.056 4.605 4.605 0 00-1.81-.368zM715.362 308.4l-.833 1.488 4.047 2.41.833-1.488-4.047-2.41zm2.075 8.325h-4.673v1.718h4.673v-1.718zm1.158 6.192l-4.048 2.409.833 1.488 4.048-2.409-.833-1.488zM390.91 87.868h-1.666v4.82h1.666v-4.82zm0 28.922h-1.666v4.82h1.666v-4.82zm-8.292-27.102l-1.443.86 2.337 4.174 1.443-.86-2.337-4.174zm14.021 25.046l-1.443.859 2.337 4.175 1.443-.859-2.337-4.175zm-19.896-20.801l-.833 1.495 4.066 2.41.833-1.495-4.066-2.41zm23.857 16.068l-.833 1.488 4.048 2.41.833-1.488-4.048-2.41zm-22.203-6.116h-4.674v1.718h4.674v-1.718zm28.041 0h-4.673v1.718h4.673v-1.718zm-26.89 6.177l-4.048 2.41.833 1.488 4.048-2.409-.833-1.489zm24.288-14.458l-4.047 2.41.832 1.488 4.048-2.41-.833-1.488zm-20.3 19.171l-2.336 4.174 1.443.859 2.336-4.174-1.443-.859zm13.975-25.1l-2.336 4.175 1.443.859 2.336-4.175-1.443-.86z" fill="#C4B8FF"/></g><defs><clipPath id="clip0"><path fill="#fff" transform="translate(56.426 76.716)" d="M0 0h762.639v464.225H0z"/></clipPath></defs></svg>