<svg width="746" height="967" viewBox="0 0 746 967" fill="none" xmlns="http://www.w3.org/2000/svg">
<path d="M417.193 176.168C454.155 204.273 801.216 665.325 506.803 627.873C212.389 590.422 30.8929 825.241 -24.2348 675.344C-79.3625 525.447 86.6188 505.533 27.3412 287.478C-31.9365 69.4229 380.231 148.063 417.193 176.168Z" fill="#FFC359"/>
<g clip-path="url(#clip0)">
<path d="M88.1483 520.423C61.9183 491.01 72.6006 451.209 93.5898 427.821C154.562 359.878 178.873 348.384 147.032 297.85C131.69 273.506 126.259 210.353 199.132 220.032C228.834 223.98 226.617 228.997 283.608 236.753C381.796 250.118 503.262 152.32 593.74 200.895C650.268 231.222 611.376 284.681 611.376 337.744C611.376 381.132 725.194 394.194 716.512 478.309C713.174 510.636 687.628 520.937 687.628 520.937L88.1483 520.423Z" fill="#F8F7FF"/>
<path d="M206.595 253.562H202.794V520.885H206.595V253.562Z" fill="#E9E6FF"/>
<path d="M463.346 528.138H273.193V529.166H463.346V528.138Z" fill="#C4B8FF"/>
<path d="M253.665 528.138H242.34V529.166H253.665V528.138Z" fill="#C4B8FF"/>
<path d="M421.193 535.972H408.792V537H421.193V535.972Z" fill="#C4B8FF"/>
<path d="M708.257 535.972H704.204V537H708.257V535.972Z" fill="#C4B8FF"/>
<path d="M682.361 535.972H489.699V537H682.361V535.972Z" fill="#C4B8FF"/>
<path d="M402.569 535.972H208.734V537H402.569V535.972Z" fill="#C4B8FF"/>
<path d="M202.048 535.972H194.678V537H202.048V535.972Z" fill="#C4B8FF"/>
<path d="M738.005 528.262H700.028V529.29H738.005V528.262Z" fill="#C4B8FF"/>
<path d="M235.258 528.138H154.747V529.166H235.258V528.138Z" fill="#C4B8FF"/>
<path d="M147.032 528.138H79.0398V529.166H147.032V528.138Z" fill="#C4B8FF"/>
<path d="M725.985 520.428H720.755V521.456H725.985V520.428Z" fill="#C4B8FF"/>
<path d="M714.954 520.428H292.753V521.456H714.954V520.428Z" fill="#C4B8FF"/>
<path d="M292.753 520.428H66.9739V521.456H292.753V520.428Z" fill="#C4B8FF"/>
<path d="M258.952 520.428H195.583V521.456H258.952V520.428Z" fill="#40327A"/>
<path d="M188.692 520.428H118.323V521.456H188.692V520.428Z" fill="#40327A"/>
<path d="M112.007 520.428H106.859V521.456H112.007V520.428Z" fill="#40327A"/>
<path d="M672.949 520.428H667.292V521.456H672.949V520.428Z" fill="#40327A"/>
<path d="M660.735 520.428H642.322V521.456H660.735V520.428Z" fill="#40327A"/>
<path d="M416.857 520.428H406.869V521.456H416.857V520.428Z" fill="#40327A"/>
<path d="M596.635 520.428H441.235V521.456H596.635V520.428Z" fill="#40327A"/>
<path d="M352.269 520.428H304.911V521.456H352.269V520.428Z" fill="#40327A"/>
<path d="M58.0557 520.428H53V521.456H58.0557V520.428Z" fill="#C4B8FF"/>
<path d="M275.441 520.428H264.887V521.456H275.441V520.428Z" fill="#40327A"/>
<path d="M398.573 520.428H392.936V521.456H398.573V520.428Z" fill="#40327A"/>
<path d="M647.475 475.086C647.475 462.847 611.381 431.697 611.381 407.522C611.381 394.158 621.667 383.625 639.154 389.891C639.154 389.891 614.981 314.844 661.269 302.667C680.937 297.485 704.765 318.031 680.644 345.218C664.144 363.815 660.914 382.824 670.959 377.997C694.689 366.586 698.331 394.913 672.414 431.07C664.885 441.571 647.475 465.51 647.475 475.086Z" fill="#E9E6FF"/>
<path d="M625.36 494.254L627.217 503.732L630.503 520.428H664.448L668.665 498.967L669.591 494.254H625.36Z" fill="#DDD6FF"/>
<path d="M625.36 494.254L627.217 503.732L668.665 498.967L669.591 494.254H625.36Z" fill="#CCC2FF"/>
<path d="M647.99 490.666H646.961V445.673C646.961 374.995 656.306 337.98 656.399 337.615L657.397 337.872C657.299 338.237 647.99 375.139 647.99 445.673V490.666Z" fill="#7760DB"/>
<path d="M647.99 438.323H646.961C646.961 419.54 654.347 405.086 669.54 394.117L670.141 394.949C655.237 405.713 647.99 419.895 647.99 438.323Z" fill="#7760DB"/>
<path d="M655.231 493.74H622.315V494.768H655.231V493.74Z" fill="#7760DB"/>
<path d="M661.424 493.74H658.508V494.768H661.424V493.74Z" fill="#7760DB"/>
<path d="M672.631 493.74H664.258V494.768H672.631V493.74Z" fill="#7760DB"/>
<path d="M383.056 169.282C445.504 192.413 312.338 228.626 298.878 214.804C285.419 200.982 296.451 184.307 327.989 173.682C354.697 164.682 375.45 166.471 383.056 169.282Z" fill="#F8F7FF"/>
<path d="M460.533 258.496L379.77 244.623V520.371H458.846L460.533 258.496Z" fill="#E9E6FF"/>
<path d="M133.017 430.628V430.623H120.674V430.654H119.645V430.623H102.153V464.548H123.189L125.565 430.628H133.017Z" fill="#FF809F"/>
<path d="M130.07 425.508H133.017V430.648H133.531L133.963 424.48H130.363C130.317 424.835 130.218 425.182 130.07 425.508Z" fill="#40327A"/>
<path d="M120.673 430.648V425.508H123.512C123.366 425.182 123.269 424.835 123.224 424.48H119.624V430.648H120.673Z" fill="#40327A"/>
<path d="M133.511 430.628H133.017H125.565L123.188 464.548V464.553H131.129L133.511 430.628Z" fill="#E5659B"/>
<path d="M126.727 427.626C127.615 427.642 128.477 427.33 129.148 426.749C129.819 426.168 130.252 425.36 130.363 424.48C130.371 424.35 130.371 424.22 130.363 424.089L130.471 417.921L130.554 413.136L124.809 413.413L125.277 417.567L123.405 422.815C123.267 423.189 123.194 423.583 123.189 423.982C123.186 424.153 123.196 424.325 123.219 424.496C123.328 425.353 123.742 426.143 124.385 426.72C125.028 427.298 125.857 427.625 126.722 427.641L126.727 427.626Z" fill="#FF95A9"/>
<path d="M130.579 413.136L131.063 384.875H121.625L124.834 413.413L130.579 413.136Z" fill="#FFD4CC"/>
<path d="M130.604 381.004L130.165 405.894L131.193 405.912L131.632 381.022L130.604 381.004Z" fill="#FF95A9"/>
<path d="M130.433 409.527L130.41 410.684L131.438 410.704L131.461 409.548L130.433 409.527Z" fill="#FF95A9"/>
<path d="M413.812 236.753H406.699V520.423H413.812V236.753Z" fill="white"/>
<path d="M590.428 250.277H460.821V520.428H590.428V250.277Z" fill="#CCC2FF"/>
<path d="M341.35 250.277H206.6V520.428H341.35V250.277Z" fill="#CCC2FF"/>
<path d="M333.121 258.502H214.829V520.428H333.121V258.502Z" fill="#FFD4CC"/>
<path d="M323.349 510.656H224.601V268.263H323.349V510.656ZM225.63 509.628H322.321V269.291H225.63V509.628Z" fill="white"/>
<path d="M582.199 258.502H469.05V520.428H582.199V258.502Z" fill="white"/>
<path d="M590.942 274.092H589.913V250.786H494.776V249.758H590.942V274.092Z" fill="#8B77E8"/>
<path d="M469.132 520.428H413.812V236.753L469.132 258.496V520.428Z" fill="#FFD4CC"/>
<path d="M459.365 510.656H423.584V251.074L459.365 265.138V510.656ZM424.613 509.628H458.336V265.852L424.613 252.595V509.628Z" fill="white"/>
<path d="M407.213 374.275H406.185V236.244H413.91L413.997 236.275L469.322 258.018L468.947 258.98L413.714 237.272H407.213V374.275Z" fill="#8B77E8"/>
<path d="M146.389 450.274H143.792L141.719 464.553H146.389V464.548V450.274Z" fill="#E5659B"/>
<path d="M151.532 450.274H146.389V464.548H151.532V450.274Z" fill="#40327A"/>
<path d="M143.797 450.274H132.132L134.812 413.166C134.812 413.022 134.812 412.879 134.812 412.735C134.812 412.699 134.812 412.663 134.812 412.632V412.37L133.963 424.485L133.531 430.654L131.155 464.579L127.555 515.591C127.555 515.668 127.555 515.75 127.555 515.827H134.241H134.277L141.724 464.559L143.797 450.274Z" fill="#FF95A9"/>
<path d="M134.236 515.797H127.55V520.423H136.921C137.235 520.421 137.541 520.316 137.79 520.124C138.039 519.931 138.218 519.663 138.299 519.359C138.38 519.055 138.359 518.733 138.239 518.442C138.12 518.152 137.907 517.908 137.636 517.75L134.272 515.817L134.236 515.797Z" fill="#40327A"/>
<path d="M150.241 332.043V348.23L157.442 347.849C157.442 347.695 157.442 347.536 157.411 347.376L156.547 340.262L157.231 340.18C159.157 339.946 160.941 339.048 162.275 337.641C163.609 336.233 164.41 334.404 164.539 332.47L155.235 323.932C153.735 324.691 152.474 325.851 151.592 327.283C150.711 328.714 150.243 330.362 150.241 332.043Z" fill="#FF95A9"/>
<path d="M155.559 515.797V520.423H164.93C165.245 520.421 165.55 520.316 165.799 520.124C166.048 519.931 166.227 519.663 166.308 519.359C166.39 519.055 166.369 518.733 166.249 518.442C166.129 518.152 165.917 517.908 165.645 517.75L162.246 515.797H155.559Z" fill="#40327A"/>
<path d="M167.137 450.608C167.137 450.495 167.162 450.387 167.173 450.274L167.137 450.608Z" fill="#F04F4F"/>
<path d="M155.559 450.274V515.786V515.802H162.246L167.137 450.608L167.162 450.274H155.559Z" fill="#FF95A9"/>
<path d="M142.964 392.426L142.82 392.539L141.673 393.428C139.531 395.092 137.797 397.223 136.604 399.658C135.412 402.094 134.792 404.77 134.791 407.481V412.622C134.791 412.652 134.791 412.688 134.791 412.724C134.791 412.868 134.791 413.012 134.791 413.156L132.112 450.264H167.157L169.919 413.156C169.919 412.976 169.945 412.796 169.945 412.616V405.574C169.943 401.009 168.887 396.506 166.859 392.415H142.943L142.964 392.426Z" fill="#7760DB"/>
<path d="M131.068 384.874H150.241V332.043C150.24 330.357 150.708 328.705 151.591 327.269C152.475 325.833 153.74 324.671 155.246 323.911L154.423 323.156L151.604 320.585L146.394 320.436C145.87 320.424 145.355 320.297 144.885 320.064C144.415 319.832 144.002 319.5 143.674 319.091C143.346 318.683 143.111 318.207 142.986 317.699C142.86 317.19 142.848 316.66 142.949 316.146C143.05 315.632 143.262 315.146 143.571 314.722C143.879 314.298 144.276 313.947 144.735 313.693C145.193 313.439 145.702 313.288 146.225 313.25C146.748 313.213 147.272 313.29 147.762 313.477L153.538 315.641C153.743 315.719 153.937 315.825 154.114 315.954L158.028 318.709L163.284 322.41L167.45 321.896L167.337 320.94C166.821 316.707 164.828 312.792 161.709 309.882C158.59 306.972 154.544 305.254 150.284 305.03C146.023 304.806 141.819 306.09 138.412 308.657C135.005 311.224 132.612 314.909 131.654 319.064L116.533 384.874H131.068Z" fill="#40327A"/>
<path d="M154.114 315.934C153.937 315.804 153.743 315.699 153.538 315.62L153.276 316.967L154.114 315.934Z" fill="#FF809F"/>
<path d="M183.05 336.294L163.29 322.379L158.033 318.678L154.433 323.15L155.256 323.906L164.56 332.444L172.141 339.404L157.822 347.829H157.462L150.262 348.209V384.854H140.49L142.851 392.518L142.995 392.405H166.91C166.91 392.194 166.91 391.983 166.91 391.773L166.802 373.921C167.802 373.751 168.75 373.355 169.574 372.765C170.399 372.175 171.078 371.405 171.561 370.513C172.043 369.622 172.317 368.632 172.36 367.62C172.404 366.607 172.216 365.598 171.812 364.668L168.145 356.331L183.348 344.051C183.697 343.767 184.006 343.439 184.268 343.074C184.636 342.549 184.895 341.958 185.033 341.332C185.17 340.707 185.183 340.061 185.069 339.431C184.956 338.801 184.719 338.199 184.373 337.661C184.026 337.123 183.576 336.658 183.05 336.294Z" fill="#FFD4CC"/>
<path d="M175.039 330.039L174.447 330.879L175.477 331.604L176.069 330.764L175.039 330.039Z" fill="#FF95A9"/>
<path d="M171.539 354.208L170.891 353.421L182.988 343.655C183.302 343.404 183.579 343.11 183.811 342.781C184.476 341.842 184.741 340.678 184.548 339.543C184.356 338.409 183.72 337.398 182.782 336.731L182.35 336.428L178.292 333.565L178.884 332.727L183.811 336.196C184.818 337.068 185.466 338.283 185.628 339.605C185.79 340.927 185.456 342.262 184.69 343.352C184.5 343.624 184.283 343.877 184.042 344.107L183.662 344.426L171.539 354.208Z" fill="#FF95A9"/>
<path d="M170.891 353.417L165.507 357.766L166.153 358.566L171.537 354.216L170.891 353.417Z" fill="#FF95A9"/>
<path d="M168.564 356.116L167.622 356.529L168.615 358.788L169.557 358.375L168.564 356.116Z" fill="#FF95A9"/>
<path d="M166.334 389.701L166.237 373.504L166.669 373.432C168.163 373.182 169.513 372.391 170.462 371.21C171.41 370.029 171.891 368.54 171.812 367.028C171.77 366.285 171.596 365.555 171.297 364.874L171.102 364.427L169.168 360.027L170.13 359.59L172.46 364.884C172.803 365.84 172.941 366.857 172.863 367.87C172.785 368.882 172.494 369.867 172.008 370.759C171.522 371.65 170.853 372.429 170.044 373.044C169.236 373.659 168.306 374.096 167.317 374.327L167.409 389.665L166.334 389.701Z" fill="#FF95A9"/>
<path d="M154.114 315.934L153.276 316.962L153.538 315.615L147.762 313.451C147.273 313.264 146.748 313.187 146.225 313.225C145.702 313.262 145.193 313.413 144.735 313.667C144.277 313.921 143.879 314.273 143.571 314.696C143.262 315.12 143.05 315.606 142.949 316.12C142.848 316.634 142.86 317.164 142.986 317.673C143.111 318.182 143.346 318.657 143.674 319.066C144.002 319.474 144.415 319.806 144.885 320.039C145.355 320.271 145.87 320.398 146.394 320.411L151.604 320.56L154.423 323.13L158.023 318.658L154.109 315.903L154.114 315.934Z" fill="#FF95A9"/>
<path d="M582.194 497.821H491.746V520.423H582.194V497.821Z" fill="#F2F0FF"/>
<path d="M582.194 475.219H514.355V497.821H582.194V475.219Z" fill="#F2F0FF"/>
<path d="M582.199 452.623H536.975V475.219H582.199V452.623Z" fill="#F2F0FF"/>
<path d="M582.199 430.021H559.584V452.623H582.199V430.021Z" fill="#F2F0FF"/>
<path d="M407.214 383.065H406.185V391.459H407.214V383.065Z" fill="#8B77E8"/>
<path d="M582.713 512.178H581.684V259.01H469.05V257.982H582.713V512.178Z" fill="#8B77E8"/>
<path d="M254.889 362.828L252.317 360.258L254.889 362.828Z" fill="white"/>
<path d="M252.678 359.867L251.951 360.594L254.522 363.164L255.25 362.437L252.678 359.867Z" fill="#FAB4A8"/>
<path d="M311.186 342.308V344.719L289.389 366.503H258.561L256.921 364.863L311.186 342.308Z" fill="white"/>
<path d="M289.6 367.017H258.345L256.561 365.228L257.286 364.504L258.772 365.989H289.173L310.672 344.503V342.308H311.7V344.93L289.6 367.017Z" fill="#FAB4A8"/>
<path d="M311.7 327.484H310.672V338.988H311.7V327.484Z" fill="#FAB4A8"/>
<path d="M311.7 324.06H310.672V325.51H311.7V324.06Z" fill="#FAB4A8"/>
<path d="M258.772 365.989L237.274 344.503V314.119L258.772 292.633H289.173L310.672 314.119V344.503L289.173 365.989H258.772Z" fill="white"/>
<path d="M288.325 294.689H259.626L239.331 314.972V343.65L259.626 363.933H288.325L308.614 343.65V314.972L288.325 294.689Z" fill="#FF809F"/>
<path d="M253.768 333.786C253.791 333.47 253.751 333.154 253.649 332.854C253.548 332.555 253.387 332.279 253.176 332.043C252.544 331.51 251.818 331.097 251.037 330.825C249.144 330.105 247.785 329.266 246.958 328.306C246.136 327.363 245.693 326.149 245.714 324.898C245.686 324.175 245.824 323.454 246.116 322.792C246.409 322.129 246.848 321.542 247.401 321.074C248.607 320.084 250.135 319.57 251.695 319.629C252.768 319.614 253.829 319.865 254.781 320.359C255.664 320.825 256.39 321.54 256.869 322.415C257.368 323.346 257.619 324.388 257.6 325.443H253.809C253.857 324.726 253.657 324.015 253.243 323.428C253.044 323.195 252.794 323.012 252.512 322.893C252.23 322.773 251.924 322.721 251.618 322.739C251.334 322.725 251.051 322.77 250.785 322.871C250.52 322.972 250.278 323.126 250.075 323.325C249.689 323.762 249.49 324.332 249.52 324.914C249.523 325.177 249.58 325.438 249.687 325.679C249.794 325.92 249.949 326.137 250.142 326.317C250.791 326.88 251.537 327.32 252.343 327.617C254.181 328.282 255.517 329.098 256.35 330.064C257.207 331.096 257.652 332.409 257.6 333.75C257.638 334.466 257.517 335.183 257.245 335.847C256.974 336.512 256.56 337.109 256.031 337.594C255.002 338.513 253.583 338.974 251.772 338.977C250.62 338.991 249.48 338.734 248.445 338.227C247.471 337.752 246.654 337.006 246.094 336.078C245.51 335.078 245.216 333.936 245.246 332.778H249.067C248.994 333.618 249.218 334.456 249.7 335.148C249.968 335.414 250.291 335.617 250.646 335.744C251.002 335.872 251.381 335.919 251.757 335.883C253.099 335.893 253.768 335.194 253.768 333.786Z" fill="white"/>
<path d="M272.329 323.058H267.67V338.731H263.854V323.058H259.271V319.886H272.329V323.058Z" fill="white"/>
<path d="M287.43 331.005C287.43 333.53 286.831 335.492 285.635 336.89C284.438 338.288 282.779 338.988 280.656 338.988C279.725 339.037 278.794 338.877 277.932 338.522C277.07 338.166 276.298 337.623 275.672 336.931C274.462 335.561 273.85 333.621 273.836 331.113V327.874C273.836 325.284 274.435 323.262 275.631 321.809C276.266 321.124 277.035 320.577 277.89 320.202C278.745 319.827 279.668 319.632 280.602 319.628C281.536 319.625 282.46 319.814 283.318 320.183C284.176 320.551 284.949 321.093 285.588 321.773C286.799 323.195 287.412 325.198 287.43 327.782V331.005ZM283.608 327.849C283.608 326.135 283.367 324.871 282.883 324.055C282.644 323.678 282.315 323.367 281.925 323.15C281.535 322.932 281.097 322.816 280.651 322.812C280.204 322.807 279.764 322.914 279.37 323.123C278.975 323.332 278.64 323.637 278.393 324.009C277.91 324.806 277.658 326.024 277.642 327.653V331.005C277.642 332.65 277.884 333.863 278.378 334.644C278.617 335.026 278.955 335.337 279.356 335.543C279.757 335.75 280.206 335.844 280.656 335.816C281.094 335.842 281.531 335.749 281.921 335.549C282.311 335.348 282.639 335.046 282.873 334.675C283.356 333.909 283.598 332.727 283.608 331.118V327.849Z" fill="white"/>
<path d="M293.967 332.105V338.731H290.161V319.886H296.579C297.404 319.848 298.227 319.983 298.996 320.282C299.765 320.581 300.462 321.038 301.044 321.624C301.604 322.228 302.039 322.937 302.324 323.71C302.609 324.482 302.738 325.304 302.705 326.127C302.747 326.93 302.623 327.733 302.339 328.486C302.056 329.238 301.62 329.925 301.059 330.501C299.962 331.57 298.443 332.105 296.502 332.105H293.967ZM293.967 328.933H296.579C296.896 328.951 297.212 328.896 297.505 328.773C297.797 328.65 298.057 328.462 298.266 328.224C298.696 327.628 298.905 326.901 298.858 326.168C298.9 325.374 298.687 324.586 298.251 323.921C298.069 323.657 297.826 323.442 297.542 323.294C297.257 323.146 296.941 323.07 296.62 323.073H293.967V328.933Z" fill="white"/>
<path d="M484.757 249.763H478.528V250.791H484.757V249.763Z" fill="#8B77E8"/>
<path d="M341.865 502.997H340.836V512.178H341.865V502.997Z" fill="#8B77E8"/>
<path d="M207.114 438.323H206.086V249.758H341.865V268.777H340.836V250.786H207.114V438.323Z" fill="#8B77E8"/>
<path d="M341.865 485.407H340.836V489.047H341.865V485.407Z" fill="#8B77E8"/>
<path d="M333.636 302.024H332.607V450.274H333.636V302.024Z" fill="#8B77E8"/>
<path d="M333.636 295.851H332.607V298.549H333.636V295.851Z" fill="#8B77E8"/>
<path d="M215.343 486.523H214.315V257.982H333.636V285.313H332.607V259.01H215.343V486.523Z" fill="#8B77E8"/>
<path d="M207.114 449.03H206.086V507.588H207.114V449.03Z" fill="#8B77E8"/>
<path d="M590.942 280.091H589.913V289.687H590.942V280.091Z" fill="#8B77E8"/>
<path d="M537.484 466.106H536.456V452.109H576.392V453.137H537.484V466.106Z" fill="#8B77E8"/>
<path d="M560.099 437.12H559.07V429.507H582.199V430.535H560.099V437.12Z" fill="#8B77E8"/>
<path d="M560.099 439.094H559.07V440.291H560.099V439.094Z" fill="#8B77E8"/>
<path d="M537.489 468.09H536.461V469.205H537.489V468.09Z" fill="#8B77E8"/>
<path d="M514.87 491.653H513.841V474.705H553.772V475.733H514.87V491.653Z" fill="#8B77E8"/>
<path d="M552.8 497.307H547.945V498.335H552.8V497.307Z" fill="#8B77E8"/>
<path d="M573.821 474.705H556.684V475.733H573.821V474.705Z" fill="#8B77E8"/>
<path d="M577.549 474.705H576.583V475.733H577.549V474.705Z" fill="#8B77E8"/>
<path d="M492.261 507.716H491.232V497.307H542.524V498.335H492.261V507.716Z" fill="#8B77E8"/>
<path d="M492.281 511.612H491.252V512.728H492.281V511.612Z" fill="#8B77E8"/>
<path d="M407.214 464.548H406.185V493.673H407.214V464.548Z" fill="#8B77E8"/>
<path d="M484.278 313.235C483.705 313.35 483.118 313.387 482.535 313.343L483.821 319.773L486.907 319.156L487.796 322.698L485.338 312.932C484.995 313.065 484.64 313.166 484.278 313.235Z" fill="#FF95A9"/>
<path d="M463.371 337.415H476.229L476.142 339.985L476.327 334.567L476.589 326.857L466.622 328.851C465.622 329.054 464.583 328.919 463.67 328.465L463.289 339.964L463.371 337.415Z" fill="#FF95A9"/>
<path d="M466.632 328.841L476.6 326.846L476.337 334.557L479.938 333.837L486.264 332.567C486.756 332.468 487.224 332.271 487.638 331.986C488.052 331.701 488.404 331.335 488.672 330.91C488.941 330.485 489.12 330.01 489.199 329.514C489.278 329.018 489.256 328.511 489.133 328.023L487.796 322.708L486.906 319.167L483.821 319.784L482.535 313.327C483.118 313.371 483.705 313.335 484.278 313.22C484.642 313.146 484.999 313.039 485.343 312.901C486.479 312.457 487.46 311.69 488.165 310.696C488.87 309.701 489.27 308.523 489.313 307.304C489.357 306.086 489.043 304.882 488.411 303.84C487.779 302.797 486.855 301.963 485.754 301.438C485.453 300.338 484.821 299.357 483.944 298.627C483.066 297.898 481.985 297.456 480.848 297.362C480.426 297.298 479.996 297.308 479.577 297.393L479.295 297.449L474.424 298.426L473.966 298.518C473.033 298.706 472.208 299.245 471.662 300.025C471.128 299.571 470.476 299.278 469.782 299.18C469.088 299.081 468.38 299.181 467.74 299.467C467.101 299.754 466.555 300.216 466.167 300.799C465.779 301.383 465.564 302.064 465.547 302.764C463.265 303.372 461.302 304.828 460.059 306.835C458.816 308.841 458.388 311.247 458.861 313.559L460.476 321.588L461.201 325.186C461.32 325.784 461.555 326.352 461.894 326.859C462.233 327.365 462.669 327.8 463.176 328.137C463.684 328.475 464.253 328.709 464.852 328.826C465.45 328.944 466.066 328.941 466.663 328.82L466.632 328.841ZM477.253 319.074C477.201 318.82 477.2 318.559 477.25 318.305C477.299 318.05 477.398 317.808 477.542 317.592C477.685 317.377 477.87 317.191 478.085 317.047C478.3 316.902 478.542 316.802 478.796 316.751L480.061 316.494L480.838 320.37L479.572 320.621C479.318 320.672 479.057 320.673 478.803 320.622C478.549 320.572 478.307 320.472 478.091 320.329C477.876 320.185 477.691 320 477.547 319.785C477.403 319.57 477.303 319.328 477.253 319.074Z" fill="#40327A"/>
<path d="M420.071 425.647V425.678H419.043V425.647H406.699V425.678H405.671V425.647H388.179V459.573H420.231L425.935 425.647H420.071Z" fill="#FF809F"/>
<path d="M432.415 446.979L436 425.647H432.415V446.979Z" fill="#40327A"/>
<path d="M417.315 419.504C417.285 419.856 417.209 420.201 417.088 420.532H419.058V425.673H420.087V419.504H417.315Z" fill="#40327A"/>
<path d="M406.715 425.673V420.532H409.368C409.25 420.201 409.176 419.855 409.147 419.504H405.686V425.673H406.715Z" fill="#40327A"/>
<path d="M432.415 446.979V425.647H425.935L420.231 459.573H429.365L430.677 457.301L432.415 446.979Z" fill="#E5659B"/>
<path d="M479.578 320.621L480.843 320.37L480.066 316.494L478.801 316.751C478.29 316.856 477.841 317.159 477.552 317.594C477.264 318.029 477.16 318.561 477.262 319.072C477.365 319.584 477.666 320.034 478.1 320.324C478.534 320.615 479.065 320.722 479.578 320.621Z" fill="#FF95A9"/>
<path d="M463.372 337.929L463.284 340.483V340.499H476.147V340.483L476.234 337.929H463.372Z" fill="white"/>
<path d="M514.253 420.44C514.003 420.138 513.71 419.875 513.383 419.659L508.04 416.06L508.4 416.713L507.371 414.888L501.549 418.075L503.293 420.167L507.921 425.693C508.627 426.507 509.624 427.011 510.698 427.098C511.771 427.185 512.836 426.848 513.664 426.159C514.492 425.47 515.016 424.483 515.124 423.412C515.232 422.341 514.916 421.27 514.242 420.43L514.253 420.44Z" fill="#FF95A9"/>
<path d="M489.951 383.045L492.24 351.514C492.289 350.85 492.273 350.182 492.194 349.52C491.889 347.028 490.682 344.735 488.801 343.071C486.921 341.407 484.496 340.489 481.985 340.488H476.147H463.289H454.14C452.651 340.483 451.179 340.802 449.826 341.424C448.473 342.045 447.272 342.954 446.307 344.087L424.433 369.721C423.789 370.468 423.314 371.344 423.039 372.291L413.133 406.16L420.082 408.216L435.31 378.835L443.869 372.05L439.446 405.22L436.031 425.647L432.43 446.974L430.697 457.295L429.344 459.573L400.836 508.857L400.774 508.97L407.743 513.216L408.201 513.514L441.364 462.626C441.763 462.01 442.044 461.325 442.192 460.606L451.342 416.914C454.135 417.935 457.131 418.276 460.083 417.91C463.034 417.543 465.856 416.479 468.314 414.806L500.407 441.942L491.767 491.987C491.724 492.231 491.701 492.479 491.7 492.727H500.387L500.49 492.784L512.663 440.913C512.911 439.889 512.878 438.817 512.569 437.81C512.259 436.802 511.685 435.896 510.904 435.187L476.96 403.914L479.809 391.973L499.569 415.68L505.921 412.2L489.951 383.045Z" fill="#7760DB"/>
<path d="M413.617 406.325L412.629 406.037L422.689 371.628H422.715C422.823 371.345 422.946 371.069 423.085 370.801C423.277 370.44 423.499 370.096 423.749 369.773L424.042 369.418L446.317 343.321C446.665 342.951 447.04 342.608 447.438 342.293C449.206 340.878 451.378 340.065 453.641 339.969H454.155H463.804H482.483C485.029 340.091 487.45 341.109 489.317 342.843C491.185 344.576 492.378 346.914 492.687 349.443C492.75 349.93 492.775 350.422 492.765 350.913L492.718 351.535L490.445 382.89L499.029 398.563L498.129 399.077L489.386 383.142V382.988L491.669 351.463C491.715 350.831 491.701 350.196 491.628 349.566C491.339 347.2 490.195 345.021 488.41 343.44C486.625 341.859 484.323 340.985 481.938 340.982H481.424H462.713H454.088C451.884 340.974 449.743 341.717 448.019 343.089C447.525 343.487 447.069 343.929 446.656 344.411L446.281 344.853L424.788 370.04C424.467 370.414 424.189 370.822 423.96 371.258C423.768 371.634 423.611 372.026 423.492 372.43L423.337 372.97L413.617 406.325Z" fill="#4F37B3"/>
<path d="M499.057 398.648L498.155 399.141L505.463 412.483L506.365 411.989L499.057 398.648Z" fill="#4F37B3"/>
<path d="M509.382 457.085L508.353 456.848L512.005 441.289L512.113 440.775C512.21 440.367 512.26 439.95 512.262 439.531C512.265 438.78 512.11 438.037 511.807 437.35C511.504 436.662 511.06 436.047 510.503 435.542L510.143 435.208L476.343 404.068L479.279 391.829L480.308 392.071L477.51 403.719L511.594 435.151C512.708 436.344 513.329 437.914 513.332 439.546C513.332 439.875 513.306 440.203 513.255 440.528L513.147 441.042L509.382 457.085Z" fill="#4F37B3"/>
<path d="M506.345 465.611L505.84 467.758L506.842 467.993L507.346 465.846L506.345 465.611Z" fill="#4F37B3"/>
<path d="M426.413 486.471L425.549 485.911L440.922 462.312C441.287 461.747 441.545 461.12 441.683 460.462L441.786 459.948L450.946 416.179L451.501 416.384C454.221 417.375 457.137 417.705 460.009 417.348C462.882 416.99 465.628 415.955 468.021 414.328L468.34 414.107L500.958 441.684L494.889 476.823L493.86 476.648L499.831 442.091L468.258 415.392C465.836 416.97 463.089 417.982 460.222 418.353C457.355 418.724 454.441 418.445 451.697 417.536L442.557 461.181C442.428 461.611 442.255 462.026 442.043 462.42L441.755 462.867L426.413 486.471Z" fill="#4F37B3"/>
<path d="M418.57 477.239L402.625 504.773L403.516 505.288L419.46 477.754L418.57 477.239Z" fill="#4F37B3"/>
<path d="M426.045 464.313L422.225 470.91L423.115 471.425L426.935 464.828L426.045 464.313Z" fill="#4F37B3"/>
<path d="M413 423.236C413.881 423.284 414.755 423.046 415.491 422.559C416.227 422.073 416.787 421.362 417.088 420.532C417.209 420.201 417.285 419.855 417.315 419.504C417.315 419.453 417.315 419.402 417.315 419.35L417.664 412.832L418.616 411.002L412.249 409.142L411.662 411.141V411.11L409.322 417.767C409.192 418.136 409.114 418.522 409.091 418.913C409.075 419.11 409.075 419.308 409.091 419.504C409.119 419.855 409.193 420.201 409.312 420.532C409.59 421.297 410.089 421.962 410.745 422.444C411.402 422.925 412.186 423.201 413 423.236Z" fill="#FF95A9"/>
<path d="M411.673 411.141L412.254 409.142L418.626 411.008L420.071 408.222L413.123 406.186L412.254 409.142L411.678 411.11L411.667 411.141H411.673Z" fill="white"/>
<path d="M491.705 492.681V497.821H504.758C505.045 497.82 505.322 497.724 505.548 497.548C505.774 497.372 505.934 497.127 506.005 496.849C506.076 496.572 506.052 496.279 505.938 496.017C505.824 495.755 505.626 495.538 505.376 495.4L500.495 492.722L500.392 492.665L491.705 492.681Z" fill="#40327A"/>
<path d="M400.795 508.97L400.857 508.857L398.1 513.052L409.014 520.212C409.253 520.369 409.539 520.442 409.824 520.419C410.11 520.396 410.38 520.278 410.591 520.085C410.803 519.892 410.944 519.634 410.993 519.351C411.041 519.069 410.995 518.779 410.86 518.526L408.186 513.519L407.728 513.221L400.795 508.97Z" fill="#40327A"/>
<path d="M134.075 416.11L134.013 417.146L135.04 417.208L135.102 416.171L134.075 416.11Z" fill="#4F37B3"/>
<path d="M167.656 450.788H131.582L132.148 442.908L133.177 442.985L132.662 449.76H166.674L169.395 413.125C169.395 412.94 169.42 412.786 169.42 412.611V405.569C169.414 401.191 168.426 396.87 166.53 392.924H143.139L141.987 393.819C139.899 395.428 138.211 397.496 137.051 399.863C135.892 402.229 135.293 404.831 135.301 407.466V412.606C135.301 412.606 135.301 412.642 135.208 414.225L134.179 414.164C134.226 413.336 134.267 412.622 134.272 412.586V407.445C134.266 404.656 134.902 401.902 136.131 399.398C137.36 396.893 139.149 394.705 141.359 393.001L142.784 391.891H167.198L167.337 392.179C169.393 396.335 170.466 400.907 170.475 405.543V412.652L170.444 413.166L167.656 450.788Z" fill="#4F37B3"/>
<path d="M163.693 508.045L163.429 511.813L164.458 511.885L164.721 508.117L163.693 508.045Z" fill="#4F37B3"/>
<path d="M166.251 453.281L162.633 506.055L163.659 506.126L167.278 453.351L166.251 453.281Z" fill="#4F37B3"/>
<path d="M499.178 415.999L477.062 389.46C476.229 388.471 475.664 387.285 475.422 386.016L475.355 385.502L474.038 374.908L475.067 374.784L476.363 385.389C476.51 386.632 477.016 387.805 477.819 388.766L499.975 415.341L499.178 415.999Z" fill="#4F37B3"/>
<path d="M474.63 371.206L473.609 371.33L473.757 372.544L474.778 372.42L474.63 371.206Z" fill="#4F37B3"/>
<path d="M445.521 355.394L438.633 407.199L439.652 407.334L446.541 355.529L445.521 355.394Z" fill="#4F37B3"/>
<path d="M437.229 409.093L436.65 413.505L437.668 413.638L438.248 409.226L437.229 409.093Z" fill="#4F37B3"/>
<path d="M367.051 447.616L359.85 460.081L256.591 400.501L227.61 383.78L191.747 363.09L198.947 350.625L248.398 379.153L277.375 395.875L367.051 447.616Z" fill="#B3A4F5"/>
<path d="M200.33 362.386C201.041 362.386 201.616 361.811 201.616 361.101C201.616 360.391 201.041 359.816 200.33 359.816C199.62 359.816 199.045 360.391 199.045 361.101C199.045 361.811 199.62 362.386 200.33 362.386Z" fill="white"/>
<path d="M353.036 449.03C353.746 449.03 354.321 448.455 354.321 447.745C354.321 447.035 353.746 446.46 353.036 446.46C352.326 446.46 351.75 447.035 351.75 447.745C351.75 448.455 352.326 449.03 353.036 449.03Z" fill="white"/>
<path d="M277.375 395.875L256.591 400.501L251.32 397.458L232.876 386.812L253.66 382.191L272.108 392.837L277.375 395.875Z" fill="#8B77E8"/>
<path d="M360.035 460.786L274.67 411.527L275.184 410.637L359.66 459.382L364.309 451.333L365.199 451.847L360.035 460.786Z" fill="#8B77E8"/>
<path d="M200.587 367.59L200.072 368.48L269.837 408.736L270.351 407.845L200.587 367.59Z" fill="#8B77E8"/>
<path d="M360.694 373.134L272.108 392.837L251.32 397.458L180.694 413.166L177.562 399.118L232.876 386.812L253.66 382.191L357.567 359.081L360.694 373.134Z" fill="#B3A4F5"/>
<path d="M190.044 406.299C190.754 406.299 191.33 405.724 191.33 405.014C191.33 404.304 190.754 403.729 190.044 403.729C189.334 403.729 188.758 404.304 188.758 405.014C188.758 405.724 189.334 406.299 190.044 406.299Z" fill="white"/>
<path d="M350.464 369.325C351.174 369.325 351.75 368.75 351.75 368.04C351.75 367.33 351.174 366.755 350.464 366.755C349.754 366.755 349.178 367.33 349.178 368.04C349.178 368.75 349.754 369.325 350.464 369.325Z" fill="white"/>
<path d="M347.034 375.66L231.182 401.414L231.406 402.417L347.258 376.663L347.034 375.66Z" fill="#8B77E8"/>
<path d="M229.186 401.873L193.541 409.797L193.764 410.801L229.409 402.877L229.186 401.873Z" fill="#8B77E8"/>
<path d="M293.881 445.254L292.34 445.49L292.496 446.507L294.036 446.271L293.881 445.254Z" fill="#4F37B3"/>
<path d="M297.629 445.735L297.474 444.717L352.881 436.236L351.102 424.629L352.12 424.47L354.054 437.099L297.629 445.735Z" fill="#4F37B3"/>
<path d="M350.358 412.806L349.342 412.961L350.582 421.055L351.599 420.9L350.358 412.806Z" fill="#4F37B3"/>
<path d="M388.693 444.275H387.664V425.133H417.088V426.161H388.693V444.275Z" fill="white"/>
<path d="M388.693 447.807H387.664V449.03H388.693V447.807Z" fill="white"/>
<path d="M337.189 363.416L331.689 364.625L331.91 365.629L337.411 364.42L337.189 363.416Z" fill="white"/>
<path d="M329.396 365.179L198.919 393.85L199.14 394.854L329.617 366.183L329.396 365.179Z" fill="white"/>
<path d="M234.839 370.743L234.325 371.634L253.406 382.644L253.921 381.754L234.839 370.743Z" fill="white"/>
<path d="M220.361 362.376L219.846 363.267L231.044 369.728L231.558 368.838L220.361 362.376Z" fill="white"/>
<path d="M283.863 399.027L283.349 399.917L311.547 416.189L312.062 415.298L283.863 399.027Z" fill="white"/>
<path d="M345.532 417.027L322.851 395.859L303.862 415.5L303.121 414.786L322.815 394.415L346.236 416.276L345.532 417.027Z" fill="#8B77E8"/>
<path d="M300.728 417.253L293.596 424.626L294.336 425.341L301.467 417.968L300.728 417.253Z" fill="#8B77E8"/>
<path d="M349.843 412.894L288.781 422.243L292.422 445.997L353.484 436.647L349.843 412.894Z" fill="#7760DB"/>
<path d="M300.833 429.065C300.489 429.107 300.163 429.237 299.884 429.443C299.606 429.648 299.385 429.922 299.244 430.237C298.912 431.052 298.829 431.946 299.007 432.807C299.35 435.018 300.36 435.994 302.036 435.737C302.538 435.663 303.027 435.516 303.487 435.3C303.939 435.084 304.392 434.843 304.844 434.57L305.246 437.192C304.286 437.79 303.209 438.178 302.088 438.328C300.356 438.595 298.949 438.295 297.865 437.428C296.79 436.565 296.101 435.182 295.808 433.28C295.618 432.201 295.683 431.092 295.998 430.042C296.287 429.107 296.849 428.279 297.613 427.667C298.445 427.027 299.432 426.619 300.473 426.485C301.705 426.296 302.964 426.387 304.155 426.752L303.579 429.322C303.135 429.191 302.684 429.088 302.227 429.014C301.762 428.957 301.292 428.974 300.833 429.065Z" fill="white"/>
<path d="M307.56 437.356L305.801 425.868L308.887 425.39L310.265 434.375L314.688 433.697L315.074 436.205L307.56 437.356Z" fill="white"/>
<path d="M326.811 428.515C327.106 430.448 326.855 431.99 326.06 433.141C325.264 434.293 323.953 435.009 322.125 435.29C320.322 435.561 318.861 435.266 317.743 434.406C316.626 433.546 315.919 432.148 315.624 430.211C315.333 428.299 315.588 426.766 316.391 425.611C317.193 424.454 318.505 423.74 320.33 423.457C322.156 423.174 323.622 423.457 324.718 424.321C325.813 425.184 326.512 426.577 326.811 428.515ZM318.901 429.723C319.243 431.947 320.186 432.941 321.729 432.704C322.068 432.673 322.395 432.558 322.678 432.37C322.962 432.181 323.194 431.925 323.355 431.625C323.611 430.776 323.674 429.88 323.538 429.004C323.402 428.127 323.07 427.293 322.568 426.562C322.332 426.32 322.038 426.142 321.714 426.045C321.39 425.947 321.047 425.934 320.716 426.007C319.163 426.243 318.558 427.482 318.901 429.723Z" fill="white"/>
<path d="M336.768 429.317C336.879 429.989 336.792 430.679 336.516 431.301C336.22 431.938 335.745 432.474 335.148 432.843C334.438 433.279 333.644 433.561 332.818 433.671C332.174 433.777 331.521 433.822 330.869 433.805C330.289 433.767 329.716 433.661 329.161 433.491L328.739 430.72C329.373 430.935 330.029 431.08 330.694 431.152C331.291 431.23 331.896 431.23 332.494 431.152C332.853 431.126 333.195 430.988 333.471 430.756C333.561 430.673 333.63 430.569 333.67 430.454C333.71 430.338 333.722 430.214 333.703 430.093C333.68 429.944 333.612 429.806 333.507 429.697C333.369 429.572 333.208 429.473 333.034 429.404C332.828 429.312 332.278 429.147 331.393 428.89C330.751 428.729 330.133 428.482 329.557 428.155C329.142 427.917 328.79 427.584 328.529 427.184C328.259 426.749 328.084 426.262 328.014 425.755C327.921 425.283 327.943 424.795 328.078 424.334C328.213 423.872 328.458 423.45 328.791 423.103C329.623 422.32 330.693 421.837 331.831 421.73C333.092 421.554 334.376 421.645 335.6 421.997L335.014 424.567C334.082 424.26 333.095 424.154 332.119 424.254C331.806 424.277 331.509 424.397 331.27 424.598C331.195 424.671 331.137 424.761 331.104 424.86C331.07 424.959 331.06 425.065 331.074 425.169C331.099 425.289 331.152 425.402 331.229 425.497C331.306 425.593 331.405 425.669 331.517 425.719C332.183 426.002 332.871 426.23 333.574 426.403C334.414 426.587 335.198 426.971 335.858 427.523C336.347 428.007 336.667 428.636 336.768 429.317Z" fill="white"/>
<path d="M345.887 431.491L339.062 432.519L337.282 421.046L344.107 420.018L344.488 422.506L340.769 423.077L341.047 424.886L344.488 424.372L344.874 426.865L341.428 427.379L341.762 429.548L345.511 428.983L345.887 431.491Z" fill="white"/>
<path d="M326.579 394.62H309.607V396.677H326.579V394.62Z" fill="white"/>
<path d="M337.222 414.323L331.279 415.233L331.434 416.249L337.377 415.339L337.222 414.323Z" fill="white"/>
<path d="M290.114 434.473L288.181 421.833L328.385 415.68L328.539 416.693L289.353 422.691L291.133 434.318L290.114 434.473Z" fill="white"/>
</g>
<defs>
<clipPath id="clip0">
<rect width="685" height="370" fill="white" transform="translate(53 167)"/>
</clipPath>
</defs>
</svg>
