<svg width="11" height="7" viewBox="0 0 11 7" fill="none" xmlns="http://www.w3.org/2000/svg">
<path d="M0.787271 5.35491C0.781074 5.63666 0.954059 5.89141 1.21823 5.98956C1.48241 6.08772 1.77977 6.00773 1.95905 5.79029L5.42652 1.74273L8.89272 5.79029C9.03974 5.99032 9.28638 6.09121 9.53144 6.05154C9.77651 6.01188 9.97874 5.83836 10.0552 5.60216C10.1316 5.36596 10.0693 5.10686 9.89395 4.93116L5.92907 0.297081C5.80339 0.149803 5.61949 0.06498 5.42587 0.06498C5.23225 0.06498 5.04836 0.149803 4.92267 0.297081L0.953921 4.93116C0.849941 5.04823 0.790854 5.19838 0.787171 5.35491H0.787271Z" fill="#2D82FF"/>
</svg>
