<svg width="14" height="10" viewBox="0 0 14 10" fill="none" xmlns="http://www.w3.org/2000/svg">
<path d="M13.5974 1.60317C13.6061 1.20872 13.3639 0.852077 12.9941 0.714661C12.6242 0.577244 12.2079 0.689228 11.9569 0.993649L7.10248 6.66023L2.2498 0.993649C2.04397 0.713599 1.69868 0.572362 1.35559 0.627886C1.0125 0.683411 0.729376 0.926349 0.622385 1.25702C0.515394 1.5877 0.602547 1.95044 0.848085 2.19642L6.39891 8.68414C6.57487 8.89032 6.83233 9.00908 7.10339 9.00908C7.37445 9.00908 7.63191 8.89032 7.80787 8.68414L13.3641 2.19642C13.5097 2.03253 13.5924 1.82232 13.5976 1.60317H13.5974Z" fill="#AEBBCD"/>
</svg>
