<svg width="11" height="7" viewBox="0 0 11 7" fill="none" xmlns="http://www.w3.org/2000/svg">
<path d="M10.2127 1.64509C10.2189 1.36334 10.0459 1.10859 9.78177 1.01044C9.51759 0.912282 9.22023 0.992271 9.04095 1.20971L5.57348 5.25727L2.10728 1.20971C1.96026 1.00968 1.71362 0.908795 1.46856 0.948455C1.22349 0.988116 1.02126 1.16164 0.944839 1.39784C0.868418 1.63404 0.93067 1.89314 1.10605 2.06884L5.07093 6.70292C5.19661 6.8502 5.38051 6.93502 5.57413 6.93502C5.76775 6.93502 5.95164 6.8502 6.07733 6.70292L10.0461 2.06884C10.1501 1.95177 10.2091 1.80162 10.2128 1.64509H10.2127Z" fill="#2F3945"/>
</svg>
