<svg width="18" height="12" viewBox="0 0 18 12" fill="none" xmlns="http://www.w3.org/2000/svg">
<path d="M17.4821 2.06113C17.4933 1.55398 17.1819 1.09544 16.7064 0.918762C16.2309 0.742084 15.6956 0.886063 15.3729 1.27746L9.13148 8.56306L2.89232 1.27746C2.62768 0.917397 2.18373 0.735807 1.74262 0.807195C1.3015 0.878584 0.93749 1.19093 0.799931 1.61609C0.662371 2.04124 0.774424 2.50762 1.09012 2.82388L8.22689 11.1652C8.45312 11.4303 8.78414 11.583 9.13265 11.583C9.48116 11.583 9.81218 11.4303 10.0384 11.1652L17.1822 2.82388C17.3693 2.61316 17.4757 2.34289 17.4823 2.06113H17.4821Z" fill="#00A3E0"/>
</svg>
