<svg width="22" height="20" fill="none" xmlns="http://www.w3.org/2000/svg"><path fill-rule="evenodd" clip-rule="evenodd" d="M15.041 3.59h4.73c1.205 0 2.186.98 2.186 2.184l.002.352c.012.947.022 1.842-.72 2.831a3.558 3.558 0 01-1.865 1.29l-7.29 2.123a3.94 3.94 0 01-2.206 0l-7.29-2.123a3.558 3.558 0 01-1.866-1.29c-.74-.987-.73-1.876-.72-2.834.002-.115.003-.231.003-.349 0-1.205.98-2.185 2.185-2.185h4.73V1.683c0-.907.74-1.646 1.646-1.646h4.83c.907 0 1.645.739 1.645 1.646V3.59zM8.566 1.43a.252.252 0 00-.252.252V3.59h5.333V1.683a.252.252 0 00-.252-.252H8.567z" fill="#AEBBCD"/><path d="M19.764 11.586c-7.863 2.29-7.761 2.336-8.783 2.336-1.014 0-.774-.004-8.783-2.336a4.936 4.936 0 01-2.193-1.324v6.69c0 1.204.98 2.185 2.185 2.185h17.581c1.205 0 2.186-.98 2.186-2.186v-6.69a4.937 4.937 0 01-2.193 1.325z" fill="#AEBBCD"/></svg>