<svg width="18" height="18" fill="none" xmlns="http://www.w3.org/2000/svg"><path fill-rule="evenodd" clip-rule="evenodd" d="M9 0C4.037 0 0 4.037 0 9s4.037 9 9 9 9-4.037 9-9-4.037-9-9-9zm6.692 13.26c-.903-.431-2.041-.76-3.321-.969.138-.87.22-1.8.243-2.759h4.303a7.883 7.883 0 01-1.225 3.728zm-8.377 1.37C7.8 15.921 8.43 16.692 9 16.692c.57 0 1.2-.771 1.685-2.064a11.5 11.5 0 00.426-1.428c-.68-.07-1.389-.106-2.111-.106-.722 0-1.431.036-2.11.106.119.513.26.992.425 1.428zM9 12.03c-.797 0-1.574.041-2.316.12a19.628 19.628 0 01-.233-2.618h5.098a19.613 19.613 0 01-.233 2.618A22.038 22.038 0 009 12.03zM5.386 9.532H1.083a7.883 7.883 0 001.225 3.728c.903-.431 2.041-.76 3.321-.969-.138-.87-.22-1.8-.243-2.759zM2.308 4.74c.903.431 2.041.76 3.321.969-.138.87-.22 1.8-.243 2.759H1.083A7.883 7.883 0 012.308 4.74zm8.377-1.37C10.2 2.079 9.57 1.307 9 1.307c-.57 0-1.2.772-1.685 2.065A11.51 11.51 0 006.889 4.8c.68.07 1.389.106 2.111.106.722 0 1.431-.036 2.11-.106-.119-.513-.26-.992-.425-1.428zM9 5.97c.797 0 1.574-.041 2.316-.12.132.822.211 1.704.233 2.618H6.451c.022-.914.101-1.796.233-2.618.742.079 1.519.12 2.316.12zm3.37-.261c.139.87.222 1.8.244 2.759h4.303a7.883 7.883 0 00-1.225-3.728c-.903.431-2.041.76-3.321.969zm2.675-1.843c-.785.345-1.772.616-2.875.794a12.67 12.67 0 00-.488-1.664c-.267-.71-.579-1.292-.925-1.735a7.944 7.944 0 014.288 2.605zm-8.727-.87c.267-.71.579-1.292.926-1.735a7.944 7.944 0 00-4.29 2.605c.786.345 1.773.616 2.876.794a12.68 12.68 0 01.488-1.664zM2.955 14.134c.785-.345 1.772-.616 2.875-.794.134.598.298 1.156.488 1.664.267.71.579 1.292.926 1.735a7.945 7.945 0 01-4.29-2.605zm8.727.87c-.267.71-.579 1.292-.925 1.735a7.945 7.945 0 004.288-2.605c-.785-.345-1.772-.616-2.875-.794a12.668 12.668 0 01-.488 1.664z" fill="#fff"/></svg>