<svg width="24" height="24" fill="none" xmlns="http://www.w3.org/2000/svg"><path fill-rule="evenodd" clip-rule="evenodd" d="M12 0c3.205 0 6.219 1.248 8.485 3.515A11.922 11.922 0 0124 12c0 3.205-1.248 6.219-3.515 8.485A11.921 11.921 0 0112 24a11.921 11.921 0 01-8.485-3.515A11.922 11.922 0 010 12c0-3.205 1.248-6.219 3.515-8.485A11.921 11.921 0 0112 0zm3.375 14.625A3.379 3.379 0 0012 11.25a1.877 1.877 0 01-1.87-2.009 1.882 1.882 0 011.736-1.736 1.877 1.877 0 012.009 1.87.75.75 0 00.772.75.762.762 0 00.728-.77 3.38 3.38 0 00-2.453-3.226.235.235 0 01-.172-.226V5.25a.75.75 0 00-.786-.75.764.764 0 00-.714.771v.632a.235.235 0 01-.173.226 3.38 3.38 0 00-2.452 3.246A3.379 3.379 0 0012 12.75c1.078 0 1.947.915 1.87 2.009a1.882 1.882 0 01-1.736 1.736 1.877 1.877 0 01-2.009-1.87.75.75 0 00-.772-.75.762.762 0 00-.728.771 3.38 3.38 0 002.453 3.225c.101.029.172.12.172.226v.653c0 .426.355.77.786.75a.764.764 0 00.714-.771v-.632c0-.106.071-.197.173-.226a3.38 3.38 0 002.452-3.246z" fill="#AEBBCD"/></svg>