<svg width="24" height="24" fill="none" xmlns="http://www.w3.org/2000/svg"><g fill-rule="evenodd" clip-rule="evenodd" fill="#AEBBCD"><path d="M23.361 9.704c.273.072.477.3.517.58a12.133 12.133 0 010 3.431.703.703 0 01-.517.58l-1.195.315a10.39 10.39 0 01-1.133 2.73l.624 1.07a.703.703 0 01-.045.776 12.13 12.13 0 01-2.426 2.426.703.703 0 01-.776.045l-1.07-.624a10.39 10.39 0 01-2.73 1.133l-.314 1.195a.703.703 0 01-.58.517 12.113 12.113 0 01-3.432 0 .703.703 0 01-.58-.517l-.314-1.195a10.39 10.39 0 01-2.73-1.133l-1.07.623a.703.703 0 01-.776-.044 12.102 12.102 0 01-2.426-2.426.703.703 0 01-.045-.776l.624-1.07a10.394 10.394 0 01-1.133-2.73L.64 14.296a.703.703 0 01-.517-.58 12.123 12.123 0 010-3.432.703.703 0 01.517-.58l1.195-.315c.246-.96.626-1.875 1.133-2.73l-.624-1.07a.703.703 0 01.045-.775 12.106 12.106 0 012.426-2.427.703.703 0 01.776-.044l1.07.624a10.39 10.39 0 012.73-1.133L9.704.639a.703.703 0 01.58-.517 12.172 12.172 0 013.432 0c.28.04.508.243.58.517l.314 1.195c.96.246 1.876.625 2.73 1.133l1.07-.624a.703.703 0 01.776.044 12.096 12.096 0 012.426 2.427c.17.226.187.532.045.776l-.624 1.069c.507.855.887 1.77 1.133 2.73l1.195.315zM4.519 12c0 4.125 3.356 7.481 7.481 7.481s7.481-3.356 7.481-7.481S16.125 4.519 12 4.519 4.519 7.875 4.519 12z"/><path d="M5.925 12A6.082 6.082 0 0112 5.925 6.082 6.082 0 0118.075 12 6.082 6.082 0 0112 18.075 6.082 6.082 0 015.925 12zm5.322 2.963a.703.703 0 00.497-.206l3.765-3.766a.703.703 0 00-.994-.994l-3.268 3.268L9.86 11.88a.703.703 0 00-.994.995l1.883 1.883a.7.7 0 00.497.206z"/></g></svg>