<svg width="48" height="48" fill="none" xmlns="http://www.w3.org/2000/svg"><path fill-rule="evenodd" clip-rule="evenodd" d="M12 0h24c6.6 0 12 5.4 12 12v24c0 6.598-5.4 12-12 12H12C5.4 48 0 42.598 0 36V12C0 5.4 5.4 0 12 0zm24 44c4.413 0 8-3.59 8-8V12c0-4.411-3.587-8-8-8H12c-4.41 0-8 3.59-8 8v24c0 4.41 3.59 8 8 8h24zm4.002-33a3 3 0 11-6 0 3 3 0 016 0zM24 12c-6.629 0-12 5.371-12 12 0 6.625 5.371 12 12 12 6.627 0 12-5.375 12-12 0-6.629-5.373-12-12-12zm0 20a8 8 0 11.001-16A8 8 0 0124 32z" fill="#fff"/></svg>