<svg width="22" height="14" viewBox="0 0 22 14" fill="none" xmlns="http://www.w3.org/2000/svg">
<path fill-rule="evenodd" clip-rule="evenodd" d="M1.90909 0H19.8121C20.008 0 20.1934 0.0382242 20.3714 0.0932909L10.8606 7.47727L1.34977 0.0932909C1.52782 0.0382242 1.71318 0 1.90909 0ZM11.2422 8.78169L21.4195 0.888067C21.6082 1.18402 21.7212 1.53279 21.7212 1.90909V12.0909C21.7212 13.1436 20.8648 14 19.8121 14H1.90909C0.856376 14 0 13.1436 0 12.0909V1.90909C0 1.53279 0.113018 1.18402 0.301721 0.888067L10.479 8.78169C10.5921 8.86684 10.7264 8.90909 10.8606 8.90909C10.9948 8.90909 11.1291 8.86684 11.2422 8.78169Z" fill="#AEBBCD"/>
</svg>
