<svg width="20" height="20" fill="none" xmlns="http://www.w3.org/2000/svg"><path d="M19.582 15.337l-2.724-2.714a1.383 1.383 0 00-1.938 0l-1.729 1.772a.463.463 0 01-.61 0 46.814 46.814 0 01-3.675-3.262 43.532 43.532 0 01-3.29-3.658.443.443 0 010-.61L7.424 5.1a1.412 1.412 0 000-1.962L4.7.414a1.44 1.44 0 00-1.962 0L.5 2.66s-.1.095-.134.134c-1.26 1.515.754 6.32 5.64 11.176 3.557 3.576 7.576 5.971 9.976 5.971.4.038.819-.01 1.152-.233.067-.048.253-.215.253-.215l2.195-2.204a1.391 1.391 0 000-1.953z" fill="#AEBBCD"/></svg>