<svg width="16" height="16" viewBox="0 0 16 16" fill="none" xmlns="http://www.w3.org/2000/svg">
<path fill-rule="evenodd" clip-rule="evenodd" d="M7.983 7.60278C10.0824 7.60278 11.7844 5.90084 11.7844 3.80139C11.7844 1.70194 10.0824 0 7.983 0C5.88354 0 4.1816 1.70194 4.1816 3.80139C4.1816 5.90084 5.88354 7.60278 7.983 7.60278ZM2.09272 10.488C3.43867 9.13345 5.26758 8.3691 7.1771 8.36306H8.78889C12.7492 8.37143 15.9576 11.5798 15.9659 15.5401C15.9708 15.7599 15.8047 15.9459 15.5858 15.9658H0.380211C0.170266 15.9658 7.21539e-05 15.7957 7.21539e-05 15.5857C-0.00598659 13.6762 0.746761 11.8425 2.09272 10.488Z" fill="#AEBBCD"/>
</svg>
