<svg width="17" height="32" viewBox="0 0 17 32" fill="none" xmlns="http://www.w3.org/2000/svg">
<g id="smartphone">
<circle id="Oval" cx="8.4375" cy="25.4375" r="0.9375" fill="#E0EEF9"/>
<path id="Combined Shape" fill-rule="evenodd" clip-rule="evenodd" d="M14.0625 32C15.6134 32 16.875 30.7384 16.875 29.1875V2.8125C16.875 1.26163 15.6134 0 14.0625 0H2.8125C1.26163 0 0 1.26163 0 2.8125V29.1875C0 30.7384 1.26163 32 2.8125 32H14.0625ZM8.4375 22.625C9.98837 22.625 11.25 23.8866 11.25 25.4375C11.25 26.9884 9.98837 28.25 8.4375 28.25C6.88663 28.25 5.625 26.9884 5.625 25.4375C5.625 23.8866 6.88663 22.625 8.4375 22.625ZM12.1667 17H4.83333C3.82239 17 3 16.4875 3 15.8574V5.14258C3 4.51254 3.82239 4 4.83333 4H12.1667C13.1776 4 14 4.51254 14 5.14258V15.8574C14 16.4875 13.1776 17 12.1667 17Z" fill="white"/>
</g>
</svg>
