<svg width="17" height="32" fill="none" xmlns="http://www.w3.org/2000/svg"><circle cx="8.438" cy="25.438" r=".938" fill="#E0EEF9"/><path fill-rule="evenodd" clip-rule="evenodd" d="M14.063 32a2.816 2.816 0 002.812-2.813V2.813A2.816 2.816 0 0014.062 0H2.813A2.816 2.816 0 000 2.813v26.375A2.816 2.816 0 002.813 32h11.25zm-5.626-9.375a2.816 2.816 0 012.813 2.813 2.816 2.816 0 01-2.813 2.812 2.816 2.816 0 01-2.812-2.813 2.816 2.816 0 012.813-2.812zM12.168 17H4.833C3.823 17 3 16.488 3 15.857V5.143C3 4.513 3.822 4 4.833 4h7.334C13.177 4 14 4.513 14 5.143v10.714c0 .63-.822 1.143-1.833 1.143z" fill="#fff"/></svg>