<svg width="48" height="42" fill="none" xmlns="http://www.w3.org/2000/svg"><path d="M46.912 4.55a18.2 18.2 0 01-2.321.846 10.262 10.262 0 002.09-3.674.774.774 0 00-1.133-.902 18.271 18.271 0 01-5.4 2.134A10.355 10.355 0 0032.934.015c-5.682 0-10.305 4.622-10.305 10.304 0 .448.029.893.085 1.331A26.38 26.38 0 014.608 2.044a.773.773 0 00-1.269.1 10.3 10.3 0 00-1.395 5.181c0 2.483.886 4.839 2.452 6.68a8.728 8.728 0 01-1.38-.617.774.774 0 00-1.15.66v.137c0 3.706 1.994 7.043 5.044 8.862a8.897 8.897 0 01-.784-.114.774.774 0 00-.882.996 10.3 10.3 0 007.548 6.907c-2.914 1.825-6.246 2.781-9.744 2.781-.73 0-1.464-.043-2.183-.128a.775.775 0 00-.509 1.42 27.788 27.788 0 0015.027 4.405c10.49 0 17.054-4.947 20.712-9.097 4.561-5.175 7.178-12.025 7.178-18.792 0-.283-.005-.569-.014-.853a20.03 20.03 0 004.61-4.883.774.774 0 00-.957-1.139z" fill="#fff"/></svg>