<svg width="320" height="60" viewBox="0 0 320 60" fill="none" xmlns="http://www.w3.org/2000/svg">
<path d="M77.0041 45.0291C77.0041 44.0091 77.0041 42.8091 77.0341 41.9391C77.0641 40.6191 77.1691 40.3791 77.9191 40.3191C78.0391 40.3041 78.0241 40.1241 77.9191 40.1241C77.5141 40.1391 76.7041 40.1691 76.2091 40.1691C75.7441 40.1691 74.9191 40.1391 74.5291 40.1241C74.4091 40.1241 74.4091 40.3041 74.5291 40.3191C75.4141 40.4391 75.4141 40.6641 75.4891 41.9391C75.5191 42.4941 75.5191 43.9641 75.5191 45.1341C75.5191 45.6441 75.5191 47.2341 75.4891 47.7441C75.4291 49.0191 75.4441 49.2741 74.5591 49.3941C74.4691 49.3941 74.4391 49.5891 74.5591 49.5891C74.9491 49.5741 75.7141 49.5441 76.1941 49.5441C76.6741 49.5441 77.4991 49.5741 77.9491 49.5891C78.0691 49.5891 78.0541 49.3941 77.9491 49.3941C77.1991 49.3341 77.0641 49.0641 77.0341 47.7441C77.0191 47.2491 77.0041 45.6291 77.0041 45.0291Z" fill="#C6A96E"/>
<path d="M89.2879 48.9591C89.0479 48.9741 88.5979 48.9741 88.3879 48.9741C87.4879 48.9591 87.3079 48.8241 87.2929 47.7291C87.2779 46.9791 87.2629 45.9141 87.2629 44.7741C87.2629 43.6341 87.2629 42.7641 87.2929 41.9391C87.3379 40.6191 87.4279 40.3791 88.1779 40.3191C88.2979 40.3041 88.2829 40.1241 88.1779 40.1241C87.7729 40.1391 86.9629 40.1691 86.4679 40.1691C85.9729 40.1691 85.2079 40.1391 84.7129 40.1241C84.5779 40.1241 84.6079 40.3191 84.7129 40.3191C85.7029 40.4391 85.7179 40.7091 85.7479 41.9541C85.7779 42.8991 85.7779 43.7241 85.7779 44.6391C85.7779 45.7041 85.7779 46.8291 85.7479 47.8791C85.7179 49.1691 85.5529 49.3041 84.7579 49.3941C84.6529 49.3941 84.6379 49.5891 84.7579 49.5891C85.2679 49.5741 86.1229 49.5441 86.4529 49.5441C88.3579 49.5441 88.9729 49.6041 90.5029 49.6041C91.0129 49.6041 91.3279 49.4841 91.4029 49.1091C91.4929 48.6441 91.4779 47.6541 91.4929 46.7541C91.4929 46.6191 91.3279 46.6191 91.3129 46.7541C91.0579 48.0441 90.5779 48.8841 89.2879 48.9591Z" fill="#C6A96E"/>
<path d="M106.42 45.4641C106.42 44.6241 106.435 42.6441 106.465 41.5041C106.495 40.6491 106.69 40.3791 107.245 40.3191C107.365 40.3191 107.365 40.1241 107.245 40.1241C106.87 40.1391 106.3 40.1691 106.045 40.1691C105.79 40.1691 105.1 40.1391 104.68 40.1241C104.56 40.1241 104.575 40.3191 104.68 40.3191C105.31 40.3791 105.55 40.4991 105.58 41.5041C105.625 42.9141 105.61 44.8191 105.61 45.4641C105.61 47.6391 105.025 49.2891 102.64 49.2891C100.15 49.2891 99.8054 47.6691 99.8054 45.2541C99.8054 43.9641 99.7904 42.4041 99.8054 41.9541C99.8504 40.4991 100.03 40.4091 100.675 40.3191C100.78 40.3041 100.795 40.1241 100.675 40.1241C100.195 40.1391 98.9804 40.1691 98.7554 40.1691C98.3354 40.1691 97.7354 40.1391 97.2704 40.1241C97.1504 40.1241 97.1654 40.3041 97.2704 40.3191C97.9604 40.3941 98.2154 40.4841 98.2604 41.9691C98.2754 42.4791 98.2754 44.2791 98.2754 45.5391C98.2754 48.5841 99.6254 49.8141 102.475 49.8141C105.1 49.8141 106.42 48.1191 106.42 45.4641Z" fill="#C6A96E"/>
<path d="M116.379 45.0291C116.379 44.0091 116.379 42.8091 116.409 41.9391C116.439 40.6191 116.544 40.3791 117.294 40.3191C117.414 40.3041 117.399 40.1241 117.294 40.1241C116.889 40.1391 116.079 40.1691 115.584 40.1691C115.119 40.1691 114.294 40.1391 113.904 40.1241C113.784 40.1241 113.784 40.3041 113.904 40.3191C114.789 40.4391 114.789 40.6641 114.864 41.9391C114.894 42.4941 114.894 43.9641 114.894 45.1341C114.894 45.6441 114.894 47.2341 114.864 47.7441C114.804 49.0191 114.819 49.2741 113.934 49.3941C113.844 49.3941 113.814 49.5891 113.934 49.5891C114.324 49.5741 115.089 49.5441 115.569 49.5441C116.049 49.5441 116.874 49.5741 117.324 49.5891C117.444 49.5891 117.429 49.3941 117.324 49.3941C116.574 49.3341 116.439 49.0641 116.409 47.7441C116.394 47.2491 116.379 45.6291 116.379 45.0291ZM119.859 40.1241C119.709 40.1241 119.709 40.2741 119.859 40.2891C120.129 40.3341 120.144 40.5291 119.949 40.7691C119.439 41.3841 119.079 41.7891 118.389 42.5841C117.654 43.4241 116.889 44.2791 116.514 44.7291C116.604 44.7741 116.769 44.9841 116.874 45.1041C117.369 45.6891 118.464 47.0991 119.124 47.7891C120.594 49.3191 121.389 49.6941 122.964 49.6941C123.369 49.6941 123.804 49.6491 124.044 49.5891C124.164 49.5591 124.164 49.4241 124.044 49.4241C123.759 49.4091 123.279 49.3341 123.039 49.2291C122.214 48.8991 121.524 48.1791 120.729 47.3241C119.949 46.4841 118.434 44.6841 117.864 43.9941C118.194 43.6341 118.704 43.0641 119.274 42.4941C119.844 41.9091 120.474 41.3241 121.014 40.9191C121.554 40.5141 121.944 40.3491 122.439 40.3041C122.574 40.3041 122.574 40.1241 122.439 40.1241C122.049 40.1241 121.584 40.1391 121.224 40.1391C120.879 40.1391 120.129 40.1391 119.859 40.1241Z" fill="#C6A96E"/>
<path d="M133.687 48.9591C133.447 48.9741 132.997 48.9741 132.787 48.9741C131.887 48.9591 131.707 48.8241 131.692 47.7291C131.677 46.9791 131.662 45.9141 131.662 44.7741C131.662 43.6341 131.662 42.7641 131.692 41.9391C131.737 40.6191 131.827 40.3791 132.577 40.3191C132.697 40.3041 132.682 40.1241 132.577 40.1241C132.172 40.1391 131.362 40.1691 130.867 40.1691C130.372 40.1691 129.607 40.1391 129.112 40.1241C128.977 40.1241 129.007 40.3191 129.112 40.3191C130.102 40.4391 130.117 40.7091 130.147 41.9541C130.177 42.8991 130.177 43.7241 130.177 44.6391C130.177 45.7041 130.177 46.8291 130.147 47.8791C130.117 49.1691 129.952 49.3041 129.157 49.3941C129.052 49.3941 129.037 49.5891 129.157 49.5891C129.667 49.5741 130.522 49.5441 130.852 49.5441C132.757 49.5441 133.372 49.6041 134.902 49.6041C135.412 49.6041 135.727 49.4841 135.802 49.1091C135.892 48.6441 135.877 47.6541 135.892 46.7541C135.892 46.6191 135.727 46.6191 135.712 46.7541C135.457 48.0441 134.977 48.8841 133.687 48.9591Z" fill="#C6A96E"/>
<path d="M144.411 45.0291C144.411 44.0091 144.411 42.8091 144.441 41.9391C144.471 40.6191 144.576 40.3791 145.326 40.3191C145.446 40.3041 145.431 40.1241 145.326 40.1241C144.921 40.1391 144.111 40.1691 143.616 40.1691C143.151 40.1691 142.326 40.1391 141.936 40.1241C141.816 40.1241 141.816 40.3041 141.936 40.3191C142.821 40.4391 142.821 40.6641 142.896 41.9391C142.926 42.4941 142.926 43.9641 142.926 45.1341C142.926 45.6441 142.926 47.2341 142.896 47.7441C142.836 49.0191 142.851 49.2741 141.966 49.3941C141.876 49.3941 141.846 49.5891 141.966 49.5891C142.356 49.5741 143.121 49.5441 143.601 49.5441C144.081 49.5441 144.906 49.5741 145.356 49.5891C145.476 49.5891 145.461 49.3941 145.356 49.3941C144.606 49.3341 144.471 49.0641 144.441 47.7441C144.426 47.2491 144.411 45.6291 144.411 45.0291Z" fill="#C6A96E"/>
<path d="M154.67 45.0291C154.67 44.0091 154.67 42.8091 154.7 41.9391C154.73 40.6191 154.835 40.3791 155.585 40.3191C155.705 40.3041 155.69 40.1241 155.585 40.1241C155.18 40.1391 154.37 40.1691 153.875 40.1691C153.41 40.1691 152.585 40.1391 152.195 40.1241C152.075 40.1241 152.075 40.3041 152.195 40.3191C153.08 40.4391 153.08 40.6641 153.155 41.9391C153.185 42.4941 153.185 43.9641 153.185 45.1341C153.185 45.6441 153.185 47.2341 153.155 47.7441C153.095 49.0191 153.11 49.2741 152.225 49.3941C152.135 49.3941 152.105 49.5891 152.225 49.5891C152.615 49.5741 153.38 49.5441 153.86 49.5441C154.34 49.5441 155.165 49.5741 155.615 49.5891C155.735 49.5891 155.72 49.3941 155.615 49.3941C154.865 49.3341 154.73 49.0641 154.7 47.7441C154.685 47.2491 154.67 45.6291 154.67 45.0291Z" fill="#C6A96E"/>
<path d="M171.754 41.5041C171.784 40.8141 171.934 40.4091 172.504 40.3191C172.594 40.3191 172.624 40.1241 172.504 40.1241C172.099 40.1391 171.574 40.1691 171.349 40.1691C171.079 40.1691 170.314 40.1391 169.909 40.1241C169.789 40.1241 169.804 40.3191 169.909 40.3191C170.749 40.4391 170.869 40.6041 170.929 41.6991C171.034 43.7841 171.004 45.2541 171.004 47.0241C169.984 46.1841 168.964 45.2691 167.659 44.0691C166.294 42.8241 164.794 41.3391 163.759 40.2291C163.549 40.0041 163.489 39.9741 163.444 39.9891C163.384 40.0041 163.384 40.0641 163.384 40.2891C163.399 40.8741 163.399 42.1641 163.399 42.9891C163.399 44.2191 163.369 46.7241 163.249 48.3891C163.189 49.1541 162.994 49.2891 162.454 49.3941C162.349 49.3941 162.334 49.5891 162.454 49.5891C162.859 49.5741 163.384 49.5441 163.639 49.5441C163.924 49.5441 164.734 49.5741 165.334 49.5891C165.469 49.5891 165.439 49.3941 165.334 49.3941C164.419 49.3041 164.164 48.9141 164.134 48.3141C164.044 46.2141 164.014 43.8891 163.999 42.7341C164.719 43.3491 165.814 44.3691 167.224 45.6741C168.844 47.1741 170.374 48.6141 171.244 49.5141C171.469 49.7391 171.499 49.7991 171.574 49.7691C171.604 49.7541 171.619 49.7091 171.619 49.4391C171.619 48.2541 171.619 46.7841 171.634 45.9891C171.664 43.9791 171.724 42.2991 171.754 41.5041Z" fill="#C6A96E"/>
<path d="M181.721 45.0291C181.721 44.0091 181.721 42.8091 181.751 41.9391C181.781 40.6191 181.886 40.3791 182.636 40.3191C182.756 40.3041 182.741 40.1241 182.636 40.1241C182.231 40.1391 181.421 40.1691 180.926 40.1691C180.461 40.1691 179.636 40.1391 179.246 40.1241C179.126 40.1241 179.126 40.3041 179.246 40.3191C180.131 40.4391 180.131 40.6641 180.206 41.9391C180.236 42.4941 180.236 43.9641 180.236 45.1341C180.236 45.6441 180.236 47.2341 180.206 47.7441C180.146 49.0191 180.161 49.2741 179.276 49.3941C179.186 49.3941 179.156 49.5891 179.276 49.5891C179.666 49.5741 180.431 49.5441 180.911 49.5441C181.391 49.5441 182.216 49.5741 182.666 49.5891C182.786 49.5891 182.771 49.3941 182.666 49.3941C181.916 49.3341 181.781 49.0641 181.751 47.7441C181.736 47.2491 181.721 45.6291 181.721 45.0291Z" fill="#C6A96E"/>
<path d="M191.98 45.0291C191.98 44.0091 191.98 42.8091 192.01 41.9391C192.04 40.6191 192.145 40.3791 192.895 40.3191C193.015 40.3041 193 40.1241 192.895 40.1241C192.49 40.1391 191.68 40.1691 191.185 40.1691C190.72 40.1691 189.895 40.1391 189.505 40.1241C189.385 40.1241 189.385 40.3041 189.505 40.3191C190.39 40.4391 190.39 40.6641 190.465 41.9391C190.495 42.4941 190.495 43.9641 190.495 45.1341C190.495 45.6441 190.495 47.2341 190.465 47.7441C190.405 49.0191 190.42 49.2741 189.535 49.3941C189.445 49.3941 189.415 49.5891 189.535 49.5891C189.925 49.5741 190.69 49.5441 191.17 49.5441C191.65 49.5441 192.475 49.5741 192.925 49.5891C193.045 49.5891 193.03 49.3941 192.925 49.3941C192.175 49.3341 192.04 49.0641 192.01 47.7441C191.995 47.2491 191.98 45.6291 191.98 45.0291ZM195.46 40.1241C195.31 40.1241 195.31 40.2741 195.46 40.2891C195.73 40.3341 195.745 40.5291 195.55 40.7691C195.04 41.3841 194.68 41.7891 193.99 42.5841C193.255 43.4241 192.49 44.2791 192.115 44.7291C192.205 44.7741 192.37 44.9841 192.475 45.1041C192.97 45.6891 194.065 47.0991 194.725 47.7891C196.195 49.3191 196.99 49.6941 198.565 49.6941C198.97 49.6941 199.405 49.6491 199.645 49.5891C199.765 49.5591 199.765 49.4241 199.645 49.4241C199.36 49.4091 198.88 49.3341 198.64 49.2291C197.815 48.8991 197.125 48.1791 196.33 47.3241C195.55 46.4841 194.035 44.6841 193.465 43.9941C193.795 43.6341 194.305 43.0641 194.875 42.4941C195.445 41.9091 196.075 41.3241 196.615 40.9191C197.155 40.5141 197.545 40.3491 198.04 40.3041C198.175 40.3041 198.175 40.1241 198.04 40.1241C197.65 40.1241 197.185 40.1391 196.825 40.1391C196.48 40.1391 195.73 40.1391 195.46 40.1241Z" fill="#C6A96E"/>
<path d="M76.7604 25.9359C76.7004 28.8759 76.3404 28.9359 74.7804 29.1459C74.5704 29.1459 74.5104 29.5359 74.7804 29.5359C75.8304 29.5059 77.1504 29.3859 77.8704 29.3859C78.4704 29.3859 80.6904 29.5059 81.8304 29.5359C82.1304 29.5359 82.0704 29.1459 81.8304 29.1459C80.0904 28.9659 79.8504 28.7259 79.7304 25.9059C79.7004 25.2159 79.6704 23.3859 79.6704 21.3759C80.5704 21.4659 81.6804 21.4959 82.6104 21.4059C83.1804 22.3959 83.8704 23.5659 84.7704 24.9159C87.0204 28.2459 87.9504 29.0859 90.0804 29.4459C90.7704 29.5659 93.2604 29.5959 93.8904 29.5359C94.1604 29.5359 94.1304 29.1459 93.8904 29.1459C93.3204 29.0859 92.4804 28.9959 91.7304 28.4259C90.6804 27.6159 89.8104 26.7159 88.3704 24.8859C87.0504 23.2359 85.7304 21.2559 85.2804 20.5359C87.5304 19.4559 89.0004 17.6859 89.0004 15.4659C89.0004 13.6659 88.0704 10.7259 82.9104 10.5759C80.7804 10.5159 78.5304 10.6959 77.5704 10.6959C76.8204 10.6959 75.3204 10.6359 74.6304 10.6059C74.3604 10.6059 74.3904 10.9959 74.6304 10.9959C76.1904 11.1459 76.6704 11.7159 76.7304 13.3959C76.8204 15.7059 76.7904 17.4459 76.7904 19.6659C76.7904 21.7959 76.8204 23.7759 76.7604 25.9359ZM85.9104 16.2759C85.9104 18.6759 85.0704 20.2359 83.1504 20.4159C81.9504 20.5359 80.8404 20.5059 79.6704 20.2959C79.6704 12.4959 79.7004 12.1659 79.7004 11.5059C80.3004 11.4759 80.8704 11.4759 81.8604 11.5659C84.5604 11.8059 85.9104 13.5759 85.9104 16.2759Z" fill="#40052D"/>
<path d="M119.487 19.6059C119.487 14.8359 115.857 10.1859 109.437 10.1859C102.987 10.1859 98.547 14.3259 98.547 20.2659C98.547 26.5659 103.047 29.9559 109.077 29.9559C114.987 29.9559 119.487 25.5759 119.487 19.6059ZM108.327 11.1459C113.757 10.9959 116.127 15.8259 116.127 20.7459C116.127 25.3959 113.637 29.0259 109.167 29.0259C104.727 29.0259 101.937 25.3059 101.937 20.0259C101.937 14.8959 104.007 11.2659 108.327 11.1459Z" fill="#40052D"/>
<path d="M147.371 11.2059C147.011 10.6659 146.201 10.4859 145.571 10.4859C143.561 10.4859 141.641 11.1459 139.361 14.2359C137.381 16.9059 136.481 19.9359 136.361 21.0159C135.851 18.8859 135.011 16.9359 133.841 15.0159C132.401 12.6759 130.121 10.4259 126.731 10.4259C124.811 10.4259 123.911 10.9659 123.431 11.3559C123.251 11.4759 123.371 11.7459 123.551 11.6559C123.851 11.5359 124.511 11.4459 125.021 11.4459C127.001 11.4459 129.401 13.5459 131.051 16.0959C132.611 18.5259 133.841 21.7059 133.841 24.0459V26.4159C133.841 28.8759 133.271 28.9359 131.981 29.1459C131.771 29.1459 131.741 29.5359 131.981 29.5359C133.331 29.5059 134.801 29.4459 135.431 29.4459C136.091 29.4459 137.591 29.5059 138.911 29.5359C139.151 29.5359 139.151 29.1459 138.911 29.1459C137.261 28.9359 136.811 29.1159 136.811 26.4159V22.9359C136.811 21.4359 139.091 17.1159 140.561 15.1059C141.941 13.2159 144.041 11.2959 146.141 11.2959C146.561 11.2959 146.921 11.3559 147.191 11.4759C147.311 11.5359 147.491 11.3859 147.371 11.2059Z" fill="#40052D"/>
<path d="M154.231 20.9859C153.211 23.3859 152.221 25.7559 151.291 27.4659C150.481 28.9659 149.611 29.0259 148.861 29.1459C148.681 29.1459 148.621 29.5359 148.861 29.5359C149.881 29.5059 150.901 29.4459 151.711 29.4459C152.281 29.4459 153.661 29.5059 154.621 29.5359C154.861 29.5359 154.831 29.1459 154.621 29.1459C153.631 29.0259 152.851 28.9059 153.331 27.2559C153.781 25.6659 154.621 23.6259 155.071 22.4259H160.591C161.341 24.3459 162.001 25.9359 162.511 27.3459C162.991 28.6659 162.721 29.0259 161.581 29.1459C161.371 29.1459 161.371 29.5359 161.611 29.5359C162.331 29.5059 163.531 29.4459 164.251 29.4459C165.511 29.4459 167.251 29.5059 168.391 29.5359C168.631 29.5359 168.571 29.1459 168.361 29.1459C166.981 28.9659 166.501 28.6359 165.781 26.9559C164.851 24.7659 163.891 22.5759 162.961 20.2959C161.251 16.0959 159.691 11.7759 159.301 10.6959C159.151 10.3359 159.091 10.2759 159.001 10.2759C158.881 10.2759 158.821 10.3359 158.641 10.6659C158.461 11.0559 158.161 11.8359 154.231 20.9859ZM160.201 21.3759C159.721 21.4059 158.731 21.4059 157.621 21.4059C156.661 21.4059 156.061 21.4059 155.431 21.3759C155.761 20.5059 156.151 19.4559 156.751 17.9559C157.171 16.9359 157.471 16.2159 157.831 15.4059C158.131 16.1259 159.181 18.7059 160.201 21.3759Z" fill="#40052D"/>
<path d="M183.732 28.2759C183.252 28.3059 182.352 28.3059 181.932 28.3059C180.132 28.2759 179.772 28.0059 179.742 25.8159C179.712 24.3159 179.682 22.1859 179.682 19.9059C179.682 17.6259 179.682 15.8859 179.742 14.2359C179.832 11.5959 180.012 11.1159 181.512 10.9959C181.752 10.9659 181.722 10.6059 181.512 10.6059C180.702 10.6359 179.082 10.6959 178.092 10.6959C177.102 10.6959 175.572 10.6359 174.582 10.6059C174.312 10.6059 174.372 10.9959 174.582 10.9959C176.562 11.2359 176.592 11.7759 176.652 14.2659C176.712 16.1559 176.712 17.8059 176.712 19.6359C176.712 21.7659 176.712 24.0159 176.652 26.1159C176.592 28.6959 176.262 28.9659 174.672 29.1459C174.462 29.1459 174.432 29.5359 174.672 29.5359C175.692 29.5059 177.402 29.4459 178.062 29.4459C181.872 29.4459 183.102 29.5659 186.162 29.5659C187.182 29.5659 187.812 29.3259 187.962 28.5759C188.142 27.6459 188.112 25.6659 188.142 23.8659C188.142 23.5959 187.812 23.5959 187.782 23.8659C187.272 26.4459 186.312 28.1259 183.732 28.2759Z" fill="#40052D"/>
<path d="M217.142 10.1859C210.422 10.1859 206.252 14.5659 206.252 20.2959C206.252 26.8359 210.932 29.9859 217.382 29.9859C219.512 29.9859 222.722 29.6259 224.012 28.9359C223.982 28.4859 223.952 27.7959 223.952 27.3159C223.952 26.5059 223.922 25.5459 223.952 24.7059C224.012 22.1859 224.312 21.8559 225.422 21.5559C225.662 21.5259 225.662 21.2259 225.422 21.2259C224.762 21.2559 222.902 21.3159 222.242 21.3159C221.222 21.3159 219.602 21.2559 218.672 21.2259C218.462 21.2259 218.462 21.5559 218.672 21.5559C219.782 21.7659 220.922 21.7659 220.982 23.9559C221.012 25.1859 221.012 26.1459 221.012 27.6459C221.012 28.2759 220.892 28.5759 220.352 28.6959C219.752 28.8459 218.402 28.9659 217.622 28.9659C212.342 28.9659 209.672 25.6959 209.672 20.0259C209.672 14.8359 211.832 11.1159 217.112 11.1159C220.292 11.1159 222.752 12.4359 223.082 15.8559C223.082 16.0359 223.502 16.0659 223.532 15.8559C223.592 14.7459 223.772 13.6059 223.772 12.6759C223.772 11.6859 223.262 11.2059 222.482 10.9359C220.862 10.3659 219.212 10.1859 217.142 10.1859Z" fill="#40052D"/>
<path d="M234.895 25.9359C234.835 28.8759 234.475 28.9359 232.915 29.1459C232.705 29.1459 232.645 29.5359 232.915 29.5359C233.965 29.5059 235.285 29.3859 236.005 29.3859C236.605 29.3859 238.825 29.5059 239.965 29.5359C240.265 29.5359 240.205 29.1459 239.965 29.1459C238.225 28.9659 237.985 28.7259 237.865 25.9059C237.835 25.2159 237.805 23.3859 237.805 21.3759C238.705 21.4659 239.815 21.4959 240.745 21.4059C241.315 22.3959 242.005 23.5659 242.905 24.9159C245.155 28.2459 246.085 29.0859 248.215 29.4459C248.905 29.5659 251.395 29.5959 252.025 29.5359C252.295 29.5359 252.265 29.1459 252.025 29.1459C251.455 29.0859 250.615 28.9959 249.865 28.4259C248.815 27.6159 247.945 26.7159 246.505 24.8859C245.185 23.2359 243.865 21.2559 243.415 20.5359C245.665 19.4559 247.135 17.6859 247.135 15.4659C247.135 13.6659 246.205 10.7259 241.045 10.5759C238.915 10.5159 236.665 10.6959 235.705 10.6959C234.955 10.6959 233.455 10.6359 232.765 10.6059C232.495 10.6059 232.525 10.9959 232.765 10.9959C234.325 11.1459 234.805 11.7159 234.865 13.3959C234.955 15.7059 234.925 17.4459 234.925 19.6659C234.925 21.7959 234.955 23.7759 234.895 25.9359ZM244.045 16.2759C244.045 18.6759 243.205 20.2359 241.285 20.4159C240.085 20.5359 238.975 20.5059 237.805 20.2959C237.805 12.4959 237.835 12.1659 237.835 11.5059C238.435 11.4759 239.005 11.4759 239.995 11.5659C242.695 11.8059 244.045 13.5759 244.045 16.2759Z" fill="#40052D"/>
<path d="M260.852 20.9859C259.832 23.3859 258.842 25.7559 257.912 27.4659C257.102 28.9659 256.232 29.0259 255.482 29.1459C255.302 29.1459 255.242 29.5359 255.482 29.5359C256.502 29.5059 257.522 29.4459 258.332 29.4459C258.902 29.4459 260.282 29.5059 261.242 29.5359C261.482 29.5359 261.452 29.1459 261.242 29.1459C260.252 29.0259 259.472 28.9059 259.952 27.2559C260.402 25.6659 261.242 23.6259 261.692 22.4259H267.212C267.962 24.3459 268.622 25.9359 269.132 27.3459C269.612 28.6659 269.342 29.0259 268.202 29.1459C267.992 29.1459 267.992 29.5359 268.232 29.5359C268.952 29.5059 270.152 29.4459 270.872 29.4459C272.132 29.4459 273.872 29.5059 275.012 29.5359C275.252 29.5359 275.192 29.1459 274.982 29.1459C273.602 28.9659 273.122 28.6359 272.402 26.9559C271.472 24.7659 270.512 22.5759 269.582 20.2959C267.872 16.0959 266.312 11.7759 265.922 10.6959C265.772 10.3359 265.712 10.2759 265.622 10.2759C265.502 10.2759 265.442 10.3359 265.262 10.6659C265.082 11.0559 264.782 11.8359 260.852 20.9859ZM266.822 21.3759C266.342 21.4059 265.352 21.4059 264.242 21.4059C263.282 21.4059 262.682 21.4059 262.052 21.3759C262.382 20.5059 262.772 19.4559 263.372 17.9559C263.792 16.9359 264.092 16.2159 264.452 15.4059C264.752 16.1259 265.802 18.7059 266.822 21.3759Z" fill="#40052D"/>
<path d="M291.703 10.1859C285.373 10.1859 280.723 14.0259 280.783 20.4759C280.843 26.5359 285.253 29.9859 291.853 29.9859C294.343 29.9859 295.903 29.5659 296.623 29.2359C297.613 28.7859 298.093 28.6359 298.153 26.4759C298.153 25.9659 298.153 25.0959 298.123 24.4059C298.123 24.1359 297.673 24.1659 297.673 24.4059C297.223 27.2859 295.813 28.9659 291.943 28.9659C287.563 28.9659 284.263 26.3259 284.203 20.1459C284.143 14.5059 286.543 11.1159 291.433 11.1159C294.493 11.1159 297.163 12.3459 297.463 15.8259C297.463 16.0359 297.883 16.0659 297.913 15.8259C297.973 14.7159 298.123 13.6359 298.153 12.7059C298.153 11.7159 297.763 11.2659 296.953 10.9659C295.363 10.3659 293.533 10.1859 291.703 10.1859Z" fill="#40052D"/>
<path d="M311.048 20.2359C312.008 20.2059 314.498 20.2059 315.038 20.2359C316.268 20.2959 317.018 20.4459 317.048 21.4959C317.048 21.7059 317.378 21.7059 317.438 21.4959C317.528 21.1959 317.678 20.1759 317.738 19.5759C317.798 18.9759 317.858 18.7359 317.768 18.6759C317.528 18.5259 317.468 18.9159 316.598 18.9759C314.768 19.0959 312.278 19.0659 311.048 19.0059C311.048 16.2759 311.048 14.3259 311.078 11.8359C312.758 11.8059 313.838 11.7459 315.308 11.9859C316.808 12.2259 317.648 13.3359 317.678 14.8359C317.648 15.0459 318.038 15.0459 318.068 14.8359C318.218 13.8159 318.428 12.1359 318.428 11.3559C318.428 10.6359 318.008 10.6059 317.138 10.6059C315.548 10.6359 311.408 10.6959 309.518 10.6959C308.528 10.6959 306.998 10.6359 306.008 10.6059C305.738 10.6059 305.798 10.9959 306.008 10.9959C307.988 11.2359 308.018 11.7759 308.078 14.2659C308.138 16.1559 308.138 17.8059 308.138 19.6359C308.138 21.7659 308.138 24.0159 308.078 26.1159C308.018 28.6959 307.688 28.9659 306.098 29.1459C305.888 29.1459 305.858 29.5359 306.098 29.5359C307.118 29.5059 308.828 29.4459 309.488 29.4459C312.338 29.4459 316.358 29.5659 317.858 29.5659C318.998 29.5659 319.508 29.1759 319.628 28.5159C319.778 27.7659 319.778 25.6959 319.778 24.5559C319.778 24.3159 319.418 24.3459 319.388 24.5559C319.028 26.4459 318.008 28.1859 315.488 28.2459C314.738 28.2759 314.348 28.2759 313.088 28.2459C311.528 28.2159 311.168 28.1259 311.108 26.3259C311.048 24.4359 311.018 21.7059 311.048 20.2359Z" fill="#40052D"/>
<path fill-rule="evenodd" clip-rule="evenodd" d="M29.7196 59.4393C31.0736 59.4393 32.4064 59.3487 33.7123 59.1734C35.692 59.7261 37.8861 60 40.2341 60C43.4804 60 48.3727 59.4513 50.3387 58.3997C50.293 57.7139 50.2473 56.6622 50.2473 55.9307C50.2473 55.5328 50.2426 55.1112 50.2377 54.6795L50.2375 54.6668V54.6629C50.2272 53.7604 50.2165 52.8151 50.2473 51.9528C50.2513 51.7865 50.2566 51.6266 50.2633 51.4727C50.2655 51.4224 50.2678 51.3727 50.2703 51.3237C50.2727 51.2757 50.2752 51.2283 50.278 51.1816C55.9239 45.7719 59.4393 38.1563 59.4393 29.7196C59.4393 13.3059 46.1333 0 29.7196 0C13.3059 0 0 13.3059 0 29.7196C0 46.1333 13.3059 59.4393 29.7196 59.4393ZM33.342 56.4906C30.1105 54.2867 28.4834 50.2847 28.4834 44.8201C28.4834 44.4165 28.492 44.0187 28.5094 43.6272C30.0389 45.2742 31.3509 45.8992 33.3715 46.2407C34.4231 46.4236 38.2181 46.4693 39.1783 46.3778C39.5898 46.3778 39.5441 45.7835 39.1783 45.7835C38.3096 45.692 37.0293 45.5548 35.8863 44.6861C34.286 43.4516 32.96 42.0799 30.7653 39.2908C30.3816 38.8112 29.9979 38.3132 29.6233 37.8137C31.1904 33.7728 34.4446 31.2405 39.8226 31.2405C44.6692 31.2405 48.4184 33.2523 48.9213 38.4647C48.9213 38.6638 49.4514 38.7425 49.7594 38.6483C49.4082 41.5931 48.4401 44.3486 46.988 46.7818C45.7196 46.7663 44.1101 46.7125 42.8948 46.6719H42.8936C42.6436 46.6636 42.4103 46.6558 42.2002 46.649C41.8801 46.649 41.8801 47.152 42.2002 47.152C42.3404 47.1785 42.4808 47.2028 42.6207 47.2271L42.6215 47.2272C43.7929 47.4299 44.9188 47.6248 45.4332 49.0352C42.4585 52.7915 38.2109 55.4938 33.342 56.4906ZM19.968 56.0146C9.29087 52.0535 1.68224 41.7751 1.68224 29.7196C1.68224 14.235 14.235 1.68224 29.7196 1.68224C45.2043 1.68224 57.757 14.235 57.757 29.7196C57.757 36.0877 55.634 41.9599 52.0571 46.6671C51.066 46.7061 49.3657 46.76 48.284 46.7791C50.0322 43.6359 51.028 40.0166 51.028 36.1648C51.028 24.0868 41.2369 14.2956 29.1589 14.2956C24.9542 14.2956 21.0267 15.4822 17.6929 17.5389C17.4468 17.5486 17.2072 17.5587 16.9753 17.5687C16.7868 17.5768 16.6034 17.5849 16.4259 17.5927H16.4253C15.5443 17.6316 14.8085 17.6641 14.3052 17.6641C13.1622 17.6641 10.8761 17.5726 9.82445 17.5269C9.41292 17.5269 9.45865 18.1213 9.82445 18.1213C12.0874 18.3389 12.8592 19.1364 13.0072 21.4206C9.45584 25.3088 7.28972 30.4838 7.28972 36.1648C7.28972 44.96 12.4818 52.5425 19.968 56.0146ZM13.0684 23.0655C10.1569 26.6375 8.41121 31.1973 8.41121 36.1648C8.41121 39.5979 9.24501 42.8362 10.7212 45.6883C12.5371 45.3997 12.9885 44.9177 13.0707 40.8911C13.1391 38.4287 13.1308 36.1198 13.1222 33.7539C13.1193 32.9568 13.1164 32.1533 13.1164 31.3351C13.1164 30.9654 13.117 30.6045 13.1178 30.2502L13.1202 29.3507V29.3316C13.1264 27.2222 13.1319 25.2936 13.0684 23.0655ZM11.0709 46.3355C14.5738 52.5519 21.1886 56.781 28.8018 56.9094C25.3467 54.4821 23.271 50.6086 23.271 45.2316C23.271 42.7847 23.77 40.4993 24.7136 38.4771C23.6121 36.7784 22.732 35.2817 21.9866 33.987C20.5692 34.1242 18.8775 34.0785 17.5058 33.9413C17.5058 37.0047 17.5516 39.7938 17.5973 40.8454C17.7802 45.1433 18.1459 45.5091 20.7978 45.7835C21.1636 45.7835 21.2551 46.3778 20.7978 46.3778C19.9894 46.3566 18.8245 46.3056 17.7178 46.2572L17.7166 46.2571C16.4454 46.2014 15.2513 46.1492 14.7625 46.1492C14.1796 46.1492 13.3388 46.2008 12.4387 46.256L12.4338 46.2563C11.9859 46.2838 11.5235 46.3122 11.0709 46.3355ZM20.1515 17.469C22.8758 16.1541 25.9312 15.4171 29.1589 15.4171C39.166 15.4171 47.5183 22.5018 49.4738 31.929C49.1296 31.4794 48.6237 31.1797 48.0069 30.9662C45.5379 30.0975 43.0231 29.8232 39.8683 29.8232C34.5184 29.8232 30.229 31.6446 27.3519 34.6292C26.7752 33.7824 26.3185 33.0811 26.0559 32.6611C29.4851 31.0151 31.7255 28.3174 31.7255 24.934C31.7255 22.1906 30.3081 17.7098 22.4439 17.4812C21.6805 17.4597 20.9072 17.4584 20.1515 17.469ZM17.5515 18.9653C17.5871 18.9413 17.6228 18.9173 17.6585 18.8935C18.5348 18.8531 19.3936 18.8582 20.8436 18.9901C24.9586 19.3558 27.0161 22.0535 27.0161 26.1685C27.0161 29.8263 25.7359 32.2039 22.8096 32.4782C20.9807 32.6611 19.289 32.6154 17.5058 32.2953C17.5058 23.104 17.5333 20.7185 17.5456 19.6443V19.638C17.5477 19.4568 17.5494 19.3129 17.5505 19.1796C17.551 19.1065 17.5514 19.0365 17.5515 18.9653ZM45.7153 50.6558C45.7175 50.7063 45.7193 50.7576 45.7208 50.8098C45.7371 51.4811 45.7476 52.0997 45.7544 52.7222C42.5374 54.9689 38.8273 56.558 34.8187 57.2945C39.1104 56.1478 42.8821 53.7284 45.7048 50.4654C45.709 50.5276 45.7125 50.591 45.7153 50.6558ZM40.5999 58.4454C39.6964 58.4454 38.8431 58.3826 38.04 58.2589C40.8026 57.4548 43.3991 56.2605 45.7656 54.7396C45.7665 55.2606 45.7665 55.8172 45.7665 56.4337C45.7665 57.3938 45.5836 57.8511 44.7606 58.0339C43.8461 58.2626 41.7886 58.4454 40.5999 58.4454Z" fill="#C6A96E"/>
</svg>
