<svg width="60" height="60" viewBox="0 0 60 60" fill="none" xmlns="http://www.w3.org/2000/svg">
<path fill-rule="evenodd" clip-rule="evenodd" d="M29.6629 59.4393C31.0143 59.4393 32.3446 59.3487 33.648 59.1734C35.6239 59.7261 37.8138 60 40.1573 60C43.3974 60 48.2804 59.4513 50.2427 58.3997C50.1971 57.7139 50.1514 56.6622 50.1514 55.9307C50.1514 55.5328 50.1467 55.1112 50.1419 54.6795L50.1417 54.6668V54.6629C50.1314 53.7604 50.1207 52.8151 50.1514 51.9528C50.1554 51.7865 50.1607 51.6266 50.1674 51.4727C50.1696 51.4224 50.1719 51.3727 50.1744 51.3237C50.1768 51.2757 50.1793 51.2283 50.182 51.1816C55.8172 45.7719 59.3258 38.1563 59.3258 29.7196C59.3258 13.3059 46.0453 0 29.6629 0C13.2805 0 0 13.3059 0 29.7196C0 46.1333 13.2805 59.4393 29.6629 59.4393ZM33.2784 56.4906C30.0531 54.2867 28.4291 50.2847 28.4291 44.8201C28.4291 44.4165 28.4377 44.0187 28.455 43.6272C29.9816 45.2742 31.2911 45.8992 33.3079 46.2407C34.3575 46.4236 38.1452 46.4693 39.1035 46.3778C39.5143 46.3778 39.4686 45.7835 39.1035 45.7835C38.2365 45.692 36.9587 45.5548 35.8178 44.6861C34.2206 43.4516 32.8971 42.0799 30.7066 39.2908C30.3236 38.8112 29.9406 38.3132 29.5668 37.8137C31.1308 33.7728 34.3788 31.2405 39.7466 31.2405C44.584 31.2405 48.326 33.2523 48.828 38.4647C48.828 38.6638 49.3571 38.7425 49.6645 38.6483C49.3139 41.5931 48.3476 44.3486 46.8984 46.7818C45.6324 46.7663 44.0259 46.7125 42.813 46.6719H42.8117C42.5622 46.6636 42.3294 46.6558 42.1196 46.649C41.8002 46.649 41.8002 47.152 42.1196 47.152C42.2596 47.1785 42.3998 47.2028 42.5393 47.2271L42.5402 47.2272C43.7094 47.4299 44.833 47.6248 45.3465 49.0352C42.3775 52.7915 38.138 55.4938 33.2784 56.4906ZM19.9299 56.0146C9.27315 52.0535 1.67903 41.7751 1.67903 29.7196C1.67903 14.235 14.2078 1.68224 29.6629 1.68224C45.118 1.68224 57.6468 14.235 57.6468 29.7196C57.6468 36.0877 55.5279 41.9599 51.9578 46.6671C50.9686 46.7061 49.2715 46.76 48.1919 46.7791C49.9368 43.6359 50.9307 40.0166 50.9307 36.1648C50.9307 24.0868 41.1582 14.2956 29.1032 14.2956C24.9066 14.2956 20.9866 15.4822 17.6592 17.5389C17.4135 17.5486 17.1744 17.5587 16.943 17.5687C16.7547 17.5768 16.5717 17.5849 16.3946 17.5927H16.3939C15.5146 17.6316 14.7802 17.6641 14.2779 17.6641C13.1371 17.6641 10.8553 17.5726 9.8057 17.5269C9.39496 17.5269 9.4406 18.1213 9.8057 18.1213C12.0644 18.3389 12.8347 19.1364 12.9824 21.4206C9.4378 25.3088 7.27581 30.4838 7.27581 36.1648C7.27581 44.96 12.458 52.5425 19.9299 56.0146ZM13.0435 23.0655C10.1375 26.6375 8.39517 31.1973 8.39517 36.1648C8.39517 39.5979 9.22737 42.8362 10.7008 45.6883C12.5132 45.3997 12.9637 44.9177 13.0458 40.8911C13.114 38.4287 13.1057 36.1198 13.0972 33.7539C13.0943 32.9568 13.0914 32.1533 13.0914 31.3351C13.0914 30.9654 13.092 30.6045 13.0928 30.2502L13.0952 29.3507V29.3316C13.1013 27.2222 13.1069 25.2936 13.0435 23.0655ZM11.0498 46.3355C14.546 52.5519 21.1482 56.781 28.7469 56.9094C25.2984 54.4821 23.2266 50.6086 23.2266 45.2316C23.2266 42.7847 23.7246 40.4993 24.6664 38.4771C23.5671 36.7784 22.6887 35.2817 21.9447 33.987C20.53 34.1242 18.8415 34.0785 17.4724 33.9413C17.4724 37.0047 17.5181 39.7938 17.5637 40.8454C17.7463 45.1433 18.1113 45.5091 20.7582 45.7835C21.1233 45.7835 21.2145 46.3778 20.7582 46.3778C19.9512 46.3566 18.7886 46.3056 17.684 46.2572L17.6828 46.2571C16.414 46.2014 15.2222 46.1492 14.7343 46.1492C14.1526 46.1492 13.3133 46.2008 12.415 46.256L12.4101 46.2563C11.963 46.2838 11.5015 46.3122 11.0498 46.3355ZM20.1131 17.469C22.8321 16.1541 25.8818 15.4171 29.1032 15.4171C39.0912 15.4171 47.4276 22.5018 49.3794 31.929C49.0359 31.4794 48.5309 31.1797 47.9153 30.9662C45.451 30.0975 42.9411 29.8232 39.7923 29.8232C34.4526 29.8232 30.1713 31.6446 27.2997 34.6292C26.7241 33.7824 26.2682 33.0811 26.0062 32.6611C29.4289 31.0151 31.665 28.3174 31.665 24.934C31.665 22.1906 30.2503 17.7098 22.401 17.4812C21.6391 17.4597 20.8673 17.4584 20.1131 17.469ZM17.518 18.9653C17.5535 18.9413 17.5891 18.9173 17.6248 18.8935C18.4994 18.8531 19.3566 18.8582 20.8038 18.9901C24.911 19.3558 26.9646 22.0535 26.9646 26.1685C26.9646 29.8263 25.6868 32.2039 22.7661 32.4782C20.9407 32.6611 19.2522 32.6154 17.4724 32.2953C17.4724 23.104 17.4998 20.7185 17.5121 19.6443V19.638C17.5143 19.4568 17.516 19.3129 17.517 19.1796C17.5175 19.1065 17.5179 19.0365 17.518 18.9653ZM45.6281 50.6558C45.6303 50.7063 45.6321 50.7576 45.6336 50.8098C45.6499 51.4811 45.6603 52.0997 45.6671 52.7222C42.4563 54.9689 38.7532 56.558 34.7523 57.2945C39.0357 56.1478 42.8003 53.7284 45.6176 50.4654C45.6218 50.5276 45.6253 50.591 45.6281 50.6558ZM40.5224 58.4454C39.6206 58.4454 38.769 58.3826 37.9674 58.2589C40.7248 57.4548 43.3163 56.2605 45.6783 54.7396C45.6792 55.2606 45.6792 55.8172 45.6792 56.4337C45.6792 57.3938 45.4966 57.8511 44.6752 58.0339C43.7625 58.2626 41.7089 58.4454 40.5224 58.4454Z" fill="#C6A96E"/>
</svg>
