<svg width="40" height="40" fill="none" xmlns="http://www.w3.org/2000/svg"><g clip-path="url(#clip0)"><path d="M19.991 0C8.943 0 0 8.956 0 20.003 0 31.051 8.943 40 19.991 40s20.004-8.95 20.004-19.997S31.039 0 19.99 0zm.01 27.202a7.2 7.2 0 110-14.4 7.2 7.2 0 010 14.4z" fill="#EAB39C"/><path d="M37.224 14.846c-1.258-1.112-2.29-3.405-2.304-5.09-.012-1.685-1.378-3.273-3.029-3.525-1.656-.252-3.757-1.614-4.671-3.027-.918-1.413-2.913-2.005-4.442-1.313-1.527.689-4.026.689-5.553 0-1.527-.692-3.526-.1-4.44 1.313-.915 1.413-3.018 2.775-4.673 3.027-1.654.252-3.018 1.84-3.03 3.525-.013 1.685-1.05 3.978-2.307 5.09-1.257 1.116-1.553 3.196-.66 4.619.897 1.426 1.253 3.92.793 5.543-.46 1.62.406 3.528 1.923 4.243 1.516.711 3.154 2.616 3.637 4.23.482 1.614 2.236 2.75 3.892 2.523 1.657-.226 4.056.482 5.33 1.578 1.271 1.093 3.353 1.093 4.625 0 1.272-1.097 3.67-1.805 5.328-1.578 1.659.226 3.41-.908 3.895-2.523.48-1.614 2.119-3.519 3.633-4.23 1.521-.715 2.387-2.623 1.925-4.243-.462-1.624-.103-4.117.79-5.543.891-1.423.596-3.503-.662-4.619zM20.001 26.348c-3.477 0-6.295-2.842-6.295-6.346 0-3.505 2.818-6.346 6.295-6.346s6.295 2.84 6.295 6.346c0 3.504-2.818 6.346-6.295 6.346z" fill="#955BA5"/><path d="M13.916 12.865l-1.894-1.472a.6.6 0 10-.736.947l1.895 1.473a.6.6 0 10.735-.948zm18.642 11.16a.6.6 0 00-.845.073l-1.543 1.838a.6.6 0 10.92.772l1.542-1.838a.6.6 0 00-.074-.846zm-.606-12.206a.602.602 0 00-.445-.722l-2.335-.555a.6.6 0 00-.278 1.167l2.335.555a.6.6 0 00.723-.445zM13.326 30.273l-2.385.268a.6.6 0 10.134 1.192l2.385-.268a.6.6 0 10-.134-1.192z" fill="#F29C1F"/><path d="M6.8 21.202a.8.8 0 100 1.6.8.8 0 000-1.6zm27.6-1.2a.8.8 0 100 1.6.8.8 0 000-1.6z" fill="#FFC60A"/><path d="M31.924 17.383a.6.6 0 00-.848-.035l-1.765 1.626a.6.6 0 00.813.883l1.766-1.626a.6.6 0 00.034-.848zM7.248 14.01a.6.6 0 00-.547.649l.204 2.392a.6.6 0 101.195-.102l-.204-2.392a.6.6 0 00-.648-.547zM16 32.402a.799.799 0 00-.739 1.107.798.798 0 001.306.26.8.8 0 00-.567-1.367zm1.6-23.6a.8.8 0 100 1.6.8.8 0 000-1.6z" fill="#56C1A6"/><path d="M10.113 24.498l-1.544 1.838a.6.6 0 10.92.772l1.543-1.838a.6.6 0 10-.92-.772zm11.1-16.407a.6.6 0 00.159-.833l-1.35-1.984a.6.6 0 00-.993.675l1.35 1.984a.602.602 0 00.834.158zM20.8 32.402a.8.8 0 10.001 1.601.8.8 0 000-1.6zm-7.2-6a.8.8 0 10.001 1.602.8.8 0 000-1.602zm-.4-18.4a.799.799 0 00-1.106-.738.8.8 0 101.106.739zm16 6a.8.8 0 10.001 1.602.8.8 0 000-1.601z" fill="#FBF063"/><path d="M29.2 30.402a.8.8 0 100 1.6.8.8 0 000-1.6zM24 9.602a.8.8 0 100 1.601.8.8 0 000-1.6z" fill="#F57E20"/><path d="M24.983 29.642a.587.587 0 00-.716-.457.633.633 0 00-.475.735l.48 2.38a.588.588 0 00.717.457.632.632 0 00.475-.734l-.48-2.381zM28 24.802a.799.799 0 00-.739 1.107.8.8 0 10.74-1.107zm-17.6-6.4a.799.799 0 00-.739 1.107.8.8 0 10.74-1.106zm8 10.8a.8.8 0 100 1.6.8.8 0 000-1.6zm7.6-23.2a.8.8 0 100 1.601.8.8 0 000-1.6zm8.4 9.2a.8.8 0 100 1.601.8.8 0 000-1.6z" fill="#6AC9F2"/><path d="M20.791 39.2C9.743 39.2.8 30.25.8 19.203.8 13.88 2.88 9.045 6.27 5.461A19.949 19.949 0 000 20.003C0 31.051 8.943 40 19.991 40c5.729 0 10.892-2.41 14.539-6.269A19.932 19.932 0 0120.791 39.2z" fill="#D3896D"/><path d="M26.696 19.602c0-3.505-2.818-6.346-6.295-6.346a6.248 6.248 0 00-4.625 2.05 6.236 6.236 0 014.225-1.65c3.477 0 6.295 2.84 6.295 6.346a6.344 6.344 0 01-1.67 4.294 6.344 6.344 0 002.07-4.694zm-23.52-5.156c1.256-1.112 2.293-3.405 2.307-5.09.007-.842.35-1.659.897-2.298-.775.675-1.29 1.667-1.297 2.698-.011 1.52-.859 3.534-1.947 4.73l.04-.04zm10.01-11.642a3.17 3.17 0 01.248-.33 3.3 3.3 0 00-.649.73c-.16.243-.34.472-.54.684.375-.345.7-.713.94-1.084zM35.57 28.85c-.668.314-1.359.86-1.965 1.51.502-.472 1.04-.863 1.565-1.11a3.397 3.397 0 001.124-.871c-.22.188-.463.347-.724.47zm-7.528 6.753c-1.658-.226-4.057.482-5.328 1.578-1.272 1.093-3.354 1.093-4.626 0-1.274-1.097-3.672-1.805-5.329-1.578-1.656.227-3.41-.908-3.892-2.523-.483-1.614-2.12-3.519-3.637-4.23-1.517-.715-2.384-2.623-1.923-4.243.46-1.624.104-4.117-.791-5.543-.824-1.311-.634-3.18.384-4.337l-.125.118c-1.256 1.116-1.553 3.196-.66 4.619.896 1.426 1.252 3.92.792 5.543-.46 1.62.406 3.528 1.923 4.243 1.516.711 3.154 2.616 3.637 4.23.482 1.614 2.236 2.75 3.892 2.523 1.657-.226 4.056.482 5.33 1.578 1.271 1.093 3.353 1.093 4.625 0 1.272-1.097 3.67-1.805 5.328-1.578 1.189.162 2.422-.376 3.205-1.288-.77.663-1.803 1.025-2.805.888z" fill="#854D9B"/></g><defs><clipPath id="clip0"><path fill="#fff" d="M0 0h39.995v40H0z"/></clipPath></defs></svg>