<svg width="40" height="40" fill="none" xmlns="http://www.w3.org/2000/svg"><g clip-path="url(#clip0)"><path d="M40 37.6a2.4 2.4 0 01-2.4 2.4H2.4A2.4 2.4 0 010 37.6V6.4A2.4 2.4 0 012.4 4h35.2A2.4 2.4 0 0140 6.4v31.2z" fill="#27AE60"/><path fill-rule="evenodd" clip-rule="evenodd" d="M32.8 34.8a.8.8 0 01-.8.8H8a.8.8 0 01-.8-.8V7.2a.8.8 0 01.8-.8h24a.8.8 0 01.8.8v27.6z" fill="#fff"/><path fill-rule="evenodd" clip-rule="evenodd" d="M28.8 8H11.2A1.2 1.2 0 0110 6.8V4a1.2 1.2 0 011.2-1.2h6a2.8 2.8 0 115.6 0h6A1.2 1.2 0 0130 4v2.8A1.2 1.2 0 0128.8 8zM20 1.6A1.2 1.2 0 1020 4a1.2 1.2 0 000-2.4z" fill="#BDC3C7"/><path fill-rule="evenodd" clip-rule="evenodd" d="M28.8 8H11.2A1.2 1.2 0 0110 6.8V6a1.2 1.2 0 001.2 1.2h17.6A1.2 1.2 0 0030 6v.8A1.2 1.2 0 0128.8 8z" fill="#A1A6A9"/><path opacity=".15" fill-rule="evenodd" clip-rule="evenodd" d="M37.6 38.8H2.4A2.4 2.4 0 010 36.4v1.2A2.4 2.4 0 002.4 40h35.2a2.4 2.4 0 002.4-2.4v-1.2a2.4 2.4 0 01-2.4 2.4z" fill="#000"/><path fill-rule="evenodd" clip-rule="evenodd" d="M16.4 16.4v1.2h12.4v-1.2H16.4zm0 5.6h12.4v-1.2H16.4V22zm0 4.4h12.4v-1.2H16.4v1.2zm0 4.4h12.4v-1.2H16.4v1.2zm-5.2-12.4H14v-2.8h-2.8v2.8zm0 4.4H14V20h-2.8v2.8zm0 4.4H14v-2.8h-2.8v2.8zm0 4.4H14v-2.8h-2.8v2.8z" fill="#BDC3C7"/><path fill-rule="evenodd" clip-rule="evenodd" d="M16.4 11.6v1.2h12.4v-1.2H16.4zm-2.03-.486l-.282-.285a.1.1 0 00-.11-.022.1.1 0 00-.032.022l-1.491 1.481a.1.1 0 01-.142 0l-.653-.664a.1.1 0 00-.11-.021.1.1 0 00-.032.021l-.288.26a.098.098 0 00-.03.07l.004.021H11.2v.4h.004l.026.05.658.69.142.142.283.285a.1.1 0 00.11.022.1.1 0 00.032-.022l1.916-1.908.027-.058h.002V11.2h-.002a.099.099 0 00-.027-.085z" fill="#27AE60"/><path fill-rule="evenodd" clip-rule="evenodd" d="M20 1.6a1.196 1.196 0 011.126.8A1.18 1.18 0 0021.2 2a1.2 1.2 0 00-2.4 0c0 .142.028.275.073.4A1.196 1.196 0 0120 1.6z" fill="#A1A6A9"/></g><defs><clipPath id="clip0"><path fill="#fff" d="M0 0h40v40H0z"/></clipPath></defs></svg>