<svg width="41" height="40" fill="none" xmlns="http://www.w3.org/2000/svg"><g clip-path="url(#clip0)"><path d="M.808 12.93h38.788v20.605H.808V12.93z" fill="#C0392C"/><path d="M30.303 34.747h1.616a.808.808 0 01.808.808v1.616a.808.808 0 01-.808.808h-1.616a.808.808 0 01-.808-.808v-1.616c0-.446.362-.808.808-.808z" fill="#2C3E50"/><path d="M37.576 35.96v3.231a.809.809 0 01-.808.809h-4.849a.808.808 0 01-.808-.809V35.96c.008-.002 6.462.008 6.465 0z" fill="#23475F"/><path d="M32.29 40h.808v-4.04h-.808V40zm1.683 0h.74v-4.04h-.74V40zm1.616-4.04V40h.741v-4.04h-.74z" fill="#1D3D51"/><path d="M8.485 34.747H10.1a.808.808 0 01.808.808v1.616a.808.808 0 01-.808.808H8.485a.808.808 0 01-.808-.808v-1.616c0-.446.362-.808.808-.808z" fill="#2C3E50"/><path d="M9.293 35.96v3.231a.808.808 0 01-.808.809H3.636a.809.809 0 01-.808-.809V35.96c.008-.002 6.463.008 6.465 0z" fill="#23475F"/><path d="M4.007 40h.808v-4.04h-.808V40zm1.683 0h.74v-4.04h-.74V40zm1.616-4.04V40h.74v-4.04h-.74z" fill="#1D3D51"/><path d="M35.556 0H4.848a4.04 4.04 0 00-4.04 4.04v8.89s8.85 3.192 13.678 8.021c4.868 4.868 5.716 9.756 5.716 9.756s.83-4.87 5.69-9.73c4.837-4.837 13.704-8.048 13.704-8.048V4.04A4.04 4.04 0 0035.556 0z" fill="#EBEEEF"/><path d="M23.434 11.717c-.89 0-1.616-.725-1.616-1.616V5.657c0-.892.725-1.617 1.616-1.617H33.94c.892 0 1.617.725 1.617 1.617V10.1c0 .891-.725 1.616-1.617 1.616H23.434z" fill="#fff"/><path d="M23.434 11.717h1.616l7.677-7.677h-9.293c-.89 0-1.616.725-1.616 1.617V10.1c0 .89.725 1.616 1.616 1.616z" fill="#EBEEEF"/><path d="M35.151 4.444H22.222v2.02h6.869v4.85h2.828v-4.85h3.232v-2.02z" fill="#E5E5E5"/><path d="M6.465 11.717a1.618 1.618 0 01-1.617-1.616V5.657c0-.892.725-1.617 1.617-1.617H16.97c.89 0 1.616.725 1.616 1.617V10.1c0 .891-.725 1.616-1.616 1.616H6.465z" fill="#fff"/><path d="M18.182 4.444H5.252v2.02h3.233v4.85h2.828v-4.85h6.869v-2.02z" fill="#E5E5E5"/><path d="M.808 33.535h38.788a.808.808 0 01.808.808v.808a.807.807 0 01-.808.809H.808A.807.807 0 010 35.15v-.808a.808.808 0 01.808-.808z" fill="#D4D7DA"/><path d="M31.92 22.626a3.636 3.636 0 110 7.272 3.636 3.636 0 010-7.272z" fill="#fff"/><path d="M31.92 23.838a2.425 2.425 0 11-.002 4.85 2.425 2.425 0 01.001-4.85z" fill="#F39C12"/><path d="M8.485 22.626a3.636 3.636 0 110 7.272 3.636 3.636 0 010-7.272z" fill="#fff"/><path d="M8.485 23.838a2.425 2.425 0 11-.001 4.85 2.425 2.425 0 010-4.85z" fill="#F39C12"/><path d="M21.409 15.348c-.874-.874-2.42-.399-2.42-.399l-5.275 5.276c.266.238.526.48.772.727a23.5 23.5 0 013.287 4.103l5.661-5.661s.288-1.328-.396-2.013c-.502-.501-1.091-1.495-1.63-2.033z" fill="#C8CBCB"/><path d="M20.202 14.546a3.636 3.636 0 100 7.272 3.636 3.636 0 000-7.273zm0 1.212c.627 0 1.196.24 1.626.63l-1.626 1.627-1.626-1.627a2.409 2.409 0 011.626-.63zm0 4.848a2.425 2.425 0 01-2.131-3.58l2.131 2.131 2.131-2.131a2.425 2.425 0 01-2.131 3.58z" fill="#fff"/><path d="M29.09 7.677l3.233-3.233h-9.946a1.59 1.59 0 00-.155.155v1.866h6.869v1.212z" fill="#D3D6D7"/><path d="M33.94 4.444c.668 0 1.212.544 1.212 1.213V10.1c0 .668-.544 1.212-1.213 1.212H23.434a1.214 1.214 0 01-1.212-1.212V5.657c0-.669.544-1.213 1.212-1.213H33.94zm0-.808H23.433a2.02 2.02 0 00-2.02 2.02v4.445a2.02 2.02 0 002.02 2.02H33.94a2.02 2.02 0 002.02-2.02V5.657a2.02 2.02 0 00-2.02-2.02z" fill="#BDC3C7"/><path d="M6.465 11.717H8.08l7.677-7.677H6.465c-.892 0-1.617.725-1.617 1.617V10.1c0 .89.725 1.616 1.617 1.616z" fill="#EBEEEF"/><path d="M11.313 8.485v-2.02h2.02l2.02-2.02H5.408a1.4 1.4 0 00-.154.154v1.866h3.232v4.848l2.828-2.828z" fill="#D3D6D7"/><path d="M16.97 4.444c.668 0 1.212.544 1.212 1.213V10.1c0 .668-.544 1.212-1.212 1.212H6.465A1.214 1.214 0 015.253 10.1V5.657c0-.669.543-1.213 1.212-1.213H16.97zm0-.808H6.465a2.02 2.02 0 00-2.02 2.02v4.445a2.02 2.02 0 002.02 2.02H16.97a2.02 2.02 0 002.02-2.02V5.657a2.02 2.02 0 00-2.02-2.02z" fill="#BDC3C7"/></g><defs><clipPath id="clip0"><path fill="#fff" d="M0 0h40.404v40H0z"/></clipPath></defs></svg>