<svg width="40" height="40" fill="none" xmlns="http://www.w3.org/2000/svg"><g clip-path="url(#clip0)"><path d="M20 0c11.045 0 20 8.954 20 20s-8.955 20-20 20C8.954 40 0 31.046 0 20S8.954 0 20 0z" fill="#E64B3C"/><path d="M14 10l-26.8 26.8L-2 47.6h22.8v-36L14 10z" fill="#C03A2B"/><path d="M20 8c5.744 0 10.4 4.656 10.4 10.4v17.2C30.4 41.344 25.744 46 20 46c-5.744 0-10.4-4.656-10.4-10.4V18.4C9.6 12.656 14.256 8 20 8z" fill="#EBECED"/><path d="M18.4 17.2h3.2a1.2 1.2 0 011.2 1.2v5.2a1.2 1.2 0 01-1.2 1.2h-3.2a1.2 1.2 0 01-1.2-1.2v-5.2a1.2 1.2 0 011.2-1.2z" fill="#A1A5A9"/><path d="M20 18a.398.398 0 01.418.4.402.402 0 01-.259.374.399.399 0 01-.54-.374A.4.4 0 0120 18z" fill="#2D3E50"/><path d="M20.4 19.6h-6v1.2h4v1.6a1.2 1.2 0 001.2 1.2h.8a1.2 1.2 0 001.2-1.2v-1.6h4v-1.2h-5.2z" fill="#BDC2C7"/><path d="M20 21.2a.8.8 0 110 1.6.8.8 0 010-1.6z" fill="#2D3E50"/><path d="M26.4 17.2H28a1.2 1.2 0 011.2 1.2V22a1.2 1.2 0 01-1.2 1.2h-1.6a1.2 1.2 0 01-1.2-1.2v-3.6a1.2 1.2 0 011.2-1.2z" fill="#35495E"/><path d="M26.4 17.2H28v6h-1.6v-6z" fill="#2D3E50"/><path d="M12 17.2h1.6a1.2 1.2 0 011.2 1.2V22a1.2 1.2 0 01-1.2 1.2H12a1.2 1.2 0 01-1.2-1.2v-3.6a1.2 1.2 0 011.2-1.2z" fill="#35495E"/><path d="M12 17.2h1.6v6H12v-6z" fill="#2D3E50"/><path d="M20 27.6a4.4 4.4 0 00-2.4 8.085v.915a.6.6 0 001.2 0 .6.6 0 101.2 0 .6.6 0 001.2 0 .6.6 0 001.2 0v-.915A4.4 4.4 0 0020 27.6zm-1.4 5.6a1 1 0 110-2 1 1 0 010 2zm2.8 0a1 1 0 110-2 1 1 0 010 2z" fill="#F29C1F"/><path d="M14.8 21.2h3.6v-.8h-3.6v.8zm6.8-.8v.8h3.6v-.8h-3.6z" fill="#919598"/><path d="M14.8 20.4h2.4v.8h-2.4v-.8zm8 0h2.4v.8h-2.4v-.8z" fill="#D4D5D6"/><path d="M21.6 20.4h3.6v.4h-3.6v-.4zm-6.8 0h3.6v.4h-3.6v-.4z" fill="#AAAFB4"/></g><defs><clipPath id="clip0"><path fill="#fff" d="M0 0h40v40H0z"/></clipPath></defs></svg>