<svg width="40" height="40" fill="none" xmlns="http://www.w3.org/2000/svg"><g clip-path="url(#clip0)"><path d="M20 29.6V40h.029H20c-5.126-.002-10.265-1.93-14.167-5.833C1.925 30.258-.003 25.135 0 20 .004 14.874 1.932 9.735 5.833 5.833L13.2 13.2c-1.873 1.873-2.798 4.34-2.8 6.8a9.56 9.56 0 002.8 6.8c1.873 1.874 4.34 2.798 6.8 2.8z" fill="#E74C3C"/><path d="M20 36.8c-9.278 0-16.8-7.522-16.8-16.8 0-4.64 1.88-8.84 4.92-11.88L5.834 5.833C3.147 8.52 0 13.375 0 20c0 10.825 8.65 20 20 20v-3.2z" fill="#000" fill-opacity=".15"/><path d="M13.171 26.8a9.563 9.563 0 01-2.8-6.8c.002-2.46.927-4.927 2.8-6.8l-2.25-2.25A12.759 12.759 0 007.17 20c0 7.07 5.731 12.8 12.8 12.8v-3.2c-2.46-.002-4.926-.926-6.8-2.8z" fill="#fff" fill-opacity=".15"/><path d="M25.2 34.8l-5.194-5.196V29.6H20c-1.324.005-2.404 2.33-2.404 5.2 0 2.873 1.084 5.2 2.41 5.2v-.008L25.2 34.8z" fill="#EFC22D"/><path d="M23.503 33.103A2.393 2.393 0 0022.8 34.8c0 .662.269 1.262.703 1.697L25.2 34.8l-1.697-1.697z" fill="#2D3E4F"/><path d="M20 10.4V0h-.029H20c5.126.003 10.265 1.931 14.167 5.834C38.075 9.742 40.004 14.866 40 20c-.003 5.127-1.931 10.266-5.833 14.168L26.8 26.8c1.873-1.873 2.798-4.34 2.8-6.8a9.564 9.564 0 00-2.8-6.8 9.589 9.589 0 00-6.8-2.8z" fill="#3498DB"/><path d="M26.8 13.2a9.563 9.563 0 012.8 6.8c-.002 2.46-.927 4.928-2.8 6.8l2.25 2.252A12.757 12.757 0 0032.8 20c0-7.069-5.73-12.8-12.8-12.8v3.2a9.589 9.589 0 016.8 2.8z" fill="#000" fill-opacity=".1"/><path d="M20 3.2c9.278 0 16.8 7.522 16.8 16.8 0 4.64-1.88 8.84-4.92 11.88l2.287 2.287C36.853 31.481 40 26.625 40 20 40 9.176 31.35 0 20 0v3.2z" fill="#fff" fill-opacity=".15"/><path d="M14.8 5.2l5.194 5.197v.004H20c1.324-.005 2.403-2.331 2.403-5.2C22.403 2.327 21.32 0 19.994 0v.008L14.8 5.201z" fill="#EFC22D"/><path d="M16.497 6.898a2.394 2.394 0 00.52-2.616 2.394 2.394 0 00-.52-.778L14.8 5.201l1.697 1.697z" fill="#2D3E4F"/></g><defs><clipPath id="clip0"><path fill="#fff" d="M0 0h40v40H0z"/></clipPath></defs></svg>