<svg xmlns="http://www.w3.org/2000/svg" width="22" height="18" viewBox="0 0 22 18"><g><g><path fill="#6f6f6e" d="M19.155 4.462c.014.192.014.384.014.576 0 5.854-4.457 12.6-12.602 12.6-2.509 0-4.84-.726-6.8-1.987.356.04.699.054 1.069.054 2.07 0 3.976-.699 5.498-1.892a4.437 4.437 0 0 1-4.14-3.071c.274.04.548.068.836.068.397 0 .795-.055 1.165-.15A4.43 4.43 0 0 1 .644 6.312v-.055a4.46 4.46 0 0 0 2.002.562A4.426 4.426 0 0 1 .67 3.131c0-.822.22-1.576.604-2.235a12.59 12.59 0 0 0 9.132 4.635 5 5 0 0 1-.11-1.015 4.427 4.427 0 0 1 4.43-4.429c1.274 0 2.426.535 3.235 1.4a8.72 8.72 0 0 0 2.811-1.07 4.417 4.417 0 0 1-1.947 2.44 8.879 8.879 0 0 0 2.55-.685 9.52 9.52 0 0 1-2.22 2.29z"/></g></g></svg>