<svg width="26" height="26" fill="none" xmlns="http://www.w3.org/2000/svg"><path fill-rule="evenodd" clip-rule="evenodd" d="M25.308 10.513a.761.761 0 01.56.628 13.135 13.135 0 010 3.717.762.762 0 01-.56.629l-1.295.34a11.26 11.26 0 01-1.227 2.959l.675 1.158a.762.762 0 01-.048.84 13.12 13.12 0 01-2.628 2.63.762.762 0 01-.84.047l-1.159-.675c-.926.55-1.918.96-2.958 1.227l-.34 1.295a.762.762 0 01-.63.56 13.128 13.128 0 01-3.717 0 .762.762 0 01-.628-.56l-.34-1.295a11.259 11.259 0 01-2.959-1.227l-1.158.675a.762.762 0 01-.84-.048 13.113 13.113 0 01-2.63-2.629.762.762 0 01-.047-.84l.675-1.158c-.55-.927-.96-1.918-1.227-2.959l-1.295-.34a.762.762 0 01-.56-.629 13.132 13.132 0 010-3.717.762.762 0 01.56-.629l1.295-.34a11.26 11.26 0 011.227-2.958L2.54 6.055a.762.762 0 01.048-.84 13.115 13.115 0 012.629-2.629.762.762 0 01.84-.048l1.158.676c.926-.55 1.918-.961 2.958-1.228l.34-1.294a.762.762 0 01.63-.56 13.186 13.186 0 013.717 0 .76.76 0 01.628.56l.34 1.294c1.041.267 2.033.678 2.959 1.228l1.158-.676a.762.762 0 01.84.048 13.106 13.106 0 012.63 2.63.762.762 0 01.047.84l-.675 1.158c.55.926.96 1.917 1.227 2.958l1.295.34zM4.895 13c0 4.469 3.636 8.105 8.105 8.105s8.105-3.636 8.105-8.105S17.469 4.895 13 4.895 4.895 8.531 4.895 13z" fill="#62A8FF"/><path fill-rule="evenodd" clip-rule="evenodd" d="M6.419 13A6.589 6.589 0 0113 6.419 6.589 6.589 0 0119.581 13a6.589 6.589 0 01-6.58 6.581A6.589 6.589 0 016.418 13zm5.765 3.21c.202 0 .396-.08.539-.224l4.08-4.08a.762.762 0 10-1.078-1.076l-3.54 3.54-1.502-1.5a.762.762 0 00-1.077 1.077l2.04 2.04a.761.761 0 00.538.222z" fill="#62A8FF"/></svg>