<?xml version="1.0" standalone="no"?>
<!DOCTYPE svg PUBLIC "-//W3C//DTD SVG 1.1//EN" "http://www.w3.org/Graphics/SVG/1.1/DTD/svg11.dtd" >
<svg>
<metadata>
Created by FontForge 20090914 at Tue Jan  5 09:35:34 2021
 By www-data
Copyright 2020 The Plus Jakarta Display Project Authors (https://github.com/tokotype/PlusJakartaSans)
</metadata>
<defs>
<font id="PlusJakartaDisplay-Bold" horiz-adv-x="0" >
  <font-face 
    font-family="Plus Jakarta Display"
    font-weight="700"
    font-stretch="normal"
    units-per-em="1000"
    panose-1="0 0 0 0 0 0 0 0 0 0"
    ascent="800"
    descent="-200"
    x-height="545.999"
    cap-height="745"
    bbox="-120 -240 1191 1071"
    underline-thickness="90"
    underline-position="-175"
    unicode-range="U+000D-U+FB02"
  />
<missing-glyph horiz-adv-x="640" 
d="M60 675v70h520v-70h-520zM60 450v70h520v-70h-520zM60 225v70h520v-70h-520zM60 0v70h520v-70h-520z" />
    <glyph glyph-name="fi" unicode="fi" horiz-adv-x="622" 
d="M93 0v416h-93v130h93v16c0 64.667 19 114.667 57 150s91 53 159 53c20 0 37.667 -1.66699 53 -5v-128c-12.667 2 -23.667 3 -33 3c-57.333 0 -86 -24.333 -86 -73v-16h118v-130h-118v-416h-150zM422 595v150h150v-150h-150zM422 0v546h150v-546h-150z" />
    <glyph glyph-name="fl" unicode="fl" horiz-adv-x="622" 
d="M93 0v416h-93v130h93v16c0 64.667 19 114.667 57 150s91 53 159 53c20 0 37.667 -1.66699 53 -5v-128c-12.667 2 -23.667 3 -33 3c-57.333 0 -86 -24.333 -86 -73v-16h118v-130h-118v-416h-150zM422 0v745h150v-745h-150z" />
    <glyph glyph-name=".notdef" horiz-adv-x="640" 
d="M60 675v70h520v-70h-520zM60 450v70h520v-70h-520zM60 225v70h520v-70h-520zM60 0v70h520v-70h-520z" />
    <glyph glyph-name="NULL" 
 />
    <glyph glyph-name="NULL" 
 />
    <glyph glyph-name="CR" unicode="&#xd;" horiz-adv-x="180" 
 />
    <glyph glyph-name="space" unicode=" " horiz-adv-x="180" 
 />
    <glyph glyph-name="exclam" unicode="!" horiz-adv-x="270" 
d="M70 230l-10 515h150l-10 -515h-130zM60 0v150h150v-150h-150z" />
    <glyph glyph-name="quotedbl" unicode="&#x22;" horiz-adv-x="480" 
d="M65 480v265h130v-265h-130zM285 480v265h130v-265h-130z" />
    <glyph glyph-name="numbersign" unicode="#" horiz-adv-x="796" 
d="M66 0l44 153h-120v130h157l52 180h-120v130h157l44 152h150l-44 -152h150l43 152h150l-43 -152h120v-130h-158l-51 -180h120v-130h-158l-43 -153h-150l43 153h-149l-44 -153h-150zM297 283h150l51 180h-149z" />
    <glyph glyph-name="dollar" unicode="$" horiz-adv-x="646" 
d="M305 -100l-0.000976562 89.999c-44 4 -85 15 -123 33s-70.5 41.833 -97.5 71.5s-46.833 63.834 -59.5 102.501l130 61c15.333 -36.667 36.5 -66.167 63.5 -88.5s55.833 -36.5 86.5 -42.5v176l-67 21c-63.333 20 -110.333 47.833 -141 83.5s-46 78.167 -46 127.5
c0 43.333 10.5 81.333 31.5 114s50.5 58.334 88.5 77.001s82.667 29 134 31v88h100v-98c50.667 -12.667 94.167 -34.834 130.5 -66.501s62.5 -69.167 78.5 -112.5l-130 -61c-15.333 43.333 -41.666 75 -78.999 95v-176l23 -7c62.667 -19.333 109.667 -46 141 -80
s47 -76.667 47 -128c0 -58 -19 -106.333 -57 -145s-89.333 -63 -154 -73v-93h-100zM279.999 464.999l25 -8.00098v164c-30 -2 -54 -10.5 -72 -25.5s-27 -33.167 -27 -54.5c0 -35.333 24.667 -60.666 74 -75.999zM460.999 201.998c0 17.333 -5 31.333 -15 42
s-23.667 19.667 -41 27v-137c37.333 14 56 36.667 56 68z" />
    <glyph glyph-name="percent" unicode="%" horiz-adv-x="1064" 
d="M270 378c-34.667 0 -66.332 8.5 -94.999 25.5s-51.667 39.833 -69 68.5s-26 60.334 -26 95.001c0 35.333 8.5 67.333 25.5 96s40 51.5 69 68.5s60.833 25.5 95.5 25.5c35.333 0 67.333 -8.5 96 -25.5s51.5 -39.833 68.5 -68.5s25.5 -60.667 25.5 -96
c0 -34.667 -8.66699 -66.334 -26 -95.001s-40.333 -51.5 -69 -68.5s-60.334 -25.5 -95.001 -25.5zM289.002 0l330 745h142l-330 -745h-142zM270.002 496c20 0 36.833 7 50.5 21s20.5 30.667 20.5 50c0 20 -6.83301 36.833 -20.5 50.5s-30.5 20.5 -50.5 20.5
s-36.833 -6.83301 -50.5 -20.5s-20.5 -30.5 -20.5 -50.5s6.83301 -36.833 20.5 -50.5s30.5 -20.5 50.5 -20.5zM794.002 -12c-34.667 0 -66.334 8.5 -95.001 25.5s-51.5 40 -68.5 69s-25.5 60.833 -25.5 95.5s8.5 66.334 25.5 95.001s39.833 51.5 68.5 68.5
s60.334 25.5 95.001 25.5c35.333 0 67.333 -8.5 96 -25.5s51.5 -39.833 68.5 -68.5s25.5 -60.334 25.5 -95.001s-8.5 -66.5 -25.5 -95.5s-39.833 -52 -68.5 -69s-60.667 -25.5 -96 -25.5zM794.002 107c20 0 36.833 6.83301 50.5 20.5s20.5 30.5 20.5 50.5
c0 19.333 -6.83301 36 -20.5 50s-30.5 21 -50.5 21s-36.833 -7 -50.5 -21s-20.5 -30.667 -20.5 -50c0 -20 6.83301 -36.833 20.5 -50.5s30.5 -20.5 50.5 -20.5z" />
    <glyph glyph-name="ampersand" unicode="&#x26;" horiz-adv-x="859" 
d="M617 363l146.001 -0.00292969l-145 -179l171 -184h-172l-81 87c-31.333 -32.667 -65.5 -57.334 -102.5 -74.001s-78.833 -25 -125.5 -25c-71.333 0 -128 18.333 -170 55s-63 86.334 -63 149.001c0 46.667 12.333 87.334 37 122.001s63.667 65.334 117 92.001l8 4
c-22.667 28.667 -39.167 54.834 -49.5 78.501s-15.5 48.167 -15.5 73.5c0 36.667 9.33301 69.667 28 99s44.167 52.666 76.5 69.999s68.5 26 108.5 26s75.667 -8.16699 107 -24.5s56.166 -38.666 74.499 -66.999s27.5 -60.5 27.5 -96.5c0 -38.667 -12.833 -72 -38.5 -100
s-66.5 -57 -122.5 -87l104 -111zM302.001 563.997c0 -13.333 4.33301 -27.667 13 -43s21.667 -33 39 -53c42 21.333 70.833 39.666 86.5 54.999s23.5 31.333 23.5 48c0 18.667 -7.66699 34.334 -23 47.001s-34 19 -56 19c-22.667 0 -42.167 -7.16699 -58.5 -21.5
s-24.5 -31.5 -24.5 -51.5zM225.001 201.996c0 -28.667 8.83301 -51.5 26.5 -68.5s41.167 -25.5 70.5 -25.5c26.667 0 49.667 5.5 69 16.5s40 28.167 62 51.5l-136 147l-16 -8c-23.333 -12 -41.833 -27.333 -55.5 -46s-20.5 -41 -20.5 -67z" />
    <glyph glyph-name="quotesingle" unicode="'" horiz-adv-x="260" 
d="M65 480v265h130v-265h-130z" />
    <glyph glyph-name="parenleft" unicode="(" horiz-adv-x="371" 
d="M241 -180c-114 134 -171 288.332 -171 462.999c0 175.333 57 329.333 171 462h125c-94 -145.333 -141 -299.333 -141 -462c0 -163.333 47 -317.666 141 -462.999h-125z" />
    <glyph glyph-name="parenright" unicode=")" horiz-adv-x="371" 
d="M5 -180c94 145.333 141 299.667 141 463c0 162.667 -47 316.667 -141 462h125c114 -132.667 171 -286.667 171 -462c0 -174.667 -57 -329 -171 -463h-125z" />
    <glyph glyph-name="asterisk" unicode="*" horiz-adv-x="448" 
d="M155 358l-88 64l69 94l-111 38l34 103l110 -37v125h110v-125l110 37l34 -103l-111 -38l69 -94l-88 -64l-69 94z" />
    <glyph glyph-name="plus" unicode="+" horiz-adv-x="610" 
d="M243 125v168h-168v125h168v167h125v-167h167v-125h-167v-168h-125z" />
    <glyph glyph-name="comma" unicode="," horiz-adv-x="296" 
d="M55 -115l41 265h135l-76 -265h-100z" />
    <glyph glyph-name="hyphen" unicode="-" horiz-adv-x="560" 
d="M55 204v130h450v-130h-450z" />
    <glyph glyph-name="period" unicode="." horiz-adv-x="280" 
d="M65 0v150h150v-150h-150z" />
    <glyph glyph-name="slash" unicode="/" horiz-adv-x="452" 
d="M-20 0l330 745h162l-330 -745h-162z" />
    <glyph glyph-name="zero" unicode="0" horiz-adv-x="663" 
d="M332 -12c-60 0 -112.668 16.0029 -158.001 48.0029s-80.666 77 -105.999 135s-38 125.333 -38 202c0 77.333 12.667 144.666 38 201.999s60.5 102 105.5 134s97.5 48 157.5 48c60.667 0 113.667 -16 159 -48s80.5 -76.833 105.5 -134.5s37.5 -124.834 37.5 -201.501
s-12.5 -143.834 -37.5 -201.501s-60 -102.667 -105 -135s-97.833 -48.5 -158.5 -48.5zM331.999 128.003c46.667 0 82.834 21.5 108.501 64.5s38.5 103.167 38.5 180.5s-12.833 137.333 -38.5 180s-62.167 64 -109.5 64c-46.667 0 -82.834 -21.333 -108.501 -64
s-38.5 -102.667 -38.5 -180c0 -76.667 13 -136.667 39 -180s62.333 -65 109 -65z" />
    <glyph glyph-name="one" unicode="1" horiz-adv-x="440" 
d="M160 0v614h-140v130l295 1v-745h-155z" />
    <glyph glyph-name="two" unicode="2" horiz-adv-x="572" 
d="M26 0l-0.998047 119.997l200 206c39.333 40.667 69.166 72.834 89.499 96.501s34.333 43.5 42 59.5s11.5 31.667 11.5 47c0 27.333 -8.33301 48.833 -25 64.5s-39.334 23.5 -68.001 23.5s-54.167 -8.16699 -76.5 -24.5s-38.5 -39.166 -48.5 -68.499l-122 70
c17.333 50 49 89.667 95 119s100 44 162 44c47.333 0 88.833 -8.66699 124.5 -26s63.5 -41.666 83.5 -72.999s30 -68 30 -110c0 -40.667 -11 -79.5 -33 -116.5s-55.333 -78.167 -100 -123.5l-173 -178h315v-130h-506z" />
    <glyph glyph-name="three" unicode="3" horiz-adv-x="594" 
d="M279 -12c-59.333 0 -111.834 14.665 -157.501 43.998s-77.834 69 -96.501 119l122 70c22.667 -62 66.667 -93 132 -93c36.667 0 65.834 10.167 87.501 30.5s32.5 47.833 32.5 82.5c0 34 -10.667 60.833 -32 80.5s-50.666 29.5 -87.999 29.5
c-30.667 0 -58.667 -6.33301 -84 -19l-36 75l192 208h-292v130h465v-120l-146 -164c54 -9.33301 96.833 -33 128.5 -71s47.5 -85.667 47.5 -143c0 -49.333 -12 -93.666 -36 -132.999s-56.667 -70.166 -98 -92.499s-88.333 -33.5 -141 -33.5z" />
    <glyph glyph-name="four" unicode="4" horiz-adv-x="669" 
d="M649 290v-130h-124v-160h-155v160h-340v130l330 455h165v-455h124zM181 290h189v268z" />
    <glyph glyph-name="five" unicode="5" horiz-adv-x="593" 
d="M282 -12c-40 0 -77.3311 6.83105 -111.998 20.498s-64.5 32.667 -89.5 57s-43.5 52.833 -55.5 85.5l123 70c10.667 -28 28 -50.5 52 -67.5s51.333 -25.5 82 -25.5c34.667 0 62.667 10.833 84 32.5s32 49.834 32 84.501s-10.667 62.667 -32 84s-49.333 32 -84 32
c-46 0 -77.667 -21 -95 -63l-122 30l70 417h401v-130l-296 1l-24 -147c25.333 14.667 57 22 95 22c48 0 90.167 -10 126.5 -30s64.666 -47.667 84.999 -83s30.5 -76.333 30.5 -123c0 -50.667 -11.833 -96.167 -35.5 -136.5s-55.834 -72.166 -96.501 -95.499
s-87 -35 -139 -35z" />
    <glyph glyph-name="six" unicode="6" horiz-adv-x="592" 
d="M296 -12c-51.333 0 -97.1689 10.833 -137.502 32.5s-71.833 51.167 -94.5 88.5s-34 79.333 -34 126c0 33.333 6.83301 64.5 20.5 93.5s31.834 59.5 54.501 91.5l231 325h175l-188 -267h1c46 0 86.833 -11.167 122.5 -33.5s63.834 -52 84.501 -89s31 -77.167 31 -120.5
c0 -46.667 -11.333 -88.667 -34 -126s-54 -66.833 -94 -88.5s-86 -32.5 -138 -32.5zM295.997 128c30.667 0 56.834 10.333 78.501 31s32.5 47.667 32.5 81s-10.833 60.166 -32.5 80.499s-47.834 30.5 -78.501 30.5s-56.834 -10.167 -78.501 -30.5
s-32.5 -47.166 -32.5 -80.499s10.833 -60.333 32.5 -81s47.834 -31 78.501 -31z" />
    <glyph glyph-name="seven" unicode="7" horiz-adv-x="542" 
d="M67 0l301 616h-353v130h507v-130l-292 -616h-163z" />
    <glyph glyph-name="eight" unicode="8" horiz-adv-x="630" 
d="M314 -12c-52 0 -98.665 10.167 -139.998 30.5s-74 48 -98 83s-36 74.833 -36 119.5c0 76.667 35.333 133.334 106 170.001c-24.667 16 -44.334 38.167 -59.001 66.5s-22 59.166 -22 92.499c0 40 10.667 75.667 32 107s50.833 55.833 88.5 73.5s80.5 26.5 128.5 26.5
s90.833 -8.83301 128.5 -26.5s67.334 -42.167 89.001 -73.5s32.5 -67 32.5 -107c0 -32.667 -7.33301 -63.167 -22 -91.5s-34.334 -50.833 -59.001 -67.5c71.333 -38 107 -94.667 107 -170c0 -44.667 -12 -84.5 -36 -119.5s-56.833 -62.667 -98.5 -83
s-88.834 -30.5 -141.501 -30.5zM314.002 451c27.333 0 49.5 8 66.5 24s25.5 37 25.5 63c0 26.667 -8.5 48.167 -25.5 64.5s-39.167 24.5 -66.5 24.5s-49.5 -8.16699 -66.5 -24.5s-25.5 -37.833 -25.5 -64.5c0 -26 8.5 -47 25.5 -63s39.167 -24 66.5 -24zM314.002 118
c36 0 65 9.33301 87 28s33 43.334 33 74.001s-11 55.167 -33 73.5s-51 27.5 -87 27.5c-35.333 0 -63.833 -9.16699 -85.5 -27.5s-32.5 -42.833 -32.5 -73.5s10.833 -55.334 32.5 -74.001s50.167 -28 85.5 -28z" />
    <glyph glyph-name="nine" unicode="9" horiz-adv-x="592" 
d="M81 0l188.001 267.001h-1c-46 0 -86.833 11.167 -122.5 33.5s-63.834 52 -84.501 89s-31 77.167 -31 120.5c0 47.333 11.333 89.5 34 126.5s54.167 66.333 94.5 88s86.166 32.5 137.499 32.5c52 0 98 -10.833 138 -32.5s71.333 -51 94 -88s34 -79.167 34 -126.5
c0 -32.667 -6.66699 -63.334 -20 -92.001s-31.666 -59.667 -54.999 -93l-231 -325h-175zM296.001 394.001c30.667 0 56.834 10.167 78.501 30.5s32.5 47.166 32.5 80.499s-10.833 60.333 -32.5 81s-47.834 31 -78.501 31s-56.834 -10.333 -78.501 -31
s-32.5 -47.667 -32.5 -81s10.833 -60.166 32.5 -80.499s47.834 -30.5 78.501 -30.5z" />
    <glyph glyph-name="colon" unicode=":" horiz-adv-x="280" 
d="M65 388v150h150v-150h-150zM65 0v150h150v-150h-150z" />
    <glyph glyph-name="semicolon" unicode=";" horiz-adv-x="312" 
d="M97 388v150h150v-150h-150zM65 -115l41 265h135l-76 -265h-100z" />
    <glyph glyph-name="less" unicode="&#x3c;" horiz-adv-x="554" 
d="M514 0l-474 195v148l474 196v-151l-287 -119l287 -118v-151z" />
    <glyph glyph-name="equal" unicode="=" horiz-adv-x="630" 
d="M100 413v125h430v-125h-430zM100 173v125h430v-125h-430z" />
    <glyph glyph-name="greater" unicode="&#x3e;" horiz-adv-x="534" 
d="M40 0v151l287 118l-287 119v151l474 -196v-148z" />
    <glyph glyph-name="question" unicode="?" horiz-adv-x="555" 
d="M204 230l0.00292969 22.999c0 44 9.16699 80.333 27.5 109s37.833 53.667 58.5 75c19.333 19.333 36.666 37.666 51.999 54.999s23 36.333 23 57c0 21.333 -8.33301 38 -25 50s-39.334 18 -68.001 18c-62 0 -103.667 -31 -125 -93l-122 70
c10.667 32.667 28.167 61.167 52.5 85.5s53.333 43.333 87 57s69.5 20.5 107.5 20.5c52 0 96.5 -10.167 133.5 -30.5s65.333 -46.333 85 -78s29.5 -65.167 29.5 -100.5c0 -25.333 -4.83301 -47.833 -14.5 -67.5s-21.834 -37.667 -36.501 -54s-30 -32.166 -46 -47.499
c-20.667 -19.333 -39 -39.666 -55 -60.999s-24 -46.333 -24 -75v-13h-140zM200.003 -0.000976562v150h150v-150h-150z" />
    <glyph glyph-name="at" unicode="@" horiz-adv-x="939" 
d="M470 -107c-62.667 0 -120.665 10.834 -173.998 32.501s-99.833 52.167 -139.5 91.5s-70.667 85.166 -93 137.499s-33.5 109.166 -33.5 170.499s11.167 118.333 33.5 171s53.333 98.5 93 137.5s86.167 69.333 139.5 91s111.333 32.5 174 32.5
c62 0 119.667 -10.833 173 -32.5s100 -52.167 140 -91.5s71 -85.166 93 -137.499s33 -109.166 33 -170.499c0 -50.667 -7.83301 -94.667 -23.5 -132s-37.834 -66.333 -66.501 -87s-62.334 -31 -101.001 -31c-34 0 -64.167 7.83301 -90.5 23.5s-44.5 36.167 -54.5 61.5
c-13.333 -14 -31.833 -25 -55.5 -33s-48.834 -12 -75.501 -12c-36.667 0 -70.834 9.16699 -102.501 27.5s-57.167 43.666 -76.5 75.999s-29 69.5 -29 111.5s9.66699 79.667 29 113s44.833 59.5 76.5 78.5s65.834 28.5 102.501 28.5c26 0 50.167 -4 72.5 -12
s39.166 -19 50.499 -33v35h116v-286c0 -20 4 -36.333 12 -49s18.333 -19 31 -19c17.333 0 31 12.5 41 37.5s15 58.833 15 101.5c0 65.333 -12.833 122 -38.5 170s-61.667 85.167 -108 111.5s-100.833 39.5 -163.5 39.5c-61.333 0 -115.5 -13.5 -162.5 -40.5
s-83.5 -64.5 -109.5 -112.5s-39 -104 -39 -168c0 -62 13.333 -117.167 40 -165.5s63.334 -86.333 110.001 -114s100.334 -41.5 161.001 -41.5c62.667 0 119.667 16.333 171 49l51 -98c-64.667 -41.333 -138.667 -62 -222 -62zM460.002 220.001
c31.333 0 57.166 10.832 77.499 32.499s30.5 48.834 30.5 81.501c0 30.667 -10.167 56.334 -30.5 77.001s-46.166 31.667 -77.499 33c-32 1.33301 -58.833 -8.83398 -80.5 -30.501s-32.5 -49.5 -32.5 -83.5c0 -30.667 10.833 -56.667 32.5 -78s48.5 -32 80.5 -32z" />
    <glyph glyph-name="A" unicode="A" horiz-adv-x="723" 
d="M5 0l254 745h205l254 -745h-164l-50 152h-285l-50 -152h-164zM263 287h197l-98 302z" />
    <glyph glyph-name="B" unicode="B" horiz-adv-x="681" 
d="M60 0v745h315c77.333 0 137.5 -19.167 180.5 -57.5s64.5 -91.833 64.5 -160.5c0 -22.667 -4.16699 -44.667 -12.5 -66s-21.833 -41 -40.5 -59c32.667 -22.667 54.834 -48.5 66.501 -77.5s17.5 -59.833 17.5 -92.5c0 -73.333 -24.333 -130.333 -73 -171
s-116.334 -61 -203.001 -61h-315zM215 465l171 -0.00195312c24 0 43.167 6.83301 57.5 20.5s21.5 31.834 21.5 54.501s-7.16699 40.834 -21.5 54.501s-33.5 20.5 -57.5 20.5h-171v-150zM215 134.998h178c31.333 0 56.333 9 75 27s28 41.333 28 70
c0 29.333 -9.33301 53 -28 71s-43.667 27 -75 27h-178v-195z" />
    <glyph glyph-name="C" unicode="C" horiz-adv-x="760" 
d="M411 -12c-53.333 0 -102.833 9.66797 -148.5 29.001s-85.5 46.333 -119.5 81s-60.5 75.334 -79.5 122.001s-28.5 97.667 -28.5 153s9.33301 106.5 28 153.5s45 87.667 79 122s73.833 61 119.5 80s95.5 28.5 149.5 28.5s102.5 -9 145.5 -27s79.5 -42 109.5 -72
s51.333 -63.333 64 -100l-137 -66c-12.667 36 -34.834 65.833 -66.501 89.5s-70.167 35.5 -115.5 35.5c-44 0 -82.667 -10.333 -116 -31s-59.166 -49.167 -77.499 -85.5s-27.5 -78.833 -27.5 -127.5s9.16699 -91.334 27.5 -128.001s44.166 -65.334 77.499 -86.001
s72 -31 116 -31c45.333 0 83.833 11.833 115.5 35.5s53.834 53.5 66.501 89.5l137 -66c-12.667 -36.667 -34 -70 -64 -100s-66.5 -54 -109.5 -72s-91.5 -27 -145.5 -27z" />
    <glyph glyph-name="D" unicode="D" horiz-adv-x="735" 
d="M60 0v745h243c80.667 0 150.667 -16 210 -48s105.333 -76 138 -132s49 -120 49 -192s-16.333 -136.167 -49 -192.5s-78.667 -100.5 -138 -132.5s-129.333 -48 -210 -48h-243zM215 135h92c48.667 0 90.667 9.83301 126 29.5s62.833 47.334 82.5 83.001
s29.5 77.5 29.5 125.5c0 48.667 -9.83301 90.667 -29.5 126s-47.167 62.666 -82.5 81.999s-77.333 29 -126 29h-92v-475z" />
    <glyph glyph-name="E" unicode="E" horiz-adv-x="601" 
d="M60 0v745h501v-135h-346v-169h326v-135h-326v-171h346l-1 -135h-500z" />
    <glyph glyph-name="F" unicode="F" horiz-adv-x="590" 
d="M60 0v745h510v-135h-355v-189h305v-135h-305v-286h-155z" />
    <glyph glyph-name="G" unicode="G" horiz-adv-x="783" 
d="M421 -12c-56 0 -107.499 9.66895 -154.499 29.002s-87.833 46.333 -122.5 81s-61.5 75.334 -80.5 122.001s-28.5 97.667 -28.5 153s9.33301 106.5 28 153.5s45 87.667 79 122s73.833 61 119.5 80s95.5 28.5 149.5 28.5s102.5 -9 145.5 -27s79.5 -42 109.5 -72
s51.333 -63.333 64 -100l-137 -66c-12.667 36 -34.834 65.833 -66.501 89.5s-70.167 35.5 -115.5 35.5c-44 0 -82.667 -10.333 -116 -31s-59.166 -49.167 -77.499 -85.5s-27.5 -78.833 -27.5 -127.5s9.33301 -91.334 28 -128.001s45.334 -65.334 80.001 -86.001
s75.667 -31 123 -31c52 0 93 9.66699 123 29s49.667 40.333 59 63v65h-180v135h330v-210c-10 -40.667 -29.333 -77.834 -58 -111.501s-65.834 -60.5 -111.501 -80.5s-99.834 -30 -162.501 -30z" />
    <glyph glyph-name="H" unicode="H" horiz-adv-x="720" 
d="M60 0v745h155v-322h290v322h155v-745h-155v288h-290v-288h-155z" />
    <glyph glyph-name="I" unicode="I" horiz-adv-x="275" 
d="M60 0v745h155v-745h-155z" />
    <glyph glyph-name="J" unicode="J" horiz-adv-x="375" 
d="M10 0v140h50c30 0 54.167 8.5 72.5 25.5s27.5 39.5 27.5 67.5v512h155v-505c0 -48 -10.5 -90 -31.5 -126s-50.5 -64 -88.5 -84s-83 -30 -135 -30h-50z" />
    <glyph glyph-name="K" unicode="K" horiz-adv-x="671" 
d="M60 0v745h155v-285l238 285h178l-229 -275l269 -470h-174l-195 349l-87 -105v-244h-155z" />
    <glyph glyph-name="L" unicode="L" horiz-adv-x="570" 
d="M60 0v745h155v-610h335v-135h-490z" />
    <glyph glyph-name="M" unicode="M" horiz-adv-x="900" 
d="M690 745h150v-745h-155v480l-225 -290h-20l-225 301v-491h-155v745h150l239 -315z" />
    <glyph glyph-name="N" unicode="N" horiz-adv-x="730" 
d="M515 745h155v-745h-120l-335 451v-451h-155v745h119l336 -448v448z" />
    <glyph glyph-name="O" unicode="O" horiz-adv-x="860" 
d="M430 -12c-56 0 -108.002 9.66699 -156.002 29s-89.833 46.5 -125.5 81.5s-63.5 75.833 -83.5 122.5s-30 97.334 -30 152.001s9.83301 105.334 29.5 152.001s47.334 87.334 83.001 122.001s77.5 61.667 125.5 81s100.333 29 157 29s109 -9.66699 157 -29
s89.833 -46.333 125.5 -81s63.334 -75.334 83.001 -122.001s29.5 -97.334 29.5 -152.001s-10 -105.334 -30 -152.001s-47.833 -87.5 -83.5 -122.5s-77.5 -62.167 -125.5 -81.5s-100 -29 -156 -29zM429.998 128c45.333 0 86.166 10.5 122.499 31.5s65 49.833 86 86.5
s31.5 79 31.5 127s-10.5 90.333 -31.5 127s-49.667 65.334 -86 86.001s-77.166 31 -122.499 31s-86.166 -10.333 -122.499 -31s-65 -49.334 -86 -86.001s-31.5 -79 -31.5 -127s10.5 -90.333 31.5 -127s49.667 -65.5 86 -86.5s77.166 -31.5 122.499 -31.5z" />
    <glyph glyph-name="P" unicode="P" horiz-adv-x="655" 
d="M60 0v744.999h306c51.333 0 96.833 -9 136.5 -27s70.834 -44.667 93.501 -80s34 -79 34 -131c0 -50.667 -11.5 -93.667 -34.5 -129s-54.333 -62.166 -94 -80.499s-84.834 -27.5 -135.501 -27.5h-151v-270h-155zM215 404.999l152 -0.000976562
c32.667 0 58.834 9.33301 78.501 28s29.5 43.334 29.5 74.001c0 31.333 -9.83301 56.333 -29.5 75s-45.834 28 -78.501 28h-152v-205z" />
    <glyph glyph-name="Q" unicode="Q" horiz-adv-x="860" 
d="M430 -12c-56 0 -108.002 9.66602 -156.002 28.999s-89.833 46.5 -125.5 81.5s-63.5 75.833 -83.5 122.5s-30 97.334 -30 152.001s9.83301 105.334 29.5 152.001s47.334 87.334 83.001 122.001s77.5 61.667 125.5 81s100.333 29 157 29s109 -9.66699 157 -29
s89.833 -46.333 125.5 -81s63.334 -75.334 83.001 -122.001s29.5 -97.334 29.5 -152.001c0 -66.667 -14.5 -127.167 -43.5 -181.5s-68.5 -98.833 -118.5 -133.5l108 -188h-164l-73 130c-33.333 -8 -68 -12 -104 -12zM429.998 127.999c10.667 0 21.332 0.666992 31.999 2
l-94 168h158l64 -112c24.667 22 44.167 49 58.5 81s21.5 67.333 21.5 106c0 48 -10.5 90.333 -31.5 127s-49.667 65.334 -86 86.001s-77.166 31 -122.499 31s-86.166 -10.333 -122.499 -31s-65 -49.334 -86 -86.001s-31.5 -79 -31.5 -127s10.5 -90.333 31.5 -127
s49.667 -65.5 86 -86.5s77.166 -31.5 122.499 -31.5z" />
    <glyph glyph-name="R" unicode="R" horiz-adv-x="696" 
d="M60 0l-0.00195312 745.001h306c51.333 0 96.833 -9 136.5 -27s70.834 -44.667 93.501 -80s34 -79 34 -131c0 -50.667 -11.667 -93.834 -35 -129.501s-54.666 -62.5 -93.999 -80.5l170 -297h-174l-151 270h-131v-270h-155zM214.998 405.001l152 -0.000976562
c32.667 0 58.834 9.33301 78.501 28s29.5 43.334 29.5 74.001c0 31.333 -9.83301 56.333 -29.5 75s-45.834 28 -78.501 28h-152v-205z" />
    <glyph glyph-name="S" unicode="S" horiz-adv-x="646" 
d="M340 -12c-49.333 0 -95.3301 8.66309 -137.997 25.9961s-79.334 41.666 -110.001 72.999s-53 68 -67 110l130 61c18 -43.333 44.167 -76.666 78.5 -99.999s69.833 -35 106.5 -35c38 0 67.667 7.66699 89 23s32 34 32 56c0 19.333 -6.33301 34.833 -19 46.5
s-30 20.834 -52 27.501l-152 48c-63.333 20 -110.333 47.833 -141 83.5s-46 78.167 -46 127.5c0 44.667 11.167 83.5 33.5 116.5s53.5 58.833 93.5 77.5s87 28 141 28c48 0 91.667 -8.16699 131 -24.5s73.166 -38.666 101.499 -66.999s49.166 -60.833 62.499 -97.5l-130 -61
c-12.667 35.333 -33.334 63.333 -62.001 84s-63 31 -103 31c-34 0 -61.333 -7.66699 -82 -23s-31 -34.666 -31 -57.999c0 -35.333 24.667 -60.666 74 -75.999l148 -46c62.667 -19.333 109.667 -46 141 -80s47 -76.667 47 -128c0 -44.667 -11.5 -83.667 -34.5 -117
s-55.167 -59.333 -96.5 -78s-89.666 -28 -144.999 -28z" />
    <glyph glyph-name="T" unicode="T" horiz-adv-x="561" 
d="M204 0v610h-189v135h531v-135h-187v-610h-155z" />
    <glyph glyph-name="U" unicode="U" horiz-adv-x="730" 
d="M515 745h155v-462c0 -55.333 -12.667 -105.333 -38 -150s-60.833 -80 -106.5 -106s-99.167 -39 -160.5 -39c-60.667 0 -114 13 -160 39s-81.667 61.333 -107 106s-38 94.667 -38 150v462h155v-462c0 -46.667 13.833 -84.167 41.5 -112.5s63.834 -42.5 108.501 -42.5
c45.333 0 81.666 14.167 108.999 42.5s41 65.833 41 112.5v462z" />
    <glyph glyph-name="V" unicode="V" horiz-adv-x="700" 
d="M239 0l-234 745h174l171 -577l171 577h174l-234 -745h-222z" />
    <glyph glyph-name="W" unicode="W" horiz-adv-x="1040" 
d="M199 0l-184 745h169l127 -541l120 541h188l120 -541l127 541h159l-184 -745h-202l-119 529l-119 -529h-202z" />
    <glyph glyph-name="X" unicode="X" horiz-adv-x="681" 
d="M15 0l239 373l-239 372h174l152 -237l151 237h174l-238 -372l238 -373h-174l-151 237l-152 -237h-174z" />
    <glyph glyph-name="Y" unicode="Y" horiz-adv-x="661" 
d="M254 0v325l-249 420h174l152 -265l151 265h174l-247 -419v-326h-155z" />
    <glyph glyph-name="Z" unicode="Z" horiz-adv-x="565" 
d="M195 135h360v-135h-545v125l350 485h-330v135h515v-125z" />
    <glyph glyph-name="bracketleft" unicode="[" horiz-adv-x="375" 
d="M70 -180v925h280v-130h-130v-665h130v-130h-280z" />
    <glyph glyph-name="backslash" unicode="\" horiz-adv-x="452" 
d="M310 0l-330 745h162l330 -745h-162z" />
    <glyph glyph-name="bracketright" unicode="]" horiz-adv-x="375" 
d="M25 -180v130h130v665h-130v130h280v-925h-280z" />
    <glyph glyph-name="asciicircum" unicode="^" horiz-adv-x="635" 
d="M560 418h-164l-78 149l-78 -149h-165l171 327h144z" />
    <glyph glyph-name="underscore" unicode="_" horiz-adv-x="450" 
d="M475 0v-130h-500v130h500z" />
    <glyph glyph-name="grave" unicode="`" horiz-adv-x="239" 
d="M219 640h-103l-96 162h134z" />
    <glyph glyph-name="a" unicode="a" horiz-adv-x="546" 
d="M222 -12c-41.333 0 -77.1689 7.16992 -107.502 21.5029s-53.666 33.666 -69.999 57.999s-24.5 51.5 -24.5 81.5c0 40.667 15.333 74.167 46 100.5s73.667 45.166 129 56.499l171 36v18c0 20.667 -7.66699 37.167 -23 49.5s-35.666 18.5 -60.999 18.5
c-26.667 0 -50.167 -7.16699 -70.5 -21.5s-34.5 -33.833 -42.5 -58.5l-129 62c16 45.333 45.833 81.333 89.5 108s94.5 40 152.5 40c46.667 0 87.5 -8.33301 122.5 -25s62.333 -39.834 82 -69.501s29.5 -64.167 29.5 -103.5v-360h-140v50
c-20.667 -22 -43.5 -37.833 -68.5 -47.5s-53.5 -14.5 -85.5 -14.5zM174.997 151.003c0 -16.667 6.33301 -29.667 19 -39s29.667 -14 51 -14c34 0 62.667 10.667 86 32s35 47.333 35 78v26l-144 -32c-31.333 -7.33301 -47 -24.333 -47 -51z" />
    <glyph glyph-name="b" unicode="b" horiz-adv-x="654" 
d="M356 -12c-33.333 0 -64.501 5.49902 -93.501 16.499s-53.167 26.833 -72.5 47.5v-52h-140v745h150v-245c38.667 38.667 91 58 157 58c52 0 98.833 -12.667 140.5 -38s74.834 -59.5 99.501 -102.5s37 -91.167 37 -144.5c0 -52.667 -12.167 -100.667 -36.5 -144
s-57.333 -77.666 -99 -102.999s-89.167 -38 -142.5 -38zM337.999 122.999c41.333 0 75.166 14.002 101.499 42.002s39.5 64 39.5 108c0 43.333 -13.167 79.166 -39.5 107.499s-60.166 42.5 -101.499 42.5c-40.667 0 -73.834 -14 -99.501 -42s-38.5 -64 -38.5 -108
c0 -44.667 12.833 -80.834 38.5 -108.501s58.834 -41.5 99.501 -41.5z" />
    <glyph glyph-name="c" unicode="c" horiz-adv-x="574" 
d="M309 -12c-54.667 0 -103.833 12.499 -147.5 37.499s-78.167 59.167 -103.5 102.5s-38 92 -38 146s12.667 102.5 38 145.5s59.833 76.833 103.5 101.5s92.834 37 147.501 37c40.667 0 78.334 -7 113.001 -21s64.334 -33.5 89.001 -58.5s42.334 -54.5 53.001 -88.5
l-128 -62c-8.66699 29.333 -24.334 52.5 -47.001 69.5s-49.334 25.5 -80.001 25.5c-39.333 0 -71.5 -14 -96.5 -42s-37.5 -64 -37.5 -108s12.5 -80 37.5 -108s57.167 -42 96.5 -42c31.333 0 58.166 8.66699 80.499 26s37.833 40.333 46.5 69l128 -63
c-10 -32 -27.333 -60.667 -52 -86s-54.334 -45.166 -89.001 -59.499s-72.667 -21.5 -114 -21.5z" />
    <glyph glyph-name="d" unicode="d" horiz-adv-x="654" 
d="M298 -12c-52.667 0 -100 12.668 -142 38.001s-75.167 59.666 -99.5 102.999s-36.5 91.333 -36.5 144c0 53.333 12.333 101.5 37 144.5s58 77.167 100 102.5s88.667 38 140 38c66 0 118.333 -19.333 157 -58v245h150v-745h-140v52
c-19.333 -20.667 -43.5 -36.5 -72.5 -47.5s-60.167 -16.5 -93.5 -16.5zM316 123.001c40.667 0 73.834 13.8311 99.501 41.498s38.5 63.834 38.5 108.501c0 44 -12.833 80 -38.5 108s-58.834 42 -99.501 42s-74.334 -14.167 -101.001 -42.5s-40 -64.166 -40 -107.499
c0 -44 13.333 -80 40 -108s60.334 -42 101.001 -42z" />
    <glyph glyph-name="e" unicode="e" horiz-adv-x="577" 
d="M306 -12c-57.333 0 -107.5 12.8291 -150.5 38.4961s-76.333 60.167 -100 103.5s-35.5 91.333 -35.5 144c0 54.667 12.167 103.334 36.5 146.001s57.333 76.334 99 101.001s88.5 37 140.5 37c51.333 0 97.333 -12 138 -36s73 -56.167 97 -96.5s36 -85.833 36 -136.5
c0 -10.667 -0.5 -21.167 -1.5 -31.5s-2.83301 -19.166 -5.5 -26.499h-384c4.66699 -34 18.667 -61.333 42 -82s53.333 -31 90 -31c26.667 0 49.5 5.33301 68.5 16s33.833 25.334 44.5 44.001l120 -57c-16.667 -40 -46 -72.167 -88 -96.5s-91 -36.5 -147 -36.5zM296 437.996
c-29.333 0 -54.334 -8.33301 -75.001 -25s-34.667 -40.667 -42 -72h229c-2.66699 29.333 -14.167 52.833 -34.5 70.5s-46.166 26.5 -77.499 26.5z" />
    <glyph glyph-name="f" unicode="f" horiz-adv-x="372" 
d="M93 0v416h-93v130h93v16c0 64.667 19 114.667 57 150s91 53 159 53c20 0 37.667 -1.66699 53 -5v-128c-12.667 2 -23.667 3 -33 3c-57.333 0 -86 -24.333 -86 -73v-16h118v-130h-118v-416h-150z" />
    <glyph glyph-name="g" unicode="g" horiz-adv-x="644" 
d="M313 -222c-62.667 0 -117.166 15.1709 -163.499 45.5039s-77.5 70.5 -93.5 120.5l128 63c8.66699 -29.333 24.167 -52.333 46.5 -69s49.833 -25 82.5 -25c37.333 0 68.5 10.5 93.5 31.5s37.5 49.167 37.5 84.5v53c-38 -36.667 -88.667 -55 -152 -55
c-49.333 0 -94.666 11 -135.999 33s-74.333 53.167 -99 93.5s-37 87.166 -37 140.499c0 55.333 12.833 102.666 38.5 141.999s59 69.5 100 90.5s84.5 31.5 130.5 31.5c35.333 0 66.833 -6.16699 94.5 -18.5s51.167 -29.5 70.5 -51.5v58h140v-517
c0 -50.667 -12.833 -94.834 -38.5 -132.501s-59.834 -66.834 -102.501 -87.501s-89.334 -31 -140.001 -31zM311.001 163.004c38.667 0 70.501 12 95.501 36s37.5 55 37.5 93c0 39.333 -12.833 71 -38.5 95s-57.167 36 -94.5 36c-24.667 0 -47.334 -5.5 -68.001 -16.5
s-37.167 -26.333 -49.5 -46s-18.5 -42.5 -18.5 -68.5c0 -38 13 -69 39 -93s58.333 -36 97 -36z" />
    <glyph glyph-name="h" unicode="h" horiz-adv-x="590" 
d="M50 0l-0.000976562 745h150v-249c15.333 20.667 35.333 36.167 60 46.5s52.334 15.5 83.001 15.5c41.333 0 77.5 -8.5 108.5 -25.5s55.167 -41 72.5 -72s26 -67.167 26 -108.5v-352h-150v320c0 31.333 -9.33301 56.333 -28 75s-42.667 28 -72 28
s-53.333 -9.33301 -72 -28s-28 -43.667 -28 -75v-320h-150z" />
    <glyph glyph-name="i" unicode="i" horiz-adv-x="250" 
d="M50 595v150h150v-150h-150zM50 0v546h150v-546h-150z" />
    <glyph glyph-name="j" unicode="j" horiz-adv-x="248" 
d="M68 595v150h150v-150h-150zM0 -222c-21.333 0 -39.332 1.66699 -53.999 5v128c11.333 -2 22.666 -3 33.999 -3c58.667 0 88 24 88 72v566h150v-566c0 -64.667 -19.333 -114.5 -58 -149.5s-92 -52.5 -160 -52.5z" />
    <glyph glyph-name="k" unicode="k" horiz-adv-x="561" 
d="M50 0v745h150v-406l196 207h175l-198 -220l198 -326h-163l-132 219l-76 -82v-137h-150z" />
    <glyph glyph-name="l" unicode="l" horiz-adv-x="250" 
d="M50 0v745h150v-745h-150z" />
    <glyph glyph-name="m" unicode="m" horiz-adv-x="896" 
d="M50 0l0.00390625 546h140v-66c13.333 26 32.166 45.5 56.499 58.5s53.166 19.5 86.499 19.5c35.333 0 67 -7.16699 95 -21.5s50.667 -35.166 68 -62.499c15.333 25.333 37.666 45.666 66.999 60.999s62.333 23 99 23c38 0 71.667 -8.5 101 -25.5s52.166 -41 68.499 -72
s24.5 -67.5 24.5 -109.5v-351h-150v319c0 33.333 -8.16699 59 -24.5 77s-37.833 27 -64.5 27s-48.167 -9 -64.5 -27s-24.5 -43.667 -24.5 -77v-319h-150v319c0 33.333 -8.16699 59 -24.5 77s-37.833 27 -64.5 27s-48.167 -9 -64.5 -27s-24.5 -43.667 -24.5 -77v-319h-150z
" />
    <glyph glyph-name="n" unicode="n" horiz-adv-x="590" 
d="M50 0l-0.000976562 546h140v-67c14 26.667 34.333 46.5 61 59.5s57.334 19.5 92.001 19.5c41.333 0 77.5 -8.66699 108.5 -26s55.167 -41.5 72.5 -72.5s26 -67.167 26 -108.5v-351h-150v319c0 31.333 -9.33301 56.5 -28 75.5s-42.667 28.5 -72 28.5
s-53.333 -9.5 -72 -28.5s-28 -44.167 -28 -75.5v-319h-150z" />
    <glyph glyph-name="o" unicode="o" horiz-adv-x="624" 
d="M312 -12c-54 0 -103.167 12.333 -147.5 37s-79.5 58.5 -105.5 101.5s-39 91.833 -39 146.5c0 55.333 13 104.333 39 147s61.167 76.334 105.5 101.001s93.5 37 147.5 37s103.167 -12.333 147.5 -37s79.5 -58.334 105.5 -101.001s39 -91.667 39 -147
c0 -54.667 -13 -103.5 -39 -146.5s-61.167 -76.833 -105.5 -101.5s-93.5 -37 -147.5 -37zM312 123c41.333 0 74.5 14 99.5 42s37.5 64 37.5 108c0 43.333 -12.5 79.166 -37.5 107.499s-58.167 42.5 -99.5 42.5c-40.667 0 -73.667 -14.167 -99 -42.5
s-38 -64.166 -38 -107.499c0 -44 12.667 -80 38 -108s58.333 -42 99 -42z" />
    <glyph glyph-name="p" unicode="p" horiz-adv-x="654" 
d="M50 -200l-0.000976562 745.999h140v-57c38.667 46 94.334 69 167.001 69c52 0 98.833 -12.667 140.5 -38s74.834 -59.5 99.501 -102.5s37 -91.167 37 -144.5c0 -52.667 -12.167 -100.667 -36.5 -144s-57.5 -77.666 -99.5 -102.999s-89.333 -38 -142 -38
c-32 0 -61.333 4.83301 -88 14.5s-49.334 23.167 -68.001 40.5v-243h-150zM337.999 122.999c41.333 0 75.166 14.1689 101.499 42.502s39.5 64.166 39.5 107.499s-13.167 79.166 -39.5 107.499s-60.166 42.5 -101.499 42.5c-40.667 0 -73.834 -14 -99.501 -42
s-38.5 -64 -38.5 -108s12.833 -80 38.5 -108s58.834 -42 99.501 -42z" />
    <glyph glyph-name="q" unicode="q" horiz-adv-x="654" 
d="M454 -200v243.001c-18.667 -17.333 -41.334 -30.833 -68.001 -40.5s-56 -14.5 -88 -14.5c-52.667 0 -100 12.667 -142 38s-75.167 59.666 -99.5 102.999s-36.5 91.333 -36.5 144c0 53.333 12.333 101.5 37 144.5s58 77.167 100 102.5s88.667 38 140 38
c72.667 0 128.334 -23 167.001 -69v57h140v-746h-150zM316 123.001c40.667 0 73.834 13.998 99.501 41.998s38.5 64 38.5 108s-12.833 80 -38.5 108s-58.834 42 -99.501 42s-74.334 -14.167 -101.001 -42.5s-40 -64.166 -40 -107.499s13.333 -79.166 40 -107.499
s60.334 -42.5 101.001 -42.5z" />
    <glyph glyph-name="r" unicode="r" horiz-adv-x="405" 
d="M50 0l0.000976562 546h140v-82c14 34 33.833 57.167 59.5 69.5s55.167 18.5 88.5 18.5h57v-130h-72c-36.667 0 -66.334 -11.167 -89.001 -33.5s-34 -53.833 -34 -94.5v-294h-150z" />
    <glyph glyph-name="s" unicode="s" horiz-adv-x="513" 
d="M271 -12c-59.333 0 -111.669 13.835 -157.002 41.502s-76.666 66.167 -93.999 115.5l111 52c30 -62.667 76.667 -94 140 -94c23.333 0 42 4.5 56 13.5s21 20.833 21 35.5c0 12 -4 21.5 -12 28.5s-16.833 12.333 -26.5 16s-17.834 6.16699 -24.501 7.5l-96 25
c-49.333 13.333 -86.166 33.833 -110.499 61.5s-36.5 60.167 -36.5 97.5c0 34 9 63.667 27 89s43.167 45.166 75.5 59.499s69.833 21.5 112.5 21.5c56 0 105 -12.667 147 -38s71.667 -60.333 89 -105l-112 -52c-8.66699 23.333 -24.167 41.666 -46.5 54.999
s-48.166 20 -77.499 20c-22 0 -39.167 -4 -51.5 -12s-18.5 -19 -18.5 -33c0 -10.667 3.5 -19.334 10.5 -26.001s14.833 -11.5 23.5 -14.5l22 -7.5l101 -27c48.667 -12.667 85.667 -32.667 111 -60s38 -60.666 38 -99.999c0 -33.333 -9.33301 -62.833 -28 -88.5
s-44.667 -45.667 -78 -60s-72 -21.5 -116 -21.5z" />
    <glyph glyph-name="t" unicode="t" horiz-adv-x="402" 
d="M312 -6c-66 0 -117.167 17.833 -153.5 53.5s-54.5 85.5 -54.5 149.5v219h-94v130h7c58 0 87 28 87 84v80h150v-164h128v-130h-128v-219c0 -55.333 31 -83 93 -83c9.33301 0 21 1 35 3v-118c-22 -3.33301 -45.333 -5 -70 -5z" />
    <glyph glyph-name="u" unicode="u" horiz-adv-x="590" 
d="M250 -12c-41.333 0 -77.832 9.49902 -109.499 28.499s-56.334 45.5 -74.001 79.5s-26.5 73.333 -26.5 118v332h150v-319c0 -31.333 9.33301 -56.5 28 -75.5s42.667 -28.5 72 -28.5s53.333 9.5 72 28.5s28 44.167 28 75.5v319h150v-546h-140v66
c-14 -25.333 -34 -44.666 -60 -57.999s-56 -20 -90 -20z" />
    <glyph glyph-name="v" unicode="v" horiz-adv-x="558" 
d="M214 0l-214 546h155l124 -346l124 346h155l-214 -546h-130z" />
    <glyph glyph-name="w" unicode="w" horiz-adv-x="891" 
d="M188 0l-188 546h155l101 -326l106 326h167l106 -326l100 326h156l-188 -546h-132l-125 364l-126 -364h-132z" />
    <glyph glyph-name="x" unicode="x" horiz-adv-x="572" 
d="M6 0l192 274l-193 272h174l107 -156l107 156h174l-193 -272l191 -274h-174l-105 157l-105 -157h-175z" />
    <glyph glyph-name="y" unicode="y" horiz-adv-x="578" 
d="M128 -223c-16 0 -31.501 1.33301 -46.501 4s-28.167 7 -39.5 13v123c21.333 -6.66699 44 -10 68 -10c30 0 50.833 6.66699 62.5 20s20.834 27.333 27.501 42l14 31l-214 546h160l129 -354l129 354h160l-237 -606c-4.66699 -12.667 -11.667 -28.167 -21 -46.5
s-22 -36.5 -38 -54.5s-36.5 -32.833 -61.5 -44.5s-55.833 -17.5 -92.5 -17.5z" />
    <glyph glyph-name="z" unicode="z" horiz-adv-x="507" 
d="M20 0v120l270 296h-260v130h456v-120l-263 -296h264v-130h-467z" />
    <glyph glyph-name="braceleft" unicode="{" horiz-adv-x="343" 
d="M288 -180c-60.667 0 -107.167 14.668 -139.5 44.001s-48.5 70.333 -48.5 123v170c0 17.333 -4.16699 30.666 -12.5 39.999s-20.166 14 -35.499 14h-32v130h32c15.333 0 27.166 4.83301 35.499 14.5s12.5 22.834 12.5 39.501v183c0 52.667 16.167 93.667 48.5 123
s78.833 44 139.5 44h50v-130h-50c-25.333 0 -38 -13.667 -38 -41v-165c0 -28.667 -5.5 -54.334 -16.5 -77.001s-26.5 -40.667 -46.5 -54c20 -11.333 35.5 -27.833 46.5 -49.5s16.5 -46.167 16.5 -73.5v-164c0 -27.333 12.667 -41 38 -41h50v-130h-50z" />
    <glyph glyph-name="bar" unicode="|" horiz-adv-x="370" 
d="M110 -190v1035h150v-1035h-150z" />
    <glyph glyph-name="braceright" unicode="}" horiz-adv-x="343" 
d="M5 -180v129.999h50c25.333 0 38 13.667 38 41v164c0 27.333 5.5 51.833 16.5 73.5s26.5 38.167 46.5 49.5c-20 13.333 -35.5 31.333 -46.5 54s-16.5 48.334 -16.5 77.001v165c0 27.333 -12.667 41 -38 41h-50v130h50c60.667 0 107.167 -14.667 139.5 -44
s48.5 -70.333 48.5 -123v-183c0 -16.667 4.33301 -29.834 13 -39.501s20.334 -14.5 35.001 -14.5h32v-130h-32c-14.667 0 -26.334 -4.66699 -35.001 -14s-13 -22.666 -13 -39.999v-170c0 -52.667 -16.167 -93.667 -48.5 -123s-78.833 -44 -139.5 -44h-50z" />
    <glyph glyph-name="asciitilde" unicode="~" horiz-adv-x="688" 
d="M440 267c-22.667 0 -41.999 3.16699 -57.999 9.5s-30.167 13.833 -42.5 22.5s-24 16.167 -35 22.5s-23.167 9.5 -36.5 9.5c-30.667 0 -48.334 -19.667 -53.001 -59h-120c3.33301 59.333 18.333 104.5 45 135.5s63.667 46.5 111 46.5c22.667 0 42 -3.16699 58 -9.5
s30 -13.833 42 -22.5s23.667 -16.167 35 -22.5s23.333 -9.5 36 -9.5c13.333 0 24.5 4.5 33.5 13.5s15.167 24.167 18.5 45.5h119c-3.33301 -59.333 -17.833 -104.5 -43.5 -135.5s-62.167 -46.5 -109.5 -46.5z" />
    <glyph glyph-name="uni00A0" unicode="&#xa0;" horiz-adv-x="180" 
 />
    <glyph glyph-name="exclamdown" unicode="&#xa1;" horiz-adv-x="270" 
d="M60 538h150v-150h-150v150zM70 308h130l10 -515h-150z" />
    <glyph glyph-name="cent" unicode="&#xa2;" horiz-adv-x="566" 
d="M240 -131l-0.000976562 126c-42.667 9.33301 -80.667 26.833 -114 52.5s-59.333 57.667 -78 96s-28 80.5 -28 126.5s9.33301 88 28 126s44.5 69.833 77.5 95.5s71.167 42.834 114.5 51.501v126h100v-121c52 -6 97.333 -23.5 136 -52.5s65.334 -66.167 80.001 -111.5
l-128 -62c-6.66699 22.667 -17.667 41.667 -33 57s-33.666 25.666 -54.999 30.999v-283c21.333 6 39.666 16.667 54.999 32s26.333 34.333 33 57l128 -62c-14.667 -45.333 -41.5 -82.5 -80.5 -111.5s-84.167 -46.5 -135.5 -52.5v-121h-100zM174.999 269
c0 -29.333 5.83301 -55.168 17.5 -77.501s27.5 -39.5 47.5 -51.5v258c-20 -12 -35.833 -29.167 -47.5 -51.5s-17.5 -48.166 -17.5 -77.499z" />
    <glyph glyph-name="sterling" unicode="&#xa3;" horiz-adv-x="781" 
d="M124 0l0.00195312 129.999h120v175h-151l28 100h123v100c0 50.667 10.5 94.834 31.5 132.501s50.667 67 89 88s82.833 31.5 133.5 31.5c59.333 0 111.166 -14.5 155.499 -43.5s74.833 -68.833 91.5 -119.5l-122 -70c-9.33301 30 -24.833 53 -46.5 69
s-47.834 24 -78.501 24c-33.333 0 -59 -9.66699 -77 -29s-27 -47 -27 -83v-100h207l-28 -100h-179v-175h318v-130h-588z" />
    <glyph glyph-name="currency" unicode="&#xa4;" horiz-adv-x="650" 
d="M145 4l-85.002 84.998l80 79c-17.333 30.667 -26 64.334 -26 101.001c0 36 8.66699 69.333 26 100l-80 80l85 85l80 -80c30.667 17.333 64 26 100 26c36.667 0 70.334 -8.66699 101.001 -26l79 80l85 -85l-79 -80c16.667 -31.333 25 -64.666 25 -99.999
c0 -36 -8.33301 -69.667 -25 -101l79 -79l-85 -85l-79 79c-31.333 -16.667 -65 -25 -101 -25c-35.333 0 -68.666 8.33301 -99.999 25zM324.998 187.998c22.667 0 41.834 7.83301 57.501 23.5s23.5 34.834 23.5 57.501s-7.83301 41.834 -23.5 57.501
s-34.834 23.5 -57.501 23.5s-41.834 -7.83301 -57.501 -23.5s-23.5 -34.834 -23.5 -57.501s7.83301 -41.834 23.5 -57.501s34.834 -23.5 57.501 -23.5z" />
    <glyph glyph-name="yen" unicode="&#xa5;" horiz-adv-x="661" 
d="M72 121v100h182v50h-182v100h155l-222 374h174l152 -265l151 265h174l-220 -374h184v-100h-211v-50h211v-100h-211v-121h-155v121h-182z" />
    <glyph glyph-name="brokenbar" unicode="&#xa6;" horiz-adv-x="370" 
d="M110 469v376h150v-376h-150zM110 -190v376h150v-376h-150z" />
    <glyph glyph-name="section" unicode="&#xa7;" horiz-adv-x="630" 
d="M332 -25c-60 0 -112 13.8271 -156 41.4941s-74.333 65.5 -91 113.5l111 52c28.667 -61.333 74 -92 136 -92c22.667 0 40.5 4.16699 53.5 12.5s19.5 19.5 19.5 33.5c0 23.333 -20 40.333 -60 51l-94 25c-46.667 12.667 -82.5 32.334 -107.5 59.001
s-37.5 59.334 -37.5 98.001c0 22.667 4.66699 43.334 14 62.001s25.666 35.334 48.999 50.001c-23.333 14 -39.666 30 -48.999 48s-14 38 -14 60c0 33.333 9 62.666 27 87.999s42.833 45 74.5 59s68.5 21 110.5 21c55.333 0 103.666 -12.5 144.999 -37.5
s70.333 -59.5 87 -103.5l-111 -52c-8.66699 23.333 -23.667 41.333 -45 54s-46.666 19 -75.999 19c-44.667 0 -67 -14.333 -67 -43c0 -10.667 4 -19.667 12 -27s22 -13.666 42 -18.999l99 -27c47.333 -12.667 83.5 -32.667 108.5 -60s37.5 -60 37.5 -98
c0 -22 -4.83301 -42.5 -14.5 -61.5s-26.167 -35.5 -49.5 -49.5c23.333 -14.667 39.833 -31.167 49.5 -49.5s14.5 -38.166 14.5 -59.499c0 -33.333 -9.16699 -62.666 -27.5 -87.999s-43.833 -45 -76.5 -59s-70.667 -21 -114 -21zM368 301.994
c17.333 3.33301 30.5 9.66699 39.5 19s13.5 20.333 13.5 33c0 28.667 -24 49.334 -72 62.001l-45 12c-46 -4 -69 -21.333 -69 -52c0 -14.667 5.66699 -26.334 17 -35.001s27.333 -15.667 48 -21z" />
    <glyph glyph-name="dieresis" unicode="&#xa8;" horiz-adv-x="412" 
d="M99 640c-22 0 -40.667 7.66797 -56 23.001s-23 33.666 -23 54.999s7.66699 39.666 23 54.999s34 23 56 23c21.333 0 39.5 -7.66699 54.5 -23s22.5 -33.666 22.5 -54.999c0 -22 -7.5 -40.5 -22.5 -55.5s-33.167 -22.5 -54.5 -22.5zM314 640.001
c-22 0 -40.5 7.66699 -55.5 23s-22.5 33.666 -22.5 54.999c0 22 7.66699 40.5 23 55.5s33.666 22.5 54.999 22.5c22 0 40.5 -7.66699 55.5 -23s22.5 -33.666 22.5 -54.999c0 -22 -7.66699 -40.5 -23 -55.5s-33.666 -22.5 -54.999 -22.5z" />
    <glyph glyph-name="copyright" unicode="&#xa9;" horiz-adv-x="930" 
d="M466 -12c-53.333 0 -103.334 9.99902 -150.001 29.999s-87.667 47.667 -123 83s-63 76.333 -83 123s-30 96.667 -30 150s9.83301 103 29.5 149s47.167 86.667 82.5 122s76.333 62.833 123 82.5s97 29.5 151 29.5c52.667 0 102.167 -9.83301 148.5 -29.5
s87.166 -47 122.499 -82s63 -75.667 83 -122s30 -96.166 30 -149.499s-9.83301 -103.333 -29.5 -150s-47.167 -87.667 -82.5 -123s-76.166 -63 -122.499 -83s-96.166 -30 -149.499 -30zM465.999 87.999c39.333 0 76.167 7.33301 110.5 22s64.5 35 90.5 61
s46.333 56.333 61 91s22 72 22 112c0 39.333 -7.33301 76.166 -22 110.499s-35.167 64.5 -61.5 90.5s-56.5 46.333 -90.5 61s-70.667 22 -110 22c-40 0 -77.333 -7.33301 -112 -22s-65 -35 -91 -61s-46.333 -56.167 -61 -90.5s-22 -71.166 -22 -110.499
c0 -40 7.33301 -77.333 22 -112s35 -65 61 -91s56.333 -46.333 91 -61s72 -22 112 -22zM467 181.999c-35.333 0 -67.334 8.33008 -96.001 24.9971s-51.5 39.5 -68.5 68.5s-25.5 61.5 -25.5 97.5c0 36.667 8.33301 69.334 25 98.001s39.334 51.167 68.001 67.5
s61 24.5 97 24.5c42 0 77.5 -9.66699 106.5 -29s48.5 -43.666 58.5 -72.999l-88 -43c-4.66699 15.333 -13.834 28.166 -27.501 38.499s-30.167 15.5 -49.5 15.5c-28 0 -50 -9.16699 -66 -27.5s-24 -42.166 -24 -71.499c0 -30 8.33301 -54.167 25 -72.5
s38.334 -27.5 65.001 -27.5c20 0 36.667 5.5 50 16.5s22.333 23.5 27 37.5l88 -43c-10 -29.333 -29.5 -53.666 -58.5 -72.999s-64.5 -29 -106.5 -29z" />
    <glyph glyph-name="ordfeminine" unicode="&#xaa;" horiz-adv-x="395" 
d="M159 359c-40.667 0 -73.999 10.3311 -99.999 30.998s-39 47.667 -39 81c0 26.667 10 49.167 30 67.5s50 31.5 90 39.5l115 24v12c0 13.333 -4.83301 23.833 -14.5 31.5s-22.5 11.5 -38.5 11.5c-16.667 0 -31.834 -4.66699 -45.501 -14s-23.167 -22.666 -28.5 -39.999
l-94 45c11.333 32 32 57.333 62 76s65.333 28 106 28c48.667 0 88 -12.667 118 -38s45 -58.666 45 -99.999v-247h-102v32c-14 -14 -29.5 -24.167 -46.5 -30.5s-36.167 -9.5 -57.5 -9.5zM134.001 470.998c0 -22 14.667 -33 44 -33c21.333 0 39.5 7 54.5 21
s22.5 30.333 22.5 49v15l-96 -21c-6.66699 -1.33301 -12.5 -4.5 -17.5 -9.5s-7.5 -12.167 -7.5 -21.5z" />
    <glyph glyph-name="guillemotleft" unicode="&#xab;" horiz-adv-x="687" 
d="M179 69l-154 200l154 200h163l-152 -200l152 -200h-163zM479 69l-154 200l154 200h163l-152 -200l152 -200h-163z" />
    <glyph glyph-name="logicalnot" unicode="&#xac;" horiz-adv-x="620" 
d="M415 150v143h-335v125h460v-268h-125z" />
    <glyph glyph-name="uni00AD" unicode="&#xad;" horiz-adv-x="560" 
d="M55 204v130h450v-130h-450z" />
    <glyph glyph-name="registered" unicode="&#xae;" horiz-adv-x="930" 
d="M466 -12c-53.333 0 -103.334 9.99902 -150.001 29.999s-87.667 47.667 -123 83s-63 76.333 -83 123s-30 96.667 -30 150s9.83301 103 29.5 149s47.167 86.667 82.5 122s76.333 62.833 123 82.5s97 29.5 151 29.5c52.667 0 102.167 -9.83301 148.5 -29.5
s87.166 -47 122.499 -82s63 -75.667 83 -122s30 -96.166 30 -149.499s-9.83301 -103.333 -29.5 -150s-47.167 -87.667 -82.5 -123s-76.166 -63 -122.499 -83s-96.166 -30 -149.499 -30zM465.999 87.999c39.333 0 76.167 7.33301 110.5 22s64.5 35 90.5 61
s46.333 56.333 61 91s22 72 22 112c0 39.333 -7.33301 76.166 -22 110.499s-35.167 64.5 -61.5 90.5s-56.5 46.333 -90.5 61s-70.667 22 -110 22c-40 0 -77.333 -7.33301 -112 -22s-65 -35 -91 -61s-46.333 -56.167 -61 -90.5s-22 -71.166 -22 -110.499
c0 -40 7.33301 -77.333 22 -112s35 -65 61 -91s56.333 -46.333 91 -61s72 -22 112 -22zM317 198.999l-0.000976562 369h168c38.667 0 70.667 -9.83301 96 -29.5s38 -50.167 38 -91.5c0 -24.667 -5.16699 -45.5 -15.5 -62.5s-24.166 -30.167 -41.499 -39.5l84 -146h-112
l-71 128h-46v-128h-100zM416.999 413.999h69c10 0 18.167 3 24.5 9s9.5 14 9.5 24s-3.16699 18.167 -9.5 24.5s-14.5 9.5 -24.5 9.5h-69v-67z" />
    <glyph glyph-name="macron" unicode="&#xaf;" horiz-adv-x="316" 
d="M20 640v97h276v-97h-276z" />
    <glyph glyph-name="degree" unicode="&#xb0;" horiz-adv-x="500" 
d="M250 417c-31.333 0 -59.833 7.66699 -85.5 23s-46.167 35.833 -61.5 61.5s-23 54.167 -23 85.5s7.66699 59.833 23 85.5s35.833 46.167 61.5 61.5s54.167 23 85.5 23s59.833 -7.66699 85.5 -23s46.167 -35.833 61.5 -61.5s23 -54.167 23 -85.5
s-7.66699 -59.833 -23 -85.5s-35.833 -46.167 -61.5 -61.5s-54.167 -23 -85.5 -23zM250 517c19.333 0 35.833 6.83301 49.5 20.5s20.5 30.167 20.5 49.5s-6.83301 35.833 -20.5 49.5s-30.167 20.5 -49.5 20.5s-35.833 -6.83301 -49.5 -20.5s-20.5 -30.167 -20.5 -49.5
s6.83301 -35.833 20.5 -49.5s30.167 -20.5 49.5 -20.5z" />
    <glyph glyph-name="plusminus" unicode="&#xb1;" horiz-adv-x="610" 
d="M243 190v168h-168v125h168v167h125v-167h167v-125h-167v-168h-125zM75 0v120h460v-120h-460z" />
    <glyph glyph-name="uni00B2" unicode="&#xb2;" horiz-adv-x="375" 
d="M26 298l-1.00098 90.001l118 120c29.333 30 49.666 52 60.999 66s17 26.333 17 37c0 11.333 -4 20.833 -12 28.5s-18.333 11.5 -31 11.5s-24.667 -4.33301 -36 -13s-19.666 -20.334 -24.999 -35.001l-87 52c10 30.667 29.333 54.5 58 71.5s61.667 25.5 99 25.5
c43.333 0 78.333 -11.333 105 -34s40 -53 40 -91c0 -24 -6.16699 -46.333 -18.5 -67s-30.166 -43 -53.499 -67l-100 -102h175v-93h-309z" />
    <glyph glyph-name="uni00B3" unicode="&#xb3;" horiz-adv-x="390" 
d="M179 291c-36 0 -67.833 8.83301 -95.5 26.5s-47.167 41.167 -58.5 70.5l88 52c11.333 -32 33.333 -48 66 -48c18.667 0 33.334 5 44.001 15s16 23.333 16 40c0 34.667 -20 52 -60 52c-20.667 0 -40 -5 -58 -15l-29 53l116 115h-163v93h287v-84l-79 -86
c29.333 -6 52.833 -19.5 70.5 -40.5s26.5 -48.5 26.5 -82.5c0 -30.667 -7.5 -58.167 -22.5 -82.5s-35.333 -43.5 -61 -57.5s-54.834 -21 -87.501 -21z" />
    <glyph glyph-name="acute" unicode="&#xb4;" horiz-adv-x="239" 
d="M20 640l66 162h133l-96 -162h-103z" />
    <glyph glyph-name="uni00B5" unicode="&#xb5;" horiz-adv-x="581" 
d="M40 -200l-0.00195312 738h146v-332c0 -29.333 7.33301 -50.5 22 -63.5s34.334 -19.5 59.001 -19.5c22 0 42.667 2.5 62 7.5s38 12.833 56 23.5v384h146v-538h-146v25c-20 -11.333 -41.667 -20.333 -65 -27s-47.666 -10 -72.999 -10c-8.66699 0 -18.5 0.333008 -29.5 1
l-31.5 2v-191h-146z" />
    <glyph glyph-name="paragraph" unicode="&#xb6;" horiz-adv-x="468" 
d="M25 508c0 47.333 10.167 88.833 30.5 124.5s48.666 63.334 84.999 83.001s78.5 29.5 126.5 29.5h156v-845h-156v372c-48 0 -90.167 9.83301 -126.5 29.5s-64.666 47.167 -84.999 82.5s-30.5 76.666 -30.5 123.999z" />
    <glyph glyph-name="periodcentered" unicode="&#xb7;" horiz-adv-x="280" 
d="M65 280v150h150v-150h-150z" />
    <glyph glyph-name="cedilla" unicode="&#xb8;" horiz-adv-x="308" 
d="M154 -210c-17.333 0 -37.8311 2.99902 -61.498 8.99902s-47.834 19 -72.501 39l39 67c9.33301 -8.66699 21.5 -16.167 36.5 -22.5s30.833 -9.5 47.5 -9.5c15.333 0 28.166 4 38.499 12s15.5 19.667 15.5 35s-7.83301 30.5 -23.5 45.5s-44.167 27.5 -85.5 37.5l50 26
c50 -8 87.5 -23.667 112.5 -47s37.5 -51.666 37.5 -84.999c0 -25.333 -6.5 -45.833 -19.5 -61.5s-29.833 -27.167 -50.5 -34.5s-42 -11 -64 -11z" />
    <glyph glyph-name="uni00B9" unicode="&#xb9;" horiz-adv-x="341" 
d="M104 298v353h-84v93l196 1v-447h-112z" />
    <glyph glyph-name="ordmasculine" unicode="&#xba;" horiz-adv-x="445" 
d="M222 359c-37.333 0 -71.333 8.5 -102 25.5s-55 40.333 -73 70s-27 63.5 -27 101.5s9 71.667 27 101s42.333 52.5 73 69.5s64.667 25.5 102 25.5c38 0 72.333 -8.5 103 -25.5s55 -40.167 73 -69.5s27 -63 27 -101c0 -38.667 -9.16699 -72.667 -27.5 -102
s-42.833 -52.5 -73.5 -69.5s-64.667 -25.5 -102 -25.5zM222 457c27.333 0 49 9.16699 65 27.5s24 41.833 24 70.5c0 29.333 -8 53 -24 71s-37.667 27 -65 27c-26.667 0 -48 -9.16699 -64 -27.5s-24 -41.833 -24 -70.5s8 -52.167 24 -70.5s37.333 -27.5 64 -27.5z" />
    <glyph glyph-name="guillemotright" unicode="&#xbb;" horiz-adv-x="687" 
d="M345 69l152 200l-152 200h163l154 -200l-154 -200h-163zM45 69l152 200l-152 200h163l154 -200l-154 -200h-163z" />
    <glyph glyph-name="onequarter" unicode="&#xbc;" horiz-adv-x="980" 
d="M104 298v353h-84v93l196 1v-447h-112zM221 0l330 745h112l-330 -745h-112zM960 186v-94h-81v-92h-114v92h-192v94l183 261h123v-261h81zM680 186h85v128z" />
    <glyph glyph-name="onehalf" unicode="&#xbd;" horiz-adv-x="918" 
d="M104 298v353h-84v93l196 1v-447h-112zM221 0l330 745h112l-330 -745h-112zM569 0l-1.00098 90.001l118 120c29.333 30 49.666 52 60.999 66s17 26.333 17 37c0 11.333 -4 20.833 -12 28.5s-18.333 11.5 -31 11.5s-24.667 -4.33301 -36 -13
s-19.666 -20.334 -24.999 -35.001l-87 52c10 30.667 29.333 54.5 58 71.5s61.667 25.5 99 25.5c43.333 0 78.333 -11.333 105 -34s40 -53 40 -91c0 -24 -6.16699 -46.333 -18.5 -67s-30.166 -43 -53.499 -67l-100 -102h175v-93h-309z" />
    <glyph glyph-name="threequarters" unicode="&#xbe;" horiz-adv-x="1029" 
d="M179 291c-36 0 -67.833 8.83301 -95.5 26.5s-47.167 41.167 -58.5 70.5l88 52c11.333 -32 33.333 -48 66 -48c18.667 0 33.334 5 44.001 15s16 23.333 16 40c0 34.667 -20 52 -60 52c-20.667 0 -40 -5 -58 -15l-29 53l116 115h-163v93h287v-84l-79 -86
c29.333 -6 52.833 -19.5 70.5 -40.5s26.5 -48.5 26.5 -82.5c0 -30.667 -7.5 -58.167 -22.5 -82.5s-35.333 -43.5 -61 -57.5s-54.834 -21 -87.501 -21zM270 0l330 745h112l-330 -745h-112zM1009 186v-94h-81v-92h-114v92h-192v94l183 261h123v-261h81zM729 186h85v128z" />
    <glyph glyph-name="questiondown" unicode="&#xbf;" horiz-adv-x="555" 
d="M355 757v-150h-150v150h150zM351 527l-0.00195312 -22.999c0 -44 -9 -80.333 -27 -109s-37.667 -53.667 -59 -75l-51.5 -54.5c-15.667 -17 -23.5 -36.167 -23.5 -57.5c0 -20.667 8.33301 -37.167 25 -49.5s39.334 -18.5 68.001 -18.5c62 0 103.667 31 125 93l122 -70
c-10.667 -32.667 -28.167 -61.167 -52.5 -85.5s-53.166 -43.333 -86.499 -57s-69.333 -20.5 -108 -20.5c-52 0 -96.5 10.167 -133.5 30.5s-65.333 46.5 -85 78.5s-29.5 65.333 -29.5 100c0 25.333 4.83301 47.833 14.5 67.5s22 37.667 37 54l45.5 47.5
c20.667 19.333 39 39.666 55 60.999s24 46.333 24 75v13h140z" />
    <glyph glyph-name="Agrave" unicode="&#xc0;" horiz-adv-x="723" 
d="M5 0l254 745h205l254 -745h-164l-50 152h-285l-50 -152h-164zM263 287h197l-98 302zM418 847h-103l-96 162h134z" />
    <glyph glyph-name="Aacute" unicode="&#xc1;" horiz-adv-x="723" 
d="M5 0l254 745h205l254 -745h-164l-50 152h-285l-50 -152h-164zM263 287h197l-98 302zM309 847l66 162h133l-96 -162h-103z" />
    <glyph glyph-name="Acircumflex" unicode="&#xc2;" horiz-adv-x="723" 
d="M5 0l254 745h205l254 -745h-164l-50 152h-285l-50 -152h-164zM263 287h197l-98 302zM300 1007h123l121 -160h-110l-72 101l-70 -101h-112z" />
    <glyph glyph-name="Atilde" unicode="&#xc3;" horiz-adv-x="723" 
d="M5 0l254 745h205l254 -745h-164l-50 152h-285l-50 -152h-164zM263 287h197l-98 302zM433 847c-22.667 0 -42.333 3.83301 -59 11.5s-31.667 15.334 -45 23.001s-26.666 11.5 -39.999 11.5c-8.66699 0 -15.834 -2.66699 -21.501 -8s-9.5 -15.333 -11.5 -30h-101
c3.33301 36 12.666 63.667 27.999 83s32.833 32.666 52.5 39.999s37.167 11 52.5 11c20 0 38.333 -3.83301 55 -11.5l47 -22.5c14.667 -7.33301 28.334 -11 41.001 -11c9.33301 0 17.333 2.83301 24 8.5s10.334 15.167 11.001 28.5h101
c-4.66699 -44 -19.334 -77.333 -44.001 -100s-54.667 -34 -90 -34z" />
    <glyph glyph-name="Adieresis" unicode="&#xc4;" horiz-adv-x="723" 
d="M5 0l254 745h205l254 -745h-164l-50 152h-285l-50 -152h-164zM263 287h197l-98 302zM255 847c-22 0 -40.667 7.66797 -56 23.001s-23 33.666 -23 54.999s7.66699 39.666 23 54.999s34 23 56 23c21.333 0 39.5 -7.66699 54.5 -23s22.5 -33.666 22.5 -54.999
c0 -22 -7.5 -40.5 -22.5 -55.5s-33.167 -22.5 -54.5 -22.5zM470 847.001c-22 0 -40.5 7.66699 -55.5 23s-22.5 33.666 -22.5 54.999c0 22 7.66699 40.5 23 55.5s33.666 22.5 54.999 22.5c22 0 40.5 -7.66699 55.5 -23s22.5 -33.666 22.5 -54.999
c0 -22 -7.66699 -40.5 -23 -55.5s-33.666 -22.5 -54.999 -22.5z" />
    <glyph glyph-name="Aring" unicode="&#xc5;" horiz-adv-x="723" 
d="M5 0l254 745h205l254 -745h-164l-50 152h-285l-50 -152h-164zM263 287h197l-98 302zM362 847c-23.333 0 -44.0029 5.16699 -62.0029 15.5s-32.167 24 -42.5 41s-15.5 35.167 -15.5 54.5c0 31.333 11.333 58 34 80s51.334 33 86.001 33c35.333 0 64.333 -11 87 -33
s34 -48.667 34 -80c0 -19.333 -5.16699 -37.5 -15.5 -54.5s-24.666 -30.667 -42.999 -41s-39.166 -15.5 -62.499 -15.5zM361.997 921c12 0 21.833 3.83301 29.5 11.5s11.5 16.5 11.5 26.5c0 10.667 -3.83301 19.667 -11.5 27s-17.5 11 -29.5 11
c-11.333 0 -20.833 -3.66699 -28.5 -11s-11.5 -16.333 -11.5 -27c0 -10 3.83301 -18.833 11.5 -26.5s17.167 -11.5 28.5 -11.5z" />
    <glyph glyph-name="AE" unicode="&#xc6;" horiz-adv-x="1014" 
d="M5 0l254 745h715v-135h-346v-169h326v-135h-326v-171h346l-1 -135h-500v152h-254l-50 -152h-164zM263 287h210v323h-104z" />
    <glyph glyph-name="Ccedilla" unicode="&#xc7;" horiz-adv-x="760" 
d="M411 -12c-53.333 0 -102.833 9.66797 -148.5 29.001s-85.5 46.333 -119.5 81s-60.5 75.334 -79.5 122.001s-28.5 97.667 -28.5 153s9.33301 106.5 28 153.5s45 87.667 79 122s73.833 61 119.5 80s95.5 28.5 149.5 28.5s102.5 -9 145.5 -27s79.5 -42 109.5 -72
s51.333 -63.333 64 -100l-137 -66c-12.667 36 -34.834 65.833 -66.501 89.5s-70.167 35.5 -115.5 35.5c-44 0 -82.667 -10.333 -116 -31s-59.166 -49.167 -77.499 -85.5s-27.5 -78.833 -27.5 -127.5s9.16699 -91.334 27.5 -128.001s44.166 -65.334 77.499 -86.001
s72 -31 116 -31c45.333 0 83.833 11.833 115.5 35.5s53.834 53.5 66.501 89.5l137 -66c-12.667 -36.667 -34 -70 -64 -100s-66.5 -54 -109.5 -72s-91.5 -27 -145.5 -27zM426 -209.999c-17.333 0 -37.8311 2.99902 -61.498 8.99902s-47.834 19 -72.501 39l39 67
c9.33301 -8.66699 21.5 -16.167 36.5 -22.5s30.833 -9.5 47.5 -9.5c15.333 0 28.166 4 38.499 12s15.5 19.667 15.5 35s-7.83301 30.5 -23.5 45.5s-44.167 27.5 -85.5 37.5l50 26c50 -8 87.5 -23.667 112.5 -47s37.5 -51.666 37.5 -84.999
c0 -25.333 -6.5 -45.833 -19.5 -61.5s-29.833 -27.167 -50.5 -34.5s-42 -11 -64 -11z" />
    <glyph glyph-name="Egrave" unicode="&#xc8;" horiz-adv-x="601" 
d="M60 0v745h501v-135h-346v-169h326v-135h-326v-171h346l-1 -135h-500zM357 847h-103l-96 162h134z" />
    <glyph glyph-name="Eacute" unicode="&#xc9;" horiz-adv-x="601" 
d="M60 0v745h501v-135h-346v-169h326v-135h-326v-171h346l-1 -135h-500zM248 847l66 162h133l-96 -162h-103z" />
    <glyph glyph-name="Ecircumflex" unicode="&#xca;" horiz-adv-x="601" 
d="M60 0v745h501v-135h-346v-169h326v-135h-326v-171h346l-1 -135h-500zM239 1007h123l121 -160h-110l-72 101l-70 -101h-112z" />
    <glyph glyph-name="Edieresis" unicode="&#xcb;" horiz-adv-x="601" 
d="M60 0v745h501v-135h-346v-169h326v-135h-326v-171h346l-1 -135h-500zM194 847c-22 0 -40.667 7.66797 -56 23.001s-23 33.666 -23 54.999s7.66699 39.666 23 54.999s34 23 56 23c21.333 0 39.5 -7.66699 54.5 -23s22.5 -33.666 22.5 -54.999
c0 -22 -7.5 -40.5 -22.5 -55.5s-33.167 -22.5 -54.5 -22.5zM409 847.001c-22 0 -40.5 7.66699 -55.5 23s-22.5 33.666 -22.5 54.999c0 22 7.66699 40.5 23 55.5s33.666 22.5 54.999 22.5c22 0 40.5 -7.66699 55.5 -23s22.5 -33.666 22.5 -54.999
c0 -22 -7.66699 -40.5 -23 -55.5s-33.666 -22.5 -54.999 -22.5z" />
    <glyph glyph-name="Igrave" unicode="&#xcc;" horiz-adv-x="275" 
d="M60 0v745h155v-745h-155zM194 847h-103l-96 162h134z" />
    <glyph glyph-name="Iacute" unicode="&#xcd;" horiz-adv-x="275" 
d="M60 0v745h155v-745h-155zM85 847l66 162h133l-96 -162h-103z" />
    <glyph glyph-name="Icircumflex" unicode="&#xce;" horiz-adv-x="275" 
d="M60 0v745h155v-745h-155zM76 1007h123l121 -160h-110l-72 101l-70 -101h-112z" />
    <glyph glyph-name="Idieresis" unicode="&#xcf;" horiz-adv-x="275" 
d="M60 0v745h155v-745h-155zM31 847c-22 0 -40.667 7.66797 -56 23.001s-23 33.666 -23 54.999s7.66699 39.666 23 54.999s34 23 56 23c21.333 0 39.5 -7.66699 54.5 -23s22.5 -33.666 22.5 -54.999c0 -22 -7.5 -40.5 -22.5 -55.5s-33.167 -22.5 -54.5 -22.5zM246 847.001
c-22 0 -40.5 7.66699 -55.5 23s-22.5 33.666 -22.5 54.999c0 22 7.66699 40.5 23 55.5s33.666 22.5 54.999 22.5c22 0 40.5 -7.66699 55.5 -23s22.5 -33.666 22.5 -54.999c0 -22 -7.66699 -40.5 -23 -55.5s-33.666 -22.5 -54.999 -22.5z" />
    <glyph glyph-name="Eth" unicode="&#xd0;" horiz-adv-x="735" 
d="M60 0v308h-113v130h113v307h243c80.667 0 150.667 -16 210 -48s105.333 -76 138 -132s49 -120 49 -192s-16.333 -136.167 -49 -192.5s-78.667 -100.5 -138 -132.5s-129.333 -48 -210 -48h-243zM215 135h92c48.667 0 90.667 9.83301 126 29.5s62.833 47.334 82.5 83.001
s29.5 77.5 29.5 125.5c0 48.667 -9.83301 90.667 -29.5 126s-47.167 62.666 -82.5 81.999s-77.333 29 -126 29h-92v-172h180v-130h-180v-173z" />
    <glyph glyph-name="Ntilde" unicode="&#xd1;" horiz-adv-x="730" 
d="M515 745h155v-745h-120l-335 451v-451h-155v745h119l336 -448v448zM436 847c-22.667 0 -42.333 3.83301 -59 11.5s-31.667 15.334 -45 23.001s-26.666 11.5 -39.999 11.5c-8.66699 0 -15.834 -2.66699 -21.501 -8s-9.5 -15.333 -11.5 -30h-101
c3.33301 36 12.666 63.667 27.999 83s32.833 32.666 52.5 39.999s37.167 11 52.5 11c20 0 38.333 -3.83301 55 -11.5l47 -22.5c14.667 -7.33301 28.334 -11 41.001 -11c9.33301 0 17.333 2.83301 24 8.5s10.334 15.167 11.001 28.5h101
c-4.66699 -44 -19.334 -77.333 -44.001 -100s-54.667 -34 -90 -34z" />
    <glyph glyph-name="Ograve" unicode="&#xd2;" horiz-adv-x="860" 
d="M430 -12c-56 0 -108.002 9.66699 -156.002 29s-89.833 46.5 -125.5 81.5s-63.5 75.833 -83.5 122.5s-30 97.334 -30 152.001s9.83301 105.334 29.5 152.001s47.334 87.334 83.001 122.001s77.5 61.667 125.5 81s100.333 29 157 29s109 -9.66699 157 -29
s89.833 -46.333 125.5 -81s63.334 -75.334 83.001 -122.001s29.5 -97.334 29.5 -152.001s-10 -105.334 -30 -152.001s-47.833 -87.5 -83.5 -122.5s-77.5 -62.167 -125.5 -81.5s-100 -29 -156 -29zM429.998 128c45.333 0 86.166 10.5 122.499 31.5s65 49.833 86 86.5
s31.5 79 31.5 127s-10.5 90.333 -31.5 127s-49.667 65.334 -86 86.001s-77.166 31 -122.499 31s-86.166 -10.333 -122.499 -31s-65 -49.334 -86 -86.001s-31.5 -79 -31.5 -127s10.5 -90.333 31.5 -127s49.667 -65.5 86 -86.5s77.166 -31.5 122.499 -31.5zM485.998 847h-103
l-96 162h134z" />
    <glyph glyph-name="Oacute" unicode="&#xd3;" horiz-adv-x="860" 
d="M430 -12c-56 0 -108.002 9.66699 -156.002 29s-89.833 46.5 -125.5 81.5s-63.5 75.833 -83.5 122.5s-30 97.334 -30 152.001s9.83301 105.334 29.5 152.001s47.334 87.334 83.001 122.001s77.5 61.667 125.5 81s100.333 29 157 29s109 -9.66699 157 -29
s89.833 -46.333 125.5 -81s63.334 -75.334 83.001 -122.001s29.5 -97.334 29.5 -152.001s-10 -105.334 -30 -152.001s-47.833 -87.5 -83.5 -122.5s-77.5 -62.167 -125.5 -81.5s-100 -29 -156 -29zM429.998 128c45.333 0 86.166 10.5 122.499 31.5s65 49.833 86 86.5
s31.5 79 31.5 127s-10.5 90.333 -31.5 127s-49.667 65.334 -86 86.001s-77.166 31 -122.499 31s-86.166 -10.333 -122.499 -31s-65 -49.334 -86 -86.001s-31.5 -79 -31.5 -127s10.5 -90.333 31.5 -127s49.667 -65.5 86 -86.5s77.166 -31.5 122.499 -31.5zM376.998 847
l66 162h133l-96 -162h-103z" />
    <glyph glyph-name="Ocircumflex" unicode="&#xd4;" horiz-adv-x="860" 
d="M430 -12c-56 0 -108.002 9.66699 -156.002 29s-89.833 46.5 -125.5 81.5s-63.5 75.833 -83.5 122.5s-30 97.334 -30 152.001s9.83301 105.334 29.5 152.001s47.334 87.334 83.001 122.001s77.5 61.667 125.5 81s100.333 29 157 29s109 -9.66699 157 -29
s89.833 -46.333 125.5 -81s63.334 -75.334 83.001 -122.001s29.5 -97.334 29.5 -152.001s-10 -105.334 -30 -152.001s-47.833 -87.5 -83.5 -122.5s-77.5 -62.167 -125.5 -81.5s-100 -29 -156 -29zM429.998 128c45.333 0 86.166 10.5 122.499 31.5s65 49.833 86 86.5
s31.5 79 31.5 127s-10.5 90.333 -31.5 127s-49.667 65.334 -86 86.001s-77.166 31 -122.499 31s-86.166 -10.333 -122.499 -31s-65 -49.334 -86 -86.001s-31.5 -79 -31.5 -127s10.5 -90.333 31.5 -127s49.667 -65.5 86 -86.5s77.166 -31.5 122.499 -31.5zM367.998 1007h123
l121 -160h-110l-72 101l-70 -101h-112z" />
    <glyph glyph-name="Otilde" unicode="&#xd5;" horiz-adv-x="860" 
d="M430 -12c-56 0 -108.002 9.66699 -156.002 29s-89.833 46.5 -125.5 81.5s-63.5 75.833 -83.5 122.5s-30 97.334 -30 152.001s9.83301 105.334 29.5 152.001s47.334 87.334 83.001 122.001s77.5 61.667 125.5 81s100.333 29 157 29s109 -9.66699 157 -29
s89.833 -46.333 125.5 -81s63.334 -75.334 83.001 -122.001s29.5 -97.334 29.5 -152.001s-10 -105.334 -30 -152.001s-47.833 -87.5 -83.5 -122.5s-77.5 -62.167 -125.5 -81.5s-100 -29 -156 -29zM429.998 128c45.333 0 86.166 10.5 122.499 31.5s65 49.833 86 86.5
s31.5 79 31.5 127s-10.5 90.333 -31.5 127s-49.667 65.334 -86 86.001s-77.166 31 -122.499 31s-86.166 -10.333 -122.499 -31s-65 -49.334 -86 -86.001s-31.5 -79 -31.5 -127s10.5 -90.333 31.5 -127s49.667 -65.5 86 -86.5s77.166 -31.5 122.499 -31.5zM500.998 847
c-22.667 0 -42.333 3.83301 -59 11.5s-31.667 15.334 -45 23.001s-26.666 11.5 -39.999 11.5c-8.66699 0 -15.834 -2.66699 -21.501 -8s-9.5 -15.333 -11.5 -30h-101c3.33301 36 12.666 63.667 27.999 83s32.833 32.666 52.5 39.999s37.167 11 52.5 11
c20 0 38.333 -3.83301 55 -11.5l47 -22.5c14.667 -7.33301 28.334 -11 41.001 -11c9.33301 0 17.333 2.83301 24 8.5s10.334 15.167 11.001 28.5h101c-4.66699 -44 -19.334 -77.333 -44.001 -100s-54.667 -34 -90 -34z" />
    <glyph glyph-name="Odieresis" unicode="&#xd6;" horiz-adv-x="860" 
d="M430 -12c-56 0 -108.002 9.66699 -156.002 29s-89.833 46.5 -125.5 81.5s-63.5 75.833 -83.5 122.5s-30 97.334 -30 152.001s9.83301 105.334 29.5 152.001s47.334 87.334 83.001 122.001s77.5 61.667 125.5 81s100.333 29 157 29s109 -9.66699 157 -29
s89.833 -46.333 125.5 -81s63.334 -75.334 83.001 -122.001s29.5 -97.334 29.5 -152.001s-10 -105.334 -30 -152.001s-47.833 -87.5 -83.5 -122.5s-77.5 -62.167 -125.5 -81.5s-100 -29 -156 -29zM429.998 128c45.333 0 86.166 10.5 122.499 31.5s65 49.833 86 86.5
s31.5 79 31.5 127s-10.5 90.333 -31.5 127s-49.667 65.334 -86 86.001s-77.166 31 -122.499 31s-86.166 -10.333 -122.499 -31s-65 -49.334 -86 -86.001s-31.5 -79 -31.5 -127s10.5 -90.333 31.5 -127s49.667 -65.5 86 -86.5s77.166 -31.5 122.499 -31.5zM322.998 847
c-22 0 -40.667 7.66797 -56 23.001s-23 33.666 -23 54.999s7.66699 39.666 23 54.999s34 23 56 23c21.333 0 39.5 -7.66699 54.5 -23s22.5 -33.666 22.5 -54.999c0 -22 -7.5 -40.5 -22.5 -55.5s-33.167 -22.5 -54.5 -22.5zM537.998 847.001c-22 0 -40.5 7.66699 -55.5 23
s-22.5 33.666 -22.5 54.999c0 22 7.66699 40.5 23 55.5s33.666 22.5 54.999 22.5c22 0 40.5 -7.66699 55.5 -23s22.5 -33.666 22.5 -54.999c0 -22 -7.66699 -40.5 -23 -55.5s-33.666 -22.5 -54.999 -22.5z" />
    <glyph glyph-name="multiply" unicode="&#xd7;" horiz-adv-x="606" 
d="M163 127l-88 89l140 140l-140 139l89 88l139 -139l139 139l89 -88l-140 -139l140 -140l-88 -89l-140 140z" />
    <glyph glyph-name="Oslash" unicode="&#xd8;" horiz-adv-x="860" 
d="M430 -12c-56 0 -108.002 9.66699 -156.002 29s-89.833 46.5 -125.5 81.5s-63.5 75.833 -83.5 122.5s-30 97.334 -30 152.001s9.83301 105.334 29.5 152.001s47.334 87.334 83.001 122.001s77.5 61.667 125.5 81s100.333 29 157 29s109 -9.66699 157 -29
s89.833 -46.333 125.5 -81s63.334 -75.334 83.001 -122.001s29.5 -97.334 29.5 -152.001s-10 -105.334 -30 -152.001s-47.833 -87.5 -83.5 -122.5s-77.5 -62.167 -125.5 -81.5s-100 -29 -156 -29zM429.998 128c45.333 0 86.166 10.5 122.499 31.5s65 49.833 86 86.5
s31.5 79 31.5 127s-10.5 90.333 -31.5 127s-49.667 65.334 -86 86.001s-77.166 31 -122.499 31s-86.166 -10.333 -122.499 -31s-65 -49.334 -86 -86.001s-31.5 -79 -31.5 -127s10.5 -90.333 31.5 -127s49.667 -65.5 86 -86.5s77.166 -31.5 122.499 -31.5zM731.998 767
l92 -92l-696 -697l-92 92z" />
    <glyph glyph-name="Ugrave" unicode="&#xd9;" horiz-adv-x="730" 
d="M515 745h155v-462c0 -55.333 -12.667 -105.333 -38 -150s-60.833 -80 -106.5 -106s-99.167 -39 -160.5 -39c-60.667 0 -114 13 -160 39s-81.667 61.333 -107 106s-38 94.667 -38 150v462h155v-462c0 -46.667 13.833 -84.167 41.5 -112.5s63.834 -42.5 108.501 -42.5
c45.333 0 81.666 14.167 108.999 42.5s41 65.833 41 112.5v462zM421 847h-103l-96 162h134z" />
    <glyph glyph-name="Uacute" unicode="&#xda;" horiz-adv-x="730" 
d="M515 745h155v-462c0 -55.333 -12.667 -105.333 -38 -150s-60.833 -80 -106.5 -106s-99.167 -39 -160.5 -39c-60.667 0 -114 13 -160 39s-81.667 61.333 -107 106s-38 94.667 -38 150v462h155v-462c0 -46.667 13.833 -84.167 41.5 -112.5s63.834 -42.5 108.501 -42.5
c45.333 0 81.666 14.167 108.999 42.5s41 65.833 41 112.5v462zM312 847l66 162h133l-96 -162h-103z" />
    <glyph glyph-name="Ucircumflex" unicode="&#xdb;" horiz-adv-x="730" 
d="M515 745h155v-462c0 -55.333 -12.667 -105.333 -38 -150s-60.833 -80 -106.5 -106s-99.167 -39 -160.5 -39c-60.667 0 -114 13 -160 39s-81.667 61.333 -107 106s-38 94.667 -38 150v462h155v-462c0 -46.667 13.833 -84.167 41.5 -112.5s63.834 -42.5 108.501 -42.5
c45.333 0 81.666 14.167 108.999 42.5s41 65.833 41 112.5v462zM303 1007h123l121 -160h-110l-72 101l-70 -101h-112z" />
    <glyph glyph-name="Udieresis" unicode="&#xdc;" horiz-adv-x="730" 
d="M515 745h155v-462c0 -55.333 -12.667 -105.333 -38 -150s-60.833 -80 -106.5 -106s-99.167 -39 -160.5 -39c-60.667 0 -114 13 -160 39s-81.667 61.333 -107 106s-38 94.667 -38 150v462h155v-462c0 -46.667 13.833 -84.167 41.5 -112.5s63.834 -42.5 108.501 -42.5
c45.333 0 81.666 14.167 108.999 42.5s41 65.833 41 112.5v462zM258 847c-22 0 -40.667 7.66797 -56 23.001s-23 33.666 -23 54.999s7.66699 39.666 23 54.999s34 23 56 23c21.333 0 39.5 -7.66699 54.5 -23s22.5 -33.666 22.5 -54.999c0 -22 -7.5 -40.5 -22.5 -55.5
s-33.167 -22.5 -54.5 -22.5zM473 847.001c-22 0 -40.5 7.66699 -55.5 23s-22.5 33.666 -22.5 54.999c0 22 7.66699 40.5 23 55.5s33.666 22.5 54.999 22.5c22 0 40.5 -7.66699 55.5 -23s22.5 -33.666 22.5 -54.999c0 -22 -7.66699 -40.5 -23 -55.5
s-33.666 -22.5 -54.999 -22.5z" />
    <glyph glyph-name="Yacute" unicode="&#xdd;" horiz-adv-x="661" 
d="M254 0v325l-249 420h174l152 -265l151 265h174l-247 -419v-326h-155zM278 847l66 162h133l-96 -162h-103z" />
    <glyph glyph-name="Thorn" unicode="&#xde;" horiz-adv-x="655" 
d="M60 0v744.999h155v-130h151c51.333 0 96.833 -9 136.5 -27s70.834 -44.667 93.501 -80s34 -79 34 -131c0 -50.667 -11.5 -93.667 -34.5 -129s-54.333 -62.166 -94 -80.499s-84.834 -27.5 -135.501 -27.5h-151v-140h-155zM215 274.999l152 -0.000976562
c32.667 0 58.834 9.33301 78.501 28s29.5 43.334 29.5 74.001c0 31.333 -9.83301 56.333 -29.5 75s-45.834 28 -78.501 28h-152v-205z" />
    <glyph glyph-name="germandbls" unicode="&#xdf;" horiz-adv-x="643" 
d="M60 -160v659.998c0 49.333 11.333 92.333 34 129s54.334 65.167 95.001 85.5s88 30.5 142 30.5c50.667 0 94.834 -9 132.501 -27s66.834 -43.333 87.501 -76s31 -71 31 -115c0 -22.667 -4.16699 -44.667 -12.5 -66s-21.833 -41 -40.5 -59
c33.333 -22.667 55.666 -48.5 66.999 -77.5s17 -59.833 17 -92.5c0 -73.333 -24.333 -130.333 -73 -171s-116.334 -61 -203.001 -61h-42v135h60c31.333 0 56.333 9 75 27s28 41.333 28 70c0 29.333 -9.33301 53 -28 71s-43.667 27 -75 27h-60v135h53
c24 0 43.167 6.83301 57.5 20.5s21.5 31.834 21.5 54.501s-8.83301 40.834 -26.5 54.501s-40.834 20.5 -69.501 20.5c-35.333 0 -63.5 -10.5 -84.5 -31.5s-31.5 -48.833 -31.5 -83.5v-660h-155z" />
    <glyph glyph-name="agrave" unicode="&#xe0;" horiz-adv-x="546" 
d="M222 -12c-41.333 0 -77.1689 7.16992 -107.502 21.5029s-53.666 33.666 -69.999 57.999s-24.5 51.5 -24.5 81.5c0 40.667 15.333 74.167 46 100.5s73.667 45.166 129 56.499l171 36v18c0 20.667 -7.66699 37.167 -23 49.5s-35.666 18.5 -60.999 18.5
c-26.667 0 -50.167 -7.16699 -70.5 -21.5s-34.5 -33.833 -42.5 -58.5l-129 62c16 45.333 45.833 81.333 89.5 108s94.5 40 152.5 40c46.667 0 87.5 -8.33301 122.5 -25s62.333 -39.834 82 -69.501s29.5 -64.167 29.5 -103.5v-360h-140v50
c-20.667 -22 -43.5 -37.833 -68.5 -47.5s-53.5 -14.5 -85.5 -14.5zM174.997 151.003c0 -16.667 6.33301 -29.667 19 -39s29.667 -14 51 -14c34 0 62.667 10.667 86 32s35 47.333 35 78v26l-144 -32c-31.333 -7.33301 -47 -24.333 -47 -51zM338.997 648.003h-103l-96 162h134
z" />
    <glyph glyph-name="aacute" unicode="&#xe1;" horiz-adv-x="546" 
d="M222 -12c-41.333 0 -77.1689 7.16992 -107.502 21.5029s-53.666 33.666 -69.999 57.999s-24.5 51.5 -24.5 81.5c0 40.667 15.333 74.167 46 100.5s73.667 45.166 129 56.499l171 36v18c0 20.667 -7.66699 37.167 -23 49.5s-35.666 18.5 -60.999 18.5
c-26.667 0 -50.167 -7.16699 -70.5 -21.5s-34.5 -33.833 -42.5 -58.5l-129 62c16 45.333 45.833 81.333 89.5 108s94.5 40 152.5 40c46.667 0 87.5 -8.33301 122.5 -25s62.333 -39.834 82 -69.501s29.5 -64.167 29.5 -103.5v-360h-140v50
c-20.667 -22 -43.5 -37.833 -68.5 -47.5s-53.5 -14.5 -85.5 -14.5zM174.997 151.003c0 -16.667 6.33301 -29.667 19 -39s29.667 -14 51 -14c34 0 62.667 10.667 86 32s35 47.333 35 78v26l-144 -32c-31.333 -7.33301 -47 -24.333 -47 -51zM229.997 648.003l66 162h133
l-96 -162h-103z" />
    <glyph glyph-name="acircumflex" unicode="&#xe2;" horiz-adv-x="546" 
d="M222 -12c-41.333 0 -77.1689 7.16992 -107.502 21.5029s-53.666 33.666 -69.999 57.999s-24.5 51.5 -24.5 81.5c0 40.667 15.333 74.167 46 100.5s73.667 45.166 129 56.499l171 36v18c0 20.667 -7.66699 37.167 -23 49.5s-35.666 18.5 -60.999 18.5
c-26.667 0 -50.167 -7.16699 -70.5 -21.5s-34.5 -33.833 -42.5 -58.5l-129 62c16 45.333 45.833 81.333 89.5 108s94.5 40 152.5 40c46.667 0 87.5 -8.33301 122.5 -25s62.333 -39.834 82 -69.501s29.5 -64.167 29.5 -103.5v-360h-140v50
c-20.667 -22 -43.5 -37.833 -68.5 -47.5s-53.5 -14.5 -85.5 -14.5zM174.997 151.003c0 -16.667 6.33301 -29.667 19 -39s29.667 -14 51 -14c34 0 62.667 10.667 86 32s35 47.333 35 78v26l-144 -32c-31.333 -7.33301 -47 -24.333 -47 -51zM220.997 808.003h123l121 -160
h-110l-72 101l-70 -101h-112z" />
    <glyph glyph-name="atilde" unicode="&#xe3;" horiz-adv-x="546" 
d="M222 -12c-41.333 0 -77.1689 7.16992 -107.502 21.5029s-53.666 33.666 -69.999 57.999s-24.5 51.5 -24.5 81.5c0 40.667 15.333 74.167 46 100.5s73.667 45.166 129 56.499l171 36v18c0 20.667 -7.66699 37.167 -23 49.5s-35.666 18.5 -60.999 18.5
c-26.667 0 -50.167 -7.16699 -70.5 -21.5s-34.5 -33.833 -42.5 -58.5l-129 62c16 45.333 45.833 81.333 89.5 108s94.5 40 152.5 40c46.667 0 87.5 -8.33301 122.5 -25s62.333 -39.834 82 -69.501s29.5 -64.167 29.5 -103.5v-360h-140v50
c-20.667 -22 -43.5 -37.833 -68.5 -47.5s-53.5 -14.5 -85.5 -14.5zM174.997 151.003c0 -16.667 6.33301 -29.667 19 -39s29.667 -14 51 -14c34 0 62.667 10.667 86 32s35 47.333 35 78v26l-144 -32c-31.333 -7.33301 -47 -24.333 -47 -51zM353.997 648.003
c-22.667 0 -42.333 3.83301 -59 11.5s-31.667 15.334 -45 23.001s-26.666 11.5 -39.999 11.5c-8.66699 0 -15.834 -2.66699 -21.501 -8s-9.5 -15.333 -11.5 -30h-101c3.33301 36 12.666 63.667 27.999 83s32.833 32.666 52.5 39.999s37.167 11 52.5 11
c20 0 38.333 -3.83301 55 -11.5l47 -22.5c14.667 -7.33301 28.334 -11 41.001 -11c9.33301 0 17.333 2.83301 24 8.5s10.334 15.167 11.001 28.5h101c-4.66699 -44 -19.334 -77.333 -44.001 -100s-54.667 -34 -90 -34z" />
    <glyph glyph-name="adieresis" unicode="&#xe4;" horiz-adv-x="546" 
d="M222 -12c-41.333 0 -77.1689 7.16992 -107.502 21.5029s-53.666 33.666 -69.999 57.999s-24.5 51.5 -24.5 81.5c0 40.667 15.333 74.167 46 100.5s73.667 45.166 129 56.499l171 36v18c0 20.667 -7.66699 37.167 -23 49.5s-35.666 18.5 -60.999 18.5
c-26.667 0 -50.167 -7.16699 -70.5 -21.5s-34.5 -33.833 -42.5 -58.5l-129 62c16 45.333 45.833 81.333 89.5 108s94.5 40 152.5 40c46.667 0 87.5 -8.33301 122.5 -25s62.333 -39.834 82 -69.501s29.5 -64.167 29.5 -103.5v-360h-140v50
c-20.667 -22 -43.5 -37.833 -68.5 -47.5s-53.5 -14.5 -85.5 -14.5zM174.997 151.003c0 -16.667 6.33301 -29.667 19 -39s29.667 -14 51 -14c34 0 62.667 10.667 86 32s35 47.333 35 78v26l-144 -32c-31.333 -7.33301 -47 -24.333 -47 -51zM175.997 648.003
c-22 0 -40.667 7.66797 -56 23.001s-23 33.666 -23 54.999s7.66699 39.666 23 54.999s34 23 56 23c21.333 0 39.5 -7.66699 54.5 -23s22.5 -33.666 22.5 -54.999c0 -22 -7.5 -40.5 -22.5 -55.5s-33.167 -22.5 -54.5 -22.5zM390.997 648.004c-22 0 -40.5 7.66699 -55.5 23
s-22.5 33.666 -22.5 54.999c0 22 7.66699 40.5 23 55.5s33.666 22.5 54.999 22.5c22 0 40.5 -7.66699 55.5 -23s22.5 -33.666 22.5 -54.999c0 -22 -7.66699 -40.5 -23 -55.5s-33.666 -22.5 -54.999 -22.5z" />
    <glyph glyph-name="aring" unicode="&#xe5;" horiz-adv-x="546" 
d="M222 -12c-41.333 0 -77.1689 7.16992 -107.502 21.5029s-53.666 33.666 -69.999 57.999s-24.5 51.5 -24.5 81.5c0 40.667 15.333 74.167 46 100.5s73.667 45.166 129 56.499l171 36v18c0 20.667 -7.66699 37.167 -23 49.5s-35.666 18.5 -60.999 18.5
c-26.667 0 -50.167 -7.16699 -70.5 -21.5s-34.5 -33.833 -42.5 -58.5l-129 62c16 45.333 45.833 81.333 89.5 108s94.5 40 152.5 40c46.667 0 87.5 -8.33301 122.5 -25s62.333 -39.834 82 -69.501s29.5 -64.167 29.5 -103.5v-360h-140v50
c-20.667 -22 -43.5 -37.833 -68.5 -47.5s-53.5 -14.5 -85.5 -14.5zM174.997 151.003c0 -16.667 6.33301 -29.667 19 -39s29.667 -14 51 -14c34 0 62.667 10.667 86 32s35 47.333 35 78v26l-144 -32c-31.333 -7.33301 -47 -24.333 -47 -51zM282.997 648.003
c-23.333 0 -44.0029 5.16699 -62.0029 15.5s-32.167 24 -42.5 41s-15.5 35.167 -15.5 54.5c0 31.333 11.333 58 34 80s51.334 33 86.001 33c35.333 0 64.333 -11 87 -33s34 -48.667 34 -80c0 -19.333 -5.16699 -37.5 -15.5 -54.5s-24.666 -30.667 -42.999 -41
s-39.166 -15.5 -62.499 -15.5zM282.994 722.003c12 0 21.833 3.83301 29.5 11.5s11.5 16.5 11.5 26.5c0 10.667 -3.83301 19.667 -11.5 27s-17.5 11 -29.5 11c-11.333 0 -20.833 -3.66699 -28.5 -11s-11.5 -16.333 -11.5 -27c0 -10 3.83301 -18.833 11.5 -26.5
s17.167 -11.5 28.5 -11.5z" />
    <glyph glyph-name="ae" unicode="&#xe6;" horiz-adv-x="925" 
d="M220 -12c-40.667 0 -75.9951 6.99902 -105.995 20.999s-53.167 33.333 -69.5 58s-24.5 52.334 -24.5 83.001c0 40.667 14.667 73.667 44 99s72.666 44.333 129.999 57l168 36v18c0 20 -7.5 36.333 -22.5 49s-34.833 19 -59.5 19
c-26.667 0 -49.834 -7.16699 -69.501 -21.5s-33.834 -33.833 -42.501 -58.5l-128 62c16 45.333 45.667 81.333 89 108s93.666 40 150.999 40c40 0 75.333 -6.33301 106 -19s56 -29.667 76 -51c24 22 51.667 39.167 83 51.5s65 18.5 101 18.5
c50.667 0 96.334 -12 137.001 -36s72.834 -56.167 96.501 -96.5s35.5 -85.833 35.5 -136.5c0 -10.667 -0.5 -21.167 -1.5 -31.5s-2.83301 -19.166 -5.5 -26.499h-381c5.33301 -34.667 19.333 -62.167 42 -82.5s52 -30.5 88 -30.5c29.333 0 53.166 6 71.499 18
s31.833 26 40.5 42l120 -57c-16.667 -41.333 -46.334 -73.833 -89.001 -97.5s-91.334 -35.5 -146.001 -35.5c-57.333 0 -108 14 -152 42v-30h-131v48c-20 -20.667 -42.5 -35.834 -67.5 -45.501s-52.833 -14.5 -83.5 -14.5zM531.005 340.999h224.999
c-2.66699 29.333 -14 52 -34 68s-45.333 24 -76 24c-28.667 0 -53.167 -7.5 -73.5 -22.5s-34.166 -38.167 -41.499 -69.5zM243.004 97.999c22 0 41.999 5 59.999 15s32.333 23.333 43 40s16 35 16 55v26l-142 -32c-13.333 -2.66699 -24.166 -8.5 -32.499 -17.5
s-12.5 -20.167 -12.5 -33.5c0 -16.667 6.16699 -29.667 18.5 -39s28.833 -14 49.5 -14z" />
    <glyph glyph-name="ccedilla" unicode="&#xe7;" horiz-adv-x="574" 
d="M309 -12c-54.667 0 -103.833 12.499 -147.5 37.499s-78.167 59.167 -103.5 102.5s-38 92 -38 146s12.667 102.5 38 145.5s59.833 76.833 103.5 101.5s92.834 37 147.501 37c40.667 0 78.334 -7 113.001 -21s64.334 -33.5 89.001 -58.5s42.334 -54.5 53.001 -88.5
l-128 -62c-8.66699 29.333 -24.334 52.5 -47.001 69.5s-49.334 25.5 -80.001 25.5c-39.333 0 -71.5 -14 -96.5 -42s-37.5 -64 -37.5 -108s12.5 -80 37.5 -108s57.167 -42 96.5 -42c31.333 0 58.166 8.66699 80.499 26s37.833 40.333 46.5 69l128 -63
c-10 -32 -27.333 -60.667 -52 -86s-54.334 -45.166 -89.001 -59.499s-72.667 -21.5 -114 -21.5zM323.001 -210.001c-17.333 0 -37.8311 2.99902 -61.498 8.99902s-47.834 19 -72.501 39l39 67c9.33301 -8.66699 21.5 -16.167 36.5 -22.5s30.833 -9.5 47.5 -9.5
c15.333 0 28.166 4 38.499 12s15.5 19.667 15.5 35s-7.83301 30.5 -23.5 45.5s-44.167 27.5 -85.5 37.5l50 26c50 -8 87.5 -23.667 112.5 -47s37.5 -51.666 37.5 -84.999c0 -25.333 -6.5 -45.833 -19.5 -61.5s-29.833 -27.167 -50.5 -34.5s-42 -11 -64 -11z" />
    <glyph glyph-name="egrave" unicode="&#xe8;" horiz-adv-x="577" 
d="M306 -12c-57.333 0 -107.5 12.8291 -150.5 38.4961s-76.333 60.167 -100 103.5s-35.5 91.333 -35.5 144c0 54.667 12.167 103.334 36.5 146.001s57.333 76.334 99 101.001s88.5 37 140.5 37c51.333 0 97.333 -12 138 -36s73 -56.167 97 -96.5s36 -85.833 36 -136.5
c0 -10.667 -0.5 -21.167 -1.5 -31.5s-2.83301 -19.166 -5.5 -26.499h-384c4.66699 -34 18.667 -61.333 42 -82s53.333 -31 90 -31c26.667 0 49.5 5.33301 68.5 16s33.833 25.334 44.5 44.001l120 -57c-16.667 -40 -46 -72.167 -88 -96.5s-91 -36.5 -147 -36.5zM296 437.996
c-29.333 0 -54.334 -8.33301 -75.001 -25s-34.667 -40.667 -42 -72h229c-2.66699 29.333 -14.167 52.833 -34.5 70.5s-46.166 26.5 -77.499 26.5zM351.999 647.996h-103l-96 162h134z" />
    <glyph glyph-name="eacute" unicode="&#xe9;" horiz-adv-x="577" 
d="M306 -12c-57.333 0 -107.5 12.8291 -150.5 38.4961s-76.333 60.167 -100 103.5s-35.5 91.333 -35.5 144c0 54.667 12.167 103.334 36.5 146.001s57.333 76.334 99 101.001s88.5 37 140.5 37c51.333 0 97.333 -12 138 -36s73 -56.167 97 -96.5s36 -85.833 36 -136.5
c0 -10.667 -0.5 -21.167 -1.5 -31.5s-2.83301 -19.166 -5.5 -26.499h-384c4.66699 -34 18.667 -61.333 42 -82s53.333 -31 90 -31c26.667 0 49.5 5.33301 68.5 16s33.833 25.334 44.5 44.001l120 -57c-16.667 -40 -46 -72.167 -88 -96.5s-91 -36.5 -147 -36.5zM296 437.996
c-29.333 0 -54.334 -8.33301 -75.001 -25s-34.667 -40.667 -42 -72h229c-2.66699 29.333 -14.167 52.833 -34.5 70.5s-46.166 26.5 -77.499 26.5zM242.999 647.996l66 162h133l-96 -162h-103z" />
    <glyph glyph-name="ecircumflex" unicode="&#xea;" horiz-adv-x="577" 
d="M306 -12c-57.333 0 -107.5 12.8291 -150.5 38.4961s-76.333 60.167 -100 103.5s-35.5 91.333 -35.5 144c0 54.667 12.167 103.334 36.5 146.001s57.333 76.334 99 101.001s88.5 37 140.5 37c51.333 0 97.333 -12 138 -36s73 -56.167 97 -96.5s36 -85.833 36 -136.5
c0 -10.667 -0.5 -21.167 -1.5 -31.5s-2.83301 -19.166 -5.5 -26.499h-384c4.66699 -34 18.667 -61.333 42 -82s53.333 -31 90 -31c26.667 0 49.5 5.33301 68.5 16s33.833 25.334 44.5 44.001l120 -57c-16.667 -40 -46 -72.167 -88 -96.5s-91 -36.5 -147 -36.5zM296 437.996
c-29.333 0 -54.334 -8.33301 -75.001 -25s-34.667 -40.667 -42 -72h229c-2.66699 29.333 -14.167 52.833 -34.5 70.5s-46.166 26.5 -77.499 26.5zM233.999 807.996h123l121 -160h-110l-72 101l-70 -101h-112z" />
    <glyph glyph-name="edieresis" unicode="&#xeb;" horiz-adv-x="577" 
d="M306 -12c-57.333 0 -107.5 12.8291 -150.5 38.4961s-76.333 60.167 -100 103.5s-35.5 91.333 -35.5 144c0 54.667 12.167 103.334 36.5 146.001s57.333 76.334 99 101.001s88.5 37 140.5 37c51.333 0 97.333 -12 138 -36s73 -56.167 97 -96.5s36 -85.833 36 -136.5
c0 -10.667 -0.5 -21.167 -1.5 -31.5s-2.83301 -19.166 -5.5 -26.499h-384c4.66699 -34 18.667 -61.333 42 -82s53.333 -31 90 -31c26.667 0 49.5 5.33301 68.5 16s33.833 25.334 44.5 44.001l120 -57c-16.667 -40 -46 -72.167 -88 -96.5s-91 -36.5 -147 -36.5zM296 437.996
c-29.333 0 -54.334 -8.33301 -75.001 -25s-34.667 -40.667 -42 -72h229c-2.66699 29.333 -14.167 52.833 -34.5 70.5s-46.166 26.5 -77.499 26.5zM188.999 647.996c-22 0 -40.667 7.66797 -56 23.001s-23 33.666 -23 54.999s7.66699 39.666 23 54.999s34 23 56 23
c21.333 0 39.5 -7.66699 54.5 -23s22.5 -33.666 22.5 -54.999c0 -22 -7.5 -40.5 -22.5 -55.5s-33.167 -22.5 -54.5 -22.5zM403.999 647.997c-22 0 -40.5 7.66699 -55.5 23s-22.5 33.666 -22.5 54.999c0 22 7.66699 40.5 23 55.5s33.666 22.5 54.999 22.5
c22 0 40.5 -7.66699 55.5 -23s22.5 -33.666 22.5 -54.999c0 -22 -7.66699 -40.5 -23 -55.5s-33.666 -22.5 -54.999 -22.5z" />
    <glyph glyph-name="igrave" unicode="&#xec;" horiz-adv-x="290" 
d="M70 0v546h150v-546h-150zM201 648h-103l-96 162h134z" />
    <glyph glyph-name="iacute" unicode="&#xed;" horiz-adv-x="290" 
d="M70 0v546h150v-546h-150zM92 648l66 162h133l-96 -162h-103z" />
    <glyph glyph-name="icircumflex" unicode="&#xee;" horiz-adv-x="290" 
d="M70 0v546h150v-546h-150zM83 808h123l121 -160h-110l-72 101l-70 -101h-112z" />
    <glyph glyph-name="idieresis" unicode="&#xef;" horiz-adv-x="290" 
d="M70 0v546h150v-546h-150zM38 648c-22 0 -40.667 7.66797 -56 23.001s-23 33.666 -23 54.999s7.66699 39.666 23 54.999s34 23 56 23c21.333 0 39.5 -7.66699 54.5 -23s22.5 -33.666 22.5 -54.999c0 -22 -7.5 -40.5 -22.5 -55.5s-33.167 -22.5 -54.5 -22.5zM253 648.001
c-22 0 -40.5 7.66699 -55.5 23s-22.5 33.666 -22.5 54.999c0 22 7.66699 40.5 23 55.5s33.666 22.5 54.999 22.5c22 0 40.5 -7.66699 55.5 -23s22.5 -33.666 22.5 -54.999c0 -22 -7.66699 -40.5 -23 -55.5s-33.666 -22.5 -54.999 -22.5z" />
    <glyph glyph-name="eth" unicode="&#xf0;" horiz-adv-x="616" 
d="M202 565l0.000976562 60l101 36c-35.333 17.333 -71 26 -107 26c-18 0 -36.333 -2 -55 -6s-37 -10.333 -55 -19l-15 128c18.667 9.33301 40.167 16.166 64.5 20.499s48.5 6.5 72.5 6.5c49.333 0 94.5 -9 135.5 -27s77.5 -42.667 109.5 -74l103 37v-60l-63 -23
c33.333 -44 58.833 -94.667 76.5 -152s26.5 -117.666 26.5 -180.999c0 -78 -12.833 -142.833 -38.5 -194.5s-60.334 -90.334 -104.001 -116.001s-92.167 -38.5 -145.5 -38.5c-54.667 0 -103.667 12.333 -147 37s-77.666 58.334 -102.999 101.001s-38 90.334 -38 143.001
c0 54.667 12.833 103 38.5 145s60.167 75.167 103.5 99.5s90.666 36.5 141.999 36.5c22 0 43.833 -2.5 65.5 -7.5s40.167 -12.833 55.5 -23.5c-6 21.333 -14.5 40.666 -25.5 57.999s-23.833 32.333 -38.5 45zM308.001 123c40 0 72.167 13.667 96.5 41s36.5 62.333 36.5 105
s-12.167 77.667 -36.5 105s-56.5 41 -96.5 41s-72.167 -13.667 -96.5 -41s-36.5 -62.333 -36.5 -105s12.167 -77.667 36.5 -105s56.5 -41 96.5 -41z" />
    <glyph glyph-name="ntilde" unicode="&#xf1;" horiz-adv-x="590" 
d="M50 0l-0.000976562 546h140v-67c14 26.667 34.333 46.5 61 59.5s57.334 19.5 92.001 19.5c41.333 0 77.5 -8.66699 108.5 -26s55.167 -41.5 72.5 -72.5s26 -67.167 26 -108.5v-351h-150v319c0 31.333 -9.33301 56.5 -28 75.5s-42.667 28.5 -72 28.5
s-53.333 -9.5 -72 -28.5s-28 -44.167 -28 -75.5v-319h-150zM413.999 648c-22.667 0 -42.333 3.83301 -59 11.5s-31.667 15.334 -45 23.001s-26.666 11.5 -39.999 11.5c-8.66699 0 -15.834 -2.66699 -21.501 -8s-9.5 -15.333 -11.5 -30h-101
c3.33301 36 12.666 63.667 27.999 83s32.833 32.666 52.5 39.999s37.167 11 52.5 11c20 0 38.333 -3.83301 55 -11.5l47 -22.5c14.667 -7.33301 28.334 -11 41.001 -11c9.33301 0 17.333 2.83301 24 8.5s10.334 15.167 11.001 28.5h101
c-4.66699 -44 -19.334 -77.333 -44.001 -100s-54.667 -34 -90 -34z" />
    <glyph glyph-name="ograve" unicode="&#xf2;" horiz-adv-x="624" 
d="M312 -12c-54 0 -103.167 12.333 -147.5 37s-79.5 58.5 -105.5 101.5s-39 91.833 -39 146.5c0 55.333 13 104.333 39 147s61.167 76.334 105.5 101.001s93.5 37 147.5 37s103.167 -12.333 147.5 -37s79.5 -58.334 105.5 -101.001s39 -91.667 39 -147
c0 -54.667 -13 -103.5 -39 -146.5s-61.167 -76.833 -105.5 -101.5s-93.5 -37 -147.5 -37zM312 123c41.333 0 74.5 14 99.5 42s37.5 64 37.5 108c0 43.333 -12.5 79.166 -37.5 107.499s-58.167 42.5 -99.5 42.5c-40.667 0 -73.667 -14.167 -99 -42.5
s-38 -64.166 -38 -107.499c0 -44 12.667 -80 38 -108s58.333 -42 99 -42zM368 648h-103l-96 162h134z" />
    <glyph glyph-name="oacute" unicode="&#xf3;" horiz-adv-x="624" 
d="M312 -12c-54 0 -103.167 12.333 -147.5 37s-79.5 58.5 -105.5 101.5s-39 91.833 -39 146.5c0 55.333 13 104.333 39 147s61.167 76.334 105.5 101.001s93.5 37 147.5 37s103.167 -12.333 147.5 -37s79.5 -58.334 105.5 -101.001s39 -91.667 39 -147
c0 -54.667 -13 -103.5 -39 -146.5s-61.167 -76.833 -105.5 -101.5s-93.5 -37 -147.5 -37zM312 123c41.333 0 74.5 14 99.5 42s37.5 64 37.5 108c0 43.333 -12.5 79.166 -37.5 107.499s-58.167 42.5 -99.5 42.5c-40.667 0 -73.667 -14.167 -99 -42.5
s-38 -64.166 -38 -107.499c0 -44 12.667 -80 38 -108s58.333 -42 99 -42zM259 648l66 162h133l-96 -162h-103z" />
    <glyph glyph-name="ocircumflex" unicode="&#xf4;" horiz-adv-x="624" 
d="M312 -12c-54 0 -103.167 12.333 -147.5 37s-79.5 58.5 -105.5 101.5s-39 91.833 -39 146.5c0 55.333 13 104.333 39 147s61.167 76.334 105.5 101.001s93.5 37 147.5 37s103.167 -12.333 147.5 -37s79.5 -58.334 105.5 -101.001s39 -91.667 39 -147
c0 -54.667 -13 -103.5 -39 -146.5s-61.167 -76.833 -105.5 -101.5s-93.5 -37 -147.5 -37zM312 123c41.333 0 74.5 14 99.5 42s37.5 64 37.5 108c0 43.333 -12.5 79.166 -37.5 107.499s-58.167 42.5 -99.5 42.5c-40.667 0 -73.667 -14.167 -99 -42.5
s-38 -64.166 -38 -107.499c0 -44 12.667 -80 38 -108s58.333 -42 99 -42zM250 808h123l121 -160h-110l-72 101l-70 -101h-112z" />
    <glyph glyph-name="otilde" unicode="&#xf5;" horiz-adv-x="624" 
d="M312 -12c-54 0 -103.167 12.333 -147.5 37s-79.5 58.5 -105.5 101.5s-39 91.833 -39 146.5c0 55.333 13 104.333 39 147s61.167 76.334 105.5 101.001s93.5 37 147.5 37s103.167 -12.333 147.5 -37s79.5 -58.334 105.5 -101.001s39 -91.667 39 -147
c0 -54.667 -13 -103.5 -39 -146.5s-61.167 -76.833 -105.5 -101.5s-93.5 -37 -147.5 -37zM312 123c41.333 0 74.5 14 99.5 42s37.5 64 37.5 108c0 43.333 -12.5 79.166 -37.5 107.499s-58.167 42.5 -99.5 42.5c-40.667 0 -73.667 -14.167 -99 -42.5
s-38 -64.166 -38 -107.499c0 -44 12.667 -80 38 -108s58.333 -42 99 -42zM383 648c-22.667 0 -42.333 3.83301 -59 11.5s-31.667 15.334 -45 23.001s-26.666 11.5 -39.999 11.5c-8.66699 0 -15.834 -2.66699 -21.501 -8s-9.5 -15.333 -11.5 -30h-101
c3.33301 36 12.666 63.667 27.999 83s32.833 32.666 52.5 39.999s37.167 11 52.5 11c20 0 38.333 -3.83301 55 -11.5l47 -22.5c14.667 -7.33301 28.334 -11 41.001 -11c9.33301 0 17.333 2.83301 24 8.5s10.334 15.167 11.001 28.5h101
c-4.66699 -44 -19.334 -77.333 -44.001 -100s-54.667 -34 -90 -34z" />
    <glyph glyph-name="odieresis" unicode="&#xf6;" horiz-adv-x="624" 
d="M312 -12c-54 0 -103.167 12.333 -147.5 37s-79.5 58.5 -105.5 101.5s-39 91.833 -39 146.5c0 55.333 13 104.333 39 147s61.167 76.334 105.5 101.001s93.5 37 147.5 37s103.167 -12.333 147.5 -37s79.5 -58.334 105.5 -101.001s39 -91.667 39 -147
c0 -54.667 -13 -103.5 -39 -146.5s-61.167 -76.833 -105.5 -101.5s-93.5 -37 -147.5 -37zM312 123c41.333 0 74.5 14 99.5 42s37.5 64 37.5 108c0 43.333 -12.5 79.166 -37.5 107.499s-58.167 42.5 -99.5 42.5c-40.667 0 -73.667 -14.167 -99 -42.5
s-38 -64.166 -38 -107.499c0 -44 12.667 -80 38 -108s58.333 -42 99 -42zM205 648c-22 0 -40.667 7.66797 -56 23.001s-23 33.666 -23 54.999s7.66699 39.666 23 54.999s34 23 56 23c21.333 0 39.5 -7.66699 54.5 -23s22.5 -33.666 22.5 -54.999
c0 -22 -7.5 -40.5 -22.5 -55.5s-33.167 -22.5 -54.5 -22.5zM420 648.001c-22 0 -40.5 7.66699 -55.5 23s-22.5 33.666 -22.5 54.999c0 22 7.66699 40.5 23 55.5s33.666 22.5 54.999 22.5c22 0 40.5 -7.66699 55.5 -23s22.5 -33.666 22.5 -54.999
c0 -22 -7.66699 -40.5 -23 -55.5s-33.666 -22.5 -54.999 -22.5z" />
    <glyph glyph-name="divide" unicode="&#xf7;" horiz-adv-x="671" 
d="M261 508v150h150v-150h-150zM80 293v125h511v-125h-511zM261 53v150h150v-150h-150z" />
    <glyph glyph-name="oslash" unicode="&#xf8;" horiz-adv-x="624" 
d="M312 -12c-54 0 -103.167 12.333 -147.5 37s-79.5 58.5 -105.5 101.5s-39 91.833 -39 146.5c0 55.333 13 104.333 39 147s61.167 76.334 105.5 101.001s93.5 37 147.5 37s103.167 -12.333 147.5 -37s79.5 -58.334 105.5 -101.001s39 -91.667 39 -147
c0 -54.667 -13 -103.5 -39 -146.5s-61.167 -76.833 -105.5 -101.5s-93.5 -37 -147.5 -37zM312 123c41.333 0 74.5 14 99.5 42s37.5 64 37.5 108c0 43.333 -12.5 79.166 -37.5 107.499s-58.167 42.5 -99.5 42.5c-40.667 0 -73.667 -14.167 -99 -42.5
s-38 -64.166 -38 -107.499c0 -44 12.667 -80 38 -108s58.333 -42 99 -42zM556 609l92 -92l-580 -580l-92 92z" />
    <glyph glyph-name="ugrave" unicode="&#xf9;" horiz-adv-x="590" 
d="M250 -12c-41.333 0 -77.832 9.49902 -109.499 28.499s-56.334 45.5 -74.001 79.5s-26.5 73.333 -26.5 118v332h150v-319c0 -31.333 9.33301 -56.5 28 -75.5s42.667 -28.5 72 -28.5s53.333 9.5 72 28.5s28 44.167 28 75.5v319h150v-546h-140v66
c-14 -25.333 -34 -44.666 -60 -57.999s-56 -20 -90 -20zM351.001 647.999h-103l-96 162h134z" />
    <glyph glyph-name="uacute" unicode="&#xfa;" horiz-adv-x="590" 
d="M250 -12c-41.333 0 -77.832 9.49902 -109.499 28.499s-56.334 45.5 -74.001 79.5s-26.5 73.333 -26.5 118v332h150v-319c0 -31.333 9.33301 -56.5 28 -75.5s42.667 -28.5 72 -28.5s53.333 9.5 72 28.5s28 44.167 28 75.5v319h150v-546h-140v66
c-14 -25.333 -34 -44.666 -60 -57.999s-56 -20 -90 -20zM242.001 647.999l66 162h133l-96 -162h-103z" />
    <glyph glyph-name="ucircumflex" unicode="&#xfb;" horiz-adv-x="590" 
d="M250 -12c-41.333 0 -77.832 9.49902 -109.499 28.499s-56.334 45.5 -74.001 79.5s-26.5 73.333 -26.5 118v332h150v-319c0 -31.333 9.33301 -56.5 28 -75.5s42.667 -28.5 72 -28.5s53.333 9.5 72 28.5s28 44.167 28 75.5v319h150v-546h-140v66
c-14 -25.333 -34 -44.666 -60 -57.999s-56 -20 -90 -20zM233.001 807.999h123l121 -160h-110l-72 101l-70 -101h-112z" />
    <glyph glyph-name="udieresis" unicode="&#xfc;" horiz-adv-x="590" 
d="M250 -12c-41.333 0 -77.832 9.49902 -109.499 28.499s-56.334 45.5 -74.001 79.5s-26.5 73.333 -26.5 118v332h150v-319c0 -31.333 9.33301 -56.5 28 -75.5s42.667 -28.5 72 -28.5s53.333 9.5 72 28.5s28 44.167 28 75.5v319h150v-546h-140v66
c-14 -25.333 -34 -44.666 -60 -57.999s-56 -20 -90 -20zM188.001 647.999c-22 0 -40.667 7.66797 -56 23.001s-23 33.666 -23 54.999s7.66699 39.666 23 54.999s34 23 56 23c21.333 0 39.5 -7.66699 54.5 -23s22.5 -33.666 22.5 -54.999c0 -22 -7.5 -40.5 -22.5 -55.5
s-33.167 -22.5 -54.5 -22.5zM403.001 648c-22 0 -40.5 7.66699 -55.5 23s-22.5 33.666 -22.5 54.999c0 22 7.66699 40.5 23 55.5s33.666 22.5 54.999 22.5c22 0 40.5 -7.66699 55.5 -23s22.5 -33.666 22.5 -54.999c0 -22 -7.66699 -40.5 -23 -55.5
s-33.666 -22.5 -54.999 -22.5z" />
    <glyph glyph-name="yacute" unicode="&#xfd;" horiz-adv-x="578" 
d="M128 -223c-16 0 -31.501 1.33301 -46.501 4s-28.167 7 -39.5 13v123c21.333 -6.66699 44 -10 68 -10c30 0 50.833 6.66699 62.5 20s20.834 27.333 27.501 42l14 31l-214 546h160l129 -354l129 354h160l-237 -606c-4.66699 -12.667 -11.667 -28.167 -21 -46.5
s-22 -36.5 -38 -54.5s-36.5 -32.833 -61.5 -44.5s-55.833 -17.5 -92.5 -17.5zM235.999 648l66 162h133l-96 -162h-103z" />
    <glyph glyph-name="thorn" unicode="&#xfe;" horiz-adv-x="654" 
d="M50 -200v944.999h150v-245c38.667 38.667 91 58 157 58c52 0 98.833 -12.667 140.5 -38s74.834 -59.5 99.501 -102.5s37 -91.167 37 -144.5c0 -52.667 -12.167 -100.667 -36.5 -144s-57.5 -77.666 -99.5 -102.999s-89.333 -38 -142 -38c-32 0 -61.333 4.83301 -88 14.5
s-49.334 23.167 -68.001 40.5v-243h-150zM338 122.999c41.333 0 75.166 14.1689 101.499 42.502s39.5 64.166 39.5 107.499s-13.167 79.166 -39.5 107.499s-60.166 42.5 -101.499 42.5c-40.667 0 -73.834 -14 -99.501 -42s-38.5 -64 -38.5 -108s12.833 -80 38.5 -108
s58.834 -42 99.501 -42z" />
    <glyph glyph-name="ydieresis" unicode="&#xff;" horiz-adv-x="578" 
d="M128 -223c-16 0 -31.501 1.33301 -46.501 4s-28.167 7 -39.5 13v123c21.333 -6.66699 44 -10 68 -10c30 0 50.833 6.66699 62.5 20s20.834 27.333 27.501 42l14 31l-214 546h160l129 -354l129 354h160l-237 -606c-4.66699 -12.667 -11.667 -28.167 -21 -46.5
s-22 -36.5 -38 -54.5s-36.5 -32.833 -61.5 -44.5s-55.833 -17.5 -92.5 -17.5zM181.999 648c-22 0 -40.667 7.66797 -56 23.001s-23 33.666 -23 54.999s7.66699 39.666 23 54.999s34 23 56 23c21.333 0 39.5 -7.66699 54.5 -23s22.5 -33.666 22.5 -54.999
c0 -22 -7.5 -40.5 -22.5 -55.5s-33.167 -22.5 -54.5 -22.5zM396.999 648.001c-22 0 -40.5 7.66699 -55.5 23s-22.5 33.666 -22.5 54.999c0 22 7.66699 40.5 23 55.5s33.666 22.5 54.999 22.5c22 0 40.5 -7.66699 55.5 -23s22.5 -33.666 22.5 -54.999
c0 -22 -7.66699 -40.5 -23 -55.5s-33.666 -22.5 -54.999 -22.5z" />
    <glyph glyph-name="dotlessi" unicode="&#x131;" horiz-adv-x="290" 
d="M70 0v546h150v-546h-150z" />
    <glyph glyph-name="Lslash" unicode="&#x141;" horiz-adv-x="570" 
d="M60 0v271l-124 -31v130l124 31v344h155v-305l121 30v-130l-121 -30v-175h335v-135h-490z" />
    <glyph glyph-name="lslash" unicode="&#x142;" horiz-adv-x="250" 
d="M50 0v269l-84 -26v131l84 26v345h150v-297l83 26v-131l-83 -26v-317h-150z" />
    <glyph glyph-name="OE" unicode="&#x152;" horiz-adv-x="1231" 
d="M430 -12c-56 0 -108.001 9.66504 -156.001 28.998s-89.833 46.5 -125.5 81.5s-63.5 75.833 -83.5 122.5s-30 97.334 -30 152.001s9.83301 105.334 29.5 152.001s47.334 87.334 83.001 122.001s77.5 61.667 125.5 81s100.333 29 157 29
c50.667 0 98.167 -7.83301 142.5 -23.5s83.5 -37.834 117.5 -66.501v78h501v-135h-346v-169h326v-135h-326v-171h346l-1 -135h-500v79c-34 -28.667 -73.167 -51 -117.5 -67s-91.833 -24 -142.5 -24zM429.999 127.998c45.333 0 86.166 10.5 122.499 31.5s65 49.833 86 86.5
s31.5 79 31.5 127s-10.5 90.333 -31.5 127s-49.667 65.334 -86 86.001s-77.166 31 -122.499 31s-86.166 -10.333 -122.499 -31s-65 -49.334 -86 -86.001s-31.5 -79 -31.5 -127s10.5 -90.333 31.5 -127s49.667 -65.5 86 -86.5s77.166 -31.5 122.499 -31.5z" />
    <glyph glyph-name="oe" unicode="&#x153;" horiz-adv-x="998" 
d="M310 -12c-54 0 -102.834 12.3301 -146.501 36.9971s-78.5 58.5 -104.5 101.5s-39 91.833 -39 146.5c0 55.333 13 104.333 39 147s60.833 76.334 104.5 101.001s92.5 37 146.5 37c41.333 0 80.166 -7.5 116.499 -22.5s67.5 -35.833 93.5 -62.5c24.667 26 54 46.667 88 62
s71 23 111 23c50.667 0 96.334 -12 137.001 -36s72.834 -56.167 96.501 -96.5s35.5 -85.833 35.5 -136.5c0 -10.667 -0.5 -21.167 -1.5 -31.5s-2.83301 -19.166 -5.5 -26.499h-380c5.33301 -37.333 20.166 -65.5 44.499 -84.5s52.833 -28.5 85.5 -28.5
c25.333 0 47.666 5.33301 66.999 16s34 25.334 44 44.001l120 -57c-16.667 -41.333 -46.167 -73.833 -88.5 -97.5s-91.166 -35.5 -146.499 -35.5c-42.667 0 -81.5 7.66699 -116.5 23s-65.167 36.333 -90.5 63c-26 -27.333 -57.167 -48.5 -93.5 -63.5
s-75.166 -22.5 -116.499 -22.5zM604.999 340.997h224c-2.66699 29.333 -14 52 -34 68s-45.333 24 -76 24c-27.333 0 -51.333 -7.33301 -72 -22s-34.667 -38 -42 -70zM309.999 122.997c40.667 0 73.334 14 98.001 42s37 64 37 108c0 43.333 -12.333 79.166 -37 107.499
s-57.334 42.5 -98.001 42.5s-73.334 -14.167 -98.001 -42.5s-37 -64.166 -37 -107.499c0 -44 12.333 -80 37 -108s57.334 -42 98.001 -42z" />
    <glyph glyph-name="Scaron" unicode="&#x160;" horiz-adv-x="646" 
d="M340 -12c-49.333 0 -95.3301 8.66309 -137.997 25.9961s-79.334 41.666 -110.001 72.999s-53 68 -67 110l130 61c18 -43.333 44.167 -76.666 78.5 -99.999s69.833 -35 106.5 -35c38 0 67.667 7.66699 89 23s32 34 32 56c0 19.333 -6.33301 34.833 -19 46.5
s-30 20.834 -52 27.501l-152 48c-63.333 20 -110.333 47.833 -141 83.5s-46 78.167 -46 127.5c0 44.667 11.167 83.5 33.5 116.5s53.5 58.833 93.5 77.5s87 28 141 28c48 0 91.667 -8.16699 131 -24.5s73.166 -38.666 101.499 -66.999s49.166 -60.833 62.499 -97.5l-130 -61
c-12.667 35.333 -33.334 63.333 -62.001 84s-63 31 -103 31c-34 0 -61.333 -7.66699 -82 -23s-31 -34.666 -31 -57.999c0 -35.333 24.667 -60.666 74 -75.999l148 -46c62.667 -19.333 109.667 -46 141 -80s47 -76.667 47 -128c0 -44.667 -11.5 -83.667 -34.5 -117
s-55.167 -59.333 -96.5 -78s-89.666 -28 -144.999 -28zM261.003 846.996l-120 160h112l70 -101l72 101h110l-121 -160h-123z" />
    <glyph glyph-name="scaron" unicode="&#x161;" horiz-adv-x="513" 
d="M271 -12c-59.333 0 -111.669 13.835 -157.002 41.502s-76.666 66.167 -93.999 115.5l111 52c30 -62.667 76.667 -94 140 -94c23.333 0 42 4.5 56 13.5s21 20.833 21 35.5c0 12 -4 21.5 -12 28.5s-16.833 12.333 -26.5 16s-17.834 6.16699 -24.501 7.5l-96 25
c-49.333 13.333 -86.166 33.833 -110.499 61.5s-36.5 60.167 -36.5 97.5c0 34 9 63.667 27 89s43.167 45.166 75.5 59.499s69.833 21.5 112.5 21.5c56 0 105 -12.667 147 -38s71.667 -60.333 89 -105l-112 -52c-8.66699 23.333 -24.167 41.666 -46.5 54.999
s-48.166 20 -77.499 20c-22 0 -39.167 -4 -51.5 -12s-18.5 -19 -18.5 -33c0 -10.667 3.5 -19.334 10.5 -26.001s14.833 -11.5 23.5 -14.5l22 -7.5l101 -27c48.667 -12.667 85.667 -32.667 111 -60s38 -60.666 38 -99.999c0 -33.333 -9.33301 -62.833 -28 -88.5
s-44.667 -45.667 -78 -60s-72 -21.5 -116 -21.5zM194.997 648.002l-120 160h112l70 -101l72 101h110l-121 -160h-123z" />
    <glyph glyph-name="Ydieresis" unicode="&#x178;" horiz-adv-x="661" 
d="M254 0v325l-249 420h174l152 -265l151 265h174l-247 -419v-326h-155zM224 847c-22 0 -40.667 7.66797 -56 23.001s-23 33.666 -23 54.999s7.66699 39.666 23 54.999s34 23 56 23c21.333 0 39.5 -7.66699 54.5 -23s22.5 -33.666 22.5 -54.999
c0 -22 -7.5 -40.5 -22.5 -55.5s-33.167 -22.5 -54.5 -22.5zM439 847.001c-22 0 -40.5 7.66699 -55.5 23s-22.5 33.666 -22.5 54.999c0 22 7.66699 40.5 23 55.5s33.666 22.5 54.999 22.5c22 0 40.5 -7.66699 55.5 -23s22.5 -33.666 22.5 -54.999
c0 -22 -7.66699 -40.5 -23 -55.5s-33.666 -22.5 -54.999 -22.5z" />
    <glyph glyph-name="Zcaron" unicode="&#x17d;" horiz-adv-x="565" 
d="M195 135h360v-135h-545v125l350 485h-330v135h515v-125zM221 847l-120 160h112l70 -101l72 101h110l-121 -160h-123z" />
    <glyph glyph-name="zcaron" unicode="&#x17e;" horiz-adv-x="507" 
d="M20 0v120l270 296h-260v130h456v-120l-263 -296h264v-130h-467zM192 648l-120 160h112l70 -101l72 101h110l-121 -160h-123z" />
    <glyph glyph-name="florin" unicode="&#x192;" horiz-adv-x="600" 
d="M95 -170c-12 0 -26.333 1.16699 -43 3.5s-30.667 5.16602 -42 8.49902l27 128c6 -2 13.5 -3.83301 22.5 -5.5s16.5 -2.5 22.5 -2.5c45.333 0 72.333 21 81 63l38 179h-144v130h171l51 243c12 58 36.833 102.5 74.5 133.5s84.834 46.5 141.501 46.5
c12 0 26.5 -1.16699 43.5 -3.5s30.833 -5.16602 41.5 -8.49902l-27 -128c-6 2 -13.5 3.83301 -22.5 5.5s-16.5 2.5 -22.5 2.5c-44.667 0 -71.667 -21 -81 -63l-48 -228h128v-130h-155l-41 -194c-12 -58 -36.833 -102.5 -74.5 -133.5s-84.834 -46.5 -141.501 -46.5z" />
    <glyph glyph-name="circumflex" unicode="&#x2c6;" horiz-adv-x="404" 
d="M140 800h123l121 -160h-110l-72 101l-70 -101h-112z" />
    <glyph glyph-name="caron" unicode="&#x2c7;" horiz-adv-x="404" 
d="M140 640l-120 160h112l70 -101l72 101h110l-121 -160h-123z" />
    <glyph glyph-name="breve" unicode="&#x2d8;" horiz-adv-x="356" 
d="M179 640c-29.333 0 -56 6.66406 -80 19.9971s-43.167 31.333 -57.5 54s-21.5 47.334 -21.5 74.001h95c0 -17.333 6.5 -32 19.5 -44s27.833 -18 44.5 -18c17.333 0 32 6 44 18s18 26.667 18 44h95c0 -27.333 -7 -52.166 -21 -74.499s-32.833 -40.166 -56.5 -53.499
s-50.167 -20 -79.5 -20z" />
    <glyph glyph-name="dotaccent" unicode="&#x2d9;" horiz-adv-x="196" 
d="M99 640c-22 0 -40.667 7.66797 -56 23.001s-23 33.666 -23 54.999s7.66699 39.666 23 54.999s34 23 56 23c21.333 0 39.5 -7.66699 54.5 -23s22.5 -33.666 22.5 -54.999c0 -22 -7.5 -40.5 -22.5 -55.5s-33.167 -22.5 -54.5 -22.5z" />
    <glyph glyph-name="ring" unicode="&#x2da;" horiz-adv-x="281" 
d="M140 640c-23.333 0 -44.0029 5.16699 -62.0029 15.5s-32.167 24 -42.5 41s-15.5 35.167 -15.5 54.5c0 31.333 11.333 58 34 80s51.334 33 86.001 33c35.333 0 64.333 -11 87 -33s34 -48.667 34 -80c0 -19.333 -5.16699 -37.5 -15.5 -54.5s-24.666 -30.667 -42.999 -41
s-39.166 -15.5 -62.499 -15.5zM139.997 714c12 0 21.833 3.83301 29.5 11.5s11.5 16.5 11.5 26.5c0 10.667 -3.83301 19.667 -11.5 27s-17.5 11 -29.5 11c-11.333 0 -20.833 -3.66699 -28.5 -11s-11.5 -16.333 -11.5 -27c0 -10 3.83301 -18.833 11.5 -26.5
s17.167 -11.5 28.5 -11.5z" />
    <glyph glyph-name="ogonek" unicode="&#x2db;" horiz-adv-x="308" 
d="M154 -201c-22 0 -43.167 3.66797 -63.5 11.001s-37.166 19 -50.499 35s-20 36.333 -20 61c0 34 14.333 62.667 43 86s69.334 38.666 122.001 45.999l37 -26c-42.667 -10 -71.834 -22.333 -87.501 -37s-23.5 -30 -23.5 -46c0 -14.667 5.16699 -26.167 15.5 -34.5
s24.166 -12.5 41.499 -12.5s33 3.16699 47 9.5s25.333 13.833 34 22.5l39 -67c-22.667 -18 -45 -30.5 -67 -37.5s-44.333 -10.5 -67 -10.5z" />
    <glyph glyph-name="tilde" unicode="&#x2dc;" horiz-adv-x="452" 
d="M298 640c-22.667 0 -42.333 3.83301 -59 11.5s-31.667 15.334 -45 23.001s-26.666 11.5 -39.999 11.5c-8.66699 0 -15.834 -2.66699 -21.501 -8s-9.5 -15.333 -11.5 -30h-101c3.33301 36 12.666 63.667 27.999 83s32.833 32.666 52.5 39.999s37.167 11 52.5 11
c20 0 38.333 -3.83301 55 -11.5l47 -22.5c14.667 -7.33301 28.334 -11 41.001 -11c9.33301 0 17.333 2.83301 24 8.5s10.334 15.167 11.001 28.5h101c-4.66699 -44 -19.334 -77.333 -44.001 -100s-54.667 -34 -90 -34z" />
    <glyph glyph-name="hungarumlaut" unicode="&#x2dd;" horiz-adv-x="415" 
d="M20 640l66 161h133l-96 -161h-103zM196 640l65 161h134l-96 -161h-103z" />
    <glyph glyph-name="gravecomb" unicode="&#x300;" 
d="M219 640h-103l-96 162h134z" />
    <glyph glyph-name="acutecomb" unicode="&#x301;" 
d="M20 640l66 162h133l-96 -162h-103z" />
    <glyph glyph-name="uni0302" unicode="&#x302;" 
d="M140 800h123l121 -160h-110l-72 101l-70 -101h-112z" />
    <glyph glyph-name="tildecomb" unicode="&#x303;" 
d="M298 640c-22.667 0 -42.333 3.83301 -59 11.5s-31.667 15.334 -45 23.001s-26.666 11.5 -39.999 11.5c-8.66699 0 -15.834 -2.66699 -21.501 -8s-9.5 -15.333 -11.5 -30h-101c3.33301 36 12.666 63.667 27.999 83s32.833 32.666 52.5 39.999s37.167 11 52.5 11
c20 0 38.333 -3.83301 55 -11.5l47 -22.5c14.667 -7.33301 28.334 -11 41.001 -11c9.33301 0 17.333 2.83301 24 8.5s10.334 15.167 11.001 28.5h101c-4.66699 -44 -19.334 -77.333 -44.001 -100s-54.667 -34 -90 -34z" />
    <glyph glyph-name="uni0304" unicode="&#x304;" 
d="M20 640v97h276v-97h-276z" />
    <glyph glyph-name="uni0306" unicode="&#x306;" 
d="M179 640c-29.333 0 -56 6.66406 -80 19.9971s-43.167 31.333 -57.5 54s-21.5 47.334 -21.5 74.001h95c0 -17.333 6.5 -32 19.5 -44s27.833 -18 44.5 -18c17.333 0 32 6 44 18s18 26.667 18 44h95c0 -27.333 -7 -52.166 -21 -74.499s-32.833 -40.166 -56.5 -53.499
s-50.167 -20 -79.5 -20z" />
    <glyph glyph-name="uni0307" unicode="&#x307;" 
d="M99 640c-22 0 -40.667 7.66797 -56 23.001s-23 33.666 -23 54.999s7.66699 39.666 23 54.999s34 23 56 23c21.333 0 39.5 -7.66699 54.5 -23s22.5 -33.666 22.5 -54.999c0 -22 -7.5 -40.5 -22.5 -55.5s-33.167 -22.5 -54.5 -22.5z" />
    <glyph glyph-name="uni0308" unicode="&#x308;" 
d="M99 640c-22 0 -40.667 7.66797 -56 23.001s-23 33.666 -23 54.999s7.66699 39.666 23 54.999s34 23 56 23c21.333 0 39.5 -7.66699 54.5 -23s22.5 -33.666 22.5 -54.999c0 -22 -7.5 -40.5 -22.5 -55.5s-33.167 -22.5 -54.5 -22.5zM314 640.001
c-22 0 -40.5 7.66699 -55.5 23s-22.5 33.666 -22.5 54.999c0 22 7.66699 40.5 23 55.5s33.666 22.5 54.999 22.5c22 0 40.5 -7.66699 55.5 -23s22.5 -33.666 22.5 -54.999c0 -22 -7.66699 -40.5 -23 -55.5s-33.666 -22.5 -54.999 -22.5z" />
    <glyph glyph-name="uni030A" unicode="&#x30a;" 
d="M140 640c-23.333 0 -44.0029 5.16699 -62.0029 15.5s-32.167 24 -42.5 41s-15.5 35.167 -15.5 54.5c0 31.333 11.333 58 34 80s51.334 33 86.001 33c35.333 0 64.333 -11 87 -33s34 -48.667 34 -80c0 -19.333 -5.16699 -37.5 -15.5 -54.5s-24.666 -30.667 -42.999 -41
s-39.166 -15.5 -62.499 -15.5zM139.997 714c12 0 21.833 3.83301 29.5 11.5s11.5 16.5 11.5 26.5c0 10.667 -3.83301 19.667 -11.5 27s-17.5 11 -29.5 11c-11.333 0 -20.833 -3.66699 -28.5 -11s-11.5 -16.333 -11.5 -27c0 -10 3.83301 -18.833 11.5 -26.5
s17.167 -11.5 28.5 -11.5z" />
    <glyph glyph-name="uni030B" unicode="&#x30b;" 
d="M20 640l66 161h133l-96 -161h-103zM196 640l65 161h134l-96 -161h-103z" />
    <glyph glyph-name="uni030C" unicode="&#x30c;" 
d="M140 640l-120 160h112l70 -101l72 101h110l-121 -160h-123z" />
    <glyph glyph-name="uni0326" unicode="&#x326;" 
d="M20 -240l73 190h158l-127 -190h-104z" />
    <glyph glyph-name="uni0327" unicode="&#x327;" 
d="M154 -210c-17.333 0 -37.8311 2.99902 -61.498 8.99902s-47.834 19 -72.501 39l39 67c9.33301 -8.66699 21.5 -16.167 36.5 -22.5s30.833 -9.5 47.5 -9.5c15.333 0 28.166 4 38.499 12s15.5 19.667 15.5 35s-7.83301 30.5 -23.5 45.5s-44.167 27.5 -85.5 37.5l50 26
c50 -8 87.5 -23.667 112.5 -47s37.5 -51.666 37.5 -84.999c0 -25.333 -6.5 -45.833 -19.5 -61.5s-29.833 -27.167 -50.5 -34.5s-42 -11 -64 -11z" />
    <glyph glyph-name="uni0328" unicode="&#x328;" 
d="M154 -201c-22 0 -43.167 3.66797 -63.5 11.001s-37.166 19 -50.499 35s-20 36.333 -20 61c0 34 14.333 62.667 43 86s69.334 38.666 122.001 45.999l37 -26c-42.667 -10 -71.834 -22.333 -87.501 -37s-23.5 -30 -23.5 -46c0 -14.667 5.16699 -26.167 15.5 -34.5
s24.166 -12.5 41.499 -12.5s33 3.16699 47 9.5s25.333 13.833 34 22.5l39 -67c-22.667 -18 -45 -30.5 -67 -37.5s-44.333 -10.5 -67 -10.5z" />
    <glyph glyph-name="uni0335" unicode="&#x335;" 
d="M20 257v130h448v-130h-448z" />
    <glyph glyph-name="uni0336" unicode="&#x336;" 
d="M20 258v127h723v-127h-723z" />
    <glyph glyph-name="uni0394" unicode="&#x394;" horiz-adv-x="617" 
d="M5 0v100l256 645h95l256 -645v-100h-607zM166 126h285l-143 365z" />
    <glyph glyph-name="uni03A9" unicode="&#x3a9;" horiz-adv-x="880" 
d="M35 1l-0.000976562 130.999h113c-34 32.667 -58 69.167 -72 109.5s-21 81.833 -21 124.5c0 58 9.66699 111 29 159s46.333 89.333 81 124s75.334 61.334 122.001 80.001s97.667 28 153 28c54 0 104.333 -9.33301 151 -28s87.5 -45.167 122.5 -79.5
s62.333 -75.5 82 -123.5s29.5 -101.333 29.5 -160c0 -44.667 -7.16699 -87 -21.5 -127s-38.166 -75.667 -71.499 -107h113v-131l-329 -1v131c52 16 91.5 45.5 118.5 88.5s40.5 91.833 40.5 146.5c0 52.667 -10 98.334 -30 137.001s-47.667 68.5 -83 89.5s-76 31.5 -122 31.5
c-44.667 0 -84.834 -10.5 -120.501 -31.5s-63.667 -50.833 -84 -89.5s-30.5 -84.334 -30.5 -137.001c0 -54 13.5 -102.667 40.5 -146s66.833 -73 119.5 -89v-131z" />
    <glyph glyph-name="pi" unicode="&#x3c0;" horiz-adv-x="692" 
d="M134 0v407h-124v130h672v-130h-124v-407h-150v407h-124v-407h-150z" />
    <glyph glyph-name="endash" unicode="&#x2013;" horiz-adv-x="610" 
d="M55 204v130h500v-130h-500z" />
    <glyph glyph-name="emdash" unicode="&#x2014;" horiz-adv-x="916" 
d="M55 204v130h806v-130h-806z" />
    <glyph glyph-name="quoteleft" unicode="&#x2018;" horiz-adv-x="296" 
d="M55 480l76 265h100l-41 -265h-135z" />
    <glyph glyph-name="quoteright" unicode="&#x2019;" horiz-adv-x="296" 
d="M55 480l41 265h135l-76 -265h-100z" />
    <glyph glyph-name="quotesinglbase" unicode="&#x201a;" horiz-adv-x="296" 
d="M55 -115l41 265h135l-76 -265h-100z" />
    <glyph glyph-name="quotedblleft" unicode="&#x201c;" horiz-adv-x="511" 
d="M270 480l76 265h100l-41 -265h-135zM55 480l76 265h100l-41 -265h-135z" />
    <glyph glyph-name="quotedblright" unicode="&#x201d;" horiz-adv-x="511" 
d="M55 480l41 265h135l-76 -265h-100zM270 480l41 265h135l-76 -265h-100z" />
    <glyph glyph-name="quotedblbase" unicode="&#x201e;" horiz-adv-x="511" 
d="M55 -115l41 265h135l-76 -265h-100zM270 -115l41 265h135l-76 -265h-100z" />
    <glyph glyph-name="dagger" unicode="&#x2020;" horiz-adv-x="700" 
d="M275 -195v603h-195v130h195v207h150v-207h195v-130h-195v-603h-150z" />
    <glyph glyph-name="daggerdbl" unicode="&#x2021;" horiz-adv-x="700" 
d="M275 -195v207h-195v130h195v266h-195v130h195v207h150v-207h195v-130h-195v-266h195v-130h-195v-207h-150z" />
    <glyph glyph-name="bullet" unicode="&#x2022;" horiz-adv-x="493" 
d="M248 174c-34.667 0 -65.834 8 -93.501 24s-49.5 37.833 -65.5 65.5s-24 58.834 -24 93.501c0 34 8 64.5 24 91.5s37.833 48.5 65.5 64.5s58.834 24 93.501 24c34 0 64.5 -8 91.5 -24s48.5 -37.5 64.5 -64.5s24 -57.5 24 -91.5c0 -34.667 -8 -65.834 -24 -93.501
s-37.5 -49.5 -64.5 -65.5s-57.5 -24 -91.5 -24z" />
    <glyph glyph-name="ellipsis" unicode="&#x2026;" horiz-adv-x="880" 
d="M65 0v150h150v-150h-150zM365 0v150h150v-150h-150zM665 0v150h150v-150h-150z" />
    <glyph glyph-name="perthousand" unicode="&#x2030;" horiz-adv-x="1253" 
d="M270 378c-34.667 0 -66.332 8.5 -94.999 25.5s-51.667 39.833 -69 68.5s-26 60.334 -26 95.001c0 35.333 8.5 67.333 25.5 96s40 51.5 69 68.5s60.833 25.5 95.5 25.5c35.333 0 67.333 -8.5 96 -25.5s51.5 -39.833 68.5 -68.5s25.5 -60.667 25.5 -96
c0 -34.667 -8.66699 -66.334 -26 -95.001s-40.333 -51.5 -69 -68.5s-60.334 -25.5 -95.001 -25.5zM983.002 378c-34.667 0 -66.334 8.5 -95.001 25.5s-51.5 40 -68.5 69s-25.5 60.833 -25.5 95.5s8.5 66.334 25.5 95.001s39.833 51.5 68.5 68.5s60.334 25.5 95.001 25.5
c35.333 0 67.333 -8.5 96 -25.5s51.5 -39.833 68.5 -68.5s25.5 -60.334 25.5 -95.001s-8.5 -66.5 -25.5 -95.5s-39.833 -52 -68.5 -69s-60.667 -25.5 -96 -25.5zM289.002 0l330 745h142l-330 -745h-142zM983.002 497c20 0 36.833 6.83301 50.5 20.5s20.5 30.5 20.5 50.5
c0 19.333 -6.83301 36 -20.5 50s-30.5 21 -50.5 21s-36.833 -7 -50.5 -21s-20.5 -30.667 -20.5 -50c0 -20 6.83301 -36.833 20.5 -50.5s30.5 -20.5 50.5 -20.5zM270.002 496c20 0 36.833 7 50.5 21s20.5 30.667 20.5 50c0 20 -6.83301 36.833 -20.5 50.5
s-30.5 20.5 -50.5 20.5s-36.833 -6.83301 -50.5 -20.5s-20.5 -30.5 -20.5 -50.5s6.83301 -36.833 20.5 -50.5s30.5 -20.5 50.5 -20.5zM794.002 -12c-34.667 0 -66.334 8.5 -95.001 25.5s-51.5 40 -68.5 69s-25.5 60.833 -25.5 95.5s8.5 66.334 25.5 95.001
s39.833 51.5 68.5 68.5s60.334 25.5 95.001 25.5c35.333 0 67.333 -8.5 96 -25.5s51.5 -39.833 68.5 -68.5s25.5 -60.334 25.5 -95.001s-8.5 -66.5 -25.5 -95.5s-39.833 -52 -68.5 -69s-60.667 -25.5 -96 -25.5zM794.002 107c20 0 36.833 6.83301 50.5 20.5
s20.5 30.5 20.5 50.5c0 19.333 -6.83301 36 -20.5 50s-30.5 21 -50.5 21s-36.833 -7 -50.5 -21s-20.5 -30.667 -20.5 -50c0 -20 6.83301 -36.833 20.5 -50.5s30.5 -20.5 50.5 -20.5z" />
    <glyph glyph-name="guilsinglleft" unicode="&#x2039;" horiz-adv-x="387" 
d="M179 69l-154 200l154 200h163l-152 -200l152 -200h-163z" />
    <glyph glyph-name="guilsinglright" unicode="&#x203a;" horiz-adv-x="387" 
d="M208 69h-163l152 200l-152 200h163l154 -200z" />
    <glyph glyph-name="fraction" unicode="&#x2044;" horiz-adv-x="202" 
d="M-120 0l330 745h112l-330 -745h-112z" />
    <glyph glyph-name="uni2070" unicode="&#x2070;" horiz-adv-x="426" 
d="M213 291c-36 0 -67.8311 9.66699 -95.498 29s-49.167 46.333 -64.5 81s-23 75 -23 121s7.66699 86.167 23 120.5s36.666 61.166 63.999 80.499s59 29 95 29c37.333 0 69.666 -9.66699 96.999 -29s48.666 -46.166 63.999 -80.499s23 -74.5 23 -120.5
s-7.66699 -86.333 -23 -121s-36.666 -61.667 -63.999 -81s-59.333 -29 -96 -29zM213.002 391c23.333 0 41.001 11.167 53.001 33.5s18 54.833 18 97.5c0 42 -6 74.167 -18 96.5s-30 33.5 -54 33.5c-23.333 0 -41 -11.167 -53 -33.5s-18 -54.5 -18 -96.5
s6.16699 -74.333 18.5 -97s30.166 -34 53.499 -34z" />
    <glyph glyph-name="uni2074" unicode="&#x2074;" horiz-adv-x="437" 
d="M417 484v-94h-81v-92h-114v92h-192v94l183 261h123v-261h81zM137 484h85v128z" />
    <glyph glyph-name="uni2075" unicode="&#x2075;" horiz-adv-x="386" 
d="M180 291c-36 0 -68.333 8.99805 -97 26.998s-48 41.333 -58 70l89 52c5.33301 -14 13.833 -25.5 25.5 -34.5s25.167 -13.5 40.5 -13.5c16 0 29 5.33301 39 16s15 24.334 15 41.001c0 17.333 -5 31 -15 41s-23 15 -39 15c-21.333 0 -36 -12 -44 -36l-91 23l50 253h245v-93
l-172 1l-12 -64c13.333 6 29.333 9 48 9c42 0 76.167 -13 102.5 -39s39.5 -59.667 39.5 -101c0 -31.333 -7.33301 -59.666 -22 -84.999s-34.5 -45.333 -59.5 -60s-53.167 -22 -84.5 -22z" />
    <glyph glyph-name="uni2076" unicode="&#x2076;" horiz-adv-x="392" 
d="M196 291c-32 0 -60.5 6.50098 -85.5 19.501s-44.667 30.833 -59 53.5s-21.5 47.667 -21.5 75c0 19.333 4 36.333 12 51s18 30.667 30 48l144 207h126l-106 -157c25.333 -2.66699 47.333 -11 66 -25s33.334 -31.667 44.001 -53s16 -44 16 -68
c0 -28.667 -7.16699 -54.334 -21.5 -77.001s-33.833 -40.667 -58.5 -54s-53.334 -20 -86.001 -20zM196 392.001c14.667 0 27.333 4.83301 38 14.5s16 22.834 16 39.501s-5.5 29.667 -16.5 39s-23.5 14 -37.5 14s-26.5 -4.66699 -37.5 -14s-16.5 -22.333 -16.5 -39
s5.5 -29.834 16.5 -39.501s23.5 -14.5 37.5 -14.5z" />
    <glyph glyph-name="uni2077" unicode="&#x2077;" horiz-adv-x="352" 
d="M50 297l172 355h-207v93h317v-93l-164 -355h-118z" />
    <glyph glyph-name="uni2078" unicode="&#x2078;" horiz-adv-x="419" 
d="M209 291c-32 0 -60.668 6.16504 -86.001 18.498s-45.5 29.166 -60.5 50.499s-22.5 45.333 -22.5 72c0 42.667 19.333 74.334 58 95.001c-14.667 10 -26.167 23.833 -34.5 41.5s-12.5 36.167 -12.5 55.5c0 37.333 14.833 68 44.5 92s67.5 36 113.5 36
c30.667 0 57.834 -5.5 81.501 -16.5s42.5 -26.167 56.5 -45.5s21 -41.333 21 -66c0 -19.333 -4.33301 -37.666 -13 -54.999s-20 -31.333 -34 -42c38.667 -22 58 -53.667 58 -95c0 -26.667 -7.5 -50.667 -22.5 -72s-35.167 -38.166 -60.5 -50.499s-54.333 -18.5 -87 -18.5z
M208.999 570.998c13.333 0 24 4.00098 32 12.001s12 18.333 12 31c0 13.333 -4 24.166 -12 32.499s-18.667 12.5 -32 12.5s-24.166 -4 -32.499 -12s-12.5 -19 -12.5 -33c0 -12.667 4.16699 -23 12.5 -31s19.166 -12 32.499 -12zM208.999 383.999
c17.333 0 31.333 4.16699 42 12.5s16 19.833 16 34.5s-5.16699 26.167 -15.5 34.5s-24.5 12.5 -42.5 12.5c-17.333 0 -31 -4.16699 -41 -12.5s-15 -19.833 -15 -34.5s5 -26.167 15 -34.5s23.667 -12.5 41 -12.5z" />
    <glyph glyph-name="uni2079" unicode="&#x2079;" horiz-adv-x="392" 
d="M50 298l106.001 157c-25.333 2.66699 -47.333 11 -66 25s-33.334 31.667 -44.001 53s-16 44 -16 68c0 28.667 7.16699 54.334 21.5 77.001s34 40.667 59 54s53.5 20 85.5 20c32.667 0 61.334 -6.5 86.001 -19.5s44.167 -30.667 58.5 -53s21.5 -47.5 21.5 -75.5
c0 -18.667 -3.83301 -35.334 -11.5 -50.001s-17.834 -31 -30.501 -49l-144 -207h-126zM196.001 544c14 0 26.501 4.66699 37.501 14s16.5 22.333 16.5 39s-5.33301 29.834 -16 39.501s-23.334 14.5 -38.001 14.5c-14 0 -26.5 -4.83301 -37.5 -14.5
s-16.5 -22.834 -16.5 -39.501s5.5 -29.667 16.5 -39s23.5 -14 37.5 -14z" />
    <glyph glyph-name="uni2080" unicode="&#x2080;" horiz-adv-x="426" 
d="M213 -7c-36 0 -67.8311 9.66699 -95.498 29s-49.167 46.333 -64.5 81s-23 75 -23 121s7.66699 86.167 23 120.5s36.666 61.166 63.999 80.499s59 29 95 29c37.333 0 69.666 -9.66699 96.999 -29s48.666 -46.166 63.999 -80.499s23 -74.5 23 -120.5
s-7.66699 -86.333 -23 -121s-36.666 -61.667 -63.999 -81s-59.333 -29 -96 -29zM213.002 93c23.333 0 41.001 11.167 53.001 33.5s18 54.833 18 97.5c0 42 -6 74.167 -18 96.5s-30 33.5 -54 33.5c-23.333 0 -41 -11.167 -53 -33.5s-18 -54.5 -18 -96.5
s6.16699 -74.333 18.5 -97s30.166 -34 53.499 -34z" />
    <glyph glyph-name="uni2081" unicode="&#x2081;" horiz-adv-x="341" 
d="M104 0v353h-84v93l196 1v-447h-112z" />
    <glyph glyph-name="uni2082" unicode="&#x2082;" horiz-adv-x="375" 
d="M26 0l-1.00098 90.001l118 120c29.333 30 49.666 52 60.999 66s17 26.333 17 37c0 11.333 -4 20.833 -12 28.5s-18.333 11.5 -31 11.5s-24.667 -4.33301 -36 -13s-19.666 -20.334 -24.999 -35.001l-87 52c10 30.667 29.333 54.5 58 71.5s61.667 25.5 99 25.5
c43.333 0 78.333 -11.333 105 -34s40 -53 40 -91c0 -24 -6.16699 -46.333 -18.5 -67s-30.166 -43 -53.499 -67l-100 -102h175v-93h-309z" />
    <glyph glyph-name="uni2083" unicode="&#x2083;" horiz-adv-x="390" 
d="M179 -7c-36 0 -67.833 8.83301 -95.5 26.5s-47.167 41.167 -58.5 70.5l88 52c11.333 -32 33.333 -48 66 -48c18.667 0 33.334 5 44.001 15s16 23.333 16 40c0 34.667 -20 52 -60 52c-20.667 0 -40 -5 -58 -15l-29 53l116 115h-163v93h287v-84l-79 -86
c29.333 -6 52.833 -19.5 70.5 -40.5s26.5 -48.5 26.5 -82.5c0 -30.667 -7.5 -58.167 -22.5 -82.5s-35.333 -43.5 -61 -57.5s-54.834 -21 -87.501 -21z" />
    <glyph glyph-name="uni2084" unicode="&#x2084;" horiz-adv-x="437" 
d="M417 186v-94h-81v-92h-114v92h-192v94l183 261h123v-261h81zM137 186h85v128z" />
    <glyph glyph-name="uni2085" unicode="&#x2085;" horiz-adv-x="386" 
d="M180 -7c-36 0 -68.333 8.99805 -97 26.998s-48 41.333 -58 70l89 52c5.33301 -14 13.833 -25.5 25.5 -34.5s25.167 -13.5 40.5 -13.5c16 0 29 5.33301 39 16s15 24.334 15 41.001c0 17.333 -5 31 -15 41s-23 15 -39 15c-21.333 0 -36 -12 -44 -36l-91 23l50 253h245v-93
l-172 1l-12 -64c13.333 6 29.333 9 48 9c42 0 76.167 -13 102.5 -39s39.5 -59.667 39.5 -101c0 -31.333 -7.33301 -59.666 -22 -84.999s-34.5 -45.333 -59.5 -60s-53.167 -22 -84.5 -22z" />
    <glyph glyph-name="uni2086" unicode="&#x2086;" horiz-adv-x="392" 
d="M196 -7c-32 0 -60.5 6.50098 -85.5 19.501s-44.667 30.833 -59 53.5s-21.5 47.667 -21.5 75c0 19.333 4 36.333 12 51s18 30.667 30 48l144 207h126l-106 -157c25.333 -2.66699 47.333 -11 66 -25s33.334 -31.667 44.001 -53s16 -44 16 -68
c0 -28.667 -7.16699 -54.334 -21.5 -77.001s-33.833 -40.667 -58.5 -54s-53.334 -20 -86.001 -20zM196 94.001c14.667 0 27.333 4.83301 38 14.5s16 22.834 16 39.501s-5.5 29.667 -16.5 39s-23.5 14 -37.5 14s-26.5 -4.66699 -37.5 -14s-16.5 -22.333 -16.5 -39
s5.5 -29.834 16.5 -39.501s23.5 -14.5 37.5 -14.5z" />
    <glyph glyph-name="uni2087" unicode="&#x2087;" horiz-adv-x="352" 
d="M50 0l172 355h-207v93h317v-93l-164 -355h-118z" />
    <glyph glyph-name="uni2088" unicode="&#x2088;" horiz-adv-x="419" 
d="M209 -7c-32 0 -60.668 6.16504 -86.001 18.498s-45.5 29.166 -60.5 50.499s-22.5 45.333 -22.5 72c0 42.667 19.333 74.334 58 95.001c-14.667 10 -26.167 23.833 -34.5 41.5s-12.5 36.167 -12.5 55.5c0 37.333 14.833 68 44.5 92s67.5 36 113.5 36
c30.667 0 57.834 -5.5 81.501 -16.5s42.5 -26.167 56.5 -45.5s21 -41.333 21 -66c0 -19.333 -4.33301 -37.666 -13 -54.999s-20 -31.333 -34 -42c38.667 -22 58 -53.667 58 -95c0 -26.667 -7.5 -50.667 -22.5 -72s-35.167 -38.166 -60.5 -50.499s-54.333 -18.5 -87 -18.5z
M208.999 272.998c13.333 0 24 4.00098 32 12.001s12 18.333 12 31c0 13.333 -4 24.166 -12 32.499s-18.667 12.5 -32 12.5s-24.166 -4 -32.499 -12s-12.5 -19 -12.5 -33c0 -12.667 4.16699 -23 12.5 -31s19.166 -12 32.499 -12zM208.999 85.999
c17.333 0 31.333 4.16699 42 12.5s16 19.833 16 34.5s-5.16699 26.167 -15.5 34.5s-24.5 12.5 -42.5 12.5c-17.333 0 -31 -4.16699 -41 -12.5s-15 -19.833 -15 -34.5s5 -26.167 15 -34.5s23.667 -12.5 41 -12.5z" />
    <glyph glyph-name="uni2089" unicode="&#x2089;" horiz-adv-x="392" 
d="M50 0l106.001 157c-25.333 2.66699 -47.333 11 -66 25s-33.334 31.667 -44.001 53s-16 44 -16 68c0 28.667 7.16699 54.334 21.5 77.001s34 40.667 59 54s53.5 20 85.5 20c32.667 0 61.334 -6.5 86.001 -19.5s44.167 -30.667 58.5 -53s21.5 -47.5 21.5 -75.5
c0 -18.667 -3.83301 -35.334 -11.5 -50.001s-17.834 -31 -30.501 -49l-144 -207h-126zM196.001 246c14 0 26.501 4.66699 37.501 14s16.5 22.333 16.5 39s-5.33301 29.834 -16 39.501s-23.334 14.5 -38.001 14.5c-14 0 -26.5 -4.83301 -37.5 -14.5
s-16.5 -22.834 -16.5 -39.501s5.5 -29.667 16.5 -39s23.5 -14 37.5 -14z" />
    <glyph glyph-name="lira" unicode="&#x20a4;" horiz-adv-x="803" 
d="M141 0l0.00195312 129.999h120v81h-120v100h120v80h-120v100h120v14c0 50.667 10.5 94.834 31.5 132.501s50.667 67 89 88s82.833 31.5 133.5 31.5c59.333 0 111.166 -14.5 155.499 -43.5s74.833 -68.833 91.5 -119.5l-122 -70c-9.33301 30 -24.833 53 -46.5 69
s-47.834 24 -78.501 24c-33.333 0 -59 -9.66699 -77 -29s-27 -47 -27 -83v-14h159v-100h-159v-80h159v-100h-159v-81h318v-130h-588z" />
    <glyph glyph-name="Euro" unicode="&#x20ac;" horiz-adv-x="785" 
d="M20 241l27.999 100.002h76c-0.666992 10.667 -1 21.334 -1 32.001v18h-63l28 100h49c12.667 54 34.334 101 65.001 141s68.334 70.833 113.001 92.5s94.334 32.5 149.001 32.5c69.333 0 130.166 -17.833 182.499 -53.5s88.5 -84.167 108.5 -145.5l-136 -66
c-11.333 39.333 -30.666 70 -57.999 92s-59.666 33 -96.999 33c-38 0 -71.5 -11.333 -100.5 -34s-50.833 -53.334 -65.5 -92.001h270l-28 -100h-263v-18c0 -10.667 0.333008 -21.334 1 -32.001h250l-28 -100h-197c15.333 -35.333 37 -63 65 -83s60 -30 96 -30
c37.333 0 69.666 11.167 96.999 33.5s46.666 52.833 57.999 91.5l136 -66c-13.333 -40.667 -34 -75.834 -62 -105.501s-61.5 -52.667 -100.5 -69s-81.833 -24.5 -128.5 -24.5c-52.667 0 -100.667 10.5 -144 31.5s-80.333 50.333 -111 88s-53.334 82.167 -68.001 133.5h-121z
" />
    <glyph glyph-name="uni2113" unicode="&#x2113;" horiz-adv-x="602" 
d="M343 -10c-41.333 0 -78.0039 9.99902 -110.004 29.999s-58.667 48 -80 84c-26 -10.667 -49.333 -19.334 -70 -26.001s-35.667 -11 -45 -13l-33 149c36.667 9.33301 71.334 20.666 104.001 33.999c-1.33301 11.333 -2.33301 22.833 -3 34.5s-1 23.834 -1 36.501
c0 56 6.83301 108.5 20.5 157.5s32.834 91.833 57.501 128.5s54 65.334 88 86.001s71 31 111 31c34.667 0 67.167 -7.83301 97.5 -23.5s55 -38.334 74 -68.001s28.5 -65.5 28.5 -107.5c0 -37.333 -7.83301 -72.666 -23.5 -105.999s-36.667 -64.666 -63 -93.999
s-56 -56.166 -89 -80.499s-66.833 -46.5 -101.5 -66.5c5.33301 -13.333 12.666 -24 21.999 -32s20.333 -12 33 -12c16 0 30.5 5.66699 43.5 17s21.167 24.333 24.5 39l152 -15c-7.33301 -35.333 -22.666 -66.833 -45.999 -94.5s-51.666 -49.334 -84.999 -65.001
s-68.666 -23.5 -105.999 -23.5zM288.996 349.999c35.333 28 63.501 56.667 84.501 86s31.5 57.333 31.5 84c0 11.333 -2.33301 22.5 -7 33.5s-12.667 16.5 -24 16.5c-18 0 -34.333 -15.667 -49 -47s-25.334 -72.333 -32.001 -123l-2 -24.5z" />
    <glyph glyph-name="trademark" unicode="&#x2122;" horiz-adv-x="1197" 
d="M200 223v399h-125v123h389v-123h-123v-399h-141zM982 745h140v-522h-141v293l-148 -177h-21l-147 186v-302h-141v522h140l158 -195z" />
    <glyph glyph-name="estimated" unicode="&#x212e;" horiz-adv-x="790" 
d="M403 -10c-56.667 0 -108.498 9.33203 -155.498 27.999s-87.5 44.5 -121.5 77.5s-60.167 71.167 -78.5 114.5s-27.5 89.666 -27.5 138.999c0 50 9.33301 96.833 28 140.5s45 82 79 115s74.167 58.833 120.5 77.5s97.166 28 152.499 28s106.166 -9.33301 152.499 -28
s86.5 -44.5 120.5 -77.5s60.333 -71.167 79 -114.5s28 -90 28 -140v-9h-609c-3.33301 0 -5 -2 -5 -6v-195c0 -4.66699 0.5 -8.16699 1.5 -10.5s3.83301 -6.16602 8.5 -11.499c26 -30 56.667 -55.167 92 -75.5s80.333 -30.5 135 -30.5c54 0 98.833 10.333 134.5 31
s69.5 49.334 101.5 86.001h58c-23.333 -27.333 -48.5 -51.5 -75.5 -72.5s-58.167 -37.333 -93.5 -49s-77 -17.5 -125 -17.5zM171.002 359.999l458.003 0.000976562c2.66699 0 4 2 4 6v196c0 2 -0.333008 5.33301 -1 10s-3.66699 9.33398 -9 14.001
c-20 21.333 -40.167 39.666 -60.5 54.999s-43.333 27 -69 35s-56.834 12 -93.501 12c-54.667 0 -99.334 -10.333 -134.001 -31s-64.334 -45.334 -89.001 -74.001c-5.33301 -6.66699 -8.5 -11 -9.5 -13s-1.5 -5.66699 -1.5 -11v-193c0 -4 1.66699 -6 5 -6z" />
    <glyph glyph-name="oneeighth" unicode="&#x215b;" horiz-adv-x="962" 
d="M104 298v353h-84v93l196 1v-447h-112zM221 0l330 745h112l-330 -745h-112zM752 -7c-32 0 -60.668 6.16504 -86.001 18.498s-45.5 29.166 -60.5 50.499s-22.5 45.333 -22.5 72c0 42.667 19.333 74.334 58 95.001c-14.667 10 -26.167 23.833 -34.5 41.5
s-12.5 36.167 -12.5 55.5c0 37.333 14.833 68 44.5 92s67.5 36 113.5 36c30.667 0 57.834 -5.5 81.501 -16.5s42.5 -26.167 56.5 -45.5s21 -41.333 21 -66c0 -19.333 -4.33301 -37.666 -13 -54.999s-20 -31.333 -34 -42c38.667 -22 58 -53.667 58 -95
c0 -26.667 -7.5 -50.667 -22.5 -72s-35.167 -38.166 -60.5 -50.499s-54.333 -18.5 -87 -18.5zM751.999 272.998c13.333 0 24 4.00098 32 12.001s12 18.333 12 31c0 13.333 -4 24.166 -12 32.499s-18.667 12.5 -32 12.5s-24.166 -4 -32.499 -12s-12.5 -19 -12.5 -33
c0 -12.667 4.16699 -23 12.5 -31s19.166 -12 32.499 -12zM751.999 85.999c17.333 0 31.333 4.16699 42 12.5s16 19.833 16 34.5s-5.16699 26.167 -15.5 34.5s-24.5 12.5 -42.5 12.5c-17.333 0 -31 -4.16699 -41 -12.5s-15 -19.833 -15 -34.5s5 -26.167 15 -34.5
s23.667 -12.5 41 -12.5z" />
    <glyph glyph-name="threeeighths" unicode="&#x215c;" horiz-adv-x="1011" 
d="M179 291c-36 0 -67.833 8.83301 -95.5 26.5s-47.167 41.167 -58.5 70.5l88 52c11.333 -32 33.333 -48 66 -48c18.667 0 33.334 5 44.001 15s16 23.333 16 40c0 34.667 -20 52 -60 52c-20.667 0 -40 -5 -58 -15l-29 53l116 115h-163v93h287v-84l-79 -86
c29.333 -6 52.833 -19.5 70.5 -40.5s26.5 -48.5 26.5 -82.5c0 -30.667 -7.5 -58.167 -22.5 -82.5s-35.333 -43.5 -61 -57.5s-54.834 -21 -87.501 -21zM270 0l330 745h112l-330 -745h-112zM801 -7c-32 0 -60.668 6.16504 -86.001 18.498s-45.5 29.166 -60.5 50.499
s-22.5 45.333 -22.5 72c0 42.667 19.333 74.334 58 95.001c-14.667 10 -26.167 23.833 -34.5 41.5s-12.5 36.167 -12.5 55.5c0 37.333 14.833 68 44.5 92s67.5 36 113.5 36c30.667 0 57.834 -5.5 81.501 -16.5s42.5 -26.167 56.5 -45.5s21 -41.333 21 -66
c0 -19.333 -4.33301 -37.666 -13 -54.999s-20 -31.333 -34 -42c38.667 -22 58 -53.667 58 -95c0 -26.667 -7.5 -50.667 -22.5 -72s-35.167 -38.166 -60.5 -50.499s-54.333 -18.5 -87 -18.5zM800.999 272.998c13.333 0 24 4.00098 32 12.001s12 18.333 12 31
c0 13.333 -4 24.166 -12 32.499s-18.667 12.5 -32 12.5s-24.166 -4 -32.499 -12s-12.5 -19 -12.5 -33c0 -12.667 4.16699 -23 12.5 -31s19.166 -12 32.499 -12zM800.999 85.999c17.333 0 31.333 4.16699 42 12.5s16 19.833 16 34.5s-5.16699 26.167 -15.5 34.5
s-24.5 12.5 -42.5 12.5c-17.333 0 -31 -4.16699 -41 -12.5s-15 -19.833 -15 -34.5s5 -26.167 15 -34.5s23.667 -12.5 41 -12.5z" />
    <glyph glyph-name="fiveeighths" unicode="&#x215d;" horiz-adv-x="1007" 
d="M180 291c-36 0 -68.333 8.99805 -97 26.998s-48 41.333 -58 70l89 52c5.33301 -14 13.833 -25.5 25.5 -34.5s25.167 -13.5 40.5 -13.5c16 0 29 5.33301 39 16s15 24.334 15 41.001c0 17.333 -5 31 -15 41s-23 15 -39 15c-21.333 0 -36 -12 -44 -36l-91 23l50 253h245v-93
l-172 1l-12 -64c13.333 6 29.333 9 48 9c42 0 76.167 -13 102.5 -39s39.5 -59.667 39.5 -101c0 -31.333 -7.33301 -59.666 -22 -84.999s-34.5 -45.333 -59.5 -60s-53.167 -22 -84.5 -22zM266 -0.00195312l330 745h112l-330 -745h-112zM797 -7.00195
c-32 0 -60.668 6.16504 -86.001 18.498s-45.5 29.166 -60.5 50.499s-22.5 45.333 -22.5 72c0 42.667 19.333 74.334 58 95.001c-14.667 10 -26.167 23.833 -34.5 41.5s-12.5 36.167 -12.5 55.5c0 37.333 14.833 68 44.5 92s67.5 36 113.5 36
c30.667 0 57.834 -5.5 81.501 -16.5s42.5 -26.167 56.5 -45.5s21 -41.333 21 -66c0 -19.333 -4.33301 -37.666 -13 -54.999s-20 -31.333 -34 -42c38.667 -22 58 -53.667 58 -95c0 -26.667 -7.5 -50.667 -22.5 -72s-35.167 -38.166 -60.5 -50.499s-54.333 -18.5 -87 -18.5z
M796.999 272.996c13.333 0 24 4.00098 32 12.001s12 18.333 12 31c0 13.333 -4 24.166 -12 32.499s-18.667 12.5 -32 12.5s-24.166 -4 -32.499 -12s-12.5 -19 -12.5 -33c0 -12.667 4.16699 -23 12.5 -31s19.166 -12 32.499 -12zM796.999 85.9971
c17.333 0 31.333 4.16699 42 12.5s16 19.833 16 34.5s-5.16699 26.167 -15.5 34.5s-24.5 12.5 -42.5 12.5c-17.333 0 -31 -4.16699 -41 -12.5s-15 -19.833 -15 -34.5s5 -26.167 15 -34.5s23.667 -12.5 41 -12.5z" />
    <glyph glyph-name="seveneighths" unicode="&#x215e;" horiz-adv-x="973" 
d="M50 297l172 355h-207v93h317v-93l-164 -355h-118zM232 0l330 745h112l-330 -745h-112zM763 -7c-32 0 -60.668 6.16504 -86.001 18.498s-45.5 29.166 -60.5 50.499s-22.5 45.333 -22.5 72c0 42.667 19.333 74.334 58 95.001c-14.667 10 -26.167 23.833 -34.5 41.5
s-12.5 36.167 -12.5 55.5c0 37.333 14.833 68 44.5 92s67.5 36 113.5 36c30.667 0 57.834 -5.5 81.501 -16.5s42.5 -26.167 56.5 -45.5s21 -41.333 21 -66c0 -19.333 -4.33301 -37.666 -13 -54.999s-20 -31.333 -34 -42c38.667 -22 58 -53.667 58 -95
c0 -26.667 -7.5 -50.667 -22.5 -72s-35.167 -38.166 -60.5 -50.499s-54.333 -18.5 -87 -18.5zM762.999 272.998c13.333 0 24 4.00098 32 12.001s12 18.333 12 31c0 13.333 -4 24.166 -12 32.499s-18.667 12.5 -32 12.5s-24.166 -4 -32.499 -12s-12.5 -19 -12.5 -33
c0 -12.667 4.16699 -23 12.5 -31s19.166 -12 32.499 -12zM762.999 85.999c17.333 0 31.333 4.16699 42 12.5s16 19.833 16 34.5s-5.16699 26.167 -15.5 34.5s-24.5 12.5 -42.5 12.5c-17.333 0 -31 -4.16699 -41 -12.5s-15 -19.833 -15 -34.5s5 -26.167 15 -34.5
s23.667 -12.5 41 -12.5z" />
    <glyph glyph-name="partialdiff" unicode="&#x2202;" horiz-adv-x="576" 
d="M288 -12c-54 0 -102.832 12.333 -146.499 37s-78.167 58.334 -103.5 101.001s-38 90.667 -38 144c0 39.333 7.33301 76 22 110s35.167 63.667 61.5 89s57 45.166 92 59.499s72.5 21.5 112.5 21.5c32.667 0 66 -6.33301 100 -19c-6 31.333 -19.5 58.666 -40.5 81.999
s-46.5 41.5 -76.5 54.5s-61.667 19.5 -95 19.5c-18 0 -36.333 -2 -55 -6s-37 -10.333 -55 -19l-15 128c37.333 18 85.333 27 144 27c77.333 0 144.5 -19.667 201.5 -59s101.167 -94.666 132.5 -165.999s47 -155.333 47 -252c0 -70 -10.833 -131.5 -32.5 -184.5
s-53.834 -94.167 -96.501 -123.5s-95.667 -44 -159 -44zM288.001 123c21.333 0 41.499 4.66699 60.499 14s34.5 25.5 46.5 48.5s18 54.167 18 93.5v98c-15.333 12 -33.166 21.333 -53.499 28s-40.833 10 -61.5 10c-95.333 0 -143 -48.667 -143 -146
c0 -46 11.667 -81.833 35 -107.5s56 -38.5 98 -38.5z" />
    <glyph glyph-name="product" unicode="&#x220f;" horiz-adv-x="875" 
d="M189 0v610h-149v135h795v-135h-147v-610h-155v610h-189v-610h-155z" />
    <glyph glyph-name="summation" unicode="&#x2211;" horiz-adv-x="522" 
d="M25 0v99l180 274l-180 273v99h482v-130h-307l151 -242l-151 -243h307v-130h-482z" />
    <glyph glyph-name="minus" unicode="&#x2212;" horiz-adv-x="660" 
d="M100 293v125h460v-125h-460z" />
    <glyph glyph-name="uni2215" unicode="&#x2215;" horiz-adv-x="440" 
d="M-20 0l330 745h162l-330 -745h-162z" />
    <glyph glyph-name="uni2219" unicode="&#x2219;" horiz-adv-x="529" 
d="M266 151c-38 0 -72.167 8.83301 -102.5 26.5s-54.333 41.667 -72 72s-26.5 64.5 -26.5 102.5c0 37.333 8.83301 70.833 26.5 100.5s41.667 53.334 72 71.001s64.5 26.5 102.5 26.5c37.333 0 70.833 -8.83301 100.5 -26.5s53.334 -41.334 71.001 -71.001
s26.5 -63.167 26.5 -100.5c0 -38 -8.83301 -72.167 -26.5 -102.5s-41.334 -54.333 -71.001 -72s-63.167 -26.5 -100.5 -26.5z" />
    <glyph glyph-name="radical" unicode="&#x221a;" horiz-adv-x="817" 
d="M226 0l-156 355h134l77 -167l231 557h235v-130h-153l-258 -615h-110z" />
    <glyph glyph-name="infinity" unicode="&#x221e;" horiz-adv-x="819" 
d="M276 169c-34 0 -65.167 8.33301 -93.5 25s-50.833 39.167 -67.5 67.5s-25 59.5 -25 93.5c0 34.667 8.33301 66 25 94s39.167 50.333 67.5 67s59.5 25 93.5 25c26 0 50.667 -5 74 -15s43.333 -23.667 60 -41c16.667 17.333 36.5 31 59.5 41s47.5 15 73.5 15
c34.667 0 66 -8.33301 94 -25s50.333 -39 67 -67s25 -59.333 25 -94c0 -34 -8.33301 -65.167 -25 -93.5s-39 -50.833 -67 -67.5s-59.333 -25 -94 -25c-26 0 -50.5 5.16699 -73.5 15.5s-42.833 23.833 -59.5 40.5c-16.667 -16.667 -36.667 -30.167 -60 -40.5
s-48 -15.5 -74 -15.5zM276 274c22.667 0 41.834 7.83301 57.501 23.5s23.5 34.834 23.5 57.501s-7.83301 41.834 -23.5 57.501s-34.834 23.5 -57.501 23.5s-41.834 -7.83301 -57.501 -23.5s-23.5 -34.834 -23.5 -57.501s7.83301 -41.834 23.5 -57.501
s34.834 -23.5 57.501 -23.5zM543 274c22.667 0 41.834 7.83301 57.501 23.5s23.5 34.834 23.5 57.501s-7.83301 41.834 -23.5 57.501s-34.834 23.5 -57.501 23.5s-41.834 -7.83301 -57.501 -23.5s-23.5 -34.834 -23.5 -57.501s7.83301 -41.834 23.5 -57.501
s34.834 -23.5 57.501 -23.5z" />
    <glyph glyph-name="integral" unicode="&#x222b;" horiz-adv-x="408" 
d="M62 -200c-19.333 0 -36.666 1.66699 -51.999 5v128c12 -2 22.333 -3 31 -3c55.333 0 83 23.667 83 71v555c0 64 18.667 113.5 56 148.5s89.333 52.5 156 52.5c19.333 0 36.666 -1.66699 51.999 -5v-128c-12 2 -22.333 3 -31 3c-55.333 0 -83 -23.667 -83 -71v-555
c0 -64 -18.5 -113.5 -55.5 -148.5s-89.167 -52.5 -156.5 -52.5z" />
    <glyph glyph-name="approxequal" unicode="&#x2248;" horiz-adv-x="698" 
d="M100 383l0.000976562 118c20.667 22.667 45 39 73 49s55.667 15 83 15c24 0 44 -3 60 -9s30.5 -12.667 43.5 -20s27 -14 42 -20s32.833 -9 53.5 -9c21.333 0 45 4.33301 71 13s50 24 72 46v-118c-18.667 -22.667 -41.334 -39 -68.001 -49s-52.667 -15 -78 -15
c-24.667 0 -45.5 3 -62.5 9s-32.5 12.667 -46.5 20s-28.667 14 -44 20s-34 9 -56 9c-21.333 0 -45 -4.33301 -71 -13s-50 -24 -72 -46zM100.001 143l0.000976562 118c20.667 22.667 45 39 73 49s55.667 15 83 15c24 0 44 -3 60 -9s30.5 -12.667 43.5 -20s27 -14 42 -20
s32.833 -9 53.5 -9c21.333 0 45 4.33301 71 13s50 24 72 46v-118c-18.667 -22.667 -41.334 -39 -68.001 -49s-52.667 -15 -78 -15c-24.667 0 -45.5 3 -62.5 9s-32.5 12.667 -46.5 20s-28.667 14 -44 20s-34 9 -56 9c-21.333 0 -45 -4.33301 -71 -13s-50 -24 -72 -46z" />
    <glyph glyph-name="notequal" unicode="&#x2260;" horiz-adv-x="630" 
d="M182 73l26 100h-108v125h141l31 115h-172v125h205l26 100h117l-26 -100h108v-125h-141l-31 -115h172v-125h-205l-26 -100h-117z" />
    <glyph glyph-name="lessequal" unicode="&#x2264;" horiz-adv-x="600" 
d="M537 200l-474 195v148l474 196v-151l-287 -119l287 -118v-151zM40 0v120h520v-120h-520z" />
    <glyph glyph-name="greaterequal" unicode="&#x2265;" horiz-adv-x="580" 
d="M63 200v151l287 118l-287 119v151l474 -196v-148zM40 0v120h520v-120h-520z" />
    <glyph glyph-name="lozenge" unicode="&#x25ca;" horiz-adv-x="640" 
d="M600 373l-225 -373h-110l-225 373l225 372h110zM320 146l140 227l-140 226l-140 -226z" />
    <glyph glyph-name="uniF8FF" unicode="&#xf8ff;" horiz-adv-x="600" 
d="M250 400v100h100v-100h-100zM50 400v100h100v-2l-98 -98h-2zM50 200v100h100v-100h-100zM250 200v100h100v-100h-100zM450 200v100h100v-100h-100zM250 0v100h100v-100h-100z" />
    <glyph glyph-name="A.ss02" horiz-adv-x="765" 
d="M26 0l210 615h-116v130h365l254 -745h-164l-50 152h-285l-50 -152h-164zM284 287h197l-98 302z" />
    <glyph glyph-name="E.ss02" horiz-adv-x="700" 
d="M190 0v615h-130v130h600v-130h-310v-177h290v-130h-290v-178h310v-130h-470z" />
    <glyph glyph-name="F.ss02" horiz-adv-x="680" 
d="M190 0v615h-130v130h600v-130h-310v-197h260v-130h-260v-288h-160z" />
    <glyph glyph-name="G.ss02" horiz-adv-x="786" 
d="M409 -12c-52.667 0 -101.669 9.83203 -147.002 29.499s-85 47.167 -119 82.5s-60.5 76.5 -79.5 123.5s-28.5 97.833 -28.5 152.5c0 52.667 9.33301 102 28 148s45 86.5 79 121.5s74 62.333 120 82s96 29.5 150 29.5c50 0 96.5 -8.16699 139.5 -24.5
s80.167 -39.5 111.5 -69.5s54 -65 68 -105l-137 -66c-14.667 39.333 -38 70 -70 92s-69.667 33 -113 33s-81.666 -10.833 -114.999 -32.5s-59.333 -50.667 -78 -87s-28 -77.166 -28 -122.499c0 -48.667 9.5 -91.667 28.5 -129s45.667 -66.333 80 -87s74.166 -31 119.499 -31
c38.667 0 72.834 6.66699 102.501 20s53 31.833 70 55.5s25.833 50.834 26.5 81.501h-240l-1 130h380v-415h-140l1 66c-27.333 -26.667 -58.666 -46.334 -93.999 -59.001s-73.333 -19 -114 -19z" />
    <glyph glyph-name="G.ss03" horiz-adv-x="806" 
d="M418 -12c-55.333 0 -106.335 9.66699 -153.002 29s-87.167 46.333 -121.5 81s-61 75.334 -80 122.001s-28.5 97.667 -28.5 153s9.33301 106.5 28 153.5s45 87.667 79 122s73.833 61 119.5 80s95.5 28.5 149.5 28.5s102.5 -9 145.5 -27s79.5 -42 109.5 -72
s51.333 -63.333 64 -100l-137 -66c-12.667 36 -34.834 65.833 -66.501 89.5s-70.167 35.5 -115.5 35.5c-44 0 -82.667 -10.333 -116 -31s-59.166 -49.167 -77.499 -85.5s-27.5 -78.833 -27.5 -127.5s9.33301 -91.334 28 -128.001s45 -65.334 79 -86.001s74.333 -31 121 -31
c32.667 0 63.334 5.83301 92.001 17.5s52.334 29.834 71.001 54.501s29 56.334 31 95.001h-206v130h370v-59c0 -65.333 -10 -121.833 -30 -169.5s-47 -86.834 -81 -117.501s-72.333 -53.5 -115 -68.5s-86.667 -22.5 -132 -22.5z" />
    <glyph glyph-name="I.ss02" horiz-adv-x="520" 
d="M50 0v135h130v475h-130v135h420v-135h-130v-475h130v-135h-420z" />
    <glyph glyph-name="J.ss03" horiz-adv-x="609" 
d="M284 -12c-72.667 0 -133.331 19.667 -181.998 59s-79.334 93.333 -92.001 162l144 39c8.66699 -38.667 24.167 -68.334 46.5 -89.001s50.166 -31 83.499 -31c34 0 60.833 10.333 80.5 31s29.5 49.334 29.5 86.001v500h155v-500c0 -51.333 -11 -96.333 -33 -135
s-52.833 -68.667 -92.5 -90s-86.167 -32 -139.5 -32z" />
    <glyph glyph-name="K.ss03" horiz-adv-x="708" 
d="M666 -6c-43.333 0 -79.498 4.66895 -108.498 14.002s-54.833 26.166 -77.5 50.499s-46.334 58.166 -71.001 101.499l-107 189l-87 -105v-244h-155v745h155v-285l238 285h178l-228 -275l146 -255c19.333 -32.667 37.666 -56 54.999 -70s38 -21 62 -21h42v-130h-42z" />
    <glyph glyph-name="Q.ss03" horiz-adv-x="886" 
d="M799 -75l-0.00390625 -130.003h-188c-68.667 0 -125 17.833 -169 53.5s-69.667 83.834 -77 144.501c-64 9.33301 -121 31.5 -171 66.5s-89.167 79.5 -117.5 133.5s-42.5 114 -42.5 180c0 54.667 9.83301 105.334 29.5 152.001s47.334 87.334 83.001 122.001
s77.5 61.667 125.5 81s100.333 29 157 29s109 -9.66699 157 -29s89.833 -46.333 125.5 -81s63.334 -75.334 83.001 -122.001s29.5 -97.334 29.5 -152.001c0 -63.333 -13.167 -121.166 -39.5 -173.499s-62.666 -96.166 -108.999 -131.499s-99.5 -59 -159.5 -71
c5.33301 -22 16.333 -39.5 33 -52.5s37.334 -19.5 62.001 -19.5h188zM428.996 127.997c45.333 0 86.166 10.5 122.499 31.5s65 49.833 86 86.5s31.5 79 31.5 127s-10.5 90.333 -31.5 127s-49.667 65.334 -86 86.001s-77.166 31 -122.499 31s-86.166 -10.333 -122.499 -31
s-65 -49.334 -86 -86.001s-31.5 -79 -31.5 -127s10.5 -90.333 31.5 -127s49.667 -65.5 86 -86.5s77.166 -31.5 122.499 -31.5z" />
    <glyph glyph-name="R.ss03" horiz-adv-x="695" 
d="M60 0l-0.000976562 744.999h306c51.333 0 96.833 -9 136.5 -27s70.834 -44.667 93.501 -80s34 -79 34 -131c0 -37.333 -6.16699 -70.5 -18.5 -99.5s-28.5 -53.5 -48.5 -73.5c23.333 -14 40.333 -33.167 51 -57.5s16 -57.166 16 -98.499v-178h-160v198
c0 48 -24.667 72 -74 72h-181v-270h-155zM214.999 404.999l152 -0.000976562c32.667 0 58.834 9.33301 78.501 28s29.5 43.334 29.5 74.001c0 31.333 -9.83301 56.333 -29.5 75s-45.834 28 -78.501 28h-152v-205z" />
    <glyph glyph-name="U.ss01" horiz-adv-x="700" 
d="M60 0v745h155v-610h270v610h155v-745h-580z" />
    <glyph glyph-name="a.ss01" horiz-adv-x="566" 
d="M222 -12c-41.333 0 -77.168 7.16895 -107.501 21.502s-53.666 33.666 -69.999 57.999s-24.5 51.5 -24.5 81.5c0 40.667 15.333 74.167 46 100.5s73.667 45.166 129 56.499l171 36v74h-276v130h426v-546h-140v50c-20.667 -22 -43.5 -37.833 -68.5 -47.5
s-53.5 -14.5 -85.5 -14.5zM174.998 151.002c0 -16.667 6.33301 -29.667 19 -39s29.667 -14 51 -14c34 0 62.667 10.667 86 32s35 47.333 35 78v26l-144 -32c-31.333 -7.33301 -47 -24.333 -47 -51z" />
    <glyph glyph-name="a.ss02" horiz-adv-x="611" 
d="M222 -12c-41.333 0 -77.1689 7.16992 -107.502 21.5029s-53.666 33.666 -69.999 57.999s-24.5 51.5 -24.5 81.5c0 40.667 15.333 74.167 46 100.5s73.667 45.166 129 56.499l171 36v18c0 20.667 -7.66699 37.167 -23 49.5s-35.666 18.5 -60.999 18.5
c-26.667 0 -50.167 -7.16699 -70.5 -21.5s-34.5 -33.833 -42.5 -58.5l-129 62c16 45.333 45.833 81.333 89.5 108s94.5 40 152.5 40c46.667 0 87.5 -8.33301 122.5 -25s62.333 -39.834 82 -69.501s29.5 -64.167 29.5 -103.5v-240h85v-120h-225v50
c-20.667 -22 -43.5 -37.833 -68.5 -47.5s-53.5 -14.5 -85.5 -14.5zM174.997 151.003c0 -16.667 6.33301 -29.667 19 -39s29.667 -14 51 -14c34 0 62.667 10.667 86 32s35 47.333 35 78v26l-144 -32c-31.333 -7.33301 -47 -24.333 -47 -51z" />
    <glyph glyph-name="f.ss01" horiz-adv-x="372" 
d="M93 0v416h-93v130h93v199h269v-120h-119v-79h119v-130h-119v-416h-150z" />
    <glyph glyph-name="g.ss03" horiz-adv-x="644" 
d="M122 -223l-0.000976562 130.002h200c34 0 62.833 9.66699 86.5 29s35.5 45.333 35.5 78v68c-38 -36.667 -88.667 -55 -152 -55c-49.333 0 -94.666 11 -135.999 33s-74.333 53.167 -99 93.5s-37 87.166 -37 140.499c0 55.333 12.833 102.666 38.5 141.999
s59 69.5 100 90.5s84.5 31.5 130.5 31.5c35.333 0 66.833 -6.16699 94.5 -18.5s51.167 -29.5 70.5 -51.5v58h140v-532c0 -44.667 -11.667 -85 -35 -121s-55.333 -64.333 -96 -85s-87.667 -31 -141 -31h-200zM310.999 163.002c38.667 0 70.501 12 95.501 36s37.5 55 37.5 93
c0 39.333 -12.833 71 -38.5 95s-57.167 36 -94.5 36c-24.667 0 -47.334 -5.5 -68.001 -16.5s-37.167 -26.333 -49.5 -46s-18.5 -42.5 -18.5 -68.5c0 -38 13 -69 39 -93s58.333 -36 97 -36z" />
    <glyph glyph-name="h.ss01" horiz-adv-x="572" 
d="M50 0v745h150v-199h332v-546h-150v426h-182v-426h-150z" />
    <glyph glyph-name="i.ss02" horiz-adv-x="301" 
d="M101 595v150h150v-150h-150zM101 0v416h-91v130h241v-546h-150z" />
    <glyph glyph-name="j.ss01" horiz-adv-x="258" 
d="M78 595v150h150v-150h-150zM-54 -222v130h132v638h150v-768h-282z" />
    <glyph glyph-name="k.ss01" horiz-adv-x="561" 
d="M50 0v745h150v-365h49l142 166h180l-198 -239l198 -307h-173l-153 250h-45v-250h-150z" />
    <glyph glyph-name="l.ss01" horiz-adv-x="340" 
d="M50 0v745h150v-615h130v-130h-280z" />
    <glyph glyph-name="m.ss02" horiz-adv-x="896" 
d="M50 0v546h806v-546h-150v416h-178v-416h-150v416h-178v-416h-150z" />
    <glyph glyph-name="m.ss03" horiz-adv-x="896" 
d="M50 0v546h567c74 0 132.333 -19.167 175 -57.5s64 -90.5 64 -156.5v-332h-150v324c0 28 -8 50.333 -24 67s-37.667 25 -65 25h-89v-416h-150v416h-178v-416h-150z" />
    <glyph glyph-name="n.ss01" horiz-adv-x="582" 
d="M50 0v546h482v-546h-150v416h-182v-416h-150z" />
    <glyph glyph-name="n.ss03" horiz-adv-x="572" 
d="M50 0v546h241c74.667 0 133.5 -19.167 176.5 -57.5s64.5 -90.5 64.5 -156.5v-332h-150v324c0 28 -8.33301 50.333 -25 67s-38.667 25 -66 25h-91v-416h-150z" />
    <glyph glyph-name="p.ss02" horiz-adv-x="699" 
d="M96 -200l-0.00292969 616h-86v130h226v-56c18.667 22 42.334 38.833 71.001 50.5s60.334 17.5 95.001 17.5c38.667 0 74.834 -7.33301 108.501 -22s63 -35 88 -61s44.667 -56.333 59 -91s21.5 -72 21.5 -112c0 -52 -12 -99.5 -36 -142.5s-56.833 -77.333 -98.5 -103
s-89.167 -38.5 -142.5 -38.5c-32.667 0 -62.167 4.83301 -88.5 14.5s-48.833 23.167 -67.5 40.5v-243h-150zM382.997 123c41.333 0 75.166 13.998 101.499 41.998s39.5 64 39.5 108c0 28.667 -6 54.334 -18 77.001s-28.667 40.5 -50 53.5s-45.666 19.5 -72.999 19.5
c-40 0 -72.833 -14.167 -98.5 -42.5s-38.5 -64.166 -38.5 -107.499c0 -44 12.667 -80 38 -108s58.333 -42 99 -42z" />
    <glyph glyph-name="q.ss02" horiz-adv-x="699" 
d="M453 -200l-0.00292969 243c-18.667 -17.333 -41.167 -30.833 -67.5 -40.5s-55.833 -14.5 -88.5 -14.5c-52.667 0 -100 12.833 -142 38.5s-75 60 -99 103s-36 90.5 -36 142.5c0 40 7.16699 77.333 21.5 112s34 65 59 91s54.333 46.333 88 61s69.834 22 108.501 22
c34.667 0 66.334 -5.83301 95.001 -17.5s52.334 -28.5 71.001 -50.5v56h226v-130h-86v-616h-150zM315.997 123c40.667 0 73.665 14.002 98.998 42.002s38 64 38 108c0 43.333 -12.833 79.166 -38.5 107.499s-58.5 42.5 -98.5 42.5c-27.333 0 -51.666 -6.5 -72.999 -19.5
s-38 -30.833 -50 -53.5s-18 -48.334 -18 -77.001c0 -44 13.333 -80 40 -108s60.334 -42 101.001 -42z" />
    <glyph glyph-name="r.ss01" horiz-adv-x="405" 
d="M50 0v546h345v-130h-195v-416h-150z" />
    <glyph glyph-name="r.ss02" horiz-adv-x="485" 
d="M10 0l-0.000976562 119.999h121v306h-121v120h261v-82c10 24 22.833 42.333 38.5 55s32.834 21.334 51.501 26.001s37.667 7 57 7h57v-130h-72c-36.667 0 -66.167 -11.333 -88.5 -34s-33.5 -54 -33.5 -94v-174h121v-120h-392z" />
    <glyph glyph-name="t.ss01" horiz-adv-x="436" 
d="M138 0v416h-128v130h128v164h150v-164h128v-130h-128v-286h128v-130h-278z" />
    <glyph glyph-name="u.ss01" horiz-adv-x="572" 
d="M40 0v546h150v-416h182v416h150v-546h-482z" />
    <glyph glyph-name="u.ss03" horiz-adv-x="572" 
d="M281 -12c-48 0 -90 9.5 -126 28.5s-64.167 45.5 -84.5 79.5s-30.5 73.333 -30.5 118v332h150v-324c0 -30 8.5 -54 25.5 -72s38.833 -27 65.5 -27c27.333 0 49.333 9 66 27s25 42 25 72v324h150v-332c0 -44.667 -10 -84 -30 -118s-48.167 -60.5 -84.5 -79.5
s-78.5 -28.5 -126.5 -28.5z" />
    <glyph glyph-name="y.ss01" horiz-adv-x="560" 
d="M-1 -222v130h169l37 92l-214 546h160l129 -353l129 353h160l-300 -768h-270z" />
    <glyph glyph-name="y.ss02" horiz-adv-x="578" 
d="M127 -222l87 222l-214 546h160l129 -353l129 353h160l-300 -768h-151z" />
    <glyph glyph-name="zero.tf" horiz-adv-x="600" 
d="M301 -12c-58 0 -109.003 16.167 -153.003 48.5s-78.333 77.333 -103 135s-37 124.834 -37 201.501c0 77.333 12.333 144.833 37 202.5s58.834 102.5 102.501 134.5s94.5 48 152.5 48c58.667 0 109.834 -16.167 153.501 -48.5s77.667 -77.333 102 -135
s36.5 -124.834 36.5 -201.501c0 -76 -12.167 -143 -36.5 -201s-58.166 -103.167 -101.499 -135.5s-94.333 -48.5 -153 -48.5zM300.997 128c44 0 78.166 21.5 102.499 64.5s36.5 103.167 36.5 180.5s-12.167 137.5 -36.5 180.5s-58.833 64.5 -103.5 64.5
s-79.167 -21.333 -103.5 -64s-36.5 -103 -36.5 -181c0 -76.667 12.333 -136.667 37 -180s59.334 -65 104.001 -65z" />
    <glyph glyph-name="one.ss01" horiz-adv-x="440" 
d="M160 0v609l-140 -50v135l150 51h145v-745h-155z" />
    <glyph glyph-name="one.ss01.tf" horiz-adv-x="600" 
d="M35 130h187v480l-134 -50v135l144 51h142v-616h190v-130h-528z" />
    <glyph glyph-name="one.tf" horiz-adv-x="600" 
d="M35 130h187v485h-144v130l300 1v-616h186v-130h-528z" />
    <glyph glyph-name="two.tf" horiz-adv-x="600" 
d="M36 0l-0.998047 119.998l204 206c40.667 40.667 71.5 73 92.5 97s35.333 44 43 60s11.5 31.667 11.5 47c0 27.333 -8.83301 48.833 -26.5 64.5s-41.167 23.5 -70.5 23.5c-30 0 -56.333 -8.16699 -79 -24.5s-39.334 -39.166 -50.001 -68.499l-122 70
c17.333 50 49.5 89.667 96.5 119s101.833 44 164.5 44c48 0 90.167 -8.66699 126.5 -26s64.666 -41.666 84.999 -72.999s30.5 -68 30.5 -110s-11.833 -81.833 -35.5 -119.5s-57.167 -78.167 -100.5 -121.5l-177 -178h322v-130h-514z" />
    <glyph glyph-name="three.tf" horiz-adv-x="600" 
d="M282 -12c-60 0 -112.831 14.666 -158.498 43.999s-77.834 69 -96.501 119l122 70c22.667 -62 67 -93 133 -93c36.667 0 66 10.167 88 30.5s33 47.833 33 82.5c0 34 -10.833 61 -32.5 81s-51.167 30 -88.5 30c-29.333 0 -57.333 -6.33301 -84 -19l-36 75l193 208h-294v130
h467v-120l-146 -164c52 -9.33301 94.333 -32.833 127 -70.5s49 -85.834 49 -144.501c0 -49.333 -12 -93.666 -36 -132.999s-56.833 -70.166 -98.5 -92.499s-88.834 -33.5 -141.501 -33.5z" />
    <glyph glyph-name="four.tf" horiz-adv-x="600" 
d="M604 290v-130h-120v-160h-153v160h-325v130l315 456h163v-456h120zM154 290h177v269z" />
    <glyph glyph-name="five.tf" horiz-adv-x="600" 
d="M285 -12c-40 0 -77.335 6.8291 -112.002 20.4961s-64.667 32.667 -90 57s-44 52.833 -56 85.5l123 70c10.667 -28 28.334 -50.5 53.001 -67.5s52 -25.5 82 -25.5c34.667 0 62.834 10.833 84.501 32.5s32.5 49.834 32.5 84.501s-10.667 62.834 -32 84.501
s-49.666 32.5 -84.999 32.5c-24 0 -43.833 -5.5 -59.5 -16.5s-27.834 -26.833 -36.501 -47.5l-122 30l70 418h403v-130l-298 1l-25 -147c26 14.667 58.333 22 97 22c48 0 90.333 -10.167 127 -30.5s65.167 -48.166 85.5 -83.499s30.5 -76.333 30.5 -123
c0 -50.667 -11.833 -96.167 -35.5 -136.5s-56 -72.166 -97 -95.499s-87.5 -35 -139.5 -35z" />
    <glyph glyph-name="six.tf" horiz-adv-x="600" 
d="M300 -12c-51.333 0 -97.168 10.834 -137.501 32.501s-72 51.167 -95 88.5s-34.5 79.333 -34.5 126c0 35.333 7.16699 67.666 21.5 96.999s32.166 59 53.499 89l233 325h175l-190 -267h2c46.667 0 87.834 -11.333 123.501 -34s63.834 -52.5 84.501 -89.5
s31 -77.167 31 -120.5c0 -46.667 -11.5 -88.667 -34.5 -126s-54.5 -66.833 -94.5 -88.5s-86 -32.5 -138 -32.5zM299.998 128.001c30.667 0 57 10.333 79 31s33 47.667 33 81s-10.833 60.333 -32.5 81s-48.167 31 -79.5 31c-30.667 0 -57 -10.333 -79 -31
s-33 -47.667 -33 -81s11 -60.333 33 -81s48.333 -31 79 -31z" />
    <glyph glyph-name="seven.tf" horiz-adv-x="600" 
d="M89 0l317 617h-370v130h524v-130l-307 -617h-164z" />
    <glyph glyph-name="eight.tf" horiz-adv-x="600" 
d="M299 -12c-51.333 0 -97.4971 10.168 -138.497 30.501s-73.167 48.166 -96.5 83.499s-35 75 -35 119c0 36.667 8.5 69.5 25.5 98.5s43.167 53.167 78.5 72.5c-24.667 16 -44.167 38.167 -58.5 66.5s-21.5 59.166 -21.5 92.499c0 40 10.5 75.667 31.5 107
s50.167 55.833 87.5 73.5s79.666 26.5 126.999 26.5s89.5 -8.83301 126.5 -26.5s66.167 -42.167 87.5 -73.5s32 -67 32 -107c0 -32.667 -7.16699 -63.167 -21.5 -91.5s-33.833 -50.833 -58.5 -67.5c35.333 -20 61.666 -44.5 78.999 -73.5s26 -61.5 26 -97.5
c0 -44 -11.833 -83.667 -35.5 -119s-55.834 -63.166 -96.501 -83.499s-87 -30.5 -139 -30.5zM299.003 452.001c26.667 0 48.167 8 64.5 24s24.5 37 24.5 63s-8.16699 47.333 -24.5 64s-37.833 25 -64.5 25s-48.334 -8.33301 -65.001 -25s-25 -38 -25 -64s8.33301 -47 25 -63
s38.334 -24 65.001 -24zM299.003 118.001c34.667 0 62.667 9.33301 84 28s32 43.334 32 74.001s-10.5 55.167 -31.5 73.5s-49.167 27.5 -84.5 27.5c-34.667 0 -62.5 -9.16699 -83.5 -27.5s-31.5 -42.833 -31.5 -73.5s10.5 -55.334 31.5 -74.001s48.833 -28 83.5 -28z" />
    <glyph glyph-name="nine.tf" horiz-adv-x="600" 
d="M85 0l189 267h-2c-46 0 -87 11.333 -123 34s-64.333 52.5 -85 89.5s-31 77.167 -31 120.5c0 47.333 11.5 89.5 34.5 126.5s54.667 66.333 95 88s86.166 32.5 137.499 32.5c52 0 98.167 -10.833 138.5 -32.5s71.833 -51.167 94.5 -88.5s34 -79.333 34 -126
c0 -33.333 -6.66699 -64.5 -20 -93.5s-31.666 -59.833 -54.999 -92.5l-232 -325h-175zM300 394c31.333 0 57.833 10.333 79.5 31s32.5 47.667 32.5 81s-11 60.333 -33 81s-48.333 31 -79 31s-57 -10.333 -79 -31s-33 -47.667 -33 -81s11 -60.333 33 -81s48.333 -31 79 -31z
" />
    <glyph glyph-name="zero.dnom" horiz-adv-x="426" 
d="M213 -7c-36 0 -67.8311 9.66699 -95.498 29s-49.167 46.333 -64.5 81s-23 75 -23 121s7.66699 86.167 23 120.5s36.666 61.166 63.999 80.499s59 29 95 29c37.333 0 69.666 -9.66699 96.999 -29s48.666 -46.166 63.999 -80.499s23 -74.5 23 -120.5
s-7.66699 -86.333 -23 -121s-36.666 -61.667 -63.999 -81s-59.333 -29 -96 -29zM213.002 93c23.333 0 41.001 11.167 53.001 33.5s18 54.833 18 97.5c0 42 -6 74.167 -18 96.5s-30 33.5 -54 33.5c-23.333 0 -41 -11.167 -53 -33.5s-18 -54.5 -18 -96.5
s6.16699 -74.333 18.5 -97s30.166 -34 53.499 -34z" />
    <glyph glyph-name="one.dnom" horiz-adv-x="341" 
d="M104 0v353h-84v93l196 1v-447h-112z" />
    <glyph glyph-name="two.dnom" horiz-adv-x="375" 
d="M26 0l-1.00098 90.001l118 120c29.333 30 49.666 52 60.999 66s17 26.333 17 37c0 11.333 -4 20.833 -12 28.5s-18.333 11.5 -31 11.5s-24.667 -4.33301 -36 -13s-19.666 -20.334 -24.999 -35.001l-87 52c10 30.667 29.333 54.5 58 71.5s61.667 25.5 99 25.5
c43.333 0 78.333 -11.333 105 -34s40 -53 40 -91c0 -24 -6.16699 -46.333 -18.5 -67s-30.166 -43 -53.499 -67l-100 -102h175v-93h-309z" />
    <glyph glyph-name="three.dnom" horiz-adv-x="390" 
d="M179 -7c-36 0 -67.833 8.83301 -95.5 26.5s-47.167 41.167 -58.5 70.5l88 52c11.333 -32 33.333 -48 66 -48c18.667 0 33.334 5 44.001 15s16 23.333 16 40c0 34.667 -20 52 -60 52c-20.667 0 -40 -5 -58 -15l-29 53l116 115h-163v93h287v-84l-79 -86
c29.333 -6 52.833 -19.5 70.5 -40.5s26.5 -48.5 26.5 -82.5c0 -30.667 -7.5 -58.167 -22.5 -82.5s-35.333 -43.5 -61 -57.5s-54.834 -21 -87.501 -21z" />
    <glyph glyph-name="four.dnom" horiz-adv-x="437" 
d="M417 186v-94h-81v-92h-114v92h-192v94l183 261h123v-261h81zM137 186h85v128z" />
    <glyph glyph-name="five.dnom" horiz-adv-x="386" 
d="M180 -7c-36 0 -68.333 8.99805 -97 26.998s-48 41.333 -58 70l89 52c5.33301 -14 13.833 -25.5 25.5 -34.5s25.167 -13.5 40.5 -13.5c16 0 29 5.33301 39 16s15 24.334 15 41.001c0 17.333 -5 31 -15 41s-23 15 -39 15c-21.333 0 -36 -12 -44 -36l-91 23l50 253h245v-93
l-172 1l-12 -64c13.333 6 29.333 9 48 9c42 0 76.167 -13 102.5 -39s39.5 -59.667 39.5 -101c0 -31.333 -7.33301 -59.666 -22 -84.999s-34.5 -45.333 -59.5 -60s-53.167 -22 -84.5 -22z" />
    <glyph glyph-name="six.dnom" horiz-adv-x="392" 
d="M196 -7c-32 0 -60.5 6.50098 -85.5 19.501s-44.667 30.833 -59 53.5s-21.5 47.667 -21.5 75c0 19.333 4 36.333 12 51s18 30.667 30 48l144 207h126l-106 -157c25.333 -2.66699 47.333 -11 66 -25s33.334 -31.667 44.001 -53s16 -44 16 -68
c0 -28.667 -7.16699 -54.334 -21.5 -77.001s-33.833 -40.667 -58.5 -54s-53.334 -20 -86.001 -20zM196 94.001c14.667 0 27.333 4.83301 38 14.5s16 22.834 16 39.501s-5.5 29.667 -16.5 39s-23.5 14 -37.5 14s-26.5 -4.66699 -37.5 -14s-16.5 -22.333 -16.5 -39
s5.5 -29.834 16.5 -39.501s23.5 -14.5 37.5 -14.5z" />
    <glyph glyph-name="seven.dnom" horiz-adv-x="352" 
d="M50 0l172 355h-207v93h317v-93l-164 -355h-118z" />
    <glyph glyph-name="eight.dnom" horiz-adv-x="419" 
d="M209 -7c-32 0 -60.668 6.16504 -86.001 18.498s-45.5 29.166 -60.5 50.499s-22.5 45.333 -22.5 72c0 42.667 19.333 74.334 58 95.001c-14.667 10 -26.167 23.833 -34.5 41.5s-12.5 36.167 -12.5 55.5c0 37.333 14.833 68 44.5 92s67.5 36 113.5 36
c30.667 0 57.834 -5.5 81.501 -16.5s42.5 -26.167 56.5 -45.5s21 -41.333 21 -66c0 -19.333 -4.33301 -37.666 -13 -54.999s-20 -31.333 -34 -42c38.667 -22 58 -53.667 58 -95c0 -26.667 -7.5 -50.667 -22.5 -72s-35.167 -38.166 -60.5 -50.499s-54.333 -18.5 -87 -18.5z
M208.999 272.998c13.333 0 24 4.00098 32 12.001s12 18.333 12 31c0 13.333 -4 24.166 -12 32.499s-18.667 12.5 -32 12.5s-24.166 -4 -32.499 -12s-12.5 -19 -12.5 -33c0 -12.667 4.16699 -23 12.5 -31s19.166 -12 32.499 -12zM208.999 85.999
c17.333 0 31.333 4.16699 42 12.5s16 19.833 16 34.5s-5.16699 26.167 -15.5 34.5s-24.5 12.5 -42.5 12.5c-17.333 0 -31 -4.16699 -41 -12.5s-15 -19.833 -15 -34.5s5 -26.167 15 -34.5s23.667 -12.5 41 -12.5z" />
    <glyph glyph-name="nine.dnom" horiz-adv-x="392" 
d="M50 0l106.001 157c-25.333 2.66699 -47.333 11 -66 25s-33.334 31.667 -44.001 53s-16 44 -16 68c0 28.667 7.16699 54.334 21.5 77.001s34 40.667 59 54s53.5 20 85.5 20c32.667 0 61.334 -6.5 86.001 -19.5s44.167 -30.667 58.5 -53s21.5 -47.5 21.5 -75.5
c0 -18.667 -3.83301 -35.334 -11.5 -50.001s-17.834 -31 -30.501 -49l-144 -207h-126zM196.001 246c14 0 26.501 4.66699 37.501 14s16.5 22.333 16.5 39s-5.33301 29.834 -16 39.501s-23.334 14.5 -38.001 14.5c-14 0 -26.5 -4.83301 -37.5 -14.5
s-16.5 -22.834 -16.5 -39.501s5.5 -29.667 16.5 -39s23.5 -14 37.5 -14z" />
    <glyph glyph-name="zero.numr" horiz-adv-x="426" 
d="M213 291c-36 0 -67.8311 9.66699 -95.498 29s-49.167 46.333 -64.5 81s-23 75 -23 121s7.66699 86.167 23 120.5s36.666 61.166 63.999 80.499s59 29 95 29c37.333 0 69.666 -9.66699 96.999 -29s48.666 -46.166 63.999 -80.499s23 -74.5 23 -120.5
s-7.66699 -86.333 -23 -121s-36.666 -61.667 -63.999 -81s-59.333 -29 -96 -29zM213.002 391c23.333 0 41.001 11.167 53.001 33.5s18 54.833 18 97.5c0 42 -6 74.167 -18 96.5s-30 33.5 -54 33.5c-23.333 0 -41 -11.167 -53 -33.5s-18 -54.5 -18 -96.5
s6.16699 -74.333 18.5 -97s30.166 -34 53.499 -34z" />
    <glyph glyph-name="one.numr" horiz-adv-x="341" 
d="M104 298v353h-84v93l196 1v-447h-112z" />
    <glyph glyph-name="two.numr" horiz-adv-x="375" 
d="M26 298l-1.00098 90.001l118 120c29.333 30 49.666 52 60.999 66s17 26.333 17 37c0 11.333 -4 20.833 -12 28.5s-18.333 11.5 -31 11.5s-24.667 -4.33301 -36 -13s-19.666 -20.334 -24.999 -35.001l-87 52c10 30.667 29.333 54.5 58 71.5s61.667 25.5 99 25.5
c43.333 0 78.333 -11.333 105 -34s40 -53 40 -91c0 -24 -6.16699 -46.333 -18.5 -67s-30.166 -43 -53.499 -67l-100 -102h175v-93h-309z" />
    <glyph glyph-name="three.numr" horiz-adv-x="390" 
d="M179 291c-36 0 -67.833 8.83301 -95.5 26.5s-47.167 41.167 -58.5 70.5l88 52c11.333 -32 33.333 -48 66 -48c18.667 0 33.334 5 44.001 15s16 23.333 16 40c0 34.667 -20 52 -60 52c-20.667 0 -40 -5 -58 -15l-29 53l116 115h-163v93h287v-84l-79 -86
c29.333 -6 52.833 -19.5 70.5 -40.5s26.5 -48.5 26.5 -82.5c0 -30.667 -7.5 -58.167 -22.5 -82.5s-35.333 -43.5 -61 -57.5s-54.834 -21 -87.501 -21z" />
    <glyph glyph-name="four.numr" horiz-adv-x="437" 
d="M417 484v-94h-81v-92h-114v92h-192v94l183 261h123v-261h81zM137 484h85v128z" />
    <glyph glyph-name="five.numr" horiz-adv-x="386" 
d="M180 291c-36 0 -68.333 8.99805 -97 26.998s-48 41.333 -58 70l89 52c5.33301 -14 13.833 -25.5 25.5 -34.5s25.167 -13.5 40.5 -13.5c16 0 29 5.33301 39 16s15 24.334 15 41.001c0 17.333 -5 31 -15 41s-23 15 -39 15c-21.333 0 -36 -12 -44 -36l-91 23l50 253h245v-93
l-172 1l-12 -64c13.333 6 29.333 9 48 9c42 0 76.167 -13 102.5 -39s39.5 -59.667 39.5 -101c0 -31.333 -7.33301 -59.666 -22 -84.999s-34.5 -45.333 -59.5 -60s-53.167 -22 -84.5 -22z" />
    <glyph glyph-name="six.numr" horiz-adv-x="392" 
d="M196 291c-32 0 -60.5 6.50098 -85.5 19.501s-44.667 30.833 -59 53.5s-21.5 47.667 -21.5 75c0 19.333 4 36.333 12 51s18 30.667 30 48l144 207h126l-106 -157c25.333 -2.66699 47.333 -11 66 -25s33.334 -31.667 44.001 -53s16 -44 16 -68
c0 -28.667 -7.16699 -54.334 -21.5 -77.001s-33.833 -40.667 -58.5 -54s-53.334 -20 -86.001 -20zM196 392.001c14.667 0 27.333 4.83301 38 14.5s16 22.834 16 39.501s-5.5 29.667 -16.5 39s-23.5 14 -37.5 14s-26.5 -4.66699 -37.5 -14s-16.5 -22.333 -16.5 -39
s5.5 -29.834 16.5 -39.501s23.5 -14.5 37.5 -14.5z" />
    <glyph glyph-name="seven.numr" horiz-adv-x="352" 
d="M50 297l172 355h-207v93h317v-93l-164 -355h-118z" />
    <glyph glyph-name="eight.numr" horiz-adv-x="419" 
d="M209 291c-32 0 -60.668 6.16504 -86.001 18.498s-45.5 29.166 -60.5 50.499s-22.5 45.333 -22.5 72c0 42.667 19.333 74.334 58 95.001c-14.667 10 -26.167 23.833 -34.5 41.5s-12.5 36.167 -12.5 55.5c0 37.333 14.833 68 44.5 92s67.5 36 113.5 36
c30.667 0 57.834 -5.5 81.501 -16.5s42.5 -26.167 56.5 -45.5s21 -41.333 21 -66c0 -19.333 -4.33301 -37.666 -13 -54.999s-20 -31.333 -34 -42c38.667 -22 58 -53.667 58 -95c0 -26.667 -7.5 -50.667 -22.5 -72s-35.167 -38.166 -60.5 -50.499s-54.333 -18.5 -87 -18.5z
M208.999 570.998c13.333 0 24 4.00098 32 12.001s12 18.333 12 31c0 13.333 -4 24.166 -12 32.499s-18.667 12.5 -32 12.5s-24.166 -4 -32.499 -12s-12.5 -19 -12.5 -33c0 -12.667 4.16699 -23 12.5 -31s19.166 -12 32.499 -12zM208.999 383.999
c17.333 0 31.333 4.16699 42 12.5s16 19.833 16 34.5s-5.16699 26.167 -15.5 34.5s-24.5 12.5 -42.5 12.5c-17.333 0 -31 -4.16699 -41 -12.5s-15 -19.833 -15 -34.5s5 -26.167 15 -34.5s23.667 -12.5 41 -12.5z" />
    <glyph glyph-name="nine.numr" horiz-adv-x="392" 
d="M50 298l106.001 157c-25.333 2.66699 -47.333 11 -66 25s-33.334 31.667 -44.001 53s-16 44 -16 68c0 28.667 7.16699 54.334 21.5 77.001s34 40.667 59 54s53.5 20 85.5 20c32.667 0 61.334 -6.5 86.001 -19.5s44.167 -30.667 58.5 -53s21.5 -47.5 21.5 -75.5
c0 -18.667 -3.83301 -35.334 -11.5 -50.001s-17.834 -31 -30.501 -49l-144 -207h-126zM196.001 544c14 0 26.501 4.66699 37.501 14s16.5 22.333 16.5 39s-5.33301 29.834 -16 39.501s-23.334 14.5 -38.001 14.5c-14 0 -26.5 -4.83301 -37.5 -14.5
s-16.5 -22.834 -16.5 -39.501s5.5 -29.667 16.5 -39s23.5 -14 37.5 -14z" />
    <glyph glyph-name="uni030C.alt" 
d="M47 461l-27 284h158l-27 -284h-104z" />
    <glyph glyph-name="uni0335.alt" 
d="M20 258v127h348v-127h-348z" />
    <glyph glyph-name="uni0338" 
d="M600 605l92 -92l-580 -580l-92 92z" />
    <glyph glyph-name="uni0338.case" 
d="M716 647l92 -92l-696 -697l-92 92z" />
    </font>
</defs>
</svg>
