<svg width="495" height="653" fill="none" xmlns="http://www.w3.org/2000/svg"><g filter="url(#filter0_d)" stroke="#EBE0F1" stroke-width="6" stroke-linecap="round" stroke-linejoin="round"><path d="M420.495 513.968l-24.503 13.504h70.507l-11.001-7.502m-319.03-248.066c-3.834 2.001-11.901 7.602-13.501 14.004 5.667 1.167 15.601 7.602 10.001 24.006-5.601 16.405-22.002 38.844-29.503 48.013C92.297 372.598 69.198 417.188 87.999 464m77.972-204.099v-53.514l-23.002 76.52 23.002-23.006zm66.506.5c3.667 5.002 14.701 13.604 29.502 8.002"/><path d="M50.46 99.86l16.502-34.51c18.335-19.672 70.906-55.714 134.512-42.51 47.005 10.502 89.509 17.504 126.512 77.02-.666 9.002-3.8 32.308-11.001 53.514-3.5 16.004 1.501 54.014 4.501 61.016 2.4 5.601-6.001 17.004-10.501 22.006L295.983 254.4v47.513c-3.667 2.334-12.701 6.702-19.501 5.501-4.168 4.001-16.902 13.204-34.504 18.005M50.46 538.975c-5.601-26.807-20.002-42.178-26.503-46.512-7.2-78.021-5-138.87-3-159.542 1.667-19.339 5.4-59.916 7-67.518 1.6-7.602 9.668-19.505 13.502-24.507-3.167-25.673-9.301-80.421-8.501-94.025.42-7.134 3.058-15.773 6.098-23.506"/><path d="M278.983 94.358c-.334 23.006-8.801 76.22-40.004 105.027-6.001 5.202-23.836 5.502-32.003 5.002-6.501 2.167-21.902 8.502-31.503 16.504"/><path d="M288.482 104.86c3.334 13.504 9.501 42.712 7.501 51.514-2 8.802-5.834 16.004-7.501 18.505 1.5 9.502 2.4 33.409-6 53.014-10.501 24.506-18.002 38.51-24.003 57.515-4.8 15.204-20.668 15.337-28.002 13.504-11.668-2.001-40.404-11.003-62.006-31.009"/><path d="M224.477 254.901c8-3.501 25.302-10.403 30.502-10.003l2.501 2.001 6.5-1c1.5.333 4.401 1.9 4.001 5.501m-105.01 54.514c26.169-8.669 76.307-6.002 67.506 74.019m-119.511 11.003l-12.001 61.516L79.463 633m144.513-221.059l-41.504 136.536L167.471 634M68.96 537.474c5.001 11.003 14.902 38.011 14.502 58.016m160.517-245.065c24.836 24.34 81.694 72.907 104.01 85.523 23.002 13.003 20.835 42.511 15.501 55.014-6 12.837-21.502 40.011-55.505 44.012-18.502-2.501-30.503-9.26-38.504-9.503-13.201-.4-52.171 10.17-70.006 15.504m108.009 6.002c3.667 18.172 9.9 60.116 5.5 82.522m8.502-66.018c10.001-7.001 30.703-22.606 33.504-29.007 3.5-8.002 29.502-72.019 46.504-83.522m-67.508 177.547c11.168-16.505 37.304-51.814 52.505-61.017 19.002-11.503 41.504-24.006 49.505-32.008m-50.504-50.012c10.001-6.835 31.203-19.505 36.004-15.504 4.8 4.001-2.334 14.337-6.501 19.005-5.834 3.667-19.302 12.703-26.503 19.505m64.005-43.513c10.801-13.203 2.501-21.172-3-23.506-11.001 3.001-11.001 12.503-11.501 14.504-.5 2.001-.5 13.504 14.501 9.002zm1.501 25.007c7.201-11.603 0-15.171-4.5-15.504-21.202 2.401-20.835 14.004-18.002 19.505 3.167 1.834 12.101 3.601 22.502-4.001zm-13.501 23.507c-4.001-5.201 1-10.836 4-13.004 5.5-4.001 13.001 0 13.001 6.002s-12.001 13.504-17.001 7.002zm-21.001-63.017l-41.504-64.517h97.009l-20.502 41.51M271.48 393.937c16.169 19.005 41.504 66.217 13.502 103.027"/></g><defs><filter id="filter0_d" x="0" y=".997" width="494.001" height="652.003" filterUnits="userSpaceOnUse" color-interpolation-filters="sRGB"><feFlood flood-opacity="0" result="BackgroundImageFix"/><feColorMatrix in="SourceAlpha" values="0 0 0 0 0 0 0 0 0 0 0 0 0 0 0 0 0 0 127 0"/><feOffset/><feGaussianBlur stdDeviation="8"/><feColorMatrix values="0 0 0 0 0.701961 0 0 0 0 0.27451 0 0 0 0 0.909804 0 0 0 1 0"/><feBlend in2="BackgroundImageFix" result="effect1_dropShadow"/><feBlend in="SourceGraphic" in2="effect1_dropShadow" result="shape"/></filter></defs></svg>