<svg width="40" height="41" fill="none" xmlns="http://www.w3.org/2000/svg"><path d="M20 .47c-11.044 0-20 8.956-20 20s8.956 20 20 20 20-8.956 20-20-8.956-20-20-20zm-5.812 30.234h-4.87V16.05h4.87v14.654zM11.753 14.05h-.032c-1.634 0-2.691-1.125-2.691-2.532 0-1.438 1.089-2.532 2.755-2.532s2.692 1.094 2.724 2.532c0 1.407-1.058 2.532-2.756 2.532zm19.999 16.655h-4.87v-7.84c0-1.97-.706-3.314-2.468-3.314-1.346 0-2.147.907-2.5 1.782-.128.313-.16.75-.16 1.188v8.184h-4.87s.064-13.28 0-14.654h4.87v2.075c.648-.999 1.806-2.42 4.39-2.42 3.205 0 5.608 2.095 5.608 6.596v8.403z" fill="#fff"/></svg>