<svg width="40" height="41" fill="none" xmlns="http://www.w3.org/2000/svg"><path d="M20 24.474a4.01 4.01 0 004.005-4.004 3.99 3.99 0 00-.758-2.334 3.999 3.999 0 00-3.245-1.67c-1.337 0-2.519.66-3.248 1.669a3.985 3.985 0 00-.757 2.334A4.006 4.006 0 0020 24.474zm8.743-8.902v-3.856l-.502.002-3.355.01.013 3.857 3.844-.013z" fill="#fff"/><path d="M20 .47c-11.028 0-20 8.972-20 20 0 11.027 8.972 20 20 20 11.027 0 20-8.973 20-20 0-11.028-8.971-20-20-20zm11.374 17.666v9.313a4.4 4.4 0 01-4.396 4.397H13.022a4.4 4.4 0 01-4.396-4.397V13.492a4.4 4.4 0 014.396-4.396h13.955a4.4 4.4 0 014.397 4.396v4.644z" fill="#fff"/><path d="M26.221 20.47A6.23 6.23 0 0120 26.69a6.229 6.229 0 01-6.221-6.221c0-.825.164-1.614.457-2.334h-3.395v9.313a2.18 2.18 0 002.18 2.178h13.955a2.18 2.18 0 002.18-2.178v-9.313H25.76a6.13 6.13 0 01.462 2.334z" fill="#fff"/></svg>