<svg width="24" height="25" fill="none" xmlns="http://www.w3.org/2000/svg"><g clip-path="url(#clip0)"><path d="M23.304 12.444c0-.335-.08-.65-.214-.936-.894-2.884-5.08-2.673-11.033-2.814-.995-.023-.426-1.199-.076-3.779.227-1.678-.855-4.254-2.674-4.254-2.998 0-.114 2.365-2.765 8.214-1.417 3.126-4.583 1.375-4.583 4.514v7.146c0 1.222.12 2.397 1.838 2.59 1.666.188 1.292 1.375 3.695 1.375h12.03a2.225 2.225 0 002.221-2.223c0-.508-.178-.97-.465-1.345.68-.38 1.147-1.1 1.147-1.933a2.2 2.2 0 00-.464-1.343c.682-.38 1.15-1.1 1.15-1.934 0-.606-.246-1.155-.641-1.557a2.207 2.207 0 00.834-1.721z" fill="#FFDB5E"/><path d="M15.347 14.666h5.736a2.23 2.23 0 001.91-1.089.584.584 0 00-1.004-.594 1.057 1.057 0 01-.907.516h-5.873a1.056 1.056 0 010-2.11h3.924a.583.583 0 000-1.167h-3.925a2.224 2.224 0 00-2.222 2.222c0 .683.317 1.288.803 1.696-.41.403-.665.963-.665 1.582 0 .685.319 1.292.808 1.7a2.211 2.211 0 00.28 3.386c-.35.393-.569.904-.569 1.47 0 1.225.997 2.221 2.222 2.221h3.656c.78 0 1.513-.416 1.912-1.088a.583.583 0 00-1.003-.596c-.19.32-.539.518-.909.518h-3.656a1.056 1.056 0 010-2.111h4.338c.78 0 1.513-.417 1.911-1.089a.583.583 0 10-1.003-.596 1.048 1.048 0 01-.908.518h-4.709a1.057 1.057 0 010-2.111h5.394c.78 0 1.513-.417 1.911-1.088a.583.583 0 00-1.002-.596 1.049 1.049 0 01-.909.517h-5.541a1.056 1.056 0 010-2.111z" fill="#EE9547"/></g><defs><clipPath id="clip0"><path fill="#fff" transform="translate(0 .5)" d="M0 0h24v24H0z"/></clipPath></defs></svg>