<svg width="266" height="34" viewBox="0 0 266 34" fill="none" xmlns="http://www.w3.org/2000/svg">
<rect y="0.15144" width="164" height="33" fill="#CF2136"/>
<mask id="mask0" mask-type="alpha" maskUnits="userSpaceOnUse" x="0" y="0" width="164" height="34">
<rect y="0.15144" width="164" height="33" fill="white"/>
</mask>
<g mask="url(#mask0)">
<path fill-rule="evenodd" clip-rule="evenodd" d="M83.2215 27L84.9015 22.23H92.9115L94.5315 27H99.4215L91.4115 5.58H86.5815L78.4815 27H83.2215ZM91.6815 18.72H86.1315L88.9215 10.86H88.9815L91.6815 18.72ZM114.331 18.63V27H109.621V5.58H121.171C122.131 5.58 122.996 5.735 123.766 6.045C124.536 6.355 125.196 6.78 125.746 7.32C126.296 7.86 126.716 8.485 127.006 9.195C127.296 9.905 127.441 10.67 127.441 11.49C127.441 12.75 127.176 13.84 126.646 14.76C126.116 15.68 125.251 16.38 124.051 16.86V16.92C124.631 17.08 125.111 17.325 125.491 17.655C125.871 17.985 126.181 18.375 126.421 18.825C126.661 19.275 126.836 19.77 126.946 20.31C127.056 20.85 127.131 21.39 127.171 21.93C127.191 22.27 127.211 22.67 127.231 23.13C127.251 23.59 127.286 24.06 127.336 24.54C127.386 25.02 127.466 25.475 127.576 25.905C127.686 26.335 127.851 26.7 128.071 27H123.361C123.101 26.32 122.941 25.51 122.881 24.57C122.821 23.63 122.731 22.73 122.611 21.87C122.451 20.75 122.111 19.93 121.591 19.41C121.071 18.89 120.221 18.63 119.041 18.63H114.331ZM119.491 15.27H114.331V9.24H119.491C120.571 9.24 121.381 9.475 121.921 9.945C122.461 10.415 122.731 11.17 122.731 12.21C122.731 13.29 122.461 14.07 121.921 14.55C121.381 15.03 120.571 15.27 119.491 15.27ZM149.071 9.54V27H144.361V9.54H137.941V5.58H155.491V9.54H149.071Z" fill="white"/>
</g>
<path fill-rule="evenodd" clip-rule="evenodd" d="M230.091 26.625C228.791 27.195 227.311 27.48 225.651 27.48C224.011 27.48 222.536 27.195 221.226 26.625C219.916 26.055 218.811 25.27 217.911 24.27C217.011 23.27 216.321 22.095 215.841 20.745C215.361 19.395 215.121 17.94 215.121 16.38C215.121 14.78 215.361 13.295 215.841 11.925C216.321 10.555 217.011 9.36 217.911 8.34C218.811 7.32 219.916 6.52 221.226 5.94C222.536 5.36 224.011 5.07 225.651 5.07C227.311 5.07 228.791 5.36 230.091 5.94C231.391 6.52 232.491 7.32 233.391 8.34C234.291 9.36 234.981 10.555 235.461 11.925C235.941 13.295 236.181 14.78 236.181 16.38C236.181 17.94 235.941 19.395 235.461 20.745C234.981 22.095 234.291 23.27 233.391 24.27C232.491 25.27 231.391 26.055 230.091 26.625ZM187.881 27V23.04H177.441V5.58H172.731V27H187.881ZM203.571 27V5.58H198.861V27H203.571ZM225.651 23.55C224.591 23.55 223.691 23.345 222.951 22.935C222.211 22.525 221.611 21.98 221.151 21.3C220.691 20.62 220.356 19.855 220.146 19.005C219.936 18.155 219.831 17.28 219.831 16.38C219.831 15.44 219.936 14.53 220.146 13.65C220.356 12.77 220.691 11.985 221.151 11.295C221.611 10.605 222.211 10.055 222.951 9.645C223.691 9.235 224.591 9.03 225.651 9.03C226.711 9.03 227.611 9.235 228.351 9.645C229.091 10.055 229.691 10.605 230.151 11.295C230.611 11.985 230.946 12.77 231.156 13.65C231.366 14.53 231.471 15.44 231.471 16.38C231.471 17.28 231.366 18.155 231.156 19.005C230.946 19.855 230.611 20.62 230.151 21.3C229.691 21.98 229.091 22.525 228.351 22.935C227.611 23.345 226.711 23.55 225.651 23.55ZM252.141 12.66V27H247.731V5.58H252.411L261.351 19.95H261.411V5.58H265.821V27H261.111L252.201 12.66H252.141Z" fill="white"/>
</svg>
