<svg width="103" height="20" viewBox="0 0 103 20" fill="none" xmlns="http://www.w3.org/2000/svg">
<g clip-path="url(#clip0)">
<path d="M99.5422 14.1392C99.0374 14.1392 98.5438 14.2917 98.124 14.5775C97.7043 14.8632 97.3771 15.2694 97.1839 15.7446C96.9907 16.2199 96.9401 16.7428 97.0386 17.2473C97.1371 17.7518 97.3802 18.2152 97.7372 18.5789C98.0942 18.9426 98.5491 19.1903 99.0442 19.2907C99.5394 19.391 100.053 19.3395 100.519 19.1427C100.986 18.9458 101.384 18.6125 101.665 18.1848C101.945 17.7571 102.095 17.2543 102.095 16.7399C102.095 16.0501 101.826 15.3886 101.347 14.9009C100.869 14.4132 100.219 14.1392 99.5422 14.1392Z" fill="#006F9F"/>
<path d="M62.1147 4.10253C61.7259 4.11349 61.3547 4.26997 61.072 4.54209C60.785 4.76257 60.5411 5.03591 60.353 5.34795C59.4209 6.99477 58.6961 8.75466 58.1958 10.586L57.9081 10.989C57.4767 11.5384 57.0093 12.1245 56.4341 12.7838C55.8588 13.4432 55.3914 14.0293 54.8162 14.652C54.0491 15.5633 52.9682 16.1402 51.7961 16.2637C51.1327 16.3276 50.4688 16.1455 49.9266 15.7509C49.0178 15.0184 48.4246 13.9543 48.2727 12.7838C48.2579 11.1582 48.5382 9.54374 49.0996 8.02194C49.2939 7.38159 49.5851 6.77602 49.9625 6.22707C50.1909 5.73168 50.5593 5.31709 51.0205 5.03646C51.4818 4.75582 52.0147 4.62194 52.5511 4.65198C52.7774 4.66366 52.999 4.72157 53.2028 4.82225C53.4066 4.92293 53.5885 5.06434 53.7376 5.23806C53.89 5.42649 54.0825 5.57717 54.3005 5.6787C54.5185 5.78023 54.7563 5.82996 54.9959 5.82414C55.3555 5.82414 55.6791 5.5311 56.0386 4.94502C56.423 4.242 56.5979 3.44005 56.5419 2.63733C56.5419 0.988975 55.6431 0.146484 53.8095 0.146484C52.6323 0.192114 51.4841 0.53174 50.4659 1.1355C49.3098 1.78916 48.2754 2.64465 47.4098 3.66297C46.4422 4.95799 45.6892 6.40572 45.1807 7.94868C44.6163 9.74801 44.3372 11.6275 44.3538 13.5164C44.3361 13.7725 44.3361 14.0296 44.3538 14.2857C44.025 14.4318 43.6699 14.5066 43.3112 14.5055C43.6208 13.6988 43.7911 12.8437 43.8145 11.978C43.8436 11.2436 43.6282 10.5207 43.2033 9.9267C42.9489 9.63647 42.6304 9.41204 42.2741 9.27192C41.9177 9.1318 41.5338 9.08002 41.154 9.12084C40.7172 9.11314 40.2841 9.20444 39.8862 9.38816C39.4882 9.57188 39.1353 9.84341 38.853 10.1831C38.2718 10.7902 37.9489 11.6062 37.9542 12.4542C37.9089 13.1762 38.0552 13.8974 38.3778 14.5419C38.7005 15.1864 39.1875 15.7306 39.7878 16.1172C39.1704 16.4931 38.4565 16.6718 37.7384 16.63C37.3797 16.6504 37.0208 16.5923 36.6859 16.4596C36.3511 16.327 36.0479 16.1228 35.797 15.8608C35.3564 15.3013 35.1268 14.5997 35.1498 13.8827C35.1356 13.2082 35.2521 12.5375 35.4927 11.9089C35.7333 11.2803 36.0933 10.7063 36.552 10.2197C37.0137 9.72795 37.5735 9.34271 38.1937 9.08996C38.8139 8.83721 39.4801 8.72284 40.1473 8.75454C41.5495 8.75454 42.2326 8.75454 42.2326 8.31498C42.2326 7.87542 41.7292 7.54575 40.7585 7.14282C40.0219 6.8707 39.2405 6.74632 38.4575 6.77652C37.4971 6.73934 36.5406 6.92059 35.6575 7.30709C34.7744 7.69358 33.9869 8.27563 33.3522 9.01095C32.0911 10.493 31.4124 12.3978 31.4467 14.3589C31.4454 14.8556 31.5181 15.3497 31.6624 15.8241C31.3985 16.0865 31.0575 16.2538 30.6916 16.3003C30.6916 16.3003 30.5119 16.3003 30.5119 15.9707C30.4711 15.6791 30.4711 15.3831 30.5119 15.0915C30.5119 14.6886 30.7276 14.249 30.8355 13.7362C30.9433 13.2234 31.0871 12.7106 31.195 12.1245C31.254 11.4788 31.254 10.8288 31.195 10.1831C31.2072 9.85448 31.1493 9.52705 31.0251 9.22348C30.901 8.9199 30.7136 8.64742 30.4759 8.42487C30.2 8.15793 29.871 7.95441 29.5113 7.82803C29.1516 7.70165 28.7694 7.65535 28.3906 7.69227C27.6483 7.69795 26.9174 7.87964 26.256 8.22297C25.5945 8.56629 25.0205 9.06182 24.5796 9.67029V9.30399C24.6153 8.93702 24.5656 8.56664 24.4344 8.22295C24.3032 7.87925 24.0943 7.57194 23.8246 7.32597C23.2824 6.85634 22.5948 6.59688 21.8831 6.59337C21.3188 6.60182 20.7644 6.74549 20.2647 7.01276C19.7651 7.28003 19.3341 7.6634 19.0069 8.13183C18.898 7.9415 18.7779 7.75802 18.6473 7.58238C18.18 6.63 17.6407 6.19044 17.1014 6.19044C16.8895 6.21028 16.686 6.28453 16.51 6.40624C16.3339 6.52796 16.191 6.69316 16.0947 6.88641C15.2193 8.27694 14.632 9.83507 14.3689 11.4652C14.1896 12.6779 14.0935 13.9018 14.0813 15.1282C13.3622 15.8241 12.8229 16.1904 12.5353 16.1904C12.2477 16.1904 12.032 15.4945 12.032 14.0293C12.0016 12.915 12.0617 11.8001 12.2117 10.6959C12.6073 10.0386 12.9558 9.3531 13.2544 8.64465C13.1718 8.12497 12.9027 7.65504 12.4994 7.32597C12.0561 6.84974 11.4525 6.56187 10.8096 6.52011C10.486 6.52011 10.2343 6.77652 9.98264 7.28934C9.39591 6.97911 8.73658 6.83969 8.07713 6.88641C7.32195 6.87987 6.57022 6.99105 5.84804 7.21608C4.99926 7.5227 4.21758 7.99557 3.54704 8.60802C2.60931 9.46155 1.86602 10.5136 1.36919 11.6905C0.872354 12.8673 0.633993 14.1406 0.670788 15.4212C0.632349 15.9545 0.708989 16.49 0.895324 16.9899C1.08166 17.4898 1.37317 17.9421 1.74938 18.315C2.12331 18.6999 2.57282 19 3.06847 19.1957C3.56413 19.3914 4.09476 19.4782 4.62563 19.4505C5.63039 19.5083 6.6299 19.2664 7.50188 18.7545C8.20707 18.2866 8.79747 17.66 9.22763 16.923C9.56319 18.5348 10.1744 19.3406 11.0612 19.3406C11.7722 19.3191 12.4707 19.1444 13.1106 18.8278C13.4907 18.6308 13.8519 18.3978 14.1892 18.1318C14.2071 18.4322 14.2676 18.7283 14.3689 19.011C14.4178 19.2044 14.5299 19.3751 14.6868 19.4949C14.8436 19.6148 15.0358 19.6766 15.2318 19.6703H15.843C17.2811 19.0842 18.0002 18.4981 18.0002 17.9121C17.9534 17.4748 17.8569 17.0446 17.7126 16.63C17.5339 15.9618 17.4492 15.2712 17.4609 14.5787C17.5882 13.4207 17.9959 12.313 18.6473 11.3553C19.3424 10.1099 19.9536 9.48714 20.481 9.48714C21.0203 9.48714 21.2719 9.78018 21.2719 10.3663C21.302 10.7197 21.302 11.0751 21.2719 11.4285C21.2719 11.8681 21.2719 12.3809 21.2719 12.967C21.2719 13.5531 21.2719 14.1758 21.2719 14.8718C21.2719 15.5677 21.2719 16.3003 21.2719 17.0696C21.2642 17.6895 21.3491 18.3071 21.5236 18.9011C21.5796 19.0974 21.6986 19.269 21.8615 19.3885C22.0244 19.508 22.2219 19.5685 22.4224 19.5604H22.9977C24.4358 18.9743 25.1549 18.3882 25.1549 17.8022C25.1258 17.3655 25.0412 16.9346 24.9032 16.5201C24.5367 15.9434 24.2579 15.3136 24.0763 14.652C24.3286 13.6558 24.7287 12.7047 25.2627 11.8315C25.802 10.989 26.3054 10.5494 26.7368 10.5494C27.1682 10.5494 27.7075 10.8058 27.7075 11.3919C27.6874 12.1327 27.591 12.8694 27.4199 13.5897C27.2689 14.3745 27.1847 15.1711 27.1682 15.9707C27.1682 18.2417 27.7794 19.3773 29.0018 19.3773C30.3425 19.3527 31.6254 18.8168 32.5972 17.8754C33.1621 18.4007 33.8271 18.8018 34.5508 19.0539C35.2745 19.306 36.0414 19.4036 36.8037 19.3406C37.7391 19.3354 38.6612 19.1154 39.5016 18.6968C40.3419 18.2782 41.0788 17.6719 41.6573 16.923C42.2788 16.9901 42.9054 16.9901 43.5269 16.923C43.9811 16.9096 44.4253 16.7839 44.8212 16.5567C45.0869 17.1718 45.4793 17.7214 45.9717 18.1685C47.1111 19.225 48.6018 19.8011 50.1423 19.7802C51.5757 19.8074 52.9943 19.4806 54.2769 18.8278C55.1894 18.35 56.016 17.7184 56.7217 16.9597C56.7217 16.9597 56.7217 17.2161 56.7217 17.2893C56.7217 18.9743 57.0812 19.8168 57.8003 19.8168C58.1475 19.8183 58.4909 19.7433 58.807 19.597L59.7418 19.1575C60.0828 18.9829 60.3645 18.708 60.5504 18.3684C60.7363 18.0287 60.8178 17.6401 60.7844 17.2527V13.5897C61.017 12.1981 61.3535 10.8266 61.7911 9.48714C62.0428 8.60802 62.2225 7.65564 62.4023 6.66663C62.5821 5.67762 62.4023 5.60436 62.4023 4.98165C62.4023 4.35894 62.3304 4.10253 62.1147 4.10253ZM9.04786 13.4798C8.92459 13.9763 8.71779 14.4472 8.43666 14.8718C8.20826 15.3676 7.84802 15.7883 7.39682 16.0861C6.94562 16.384 6.42152 16.547 5.88399 16.5567C4.91326 16.5567 4.2661 15.8974 4.2661 14.652C4.24609 13.9036 4.37248 13.1587 4.63791 12.4607C4.90333 11.7626 5.30248 11.1254 5.81208 10.586C6.77218 9.54524 8.03051 8.84013 9.40739 8.57139C9.1054 10.1884 8.98478 11.8351 9.04786 13.4798ZM41.4057 13.9194C41.1892 13.6919 41.0202 13.422 40.909 13.1261C40.7978 12.8302 40.7466 12.5144 40.7585 12.1978C40.7124 11.9929 40.7124 11.78 40.7585 11.5751C40.7585 11.3186 40.9742 11.2088 41.154 11.2088C41.3338 11.2088 41.6933 11.5018 41.6933 12.0879C41.7631 12.7044 41.7018 13.3291 41.5135 13.9194H41.4057Z" fill="#006F9F"/>
<path d="M95.1919 13.4798C95.1919 13.4798 94.8324 13.4798 94.5088 13.9927C92.819 15.7875 91.7404 16.7033 91.309 16.7033C90.8775 16.7033 90.5539 16.3736 90.5539 15.7143C90.5719 15.1925 90.6565 14.6753 90.8056 14.1758C90.8056 13.4798 91.2011 12.3809 91.5606 10.8425C91.8827 9.53654 92.0517 8.19629 92.064 6.84981C92.064 4.21245 91.0213 2.89377 88.8642 2.89377C88.0699 2.91601 87.294 3.14262 86.6088 3.55252C85.9236 3.96241 85.3513 4.54226 84.9453 5.23809V5.01831C85.0014 4.38468 85.0014 3.74718 84.9453 3.11355C84.9141 2.66994 84.7952 2.23734 84.5957 1.84178C84.3962 1.44622 84.1202 1.09588 83.7843 0.811843C83.4484 0.527805 83.0596 0.315945 82.6412 0.189014C82.2229 0.0620834 81.7836 0.0227062 81.3499 0.0732529C80.2936 0.157474 79.2826 0.546799 78.4357 1.19558C77.5888 1.84436 76.9409 2.7257 76.5682 3.73626C76.5682 3.26007 76.5682 2.78388 76.5682 2.38094C76.5654 2.01674 76.4831 1.65773 76.3272 1.32995C76.1714 1.00218 75.9458 0.713856 75.667 0.485903C75.3882 0.25795 75.0631 0.0960806 74.7153 0.0120354C74.3674 -0.0720098 74.0056 -0.0761234 73.656 -7.15628e-06C72.5743 -0.0265431 71.5137 0.307902 70.6359 0.952374C70.2766 1.19006 69.9704 1.50206 69.7371 1.86812C69.4399 1.56336 69.1008 1.30424 68.7304 1.09889C67.2066 0.312813 65.5116 -0.0653495 63.8048 -7.15628e-06C61.8896 -0.0270102 60.0148 0.562669 58.4478 1.68497C57.9044 2.06066 57.4196 2.51755 57.0097 3.04029C56.7638 3.31728 56.6015 3.66068 56.5423 4.0293C56.5423 4.0293 56.5423 4.32234 57.0097 4.32234C57.3508 4.30053 57.6827 4.20035 57.9804 4.0293L59.1669 3.40659C59.6905 3.15895 60.2312 2.95082 60.7848 2.78388C61.6791 2.56508 62.5977 2.46656 63.5172 2.49084C64.4871 2.42449 65.447 2.7244 66.2137 3.33333C66.5137 3.60915 66.7499 3.94934 66.9054 4.32939C67.0608 4.70943 67.1315 5.11987 67.1125 5.53113C67.1496 6.30064 67.0015 7.06772 66.6811 7.76556C66.3989 8.30746 66.0067 8.78196 65.5306 9.1575C65.1592 8.93867 64.7372 8.82485 64.3082 8.82783C63.8994 8.82752 63.4952 8.91488 63.1217 9.08424C62.9609 9.15573 62.8242 9.27359 62.7284 9.4233C62.6325 9.573 62.5818 9.74801 62.5824 9.92673C62.5823 10.1206 62.628 10.3117 62.7156 10.4838C62.8032 10.656 62.9302 10.8041 63.0858 10.9157C63.4193 11.1921 63.8144 11.3808 64.2363 11.4652C64.5142 12.6086 64.7065 13.7719 64.8115 14.945C64.84 16.091 65.0338 17.2265 65.3868 18.315C65.5605 18.711 65.8491 19.0434 66.2137 19.2674C66.6572 19.5389 67.1713 19.6666 67.6878 19.6337C68.3848 19.6252 69.0717 19.4628 69.7011 19.1575C70.2914 18.8561 70.8462 18.4874 71.355 18.0586C71.355 19.304 71.8583 19.9634 72.5774 19.9634C72.9133 19.9681 73.2458 19.8929 73.5481 19.7436L74.4829 19.304C74.8326 19.1107 75.1183 18.8162 75.3039 18.4577C75.4894 18.0991 75.5666 17.6926 75.5255 17.2894C75.4536 16.2402 75.2973 15.1989 75.0582 14.1758V13.6996C75.0582 13.1868 75.3098 12.5275 75.4896 11.7949C75.9656 9.60866 76.7915 7.51721 77.9344 5.60439C78.8332 4.24908 79.7321 3.58974 80.6668 3.58974C80.8776 3.57271 81.0882 3.62369 81.2689 3.73546C81.4496 3.84723 81.5911 4.01411 81.6735 4.21245C81.8805 4.7612 81.9783 5.34643 81.9612 5.93406C81.7935 8.16209 81.3712 10.3626 80.7028 12.4908L79.8759 15.641C79.6536 16.4038 79.5209 17.1907 79.4804 17.9853C79.4739 18.4771 79.572 18.9645 79.768 19.4139C79.8348 19.5905 79.9536 19.7416 80.1081 19.8465C80.2626 19.9515 80.4453 20.0051 80.6309 20C81.2937 20.001 81.9336 19.7532 82.4285 19.304C82.6925 19.1501 82.9156 18.9328 83.0785 18.6711C83.2414 18.4094 83.3392 18.1111 83.3633 17.8022C83.3821 17.5339 83.3821 17.2646 83.3633 16.9963V16.2637C83.4822 13.9837 84.1224 11.7635 85.2329 9.78021C85.6194 8.9014 86.1148 8.07662 86.707 7.326C86.9077 7.06434 87.1571 6.84554 87.4409 6.68213C87.7246 6.51871 88.0372 6.41388 88.3608 6.37362C88.4783 6.36178 88.5965 6.38706 88.6995 6.44604C88.8024 6.50502 88.885 6.59483 88.9361 6.70329C89.0026 7.00478 89.0026 7.31755 88.9361 7.61904C88.8041 9.27656 88.4782 10.9121 87.9653 12.4908C87.7136 13.37 87.4979 14.1758 87.2822 14.9817C87.0902 15.6854 86.9934 16.4125 86.9946 17.1428C86.9918 17.768 87.2233 18.3706 87.6417 18.8278C87.8663 19.0843 88.1442 19.2865 88.4552 19.4196C88.7662 19.5527 89.1024 19.6133 89.4394 19.5971C90.2076 19.6053 90.9683 19.4428 91.6685 19.1209C92.3522 18.7932 92.9827 18.3608 93.5381 17.8388C94.0997 17.3662 94.5745 16.7957 94.9402 16.1538C95.2953 15.7242 95.5311 15.2057 95.6233 14.652C95.6233 13.8828 95.4795 13.4798 95.1919 13.4798ZM69.2697 16.7033C68.9821 16.7033 68.7664 16.7033 68.5506 16.1538C68.33 15.6733 68.1612 15.1697 68.0473 14.652C68.0473 14.1026 67.7237 13.5165 67.5799 12.8571C67.4078 12.2196 67.1915 11.5954 66.9327 10.989C68.0794 10.5723 69.0884 9.83624 69.8449 8.86446C70.652 7.82613 71.0609 6.52424 70.9954 5.20146C70.9863 4.67881 70.9015 4.16041 70.7438 3.663L71.0314 3.44322L71.6067 3.00366C71.7907 2.85589 72.0196 2.77817 72.2538 2.78388C72.9369 2.78388 73.2965 3.47985 73.2965 4.90842C73.2965 4.90842 73.2964 6.08058 72.8291 7.80219C72.2538 10.8059 71.8943 13.1135 71.6786 14.8718L71.4988 15.0916C71.1153 15.5067 70.7198 15.873 70.3123 16.1905C70.0283 16.4716 69.6625 16.6516 69.2697 16.7033Z" fill="#006F9F"/>
</g>
<defs>
<clipPath id="clip0">
<rect x="0.671204" width="101.424" height="20" fill="white"/>
</clipPath>
</defs>
</svg>
