<svg width="31" height="30" viewBox="0 0 31 30" fill="none" xmlns="http://www.w3.org/2000/svg">
<g clip-path="url(#clip0)">
<path d="M23.6247 15.7806C23.7935 17.383 23.5759 19.0409 22.9091 20.6071V20.6077L25.2237 23.5971C25.4309 23.8647 25.8193 23.9015 26.0758 23.6808C28.1543 21.8921 29.5295 19.3103 29.7333 16.4049C29.7571 16.0667 29.4849 15.7807 29.1459 15.7807H23.6247V15.7806Z" fill="#006F9F"/>
<path d="M17.813 0.588752V7.89853C19.774 8.74718 21.4018 10.225 22.4412 12.0753H29.1611C29.4933 12.0753 29.7622 11.8003 29.7494 11.4682C29.5102 5.25423 24.5558 0.311615 18.4265 0.000756354C18.0921 -0.0161932 17.813 0.25394 17.813 0.588752Z" fill="#006F9F"/>
<path d="M14.0684 26.5295C8.7183 26.5848 4.297 22.2471 4.25375 16.8969C4.21014 11.5048 8.58423 7.10393 13.9665 7.10393V4.23717C13.9665 3.90171 13.6864 3.63334 13.3513 3.6487C6.35672 3.97003 0.783506 9.74258 0.783447 16.817C0.783447 24.1118 6.75839 30.0466 14.053 29.9997C16.8039 29.982 19.3541 29.1221 21.4592 27.6651C21.7362 27.4734 21.7945 27.0876 21.5882 26.8212L19.8328 24.5538C18.2267 25.7741 16.2314 26.5071 14.0684 26.5295Z" fill="#006F9F"/>
<path d="M6.01895 16.8171C6.01895 21.1992 9.58424 24.7645 13.9664 24.7645C18.3481 24.7645 21.9138 21.1999 21.9138 16.8171C21.9138 12.435 18.3481 8.86963 13.9664 8.86963C9.58424 8.86963 6.01895 12.4349 6.01895 16.8171ZM14.8492 11.5374V12.3796C15.7542 12.3796 16.5554 12.7645 17.1203 13.3671C17.4534 13.7226 17.4352 14.2817 17.0797 14.6148C16.7264 14.9458 16.17 14.9331 15.832 14.5742C15.579 14.3047 15.2341 14.1481 14.8851 14.1452C14.1707 14.1452 13.6878 14.1452 12.9765 14.1452C12.4817 14.1452 12.0819 14.546 12.0819 15.0397C12.0819 15.5329 12.4833 15.9343 12.9771 15.9343H14.9563C16.4229 15.9343 17.6164 17.1278 17.6164 18.5944C17.6164 19.9649 16.5623 21.2551 14.8492 21.2551V22.0967C14.8492 22.584 14.4543 22.9795 13.9664 22.9795C13.4791 22.9795 13.0836 22.584 13.0836 22.0967V21.2551C12.4618 21.2551 11.8491 21.1878 11.1315 20.6902C10.7313 20.4124 10.6318 19.8621 10.9096 19.4619C11.1874 19.0611 11.7376 18.9617 12.1378 19.2394C12.3497 19.3877 12.6128 19.4861 12.8747 19.4896H14.9563C15.4479 19.4896 15.8509 19.0927 15.8509 18.5944C15.8509 18.1012 15.4495 17.6999 14.9563 17.6999C14.0805 17.6999 13.9 17.6999 12.9771 17.6999C11.5099 17.6999 10.3164 16.5063 10.3164 15.0397C10.3164 13.665 11.3742 12.3796 13.0836 12.3796V11.5374C13.0836 11.0501 13.4791 10.6546 13.9664 10.6546C14.4543 10.6546 14.8492 11.0501 14.8492 11.5374Z" fill="#006F9F"/>
</g>
<defs>
<clipPath id="clip0">
<rect x="0.266663" width="30" height="30" fill="white"/>
</clipPath>
</defs>
</svg>
