<svg width="14" height="14" viewBox="0 0 14 14" fill="none" xmlns="http://www.w3.org/2000/svg">
<path d="M13.776 2.9729L13.3174 2.51432C13.1733 2.3701 12.9812 2.29077 12.7761 2.29077C12.571 2.29077 12.3787 2.3701 12.2346 2.51432L5.79088 8.95796L1.76491 4.93188C1.62081 4.78789 1.42857 4.70845 1.22346 4.70845C1.01847 4.70845 0.826342 4.78789 0.68213 4.93188L0.223431 5.39035C0.0792195 5.53479 0 5.72715 0 5.93202C0 6.13702 0.0792195 6.32926 0.223431 6.47347L4.76899 11.0188C4.77502 11.0273 4.7814 11.0353 4.7888 11.0426L5.2475 11.4937C5.39159 11.6373 5.58384 11.7091 5.79054 11.7091H5.79293C5.99815 11.7091 6.19039 11.6373 6.33426 11.4937L6.79307 11.0386C6.80047 11.0313 6.80673 11.0253 6.81049 11.0191L13.7759 4.05443C14.0747 3.75633 14.0747 3.27134 13.776 2.9729Z" fill="white"/>
</svg>
