<svg width="41" height="40" viewBox="0 0 41 40" fill="none" xmlns="http://www.w3.org/2000/svg">
<g clip-path="url(#clip0)">
<path d="M36.6729 27.0315H24.9542C23.0393 27.0315 21.3362 27.9549 20.2667 29.3799C19.1971 27.9549 17.494 27.0315 15.5792 27.0315H3.86041C3.21354 27.0315 2.68854 27.5565 2.68854 28.2034V29.3752H12.5159C15.2574 29.3752 17.9849 29.9183 20.2667 31.4393C22.5478 29.9187 25.2748 29.3752 28.0174 29.3752H37.8448V28.2034C37.8448 27.5565 37.3198 27.0315 36.6729 27.0315Z" fill="#006F9F"/>
<path d="M18.0672 35.6336C16.7685 34.5912 14.9006 34.0627 12.5155 34.0627H1.43854C0.79135 34.0627 0.266663 33.538 0.266663 32.8909C0.266663 32.2437 0.79135 31.719 1.43854 31.719H12.5155C15.4474 31.719 17.8089 32.4211 19.5342 33.8058C19.9618 34.149 20.5713 34.1491 20.9991 33.8058C22.7244 32.4211 25.0859 31.719 28.0178 31.719H39.0948C39.742 31.719 40.2667 32.2437 40.2667 32.8909C40.2667 33.538 39.742 34.0627 39.0948 34.0627H28.0178C25.6328 34.0627 23.7649 34.5912 22.466 35.6336C21.1899 36.658 19.3572 36.669 18.0672 35.6336Z" fill="#006F9F"/>
<path d="M28.4698 15.4534V18.8284C28.4698 19.2721 28.219 19.6784 27.8221 19.8768L22.6393 22.4674C22.0651 22.7549 21.5393 23.1252 21.0768 23.5674C20.6237 24.0002 19.9096 24.0002 19.4565 23.5674C18.994 23.1252 18.4682 22.7549 17.894 22.4674L12.7112 19.8768C12.3143 19.6784 12.0635 19.2721 12.0635 18.8284V15.4534L19.301 17.5213C19.9197 17.6983 20.5911 17.7048 21.2323 17.5213L28.4698 15.4534Z" fill="#006F9F"/>
<path d="M33.1573 14.1144V21.1722C33.1573 21.8191 32.6323 22.3441 31.9854 22.3441C31.3385 22.3441 30.8135 21.8191 30.8135 21.1722V14.7839L33.1573 14.1144Z" fill="#006F9F"/>
<path d="M19.9447 15.2677L3.53846 10.5802C2.40987 10.2578 2.40792 8.64966 3.53846 8.32661L19.9447 3.63911C20.1551 3.57896 20.3781 3.57896 20.5885 3.63911L36.9948 8.32661C38.1234 8.64903 38.1253 10.2572 36.9948 10.5802L20.5885 15.2677C20.379 15.3275 20.156 15.328 19.9447 15.2677Z" fill="#006F9F"/>
</g>
<defs>
<clipPath id="clip0">
<rect x="0.266663" width="40" height="40" fill="white"/>
</clipPath>
</defs>
</svg>
