<svg width="16" height="16" viewBox="0 0 16 16" fill="none" xmlns="http://www.w3.org/2000/svg">
<path d="M16 1.70667V14.2933C16 14.746 15.8202 15.1801 15.5001 15.5001C15.1801 15.8202 14.746 16 14.2933 16H9.38667V10.56H11.4438L11.84 8H9.38667V6.33905C9.36608 6.13965 9.39262 5.93821 9.46414 5.75095C9.53565 5.56368 9.65015 5.39583 9.79841 5.26092C9.94667 5.12601 10.1245 5.0278 10.3177 4.97421C10.5109 4.92062 10.7139 4.91314 10.9105 4.95238H12.0229V2.77333C11.3673 2.67116 10.7053 2.61515 10.0419 2.60571C9.57421 2.55628 9.10139 2.61309 8.65872 2.7719C8.21604 2.93072 7.81494 3.18743 7.48533 3.5229C7.15572 3.85837 6.90611 4.26393 6.75513 4.70934C6.60414 5.15474 6.55567 5.62849 6.61333 6.09524V8H4.37333V10.56H6.61333V16H1.70667C1.25403 16 0.819933 15.8202 0.499871 15.5001C0.179809 15.1801 0 14.746 0 14.2933L0 1.70667C0 1.25403 0.179809 0.819933 0.499871 0.499871C0.819933 0.179809 1.25403 0 1.70667 0L14.2933 0C14.746 0 15.1801 0.179809 15.5001 0.499871C15.8202 0.819933 16 1.25403 16 1.70667Z" fill="white"/>
</svg>
