<svg width="30" height="30" viewBox="0 0 30 30" fill="none" xmlns="http://www.w3.org/2000/svg">
<path d="M27.3633 3.57422H2.63671C2.23083 3.57422 1.85085 3.674 1.50708 3.83848L14.9414 17.2728L17.9525 14.379C17.9525 14.379 17.9527 14.3787 17.9528 14.3786C17.9528 14.3785 17.9531 14.3784 17.9531 14.3784L28.4933 3.83871C28.1495 3.67412 27.7693 3.57422 27.3633 3.57422Z" fill="#006F9F"/>
<path d="M29.7361 5.08167L19.8172 15.0001L29.7358 24.9186C29.9002 24.5749 30 24.1949 30 23.789V6.21088C30 5.80524 29.9005 5.42532 29.7361 5.08167Z" fill="#006F9F"/>
<path d="M0.264258 5.0813C0.0997852 5.42507 0 5.80505 0 6.21093V23.789C0 24.1947 0.099668 24.5747 0.264023 24.9184L10.1829 15L0.264258 5.0813Z" fill="#006F9F"/>
<path d="M18.5744 16.2429L15.5629 19.137C15.3912 19.3087 15.1663 19.3946 14.9415 19.3946C14.7167 19.3946 14.4917 19.3087 14.3201 19.137L11.4258 16.2428L1.50671 26.1613C1.85054 26.3258 2.23076 26.4257 2.63675 26.4257H27.3633C27.7692 26.4257 28.1492 26.326 28.4929 26.1615L18.5744 16.2429Z" fill="#006F9F"/>
</svg>
