<svg width="30" height="30" viewBox="0 0 30 30" fill="none" xmlns="http://www.w3.org/2000/svg">
<g clip-path="url(#clip0)">
<path d="M27.1023 19.6749C25.2982 19.6749 23.5268 19.3927 21.8482 18.838C21.0257 18.5574 20.0145 18.8148 19.5125 19.3304L16.1993 21.8315C12.3569 19.7805 9.99004 17.4144 7.96697 13.6008L10.3945 10.3739C11.0252 9.74406 11.2514 8.824 10.9804 7.96071C10.4233 6.27329 10.1403 4.50275 10.1403 2.69792C10.1404 1.3941 9.07965 0.333374 7.7759 0.333374H2.36447C1.06072 0.333374 0 1.3941 0 2.69784C0 17.6422 12.1579 29.8 27.1023 29.8C28.406 29.8 29.4667 28.7393 29.4667 27.4356V22.0393C29.4667 20.7356 28.4059 19.6749 27.1023 19.6749Z" fill="#006F9F"/>
</g>
<defs>
<clipPath id="clip0">
<rect y="0.333374" width="29.4667" height="29.4667" fill="white"/>
</clipPath>
</defs>
</svg>
