<svg width="19" height="15" viewBox="0 0 19 15" fill="none" xmlns="http://www.w3.org/2000/svg">
<path d="M16.4229 4.17936C16.4229 7.00834 15.2991 9.72145 13.2987 11.7218C11.2983 13.7222 8.58521 14.846 5.75624 14.846C3.71909 14.8424 1.72559 14.2554 0.0114746 13.1546C0.310725 13.1774 0.611272 13.1774 0.910522 13.1546C2.5903 13.1746 4.22959 12.6389 5.57338 11.6308C4.79207 11.6182 4.03424 11.3617 3.40585 10.8972C2.77746 10.4328 2.30993 9.78353 2.06862 9.04032C2.30201 9.05596 2.53618 9.05596 2.76957 9.04032C3.10334 9.03829 3.43574 8.99738 3.76005 8.91841C2.90457 8.75558 2.13248 8.29997 1.57635 7.62984C1.02023 6.95971 0.714767 6.11686 0.712427 5.24603C1.2328 5.5305 1.81139 5.69209 2.40386 5.71841C1.89352 5.3674 1.4777 4.89586 1.19328 4.34562C0.908855 3.79539 0.764625 3.18346 0.77338 2.56413C0.767065 1.89837 0.94648 1.24403 1.29147 0.674602C2.23657 1.82578 3.41227 2.76627 4.74289 3.43551C6.0735 4.10475 7.52952 4.48791 9.01719 4.56032C8.9559 4.28002 8.92525 3.9939 8.92576 3.70698C8.93405 2.95973 9.1655 2.23201 9.59039 1.61726C10.0153 1.00251 10.6142 0.528777 11.3103 0.256895C12.0064 -0.0149874 12.7678 -0.0726123 13.4969 0.0914185C14.226 0.255449 14.8894 0.633649 15.402 1.17746C16.2448 1.0082 17.0534 0.699174 17.7943 0.263174C17.5036 1.12889 16.915 1.86329 16.1334 2.33555C16.8787 2.24741 17.6075 2.0524 18.2972 1.75651C17.7854 2.50216 17.1518 3.15637 16.4229 3.69175V4.17936Z" fill="white"/>
</svg>
