<svg width="20" height="12" viewBox="0 0 20 12" fill="none" xmlns="http://www.w3.org/2000/svg">
<path d="M16.2669 5.67225C16.0383 6.02273 15.9469 6.20559 16.2669 6.60178C17.5153 7.77436 18.5971 9.11253 19.4821 10.5789C19.665 11.1732 19.3602 11.478 18.7659 11.478H16.6478C15.8555 11.478 15.6116 10.838 14.1945 9.40559C12.945 8.20178 12.4878 8.0494 12.0916 8.0494C11.4212 8.0494 11.5431 8.27797 11.5431 10.6551C11.5431 11.1732 11.3755 11.478 10.0193 11.478C8.72748 11.3934 7.47408 11.0041 6.36168 10.342C5.24928 9.67981 4.3095 8.76364 3.61927 7.66845C1.98181 5.61639 0.844496 3.21134 0.297363 0.643682C0.297363 0.338921 0.419268 0.0493967 1.01355 0.0493967H3.11641C3.66498 0.0493967 3.86308 0.277968 4.07641 0.872254C5.09736 3.91987 6.83451 6.49511 7.5507 6.49511C7.82498 6.49511 7.94689 6.35797 7.94689 5.68749V2.63987C7.91641 1.16178 7.10879 1.03987 7.10879 0.537016C7.11071 0.469627 7.12616 0.403312 7.15422 0.342013C7.18228 0.280715 7.22238 0.225684 7.27213 0.180194C7.32189 0.134704 7.38028 0.0996827 7.44384 0.077213C7.5074 0.0547432 7.57483 0.0452836 7.64213 0.0493967H10.964C11.4059 0.0493967 11.5583 0.293206 11.5583 0.82654V4.98654C11.5583 5.44368 11.7564 5.59606 11.8936 5.59606C12.0307 5.59606 12.3812 5.44368 12.8688 4.95606C13.9288 3.64899 14.796 2.19678 15.444 0.643682C15.5124 0.459564 15.6382 0.302351 15.8029 0.195317C15.9675 0.0882826 16.1623 0.0371177 16.3583 0.0493967H18.4612C19.1012 0.0493967 19.2231 0.384635 19.1012 0.82654C18.323 2.53363 17.3734 4.15721 16.2669 5.67225Z" fill="white"/>
</svg>
