<svg width="45" height="49" fill="none" xmlns="http://www.w3.org/2000/svg"><path d="M9.763 41.832h3.668a38.731 38.731 0 00-1.274 5.005H1.55c.402-.9.862-1.773 1.377-2.613a.687.687 0 00-.746-1.058.69.69 0 00-.428.34 24.157 24.157 0 00-1.672 3.243 1.054 1.054 0 00.48 1.336c.153.082.324.125.498.126h42.88a1.063 1.063 0 00.883-.472 1.054 1.054 0 00.094-.994 24.259 24.259 0 00-7.767-9.954 24.365 24.365 0 00-11.73-4.72l1.5-3.697a.902.902 0 01.512-.503 13.832 13.832 0 005.017-3.29 13.78 13.78 0 003.144-5.1 13.745 13.745 0 00-1.235-11.623 13.804 13.804 0 00-4.146-4.33 13.853 13.853 0 00-11.589-1.77 13.84 13.84 0 00-5.256 2.895.688.688 0 00.42 1.187.693.693 0 00.493-.154A12.48 12.48 0 0129.421 4.7a12.42 12.42 0 013.725 3.892 12.378 12.378 0 01-1.705 15.03 12.446 12.446 0 01-4.502 2.966 2.29 2.29 0 00-1.3 1.273l-1.953 4.812-.008.018v.006l-.739 1.814a.472.472 0 01-.702.213.472.472 0 01-.174-.213l-.849-2.09-.01-.026-1.842-4.533a2.273 2.273 0 00-1.292-1.272 12.476 12.476 0 01-5.895-4.68 12.416 12.416 0 01-2.118-7.21 12.26 12.26 0 012.441-7.083.688.688 0 00-.658-1.065.692.692 0 00-.45.243 13.624 13.624 0 00-2.714 7.869 13.792 13.792 0 002.35 8.01 13.86 13.86 0 006.548 5.203.895.895 0 01.506.5l1.502 3.697c-1.925.23-3.815.69-5.63 1.369a.69.69 0 00-.437.768.69.69 0 00.923.522c1.231-.462 2.5-.817 3.792-1.06-1.683 1.472-3.155 3.797-4.306 6.783H11.24l-1.477 1.375zm10.55-7.957l.469 1.152a1.85 1.85 0 001.718 1.154 1.86 1.86 0 001.72-1.154l.466-1.15c1.097.61 2.165 1.681 3.122 3.14a.689.689 0 00.956.198.691.691 0 00.3-.703.687.687 0 00-.1-.25 12.593 12.593 0 00-2.192-2.588 22.876 22.876 0 019.286 4.026 23.15 23.15 0 013.126 2.755h-8.116a25.912 25.912 0 00-.723-1.697.689.689 0 00-.918-.331.689.689 0 00-.333.915c.168.358.33.73.488 1.114h-14.17c1.32-3.223 3.022-5.547 4.902-6.584v.003zm-6.746 12.962c.325-1.698.77-3.37 1.33-5.006h15.206a36.574 36.574 0 011.335 5.006H13.567zm19.28 0a38.73 38.73 0 00-1.283-5.006h8.825a22.875 22.875 0 013.064 5.006H32.848z" fill="#E5357E"/><path d="M31.082 21.334l-7.379 14.61a1.423 1.423 0 01-1.291.78 1.429 1.429 0 01-1.27-.815l-7.225-15.33" fill="#E5357E"/><path d="M22.5 0c-2.924 0-5.781.866-8.212 2.485A14.746 14.746 0 008.845 9.1a14.694 14.694 0 00-.84 8.514 14.723 14.723 0 004.048 7.544 14.797 14.797 0 007.569 4.032c2.867.568 5.84.276 8.54-.84a14.773 14.773 0 006.634-5.428 14.703 14.703 0 00-1.841-18.607 14.787 14.787 0 00-4.797-3.194A14.823 14.823 0 0022.5 0zm0 18.303a3.587 3.587 0 01-3.307-2.201 3.558 3.558 0 01.775-3.89 3.582 3.582 0 013.9-.773 3.56 3.56 0 011.162 5.819 3.585 3.585 0 01-2.53 1.046zM9.912 39.958l-2.6 5.152a.501.501 0 01-.903-.012L3.86 39.695" fill="#E5357E"/><path d="M6.887 32.438c-1.03 0-2.038.305-2.895.876a5.197 5.197 0 00-1.918 2.331 5.179 5.179 0 001.13 5.66 5.215 5.215 0 005.679 1.124 5.206 5.206 0 002.338-1.913 5.182 5.182 0 00-.65-6.558 5.219 5.219 0 00-3.684-1.52zm0 6.451a1.265 1.265 0 01-1.166-.776 1.254 1.254 0 01.919-1.715 1.265 1.265 0 011.295.534 1.255 1.255 0 01-1.048 1.957zm35.323-7.515l-2.603 5.152a.501.501 0 01-.902-.013l-2.547-5.402" fill="#E5357E"/><path d="M39.184 23.855c-1.03 0-2.039.304-2.896.875a5.198 5.198 0 00-1.92 2.33 5.18 5.18 0 001.129 5.662 5.217 5.217 0 005.679 1.127 5.207 5.207 0 002.338-1.913 5.183 5.183 0 00-.647-6.559 5.22 5.22 0 00-3.683-1.522zm0 6.452a1.264 1.264 0 01-1.166-.775 1.254 1.254 0 01.918-1.716 1.266 1.266 0 011.296.535 1.256 1.256 0 01-1.048 1.956z" fill="#E5357E"/></svg>