<svg width="55" height="51" fill="none" xmlns="http://www.w3.org/2000/svg"><path d="M37.193 35.847H24.247v2.584h12.946v-2.584z" fill="#E5357E"/><path d="M15.146 29.898l3.059 15.55H43.3l3.45-15.55H15.146z" fill="#E5357E"/><path d="M49.266 30.63H12.39a.734.734 0 01-.734-.732.731.731 0 01.734-.732h36.877a.734.734 0 01.734.732.731.731 0 01-.734.732z" fill="#E5357E"/><path d="M24.232 34.697h-.251a9.617 9.617 0 01-6.274-2.553 9.568 9.568 0 01-1.294-12.587 9.606 9.606 0 015.624-3.77v-.065a9.573 9.573 0 012.834-6.552 9.616 9.616 0 0113.274-.249 9.575 9.575 0 013.078 6.442 9.68 9.68 0 014.454 3.377A9.568 9.568 0 0144.3 31.5a9.617 9.617 0 01-12.863-.049 9.634 9.634 0 01-7.205 3.246zM31.634 7.68a8.32 8.32 0 00-5.794 2.354 8.284 8.284 0 00-2.507 5.72c0 .172 0 .344.004.532l.02.563-.556.096a8.318 8.318 0 00-6.14 4.756 8.277 8.277 0 003.337 10.546 8.324 8.324 0 0010.873-2.144l.461-.61.527.555a8.326 8.326 0 009.008 2.045 8.306 8.306 0 003.812-2.955 8.278 8.278 0 001.522-4.57 8.314 8.314 0 00-1.546-5.026 8.344 8.344 0 00-4.255-3.1l-.447-.14-.007-.466a8.281 8.281 0 00-2.403-5.698 8.317 8.317 0 00-5.686-2.455l-.223-.003z" fill="#E5357E"/><path d="M34.577 16.043l8.458-10.79c1.013-1.292 2.73-1.642 3.836-.78 1.104.86 1.18 2.609.167 3.901l-8.458 10.79" fill="#E5357E"/><path d="M39.78 23.35l-1.294-.066.033-.645c.005-.1.009-.199.01-.296.043-2.562-1.086-4.446-3.359-5.598a10.272 10.272 0 00-3.613-1.011l-.646-.037.07-1.291.646.034c1.424.118 2.814.502 4.098 1.13 2.737 1.379 4.157 3.725 4.104 6.794 0 .111-.005.226-.011.345l-.037.64z" fill="#E5357E"/></svg>