<svg width="63" height="63" fill="none" xmlns="http://www.w3.org/2000/svg"><g clip-path="url(#clip0)"><g clip-path="url(#clip1)" fill="#E5357E"><path d="M33.705 54h-4.41a1.919 1.919 0 01-1.91-1.638l-.43-2.903a18.35 18.35 0 01-4.943-2.05l-2.351 1.74a1.944 1.944 0 01-2.515-.186l-3.111-3.11a1.92 1.92 0 01-.186-2.514l1.748-2.353a18.301 18.301 0 01-2.05-4.941l-2.902-.431A1.921 1.921 0 019 33.704v-4.41a1.92 1.92 0 011.639-1.909l2.902-.43a18.351 18.351 0 012.056-4.943l-1.742-2.35a1.92 1.92 0 01.186-2.516l3.105-3.111a1.946 1.946 0 012.515-.186l2.352 1.741a18.354 18.354 0 014.942-2.05l.432-2.9A1.92 1.92 0 0129.295 9h4.41a1.92 1.92 0 011.909 1.638l.432 2.903c1.74.44 3.404 1.132 4.942 2.056l2.35-1.742a1.922 1.922 0 012.516.186l3.112 3.11a1.922 1.922 0 01.185 2.515L47.41 22.02a18.352 18.352 0 012.051 4.942l2.9.431A1.919 1.919 0 0154 29.3v4.41a1.919 1.919 0 01-1.637 1.91l-2.904.431a18.32 18.32 0 01-2.05 4.943l1.74 2.35a1.924 1.924 0 01-.185 2.516l-3.112 3.111a1.921 1.921 0 01-2.514.186l-2.352-1.742a18.322 18.322 0 01-4.942 2.05l-.43 2.9A1.92 1.92 0 0133.703 54zm-11.726-8.01a.65.65 0 01.343.099 17.045 17.045 0 005.347 2.219.644.644 0 01.494.532l.494 3.33a.644.644 0 00.638.545h4.41a.643.643 0 00.638-.549l.494-3.326a.643.643 0 01.494-.533 17.072 17.072 0 005.352-2.219.645.645 0 01.725.027l2.695 2.001a.643.643 0 00.842-.06l3.112-3.11a.65.65 0 00.06-.843l-2-2.7a.645.645 0 01-.027-.725 17.073 17.073 0 002.219-5.347.643.643 0 01.532-.494l3.33-.495a.643.643 0 00.544-.636v-4.411a.644.644 0 00-.548-.638l-3.328-.494a.643.643 0 01-.532-.494 17.046 17.046 0 00-2.219-5.347.641.641 0 01.028-.725l2-2.7a.65.65 0 00-.06-.836l-3.112-3.115a.643.643 0 00-.842-.06l-2.7 1.997a.642.642 0 01-.725.027 17.08 17.08 0 00-5.348-2.217.643.643 0 01-.495-.534l-.495-3.33a.642.642 0 00-.634-.543h-4.41a.643.643 0 00-.638.547l-.494 3.327a.643.643 0 01-.494.533 17.067 17.067 0 00-5.347 2.218.642.642 0 01-.725-.027l-2.7-2a.651.651 0 00-.842.061l-3.109 3.111a.65.65 0 00-.06.843l1.997 2.7a.642.642 0 01.027.724 17.075 17.075 0 00-2.218 5.352.643.643 0 01-.533.495l-3.33.494a.644.644 0 00-.543.635v4.41a.643.643 0 00.547.638l3.328.495a.64.64 0 01.532.494 17.096 17.096 0 002.217 5.346.641.641 0 01-.026.726l-2 2.695a.65.65 0 00.061.841l3.111 3.112a.65.65 0 00.843.059l2.7-2a.643.643 0 01.38-.125z"/><path d="M44.566 31.493a13.058 13.058 0 00-22.06-9.462 13.059 13.059 0 008.351 22.505V39.02a5.822 5.822 0 01-5.173-5.778v-2.957a.65.65 0 01.015-.139h-.009a.643.643 0 01.643-.642h1.573v-3.606a.643.643 0 111.286 0v3.606h4.63v-3.606a.643.643 0 111.285 0v3.606h1.58a.643.643 0 01.643.642h-.022a.65.65 0 01.015.139v2.957a5.823 5.823 0 01-5.176 5.78v5.514a13.057 13.057 0 0012.42-13.043z"/></g></g><defs><clipPath id="clip0"><path fill="#fff" d="M0 0h63v63H0z"/></clipPath><clipPath id="clip1"><path fill="#fff" transform="translate(9 9)" d="M0 0h45v45H0z"/></clipPath></defs></svg>