<svg xmlns="http://www.w3.org/2000/svg" width="24" height="24" viewBox="0 0 24 24"><g><g><path fill="#fff" d="M12 0c6.627 0 12 5.373 12 12s-5.373 12-12 12S0 18.627 0 12 5.373 0 12 0zM1.5 12c0 5.8 4.701 10.5 10.5 10.5S22.5 17.799 22.5 12c0-5.8-4.701-10.5-10.5-10.5S1.5 6.2 1.5 12zm13.494 1.583c0 1.418-.909 2.22-2.232 2.421v.898c0 .212-.067.342-.325.342h-.875c-.258 0-.325-.13-.325-.342v-.921c-1.166-.26-2.243-1.075-2.243-2.422 0-.271.068-.33.325-.33h1.088c.258 0 .382.035.404.33a.834.834 0 0 0 .213.485c.224.283.684.39 1.099.39.605 0 1.099-.143 1.099-.804s-.998-.673-1.951-.992c-1.133-.378-2.176-.85-2.176-2.35 0-1.323.976-2.056 2.142-2.28v-.91c0-.212.067-.342.325-.342h.875c.258 0 .325.13.325.342v.945c1.088.237 2.04.922 2.04 2.138 0 .284-.066.331-.324.331h-1.1c-.212 0-.246-.165-.302-.32a.817.817 0 0 0-.235-.353c-.213-.213-.617-.32-.953-.32-.37 0-.987.154-.987.686 0 .72 1.648.98 2.097 1.169.807.26 1.996.603 1.996 2.209z"/></g></g></svg>