<svg xmlns="http://www.w3.org/2000/svg" width="34" height="30" viewBox="0 0 34 30"><g><g><path fill="#1b1b1b" d="M17.006 17.566a.547.547 0 0 1-.245-.058L1.295 9.736a.517.517 0 0 1-.288-.46c0-.194.111-.371.288-.46l15.468-7.772a.55.55 0 0 1 .49 0l15.465 7.771c.178.09.289.267.289.46a.517.517 0 0 1-.289.461l-15.467 7.772a.547.547 0 0 1-.245.058zM2.702 9.276l14.304 7.188 14.307-7.188-14.305-7.188zm14.306 14.507a.547.547 0 0 1-.258-.065l-15.466-8.3a.512.512 0 0 1 .05-.931l2.104-1.013a.54.54 0 0 1 .715.235.512.512 0 0 1-.241.694l-1.22.587 14.316 7.683 14.316-7.683-1.22-.587a.512.512 0 0 1-.24-.694.542.542 0 0 1 .714-.235l2.12 1.02a.512.512 0 0 1 .034.923l-15.466 8.301a.547.547 0 0 1-.258.065zm0 6.217a.547.547 0 0 1-.258-.065l-15.466-8.3a.512.512 0 0 1 .05-.93l2.104-1.014a.54.54 0 0 1 .715.235.511.511 0 0 1-.241.694l-1.22.587 14.316 7.683 14.316-7.683-1.22-.587a.512.512 0 0 1-.24-.694.54.54 0 0 1 .714-.235l2.12 1.02a.512.512 0 0 1 .034.923l-15.466 8.301a.547.547 0 0 1-.258.065z"/><path fill="#fff" d="M17.006 17.566a.547.547 0 0 1-.245-.058L1.295 9.736a.517.517 0 0 1-.288-.46c0-.194.111-.371.288-.46l15.468-7.772a.55.55 0 0 1 .49 0l15.465 7.771c.178.09.289.267.289.46a.517.517 0 0 1-.289.461l-15.467 7.772a.547.547 0 0 1-.245.058zM2.702 9.276l14.304 7.188 14.307-7.188-14.305-7.188zm14.306 14.507a.547.547 0 0 1-.258-.065l-15.466-8.3a.512.512 0 0 1 .05-.931l2.104-1.013a.54.54 0 0 1 .715.235.512.512 0 0 1-.241.694l-1.22.587 14.316 7.683 14.316-7.683-1.22-.587a.512.512 0 0 1-.24-.694.542.542 0 0 1 .714-.235l2.12 1.02a.512.512 0 0 1 .034.923l-15.466 8.301a.547.547 0 0 1-.258.065zm0 6.217a.547.547 0 0 1-.258-.065l-15.466-8.3a.512.512 0 0 1 .05-.93l2.104-1.014a.54.54 0 0 1 .715.235.511.511 0 0 1-.241.694l-1.22.587 14.316 7.683 14.316-7.683-1.22-.587a.512.512 0 0 1-.24-.694.54.54 0 0 1 .714-.235l2.12 1.02a.512.512 0 0 1 .034.923l-15.466 8.301a.547.547 0 0 1-.258.065z"/><path fill="none" stroke="#fff" stroke-linecap="round" stroke-linejoin="round" stroke-miterlimit="20" d="M17.006 17.566a.547.547 0 0 1-.245-.058L1.295 9.736a.517.517 0 0 1-.288-.46c0-.194.111-.371.288-.46l15.468-7.772a.55.55 0 0 1 .49 0l15.465 7.771c.178.09.289.267.289.46a.517.517 0 0 1-.289.461l-15.467 7.772a.547.547 0 0 1-.245.058zM2.702 9.276l14.304 7.188 14.307-7.188-14.305-7.188zm14.306 14.507a.547.547 0 0 1-.258-.065l-15.466-8.3a.512.512 0 0 1 .05-.931l2.104-1.013a.54.54 0 0 1 .715.235.512.512 0 0 1-.241.694l-1.22.587 14.316 7.683 14.316-7.683-1.22-.587a.512.512 0 0 1-.24-.694.542.542 0 0 1 .714-.235l2.12 1.02a.512.512 0 0 1 .034.923l-15.466 8.301a.547.547 0 0 1-.258.065zm0 6.217a.547.547 0 0 1-.258-.065l-15.466-8.3a.512.512 0 0 1 .05-.93l2.104-1.014a.54.54 0 0 1 .715.235.511.511 0 0 1-.241.694l-1.22.587 14.316 7.683 14.316-7.683-1.22-.587a.512.512 0 0 1-.24-.694.54.54 0 0 1 .714-.235l2.12 1.02a.512.512 0 0 1 .034.923l-15.466 8.301a.547.547 0 0 1-.258.065z"/></g></g></svg>