<svg xmlns="http://www.w3.org/2000/svg" width="31" height="31" viewBox="0 0 31 31"><g><g><path fill="#fff" d="M15.5 0C24.06 0 31 6.94 31 15.5 31 24.06 24.06 31 15.5 31 6.94 31 0 24.06 0 15.5 0 6.94 6.94 0 15.5 0zM1.938 15.5c0 7.49 6.072 13.562 13.562 13.562 7.49 0 13.562-6.072 13.562-13.562 0-7.49-6.072-13.563-13.562-13.563C8.01 1.937 1.938 8.01 1.938 15.5zm9.7-2.86c0-.446.158-.898.473-1.356.315-.458.774-.837 1.378-1.138.604-.3 1.308-.45 2.113-.45.748 0 1.41.125 1.982.377.573.25 1.015.592 1.328 1.024.312.432.468.902.468 1.409 0 .399-.09.749-.267 1.049-.178.3-.39.56-.635.778-.245.219-.685.586-1.32 1.103a5.159 5.159 0 0 0-.422.383c-.106.11-.184.212-.236.303a1.395 1.395 0 0 0-.12.275c-.028.091-.07.252-.128.482-.098.489-.405.733-.92.733a.993.993 0 0 1-.678-.24c-.183-.16-.275-.397-.275-.711 0-.395.067-.736.201-1.025.135-.288.313-.542.535-.76.221-.219.52-.478.897-.779.33-.262.57-.46.717-.595a2.04 2.04 0 0 0 .371-.447c.1-.164.151-.343.151-.535 0-.376-.153-.693-.46-.95-.308-.259-.704-.388-1.189-.388-.568 0-.986.13-1.254.39-.268.261-.495.645-.681 1.152-.176.53-.508.796-.999.796-.289 0-.533-.093-.731-.278-.199-.186-.298-.386-.298-.602zm3.778 8.687c-.314 0-.59-.093-.824-.278-.235-.186-.352-.445-.352-.778a.96.96 0 0 1 .34-.747c.227-.202.506-.303.837-.303.325 0 .598.101.82.303a.97.97 0 0 1 .333.747c0 .328-.116.586-.348.774-.233.188-.501.282-.805.282z"/></g></g></svg>