<svg width="127" height="31" fill="none" xmlns="http://www.w3.org/2000/svg"><path fill-rule="evenodd" clip-rule="evenodd" d="M16.107 20.484c0-1.564-1.155-2.646-3.577-2.646H7.675v5.334h4.973c2.028 0 3.459-.722 3.459-2.688zm-.874-10.586c0-1.524-1.036-2.567-2.585-2.567H7.675v5.053h4.855c1.747 0 2.703-1.283 2.703-2.486zm8.111 11.348c0 4.572-4.213 7.58-8.47 7.58H.994V1.676H13.72c4.894 0 8.431 2.444 8.431 7.46 0 4.29-3.735 5.574-3.735 5.574 0 .04 4.93 1.163 4.93 6.536zm20.773-6.014c0-4.252-1.949-7.7-5.802-7.7-3.858 0-5.767 3.448-5.767 7.7 0 4.29 1.909 7.739 5.767 7.739 3.853 0 5.802-3.449 5.802-7.74zm6.68 0c0 7.98-4.573 14.236-12.482 14.236-7.874 0-12.487-6.256-12.487-14.236C25.828 7.29 30.441.995 38.31.995c7.914 0 12.487 6.296 12.487 14.237zm23.319 5.373c0 5.975-5.407 8.863-10.494 8.863-5.886 0-8.91-2.246-11.293-5.093l4.332-4.252c1.83 2.327 4.218 3.49 6.882 3.49 2.186 0 3.656-1.083 3.656-2.688 0-1.724-1.3-2.26-4.854-3.007l-.953-.2c-4.279-.9-7.795-3.329-7.795-8.181 0-5.333 4.337-8.542 10.064-8.542 4.85 0 7.993 2.085 9.902 4.249l-4.218 4.173c-1.312-1.404-3.3-2.527-5.565-2.527-1.55 0-3.3.722-3.3 2.527 0 1.644 1.82 2.24 4.134 2.726l.957.201c3.87.813 8.545 2.005 8.545 8.26zm25.825 2.968c-2.782 4.01-5.367 5.895-10.735 5.895-7.633 0-12.566-6.337-12.566-14.397 0-7.66 4.455-14.036 12.645-14.036 4.494 0 7.716 1.764 10.459 5.895l-5.486 3.65c-1.115-1.926-2.546-3.049-4.934-3.049-3.02 0-5.925 2.702-5.925 7.54 0 5.421 3.143 7.9 6.127 7.9 2.581 0 3.775-1.284 4.89-3.128l5.525 3.73zm25.47 5.253h-7.159V18.12h-8.234v10.707h-7.114V1.676h7.114v9.986h8.234V1.676h7.159v27.15" fill="#B9C1CC"/></svg>