<svg xmlns="http://www.w3.org/2000/svg" width="57" height="45" viewBox="0 0 57 45"><g><g><path fill="#fff" d="M32.245 41.933c-.7.757-1.928.84-2.661.2.91-.906 1.817-1.814 2.73-2.722.611.601.601 1.792-.07 2.522zM14.668 30.507c-.79-.018-1.39-.365-1.72-1.098-.336-.763-.25-1.512.33-2.12a139.218 139.218 0 0 1 3.392-3.4c.764-.744 1.978-.685 2.732.089a1.93 1.93 0 0 1 .003 2.708c-1.059 1.071-2.128 2.135-3.198 3.2-.421.419-.942.603-1.539.62zm3.823 3.934c-.723-.04-1.346-.425-1.676-1.193-.331-.768-.208-1.51.375-2.11a143.962 143.962 0 0 1 3.348-3.352c.786-.763 2-.703 2.76.088a1.93 1.93 0 0 1-.025 2.712 528.866 528.866 0 0 1-3.298 3.301c-.38.377-.842.554-1.484.554zm2.211 2.71a1.888 1.888 0 0 1 .36-2.115 224.411 224.411 0 0 1 3.375-3.376c.754-.735 1.961-.69 2.707.063.747.745.787 1.955.053 2.712a230.765 230.765 0 0 1-3.37 3.372c-.364.353-.815.516-1.48.515-.677-.025-1.292-.411-1.645-1.171zm5.669 5.05c-.803-.002-1.517-.469-1.805-1.215-.306-.784-.172-1.503.418-2.105a274.91 274.91 0 0 1 3.3-3.3c.763-.758 1.968-.743 2.736.011.775.77.794 1.985.025 2.764a845.83 845.83 0 0 1-3.275 3.276 1.868 1.868 0 0 1-1.4.568zm24.764-19.794c-1.444-3.528-3.8-6.264-6.297-8.892-2.062-2.167-4.292-4.146-6.784-5.814-1.023-.688-2.077-1.32-3.256-1.72-.04-.015-.076-.048-.132-.08.081-.085.146-.16.214-.231 1.15-1.152 2.304-2.298 3.445-3.456.214-.216.428-.272.715-.199.962.238 1.813.719 2.648 1.229 1.986 1.211 3.772 2.683 5.462 4.271 2.324 2.183 4.47 4.527 6.227 7.198.61.923 1.168 1.876 1.526 2.932.158.47.12.82-.276 1.195-1.105 1.048-2.164 2.143-3.236 3.222-.087.088-.153.203-.256.345zM22.318 5.96zm0 0c-1.347.45-2.45 1.089-3.505 1.804-2.772 1.862-5.208 4.106-7.474 6.542-1.57 1.69-3.046 3.461-4.238 5.446-.5.832-.912 1.72-1.37 2.592-.02-.016-.091-.066-.15-.127-1.159-1.157-2.313-2.318-3.48-3.47-.181-.182-.283-.374-.194-.612.263-.709.48-1.443.831-2.104.97-1.833 2.256-3.45 3.62-5 2.357-2.669 4.931-5.104 7.876-7.12 1.027-.7 2.09-1.34 3.276-1.75.471-.163.818-.128 1.195.267 1.052 1.115 2.156 2.181 3.243 3.263.088.086.2.148.37.269zm26.266 14.77c-1.572 1.57-3.12 3.116-4.636 4.633-2.512-2.513-5.06-5.057-7.542-7.539.283 0 .666.005 1.05-.001a7.803 7.803 0 0 0 4.4-1.418c.45-.31.55-.77.273-1.161-.265-.374-.71-.425-1.16-.117-1.084.742-2.285 1.146-3.6 1.143-1.652-.003-3.102-.58-4.327-1.704-.628-.58-.933-.58-1.545.032-1.858 1.859-3.717 3.718-5.58 5.578-.606.607-1.426.762-2.19.427a1.969 1.969 0 0 1-1.172-1.878 1.89 1.89 0 0 1 .57-1.299c3.324-3.326 6.652-6.653 9.975-9.982.19-.189.385-.225.629-.17 1.083.256 2.025.807 2.95 1.393 2.597 1.644 4.862 3.689 6.995 5.887 1.726 1.782 3.326 3.67 4.66 5.771.09.144.177.293.25.405zm-19.3 12.73c.138-2.409-1.772-4.035-3.894-3.876.057-1.092-.233-2.066-1.023-2.853-.786-.776-1.738-1.096-2.805-1.018-.061-.449-.07-.88-.178-1.284-.704-2.63-3.966-3.5-5.89-1.58-.866.865-1.726 1.731-2.663 2.67-.164-.195-.306-.39-.475-.56a502.988 502.988 0 0 0-3.894-3.888c-.169-.167-.185-.282-.055-.492 1.366-2.182 3.014-4.131 4.797-5.972 1.926-1.994 3.967-3.86 6.275-5.409.869-.582 1.807-1.05 2.722-1.555.208-.116.447-.18.676-.256.4-.135.718-.084 1.047.261 1.089 1.142 2.223 2.244 3.36 3.378-.087.096-.16.18-.238.26-1.664 1.665-3.324 3.331-4.987 4.996-1.396 1.4-1.418 3.614-.048 5.003a3.52 3.52 0 0 0 5 .012c1.69-1.67 3.364-3.358 5.041-5.039.066-.066.115-.148.184-.236.103.086.178.139.238.2 3.777 3.774 7.555 7.55 11.327 11.327.627.626.78 1.451.432 2.223-.335.74-1.081 1.186-1.93 1.133-.514-.033-.945-.25-1.31-.62-2.59-2.596-5.187-5.187-7.776-7.782-.22-.221-.458-.403-.782-.364a.78.78 0 0 0-.534 1.255c.072.093.155.172.236.253 2.597 2.594 5.192 5.184 7.778 7.782 1.102 1.101.65 2.887-.84 3.302-.716.196-1.368.03-1.906-.509-1.982-1.98-3.96-3.962-5.944-5.944-.642-.643-1.275-1.3-1.94-1.922-.178-.165-.455-.266-.697-.305a.554.554 0 0 0-.64.414c-.057.247.006.528.056.782.023.108.163.193.252.279 2.584 2.587 5.174 5.172 7.754 7.76 1.114 1.117.677 2.918-.818 3.33-.8.22-1.475-.022-2.023-.634a.378.378 0 0 1-.082-.272c.48-2.275-1.327-4.36-3.64-4.242-.046 0-.093-.006-.162-.009zm-6.415 6.455c0 .124-.002.25 0 .372.026 2.657 2.866 4.332 5.195 3.052.23-.127.365-.113.566.05 1.972 1.558 4.927.566 5.55-1.863.105-.405.121-.833.184-1.28 1.065.06 2.026-.247 2.805-1.025.773-.778 1.087-1.74 1.018-2.853 1.115.048 2.078-.248 2.856-1.026.79-.785 1.098-1.754 1.024-2.855 1.588.039 2.814-.537 3.518-1.96.696-1.41.434-2.741-.526-3.97a102.54 102.54 0 0 1 1.78-1.76c.069-.066.247-.067.353-.033.468.151.92.358 1.395.486.958.264 1.771.102 2.506-.67 1.597-1.675 3.26-3.292 4.907-4.925.32-.319.51-.693.515-1.132a4.408 4.408 0 0 0-.108-1.094c-.353-1.457-1.132-2.712-1.967-3.926-1.71-2.489-3.703-4.739-5.89-6.813-1.686-1.593-3.457-3.084-5.398-4.363-1.138-.748-2.305-1.435-3.647-1.76-.929-.227-1.702-.062-2.415.665-2.77 2.824-5.584 5.604-8.38 8.403-.095.099-.169.22-.299.386-.131-.163-.199-.27-.288-.358C25.26 6.8 22.398 3.94 19.538 1.072c-.364-.367-.794-.57-1.298-.534-.477.037-.963.098-1.42.242-1.33.42-2.497 1.162-3.636 1.949-2.496 1.726-4.722 3.762-6.802 5.958C4.826 10.33 3.38 12.06 2.146 13.96 1.43 15.064.766 16.195.442 17.488.2 18.449.351 19.263 1.12 20c1.676 1.6 3.295 3.258 4.931 4.899.364.366.803.588 1.301.524.633-.081 1.264-.22 1.87-.413.714-.232.697-.27 1.227.254.452.453.91.905 1.35 1.346-.752 1.292-.82 2.56-.077 3.811.755 1.264 1.953 1.713 3.374 1.647-.064 1.132.233 2.103 1.025 2.898.786.794 1.759 1.08 2.846 1.044-.106 2.239 1.547 4.017 3.902 3.905z"/></g></g></svg>