<svg xmlns="http://www.w3.org/2000/svg" width="34" height="34" viewBox="0 0 34 34"><g><g><path fill="#fff" d="M31.674 12.707c0 1.247-.485 2.42-1.366 3.3L15.47 30.845c-.96.96-2.641.966-3.609 0l-8.788-8.788a2.53 2.53 0 0 1-.747-1.806c0-.68.265-1.321.747-1.803L17.91 3.612a4.641 4.641 0 0 1 3.301-1.368h8.462c1.103 0 2.001.898 2.001 2.001v8.462zm-2-11.797H21.21c-1.603 0-3.11.624-4.244 1.758L2.13 17.505a3.861 3.861 0 0 0-1.138 2.75c0 1.037.404 2.013 1.138 2.746l8.787 8.787a3.861 3.861 0 0 0 2.75 1.138 3.858 3.858 0 0 0 2.746-1.138L31.25 16.952a5.964 5.964 0 0 0 1.758-4.245V4.245A3.34 3.34 0 0 0 29.673.91z"/><path fill="none" stroke="#fff" stroke-miterlimit="20" d="M31.674 12.707c0 1.247-.485 2.42-1.366 3.3L15.47 30.845c-.96.96-2.641.966-3.609 0l-8.788-8.788a2.53 2.53 0 0 1-.747-1.806c0-.68.265-1.321.747-1.803L17.91 3.612a4.641 4.641 0 0 1 3.301-1.368h8.462c1.103 0 2.001.898 2.001 2.001v8.462zm-2-11.797H21.21c-1.603 0-3.11.624-4.244 1.758L2.13 17.505a3.861 3.861 0 0 0-1.138 2.75c0 1.037.404 2.013 1.138 2.746l8.787 8.787a3.861 3.861 0 0 0 2.75 1.138 3.858 3.858 0 0 0 2.746-1.138L31.25 16.952a5.964 5.964 0 0 0 1.758-4.245V4.245A3.34 3.34 0 0 0 29.673.91z"/></g></g></svg>