<svg xmlns="http://www.w3.org/2000/svg" width="72" height="60" viewBox="0 0 72 60"><g><g><path fill="#673773" d="M32.111 54.449c.516.999.014 2.478-1.12 3.113-1.182.655-2.746.257-3.396-.84 1.506-.758 3.008-1.516 4.516-2.273zM13.778 36.122c-.977-.346-1.583-1.025-1.692-2.072-.108-1.09.308-1.987 1.278-2.507a182.173 182.173 0 0 1 5.62-2.843c1.258-.616 2.746-.043 3.368 1.23a2.529 2.529 0 0 1-1.107 3.374c-1.758.9-3.526 1.787-5.296 2.676-.696.35-1.42.365-2.171.142zm1.55 4.296c-.097-1.094.36-1.967 1.333-2.476 1.83-.964 3.683-1.897 5.544-2.804 1.293-.627 2.781-.054 3.402 1.242a2.532 2.532 0 0 1-1.142 3.369c-1.815.93-3.638 1.846-5.461 2.76-.628.314-1.276.345-2.076.082-.886-.345-1.503-1.082-1.6-2.173zm3.243 6.455a2.48 2.48 0 0 1 1.317-2.488 301.825 301.825 0 0 1 5.588-2.821c1.24-.606 2.724-.055 3.347 1.188.624 1.234.179 2.759-1.046 3.4a314.391 314.391 0 0 1-5.583 2.82c-.596.29-1.226.31-2.052.035-.834-.31-1.441-1.041-1.571-2.134zm4.994 8.615c-1.001-.332-1.698-1.206-1.753-2.253-.058-1.102.404-1.944 1.385-2.45a362.01 362.01 0 0 1 5.464-2.761c1.26-.63 2.756-.117 3.403 1.137.651 1.277.177 2.798-1.101 3.454-1.803.919-3.611 1.828-5.423 2.738-.639.318-1.298.373-1.975.135zM62.528 40.98c-.351-4.988-2.164-9.361-4.2-13.66-1.679-3.544-3.646-6.923-6.066-10.023-.994-1.276-2.048-2.497-3.352-3.478-.045-.035-.077-.09-.131-.153.134-.072.246-.14.361-.201 1.904-.963 3.811-1.917 5.707-2.892.355-.182.645-.164.973.045 1.1.69 1.964 1.637 2.794 2.615 1.978 2.324 3.601 4.889 5.055 7.56 2.001 3.672 3.711 7.472 4.808 11.52.381 1.399.685 2.815.698 4.279.004.65-.185 1.072-.834 1.375-1.805.853-3.574 1.784-5.353 2.687-.144.075-.272.19-.46.326zM33.37 8.677zm0 0c-1.862.01-3.499.352-5.106.81-4.217 1.185-8.171 2.98-11.994 5.088-2.649 1.462-5.212 3.065-7.51 5.047-.966.83-1.842 1.769-2.77 2.669-.02-.03-.086-.12-.136-.221-.969-1.917-1.931-3.836-2.912-5.75-.152-.3-.199-.581.009-.841.618-.774 1.189-1.601 1.899-2.281 1.96-1.885 4.223-3.371 6.557-4.743 4.032-2.361 8.236-4.34 12.732-5.644 1.566-.451 3.152-.813 4.799-.837.653-.01 1.072.176 1.378.823.854 1.82 1.793 3.6 2.704 5.394.075.144.189.266.35.486zm26.669 29.169c-2.603 1.309-5.164 2.603-7.676 3.87-2.098-4.16-4.231-8.375-6.304-12.483.352.116.827.278 1.308.428 2.013.63 4.04.634 6.062.038.687-.201 1-.734.815-1.334-.175-.574-.709-.821-1.397-.622-1.653.48-3.315.49-4.951-.05-2.058-.683-3.628-1.996-4.693-3.898-.546-.98-.926-1.104-1.939-.593-3.076 1.553-6.154 3.109-9.236 4.66-1.006.508-2.09.366-2.906-.364a2.58 2.58 0 0 1-.688-2.82 2.463 2.463 0 0 1 1.242-1.384c5.504-2.783 11.013-5.562 16.519-8.348.313-.157.571-.122.852.048 1.244.76 2.192 1.834 3.104 2.942 2.562 3.114 4.545 6.589 6.301 10.203 1.421 2.926 2.641 5.935 3.441 9.098.054.218.101.439.146.609zm-29.263 7.947c1.16-2.945-.553-5.752-3.262-6.425.518-1.337.556-2.67-.106-3.974-.66-1.288-1.716-2.077-3.078-2.417.109-.585.275-1.124.306-1.672.201-3.568-3.508-5.987-6.691-4.382-1.434.72-2.86 1.448-4.41 2.233-.125-.31-.223-.61-.363-.892a656.917 656.917 0 0 0-3.258-6.44c-.141-.278-.115-.428.133-.636 2.595-2.16 5.448-3.911 8.424-5.474 3.218-1.694 6.525-3.184 10.034-4.166 1.32-.368 2.681-.568 4.03-.822.305-.058.63-.04.947-.041.554-.005.928.19 1.196.755.889 1.868 1.85 3.706 2.801 5.585-.146.083-.272.158-.402.225-2.756 1.394-5.506 2.789-8.261 4.18-2.313 1.172-3.248 3.923-2.111 6.215a4.616 4.616 0 0 0 6.225 2.063c2.79-1.388 5.568-2.804 8.346-4.211.107-.054.203-.136.326-.218.093.15.164.244.213.347 3.159 6.249 6.317 12.503 9.469 18.755.524 1.035.377 2.126-.373 2.944-.721.786-1.832 1.036-2.868.62-.627-.251-1.074-.697-1.377-1.307-2.164-4.298-4.337-8.59-6.499-12.884-.184-.365-.406-.688-.825-.773a1.024 1.024 0 0 0-1.18 1.345c.051.145.124.277.19.412 2.173 4.295 4.344 8.586 6.502 12.882.921 1.825-.376 3.863-2.401 3.769-.972-.048-1.717-.523-2.166-1.414-1.656-3.28-3.31-6.56-4.969-9.842-.536-1.065-1.055-2.143-1.629-3.191-.154-.277-.457-.517-.742-.665a.73.73 0 0 0-.97.254c-.171.284-.208.66-.248.998-.017.144.123.306.198.45 2.16 4.282 4.325 8.563 6.479 12.845.93 1.849-.351 3.913-2.383 3.814-1.086-.053-1.83-.632-2.26-1.618a.486.486 0 0 1 .009-.373c1.531-2.638.134-5.976-2.797-6.777-.057-.018-.113-.046-.199-.077zm-10.638 5.41c-.051.158-.105.313-.153.467-1.056 3.319 1.797 6.57 5.221 5.93.34-.063.5.01.685.295 1.819 2.749 5.905 2.724 7.679-.046.296-.463.493-.99.753-1.518 1.304.51 2.625.52 3.915-.13 1.282-.651 2.067-1.721 2.437-3.135 1.37.516 2.691.542 3.98-.108 1.304-.654 2.087-1.736 2.446-3.136 1.96.698 3.725.483 5.185-1 1.446-1.473 1.666-3.238.971-5.161.988-.501 1.96-.997 2.94-1.465.113-.052.335.018.452.105.522.38 1.001.82 1.54 1.177 1.084.72 2.166.854 3.397.193 2.677-1.434 5.412-2.766 8.133-4.126.529-.264.919-.652 1.105-1.2.154-.45.276-.93.314-1.406.158-1.96-.3-3.843-.841-5.697-1.111-3.803-2.671-7.422-4.545-10.903-1.447-2.675-3.044-5.258-4.937-7.648-1.112-1.398-2.284-2.732-3.823-3.686-1.064-.664-2.095-.776-3.281-.164-4.609 2.383-9.254 4.695-13.884 7.034-.16.085-.301.206-.531.36-.097-.258-.136-.418-.213-.565-2.391-4.74-4.785-9.478-7.171-14.222-.305-.605-.757-1.036-1.4-1.197-.609-.15-1.241-.271-1.868-.28-1.83-.021-3.588.424-5.329.937-3.817 1.128-7.424 2.75-10.916 4.634-2.612 1.41-5.123 2.974-7.438 4.835-1.344 1.082-2.637 2.217-3.57 3.694-.696 1.099-.841 2.176-.185 3.409 1.434 2.679 2.77 5.41 4.135 8.124.302.607.761 1.062 1.406 1.185.822.16 1.665.246 2.501.253.983.004.976-.05 1.422.82.377.75.762 1.5 1.131 2.23-1.467 1.302-2.073 2.854-1.66 4.717.424 1.885 1.733 2.933 3.53 3.435-.545 1.384-.571 2.715.088 4.029.655 1.31 1.749 2.068 3.118 2.467-1.05 2.746.281 5.639 3.261 6.464z"/></g></g></svg>