<svg width="711" height="373" fill="none" xmlns="http://www.w3.org/2000/svg"><path d="M47.53 372.121s-82.306-88.458-13.925-184.241c60.675-84.992 131.421-79.181 183.317-44.681 22.094 14.698 85.842 1.806 140.078-84.674C430.965-59.404 687.394 12.11 640.62 193.544c-22.631 87.799 68.844 90.998 22.241 178.748l-615.33-.171z" fill="#EBF3FA"/><path d="M114.021 252.285l-58.246 53.67 53.607 58.315 58.246-53.671-53.607-58.314z" fill="#DFEBFD"/><path d="M114.027 252.266l-58.246 53.67 10.8 11.75 58.246-53.671-10.8-11.749z" fill="#BED7FB"/><path d="M284.132 22.56l39.921 5.713-26.508-18.092-1.342 5.787-9.706 1.782-2.365 4.81z" fill="#9EC3F6"/><path d="M324.053 28.273L290.814 11.11l-32.557-1.636 65.796 18.8z" fill="#CDE0FB"/><path d="M297.544 10.181l26.509 18.093L303.544 0l-6 10.181z" fill="#CDE0FB"/><path d="M507.443 101.448l-10.047 7.227-10.097-7.13c2.244-3.15 5.926-5.25 10.097-5.25 4.145 0 7.803 2.027 10.047 5.153zm-10.047-22.756c-10.097 0-19.022 5.03-24.436 12.72l6.365 4.493a22.032 22.032 0 0118.071-9.376c7.389 0 13.949 3.639 17.948 9.254l6.341-4.566c-5.414-7.593-14.291-12.525-24.289-12.525zm0-33.425c-21.363 0-40.263 10.62-51.701 26.882l6.365 4.492c10.048-14.234 26.631-23.561 45.336-23.561 18.558 0 35.019 9.18 45.091 23.22l6.316-4.566c-11.462-16.017-30.215-26.467-51.407-26.467z" fill="#fff"/><path d="M497.395 63.554c-15.193 0-28.679 7.52-36.873 19.069l6.365 4.492c6.804-9.522 17.925-15.748 30.508-15.748 12.462 0 23.534 6.129 30.338 15.504l6.316-4.541c-8.194-11.378-21.582-18.776-36.654-18.776z" fill="#fff"/><path d="M289.034 145.225l-9.219-.22c2.951 3.834 3.634 7.374 1.781 10.377-1.854 3.052-6.243 5.567-12.828 7.471 4.975-13.282 7.487-27.272 7.487-41.629 0-31.056-12.072-61.454-34.849-84.185-22.046-22.072-51.847-34.89-84.086-34.89-18.095 0-35.605 4.028-51.505 11.695h-.025c-5.121-1.563-10.096-2.832-14.9-3.81-24.265-4.931-41.482-1.513-48.481 9.596-6.658 10.572-3.024 26.491 10.17 45.047-2.952 5.47-5.805 11.94-7.878 18.141-24.826 1.49-38.116 5.885-42.945 13.795-5.61 9.229 2.048 21.584 26.606 33.621 3.39 1.66 7 3.296 10.803 4.932 2.951 25.881 14.706 50.956 34.02 70.293 10.925 10.914 23.655 19.508 37.8 25.514 43.384 18.312 95.109 9.742 130.421-25.514a118.693 118.693 0 0024.997-36.77c12.12-2.515 20.07-6.446 23.24-11.647 2.219-3.589 1.951-7.569-.609-11.817zm-28.411 19.508c-8.072 1.441-18.12 2.295-29.874 2.417-18.217.22-39.165-1.22-61.211-4.126A423.317 423.317 0 00175 150.572c6.853 2.295 13.486 4.102 19.827 5.396 7.267 1.465 13.876 2.197 19.802 2.197 13.852 0 23.777-4.004 28.703-11.792a20.944 20.944 0 001.976-4.078h-7.072c-.122.22-.244.44-.366.635-3.634 5.787-11.779 8.79-23.216 8.765-5.463 0-11.682-.683-18.535-2.075-5.95-1.221-12.217-2.906-18.655-5.054a388.632 388.632 0 004.95-13.014c4.317-11.89 7.999-23.683 10.974-34.988 24.168 3.565 49.408 3.663 73.673 1.832a112.715 112.715 0 012.317 22.804c-.025 15.113-2.951 29.738-8.755 43.533zm-147.199 59.038c-3.439-1.245-5.171-6.177-6.048-10.108-1.366-6.202-1.61-14.894-.708-25.173a213.993 213.993 0 012.146-16.505c14.072 3.76 28.021 8.594 41.604 14.405-3.048 5.274-6.145 10.182-9.242 14.625-5.902 8.448-11.657 14.991-16.656 18.874-3.146 2.466-7.658 5.127-11.096 3.882zm40.14-42.899c-14.217-6.128-28.825-11.207-43.579-15.113a287.272 287.272 0 011.707-8.18c4.097.928 8.267 1.832 12.486 2.711 12.34 2.514 24.631 4.663 36.678 6.397a306.01 306.01 0 01-7.292 14.185zm-26.679-25.05a549.056 549.056 0 01-14.071-3.077c2.17-9.058 4.853-18.483 7.95-28.102 16.193 9.961 32.678 18.067 48.262 23.829a374.204 374.204 0 01-6.024 13.649c-11.828-1.685-23.948-3.809-36.117-6.299zM87.305 33.62c8.999 18.459 26.362 33.694 45.018 43.778-4.536 9.864-8.828 20.412-12.803 31.35-.731 2.051-1.463 4.077-2.17 6.104-23.655-15.43-43.701-33.108-56.846-50.248a113.857 113.857 0 0126.801-30.983zm101.206-17.09c3.438 1.245 5.17 6.177 6.048 10.108 1.365 6.201 1.609 14.893.707 25.172-.976 11.256-3.219 24.025-6.585 37.625-16.461-2.832-32.897-7.52-48.042-14.87 6.463-13.477 13.267-25.49 20.095-35.28 5.902-8.448 11.657-14.991 16.656-18.873 2.61-2.027 6.121-4.2 9.219-4.2.658 0 1.292.098 1.902.317zm-1.39 79.033c-2.902 10.939-6.487 22.341-10.657 33.841a432.504 432.504 0 01-4.975 13.087c-15.657-5.763-32.289-13.991-48.628-24.148.854-2.466 1.707-4.956 2.61-7.446 3.877-10.695 8.072-20.974 12.486-30.618 15.437 7.496 32.142 12.306 49.164 15.284zm49.408-53.666c14.534 14.552 24.167 32.01 29.044 50.297-25.825 1.88-49.481 1.294-70.649-1.758 3.366-13.722 5.609-26.662 6.609-38.064 1.098-12.599.951-27.517-4.145-35.916 14.778 5.665 27.996 14.259 39.141 25.442zM157.32 9.035c7.755 0 15.388.781 22.85 2.344-8.803 3.833-17.778 14.503-24.606 24.293-6.975 10.01-13.949 22.292-20.534 36.014-17.778-9.669-34.556-24.49-42.58-41.947 18.73-13.33 41.263-20.704 64.87-20.704zM47.872 23.073c3.633-5.787 11.778-8.765 23.216-8.765 5.463 0 11.681.683 18.534 2.075a160.03 160.03 0 017.95 1.856C81.257 27.687 66.893 41.36 56.187 58.5 46.068 43.51 43.02 30.764 47.871 23.073zm9.315 47.733c13.852 17.31 34.24 35.012 58.066 50.37-3.39 10.303-6.268 20.411-8.585 30.129-19.753-4.786-42.726-11.549-60.87-19.24-1.511-15.065.123-30.3 4.659-44.68a110.744 110.744 0 016.73-16.58zM33.85 126.669c-21.412-10.45-31.19-20.558-26.826-27.712 3.537-5.81 16.389-9.742 36.093-11.182-3.975 13.404-5.34 27.345-4.536 41.14a141.959 141.959 0 01-4.73-2.246zm71.698 29.494a297.606 297.606 0 00-1.683 8.058c-1.366-.342-2.756-.66-4.121-.977-23.241-5.298-40.678-6.373-48.774-6.568a111.4 111.4 0 01-4.414-18.531c15.827 6.103 33.654 11.963 58.992 18.018zm-52.237 6.91c8.633.342 24.606 1.66 45.018 6.299 1.463.342 2.926.684 4.39 1.05-1.049 6.129-1.829 12.013-2.317 17.506-.902 10.45-.976 22.487 1.926 31.082-8.852-4.981-16.973-11.158-24.264-18.459-10.853-10.865-19.193-23.61-24.753-37.478zm70.039 65.093c8.292-4.346 16.607-14.333 23.021-23.537 3.317-4.737 6.609-10.011 9.877-15.675 18.827 8.521 36.897 19.02 53.895 31.228-27.996 14.991-59.553 16.676-86.793 7.984zm113.18-27.615a110.645 110.645 0 01-20.388 16.164c-17.851-13.063-36.922-24.245-56.797-33.304 2.731-5.005 5.414-10.303 8.048-15.821 18.192 2.417 35.678 3.858 51.651 4.248 4.17.122 8.219.122 12.145.098 10.169-.122 19.241-.732 26.996-1.807-5.438 11.256-12.73 21.486-21.655 30.422z" fill="#ADCBF9"/><path d="M233.968 163.83l-16.437 195.815s-1.731 11.866 7.097 11.89c14.51.025 72.16 0 72.16 0s-10.901-2.466-10.779-8.033c.147-6.543 19.217-201.528 19.217-201.528l-71.258 1.856z" fill="#D86713"/><path d="M301.471 367.97c-2.853 0-57.943.171-72.063 0-6.146-.073-7.243-5.469-7.292-8.985-.024-1.684.195-2.905.195-2.905l.439-5.079 1.098-12.964.951-11.451 1.243-14.723 1.049-12.428 11.681-139.145 71.259-1.856s-8.023 81.598-13.706 140.977c-.634 6.617-1.243 12.965-1.804 18.898-.171 1.88-.366 3.735-.512 5.542-.537 5.616-1 10.792-1.439 15.333-.22 2.393-.415 4.639-.61 6.666-.731 8.008-1.146 13.135-1.146 14.088 0 .561.049 1.098.146 1.587 1.147 6.25 9.438 6.445 10.511 6.445z" fill="#F99746"/><path d="M60.919 57.28l40.068 161.119 5.487 22.072 18.656 75.03h346.684L403.043 57.28H60.919z" fill="#F99746"/><path d="M60.919 57.28l-5.56 1.83 62.405 262.006 7.365-5.615L60.919 57.28z" fill="#EE9849"/><path d="M117.765 321.117h344.538l9.511-5.616H125.129l-7.364 5.616z" fill="#D86713"/><path d="M238.752 371.599h74.599v-3.541h-74.599v3.541zm216.283-103.684l-56.26-207.242H60.358V57.28h342.685l56.065 210.196-4.073.44z" fill="#F1A34F"/><path d="M294.375 321.117l-.366 2.71-70.161 14.185.951-11.451.463-5.444h69.113z" fill="#D86713"/><path opacity=".4" d="M301.471 367.97c-2.853 0-57.943.171-72.063 0-6.146-.073-7.243-5.469-7.292-8.985l69.82-13.16c-.732 8.009-1.146 13.136-1.146 14.088 0 .562.048 1.099.146 1.587 1.171 6.275 9.462 6.47 10.535 6.47zm-24.046-104.743l-152.296 52.274-18.656-75.03 170.952 22.756z" fill="#D86713"/><path d="M60.919 57.28h342.124l55.504 207.534H110.766L60.919 57.279z" fill="#699DEE"/><path d="M307.665 291.061c-1-5.079-5.901-9.205-10.998-9.205-5.073 0-8.414 4.126-7.414 9.205 1 5.078 5.902 9.204 10.999 9.204 5.096 0 8.413-4.126 7.413-9.204z" fill="#D86713"/><path d="M442.403 255.829H122.081L85.818 111.141l-2.78-11.109-2.39-9.45-1.878-7.593-3.683-14.6H390.8l.22.805 3.804 13.795 2.097 7.594 2.61 9.449 3.048 11.109 39.824 144.688z" fill="#E9F3FE"/><path d="M442.403 256.317H122.081L85.818 111.629l-2.78-11.085-2.39-9.473-1.878-7.569-3.683-14.625H390.8l.22.806 3.804 13.819 2.097 7.569 2.61 9.473 3.048 11.085 39.824 144.688z" fill="#E9F3FE"/><path d="M394.824 82.99H78.77l-3.683-14.601h315.591l.342.805 3.804 13.795z" fill="#AFCDFB"/><path d="M83.867 75.689c-.39-1.538.56-2.783 2.072-2.783s3.073 1.245 3.463 2.783c.39 1.538-.56 2.783-2.073 2.783-1.511 0-3.072-1.245-3.462-2.783zm14.349 2.085c.892-1.011.559-2.764-.744-3.915-1.302-1.152-3.08-1.266-3.972-.255-.891 1.01-.559 2.763.744 3.915 1.302 1.151 3.08 1.265 3.972.255zm4.77-2.085c-.39-1.538.561-2.783 2.073-2.783s3.073 1.245 3.463 2.783c.39 1.538-.561 2.783-2.073 2.783s-3.073-1.245-3.463-2.783z" fill="#E9F3FE"/><path d="M221.872 256.317h-31.679c-.292-2.49-.561-5.103-.805-7.837a396.996 396.996 0 01-.999-15.651l-.147-3.833c-.049-1.636-.122-3.296-.171-4.957a492.22 492.22 0 01-.17-8.545c-.049-3.663-.073-7.349-.098-11.036v-5.323c.025-7.911.147-15.675.317-22.877.366-15.968.951-29.275 1.268-35.672.122-2.637.22-4.077.22-4.077.073 0 .561.097 1.317.293.561.146 1.268.317 2.048.561.732.22 1.512.489 2.366.806 1.439.562 2.975 1.245 4.414 2.124.024 0 .049.025.073.025 2.365 1.464 4.512 3.418 5.487 5.981.829 2.198 2.804 13.942 5.17 29.544.073.439.122.903.195 1.342 1.244 8.277 2.609 17.58 3.951 27.077a6589.668 6589.668 0 014.194 29.861c1.122 8.155 2.171 15.748 3.049 22.194z" fill="#2B478B"/><path d="M212.995 256.317h-36.873a483.673 483.673 0 01-1.951-8.741c-1.61-7.593-2.683-13.819-2.634-17.164.025-1.563.61-2.784 1.634-3.736.707-.635 1.585-1.172 2.634-1.562 3.121-1.172 7.584-1.368 12.267-1.075 1.585.098 3.194.244 4.779.44 8.755 1.074 16.9 3.247 16.9 3.247s.537 2.197 1.195 6.055a140.655 140.655 0 011.415 11.207c.244 2.612.414 5.469.536 8.521.025.928.074 1.856.098 2.808z" fill="#233862"/><path d="M195.973 230.461l-.366 2.661-1.781 12.94-.292 2.222-1.098 8.033h-38.458c-.292-5.298-.585-10.474-.634-14.991v-1.465c0-6.788.586-11.817 2.536-13.087 2.195-1.441 9.511-1.05 17.291-.098l2.341.293c4.536.611 9.072 1.368 12.73 2.002 1.902.342 3.536.635 4.829.904 1.829.366 2.902.586 2.902.586z" fill="#C65447"/><path d="M153.344 143.174s21.119-13.673 36.239-6.665c2.414 1.123 5.17 4.224 7.146 6.397 5.462 6.03 16.168 101.936 16.168 101.936s-30.362 10.303-59.553-3.492v-98.176z" fill="#fff"/><path d="M190.803 136.142s21.363 8.766 24.265 15.504c2.902 6.739 12.291 48.1 12.291 52.958 0 4.859-16.388 1.075-19.022-6.738-2.195-6.495-9.584-26.467-13.462-39.09l-4.072-22.634z" fill="#2B478B"/><path d="M186.365 142.832c-4.658.928-11.511-.048-16.534-3.369 2.268-5.42 3.194-9.693 3.536-12.452.024-.147.024-.293.048-.44.147-1.44.122-2.417.049-2.856h12.072s3.292 1.514 3.292 2.564c0 .561 0 1.098.024 1.611.025 1.392.073 2.612.147 3.638.219 3.394.609 4.981.609 4.981s1.464 5.396-3.243 6.323z" fill="#FFB27D"/><path d="M188.998 131.503c-9.145 1.758-14.437-3.222-15.632-4.517-.17-.195-.243-.292-.243-.292l.292-.147c3.39-1.367 11.121-.293 15.437 1.294 0 1.416.073 2.613.146 3.662z" fill="#E2915A"/><path d="M170.367 121.713c1.633 8.789 12.973 8.496 17.875 7.959 1.39-.146 2.244-.342 2.244-.342 1.56-.415 2.414-2.856 2.829-6.079.804-6.348-.22-15.675-1.293-18.068-1.609-3.589-4.658-7.471-16.071-4.663s-7.682 9.937-5.584 21.193z" fill="#FFB27D"/><path d="M192.461 100.3c-1.56-2.173-4.877-4.81-7.877-6.446-6.462-3.491-14.729.122-14.754.122-9.315 4.102-11.754 11.256-6.828 22.39 5.219 11.768 10.218 10.45 10.218 10.45s-1.049-.66-.951-4.322c0-.22.024-.391.024-.537.049-.757-.219-1.514-.78-2.002-1.171-1.026-1.731-4.175-.756-5.03 1.171-1.05 2.805.22 3.341 1.196.463.684 1.293.928 2.049.464 2.902-1.831 1.024-5.518 3.779-7.764 2.781-2.246 8.414-.366 12.56-2.148 5.462-2.051 1.146-4.762-.025-6.373z" fill="#233862"/><path d="M193.949 256.317h-45.945c.317-9.547.756-20.924 1.195-32.473.122-2.979.244-5.982.341-8.961l.147-3.76c1.024-25.612 2.024-48.758 2.243-50.003.488-2.808.927-5.225 1.439-7.301 1.439-6.079 3.243-9.4 7.145-12.256.391-.293 3.512-1.88 6.268-3.248 2.243-1.123 4.268-2.099 4.316-2.124.464.22.951.855 1.488 1.807.536.952 1.097 2.197 1.658 3.662 2.097 5.396 4.365 13.673 5.951 19.85v.025c1.024 3.98 1.755 7.08 1.951 7.984.341 1.514.804 4.419 1.365 8.35.732 5.372 1.634 12.672 2.561 20.949.097.854.195 1.709.292 2.588.122 1.001.22 2.002.342 3.003.024.317.073.659.097.977.366 3.271.732 6.665 1.098 10.108.317 2.832 4.609 4.883 4.902 7.764.024.22.048.635.073 1.221.049 1.221.122 3.149.195 5.396.024 1.001.073 2.051.097 3.125.171 4.81.366 10.059.61 12.598 0 .123.024.269.024.464.025.513.049 1.246.074 2.173.048 2.002.073 4.859.073 8.082z" fill="#2B478B"/><path d="M162.612 171.448c-.025.049-.732 25.905 18.68 29.03 19.412 3.15 6.511 3.98 6.511 3.98s-36.531-1.563-37.141-2.539c-.585-.953 11.95-30.471 11.95-30.471zm16.387 40.115s-.365.268-1.073.708l-.024.024c-2.951 1.905-11.755 7.056-24.558 10.523a86.581 86.581 0 01-4.17 1.026c.122-2.979.22-5.982.342-8.961a35.548 35.548 0 01-4.805-.659l.147-1.172c1.634-.659 3.243-1.318 4.804-1.929 1.268-.488 2.512-.976 3.658-1.416a363.71 363.71 0 019.145-3.345l15.559 4.932.975.269z" fill="#233862"/><path d="M183.121 211.148s-2 .488-5.194 1.147h-.025c-5.877 1.172-15.729 2.833-24.557 2.759a62.64 62.64 0 01-3.805-.171 35.555 35.555 0 01-4.804-.659c-3.219-.683-5.926-1.831-7.682-3.638-13.12-13.38 7.145-61.381 11.413-66.045 4.975-5.444 14.047-7.373 19.071-8.032.219-.025.414-.049.609-.074 1.756-.219 2.902-.244 2.951-.244l-1.048 3.418c-.244.831-.561 1.783-.878 2.882-3.073 10.108-9.023 29.958-11.633 41.14-.951 4.102-1.463 7.032-1.244 7.911 1.025 3.833 11.609 5.786 18.339 6.665 2.805.367 4.926.538 5.39.562h.097l.391 1.587.926 3.833.903 3.76.78 3.199z" fill="#2B478B"/><path d="M219.701 234.147l-45.042-1.904 9.145-56.181 45.042 1.88-9.145 56.205z" fill="#F99746"/><path d="M180.121 198.745s8.779-.611 9.218 1.44c1.025 4.761-7.535 8.692-10.315 8.423-2.78-.292-.927-10.181 1.097-9.863zm46.263-9.376s-8.389-2.637-9.292-.733c-2.097 4.395 5.317 10.206 8.097 10.572 2.755.367 3.219-9.693 1.195-9.839z" fill="#FFB27D"/><path d="M172.001 133.359s-3.683 1.758-5.536 4.419c0 0 13.778 23.977 13.73 23.732-.073-.219-4.658-25.075-8.194-28.151zm17.168.342c1.219.464 3.536 2.857 4.073 4.175l1.633 20.924s-3.511-15.357-5.291-22.291c-.439-1.783-.342-2.32-.415-2.808z" fill="#233862"/><path d="M198.729 176.673s.365-1.563 2.414-1.368c2.048.171 13.559.757 13.559.757s2.219-.024 2.024 1.392l-17.997-.781z" fill="#C65447"/><path d="M185.511 123.715s1.487 1.367 3.902.952c1.439-.244 2.219-2.124 2.219-2.124s-2.731-.513-6.121 1.172zm213.435 17.482l-33.264.122-10.804-41.36 33.264-.123 10.804 41.361z" fill="#fff"/><path d="M379.899 105.281l-13.949.049-.146-.611 13.949-.048.146.61zm2.219 1.685l-17.509.073-.147-.611 17.51-.073.146.611zm4.829 8.423l-22.753.098-.146-.611 22.728-.097.171.61zm.512 2.027l-22.728.073-.171-.611 22.753-.073.146.611zm.537 2.002l-22.753.097-.146-.61 22.728-.098.171.611zm.536 2.026l-22.753.073-.171-.61 22.753-.073.171.61zm.512 2.002l-22.753.098-.146-.61 22.753-.098.146.61zm1.293 4.908l-22.753.098-.171-.611 22.753-.098.171.611zm.512 2.026l-22.753.074-.146-.611 22.753-.073.146.61zm.537 2.027l-22.753.073-.171-.61 22.753-.073.171.61zm.512 2.002l-22.729.098-.17-.611 22.752-.097.147.61zm.536 2.026l-22.753.074-.146-.611 22.728-.073.171.61z" fill="#ADCBF9"/><path d="M412.359 192.592l-33.288.122-10.779-41.36 33.263-.123 10.804 41.361z" fill="#fff"/><path d="M393.312 156.652l-13.949.073-.171-.635 13.95-.049.17.611zm2.219 1.709l-17.509.073-.171-.61 17.534-.074.146.611zm4.829 8.423l-22.753.074-.17-.611 22.753-.073.17.61zm.513 2.002l-22.754.098-.146-.61 22.753-.098.147.61zm.536 2.027l-22.753.073-.171-.61 22.753-.073.171.61zm.512 2.002l-22.753.098-.147-.611 22.753-.097.147.61zm.536 2.027l-22.753.073-.17-.611 22.753-.073.17.611zm1.269 4.907l-22.729.073-.171-.61 22.753-.073.147.61zm.536 2.027l-22.753.073-.146-.611 22.728-.073.171.611zm.537 2.002l-22.753.097-.171-.61 22.753-.098.171.611zm.512 2.026l-22.753.073-.146-.61 22.752-.073.147.61zm.536 2.002l-22.753.098-.171-.61 22.753-.098.171.61z" fill="#ADCBF9"/><path d="M425.845 244.304l-33.264.123-10.804-41.336 33.289-.122 10.779 41.335z" fill="#fff"/><path d="M406.798 208.389l-13.949.049-.146-.611 13.949-.049.146.611zm2.244 1.709l-17.534.049-.147-.611 17.51-.049.171.611zm4.804 8.399l-22.753.098-.146-.611 22.729-.097.17.61zm.537 2.026l-22.753.074-.171-.611 22.753-.073.171.61zm.512 2.027l-22.753.073-.146-.61 22.753-.073.146.61zm.536 2.002l-22.752.098-.171-.611 22.753-.097.17.61zm.512 2.026l-22.753.074-.146-.611 22.753-.073.146.61zm1.293 4.908l-22.753.073-.171-.61 22.753-.073.171.61zm.512 2.002l-22.729.098-.17-.61 22.753-.098.146.61zm.536 2.027l-22.753.073-.146-.61 22.728-.074.171.611zm.512 2.002l-22.728.098-.171-.611 22.753-.098.146.611zm.537 2.026l-22.753.074-.146-.611 22.753-.073.146.61z" fill="#ADCBF9"/><path d="M382.094 244.671l-116.35.415-33.483-128.354 15.144-16.334 96.963-.367 37.726 144.64z" fill="#fff"/><path d="M312.323 121.713l-41.018.171-.464-1.807 40.995-.147.487 1.783zm6.536 5.005l-51.481.195-.463-1.806 51.481-.196.463 1.807zm14.169 24.733l-66.893.244-.464-1.782 66.869-.244.488 1.782zm1.537 5.933l-66.869.244-.488-1.806 66.893-.245.464 1.807zm1.536 5.933l-66.869.244-.463-1.806 66.868-.245.464 1.807zm1.56 5.933l-66.893.244-.463-1.806 66.893-.244.463 1.806zm1.537 5.909l-66.869.244-.463-1.782 66.869-.244.463 1.782zm3.755 14.43l-66.869.244-.463-1.783 66.869-.268.463 1.807zm1.561 5.933l-66.869.244-.488-1.807 66.893-.244.464 1.807zm1.537 5.933l-66.869.244-.464-1.807 66.869-.244.464 1.807zm1.56 5.908l-66.893.244-.464-1.782 66.869-.244.488 1.782zm1.537 5.933l-66.869.244-.464-1.782 66.869-.268.464 1.806zm-116.887-96.564l19.388-.073-4.244-16.261-15.144 16.334z" fill="#ADCBF9"/><path d="M512.515 345.337h-94.719v-33.499h95.036c7.389 0 13.389 6.007 13.389 13.405v6.397c-.025 7.544-6.146 13.697-13.706 13.697z" fill="#FCECDB"/><path d="M607.039 325.609v5.03a14.51 14.51 0 01-2 7.373 14.638 14.638 0 01-12.681 7.3H414.846a2.124 2.124 0 01-2.122-2.124v-.757c0-1.172.951-2.124 2.122-2.124h108.253a12.081 12.081 0 001.512-2.295 13.508 13.508 0 001.585-6.397v-6.397c0-1.172-.146-2.319-.439-3.418a13.176 13.176 0 00-2.512-4.981H414.87a2.124 2.124 0 01-2.121-2.124v-.757c0-1.172.951-2.124 2.121-2.124h178.39c6.292 0 11.584 4.224 13.242 9.986.366 1.221.537 2.491.537 3.809z" fill="#699DEE"/><path d="M606.527 321.825h-80.77a13.16 13.16 0 00-2.511-4.981H414.87a2.125 2.125 0 01-2.121-2.124v-.757c0-1.172.951-2.125 2.121-2.125h178.39c6.316 0 11.608 4.224 13.267 9.987z" fill="#548EE2"/><path d="M417.796 328.588l13.121.561-13.121.342v-.903zm0 5.249l31.265.562-31.265.342v-.904z" fill="#F4D2B8"/><path d="M440.379 371.315h100.84v-26.051H439.55c-6.95 0-12.608 5.64-12.608 12.623.024 7.398 6.023 13.428 13.437 13.428z" fill="#2B478B"/><path d="M535.439 371.315h114.765v-26.051H535.146c-7.072 0-12.803 5.737-12.803 12.818v.098c-.024 7.251 5.853 13.135 13.096 13.135z" fill="#FCECDB"/><path d="M514.661 371.315h139.518a1.958 1.958 0 001.951-1.953 1.958 1.958 0 00-1.951-1.953H514.661a1.958 1.958 0 00-1.951 1.953c0 1.074.878 1.953 1.951 1.953zm0-22.169h139.518a1.958 1.958 0 001.951-1.953 1.958 1.958 0 00-1.951-1.954H514.661a1.958 1.958 0 00-1.951 1.954c0 1.098.878 1.953 1.951 1.953z" fill="#2B478B"/><path d="M650.204 358.277l-15.51.44 15.51.268v-.708zm0-5.982l-36.897.44 36.897.244v-.684z" fill="#F4D2B8"/><path d="M613.697 352.637s1.585 1.123 2.097 2.955c.098.317.146.659.171 1.025.097 2.442 0 7.984 0 7.984l4.658-2.759 4.658 2.759v-7.496c0-1.416-.391-2.807-1.147-3.711-.365-.439-.804-.757-1.292-.757h-9.145z" fill="#699DEE"/><path d="M613.697 352.637s1.585 1.123 2.097 2.955l9.34.097s-.366-2.637-2.292-3.076h-9.145v.024z" fill="#568CDB"/><path d="M523.685 311.912h103.034v-38.284H523.343c-8.243 0-14.949 6.69-14.949 14.967v8.032c.024 8.424 6.853 15.285 15.291 15.285z" fill="#FCECDB"/><path d="M510.832 288.473v8.228c.025 3.516 1.976 6.568 4.829 8.203a9.543 9.543 0 004.755 1.27h111.888a2.369 2.369 0 012.365 2.368v.977a2.369 2.369 0 01-2.365 2.368H439.013c-5.536 0-10.438-2.759-13.413-6.983-1.878-2.661-2.951-5.908-2.951-9.4v-6.494c0-2.393.537-4.664 1.537-6.69a15.364 15.364 0 0113.852-8.692h194.29a2.368 2.368 0 012.365 2.368v.977a2.369 2.369 0 01-2.365 2.368H520.099a9.233 9.233 0 00-6.803 2.979 9.119 9.119 0 00-2.464 6.153z" fill="#B5453C"/><path d="M626.719 292.77l-14.34.635 14.34.39v-1.025zm0-8.814l-34.117.634 34.117.391v-1.025z" fill="#F4D2B8"/><path d="M592.943 284.468s2.243 1.221 2.999 3.199c.122.342.22.732.244 1.123.122 2.661 0 8.643 0 8.643l6.658-3.003 6.633 3.003v-8.13c0-1.539-.561-3.028-1.634-4.005-.512-.463-1.121-.83-1.829-.83h-13.071z" fill="#F99746"/><path d="M592.943 284.468s2.243 1.221 2.999 3.199l13.316.122s-.512-2.857-3.268-3.321h-13.047z" fill="#ED7D2B"/><path d="M525.489 259.442c5.901 10.279 13.315 14.235 13.315 14.235h30.849s-48.676-22.097-44.164-14.235z" fill="#233862"/><path d="M549.193 338.94c.804.928.902 1.953.512 3.052v.024c-.732 2.027-3.171 4.322-5.999 6.593-.366.293-.683.561-.952.805-.073.074-.146.122-.219.196-.049.048-.122.097-.171.146-2.634 2.442-1.634 2.979-6.365 7.911-5.389 5.615-9.12 5.713-10.169 5.2-.902-.439.927-3.418 2.926-6.763.098-.171.195-.317.293-.488.268-.44.536-.903.805-1.343 2.365-4.029 1.756-5.933 1.195-11.915-.464-4.883-7.585-27.248-7.585-27.248l10.34-1.782s3.122 17.799 6.536 20.558c1.829 1.465 3.878 1.489 5.658 2.564.122.073.244.146.366.244 1 .635 2.024 1.318 2.829 2.246z" fill="#FFB27D"/><path d="M549.193 338.94c.804.928.902 1.953.512 3.052v.024c-.903 2.027-3.268 4.298-5.999 6.568-.366.293-.683.562-.952.83-.073.074-.146.122-.219.196-.049.049-.122.097-.171.146-2.634 2.442-1.634 2.979-6.365 7.911-5.389 5.616-9.12 5.713-10.169 5.2-.902-.439.927-3.418 2.926-6.763 1.049-.39 5.926-2.368 9.609-7.105 3.243-4.15 5.414-9.473 7.633-12.574.122.073.244.147.366.244 1 .66 2.024 1.343 2.829 2.271z" fill="#233862"/><path d="M465.814 332.47c-.634 3.198-5.194 2.661-10.267 1.416-5.072-1.245-3.877.244-11.12-.562-7.243-.805-9.414-3.491-9.658-4.59-.195-.952 3.366-1.294 7.219-1.733.488-.049.975-.122 1.439-.171 4.316-.537 7.487-3.345 11.437-5.64 3.731-2.173 9.292-11.036 9.292-11.036l9.925.781s-5.194 7.911-7.218 11.353c-1.195 2.027-1.122 4.713-.976 6.764.073 1.147.146 2.295-.073 3.418z" fill="#FFB27D"/><path d="M455.547 333.886c-5.072-1.245-3.877.244-11.12-.562-7.243-.805-9.414-3.491-9.658-4.59-.195-.952 3.366-1.294 7.219-1.733l.024.073s4.341 3.076 10.365 3.223c4.902.122 10.096-1.294 13.486-1.245.073 1.123.146 2.27-.073 3.393-.61 3.223-5.17 2.686-10.243 1.441zm48.286-64.922l9.267 24.978 12.096 32.619s3.292.318 6.438-.586c2.902-.83 6.219-3.027 6.219-3.027s-3.366-35.037-9.633-55.131c-1.61-5.152-3.414-9.327-5.39-11.695-9.73-11.5-18.997 12.842-18.997 12.842z" fill="#233862"/><path d="M513.247 229.289c6.072-1.954 23.411.561 40.799 3.979l3.633-6.006 37.605-2.93s12.413 27.541 5.609 45.096c-1 2.588-2.975 4.224-6.365 4.297h-.561s-22.387-.024-29.654-.024c-18.705 0-39.58-12.867-42.263-13.404-4.414-.879-6.194 7.959-10.608 17.262-4.414 9.302-41.555 41.14-41.555 41.14s-5.707.049-8.073-.83c-2.536-.952-3.462-2.197-3.462-2.197s41.213-81.964 54.895-86.383z" fill="#2B478B"/><path d="M557.923 175.403c13.388 7.374 40.555 22.682 40.702 22.585 0 0 9.974 3.76 15.656 0 9.438-6.275 14.51-23.171-2.756-37.698-8.608-7.252-14.729-9.01-15.656-20.583-.512-6.275-9.072-27.004-23.338-25.099-1.195.171-8.511.512-13.34 3.027-12.267 6.446-21.338 54.911-1.268 57.768z" fill="#233862"/><path d="M569.166 169.104c-.049.049 6.584 2.319 11.022.342 4.171-1.856 7.341-8.741 7.292-8.741-1.902-.098-3.999-1.758-5.609-12.672l-.805.293-13.608 4.908s.976 4.37 1.634 8.545c.513 3.491.805 6.836.074 7.325z" fill="#FFB27D"/><path d="M567.458 153.233s.976 4.371 1.634 8.546c7.829-1.416 10.901-9.205 11.999-13.453l-13.633 4.907z" fill="#ED975D"/><path d="M565.41 157.58s18.632-2.515 16.9-14.088c-1.731-11.598-.512-19.728-12.462-18.605-11.973 1.098-13.607 5.884-13.973 9.888-.366 3.98 4.658 23.146 9.535 22.805z" fill="#FFB27D"/><path d="M556.558 128.403s11.925 10.279 20.046 11.109c8.12.83 11.193-1.783 11.193-1.783s-4.78-3.979-7.657-10.401c-.854-1.88-2.634-3.198-4.707-3.369-5.804-.464-16.803-.708-18.875 4.444z" fill="#233862"/><path d="M564.02 127.475s-4 3.858-5.243 6.739c-1.22 2.759-1.586 9.375-.61 12.012 0 0-6.219-12.11-2.707-17.97 3.731-6.275 8.56-.781 8.56-.781z" fill="#233862"/><path d="M553.46 196.596c.561 37.747.147 29.86 4.268 33.45 1 .854 3.78 1.367 7.462 1.611 11.56.757 31.898-1.148 32.654-3.272 2.659-7.398.781-9.693 3-21.046.244-1.197.512-2.515.854-3.931 1.853-7.789 3.658-10.426-2.927-22.951-5.975-11.329-12.169-20.534-12.73-20.192-15.754 9.351-17.022 1.49-17.022 1.49s-15.827 16.431-15.559 34.841z" fill="#fff"/><path d="M513.1 293.942l12.096 32.619s3.292.318 6.438-.586c2.902-.83 6.219-3.027 6.219-3.027s-3.365-35.037-9.633-55.131l-15.12 26.125z" fill="#2B478B"/><path d="M569.068 161.779s-16.218 2.759-18.12 9.742c-1.902 6.983-13.095 48.05-13.095 48.05s8.242 1.49 12.047-2.319c3.804-3.809 13.242-35.354 13.242-35.354l5.926-20.119z" fill="#fff"/><path d="M565.215 231.657c11.559.757 31.898-1.148 32.654-3.272 2.658-7.398.78-9.693 3-21.046l-5.585-15.724s.927 17.506-4.243 22.121c-5.146 4.614-21.119 8.887-23.631 12.745-1.171 1.831-1.976 3.687-2.195 5.176z" fill="#EBF3FF"/><path d="M578.457 224.308s-11.413-2.539-13.242-1.538c-1.829 1.025-6.34 4.712-6.901 5.982-.561 1.294 4.097-.977 5.609-1.392.975-.269 3.56.635 4.853 1.074 5.389 1.807 8.681.879 8.681.879l1-5.005z" fill="#FFB27D"/><path d="M586.114 160.265s15.315.952 20.632 8.35c7.462 10.426 22.265 54.838 13.778 60.771-9.559 6.666-43.506 1.734-43.506 1.734s-1.122-5.274.439-7.838c1.561-2.563 27.118-6.69 28.289-7.862 1.17-1.171-14.73-22.999-14.73-26.539 0-3.541-4.902-28.616-4.902-28.616z" fill="#fff"/><path d="M564.654 225.944s-2.39 3.076-3.17 3.467c-.781.366-1.293.268-1.293.268l1.61-2.905 2.853-.83zm.561-3.174l-6.95 3.369s.292.488 1.146.439c.853-.048 3.024-.83 3.024-.83l2.78-2.978z" fill="#FFB27D"/><path d="M561.484 234.123h-54.968l-16.535-41.165h54.895l16.608 41.165z" fill="#F99746"/><path d="M505.857 232.536h72.6v1.587h-71.941l-.659-1.587z" fill="#ED7D2B"/><path d="M520.392 213.54c-.415-1.44.414-2.612 1.878-2.612 1.438 0 2.95 1.172 3.365 2.612.414 1.441-.415 2.613-1.878 2.613-1.439 0-2.951-1.172-3.365-2.613z" fill="#fff"/><path d="M61.894 250.311l-1.17.805a2.723 2.723 0 01-3.83-.708l-6.803-9.839a2.732 2.732 0 01.707-3.834l1.683-1.171a.548.548 0 01.756.146.55.55 0 01-.147.757l-1.682 1.172c-.756.537-.951 1.587-.415 2.344l6.804 9.839c.537.757 1.585.953 2.341.415l1.17-.805c.757-.537.952-1.587.415-2.344l-4.511-6.519a.55.55 0 01.146-.757.548.548 0 01.756.146l4.512 6.519c.829 1.221.536 2.955-.732 3.834z" fill="#AFCDFB"/><path d="M69.357 260.004l-2.098 1.465c-1.95 1.342-4.706.756-6.17-1.343L50.847 245.33a.55.55 0 01.146-.757.548.548 0 01.756.146l10.243 14.796c1.097 1.612 3.194 2.076 4.658 1.075l2.097-1.465c1.463-1.001 1.756-3.15.634-4.737l-11.657-16.847c-1.097-1.611-3.195-2.075-4.658-1.074a.547.547 0 01-.756-.147.548.548 0 01.146-.756c1.951-1.343 4.707-.757 6.17 1.342l11.657 16.847c1.44 2.1 1.025 4.908-.926 6.251zm14.096 77.227l.243 2.075a4.06 4.06 0 01-3.536 4.517l-17.46 2.124a4.058 4.058 0 01-4.512-3.54l-.366-2.979a.796.796 0 01.683-.879.796.796 0 01.878.684l.365 2.979a2.471 2.471 0 002.756 2.148l17.461-2.124a2.474 2.474 0 002.146-2.759l-.244-2.075a2.472 2.472 0 00-2.755-2.149l-11.584 1.416a.794.794 0 01-.878-.683.795.795 0 01.683-.879l11.584-1.416c2.243-.269 4.267 1.318 4.535 3.54z" fill="#AFCDFB"/><path d="M101.181 334.155l.464 3.735c.414 3.467-2.268 6.666-5.975 7.105l-26.24 3.199a.796.796 0 01-.878-.684.795.795 0 01.683-.879l26.24-3.198c2.829-.342 4.902-2.735 4.585-5.348l-.464-3.735c-.317-2.588-2.877-4.419-5.73-4.078l-29.899 3.638c-2.829.342-4.902 2.735-4.585 5.347a.795.795 0 01-.682.879.794.794 0 01-.878-.683c-.415-3.467 2.267-6.666 5.974-7.105l29.899-3.638c3.707-.464 7.072 1.977 7.486 5.445z" fill="#AFCDFB"/><path d="M385.695 90.486a2.415 2.415 0 10-4.7-1.11 2.415 2.415 0 104.7 1.11z" fill="#F99746"/><path d="M710.195 373H4.536a.812.812 0 01-.805-.806v-.268c0-.44.366-.806.805-.806h705.659c.439 0 .805.366.805.806v.268c0 .44-.366.806-.805.806z" fill="#2E3552"/></svg>