<svg width="708" height="393" fill="none" xmlns="http://www.w3.org/2000/svg"><g clip-path="url(#clip0)"><path d="M676.498 392.026c-38.293 0-613.355.143-613.67-.859l-.058-.115s-.057-.115-.057-.172c-.2-.487-110.725-45.007-37.892-144.532C63.028 194.18-5.132 114.336 76.012 43.861c127.177-110.411 248.536 25.583 299.957 0 43.252-21.515 112.73-52.312 183.27-24.695 19.376 7.592 61.338 45.694 26.484 109.724-17.427 32 59.848 35.724 88.11 69.73 61.567 74.085 25.595 193.406 2.665 193.406z" fill="#EBF3FA"/><g opacity=".5" fill="#AEC3FF"><path opacity=".5" d="M461.901 161.893s-7.395-58.472 13.271-99.611c2.752-5.472 10.863-4.44 12.21 1.518.029.086.058.2.058.315 2.178 10.228-19.749 61.05-25.539 97.778z"/><path opacity=".5" d="M462.417 179.024s11.293-78.181 52.997-121.928c2.551-2.664 6.822-2.979 9.574-.544 1.806 1.576 3.124 4.44 2.837 9.483-.831 13.465-45.602 69.243-65.408 112.989z"/></g><g opacity=".4"><g opacity=".4"><path opacity=".4" d="M88.683 199.795h24.736a3.963 3.963 0 003.955-3.954V91.761a3.962 3.962 0 00-3.955-3.953H88.683a3.962 3.962 0 00-3.956 3.953V195.87c.03 2.148 1.778 3.925 3.956 3.925z" fill="#8C9DF4"/><path opacity=".4" d="M108.718 175.644a7.65 7.65 0 00-7.653-7.649 7.65 7.65 0 100 15.298c4.214 0 7.653-3.438 7.653-7.649z" fill="#505ABA"/><path opacity=".4" d="M101.065 184.124a8.45 8.45 0 01-8.456-8.451 8.451 8.451 0 018.456-8.452 8.45 8.45 0 018.455 8.452 8.45 8.45 0 01-8.455 8.451zm0-15.27a6.849 6.849 0 00-6.85 6.847 6.848 6.848 0 006.85 6.847 6.848 6.848 0 006.85-6.847 6.849 6.849 0 00-6.85-6.847z" fill="#fff"/><path opacity=".4" d="M92.954 155.876h16.194c.803 0 1.462-.658 1.462-1.461V94.397c0-.802-.659-1.461-1.462-1.461H92.954c-.803 0-1.462.659-1.462 1.46v60.019c0 .803.66 1.461 1.462 1.461z" fill="#AEC3FF"/><path opacity=".4" d="M94.902 97.749h11.924a1.15 1.15 0 001.147-1.146v-.201a1.15 1.15 0 00-1.147-1.146H94.902a1.15 1.15 0 00-1.146 1.146v.2c0 .602.516 1.147 1.146 1.147z" fill="#F99746"/><path opacity=".4" d="M103.502 135.45v12.949c0 .344.287.63.631.63.343 0 .63-.286.63-.63v-12.978a.636.636 0 00-.63-.63c-.344.029-.631.286-.631.659zm0-17.848v12.978c0 .344.287.63.631.63.343 0 .63-.286.63-.63v-12.978a.636.636 0 00-.63-.63.618.618 0 00-.631.63zM96.25 135.45v12.949c0 .344.287.63.63.63a.635.635 0 00.631-.63v-12.978a.636.636 0 00-.63-.63c-.344.029-.631.286-.631.659zm0-17.848v12.978c0 .344.287.63.63.63a.635.635 0 00.631-.63v-12.978a.636.636 0 00-.63-.63.618.618 0 00-.631.63zm3.783 14.181v16.616c0 .344.287.63.631.63.344 0 .63-.286.63-.63v-16.616a.635.635 0 00-.63-.63.636.636 0 00-.631.63zm0-22.432v16.645c0 .344.287.63.631.63.344 0 .63-.286.63-.63v-16.645a.635.635 0 00-.63-.63c-.344-.029-.631.258-.631.63z" fill="#505ABA"/></g><g opacity=".4"><path opacity=".4" d="M129.384 199.795h24.736a3.963 3.963 0 003.956-3.954V91.761a3.962 3.962 0 00-3.956-3.953h-24.736a3.962 3.962 0 00-3.955 3.953V195.87c.028 2.148 1.777 3.925 3.955 3.925z" fill="#8C9DF4"/><path opacity=".4" d="M149.419 175.644a7.65 7.65 0 00-7.653-7.649 7.65 7.65 0 100 15.298c4.214 0 7.653-3.438 7.653-7.649z" fill="#505ABA"/><path opacity=".4" d="M141.766 184.124a8.45 8.45 0 01-8.455-8.451 8.45 8.45 0 018.455-8.452 8.451 8.451 0 110 16.903zm0-15.27a6.849 6.849 0 00-6.85 6.847 6.848 6.848 0 006.85 6.847 6.848 6.848 0 006.85-6.847c-.028-3.781-3.095-6.847-6.85-6.847z" fill="#fff"/><path opacity=".4" d="M133.655 155.876h16.195c.802 0 1.461-.658 1.461-1.461V94.397c0-.802-.659-1.461-1.461-1.461h-16.195c-.802 0-1.462.659-1.462 1.46v60.019c0 .803.66 1.461 1.462 1.461z" fill="#AEC3FF"/><path opacity=".4" d="M135.604 97.749h11.923a1.15 1.15 0 001.147-1.146v-.201a1.15 1.15 0 00-1.147-1.146h-11.923a1.15 1.15 0 00-1.147 1.146v.2c-.029.602.516 1.147 1.147 1.147z" fill="#F99746"/><path opacity=".4" d="M144.203 135.45v12.949c0 .344.287.63.631.63.344 0 .63-.286.63-.63v-12.978a.636.636 0 00-.63-.63c-.344.029-.631.286-.631.659zm0-17.848v12.978c0 .344.287.63.631.63.344 0 .63-.286.63-.63v-12.978a.635.635 0 00-.63-.63.618.618 0 00-.631.63zm-7.252 17.848v12.949c0 .344.287.63.631.63.344 0 .63-.286.63-.63v-12.978a.636.636 0 00-.63-.63c-.344.029-.631.286-.631.659zm0-17.848v12.978c0 .344.287.63.631.63.344 0 .63-.286.63-.63v-12.978a.635.635 0 00-.63-.63.618.618 0 00-.631.63zm3.783 14.181v16.616c0 .344.287.63.631.63a.636.636 0 00.631-.63v-16.616a.636.636 0 00-.631-.63.636.636 0 00-.631.63zm0-22.432v16.645c0 .344.287.63.631.63a.636.636 0 00.631-.63v-16.645a.636.636 0 00-.631-.63c-.344-.029-.631.258-.631.63z" fill="#505ABA"/></g><g opacity=".4"><path opacity=".4" d="M170.859 199.795h24.736a3.963 3.963 0 003.955-3.954V91.761a3.962 3.962 0 00-3.955-3.953h-24.736a3.962 3.962 0 00-3.956 3.953V195.87c0 2.148 1.777 3.925 3.956 3.925z" fill="#8C9DF4"/><path opacity=".4" d="M190.894 175.644a7.65 7.65 0 00-7.653-7.649 7.65 7.65 0 100 15.298c4.213 0 7.653-3.438 7.653-7.649z" fill="#505ABA"/><path opacity=".4" d="M183.241 184.124a8.451 8.451 0 110-16.903 8.45 8.45 0 018.455 8.452c0 4.669-3.812 8.451-8.455 8.451zm0-15.27a6.85 6.85 0 00-6.851 6.847 6.848 6.848 0 006.851 6.847 6.848 6.848 0 006.85-6.847c-.029-3.781-3.095-6.847-6.85-6.847z" fill="#fff"/><path opacity=".4" d="M175.13 155.876h16.194c.803 0 1.462-.658 1.462-1.461V94.397c0-.802-.659-1.461-1.462-1.461H175.13c-.803 0-1.462.659-1.462 1.46v60.019c0 .803.659 1.461 1.462 1.461z" fill="#AEC3FF"/><path opacity=".4" d="M177.078 97.749h11.924a1.15 1.15 0 001.147-1.146v-.201a1.15 1.15 0 00-1.147-1.146h-11.924a1.15 1.15 0 00-1.146 1.146v.2c-.029.602.487 1.147 1.146 1.147z" fill="#F99746"/><path opacity=".4" d="M185.678 135.45v12.949c0 .344.286.63.63.63a.636.636 0 00.631-.63v-12.978a.637.637 0 00-.631-.63c-.344.029-.63.286-.63.659zm0-17.848v12.978c0 .344.286.63.63.63a.636.636 0 00.631-.63v-12.978a.636.636 0 00-.631-.63.617.617 0 00-.63.63zm-7.252 17.848v12.949c0 .344.286.63.63.63a.636.636 0 00.631-.63v-12.978a.637.637 0 00-.631-.63c-.344.029-.63.286-.63.659zm0-17.848v12.978c0 .344.286.63.63.63a.636.636 0 00.631-.63v-12.978a.636.636 0 00-.631-.63.617.617 0 00-.63.63zm3.783 14.181v16.616c0 .344.287.63.631.63.344 0 .63-.286.63-.63v-16.616a.635.635 0 00-.63-.63.618.618 0 00-.631.63zm0-22.432v16.645c0 .344.287.63.631.63.344 0 .63-.286.63-.63v-16.645a.635.635 0 00-.63-.63c-.373-.029-.631.258-.631.63z" fill="#505ABA"/></g><g opacity=".4"><path opacity=".4" d="M213.567 199.795h24.736a3.963 3.963 0 003.955-3.954V91.761a3.962 3.962 0 00-3.955-3.953h-24.736a3.962 3.962 0 00-3.956 3.953V195.87c.029 2.148 1.777 3.925 3.956 3.925z" fill="#8C9DF4"/><path opacity=".4" d="M217.838 155.876h16.194c.803 0 1.462-.658 1.462-1.461V94.397c0-.802-.659-1.461-1.462-1.461h-16.194c-.803 0-1.462.659-1.462 1.46v60.019c0 .803.659 1.461 1.462 1.461z" fill="#AEC3FF"/><path opacity=".4" d="M219.786 97.749h11.924a1.15 1.15 0 001.147-1.146v-.201a1.15 1.15 0 00-1.147-1.146h-11.924a1.15 1.15 0 00-1.146 1.146v.2c-.029.602.516 1.147 1.146 1.147z" fill="#F99746"/></g><g opacity=".4"><path opacity=".4" d="M254.784 199.795h24.736a3.963 3.963 0 003.955-3.954V91.761a3.962 3.962 0 00-3.955-3.953h-24.736a3.962 3.962 0 00-3.956 3.953V195.87c.029 2.148 1.777 3.925 3.956 3.925z" fill="#8C9DF4"/><path opacity=".4" d="M259.055 155.876h16.194c.803 0 1.462-.658 1.462-1.461V94.397c0-.802-.659-1.461-1.462-1.461h-16.194c-.803 0-1.462.659-1.462 1.46v60.019c0 .803.659 1.461 1.462 1.461z" fill="#AEC3FF"/><path opacity=".4" d="M261.003 97.749h11.924a1.15 1.15 0 001.146-1.146v-.201a1.15 1.15 0 00-1.146-1.146h-11.924a1.15 1.15 0 00-1.146 1.146v.2c-.029.602.515 1.147 1.146 1.147z" fill="#F99746"/></g><g opacity=".4"><path opacity=".4" d="M88.683 326.45h24.736a3.963 3.963 0 003.955-3.954v-104.08a3.962 3.962 0 00-3.955-3.953H88.683a3.962 3.962 0 00-3.956 3.953v104.109c.03 2.148 1.778 3.925 3.956 3.925z" fill="#8C9DF4"/><path opacity=".4" d="M101.065 309.948a7.651 7.651 0 007.653-7.649 7.65 7.65 0 00-7.653-7.649 7.65 7.65 0 00-7.653 7.649 7.651 7.651 0 007.653 7.649z" fill="#505ABA"/><path opacity=".4" d="M101.065 310.779a8.45 8.45 0 01-8.456-8.451 8.451 8.451 0 018.456-8.452 8.45 8.45 0 018.455 8.452 8.45 8.45 0 01-8.455 8.451zm0-15.27a6.849 6.849 0 00-6.85 6.847 6.848 6.848 0 006.85 6.847 6.848 6.848 0 006.85-6.847 6.849 6.849 0 00-6.85-6.847z" fill="#fff"/><path opacity=".4" d="M92.954 282.532h16.194c.803 0 1.462-.659 1.462-1.462v-60.018c0-.802-.659-1.461-1.462-1.461H92.954c-.803 0-1.462.659-1.462 1.461v60.018c0 .803.66 1.462 1.462 1.462z" fill="#AEC3FF"/><path opacity=".4" d="M94.902 224.404h11.924a1.15 1.15 0 001.147-1.146v-.201a1.15 1.15 0 00-1.147-1.146H94.902a1.15 1.15 0 00-1.146 1.146v.201c0 .63.516 1.146 1.146 1.146z" fill="#F99746"/><path opacity=".4" d="M103.502 262.105v12.978c0 .343.287.63.631.63.343 0 .63-.287.63-.63v-12.978a.636.636 0 00-.63-.63.636.636 0 00-.631.63zm0-17.848v12.978c0 .344.287.63.631.63.343 0 .63-.286.63-.63v-12.978a.636.636 0 00-.63-.63.618.618 0 00-.631.63zm-7.252 17.848v12.978c0 .343.287.63.63.63a.636.636 0 00.631-.63v-12.978a.636.636 0 00-.63-.63.636.636 0 00-.631.63zm0-17.848v12.978c0 .344.287.63.63.63a.635.635 0 00.631-.63v-12.978a.636.636 0 00-.63-.63.618.618 0 00-.631.63zm3.783 14.181v16.645c0 .344.287.63.631.63.344 0 .63-.286.63-.63v-16.645a.635.635 0 00-.63-.63.636.636 0 00-.631.63zm0-22.432v16.645c0 .344.287.63.631.63.344 0 .63-.286.63-.63v-16.645a.635.635 0 00-.63-.63.618.618 0 00-.631.63z" fill="#505ABA"/></g><g opacity=".4"><path opacity=".4" d="M129.384 326.45h24.736a3.963 3.963 0 003.956-3.954v-104.08a3.962 3.962 0 00-3.956-3.953h-24.736a3.962 3.962 0 00-3.955 3.953v104.109c.028 2.148 1.777 3.925 3.955 3.925z" fill="#8C9DF4"/><path opacity=".4" d="M149.419 302.299a7.65 7.65 0 00-7.653-7.649 7.65 7.65 0 100 15.298c4.214 0 7.653-3.438 7.653-7.649z" fill="#505ABA"/><path opacity=".4" d="M141.766 310.779a8.45 8.45 0 01-8.455-8.451 8.45 8.45 0 018.455-8.452 8.451 8.451 0 018.456 8.452 8.45 8.45 0 01-8.456 8.451zm0-15.27a6.849 6.849 0 00-6.85 6.847 6.848 6.848 0 006.85 6.847 6.848 6.848 0 006.85-6.847c-.028-3.781-3.095-6.847-6.85-6.847z" fill="#fff"/><path opacity=".4" d="M133.655 282.532h16.195c.802 0 1.461-.659 1.461-1.462v-60.018c0-.802-.659-1.461-1.461-1.461h-16.195c-.802 0-1.462.659-1.462 1.461v60.018c0 .803.66 1.462 1.462 1.462z" fill="#AEC3FF"/><path opacity=".4" d="M135.604 224.404h11.923a1.15 1.15 0 001.147-1.146v-.201a1.15 1.15 0 00-1.147-1.146h-11.923a1.15 1.15 0 00-1.147 1.146v.201c-.029.63.516 1.146 1.147 1.146z" fill="#F99746"/><path opacity=".4" d="M144.203 262.105v12.978c0 .343.287.63.631.63.344 0 .63-.287.63-.63v-12.978a.635.635 0 00-.63-.63.636.636 0 00-.631.63zm0-17.848v12.978c0 .344.287.63.631.63.344 0 .63-.286.63-.63v-12.978a.635.635 0 00-.63-.63.618.618 0 00-.631.63zm-7.252 17.848v12.978c0 .343.287.63.631.63.344 0 .63-.287.63-.63v-12.978a.635.635 0 00-.63-.63.636.636 0 00-.631.63zm0-17.848v12.978c0 .344.287.63.631.63.344 0 .63-.286.63-.63v-12.978a.635.635 0 00-.63-.63.618.618 0 00-.631.63zm3.783 14.181v16.645c0 .344.287.63.631.63a.636.636 0 00.631-.63v-16.645a.636.636 0 00-.631-.63.636.636 0 00-.631.63zm0-22.432v16.645c0 .344.287.63.631.63a.636.636 0 00.631-.63v-16.645a.636.636 0 00-.631-.63.618.618 0 00-.631.63z" fill="#505ABA"/></g><path opacity=".4" d="M170.859 326.45h24.736a3.963 3.963 0 003.955-3.954v-104.08a3.962 3.962 0 00-3.955-3.953h-24.736a3.962 3.962 0 00-3.956 3.953v104.109c0 2.148 1.777 3.925 3.956 3.925zm42.708 0h24.736a3.963 3.963 0 003.955-3.954v-104.08a3.962 3.962 0 00-3.955-3.953h-24.736a3.962 3.962 0 00-3.956 3.953v104.109c.029 2.148 1.777 3.925 3.956 3.925zm41.217 0h24.736a3.963 3.963 0 003.955-3.954v-104.08a3.962 3.962 0 00-3.955-3.953h-24.736a3.962 3.962 0 00-3.956 3.953v104.109c.029 2.148 1.777 3.925 3.956 3.925z" fill="#8C9DF4"/><path opacity=".4" d="M76.014 392.055a3.914 3.914 0 01-3.927-3.925V76.234a3.914 3.914 0 013.927-3.925 3.914 3.914 0 013.927 3.925V388.13a3.932 3.932 0 01-3.927 3.925z" fill="#BDD1F9"/><path opacity=".4" d="M72.117 202.962h226.665v-3.151H72.117v3.151zm.003 126.588h240.738v-3.152H72.12v3.152z" fill="#BDD1F9"/></g><path d="M553.822 180.342s-21.554 18.708-17.828 22.489c3.726 3.782 22.5-22.575 22.5-22.575s28.204 6.36 35.628 13.465c0 0-29.666 11.431-25.137 14.181 4.557 2.75 35.972-7.706 35.972-7.706s24.019 12.72 17.541 27.789c-6.477 15.069-16.825 16.988-20.551 15.298-3.726-1.69-23.417-17.705-24.965-14.697-1.519 3.008 8.627 17.791 17.971 21.401 0 0-24.449 13.866-34.51 4.24-10.032-9.626-8.083-19.023-14.388-24.867-6.306-5.845-12.669-7.907-10.749-3.438 1.92 4.469 14.274 12.261 16.051 21.171 1.777 8.91 3.927 15.241-7.796 9.311s-28.806-21.544-26.284-32.172c.115-.459.229-.917.315-1.318-.286.802-.315 1.318-.315 1.318-2.723-.401-9.602 2.578-14.704 5.013-.802.459-1.978 1.06-3.64 1.805-.717.372-1.29.659-1.691.888-10.605 6.074-20.895 22.919-20.895 22.919l-2.609-1.117c7.481-19.252 25.94-25.354 25.94-25.354 13.414-5.787 20.121-14.783 20.121-14.783s-10.805-26.213 9.946-33.776c.058 0 14.475-3.295 24.077.515z" fill="#D2E2F9"/><path d="M631.879 334.452h18.545v-59.761h-18.545v59.761z" fill="#35488B"/><path d="M587.189 334.452h44.714v-59.761h-44.714v59.761z" fill="#2C3A64"/><path d="M644.254 282.159a3.082 3.082 0 00-3.096-3.094 3.082 3.082 0 00-3.096 3.094 3.082 3.082 0 003.096 3.094 3.1 3.1 0 003.096-3.094z" fill="#DDE7FE"/><path d="M643.336 282.159a2.176 2.176 0 00-2.178-2.177 2.177 2.177 0 100 4.354 2.176 2.176 0 002.178-2.177z" fill="#6C7AFF"/><path d="M636.732 305.33h8.713v-15.728h-8.713v15.728z" fill="#8FADEF"/><path d="M597.318 334.452h18.545v-59.761h-18.545v59.761z" fill="#35488B"/><path d="M552.599 334.452h44.714v-59.761h-44.714v59.761z" fill="#2C3A64"/><path d="M609.685 282.159a3.081 3.081 0 00-3.095-3.094 3.082 3.082 0 00-3.096 3.094 3.082 3.082 0 003.096 3.094c1.691 0 3.095-1.404 3.095-3.094z" fill="#DDE7FE"/><path d="M608.768 282.159a2.177 2.177 0 00-2.178-2.177 2.177 2.177 0 100 4.354 2.177 2.177 0 002.178-2.177z" fill="#6C7AFF"/><path d="M602.17 305.33h8.714v-15.728h-8.714v15.728z" fill="#8FADEF"/><path d="M565.699 334.452h18.545v-59.761h-18.545v59.761z" fill="#35488B"/><path d="M520.98 334.452h44.714v-59.761H520.98v59.761z" fill="#2C3A64"/><path d="M578.07 282.159a3.082 3.082 0 00-3.096-3.094 3.082 3.082 0 00-3.095 3.094 3.082 3.082 0 003.095 3.094c1.692 0 3.096-1.404 3.096-3.094z" fill="#DDE7FE"/><path d="M577.154 282.159a2.177 2.177 0 00-2.179-2.177 2.176 2.176 0 100 4.354 2.177 2.177 0 002.179-2.177z" fill="#6C7AFF"/><path d="M570.551 305.329h8.714v-15.728h-8.714v15.728z" fill="#8FADEF"/><path d="M518.198 390.93h104.734v-77.322H518.198v77.322z" fill="#F77D48"/><path d="M574.322 390.93h83.036v-77.322h-83.036v77.322z" fill="#FF8C64"/><path d="M609.83 326.22h21.497a2.42 2.42 0 002.407-2.406v-.315a2.422 2.422 0 00-2.407-2.407H609.83a2.422 2.422 0 00-2.408 2.407v.315a2.421 2.421 0 002.408 2.406z" fill="#2C3A64"/><path d="M360.462 212.543l-14.159 168.31s-1.49 10.199 6.105 10.228c12.497.028 62.141 0 62.141 0s-9.401-2.12-9.287-6.904c.144-5.644 16.539-173.209 16.539-173.209l-61.339 1.575z" fill="#798EE8"/><path d="M419.221 387.987c-2.465 0-50.532.086-62.685-.058-5.303-.057-6.22-4.698-6.277-7.706a13.35 13.35 0 01.172-2.492l.372-4.384.946-11.144.831-9.855 1.061-12.663.888-10.685 10.061-119.608 61.367-1.604s-6.908 70.131-11.809 121.183c-.545 5.701-1.06 11.144-1.548 16.244-.143 1.633-.315 3.208-.458 4.755-.459 4.842-.86 9.254-1.233 13.179-.2 2.062-.372 3.982-.516 5.729-.63 6.876-1.003 11.288-1.003 12.119 0 .487.029.945.115 1.375 1.003 5.386 8.799 5.615 9.716 5.615z" fill="#AEC3FF"/><path d="M211.473 120.868l34.481 138.487 4.729 18.994 16.08 64.488h298.495L506.04 120.868H211.473z" fill="#AEC3FF"/><path d="M211.473 120.868l-4.786 1.604 53.714 225.178 6.363-4.813-55.291-221.969z" fill="#798EE8"/><path d="M260.4 347.65h296.661l8.197-4.813H266.764l-6.364 4.813z" fill="#849DEF"/><path d="M364.581 391.064h64.233v-3.036h-64.233v3.036z" fill="#AEC3FF"/><path d="M412.485 347.649l-.343 2.35-60.393 12.204.831-9.855.373-4.699h59.532z" fill="#8C9DF4"/><path opacity=".5" d="M419.221 387.987c-2.465 0-50.532.086-62.685-.058-5.303-.057-6.22-4.698-6.277-7.706l60.134-11.316c-.63 6.875-1.003 11.287-1.003 12.118 0 .487.029.945.115 1.375 1.003 5.357 8.799 5.587 9.716 5.587z" fill="#8C9DF4"/><path d="M211.473 120.868H506.04l47.781 178.394H255.9l-44.427-178.394z" fill="#8C9DF4"/><path d="M539.92 291.527H264.126l-9.86-39.22-3.812-15.183-1.548-6.217-10.146-40.308-.516-2.12-5.36-21.315-2.379-9.54-2.064-8.136-1.662-6.618-3.125-12.433h271.838l3.44 12.433 1.806 6.618 2.264 8.136 2.608 9.54 17.341 62.855 1.462 5.329.688 2.463 11.981 43.374 2.838 10.342z" fill="#505ABA"/><path d="M195.021 216.697s.717-7.85-8.054-7.85c0 0 2.665.717 4.012 2.149 0 0-5.589-3.266-11.665 1.748-6.077 5.042-2.293 17.676-4.156 20.082-1.863 2.407-9.058 2.865-8.169 10.629.888 7.764 22.844 17.475 21.44 23.893 0 0 8.598-12.663 2.465-18.421 0 0 3.009 2.836 3.296 6.188 0 0 .802-6.561-3.354-8.652-3.697-1.862-6.707-8.652-6.392-9.855.344-1.203 10.577-19.911 10.577-19.911z" fill="#2C3A64"/><path d="M186.394 254.341s6.535 27.073 12.955 32.459c3.87 3.237 15.335 10.714 15.335 10.714l-4.787 1.719s-15.936-5.386-19.491-9.568c-3.554-4.183-13.328-25.182-13.328-25.182l9.316-10.142z" fill="#FFB27D"/><path d="M224.171 307.398l-1.547-3.81c-1.663-4.068-5.618-6.761-10.004-6.761h-28.376v94.798H301.59v-76.778h-66.383c-4.844 0-9.201-2.951-11.036-7.449z" fill="#F99746"/><path d="M124.883 301.869c.057.115.115.201.172.315 1.433 2.493 4.729 8.595 8.341 15.241 1.72 3.152 3.497 6.446 5.217 9.569 2.923 5.357 5.589 10.113 7.137 12.634 1.576 2.55 2.751 4.354 3.21 5.071.143.229.172.487.143.745a37.256 37.256 0 00.115 6.703c2.178 21.716 16.825 33.347 16.825 33.347l4.357.63s-6.163-22.804-7.969-35.696c-.315-2.177-.43-3.953-.344-5.099.316-3.352-.286-8.279-1.404-13.952-2.007-10.055-5.704-22.432-8.914-32.315-.201-.631-6.335-22.776-6.335-22.776-5.13 4.498-23.876 6.331-23.876 6.331s-3.153 7.736 3.325 19.252z" fill="#2F539B"/><path d="M179.543 391.653h-18.172s-.43-2.778.516-4.87c.917-2.005 2.207-2.091.172-5.242 1.146 1.174 4.873 1.69 7.481 1.317.315.516 2.064 4.011 3.153 4.785 1.204.859 6.478.573 6.85 4.01zm-54.659-89.784c.057.115.114.201.172.315 1.433 2.493 9.172 16.788 12.783 23.463-4.184-17.246-1.289-34.492-1.289-34.492l-11.666 10.714z" fill="#233862"/><path d="M192.527 215.608c.115-.487-10.376 4.756-10.92 5.329-4.93 5.443-3.526 12.577-.688 12.634 1.806.057 1.462 3.037 1.462 3.037l20.121-8.509c0 .029-2.408-14.095-9.975-12.491z" fill="#2C3A64"/><path d="M185.763 250.273s3.067 6.102 2.666 11.087c0 0-3.697 5.816-13.271 7.305.029-.028 8.255-18.392 10.605-18.392z" fill="#6385DB"/><path d="M139.043 283.992l.057-3.409c-6.764.86-23.331-8.079-23.331-8.079s-7.08 4.699-8.055 18.164c-.487 6.56-3.468 34.32-3.812 42.6-.114 3.008-.172 5.157-.172 6.016 0 .258-.114.487-.286.688-1.405 1.776-2.609 3.667-3.67 5.615-10.318 19.223-4.93 45.322-4.93 45.322l2.409-.602s8.742-27.073 14.446-38.761c.974-1.977 1.863-3.524 2.579-4.412 2.15-2.607 4.414-7.019 6.65-12.348 4.213-10.113 18.115-50.794 18.115-50.794z" fill="#2F539B"/><path d="M109.32 391.654H91.147s-.43-2.779.516-4.871c.917-2.005 2.322-2.922 2.007-5.357 1.146 1.175 3.038 2.521 5.675 2.177.315.516 2.064 3.324 3.153 4.097 1.146.802 6.449.516 6.822 3.954z" fill="#233862"/><path d="M173.954 272.533c-2.436.43.401 2.349-2.952 2.722-4.787.515-9.717.888-12.296 1.919-.946.372-1.577.831-1.778 1.432-1.117 3.381-8.226 9.139-8.226 9.139-31.644-1.432-33.679-15.527-33.679-15.527 20.552-19.94 38.036-30.797 52.453-32.144 3.526-.315 8.255.115 10.462 1.089 5.045 2.234 7.825 9.081 7.825 9.081s-2.522 20.713-11.809 22.289z" fill="#739AF0"/><path d="M171.002 275.255c-4.786.515-9.716.888-12.296 1.919-1.061-15.785 6.392-27.646 6.392-27.646s4.844 19.768 5.904 25.727z" fill="#6385DB"/><path d="M175.13 246.864s-12.01-.659-14.16 6.876c-2.121 7.534 4.013 37.644 5.331 40.738 2.408 5.644 14.561 22.489 14.561 22.489l3.898-2.006s-7.825-24.666-9.573-27.101c-2.752-3.81 3.525-37.701-.057-40.996z" fill="#FFB27D"/><path d="M184.76 314.961s1.003.86 1.806 1.862c.802.974.086 1.347 2.407 5.816 0 0-.114.63-.63.516-.516-.115-2.265-1.834-3.153-1.719 0 0-.631.515-.717 2.292-.057 1.633-.057 5.271-.344 5.93-.286.687-2.379-2.865-3.382-5.415-.888-2.234-.028-9.797-.028-9.797l4.041.515z" fill="#FFB27D"/><path d="M158.591 263.824c.028.172 11.379 2.091 18.459-1.519 0 0 5.933-18.564-2.551-17.676-8.456.888-13.472 3.553-13.701 7.592-.172 4.097-2.207 11.603-2.207 11.603z" fill="#739AF0"/><path d="M177.68 242.481c.115 1.489.315 3.266 2.293 5.271 1.519 1.547 3.669 2.75 5.217 1.232.774-.774 1.834-1.948 2.35-2.865 1.318-2.263 2.895-4.584 2.895-4.584l-6.793-5.959-.401-.343c-1.778 3.122-3.526 4.612-5.074 5.758-.458.344-.516.917-.487 1.49z" fill="#FFB27D"/><path d="M190.435 241.564s-1.576 2.321-2.895 4.584c-4.213-2.607-4.242-7.821-3.898-10.543l6.793 5.959z" fill="#ED985F"/><path d="M190.636 244.543s-10.261-5.701-6.621-12.032c3.669-6.331 4.786-11.345 11.493-7.964 6.708 3.38 6.564 6.532 5.876 8.938-.716 2.407-7.997 12.376-10.748 11.058z" fill="#FFB27D"/><path d="M203.133 229.789c-.458-2.807-1.892-3.094-2.895-2.893-3.783-6.274-9.974-3.81-9.974-3.81-3.297 4.154-8.083 4.87-8.083 4.87s1.204 2.206 6.105 3.581c1.49.43 3.21.172 4.844-.401-3.411 1.891-6.965 2.636-6.965 2.636 6.478.601 12.611-5.329 13.242-5.959.287.916.831 2.836.516 4.24-.43 1.89-2.121 5.357-1.089 5.787-.029 0 4.987-3.839 4.299-8.051z" fill="#2C3A64"/><path d="M216.576 297.515s-2.867 2.148-.717 3.552 6.019 1.776 6.019.859c.086-3.094-1.462-5.271-5.302-4.411z" fill="#FFB27D"/><path d="M700.06 393H31.873a.801.801 0 01-.803-.802v-.344a.8.8 0 01.803-.802h668.159a.8.8 0 01.802.802v.344c0 .458-.344.802-.774.802z" fill="#233862"/><path d="M285.166 177.85l-2.551-3.753c-2.723-4.04-7.367-6.647-11.695-6.647h-27.975l4.844 17.734 19.262 70.418c.86 3.151 3.726 5.357 6.993 5.357h100.693c4.787 0 8.283-4.555 6.994-9.167l-18.23-66.579h-65.494c-4.758-.029-9.86-2.923-12.841-7.363z" fill="#F99746"/><path d="M288.06 156.736c-.43.516-.487 1.06-.287 1.661.401 1.118 1.72 2.35 3.268 3.582.2.171.372.315.516.429.028.029.086.058.114.115l.086.086c1.433 1.318.889 1.633 3.468 4.326 2.953 3.065 4.959 3.122 5.532 2.836.488-.229-.516-1.862-1.605-3.696a38.519 38.519 0 00-.172-.258c-.143-.229-.286-.487-.43-.744-1.289-2.206-.946-3.238-.659-6.504.258-2.664 4.128-14.84 4.128-14.84l-5.647-.974s-1.691 9.712-3.583 11.202c-1.003.802-2.121.802-3.095 1.404-.058.028-.144.086-.201.114-.43.373-1.003.745-1.433 1.261z" fill="#FFB27D"/><path d="M288.06 156.736c-.43.516-.487 1.06-.287 1.662.487 1.117 1.777 2.349 3.268 3.581.2.172.372.315.516.458.028.029.086.057.114.115l.086.086c1.433 1.317.889 1.632 3.468 4.325 2.953 3.066 4.959 3.123 5.532 2.837.488-.23-.516-1.863-1.605-3.696-.573-.201-3.239-1.289-5.245-3.868-1.72-2.177-2.866-4.956-4.041-6.646-.115-.029-.201-.029-.344-.057-.459.315-1.032.687-1.462 1.203z" fill="#233862"/><path d="M333.548 153.241c.344 1.747 2.837 1.461 5.589.773 2.78-.687 2.121.115 6.048-.315 3.955-.43 5.13-1.919 5.274-2.492.114-.516-1.835-.717-3.927-.946-.258-.028-.516-.057-.803-.086-2.35-.286-4.098-1.833-6.248-3.065-2.035-1.175-5.074-6.016-5.074-6.016l-5.417.429s2.838 4.326 3.927 6.189c.659 1.088.602 2.549.545 3.695 0 .573-.029 1.203.086 1.834z" fill="#FFB27D"/><path d="M339.138 154.014c2.78-.687 2.121.115 6.048-.315 3.955-.43 5.13-1.919 5.273-2.492.115-.516-1.834-.717-3.926-.946l-.029.029s-2.379 1.69-5.647 1.747c-2.665.058-5.503-.716-7.366-.687-.029.601-.086 1.232.029 1.862.372 1.748 2.866 1.461 5.618.802z" fill="#233862"/><path d="M312.824 118.633l-5.073 13.609-6.621 17.762s-1.806.172-3.497-.316c-1.576-.458-3.382-1.661-3.382-1.661s1.834-19.08 5.274-30.024c.888-2.807 1.863-5.071 2.952-6.36 5.274-6.274 10.347 6.99 10.347 6.99z" fill="#ED7D2B"/><path d="M307.665 97.004c-2.866-.917-10.404-.03-18.545 1.46a5.53 5.53 0 01-5.704-2.578l-20.522-1.604s-6.765 15.012-3.067 24.552c.545 1.404 1.748 2.292 3.583 2.32 0 0 12.382.029 16.366.029 10.204 0 21.583-6.99 23.074-7.305 2.407-.487 3.382 4.325 5.79 9.396 2.407 5.071 22.672 22.432 22.672 22.432s3.124.029 4.385-.458c1.376-.516 1.892-1.204 1.892-1.204s-22.443-44.605-29.924-47.04z" fill="#F99746"/><path d="M281.268 35.696a7.2 7.2 0 00-3.927-1.031c-.631.028-1.261-.03-1.892-.115-7.825-1.146-12.554 10.228-12.812 13.637-.516 6.302-3.841 7.276-8.542 11.201-9.43 7.907-6.65 17.103-1.519 20.541 3.096 2.063 8.542 0 8.542 0 .086.058 14.904-8.28 22.213-12.29 10.949-1.547 2.322-29.336-2.063-31.943z" fill="#233862"/><path d="M277.197 64.23c.029.028-3.583 1.26-6.019.172-2.293-1.003-4.013-4.756-3.984-4.756 1.032-.057 2.178-.945 3.067-6.904l.43.172 7.423 2.664s-.544 2.378-.888 4.64c-.287 1.92-.43 3.754-.029 4.012z" fill="#FFB27D"/><path d="M278.114 55.578s-.287 1.29-.716 3.696c-4.271-.774-6.106-4.068-6.708-6.36l7.424 2.664z" fill="#ED975D"/><path d="M279.232 57.956s-10.175-1.375-9.2-7.678c.945-6.303.286-10.743 6.793-10.142 6.535.602 7.423 3.209 7.624 5.386.201 2.178-2.551 12.634-5.217 12.434z" fill="#FFB27D"/><path d="M284.076 42.056s-6.507 5.615-10.921 6.045c-4.414.458-6.105-.974-6.105-.974s2.608-2.178 4.185-5.644a3.074 3.074 0 012.579-1.833c3.124-.258 9.115-.401 10.262 2.406z" fill="#233862"/><path d="M280.006 41.569s2.178 2.091 2.866 3.667c.659 1.518.86 5.1.344 6.532 0 0 3.382-6.59 1.462-9.798-2.035-3.41-4.672-.401-4.672-.401z" fill="#233862"/><path d="M285.738 79.213c-.315 20.57-.086 16.272-2.35 18.22-.544.459-2.064.745-4.07.888-6.306.43-17.398-.63-17.828-1.804-1.462-4.04-.43-5.272-1.634-11.46-.115-.659-.287-1.375-.459-2.148-1.003-4.24-2.006-5.673 1.606-12.491 3.267-6.16 6.649-11.173 6.936-11.001 8.599 5.1 9.287.802 9.287.802s8.684 8.967 8.512 18.994z" fill="#2F539B"/><path d="M307.751 132.241l-6.621 17.763s-1.806.171-3.497-.316c-1.576-.458-3.382-1.661-3.382-1.661s1.834-19.08 5.274-30.024l8.226 14.238z" fill="#F99746"/><path d="M277.255 60.248s8.828 1.49 9.889 5.3c1.031 3.81 4.442 26.9 4.442 26.9s-2.493 2.436-4.557.344c-2.064-2.062-6.535-21.6-6.535-21.6l-3.239-10.944z" fill="#2F539B"/><path d="M279.347 98.293c-6.306.43-17.399-.63-17.828-1.805-1.462-4.04-.43-5.271-1.634-11.46l3.038-8.565s-.516 9.54 2.293 12.032c2.809 2.521 11.522 4.842 12.898 6.933.66 1.06 1.089 2.063 1.233 2.865z" fill="#233862"/><path d="M272.095 94.282s6.22-1.375 7.223-.83c1.003.544 3.468 2.549 3.755 3.265.315.688-2.236-.544-3.067-.745-.545-.143-1.949.344-2.637.573-2.924.974-4.73.487-4.73.487l-.544-2.75z" fill="#FFB27D"/><path d="M267.939 59.417s-8.37.516-11.265 4.555c-4.07 5.672-12.153 29.88-7.538 33.09 5.217 3.637 23.733.945 23.733.945s.63-2.865-.229-4.27c-.86-1.403-14.79-3.637-15.421-4.296-.631-.63 8.054-12.52 8.054-14.468 0-1.89 2.666-15.556 2.666-15.556z" fill="#2F539B"/><path d="M279.633 95.199s1.29 1.69 1.72 1.89c.43.201.716.144.716.144l-.888-1.576-1.548-.458zm-.286-1.748l3.783 1.834s-.172.258-.63.23c-.459-.03-1.634-.46-1.634-.46l-1.519-1.604z" fill="#FFB27D"/><path d="M311.707 97.806l-39.612-.029v.888h39.268l.344-.86z" fill="#233862"/><path d="M281.353 98.665h30.01l9.028-22.432h-29.952l-9.086 22.432z" fill="#233862"/><path d="M303.796 87.464c.23-.802-.229-1.433-1.031-1.433-.803 0-1.606.63-1.835 1.433-.229.802.229 1.432 1.032 1.432.774-.028 1.605-.659 1.834-1.432z" fill="#fff"/><path opacity=".5" d="M451.726 172.808l-8.284-10.6-.401-.516-.459-.086-38.293-7.019-12.87 69.988 49.615 9.139 11.036-59.904.086-.487-.43-.515z" fill="#8C9DF4"/><path d="M426.818 151.092l.028.487 2.351 60.821-50.418 1.977-2.752-71.135 38.896-1.489.458-.029.516.401 10.405 8.509.516.458z" fill="#8C9DF4"/><path d="M393.655 168.511l-84.155 4.698c-.171 0-.286.143-.286.315l6.134 110.154c0 .171.143.286.315.286l84.039-4.67c.172 0 .287-.143.287-.315l-6.163-110.268c.029-.143-.057-.229-.171-.2z" fill="#233862"/><path d="M393.511 275.799l-71.285 4.469c-2.149.144-3.984-1.489-4.127-3.638l-6.077-96.832c-.143-2.149 1.491-3.982 3.641-4.125l71.284-4.469c2.15-.144 3.984 1.489 4.127 3.638l6.077 96.832a3.922 3.922 0 01-3.64 4.125z" fill="#EBF3FA"/><path d="M365.364 187.218l-44.857 2.808c-.028 0-.028-.029-.057-.029l-.057-1.117c0-.029.028-.029.028-.058l44.858-2.807c.028 0 .028.029.057.029l.057 1.117c0 .028 0 .057-.029.057zm.602 9.626l-44.857 2.808c-.029 0-.029-.029-.058-.029l-.057-1.117c0-.029.029-.029.029-.058l44.857-2.807c.029 0 .029.029.057.029l.058 1.117c.028.028 0 .057-.029.057zm16.826-5.902l-61.969 3.897c-.029 0-.029-.029-.058-.029l-.057-1.117c0-.029.029-.029.029-.058l61.969-3.896c.028 0 .028.029.057.029l.057 1.117c.029.029 0 .057-.028.057zm-27.661 36.499l-30.525 1.919c-.029 0-.029 0-.029-.028l-.057-1.146c0-.029 0-.029.028-.029l30.497-1.919c.029 0 .029 0 .029.028l.057 1.146c.029 0 .029 0 0 .029zm11.351-5.558l-42.163 2.635c-.028 0-.028 0-.028-.028l-.058-1.146c0-.029 0-.029.029-.029l42.163-2.636c.029 0 .029 0 .029.029l.057 1.146c.029 0 0 .029-.029.029zm3.125 10.027l-44.858 2.807c-.028 0-.028-.028-.057-.028l-.057-1.118c0-.028.028-.028.028-.057l44.858-2.807c.028 0 .028.028.057.028l.057 1.117c0 .029 0 .029-.028.058zm5.302 4.498l-49.873 3.122c-.028 0-.028 0-.028-.028l-.058-1.118c0-.028.029-.028.029-.028l49.873-3.123c.029 0 .029.029.029.029l.057 1.117c.029 0 0 0-.029.029zm-16.969 9.54l-32.102 2.005c-.029 0-.029 0-.029-.029l-.057-1.146c0-.028 0-.028.029-.028l32.102-2.006c.029 0 .029 0 .029.029l.057 1.146c.029 0 0 .029-.029.029zm.603 9.625l-32.103 2.006c-.028 0-.028 0-.028-.029l-.058-1.146c0-.029 0-.029.029-.029l32.102-2.005c.029 0 .029 0 .029.029l.057 1.146c.029 0 0 .028-.028.028zm11.981-5.586l-44.37 2.779c-.028 0-.028 0-.028-.029l-.058-1.146c0-.028 0-.028.029-.028l44.37-2.779c.029 0 .029 0 .029.028l.057 1.146-.029.029z" fill="#BDD1F9"/><path d="M370.724 163.698l-39.239 2.177c-2.58.143-4.586 2.206-4.443 4.612l.344 5.931c.029.544.545.974 1.147.945l46.462-2.578c.602-.029 1.061-.516 1.032-1.06l-.344-5.931c-.172-2.406-2.379-4.24-4.959-4.096z" fill="#FF8C64"/><path d="M441.636 211.311s-.802-1.833-1.347-2.693c-.516-.859-2.78-3.409-3.182-2.836-.372.573-1.92 4.44-1.118 5.529.803 1.089-.057 2.98 4.013 4.125l1.634-4.125z" fill="#FFB27D"/><path d="M486.751 199.737s-20.781 17.332-28.892 15.728c-6.335-1.26-16.367-4.44-16.367-4.44s-2.637 2.521-1.892 5.529c0 0 12.755 12.003 21.87 12.089 14.217.115 20.924-7.047 20.924-7.047l4.357-21.859z" fill="#ED7D2B"/><path d="M523.21 382.658s-.601 9.74-2.493 9.855c-.258.029-9.545.029-9.545.029l-11.866-.058s.086-2.865 3.554-3.466c3.468-.602 9.287-3.037 11.379-7.621 2.207-4.841 8.971 1.261 8.971 1.261z" fill="#113C68"/><path d="M523.898 383.317s-3.611 1.203-6.42 1.203c-3.153 0-5.991-.86-5.991-.86s-.688-6.56-4.414-21.028c-1.949-7.591-4.758-17.332-8.742-29.45-11.007-33.49-14.36-53.086-14.675-54.948-.029-.086-.029-.143-.029-.143l.029-.029 33.85-14.868s-4.184 46.152 1.147 63.886c.745 2.463 1.376 5.357 1.949 8.48 3.382 19.28 3.296 47.757 3.296 47.757z" fill="#2A4E96"/><path d="M507.045 362.633c-1.95-7.592-4.759-17.333-8.743-29.451-11.006-33.49-14.36-53.086-14.675-54.948v-.172l33.851-14.868s-4.185 46.152 1.146 63.886c.774 2.492-11.579 35.553-11.579 35.553z" fill="#233862"/><path d="M496.755 382.658s-.602 9.74-2.494 9.855c-.258.029-9.545.029-9.545.029l-11.866-.058s.086-2.865 3.554-3.466c3.468-.602 9.287-3.037 11.379-7.621 2.207-4.841 8.972 1.261 8.972 1.261z" fill="#15447C"/><path d="M477.579 264.311s-.43 29.909 4.729 66.636c5.188 36.728 3.411 52.313 3.411 52.313s3.555 1.145 4.988 1.26c3.669.287 7.395-.859 7.395-.859s7.423-36.728 5.274-55.12c-2.121-18.392 10.146-63.084 10.146-63.084l-35.943-1.146z" fill="#2A4E96"/><path d="M501.569 194.294l-6.621 4.326-6.019-1.691c-1.089-1.575-1.404-4.583-1.404-7.219a42.358 42.358 0 01.229-4.813l8.914-3.925 3.325-1.461c0 .058-.258 2.722-.287 3.123-.602 6.961 1.863 11.66 1.863 11.66z" fill="#FFB27D"/><path d="M477.407 272.619c8.226 7.935 39.354 6.589 41.275-2.149 1.92-8.738-2.093-74.457-16.138-78.583-2.923-.859-18.516 4.183-18.516 4.183s-2.436 6.389-4.041 14.525c-.315 1.576-1.233 18.364-1.892 34.092-.315 7.334-.573 14.467-.716 19.652-.144 4.899-.144 8.108.028 8.28z" fill="#F99746"/><path d="M499.047 182.777c-1.806 3.066-8.169 5.73-11.522 6.962a42.358 42.358 0 01.229-4.813l8.914-3.925c2.007-.029 3.21.401 2.379 1.776z" fill="#FCA56B"/><path d="M484.4 184.382s14.36 4.469 17.026-4.498c2.666-8.996 6.306-14.468-2.78-17.705-9.058-3.237-11.867-.344-13.472 2.435-1.605 2.779-4.443 18.364-.774 19.768z" fill="#FFB27D"/><path d="M485.747 163.755s.917 10.456 3.067 9.998c2.15-.458 4.557-1.432 4.242 1.719-.315 3.151 2.093 8.566 5.217 8.537 6.678-.028 13.959-17.189 12.124-20.455-5.274-9.368-32.274-11.259-24.65.201z" fill="#163560"/><path d="M487.868 192.117c.172-.086 10.691-4.785 11.924-4.383 1.232.401 2.752 4.154 2.752 4.154l-18.517 4.182c.029 0 1.462-2.951 3.841-3.953z" fill="#ED7D2B"/><path d="M422.432 242.997l58.902 55.434c1.146 1.089 2.608 1.433 3.239.774l1.977-2.12c.631-.659.201-2.091-.974-3.18l-58.902-55.435c-1.147-1.089-2.608-1.432-3.239-.773l-1.978 2.12c-.602.687-.172 2.12.975 3.18z" fill="#1F4D84"/><path d="M455.509 274.109l25.854 24.322c1.146 1.089 2.608 1.433 3.239.774l1.977-2.12c.631-.659.201-2.092-.974-3.18l-25.854-24.323-4.242 4.527z" fill="#739AF0"/><path d="M425.441 176.99c-17.484-18.564-46.691-19.452-65.265-1.977-.258.23-.487.459-.717.688-17.885 17.533-18.516 46.21-1.261 64.545 17.485 18.564 46.692 19.452 65.266 1.977 6.076-5.73 10.261-12.691 12.525-20.14 4.644-15.298 1.204-32.602-10.548-45.093zm-4.5 62.568c-10.806 10.171-25.538 13.58-38.981 10.4-7.825-1.862-15.22-5.93-21.153-12.233-16.109-17.103-15.278-44.004 1.834-60.076a42.354 42.354 0 0121.841-10.915c13.615-2.349 28.09 1.948 38.265 12.749 16.137 17.103 15.306 44.004-1.806 60.075z" fill="#1F4D84"/><path opacity=".5" d="M360.836 237.725a42.43 42.43 0 0021.153 12.233c13.443 3.18 28.175-.229 38.981-10.4 17.112-16.1 17.914-43.001 1.835-60.076-10.176-10.8-24.65-15.097-38.265-12.748a42.35 42.35 0 00-21.841 10.915c-17.141 16.1-17.972 43.001-1.863 60.076z" fill="#B3CFF9"/><path d="M477.378 264.368c32.475-23.119 29.752-53.973 29.752-53.973-11.866 6.675-23.647 21.486-29.036 34.292-.315 7.362-.573 14.467-.716 19.681z" fill="#ED7D2B"/><path d="M445.333 253.825c-2.293-.515-3.812-2.263-4.156-2.549 0 0-.974.057.172 2.148.086.172.315.631.459.946.057.143-.029.286-.172.286-1.319.115-2.637-.43-5.188.115-.344.086-.459.917-.43 1.26.029.602-.029 1.289.688 2.206.401.545 1.548 1.118 4.099 2.149.974.401 3.754.086 6.334-.802l2.092-.974-.63-3.868-.516.115c-.86.2-1.892-.802-2.752-1.032z" fill="#FFB27D"/><path d="M497.07 196.07s29.179 5.558-8.57 47.757c-6.048 6.761-38.666 15.556-38.666 15.556s-3.297-2.807-1.634-5.099c0 0 22.472-16.301 27.402-18.88 2.235-1.174 8.627-26.012 12.239-32 3.611-5.987 9.229-7.334 9.229-7.334z" fill="#F99746"/><path d="M440.833 211.827s-.945-1.834-1.146-2.779c-.201-.974-1.376-3.753-1.892-4.269-.2-.2-.86.058-.917.917-.029.372.143 1.031.459 1.833.516 1.318.43 3.066.63 3.667.459 1.462 2.866.631 2.866.631z" fill="#FFB27D"/></g><defs><clipPath id="clip0"><path fill="#fff" d="M0 0h708v393H0z"/></clipPath></defs></svg>