<svg width="702" height="417" fill="none" xmlns="http://www.w3.org/2000/svg"><g clip-path="url(#clip0)"><path opacity=".42" d="M41.306 323.428c-7.212 1.686-14.799 3.653-19.67 8.898-2.903 3.185-4.214 7.4-3.277 11.428 1.31 5.526 5.807 7.024 10.115 7.961 17.89 4.028 39.057 2.904 51.233 16.017.469.468.843 1.03 1.124 1.686 1.967 4.402-2.716 7.306-6.743 8.992-15.455 6.65-30.909 13.394-46.363 20.044 1.967 6.37 10.49 8.149 17.515 8.899 86.45 8.804 174.024 7.68 260.194-3.091 8.804-1.124 17.796-2.342 26.132-4.965 5.432-1.686 7.305-7.961 3.559-11.895-5.058-5.339-1.78-13.769 5.713-14.893 33.157-5.058 67.999-5.058 96.192 11.146 13.768 7.868 25.101 19.295 39.806 25.477 13.207 5.62 28.099 6.651 42.616 7.213 45.989 1.873 92.164.187 137.872-4.871 8.055-.937 17.796-3.091 20.043-10.397 2.623-8.055-6.181-15.268-14.424-18.639-8.242-3.372-18.17-6.276-21.636-14.05 5.526-5.339 13.488-7.775 20.793-10.585 7.4-2.81 14.986-6.744 18.265-13.487 3.278-6.744-2.155-22.574-10.022-23.23l-629.037 2.342z" fill="#CCE1FF"/><path opacity=".42" d="M22.573 360.145c0 1.499-2.154 2.623-4.777 2.623-2.622 0-4.776-1.218-4.776-2.623 0-1.499 2.154-2.623 4.776-2.623 2.623 0 4.777 1.124 4.777 2.623zm21.168 5.62c0 1.499-2.154 2.623-4.777 2.623-2.622 0-4.776-1.218-4.776-2.623 0-1.498 2.154-2.622 4.776-2.622 2.623 0 4.777 1.124 4.777 2.622zm619.764 1.686c0 1.499-2.155 2.623-4.777 2.623-2.623 0-4.777-1.218-4.777-2.623 0-1.498 2.154-2.622 4.777-2.622 2.622 0 4.777 1.217 4.777 2.622zm-8.523 4.777c0 1.498-2.154 2.622-4.776 2.622-2.623 0-4.777-1.217-4.777-2.622 0-1.499 2.154-2.623 4.777-2.623 2.622-.094 4.776 1.124 4.776 2.623zM35.218 371.01c0 1.499-2.155 2.623-4.777 2.623-2.623 0-4.777-1.218-4.777-2.623 0-1.498 2.154-2.622 4.777-2.622 2.622 0 4.777 1.217 4.777 2.622zm348.611 7.4c0 1.499-2.154 2.623-4.777 2.623-2.622 0-4.777-1.218-4.777-2.623 0-1.499 2.155-2.623 4.777-2.623 2.623-.093 4.777 1.124 4.777 2.623zm23.322 2.904c0 1.498-2.154 2.622-4.777 2.622-2.622 0-4.776-1.217-4.776-2.622 0-1.499 2.154-2.623 4.776-2.623 2.623 0 4.777 1.124 4.777 2.623zm-11.989 8.804c1.501 0 2.717-.671 2.717-1.499 0-.827-1.216-1.498-2.717-1.498-1.5 0-2.716.671-2.716 1.498 0 .828 1.216 1.499 2.716 1.499z" fill="#CCE1FF"/><path d="M189.948 0h-6.744v185.646h6.744V0zm179.457 0H192.57v185.646h176.835V0zm-213.27 0h-6.182v185.646h6.182V0zm-8.804 0H0v185.646h147.331V0zm464.378 0h-6.743v185.646h6.743V0zm90.385 0h-87.762v185.646h87.762V0zm-124.29 0h-6.182v185.646h6.182V0zM569 0H390.947v185.646H569V0z" fill="#F2F8FF"/><path d="M114.83 325.957H36.716V183.585c0-.937.75-1.78 1.78-1.78h74.648c.937 0 1.78.749 1.78 1.78v142.372h-.094z" fill="#D6E8FF"/><path d="M42.898 188.924v36.155h22.197c.656 0 1.312-.375 1.593-.937.843-1.686 2.529-2.903 4.59-2.903h8.803c1.967 0 3.747 1.217 4.59 2.903.28.562.936.937 1.592.937H107.9v-36.155H42.898zm0 45.241v36.155h22.197c.656 0 1.312-.375 1.593-.937.843-1.686 2.529-2.904 4.59-2.904h8.803c1.967 0 3.747 1.218 4.59 2.904.28.562.936.937 1.592.937H107.9v-36.155H42.898zm0 45.24v36.155h22.197c.656 0 1.312-.375 1.593-.937.843-1.686 2.529-2.904 4.59-2.904h8.803c1.967 0 3.747 1.218 4.59 2.904.28.562.936.937 1.592.937H107.9v-36.155H42.898z" stroke="#fff" stroke-width=".838" stroke-miterlimit="10"/><path d="M487.794 325.957H409.68V183.585c0-.937.749-1.78 1.779-1.78h74.649c.937 0 1.78.749 1.78 1.78v142.372h-.094z" fill="#D6E8FF"/><path d="M415.861 188.924v36.155h22.198c.656 0 1.312-.375 1.593-.937.843-1.686 2.528-2.903 4.589-2.903h8.804c1.967 0 3.747 1.217 4.59 2.903.281.562.936.937 1.592.937h21.636v-36.155h-65.002zm0 45.241v36.155h22.198c.656 0 1.312-.375 1.593-.937.843-1.686 2.528-2.904 4.589-2.904h8.804c1.967 0 3.747 1.218 4.59 2.904.281.562.936.937 1.592.937h21.636v-36.155h-65.002zm0 45.24v36.155h22.198c.656 0 1.312-.375 1.593-.937.843-1.686 2.528-2.904 4.589-2.904h8.804c1.967 0 3.747 1.218 4.59 2.904.281.562.936.937 1.592.937h21.636v-36.155h-65.002z" stroke="#fff" stroke-width=".838" stroke-miterlimit="10"/><path d="M377.178 324.552h-24.539c-7.399 0-13.394-5.995-13.394-13.394v-36.062h51.421v36.062c0 7.305-5.995 13.394-13.488 13.394z" fill="#B0D5FF"/><path d="M377.178 324.552h-24.539c-7.399 0-13.394-5.995-13.394-13.394v-36.062" fill="#B0D5FF"/><path d="M353.294 235.194c-2.06-2.341-4.214-4.589-6.275-6.743-2.904-2.998-5.994-5.995-9.554-8.243-1.124 2.061-3.09 3.934-5.338 3.653-2.436-.281-4.122-2.997-4.777-5.339-.094.094-.188.094-.188.187-.561.656-.936 1.499-1.123 2.342a16.462 16.462 0 00-.562 4.309c7.68 6.088 17.702 13.113 27.817 9.834z" fill="#3191FF"/><path d="M353.575 235.569c-10.209 3.372-20.324-3.559-28.192-9.648.094 3.372 1.03 6.744 2.435 9.835 2.061 4.59 5.058 8.618 7.587 12.926.468.75.843 1.592.656 2.342 2.903 4.308 4.776 9.085 5.619 14.237 0 .281-.374.375-.374.094-.843-5.058-2.623-9.742-5.433-13.863-.749 1.311-2.81.843-4.215.094-.187-.094-.281-.188-.468-.281 1.78 3.372 3.466 6.744 5.245 10.022.094.094 0 .187-.093.281 4.776 3.84 9.085 8.336 13.3 12.832.187.188-.094.469-.281.281-8.055-8.617-16.766-17.328-27.912-21.637v.188c1.78 11.146 11.521 20.606 22.76 22.011l37.933-.281c-7.586-13.581-17.795-27.444-28.567-39.433zm-22.291-12.364c2.435 1.124 4.683-.936 5.9-3.184a23.589 23.589 0 00-3.465-1.686c-1.967-.75-4.402-1.218-6.088 0 .468 1.967 1.686 4.027 3.653 4.87z" fill="#3191FF"/><path d="M336.061 261.327a552.815 552.815 0 00-5.432-10.303c-1.405-.749-2.904-1.498-4.309-2.248-.749-.374-1.499-.749-2.341-.749-1.967.187-2.623 2.623-2.436 4.683 5.245 1.967 10.116 5.058 14.518 8.617z" fill="#3191FF"/><path d="M377.179 248.121c1.405-1.593 2.81-3.091 4.215-4.59 1.966-2.061 4.027-4.121 6.462-5.526.75 1.405 2.061 2.716 3.653 2.435 1.686-.187 2.81-2.061 3.278-3.653.094 0 .094.094.188.187.374.469.655 1.031.749 1.593.281.936.374 1.967.374 2.903-5.245 4.122-12.082 8.805-18.919 6.651z" fill="#C5A4FC"/><path d="M376.991 248.308c6.931 2.342 13.769-2.342 19.108-6.557 0 2.248-.656 4.59-1.686 6.651-1.405 3.091-3.372 5.901-5.152 8.804-.281.469-.562 1.031-.468 1.593a24.032 24.032 0 00-3.84 9.647c0 .188.187.188.281.094.562-3.466 1.779-6.557 3.653-9.46.468.936 1.873.562 2.809.093.094-.093.188-.093.281-.187-1.217 2.248-2.341 4.59-3.559 6.838 0 .093 0 .187.094.187-3.278 2.623-6.182 5.62-8.992 8.711-.093.093.094.281.188.187 5.432-5.901 11.333-11.708 18.92-14.612v.188c-1.218 7.587-7.868 13.956-15.455 14.892l-25.757-.187c5.339-9.366 12.27-18.733 19.575-26.882zm15.174-8.336c-1.686.749-3.184-.656-4.027-2.155a18.327 18.327 0 012.341-1.217c1.312-.562 2.997-.75 4.121 0-.374 1.405-1.217 2.81-2.435 3.372z" fill="#C5A4FC"/><path d="M388.887 265.823l3.653-7.025c1.03-.562 1.966-1.03 2.997-1.592.468-.281 1.03-.562 1.592-.468 1.311.093 1.78 1.779 1.686 3.184-3.653 1.405-6.931 3.466-9.928 5.901zm-17.89-20.699a3.279 3.279 0 10-.001-6.557 3.279 3.279 0 00.001 6.557z" fill="#C5A4FC"/><path d="M391.51 223.018c0 2.81-2.342 5.152-5.152 5.152-2.809 0-5.151-2.342-5.151-5.152s2.342-5.151 5.151-5.151c2.81 0 5.152 2.341 5.152 5.151z" stroke="#3191FF" stroke-miterlimit="10"/><path d="M175.804 112.586c0 1.78-1.498 3.279-3.278 3.279-1.779 0-3.278-1.499-3.278-3.279 0-1.779 1.499-3.278 3.278-3.278a3.258 3.258 0 013.278 3.278z" stroke="#87BEFF" stroke-miterlimit="10"/><path d="M385.14 59.197c0 1.78-1.498 3.278-3.278 3.278-1.779 0-3.278-1.499-3.278-3.278 0-1.78 1.499-3.279 3.278-3.279 1.78 0 3.278 1.5 3.278 3.279z" fill="#87BEFF"/><path d="M173.651 151.458c0 1.686-1.312 2.997-2.998 2.997a2.959 2.959 0 01-2.997-2.997 2.96 2.96 0 012.997-2.998c1.686 0 2.998 1.405 2.998 2.998zm419.233-6.838a2.958 2.958 0 01-2.997 2.997 2.958 2.958 0 01-2.997-2.997 2.958 2.958 0 012.997-2.997c1.686 0 2.997 1.405 2.997 2.997z" fill="#FFE06E"/><path opacity=".24" d="M448.644 202.037v36.155h22.198c.655 0 1.311-.375 1.592-.937.843-1.686 2.529-2.903 4.589-2.903h8.805c1.966 0 3.746 1.217 4.589 2.903.281.562.937.937 1.592.937h21.636v-36.155h-65.001zm0 45.241v36.155h22.198c.655 0 1.311-.375 1.592-.937.843-1.686 2.529-2.903 4.589-2.903h8.805c1.966 0 3.746 1.217 4.589 2.903.281.562.937.937 1.592.937h21.636v-36.155h-65.001zm0 45.147v36.155h22.198c.655 0 1.311-.375 1.592-.937.843-1.686 2.529-2.904 4.589-2.904h8.805c1.966 0 3.746 1.218 4.589 2.904.281.562.937.937 1.592.937h21.636v-36.155h-65.001z" stroke="#fff" stroke-width=".838" stroke-miterlimit="10"/><path d="M615.924 200.351l-20.793-30.816c-1.031-1.499-.375-7.119.468-8.805 2.435-4.496 6.65-8.055 11.333-9.272 20.793-5.246 23.509 16.016 27.912 23.041 0 0 4.402 11.521 11.707 12.926 11.615 2.248 19.951 12.27 15.455 22.386 0 0-6.744 24.634-32.033 19.951" fill="#000E2B"/><path d="M615.924 200.351l-20.793-30.816c-1.031-1.499-.375-7.119.468-8.805 2.435-4.496 6.65-8.055 11.333-9.272 20.793-5.246 23.509 16.016 27.912 23.041 0 0 4.402 11.521 11.707 12.926 11.615 2.248 19.951 12.27 15.455 22.386 0 0-6.744 24.634-32.033 19.951" stroke="#000E2B" stroke-width=".566" stroke-miterlimit="10"/><path d="M598.409 170.191s-2.435 6.65-1.78 13.488c.656 6.837-4.964 6.275-6.837 14.705-1.967 8.43 6.744 26.227 6.744 26.227l17.515-27.163-15.642-27.257z" fill="#000E2B" stroke="#000E2B" stroke-width=".566" stroke-miterlimit="10"/><path d="M596.629 180.868c2.155 7.962-6.369 11.709-8.991 18.172-1.592 4.027-.937 8.055 1.967 11.239.655.75 1.779-.374 1.124-1.124-6.088-6.65.655-12.457 4.589-17.609 2.435-3.278 3.934-7.025 2.81-11.052-.281-1.031-1.779-.656-1.499.374zm11.709-27.912c7.867-1.873 16.109.375 21.355 6.744 5.245 6.276 4.214 13.956 6.931 21.169 1.405 3.934 4.121 7.493 8.335 8.523 3.091.75 6.37 0 9.554.656 4.59 1.03 7.961 4.589 9.366 8.992.281.936 1.874.562 1.499-.469-1.686-5.432-5.994-9.553-11.708-10.396-4.683-.656-9.085.655-12.738-3.185-3.372-3.559-3.84-9.086-4.589-13.675-2.342-13.956-13.956-23.417-28.38-20.045-1.03.469-.562 1.967.375 1.686z" fill="#000E2B"/><path d="M614.426 167.568c.093.188.374.281.562.188.843-.562 2.997-1.499 4.495.655 1.593 2.248-1.311 4.59-2.528 5.526-.375.281-.562.656-.656 1.124-.281 1.405-.843 6.557-1.124 11.053-.187 3.934 2.81 12.551 2.81 12.551s-10.209 1.218-15.735.75c0 0 3.371-13.02 2.247-16.205 0-.093-6.088 1.405-9.085-8.992-2.903-9.834 4.028-13.206 5.714-13.862 1.311-.562 7.774-3.747 13.3 7.212z" fill="#F0A4A3"/><path d="M604.217 183.21s.936 0 2.997-.468c.468-.094 1.405-.468 2.248-.843.468-.281.937.281.656.749 0 0-4.777 7.494-5.62 5.901-.656-1.311.655-4.308-.281-5.339z" fill="#000E2B"/><path d="M551.109 280.154l-6.275 69.313m96.379-62.85l18.545 68.376m-45.146-79.428l9.929 70.062" stroke="#B0D5FF" stroke-width="2.587" stroke-miterlimit="10" stroke-linecap="round" stroke-linejoin="round"/><path d="M647.956 280.248l-28.286-3.091-31.19 3.091h59.476z" fill="#87BEFF"/><path d="M653.296 222.269l-12.832 60.133" stroke="#87BEFF" stroke-width="2.587" stroke-miterlimit="10" stroke-linecap="round" stroke-linejoin="round"/><path d="M651.141 260.391h-74.649l11.052-48.613c.75-3.278 3.653-5.62 7.119-5.62h59.756a7.28 7.28 0 017.119 8.898l-10.397 45.335z" fill="#B0D5FF"/><path d="M539.402 356.773c11.846 0 21.449-1.384 21.449-3.091 0-1.707-9.603-3.091-21.449-3.091-11.846 0-21.449 1.384-21.449 3.091 0 1.707 9.603 3.091 21.449 3.091z" fill="#87BEFF"/><path d="M583.61 355.555c0 1.686-9.647 3.091-21.448 3.091-11.896 0-21.449-1.405-21.449-3.091 0-1.686 9.647-3.091 21.449-3.091 11.801 0 21.448 1.405 21.448 3.091z" fill="#87BEFF"/><path d="M565.44 324.646c.187 13.019 1.967 20.793.843 24.072-1.218 3.184-22.292 6.182-23.322 4.964-1.03-1.218 9.741-12.27 9.741-12.27s-2.154-5.808-3.372-14.05l16.11-2.716z" fill="#F0A4A3"/><path d="M552.14 341.974l-12.176 10.21c-.656.562-1.03 2.435-.094 2.435h19.482c.469 0 .843-.187 1.03-.562l1.405-3.185c.375-.936 1.218-1.03 1.218 0l.749 2.998c0 .468 4.59.281 4.683-.094.188-2.716-.374-11.521-.843-13.956-.093-.375-.374-.656-.843-.656-.374-.094-.842.094-1.123.281-1.312 1.311-5.433 5.339-7.681 4.59-1.498-.562-3.465-1.499-4.027-2.061-.656-.375-1.405-.375-1.78 0z" fill="#FFE06E" stroke="#FFE06E" stroke-width=".739" stroke-miterlimit="10"/><path d="M548.581 334.2l16.672-1.312 2.81-47.301s45.052-4.402 47.299-15.361c2.342-11.053-11.239-27.351-11.239-27.351l-10.959 1.405.469 3.653s-43.553 6.744-46.363 13.957c-2.81 7.025-6.369 16.578 1.311 72.31z" fill="#BC9AF7"/><path d="M616.017 246.154s-35.217 5.901-48.61 13.207c-13.394 7.306 2.341 80.271 2.341 80.271s-14.892 12.551-13.862 13.769c1.03 1.218 26.881-1.218 28.005-4.402 1.218-3.185-.562-11.053-.843-24.072-.187-13.02 2.997-37.654 2.623-39.059-.375-1.405 40.087-2.061 40.837-14.424.936-12.458-10.491-25.29-10.491-25.29z" fill="#F0A4A3"/><path d="M567.688 340.756L553.92 354.15c-.75.656-.094 1.593.936 1.593l21.355-.937c.468 0 .937-.281 1.124-.656l1.405-3.653c.375-1.03 1.311-1.217 1.311-.093l.937 3.372c0 .562 5.058.093 5.058-.375.093-3.091-.937-13.113-1.593-15.829-.093-.375-.468-.656-1.03-.75a1.386 1.386 0 00-1.217.375c-1.405 1.592-5.714 6.369-8.243 5.526-1.686-.562-3.84-1.498-4.589-2.154-.375-.187-1.218-.188-1.686.187z" fill="#FFE06E" stroke="#FFE06E" stroke-width=".739" stroke-miterlimit="10"/><path d="M628.287 244.374s4.683 19.577 2.717 28.662c-2.436 10.959-45.239 12.832-45.239 12.832l-1.499 48.707-17.421 2.06s-15.361-66.222-.656-78.492c8.055-5.339 32.407-8.617 33.438-8.617 1.03 0-.281-5.807-.281-5.807l28.941.655z" fill="#C5A4FC"/><path d="M566.283 187.893s-2.341-10.677-3.184-11.427c-.843-.749-.094 6.463-1.031 6.089-.093 0 3.185 4.589 4.215 5.338z" fill="#F0A4A3"/><path d="M601.968 220.957a213.03 213.03 0 005.526-5.058l-6.088-11.427c1.124-2.248 2.061-4.215 2.529-5.526.281-.843.094-1.78 0-1.78-2.529.281-17.796 18.172-20.325 20.7-.843.75-2.154.094-2.622-.843l-14.518-29.036c-.374-.843-4.683-5.807-7.68-14.893-3.091 2.436-2.248 10.116-1.592 13.394 0 0 10.209 42.899 20.793 48.988 0 0 13.955 1.592 22.666-13.207a57.136 57.136 0 011.405 1.124c2.529-1.499 1.78-2.155-.094-2.436z" fill="#F0A4A3"/><path d="M630.442 199.695s-4.964-2.248-8.992-3.84c-4.027-2.716-4.121-6.276-4.121-6.276-1.03-.843-13.3.843-13.3.843.281 1.312-1.311 5.808-1.311 5.808.281.655-9.46 13.019-10.771 19.669-1.218 6.276-5.807 25.758-5.807 28.194l38.589.374c0-.093 8.523-36.342 5.713-44.772z" fill="#fff"/><path d="M617.422 232.572c-5.713 2.997-23.415 4.215-31.189 4.402-7.774.094-8.898 7.868-8.898 7.868s34.374 1.967 49.266 1.78c14.893-.281 11.989-14.518 11.708-20.419-.281-6.37 1.499-21.731-4.496-25.103-.936-.562-2.81-1.311-4.308-1.873v-.094c-1.78-.655-8.523-3.372-8.523-3.372-.094 2.81 1.498 10.584 2.528 15.549.094 7.587-.374 18.265-6.088 21.262z" fill="#F0A4A3"/><path d="M587.264 286.336l-6.276 69.313" stroke="#B0D5FF" stroke-width="2.587" stroke-miterlimit="10" stroke-linecap="round" stroke-linejoin="round"/><path d="M586.233 286.711h60.038c.937 0 1.686-.749 1.686-1.686v-2.81c0-.937-.749-1.686-1.686-1.686h-53.856c-3.465-.094-6.182 2.716-6.182 6.182z" fill="#B0D5FF"/><path d="M618.547 169.91s-1.499-3.372-3.372 1.124l3.372-1.124z" fill="#CF513E"/><path d="M605.34 171.783c-1.217.75-1.685 2.342-.936 3.56.749 1.217 2.341 1.686 3.559.936 1.218-.749 1.686-2.341.937-3.559-.656-1.311-2.248-1.686-3.56-.937z" fill="#F08878"/><path d="M597.379 176.841l5.62-1.311s-.75 2.997-2.436 3.091c-1.779.093-3.184-1.78-3.184-1.78z" fill="#fff"/><path d="M598.784 172.72l.937 2.716-1.499.187c-.281 0-.468-.187-.374-.468l.936-2.435z" fill="#CD4C4C"/><path d="M602.156 167.943c.562.281-.562-1.218-1.312-1.218-.749 0-1.311.468-1.405 1.124.094-.094 1.312-.562 2.717.094zm-7.493.468c.656-.281 1.499-.093 1.78.469 0 0-.843 0-1.78.655m6.463 2.248c.094.468 0 .937-.281 1.03-.281 0-.468-.374-.562-.843-.093-.468 0-.936.281-1.03.187 0 .468.375.562.843zm-3.466.656c.094.468 0 .936-.281.936s-.468-.281-.562-.843c-.093-.468 0-.936.281-.936.188 0 .469.374.562.843z" fill="#000E2B"/><path d="M596.161 161.199s10.584 12.551 18.826 6.275c0 0-5.713-14.893-18.826-6.275z" fill="#000E2B" stroke="#000E2B" stroke-width=".566" stroke-miterlimit="10"/><path d="M597.473 162.697c3.278 3.185 8.148 8.336 12.925 9.273 4.683.843 3.934-4.028 3.278-7.025-.187-1.03-1.686-.562-1.499.469.375 1.966 1.218 4.683-1.685 5.057-1.218.094-3.466-1.779-4.403-2.435-2.622-1.873-5.057-4.027-7.399-6.275-.843-.843-1.967.281-1.217.936z" fill="#000E2B"/><path d="M595.412 175.529s1.03-2.06 2.154-2.06c1.031.093 11.427-.469 11.427-.469l2.248 5.995s-5.62 6.931-8.149 6.276c-.468 0-4.87-1.499-7.68-9.742z" fill="#fff"/><path d="M608.993 173.094s3.185-3.278 4.964-4.683c1.686-1.405 2.435-1.686 2.435-1.686m-5.151 12.364s6.65-5.995 6.931-6.182c.281-.281.094-.375.094-.375" stroke="#fff" stroke-width=".304" stroke-miterlimit="10"/><path d="M270.31 294.11l18.545 68.376m-45.145-79.428l9.835 70.062" stroke="#B0D5FF" stroke-width="2.587" stroke-miterlimit="10" stroke-linecap="round" stroke-linejoin="round"/><path d="M276.96 287.741l-28.286-2.997-31.096 2.997h59.382z" fill="#87BEFF"/><path d="M282.392 229.762l-12.925 60.134" stroke="#87BEFF" stroke-width="2.587" stroke-miterlimit="10" stroke-linecap="round" stroke-linejoin="round"/><path d="M280.238 267.884h-74.649l11.052-48.613c.749-3.278 3.653-5.62 7.118-5.62h59.757a7.28 7.28 0 017.118 8.899l-10.396 45.334z" fill="#B0D5FF"/><path d="M216.267 293.83l-6.276 69.312" stroke="#B0D5FF" stroke-width="2.587" stroke-miterlimit="10" stroke-linecap="round" stroke-linejoin="round"/><path d="M212.52 294.204h62.66c.936 0 1.779-.749 1.779-1.779v-2.904c0-.937-.749-1.78-1.779-1.78h-56.198c-3.559 0-6.462 2.904-6.462 6.463z" fill="#B0D5FF"/><path d="M152.951 363.142c11.845 0 21.448-1.384 21.448-3.091 0-1.707-9.603-3.091-21.448-3.091-11.846 0-21.449 1.384-21.449 3.091 0 1.707 9.603 3.091 21.449 3.091z" fill="#87BEFF"/><path d="M186.576 365.952c11.845 0 21.448-1.384 21.448-3.091 0-1.707-9.603-3.091-21.448-3.091-11.846 0-21.449 1.384-21.449 3.091 0 1.707 9.603 3.091 21.449 3.091z" fill="#87BEFF"/><path d="M192.195 349.467l1.967-3.466 10.958-1.499 1.218 4.965-5.62 8.617-10.022-6.838 1.499-1.779z" fill="#FF9182"/><path d="M191.446 349.373s3.465-.094 7.586 2.716c2.436 1.593 6.088-1.686 7.212-2.622.188-.188.562 0 .562.281l1.405 11.333h-35.404c-.375 0-.749-.375-.749-.843v-2.435c0-.375.187-.656.468-.843l18.92-7.587z" fill="#3191FF"/><path d="M188.636 350.216l5.713 2.903m-8.149-1.779l5.714 2.903" stroke="#fff" stroke-width=".506" stroke-miterlimit="10"/><path d="M167.936 349.467l1.967-3.466 11.895.375.281 3.091-5.62 8.617-10.021-6.838 1.498-1.779z" fill="#FF9182"/><path d="M167.187 349.373s3.465-.094 7.587 2.716c2.435 1.593 6.088-1.686 7.212-2.622.187-.188.562 0 .562.281l1.405 11.333h-35.405c-.375 0-.749-.375-.749-.843v-2.435c0-.375.187-.656.468-.843l18.92-7.587z" fill="#3191FF"/><path d="M165.22 349.935l5.713 2.997m-8.242-1.873l5.714 2.997" stroke="#fff" stroke-width=".506" stroke-miterlimit="10"/><path d="M165.221 346.376l18.545.843 7.025-58.354s50.39.937 53.013-10.303c2.622-11.24 2.809-24.915 2.809-24.915l-32.875-2.623-1.78 5.901s-41.492.375-44.677 7.774c-3.184 7.212-3.84 25.852-2.06 81.677z" fill="#2D84E8"/><path d="M187.231 345.814l21.168 1.03 5.432-54.513c.281-2.529 2.529-4.402 5.245-4.402 11.802 0 41.118-.75 44.49-9.367 4.121-10.678 4.121-23.978 4.121-23.978l-39.9-4.777-1.779 8.523s-31.939-1.311-36.154 5.62c-4.964 8.336-6.182 26.695-2.623 81.864z" fill="#3191FF"/><path d="M236.123 215.057s-3.466 27.818-6.088 29.598c-2.623 1.78-64.065.281-64.065.281h-13.488s9.086-13.488 25.851-12.083c0 0 20.7.843 24.727-4.964 4.028-5.807 7.025-29.692 7.025-29.692l26.038 16.86z" fill="#DE7E71"/><path d="M214.299 241.658h-42.335v3.653h42.335v-3.653z" fill="#fff"/><path d="M214.768 177.028s3.747-16.953 16.204-11.614c12.551 5.339 8.617 39.62 3.184 47.301l-27.162-13.394 7.774-22.293z" fill="#FFE06E"/><path d="M254.761 165.882s19.108 2.248 20.606 21.543c1.499 19.295-6.088 68.376-6.088 68.376l-59.663-1.873 3.278-61.913c.281-4.871 1.78-9.648 4.496-13.769 2.529-3.841 5.433-8.149 7.025-8.337l26.694-6.743 3.652 2.716z" fill="#FFE06E"/><path d="M228.162 233.04c-.094 1.031 0 1.874.374 1.874.375 0 .75-.75.843-1.78.094-1.03 0-1.873-.374-1.873-.375-.094-.75.749-.843 1.779zm4.59-51.797c-.094 1.03 0 1.873.374 1.873.375 0 .75-.749.843-1.779.094-1.031 0-1.874-.374-1.874-.281 0-.656.75-.843 1.78zm-.937 10.397c-.094 1.03 0 1.873.375 1.873.374 0 .749-.749.843-1.78.093-1.03 0-1.873-.375-1.873-.281-.094-.656.749-.843 1.78zm-.843 10.303c-.093 1.031 0 1.874.375 1.874s.749-.75.843-1.78c.094-1.03 0-1.873-.375-1.873-.374 0-.749.749-.843 1.779zm-.937 10.397c-.094 1.03 0 1.873.374 1.873.375 0 .75-.749.843-1.779.094-1.031 0-1.874-.374-1.874-.375-.093-.75.75-.843 1.78zm-.937 10.303c-.093 1.031 0 1.874.375 1.874s.749-.75.843-1.78c.094-1.03 0-1.873-.375-1.873-.374 0-.749.749-.843 1.779zm-1.873 20.701c-.093 1.03 0 1.873.375 1.873.374 0 .749-.749.843-1.78.093-1.03 0-1.873-.375-1.873s-.749.749-.843 1.78zm-.936 10.397c-.094 1.03 0 1.873.374 1.873.375 0 .75-.749.843-1.78.094-1.03 0-1.873-.374-1.873-.281 0-.75.749-.843 1.78zm22.76-93.198l7.4 3.372-18.358 15.267-3.279-6.369 14.237-12.27zm-15.923 3.466c-.281.093-3.559 3.653-3.559 3.653l-.093 9.647 5.338-4.402-1.686-8.898z" fill="#fff"/><path d="M250.922 182.461s.281-18.171 13.955-15.268c13.675 2.904 16.766 38.871 12.738 47.863l-30.065-8.149 3.372-24.446z" fill="#FFE06E"/><path d="M277.615 215.056s-3.465 27.819-6.088 29.599c-2.622 1.779-64.065.281-64.065.281h-13.487s9.085-13.488 25.85-12.083c0 0 25.57.281 29.691-5.62 4.122-5.901 5.901-16.766 5.901-16.766l22.198 4.589zm-30.346-66.596l1.405 13.113-13.769 11.24-2.06-5.807 1.03-10.865 11.146-9.835s1.686 1.217 1.967 1.592c.187.468.281.562.281.562z" fill="#FF9182"/><path d="M245.021 146.306l-11.146 9.835-.562 7.306s9.929-3.56 10.21-11.709" fill="#000E2B"/><path d="M249.049 142.278s-1.779.094-3.091 1.873l-4.214-13.206s-4.028-2.904-6.182-1.312c-2.154 1.593-3.934 2.623-5.339 2.061-1.405-.562-2.529-2.81-2.529-2.81s-1.873-7.681 1.03-9.367c2.904-1.686 13.862.656 18.358 3.653 4.402 2.81 6.744 5.995 2.623 19.389" fill="#00022B"/><path d="M246.051 142.653c.094.375.562.468.843.187.937-.843 2.716-2.06 3.372 1.405.843 4.684-4.121 3.934-4.589 4.496-.843 1.312-3.372 5.62-7.306 7.306-2.342 1.03-5.901 1.218-8.43-1.217-2.622-2.436-3.746-.75-2.622-26.695 0 0 1.217 2.248 2.903 2.81 1.686.562 4.402-1.686 6.369-2.248 1.593-.469 4.59-1.593 6.463 3.746.843 2.436 2.248 8.149 2.997 10.21z" fill="#FF9182"/><path d="M227.413 146.774s1.592.75 5.339.375c0 0-2.061 2.716-3.559 2.154-1.405-.468-1.78-2.529-1.78-2.529z" fill="#fff"/><path d="M249.517 143.871l-2.622 1.967s.936-4.777 2.622-1.967z" fill="#CF513E"/><path d="M231.066 142.278c.259 0 .468-.461.468-1.03s-.209-1.03-.468-1.03-.468.461-.468 1.03.209 1.03.468 1.03zm-3.84-1.498c0 .562.187 1.03.468 1.03s.468-.468.468-1.03-.187-1.03-.468-1.03-.468.468-.468 1.03zm7.586-3.934c.749.562-.468-1.78-1.499-2.061-1.03-.281-2.06.281-2.248 1.124 0 0 1.967-.281 3.747.937zm-7.774-.281c1.124-.094 1.873.093 1.873.093-.187-.843-.936-1.405-1.873-1.498" fill="#000E2B"/><path d="M228.724 140.686l-1.592 4.309c0 .093 0 .187.094.187l1.873.094c.093 0 .093-.094.093-.094l-.281-4.496c.094-.094-.093-.094-.187 0z" fill="#CF513E"/><path d="M225.727 144.807s1.592-1.779 2.622-1.405c.937.281 11.146 2.529 11.146 2.529l.656 6.37s-7.212 5.245-9.46 3.934c-.375-.281-4.309-2.717-4.964-11.428z" fill="#fff"/><path d="M239.495 145.931s3.934-2.341 5.995-3.278c2.06-.937 2.809-.937 2.809-.937m-8.149 10.585s7.962-4.028 8.243-4.215c.374-.188.187-.281.187-.281" stroke="#fff" stroke-width=".304" stroke-miterlimit="10"/><path d="M228.537 140.03c-.469 2.342-.937 4.402-2.155 4.309-1.217-.094-2.154-2.436-1.873-4.777.187-1.405 1.124-1.874 1.967-1.78 1.499.094 2.435.375 2.061 2.248zm-.281 1.031s.468-2.155 1.405.093m8.429.094l9.741.281s2.341-.187 2.903 1.78" stroke="#19234A" stroke-width=".359" stroke-miterlimit="10"/><path d="M237.903 141.154c-.187 2.623-3.278 4.59-5.433 4.309-2.154-.281-3.184-2.904-2.903-5.527.187-1.967 1.779-2.341 3.934-2.154 2.248.375 4.683.656 4.402 3.372z" stroke="#19234A" stroke-width=".359" stroke-miterlimit="10"/><path d="M238.184 141.716h-.281l.188-1.124h.281c.281 0 .468.188.468.469l-.094.374c0 .188-.281.375-.562.281z" fill="#19234A"/><path d="M312.364 244.936H69.872v17.328h242.492v-17.328z" fill="#B0D5FF"/><path d="M76.242 261.608H70.34v101.628h5.9V261.608zm235.56 0h-5.901v101.628h5.901V261.608z" fill="#B0D5FF"/><path d="M68.842 247.09c6.743-3.84 14.049 6.463 17.796 10.866 2.81 3.278 5.807 6.837 10.583 6.556 4.683-.374 8.149-3.84 11.053-7.212 4.495-5.152 9.272-9.835 14.892-13.956.562-.375 0-1.312-.562-.937-4.964 3.653-9.46 7.774-13.581 12.364-4.683 5.245-11.146 12.458-18.264 6.088-5.34-4.777-13.394-19.951-22.48-14.705-.561.281 0 1.217.563.936z" fill="#fff"/><path d="M82.891 241.845c1.592 3.279 3.56 6.182 6.088 8.805 1.686 1.78 4.121 4.496 6.744 4.964 2.529.468 4.308-1.405 5.901-2.997 2.528-2.623 4.776-5.526 6.837-8.524.375-.562-.562-1.124-.937-.562-2.81 4.215-8.336 13.301-14.424 9.554-4.12-2.622-7.212-7.493-9.366-11.708-.187-.749-1.124-.187-.843.468zm-14.798 12.739c3.652 2.622 7.305 5.432 8.991 9.741.281.655 1.311.374 1.03-.281-1.78-4.59-5.62-7.587-9.46-10.397-.655-.375-1.123.562-.561.937zm48.704 7.774c4.87-6.557 10.958-14.237 19.95-13.676 9.273.562 15.829 7.587 21.355 14.238.468.562 1.218-.281.749-.75-5.9-7.025-13.3-14.799-23.322-14.612-8.898.188-14.798 7.587-19.669 14.144-.374.656.562 1.218.937.656z" fill="#fff"/><path d="M130.94 262.264c1.312-2.06 4.496-5.807 7.119-3.465 1.686 1.498 3.278 3.184 4.777 4.777.468.468 1.217-.281.749-.75-1.499-1.592-3.091-3.372-4.777-4.777-.749-.562-1.311-1.124-2.341-1.217-2.717-.188-5.246 2.81-6.557 4.87-.281.656.656 1.218 1.03.562zm21.262-19.108c4.683 3.934 8.335 8.711 12.644 13.114 2.81 2.81 7.212 7.774 11.614 6.65 4.496-1.218 9.085-5.433 11.989-8.898 3.372-3.841 5.807-8.43 7.306-13.301.187-.656-.843-.937-1.031-.281-1.498 4.683-3.746 9.086-7.024 12.832-1.312 1.499-2.717 2.904-4.215 4.122-1.031.843-2.154 1.686-3.372 2.435-1.967 1.218-2.435 1.311-5.058 1.311-2.529 0-2.81 0-4.589-1.217-1.218-.843-2.248-1.78-3.372-2.81-1.686-1.593-3.185-3.185-4.683-4.871-3.091-3.372-5.995-6.838-9.554-9.741-.468-.562-1.217.187-.655.655z" fill="#fff"/><path d="M169.06 245.217c1.312 2.248 3.091 5.058 6.088 5.058 2.81 0 4.871-2.997 6.37-5.058.374-.562-.562-1.124-.937-.562-1.124 1.592-3.185 4.496-5.433 4.496-2.528 0-4.027-2.623-5.151-4.496-.375-.562-1.311-.094-.937.562zm24.915 17.235c5.619-7.119 16.203-17.235 26.225-14.893 7.681 1.779 12.738 10.022 17.89 15.267.468.469 1.217-.281.749-.749-5.526-5.62-11.052-14.706-19.669-15.83-10.209-1.311-20.231 8.056-26.038 15.362-.375.655.374 1.405.843.843z" fill="#fff"/><path d="M207.649 261.983c2.716-3.653 7.493-6.931 12.176-5.151 2.81 1.124 4.964 3.465 7.025 5.526.468.468 1.218-.281.749-.749-2.622-2.717-5.9-6.182-9.928-6.463-4.496-.281-8.43 2.81-10.958 6.182-.469.655.468 1.217.936.655zm28.099-16.204c3.465 3.559 6.931 7.025 10.958 10.022 3.279 2.436 7.587 5.339 11.895 5.152 8.055-.281 15.267-9.554 18.171-16.204.281-.656-.656-1.218-.937-.562-1.498 3.465-3.559 6.65-6.275 9.273-3.185 3.184-8.149 7.118-13.019 6.182-7.868-1.593-14.611-9.18-19.95-14.706-.562-.468-1.311.281-.843.843z" fill="#fff"/><path d="M249.049 244.842c2.06 2.623 5.151 8.055 8.991 8.243 4.215.187 8.242-5.246 10.678-7.962.468-.562-.281-1.311-.75-.749-1.967 2.248-4.402 5.526-7.212 6.744-4.964 2.154-8.336-3.56-10.771-6.838-.468-.562-1.405 0-.936.562zm25.663 17.047c5.057-7.212 11.146-14.518 20.793-14.892 8.523-.375 11.052 7.774 16.297 12.738.468.468 1.311-.281.749-.749-5.994-5.62-8.523-14.05-18.264-12.926-9.46 1.03-15.36 7.961-20.512 15.267-.468.562.468 1.124.937.562z" fill="#fff"/><path d="M286.607 262.826c2.155-3.372 5.058-6.744 9.367-4.121 2.154 1.311 4.027 3.466 5.713 5.339.468.468 1.218-.281.749-.749-2.248-2.342-5.432-6.463-8.991-6.744-3.747-.281-5.995 2.997-7.774 5.713-.375.562.562 1.124.936.562z" fill="#fff"/><path d="M217.672 232.666H105.558c-1.78 0-3.372-1.218-3.84-2.904l-17.796-59.946c-.75-2.623 1.217-5.245 3.84-5.245h112.114c1.779 0 3.372 1.217 3.84 2.903l17.796 59.947c.749 2.622-1.124 5.245-3.84 5.245z" fill="#C5A4FC"/><path d="M168.873 244.561h-26.694a1.28 1.28 0 01-1.311-1.311c0-.75.562-1.312 1.311-1.312h26.694c.75 0 1.312.562 1.312 1.312 0 .655-.562 1.311-1.312 1.311z" fill="#6BAFFF"/><path d="M148.549 244.842h-15.548l8.336-44.303h15.548l-8.336 44.303z" fill="#D6C0FC"/><path d="M231.44 244.936h-13.113v-1.592c0-1.78 1.499-3.279 3.278-3.279h6.557c1.779 0 3.278 1.499 3.278 3.279v1.592z" fill="#fff"/><g opacity=".95"><g opacity=".95"><path opacity=".37" d="M549.143 149.303l-17.14-12.926h-73.244c-6.931 0-12.645-5.62-12.645-12.644V76.244c0-6.931 5.62-12.645 12.645-12.645h81.111c6.931 0 12.645 5.62 12.645 12.645v71.373c0 1.686-1.967 2.717-3.372 1.686z" fill="#C5A4FC"/><g opacity=".95"><g opacity=".95"><path opacity=".95" d="M474.681 115.022s-7.305-.843-10.302 3.091c-2.998 3.934-4.59 18.452-4.59 18.452h50.578s1.03-20.7-11.989-23.229l-4.964-.375-9.085 5.526-9.648-3.465z" fill="#fff"/><g opacity=".95" fill="#87BEFF"><path opacity=".95" d="M464.379 118.113c-2.998 3.934-4.59 18.452-4.59 18.452h25.383l-10.397-21.543c-.094 0-7.399-.843-10.396 3.091z"/><path opacity=".95" d="M531.441 118.019l-9.085-5.995-5.62 9.086c-1.686 2.623-4.215 5.807-6.931 8.243-.937-6.182-3.653-14.425-11.52-15.924l-4.965-.374-8.242 23.604h25.102v-.094h12.738c5.245-8.336 8.523-18.546 8.523-18.546z"/></g><g opacity=".95"><g opacity=".95"><path opacity=".95" d="M488.356 100.972l1.499 10.678s-4.777 14.33-13.207 2.248l1.78-12.458 9.928-.468z" fill="#E07453"/><path opacity=".95" d="M487.42 89.92l1.217 11.801s-11.708 14.518-10.677.375l2.529-12.458 6.931.281z" fill="#00022B"/></g><g opacity=".95"><g opacity=".95"><g opacity=".95"><path opacity=".95" d="M475.244 95.07l2.06-.561.469 2.435-2.061.562c-.655.187-1.217-.187-1.405-.937-.093-.655.281-1.31.937-1.498z" fill="#E07453" stroke="#E07453" stroke-width=".735" stroke-miterlimit="10"/><path opacity=".95" d="M475.431 95.726l.843-.28.188 1.03-.843.28c-.281.094-.469-.093-.562-.374-.094-.375.093-.656.374-.656z" fill="#B84825"/></g><g opacity=".95"><path opacity=".95" d="M491.26 94.415l-2.061.281-.187-2.529 2.06-.28c.656-.094 1.218.374 1.218 1.123.094.75-.375 1.312-1.03 1.405z" fill="#E07453" stroke="#E07453" stroke-width=".735" stroke-miterlimit="10"/><path opacity=".95" d="M491.166 92.73l-.843.093.094 1.03.843-.093c.281 0 .468-.281.468-.562-.093-.281-.281-.468-.562-.468z" fill="#B84825"/></g><path opacity=".95" d="M483.393 103.595c-4.964.187-7.025-3.091-7.119-7.213v-.28c-.093-4.122 2.155-10.772 5.995-11.147 3.84-.28 7.867 5.901 7.961 10.022v.281c.094 4.215-1.311 7.962-6.837 8.337z" fill="#E07453" stroke="#E07453" stroke-width=".735" stroke-miterlimit="10"/></g><g opacity=".95"><path opacity=".95" d="M483.768 100.878c-1.686.187-3.091-.937-3.185-2.342v-.187l6.182-.562v.187c0 1.5-1.312 2.81-2.997 2.904z" fill="#fff"/><path opacity=".95" d="M481.894 94.696c0 .281-.188.562-.375.562s-.374-.28-.374-.562c0-.28.187-.562.374-.562s.375.281.375.562zm3.653-.375c0 .281-.187.562-.374.562-.188 0-.375-.28-.375-.562 0-.28.187-.562.375-.562.187 0 .374.281.374.562z" fill="#00022B"/><path opacity=".95" d="M484.236 96.944l-1.405.094c-.188 0-.281-.188-.281-.375l.562-1.78c.093-.187.281-.28.468 0l.843 1.686c.094.094 0 .375-.187.375z" fill="#B84825"/><path opacity=".95" d="M479.646 93.198c-.374.374.094-1.03.656-1.312.562-.187 1.218 0 1.405.469 0 0-1.124 0-2.061.843zm6.557-1.125c.468.282-.375-1.03-.937-1.123-.562-.094-1.124.28-1.217.749 0 .094 1.124-.188 2.154.374z" fill="#00022B"/></g><path opacity=".95" d="M489.2 87.203c0-.094-.093-.187-.187-.281.468-.187.749-.375.749-.375s-.562-8.242-1.498-8.43c-.375-.093-10.491 2.342-13.113 9.086a.595.595 0 000 .562c-.094.094-.094.28-.187.375a6.449 6.449 0 00-.281 3.278c.093.468 1.03 3.465 1.498 3.465.187 0 1.405-3.746 2.061-5.807 1.124.188 2.529.188 3.934 0 1.592-.187 3.09-.655 4.402-1.124.936 1.312 3.09 3.934 3.371 3.934.469-.093-.468-4.027-.749-4.683z" fill="#00022B"/></g></g><path opacity=".95" d="M483.486 120.173l1.686-.562 2.341 3.934s-1.03 5.995-5.807.656l1.78-4.028z" fill="#FFE06E"/><path opacity=".95" d="M474.681 115.022c-.093-.375 2.342-5.526 2.342-5.526l7.306 8.898-2.623 5.807-7.025-9.179zm15.08-6.276l-5.339 9.741 3.091 5.058 5.9-10.584-3.652-4.215z" fill="#fff"/><path opacity=".95" d="M492.009 110.994c.375 0 5.807 1.967 6.369 2.342 1.592 1.03-1.967 17.422-1.967 17.422l-4.683-1.405 2.623 4.215-.937 2.903-8.242.281 6.837-25.758z" fill="#B0D5FF"/><path opacity=".95" d="M475.618 112.399c-.375 0-5.714 2.529-6.276 2.904-1.592 1.03 2.435 15.454 2.435 15.454l4.684-1.405-2.623 4.215 1.218 3.279 10.49-.281-9.928-24.166z" fill="#B0D5FF"/><path opacity=".95" d="M486.483 125.7l1.218.843-2.155 10.022-3.746-9.367 1.405-1.498h3.278z" fill="#FFE06E"/></g><path opacity=".95" d="M530.411 117.363c.562-1.498.843-2.435.843-2.435s2.716-8.898-.094-15.549c-.375-.936.937 2.061.937 2.061s-1.874-4.308-2.436-4.683c-.561-.469 1.031 4.215 1.031 4.215s-1.78-5.058-2.529-5.152c-.749-.093.281 5.526.281 5.526s-.468-6.088-1.218-6.181c-.843-.188-2.06 13.675-3.278 11.801-.375-.655-1.873-4.777-2.997-4.683-1.124.094 2.341 9.367 2.341 9.367.094.281-.093.655-.281.936l7.4 4.777z" fill="#E07453"/><path opacity=".95" d="M519.077 117.457l9.835 7.119" stroke="#fff" stroke-width=".423" stroke-miterlimit="10"/></g></g><g opacity=".95"><path opacity=".95" d="M526.29 82.239c0 7.305-5.995 13.3-13.301 13.3h-18.638l6.931-6.931c-1.031-1.874-1.593-4.028-1.593-6.37 0-7.305 5.995-13.3 13.3-13.3 7.4.094 13.301 5.995 13.301 13.3zM512.989 95.54c.094.093 0 .093 0 0z" fill="#fff"/><path opacity=".95" d="M522.45 77.274a.64.64 0 00-.656-.656c-.094 0-3.934-.187-3.934-.187-.374 0-.749.281-.749.656 0 .374.281.75.656.75l2.341.186-6.837 7.962-3.653-3.466a.716.716 0 00-.468-.187.717.717 0 00-.469.187l-4.589 5.058c-.281.281-.281.75.094 1.03a.714.714 0 00.468.188c.187 0 .375-.094.562-.187l4.121-4.496 3.653 3.465c.094.094.281.188.562.188a.515.515 0 00.468-.281l7.306-8.524.093 2.435a.64.64 0 00.656.656c.375 0 .656-.375.656-.75l-.281-4.027z" fill="#C5A4FC"/></g></g><path d="M574.151 233.04H459.227c-1.873 0-3.465-1.217-4.027-2.997l-18.171-61.445c-.749-2.622 1.218-5.339 4.028-5.339h114.924c1.873 0 3.465 1.218 4.027 2.998l18.264 61.444c.656 2.623-1.311 5.339-4.121 5.339z" fill="#B0D5FF"/><path d="M524.229 245.217h-27.443c-.75 0-1.405-.656-1.405-1.405 0-.75.655-1.405 1.405-1.405h27.443c.749 0 1.405.655 1.405 1.405-.094.749-.656 1.405-1.405 1.405z" fill="#6BAFFF"/><path d="M503.342 245.498h-16.016l8.617-45.428h16.016l-8.617 45.428z" fill="#87BEFF"/><path d="M671.185 244.936H428.693v17.328h242.492v-17.328z" fill="#B0D5FF"/><path d="M427.757 247.09c6.743-3.84 14.049 6.463 17.795 10.865 2.81 3.278 5.807 6.838 10.584 6.557 4.683-.375 8.149-3.841 11.052-7.212 4.496-5.152 9.273-9.835 14.893-13.957.562-.374 0-1.311-.562-.936-4.964 3.653-9.46 7.774-13.581 12.364-4.683 5.245-11.146 12.457-18.264 6.088-5.339-4.777-13.394-19.951-22.479-14.706-.656.281-.094 1.218.562.937z" fill="#fff"/><path d="M441.806 241.845c1.592 3.278 3.559 6.182 6.088 8.804 1.686 1.78 4.121 4.496 6.744 4.965 2.529.468 4.308-1.405 5.9-2.998 2.529-2.622 4.777-5.526 6.838-8.523.374-.562-.562-1.124-.937-.562-2.81 4.215-8.336 13.3-14.424 9.554-4.121-2.623-7.212-7.494-9.366-11.709-.281-.749-1.218-.187-.843.469zm-14.893 12.738c3.653 2.623 7.306 5.433 8.992 9.741.281.656 1.311.375 1.03-.281-1.779-4.589-5.619-7.587-9.46-10.397-.562-.374-1.124.562-.562.937zm48.799 7.774c4.87-6.556 10.958-14.237 19.95-13.675 9.272.562 15.829 7.587 21.355 14.237.468.562 1.217-.281.749-.749-5.901-7.025-13.3-14.799-23.322-14.612-8.898.187-14.798 7.587-19.669 14.144-.468.655.468 1.217.937.655z" fill="#fff"/><path d="M489.761 262.264c1.311-2.061 4.496-5.808 7.118-3.466 1.686 1.499 3.278 3.185 4.777 4.777.468.468 1.218-.281.749-.749-1.498-1.593-3.091-3.372-4.777-4.777-.749-.562-1.311-1.124-2.341-1.218-2.716-.187-5.245 2.81-6.557 4.871-.28.655.656 1.217 1.031.562zm21.261-19.108c4.683 3.934 8.336 8.711 12.645 13.113 2.81 2.81 7.212 7.774 11.614 6.65 4.496-1.217 9.085-5.432 11.989-8.898 3.372-3.84 5.807-8.43 7.305-13.3.188-.656-.843-.937-1.03-.281-1.498 4.683-3.746 9.085-7.025 12.832-1.311 1.498-2.716 2.903-4.214 4.121-1.031.843-2.155 1.686-3.372 2.435-1.967 1.218-2.435 1.312-5.058 1.312-2.529 0-2.81 0-4.589-1.218-1.218-.843-2.248-1.78-3.372-2.81-1.686-1.592-3.185-3.185-4.683-4.871-3.091-3.372-5.995-6.837-9.554-9.741-.375-.562-1.124.188-.656.656z" fill="#fff"/><path d="M527.882 245.217c1.311 2.248 3.091 5.057 6.088 5.057 2.81 0 4.87-2.997 6.369-5.057.375-.562-.562-1.124-.937-.562-1.124 1.592-3.184 4.495-5.432 4.495-2.529 0-4.028-2.622-5.152-4.495-.374-.562-1.311-.094-.936.562zm24.914 17.234c5.62-7.118 16.204-17.234 26.226-14.893 7.68 1.78 12.738 10.023 17.889 15.268.469.468 1.218-.281.75-.75-5.527-5.619-11.053-14.705-19.67-15.829-10.209-1.311-20.231 8.055-26.038 15.361-.281.656.469 1.405.843.843z" fill="#fff"/><path d="M566.471 261.983c2.716-3.653 7.493-6.931 12.176-5.152 2.81 1.124 4.964 3.466 7.024 5.527.469.468 1.218-.281.75-.75-2.623-2.716-5.901-6.182-9.928-6.463-4.496-.281-8.43 2.81-10.959 6.182-.375.656.562 1.218.937.656zm28.191-16.204c3.466 3.559 6.931 7.025 10.959 10.022 3.278 2.435 7.587 5.339 11.895 5.151 8.055-.281 15.267-9.553 18.171-16.204.281-.655-.656-1.217-.937-.562-1.499 3.466-3.559 6.651-6.275 9.273-3.185 3.185-8.149 7.119-13.02 6.182-7.867-1.592-14.611-9.179-19.95-14.705-.655-.469-1.405.281-.843.843z" fill="#fff"/><path d="M607.87 244.842c2.06 2.622 5.151 8.055 8.991 8.242 4.215.188 8.243-5.245 10.678-7.961.468-.562-.281-1.312-.749-.75-1.967 2.248-4.403 5.527-7.212 6.744-4.965 2.155-8.336-3.559-10.772-6.837-.374-.562-1.405 0-.936.562zm25.663 17.047c5.058-7.212 11.146-14.518 20.793-14.893 8.524-.375 11.052 7.774 16.298 12.739.468.468 1.311-.281.749-.75-5.995-5.62-8.523-14.05-18.264-12.926-9.46 1.031-15.361 7.962-20.512 15.268-.375.562.562 1.124.936.562z" fill="#fff"/><path d="M645.521 262.826c2.155-3.372 5.058-6.744 9.367-4.122 2.154 1.312 4.027 3.466 5.713 5.339.468.469 1.218-.281.749-.749-2.248-2.342-5.432-6.463-8.991-6.744-3.747-.281-5.995 2.997-7.774 5.714-.375.562.562 1.124.936.562z" fill="#fff"/><path d="M435.156 261.608h-5.901v101.628h5.901V261.608zm235.186-.843h-5.901v101.627h5.901V260.765z" fill="#B0D5FF"/><path d="M584.829 241.751h-42.336v3.653h42.336v-3.653zm21.635 3.185h-14.143v-1.78a3.558 3.558 0 013.559-3.559h7.025a3.557 3.557 0 013.559 3.559v1.78zM488.543 201.1h-9.085v-2.622h-5.62v11.052h-5.9v35.218h17.608V209.53h-6.182v-7.493h9.086a1.28 1.28 0 011.311 1.311v2.154h.843v-2.248c.093-1.217-.843-2.154-2.061-2.154z" fill="#fff"/><path d="M460.725 245.405h-11.708c-3.559 0-6.369-2.904-6.369-6.37v-17.234h24.54v17.234c0 3.466-2.904 6.37-6.463 6.37z" fill="#C5A4FC"/><path d="M460.725 245.405h-11.708c-3.559 0-6.369-2.904-6.369-6.37v-17.234" fill="#C5A4FC"/><path d="M449.298 202.786c-1.03-1.124-1.967-2.154-2.997-3.184-1.405-1.405-2.904-2.904-4.59-3.934-.562.936-1.498 1.873-2.529 1.779-1.123-.187-1.966-1.405-2.341-2.529l-.094.094c-.281.281-.468.656-.562 1.124a7.317 7.317 0 00-.281 2.061c3.84 2.81 8.617 6.182 13.394 4.589z" fill="#3191FF"/><path d="M449.486 202.88c0 .094 0 .094 0 0-4.871 1.592-9.647-1.686-13.487-4.589 0 1.592.468 3.184 1.123 4.683 1.031 2.154 2.436 4.121 3.653 6.182.188.374.375.749.375 1.124 1.405 2.06 2.342 4.308 2.716 6.837 0 .094-.187.188-.187.094-.375-2.435-1.218-4.683-2.623-6.65-.374.655-1.311.374-1.967.093-.093 0-.187-.093-.187-.093l2.529 4.777v.093c2.248 1.874 4.308 4.028 6.369 6.089.094.093-.094.187-.094.093-3.84-4.121-7.961-8.242-13.3-10.303v.094c.843 5.339 5.526 9.835 10.865 10.49l18.077-.093c-3.84-6.557-8.711-13.114-13.862-18.921zm-10.678-5.807c1.124.562 2.248-.469 2.81-1.499-.562-.281-1.03-.562-1.686-.843-.937-.375-2.154-.562-2.904 0 .281.937.843 1.873 1.78 2.342z" fill="#3191FF"/><path d="M441.15 215.244a242.428 242.428 0 01-2.529-4.964c-.656-.375-1.405-.749-2.061-1.124-.374-.187-.749-.375-1.124-.375-.936.094-1.217 1.218-1.217 2.248 2.529 1.031 4.777 2.529 6.931 4.215z" fill="#3191FF"/><path d="M460.726 208.968c.655-.749 1.311-1.498 2.06-2.154.937-.937 1.967-1.967 3.091-2.623.375.656 1.03 1.312 1.78 1.218.749-.094 1.311-.937 1.592-1.686 0 0 .094 0 .094.094.187.187.281.468.374.749.094.468.188.937.188 1.405-2.623 1.78-5.901 4.028-9.179 2.997z" fill="#FFE06E"/><path d="M460.632 209.062c3.278 1.124 6.556-1.124 9.085-3.091 0 1.124-.374 2.154-.749 3.184-.656 1.499-1.592 2.81-2.435 4.215-.094.188-.281.469-.188.75-.936 1.405-1.592 2.903-1.779 4.589 0 .094.094.094.094 0 .281-1.592.843-3.184 1.779-4.496.281.469.937.281 1.311 0 .094 0 .094-.093.188-.093-.562 1.124-1.124 2.154-1.686 3.278v.094c-1.499 1.217-2.904 2.716-4.309 4.121-.093.094 0 .187.094.094 2.623-2.81 5.432-5.62 9.085-7.025v.093c-.562 3.653-3.746 6.651-7.399 7.119l-12.27-.094c2.435-4.402 5.714-8.898 9.179-12.738zm7.212-4.028c-.749.375-1.499-.281-1.873-1.03l1.124-.562c.655-.281 1.405-.375 1.967 0-.188.656-.562 1.311-1.218 1.592z" fill="#FFE06E"/><path d="M466.346 217.398c.562-1.124 1.124-2.248 1.779-3.372.469-.281.937-.468 1.405-.749.281-.094.469-.281.75-.188.655.094.843.843.843 1.499-1.874.656-3.372 1.592-4.777 2.81z" fill="#FFE06E"/><path d="M116.797 201.007h-9.085v-2.623h-5.62v11.053h-5.9v35.218H113.8v-35.218h-6.182v-7.493h9.085c.75 0 1.312.562 1.312 1.311v2.154h.843v-2.154c.093-1.311-.843-2.248-2.061-2.248zm160.444 40.932H252.14v3.278h25.101v-3.278z" fill="#fff"/><path d="M279.958 224.985c-1.311 0-2.529.281-3.653.937v-1.499h-23.509v10.116c0 4.122 3.372 7.494 7.493 7.494h8.523c2.435 0 4.683-1.218 5.995-3.091 1.404 1.217 3.278 1.873 5.151 1.873a7.954 7.954 0 007.961-7.962c-.093-4.308-3.653-7.868-7.961-7.868zm0 14.987c-1.686 0-3.372-.656-4.683-1.78.656-1.124 1.03-2.341 1.03-3.746v-7.681c1.124-.656 2.342-1.03 3.653-1.03a7.114 7.114 0 017.118 7.118c-.093 3.934-3.278 7.119-7.118 7.119z" fill="#6C47A8"/></g><defs><clipPath id="clip0"><path fill="#fff" d="M0 0h702v417H0z"/></clipPath></defs></svg>