<svg width="487" height="486" fill="none" xmlns="http://www.w3.org/2000/svg"><g clip-path="url(#clip0)"><path d="M465.886 327.842c-49.17 114.123-178.949 163.139-280.638 154.791-27.76-2.274-83.628-6.874-127.246-47.837-83.766-78.662-70.875-243.104 9.317-339.905C77.643 82.43 149.125-1.11 260.513.017c81.545.816 138.783 46.57 145.758 52.262 8.796 7.204 28.194 24.3 45.665 51.447 41.051 63.77 44.66 152.812 13.95 224.116z" fill="url(#paint0_linear)"/><path d="M276.873 195.944H85.311c-7.773 0-14.262-5.918-14.99-13.642L58.243 54.154c-.815-8.714 5.951-16.299 14.696-16.472l203.638-3.87c8.432-.157 15.337 6.63 15.337 15.048v132.018c.018 8.314-6.731 15.066-15.042 15.066z" fill="#7D97F4"/><path opacity=".87" d="M70.494 65.575l8.57 110.808c.365 4.807 4.356 8.539 9.179 8.591l183.859 1.927c5.188.052 9.404-4.131 9.404-9.321V58.302c0-5.26-4.373-9.495-9.63-9.304L79.464 55.542c-5.292.191-9.37 4.756-8.97 10.032z" fill="#fff"/><path d="M168.643 64.568l103.684-3.107a1.885 1.885 0 011.943 1.892v1.666a1.9 1.9 0 01-1.856 1.892l-103.684 1.44a1.878 1.878 0 01-1.909-1.891c0-1.024.816-1.875 1.822-1.892zm-1.822 10.57v.712c0 1.041.85 1.892 1.891 1.892h103.685c1.041 0 1.891-.85 1.891-1.892v-.712c0-1.041-.85-1.892-1.891-1.892H168.712c-1.041.017-1.891.85-1.891 1.892z" fill="#7D97F4"/><path d="M141.507 168.416a.852.852 0 01-.85-.851v-2.534a.851.851 0 011.701 0v2.534c-.018.469-.382.851-.851.851zm-.034-8.453a.851.851 0 01-.85-.851v-2.534a.85.85 0 011.7 0v2.534c0 .469-.382.833-.85.851zm-.018-8.47a.852.852 0 01-.85-.851v-2.534c0-.469.382-.851.85-.851.469 0 .851.382.851.851v2.534a.852.852 0 01-.851.851zm-.017-8.471a.852.852 0 01-.85-.85v-2.534c0-.469.382-.851.85-.851.469 0 .85.382.85.851v2.534c0 .468-.381.85-.85.85z" fill="url(#paint1_linear)"/><path d="M183.98 166.003a.851.851 0 01-.85-.85v-2.534c0-.469.382-.851.85-.851.468 0 .85.382.85.851v2.534c0 .469-.382.85-.85.85zm0-8.452a.852.852 0 01-.85-.851v-2.534c0-.469.382-.851.85-.851.468 0 .85.382.85.851v2.534a.852.852 0 01-.85.851zm0-8.471a.852.852 0 01-.85-.85v-2.534c0-.469.382-.851.85-.851.468 0 .85.382.85.851v2.534c0 .468-.382.85-.85.85zm0-8.453a.852.852 0 01-.85-.85v-2.534c0-.469.382-.851.85-.851.468 0 .85.382.85.851v2.534c0 .468-.382.85-.85.85zm0-8.47a.852.852 0 01-.85-.85v-2.535c0-.468.382-.85.85-.85.468 0 .85.382.85.85v2.535c0 .468-.382.85-.85.85z" fill="url(#paint2_linear)"/><path d="M216.391 172.998a.856.856 0 01-.85-.815l-.052-1.511a.836.836 0 01.815-.867c.486-.035.85.347.868.815l.052 1.51a.837.837 0 01-.816.868h-.017zm-.226-7.429a.856.856 0 01-.85-.815l-.087-2.534a.837.837 0 01.816-.868.836.836 0 01.867.815l.087 2.535a.837.837 0 01-.815.867h-.018zm-.26-8.47a.856.856 0 01-.85-.816l-.087-2.534a.838.838 0 01.816-.868c.451 0 .85.348.867.816l.087 2.534a.837.837 0 01-.816.868h-.017zm-.278-8.453a.857.857 0 01-.85-.816l-.086-2.534a.838.838 0 01.815-.868.848.848 0 01.867.816l.087 2.534a.836.836 0 01-.815.868h-.018zm-.26-8.453a.856.856 0 01-.85-.815l-.087-2.535a.837.837 0 01.816-.867c.468 0 .85.347.867.815l.087 2.534a.837.837 0 01-.815.868h-.018zm-.26-8.47a.856.856 0 01-.85-.816l-.087-2.534a.838.838 0 01.815-.868c.469-.034.851.347.868.816l.087 2.534a.837.837 0 01-.816.868h-.017zm-.26-8.453a.856.856 0 01-.85-.816l-.087-2.534a.838.838 0 01.815-.868.828.828 0 01.868.816l.086 2.534a.836.836 0 01-.815.868h-.017z" fill="url(#paint3_linear)"/><path d="M247.187 168.26a.852.852 0 01-.85-.85v-2.535c0-.468.382-.85.85-.85.468 0 .85.382.85.85v2.535c0 .468-.382.85-.85.85zm0-8.453a.852.852 0 01-.85-.85v-2.535c0-.468.382-.85.85-.85.468 0 .85.382.85.85v2.535c0 .468-.382.85-.85.85zm0-8.47a.852.852 0 01-.85-.851v-2.534c0-.468.382-.85.85-.85.468 0 .85.382.85.85v2.534a.852.852 0 01-.85.851zm0-8.47a.852.852 0 01-.85-.851v-2.534c0-.469.382-.851.85-.851.468 0 .85.382.85.851v2.534a.841.841 0 01-.85.851zm0-8.453a.852.852 0 01-.85-.851v-2.534c0-.469.382-.851.85-.851.468 0 .85.382.85.851v2.534a.852.852 0 01-.85.851zm0-8.471a.852.852 0 01-.85-.85v-2.534c0-.469.382-.851.85-.851.468 0 .85.382.85.851v2.534a.84.84 0 01-.85.85zm0-8.453a.851.851 0 01-.85-.85v-2.534c0-.469.382-.851.85-.851.468 0 .85.382.85.851v2.534c0 .469-.382.85-.85.85zm0-8.47a.852.852 0 01-.85-.85v-2.535c0-.468.382-.85.85-.85.468 0 .85.382.85.85v2.535c0 .468-.382.85-.85.85zm0-8.453a.852.852 0 01-.85-.85v-2.534c0-.47.382-.851.85-.851.468 0 .85.382.85.85v2.535c0 .468-.382.85-.85.85z" fill="url(#paint4_linear)"/><path d="M96.016 178.258c-.66 0-1.215-.503-1.267-1.163L86.074 74.653a1.267 1.267 0 011.163-1.371c.694-.035 1.318.451 1.37 1.163l8.675 102.442a1.267 1.267 0 01-1.162 1.371h-.104z" fill="url(#paint5_linear)"/><path d="M83.49 79.93l3.92-4.652 4.65 3.922-.295-3.627-4.65-3.94-3.938 4.651.312 3.645z" fill="url(#paint6_linear)"/><path d="M267.885 173.414H89.439a1.274 1.274 0 01-1.266-1.267c0-.694.572-1.267 1.266-1.267h178.446c.694 0 1.267.573 1.267 1.267s-.573 1.267-1.267 1.267z" fill="url(#paint7_linear)"/><path d="M262.819 176.452l4.303-4.305-4.303-4.304h3.661l4.303 4.304-4.303 4.305h-3.661z" fill="url(#paint8_linear)"/><path d="M103.441 143.977c-.625 0-1.18-.469-1.249-1.094a1.27 1.27 0 011.093-1.423c.937-.122 94.367-12.931 145.498-50.648a1.267 1.267 0 011.769.26 1.269 1.269 0 01-.26 1.77c-51.668 38.117-145.723 50.996-146.678 51.117a.567.567 0 01-.173.018z" fill="url(#paint9_linear)"/><path d="M249.928 98.588h-.104a1.269 1.269 0 01-1.163-1.371l.399-4.982-7.026-.416a1.276 1.276 0 01-1.197-1.337c.034-.694.642-1.25 1.336-1.197l8.31.486c.347.017.66.173.885.434.226.26.33.59.312.937l-.485 6.283a1.281 1.281 0 01-1.267 1.163z" fill="url(#paint10_linear)"/><path d="M20.127 151.615c-.66-2.153 1.873-3.871 3.643-2.483 18.044 13.956 62.287 56.689 60.205 139.031-2.62 103.293 22.225 138.51 50.87 158.679 0 0-37.372-7.186-63.865-42.785-65.063-87.428-39.194-214.222-50.854-252.442z" fill="#7D97F4"/><path d="M35.794 182.302c3.158 11.161 6.107 22.391 8.623 33.708a569.19 569.19 0 016.714 34.106c1.84 11.439 3.47 22.894 4.598 34.42 1.197 11.507 1.874 23.067 2.533 34.662.712 11.594 1.371 23.258 3.227 34.905 1.84 11.629 5.101 23.206 10.376 33.864 1.318 2.655 2.69 5.294 4.199 7.828 1.474 2.569 3.053 5.068 4.667 7.533a126.722 126.722 0 0010.826 14.059c7.912 8.835 17.159 16.455 27.136 22.686a2.244 2.244 0 003.088-.712 2.249 2.249 0 00-.659-3.055c-2.377-1.579-4.754-3.193-7.027-4.912-1.162-.833-2.273-1.718-3.401-2.586-1.093-.902-2.238-1.77-3.296-2.708-4.338-3.697-8.415-7.671-12.163-11.941-7.547-8.488-13.862-18.156-18.929-28.327a112.826 112.826 0 01-6.246-15.83c-1.683-5.433-2.932-11.004-3.886-16.645-1.891-11.3-2.637-22.842-3.435-34.437-.816-11.577-1.718-23.224-3.106-34.801a519.463 519.463 0 00-2.325-17.322c-.416-2.882-.902-5.763-1.37-8.627a681.9 681.9 0 00-1.562-8.592 568.798 568.798 0 00-7.6-34.089c-2.949-11.265-6.176-22.443-9.854-33.482a.609.609 0 00-.764-.382c-.277.035-.45.365-.364.677z" fill="#fff"/><path d="M56.18 468.469c-1.319 3.402-5.69 4.357-8.328 1.84C33.26 456.424-4.441 413.43.972 344.105c4.58-58.545 1.492-90.725-.92-105.236-.503-3.072 3.193-4.999 5.431-2.846 24.62 23.9 98.601 109.141 50.697 232.446z" fill="#91B3FA"/><path d="M51.235 468.383a1.43 1.43 0 01-2.082-.694c-.33-.833-32.202-84.147-29.512-165.83a1.419 1.419 0 011.474-1.371 1.419 1.419 0 011.371 1.475c-2.672 81.093 29.01 163.886 29.322 164.719.243.625-.018 1.337-.573 1.701z" fill="#fff"/><path d="M150.426 360.525H34.18a.622.622 0 01-.624-.625v-21.124c0-.347.277-.625.624-.625h116.246c.347 0 .625.278.625.625V359.9a.623.623 0 01-.625.625z" fill="url(#paint11_linear)"/><path d="M150.513 385.363H34.267a.622.622 0 01-.624-.625v-21.124c0-.347.277-.625.624-.625h116.246c.347 0 .624.278.624.625v21.124c.018.347-.26.625-.624.625z" fill="url(#paint12_linear)"/><path d="M150.616 410.201H34.371a.622.622 0 01-.625-.625v-21.124c0-.347.278-.625.625-.625h116.245c.347 0 .625.278.625.625v21.124a.623.623 0 01-.625.625z" fill="url(#paint13_linear)"/><path d="M150.703 435.039H34.458a.622.622 0 01-.625-.625v-21.141c0-.347.278-.625.625-.625h116.245c.347 0 .625.278.625.625v21.124a.637.637 0 01-.625.642z" fill="url(#paint14_linear)"/><path d="M150.79 459.86H34.545a.622.622 0 01-.625-.625v-21.124c0-.347.277-.625.624-.625H150.79c.347 0 .625.278.625.625v21.124c.017.347-.278.625-.625.625z" fill="url(#paint15_linear)"/><path d="M150.79 484.438H34.545a.622.622 0 01-.625-.625v-21.124c0-.347.277-.625.624-.625H150.79c.347 0 .625.278.625.625v21.124c.017.347-.278.625-.625.625z" fill="url(#paint16_linear)"/><path d="M282.391 385.364H166.145a.622.622 0 01-.624-.625v-21.124c0-.347.277-.625.624-.625h116.246c.347 0 .624.278.624.625v21.124c.018.347-.277.625-.624.625z" fill="url(#paint17_linear)"/><path d="M282.478 410.201H166.232a.622.622 0 01-.625-.624v-21.124c0-.347.278-.625.625-.625h116.246c.347 0 .624.278.624.625v21.124c.018.347-.26.624-.624.624z" fill="url(#paint18_linear)"/><path d="M282.582 435.04H166.337a.623.623 0 01-.625-.625v-21.141c0-.347.278-.625.625-.625h116.245c.347 0 .625.278.625.625v21.124a.637.637 0 01-.625.642z" fill="url(#paint19_linear)"/><path d="M282.669 459.861H166.423a.622.622 0 01-.624-.625v-21.124c0-.347.277-.625.624-.625h116.246c.347 0 .625.278.625.625v21.124a.623.623 0 01-.625.625z" fill="url(#paint20_linear)"/><path d="M282.669 484.438H166.423a.622.622 0 01-.624-.625v-21.124c0-.347.277-.625.624-.625h116.246c.347 0 .625.278.625.625v21.124a.623.623 0 01-.625.625z" fill="url(#paint21_linear)"/><path d="M209.139 177.199c29.721 4.461 49.084-14.302 63.519-25.671 19.05-15.031 33.885-7.707 33.885-7.707l-17.125 38.325c-30.345 28.622-64.664 22.738-84.287 13.469-.277-7.498 1.718-13.781 4.008-18.416z" fill="url(#paint22_linear)"/><path d="M167.377 159.461l9.855 5.311c11.815 7.203 22.399 11.005 31.907 12.428-2.29 4.634-4.303 10.9-3.991 18.398-12.492-5.901-20.317-13-20.317-13-22.329-13.296-17.454-23.137-17.454-23.137z" fill="url(#paint23_linear)"/><path d="M138.333 173.363a7.27 7.27 0 014.251-4.652l20.005-8.054s.294-2.569-4.234-4.304c-4.528-1.736-3.47-6.822-3.47-6.822s6.194 2.829 15.251 7.308c5.187 2.568 8.085 7.081 9.629 10.483l-5.153 6.77c-12.336 3.697-24.793 4.408-37.389 2.95l1.11-3.679z" fill="url(#paint24_linear)"/><path d="M343.81 221.946c3.922.191 5.778-.868 6.264-2.621 1.613-5.641-10.514-17.895-10.948-18.329.451.295 16.483 10.483 32.184-.469 10.549-7.359 1.076-13.643-6.784-17.079 3.505-.33 8.554-1.441 15.876-3.993 20.299-7.064 4.164-16.02-3.21-19.318 3.834.469 10.879-1.753 20.282-17.774 14.887-25.324-9.403-14.597-9.403-14.597s10.965-9.043 8.64-39.73c-1.614-21.35-9.213-10.12-13.325-2.24 4.511-10.31 12.336-32.37 3.47-44.503-8.293-11.37-13.793 5.242-15.58 12.393 1.336-7.742 3.157-26.123-.712-38.846-.017-.034-.017-.07-.034-.086-.885-2.9-2.065-5.485-3.609-7.568-8.727-11.768-15.077 43.74-21.011 58.233-5.917 14.493-29.409 35.357-20.456 55.769 9.473 21.574-10.931 76.302-10.931 76.302 3.106 16.923 12.961 23.623 29.287 24.456z" fill="#91B3FA"/><path d="M350.074 219.325c1.614-5.641-10.514-17.896-10.948-18.33.451.296 16.483 10.484 32.185-.468 10.548-7.36 1.075-13.643-6.784-17.08 3.504-.329 8.553-1.44 15.875-3.992 20.3-7.064 4.164-16.02-3.21-19.318 3.835.468 10.879-1.753 20.283-17.774 14.886-25.324-9.404-14.597-9.404-14.597s10.965-9.043 8.64-39.73c-1.613-21.35-9.213-10.12-13.325-2.24 4.511-10.31 12.336-32.371 3.47-44.504-8.293-11.369-13.793 5.242-15.58 12.393 1.336-7.74 3.158-26.122-.711-38.845-.018-.035-.018-.07-.035-.087-4.286-12.896-7.305 7.377-7.981 11.873-2.117 14.007-1.822 30.236-7.738 44.07-2.95 6.907-7.235 13.225-10.497 19.943-3.245 6.682-6.402 14.042-6.281 21.627.139 8.991 5.153 16.784 6.021 25.879 1.249 13.035-4.251 29.073-8.363 41.206-2.603 7.707-5.361 15.431-8.519 22.825.503 12.323 12.006 17.565 22.902 17.149z" fill="#BDD0FB"/><path d="M371.935 224.411c4.268 1.267 6.663.781 7.808-.695 3.713-4.738-5.448-19.839-5.778-20.394.416.416 14.505 14.719 34.891 9.182 13.325-3.628 5.968-12.15-.954-17.757 3.782.799 9.404 1.337 17.766 1.25 22.417-.191 10.046-13.417 3.852-18.971 3.696 1.718 11.538 2.013 26.684-9.633 23.735-18.225-3.556-17.184-3.556-17.184s14.14-4.461 24.082-35.166c7.165-22.13-4.858-14.285-12.128-8.175 8.675-8.383 25.435-27.233 21.93-44.503-3.4-16.82-16.118-1.806-20.993 4.946 4.65-7.654 14.418-26.747 16.014-43.288V23.9c.364-3.836.278-7.533-.399-10.9-3.973-19.544-35.169 40.511-47.817 53.39-12.631 12.862-48.771 23.675-45.891 50.631 2.898 26.956-41.085 74.844-41.085 74.844-2.134 17.722 7.252 27.129 25.574 32.545z" fill="#7D97F4"/><path d="M379.742 223.716c3.713-4.738-5.448-19.839-5.777-20.395.416.417 14.504 14.719 34.891 9.182 13.325-3.627 5.968-12.15-.955-17.756 3.783.798 9.404 1.336 17.767 1.25 22.416-.191 10.046-13.417 3.852-18.972 3.695 1.719 11.538 2.014 26.684-9.633 23.735-18.225-3.557-17.183-3.557-17.183s14.141-4.461 24.082-35.166c7.166-22.13-4.858-14.285-12.127-8.175 8.675-8.384 25.435-27.234 21.93-44.504-3.4-16.819-16.118-1.805-20.993 4.947 4.649-7.655 14.417-26.748 16.014-43.289v-.121c1.284-17.496-10.896 3.888-13.568 8.557-8.311 14.493-14.869 32.596-26.98 44.503-6.055 5.954-13.376 10.588-19.727 16.23-6.332 5.606-12.839 11.976-15.684 20.151-3.331 9.598-.659 19.943-3.14 29.646-3.505 13.695-15.616 27.633-24.672 38.151-5.743 6.682-11.66 13.313-17.958 19.492-3.695 12.115 7.686 20.429 19.918 23.085z" fill="#91B3FA"/><path d="M298.613 468.209c7.877.677 21.549 1.788 32.341 2.256 6.489.278 10.219-.347 12.353-1.215 0 .243-.017.469-.017.677a2.22 2.22 0 01-2.117 2.101c-20.369 1.145-36.574.399-42.352.034-1.197-.069-1.908-1.371-1.301-2.395.33-.469.694-.972 1.093-1.458z" fill="url(#paint25_linear)"/><path d="M330.954 470.466c-10.775-.469-24.464-1.58-32.341-2.256 7.756-9.512 32.341-15.917 32.341-15.917h6.94c4.771 6.891 5.465 13.452 5.413 16.975-2.134.851-5.864 1.493-12.353 1.198z" fill="url(#paint26_linear)"/><path d="M339.074 440.941l-.642 12.862c-.07 1.388-1.111 2.569-2.516 2.76-1.388.191-3.244.225-5.222-.434a3.476 3.476 0 01-2.343-2.673l-2.238-12.532h12.961v.017z" fill="url(#paint27_linear)"/><path d="M419.681 483.049c3.418-.625 4.963-2.916 5.605-5.363 0 .017 0 .052.017.069.503 2.586-.659 5.277-3.002 6.544-2.81 1.544-5.899 1.805-8.293 1.683-2.568-.139-4.927-1.51-6.211-3.697l-.018-.035c2.585 1.632 6.194 1.823 11.902.799z" fill="url(#paint28_linear)"/><path d="M403.563 444.898h5.726c8.727-.226 14.21 23.554 15.997 32.77-.642 2.448-2.186 4.756-5.604 5.364-5.691 1.024-9.317.833-11.885-.816-4.719-8.019-7.044-19.77-8.172-26.626-1.284-7.776 3.938-10.692 3.938-10.692z" fill="url(#paint29_linear)"/><path d="M408.561 432.956l3.175 12.653a3.432 3.432 0 01-1.787 3.888c-1.787.92-4.285 1.875-6.593 1.597a2.892 2.892 0 01-2.342-1.909l-4.667-13.313 12.214-2.916z" fill="url(#paint30_linear)"/><path d="M296.67 266.293s28.419 177.737 27.951 178.709c0 0 7.842 3.576 16.413.451 0 0-2.568-95.012-8.588-131.445 0 0 48.511 84.928 63.918 127.245 0 0 8.033-.955 14.678-5.329 0 0-52.224-152.864-66.156-173.224l-48.216 3.593z" fill="url(#paint31_linear)"/><path opacity=".49" d="M331.318 313.4c-.381 0-.746-.191-.971-.538l-10.358-16.558-7.339-1.476a1.15 1.15 0 01-.903-1.354c.122-.625.729-1.006 1.354-.902l7.807 1.579c.313.07.573.243.746.521l10.619 16.975a1.154 1.154 0 01-.365 1.58 1.167 1.167 0 01-.59.173z" fill="url(#paint32_linear)"/><path d="M292.194 142.19c11.087-.642 47.626-1.84 77.867 8.158 6.367 2.1 10.809 10.535 13.464 16.628 8.171 18.78-11.295 26.365-26.338 21.21-7.669 20.69-11.26 50.891-12.006 64.256a28.648 28.648 0 002.255 12.845l.191.451a1.53 1.53 0 01-1.075 2.083c-20.699 4.651-42.213 3.384-48.65 2.864a2.642 2.642 0 01-2.36-2.031c-10.063-42.421-10.08-71.355-7.616-89.65-9.421 2.083 2.238-36.693 4.268-36.814z" fill="url(#paint33_linear)"/><path d="M287.873 180.428c-.052 0-.104 0-.156-.018a1.161 1.161 0 01-.989-1.284c2.429-18.347 7.304-26.209 7.513-26.539a1.146 1.146 0 011.578-.347c.538.329.694 1.041.365 1.579-.052.07-4.824 7.828-7.183 25.602a1.129 1.129 0 01-1.128 1.007z" fill="url(#paint34_linear)"/><path d="M338.953 117.473s2.099 22.147 3.938 28.691a2.233 2.233 0 01-1.058 2.552c-3.123 1.787-10.636 4.703-20.89-.33-1.666-.816-2.654-2.552-2.585-4.392l.902-21.401 19.693-5.12z" fill="url(#paint35_linear)"/><path d="M318.809 89.147s-6.697 15.395-7.148 23.466c-.451 8.071-2.186 13.313 7.148 14.945 9.335 1.631 17.194-3.02 21.462-11.074 0 0 6.68-12.393 5.171-17.479-1.492-5.068-26.633-9.858-26.633-9.858z" fill="url(#paint36_linear)"/><path d="M337.079 110.704l-.538-.243c-.677-.295-.972-1.111-.625-1.753 1.319-2.552 3.887-8.384.573-9.738-4.268-1.753-21.202-5.207-24.846-11.212-3.504-5.78-.399-13.227 4.269-15.344a.653.653 0 01.85.278l.381.729a.628.628 0 001.163-.122.633.633 0 011.145-.156c1.128 1.805 4.147 4.704 12.249 6.214 11.521 2.135 19.137 6.786 19.328 14.753.018.504.555.781.989.521.85-.52 2.204-.764 4.025.764 3.158 2.655 1.874 9.563-5.066 15.239-.33.278-.33.781.035 1.024 1.249.816 3.123 2.76-1.718 5.364-5.014 2.69-8.779 2.464-10.219 2.221-.364-.052-.59-.399-.521-.763l1.545-6.995a.627.627 0 00-.625-.764h-2.394v-.017z" fill="url(#paint37_linear)"/><path d="M336.784 112.179s2.551-9.824 6.957-7.081c4.407 2.759-2.29 11.021-5.829 11.386l-1.128-4.305z" fill="url(#paint38_linear)"/><path d="M340.912 334.004l.937 29.125c.156 5.086 4.32 9.113 9.438 9.148l69.696.416c3.418.017 6.315-2.465 6.818-5.815 1.094-7.359 2.482-20.516.92-32.857h-87.809v-.017z" fill="url(#paint39_linear)"/><path d="M361.351 312.88l.208-2.239a1.72 1.72 0 011.301-1.007c2.169-.347 7.565-.954 10.15.99l.382 2.603-12.041-.347z" fill="url(#paint40_linear)"/><path d="M368.134 310.71a3.157 3.157 0 01-1.509 0 1.37 1.37 0 01-1.041-1.319v-7.03h3.574v7.03a1.322 1.322 0 01-1.024 1.319z" fill="url(#paint41_linear)"/><path d="M395.999 312.88l.208-2.239c.243-.538.729-.92 1.302-1.007 2.168-.347 7.564-.954 10.149.99l.382 2.603-12.041-.347z" fill="url(#paint42_linear)"/><path d="M402.783 310.71a3.16 3.16 0 01-1.51 0 1.37 1.37 0 01-1.041-1.319v-7.776h3.575v7.776c0 .625-.417 1.18-1.024 1.319z" fill="url(#paint43_linear)"/><path d="M365.22 304.08l38.466-1.267a1.853 1.853 0 001.769-1.527c.208-1.198.399-3.003.122-4.878-.313-2.117-2.152-3.697-4.303-3.749-7.183-.173-25.453-.173-35.516 3.819a3.498 3.498 0 00-2.117 2.447c-.26 1.059-.433 2.465-.086 3.906.173.763.885 1.284 1.665 1.249z" fill="url(#paint44_linear)"/><path d="M364.561 302.084c-.087 0-.156-.069-.174-.156 0-.07-.139-1.51.226-2.899.277-1.059 1.128-1.909 2.186-2.222 2.151-.625 6.246-1.701 9.577-1.787.087 0 .174.069.174.156s-.07.173-.156.173c-3.314.087-7.374 1.163-9.491 1.771a2.883 2.883 0 00-1.961 1.979c-.364 1.336-.225 2.759-.225 2.777.017.121-.052.208-.156.208.017 0 0 0 0 0z" fill="#91B3FA"/><path d="M343.497 311.995c12.423-.156 66.191-.729 81.806 1.163a3.175 3.175 0 012.741 2.464c.92 4.166 2.776 13.869 2.568 23.485a2.795 2.795 0 01-2.273 2.655l-35.654 6.752h-12.666l-37.979-7.55a2.972 2.972 0 01-2.394-2.76c-.243-4.843-.625-16.177.676-23.484a3.255 3.255 0 013.175-2.725z" fill="url(#paint45_linear)"/><path d="M391.47 353.826h-11.087a2.855 2.855 0 01-2.845-2.517l-1.284-10.675c-.208-1.701 1.128-3.194 2.845-3.194h13.325a2.873 2.873 0 012.863 3.107l-.954 10.675c-.122 1.475-1.371 2.604-2.863 2.604z" fill="url(#paint46_linear)"/><path d="M390.619 352.576h-9.403a2.423 2.423 0 01-2.412-2.135l-1.093-9.06a2.422 2.422 0 012.412-2.708h11.312a2.435 2.435 0 012.429 2.638l-.816 9.061a2.446 2.446 0 01-2.429 2.204z" fill="#7D97F4"/><path d="M373.253 207.834s11.191 50.526 1.058 78.94c12.44 5.763 10.133 4.686 10.133 4.686s24.602-71.893 16.656-91.09c-15.667-1.666-23.423 2.552-27.847 7.464z" fill="url(#paint47_linear)"/><path d="M374.312 286.774s-6.402 8.297-5.899 11.594c.52 3.298.642 4.652.642 4.652s3.227-2.204 3.019-5.016c-.451 8.939 1.874 8.14 4.58 7.637 2.724-.486 11.486-2.499 8.294-16.333-7.218-5.016-9.248-4.461-10.636-2.534z" fill="url(#paint48_linear)"/><path d="M352.26 188.359l18.46-37.752s49.986 30.132 25.696 101.817c-6.628-4.617-10.046-3.419-18.27-.399-1.995-74.097-25.886-63.666-25.886-63.666z" fill="url(#paint49_linear)"/></g><defs><linearGradient id="paint0_linear" x1="514.694" y1="547.467" x2="158.132" y2="162.763" gradientUnits="userSpaceOnUse"><stop stop-color="#DAE3FE"/><stop offset="1" stop-color="#E9EFFD"/></linearGradient><linearGradient id="paint1_linear" x1="140.583" y1="153.608" x2="142.346" y2="153.608" gradientUnits="userSpaceOnUse"><stop stop-color="#4F52FF"/><stop offset="1" stop-color="#4042E2"/></linearGradient><linearGradient id="paint2_linear" x1="183.139" y1="146.965" x2="184.831" y2="146.965" gradientUnits="userSpaceOnUse"><stop stop-color="#4F52FF"/><stop offset="1" stop-color="#4042E2"/></linearGradient><linearGradient id="paint3_linear" x1="213.923" y1="146.02" x2="217.236" y2="146.02" gradientUnits="userSpaceOnUse"><stop stop-color="#4F52FF"/><stop offset="1" stop-color="#4042E2"/></linearGradient><linearGradient id="paint4_linear" x1="246.345" y1="132.297" x2="248.036" y2="132.297" gradientUnits="userSpaceOnUse"><stop stop-color="#4F52FF"/><stop offset="1" stop-color="#4042E2"/></linearGradient><linearGradient id="paint5_linear" x1="86.083" y1="125.758" x2="97.292" y2="125.758" gradientUnits="userSpaceOnUse"><stop stop-color="#4F52FF"/><stop offset="1" stop-color="#4042E2"/></linearGradient><linearGradient id="paint6_linear" x1="83.183" y1="75.787" x2="92.065" y2="75.787" gradientUnits="userSpaceOnUse"><stop stop-color="#4F52FF"/><stop offset="1" stop-color="#4042E2"/></linearGradient><linearGradient id="paint7_linear" x1="88.174" y1="172.152" x2="269.147" y2="172.152" gradientUnits="userSpaceOnUse"><stop stop-color="#4F52FF"/><stop offset="1" stop-color="#4042E2"/></linearGradient><linearGradient id="paint8_linear" x1="262.824" y1="172.152" x2="270.779" y2="172.152" gradientUnits="userSpaceOnUse"><stop stop-color="#4F52FF"/><stop offset="1" stop-color="#4042E2"/></linearGradient><linearGradient id="paint9_linear" x1="102.178" y1="117.272" x2="250.806" y2="117.272" gradientUnits="userSpaceOnUse"><stop stop-color="#4F52FF"/><stop offset="1" stop-color="#4042E2"/></linearGradient><linearGradient id="paint10_linear" x1="240.834" y1="93.926" x2="251.69" y2="93.926" gradientUnits="userSpaceOnUse"><stop stop-color="#4F52FF"/><stop offset="1" stop-color="#4042E2"/></linearGradient><linearGradient id="paint11_linear" x1="113.719" y1="54.002" x2="80.719" y2="508.756" gradientUnits="userSpaceOnUse"><stop stop-color="#FF928E"/><stop offset="1" stop-color="#FE7062"/></linearGradient><linearGradient id="paint12_linear" x1="115.615" y1="53.971" x2="82.614" y2="508.723" gradientUnits="userSpaceOnUse"><stop stop-color="#FF928E"/><stop offset="1" stop-color="#FE7062"/></linearGradient><linearGradient id="paint13_linear" x1="117.51" y1="53.94" x2="84.509" y2="508.692" gradientUnits="userSpaceOnUse"><stop stop-color="#FF928E"/><stop offset="1" stop-color="#FE7062"/></linearGradient><linearGradient id="paint14_linear" x1="119.405" y1="53.908" x2="86.404" y2="508.661" gradientUnits="userSpaceOnUse"><stop stop-color="#FF928E"/><stop offset="1" stop-color="#FE7062"/></linearGradient><linearGradient id="paint15_linear" x1="121.301" y1="53.876" x2="88.3" y2="508.629" gradientUnits="userSpaceOnUse"><stop stop-color="#FF928E"/><stop offset="1" stop-color="#FE7062"/></linearGradient><linearGradient id="paint16_linear" x1="123.085" y1="53.838" x2="90.085" y2="508.59" gradientUnits="userSpaceOnUse"><stop stop-color="#FF928E"/><stop offset="1" stop-color="#FE7062"/></linearGradient><linearGradient id="paint17_linear" x1="249.05" y1="165.418" x2="204.153" y2="543.342" gradientUnits="userSpaceOnUse"><stop stop-color="#FF928E"/><stop offset="1" stop-color="#FE7062"/></linearGradient><linearGradient id="paint18_linear" x1="252.075" y1="165.546" x2="207.178" y2="543.47" gradientUnits="userSpaceOnUse"><stop stop-color="#FF928E"/><stop offset="1" stop-color="#FE7062"/></linearGradient><linearGradient id="paint19_linear" x1="255.1" y1="165.675" x2="210.203" y2="543.599" gradientUnits="userSpaceOnUse"><stop stop-color="#FF928E"/><stop offset="1" stop-color="#FE7062"/></linearGradient><linearGradient id="paint20_linear" x1="258.125" y1="165.803" x2="213.228" y2="543.727" gradientUnits="userSpaceOnUse"><stop stop-color="#FF928E"/><stop offset="1" stop-color="#FE7062"/></linearGradient><linearGradient id="paint21_linear" x1="261.028" y1="165.919" x2="216.132" y2="543.843" gradientUnits="userSpaceOnUse"><stop stop-color="#FF928E"/><stop offset="1" stop-color="#FE7062"/></linearGradient><linearGradient id="paint22_linear" x1="351.272" y1="18.662" x2="276.371" y2="136.817" gradientUnits="userSpaceOnUse"><stop stop-color="#FF928E"/><stop offset="1" stop-color="#FE7062"/></linearGradient><linearGradient id="paint23_linear" x1="137.181" y1="106.651" x2="273.73" y2="281.282" gradientUnits="userSpaceOnUse"><stop stop-color="#FEBBBA"/><stop offset="1" stop-color="#FF928E"/></linearGradient><linearGradient id="paint24_linear" x1="118.915" y1="120.931" x2="255.465" y2="295.563" gradientUnits="userSpaceOnUse"><stop stop-color="#FEBBBA"/><stop offset="1" stop-color="#FF928E"/></linearGradient><linearGradient id="paint25_linear" x1="343.318" y1="470.43" x2="297.319" y2="470.43" gradientUnits="userSpaceOnUse"><stop stop-color="#4F52FF"/><stop offset="1" stop-color="#4042E2"/></linearGradient><linearGradient id="paint26_linear" x1="343.321" y1="461.411" x2="298.618" y2="461.411" gradientUnits="userSpaceOnUse"><stop stop-color="#09005D"/><stop offset="1" stop-color="#1A0F91"/></linearGradient><linearGradient id="paint27_linear" x1="339.071" y1="448.819" x2="326.114" y2="448.819" gradientUnits="userSpaceOnUse"><stop stop-color="#FEBBBA"/><stop offset="1" stop-color="#FF928E"/></linearGradient><linearGradient id="paint28_linear" x1="425.42" y1="481.84" x2="407.792" y2="481.84" gradientUnits="userSpaceOnUse"><stop stop-color="#4F52FF"/><stop offset="1" stop-color="#4042E2"/></linearGradient><linearGradient id="paint29_linear" x1="425.292" y1="464.292" x2="399.418" y2="464.292" gradientUnits="userSpaceOnUse"><stop stop-color="#09005D"/><stop offset="1" stop-color="#1A0F91"/></linearGradient><linearGradient id="paint30_linear" x1="411.844" y1="442.059" x2="396.359" y2="442.059" gradientUnits="userSpaceOnUse"><stop stop-color="#FEBBBA"/><stop offset="1" stop-color="#FF928E"/></linearGradient><linearGradient id="paint31_linear" x1="286.592" y1="274.889" x2="418.877" y2="491.497" gradientUnits="userSpaceOnUse"><stop stop-color="#09005D"/><stop offset="1" stop-color="#1A0F91"/></linearGradient><linearGradient id="paint32_linear" x1="375.997" y1="158.783" x2="320.552" y2="306.979" gradientUnits="userSpaceOnUse"><stop stop-color="#53D8FF"/><stop offset="1" stop-color="#3840F7"/></linearGradient><linearGradient id="paint33_linear" x1="412.845" y1="57.694" x2="337.943" y2="175.85" gradientUnits="userSpaceOnUse"><stop stop-color="#FF928E"/><stop offset="1" stop-color="#FE7062"/></linearGradient><linearGradient id="paint34_linear" x1="366.496" y1="-9.88" x2="267.063" y2="223.241" gradientUnits="userSpaceOnUse"><stop stop-color="#E1473D"/><stop offset="1" stop-color="#E9605A"/></linearGradient><linearGradient id="paint35_linear" x1="335.556" y1="167.341" x2="328.842" y2="132.102" gradientUnits="userSpaceOnUse"><stop stop-color="#FEBBBA"/><stop offset="1" stop-color="#FF928E"/></linearGradient><linearGradient id="paint36_linear" x1="317.402" y1="102.689" x2="355.695" y2="131.977" gradientUnits="userSpaceOnUse"><stop stop-color="#FEBBBA"/><stop offset="1" stop-color="#FF928E"/></linearGradient><linearGradient id="paint37_linear" x1="344.35" y1="79.486" x2="308.679" y2="125.395" gradientUnits="userSpaceOnUse"><stop stop-color="#09005D"/><stop offset="1" stop-color="#1A0F91"/></linearGradient><linearGradient id="paint38_linear" x1="322.15" y1="96.48" x2="360.444" y2="125.768" gradientUnits="userSpaceOnUse"><stop stop-color="#FEBBBA"/><stop offset="1" stop-color="#FF928E"/></linearGradient><linearGradient id="paint39_linear" x1="391.164" y1="286.413" x2="387.262" y2="323.467" gradientUnits="userSpaceOnUse"><stop stop-color="#4F52FF"/><stop offset="1" stop-color="#4042E2"/></linearGradient><linearGradient id="paint40_linear" x1="370.803" y1="267.852" x2="369.633" y2="283.259" gradientUnits="userSpaceOnUse"><stop stop-color="#4F52FF"/><stop offset="1" stop-color="#4042E2"/></linearGradient><linearGradient id="paint41_linear" x1="366.788" y1="259.839" x2="366.984" y2="275.05" gradientUnits="userSpaceOnUse"><stop stop-color="#4F52FF"/><stop offset="1" stop-color="#4042E2"/></linearGradient><linearGradient id="paint42_linear" x1="405.252" y1="270.47" x2="404.082" y2="285.877" gradientUnits="userSpaceOnUse"><stop stop-color="#4F52FF"/><stop offset="1" stop-color="#4042E2"/></linearGradient><linearGradient id="paint43_linear" x1="401.435" y1="259.395" x2="401.63" y2="274.607" gradientUnits="userSpaceOnUse"><stop stop-color="#4F52FF"/><stop offset="1" stop-color="#4042E2"/></linearGradient><linearGradient id="paint44_linear" x1="385.743" y1="297.591" x2="399.789" y2="267.952" gradientUnits="userSpaceOnUse"><stop stop-color="#4F52FF"/><stop offset="1" stop-color="#4042E2"/></linearGradient><linearGradient id="paint45_linear" x1="409.217" y1="284.497" x2="498.166" y2="125.39" gradientUnits="userSpaceOnUse"><stop stop-color="#4F52FF"/><stop offset="1" stop-color="#4042E2"/></linearGradient><linearGradient id="paint46_linear" x1="389.206" y1="314.578" x2="384.21" y2="354.142" gradientUnits="userSpaceOnUse"><stop stop-color="#09005D"/><stop offset="1" stop-color="#1A0F91"/></linearGradient><linearGradient id="paint47_linear" x1="365.163" y1="376.14" x2="392.164" y2="182.3" gradientUnits="userSpaceOnUse"><stop stop-color="#FEBBBA"/><stop offset="1" stop-color="#FF928E"/></linearGradient><linearGradient id="paint48_linear" x1="372.048" y1="332.454" x2="386.086" y2="231.677" gradientUnits="userSpaceOnUse"><stop stop-color="#FEBBBA"/><stop offset="1" stop-color="#FF928E"/></linearGradient><linearGradient id="paint49_linear" x1="456.963" y1="85.66" x2="382.061" y2="203.816" gradientUnits="userSpaceOnUse"><stop stop-color="#FF928E"/><stop offset="1" stop-color="#FE7062"/></linearGradient><clipPath id="clip0"><path fill="#fff" d="M0 0h487v486H0z"/></clipPath></defs></svg>