<svg width="456" height="453" fill="none" xmlns="http://www.w3.org/2000/svg"><path opacity=".1" d="M401.13 389.597c-11.871 12.228-22.486 19.417-30.623 24.846-79.296 52.937-169.958 37.677-197.972 32.46-45.217-8.413-83.39-14.347-116.181-43.97-74.52-67.316-70.9-207.735-13.958-294.729 6.75-10.32 63.61-94.574 154.451-106.443 2.218-.294 3.881-.457 5.332-.603 14.056-1.484 101.147-9.342 172.16 50.148 10.159 8.51 26.53 23.868 41.695 47.296 55.473 85.64 55.636 218.299-14.904 290.995z" fill="#615BE7"/><path d="M15.279 22.727c-.05-4.663 4.044-8.299 8.675-7.696 30.72 3.995 136.351 16.32 223.589 9.18 3.978-.327 7.452 2.673 7.68 6.65l19.094 327.206c.261 4.483-3.147 8.347-7.631 8.624-36.689 2.364-187.813 11.543-241.77 6.179a6.474 6.474 0 01-5.822-6.375L15.28 22.726z" fill="#91B3FA"/><path opacity=".8" d="M18.948 30.91c-.05-4.499 3.88-7.988 8.348-7.417 29.563 3.847 131.216 15.716 215.159 8.82 3.832-.31 7.175 2.576 7.387 6.407l18.377 314.896c.245 4.32-3.033 8.021-7.338 8.298-35.319 2.266-180.753 11.102-232.671 5.951a6.228 6.228 0 01-5.61-6.13L18.948 30.911z" fill="#615BE7"/><path opacity=".78" d="M46.407 55.056l3.49 67.511a4.29 4.29 0 004.19 4.076c12.507.293 51.495 1.043 73.492-.228a4.793 4.793 0 004.517-4.663c.358-12.668 1.076-49.53-1.892-64.92a5.378 5.378 0 00-5.153-4.369l-73.948-2.2c-2.658-.098-4.827 2.119-4.696 4.793z" fill="#fff"/><path d="M89.08 93.482c8.015 0 14.512-6.496 14.512-14.51 0-8.013-6.497-14.51-14.512-14.51s-14.513 6.497-14.513 14.51c0 8.014 6.498 14.51 14.513 14.51z" fill="url(#paint0_linear)"/><path d="M67.247 121.703l46.26-.244c2.837-.017 4.517-3.147 2.984-5.544-3.962-6.13-12.229-15.113-26.465-14.624-13.713.457-21.8 8.657-25.861 14.527-1.729 2.51.049 5.901 3.082 5.885z" fill="url(#paint1_linear)"/><path opacity=".6" d="M231.417 59.963c1.451 0 2.592-1.027 2.56-2.282-.049-1.24-1.256-2.283-2.707-2.3l-81.09-1.01c-1.452-.016-2.234 1.076-1.745 2.445l.391 1.093c.489 1.37 2.071 2.478 3.522 2.462l79.069-.408zm-81.173 6.994c-1.451-.016-2.234 1.076-1.745 2.445l.392 1.093c.489 1.37 2.07 2.478 3.522 2.462l79.068-.408c1.451 0 2.593-1.027 2.56-2.283-.049-1.239-1.256-2.282-2.707-2.298l-81.09-1.011zm.065 12.765c-1.451-.016-2.234 1.076-1.744 2.446l.391 1.092c.489 1.37 2.071 2.478 3.522 2.462l79.068-.408c1.452 0 2.593-1.027 2.56-2.282-.049-1.24-1.255-2.282-2.706-2.299l-81.091-1.01zm89.423 67.153c1.451 0 2.56-1.027 2.478-2.282-.081-1.239-1.353-2.266-2.788-2.266l-189.933-.506c-1.452 0-1.892.913-.979 2.038l1.566 1.94c.913 1.125 2.837 2.038 4.288 2.038l185.368-.962zm-190.194 7.532c-1.452 0-1.892.913-.979 2.038l1.566 1.94c.913 1.125 2.837 2.038 4.288 2.038l185.4-.962c1.452 0 2.56-1.027 2.479-2.282-.082-1.239-1.353-2.266-2.788-2.266l-189.966-.506zm-.75 21.015c4.566-.375 13.11-.587 17.823-.668a4.265 4.265 0 014.223 3.244c.93 3.766 2.218 10.287 2.087 17.216a3.8 3.8 0 01-3.8 3.734l-17.365-.098a4.171 4.171 0 01-4.126-3.766l-1.614-16.336a3.057 3.057 0 012.772-3.326zm32.172 6.554c-1.452-.049-2.446 1.076-2.234 2.511l.44 2.804c.228 1.434 1.598 2.592 3.033 2.592l42.184-.212c1.451 0 2.609-1.206 2.592-2.641l-.016-.717c-.032-1.451-1.223-2.674-2.674-2.723l-43.325-1.614zm62.468-7.043c4.566-.375 13.11-.587 17.822-.669a4.268 4.268 0 014.224 3.245c.929 3.766 2.217 10.287 2.087 17.216a3.8 3.8 0 01-3.799 3.733l-17.366-.097a4.172 4.172 0 01-4.126-3.766l-1.614-16.336a3.057 3.057 0 012.772-3.326zm32.172 6.538c-1.451-.049-2.446 1.076-2.234 2.51l.441 2.804c.228 1.435 1.598 2.592 3.033 2.592l42.183-.211c1.452 0 2.609-1.207 2.593-2.642l-.016-.717c-.033-1.451-1.223-2.674-2.674-2.722l-43.326-1.614z" fill="#fff"/><path d="M73.638 240.129h-.049l-16.029-.065c-2.282-.016-4.19-1.581-4.419-3.635l-1.483-13.434a2.906 2.906 0 01.685-2.201 3.522 3.522 0 012.445-1.223c1.354-.098 3.245-.277 5.267-.456 4.24-.392 9.507-.865 12.474-.913 2.153-.017 3.996 1.239 4.501 3.113.848 3.082.815 8.935.685 15.146-.033 2.022-1.86 3.652-4.077 3.668zm-18.752-19.352c-.636.049-1.223.327-1.598.783-.31.375-.456.832-.407 1.272l1.483 13.434c.164 1.451 1.533 2.543 3.197 2.543l16.028.065h.033c1.55 0 2.837-1.109 2.854-2.462.13-6.13.163-11.868-.636-14.803-.36-1.304-1.729-2.217-3.294-2.217-2.919.049-8.17.521-12.393.913-2.005.212-3.897.375-5.267.472z" fill="#fff"/><path opacity=".6" d="M56.615 222.163c3.359-.244 10.68-1.027 14.154-1.092 1.467-.033 2.772.848 3.114 2.136.685 2.478.62 7.418.522 11.966-.033 1.37-1.272 2.462-2.805 2.462l-12.816-.049c-1.582 0-2.887-1.076-3.05-2.478l-1.174-10.744c-.114-1.125.816-2.119 2.055-2.201zm31.062 8.967a3.985 3.985 0 003.898 2.951l148.304-2.038a3.007 3.007 0 002.967-3.098 3.025 3.025 0 00-3.016-2.934l-148.32.098c-2.61 0-4.517 2.494-3.833 5.021z" fill="#fff"/><path d="M73.818 274.48h-.049l-16.029-.065c-2.283-.016-4.19-1.582-4.419-3.636l-1.484-13.434a2.908 2.908 0 01.685-2.201 3.52 3.52 0 012.446-1.222c1.354-.098 3.245-.277 5.267-.457 4.24-.391 9.507-.864 12.474-.913h.065c2.104-.016 3.93 1.256 4.436 3.114.848 3.081.815 8.934.684 15.146-.032 2.021-1.858 3.652-4.076 3.668zm-18.752-19.352c-.636.049-1.223.326-1.598.783-.31.375-.457.831-.408 1.271l1.484 13.434c.163 1.451 1.533 2.544 3.196 2.544l16.03.065h.032c1.549 0 2.837-1.109 2.853-2.462.13-6.13.163-11.869-.636-14.803-.358-1.305-1.744-2.25-3.294-2.218-2.918.049-8.169.522-12.392.913-2.006.196-3.914.375-5.267.473z" fill="#fff"/><path opacity=".6" d="M56.794 256.514c3.36-.244 10.681-1.027 14.154-1.092 1.468-.033 2.772.848 3.115 2.136.684 2.478.62 7.417.522 11.966-.033 1.369-1.272 2.462-2.805 2.462l-12.817-.049c-1.581 0-2.886-1.076-3.049-2.478l-1.174-10.744c-.114-1.125.815-2.119 2.054-2.201zm31.063 8.967a3.986 3.986 0 003.897 2.951l148.304-2.038a3.008 3.008 0 002.968-3.098 3.025 3.025 0 00-3.017-2.934l-148.32.097c-2.609 0-4.517 2.495-3.832 5.022z" fill="#fff"/><path d="M73.997 308.831h-.05l-16.028-.065c-2.283-.017-4.19-1.582-4.42-3.636l-1.483-13.434a2.908 2.908 0 01.685-2.201 3.52 3.52 0 012.446-1.222c1.353-.098 3.245-.278 5.267-.457 4.24-.391 9.506-.864 12.474-.913h.065c2.104-.016 3.93 1.255 4.435 3.114.848 3.081.816 8.934.685 15.146-.032 2.021-1.859 3.652-4.076 3.668zm-18.752-19.352c-.636.049-1.223.326-1.598.783-.31.375-.457.831-.408 1.271l1.484 13.434c.163 1.451 1.533 2.543 3.196 2.543l16.029.065h.032c1.55 0 2.838-1.108 2.854-2.461.13-6.13.163-11.869-.636-14.804-.359-1.304-1.745-2.249-3.294-2.217-2.919.049-8.17.522-12.392.913-2.006.196-3.914.375-5.267.473z" fill="#fff"/><path opacity=".6" d="M56.973 290.865c3.36-.245 10.68-1.027 14.154-1.092 1.468-.033 2.772.847 3.114 2.135.685 2.478.62 7.418.522 11.967-.032 1.369-1.272 2.461-2.805 2.461l-12.816-.048c-1.582 0-2.886-1.076-3.05-2.479l-1.173-10.743c-.114-1.125.815-2.12 2.054-2.201zm31.064 8.966a3.984 3.984 0 003.897 2.951l148.304-2.038a3.007 3.007 0 002.968-3.097 3.026 3.026 0 00-3.017-2.935l-148.32.098c-2.61 0-4.517 2.494-3.832 5.021z" fill="#fff"/><path d="M74.176 343.182h-.049l-16.028-.066c-2.283-.016-4.191-1.581-4.42-3.635l-1.483-13.434a2.906 2.906 0 01.685-2.201 3.526 3.526 0 012.446-1.223c1.353-.097 3.245-.277 5.266-.456 4.24-.391 9.507-.864 12.475-.913h.065c2.103-.016 3.93 1.255 4.435 3.114.848 3.081.815 8.934.685 15.145-.033 2.022-1.859 3.652-4.077 3.669zM55.424 323.83c-.636.049-1.223.326-1.598.782-.31.375-.456.832-.407 1.272l1.484 13.434c.163 1.451 1.532 2.543 3.196 2.543l16.029.065h.032c1.55 0 2.837-1.108 2.854-2.462.13-6.13.163-11.868-.636-14.803-.359-1.304-1.745-2.25-3.294-2.217-2.919.049-8.17.522-12.393.913a234.67 234.67 0 01-5.267.473z" fill="#fff"/><path opacity=".6" d="M57.153 325.216c3.359-.245 10.68-1.027 14.154-1.093 1.467-.032 2.772.848 3.114 2.136.685 2.478.62 7.418.522 11.966-.033 1.37-1.272 2.462-2.805 2.462l-12.816-.049c-1.582 0-2.887-1.076-3.05-2.478l-1.174-10.743c-.114-1.125.816-2.12 2.055-2.201zm31.064 8.966a3.984 3.984 0 003.897 2.951l148.304-2.038a3.006 3.006 0 002.967-3.097 3.025 3.025 0 00-3.016-2.935l-148.32.098c-2.61 0-4.517 2.494-3.832 5.021z" fill="#fff"/><path d="M57.854 327.319a2.45 2.45 0 013.391.913l3.196 5.657a.784.784 0 001.403-.065l7.745-17.493c.392-.881 1.68-.587 1.68.375-.05 5.347-1.419 15.504-9.898 24.03 0 0-4.713-1.809-8.545-10.091-.554-1.223-.114-2.658 1.028-3.326z" fill="url(#paint2_linear)"/><path d="M34.65 43.105c-.05-4.662 4.044-8.298 8.675-7.695 30.72 3.995 136.351 16.32 223.589 9.18 3.979-.327 7.452 2.673 7.68 6.65l19.095 327.205c.26 4.484-3.148 8.348-7.632 8.625-36.688 2.364-187.813 11.542-241.77 6.179a6.474 6.474 0 01-5.822-6.375L34.65 43.105z" fill="#91B3FA"/><path d="M38.302 51.29c-.049-4.5 3.881-7.989 8.349-7.418 29.563 3.847 131.215 15.716 215.159 8.82 3.832-.31 7.175 2.576 7.387 6.407l18.393 314.896c.244 4.32-3.033 8.021-7.338 8.298-35.319 2.266-180.753 11.102-232.672 5.951a6.228 6.228 0 01-5.609-6.13L38.302 51.29z" fill="#E1E0FB"/><path opacity=".78" d="M65.778 75.435l3.49 67.511a4.29 4.29 0 004.19 4.076c12.507.293 51.495 1.043 73.492-.228a4.793 4.793 0 004.517-4.663c.358-12.668 1.076-49.529-1.892-64.92a5.378 5.378 0 00-5.153-4.368l-73.948-2.201a4.555 4.555 0 00-4.696 4.793z" fill="#fff"/><path opacity=".8" d="M108.451 113.861c8.015 0 14.512-6.496 14.512-14.51 0-8.013-6.497-14.51-14.512-14.51s-14.512 6.497-14.512 14.51c0 8.014 6.497 14.51 14.512 14.51zm-21.834 28.221l46.261-.244c2.837-.017 4.516-3.147 2.984-5.544-3.963-6.13-12.23-15.113-26.465-14.623-13.714.456-21.802 8.657-25.862 14.526-1.745 2.51.05 5.901 3.082 5.885z" fill="#615BE7"/><path opacity=".6" d="M250.771 80.342c1.452 0 2.593-1.027 2.56-2.282-.049-1.24-1.255-2.283-2.706-2.3l-81.074-1.026c-1.452-.017-2.234 1.076-1.745 2.445l.391 1.093c.489 1.369 2.071 2.478 3.522 2.461l79.052-.391zm-81.172 6.994c-1.451-.016-2.233 1.076-1.744 2.445l.391 1.093c.489 1.37 2.071 2.478 3.522 2.462l79.068-.408c1.452 0 2.593-1.027 2.561-2.282-.049-1.24-1.256-2.283-2.707-2.3l-81.091-1.01zm.082 12.765c-1.452-.016-2.234 1.077-1.745 2.446l.391 1.092c.489 1.37 2.071 2.478 3.522 2.462l79.068-.408c1.452 0 2.593-1.027 2.56-2.282-.048-1.239-1.255-2.282-2.706-2.299l-81.09-1.011zm89.422 67.153c1.451 0 2.56-1.027 2.478-2.282-.081-1.239-1.353-2.266-2.788-2.266L68.86 162.2c-1.451 0-1.892.913-.979 2.038l1.566 1.94c.913 1.125 2.837 2.038 4.288 2.038l185.368-.962zm-190.194 7.532c-1.452 0-1.892.913-.979 2.038l1.566 1.94c.913 1.125 2.837 2.038 4.288 2.038l185.4-.962c1.452 0 2.561-1.027 2.479-2.282-.082-1.239-1.353-2.266-2.788-2.266l-189.966-.506zm-.749 21.031c4.565-.375 13.11-.587 17.822-.668a4.265 4.265 0 014.223 3.244c.93 3.766 2.218 10.288 2.088 17.216a3.8 3.8 0 01-3.8 3.734l-17.366-.098a4.17 4.17 0 01-4.125-3.766l-1.614-16.336c-.164-1.695 1.076-3.195 2.771-3.326zm32.154 6.538c-1.451-.049-2.446 1.076-2.234 2.511l.44 2.804c.229 1.434 1.598 2.592 3.033 2.592l42.184-.212c1.452 0 2.609-1.206 2.593-2.641l-.016-.717c-.033-1.451-1.223-2.674-2.675-2.723l-43.325-1.614zm62.485-7.043c4.566-.375 13.11-.587 17.823-.668a4.265 4.265 0 014.223 3.244c.929 3.766 2.218 10.287 2.087 17.216a3.8 3.8 0 01-3.799 3.733l-17.366-.097a4.172 4.172 0 01-4.126-3.766l-1.614-16.336a3.046 3.046 0 012.772-3.326zm32.156 6.554c-1.451-.049-2.446 1.076-2.234 2.51l.44 2.805c.228 1.434 1.598 2.592 3.033 2.592l42.184-.212c1.451 0 2.609-1.207 2.593-2.641l-.017-.718c-.032-1.451-1.223-2.673-2.674-2.722l-43.325-1.614z" fill="#fff"/><path d="M93.01 260.508h-.05l-16.028-.065c-2.283-.016-4.191-1.581-4.42-3.635l-1.483-13.434a2.906 2.906 0 01.685-2.201 3.522 3.522 0 012.446-1.223c1.353-.098 3.245-.277 5.266-.457 4.24-.391 9.507-.864 12.475-.913 2.152-.016 3.995 1.24 4.5 3.114.848 3.082.815 8.935.685 15.146-.033 2.022-1.859 3.652-4.077 3.668zm-18.753-19.352c-.636.049-1.223.326-1.598.783-.31.375-.456.831-.407 1.272l1.484 13.433c.163 1.451 1.532 2.544 3.196 2.544l16.028.065h.033c1.55 0 2.837-1.109 2.854-2.462.13-6.13.163-11.869-.636-14.803-.359-1.304-1.729-2.217-3.294-2.217-2.919.049-8.17.521-12.393.913a163.74 163.74 0 01-5.267.472z" fill="#fff"/><path opacity=".6" d="M75.986 242.542c3.36-.244 10.68-1.027 14.154-1.092 1.467-.033 2.772.848 3.114 2.136.685 2.478.62 7.418.522 11.966-.033 1.37-1.272 2.462-2.805 2.462l-12.816-.049c-1.582 0-2.886-1.076-3.05-2.478l-1.174-10.744c-.114-1.125.8-2.103 2.055-2.201zm31.063 8.967a3.983 3.983 0 003.897 2.951l148.304-2.038a3.007 3.007 0 002.967-3.098 3.024 3.024 0 00-3.016-2.934l-148.32.098c-2.609 0-4.517 2.494-3.832 5.021z" fill="#fff"/><path d="M93.19 294.859h-.05l-16.029-.065c-2.283-.016-4.19-1.582-4.419-3.636l-1.483-13.434a2.904 2.904 0 01.684-2.2 3.518 3.518 0 012.446-1.223c1.354-.098 3.245-.277 5.267-.457 4.24-.391 9.507-.864 12.474-.913h.066c2.103-.016 3.93 1.256 4.435 3.114.848 3.082.815 8.934.685 15.146-.033 2.021-1.86 3.652-4.077 3.668zm-18.753-19.352c-.636.049-1.223.326-1.598.783-.31.375-.457.831-.408 1.271l1.484 13.434c.163 1.451 1.533 2.544 3.196 2.544l16.03.065h.032c1.549 0 2.837-1.109 2.853-2.462.13-6.13.163-11.869-.636-14.803-.358-1.305-1.744-2.25-3.293-2.218-2.92.049-8.17.522-12.393.913-2.006.212-3.913.375-5.267.473z" fill="#fff"/><path opacity=".6" d="M76.166 276.893c3.359-.245 10.68-1.027 14.154-1.092 1.467-.033 2.772.847 3.114 2.135.685 2.478.62 7.418.522 11.967-.033 1.369-1.272 2.462-2.805 2.462l-12.816-.049c-1.582 0-2.887-1.076-3.05-2.478l-1.174-10.744c-.114-1.125.8-2.103 2.055-2.201zm31.045 8.967a3.985 3.985 0 003.898 2.951l148.32-2.038a3.007 3.007 0 002.968-3.098 3.025 3.025 0 00-3.017-2.934l-148.32.097c-2.626 0-4.517 2.495-3.849 5.022z" fill="#fff"/><path d="M93.368 329.21h-.05l-16.028-.065c-2.283-.017-4.19-1.582-4.419-3.636l-1.484-13.434a2.908 2.908 0 01.685-2.201 3.52 3.52 0 012.446-1.222c1.353-.098 3.245-.278 5.267-.457 4.24-.391 9.506-.864 12.474-.913h.065c2.104-.016 3.93 1.255 4.436 3.114.847 3.081.815 8.934.684 15.146-.032 2.021-1.859 3.652-4.076 3.668zm-18.752-19.352c-.636.049-1.223.326-1.598.783-.31.375-.457.831-.408 1.271l1.484 13.434c.163 1.451 1.533 2.543 3.196 2.543l16.029.066h.032c1.55 0 2.838-1.109 2.854-2.462.13-6.13.163-11.869-.636-14.804-.359-1.304-1.745-2.249-3.294-2.217-2.919.049-8.17.522-12.392.913-2.006.212-3.914.375-5.267.473z" fill="#fff"/><path opacity=".6" d="M76.344 311.244c3.36-.245 10.681-1.027 14.154-1.092 1.468-.033 2.772.847 3.115 2.135.684 2.478.62 7.418.521 11.967-.032 1.369-1.271 2.462-2.804 2.462l-12.817-.049c-1.582 0-2.886-1.076-3.05-2.478l-1.173-10.744c-.114-1.125.799-2.103 2.054-2.201zm31.047 8.966a3.984 3.984 0 003.897 2.951l148.304-2.038a3.007 3.007 0 002.968-3.097 3.026 3.026 0 00-3.017-2.935l-148.32.098c-2.609 0-4.5 2.495-3.832 5.021z" fill="#fff"/><path d="M93.547 363.561H93.5l-16.03-.066c-2.282-.016-4.19-1.581-4.418-3.635l-1.484-13.434a2.907 2.907 0 01.685-2.201c.587-.701 1.484-1.157 2.446-1.223 1.353-.097 3.245-.277 5.267-.456 4.24-.391 9.506-.864 12.474-.913h.065c2.103-.016 3.93 1.255 4.435 3.114.848 3.081.815 8.934.685 15.145-.033 2.022-1.859 3.652-4.076 3.669zm-18.751-19.352c-.637.049-1.224.326-1.599.782-.31.375-.456.832-.407 1.272l1.484 13.434c.163 1.451 1.532 2.543 3.196 2.543l16.029.065h.032c1.55 0 2.837-1.108 2.854-2.461.13-6.13.163-11.869-.636-14.804-.359-1.304-1.745-2.25-3.294-2.217-2.919.049-8.17.522-12.393.913-2.005.212-3.913.375-5.266.473z" fill="#fff"/><path opacity=".6" d="M76.524 345.595c3.36-.245 10.68-1.027 14.154-1.093 1.467-.032 2.772.848 3.114 2.136.685 2.478.62 7.418.522 11.967-.032 1.369-1.272 2.461-2.804 2.461l-12.817-.049c-1.582 0-2.886-1.076-3.05-2.478l-1.173-10.743c-.114-1.125.799-2.12 2.054-2.201zm31.047 8.966a3.984 3.984 0 003.897 2.951l148.304-2.038a3.007 3.007 0 002.968-3.097 3.025 3.025 0 00-3.017-2.935l-148.32.098c-2.609 0-4.501 2.494-3.832 5.021z" fill="#fff"/><path d="M77.209 347.698a2.45 2.45 0 013.392.913l3.196 5.657a.784.784 0 001.402-.065l7.745-17.494c.392-.88 1.68-.586 1.68.375-.05 5.348-1.419 15.505-9.898 24.031 0 0-4.713-1.809-8.544-10.091-.538-1.223-.098-2.658 1.027-3.326z" fill="url(#paint3_linear)"/><path d="M76.36 311.978a2.45 2.45 0 013.392.912l3.196 5.658a.784.784 0 001.402-.065l7.746-17.494c.391-.88 1.68-.587 1.68.375-.05 5.348-1.42 15.504-9.899 24.031 0 0-4.712-1.81-8.544-10.092-.538-1.222-.098-2.657 1.027-3.325z" fill="url(#paint4_linear)"/><path d="M76.36 277.708a2.45 2.45 0 013.392.913l3.196 5.657a.784.784 0 001.402-.065l7.746-17.493c.391-.881 1.68-.587 1.68.375-.05 5.347-1.42 15.504-9.899 24.031 0 0-4.712-1.81-8.544-10.092-.538-1.239-.098-2.657 1.027-3.326z" fill="url(#paint5_linear)"/><path d="M77.209 243.716a2.45 2.45 0 013.392.913l3.196 5.657a.784.784 0 001.402-.065l7.745-17.493c.392-.881 1.68-.587 1.68.375-.05 5.347-1.419 15.504-9.898 24.031 0 0-4.713-1.81-8.544-10.092-.538-1.223-.098-2.657 1.027-3.326z" fill="url(#paint6_linear)"/><path d="M203.858 342.872l2.56 79.429c.441 13.858 11.822 24.879 25.748 24.96l190.259 1.125c9.311.049 17.236-6.701 18.589-15.863 2.968-20.053 6.767-55.952 2.495-89.635H203.858v-.016z" fill="url(#paint7_linear)"/><path d="M418.463 443.854a.575.575 0 01-.571-.554.565.565 0 01.539-.587c1.092-.049 2.201-.18 3.261-.441a.576.576 0 01.685.424.576.576 0 01-.424.685 17.82 17.82 0 01-3.474.457c0 .016 0 .016-.016.016zm-7.941-.033l-3.408-.016a.578.578 0 01-.571-.571c0-.309.261-.57.571-.57l3.408.016c.31 0 .571.261.571.571 0 .309-.261.57-.571.57zm-11.349-.065s-.016 0 0 0l-3.408-.016a.578.578 0 01-.571-.571c0-.31.261-.57.571-.57l3.408.016c.31 0 .571.261.571.57-.017.31-.261.571-.571.571zm-11.365-.065l-3.408-.017a.577.577 0 01-.571-.57c0-.31.261-.571.571-.571l3.408.017c.31 0 .57.26.57.57 0 .31-.26.571-.57.571zm-11.349-.082l-3.408-.016a.578.578 0 01-.571-.571c0-.309.31-.57.571-.57l3.408.016c.309 0 .57.261.57.571 0 .326-.261.57-.57.57zm-11.349-.065s-.017 0 0 0l-3.408-.016a.578.578 0 01-.571-.571c0-.31.261-.57.571-.57l3.408.016c.309 0 .57.261.57.57-.016.327-.261.571-.57.571zm-11.366-.065l-3.408-.016a.577.577 0 01-.57-.571c0-.31.26-.571.57-.571l3.408.017c.31 0 .571.26.571.57a.568.568 0 01-.571.571zm-11.349-.065l-3.408-.017a.578.578 0 01-.571-.57c0-.31.261-.571.571-.571l3.408.016c.31 0 .571.261.571.571a.568.568 0 01-.571.571zm-11.349-.066s-.016 0 0 0l-3.408-.016a.578.578 0 01-.571-.57c0-.31.261-.571.571-.571l3.408.016c.31 0 .571.261.571.571-.016.326-.261.57-.571.57zm-11.365-.065l-3.408-.016a.578.578 0 01-.571-.571c0-.309.261-.57.571-.57l3.408.016c.31 0 .571.261.571.571 0 .326-.261.57-.571.57zm-11.349-.065l-3.408-.016a.578.578 0 01-.571-.571c0-.31.261-.57.571-.57l3.408.016c.31 0 .57.261.57.57 0 .31-.26.571-.57.571zm-11.349-.065s-.017 0 0 0l-3.408-.016a.578.578 0 01-.571-.571c0-.31.261-.571.571-.571l3.408.017c.31 0 .57.26.57.57-.016.31-.26.571-.57.571zm-11.366-.065l-3.408-.017a.578.578 0 01-.57-.57c0-.31.261-.571.57-.571l3.408.016c.31 0 .571.261.571.571 0 .31-.261.571-.571.571zm-11.349-.066l-3.408-.016a.578.578 0 01-.57-.571c0-.309.261-.57.57-.57l3.408.016c.31 0 .571.261.571.571 0 .31-.261.57-.571.57zm-11.349-.081s-.016 0 0 0l-3.408-.016a.577.577 0 01-.57-.571c0-.31.293-.522.57-.571l3.408.017c.31 0 .571.26.571.57-.016.326-.261.571-.571.571zm-11.365-.065l-3.408-.017a.578.578 0 01-.571-.57c0-.31.261-.571.571-.571l3.408.016c.31 0 .571.261.571.571a.568.568 0 01-.571.571zm-11.349-.066l-3.408-.016a.578.578 0 01-.571-.57c0-.31.261-.571.571-.571l3.408.016c.31 0 .571.261.571.571 0 .326-.261.57-.571.57zm-11.219-1.271c-.065 0-.114-.016-.179-.033a23.973 23.973 0 01-3.229-1.32.587.587 0 01-.261-.767.586.586 0 01.767-.26c.994.489 2.038.912 3.082 1.255a.572.572 0 01.358.717.566.566 0 01-.538.408zm199.946-1.582a.549.549 0 01-.441-.212.568.568 0 01.082-.798 16.566 16.566 0 002.364-2.299.552.552 0 01.799-.065c.245.195.261.554.066.798a18.749 18.749 0 01-2.512 2.446.513.513 0 01-.358.13zm-209.534-4.287a.507.507 0 01-.391-.163 24.848 24.848 0 01-2.299-2.609.57.57 0 01.098-.799.56.56 0 01.799.114 22.658 22.658 0 002.201 2.495.552.552 0 010 .799.648.648 0 01-.408.163zm215.6-5.071c-.049 0-.098 0-.147-.016a.56.56 0 01-.408-.685c.147-.587.277-1.19.359-1.777l.228-1.5a.58.58 0 01.636-.489c.31.049.522.326.473.636l-.228 1.516a19.875 19.875 0 01-.392 1.908c-.032.244-.261.407-.521.407zm-221.584-4.467a.571.571 0 01-.538-.391 26.065 26.065 0 01-.897-3.358.573.573 0 01.457-.669.584.584 0 01.668.457c.212 1.092.489 2.168.848 3.211a.572.572 0 01-.359.718c-.065.032-.114.032-.179.032zm223.247-6.766h-.065a.558.558 0 01-.49-.635c.131-1.093.278-2.218.408-3.375a.581.581 0 01.636-.505.58.58 0 01.505.635c-.13 1.158-.26 2.283-.407 3.391-.065.278-.31.489-.587.489zm-224.666-4.434a.574.574 0 01-.57-.554l-.115-3.408a.568.568 0 01.555-.587c.293-.016.571.229.587.555l.114 3.407a.566.566 0 01-.554.587h-.017zm225.905-6.847h-.049a.566.566 0 01-.505-.62c.097-1.108.212-2.25.309-3.391.033-.31.294-.522.62-.522.31.033.538.31.522.62a190.346 190.346 0 01-.31 3.391.595.595 0 01-.587.522zm-226.28-4.5a.574.574 0 01-.57-.554l-.115-3.408a.568.568 0 01.555-.587c.31 0 .571.229.587.555l.114 3.407a.566.566 0 01-.554.587h-.017zm227.193-6.815h-.032a.554.554 0 01-.522-.603c.081-1.125.147-2.25.212-3.391a.578.578 0 01.603-.538c.31.016.554.277.538.603-.065 1.141-.13 2.283-.212 3.408a.596.596 0 01-.587.521zm-227.551-4.532a.575.575 0 01-.571-.554l-.114-3.408a.567.567 0 01.554-.587c.31-.016.571.245.587.555l.114 3.407a.566.566 0 01-.554.587h-.016zm228.122-6.815h-.016a.59.59 0 01-.555-.587l.098-3.391c0-.309.31-.538.587-.554.31 0 .554.261.554.587l-.097 3.407a.572.572 0 01-.571.538zm-228.481-4.532a.575.575 0 01-.571-.554l-.114-3.408a.568.568 0 01.554-.587c.294.017.571.245.587.555l.115 3.407a.567.567 0 01-.555.587h-.016zm228.677-6.815a.578.578 0 01-.571-.57c0-1.125-.016-2.266-.016-3.408 0-.309.244-.57.554-.57.277 0 .571.244.571.554.016 1.141.016 2.282.016 3.407a.558.558 0 01-.554.587zm-229.052-4.532a.575.575 0 01-.571-.554l-.114-3.408a.568.568 0 01.554-.587c.261 0 .571.229.587.555l.115 3.407a.567.567 0 01-.555.587h-.016zm228.807-6.815a.572.572 0 01-.571-.538c-.049-1.125-.098-2.266-.163-3.391a.578.578 0 01.538-.603c.31-.033.587.228.604.538.065 1.141.114 2.266.163 3.407a.564.564 0 01-.538.587h-.033zm-229.166-4.532a.575.575 0 01-.571-.554l-.114-3.408a.568.568 0 01.555-.587c.261-.032.57.229.587.555l.114 3.407a.567.567 0 01-.555.587h-.016zm228.432-6.798a.583.583 0 01-.571-.522c-.097-1.125-.212-2.25-.326-3.375a.566.566 0 011.125-.114c.115 1.125.229 2.266.327 3.391a.569.569 0 01-.522.62h-.033zm-228.807-4.549a.575.575 0 01-.571-.554l-.114-3.408a.568.568 0 01.555-.587c.277 0 .57.229.587.555l.114 3.407a.567.567 0 01-.555.587h-.016zm224.6-3.407h-3.408a.577.577 0 01-.57-.571c0-.31.26-.571.57-.571h3.408c.31 0 .571.261.571.571a.568.568 0 01-.571.571zm-11.349 0h-3.408a.578.578 0 01-.571-.571c0-.31.261-.571.571-.571h3.408c.31 0 .571.261.571.571a.568.568 0 01-.571.571zm-11.365 0h-3.408a.578.578 0 01-.571-.571c0-.31.261-.571.571-.571h3.408c.31 0 .571.261.571.571a.558.558 0 01-.571.571zm-11.349 0h-3.408a.578.578 0 01-.571-.571c0-.31.261-.571.571-.571h3.408c.31 0 .57.261.57.571 0 .326-.26.571-.57.571zm-11.349 0h-3.408a.578.578 0 01-.571-.571c0-.31.261-.571.571-.571h3.408c.31 0 .57.261.57.571 0 .326-.26.571-.57.571zm-11.366 0h-3.391a.578.578 0 01-.571-.571c0-.31.261-.571.571-.571h3.408c.309 0 .57.261.57.571a.58.58 0 01-.587.571zm-11.349 0h-3.408a.578.578 0 01-.57-.571c0-.31.261-.571.57-.571h3.408c.31 0 .571.261.571.571a.568.568 0 01-.571.571zm-11.349 0h-3.408a.577.577 0 01-.57-.571c0-.31.26-.571.57-.571h3.408c.31 0 .571.261.571.571a.568.568 0 01-.571.571zm-11.365 0h-3.408a.578.578 0 01-.571-.571c0-.31.261-.571.571-.571h3.408c.31 0 .571.261.571.571a.558.558 0 01-.571.571zm-11.349 0h-3.408a.578.578 0 01-.571-.571c0-.31.261-.571.571-.571h3.408c.31 0 .571.261.571.571a.568.568 0 01-.571.571zm-11.349 0h-3.408a.578.578 0 01-.571-.571c0-.31.261-.571.571-.571h3.408c.31 0 .571.261.571.571-.017.326-.261.571-.571.571zm-11.366 0h-3.407a.578.578 0 01-.571-.571c0-.31.261-.571.571-.571h3.407c.31 0 .571.261.571.571a.557.557 0 01-.571.571zm-11.349 0h-3.408a.578.578 0 01-.57-.571c0-.31.261-.571.57-.571h3.408c.31 0 .571.261.571.571a.568.568 0 01-.571.571zm-11.349 0h-3.408a.578.578 0 01-.57-.571c0-.31.261-.571.57-.571h3.408c.31 0 .571.261.571.571-.016.326-.261.571-.571.571zm-11.365 0h-3.408a.578.578 0 01-.571-.571c0-.31.261-.571.571-.571h3.408c.31 0 .571.261.571.571a.558.558 0 01-.571.571zm-11.349 0h-3.408a.578.578 0 01-.571-.571c0-.31.261-.571.571-.571h3.408c.31 0 .571.261.571.571a.568.568 0 01-.571.571zm-11.349 0h-3.408a.578.578 0 01-.571-.571c0-.31.261-.571.571-.571h3.408c.31 0 .571.261.571.571-.017.326-.261.571-.571.571zm-11.365 0h-3.408a.578.578 0 01-.571-.571c0-.31.261-.571.571-.571h3.408c.309 0 .57.261.57.571a.557.557 0 01-.57.571zm-11.349 0h-3.408a.578.578 0 01-.571-.571c0-.31.261-.571.571-.571h3.408c.309 0 .57.261.57.571a.567.567 0 01-.57.571zm-11.349 0h-3.408a.578.578 0 01-.571-.571c0-.31.261-.571.571-.571h3.408c.309 0 .57.261.57.571-.016.326-.261.571-.57.571z" fill="#fff"/><path d="M259.609 285.207l.571-6.13a4.738 4.738 0 013.571-2.755c5.919-.945 20.627-2.608 27.704 2.69l1.06 7.125-32.906-.93z" fill="url(#paint8_linear)"/><path d="M278.133 279.322a8.754 8.754 0 01-4.109 0 3.694 3.694 0 01-2.821-3.587v-19.188h9.767v19.172a3.726 3.726 0 01-2.837 3.603z" fill="url(#paint9_linear)"/><path d="M354.185 285.207l.57-6.13a4.741 4.741 0 013.571-2.755c5.936-.945 20.628-2.608 27.704 2.69l1.06 7.125-32.905-.93z" fill="url(#paint10_linear)"/><path d="M372.708 279.322a8.754 8.754 0 01-4.109 0 3.694 3.694 0 01-2.821-3.587v-21.21h9.768v21.194a3.726 3.726 0 01-2.838 3.603z" fill="url(#paint11_linear)"/><path d="M270.208 261.242l105.012-3.473c2.397-.081 4.419-1.809 4.843-4.157.57-3.293 1.076-8.2.326-13.303-.864-5.804-5.854-10.108-11.741-10.255-19.583-.473-69.464-.456-96.939 10.418a9.666 9.666 0 00-5.805 6.651c-.702 2.886-1.174 6.734-.245 10.663.473 2.103 2.397 3.537 4.549 3.456z" fill="url(#paint12_linear)"/><path d="M268.398 256.465c-.57 0-1.076-.44-1.125-1.027-.016-.179-.407-4.239.653-8.152.847-3.114 3.31-5.608 6.424-6.521 5.887-1.728 17.122-4.663 26.334-4.924.636-.016 1.142.473 1.175 1.109a1.145 1.145 0 01-1.109 1.174c-8.952.244-19.975 3.13-25.764 4.826-2.364.701-4.239 2.592-4.875 4.94-.946 3.521-.587 7.303-.587 7.336a1.133 1.133 0 01-1.011 1.239h-.115z" fill="#fff"/><path d="M210.886 282.827c33.917-.44 180.672-1.973 223.313 3.163 3.668.44 6.669 3.13 7.468 6.717 2.511 11.38 7.582 37.84 6.979 64.055-.082 3.57-2.691 6.57-6.229 7.239l-97.315 18.406h-34.569L206.842 361.8c-3.652-.734-6.343-3.815-6.538-7.532-.669-13.19-1.729-44.133 1.842-64.055.783-4.223 4.419-7.337 8.74-7.386z" fill="url(#paint13_linear)"/><path d="M311.381 374.598c-.033 0-.082 0-.114-.016l-3.343-.669a.561.561 0 01-.441-.668.562.562 0 01.669-.441l3.31.653h3.49c.309 0 .57.26.57.57 0 .31-.261.571-.57.571h-3.571zm26.269 0h-3.408a.578.578 0 01-.571-.571c0-.31.261-.57.571-.57h3.408c.31 0 .57.26.57.57 0 .326-.26.571-.57.571zm-11.349 0h-3.408a.578.578 0 01-.571-.571c0-.31.261-.57.571-.57h3.408c.31 0 .57.26.57.57 0 .326-.26.571-.57.571zm19.274-.228a.575.575 0 01-.555-.457.572.572 0 01.457-.668l3.342-.636a.585.585 0 01.669.456.573.573 0 01-.457.669l-3.342.636h-.114zm-45.331-1.973c-.033 0-.082 0-.115-.016l-3.342-.669a.561.561 0 01-.441-.668.56.56 0 01.669-.44l3.343.668a.56.56 0 01.44.668.575.575 0 01-.554.457zm56.484-.147a.575.575 0 01-.555-.456.573.573 0 01.457-.669l3.343-.636a.572.572 0 01.668.457.57.57 0 01-.456.668l-3.343.636h-.114zm-67.621-2.07c-.033 0-.082 0-.115-.017l-3.342-.668a.561.561 0 01-.441-.668.562.562 0 01.669-.441l3.343.669a.56.56 0 01.44.668.575.575 0 01-.554.457zm78.791-.033a.576.576 0 01-.555-.456.573.573 0 01.457-.669l3.343-.636a.584.584 0 01.668.457.572.572 0 01-.457.668l-3.342.636h-.114zm11.153-2.119a.574.574 0 01-.554-.457.57.57 0 01.456-.668l3.343-.636a.584.584 0 01.668.456.571.571 0 01-.456.669l-3.343.636h-.114zm-101.082-.066c-.032 0-.081 0-.114-.016l-3.342-.668a.562.562 0 01-.441-.669.562.562 0 01.669-.44l3.343.669a.56.56 0 01.44.668.575.575 0 01-.555.456zm112.235-2.037a.574.574 0 01-.554-.457.572.572 0 01.456-.668l3.343-.636a.573.573 0 11.212 1.125l-3.343.636h-.114zm-123.372-.18c-.032 0-.081 0-.114-.016l-3.343-.669a.56.56 0 01-.44-.668.561.561 0 01.669-.44l3.343.668a.562.562 0 01.44.669.559.559 0 01-.555.456zm134.526-1.924a.575.575 0 01-.555-.456.572.572 0 01.457-.668l3.343-.636a.584.584 0 01.668.456.573.573 0 01-.456.669l-3.343.635c-.049-.016-.082 0-.114 0zm-145.663-.293c-.032 0-.081 0-.114-.016l-3.343-.669a.56.56 0 01-.44-.668.56.56 0 01.669-.44l3.342.668c.31.065.506.359.441.668a.559.559 0 01-.555.457zm156.816-1.826a.574.574 0 01-.554-.456.571.571 0 01.456-.669l3.343-.636a.573.573 0 01.669.457.572.572 0 01-.457.668l-3.343.636h-.114zm-167.953-.375c-.032 0-.081 0-.114-.016l-3.343-.669a.56.56 0 01-.44-.668.56.56 0 01.669-.44l3.342.668c.31.065.506.359.441.669a.576.576 0 01-.555.456zm179.123-1.728a.575.575 0 01-.555-.457.572.572 0 01.457-.668l3.343-.636a.584.584 0 01.668.457.572.572 0 01-.456.668l-3.343.636h-.114zm-190.26-.489c-.032 0-.081 0-.114-.016l-3.343-.669a.561.561 0 01-.44-.668.562.562 0 01.669-.441l3.342.669c.31.065.506.359.441.668a.575.575 0 01-.555.457zm201.413-1.631a.573.573 0 01-.554-.456.57.57 0 01.456-.668l3.343-.636a.585.585 0 01.669.456.573.573 0 01-.457.669l-3.343.635h-.114zm-212.55-.586c-.032 0-.081 0-.114-.017l-3.343-.668a.561.561 0 01-.44-.669.562.562 0 01.669-.44l3.342.669a.56.56 0 01.441.668.56.56 0 01-.555.457zm-11.137-2.218c-.033 0-.081 0-.114-.016l-2.886-.571-.065-1.353a.564.564 0 01.538-.587c.309-.065.587.229.587.538l.016.457 2.022.407c.31.066.505.359.44.669a.529.529 0 01-.538.456zm229.15-4.027a.563.563 0 01-.571-.554 235.184 235.184 0 00-.065-3.391c-.017-.31.244-.57.554-.587.294.017.571.228.587.554.033 1.142.065 2.267.065 3.408 0 .31-.244.554-.57.57zm-231.971-5.298a.575.575 0 01-.571-.554c-.032-1.093-.065-2.234-.097-3.408-.017-.309.244-.57.554-.587.31.033.571.245.587.555.033 1.174.065 2.315.098 3.407a.567.567 0 01-.555.587h-.016zm231.53-6.049a.57.57 0 01-.57-.538c-.082-1.141-.147-2.266-.245-3.391a.566.566 0 01.522-.603.555.555 0 01.603.522c.082 1.125.163 2.266.245 3.407a.567.567 0 01-.538.603h-.017zm-231.791-5.298a.563.563 0 01-.57-.554c-.017-1.125-.017-2.266-.033-3.408 0-.309.245-.57.571-.57.309 0 .57.261.57.57 0 1.158.017 2.283.033 3.408 0 .293-.261.538-.571.554zm230.797-6.016a.567.567 0 01-.571-.505c-.13-1.142-.245-2.266-.391-3.375a.579.579 0 01.489-.636c.31-.049.587.179.636.489.13 1.109.261 2.25.391 3.391a.567.567 0 01-.505.62c0 .016-.033.016-.049.016zm-230.78-5.347s-.017 0 0 0a.567.567 0 01-.571-.571c.016-1.125.032-2.266.065-3.407 0-.31.277-.538.587-.555.31 0 .554.261.554.587-.032 1.142-.048 2.266-.065 3.408a.572.572 0 01-.57.538zm229.345-5.918a.55.55 0 01-.555-.489c-.163-1.142-.342-2.267-.505-3.359a.57.57 0 011.125-.179c.179 1.092.342 2.217.522 3.374a.571.571 0 01-.473.653h-.114zm-228.97-5.429h-.033a.57.57 0 01-.538-.604c.065-1.141.13-2.282.196-3.407a.555.555 0 01.603-.522c.31.017.554.294.522.604a113.363 113.363 0 00-.196 3.391.557.557 0 01-.554.538zm227.111-5.772a.573.573 0 01-.555-.472 190.098 190.098 0 00-.635-3.343.573.573 0 011.125-.212c.212 1.06.424 2.185.636 3.359a.585.585 0 01-.457.668c-.033-.016-.082 0-.114 0zm-226.231-5.543h-.065a.566.566 0 01-.506-.619c.131-1.158.261-2.283.408-3.391.049-.31.326-.538.636-.489.31.049.522.326.489.635a95.28 95.28 0 00-.407 3.375c-.017.277-.261.489-.555.489zm223.508-5.135h-.065a118.678 118.678 0 00-3.376-.359.565.565 0 01-.505-.619c.032-.31.293-.522.619-.506 1.207.114 2.332.245 3.392.359a.58.58 0 01.505.636.59.59 0 01-.57.489zm-11.317-1.027h-.049a179.132 179.132 0 00-3.391-.229.577.577 0 01-.538-.603.578.578 0 01.603-.538c1.174.082 2.315.147 3.408.228.31.017.554.294.522.604a.547.547 0 01-.555.538zm-11.332-.669h-.033c-1.109-.049-2.234-.114-3.408-.163a.564.564 0 01-.538-.587.575.575 0 01.587-.538c1.158.049 2.299.114 3.408.163a.57.57 0 01.538.604c0 .277-.245.521-.554.521zm-11.349-.505h-.017l-3.408-.131a.588.588 0 01-.554-.586c.016-.31.293-.538.587-.555l3.408.131c.31.016.554.277.538.587a.55.55 0 01-.554.554zm-11.35-.375h-.016l-3.408-.098a.588.588 0 01-.554-.587c.016-.31.228-.538.587-.554l3.408.098c.31.016.554.277.554.587a.564.564 0 01-.571.554zm-11.349-.294l-3.424-.081c-.31 0-.554-.261-.554-.587 0-.31.261-.554.57-.554h.017l3.408.081c.31 0 .554.261.554.587 0 .31-.261.554-.571.554zm-11.349-.228l-3.408-.065a.554.554 0 01-.554-.571c0-.309.261-.554.571-.554h.016l3.408.065c.31 0 .571.261.554.571a.6.6 0 01-.587.554zm-151.043 0a.563.563 0 01-.016-1.125l3.408-.049a.563.563 0 01.016 1.125l-3.408.049zm11.365-.13a.564.564 0 01-.57-.555c0-.309.244-.57.554-.57l3.408-.033c.31 0 .571.245.571.555 0 .309-.245.57-.555.57l-3.408.033zm128.329-.049s-.016 0 0 0l-3.408-.049a.554.554 0 01-.554-.571c0-.309.261-.554.571-.554l3.408.049c.309 0 .57.261.554.571a.575.575 0 01-.571.554zm-116.98-.065a.564.564 0 01-.57-.555c0-.309.244-.57.57-.57l3.408-.033c.31 0 .571.245.571.571 0 .309-.244.57-.571.57l-3.408.017zm105.615-.066l-3.408-.032a.578.578 0 01-.571-.571c0-.31.261-.57.571-.57l3.408.032c.31 0 .571.261.554.571a.552.552 0 01-.554.57zm-94.249-.016a.567.567 0 01-.571-.57c0-.31.245-.571.571-.571l3.408-.016c.31 0 .57.244.57.57 0 .31-.244.571-.57.571l-3.408.016zm82.9-.081l-3.408-.017a.578.578 0 01-.571-.57c0-.31.261-.571.571-.571l3.408.016c.31 0 .571.261.571.571 0 .31-.261.571-.571.571zm-71.551 0a.568.568 0 01-.571-.571c0-.31.245-.571.571-.571l3.408-.016c.31 0 .571.261.571.571 0 .309-.245.57-.571.57l-3.408.017c.016 0 .016 0 0 0zm11.365-.066a.567.567 0 01-.571-.57c0-.31.245-.571.571-.571l3.408-.016c.31 0 .571.261.571.57 0 .31-.245.571-.571.571l-3.408.016zm48.837 0l-3.408-.016a.578.578 0 01-.571-.571c0-.309.261-.57.571-.57l3.408.016c.31 0 .571.261.571.571-.017.31-.261.57-.571.57zm-37.471-.032a.578.578 0 01-.571-.571c0-.31.244-.57.571-.57h3.408c.293-.017.57.26.57.57 0 .31-.261.571-.57.571h-3.408zm26.106 0h-3.408a.578.578 0 01-.571-.571c0-.31.261-.57.571-.57h3.408c.309 0 .57.26.57.57 0 .31-.261.571-.57.571zm-14.757-.017a.577.577 0 01-.571-.57c0-.31.261-.571.571-.571h3.391c.31 0 .571.261.571.571 0 .31-.245.57-.554.57h-3.408z" fill="#fff"/><path d="M341.856 396.933h-30.28c-3.962 0-7.305-2.951-7.778-6.88l-3.506-29.134c-.554-4.646 3.082-8.722 7.778-8.722h36.379c4.598 0 8.218 3.929 7.811 8.494l-2.593 29.134c-.359 4.011-3.75 7.108-7.811 7.108z" fill="url(#paint14_linear)"/><path d="M285.96 85.347a1.832 1.832 0 01-1.81-1.63 71.5 71.5 0 01-.375-6.195 1.822 1.822 0 011.793-1.859h.033c.995 0 1.81.799 1.826 1.793.033 1.973.163 3.946.359 5.886a1.838 1.838 0 01-1.631 2.005h-.195zm.13-15.863c-.065 0-.147 0-.212-.016a1.829 1.829 0 01-1.598-2.022c.245-2.054.571-4.108.995-6.13.195-.978 1.158-1.614 2.152-1.418.979.195 1.615 1.174 1.419 2.152a69.793 69.793 0 00-.946 5.82 1.841 1.841 0 01-1.81 1.614zm3.604-15.455c-.196 0-.408-.033-.62-.114a1.842 1.842 0 01-1.109-2.332 73.245 73.245 0 012.332-5.755 1.819 1.819 0 012.413-.897c.914.424 1.321 1.5.897 2.413a65.99 65.99 0 00-2.217 5.462 1.782 1.782 0 01-1.696 1.223zm6.979-14.266c-.343 0-.669-.097-.979-.293a1.818 1.818 0 01-.554-2.51 69.283 69.283 0 013.571-5.087 1.838 1.838 0 012.56-.343c.799.62.946 1.761.343 2.56a67.448 67.448 0 00-3.392 4.842 1.858 1.858 0 01-1.549.831zm9.979-12.341a1.84 1.84 0 01-1.304-.538 1.824 1.824 0 01.016-2.576 74.255 74.255 0 014.598-4.174 1.813 1.813 0 012.56.229 1.812 1.812 0 01-.228 2.56 67.518 67.518 0 00-4.37 3.96 1.765 1.765 0 01-1.272.539zm12.474-9.83a1.83 1.83 0 01-1.549-.865 1.813 1.813 0 01.587-2.51 67.724 67.724 0 015.414-3.05 1.818 1.818 0 012.446.8 1.817 1.817 0 01-.799 2.445 69.276 69.276 0 00-5.137 2.902c-.31.18-.636.277-.962.277zm66.774-4.337a1.78 1.78 0 01-.75-.164 64.081 64.081 0 00-5.479-2.2 1.822 1.822 0 01-1.109-2.332 1.823 1.823 0 012.332-1.108 69.996 69.996 0 015.772 2.33 1.84 1.84 0 01.913 2.414 1.889 1.889 0 01-1.679 1.06zm-52.457-2.495c-.75 0-1.468-.473-1.728-1.223a1.825 1.825 0 011.125-2.315 75.56 75.56 0 015.951-1.777 1.825 1.825 0 11.897 3.538 68.245 68.245 0 00-5.658 1.68 1.845 1.845 0 01-.587.097zM370.8 8.347c-.114 0-.244-.016-.358-.032a70.19 70.19 0 00-5.838-.93 1.829 1.829 0 01-1.598-2.021c.114-.995 1.027-1.728 2.022-1.598a77.43 77.43 0 016.131.978 1.814 1.814 0 011.419 2.152c-.163.864-.93 1.451-1.778 1.451zM348.934 7.32a1.832 1.832 0 01-1.81-1.63c-.114-.995.619-1.891 1.614-2.006a71.845 71.845 0 016.196-.39h.033c.995 0 1.794.798 1.826 1.776a1.82 1.82 0 01-1.777 1.859 70.88 70.88 0 00-5.887.375c-.065.016-.13.016-.195.016zm48.086 12.26c-.359 0-.717-.098-1.044-.326a84.541 84.541 0 00-2.364-1.582 1.818 1.818 0 111.957-3.065 84.753 84.753 0 012.495 1.663c.831.571 1.027 1.712.456 2.544a1.855 1.855 0 01-1.5.766zm29.612 47.002c-.88 0-1.647-.636-1.793-1.532a75.645 75.645 0 00-.506-2.788 1.834 1.834 0 011.419-2.152c.995-.196 1.94.44 2.152 1.418.196.978.375 1.973.538 2.935a1.823 1.823 0 01-1.516 2.087.906.906 0 01-.294.032zm-70.002 82.25c-.832 0-1.68-.017-2.527-.049a1.822 1.822 0 01-1.762-1.875 1.821 1.821 0 011.876-1.761c1.956.065 3.897.049 5.805-.049a1.81 1.81 0 011.907 1.728 1.822 1.822 0 01-1.728 1.908 65.041 65.041 0 01-3.571.098zm-12.099-1.027a2.04 2.04 0 01-.31-.033 68.313 68.313 0 01-5.984-1.288 1.802 1.802 0 01-1.305-2.217 1.81 1.81 0 012.218-1.304c1.859.489 3.783.896 5.674 1.222a1.804 1.804 0 011.484 2.103c-.13.897-.913 1.517-1.777 1.517zm25.209-.196a1.816 1.816 0 01-1.794-1.484 1.843 1.843 0 011.452-2.135 67.816 67.816 0 005.658-1.321 1.831 1.831 0 012.25 1.272 1.818 1.818 0 01-1.272 2.25 74.89 74.89 0 01-5.951 1.385c-.115.033-.229.033-.343.033zm-40.227-4.108c-.228 0-.473-.049-.701-.131a68.186 68.186 0 01-5.544-2.559 1.816 1.816 0 01-.783-2.446 1.817 1.817 0 012.462-.783 69.817 69.817 0 005.267 2.43c.93.375 1.37 1.451.995 2.38a1.868 1.868 0 01-1.696 1.109zm55.147-.457c-.701 0-1.37-.408-1.679-1.092a1.838 1.838 0 01.945-2.397 73.32 73.32 0 005.235-2.527 1.813 1.813 0 012.462.75c.473.88.147 1.989-.75 2.462a68.444 68.444 0 01-5.512 2.657 1.684 1.684 0 01-.701.147zm13.567-7.728a1.832 1.832 0 01-1.484-.75 1.822 1.822 0 01.408-2.543 70.122 70.122 0 004.549-3.603 1.83 1.83 0 012.576.196 1.83 1.83 0 01-.195 2.576 72.238 72.238 0 01-4.794 3.798 1.89 1.89 0 01-1.06.326zm11.561-10.515a1.829 1.829 0 01-1.37-3.033 69.15 69.15 0 003.653-4.516 1.808 1.808 0 012.544-.375c.815.604.978 1.745.375 2.544a72.033 72.033 0 01-3.849 4.744 1.729 1.729 0 01-1.353.636zm9.001-12.782c-.294 0-.603-.065-.881-.228a1.825 1.825 0 01-.717-2.478 69.957 69.957 0 002.576-5.201 1.836 1.836 0 012.414-.929 1.835 1.835 0 01.929 2.413 75.02 75.02 0 01-2.723 5.478 1.844 1.844 0 01-1.598.945zm5.952-14.445c-.163 0-.343-.016-.506-.065-.962-.277-1.533-1.288-1.239-2.25a67.65 67.65 0 001.37-5.64 1.816 1.816 0 012.136-1.435 1.817 1.817 0 011.435 2.136 73.582 73.582 0 01-1.435 5.934 1.83 1.83 0 01-1.761 1.32zm2.658-15.39h-.115a1.821 1.821 0 01-1.712-1.924c.082-1.418.131-2.853.131-4.27 0-.506 0-1.028-.017-1.533a1.821 1.821 0 011.778-1.859c1.011-.049 1.842.783 1.859 1.777.016.538.016 1.076.016 1.614 0 1.484-.049 3-.131 4.5-.048.962-.864 1.695-1.809 1.695zm-111.632 53.768c-.358 0-.733-.114-1.043-.326a84.318 84.318 0 01-2.413-1.761 1.837 1.837 0 01-.343-2.559 1.838 1.838 0 012.56-.343c.75.571 1.517 1.142 2.283 1.68a1.824 1.824 0 01.44 2.543 1.782 1.782 0 01-1.484.766z" fill="#BDD0FB"/><path opacity=".8" d="M318.229 114.823c.228.277.62.392.946.261l2.842-1.042c4.291-1.574 8.978-.736 12.999 1.435 4.026 2.173 7.414 5.667 8.466 10.119l.69 2.922a.833.833 0 00.75.652l12.376 1.255a.881.881 0 00.865-.489l1.271-2.746c1.918-4.145 5.934-6.886 10.307-8.206 4.379-1.321 9.141-1.195 13.025 1.219l2.546 1.582a.86.86 0 00.995-.066l9.637-7.858a.862.862 0 00.261-.962l-1.042-2.84c-1.574-4.29-.736-8.978 1.436-13 2.173-4.024 5.665-7.41 10.116-8.461l2.926-.691a.832.832 0 00.652-.75l1.256-12.374a.882.882 0 00-.489-.864l-2.743-1.27c-4.148-1.919-6.892-5.937-8.213-10.313-1.322-4.374-1.2-9.132 1.206-13.017l1.597-2.578a.86.86 0 00-.066-.994l-7.859-9.636a.845.845 0 00-.946-.26l-2.842 1.042c-4.291 1.574-8.978.735-12.999-1.436-4.026-2.173-7.414-5.666-8.466-10.118l-.69-2.922a.833.833 0 00-.75-.652l-12.377-1.256a.881.881 0 00-.864.49l-1.268 2.739c-1.92 4.15-5.94 6.893-10.317 8.215-4.375 1.321-9.133 1.2-13.019-1.207l-2.578-1.596a.86.86 0 00-.995.065l-9.637 7.858c-.277.229-.391.62-.26.946l1.042 2.84c1.574 4.29.735 8.978-1.436 13-2.173 4.024-5.666 7.41-10.117 8.462l-2.926.69a.834.834 0 00-.652.75l-1.255 12.375a.88.88 0 00.489.864l2.736 1.266c4.153 1.921 6.897 5.937 8.222 10.316 1.322 4.372 1.199 9.13-1.205 13.012l-1.6 2.583a.86.86 0 00.065.995l7.892 9.651z" fill="#615BE7"/><path opacity=".56" d="M356.598 87.988c-6.099 0-11.447-4.467-12.36-10.678-1.011-6.815 3.717-13.19 10.55-14.184a12.4 12.4 0 019.278 2.331 12.439 12.439 0 014.908 8.217c1.011 6.815-3.718 13.19-10.55 14.184-.62.081-1.223.13-1.826.13zm.016-22.074c-.473 0-.946.032-1.419.098-5.234.766-8.854 5.657-8.087 10.874.766 5.233 5.641 8.852 10.876 8.086 5.234-.766 8.854-5.657 8.087-10.874a9.553 9.553 0 00-3.766-6.293 9.47 9.47 0 00-5.691-1.891z" fill="#fff"/><path opacity=".56" d="M356.842 106.036c-1.044 0-2.104-.049-3.147-.163-.326-.033-.669-.065-.995-.114a30.087 30.087 0 01-4.81-1.044c-.016 0-.049-.016-.065-.016-.066-.016-.114-.033-.18-.049-.114-.033-.228-.081-.358-.114a.73.73 0 01-.506-.685c0-.081.016-.147.033-.228a.747.747 0 01.913-.473 28.78 28.78 0 006.098 1.272c10.322 1.043 19.959-3.424 25.943-11.021a29.069 29.069 0 006.131-15.146 31.07 31.07 0 00.147-3.016c0-6.717-2.299-13.173-6.604-18.455-4.941-6.065-11.952-9.83-19.73-10.613-16.062-1.63-30.46 10.108-32.074 26.166a29.368 29.368 0 002.609 15.374.705.705 0 01.065.31.688.688 0 01-.424.652c-.359.163-.799.016-.962-.342a30.743 30.743 0 01-2.903-13.027c0-1.043.049-2.07.163-3.114 1.713-16.857 16.828-29.182 33.673-27.47 8.169.831 15.523 4.793 20.708 11.151 4.517 5.543 6.93 12.309 6.93 19.368 0 1.043-.049 2.103-.163 3.163-.831 8.168-4.794 15.52-11.153 20.705-5.495 4.532-12.279 6.929-19.339 6.929z" fill="#fff"/><path d="M223.769 133.376c-.49 0-.93-.31-1.077-.815a41.242 41.242 0 01-.733-2.788c-.147-.603.244-1.206.848-1.353.603-.147 1.206.245 1.353.848.212.88.44 1.777.701 2.657a1.123 1.123 0 01-.766 1.402 1.116 1.116 0 01-.326.049zm-1.664-8.494a1.13 1.13 0 01-1.125-1.01 49.892 49.892 0 01-.245-4.94c0-.343 0-.701.017-1.044.016-.619.554-1.092 1.141-1.108.62.016 1.109.521 1.109 1.141 0 .326-.016.668-.016.994 0 1.565.081 3.163.244 4.712a1.132 1.132 0 01-1.011 1.239c-.032.016-.081.016-.114.016zm.245-11.689c-.049 0-.114 0-.163-.016a1.124 1.124 0 01-.962-1.272 45.169 45.169 0 011.222-5.869 1.123 1.123 0 011.387-.783c.603.163.945.783.782 1.386a46.855 46.855 0 00-1.158 5.592 1.122 1.122 0 01-1.108.962zm3.082-11.266a1.22 1.22 0 01-.424-.081 1.136 1.136 0 01-.62-1.467 51.436 51.436 0 012.625-5.397 1.125 1.125 0 011.957 1.109 48.09 48.09 0 00-2.495 5.135 1.151 1.151 0 01-1.043.701zm5.739-10.173c-.228 0-.473-.065-.668-.228a1.123 1.123 0 01-.229-1.581 49.546 49.546 0 013.865-4.582 1.117 1.117 0 011.598-.032c.457.424.473 1.141.033 1.597a47.465 47.465 0 00-3.686 4.37 1.142 1.142 0 01-.913.456zm8.072-8.461a1.117 1.117 0 01-.701-1.989 50.902 50.902 0 014.859-3.505c.522-.326 1.223-.18 1.549.342.326.522.179 1.223-.342 1.549a46.254 46.254 0 00-4.631 3.342c-.229.163-.49.26-.734.26zm9.865-6.26c-.424 0-.832-.245-1.011-.653a1.125 1.125 0 01.538-1.5 48.15 48.15 0 015.561-2.217 1.126 1.126 0 011.418.718 1.126 1.126 0 01-.717 1.418 43.792 43.792 0 00-5.3 2.12 1.073 1.073 0 01-.489.114zm11.104-3.636c-.521 0-.994-.375-1.108-.913a1.129 1.129 0 01.896-1.32 48.506 48.506 0 015.936-.783 1.141 1.141 0 011.207 1.043 1.13 1.13 0 01-1.044 1.207 46.36 46.36 0 00-5.658.75c-.082.016-.163.016-.229.016zm17.464-.147c-.065 0-.13 0-.195-.016a44.97 44.97 0 00-4.941-.603l-.75-.05a1.12 1.12 0 01-1.06-1.19 1.12 1.12 0 011.19-1.06l.783.05c1.728.114 3.473.326 5.169.636.62.114 1.027.684.913 1.304a1.12 1.12 0 01-1.109.93zm-7.663 94.232c-.62 0-1.109-.489-1.126-1.108-.016-.62.49-1.125 1.109-1.141a46.185 46.185 0 005.61-.408 1.123 1.123 0 011.271.962 1.125 1.125 0 01-.962 1.272c-1.94.244-3.929.391-5.902.423.016 0 0 0 0 0zm-5.757-.277h-.114a50.235 50.235 0 01-5.805-.978 1.146 1.146 0 01-.848-1.353 1.147 1.147 0 011.354-.848 45.58 45.58 0 005.544.929c.62.066 1.06.62.995 1.239a1.131 1.131 0 01-1.126 1.011zm17.154-1.255c-.505 0-.962-.326-1.092-.848a1.106 1.106 0 01.799-1.369 44.594 44.594 0 005.348-1.761 1.125 1.125 0 011.468.636 1.13 1.13 0 01-.636 1.467 51.027 51.027 0 01-5.593 1.842c-.114.017-.212.033-.294.033zm-28.356-1.337c-.13 0-.261-.016-.391-.065a49.76 49.76 0 01-5.414-2.348c-.554-.277-.766-.962-.489-1.516s.962-.766 1.517-.489a48.182 48.182 0 005.152 2.25c.587.212.881.864.669 1.451-.147.44-.571.717-1.044.717zm39.037-2.918c-.391 0-.783-.212-.995-.587a1.14 1.14 0 01.441-1.533 44.897 44.897 0 004.761-2.983 1.121 1.121 0 111.304 1.826 48.187 48.187 0 01-4.989 3.13 1.012 1.012 0 01-.522.147zm9.343-6.684c-.309 0-.603-.131-.831-.359a1.132 1.132 0 01.065-1.598 48.147 48.147 0 003.913-4.043 1.115 1.115 0 011.582-.114c.473.407.522 1.108.114 1.581a50.109 50.109 0 01-4.093 4.239 1.086 1.086 0 01-.75.294zm7.485-8.723c-.212 0-.424-.065-.62-.195a1.127 1.127 0 01-.31-1.565 45.125 45.125 0 002.821-4.859 1.137 1.137 0 011.517-.505c.554.277.783.962.505 1.516a49.991 49.991 0 01-2.967 5.103 1.164 1.164 0 01-.946.505zm-66.138 13.076c-.212 0-.44-.066-.636-.196a50.965 50.965 0 01-2.332-1.679 1.138 1.138 0 01-.212-1.582 1.138 1.138 0 011.582-.212 36.675 36.675 0 002.234 1.598 1.11 1.11 0 01.294 1.565 1.137 1.137 0 01-.93.506z" fill="#BDD0FB"/><path opacity=".8" d="M243.71 144.821a.557.557 0 00.636.179l1.886-.694c2.875-1.059 6.014-.503 8.711.953 2.692 1.454 4.959 3.798 5.657 6.778l.46 1.963a.573.573 0 00.489.44l8.284.831a.58.58 0 00.57-.326l.837-1.815c1.286-2.786 3.979-4.627 6.914-5.519 2.921-.888 6.101-.806 8.697.8l1.734 1.073c.212.13.473.114.668-.049l6.441-5.266a.559.559 0 00.18-.636l-.695-1.884c-1.059-2.876-.503-6.015.954-8.711 1.454-2.692 3.797-4.958 6.776-5.655l1.965-.461a.573.573 0 00.441-.489l.831-8.282a.557.557 0 00-.326-.57l-1.813-.837c-2.788-1.285-4.63-3.979-5.523-6.916-.888-2.919-.808-6.097.794-8.693l1.08-1.749a.54.54 0 00-.049-.652l-5.267-6.44a.558.558 0 00-.636-.179l-1.885.695c-2.876 1.059-6.015.503-8.711-.954-2.693-1.454-4.96-3.798-5.658-6.778l-.46-1.962a.572.572 0 00-.489-.44l-8.283-.832a.559.559 0 00-.571.326l-.837 1.815c-1.285 2.786-3.978 4.628-6.914 5.52-2.921.887-6.101.805-8.697-.801l-1.733-1.072a.565.565 0 00-.669.049l-6.441 5.266a.556.556 0 00-.179.635l.694 1.884c1.06 2.876.503 6.015-.953 8.712-1.455 2.691-3.798 4.957-6.777 5.655l-1.965.46c-.245.049-.408.261-.441.505l-.831 8.282a.583.583 0 00.326.571l1.817.838c2.785 1.284 4.627 3.976 5.519 6.911.887 2.921.805 6.101-.801 8.696l-1.072 1.733a.565.565 0 00.048.669l5.267 6.423z" fill="#615BE7"/><path opacity=".56" d="M269.359 127.018a8.51 8.51 0 01-5.054-1.679 8.42 8.42 0 01-3.343-5.592c-.685-4.647 2.544-8.983 7.174-9.668 4.648-.685 8.985 2.543 9.67 7.173a8.505 8.505 0 01-1.582 6.326 8.422 8.422 0 01-5.593 3.342 8.383 8.383 0 01-1.272.098zm.033-14.787c-.31 0-.603.016-.913.065-3.424.506-5.789 3.701-5.283 7.108a6.248 6.248 0 002.462 4.109 6.25 6.25 0 008.756-1.288 6.23 6.23 0 001.174-4.647c-.473-3.097-3.147-5.347-6.196-5.347z" fill="#fff"/><path opacity=".56" d="M269.523 139.588c-.718 0-1.435-.033-2.153-.114a22.315 22.315 0 01-4.239-.864c-.066-.017-.131-.033-.18-.066a1.12 1.12 0 01-.783-1.076c0-.114.017-.228.049-.342a1.127 1.127 0 011.419-.717 20.29 20.29 0 003.946.831c.082 0 .147.016.228.016 3.18.294 6.311-.228 9.164-1.451a19.3 19.3 0 004.37-2.624l.033-.033c.033-.033.065-.049.098-.082 3.93-3.195 6.359-7.744 6.881-12.765a19.63 19.63 0 00.098-1.94c0-4.353-1.484-8.527-4.272-11.95-3.196-3.929-7.746-6.358-12.768-6.864-5.039-.505-9.963.978-13.893 4.174-3.93 3.195-6.359 7.744-6.881 12.765a19.07 19.07 0 00-.098 1.924c0 2.771.604 5.51 1.794 8.021.065.163.114.31.114.473 0 .424-.245.831-.652 1.011a1.135 1.135 0 01-1.5-.538 21.127 21.127 0 01-2.006-8.983c0-.718.033-1.435.114-2.152.571-5.641 3.31-10.712 7.697-14.298 4.386-3.587 9.897-5.25 15.539-4.663 5.642.57 10.713 3.293 14.284 7.695a21.038 21.038 0 014.778 13.369c0 .717-.033 1.451-.114 2.184-1.093 10.891-10.322 19.059-21.067 19.059z" fill="#fff"/><path d="M179.97 292.691L21.328 423.393c-6.653 5.478-7.223 15.472-1.24 21.667l.98 1.027c5.299 5.495 14.039 5.625 19.501.294l147.864-144.348-8.463-9.342z" fill="url(#paint15_linear)"/><path opacity=".5" d="M280.818 311.449c49.647-17.571 75.906-71.325 58.65-120.064-17.256-48.738-71.491-74.004-121.138-56.433-49.648 17.571-75.906 71.325-58.65 120.064 17.255 48.738 71.491 74.004 121.138 56.433z" fill="#fff"/><path d="M214.8 125.013c-55.245 19.547-84.466 79.363-65.257 133.604 19.192 54.241 79.541 82.347 134.786 62.8 55.245-19.548 84.466-79.364 65.257-133.605-19.209-54.24-79.541-82.363-134.786-62.799zm64.409 181.976c-47.125 16.678-98.603-7.304-114.991-53.573-16.371-46.268 8.545-97.297 55.669-113.975 47.125-16.678 98.603 7.304 114.991 53.572 16.388 46.269-8.528 97.297-55.669 113.976z" fill="url(#paint16_linear)"/><path d="M161.218 267.682a.27.27 0 01-.245-.147 106.312 106.312 0 01-3.098-6.782.292.292 0 01.147-.359c.147-.065.293.016.359.147a93 93 0 003.082 6.749.268.268 0 01-.115.359c-.048.016-.097.033-.13.033zm-9.05-27.716a.265.265 0 01-.261-.228 95.96 95.96 0 01-1.141-20.281c.978-19.173 7.615-37.579 19.192-53.23 11.855-16.01 28.161-28.025 47.125-34.742 17.839-6.309 36.933-7.499 55.228-3.424.147.033.245.18.212.326a.276.276 0 01-.326.212c-18.197-4.059-37.178-2.885-54.935 3.408-18.866 6.684-35.074 18.618-46.864 34.546-11.512 15.553-18.116 33.862-19.094 52.92a94.82 94.82 0 001.125 20.167c.016.147-.082.294-.228.31 0 .016-.017.016-.033.016zM32.971 445.647c-6.098 0-10.06-2.136-11.74-6.326-1.729-4.271-.424-9.276 3.244-12.439l18.85-16.254a.28.28 0 01.392.033.281.281 0 01-.033.391l-18.85 16.254c-3.49 3.016-4.745 7.76-3.098 11.82 1.614 4.01 5.446 6.032 11.43 5.983.147 0 .278.114.278.277a.275.275 0 01-.277.277c-.066-.016-.13-.016-.196-.016zm16.339-39.551a.288.288 0 01-.213-.098.282.282 0 01.033-.392l2.446-2.103a.283.283 0 01.391.033.281.281 0 01-.032.391l-2.446 2.103a.48.48 0 01-.18.066z" fill="#fff"/><defs><linearGradient id="paint0_linear" x1="69.418" y1="45.139" x2="189.692" y2="252.153" gradientUnits="userSpaceOnUse"><stop stop-color="#CE1567"/><stop offset="1" stop-color="#7A1DBC"/></linearGradient><linearGradient id="paint1_linear" x1="53.377" y1="54.456" x2="173.655" y2="261.476" gradientUnits="userSpaceOnUse"><stop stop-color="#CE1567"/><stop offset="1" stop-color="#7A1DBC"/></linearGradient><linearGradient id="paint2_linear" x1="149.129" y1="183.666" x2="68.024" y2="323.785" gradientUnits="userSpaceOnUse"><stop stop-color="#A737D5"/><stop offset="1" stop-color="#EF497A"/></linearGradient><linearGradient id="paint3_linear" x1="-11.42" y1="40.404" x2="112.999" y2="430.58" gradientUnits="userSpaceOnUse"><stop stop-color="#FF928E"/><stop offset="1" stop-color="#FE7062"/></linearGradient><linearGradient id="paint4_linear" x1="-1.85" y1="37.351" x2="122.57" y2="427.528" gradientUnits="userSpaceOnUse"><stop stop-color="#FF928E"/><stop offset="1" stop-color="#FE7062"/></linearGradient><linearGradient id="paint5_linear" x1="8.074" y1="34.186" x2="132.495" y2="424.363" gradientUnits="userSpaceOnUse"><stop stop-color="#FF928E"/><stop offset="1" stop-color="#FE7062"/></linearGradient><linearGradient id="paint6_linear" x1="18.688" y1="30.803" x2="143.108" y2="420.98" gradientUnits="userSpaceOnUse"><stop stop-color="#FF928E"/><stop offset="1" stop-color="#FE7062"/></linearGradient><linearGradient id="paint7_linear" x1="326.917" y1="569.201" x2="323.774" y2="278.936" gradientUnits="userSpaceOnUse"><stop stop-color="#FF928E"/><stop offset=".715" stop-color="#FE7062"/></linearGradient><linearGradient id="paint8_linear" x1="276.703" y1="301.099" x2="275.306" y2="267.217" gradientUnits="userSpaceOnUse"><stop stop-color="#E1473D"/><stop offset="1" stop-color="#E9605A"/></linearGradient><linearGradient id="paint9_linear" x1="274.934" y1="250.23" x2="281.919" y2="347.335" gradientUnits="userSpaceOnUse"><stop stop-color="#E1473D"/><stop offset="1" stop-color="#E9605A"/></linearGradient><linearGradient id="paint10_linear" x1="371.115" y1="297.207" x2="369.718" y2="263.325" gradientUnits="userSpaceOnUse"><stop stop-color="#E1473D"/><stop offset="1" stop-color="#E9605A"/></linearGradient><linearGradient id="paint11_linear" x1="369.092" y1="243.457" x2="376.077" y2="340.562" gradientUnits="userSpaceOnUse"><stop stop-color="#E1473D"/><stop offset="1" stop-color="#E9605A"/></linearGradient><linearGradient id="paint12_linear" x1="330.31" y1="196.171" x2="320.88" y2="265.332" gradientUnits="userSpaceOnUse"><stop stop-color="#FF928E"/><stop offset="1" stop-color="#FE7062"/></linearGradient><linearGradient id="paint13_linear" x1="333.154" y1="250.032" x2="298.58" y2="572.783" gradientUnits="userSpaceOnUse"><stop stop-color="#FF928E"/><stop offset="1" stop-color="#FE7062"/></linearGradient><linearGradient id="paint14_linear" x1="335.664" y1="289.864" x2="322.043" y2="397.797" gradientUnits="userSpaceOnUse"><stop stop-color="#E1473D"/><stop offset="1" stop-color="#E9605A"/></linearGradient><linearGradient id="paint15_linear" x1="5.327" y1="407.348" x2="201.178" y2="338.008" gradientUnits="userSpaceOnUse"><stop stop-color="#2B3582"/><stop offset="1" stop-color="#150E42"/></linearGradient><linearGradient id="paint16_linear" x1="148.156" y1="254.427" x2="350.957" y2="191.965" gradientUnits="userSpaceOnUse"><stop stop-color="#2B3582"/><stop offset="1" stop-color="#150E42"/></linearGradient></defs></svg>