<svg width="532" height="528" fill="none" xmlns="http://www.w3.org/2000/svg"><g clip-path="url(#clip0)"><path d="M524.172 225.526C509.755 131.324 450.642 15.604 333.84 3.49c0 0-88.67-10.768-176.105 5.555-51.876 9.668-97.37 38.503-126.167 79.927C2.791 130.395-6.84 180.918 4.843 229.07c7.58 31.281 12.708 63.662 11.302 95.795-2.45 55.945-1.044 108.156 53.358 141.522 48.571 29.783 109.698 56.059 168.013 60.666 39.624 3.128 84.073-1.934 122.272-12.228 194.664-52.457 178.803-195.097 164.385-289.3z" fill="#F4F7FA"/><path d="M125.787 42.56l4.388 9.025c-3.723 2.749-7.162 5.763-10.277 9.043l-8.301-5.612c-2.26-1.535-5.337-.91-6.876 1.384l-9.593 14.333c-1.538 2.293-.95 5.403 1.311 6.938l8.377 5.688a79.87 79.87 0 00-4.426 12.986l-10.124-.683c-2.736-.19-5.11 1.896-5.32 4.664l-1.253 17.328c-.209 2.768 1.862 5.175 4.597 5.384l10.162.701a78.052 78.052 0 002.603 13.536l-9.232 4.569c-2.47 1.232-3.514 4.266-2.317 6.768l7.503 15.773c1.197 2.522 4.198 3.583 6.686 2.351l9.251-4.588a78.373 78.373 0 008.928 10.522l-5.756 8.664c-1.557 2.332-.95 5.516 1.349 7.109l14.379 9.934a4.966 4.966 0 006.99-1.365l5.737-8.683a79.326 79.326 0 0013.031 4.607l-.684 10.465c-.19 2.825 1.918 5.289 4.692 5.498l17.418 1.289c2.793.208 5.186-1.934 5.376-4.759l.646-10.37c4.559-.455 9.118-1.365 13.619-2.654l4.559 9.346c1.254 2.56 4.293 3.64 6.801 2.389l15.671-7.754c2.507-1.232 3.514-4.322 2.26-6.881l-4.54-9.271a77.612 77.612 0 0010.486-9.232l8.434 5.725a5.006 5.006 0 007.028-1.384l9.611-14.674c1.539-2.35.874-5.535-1.462-7.109l-8.396-5.668a78.565 78.565 0 004.407-13.347l9.991.702a5.003 5.003 0 005.338-4.74l.969-17.536a5.133 5.133 0 00-4.768-5.403l-9.897-.682c-.532-4.626-1.5-9.233-2.868-13.783l8.852-4.38c2.488-1.231 3.476-4.265 2.222-6.767l-7.826-15.622c-1.253-2.483-4.274-3.507-6.743-2.294l-8.833 4.38a80.286 80.286 0 00-9.232-10.503l5.414-8.19c1.52-2.294.874-5.403-1.425-6.939l-14.417-9.573a4.974 4.974 0 00-6.914 1.384l-5.452 8.208a78.148 78.148 0 00-13.088-4.417l.627-9.858c.171-2.749-1.918-5.119-4.654-5.29l-17.133-1.099a4.983 4.983 0 00-5.281 4.645l-.646 9.896a77.437 77.437 0 00-13.429 2.749l-4.274-8.891a4.941 4.941 0 00-6.63-2.257l-15.367 7.603c-2.45 1.232-3.476 4.227-2.279 6.673zm5.47 95.151c-12.214-25.328-1.861-55.755 23.061-68.097 24.921-12.342 55.181-2.029 67.661 23.167 12.555 25.347 2.374 56.134-22.814 68.609-25.187 12.474-55.618 1.82-67.908-23.679z" fill="#D8DEE8"/><path d="M382.431 190.376h-20.875v2.598h20.875v-2.598zm-42.397 0h-16.963v2.598h16.963v-2.598z" fill="#fff"/><path d="M439.816 190.376h-16.297v2.598h16.297v-2.598z" fill="#D8DEE8"/><path d="M494.599 190.376h-16.298v2.598h16.298v-2.598z" fill="#fff"/><path d="M387.656 198.187H366.78v81.368h20.876v-81.368z" fill="#D8DEE8"/><path d="M366.78 198.187h-11.093v81.368h11.093v-81.368z" fill="#97A6B7"/><path d="M364.158 186.471h-3.913v16.266h3.913v-16.266z" fill="#97A6B7"/><path d="M382.432 186.471h-3.913v16.266h3.913v-16.266zm118.682 11.716h-20.211v81.368h20.211v-81.368z" fill="#D8DEE8"/><path d="M480.903 198.187H469.81v81.368h11.093v-81.368z" fill="#97A6B7"/><path d="M478.301 186.471h-3.913v16.266h3.913v-16.266z" fill="#97A6B7"/><path d="M496.555 186.471h-3.913v16.266h3.913v-16.266zm-49.577 11.716h-20.211v81.368h20.211v-81.368z" fill="#D8DEE8"/><path d="M426.766 198.187h-11.739v81.368h11.739v-81.368z" fill="#97A6B7"/><path d="M423.519 186.471h-3.914v16.266h3.914v-16.266z" fill="#97A6B7"/><path d="M441.772 186.471h-3.913v16.266h3.913v-16.266zm-97.161 11.716h-16.963v81.368h16.963v-81.368z" fill="#D8DEE8"/><path d="M327.649 198.187h-9.783v81.368h9.783v-81.368z" fill="#97A6B7"/><path d="M325.047 186.471h-3.268v16.266h3.268v-16.266z" fill="#97A6B7"/><path d="M340.699 186.471h-3.267v16.266h3.267v-16.266z" fill="#D8DEE8"/><path d="M368.641 432.072l-50.452-4.587V276.541l50.452-2.654v158.185z" fill="#E6EBF4"/><path d="M363.683 279.574l-47.393 1.611v-8.702l47.393-1.877v8.968zm0 64.893l-47.393-.151v-8.702l47.393-.095v8.948z" fill="#97A6B7"/><path d="M505.065 426.764l-137.944 5.384V272.92l137.944 2.654v151.19z" fill="#fff"/><path d="M508.503 279.536l-144.819-.171V270l144.819.645v8.891zm0 61.784l-144.819 3.28v-8.986l144.819-2.825v8.531zm0 83.093l-144.819 7.925v-1.498l144.819-7.849v1.422zm-99.725-96.326l-32.501.55v-39.925l32.501-.076v39.451zm44.696-.758l-31.324.531v-39.243l31.324-.076v38.788zm43.575-.739l-30.582.531v-38.618l30.582-.076v38.163zm-88.271 83.738l-32.501 1.535v-39.546l32.501-1.081v39.092zm88.271-4.19l-30.582 1.441v-38.258l30.582-1.005v37.822z" fill="#D8DEE8"/><path opacity=".1" d="M367.122 279.745s27.79 3.734 39.738 22.181c11.853 18.275 38.617 10.635 61.924 15.412 22.908 4.702 36.547 15.868 36.547 15.868l-138.228 3.071v-56.532h.019zm0 94.392s27.79 2.787 39.738 20.835c11.853 17.877 38.617 9.327 61.924 13.308 22.908 3.924 36.547 14.636 36.547 14.636l-138.228 7.772v-56.551h.019z" fill="#97A6B7"/><path d="M453.474 418.707l-31.324 1.63v-56.874l31.324-.948v56.192z" fill="#E4E9F2"/><path d="M458.451 365.264l-40.897 1.27v-8.076l40.897-1.156v7.962z" fill="#D8DEE8"/><path d="M462.268 418.271l-48.533 2.483v-4.777l48.533-2.408v4.702z" fill="url(#paint0_linear)"/><path d="M466.865 422.707l-58.486 3.128v-4.796l58.486-3.015v4.683z" fill="#D8DEE8"/><path d="M469.905 427.238l-64.185 3.545v-4.815l64.185-3.413v4.683z" fill="url(#paint1_linear)"/><path d="M243.329 192.443c-.076 0-.171-.114-.247-.114h-.209c-1.291 0-2.583-.588-3.685-1.839-1.519-1.763-2.26-4.152-1.918-6.313.114-.701.76-1.137 1.462-1.043a1.28 1.28 0 011.064 1.46c-.228 1.441.304 3.318 1.33 4.512.57.664 1.234 1.27 1.747 1.27h.228c1.368 0 3.21-.17 4.217-1.156.551-.55.836-1.536.836-2.768 0-4.152-5.547-6.389-5.604-6.408a1.332 1.332 0 01-.816-1.194l-.133-7.375a1.26 1.26 0 011.253-1.289h.019c.703 0 1.254.531 1.273 1.232l.114 6.56c1.899.91 6.439 3.602 6.439 8.379 0 1.915-.532 3.356-1.595 4.417-1.653 1.65-4.065 1.669-5.775 1.669z" fill="url(#paint2_linear)"/><path d="M245.799 151.986c-.703 0-.987-.569-.987-1.27v-47.623c0-.701.265-1.27.987-1.27s.988.569.988 1.27v47.623c-.019.701-.285 1.27-.988 1.27z" fill="url(#paint3_linear)"/><path d="M375.517 102.715a1.265 1.265 0 01-1.196-1.707l21.483-58.694c.19-.511.703-.853 1.235-.834a1.278 1.278 0 011.178.93l16.829 58.693c.19.683-.19 1.384-.873 1.574a1.269 1.269 0 01-1.577-.872L396.83 46.883 376.695 101.9c-.171.493-.665.816-1.178.816z" fill="url(#paint4_linear)"/><path d="M396.128 119.151c-.703 0-1.311-.569-1.311-1.27V44.797c0-.7.608-1.27 1.311-1.27s1.311.57 1.311 1.27v73.065c-.019.701-.608 1.289-1.311 1.289z" fill="url(#paint5_linear)"/><path d="M407.088 173.049l-30.62-27.508 1.709-1.877 30.602 27.489-1.691 1.896z" fill="url(#paint6_linear)"/><path d="M378.177 173.049l-1.709-1.896 30.62-27.489 1.691 1.877-30.602 27.508z" fill="url(#paint7_linear)"/><path d="M407.088 201.315l-30.62-27.508 1.709-1.896 30.602 27.508-1.691 1.896z" fill="url(#paint8_linear)"/><path d="M378.177 201.315l-1.709-1.896 30.62-27.508 1.691 1.896-30.602 27.508z" fill="url(#paint9_linear)"/><path d="M407.848 229.316l-30.62-27.489 1.709-1.896 30.62 27.489-1.709 1.896z" fill="url(#paint10_linear)"/><path d="M378.937 229.316l-1.709-1.896 30.62-27.489 1.709 1.896-30.62 27.489z" fill="url(#paint11_linear)"/><path d="M407.848 258.588l-30.62-27.49 1.709-1.895 30.62 27.508-1.709 1.877z" fill="url(#paint12_linear)"/><path d="M378.937 258.588l-1.709-1.877 30.62-27.508 1.709 1.895-30.62 27.49z" fill="url(#paint13_linear)"/><path d="M407.848 288.124l-30.62-27.489 1.709-1.896 30.62 27.489-1.709 1.896z" fill="url(#paint14_linear)"/><path d="M378.937 288.124l-1.709-1.896 30.62-27.489 1.709 1.896-30.62 27.489z" fill="url(#paint15_linear)"/><path d="M407.848 316.39l-30.62-27.489 1.709-1.896 30.62 27.49-1.709 1.895z" fill="url(#paint16_linear)"/><path d="M378.937 316.39l-1.709-1.895 30.62-27.49 1.709 1.896-30.62 27.489z" fill="url(#paint17_linear)"/><path d="M378.519 141.56h-1.957v175.741h1.957V141.56z" fill="url(#paint18_linear)"/><path d="M411.133 141.56h-3.267v175.741h3.267V141.56z" fill="url(#paint19_linear)"/><path d="M409.823 170.85h-32.615v2.597h32.615v-2.597z" fill="url(#paint20_linear)"/><path d="M409.823 199.476h-32.615v2.597h32.615v-2.597z" fill="url(#paint21_linear)"/><path d="M409.823 228.766h-32.615v1.953h32.615v-1.953z" fill="url(#paint22_linear)"/><path d="M409.823 257.412h-32.615v1.953h32.615v-1.953z" fill="url(#paint23_linear)"/><path d="M409.823 285.394h-32.615v3.261h32.615v-3.261z" fill="url(#paint24_linear)"/><path d="M407.088 173.049l-30.62-27.508 1.709-1.877 30.602 27.489-1.691 1.896z" fill="url(#paint25_linear)"/><path d="M373.941 99.245v45.935c0 1.517.513 2.237 2.033 2.237h36.87c1.519 0 2.849-.72 2.849-2.237V99.245h-41.752z" fill="url(#paint26_linear)"/><path opacity=".5" d="M407.866 122.867a3.053 3.053 0 01-3.058 3.052h-23.231a3.053 3.053 0 01-3.058-3.052v-10.806a3.053 3.053 0 013.058-3.052h23.231a3.053 3.053 0 013.058 3.052v10.806z" fill="#fff"/><path d="M396.204 79.813a1.25 1.25 0 01-.798-.284l-10.2-8.152a1.247 1.247 0 01-.19-1.782 1.252 1.252 0 011.785-.19l9.384 7.489 8.073-6.939a1.288 1.288 0 011.804.133c.456.53.399 1.346-.132 1.8l-8.871 7.622c-.266.19-.57.303-.855.303z" fill="url(#paint27_linear)"/><path d="M396.203 95.074c-.171 0-.323-.038-.475-.095l-15.595-6.275a1.27 1.27 0 01-.703-1.65 1.275 1.275 0 011.653-.7l15.158 6.104 13.753-4.247a1.282 1.282 0 011.595.835 1.28 1.28 0 01-.835 1.592l-14.19 4.38a1.196 1.196 0 01-.361.056z" fill="url(#paint28_linear)"/><path d="M238.942 151.986c-.703 0-1.311-.568-1.311-1.27v-49.272c0-.531.152-1.005.646-1.194l158.42-58.694a1.166 1.166 0 011.159.17l74.176 55.017c.57.417.665 1.213.247 1.782a1.275 1.275 0 01-1.785.265l-73.417-54.58-156.825 58.144v48.362c0 .702-.608 1.27-1.31 1.27z" fill="url(#paint29_linear)"/><path d="M479.593 100.022a2.734 2.734 0 00-2.736-2.73H233.87a2.733 2.733 0 00-2.735 2.73v1.688a2.733 2.733 0 002.735 2.73h243.006a2.734 2.734 0 002.736-2.73v-1.688h-.019z" fill="url(#paint30_linear)"/><path d="M476.99 105.103h-27.391v35.148h27.391v-35.148z" fill="url(#paint31_linear)"/><path opacity=".5" d="M455.469 107.7h-3.913v27.338h3.913V107.7zm7.179 0h-5.223v27.338h5.223V107.7zm5.87 0h-3.913v27.338h3.913V107.7zm7.162 0h-4.559v27.338h4.559V107.7z" fill="#fff"/><path d="M248.914 146.754h-11.815c-.76 0-1.406.227-1.406.986v15.678c0 .588.171 1.175.456 1.706l4.502 8.38c.152.303.475.587.817.587h3.362c.342 0 .665-.303.817-.606l4.445-8.209c.266-.512.608-1.119.608-1.706v-15.849c-.019-.721-1.026-.967-1.786-.967z" fill="url(#paint32_linear)"/><path opacity=".9" d="M248.078 158.679a3.053 3.053 0 01-3.058 3.052h-3.666a3.053 3.053 0 01-3.058-3.052v-6.257a3.053 3.053 0 013.058-3.052h3.666a3.053 3.053 0 013.058 3.052v6.257z" fill="url(#paint33_linear)"/><path d="M317.411 260.919h-3.78v17.821h3.78v-17.821z" fill="url(#paint34_linear)"/><path d="M325.598 272.332h-20.173v63.339h20.173v-63.339z" fill="url(#paint35_linear)"/><path d="M391.587 321.092H288.158v132.251h103.429V321.092z" fill="url(#paint36_linear)"/><path d="M340.984 321.092h-52.978v7.072h52.978v-7.072z" fill="url(#paint37_linear)"/><path d="M430.014 246.189h-90.132v207.154h90.132V246.189z" fill="url(#paint38_linear)"/><path d="M508.56 318.438H391.606v150.47H508.56v-150.47z" fill="url(#paint39_linear)"/><path d="M430.014 246.189h-90.132v7.071h90.132v-7.071z" fill="url(#paint40_linear)"/><path d="M508.56 318.438H391.606v7.071H508.56v-7.071z" fill="url(#paint41_linear)"/><path d="M302.861 339.102h-3.78v17.821h3.78v-17.821z" fill="url(#paint42_linear)"/><path d="M316.556 339.102h-3.78v17.821h3.78v-17.821z" fill="url(#paint43_linear)"/><path d="M330.252 339.102h-3.78v17.821h3.78v-17.821z" fill="url(#paint44_linear)"/><path d="M302.861 370.288h-3.78v17.821h3.78v-17.821z" fill="url(#paint45_linear)"/><path d="M316.556 370.288h-3.78v17.821h3.78v-17.821z" fill="url(#paint46_linear)"/><path d="M330.252 370.288h-3.78v17.821h3.78v-17.821z" fill="url(#paint47_linear)"/><path d="M302.861 401.474h-3.78v17.821h3.78v-17.821z" fill="url(#paint48_linear)"/><path d="M316.556 401.474h-3.78v17.821h3.78v-17.821z" fill="url(#paint49_linear)"/><path d="M330.252 401.474h-3.78v17.821h3.78v-17.821z" fill="url(#paint50_linear)"/><path d="M357.548 263.839h-3.78v17.82h3.78v-17.82z" fill="url(#paint51_linear)"/><path d="M371.243 263.839h-3.78v17.82h3.78v-17.82z" fill="url(#paint52_linear)"/><path d="M384.958 263.839h-3.78v17.82h3.78v-17.82z" fill="url(#paint53_linear)"/><path d="M405.283 295.65h-3.78v17.821h3.78V295.65z" fill="url(#paint54_linear)"/><path d="M418.978 295.65h-3.78v17.821h3.78V295.65z" fill="url(#paint55_linear)"/><path d="M405.283 263.839h-3.78v17.82h3.78v-17.82z" fill="url(#paint56_linear)"/><path d="M418.978 263.839h-3.78v17.82h3.78v-17.82z" fill="url(#paint57_linear)"/><path d="M357.548 295.65h-3.78v17.821h3.78V295.65z" fill="url(#paint58_linear)"/><path d="M371.243 295.65h-3.78v17.821h3.78V295.65z" fill="url(#paint59_linear)"/><path d="M384.958 295.65h-3.78v17.821h3.78V295.65z" fill="url(#paint60_linear)"/><path d="M357.548 327.462h-3.78v17.82h3.78v-17.82z" fill="url(#paint61_linear)"/><path d="M371.243 327.462h-3.78v17.82h3.78v-17.82z" fill="url(#paint62_linear)"/><path d="M384.958 327.462h-3.78v17.82h3.78v-17.82z" fill="url(#paint63_linear)"/><path d="M357.548 359.255h-3.78v17.82h3.78v-17.82z" fill="url(#paint64_linear)"/><path d="M371.243 359.255h-3.78v17.82h3.78v-17.82z" fill="url(#paint65_linear)"/><path d="M384.958 359.255h-3.78v17.82h3.78v-17.82z" fill="url(#paint66_linear)"/><path d="M357.548 391.066h-3.78v17.821h3.78v-17.821z" fill="url(#paint67_linear)"/><path d="M371.243 391.066h-3.78v17.821h3.78v-17.821z" fill="url(#paint68_linear)"/><path d="M384.958 391.066h-3.78v17.821h3.78v-17.821z" fill="url(#paint69_linear)"/><path d="M411.19 338.211h-3.78v17.821h3.78v-17.821z" fill="url(#paint70_linear)"/><path d="M425.152 338.211h-3.78v17.821h3.78v-17.821z" fill="url(#paint71_linear)"/><path d="M439.113 338.211h-3.78v17.821h3.78v-17.821z" fill="url(#paint72_linear)"/><path d="M453.075 338.211h-3.78v17.821h3.78v-17.821z" fill="url(#paint73_linear)"/><path d="M467.036 338.211h-3.78v17.821h3.78v-17.821z" fill="url(#paint74_linear)"/><path d="M480.998 338.211h-3.78v17.821h3.78v-17.821z" fill="url(#paint75_linear)"/><path d="M494.96 338.211h-3.78v17.821h3.78v-17.821z" fill="url(#paint76_linear)"/><path d="M411.19 370.193h-3.78v17.821h3.78v-17.821z" fill="url(#paint77_linear)"/><path d="M425.152 370.193h-3.78v17.821h3.78v-17.821z" fill="url(#paint78_linear)"/><path d="M439.113 370.193h-3.78v17.821h3.78v-17.821z" fill="url(#paint79_linear)"/><path d="M453.075 370.193h-3.78v17.821h3.78v-17.821z" fill="url(#paint80_linear)"/><path d="M467.036 370.193h-3.78v17.821h3.78v-17.821z" fill="url(#paint81_linear)"/><path d="M480.998 370.193h-3.78v17.821h3.78v-17.821z" fill="url(#paint82_linear)"/><path d="M494.96 370.193h-3.78v17.821h3.78v-17.821z" fill="url(#paint83_linear)"/><path d="M411.19 402.157h-3.78v17.82h3.78v-17.82z" fill="url(#paint84_linear)"/><path d="M425.152 402.157h-3.78v17.82h3.78v-17.82z" fill="url(#paint85_linear)"/><path d="M439.113 402.157h-3.78v17.82h3.78v-17.82z" fill="url(#paint86_linear)"/><path d="M453.075 402.157h-3.78v17.82h3.78v-17.82z" fill="url(#paint87_linear)"/><path d="M467.036 402.157h-3.78v17.82h3.78v-17.82z" fill="url(#paint88_linear)"/><path d="M480.998 402.157h-3.78v17.82h3.78v-17.82z" fill="url(#paint89_linear)"/><path d="M494.96 402.157h-3.78v17.82h3.78v-17.82z" fill="url(#paint90_linear)"/><path d="M411.19 434.139h-3.78v17.82h3.78v-17.82z" fill="url(#paint91_linear)"/><path d="M425.152 434.139h-3.78v17.82h3.78v-17.82z" fill="url(#paint92_linear)"/><path d="M439.113 434.139h-3.78v17.82h3.78v-17.82z" fill="url(#paint93_linear)"/><path d="M453.075 434.139h-3.78v17.82h3.78v-17.82z" fill="url(#paint94_linear)"/><path d="M467.036 434.139h-3.78v17.82h3.78v-17.82z" fill="url(#paint95_linear)"/><path d="M480.998 434.139h-3.78v17.82h3.78v-17.82z" fill="url(#paint96_linear)"/><path d="M494.96 434.139h-3.78v17.82h3.78v-17.82z" fill="url(#paint97_linear)"/><path d="M318.608 290.513h-6.173v35.736h6.173v-35.736z" fill="url(#paint98_linear)"/><path d="M381.824 425.304H270.512v43.3h111.312v-43.3z" fill="url(#paint99_linear)"/><path d="M381.824 424.565H270.512v7.071h111.312v-7.071z" fill="url(#paint100_linear)"/><path d="M288.614 442.291h-3.78v17.82h3.78v-17.82z" fill="url(#paint101_linear)"/><path d="M302.918 442.291h-3.78v17.82h3.78v-17.82z" fill="url(#paint102_linear)"/><path d="M317.202 442.291h-3.78v17.82h3.78v-17.82z" fill="url(#paint103_linear)"/><path d="M331.486 442.291h-3.78v17.82h3.78v-17.82z" fill="url(#paint104_linear)"/><path d="M345.77 442.291h-3.78v17.82h3.78v-17.82z" fill="url(#paint105_linear)"/><path d="M360.055 442.291h-3.78v17.82h3.78v-17.82z" fill="url(#paint106_linear)"/><path d="M477.825 307.195c1.159.436 18.672 7.394 22.282 25.65.284 1.479 3.115 17.157-7.561 28.248-11.948 12.417-34.97 12.114-44.106 1.725-2.128-2.426-3.249-5.1-3.876-7.356l2.413-6.388c2.944-3.546 6.933-4.38 9.08-4.911 5.261-1.289 9.231 1.043 12.252-1.497 1.671-1.403 1.994-3.413 2.298-5.214 1.007-6.142-2.469-9.915-2.716-13.706-.19-2.825-1.178-9.024 2.526-13.081 2.336-2.541 5.585-3.242 7.408-3.47z" fill="url(#paint107_linear)"/><path d="M484.664 510.691c.209-1.118 3.837-2.142 5.641-.644.893.739 1.501 2.256.988 2.938-.19.247.589.683-.152.702-2.45.038-6.686-1.877-6.477-2.996z" fill="url(#paint108_linear)"/><path d="M488.463 511.089l3.742-.531c-1.729-2.085-1.406-8.721-1.406-8.721l-3.97.891s.456 1.82 1.216 4.512c.266.929.38 2.351.418 3.849z" fill="url(#paint109_linear)"/><path d="M488.14 510.634s4.502-1.042 4.996-.151c.494.891.874 3.28-1.995 3.204-2.868-.076-3.248-2.294-3.001-3.053z" fill="url(#paint110_linear)"/><path d="M433.339 514.9c.361-1.081 4.103-1.593 5.679.151.779.873 1.178 2.446.57 3.053-.228.227.475.758-.247.663-2.45-.303-6.363-2.787-6.002-3.867z" fill="url(#paint111_linear)"/><path d="M437.061 515.829h3.78c-1.424-2.313-.171-8.834-.171-8.834l-4.065.322s.19 1.858.589 4.626c.114.967.019 2.407-.133 3.886z" fill="url(#paint112_linear)"/><path d="M427.26 373.264a172.88 172.88 0 00-5.851 26.75c-4.596 33.309 5.167 34.371 3.344 71.282-.589 11.792 10.219 38.959 11.188 39.547.456.038.969.075 1.5.056.931-.018 2.261-.17 3.799-.625 1.71-.303 7.883-16.986 6.459-26.902-1.007-7.014-.722-14.559-.133-29.631.095-2.445 6.363-47.528 6.363-47.528a731.185 731.185 0 006.003 41.86c6.097 35.318 25.947 56.684 26.973 57.025.209.076 2.07.759 3.59-.246.684-.455.912-1.024.912-1.024.532-.417-.152-35.262-6.212-61.481-8.775-38.067-4.957-46.959-7.75-63.964-2.431-14.692-50.185-5.119-50.185-5.119z" fill="url(#paint113_linear)"/><path d="M462.743 304.238c-5.832-.171-18.615-1.573-28.702 3.071-.152.076 3.457 2.256 2.716 3.128-.683.816-3.058 3.64-5.204 7.47-1.558 2.768-2.964 6.009-4.388 10.806-2.508 8.493-3.21 15.716-3.457 18.863-1.349 17.707-.019 25.878 1.196 31.432 5.281 2.711 18.863 7.546 35.047 5.138a54.673 54.673 0 0017.475-5.744c-4.198-12.683-.911-19.489.646-25.745 2.223-8.929 2.261-8.247 4.084-15.337 3.02-11.697 3.514-23.66 1.444-26.105-5.585-6.598-15.652-6.825-20.857-6.977z" fill="url(#paint114_linear)"/><path d="M436.796 515.336s4.597-.398 4.958.55c.361.948.399 3.374-2.413 2.9-2.83-.474-2.906-2.73-2.545-3.45z" fill="url(#paint115_linear)"/><path d="M446.331 297.565c-1.804-3.052-1.006-6.522-.816-7.28.759-3.147 1.044-3.621 1.633-4.284l.836-.872.114-.076c.57-.398 2.735-1.043 3.191-1.062 1.482-.076 4.502 5.232 6.231 13.403.133.285.285.588.418.891a59.648 59.648 0 011.69 4.038 2.391 2.391 0 002.033 1.555c8.662.834 9.915 1.915 9.953 2.559.095 1.422-5.622 3.071-9.915 3.697-9.365 1.365-18.996-1.099-18.958-2.844.019-.682 1.501-1.535 7.466-2.445a2.44 2.44 0 002.032-2.73l-.228-1.536c-.665-.151-4.35-.777-5.68-3.014z" fill="url(#paint116_linear)"/><path d="M446.18 284.37c.684 2.503.816 4.076 1.538 4.342.095.038.627.265 1.178.739a1.1 1.1 0 01.228.266c.969 1.421-1.045 3.943-.38 4.531.494.417 2.014-.721 2.336-.342.304.361-.892 1.612-.531 2.048.266.341 1.044-.247 1.747.189.342.209.323.455.855 1.271.304.455.665.928.931 1.194 1.253 1.232 3.856 1.118 4.16.417.095-.19-.057-.303-.076-.891 0 0-.019-.55.19-1.232.285-.967 1.348-1.896 2.336-3.109 1.843-2.256 2.09-3.811 2.147-4.342.019-.189.037-.322.037-.417.095-1.991-.607-4.702-1.899-6.142-2.127-2.427-4.92-.266-8.225-2.332-3.818-2.408.038 2.028-1.691 1.971-1.899-.113-6.116-2.767-4.881 1.839z" fill="url(#paint117_linear)"/><path d="M449.485 293.413c.38-1.005 1.672-.493 1.975.588.304 1.08-.455 2.502-1.538 2.559-1.083.057-.95-1.801-.437-3.147z" fill="url(#paint118_linear)"/><path opacity=".4" d="M460.349 368.582c-5.812-1.574-9.402 5.422-14.417 4.379-6.895-1.422-9.346-16.607-10.01-20.721-2.413-14.863 2.07-20.342-1.957-26.807-.893-1.421-2.184-2.862-4.122-4.189-.912 2.047-1.804 4.436-2.678 7.45-2.508 8.493-3.21 15.716-3.457 18.863-1.349 17.707-.019 25.878 1.196 31.433 5.281 2.711 18.863 7.545 35.046 5.138 6.687-.986 12.157-3.091 16.222-5.1-4.312-.702-7.104-2.313-8.984-4.133-2.66-2.521-3.477-5.403-6.839-6.313z" fill="url(#paint119_linear)"/><path d="M420.441 353.51l-16.887-37.594a1.19 1.19 0 00-1.197-.682l-29.518 3.716c-.779.094-1.254.947-.893 1.649l19.907 40.627c.247.493.798.739 1.311.607l26.27-6.484 1.007-1.839z" fill="url(#paint120_linear)"/><path d="M415.806 348.96l-13.657-30.446a.932.932 0 00-.969-.55l-23.896 3.014a.932.932 0 00-.722 1.346l16.108 32.892a.923.923 0 001.064.493l21.275-5.251.797-1.498z" fill="#fff"/><path d="M397.171 318.343l-1.083-2.446a.83.83 0 00-.873-.493l-12.29 1.441a.841.841 0 00-.665 1.194l1.216 2.654c.152.342.513.531.893.493l12.156-1.649a.86.86 0 00.646-1.194z" fill="url(#paint121_linear)"/><path d="M380.418 326.571h.057l21.635-2.768a.49.49 0 00.418-.55.49.49 0 00-.551-.417l-21.635 2.768a.49.49 0 00-.418.55.507.507 0 00.494.417z" fill="url(#paint122_linear)"/><path d="M381.539 328.751h.057l21.54-2.977a.49.49 0 00.418-.549.49.49 0 00-.551-.417l-21.54 2.976a.49.49 0 00-.418.55.492.492 0 00.494.417z" fill="url(#paint123_linear)"/><path d="M392.366 332.182h.076l11.739-1.953a.48.48 0 00.399-.568.482.482 0 00-.57-.398l-11.739 1.952a.482.482 0 00-.399.569.525.525 0 00.494.398z" fill="url(#paint124_linear)"/><path d="M386.991 351.292s-4.806-3.261-5.376-5.574c-.57-2.294-.418-6.635-.418-6.635l2.811 6.105s1.349-.38 1.938-2.389c.589-2.01 1.577-.171 1.178 1.346-.418 1.516-.133 7.147-.133 7.147z" fill="url(#paint125_linear)"/><path d="M434.042 307.29c-5.034.758-14.645 4.986-19.793 11.754-9.517 12.531-5.87 25.707-13.848 30.39-2.279 1.346-6.287 2.426-13.505-.114l-2.774 1.479s-3.381 17.157 17.495 17.801c20.876.645 31.285-25.271 31.285-25.271l9.802-31.698-8.662-4.341z" fill="url(#paint126_linear)"/><path d="M463.958 282.209a8.4 8.4 0 00-.797-1.214c-1.197-1.497-2.679-2.388-4.369-3.241-2.831-1.403-5.908-1.764-8.776-.19-2.033 1.119-3.628 3.261-4.711 5.251a3.288 3.288 0 00-.057 2.977c1.767 3.488 6.724 11.906 12.993 10.806 2.374-.417 4.597-1.896 5.546-4.133 1.349-3.128 1.824-7.166.171-10.256z" fill="url(#paint127_linear)"/><path d="M462.269 288.996c-1.026 4.891-2.033 5.687-4.046 5.46a1.369 1.369 0 01-.646-.209h-.019c-.171-.114-.285-.265-.399-.474 0-.019-.019-.019-.019-.019-.532-1.232.057-4.114.627-9.308.76-7.052-6.705-7.337-6.705-7.337 0-.038.303-.72.36-.777.076-.095.171-.171.285-.247.133-.094.285-.151.456-.208 2.128-.645 4.863.227 6.687 1.346 3.837 2.37 4.216 7.943 3.419 11.773z" fill="url(#paint128_linear)"/><path d="M446.274 281.242s-2.355.474-1.937 3.147c.323 2.161 4.863 12.569 12.822 12.607 7.959.038 6.42-4.133 6.42-4.133s-2.203 3.64-6.648 2.636c-4.445-1.024-6.839-3.299-9.669-8.285.019 0-2.203-4.398-.988-5.972z" fill="url(#paint129_linear)"/><path opacity=".2" d="M458.812 284.579c-.057 2.18-.988 9.649-1.235 9.649h-.019a7.158 7.158 0 01-.399-.474c0-.019-.019-.019-.019-.019-.532-1.232.057-4.114.627-9.308.76-7.052-6.705-7.337-6.705-7.337 0-.038.303-.72.36-.777.076-.095.171-.171.285-.247 1.444.228 4.939.986 5.965 2.958 1.311 2.502 1.216 3.336 1.14 5.555z" fill="url(#paint130_linear)"/><path d="M314.391 153.256L35.655 137.161c-6.42-.303-12.195 6.673-12.195 12.55v358.193c0 8.133 8.339 9.783 14.76 9.119l276.17-28.153c5.053-.512 9.118-5.118 9.118-10.294V163.077c0-5.176-4.084-9.574-9.118-9.821z" fill="url(#paint131_linear)"/><path d="M318.969 150.413L39.701 136.706c-6.42-.322-11.644 4.228-11.644 10.143v360.998c0 5.915 5.223 10.181 11.644 9.517l279.268-28.683c5.053-.512 9.118-5.157 9.118-10.37V160.29c0-5.195-4.065-9.631-9.118-9.877z" fill="#D8DEE8"/><path opacity=".3" d="M39.7 512.473c-3.457.341-6.287-1.953-6.287-5.157v-360.24c0-3.185 2.83-5.649 6.288-5.479l279.268 13.157c2.735.133 4.938 2.521 4.938 5.346v318.59c0 2.824-2.222 5.346-4.938 5.611L39.7 512.473z" fill="url(#paint132_linear)"/><path d="M300.962 475.771L62.115 498.748V166.395l238.847 8.986v300.39z" fill="#fff"/><path opacity=".3" d="M205.435 177.011l-95.47 1.194 2.146-21.479c.171-2.787 2.185-5.081 4.844-5.498l16.165-2.484c1.9-.284 3.552-1.554 4.369-3.355l1.748-3.792 42.283 2.597 23.915 32.817z" fill="#97A6B7"/><path d="M256.418 163.077c-.456-2.427-2.413-4.133-4.863-4.247l-15.253-.682c-6.915-.304-12.005-5.915-11.739-13.025l.588-16.474c.114-3.052-2.07-5.498-5.071-5.668l-5.015-.304c-3.818-.227-6.363-3.583-5.832-7.469.931-6.787-3.723-12.664-10.485-13.119-6.819-.455-13.164 4.739-14.189 11.621a7.622 7.622 0 01-1.064 2.939c-1.577 2.521-4.331 3.905-7.028 3.753l-5.167-.303c-3.134-.19-6.117 2.009-6.895 5.1l-4.293 16.721c-1.862 7.242-8.871 12.455-16.317 12.133l-16.735-.74c-2.735-.113-5.433 1.479-6.686 3.963l-10.087 19.962c-.817 1.631.19 3.394 1.995 3.47l145.104 4.815c1.596.057 2.945-1.536 2.641-3.09l-3.609-19.356zm-59.74-46.751c-1.995-.132-3.382-1.858-3.097-3.867.285-2.01 2.147-3.545 4.141-3.413 1.995.133 3.381 1.858 3.078 3.868-.266 2.009-2.128 3.545-4.122 3.412z" fill="url(#paint133_linear)"/><path d="M257.273 163.513c-.456-2.427-2.413-4.133-4.863-4.247l-15.253-.682c-6.915-.304-12.005-5.915-11.739-13.024l.588-16.475c.114-3.052-2.07-5.498-5.071-5.668l-5.015-.304c-3.818-.227-6.363-3.583-5.832-7.469.931-6.787-3.723-12.664-10.485-13.119-6.819-.455-13.164 4.739-14.189 11.621a7.622 7.622 0 01-1.064 2.939c-1.577 2.521-4.331 3.905-7.028 3.753l-5.167-.303c-3.134-.19-6.117 2.01-6.895 5.1l-4.293 16.721c-1.862 7.242-8.871 12.455-16.317 12.133l-16.735-.74c-2.735-.113-5.433 1.479-6.686 3.963l-10.106 19.925c-.817 1.63.19 3.393 1.995 3.469l145.104 4.815c1.596.057 2.945-1.535 2.641-3.09l-3.59-19.318zm-59.74-46.732c-1.995-.132-3.382-1.858-3.097-3.867.285-2.01 2.147-3.545 4.141-3.413 1.995.133 3.381 1.858 3.077 3.868-.265 1.99-2.108 3.526-4.121 3.412z" fill="#97A6B7"/><path opacity=".5" d="M232.446 172.688c-12.936-7.981-22.871-2.313-30.944-11.318-8.642-9.63-2.811-22.313-11.739-28.285-5.717-3.83-10.827-.455-17.475-1.498-2.432-.379-5.034-1.346-7.731-3.223l-3.59 13.953c-1.862 7.242-8.871 12.456-16.317 12.134l-16.735-.74c-2.735-.114-5.433 1.479-6.686 3.962l-10.106 19.963c-.817 1.631.19 3.394 1.995 3.469l131.865 4.38c-3.325-5.271-7.447-9.65-12.537-12.797z" fill="#fff"/><path d="M220.687 206.111l-65.875-1.971v-6.655l65.875 2.218v6.408zm14.342 14.408l-95.223-2.047v-6.711l95.223 2.388v6.37zm46.956 26.447l-195.651-1.403v-5.517l195.651 1.972v4.948zm0 11.185l-195.651-.189v-5.517l195.651.739v4.967zm0 10.541l-195.651.985v-5.516l195.651-.436v4.967zm0 112.326L86.334 394.44v-5.517l195.651-12.872v4.967zm0 11.166L86.334 406.857v-5.517l195.651-14.123v4.967zm0 11.185L86.334 419.256v-5.517l195.651-15.337v4.967zm-4.559-114.108l-169.571 2.806v-4.777l169.571-2.389v4.36zm0 11.186l-169.571 3.886v-5.46l169.571-3.394v4.968zm0 11.203l-169.571 4.948v-5.459l169.571-4.474v4.985zM96.762 292.238l-5.204.113v-4.815l5.204-.095v4.797zm180.664 43.053l-169.571 7.205v-4.778l169.571-6.787v4.36zm0 11.205l-169.571 8.265v-5.441l169.571-7.81v4.986zm0 11.185l-169.571 9.346v-5.441l169.571-8.872v4.967zM96.762 342.95l-5.204.266V338.4l5.204-.246v4.796zm185.223 92.06l-50.87 4.948v-4.455l50.87-4.834v4.341zm0 14.902l-50.87 5.365v-5.1l50.87-5.232v4.967z" fill="#D8DEE8"/><g opacity=".5"><path opacity=".5" d="M222.225 460.319c-14.493-9.915-16.62-30.465-4.653-45.499 11.815-14.844 32.709-18.427 46.557-8.323 13.62 9.953 15.576 29.708 4.426 44.362-11.302 14.826-32.045 19.224-46.33 9.46zm39.492-50.731c-12.233-8.892-30.659-5.688-41.049 7.393-10.504 13.233-8.643 31.319 4.084 40.078 12.556 8.626 30.867 4.796 40.859-8.285 9.896-12.929 8.168-30.409-3.894-39.186z" fill="url(#paint134_linear)"/><path opacity=".5" d="M228.399 452.395c-10.219-7.052-11.72-21.593-3.286-32.247 8.339-10.56 23.212-13.195 33.09-6.048 9.782 7.071 11.188 21.214 3.172 31.679-8.092 10.56-22.87 13.593-32.976 6.616zm27.373-35.167c-8.263-5.953-20.648-3.735-27.601 5.081-6.99 8.872-5.755 20.967 2.736 26.863 8.415 5.839 20.743 3.337 27.524-5.479 6.705-8.739 5.527-20.569-2.659-26.465z" fill="url(#paint135_linear)"/><path opacity=".5" d="M256.151 435.579L237.175 422.1c-.836-.588-.95-1.782-.266-2.654.683-.873 1.918-1.1 2.754-.512l18.938 13.498c.817.587.931 1.763.266 2.635-.684.853-1.899 1.081-2.716.512z" fill="url(#paint136_linear)"/><path opacity=".5" d="M253.169 442.423l-22.605-15.944c-.835-.587-.968-1.782-.266-2.673.684-.872 1.938-1.099 2.774-.511l22.528 15.962c.817.588.931 1.763.266 2.635-.665.873-1.881 1.119-2.697.531z" fill="url(#paint137_linear)"/><path opacity=".5" d="M247.166 447.2L228 433.759c-.836-.588-.969-1.782-.266-2.673s1.937-1.119 2.792-.531l19.128 13.441c.817.588.95 1.763.266 2.635-.702.91-1.918 1.157-2.754.569z" fill="url(#paint138_linear)"/></g></g><defs><linearGradient id="paint0_linear" x1="413.737" y1="417.167" x2="462.271" y2="417.167" gradientUnits="userSpaceOnUse"><stop offset=".494" stop-color="#EBEFF2"/><stop offset="1" stop-color="#fff"/></linearGradient><linearGradient id="paint1_linear" x1="405.712" y1="426.663" x2="469.914" y2="426.663" gradientUnits="userSpaceOnUse"><stop offset=".494" stop-color="#EBEFF2"/><stop offset="1" stop-color="#fff"/></linearGradient><linearGradient id="paint2_linear" x1="237.2" y1="181.315" x2="250.7" y2="181.315" gradientUnits="userSpaceOnUse"><stop stop-color="#444B8C"/><stop offset=".996" stop-color="#26264F"/></linearGradient><linearGradient id="paint3_linear" x1="244.814" y1="126.908" x2="246.771" y2="126.908" gradientUnits="userSpaceOnUse"><stop stop-color="#444B8C"/><stop offset=".996" stop-color="#26264F"/></linearGradient><linearGradient id="paint4_linear" x1="374.241" y1="72.104" x2="415.105" y2="72.104" gradientUnits="userSpaceOnUse"><stop stop-color="#444B8C"/><stop offset=".996" stop-color="#26264F"/></linearGradient><linearGradient id="paint5_linear" x1="394.818" y1="81.333" x2="397.427" y2="81.333" gradientUnits="userSpaceOnUse"><stop stop-color="#444B8C"/><stop offset=".996" stop-color="#26264F"/></linearGradient><linearGradient id="paint6_linear" x1="376.466" y1="158.353" x2="408.785" y2="158.353" gradientUnits="userSpaceOnUse"><stop stop-color="#444B8C"/><stop offset=".996" stop-color="#26264F"/></linearGradient><linearGradient id="paint7_linear" x1="408.785" y1="158.353" x2="376.466" y2="158.353" gradientUnits="userSpaceOnUse"><stop stop-color="#444B8C"/><stop offset=".996" stop-color="#26264F"/></linearGradient><linearGradient id="paint8_linear" x1="376.466" y1="186.614" x2="408.785" y2="186.614" gradientUnits="userSpaceOnUse"><stop stop-color="#444B8C"/><stop offset=".996" stop-color="#26264F"/></linearGradient><linearGradient id="paint9_linear" x1="408.785" y1="186.614" x2="376.466" y2="186.614" gradientUnits="userSpaceOnUse"><stop stop-color="#444B8C"/><stop offset=".996" stop-color="#26264F"/></linearGradient><linearGradient id="paint10_linear" x1="377.231" y1="214.621" x2="409.551" y2="214.621" gradientUnits="userSpaceOnUse"><stop stop-color="#444B8C"/><stop offset=".996" stop-color="#26264F"/></linearGradient><linearGradient id="paint11_linear" x1="409.551" y1="214.621" x2="377.231" y2="214.621" gradientUnits="userSpaceOnUse"><stop stop-color="#444B8C"/><stop offset=".996" stop-color="#26264F"/></linearGradient><linearGradient id="paint12_linear" x1="377.231" y1="243.901" x2="409.551" y2="243.901" gradientUnits="userSpaceOnUse"><stop stop-color="#444B8C"/><stop offset=".996" stop-color="#26264F"/></linearGradient><linearGradient id="paint13_linear" x1="409.551" y1="243.901" x2="377.231" y2="243.901" gradientUnits="userSpaceOnUse"><stop stop-color="#444B8C"/><stop offset=".996" stop-color="#26264F"/></linearGradient><linearGradient id="paint14_linear" x1="377.231" y1="273.435" x2="409.551" y2="273.435" gradientUnits="userSpaceOnUse"><stop stop-color="#444B8C"/><stop offset=".996" stop-color="#26264F"/></linearGradient><linearGradient id="paint15_linear" x1="409.551" y1="273.435" x2="377.231" y2="273.435" gradientUnits="userSpaceOnUse"><stop stop-color="#444B8C"/><stop offset=".996" stop-color="#26264F"/></linearGradient><linearGradient id="paint16_linear" x1="377.231" y1="301.696" x2="409.551" y2="301.696" gradientUnits="userSpaceOnUse"><stop stop-color="#444B8C"/><stop offset=".996" stop-color="#26264F"/></linearGradient><linearGradient id="paint17_linear" x1="409.551" y1="301.696" x2="377.231" y2="301.696" gradientUnits="userSpaceOnUse"><stop stop-color="#444B8C"/><stop offset=".996" stop-color="#26264F"/></linearGradient><linearGradient id="paint18_linear" x1="376.556" y1="229.424" x2="378.513" y2="229.424" gradientUnits="userSpaceOnUse"><stop stop-color="#444B8C"/><stop offset=".996" stop-color="#26264F"/></linearGradient><linearGradient id="paint19_linear" x1="407.861" y1="229.424" x2="411.122" y2="229.424" gradientUnits="userSpaceOnUse"><stop stop-color="#444B8C"/><stop offset=".996" stop-color="#26264F"/></linearGradient><linearGradient id="paint20_linear" x1="377.208" y1="172.143" x2="409.817" y2="172.143" gradientUnits="userSpaceOnUse"><stop stop-color="#444B8C"/><stop offset=".996" stop-color="#26264F"/></linearGradient><linearGradient id="paint21_linear" x1="377.208" y1="200.783" x2="409.817" y2="200.783" gradientUnits="userSpaceOnUse"><stop stop-color="#444B8C"/><stop offset=".996" stop-color="#26264F"/></linearGradient><linearGradient id="paint22_linear" x1="377.208" y1="229.749" x2="409.817" y2="229.749" gradientUnits="userSpaceOnUse"><stop stop-color="#444B8C"/><stop offset=".996" stop-color="#26264F"/></linearGradient><linearGradient id="paint23_linear" x1="377.208" y1="258.389" x2="409.817" y2="258.389" gradientUnits="userSpaceOnUse"><stop stop-color="#444B8C"/><stop offset=".996" stop-color="#26264F"/></linearGradient><linearGradient id="paint24_linear" x1="377.208" y1="287.029" x2="409.817" y2="287.029" gradientUnits="userSpaceOnUse"><stop stop-color="#444B8C"/><stop offset=".996" stop-color="#26264F"/></linearGradient><linearGradient id="paint25_linear" x1="376.466" y1="158.353" x2="408.785" y2="158.353" gradientUnits="userSpaceOnUse"><stop stop-color="#444B8C"/><stop offset=".996" stop-color="#26264F"/></linearGradient><linearGradient id="paint26_linear" x1="373.948" y1="123.325" x2="415.687" y2="123.325" gradientUnits="userSpaceOnUse"><stop stop-color="#444B8C"/><stop offset=".996" stop-color="#26264F"/></linearGradient><linearGradient id="paint27_linear" x1="384.717" y1="74.459" x2="406.346" y2="74.459" gradientUnits="userSpaceOnUse"><stop stop-color="#444B8C"/><stop offset=".996" stop-color="#26264F"/></linearGradient><linearGradient id="paint28_linear" x1="379.335" y1="90.668" x2="411.66" y2="90.668" gradientUnits="userSpaceOnUse"><stop stop-color="#444B8C"/><stop offset=".996" stop-color="#26264F"/></linearGradient><linearGradient id="paint29_linear" x1="237.64" y1="96.737" x2="472.535" y2="96.737" gradientUnits="userSpaceOnUse"><stop stop-color="#444B8C"/><stop offset=".996" stop-color="#26264F"/></linearGradient><linearGradient id="paint30_linear" x1="231.118" y1="100.869" x2="479.602" y2="100.869" gradientUnits="userSpaceOnUse"><stop stop-color="#FFC444"/><stop offset=".996" stop-color="#F36F56"/></linearGradient><linearGradient id="paint31_linear" x1="449.6" y1="122.674" x2="476.992" y2="122.674" gradientUnits="userSpaceOnUse"><stop stop-color="#444B8C"/><stop offset=".996" stop-color="#26264F"/></linearGradient><linearGradient id="paint32_linear" x1="235.683" y1="160.427" x2="250.684" y2="160.427" gradientUnits="userSpaceOnUse"><stop stop-color="#FFC444"/><stop offset=".996" stop-color="#F36F56"/></linearGradient><linearGradient id="paint33_linear" x1="238.292" y1="155.545" x2="248.075" y2="155.545" gradientUnits="userSpaceOnUse"><stop stop-color="#FFC444"/><stop offset=".996" stop-color="#F36F56"/></linearGradient><linearGradient id="paint34_linear" x1="313.033" y1="261.462" x2="319.419" y2="283.065" gradientUnits="userSpaceOnUse"><stop stop-color="#444B8C"/><stop offset=".996" stop-color="#3E4177"/></linearGradient><linearGradient id="paint35_linear" x1="306.426" y1="273.362" x2="329.796" y2="352.416" gradientUnits="userSpaceOnUse"><stop stop-color="#FF9085"/><stop offset="1" stop-color="#FB6FBB"/></linearGradient><linearGradient id="paint36_linear" x1="318.525" y1="315.247" x2="373.436" y2="500.994" gradientUnits="userSpaceOnUse"><stop offset=".004" stop-color="#E38DDD"/><stop offset="1" stop-color="#9571F6"/></linearGradient><linearGradient id="paint37_linear" x1="311.519" y1="314.587" x2="319.187" y2="340.523" gradientUnits="userSpaceOnUse"><stop stop-color="#444B8C"/><stop offset=".996" stop-color="#3E4177"/></linearGradient><linearGradient id="paint38_linear" x1="354.278" y1="246.425" x2="433.122" y2="513.131" gradientUnits="userSpaceOnUse"><stop stop-color="#AA80F9"/><stop offset=".996" stop-color="#6165D7"/></linearGradient><linearGradient id="paint39_linear" x1="425.81" y1="311.883" x2="488.212" y2="522.972" gradientUnits="userSpaceOnUse"><stop offset=".004" stop-color="#E38DDD"/><stop offset="1" stop-color="#9571F6"/></linearGradient><linearGradient id="paint40_linear" x1="380.526" y1="234.831" x2="391.897" y2="273.296" gradientUnits="userSpaceOnUse"><stop stop-color="#444B8C"/><stop offset=".996" stop-color="#3E4177"/></linearGradient><linearGradient id="paint41_linear" x1="444.621" y1="303.573" x2="458.667" y2="351.087" gradientUnits="userSpaceOnUse"><stop stop-color="#444B8C"/><stop offset=".996" stop-color="#3E4177"/></linearGradient><linearGradient id="paint42_linear" x1="298.485" y1="339.631" x2="304.871" y2="361.235" gradientUnits="userSpaceOnUse"><stop stop-color="#444B8C"/><stop offset=".996" stop-color="#3E4177"/></linearGradient><linearGradient id="paint43_linear" x1="312.183" y1="339.631" x2="318.569" y2="361.235" gradientUnits="userSpaceOnUse"><stop stop-color="#444B8C"/><stop offset=".996" stop-color="#3E4177"/></linearGradient><linearGradient id="paint44_linear" x1="325.881" y1="339.631" x2="332.267" y2="361.235" gradientUnits="userSpaceOnUse"><stop stop-color="#444B8C"/><stop offset=".996" stop-color="#3E4177"/></linearGradient><linearGradient id="paint45_linear" x1="298.485" y1="370.823" x2="304.871" y2="392.427" gradientUnits="userSpaceOnUse"><stop stop-color="#444B8C"/><stop offset=".996" stop-color="#3E4177"/></linearGradient><linearGradient id="paint46_linear" x1="312.183" y1="370.823" x2="318.569" y2="392.427" gradientUnits="userSpaceOnUse"><stop stop-color="#444B8C"/><stop offset=".996" stop-color="#3E4177"/></linearGradient><linearGradient id="paint47_linear" x1="325.881" y1="370.823" x2="332.267" y2="392.427" gradientUnits="userSpaceOnUse"><stop stop-color="#444B8C"/><stop offset=".996" stop-color="#3E4177"/></linearGradient><linearGradient id="paint48_linear" x1="298.485" y1="402.015" x2="304.871" y2="423.619" gradientUnits="userSpaceOnUse"><stop stop-color="#444B8C"/><stop offset=".996" stop-color="#3E4177"/></linearGradient><linearGradient id="paint49_linear" x1="312.183" y1="402.015" x2="318.569" y2="423.619" gradientUnits="userSpaceOnUse"><stop stop-color="#444B8C"/><stop offset=".996" stop-color="#3E4177"/></linearGradient><linearGradient id="paint50_linear" x1="325.881" y1="402.015" x2="332.267" y2="423.619" gradientUnits="userSpaceOnUse"><stop stop-color="#444B8C"/><stop offset=".996" stop-color="#3E4177"/></linearGradient><linearGradient id="paint51_linear" x1="353.179" y1="264.383" x2="359.565" y2="285.987" gradientUnits="userSpaceOnUse"><stop stop-color="#444B8C"/><stop offset=".996" stop-color="#3E4177"/></linearGradient><linearGradient id="paint52_linear" x1="366.877" y1="264.383" x2="373.263" y2="285.987" gradientUnits="userSpaceOnUse"><stop stop-color="#444B8C"/><stop offset=".996" stop-color="#3E4177"/></linearGradient><linearGradient id="paint53_linear" x1="380.575" y1="264.383" x2="386.962" y2="285.986" gradientUnits="userSpaceOnUse"><stop stop-color="#444B8C"/><stop offset=".996" stop-color="#3E4177"/></linearGradient><linearGradient id="paint54_linear" x1="400.913" y1="296.189" x2="407.3" y2="317.793" gradientUnits="userSpaceOnUse"><stop stop-color="#444B8C"/><stop offset=".996" stop-color="#3E4177"/></linearGradient><linearGradient id="paint55_linear" x1="414.611" y1="296.189" x2="420.997" y2="317.793" gradientUnits="userSpaceOnUse"><stop stop-color="#444B8C"/><stop offset=".996" stop-color="#3E4177"/></linearGradient><linearGradient id="paint56_linear" x1="400.913" y1="264.383" x2="407.3" y2="285.987" gradientUnits="userSpaceOnUse"><stop stop-color="#444B8C"/><stop offset=".996" stop-color="#3E4177"/></linearGradient><linearGradient id="paint57_linear" x1="414.611" y1="264.383" x2="420.997" y2="285.986" gradientUnits="userSpaceOnUse"><stop stop-color="#444B8C"/><stop offset=".996" stop-color="#3E4177"/></linearGradient><linearGradient id="paint58_linear" x1="353.179" y1="296.189" x2="359.565" y2="317.793" gradientUnits="userSpaceOnUse"><stop stop-color="#444B8C"/><stop offset=".996" stop-color="#3E4177"/></linearGradient><linearGradient id="paint59_linear" x1="366.877" y1="296.189" x2="373.263" y2="317.793" gradientUnits="userSpaceOnUse"><stop stop-color="#444B8C"/><stop offset=".996" stop-color="#3E4177"/></linearGradient><linearGradient id="paint60_linear" x1="380.575" y1="296.189" x2="386.962" y2="317.793" gradientUnits="userSpaceOnUse"><stop stop-color="#444B8C"/><stop offset=".996" stop-color="#3E4177"/></linearGradient><linearGradient id="paint61_linear" x1="353.179" y1="327.996" x2="359.565" y2="349.599" gradientUnits="userSpaceOnUse"><stop stop-color="#444B8C"/><stop offset=".996" stop-color="#3E4177"/></linearGradient><linearGradient id="paint62_linear" x1="366.877" y1="327.996" x2="373.263" y2="349.599" gradientUnits="userSpaceOnUse"><stop stop-color="#444B8C"/><stop offset=".996" stop-color="#3E4177"/></linearGradient><linearGradient id="paint63_linear" x1="380.575" y1="327.996" x2="386.962" y2="349.599" gradientUnits="userSpaceOnUse"><stop stop-color="#444B8C"/><stop offset=".996" stop-color="#3E4177"/></linearGradient><linearGradient id="paint64_linear" x1="353.179" y1="359.803" x2="359.565" y2="381.406" gradientUnits="userSpaceOnUse"><stop stop-color="#444B8C"/><stop offset=".996" stop-color="#3E4177"/></linearGradient><linearGradient id="paint65_linear" x1="366.877" y1="359.803" x2="373.263" y2="381.406" gradientUnits="userSpaceOnUse"><stop stop-color="#444B8C"/><stop offset=".996" stop-color="#3E4177"/></linearGradient><linearGradient id="paint66_linear" x1="380.575" y1="359.803" x2="386.962" y2="381.406" gradientUnits="userSpaceOnUse"><stop stop-color="#444B8C"/><stop offset=".996" stop-color="#3E4177"/></linearGradient><linearGradient id="paint67_linear" x1="353.179" y1="391.609" x2="359.565" y2="413.212" gradientUnits="userSpaceOnUse"><stop stop-color="#444B8C"/><stop offset=".996" stop-color="#3E4177"/></linearGradient><linearGradient id="paint68_linear" x1="366.877" y1="391.609" x2="373.263" y2="413.212" gradientUnits="userSpaceOnUse"><stop stop-color="#444B8C"/><stop offset=".996" stop-color="#3E4177"/></linearGradient><linearGradient id="paint69_linear" x1="380.575" y1="391.609" x2="386.962" y2="413.212" gradientUnits="userSpaceOnUse"><stop stop-color="#444B8C"/><stop offset=".996" stop-color="#3E4177"/></linearGradient><linearGradient id="paint70_linear" x1="406.821" y1="338.749" x2="413.207" y2="360.353" gradientUnits="userSpaceOnUse"><stop stop-color="#444B8C"/><stop offset=".996" stop-color="#3E4177"/></linearGradient><linearGradient id="paint71_linear" x1="420.782" y1="338.749" x2="427.168" y2="360.353" gradientUnits="userSpaceOnUse"><stop stop-color="#444B8C"/><stop offset=".996" stop-color="#3E4177"/></linearGradient><linearGradient id="paint72_linear" x1="434.742" y1="338.749" x2="441.129" y2="360.353" gradientUnits="userSpaceOnUse"><stop stop-color="#444B8C"/><stop offset=".996" stop-color="#3E4177"/></linearGradient><linearGradient id="paint73_linear" x1="448.703" y1="338.749" x2="455.09" y2="360.353" gradientUnits="userSpaceOnUse"><stop stop-color="#444B8C"/><stop offset=".996" stop-color="#3E4177"/></linearGradient><linearGradient id="paint74_linear" x1="462.663" y1="338.749" x2="469.05" y2="360.353" gradientUnits="userSpaceOnUse"><stop stop-color="#444B8C"/><stop offset=".996" stop-color="#3E4177"/></linearGradient><linearGradient id="paint75_linear" x1="476.625" y1="338.749" x2="483.011" y2="360.353" gradientUnits="userSpaceOnUse"><stop stop-color="#444B8C"/><stop offset=".996" stop-color="#3E4177"/></linearGradient><linearGradient id="paint76_linear" x1="490.586" y1="338.749" x2="496.972" y2="360.353" gradientUnits="userSpaceOnUse"><stop stop-color="#444B8C"/><stop offset=".996" stop-color="#3E4177"/></linearGradient><linearGradient id="paint77_linear" x1="406.821" y1="370.726" x2="413.207" y2="392.329" gradientUnits="userSpaceOnUse"><stop stop-color="#444B8C"/><stop offset=".996" stop-color="#3E4177"/></linearGradient><linearGradient id="paint78_linear" x1="420.782" y1="370.726" x2="427.168" y2="392.329" gradientUnits="userSpaceOnUse"><stop stop-color="#444B8C"/><stop offset=".996" stop-color="#3E4177"/></linearGradient><linearGradient id="paint79_linear" x1="434.742" y1="370.726" x2="441.128" y2="392.329" gradientUnits="userSpaceOnUse"><stop stop-color="#444B8C"/><stop offset=".996" stop-color="#3E4177"/></linearGradient><linearGradient id="paint80_linear" x1="448.703" y1="370.726" x2="455.09" y2="392.329" gradientUnits="userSpaceOnUse"><stop stop-color="#444B8C"/><stop offset=".996" stop-color="#3E4177"/></linearGradient><linearGradient id="paint81_linear" x1="462.663" y1="370.726" x2="469.05" y2="392.329" gradientUnits="userSpaceOnUse"><stop stop-color="#444B8C"/><stop offset=".996" stop-color="#3E4177"/></linearGradient><linearGradient id="paint82_linear" x1="476.625" y1="370.726" x2="483.011" y2="392.329" gradientUnits="userSpaceOnUse"><stop stop-color="#444B8C"/><stop offset=".996" stop-color="#3E4177"/></linearGradient><linearGradient id="paint83_linear" x1="490.586" y1="370.726" x2="496.972" y2="392.329" gradientUnits="userSpaceOnUse"><stop stop-color="#444B8C"/><stop offset=".996" stop-color="#3E4177"/></linearGradient><linearGradient id="paint84_linear" x1="406.821" y1="402.703" x2="413.207" y2="424.306" gradientUnits="userSpaceOnUse"><stop stop-color="#444B8C"/><stop offset=".996" stop-color="#3E4177"/></linearGradient><linearGradient id="paint85_linear" x1="420.782" y1="402.703" x2="427.168" y2="424.306" gradientUnits="userSpaceOnUse"><stop stop-color="#444B8C"/><stop offset=".996" stop-color="#3E4177"/></linearGradient><linearGradient id="paint86_linear" x1="434.742" y1="402.703" x2="441.128" y2="424.306" gradientUnits="userSpaceOnUse"><stop stop-color="#444B8C"/><stop offset=".996" stop-color="#3E4177"/></linearGradient><linearGradient id="paint87_linear" x1="448.703" y1="402.703" x2="455.09" y2="424.306" gradientUnits="userSpaceOnUse"><stop stop-color="#444B8C"/><stop offset=".996" stop-color="#3E4177"/></linearGradient><linearGradient id="paint88_linear" x1="462.663" y1="402.703" x2="469.05" y2="424.306" gradientUnits="userSpaceOnUse"><stop stop-color="#444B8C"/><stop offset=".996" stop-color="#3E4177"/></linearGradient><linearGradient id="paint89_linear" x1="476.625" y1="402.703" x2="483.011" y2="424.306" gradientUnits="userSpaceOnUse"><stop stop-color="#444B8C"/><stop offset=".996" stop-color="#3E4177"/></linearGradient><linearGradient id="paint90_linear" x1="490.586" y1="402.703" x2="496.972" y2="424.306" gradientUnits="userSpaceOnUse"><stop stop-color="#444B8C"/><stop offset=".996" stop-color="#3E4177"/></linearGradient><linearGradient id="paint91_linear" x1="406.821" y1="434.679" x2="413.207" y2="456.283" gradientUnits="userSpaceOnUse"><stop stop-color="#444B8C"/><stop offset=".996" stop-color="#3E4177"/></linearGradient><linearGradient id="paint92_linear" x1="420.782" y1="434.679" x2="427.168" y2="456.283" gradientUnits="userSpaceOnUse"><stop stop-color="#444B8C"/><stop offset=".996" stop-color="#3E4177"/></linearGradient><linearGradient id="paint93_linear" x1="434.742" y1="434.679" x2="441.128" y2="456.283" gradientUnits="userSpaceOnUse"><stop stop-color="#444B8C"/><stop offset=".996" stop-color="#3E4177"/></linearGradient><linearGradient id="paint94_linear" x1="448.703" y1="434.679" x2="455.09" y2="456.283" gradientUnits="userSpaceOnUse"><stop stop-color="#444B8C"/><stop offset=".996" stop-color="#3E4177"/></linearGradient><linearGradient id="paint95_linear" x1="462.663" y1="434.679" x2="469.05" y2="456.283" gradientUnits="userSpaceOnUse"><stop stop-color="#444B8C"/><stop offset=".996" stop-color="#3E4177"/></linearGradient><linearGradient id="paint96_linear" x1="476.625" y1="434.679" x2="483.011" y2="456.283" gradientUnits="userSpaceOnUse"><stop stop-color="#444B8C"/><stop offset=".996" stop-color="#3E4177"/></linearGradient><linearGradient id="paint97_linear" x1="490.586" y1="434.679" x2="496.972" y2="456.283" gradientUnits="userSpaceOnUse"><stop stop-color="#444B8C"/><stop offset=".996" stop-color="#3E4177"/></linearGradient><linearGradient id="paint98_linear" x1="310.591" y1="291.781" x2="323.255" y2="334.619" gradientUnits="userSpaceOnUse"><stop stop-color="#444B8C"/><stop offset=".996" stop-color="#3E4177"/></linearGradient><linearGradient id="paint99_linear" x1="316.163" y1="413.272" x2="341.862" y2="500.206" gradientUnits="userSpaceOnUse"><stop stop-color="#FCB148"/><stop offset=".052" stop-color="#FDBA46"/><stop offset=".142" stop-color="#FFC244"/><stop offset=".318" stop-color="#FFC444"/><stop offset=".485" stop-color="#FDB946"/><stop offset=".775" stop-color="#F99C4D"/><stop offset=".866" stop-color="#F8924F"/><stop offset="1" stop-color="#F8924F"/></linearGradient><linearGradient id="paint100_linear" x1="320.915" y1="410.431" x2="334.398" y2="456.038" gradientUnits="userSpaceOnUse"><stop stop-color="#444B8C"/><stop offset=".996" stop-color="#3E4177"/></linearGradient><linearGradient id="paint101_linear" x1="284.249" y1="442.822" x2="290.636" y2="464.425" gradientUnits="userSpaceOnUse"><stop stop-color="#444B8C"/><stop offset=".996" stop-color="#3E4177"/></linearGradient><linearGradient id="paint102_linear" x1="298.535" y1="442.822" x2="304.922" y2="464.425" gradientUnits="userSpaceOnUse"><stop stop-color="#444B8C"/><stop offset=".996" stop-color="#3E4177"/></linearGradient><linearGradient id="paint103_linear" x1="312.821" y1="442.822" x2="319.208" y2="464.425" gradientUnits="userSpaceOnUse"><stop stop-color="#444B8C"/><stop offset=".996" stop-color="#3E4177"/></linearGradient><linearGradient id="paint104_linear" x1="327.107" y1="442.822" x2="333.493" y2="464.425" gradientUnits="userSpaceOnUse"><stop stop-color="#444B8C"/><stop offset=".996" stop-color="#3E4177"/></linearGradient><linearGradient id="paint105_linear" x1="341.392" y1="442.822" x2="347.779" y2="464.425" gradientUnits="userSpaceOnUse"><stop stop-color="#444B8C"/><stop offset=".996" stop-color="#3E4177"/></linearGradient><linearGradient id="paint106_linear" x1="355.679" y1="442.822" x2="362.065" y2="464.425" gradientUnits="userSpaceOnUse"><stop stop-color="#444B8C"/><stop offset=".996" stop-color="#3E4177"/></linearGradient><linearGradient id="paint107_linear" x1="444.57" y1="338.861" x2="500.659" y2="338.861" gradientUnits="userSpaceOnUse"><stop stop-color="#FF9085"/><stop offset="1" stop-color="#FB6FBB"/></linearGradient><linearGradient id="paint108_linear" x1="482.639" y1="507.44" x2="490.638" y2="512.766" gradientUnits="userSpaceOnUse"><stop stop-color="#444B8C"/><stop offset=".996" stop-color="#26264F"/></linearGradient><linearGradient id="paint109_linear" x1="490.388" y1="512.8" x2="488.643" y2="500.431" gradientUnits="userSpaceOnUse"><stop stop-color="#AB316D"/><stop offset="1" stop-color="#792D3D"/></linearGradient><linearGradient id="paint110_linear" x1="483.241" y1="506.536" x2="491.24" y2="511.862" gradientUnits="userSpaceOnUse"><stop stop-color="#444B8C"/><stop offset=".996" stop-color="#26264F"/></linearGradient><linearGradient id="paint111_linear" x1="431.791" y1="511.404" x2="438.963" y2="517.796" gradientUnits="userSpaceOnUse"><stop stop-color="#444B8C"/><stop offset=".996" stop-color="#26264F"/></linearGradient><linearGradient id="paint112_linear" x1="438.711" y1="517.795" x2="438.711" y2="505.304" gradientUnits="userSpaceOnUse"><stop stop-color="#AB316D"/><stop offset="1" stop-color="#792D3D"/></linearGradient><linearGradient id="paint113_linear" x1="438.121" y1="523.523" x2="484.796" y2="334.705" gradientUnits="userSpaceOnUse"><stop stop-color="#444B8C"/><stop offset=".996" stop-color="#26264F"/></linearGradient><linearGradient id="paint114_linear" x1="426.541" y1="375.832" x2="480.635" y2="314.47" gradientUnits="userSpaceOnUse"><stop stop-color="#FF9085"/><stop offset="1" stop-color="#FB6FBB"/></linearGradient><linearGradient id="paint115_linear" x1="432.513" y1="510.594" x2="439.685" y2="516.986" gradientUnits="userSpaceOnUse"><stop stop-color="#444B8C"/><stop offset=".996" stop-color="#26264F"/></linearGradient><linearGradient id="paint116_linear" x1="438.857" y1="283.904" x2="477.67" y2="332.832" gradientUnits="userSpaceOnUse"><stop stop-color="#AB316D"/><stop offset="1" stop-color="#792D3D"/></linearGradient><linearGradient id="paint117_linear" x1="453.753" y1="283.673" x2="464.241" y2="320.202" gradientUnits="userSpaceOnUse"><stop stop-color="#311944"/><stop offset="1" stop-color="#893976"/></linearGradient><linearGradient id="paint118_linear" x1="440.498" y1="282.602" x2="479.312" y2="331.529" gradientUnits="userSpaceOnUse"><stop stop-color="#AB316D"/><stop offset="1" stop-color="#792D3D"/></linearGradient><linearGradient id="paint119_linear" x1="428.643" y1="377.685" x2="482.737" y2="316.323" gradientUnits="userSpaceOnUse"><stop stop-color="#FF9085"/><stop offset="1" stop-color="#FB6FBB"/></linearGradient><linearGradient id="paint120_linear" x1="388.357" y1="323.931" x2="416.635" y2="368.381" gradientUnits="userSpaceOnUse"><stop stop-color="#444B8C"/><stop offset=".996" stop-color="#26264F"/></linearGradient><linearGradient id="paint121_linear" x1="391.149" y1="321.019" x2="384.38" y2="307.436" gradientUnits="userSpaceOnUse"><stop stop-color="#AA80F9"/><stop offset=".996" stop-color="#6165D7"/></linearGradient><linearGradient id="paint122_linear" x1="402.555" y1="324.696" x2="379.932" y2="324.696" gradientUnits="userSpaceOnUse"><stop stop-color="#444B8C"/><stop offset=".996" stop-color="#26264F"/></linearGradient><linearGradient id="paint123_linear" x1="403.557" y1="326.772" x2="381.043" y2="326.772" gradientUnits="userSpaceOnUse"><stop stop-color="#444B8C"/><stop offset=".996" stop-color="#26264F"/></linearGradient><linearGradient id="paint124_linear" x1="404.601" y1="330.716" x2="391.879" y2="330.716" gradientUnits="userSpaceOnUse"><stop stop-color="#444B8C"/><stop offset=".996" stop-color="#26264F"/></linearGradient><linearGradient id="paint125_linear" x1="382.734" y1="341.71" x2="389.519" y2="352.376" gradientUnits="userSpaceOnUse"><stop stop-color="#AB316D"/><stop offset="1" stop-color="#792D3D"/></linearGradient><linearGradient id="paint126_linear" x1="403.146" y1="355.207" x2="457.24" y2="293.845" gradientUnits="userSpaceOnUse"><stop stop-color="#FF9085"/><stop offset="1" stop-color="#FB6FBB"/></linearGradient><linearGradient id="paint127_linear" x1="446.658" y1="274.493" x2="472.503" y2="307.074" gradientUnits="userSpaceOnUse"><stop stop-color="#FFC444"/><stop offset=".996" stop-color="#F36F56"/></linearGradient><linearGradient id="paint128_linear" x1="455.285" y1="263.606" x2="458" y2="293.971" gradientUnits="userSpaceOnUse"><stop stop-color="#FFC444"/><stop offset=".996" stop-color="#F36F56"/></linearGradient><linearGradient id="paint129_linear" x1="452.345" y1="270.346" x2="454.71" y2="296.792" gradientUnits="userSpaceOnUse"><stop stop-color="#FFC444"/><stop offset=".996" stop-color="#F36F56"/></linearGradient><linearGradient id="paint130_linear" x1="453.572" y1="264.409" x2="456.199" y2="293.785" gradientUnits="userSpaceOnUse"><stop stop-color="#FFC444"/><stop offset=".996" stop-color="#F36F56"/></linearGradient><linearGradient id="paint131_linear" x1="23.466" y1="327.166" x2="323.503" y2="327.166" gradientUnits="userSpaceOnUse"><stop stop-color="#444B8C"/><stop offset=".996" stop-color="#26264F"/></linearGradient><linearGradient id="paint132_linear" x1="33.411" y1="327.046" x2="323.91" y2="327.046" gradientUnits="userSpaceOnUse"><stop offset=".004" stop-color="#E38DDD"/><stop offset="1" stop-color="#9571F6"/></linearGradient><linearGradient id="paint133_linear" x1="109.97" y1="143.751" x2="260.045" y2="143.751" gradientUnits="userSpaceOnUse"><stop stop-color="#444B8C"/><stop offset=".996" stop-color="#26264F"/></linearGradient><linearGradient id="paint134_linear" x1="218.741" y1="413.393" x2="266.825" y2="452.995" gradientUnits="userSpaceOnUse"><stop stop-color="#AA80F9"/><stop offset=".996" stop-color="#6165D7"/></linearGradient><linearGradient id="paint135_linear" x1="225.99" y1="419.066" x2="260.196" y2="447.238" gradientUnits="userSpaceOnUse"><stop stop-color="#AA80F9"/><stop offset=".996" stop-color="#6165D7"/></linearGradient><linearGradient id="paint136_linear" x1="237.483" y1="418.718" x2="258.23" y2="435.805" gradientUnits="userSpaceOnUse"><stop stop-color="#AA80F9"/><stop offset=".996" stop-color="#6165D7"/></linearGradient><linearGradient id="paint137_linear" x1="231" y1="422.952" x2="255.113" y2="442.811" gradientUnits="userSpaceOnUse"><stop stop-color="#AA80F9"/><stop offset=".996" stop-color="#6165D7"/></linearGradient><linearGradient id="paint138_linear" x1="228.365" y1="430.322" x2="249.213" y2="447.493" gradientUnits="userSpaceOnUse"><stop stop-color="#AA80F9"/><stop offset=".996" stop-color="#6165D7"/></linearGradient><clipPath id="clip0"><path fill="#fff" d="M0 0h532v528H0z"/></clipPath></defs></svg>