<svg width="566" height="546" fill="none" xmlns="http://www.w3.org/2000/svg"><g clip-path="url(#clip0)"><path d="M556.144 185.871C509.409 35.805 318.615-26.178 186.165 10.128 171.835 14.044 52.501 48.75 15.874 157.07c-1.833 5.42-36.088 111.542 22.701 174.392 43.494 46.492 103.402 32.448 127.126 79.442 20.677 40.936-15.044 70.953 3.935 98.211 28.912 41.496 153.82 32.178 240.499-17.092 89.476-50.89 187.651-172.483 146.009-306.152z" fill="#F4F7FA"/><path d="M273.115 390.378l-81.819-84.785L421.399 83.454l81.819 84.766-230.103 222.158z" fill="url(#paint0_linear)"/><path d="M443.078 203.504l-61.721-63.951 38.73-37.367 61.702 63.95-38.711 37.368z" fill="url(#paint1_linear)"/><path d="M397.772 247.256l-61.721-63.95 38.73-37.387 61.701 63.951-38.71 37.386z" fill="url(#paint2_linear)"/><path d="M352.465 290.989l-61.721-63.95 38.711-37.368 61.721 63.951-38.711 37.367z" fill="url(#paint3_linear)"/><path d="M307.157 334.723l-61.72-63.951 38.71-37.367 61.721 63.951-38.711 37.367z" fill="url(#paint4_linear)"/><path opacity=".3" d="M503.217 168.22l-43.493-45.064c-2.797 12.539-8.024 25.619-17.552 37.155-18.112 21.953-38.904 22.725-70.343 42.112-32.808 20.237-41.951 38.988-67.141 65.745-18.381 19.523-45.461 43.463-85.58 66.246l54.006 55.945L503.217 168.22z" fill="url(#paint5_linear)"/><path d="M233.092 387.464l-30.764-113.741 308.72-83.55 30.764 113.741-308.72 83.55z" fill="url(#paint6_linear)"/><path d="M472.126 305.805l-23.223-85.808 51.942-14.044 23.204 85.788-51.923 14.064z" fill="url(#paint7_linear)"/><path d="M411.331 322.241l-23.203-85.789 51.923-14.063 23.222 85.808-51.942 14.044z" fill="url(#paint8_linear)"/><path d="M350.535 338.696l-23.203-85.788 51.942-14.063 23.203 85.807-51.942 14.044z" fill="url(#paint9_linear)"/><path d="M289.76 355.152l-23.203-85.788 51.922-14.064 23.223 85.788-51.942 14.064z" fill="url(#paint10_linear)"/><path opacity=".3" d="M541.813 303.914l-20.272-74.908c-12.845 16.494-25.768 23.941-36.106 27.606-29.067 10.321-46.426-5.922-84.558.965-35.76 6.462-50.631 26.216-74.779 40.801-22.972 13.87-57.728 25.117-111.985 18.924l18.979 70.163 308.721-83.551z" fill="url(#paint11_linear)"/><path d="M207.228 373.999l27.909-114.493 310.707 75.795-27.91 114.474-310.706-75.776z" fill="url(#paint12_linear)"/><path d="M455.963 417.79l21.062-86.347 52.27 12.751-21.043 86.348-52.289-12.752z" fill="url(#paint13_linear)"/><path d="M394.801 402.878l21.043-86.347 52.27 12.751-21.043 86.348-52.27-12.752z" fill="url(#paint14_linear)"/><path d="M333.62 387.947l21.043-86.348 52.27 12.752-21.043 86.347-52.27-12.751z" fill="url(#paint15_linear)"/><path d="M272.439 373.035l21.043-86.347 52.27 12.751-21.043 86.348-52.27-12.752z" fill="url(#paint16_linear)"/><path opacity=".3" d="M517.934 449.775l17.919-73.48c-25.036 14.372-43.919 15.414-56.976 13.446-30.494-4.63-38.113-27.162-74.991-39.103-34.583-11.189-57.015-.811-85.175.617-24.978 1.273-57.883-4.283-98.58-30.21l-12.903 52.935 310.706 75.795z" fill="url(#paint17_linear)"/><path d="M244.974 335.089c6.924 0 12.537-5.614 12.537-12.539s-5.613-12.539-12.537-12.539-12.537 5.614-12.537 12.539 5.613 12.539 12.537 12.539z" fill="url(#paint18_linear)"/><path d="M225.07 314.062c-12.345-11.594-28.662-30.423-36.03-57.045-9.682-34.917 4.494-52.568 2.913-111.677-1.003-37.386-2.084-63.449-20.928-77.396-14.774-10.938-38.672-13.099-53.176-2.97-12.055 8.43-19.037 26.332-21.178 39.122-1.736 10.417-.347 17.998-6.346 23.477-6.133 5.614-12.768 2.431-18.516 6.598-11.65 8.43-4.9 36.345-3.819 40.859 12.113 50.195 58.365 84.052 78.713 98.559 16.819 11.999 42.839 28.01 78.367 40.473z" fill="url(#paint19_linear)"/><g opacity=".5" fill="#fff"><path opacity=".5" d="M239.131 323.514c-21.564-8.199-40.1-17.96-55.144-29.052-22.278-16.417-36.146-35.284-41.238-56.08-3.973-16.262-2.507-33.856-.636-56.118 1.543-18.462 4.301-31.406 6.731-42.807 3.144-14.758 5.632-26.429 3.916-43.27-1.755-17.131-7.407-34.146-16.781-50.602l1.196-.675c9.49 16.63 15.18 33.837 16.954 51.16 1.755 17.073-.752 28.822-3.934 43.695-2.431 11.363-5.17 24.269-6.713 42.634-1.928 23.014-3.317 39.643.598 55.694 5.015 20.468 18.709 39.084 40.717 55.288 14.929 11.016 33.387 20.719 54.816 28.879l-.482 1.254z"/><path opacity=".5" d="M143.81 169.609l-.231-.752c-9.914-33.316-27.717-54.151-40.91-65.784-14.292-12.597-26.405-17.381-26.52-17.42l.5-1.292c.117.038 12.422 4.9 26.888 17.632 13.251 11.652 31.073 32.487 41.141 65.687 2.758-1.331 13.154-6.791 23.531-17.517 11.11-11.459 24.515-31.464 25.228-61.674l1.389.039c-.733 30.692-14.35 51.006-25.672 62.638-12.248 12.617-24.515 18.057-24.65 18.096l-.694.347z"/><path opacity=".5" d="M141.244 219.38l-.482-.135c-16.279-4.784-34.757-23.496-54.893-55.636-14.948-23.863-25.286-46.646-25.383-46.858l1.254-.56c.405.907 40.948 89.82 78.926 101.607 1.928-2.758 13.327-18.789 27.658-32.853 8.275-8.121 22.201-13.368 32.442-16.339 11.052-3.203 20.31-4.534 20.407-4.553l.193 1.37c-.367.058-36.609 5.324-52.077 20.506-15.585 15.279-27.659 32.892-27.775 33.065l-.27.386z"/><path opacity=".5" d="M178.451 290.005l-1.369-.154c-.174-.02-18.459-2.257-42.318-10.591-22.026-7.678-53.485-22.281-78.212-48.151L8.854 181.203l1.002-.946 47.7 49.907c24.533 25.676 55.76 40.164 77.633 47.784 20.02 6.984 36.068 9.665 40.697 10.34-9.104-16.783-7.387-35.033 4.957-52.896 9.509-13.736 22.103-22.513 22.219-22.61l.791 1.139c-.116.077-12.537 8.738-21.892 22.281-12.479 18.056-13.887 35.747-4.185 52.607l.675 1.196z"/></g><path d="M218.299 287.324c-24.013 11.768-56.301 23.323-92.137 24.191-9.143.213-65.637 1.563-70.324-22.204-1.659-8.372 4.514-12.79 2.508-24.017-2.392-13.311-12.576-15.626-24.727-27.799-7.253-7.254-28.469-28.513-19.982-50.022 5.072-12.868 20.541-25.253 35.258-28.532 21.583-4.823 37.36 10.861 63.572 37.849 23.242 23.922 24.168 32.101 41.199 49.039 12.633 12.578 32.751 28.589 64.633 41.495z" fill="url(#paint20_linear)"/><g opacity=".5" fill="#fff"><path opacity=".5" d="M217.74 287.131c-26.424 0-53.35-6.984-80.392-20.873-39.327-20.218-69.05-50.022-87.065-71.455-12.575-14.951-20.811-34.223-24.514-57.256l1.369-.213c3.665 22.783 11.804 41.824 24.206 56.601 17.938 21.336 47.525 51.006 86.641 71.127 37.553 19.31 74.856 25.155 110.885 17.4 27.042-5.826 52.405-18.77 75.396-38.486l.907 1.042c-23.165 19.87-48.74 32.911-75.994 38.795-10.396 2.199-20.889 3.318-31.439 3.318z"/><path opacity=".5" d="M91.038 234.794l-.617-.077c-68.24-8.585-86.351-47.592-90.267-59.34-.077-.212-.115-.367-.154-.424l1.234-.599c.039.078.097.271.213.579 3.857 11.517 21.602 49.675 88.511 58.337 1.138-5.537 8.66-47.611-16.76-77.416l1.04-.887c27.582 32.332 17.032 78.766 16.935 79.229l-.135.598z"/><path opacity=".5" d="M74.277 287.767a81.94 81.94 0 01-5.535-.193c-16.414-1.176-25.711-7.002-26.116-7.234l.733-1.157c.096.058 9.45 5.903 25.556 7.041 14.813 1.042 38.499-1.813 67.392-21.259-.116-3.877-1.678-37.965-22.663-74.329l-22.567-39.084 1.196-.695 22.566 39.084c22.394 38.776 22.856 75.024 22.856 75.391v.366l-.308.212c-26 17.575-47.95 21.857-63.11 21.857z"/></g><path d="M565.306 474.681l-543.124-4.63v13.697c0 3.723 2.372 6.887 5.574 7.446l153.569 26.969c1.813.328 3.665.405 5.516.251l372.563-30.77c3.318-.27 5.902-3.453 5.902-7.272v-5.691z" fill="#26264F"/><path d="M368.204 452.727l-340.41 25.059c-6.095.444-11.052-4.321-11.052-10.648V213.593c0-6.328 4.957-11.459 11.052-11.459h340.41c5.015 0 9.085 4.63 9.085 10.359v229.199c-.02 5.73-4.07 10.668-9.085 11.035z" fill="#26264F"/><path d="M373.624 452.727l-340.41 25.059c-6.095.444-11.052-4.321-11.052-10.648V213.593c0-6.328 4.957-11.459 11.052-11.459h340.41c5.015 0 9.085 4.63 9.085 10.359v229.199c0 5.73-4.07 10.668-9.085 11.035z" fill="url(#paint21_linear)"/><path d="M363.016 436.561L45.964 458.34c-4.957.348-8.988-3.569-8.988-8.739V227.617c0-5.17 4.03-9.375 8.988-9.395l317.052-1.369c4.147-.02 7.484 3.781 7.484 8.488v202.172c.019 4.726-3.337 8.758-7.484 9.048z" fill="url(#paint22_linear)"/><path d="M215.445 209.079c0 2.353-1.755 4.263-3.915 4.282-2.161 0-3.916-1.909-3.916-4.263 0-2.353 1.755-4.283 3.916-4.283 2.16 0 3.915 1.91 3.915 4.264z" fill="#fff"/><path opacity=".48" d="M33.214 477.786l338.693-24.943 1.717-.135c2.295-.174 4.398-1.312 5.999-3.029-24.38-1.331-39.502-9.993-49.281-18.925-19.615-17.96-16.201-35.65-37.36-47.456-26.386-14.719-47.12 3.935-67.141-14.469-12.132-11.15-6.172-19.484-21.101-36.151-16.529-18.462-27.311-12.27-43.918-28.879-21.024-21.009-10.512-37.368-28.604-52.453-21.969-18.308-45.635-1.37-66.543-18.925-9.007-7.562-13.964-18.577-16.549-30.287H33.214c-6.095 0-11.052 5.131-11.052 11.459v253.545c.02 6.327 4.957 11.092 11.052 10.648z" fill="#fff"/><path d="M387.203 451.338L22.182 477.709l159.162 27.953c1.813.328 3.665.405 5.517.251l378.465-31.252-172.298-23.169c-1.948-.231-3.896-.308-5.825-.154z" fill="url(#paint23_linear)"/><path d="M75.435 477.941l303.898-22.282 94.047 12.539-301.275 23.825-96.67-14.082z" fill="#26264F"/><path d="M415.883 384.59c0 28.05-22.875 52.241-51.498 54.055l-318.75 20.236c33.715-2.141 60.621-28.512 60.621-58.915V50.061l309.646 11.845V384.59h-.019z" fill="url(#paint24_linear)"/><path d="M269.025 140.691c0 31.696-26.906 57.353-60.602 57.315-34.313-.039-62.569-26.584-62.569-59.302 0-32.717 28.256-58.336 62.569-57.275 33.715 1.06 60.602 27.586 60.602 59.262z" fill="url(#paint25_linear)"/><path d="M395.862 139.264l-111.348-1.91v-19.349l111.348 2.469v18.79zm0 15.51l-111.348-1.428v-9.684l111.348 1.717v9.395zm0 15.529l-111.348-.984v-9.665l111.348 1.235v9.414zm0 83.184l-239.554 3.318v-9.626l239.554-2.721v9.029z" fill="#D8DEE8"/><path d="M136.77 257.075l10.839-.154v-9.646l-10.839.135v9.665z" fill="url(#paint26_linear)"/><path d="M395.862 268.38l-239.554 4.302v-9.626l239.554-3.704v9.028z" fill="#D8DEE8"/><path d="M136.77 273.029l10.839-.192v-9.646l-10.839.174v9.664z" fill="url(#paint27_linear)"/><path d="M395.862 283.292l-239.554 5.267v-9.627l239.554-4.668v9.028z" fill="#D8DEE8"/><path d="M136.77 288.983l10.839-.251v-9.626l-10.839.212v9.665z" fill="url(#paint28_linear)"/><path d="M395.862 298.204l-239.554 6.212v-9.607l239.554-5.633v9.028z" fill="#D8DEE8"/><path d="M136.77 304.937l10.839-.29v-9.626l-10.839.251v9.665z" fill="url(#paint29_linear)"/><path d="M395.862 328.009l-259.092 8.836v-9.665l259.092-8.199v9.028zm0 14.913l-259.092 9.877v-9.665l259.092-9.24v9.028zm0 14.911L136.77 368.752v-9.665l259.092-10.282v9.028zm0 14.913l-259.092 11.96v-9.665l259.092-11.324v9.029z" fill="#D8DEE8"/><path d="M227.441 173.718l-5.516-18.037-28.006-.136-5.613 18.173h-17.822l27.466-76.606 19.924.405 26.888 76.201h-17.321zm-9.374-31.541c-5.13-16.436-8.023-25.754-8.679-27.915-.656-2.16-1.119-3.877-1.389-5.131-1.157 4.417-4.475 15.356-9.952 32.853l20.02.193z" fill="#fff"/><path d="M538.63 523.025l-82.976 7.658c-2.353.212-4.436-1.505-4.648-3.858-.212-2.354 1.504-4.437 3.858-4.649l82.976-7.659c2.353-.212 4.436 1.505 4.648 3.858.212 2.354-1.505 4.437-3.858 4.65zm22.644-10.669l-18.439 1.698-.965-10.417 18.439-1.698c.155-.019.27.097.29.232l.906 9.877c.019.154-.077.289-.231.308z" fill="#D8DEE8"/><path d="M225.069 540.367l-7.735.714a1.578 1.578 0 01-.289-3.145l7.734-.713.29 3.144z" fill="#26264F"/><path d="M220.459 539.19a3.37 3.37 0 002.99 3.048l32.866 3.685-1.832-19.889-31.652 9.626a3.369 3.369 0 00-2.372 3.53z" fill="#D8DEE8"/><path d="M222.445 537.628c.039.444 1.196.714 2.758.656l32.172-3.878-.501-5.44-31.844 7.524c-1.543.212-2.623.694-2.585 1.138z" fill="#fff"/><path d="M544.3 518.993L255.543 546c-5.497.502-7.329-19.387-1.832-19.889l288.757-27.008c3.279-.308 6.172 2.103 6.481 5.383l.733 8.025c.308 3.279-2.103 6.173-5.382 6.482z" fill="url(#paint30_linear)"/><path d="M480.342 513.263L253.364 534.58l-.444-4.688 226.998-21.317.424 4.688z" fill="#fff"/><path d="M483.313 524.683l-2.643.251-1.832-19.966 2.642-.251 1.833 19.966z" fill="url(#paint31_linear)"/><path d="M542.075 499.149l-2.65.245 1.841 19.978 2.651-.244-1.842-19.979z" fill="#fff"/><path opacity=".3" d="M542.468 499.103l-138.37 13.138c-15.778 14.507-26.772 16.841-34.41 15.491-5.285-.946-12.132-4.225-22.624-2.663-10.146 1.505-10.705 5.614-18.96 5.865-12.248.386-16.453-8.43-25.595-5.71-4.918 1.466-4.128 4.147-10.936 8.276-2.527 1.524-13.039 7.89-25.074 4.938-7.002-1.717-11.997-5.961-15.276-9.877-2.064 5.421-.02 17.825 4.339 17.42l288.758-27.008c3.279-.308 5.69-3.202 5.381-6.482l-.733-8.025c-.328-3.26-3.221-5.671-6.5-5.363z" fill="url(#paint32_linear)"/></g><defs><linearGradient id="paint0_linear" x1="349.016" y1="188.629" x2="344.872" y2="302.377" gradientUnits="userSpaceOnUse"><stop offset=".004" stop-color="#fff"/><stop offset="1" stop-color="#F4F7FA"/></linearGradient><linearGradient id="paint1_linear" x1="466.237" y1="102.899" x2="314.902" y2="320.921" gradientUnits="userSpaceOnUse"><stop stop-color="#FFC444"/><stop offset=".996" stop-color="#F36F56"/></linearGradient><linearGradient id="paint2_linear" x1="468.466" y1="78.13" x2="317.131" y2="296.153" gradientUnits="userSpaceOnUse"><stop stop-color="#FFC444"/><stop offset=".996" stop-color="#F36F56"/></linearGradient><linearGradient id="paint3_linear" x1="458.655" y1="70.713" x2="307.32" y2="288.735" gradientUnits="userSpaceOnUse"><stop stop-color="#FFC444"/><stop offset=".996" stop-color="#F36F56"/></linearGradient><linearGradient id="paint4_linear" x1="438.331" y1="78.445" x2="286.996" y2="296.467" gradientUnits="userSpaceOnUse"><stop stop-color="#FFC444"/><stop offset=".996" stop-color="#F36F56"/></linearGradient><linearGradient id="paint5_linear" x1="505.263" y1="166.785" x2="344.943" y2="270.647" gradientUnits="userSpaceOnUse"><stop stop-color="#FFC444"/><stop offset=".996" stop-color="#F36F56"/></linearGradient><linearGradient id="paint6_linear" x1="507.588" y1="221.879" x2="339.009" y2="305.118" gradientUnits="userSpaceOnUse"><stop offset=".004" stop-color="#fff"/><stop offset="1" stop-color="#F4F7FA"/></linearGradient><linearGradient id="paint7_linear" x1="530.146" y1="234.861" x2="329.302" y2="331.472" gradientUnits="userSpaceOnUse"><stop offset=".004" stop-color="#E38DDD"/><stop offset="1" stop-color="#9571F6"/></linearGradient><linearGradient id="paint8_linear" x1="525.147" y1="224.466" x2="324.303" y2="321.078" gradientUnits="userSpaceOnUse"><stop offset=".004" stop-color="#E38DDD"/><stop offset="1" stop-color="#9571F6"/></linearGradient><linearGradient id="paint9_linear" x1="520.147" y1="214.073" x2="319.303" y2="310.684" gradientUnits="userSpaceOnUse"><stop offset=".004" stop-color="#E38DDD"/><stop offset="1" stop-color="#9571F6"/></linearGradient><linearGradient id="paint10_linear" x1="551.947" y1="185.971" x2="351.103" y2="282.583" gradientUnits="userSpaceOnUse"><stop offset=".004" stop-color="#E38DDD"/><stop offset="1" stop-color="#9571F6"/></linearGradient><linearGradient id="paint11_linear" x1="517.393" y1="241.739" x2="348.815" y2="324.977" gradientUnits="userSpaceOnUse"><stop offset=".004" stop-color="#E38DDD"/><stop offset="1" stop-color="#9571F6"/></linearGradient><linearGradient id="paint12_linear" x1="390.972" y1="314.207" x2="354.534" y2="416.195" gradientUnits="userSpaceOnUse"><stop offset=".004" stop-color="#fff"/><stop offset="1" stop-color="#F4F7FA"/></linearGradient><linearGradient id="paint13_linear" x1="501.494" y1="381.484" x2="278.964" y2="369.231" gradientUnits="userSpaceOnUse"><stop stop-color="#FF9085"/><stop offset="1" stop-color="#FB6FBB"/></linearGradient><linearGradient id="paint14_linear" x1="515.761" y1="370.718" x2="293.231" y2="358.465" gradientUnits="userSpaceOnUse"><stop stop-color="#FF9085"/><stop offset="1" stop-color="#FB6FBB"/></linearGradient><linearGradient id="paint15_linear" x1="524.365" y1="359.64" x2="301.836" y2="347.387" gradientUnits="userSpaceOnUse"><stop stop-color="#FF9085"/><stop offset="1" stop-color="#FB6FBB"/></linearGradient><linearGradient id="paint16_linear" x1="538.51" y1="348.868" x2="315.98" y2="336.614" gradientUnits="userSpaceOnUse"><stop stop-color="#FF9085"/><stop offset="1" stop-color="#FB6FBB"/></linearGradient><linearGradient id="paint17_linear" x1="534.627" y1="315.552" x2="389.796" y2="376.633" gradientUnits="userSpaceOnUse"><stop stop-color="#FF9085"/><stop offset="1" stop-color="#FB6FBB"/></linearGradient><linearGradient id="paint18_linear" x1="236.265" y1="313.542" x2="253.671" y2="331.571" gradientUnits="userSpaceOnUse"><stop offset=".004" stop-color="#E38DDD"/><stop offset="1" stop-color="#9571F6"/></linearGradient><linearGradient id="paint19_linear" x1="65.065" y1="186.248" x2="225.068" y2="186.248" gradientUnits="userSpaceOnUse"><stop stop-color="#AA80F9"/><stop offset=".996" stop-color="#6165D7"/></linearGradient><linearGradient id="paint20_linear" x1="136.095" y1="183.35" x2="96.939" y2="288.436" gradientUnits="userSpaceOnUse"><stop offset=".004" stop-color="#E38DDD"/><stop offset="1" stop-color="#9571F6"/></linearGradient><linearGradient id="paint21_linear" x1="22.172" y1="339.979" x2="382.703" y2="339.979" gradientUnits="userSpaceOnUse"><stop stop-color="#444B8C"/><stop offset=".996" stop-color="#26264F"/></linearGradient><linearGradient id="paint22_linear" x1="36.98" y1="337.609" x2="370.511" y2="337.609" gradientUnits="userSpaceOnUse"><stop stop-color="#AA80F9"/><stop offset=".996" stop-color="#6165D7"/></linearGradient><linearGradient id="paint23_linear" x1="22.172" y1="478.629" x2="565.297" y2="478.629" gradientUnits="userSpaceOnUse"><stop stop-color="#444B8C"/><stop offset=".996" stop-color="#26264F"/></linearGradient><linearGradient id="paint24_linear" x1="314.526" y1="112.709" x2="111.626" y2="532.236" gradientUnits="userSpaceOnUse"><stop stop-color="#fff"/><stop offset=".996" stop-color="#EBEFF2"/></linearGradient><linearGradient id="paint25_linear" x1="236.454" y1="61.594" x2="149.495" y2="295.514" gradientUnits="userSpaceOnUse"><stop stop-color="#FF9085"/><stop offset="1" stop-color="#FB6FBB"/></linearGradient><linearGradient id="paint26_linear" x1="139.06" y1="243.707" x2="158.535" y2="296.455" gradientUnits="userSpaceOnUse"><stop stop-color="#FF9085"/><stop offset="1" stop-color="#FB6FBB"/></linearGradient><linearGradient id="paint27_linear" x1="133.858" y1="245.544" x2="153.269" y2="298.121" gradientUnits="userSpaceOnUse"><stop stop-color="#FF9085"/><stop offset="1" stop-color="#FB6FBB"/></linearGradient><linearGradient id="paint28_linear" x1="139.081" y1="275.627" x2="158.428" y2="328.032" gradientUnits="userSpaceOnUse"><stop stop-color="#FF9085"/><stop offset="1" stop-color="#FB6FBB"/></linearGradient><linearGradient id="paint29_linear" x1="133.912" y1="277.555" x2="153.197" y2="329.789" gradientUnits="userSpaceOnUse"><stop stop-color="#FF9085"/><stop offset="1" stop-color="#FB6FBB"/></linearGradient><linearGradient id="paint30_linear" x1="384.048" y1="478.974" x2="409.291" y2="547.21" gradientUnits="userSpaceOnUse"><stop stop-color="#FFC444"/><stop offset=".996" stop-color="#F36F56"/></linearGradient><linearGradient id="paint31_linear" x1="479.751" y1="514.95" x2="482.395" y2="514.707" gradientUnits="userSpaceOnUse"><stop stop-color="#AA80F9"/><stop offset=".996" stop-color="#6165D7"/></linearGradient><linearGradient id="paint32_linear" x1="383.97" y1="478.76" x2="409.274" y2="547.163" gradientUnits="userSpaceOnUse"><stop offset=".004" stop-color="#F36F56"/><stop offset="1" stop-color="#FFC444"/></linearGradient><clipPath id="clip0"><path fill="#fff" d="M0 0h566v546H0z"/></clipPath></defs></svg>