<svg width="520" height="525" fill="none" xmlns="http://www.w3.org/2000/svg"><g clip-path="url(#clip0)"><path d="M55.677 402.711c-61.325-72.151-39.884-179.226-3.343-211.613 36.542-32.388 94.409-50.253 125.418-88.173s66.744-65.005 132.104-45.527c65.36 19.594 64.323 70.308 83.919 101.773 19.597 31.466 106.974 48.985 102.017 129.665-4.956 80.681-60.403 80.566-85.763 100.39-25.245 19.824-65.245 113.644-145.015 114.682-97.752 1.152-157.464-40.11-209.337-101.197z" fill="#EEF"/><path opacity=".3" d="M276.656 13.99l-3.458 11.987a36.03 36.03 0 00-8.991 3.688l-11.066-6.109-9.914 9.797 6.11 10.95c-1.614 2.766-2.882 5.763-3.689 8.875l-12.219 3.457v13.831l12.219 3.458c.922 3.112 2.075 6.108 3.689 8.875l-6.11 10.95 9.914 9.796 11.066-6.109c2.766 1.614 5.764 2.767 8.991 3.689l3.458 11.987h14.064l3.458-11.987a36.034 36.034 0 008.991-3.689l11.067 6.109 9.913-9.797-6.109-10.95c1.614-2.766 2.882-5.762 3.688-8.874l12.219-3.458v-13.83l-12.219-3.459c-.922-3.111-2.074-6.108-3.688-8.874l6.109-10.95-9.913-9.797-11.067 6.109c-2.766-1.614-5.763-2.766-8.991-3.688L290.72 13.99h-14.064v0zm7.032 23.628c14.409 0 26.167 11.64 26.167 25.817 0 14.292-11.758 25.818-26.167 25.818-14.409 0-26.167-11.64-26.167-25.818 0-14.291 11.758-25.817 26.167-25.817zM481.383 241.74l-2.306 7.952c-2.075.577-4.15 1.383-5.994 2.421l-7.377-4.034-6.571 6.454 4.15 7.261a26.272 26.272 0 00-2.421 5.879l-8.069 2.305v9.22l8.069 2.305a26.272 26.272 0 002.421 5.879l-4.15 7.261 6.571 6.454 7.377-4.034c1.844 1.038 3.919 1.844 5.994 2.421l2.306 7.953h9.337l2.305-7.953c2.075-.577 4.15-1.383 5.995-2.421l7.377 4.034 6.571-6.454-4.15-7.261a26.366 26.366 0 002.421-5.879l8.069-2.305v-9.22l-8.069-2.305a26.366 26.366 0 00-2.421-5.879l4.15-7.261-6.571-6.454-7.377 4.034c-1.845-1.038-3.92-1.844-5.995-2.421l-2.305-7.952h-9.337zm4.726 15.675c9.568 0 17.406 7.722 17.406 17.173 0 9.451-7.838 17.173-17.406 17.173-9.568 0-17.406-7.722-17.406-17.173 0-9.336 7.723-17.173 17.406-17.173zM62.94 262.832l-4.957 17.403c-4.611 1.268-8.992 2.997-13.026 5.302l-16.024-8.759-14.293 14.177 8.876 15.79c-2.306 4.034-4.15 8.298-5.303 12.793L.576 324.495v20.054l17.637 4.956a59.789 59.789 0 005.303 12.794L14.64 378.09l14.293 14.176 16.024-8.759c4.034 2.305 8.415 4.034 13.026 5.301l4.956 17.404h20.289l4.956-17.404c4.611-1.267 8.992-2.996 13.026-5.301l16.023 8.759 14.294-14.176-8.876-15.791c2.306-4.034 4.15-8.298 5.303-12.794l17.637-4.956v-20.054l-17.637-4.957a59.813 59.813 0 00-5.303-12.793l8.876-15.79-14.294-14.177-16.023 8.759c-4.034-2.305-8.415-4.034-13.026-5.302l-4.956-17.403H62.939zm10.143 34.116c20.865 0 37.925 16.828 37.925 37.343 0 20.516-17.06 37.344-37.925 37.344-20.864 0-37.925-16.828-37.925-37.344 0-20.515 17.06-37.343 37.925-37.343z" stroke="#7371FC" stroke-miterlimit="10"/><path d="M243.343 485.927c2.651-5.993 7.492-10.834 13.717-13.37l.231-.115-.807-.346a25.406 25.406 0 01-12.911-12.793l-.115-.231-.692 1.268c-2.421 4.841-6.455 8.76-11.412 11.295l-1.729.922h.115c5.879 2.421 10.721 6.916 13.372 12.564l.231.806z" fill="#32338C"/><path d="M260.748 494.111c1.268-2.997 3.805-5.417 6.802-6.685h.115l-.461-.231a12.601 12.601 0 01-6.456-6.454v-.116l-.345.577a13.005 13.005 0 01-5.764 5.647l-.922.461c2.997 1.268 5.302 3.458 6.686 6.34l.345.461zm223.863-346.35c-1.96-4.495-5.648-8.068-10.259-10.028l-.116-.115.577-.23c4.38-1.96 7.723-5.302 9.683-9.567l.115-.23.461.922c1.844 3.688 4.842 6.569 8.53 8.413l1.268.692h-.115c-4.38 1.844-7.954 5.187-10.029 9.451l-.115.692z" fill="#7371FC"/><path d="M471.585 153.985c-.922-2.19-2.767-4.034-5.072-4.956h-.116l.346-.116a9.052 9.052 0 004.842-4.84v-.116l.23.461a9.545 9.545 0 004.265 4.265l.692.346c-2.19.922-4.035 2.535-4.957 4.725l-.23.231z" fill="#32338C"/><path d="M24.323 248.727c-1.96-4.495-5.649-8.068-10.26-10.028l-.115-.115.577-.23c4.38-1.96 7.723-5.302 9.683-9.567l.115-.23.461.922c1.844 3.688 4.841 6.569 8.53 8.414l1.268.691h-.115c-4.38 1.844-7.954 5.187-10.029 9.451l-.115.692z" fill="#7371FC"/><path d="M11.297 254.836c-.923-2.19-2.767-4.034-5.072-4.957h-.116l.346-.115a9.05 9.05 0 004.842-4.841v-.115l.23.461a9.544 9.544 0 004.265 4.265l.692.345c-2.19.923-4.035 2.536-4.957 4.726l-.23.231zm363.574-148.914c8.53 1.037 16.599 3.804 24.207 7.838 22.133 11.41 41.96 27.201 58.213 45.988 6.571 7.607 12.681 16.251 13.718 26.278 1.153 11.411-4.611 22.36-10.144 32.388-4.611 8.414-10.259 17.519-19.481 19.94-7.608 1.959-15.562-1.153-22.363-4.957-26.859-14.868-46.917-40.34-58.444-68.809-5.649-13.83-7.724-26.97-6.686-41.723.23-4.149-10.605-4.495-7.723-7.837 4.149-4.726 17.06-10.604 28.703-9.106z" fill="#32338C"/><path d="M442.767 130.818c-.922 1.152-1.844 2.305-2.881 3.342-3.689 3.573-8.185 6.109-12.911 7.953-3.458 1.383-7.147 2.536-10.951 2.421-.461 0-.807 0-1.268-.116.23.692.461 1.383.922 2.075 1.383 1.844 4.035 2.42 6.34 2.536 6.34.345 12.68-.692 18.444-3.228.576-.23 1.268-.576 1.614-1.152.346-.576.346-1.383.346-2.075-.346-4.034-.116-7.953.345-11.756z" fill="#F8AB73"/><path d="M426.86 142.113c4.726-1.959 9.222-4.495 12.91-7.953 1.038-1.037 2.075-2.19 2.882-3.342.692-6.339 1.729-12.678 2.075-19.133-6.57-1.498-17.176 5.302-21.671 9.566-5.879 5.533-9.568 13.716-8.761 21.669.115.576.115 1.153.346 1.614.461 0 .807.115 1.268.115 3.804 0 7.493-1.153 10.951-2.536z" fill="#FE814B"/><path d="M471.009 82.525c4.035-5.648 8.07-11.296 10.49-17.75 2.421-6.454 3.228-13.831.577-20.17-2.652-6.34-9.222-11.295-16.023-10.72 2.19-4.379-.462-9.335-4.035-12.677-3.574-3.343-8.53-4.841-13.372-5.533-13.717-2.075-27.781.807-41.614.115-5.072-.23-10.374-.922-14.87-3.573-4.496-2.535-7.954-7.146-7.954-12.332-1.844 3.919-3.804 8.644-3.458 12.909.346 4.264 2.651 8.644 6.571 10.373-4.035 1.152-8.185-1.383-10.721-4.61-2.536-3.228-3.573-7.492-3.919-11.641-4.381 2.766-7.378 7.376-9.107 12.332-1.498 4.495-2.305 9.336-1.498 13.946.807 4.61 3.227 9.106 7.262 11.641-1.844.346-3.919.577-5.764-.23-.115 2.65 1.383 5.187 3.458 6.8 2.075 1.614 4.611 2.651 7.032 3.343 8.646 2.535 17.752 3.342 26.628 4.956 20.865 4.034 40.231 13.715 60.173 21.438 2.652 1.267 7.263 2.19 10.144 1.383z" fill="#FE642F"/><path d="M449.222 79.413c-2.997-10.604-1.384-22.015 1.959-32.618-10.489 9.797-25.821 12.217-40.115 10.373 4.726-2.305 8.991-5.532 12.565-9.451-14.179-.922-28.703 2.535-42.882 1.152-1.614 4.841-2.651 9.913-3.228 14.638-1.268 10.143-.461 20.4 1.268 30.543 1.845 10.95 4.842 22.13 11.874 30.89 6.916 8.759 18.559 14.407 29.394 11.641 4.035-1.038 7.724-3.112 11.067-5.533 12.449-8.875 21.556-21.784 27.665-35.96-4.495-4.034-7.838-9.682-9.567-15.675z" fill="#F8AB74"/><path d="M423.631 47.717c-3.574 3.919-7.839 7.146-12.565 9.45 14.179 1.96 29.625-.46 40.115-10.372-3.343 10.488-4.956 22.014-1.959 32.618 1.729 5.993 5.072 11.64 9.567 15.79.807-1.844 1.499-3.688 2.191-5.532 2.997-8.068 5.072-16.482 5.187-25.011.115-8.53-2.075-17.289-7.032-24.32-6.916-9.797-18.789-15.214-30.663-17.519-5.763-1.037-11.758-1.498-17.521-.346-7.724 1.499-18.213 5.878-23.17 12.333-3.113 4.034-5.418 8.99-7.147 14.061 14.294 1.383 28.818-2.074 42.997-1.152z" fill="#FE642F"/><path d="M452.911 79.528c-1.614 4.38-1.614 9.336-.807 13.946.692 3.573 2.075 7.377 5.418 8.99 2.421 1.153 5.418.692 7.723-.691 2.306-1.383 4.15-3.458 5.649-5.648 2.305-3.342 4.15-7.03 4.611-11.065.461-4.034-.577-8.298-3.343-11.295-2.651-2.881-7.493-4.956-11.182-3.227-3.804 1.614-6.686 5.071-8.069 8.99z" fill="#F8AB73"/><path d="M470.202 78.03c-1.152-1.499-3.112-2.075-4.957-1.96-1.844.116-3.458 1.268-4.495 2.651-1.153 1.383-1.96 3.112-2.421 4.841-.461 1.729-.692 3.688-.922 5.532l-1.153-.46c1.153-1.384 2.767-2.421 4.726-2.306.923.115 1.845.577 2.536 1.153.692.691 1.038 1.498 1.268 2.42.231.922.116 1.844-.115 2.651-.23.807-.692 1.614-1.383 2.19-1.268 1.268-2.767 1.96-4.381 2.305 1.499-.576 2.998-1.498 3.92-2.766.461-.576.922-1.268 1.037-2.075.231-.691.115-1.498 0-2.19-.346-1.498-1.498-2.65-2.997-2.65-1.383 0-2.767.806-3.689 1.959l-1.383 1.729.231-2.19c.23-1.844.461-3.804 1.037-5.648.576-1.844 1.383-3.688 2.767-5.186 1.383-1.499 3.227-2.536 5.302-2.536 2.075-.115 4.15.807 5.072 2.536zM410.49 67.541a41.6 41.6 0 010 16.021c-.922 5.302-2.881 10.489-5.533 15.099l-.115-.461c.807.46 1.614.922 2.421 1.268.807.346 1.729.576 2.651.807-.922 0-1.844-.231-2.766-.462-.923-.23-1.845-.576-2.652-1.037l-.346-.115.116-.346c2.305-4.84 3.919-9.797 4.956-14.983 1.038-5.187 1.499-10.489 1.268-15.79z" fill="#32338C"/><path d="M406.917 115.028c1.268.806 2.536 1.383 3.804 1.498 3.574.346 7.032-2.997 9.452-6.109-4.841-.345-9.798 1.383-13.256 4.611z" fill="#FE632E"/><path d="M409.338 109.034c-4.611-.461-11.412-4.61-11.412-4.61s3.919 7.376 8.876 10.604c3.573-3.228 8.415-4.957 13.256-4.611 2.075-2.766 3.343-5.302 3.343-5.302s-9.452 4.38-14.063 3.919z" fill="#32338C"/><path d="M397.118 78.26c.116 2.42-1.037 4.495-2.651 4.61-1.614.116-2.997-1.844-3.112-4.264-.116-2.42 1.037-4.495 2.651-4.61 1.614-.116 2.997 1.729 3.112 4.264zm32.047.577c.115 2.42-1.037 4.495-2.651 4.61-1.614.115-2.997-1.844-3.113-4.265-.115-2.42 1.038-4.495 2.652-4.61 1.614-.115 2.997 1.844 3.112 4.264z" fill="#32328C"/><path d="M384.899 68.694c.462-1.499 1.153-2.882 1.96-4.265.461-.691 1.038-1.268 1.614-1.844a13.232 13.232 0 011.96-1.613c.691-.461 1.383-1.038 2.19-1.383.807-.462 1.729-.577 2.536-.577 1.729.115 3.689.807 4.726 2.536l-.115.46c-1.729 1.038-2.882 1.5-3.92 2.076a4.622 4.622 0 01-1.729.345c-.576 0-1.268 0-1.844.23-.576.231-1.153.462-1.844.692-.577.23-1.153.577-1.73.922-1.152.692-2.305 1.614-3.342 2.651l-.462-.23zm49.683.23c-1.037-1.037-2.19-1.959-3.343-2.65-.576-.346-1.153-.692-1.729-.923a5.092 5.092 0 00-1.844-.691c-.577-.23-1.268-.23-1.845-.23a4.63 4.63 0 01-1.729-.346c-1.153-.462-2.19-1.038-3.919-2.075l-.115-.461c1.037-1.844 2.997-2.536 4.726-2.536.922 0 1.844.115 2.536.577.807.46 1.498.922 2.19 1.383a13.283 13.283 0 011.96 1.613c.576.576 1.152 1.268 1.614 1.844.922 1.383 1.613 2.766 1.959 4.265l-.461.23z" fill="#FE642E"/><path opacity=".4" d="M395.505 98.891c0 1.96-2.651 3.573-5.879 3.573-3.228 0-5.879-1.613-5.879-3.573 0-1.959 2.651-3.573 5.879-3.573 3.228.116 5.879 1.614 5.879 3.573zm41.152 0c0 1.96-2.651 3.573-5.879 3.573-3.227 0-5.879-1.613-5.879-3.573 0-1.959 2.652-3.573 5.879-3.573 3.228.116 5.879 1.614 5.879 3.573z" fill="#F8AB74"/><path d="M384.323.23c-.806 4.034-.23 8.299 1.499 11.872 1.729 3.688 4.496 6.8 8.069 8.76 3.574 1.844 7.608 2.42 11.758 2.535 4.035.116 8.185-.23 12.219-.576 8.185-.692 16.369-1.729 24.669-1.153 4.15.346 8.299 1.384 11.758 3.804 1.729 1.268 3.112 2.766 4.15 4.61 1.037 1.844 1.613 3.919 1.613 5.994-.115-2.075-.807-4.034-1.844-5.763a15.033 15.033 0 00-4.265-4.265c-3.343-2.19-7.493-3.112-11.528-3.342-8.184-.461-16.368.691-24.553 1.383-4.15.346-8.3.576-12.449.46-4.15-.114-8.415-.69-12.104-2.765s-6.571-5.533-8.185-9.336c-1.498-3.919-1.959-8.299-.807-12.218z" fill="#F8AB74"/><path d="M455.447 42.991c-.691-4.725-4.265-8.529-8.53-10.373-4.265-1.844-9.107-1.844-13.718-1.153-4.611.807-9.106 2.305-13.602 3.689-4.611 1.267-9.222 2.42-13.948 3.112-4.726.691-9.568.806-14.294.115-4.726-.692-9.568-1.96-13.372-4.956-3.804-2.997-6.686-7.146-7.723-11.872-1.038-4.725-.576-9.682 1.614-13.946-1.845 4.38-2.19 9.22-.922 13.716 1.152 4.495 4.034 8.529 7.723 11.18 3.804 2.65 8.3 4.034 12.911 4.61 4.611.576 9.337.461 13.948-.23 4.611-.577 9.222-1.73 13.717-2.997 4.496-1.268 8.992-2.766 13.833-3.458 4.726-.692 9.683-.576 14.064 1.498 2.19 1.038 4.149 2.536 5.648 4.38 1.499 2.075 2.536 4.38 2.651 6.685z" fill="#F8AB74"/><path d="M450.605 40.801c-1.498-2.535-4.15-3.919-6.801-4.38-2.766-.46-5.533.116-8.069 1.153-2.536 1.037-4.841 2.766-7.032 4.61-2.19 1.845-4.15 3.92-6.34 5.879 1.729-2.306 3.574-4.495 5.649-6.57s4.495-3.919 7.262-5.072c1.383-.576 2.882-.922 4.265-1.152 1.499-.115 2.997-.115 4.496.23a10.137 10.137 0 014.034 1.96c1.153.807 2.075 1.96 2.536 3.342zm16.254-.231c1.614-.575 3.459-.46 5.188.231 1.614.692 3.112 1.844 4.265 3.228 2.19 2.881 3.112 6.454 3.228 9.912.115 3.573-.692 7.03-1.96 10.258-.692 1.613-1.499 3.112-2.306 4.61a55.284 55.284 0 01-2.881 4.265c.806-1.499 1.613-2.997 2.305-4.61.692-1.499 1.383-3.113 1.96-4.726 1.037-3.227 1.729-6.57 1.614-9.912-.116-3.343-.923-6.685-2.767-9.452-.922-1.383-2.19-2.535-3.689-3.227-1.498-.576-3.228-.922-4.957-.576zm-9.106 5.533c1.153-.23 2.536 0 3.573.576 1.153.577 2.075 1.499 2.767 2.536 1.383 2.075 2.19 4.495 2.651 6.916.461 2.42.577 4.956.231 7.376-.115 1.268-.461 2.42-.807 3.573-.231.576-.346 1.153-.576 1.729-.116.23-.231.576-.462.807-.23.23-.576.46-.807.346.346.115.577-.23.692-.461.115-.23.231-.577.231-.807l.346-1.73c.23-1.152.345-2.42.345-3.572.116-2.42 0-4.726-.461-7.03-.461-2.306-1.152-4.611-2.19-6.686-.576-1.037-1.268-1.844-2.305-2.535-.807-.692-1.96-1.038-3.228-1.038z" fill="#F8AB74"/><path d="M186.624 81.23L42.112 99.877l20.274 157.066 144.511-18.648L186.624 81.23z" fill="#EEF"/><path d="M182.208 46.95L37.696 65.596l4.412 34.18 144.511-18.648-4.411-34.18z" fill="#7371FC"/><path d="M42.124 99.888l-19.664 2.538 20.273 157.066 19.665-2.538L42.124 99.888z" fill="#91C4FB"/><path d="M37.71 65.607l-19.665 2.537 4.412 34.18 19.664-2.537-4.412-34.18z" fill="#443DC3"/><path d="M75.327 106.819l-22.065 2.848 3.865 29.949 22.066-2.847-3.866-29.95zm26.287-3.352l-22.065 2.847 3.866 29.95 22.065-2.847-3.866-29.95zm26.157-3.451l-22.065 2.847 3.866 29.95 22.065-2.847-3.866-29.95zm26.289-3.354l-22.066 2.847 3.866 29.95 22.065-2.847-3.865-29.95zm26.173-3.339l-22.065 2.847 3.866 29.95 22.065-2.847-3.866-29.95zM79.706 140.705l-22.065 2.848 3.865 29.95 22.066-2.848-3.866-29.95zm26.289-3.353l-22.065 2.847 3.865 29.95 22.066-2.847-3.866-29.95zm26.172-3.337l-22.065 2.847 3.865 29.95 22.066-2.847-3.866-29.95zm26.273-3.468l-22.065 2.848 3.866 29.95 22.065-2.848-3.866-29.95zm26.172-3.337l-22.065 2.848 3.866 29.95 22.065-2.848-3.866-29.95zM84.086 174.591l-22.066 2.847 3.866 29.95 22.066-2.847-3.866-29.95zm26.287-3.352l-22.065 2.847 3.865 29.95 22.066-2.847-3.866-29.95zm26.176-3.34l-22.066 2.847 3.866 29.95 22.066-2.847-3.866-29.95zm26.156-3.45l-22.065 2.847 3.865 29.95 22.066-2.847-3.866-29.95zm26.287-3.353l-22.065 2.847 3.866 29.95 22.065-2.847-3.866-29.95zM88.466 208.477L66.4 211.324l3.866 29.95 22.066-2.847-3.866-29.95zm26.289-3.353l-22.066 2.847 3.866 29.95 22.066-2.847-3.866-29.95zm26.171-3.338l-22.066 2.848 3.866 29.95 22.066-2.848-3.866-29.95zm26.161-3.454l-22.066 2.848 3.866 29.95 22.066-2.848-3.866-29.95zm26.285-3.35l-22.065 2.847 3.865 29.95 22.066-2.847-3.866-29.95z" fill="#FEFFFD"/><path d="M29.626 66.734l-1.268-9.681c-.692-6.224 3.573-11.757 9.683-12.564l6.8-.922c6.11-.806 11.643 3.573 12.45 9.567l2.19 16.712c.807 6.109-3.573 11.641-9.567 12.448" stroke="#32338C" stroke-width="4.028" stroke-miterlimit="10" stroke-linecap="round" stroke-linejoin="round"/><path d="M48.99 64.198l-1.267-9.681c-.807-6.109 3.573-11.641 9.568-12.448l6.8-.922c6.11-.807 11.643 3.573 12.45 9.566l2.19 16.713c.807 6.108-3.573 11.64-9.567 12.448" stroke="#32338C" stroke-width="4.028" stroke-miterlimit="10" stroke-linecap="round" stroke-linejoin="round"/><path d="M68.242 61.663l-1.268-9.682c-.807-6.108 3.573-11.64 9.568-12.448l6.8-.922c6.11-.806 11.643 3.573 12.45 9.567l2.19 16.827c.807 6.109-3.573 11.641-9.567 12.448" stroke="#32338C" stroke-width="4.028" stroke-miterlimit="10" stroke-linecap="round" stroke-linejoin="round"/><path d="M87.493 59.242l-1.268-9.681c-.807-6.109 3.573-11.641 9.568-12.448l6.801-.922c6.109-.807 11.642 3.573 12.449 9.566l2.19 16.713c.807 6.108-3.573 11.64-9.567 12.448" stroke="#32338C" stroke-width="4.028" stroke-miterlimit="10" stroke-linecap="round" stroke-linejoin="round"/><path d="M106.744 56.707l-1.268-9.682c-.807-6.108 3.573-11.64 9.568-12.448l6.801-.922c6.109-.807 11.642 3.573 12.449 9.567l2.19 16.712c.807 6.109-3.573 11.641-9.567 12.448" stroke="#32338C" stroke-width="4.028" stroke-miterlimit="10" stroke-linecap="round" stroke-linejoin="round"/><path d="M126.11 54.286l-1.268-9.681c-.807-6.109 3.573-11.641 9.568-12.448l6.801-.922c6.109-.807 11.643 3.573 12.449 9.566l2.191 16.713c.807 6.108-3.574 11.64-9.568 12.447" stroke="#32338C" stroke-width="4.028" stroke-miterlimit="10" stroke-linecap="round" stroke-linejoin="round"/><path d="M145.36 51.75l-1.268-9.68c-.807-6.11 3.573-11.642 9.568-12.449l6.801-.922c6.109-.807 11.642 3.573 12.449 9.567l2.191 16.712c.807 6.109-3.574 11.641-9.568 12.448" stroke="#32338C" stroke-width="4.028" stroke-miterlimit="10" stroke-linecap="round" stroke-linejoin="round"/><path d="M248.53 443.974c97.533 0 176.599-79.056 176.599-176.576 0-97.519-79.066-176.575-176.599-176.575-97.533 0-176.6 79.056-176.6 176.575 0 97.52 79.067 176.576 176.6 176.576z" fill="#32338C"/><path d="M256.945 443.974c97.533 0 176.6-79.056 176.6-176.576 0-97.519-79.067-176.575-176.6-176.575s-176.6 79.056-176.6 176.575c0 97.52 79.067 176.576 176.6 176.576z" fill="#7371FC"/><path d="M284.495 354.649c31.931-12.909 60.865-34.232 79.539-63.046 21.787-33.425 28.357-73.996 26.513-114.336-28.934-42.876-78.04-70.999-133.602-70.999-89.107 0-161.268 72.151-161.268 161.13 0 29.506 7.954 57.168 21.787 80.912 51.757 24.549 113.775 27.777 167.031 6.339z" fill="#fff"/><path d="M390.432 177.267c1.96 40.34-4.726 80.911-26.513 114.336-18.789 28.814-47.723 50.137-79.539 63.046-53.256 21.438-115.158 18.211-166.916-6.224 27.896 47.947 79.885 80.219 139.366 80.219 88.991 0 161.153-72.151 161.153-161.13.115-33.425-10.029-64.545-27.551-90.247z" fill="#EEF"/><path d="M255.101 269.473l-75.735-67.541 79.309 63.392-3.574 4.149z" fill="#32338C"/><path d="M259.943 265.554l34.927 128.398-41.037-124.594 6.11-3.804z" fill="#32338C"/><path d="M256.946 279.385c6.621 0 11.988-5.366 11.988-11.987 0-6.62-5.367-11.986-11.988-11.986-6.622 0-11.989 5.366-11.989 11.986 0 6.621 5.367 11.987 11.989 11.987z" fill="#FE814B"/><path d="M256.944 106.268v34.231m0 253.798v34.347m161.154-161.246h-34.237m-253.833 0H95.677m25.13-86.328l28.933 18.326m214.294 136.12l28.934 18.326m-49.683-222.448l-18.329 28.93M188.818 374.588l-18.329 28.93M392.968 181.07l-28.934 18.326M149.74 335.516l-28.933 18.326m49.682-222.448l18.329 28.93m136.138 214.264l18.329 28.93" stroke="#32338C" stroke-width="3.883" stroke-miterlimit="10" stroke-linecap="round" stroke-linejoin="round"/><path d="M167.824 356.383L12.279 415.326l32.397 85.468 155.544-58.943-32.396-85.468z" fill="#F8AB74"/><path d="M106.282 428.529l-93.948-13.254 97.752 23.397 57.752-82.294-61.556 72.151z" fill="#FE814B"/><path d="M482.71 337.332L337.641 303.1l-44.14 187.005 145.07 34.232 44.139-187.005z" fill="#32338C"/><path d="M485.488 337.927l-145.069-34.232-44.14 187.005 145.07 34.232 44.139-187.005z" fill="#91C4FB"/><path d="M469.237 353.261l-121.284-28.62-37.308 158.063 121.284 28.619 37.308-158.062z" fill="#fff"/><path d="M439.308 306.125l-43.458-10.258c-6.917-1.614-13.948 2.651-15.562 9.682l-1.729 7.261 68.703 16.251 1.729-7.261c1.498-7.031-2.767-14.061-9.683-15.675z" fill="#32338C"/><path d="M367.556 365.02c6.478-1.369 10.62-7.73 9.25-14.207-1.369-6.477-7.73-10.618-14.208-9.249-6.478 1.369-10.62 7.73-9.251 14.207 1.37 6.477 7.731 10.618 14.209 9.249z" fill="#EEEEFE"/><path d="M359.538 348.194l4.957 8.068 14.409-8.875" stroke="#FE814B" stroke-width="3.198" stroke-miterlimit="10" stroke-linecap="round" stroke-linejoin="round"/><path d="M388.472 351.075l65.936 15.56m-67.665-8.299l65.937 15.56m-67.666-8.298l66.052 15.559" stroke="#91C4FB" stroke-width="3.198" stroke-miterlimit="10" stroke-linecap="round" stroke-linejoin="round"/><path d="M367.954 393.145c-1.499 6.454-7.954 10.373-14.409 8.874-6.456-1.498-10.375-7.952-8.876-14.407 1.498-6.454 7.953-10.373 14.409-8.875 6.455 1.499 10.49 7.953 8.876 14.408z" fill="#EEEEFE"/><path d="M350.778 385.307l4.957 8.068 14.409-8.875" stroke="#FE814B" stroke-width="3.198" stroke-miterlimit="10" stroke-linecap="round" stroke-linejoin="round"/><path d="M379.712 388.188l65.937 15.56m-67.666-8.298l65.937 15.56m-67.666-8.299l66.052 15.56" stroke="#91C4FB" stroke-width="3.198" stroke-miterlimit="10" stroke-linecap="round" stroke-linejoin="round"/><path d="M358.418 432.687c2.847-5.977.309-13.129-5.669-15.976-5.977-2.847-13.131-.309-15.978 5.667-2.847 5.977-.309 13.13 5.668 15.977 5.978 2.846 13.132.309 15.979-5.668z" fill="#EEEEFE"/><path d="M342.017 422.42l4.956 8.068 14.41-8.875" stroke="#FE814B" stroke-width="3.198" stroke-miterlimit="10" stroke-linecap="round" stroke-linejoin="round"/><path d="M370.95 425.302l65.937 15.56m-67.665-8.299l65.936 15.56m-67.666-8.299l66.052 15.56" stroke="#91C4FB" stroke-width="3.198" stroke-miterlimit="10" stroke-linecap="round" stroke-linejoin="round"/><path d="M454.985 342.316l-89.452-21.092c-2.767-.692-4.611-3.458-3.919-6.339l1.383-5.763 99.596 23.512-1.383 5.763c-.576 2.882-3.343 4.611-6.225 3.919z" fill="#91C4FB"/><path d="M345.535 474.737c5.598-3.536 7.268-10.94 3.731-16.537-3.537-5.597-10.942-7.267-16.539-3.73-5.598 3.536-7.268 10.94-3.731 16.537 3.537 5.596 10.942 7.266 16.539 3.73z" fill="#EEEEFE"/><path d="M333.487 459.533l5.072 8.068 14.294-8.874" stroke="#FE814B" stroke-width="3.198" stroke-miterlimit="10" stroke-linecap="round" stroke-linejoin="round"/><path d="M362.42 462.415l66.052 15.56m-67.781-8.183l66.052 15.559m-67.781-8.298l66.052 15.56" stroke="#91C4FB" stroke-width="3.198" stroke-miterlimit="10" stroke-linecap="round" stroke-linejoin="round"/><path d="M442.766 167.585c-1.614 3.803-3.458 7.376-5.533 10.949-2.075 3.573-4.15 7.031-6.571 10.374 1.614-3.804 3.458-7.377 5.533-10.95 1.96-3.573 4.035-7.031 6.571-10.373z" fill="#fff"/><path d="M459.711 220.488s-11.642 18.211-23.17 31.812c-11.527 13.6-27.781 28.814-27.781 28.814l-86.801-36.421 12.795-29.737 63.632 19.594 36.657-51.866 24.668 37.804z" fill="#32338C"/><path d="M321.037 209.309l13.718 5.762-8.992 20.977-8.876-2.996-19.596.806-5.764-2.881c-2.075-1.037-2.882-3.688-1.729-5.763l1.614-2.766-1.384-1.037c-1.959-1.499-2.19-4.495-.345-6.224l1.613-1.499-2.074-2.881c-1.499-2.075-.807-4.956 1.383-6.109l2.19-1.152-.692-3.804c-.345-2.19.923-4.264 3.113-4.725 2.766-.692 5.648-.116 7.954 1.498l17.867 12.794z" fill="#F8AB72"/><path d="M321.268 210.692c-4.15-8.875-8.415-18.096-9.107-27.893 0-.461-.115-1.037-.461-1.268-.231-.115-.576-.23-.807-.23-2.305 0-4.38 1.729-5.187 3.803-.807 2.19-.461 4.611.461 6.685.23.461.461.922.461 1.383 0 .461-.231.807-.461 1.268-.692 1.268-1.499 2.536-2.19 3.804 4.38 5.532 10.489 10.027 17.291 12.448z" fill="#F8AB72"/><path d="M313.314 204.698c-.807-.461-1.614-1.037-2.421-1.614-.807-.576-1.499-1.152-2.306-1.844-.691-.576-1.498-1.268-2.19-1.959-.691-.692-1.383-1.268-2.075-2.075.807.461 1.614 1.038 2.421 1.614.807.576 1.499 1.152 2.306 1.844.691.576 1.498 1.268 2.19 1.959l2.075 2.075z" fill="#32338C"/><path d="M308.818 87.596l20.98 8.068c2.767 1.037 4.381 3.803 4.15 6.685l-1.037 10.719-7.263 11.872s-2.997-.807-1.959-4.15c1.037-3.342 4.611-12.332 4.611-12.332v-6.34s-3.459 14.523-6.686 17.289c-3.343 2.651-15.216-2.536-18.444-5.186-1.614-1.268 1.268-5.418 1.614-11.526.461-6.34-1.383-14.868 4.034-15.1z" fill="#F8AB74"/><path d="M322.19 92.437c.346 2.42.461 4.84.231 7.376-.116 2.421-.577 4.841-1.268 7.262-.692 2.305-1.499 4.725-2.652 6.915-1.152 2.19-2.42 4.265-3.919 6.224 1.268-2.075 2.536-4.149 3.458-6.339a36.742 36.742 0 002.421-6.8c.692-2.306 1.037-4.726 1.383-7.147.461-2.65.461-5.07.346-7.491zm-7.953-2.767a37.1 37.1 0 010 7.147c-.231 2.42-.577 4.725-1.153 7.146-.576 2.305-1.268 4.61-2.19 6.8-.461 1.152-.922 2.19-1.499 3.227-.346.576-.576 1.037-.922 1.614-.346.461-.692 1.037-1.268 1.152.576-.23.922-.807 1.153-1.268.23-.576.461-1.037.691-1.613.462-1.037.923-2.19 1.384-3.343a66.497 66.497 0 002.075-6.8c.576-2.305.922-4.61 1.268-7.03.23-2.306.461-4.61.461-7.031z" fill="#32338C"/></g><defs><clipPath id="clip0"><path fill="#fff" d="M0 0h520v525H0z"/></clipPath></defs></svg>