<svg width="708" height="438" fill="none" xmlns="http://www.w3.org/2000/svg"><g clip-path="url(#clip0)"><path opacity=".1" d="M658 319.972H50c-27.614 0-50 22.385-50 50V388c0 27.614 22.386 50 50 50h608c27.614 0 50-22.386 50-50v-18.028c0-27.615-22.386-50-50-50z" fill="#615BE7"/><path opacity=".1" d="M689.498 308.254c.578 20.162-17.67 33.238-37.84 33.342l-593.313 3.058c-20.04.104-39.294-11.565-43.118-31.237a109.94 109.94 0 01-.78-4.502c-.067-.441-.193-.877-.193-1.323-.66-4.819-1.038-9.45-1.038-13.891-.189-92.892 125.269-111.225 130.272-172.743 0-122.753 113.091-135.7 246.667-87.695 30.775 8.222 57.301 6.71 80.995 1.229 1.039-.19 1.983-.473 2.927-.662 1.699-.378 3.398-.85 5.003-1.322C521.749 20.883 555.638-1.795 590.472.188c2.643.189 5.286.473 8.024.85 6.419 1.134 13.027 3.119 19.635 6.332 18.88 8.788 27.943 20.6 31.058 34.114.472 1.984.755 3.969.944 5.953 2.549 24.664-11.423 54.337-21.146 83.253-.377 1.229-.849 2.457-1.227 3.78l-.755 2.268c-9.44 29.956-12.744 58.684 13.593 79.379 32.285 25.42 44.274 54.053 47.767 77.583.566 3.591.944 7.087 1.038 10.489.095 1.418.095 2.741.095 4.064z" fill="#615BE7"/><path d="M566.117 75.032h-3.493v12.285h3.493V75.032zm55.885 0h-3.493v12.285h3.493V75.032z" fill="#6E6659"/><path d="M629.365 69.55h-74.01v5.576h74.01v-5.575z" fill="#948478"/><path d="M601.328 54.053l.095-.378c0-.094.094-.283.094-.378 0-.283.189-1.228.189-1.228.094-.567.189-1.229.377-1.796.378-1.795.756-3.402 1.228-4.725v-.094c.094-.284.188-.473.283-.756v-.095c.472-1.228.944-2.268 1.321-2.93.095-.188.284-.377.378-.472l.283-.283c.755-.567 1.699-1.04 2.738-1.512l.849-.378 1.227-.662c1.983-1.134 4.437-2.74 6.703-5.953.094 1.7-.094 4.725-1.888 7.654v.095l-.189.283c-.094.19-.283.378-.472.567l-.094.19c-.944 1.133-2.077 2.267-3.399 3.212-.66.473-1.321.945-1.982 1.512-.189.19-.378.378-.661.473-.189.189-.377.378-.566.472a32.41 32.41 0 00-2.549 2.552l-.283.283-.095.095c-.283.283-.472.567-.66.85l-.095.19a18.768 18.768 0 00-1.793 2.645s-.189.378-.284.473h-.755v.094z" fill="#689763"/><path d="M616.526 34.114a12.093 12.093 0 01-1.888 5.764l-.094.095-.189.283c-.094.19-.189.284-.283.473l-.189.189c-.849 1.134-1.982 2.079-3.209 3.024-.661.472-1.322.945-1.983 1.512h-.094c-.189.189-.378.283-.567.472-.188.19-.377.378-.566.473-.944.85-1.794 1.7-2.643 2.551l-.283.284-.095.094c-.283.284-.472.567-.755.85l-.283.284c-.472.567-.85 1.229-1.227 1.796v-.284c.094-.567.188-1.228.377-1.795.378-1.796.755-3.308 1.227-4.63v-.095c.095-.284.189-.473.284-.662l.094-.189c.378-1.228.85-2.079 1.227-2.646.095-.189.189-.283.283-.378l.189-.189c.755-.567 1.605-.945 2.643-1.512.284-.094.567-.283.85-.378.094-.094.189-.094.283-.189l.095-.094.283-.095.283-.094.566-.284c1.794-1.04 3.776-2.362 5.664-4.63zm.944-3.213c-2.454 3.874-5.192 5.764-7.646 7.087-.189.095-.378.19-.472.284-.094.094-.283.189-.378.189-1.416.661-2.643 1.228-3.681 1.984-.095.095-.283.19-.378.284-.189.189-.283.378-.472.567-.566.756-1.038 1.89-1.416 3.118l-.283.85c-.472 1.513-.849 3.214-1.227 4.726-.094.661-.283 1.323-.378 1.89-.094.378-.189.85-.189 1.134 0 .189-.094.283-.094.472v.284c0 .283-.094.472-.094.661h1.604l.284-.567c0-.094.094-.094.094-.189.472-.756 1.038-1.7 1.888-2.74.283-.284.472-.567.755-.945l.283-.284c.756-.756 1.511-1.606 2.549-2.457.189-.189.378-.283.567-.472.188-.19.377-.378.66-.473.567-.472 1.228-.945 1.983-1.512 1.51-1.04 2.737-2.268 3.587-3.496.189-.284.378-.473.566-.756 0-.095.095-.095.095-.19 2.549-4.063 2.077-8.032 1.888-9.166-.095-.189-.095-.283-.095-.283z" fill="#A1C19D"/><path d="M617.565 31.184c-.283 2.363-1.039 5.292-2.832 6.71-3.399 2.646-6.136 5.859-8.591 10.773-.188.378-.377.756-.472 1.04l-.283.283a6.646 6.646 0 00-.755.945c-.85 1.04-1.51 1.984-1.888 2.74 0 .095-.094.095-.094.189l-.284.567h-1.604c0-.189.094-.472.094-.661v-.284c0-.094.094-.283.094-.472.095-.378.095-.756.189-1.134.095-.567.284-1.229.378-1.89.378-1.512.755-3.213 1.227-4.725l.283-.85c.472-1.23.944-2.363 1.416-3.12.189-.188.283-.377.472-.566.095-.095.284-.19.378-.284 1.038-.756 2.265-1.323 3.681-1.984.095-.095.284-.095.378-.19.189-.094.378-.188.472-.283 2.454-1.323 5.192-3.213 7.646-7.087 0 0 0 .094.095.283z" fill="#E6E6E7"/><path d="M583.958 54.053c-.944-2.93-3.493-11.245-5.098-18.71-1.133-5.293-1.51-9.167-1.227-11.34.85-5.387.944-11.151.85-14.08 1.982 3.118 6.419 11.056 8.307 23.246.566 3.874.661 11.812.661 16.16v4.724h-3.493z" fill="#689763"/><path d="M579.049 11.907c2.171 3.78 5.57 11.056 7.174 21.356.567 3.875.661 11.718.661 16.065v4.158h-2.549c-1.038-3.213-3.492-11.15-5.003-18.238-1.133-5.292-1.51-8.977-1.227-11.15.755-4.348.944-8.978.944-12.191zm-1.133-3.78v1.04c.095 2.456.095 8.882-.849 14.836-.378 2.551.188 6.898 1.227 11.528 1.605 7.655 4.342 16.16 5.286 19.089h4.437v-5.292c0-5.008-.094-12.474-.661-16.254-2.454-16.253-9.44-24.947-9.44-24.947z" fill="#A1C19D"/><path d="M588.017 49.328v2.93c-2.077-8.694-4.909-21.263-6.514-30.523-1.133-6.52-3.587-13.608-3.587-13.608s6.986 8.694 9.44 25.042c.566 3.685.661 11.15.661 16.16z" fill="#E6E6E7"/><path d="M597.174 54.053c.283-7.37 2.171-14.364 5.569-20.884l.095-.095c3.021-5.67 6.513-9.544 8.401-11.34.095-.094.189-.094.189-.188-.377 2.268-1.038 6.425-.849 10.394.094 1.323-.472 3.402-1.7 6.237-2.36 5.765-6.513 12.947-8.307 15.97h-3.398v-.094z" fill="#425F44"/><path d="M610.579 23.152c-.378 2.363-.756 5.575-.567 8.694 0 .85-.189 2.551-1.605 5.953-2.265 5.481-6.23 12.474-8.118 15.593h-2.454c.377-7.088 2.171-13.797 5.475-20.034l.094-.19c2.455-4.535 5.192-7.937 7.175-10.016zm1.699-3.213s-.567.473-1.511 1.323c-1.982 1.89-5.475 5.859-8.496 11.529-2.926 5.575-5.475 12.852-5.664 21.735h4.248c0-.095.095-.095.095-.19 1.699-2.929 5.947-10.205 8.401-16.064 1.039-2.646 1.794-4.914 1.7-6.426-.189-5.67 1.227-11.907 1.227-11.907z" fill="#5E7A5F"/><path d="M610.767 21.357c-1.699 3.307-3.87 7.654-4.436 10.017-1.133 4.252-.661 5.764-1.416 9.45-.567 3.212-3.21 11.245-3.965 13.607 0 .095-.095.095-.095.19h-4.248c.189-8.884 2.738-16.16 5.664-21.736a47.649 47.649 0 018.496-11.528z" fill="#E6E6E7"/><path d="M588.206 54.053c-.094-.283-.094-.472-.189-.661v-.19l-.094-.094-.189-.85-.094-.378c-.472-2.268-1.133-5.86-1.133-9.734 0-3.307.472-6.237 1.321-8.883.189-.661.472-1.228.661-1.795l.283-.567.756-1.607c.566-1.134 1.038-2.079 1.416-2.929.188-.378.377-.756.472-1.04 0 0 .188-.283.188-.377.189-.378.284-.662.472-.945.189 1.984.567 4.724 1.133 6.52.095.283.189.567.283.756.095.094.095.283.189.378.095.189.095.283.189.472.472 1.418.472 3.497-.094 6.804v.095c-.378 2.173-1.039 5.008-1.983 8.6v.094c-.189.567-.283 1.228-.472 1.89 0 0-.377 1.417-.566 2.079v.094a70.867 70.867 0 00-.567 2.174l-.094.188h-1.888v-.094z" fill="#425F44"/><path d="M591.888 25.987c.189 1.607.472 3.308.944 4.63.094.284.189.567.283.756.095.19.095.284.189.378.094.095.094.19.189.378.472 1.323.377 3.402-.189 6.52v.095c-.378 2.268-1.038 5.103-1.982 8.6v.189c-.095.472-.284 1.04-.378 1.606l-.094.378v.095c-.189.567-.284 1.228-.472 1.795v.19c-.189.66-.378 1.228-.567 1.89h-1.038c0-.095 0-.095-.095-.19v-.378l-.094-.094c-.094-.19-.094-.473-.189-.662l-.094-.378c-.472-2.268-1.133-5.764-1.133-9.544 0-3.213.472-6.143 1.322-8.694.188-.567.472-1.229.66-1.796l.284-.567c0-.094.094-.189.094-.283l.378-.756.283-.662c.566-1.134 1.038-2.079 1.416-2.929l.283-.567zm.661-4.536s-.189.756-1.322 3.119c-.094.094-.094.283-.189.378-.188.283-.283.661-.472 1.039-.377.85-.849 1.796-1.416 2.93-.188.377-.472.85-.66 1.322 0 .095-.095.19-.095.284-.094.189-.189.378-.283.661-.283.662-.472 1.229-.755 1.89-.944 3.024-1.322 6.143-1.322 9.072 0 3.875.567 7.466 1.133 9.828 0 .095.094.284.094.378.095.284.189.567.189.85v.095c.095.284.095.567.189.756v.095c0 .094.094.188.094.283h2.644c.283-1.04.566-1.984.755-2.835.189-.661.377-1.323.566-1.89.189-.756.378-1.417.567-2.079.944-3.685 1.604-6.52 1.982-8.788.661-3.686.566-5.67.094-7.088-.094-.189-.094-.378-.188-.567-.095-.094-.095-.189-.189-.283-.095-.189-.189-.473-.283-.662-.756-2.551-1.228-6.992-1.322-8.41.189-.189.189-.378.189-.378z" fill="#5E7A5F"/><path d="M594.342 38.933c-.377 2.268-1.038 5.103-1.982 8.789a62.283 62.283 0 00-.566 2.079c-.189.661-.378 1.228-.567 1.89-.283.945-.566 1.89-.755 2.834h-2.737c0-.094-.095-.188-.095-.283v-.094c-.094-.19-.094-.473-.189-.757v-.094c-.188-2.268-.283-5.386.095-8.6.566-6.047 2.737-11.717 3.87-14.458.661-1.7 1.039-5.48 1.227-8.315.095 1.417.472 5.764 1.322 8.41.094.283.189.472.283.661 0 .095.095.19.189.284.094.189.189.378.189.567.283 1.323.377 3.402-.284 7.087z" fill="#E6E6E7"/><path d="M590.849 54.053c0-.661-.094-1.512-.094-2.457v-.661c0-1.89.094-3.686.189-5.387.094-1.04.189-2.079.377-3.024v-.189a34.438 34.438 0 011.039-3.969c.472-1.417 1.227-3.118 2.077-5.292 0 0 .283-.756.377-1.04.283-.66.566-1.322.85-2.078l.661-1.512.094-.095v-.189c1.699-3.78 3.398-7.56 4.531-10.016-.094 1.04-.094 2.362-.189 3.78 0 .094-.188 6.142.472 9.355.095.567.189 1.04.284 1.606 1.227 8.505-1.322 14.837-2.832 18.522l-.284.662c-.283.661-.472 1.323-.755 1.795h-6.797v.19z" fill="#8CB13A"/><path d="M600.478 21.073v.945c0 .095-.189 6.237.472 9.45.095.567.189 1.04.284 1.512v.094c1.227 8.316-1.322 14.553-2.738 18.239l-.283.756-.567 1.417h-6.136c0-.567-.094-1.228-.094-1.89v-.661c0-1.89.094-3.686.189-5.387.094-1.04.189-2.079.377-3.024v-.094a29.979 29.979 0 011.039-3.97c.472-1.322 1.227-3.118 2.077-5.197l.094-.189a2.83 2.83 0 01.378-.756l.849-1.984c.189-.473.472-.945.661-1.512l.189-.189v-.284a138.093 138.093 0 013.209-7.276zm1.416-5.67s-2.926 6.332-5.852 12.757c-.284.567-.473 1.134-.756 1.701a46.963 46.963 0 00-.849 2.08 4.63 4.63 0 00-.378 1.039c-.849 1.984-1.605 3.78-2.077 5.292a29.917 29.917 0 00-1.132 4.158c-.189 1.04-.284 2.079-.378 3.118-.189 1.985-.283 3.875-.189 5.481v.662c0 1.228.095 2.267.095 3.023h7.835c.283-.566.566-1.322.849-2.173 1.416-3.685 4.437-10.395 3.116-19.561-.095-.567-.189-1.04-.284-1.607-.566-2.929-.472-8.41-.472-9.26.095-2.93.284-5.387.284-6.237.188-.378.188-.473.188-.473z" fill="#B6D367"/><path d="M599.157 52.447c-.283.85-.661 1.606-.85 2.173h-7.741s5.57-6.804 7.175-13.04c1.605-6.238 1.038-10.396 1.699-15.31.472-3.212 1.605-7.748 2.454-10.489-.094.85-.188 3.308-.283 6.237 0 .756-.094 6.331.472 9.26.095.568.189 1.135.283 1.607 1.228 9.167-1.793 15.876-3.209 19.562z" fill="#E6E6E7"/><path d="M582.92 54.053a6.518 6.518 0 01-.283-.756l-.094-.283c-.472-1.134-1.133-2.268-1.888-3.497v-.094l-.095-.095c-.189-.378-.472-.756-.755-1.134a33.857 33.857 0 00-2.832-3.59l-.755-.851-.661-.662c-.566-.567-1.227-1.134-1.794-1.7-1.321-1.23-2.548-2.647-3.492-4.159l-.095-.094c-.189-.284-.283-.567-.472-.85l-.094-.19c0-.094-.095-.094-.095-.189-1.888-3.874-2.076-7.748-1.982-9.922 2.266 3.969 4.72 6.048 6.702 7.465l.284.19c.283.188.66.377.944.566a4177.179 4177.179 0 002.548 1.701c1.133.756 3.682 2.93 4.626 6.804.85 3.497 2.266 8.316 4.154 11.34h-3.871z" fill="#8CB13A"/><path d="M568.099 28.066c1.982 2.93 3.965 4.63 5.57 5.859l.472.378c.283.189.661.378.944.567l.849.567 1.7 1.134c1.038.756 3.492 2.835 4.342 6.426.85 3.213 1.982 7.56 3.682 10.678h-2.455c-.094-.094-.094-.283-.189-.378l-.094-.189-.094-.094c-.472-1.134-1.133-2.268-1.794-3.402v-.19l-.283-.283c-.283-.378-.472-.756-.755-1.134-.85-1.228-1.794-2.457-2.927-3.59l-.283-.284-.283-.284-.378-.378-.189-.189-.094-.094a75.575 75.575 0 01-.283-.284c-.567-.567-1.133-1.04-1.699-1.606-1.322-1.134-2.36-2.457-3.304-3.97l-.095-.188c-.189-.284-.283-.473-.377-.662l-.095-.189-.094-.189v-.094c-1.228-3.024-1.7-5.86-1.794-7.938zm-.849-3.874s-.001.189-.095.472c-.189 1.512-.661 6.52 1.888 11.623 0 .095.095.19.095.284.188.283.377.661.566.945.944 1.512 2.077 3.024 3.587 4.347.661.661 1.322 1.228 1.983 1.89.188.189.377.472.66.661.189.19.378.378.567.662 1.133 1.228 1.982 2.362 2.832 3.496.283.378.566.756.755 1.134.85 1.323 1.51 2.551 1.888 3.496 0 .095.094.19.094.19.189.377.378.755.472 1.133h5.287c-2.36-3.023-3.965-9.26-4.72-12-1.133-4.537-4.437-6.805-4.815-7.088-.755-.567-1.604-1.04-2.548-1.607-.284-.189-.567-.378-.944-.567-2.36-1.606-5.098-3.969-7.458-8.788 0-.095-.094-.189-.094-.284z" fill="#B6D367"/><path d="M587.451 54.62h-4.909c-.094-.283-.283-.661-.472-1.134 0-.094-.094-.189-.094-.189-.472-.945-1.039-2.173-1.888-3.496-.283-.378-.472-.756-.755-1.134-.756-1.134-1.7-2.268-2.832-3.497-.189-.189-.378-.378-.567-.661l-.661-.662c-.566-.661-1.227-1.228-1.982-1.89-1.51-1.417-2.738-2.835-3.587-4.347-.189-.283-.378-.661-.566-.945 0-.094-.095-.189-.095-.283-2.549-5.103-2.077-10.206-1.888-11.623 0-.284.095-.473.095-.473.094.095.094.189.188.284.755 3.874 2.549 11.623 6.136 14.363 4.154 3.119 11.8 12.947 13.877 15.687z" fill="#E6E6E7"/><path d="M605.104 55.66c0 .567 0 1.039-.095 1.606-.094 1.04-.283 2.079-.472 3.024-.189.567-.283 1.134-.566 1.7-.378.946-.755 1.796-1.227 2.647-.095.189-.189.283-.284.472-.377.567-.849 1.229-1.227 1.796-.566.756-1.321 1.512-1.982 2.173 0 0-1.699.945-6.891.945s-6.892-.945-6.892-.945c-.66-.661-1.321-1.323-1.888-2.079-.472-.567-.849-1.134-1.321-1.7-.095-.19-.283-.379-.378-.568-.472-.85-.944-1.7-1.321-2.646l-.567-1.7a10.808 10.808 0 01-.472-3.119c0-.567-.094-1.04-.094-1.606 0-.662 0-1.229.094-1.89h25.488c.095.566.095 1.228.095 1.89z" fill="#8B5F5C"/><path d="M602.743 64.637c-.094.189-.189.283-.283.472-.378.567-.85 1.229-1.227 1.796-.567.756-1.322 1.512-1.983 2.173 0 0-1.699.945-6.891.945s-6.891-.945-6.891-.945c-.661-.661-1.322-1.323-1.888-2.079-.472-.567-.85-1.134-1.322-1.7-.094-.19-.283-.379-.377-.568h20.862v-.094z" fill="#BC8584"/><path d="M605.104 55.66c0 .567 0 1.039-.095 1.606-.094 1.04-.283 2.079-.472 3.024-.189.567-.283 1.134-.566 1.7-.378 1.135-.944 2.174-1.605 3.12-.378.566-.85 1.228-1.227 1.795-.567.756-1.322 1.512-1.983 2.173 0 0-1.699.945-6.891.945s-6.891-.945-6.891-.945c8.685-3.496 10.384-11.34 10.667-15.403h8.968c.095.662.095 1.323.095 1.985z" fill="#F1F1F2"/><path d="M129.374 45.58c2.91-12.074-4.51-24.224-16.572-27.137-12.062-2.913-24.199 4.514-27.109 16.59-2.91 12.074 4.51 24.224 16.572 27.136 12.062 2.913 24.199-4.514 27.109-16.589z" fill="#fff"/><path d="M132.915 40.35c0-14.08-11.422-25.42-25.393-25.42-14.066-.094-25.394 11.34-25.394 25.42 0 14.081 11.422 25.42 25.394 25.42 13.971 0 25.393-11.433 25.393-25.42zm-2.926 0c0 12.38-10.101 22.491-22.467 22.491-12.367 0-22.468-10.111-22.468-22.49 0-12.38 10.101-22.49 22.468-22.49 12.366 0 22.467 10.016 22.467 22.49z" fill="#59595B"/><path d="M107.521 59.156c-.66 0-1.132.473-1.132 1.134v2.362c0 .662.472 1.134 1.132 1.134.661 0 1.133-.472 1.133-1.134V60.29c0-.567-.566-1.134-1.133-1.134zm0-43.186c-.66 0-1.132.473-1.132 1.134v2.363c0 .661.472 1.134 1.132 1.134.661 0 1.133-.473 1.133-1.134v-2.363c0-.661-.566-1.134-1.133-1.134zm19.258 23.908c0 .662.472 1.134 1.133 1.134h2.36c.661 0 1.133-.472 1.133-1.134 0-.661-.472-1.134-1.133-1.134h-2.36c-.661 0-1.133.473-1.133 1.134zm-43.235 0c0 .662.472 1.134 1.133 1.134h2.36c.66 0 1.132-.472 1.132-1.134 0-.661-.471-1.134-1.132-1.134h-2.36c-.567 0-1.133.473-1.133 1.134zm23.978-.283c-.094 0-.283 0-.378.094l-9.345 6.143c-.378.189-.472.661-.189 1.04.189.377.66.472 1.038.188l8.213-5.386v15.025c0 .378.283.756.755.756a.745.745 0 00.756-.756V40.351c0-.284-.189-.473-.378-.662-.283-.094-.378-.094-.472-.094z" fill="#59595B"/><path d="M107.522 43.28a2.942 2.942 0 01-2.926-2.93 2.942 2.942 0 012.926-2.929 2.943 2.943 0 012.927 2.93 2.943 2.943 0 01-2.927 2.93z" fill="#59595B"/><path d="M262.904 37.327h-53.43v30.712h53.43V37.327z" fill="#DDD8CC"/><path d="M259.978 40.256v24.948h-47.672V40.256h47.672zm5.758-5.764h-59.094v36.476h59.094V34.492z" fill="#fff"/><path d="M269.134 31.09h-65.891v43.28h65.891V31.09zm-62.587 39.878V34.492h59.095v36.476h-59.095z" fill="#948478"/><path d="M273.382 87.789H246.95v26.649h26.432V87.789z" fill="#DDD8CC"/><path d="M270.456 90.624v20.884h-20.674V90.624h20.674zm5.758-5.67h-32.096v32.413h32.096V84.954z" fill="#fff"/><path d="M279.613 81.552H240.72v39.217h38.893V81.552zm-35.495 35.815V84.954h32.096v32.413h-32.096z" fill="#948478"/><path d="M226.56 87.789h-26.432v26.649h26.432V87.789z" fill="#DDD8CC"/><path d="M223.633 90.624v20.884H202.96V90.624h20.673zm5.759-5.67h-32.096v32.413h32.096V84.954z" fill="#fff"/><path d="M232.79 81.552h-38.893v39.217h38.893V81.552zm-35.494 35.815V84.954h32.096v32.413h-32.096z" fill="#948478"/><path opacity=".8" d="M681.757 401.24S534.965 432.425 354 432.425 26.243 401.24 26.243 401.24 173.035 370.056 354 370.056s327.757 31.184 327.757 31.184zm-106.2-52.73s-72.028 15.592-160.953 15.592c-88.924 0-177.849-15.592-177.849-15.592s89.019-15.592 177.849-15.592c88.831 0 160.953 15.592 160.953 15.592z" fill="#776AEB" fill-opacity=".53"/><path d="M378.544 347.187h3.115l3.21-151.103h-3.21l-3.115 151.103zm-55.602-4.819l3.021.756 33.04-147.04-3.021-.661-33.04 146.945zm120.833 0l-3.021.756-33.04-147.04 3.021-.661 33.04 146.945z" fill="#656466"/><path d="M310.859 194.194h143.583l2.643-171.23H313.503l-2.644 171.23z" fill="#A1C6BF"/><path d="M322.188 183.043h119.888l2.171-155.26H324.453l-2.265 155.26z" fill="#fff"/><path d="M307.178 198.447h151.04l.377-4.914H307.272l-.094 4.914zm2.926-169.909h150.38l.472-10.3H310.293l-.189 10.3z" fill="#7D8183"/><path d="M322.188 26.648h126.307l.472-8.41H322.282l-.094 8.41z" fill="#fff"/><path d="M308.027 194.194H451.61l2.643-171.23H310.765l-2.738 171.23z" fill="#CAE5E0"/><path d="M319.355 180.208h119.888l2.266-152.425H321.621l-2.266 152.425z" fill="#fff"/><path d="M304.44 198.447h151.04l.284-4.914H304.535l-.095 4.914zm2.927-169.909h150.285l.566-10.3H307.462l-.095 10.3z" fill="#9FA4A6"/><path d="M319.355 26.648h126.402l.378-8.41H319.45l-.095 8.41z" fill="#fff"/><path d="M433.391 160.647h-101.48V34.964h1.888v123.793h99.592v1.89zM396.669 34.964h-56.357v3.78h56.357v-3.78z" fill="#CFD0D3"/><path d="M377.978 41.39h-37.666v3.78h37.666v-3.78zm-9.534 6.332h-28.132v3.78h28.132v-3.78zm17.086 6.426h-45.218v3.78h45.218v-3.78zm-4.342 6.331h-40.876v3.78h40.876v-3.78zm36.343 72.386l7.175 9.828c1.982-1.701 3.587-3.875 4.531-6.332l-11.706-3.496zm6.043-14.175l-6.986 11.907 13.122 3.969c.283-1.134.377-2.268.377-3.402 0-5.198-2.549-9.734-6.513-12.474zm-8.78 13.513l-13.499 4.631a14.99 14.99 0 0013.877 9.26c2.926 0 5.664-.85 8.024-2.362l-8.402-11.529zm-.283-1.89l7.458-12.568a15.001 15.001 0 00-6.797-1.607c-8.307 0-15.01 6.71-15.01 15.026 0 1.323.189 2.646.567 3.874l13.782-4.725z" fill="#CFD0D3"/><path d="M340.312 131.447l10.573-15.876 23.695-3.212 30.302-18.239 18.502-24.664" stroke="#CFD0D3" stroke-width="2" stroke-miterlimit="10"/><path d="M342.2 128.329c1.416.85 1.888 2.551 1.039 3.969-.85 1.417-2.549 1.89-3.965 1.039-1.416-.85-1.888-2.551-1.038-3.969.755-1.417 2.548-1.89 3.964-1.039zm10.384-15.025c1.416.85 1.888 2.551 1.039 3.968-.85 1.418-2.549 1.89-3.965 1.04-1.416-.851-1.888-2.552-1.039-3.969.756-1.417 2.549-1.89 3.965-1.039zm24.072-3.686c1.416.851 1.888 2.552 1.039 3.969-.85 1.417-2.549 1.89-3.965 1.039-1.416-.85-1.888-2.551-1.038-3.968.755-1.418 2.548-1.89 3.964-1.04zm28.981-17.577c1.416.85 1.888 2.552 1.038 3.97-.849 1.417-2.548 1.89-3.964 1.039-1.416-.85-1.888-2.552-1.039-3.97.755-1.417 2.549-1.89 3.965-1.039zM424.8 66.905c1.416.85 1.888 2.551 1.038 3.969-.849 1.417-2.548 1.89-3.964 1.04-1.416-.851-1.888-2.552-1.039-3.97.755-1.323 2.549-1.795 3.965-1.04z" fill="#9FA4A6"/><path d="M463.787 331.122l-.472 3.308s-8.118 4.063-9.44 4.063c-1.322 0-17.275-3.024-15.01 12.096l39.554-1.323-.85-18.616-13.782.472zm27.942 16.065v3.685s15.388 5.198 22.751-1.323c0 0 .094-1.322-.283-3.212a16.518 16.518 0 00-5.287-9.356l-1.416-8.221-11.611 2.929v4.725s-3.682 8.505-4.059 10.584c0 0-.095.095-.095.189z" fill="#434244"/><path d="M504.379 191.643l5.57 139.857-16.426 1.418-14.254-113.682v113.682h-18.314l-4.814-140.708 48.238-.567zm-12.65 155.544v3.685s15.388 5.198 22.751-1.323c0 0 .094-1.322-.283-3.212-10.29 5.48-21.712.85-22.468.567.095.094 0 .189 0 .283zm-13.31 2.079l-.283-3.685-39.459 1.795.189 3.213 39.553-1.323z" fill="#383838"/><path d="M407.431 166.412s31.529 7.654 35.966 5.292c4.342-2.268 16.048-21.735 16.048-21.735l-8.779-11.34-13.971 21.829-28.226-1.228" fill="#E5B7AC"/><path d="M407.525 166.506s-6.892-.85-10.007-1.795c-2.077-.756-6.891-3.497-8.401-5.103-1.039-.378-2.644-6.71-2.36-7.749 0-1.04.944-1.323 1.888.094 1.888 2.93 2.454 4.725 2.454 4.725l5.003 3.78s-3.587 1.04-4.153.095c-.567-.945-1.228-8.6-.472-9.45.66-.851 2.643.283 2.737 2.079 0 0 .095-1.796.755-2.079.661-.284 1.322.094 1.7 2.457 0 0 .66-1.323 1.416-1.229 1.604.378 1.699 5.387 1.982 5.765.283.378 6.608-1.89 9.534 3.402 3.021 5.386-2.076 5.008-2.076 5.008z" fill="#E5B7AC"/><path d="M394.214 153.182a15.238 15.238 0 000 2.929c.095.945.189 1.985.567 2.93-.095-1.89-.189-3.875-.567-5.859zm2.455.378c-.094.85 0 1.606.094 2.457.189.756.284 1.606.661 2.362-.189-1.606-.283-3.213-.755-4.819z" fill="#CA7E86"/><path d="M478.042 124.643s-28.509 47.25-32.757 49.139c-4.248 1.796-37.949-1.7-37.949-1.7l1.038-14.27 27.943-.661 14.537-36.193s14.255-9.733 27.188 3.685z" fill="#475777"/><path opacity=".4" d="M436.128 157.434l3.304-7.371c-.944 3.78-.85 4.631.944 5.292 5.381 2.079 5.475 8.694 5.57 14.364-2.644-9.072-5.853-12.757-9.818-12.285z" fill="#D0D1D3"/><path d="M514.574 221.599l-8.024.661-2.549.189-20.957 1.04-4.531-13.608-2.549 13.135-26.998-.189.472-9.355 2.926-62.086-1.982-27.877-.095-1.417-.188-2.741s12.744-10.111 28.414-12.946c23.317 1.701 34.456 12.568 34.456 12.568s-.189 2.457-.661 6.615a781.842 781.842 0 01-4.059 31.657c0 .284-.189.851-.189 1.512-.094.851 0 1.985 0 3.308v.094c0 .851.095 1.796.189 2.835v.095c1.227 22.207 6.325 56.51 6.325 56.51z" fill="#475777"/><path opacity=".4" d="M449.344 213.472l2.926-62.086-1.982-27.877-.095-1.512 3.871 23.152.566 25.515-5.286 42.808z" fill="#D0D1D3"/><path d="M537.042 117.367c.094-.284-.095-11.623-.095-11.623l9.535-.662.283 12.568-9.723-.283z" fill="#E5B7AC"/><path d="M548.087 106.689s1.416-2.552 1.321-5.009c-.283-2.362-1.038-3.874-1.038-3.874l-12.744-2.835s-1.322 7.938-1.133 8.127c.189.189 4.059 5.764 4.059 5.764s6.042.851 9.535-2.173z" fill="#DCA79E"/><path d="M535.248 98.656l-.661 3.497s-3.02-.756-4.153-1.89c-1.794-1.701-5.003-.473-4.72.378.283.85 9.157 8.316 14.443 8.41 0 0 1.888-1.795 1.038-4.347-.755-2.551-5.947-6.048-5.947-6.048z" fill="#DCA79E"/><path d="M541.195 104.704c.189.662.283 1.323.189 1.89-.189 1.512-1.227 2.457-1.227 2.457-4.248-.094-10.951-5.008-13.499-7.371-.472-.378-.756-.756-.944-.945 0-.094-.095-.094-.095-.189-.283-.85 2.927-2.079 4.72-.378 1.133 1.134 4.154 1.89 4.154 1.89l.661-3.496c.094.094 5.286 3.591 6.041 6.142z" fill="#DCA79E"/><path d="M541.384 106.594c.661 2.174-1.227 2.457-1.227 2.457-4.248-.094-10.95-5.008-13.499-7.371-.472-.378-.755-.756-.944-.945.472-.378 1.321-.661 1.793-.756 1.322-.283 2.832 1.04 2.832 1.04s1.7 1.134 4.343 1.606c2.737.567 4.909 1.512 6.702 3.969zm-2.738-13.23c1.133-.189 2.172-.283 3.965.567 1.511 0 2.738.378 3.682 1.229 1.133.472 1.982 1.04 2.266 1.606.755 1.323.188 2.93-.567 4.631l-.094.094c-.095.095-.095.284-.189.378-.283.567-.944 1.512-1.605 1.701-.944.284-1.133-1.134-1.227-1.134 0 0-.661 1.323-1.51 1.512-.85.284-1.794-1.417-1.794-1.417s-.378 1.039-1.227 1.228c-.85.189-1.416-1.512-1.605-1.606" fill="#E5B7AC"/><path d="M538.647 95.916c.189 0 .283-.095.377-.095h.189c.567-5.386 1.133-12.474 0-12.284-1.605.188-2.926 6.614-3.587 11.15 0 .19-1.038 7.277-1.133 7.466.567.189 2.643.945 3.399-.473.472-.945.66-3.59.755-5.764z" fill="#E5B7AC"/><path d="M544.971 102.436c0-.661.188-1.323.283-1.984.189-.662.283-1.323.472-1.89 0 .661-.189 1.323-.283 1.984-.095.662-.189 1.229-.472 1.89zm-3.304.095c0-.945.094-1.796.189-2.74.094-.851.283-1.796.472-2.647 0 .945-.095 1.796-.189 2.74-.094.946-.189 1.796-.472 2.647z" fill="#CD9088"/><path d="M541.195 155.45c9.911-1.418 8.967-46.682 8.967-46.682l-15.953 1.606.283 27.972 6.703 17.104z" fill="#475777"/><path d="M541.195 155.45c-.283.094-.755.094-1.227.094-5.192-.283-21.052-5.953-31.058-9.639-5.003-1.889-8.496-3.212-8.496-3.212.566-18.711 6.891-24.098 6.891-24.098l31.813 17.388 2.077 19.467z" fill="#475777"/><path opacity=".4" d="M539.873 155.544c-5.192-.283-21.051-5.953-31.057-9.639l-.755-7.37 31.812 17.009zm-3.681-7.371s-2.832-8.504-1.605-14.552l-5.853-2.93c3.21 2.174 3.682 3.308 2.832 5.009-1.416 2.929-.66 5.764.944 8.41l3.682 4.063z" fill="#D0D1D3"/><path d="M477.381 151.103l.094 19.561.378 19.656.189 9.733.472 9.828.094-9.828.094-9.828-.094-19.561-.378-19.561-.283-9.828-.377-9.828-.189 9.828" fill="#3F4A6D"/><path d="M491.918 107.823l-.944 4.347s-.378 1.039-1.038 2.646c-2.077 5.48-7.175 17.86-11.989 23.53-5.003-10.49-6.703-18.711-7.269-22.964-.283-2.173.094-3.212.094-3.212s-.283-3.78-.283-4.631v-7.465l8.779 1.417 10.668-10.206s-.095.756-.189 1.985c-.095 1.7-.189 4.158 0 6.426.094 1.228.377 2.551.661 3.78.755 2.362 1.51 4.347 1.51 4.347z" fill="#E5B7AC"/><path opacity=".5" d="M490.597 103.381c-6.797 13.891-16.709 8.127-20.013 5.67v-6.898l8.779 1.417 10.573-10.395c-.094 1.701-.189 4.158 0 6.426.094 1.323.283 2.646.661 3.78z" fill="#CA7E86"/><path d="M491.446 114.816c-1.604 4.346-5.097 26.932-8.779 33.641-1.699 3.213-3.587 6.142-5.381 8.221a55.662 55.662 0 01-2.832-7.087c-3.209-9.639-3.398-32.98-3.87-37.043 6.042 4.441 13.782 4.63 20.862-5.954v8.222z" fill="#fff"/><path d="M471.056 123.131l7.646-7.559 8.213 8.693-1.039 2.741-7.174-9.544-6.797 9.166-.849-3.497z" fill="#D0D1D3"/><path d="M475.965 118.69c1.321-1.607 3.681-1.512 5.381-.189l-2.644 6.426c-1.416-1.985-2.265-4.064-2.737-6.237z" fill="#C53E5D"/><path d="M484.083 149.496c-1.699 3.213-4.814 6.804-6.608 8.883-1.133-2.362-3.776-6.52-4.625-8.883l4.72-26.554 2.076-.094 4.437 26.648z" fill="#C53E5D"/><path d="M491.54 106.311l-14.065 53.108 16.52-23.436-3.116-9.355 6.986-4.442-2.738-10.772-3.587-5.103zm-21.051 1.701c.283 15.97 3.021 33.452 6.703 50.651l-15.199-22.774 4.909-8.789-5.758-3.969 5.003-11.056 4.342-4.063z" fill="#3F4A6D"/><path d="M467.375 89.868s-2.644-6.804-7.08-5.292c-4.437 1.512.188 12.852 6.891 10.584l.189-5.292z" fill="#E5B7AC"/><path d="M464.26 85.71c-.378 12.285 4.531 22.018 12.838 22.302 8.307.283 16.803-9.072 17.181-21.357.377-12.285-6.042-22.49-14.349-22.68-5.57-.189-11.8 4.442-14.538 11.057-1.416 3.213-1.038 6.71-1.132 10.678z" fill="#E5B7AC"/><path d="M486.915 76.166s-8.779 5.008-11.139 3.118c-2.36-1.89-1.793-4.63-1.793-4.63s-11.423 6.237-15.104 2.268c-3.682-3.875 3.398-6.332 3.398-6.332s-3.776-1.606-2.549-7.087c1.322-6.52 10.856-5.764 13.971-4.82 0 0-.188-3.968 3.399-5.575 3.587-1.606 13.499 5.859 15.481 11.812 0 0 3.682-1.795 5.381 1.512 1.605 3.308-.944 6.426-.944 6.426s1.794.85 1.794 2.268c.094 2.646-2.549 4.82-2.549 10.867 0 0-3.682 1.702-3.587 6.804 0 0-2.549-8.599-.095-13.702 0 .19-5.475.756-5.664-2.93z" fill="#434244"/><path d="M492.863 94.404c4.625 1.228 7.835-3.497 8.212-7.182.189-1.795-.377-3.402-1.888-3.78-3.209-.85-5.192 2.363-6.136 4.347-.472.756-.188 6.615-.188 6.615z" fill="#E5B7AC"/><path d="M498.054 86.655c-3.115.284-4.626 3.213-4.72 3.307-.094.095 0 .284.094.378h.095c.094 0 .189-.094.189-.189 0 0 .566-1.134 1.699-1.984 1.133.567.755 2.457.755 2.457 0 .094.094.283.189.283h.094a.203.203 0 00.189-.189c0-.094.378-2.079-.755-2.929a4.533 4.533 0 012.077-.756h.094c.094 0 .283-.094.283-.284 0 0-.189-.094-.283-.094z" fill="#BE717E"/><path d="M462.277 77.678l2.077 12.946.661-14.742-2.738 1.796z" fill="#434244"/><path d="M485.972 91.947c0 .283.661.378 1.416.283.755-.094 1.322-.378 1.322-.567 0-.283-.661-.378-1.416-.283-.756 0-1.416.283-1.322.567zm-.189 1.512c0-.284.661-.378 1.416-.19.755.095 1.321.473 1.321.662 0 .284-.66.378-1.416.19-.849-.19-1.416-.473-1.321-.662zm-19.258-.662c0-.283-.661-.378-1.416-.283-.755.094-1.322.378-1.322.567 0 .283.661.378 1.416.283.755 0 1.322-.283 1.322-.567zm.188-1.417c0 .283-.661.378-1.416.189-.755-.095-1.321-.473-1.321-.662 0-.283.66-.378 1.416-.189.755.095 1.321.378 1.321.662zm8.119 4.914h-.095c-.377 0-1.321-.284-1.51-2.646-.283-3.875.283-6.048.283-6.142 0-.095.189-.19.283-.19.095 0 .189.19.189.284 0 0-.566 2.173-.283 5.953.094 1.607.566 2.174 1.038 2.174.567 0 1.511-1.04 1.794-2.74 0-.095.189-.19.283-.19.189 0 .189.19.189.284-.283 1.89-1.227 3.213-2.171 3.213zm.85 4.252c3.965.095 6.419-2.835 6.514-3.024a.289.289 0 000-.378c-.095-.094-.284-.094-.378 0 0 0-2.454 2.93-6.136 2.835-3.682-.094-5.381-3.118-5.381-3.118-.094-.095-.189-.19-.377-.095-.095.095-.189.19-.095.378.095.095 1.888 3.308 5.853 3.402z" fill="#BE717E"/><path d="M468.13 83.631c.849-.283 1.793-.189 2.832.378.377.189.849 0 1.038-.284.189-.377 0-.85-.283-1.039-1.416-.756-2.738-.85-4.059-.472-1.983.661-2.926 3.401-2.549 3.59 0 0 1.605-1.7 3.021-2.173zm18.502 2.929c.378-.094-.283-3.023-2.077-3.874-1.227-.567-2.549-.567-4.059 0-.378.094-.566.567-.472.945.094.378.566.567.944.472 1.133-.377 2.077-.377 2.926 0 1.228.568 2.644 2.552 2.738 2.458zM471.15 89.3c0 1.702-.377 3.025-.849 3.025s-.85-1.323-.85-3.024.378-3.024.85-3.024.849 1.418.849 3.024zm11.14 0c0 1.702-.378 3.025-.85 3.025s-.849-1.323-.849-3.024.377-3.024.849-3.024.85 1.418.85 3.024z" fill="#302E2F"/><path d="M385.341 244.845h-61.738c-2.171 0-3.682-1.984-3.21-4.063l11.234-49.139c.377-1.512 1.699-3.497 3.21-3.497l60.604-.85c4.437 0 4.815 3.78 4.343 5.859l-11.234 49.139c-.283 1.512-1.605 2.551-3.209 2.551z" fill="#656466"/><path d="M383.453 242.955h-61.738c-2.171 0-3.681-1.984-3.209-4.063l11.233-49.139c.378-1.512 1.699-2.552 3.21-2.552h61.737c2.172 0 3.682 1.985 3.21 4.064l-11.234 49.139c-.283 1.512-1.604 2.551-3.209 2.551z" fill="#807E82"/><path d="M384.491 238.892h-63.436l11.328-49.517h63.436l-11.328 49.517z" fill="#CFD0D3"/><path d="M390.344 243.711h-70.045v-4.63l69.478-.189c.378 0 .661.283.567.661v4.158z" fill="#8C8C8C"/><path d="M371.747 224.339H328.04l7.174-31.373h43.708l-7.175 31.373zm15.765-11.529H376.75l4.531-19.844h10.762l-4.531 19.844zm-2.643 11.529h-10.762l2.266-9.922h10.762l-2.266 9.922zm-15.576 9.639h-43.424l1.699-7.465h43.424l-1.699 7.465z" fill="#fff"/><path d="M121.964 393.019h-4.908l33.889-140.803h11.895l-40.876 140.803zm502.491 0h4.815l-33.796-140.803H583.58l40.875 140.803z" fill="#7F5E40"/><path d="M146.414 243.617h453.592c3.587 0 6.419 1.89 6.419 4.252 0 2.363-2.927 4.253-6.419 4.253H146.414c-3.588 0-6.42-1.89-6.42-4.253-.094-2.268 2.832-4.252 6.42-4.252z" fill="#B8996E"/><path d="M507.117 270.076l11.895 17.577 4.248 6.331 3.304 1.607 56.64 26.932 11.516-1.89-1.132-2.173-.472-.851-2.266-4.252-5.381-10.301-12.461-21.734c.095 0-55.696-18.239-65.891-11.246z" fill="#3F4A6D"/><path d="M527.224 292.851l-.566 2.74-15.765 53.581-2.832-.284-8.024-.85s3.115-69.551 7.174-77.867l13.028 14.742 6.985 7.938z" fill="#3F4A6D"/><path opacity=".6" d="M526.564 295.591l-15.765 53.486-2.832-.283 11.045-61.141.566-3.024 6.986 10.962z" fill="#D0D1D3"/><path opacity=".6" d="M526.564 295.591l56.64 26.932 9.912-4.914 3.776-1.89-5.947-2.457-70.8-28.444-.567-.189" fill="#D0D1D3"/><path d="M500.037 347.565s-.755 10.867-1.227 12.285c-.472 1.417-9.346 8.032-12.461 10.395-3.115 2.362-7.835 2.362-8.685 3.969-.85 1.606 1.133 3.78 6.797 3.78 5.569 0 9.723-4.725 14.065-5.009 4.343-.378 12.084 0 12.933-2.835.85-2.835-2.36-10.017-2.36-10.017l1.699-10.961-10.761-1.607z" fill="#E5B7AC"/><path d="M512.12 370.717l-2.548 11.151-1.888-.378 1.416-11.34 3.02.567z" fill="#E6E6E7"/><path d="M475.776 377.238c4.531 3.024 15.293 4.725 20.202 1.606 6.608-4.158 9.534-4.819 16.142-8.127.661-4.063.283-6.52-2.36-9.072 0 0-8.401 7.466-13.688 6.521-3.398-.756-4.625-1.985-4.625-1.985s-17.37 7.182-15.671 11.057z" fill="#E6E6E7"/><path d="M520.993 301.544c-4.059 18.333 11.517 77.111 11.517 77.111l12.272-1.417 3.115-71.63s-23.505-19.75-26.904-4.064z" fill="#3F4A6D"/><path d="M532.416 378.655s1.983 10.678 1.983 12.19c-.095 1.512-6.986 10.112-9.44 13.136-2.455 3.024-6.986 4.252-7.364 6.047-.377 1.701 2.077 3.308 7.458 1.89 5.475-1.417 8.213-6.992 12.272-8.41 4.059-1.417 11.706-3.024 11.8-5.953.094-2.93-3.398-9.923-3.398-9.923l-1.039-10.394-12.272 1.417z" fill="#E5B7AC"/><path d="M549.975 398.027l.377 11.434-1.982.095-1.511-11.34 3.116-.189z" fill="#E6E6E7"/><path d="M516.463 413.43c5.097 1.796 16.048.662 20.012-3.591 5.287-5.669 8.024-6.992 13.594-12.001.944-4.252-.944-8.599-4.154-10.395 0 0-6.702 11.624-11.988 12.002-3.493.094-4.909-.756-4.909-.756s-15.104 11.528-12.555 14.741z" fill="#E6E6E7"/><path d="M570.46 190.131c.377.094.755.189 1.132.189 5.004-.189 10.384-2.268 14.727-4.347 5.475-2.646 9.44-5.576 9.44-5.576 6.797-8.126 5.758-18.899 5.758-18.899-2.077-16.915-15.293-17.482-15.293-17.482-6.041-.945-15.764 2.457-20.579 9.166-1.982 2.551-6.702 34.397 4.815 36.949z" fill="#E5B7AC"/><path opacity=".5" d="M570.459 190.131c.378.094.755.189 1.133.189 5.003-.189 10.384-2.268 14.726-4.347l-3.87-4.064c0-.094-5.098 5.765-11.989 8.222z" fill="#CA7E86"/><path d="M564.89 172.554c0-.283-.755-.472-1.605-.472s-1.605.283-1.51.567c0 .283.755.472 1.604.472.85 0 1.511-.283 1.511-.567zm.283-1.701c-.094.284-.85.378-1.699.095-.85-.189-1.511-.567-1.416-.851.094-.283.849-.378 1.699-.094.85.189 1.51.567 1.416.85z" fill="#CA7E86"/><path d="M580.088 197.218s-6.325 13.513 3.115 12.757c9.44-.756 15.67-15.497 15.67-15.497l-2.36-15.026s-16.142.756-16.142 2.363l-.283 15.403z" fill="#E5B7AC"/><path d="M617.659 245.318c0 .945-.094 1.417-.094 1.417-3.682 14.931 0 42.525 0 42.525-1.039 1.133-42.575 2.362-53.619-10.962-.284-.378-.567-.662-.756-1.04 0-.094 4.343-6.331 6.986-15.592 1.322-4.725 2.266-10.3 1.888-16.254-4.531-2.74-7.552-6.331-9.44-10.206-7.269-14.363-.283-33.546-.283-33.546s5.664-6.804 16.425-9.167c6.325-.85 16.709-1.89 21.052-1.134 22.939 3.78 15.292 28.917 15.292 28.917s2.832 18.049 2.549 25.042z" fill="#C53E5D"/><path d="M574.613 151.67s2.926-18.616 23.694-10.962c8.496 4.252 13.499 12.663 11.045 29.673-2.455 17.009 5.475 19.655 9.062 26.27 3.587 6.615-5.664 17.199-14.726 8.883-10.667 5.859-21.146-5.103-21.146-5.103s-.189 1.418 2.643 7.843c0 0-18.408-.85-10.195-18.71 3.776-13.325.567-28.633.567-28.633l-.944-9.261z" fill="#434244"/><path d="M591.605 163.199s-5.758-1.04-6.608-9.734c0 0-1.605 17.199-10.289 15.215 0 0-3.588-5.576-2.738-13.986 0 0-3.965 10.017-14.066 6.615 0 0 3.304-.378 4.909-6.899 1.511-6.52 3.587-12.473 11.139-15.97 14.632-6.898 21.146 2.268 21.146 2.268l-3.493 22.491z" fill="#434244"/><path d="M574.613 168.207l.661 6.426c4.626 1.417 7.741-4.252 7.93-8.694.094-2.268-.567-4.158-2.077-4.63-3.21-1.04-5.192 2.835-6.042 5.197a42.777 42.777 0 00-.472 1.701z" fill="#E5B7AC"/><path d="M579.617 164.427c-3.21 1.985-3.305 6.048-3.305 6.237 0 .189.095.284.284.284.094 0 .094 0 .189-.095.094-.094.188-.189.188-.283 0 0 0-1.512.756-3.119 1.604 0 2.171 2.268 2.171 2.268 0 .189.189.284.377.189h.095c.094-.094.189-.189.094-.378 0-.094-.661-2.457-2.454-2.74.377-.662 1.038-1.418 1.793-1.89 0 0 .095 0 .095-.095.189-.094.189-.283.094-.472 0 0-.189 0-.377.094z" fill="#CA7E86"/><path d="M577.917 174.255c0 1.039-.661 1.89-1.51 1.89-.85 0-1.511-.851-1.511-1.89 0-1.04.661-1.89 1.511-1.89.944 0 1.51.85 1.51 1.89z" fill="#fff"/><path d="M519.483 210.542s3.493-3.591 8.78-2.929c0 0 4.436 8.883 10.667 20.223 2.549 4.725 5.475 9.827 8.496 14.93.377.662.849 1.418 1.227 2.079 2.454 4.064.85 15.026-2.266 17.01-1.227.85-3.964.472-7.08-2.457-6.513-6.615-14.065-29.672-19.824-48.856z" fill="#E5B7AC"/><path d="M517.029 190.036c-.283 3.591-.661 7.371.094 13.324l14.632 3.213-14.726-16.537z" fill="#DCA79E"/><path d="M555.262 216.496l1.51 5.292-27.565 1.795-15.198-40.918 33.701-2.173 12.272 36.382-4.72-.378z" fill="#fff"/><path d="M547.332 188.052l-18.786 1.228c-.188 0-.283-.094-.377-.283-.095-.095 0-.284.189-.284l18.785-1.228c.189 0 .283.094.378.283.094.189 0 .284-.189.284zm.567 1.606l-18.786 1.229c-.189 0-.283-.095-.378-.284-.094-.094 0-.283.189-.283l18.786-1.229c.189 0 .283.095.377.284 0 .094 0 .283-.188.283zm.566 1.512l-18.786 1.229c-.189 0-.283-.095-.377-.284-.095-.189 0-.283.188-.283l18.786-1.229c.189 0 .283.095.378.284 0 .189-.095.283-.189.283zm-9.063 2.174l-9.251.567c-.189 0-.283-.095-.378-.284-.094-.189 0-.283.189-.283l9.251-.567c.189 0 .284.094.378.283 0 .189 0 .284-.189.284zm-12.177 1.039l-5.287.378a.52.52 0 01-.472-.283l-1.793-5.198c-.095-.189 0-.283.189-.283l5.286-.378c.189 0 .378.094.472.283l.283.756c.095.189 0 .284-.189.284a.521.521 0 01-.472-.284l-.188-.472-4.626.283 1.605 4.536 4.625-.283-.755-1.985c-.094-.189 0-.283.189-.283s.378.094.472.283l.85 2.363c.094.189 0 .283-.189.283z" fill="#CFD1D2"/><path d="M524.11 193.533c-.095 0-.189 0-.284-.095l-1.982-1.606c-.189-.095-.189-.284-.094-.378.094-.095.283-.095.472 0l1.699 1.323 2.454-3.024c.095-.095.283-.095.472 0 .189.094.189.283.095.378l-2.644 3.213c-.094.189-.094.189-.188.189z" fill="#6CB476"/><path d="M550.164 195.99l-18.785 1.228c-.189 0-.284-.094-.378-.283-.095-.095 0-.284.189-.284l18.785-1.228c.189 0 .284.094.378.283 0 .095-.095.284-.189.284zm.567 1.512l-18.786 1.228c-.189 0-.283-.094-.378-.283-.094-.095 0-.284.189-.284l18.786-1.228c.189 0 .283.094.377.283 0 .189-.094.284-.188.284zm.471 1.512l-18.785 1.228c-.189 0-.284-.094-.378-.283-.094-.095 0-.284.189-.284l18.785-1.228c.189 0 .284.094.378.283.094.189 0 .284-.189.284zm-9.062 2.173l-9.251.567c-.189 0-.283-.095-.377-.284-.095-.094 0-.283.188-.283l9.252-.567c.188 0 .283.094.377.283.095.189 0 .284-.189.284zm-12.083 1.134l-5.287.378a.521.521 0 01-.472-.284l-1.793-5.197c-.095-.189 0-.283.189-.283l5.286-.378c.189 0 .378.094.472.283l.283.756c.094.189 0 .284-.189.284a.521.521 0 01-.472-.284l-.188-.472-4.626.283 1.605 4.536 4.625-.284-.755-1.984c-.094-.189 0-.283.189-.283s.377.094.472.283l.85 2.362c.094.095-.001.284-.189.284z" fill="#CFD1D2"/><path d="M526.942 201.376c-.095 0-.095 0 0 0-.095 0-.189 0-.284-.094l-1.982-1.607c-.189-.094-.189-.283-.094-.378.094-.094.283-.094.472 0l1.699 1.323 2.454-3.024c.094-.094.283-.094.472 0 .189.095.189.284.095.378l-2.644 3.213c-.094.189-.188.189-.188.189z" fill="#6CB476"/><path d="M552.901 203.833l-18.785 1.228c-.189 0-.283-.094-.378-.283-.094-.095 0-.284.189-.284l18.786-1.228c.188 0 .283.094.377.283.095.189 0 .284-.189.284zm.567 1.512l-18.786 1.228c-.189 0-.283-.094-.377-.283-.095-.095 0-.284.188-.284l18.786-1.228c.189 0 .283.094.378.283.094.189 0 .284-.189.284zm.566 1.606l-18.785 1.229c-.189 0-.284-.095-.378-.284-.094-.094 0-.283.189-.283l18.785-1.229c.189 0 .284.095.378.284 0 .094 0 .283-.189.283zm-9.062 2.174l-9.251.567c-.189 0-.283-.095-.377-.284-.095-.094 0-.283.188-.283l9.252-.567c.188 0 .283.094.377.283.095.095 0 .284-.189.284zm-12.083 1.039l-5.287.378a.52.52 0 01-.472-.283l-1.793-5.198c-.095-.189 0-.283.189-.283l5.286-.378c.189 0 .378.094.472.283l.283.756c.095.189 0 .284-.189.284a.521.521 0 01-.472-.284l-.188-.472-4.626.283 1.605 4.536 4.625-.283-.755-1.985c-.094-.189 0-.283.189-.283s.378.094.472.283l.85 2.363c.094.189 0 .283-.189.283z" fill="#CFD1D2"/><path d="M529.679 209.314c-.095 0-.189 0-.283-.095l-1.983-1.606c-.189-.095-.189-.284-.094-.378.094-.095.283-.095.472 0l1.699 1.323 2.454-3.024c.095-.095.284-.095.472 0 .189.094.189.283.095.378l-2.643 3.213c0 .094-.095.189-.189.189z" fill="#6CB476"/><path d="M555.733 211.676l-18.785 1.229c-.189 0-.283-.095-.378-.284-.094-.094 0-.283.189-.283l18.786-1.229c.188 0 .283.095.377.284 0 .189-.094.283-.189.283zm.567 1.607l-18.786 1.228c-.189 0-.283-.094-.377-.283-.095-.095 0-.284.188-.284l18.786-1.228c.189 0 .283.094.378.283 0 .095-.095.284-.189.284zm.471 1.512l-18.785 1.228c-.189 0-.283-.094-.378-.283-.094-.189 0-.284.189-.284l18.786-1.228c.188 0 .283.094.377.283.095.189 0 .284-.189.284zm-8.967 2.173l-9.252.567c-.188 0-.283-.094-.377-.283-.095-.095 0-.284.189-.284l9.251-.567c.189 0 .283.095.377.284 0 .189-.094.283-.188.283zm-12.178 1.134l-5.286.378a.518.518 0 01-.472-.283l-1.794-5.198c-.094-.189 0-.283.189-.283l5.286-.378c.189 0 .378.094.472.283l.284.756c.094.189 0 .284-.189.284a.519.519 0 01-.472-.284l-.189-.472-4.626.283 1.605 4.536 4.626-.283-.755-1.985c-.095-.189 0-.283.188-.283.189 0 .378.094.472.283l.85 2.363c.094.094 0 .189-.189.283z" fill="#CFD1D2"/><path d="M532.511 217.157s-.095 0 0 0c-.095 0-.189 0-.283-.094l-1.983-1.607c-.189-.094-.189-.283-.094-.378.094-.094.283-.094.472 0l1.699 1.323 2.454-3.024c.095-.094.284-.094.472 0 .189.095.189.284.095.378l-2.643 3.213c-.095.189-.189.189-.189.189z" fill="#6CB476"/><path d="M556.772 221.788l3.21-4.914-4.72-.378 1.51 5.292z" fill="#BABCBE"/><path d="M520.239 211.015s-7.269-6.237-7.175-11.056c.284-1.89 4.815-3.686 6.892-5.009 1.888.095 1.227 4.158-1.605 5.292 0 0 7.174 1.796 4.909 10.395-1.511 5.103-3.021.378-3.021.378z" fill="#E5B7AC"/><path d="M577.068 215.551c-.189.85-.661 2.079-1.416 3.591v.094c-3.021 6.237-9.912 17.388-16.237 26.743-5.381 7.938-10.384 14.553-12.367 15.781-.188.095-.283.189-.377.189-1.039.189-2.36-.944-3.399-2.834v-.095c-2.737-4.63-4.72-13.702-1.038-19.656l20.296-37.61c-.283.095 15.954 6.898 14.538 13.797z" fill="#C53E5D"/><path opacity=".7" d="M575.557 219.236c-3.021 6.237-9.912 17.388-16.237 26.743-5.381 7.938-10.384 14.553-12.366 15.781-.189.095-.283.189-.378.189-1.038.189-2.36-.945-3.398-2.834v-.095l32.379-39.784z" fill="#D0D1D3"/><path d="M591.49 403.766h10.101v-81.363H591.49v81.363z" fill="#363734"/><path d="M559.603 314.396v-.189l-20.673.189c0 6.426 3.209 10.017 10.006 10.017h81.939c9.063 0 12.839-4.819 14.915-10.017h-86.187z" fill="#6D6E70"/><path d="M620.208 404.264s-1.51-6.615-9.817-6.615h-27.187c-4.532 0-8.968 2.552-10.29 6.615h47.294z" fill="#363734"/><path d="M636.35 314.396s-3.115-9.733-20.201-9.733h-60.605c-9.44 0-13.782 3.78-16.614 9.733h97.42z" fill="#59595B"/><path d="M645.79 314.396s23.506-82.025 26.621-93.459c3.115-11.529 1.888-23.057-16.237-23.057h-48.049c-9.723 0-17.37 4.347-20.485 15.875-3.115 11.529-25.016 100.641-25.016 100.641h83.166z" fill="#6D6E70"/><path d="M645.791 314.396s23.694-82.686 26.526-93.081c2.832-10.395-.094-16.537-16.426-16.537h-42.102c-8.779 0-15.67 3.969-18.503 14.269-2.832 10.395-23.316 95.349-23.316 95.349h73.821z" fill="#808183"/><path d="M140.562 366.37s-1.039 11.624-1.227 13.23c-.189 1.607-2.549 10.867-1.039 12.568 1.511 1.607 10.667 3.308 13.688 1.985 3.021-1.323 6.891-5.103 5.947-6.993-.944-1.89-7.08-7.749-7.835-9.261-.755-1.606.567-14.647.567-14.647l-10.101 3.118z" fill="#E5B7AC"/><path d="M178.039 392.641h-41.631l1.794-9.356s5.381 1.04 8.968-.661c3.587-1.228 5.381-4.914 5.381-4.914s6.891 3.024 13.593 5.764c6.231 2.646 13.216 4.914 11.895 9.167z" fill="#434244"/><path d="M136.388 395.902l41.819-.012-.001-3.78-41.819.012.001 3.78z" fill="#434244"/><path d="M89.397 273.1c3.776 14.742 49.088 35.721 49.088 35.721l-2.832 74.842c6.514 2.552 17.653-1.795 23.034-5.292 0 0 8.873-71.251 6.702-76.165-1.322-5.292-32.002-25.798-34.173-27.688l-8.873-5.576-27.848-17.482s-6.42 16.254-5.098 21.64z" fill="#383838"/><path d="M233.451 397.366H191.82l1.794-9.356s5.381 1.04 8.968-.661c3.587-1.229 5.381-4.914 5.381-4.914s6.891 3.024 13.593 5.764c6.231 2.552 13.216 4.914 11.895 9.167z" fill="#434244"/><path d="M191.727 400.583l41.819-.012-.001-3.78-41.819.012.001 3.78z" fill="#434244"/><path d="M214.099 383.002c-3.21 2.079-8.59 4.536-13.688 5.575-1.51.284-3.021.473-4.531.473-1.699 0-3.399-.189-4.815-.756l4.154-89.112.094-1.701 6.986-3.875 19.352-10.772.472-.284c2.077 4.82-8.024 100.452-8.024 100.452z" fill="#383838"/><path opacity=".4" d="M204.281 293.795l-3.87 94.782c-1.51.284-3.021.473-4.531.473-1.699 0-3.399-.189-4.815-.756l4.154-89.112-64.192-5.481-3.493-6.048 74.671 5.953 2.076.189z" fill="#D0D1D3"/><path d="M222.029 283.495l-17.748 10.3-1.888 1.134-5.758 4.442-1.416-.095-64.192-5.481-3.682-.283-19.824-6.804 8.685 2.741.85-.567 4.153-3.024 10.007-7.371 22.278-12.569s57.49 1.796 68.157 17.105c.094 0 .189.283.378.472z" fill="#383838"/><path d="M160.48 170.948s-6.797.472-13.499-.378c-3.965-.473-7.835-1.418-10.29-3.119-5.38-3.685-10.478-10.3-10.478-10.3-6.797-9.072-4.437-16.726-4.437-16.726 3.21-17.861 17.464-17.672 17.464-17.672 19.069-1.89 22.656 14.175 22.656 14.175s1.322 33.264-1.416 34.02z" fill="#C58F80"/><path opacity=".3" d="M160.481 170.948s-6.797.472-13.5-.378l1.888-8.978c-.094 0 2.36 6.993 11.612 9.356z" fill="#C58F80"/><path d="M150.758 147.512l-.661 6.426c-5.664 1.323-9.44-4.442-9.818-8.883-.189-2.268.567-4.158 2.36-4.63 3.871-.945 6.325 2.929 7.363 5.386.472.945.756 1.701.756 1.701z" fill="#C58F80"/><path opacity=".3" d="M150.002 153.843c-5.664 1.323-9.44-4.441-9.818-8.883-.188-2.267.567-4.157 2.36-4.63 3.871-.945 6.325 2.93 7.364 5.386.188.378-2.266-4.157-4.72-4.535-1.039-.189-3.399 0-3.493 1.512-.661 10.205 8.307 11.15 8.307 11.15z" fill="#C58F80"/><path d="M143.866 144.299c3.776.378 5.569 3.969 5.664 4.158.094.189 0 .378-.189.378h-.189c-.094 0-.189-.095-.283-.189 0 0-.661-1.418-1.982-2.457-1.416.756-.944 3.024-.944 3.024 0 .189-.095.378-.284.378h-.094c-.094 0-.283-.095-.283-.284 0-.094-.472-2.551 1.038-3.591a5.15 5.15 0 00-2.454-.944h-.095c-.188 0-.283-.189-.283-.378.095 0 .189-.095.378-.095zm16.425 6.615c0-.284.85-.473 1.699-.378.944.094 1.699.378 1.605.756 0 .283-.85.472-1.699.378-.85-.095-1.605-.473-1.605-.756zm-.188-1.796c.094.284.849.378 1.793.284.944-.189 1.605-.567 1.605-.851-.094-.283-.849-.378-1.793-.283-.944.189-1.7.567-1.605.85z" fill="#B56F61"/><path d="M145.66 176.05s3.304 14.742-6.797 13.419c-10.101-1.323-19.541-17.954-19.541-17.954s4.154-7.466 6.325-13.514c2.171-6.048 21.334 10.584 21.334 10.584l-1.321 7.465z" fill="#C58F80"/><path d="M193.897 162.726s-.849 2.457-2.171 6.332c-.661 1.984-1.51 4.347-2.454 6.898-5.759 15.876-15.293 40.445-18.88 40.445-7.835 0-15.482-9.639-15.482-9.639 5.192-8.788 14.915-25.892 21.335-37.515a671.191 671.191 0 013.304-6.048c1.132-2.079 2.076-3.78 2.548-4.725l9.44 3.307 2.36.945z" fill="#BC887D"/><path d="M151.984 189.186l2.926 24.475s-24.732 3.591-33.134 2.646c-8.402-.945-12.555-16.726-12.555-16.726s7.741-10.679 42.763-10.395z" fill="#B56F61"/><path d="M200.789 148.551c-.755 2.174-1.793 4.631-2.36 6.71-1.038 3.874-5.569 8.505-5.569 8.505-.378.189-1.228.378-2.172.472-3.492.473-9.44.473-9.912-1.228-2.171-2.079-3.02-7.182-3.87-11.529-.661-3.213-1.51-5.859-1.322-7.182.189-1.89 1.416-1.134 2.266-.378.85.756 2.926 5.481 2.926 5.481s-1.604-10.867-1.132-14.175c.472-3.307 2.36-2.079 2.643-1.134.283.945 1.793 12.569 1.888 11.813.094-.756 1.038-10.301 1.321-12.947.284-2.646 1.888-4.819 2.738-3.969.85.851.755 5.576.661 7.844-.095 2.268.094 7.749.377 9.355.095-.094 1.039-7.749 1.794-11.151.661-3.402 1.794-4.347 2.832-2.551 1.038 1.89-.283 10.867-.378 12.474-.094 2.267-.188 7.37-.188 7.37 2.643-6.803 7.268-10.489 8.118-8.315.378 1.039 0 2.646-.661 4.535z" fill="#BC887D"/><path d="M191.726 169.058c-.661 1.984-1.51 4.347-2.454 6.898-2.077-3.307-5.287-4.914-7.93-5.764-1.794-.567-3.493-.851-5.003-.851a671.191 671.191 0 013.304-6.048l2.832.567c3.587 1.134 6.797 2.835 9.251 5.198z" fill="#6D6E70"/><path d="M184.552 166.884c-.85 2.457-3.493 4.253-5.853 3.969-2.36-.283-3.587-2.646-2.643-5.103.849-2.457 3.493-4.252 5.853-3.969 2.36.378 3.587 2.646 2.643 5.103z" fill="#808183"/><path d="M182.852 166.412c-.66 1.795-2.548 3.118-4.342 2.929-1.699-.189-2.643-1.89-1.982-3.78.66-1.89 2.548-3.118 4.342-2.929 1.699.283 2.549 1.984 1.982 3.78z" fill="#CFD0D3"/><path d="M156.61 265.729c0 .095-1.51 2.741-3.21 4.253-12.838 11.245-54.752 3.591-55.601 2.457 0 0 5.475-29.295 2.36-45.548v-1.607c.094-7.56-8.496-28.538-8.874-29.956 0-.094 6.608-28.538 31.058-31.468 4.625-.567 15.953 1.229 24.733 4.725 7.929 3.213 15.198 12.852 15.198 12.852s-.661 25.798-6.797 39.973c-.566 10.3.283 41.768 1.133 44.319z" fill="#fff"/><path d="M245.157 227.269a84.49 84.49 0 01-6.042-1.985l-4.059 2.93s4.625-.756 5.758-.662c1.133.189 7.363 4.442 7.552 5.481.189 1.04-1.793 1.89-3.304.851.189.094 1.227 1.228 1.133 1.889-.189.662-.85.945-2.926-.189 0 0 .566 1.323.094 1.89-1.322 1.04-5.475-2.456-5.664-2.078-1.794 3.401-5.947 5.386-6.986 5.858-.188.095-.283.095-.283.095l-1.416-4.064-2.926-8.221c1.699-1.701 10.195-6.426 11.139-6.993.944-.567 8.024 1.985 8.59 2.93.378.85 2.644 2.646-.66 2.268z" fill="#C58F80"/><path d="M230.619 241.443c-7.363 2.457-14.254 4.82-20.39 6.899-17.37 5.859-29.548 9.828-32.38 10.962-.377.094-.566.189-.66.283-1.039-.661-2.455-2.362-3.965-4.914-.095-.094-.095-.189-.189-.283-1.227-2.079-2.454-4.536-3.87-7.466-1.983-4.252-3.965-9.166-5.853-14.458-3.304-9.072-6.136-18.9-7.552-26.932-1.039-5.67-1.227-10.395-.283-13.23.283-4.914 11.8-9.166 22.656 15.025 3.776 10.868 11.044 28.255 11.044 28.255 14.255-2.74 30.303-5.008 36.628-6.52l3.115 8.221 1.51 4.064.189.094z" fill="#C58F80"/><path d="M182.853 218.197l-22.562 9.828s-10.572-22.68-12.177-30.996c-1.605-8.316 12.366-16.821 12.366-16.821s12.461 4.347 22.373 37.989z" fill="#fff"/><path opacity=".3" d="M166.711 225.19c6.608 12.662 13.216 25.987 13.216 25.987 13.499-2.646 46.161-12.947 48.899-13.892.094 0 .189-.094.189-.094 8.024-.095 8.59-2.551 8.496-1.795-1.794 3.401-5.947 5.386-6.986 5.858l.095.189a232.581 232.581 0 00-20.391 6.899c-17.369 5.859-29.547 9.828-32.379 10.962-.378.094-.566.189-.661.283-1.416-1.228-2.737-2.929-3.965-4.914-.094-.094-.094-.189-.188-.283-1.322-2.174-2.644-4.725-3.871-7.466-2.077-4.63-3.965-9.733-5.853-14.458-.66-1.606-1.321-3.307-1.982-4.914" fill="#C58F80"/><path opacity=".7" d="M160.102 228.025c-3.681-9.167-7.741-18.144-8.307-24.854.094-.944 1.133.284 2.738 2.93 2.643 4.158 6.702 11.812 10.856 19.656" fill="#D0D1D3"/><path d="M122.153 310.805h-10.195v86.277h10.195v-86.277z" fill="#363734"/><path d="M154.25 302.678v-.189l20.768.189c0 6.521-3.21 10.112-10.101 10.112H82.506c-9.157 0-12.933-4.82-15.01-10.112h86.754z" fill="#6D6E70"/><path d="M93.267 400.201s1.51-6.615 9.817-6.615h27.376c4.626 0 8.968 2.551 10.384 6.615H93.267z" fill="#363734"/><path d="M77.03 302.678s3.115-9.827 20.296-9.827h60.983c9.44 0 13.876 3.779 16.708 9.827H77.03z" fill="#59595B"/><path d="M67.496 302.678s-23.694-82.497-26.81-94.026c-3.115-11.528-1.888-23.152 16.331-23.152h48.333c9.818 0 17.464 4.347 20.674 15.971 3.115 11.528 25.205 101.302 25.205 101.302H67.496v-.095z" fill="#6D6E70"/><path d="M67.496 302.678S43.612 219.425 40.78 209.03c-2.832-10.394.095-16.726 16.52-16.726h42.386c8.873 0 15.765 3.969 18.597 14.364 2.832 10.395 23.411 95.916 23.411 95.916H67.496v.094z" fill="#808183"/><path d="M297.831 377.805s-1.038 11.339-1.132 12.946c-.189 1.606-2.455 10.678-.944 12.285 1.51 1.606 10.384 3.213 13.404 1.89 2.927-1.323 6.797-5.009 5.759-6.804-.944-1.796-6.891-7.56-7.647-9.072-.755-1.512.472-14.364.472-14.364l-9.912 3.119z" fill="#E5B7AC"/><path d="M334.459 403.508h-40.781l1.699-9.166s5.286.945 8.779-.662c3.493-1.228 5.287-4.725 5.287-4.725s6.702 2.93 13.31 5.67c6.23 2.457 13.027 4.725 11.706 8.883z" fill="#fff"/><path d="M293.704 406.672l40.875-.011-.001-3.686-40.875.012.001 3.685z" fill="#E6E6E7"/><path d="M247.8 282.645c3.681 14.93 48.049 36.004 48.049 36.004l-.755 65.581 16.237 1.04s12.933-68.322 10.856-73.236c-1.322-5.387-31.247-25.987-33.418-27.972l-8.684-5.67-27.282-17.576s-6.419 16.442-5.003 21.829z" fill="#3F4A6D"/><path d="M377.411 292.189l-19.258 11.151-6.891 3.969h-3.871l-65.702-.756-19.352-.189 11.517-8.411.849-.567 4.06-2.929 9.817-7.182 21.712-14.647c0-.284 60.794 8.221 67.119 19.561z" fill="#475777"/><path d="M377.41 292.189c0 9.639-30.302 86.75-30.302 86.75l-11.989-6.332-2.832-1.512 15.104-63.786.661-2.835 10.29-4.253 19.068-8.032z" fill="#475777"/><path opacity=".4" d="M359.097 300.127l-.944 3.118-19.919 70.685-3.02-1.417-2.927-1.512 15.199-63.787-65.703-.756-7.08-9.261-2.549-3.401 6.608.472 79.674 5.764.661.095z" fill="#D0D1D3"/><path d="M344.748 377.616s-.472 1.323-.755 2.835c-.189 1.511 5.097 11.812 6.985 15.497 1.888 3.591 6.325 5.859 6.325 7.749 0 1.89-2.832 3.024-8.118.378-5.287-2.551-6.986-8.883-10.856-11.245-3.871-2.363-11.423-5.576-10.856-8.6.566-3.023 6.796-8.315 6.796-8.315l1.228-3.497 9.251 5.198z" fill="#E5B7AC"/><path d="M358.059 406.627l-34.456-21.83 6.324-6.803s3.965 3.685 7.741 4.157c3.587.851 6.986-1.228 6.986-1.228s4.059 6.048 8.213 11.907c3.964 5.481 8.496 10.962 5.192 13.797z" fill="#fff"/><path d="M321.983 387.497l34.527 21.904 1.971-3.113-34.528-21.904-1.97 3.113z" fill="#E6E6E7"/><path d="M310.387 183.988c-.378.095-.755.095-1.227.095-5.192-.473-10.668-2.93-15.199-5.387-5.569-3.118-9.629-6.331-9.629-6.331-6.608-8.883-4.908-20.128-4.908-20.128 3.115-17.482 17.086-17.293 17.086-17.293 6.325-.662 16.331 3.496 21.051 10.678 1.794 2.74 5.003 36.382-7.174 38.366z" fill="#E5B7AC"/><path opacity=".5" d="M310.387 183.988c-.377.095-.755.095-1.227.095-5.192-.473-10.667-2.93-15.198-5.387l4.342-4.063s5.098 6.331 12.083 9.355z" fill="#CA7E86"/><path d="M280.746 137.212c2.926-2.741 6.608-2.363 6.608-2.363 6.136-10.206 21.617-4.252 26.054-2.74 4.531 1.512 8.496-3.119 8.496-3.119 1.51 2.079 2.832 14.175-3.304 18.711-.378.472-6.042-1.229-6.042-1.229 1.416 1.796-.66 17.766-1.321 18.239-.85-1.229-4.909 0-3.682 1.701-12.083 18.521-23.128 5.859-23.128 5.859-6.608-8.883-14.632-24.665-3.681-35.059z" fill="#583C1C"/><path d="M309.915 159.513l1.51 6.143c-4.72 3.118-10.195-.945-11.989-5.009-.849-1.984-.849-3.969.661-5.008 3.304-2.174 6.797.661 8.591 2.457.755.85 1.227 1.417 1.227 1.417z" fill="#E5B7AC"/><path opacity=".5" d="M308.688 158.19s-3.021-2.173-6.136-1.512c-3.21.756-3.116 3.969-3.116 3.969-.849-1.984-.849-3.969.661-5.008 3.21-2.174 6.797.661 8.591 2.551z" fill="#CA7E86"/><path d="M302.552 158.852c3.587-.945 6.419 1.795 6.608 1.984.094.095.094.284 0 .473 0 0-.094.094-.189.094-.094 0-.189 0-.283-.094 0 0-1.038-1.04-2.643-1.607-1.039 1.134.094 3.119.094 3.119.095.189 0 .378-.094.472h-.095c-.094 0-.283 0-.377-.094-.095-.095-1.227-2.174-.189-3.591-.755-.189-1.699-.284-2.549 0h-.094c-.189.094-.378-.095-.378-.189-.094-.378 0-.473.189-.567zm14.726 7.087c0-.283.756-.472 1.7-.378.944.095 1.604.378 1.604.756 0 .284-.755.473-1.699.378-.944-.189-1.699-.472-1.605-.756zm-.283-1.795c.095.283.85.378 1.699.283.944-.189 1.605-.567 1.511-.85-.095-.284-.85-.378-1.699-.284-.85.189-1.511.567-1.511.851z" fill="#CA7E86"/><path d="M302.835 187.012s3.209 14.459-6.608 13.136c-9.818-1.323-19.164-17.577-19.164-17.577s6.231-4.631 8.308-10.584c2.076-5.953 18.785 7.749 18.785 7.749l-1.321 7.276z" fill="#E5B7AC"/><path d="M307.932 257.981c-.094.85 5.57 13.607 5.57 13.702-.283.378-.566.756-.85 1.039-12.366 13.419-55.696 9.734-56.734 8.505 0 0 5.381-28.633 2.36-44.509v-1.512c.094-7.37.378-39.027 0-40.445v-.094s5.57-12.474 21.806-14.837c4.532-.661 15.388 1.134 21.901 2.363 7.741 3.118 17.275 11.907 17.275 11.907s-.849 23.341-6.796 37.232c-.378 1.701-1.888 5.953-2.266 7.843-.755 3.78-1.51 7.938-2.077 11.718a86.421 86.421 0 01-.283 1.89c-.378 1.418.094 5.103.094 5.198z" fill="#D35B30"/><path d="M367.688 237.38c1.51-1.418 3.398-3.213 4.342-3.78 1.605-1.039 4.72-3.402 5.57-3.874.849-.473 6.891 1.795 7.363 2.646.566.755 2.454 2.362-.472 1.984-2.832-.851-5.192-1.795-5.192-1.795l-3.493 2.456s4.059-.661 5.003-.472c.944.094 6.325 3.874 6.419 4.819.189.945-1.604 1.607-2.832.662 0 0 1.133 1.039.944 1.606-.094.567-.755.851-2.548-.189 0 0 .472 1.134 0 1.607-1.133.85-4.437-1.89-4.815-1.89-.378 0-2.832 4.63-7.929 3.685-.189 0-.378-.094-.567-.094" fill="#DCA59C"/><path d="M371.936 246.357a1606.482 1606.482 0 01-17.653 5.67c-15.104 4.82-25.582 8.127-28.037 9.072-.283.095-.472.189-.566.189-2.738-1.701-7.552-11.907-11.611-23.436-2.738-7.843-5.098-16.348-6.231-23.246-.755-4.914-.944-8.978-.094-11.434.283-4.253 5.381-22.869 14.443-1.796 3.115 9.45 14.066 39.5 14.066 39.5 12.366-2.268 26.148-3.969 31.718-5.197l2.643 7.087 1.322 3.591z" fill="#D35B30"/><path d="M323.508 230.765l-19.918 1.229s-2.454-21.641-1.416-28.917c1.039-7.276 16.992-8.788 16.992-8.788s5.57 5.953 4.342 36.476z" fill="#D35B30"/><path opacity=".7" d="M370.708 242.672l1.227 3.685c-6.513 1.796-12.46 3.78-17.652 5.67-15.104 4.82-25.583 8.127-28.037 9.072-.283.095-.472.189-.567.189-3.304-5.103-8.024-14.836-11.611-23.436-3.87-9.26-7.174-19.183-8.496-25.798.095-.85.944.284 2.36 2.552 5.759 9.45 20.202 39.595 20.202 39.595 12.177-2.268 36.721-10.112 42.48-11.435 0-.094.094-.094.094-.094z" fill="#D0D1D3"/><path d="M283.766 318.743h-10.573v89.773h10.573v-89.773z" fill="#363734"/><path d="M317.089 310.333v-.189l21.618.189c0 6.709-3.399 10.489-10.479 10.489h-85.809c-9.44 0-13.405-5.008-15.576-10.489h90.246z" fill="#6D6E70"/><path d="M253.652 408.8s1.605-6.898 10.29-6.898h28.509c4.814 0 9.345 2.646 10.761 6.898h-49.56z" fill="#363734"/><path d="M236.755 310.333s3.304-10.206 21.145-10.206h63.532c9.817 0 14.443 3.969 17.369 10.206H236.755z" fill="#59595B"/><path d="M226.843 310.333s-24.639-85.805-27.943-97.901c-3.304-12.001-1.982-24.097 16.992-24.097h50.316c10.195 0 18.219 4.536 21.523 16.632 3.304 12.001 26.243 105.366 26.243 105.366h-87.131z" fill="#6D6E70"/><path d="M226.843 310.333s-24.827-86.561-27.753-97.428c-2.927-10.868.094-17.388 17.18-17.388h44.085c9.157 0 16.426 4.064 19.352 14.931 2.927 10.867 24.355 99.79 24.355 99.79h-77.219v.095z" fill="#808183"/></g><defs><clipPath id="clip0"><path fill="#fff" d="M0 0h708v438H0z"/></clipPath></defs></svg>