<svg xmlns="http://www.w3.org/2000/svg" width="218.563" height="87.027" viewBox="0 0 218.563 87.027">
  <g id="Сгруппировать_1" data-name="Сгруппировать 1" transform="translate(-354.437 -49.645)">
    <path id="Контур_1" data-name="Контур 1" d="M454.022,69.225l.013.007h16.818a5.114,5.114,0,0,0,0-10.185h-17.6a19.927,19.927,0,0,0-6.661,1.646,13.922,13.922,0,0,0-2.355,1.179c-.022,0-.024.015-.024.015h0a12.234,12.234,0,0,0-1.527,1.1,15.674,15.674,0,0,0-3.276,3.844,16.821,16.821,0,0,0-1.933,4.735,21.885,21.885,0,0,0-.63,5.249,17.08,17.08,0,0,0,2.837,9.627,15.342,15.342,0,0,0,4.323,4.348h0a.463.463,0,0,0,.09.055c0,.006.01.012.014.02a18.2,18.2,0,0,0,8.2,2.946c.115.01.431.035.747.054h17.8a5.111,5.111,0,0,0,0-10.179h-16.3a9.924,9.924,0,0,1-3.97-.944,6.964,6.964,0,0,1-1.691-1.179,5.389,5.389,0,0,1-.986-1.338,8.8,8.8,0,0,1-.792-3.947,8.487,8.487,0,0,1,.127-1.433,6.8,6.8,0,0,1,6.784-5.618" fill="#706f6e"/>
    <path id="Контур_2" data-name="Контур 2" d="M505.773,59H492.612c-8.788,0-15.922,7.821-15.922,17.462s7.134,17.454,15.922,17.454h13.161c8.8,0,15.92-7.82,15.92-17.454S514.571,59,505.773,59m-.6,24.6H493.223c-3.594,0-6.52-3.193-6.52-7.134s2.926-7.146,6.52-7.146h11.946c3.6,0,6.512,3.2,6.512,7.146s-2.912,7.134-6.512,7.134" fill="#706f6e"/>
    <path id="Контур_3" data-name="Контур 3" d="M572.983,74.269h0c.017-3.808-2.244-7.172-3.472-8.778a8.477,8.477,0,0,0-.767-.947,1.385,1.385,0,0,1-.1-.1,18.034,18.034,0,0,0-11.812-5.4H530.5a4.274,4.274,0,0,0-1.779.4A5.175,5.175,0,0,0,527.3,60.49a5.118,5.118,0,0,0-1.047,1.453,3.51,3.51,0,0,0-.379,1.573V89.221a5.113,5.113,0,0,0,10.182,0V69.294h8.286V89.221a5.114,5.114,0,0,0,10.184,0V69.294h1.434a6.617,6.617,0,0,1,2.328.458,8.712,8.712,0,0,1,2.205,1.222,7.007,7.007,0,0,1,1.668,1.815,4.277,4.277,0,0,1,.649,2.3V88.343h.011v.878a5.112,5.112,0,0,0,10.18,0V74.492c0-.08-.014-.153-.017-.223" fill="#706f6e"/>
    <path id="Контур_4" data-name="Контур 4" d="M441.818,110.544a10.361,10.361,0,0,1-1.328-.1V112.9a.282.282,0,0,1-.272.275h-1.273a.277.277,0,0,1-.28-.275v-9.63c0-.214.055-.292.369-.373a11.972,11.972,0,0,1,2.784-.359c2.221,0,3.306,1.313,3.306,3.473v1.065c0,2.152-1.085,3.472-3.306,3.472m1.479-4.537c0-1.14-.292-1.977-1.479-1.977a8.22,8.22,0,0,0-1.328.094v4.829a12.007,12.007,0,0,0,1.328.1c1.187,0,1.479-.849,1.479-1.982Z" fill="#706f6e"/>
    <path id="Контур_5" data-name="Контур 5" d="M449.708,110.544a3.14,3.14,0,0,1-3.3-3.449v-1.123a3.306,3.306,0,1,1,6.607,0V107.1a3.139,3.139,0,0,1-3.311,3.449m1.5-4.572c0-1.132-.52-1.862-1.5-1.862s-1.471.73-1.471,1.862V107.1c0,1.139.507,1.872,1.471,1.872s1.5-.733,1.5-1.872Z" fill="#706f6e"/>
    <path id="Контур_6" data-name="Контур 6" d="M464.66,102.948l-1.26,6.364c-.163.823-.388,1.165-1.23,1.165H461.8a1.237,1.237,0,0,1-1.323-1.083l-1.09-4.235c-.01-.052-.01-.07-.032-.07-.039,0-.039.018-.046.07l-1.093,4.235a1.23,1.23,0,0,1-1.317,1.083h-.366c-.847,0-1.07-.342-1.234-1.165l-1.262-6.364v-.041a.276.276,0,0,1,.276-.275h1.34a.271.271,0,0,1,.253.245l.866,5.852c.024.124.045.2.068.2s.074-.055.1-.2l1.146-4.645c.136-.538.306-.6.774-.6h.971c.474,0,.633.06.778.6l1.146,4.645c.027.142.068.2.093.2s.065-.073.071-.2l.874-5.852a.274.274,0,0,1,.252-.245h1.341a.279.279,0,0,1,.274.275Z" fill="#706f6e"/>
    <path id="Контур_7" data-name="Контур 7" d="M472.018,107.166h-4.509v.039a1.564,1.564,0,0,0,1.657,1.762c1.016,0,1.965-.086,2.545-.144h.043c.138,0,.249.074.249.212v.914c0,.221-.036.317-.292.361a12.194,12.194,0,0,1-2.68.234,3.186,3.186,0,0,1-3.348-3.472v-1.031c0-2.152,1.2-3.507,3.321-3.507s3.29,1.454,3.29,3.507v.776c0,.232-.075.349-.276.349m-1.56-1.355c0-1.074-.6-1.7-1.454-1.7a1.5,1.5,0,0,0-1.481,1.7v.058h2.935Z" fill="#706f6e"/>
    <path id="Контур_8" data-name="Контур 8" d="M477.592,104.084a3.871,3.871,0,0,0-1.906.5v5.553a.286.286,0,0,1-.274.292h-1.278a.29.29,0,0,1-.276-.292v-7.228a.281.281,0,0,1,.276-.275h1.2a.275.275,0,0,1,.277.275v.3a3.214,3.214,0,0,1,1.977-.669.275.275,0,0,1,.281.274v1a.279.279,0,0,1-.281.277" fill="#706f6e"/>
    <path id="Контур_9" data-name="Контур 9" d="M487.529,105.26l-1.239.824c-1.305.875-1.971,1.574-1.971,2.714v.055h4.555a.254.254,0,0,1,.273.249v1.045a.271.271,0,0,1-.273.28h-5.866a.279.279,0,0,1-.282-.28V108.8a4.535,4.535,0,0,1,2.1-3.627l1.369-.915c1.059-.7,1.275-.923,1.275-1.684,0-.743-.474-1.024-1.62-1.024a24.977,24.977,0,0,0-2.766.212h-.027a.264.264,0,0,1-.256-.278v-.829c0-.139.137-.23.267-.266a11.961,11.961,0,0,1,2.782-.345c2.424,0,3.4.821,3.4,2.53a3.128,3.128,0,0,1-1.729,2.688" fill="#706f6e"/>
    <path id="Контур_10" data-name="Контур 10" d="M497.75,110.544a3.143,3.143,0,0,1-3.306-3.449v-1.123a3.312,3.312,0,1,1,6.62,0V107.1a3.146,3.146,0,0,1-3.314,3.449m1.48-4.572c0-1.132-.5-1.862-1.48-1.862s-1.48.73-1.48,1.862V107.1c0,1.139.512,1.872,1.48,1.872s1.48-.733,1.48-1.872Z" fill="#706f6e"/>
    <path id="Контур_11" data-name="Контур 11" d="M508.738,110.427h-1.275a.273.273,0,0,1-.277-.277v-.318a3.513,3.513,0,0,1-2.171.695,2.374,2.374,0,0,1-1.7-.578,3.536,3.536,0,0,1-.69-2.521v-4.505a.293.293,0,0,1,.272-.291h1.283a.289.289,0,0,1,.271.291v4.505c0,.692.051,1.1.317,1.333a1.222,1.222,0,0,0,.858.246,4.073,4.073,0,0,0,1.562-.545v-5.539a.291.291,0,0,1,.277-.291h1.275a.3.3,0,0,1,.282.291v7.227a.277.277,0,0,1-.282.277" fill="#706f6e"/>
    <path id="Контур_12" data-name="Контур 12" d="M514.548,104.084a3.855,3.855,0,0,0-1.91.5v5.553a.284.284,0,0,1-.273.292h-1.278a.285.285,0,0,1-.273-.292v-7.228a.276.276,0,0,1,.273-.275h1.2a.277.277,0,0,1,.281.275v.3a3.2,3.2,0,0,1,1.976-.669.274.274,0,0,1,.277.274v1a.278.278,0,0,1-.277.277" fill="#706f6e"/>
    <path id="Контур_13" data-name="Контур 13" d="M522.619,110.544a10.211,10.211,0,0,1-1.33-.1V112.9a.283.283,0,0,1-.281.275h-1.271a.277.277,0,0,1-.278-.275v-9.63c0-.214.054-.292.377-.373a11.9,11.9,0,0,1,2.783-.359c2.22,0,3.3,1.313,3.3,3.473v1.065c0,2.152-1.082,3.472-3.3,3.472m1.477-4.537c0-1.14-.288-1.977-1.477-1.977a8.182,8.182,0,0,0-1.33.094v4.829a11.656,11.656,0,0,0,1.33.1c1.189,0,1.477-.849,1.477-1.982Z" fill="#706f6e"/>
    <path id="Контур_14" data-name="Контур 14" d="M532.948,110.427h-1.174a.278.278,0,0,1-.284-.277v-.217a3.7,3.7,0,0,1-1.948.611,2.113,2.113,0,0,1-2.391-2.31v-.063c0-1.571.967-2.389,3.374-2.389h.871v-.611c0-.9-.4-1.115-1.21-1.115-.883,0-1.8.054-2.259.106h-.068c-.136,0-.25-.038-.25-.234v-.889c0-.146.089-.247.271-.282a11.85,11.85,0,0,1,2.306-.223c1.951,0,3.036.864,3.036,2.637v4.979a.268.268,0,0,1-.274.277M531.4,107h-.871c-1.258,0-1.527.4-1.527,1.167v.063c0,.676.3.854.992.854a2.947,2.947,0,0,0,1.406-.387Z" fill="#706f6e"/>
    <path id="Контур_15" data-name="Контур 15" d="M538.764,104.084a3.9,3.9,0,0,0-1.918.5v5.553a.282.282,0,0,1-.274.292h-1.278a.289.289,0,0,1-.27-.292v-7.228a.28.28,0,0,1,.27-.275H536.5a.284.284,0,0,1,.285.275v.3a3.2,3.2,0,0,1,1.979-.669.274.274,0,0,1,.271.274v1a.278.278,0,0,1-.271.277" fill="#706f6e"/>
    <path id="Контур_16" data-name="Контур 16" d="M544.3,110.442a5.311,5.311,0,0,1-.938.1c-1.571,0-2.2-.339-2.2-2.2V104l-1.3-.193a.3.3,0,0,1-.282-.272v-.628a.277.277,0,0,1,.282-.275h1.3V101.5a.289.289,0,0,1,.272-.274l1.292-.223h.057a.2.2,0,0,1,.216.209v1.424h1.242a.284.284,0,0,1,.282.275v.815a.287.287,0,0,1-.282.278h-1.242v4.344c0,.7.046.771.538.771h.734c.184,0,.29.073.29.212v.878c0,.13-.078.215-.263.237" fill="#706f6e"/>
    <path id="Контур_17" data-name="Контур 17" d="M551.927,110.427h-1.269a.287.287,0,0,1-.28-.292v-4.507c0-1.2-.106-1.544-1.171-1.544a3.416,3.416,0,0,0-1.564.5v5.553a.291.291,0,0,1-.279.292h-1.272a.287.287,0,0,1-.275-.292v-7.228a.278.278,0,0,1,.275-.275h1.2a.282.282,0,0,1,.277.275v.3a3.557,3.557,0,0,1,2.246-.669c1.986,0,2.388,1.337,2.388,3.094v4.507a.284.284,0,0,1-.279.292" fill="#706f6e"/>
    <path id="Контур_18" data-name="Контур 18" d="M560.108,107.166h-4.513v.039a1.565,1.565,0,0,0,1.66,1.762c1.01,0,1.964-.086,2.544-.144h.05a.214.214,0,0,1,.243.212v.914c0,.221-.034.317-.293.361a12.2,12.2,0,0,1-2.68.234,3.184,3.184,0,0,1-3.345-3.472v-1.031c0-2.152,1.205-3.507,3.321-3.507s3.287,1.454,3.287,3.507v.776c0,.232-.082.349-.274.349m-1.562-1.355c0-1.074-.6-1.7-1.451-1.7a1.493,1.493,0,0,0-1.486,1.7v.058h2.937Z" fill="#706f6e"/>
    <path id="Контур_19" data-name="Контур 19" d="M565.68,104.084a3.886,3.886,0,0,0-1.91.5v5.553a.283.283,0,0,1-.274.292h-1.267a.291.291,0,0,1-.287-.292v-7.228a.283.283,0,0,1,.287-.275h1.2a.276.276,0,0,1,.273.275v.3a3.215,3.215,0,0,1,1.977-.669.273.273,0,0,1,.279.274v1a.277.277,0,0,1-.279.277" fill="#706f6e"/>
    <path id="Контур_20" data-name="Контур 20" d="M569.664,110.544a11.207,11.207,0,0,1-2.472-.278.306.306,0,0,1-.263-.317v-.834a.228.228,0,0,1,.24-.218h.052c.664.088,1.906.159,2.323.159.861,0,.98-.295.98-.671,0-.265-.169-.434-.6-.705l-1.9-1.165a2.284,2.284,0,0,1-1.16-1.91c0-1.374.87-2.071,2.632-2.071a10.371,10.371,0,0,1,2.462.274.309.309,0,0,1,.249.324v.8c0,.167-.088.259-.221.259h-.054c-.4-.046-1.5-.162-2.285-.162-.667,0-.952.151-.952.58,0,.223.2.36.548.566l1.821,1.11a2.235,2.235,0,0,1,1.324,2.1c0,1.2-.9,2.159-2.716,2.159" fill="#706f6e"/>
    <path id="Контур_21" data-name="Контур 21" d="M419.785,49.645H359.669a5.241,5.241,0,0,0-5.232,5.229V115a5.243,5.243,0,0,0,5.232,5.233h37.15l16.443,16.443V120.229h6.523A5.245,5.245,0,0,0,425.018,115V54.874a5.243,5.243,0,0,0-5.233-5.229" fill="#91bf3e" fill-rule="evenodd"/>
    <path id="Контур_22" data-name="Контур 22" d="M380.285,97.2l-6.053,10.346h-9.2L375.582,89.6,365.521,72.415h9.045l5.781,9.763,5.77-9.763h9.045l-10.1,17.231,10.493,17.9H386.4Z" fill="#fff"/>
    <path id="Контур_23" data-name="Контур 23" d="M397.093,80.209c0-4.19,3.641-6.511,6.7-8.374,2.286-1.416,4.38-2.577,4.38-4.025,0-1.19-.934-2.118-2.768-2.118-1.9,0-3.157,1.374-3.867,3.054L396.7,66.3a9.08,9.08,0,0,1,8.762-5.415c5.224,0,8.4,2.93,8.4,6.924,0,3.9-3.256,5.888-6.378,7.794-2.087,1.288-4.115,2.415-4.766,3.865h11.051v5.247H397.093Z" fill="#fff"/>
  </g>
</svg>
