<svg width="96" height="100" fill="none" xmlns="http://www.w3.org/2000/svg"><g clip-path="url(#clip0)" stroke="#E63946" stroke-width="3" stroke-miterlimit="10" stroke-linecap="round" stroke-linejoin="round"><path d="M56.034 19.116a10.144 10.144 0 002.974-7.221c0-2.804-1.105-5.353-2.974-7.222a10.144 10.144 0 00-7.222-2.974 10.144 10.144 0 00-7.221 2.974 10.144 10.144 0 00-2.974 7.222c0 .68.085 1.444.255 2.039.595 2.719 2.549 5.013 5.097 6.202 13.34 5.268 20.306 14.528 24.894 26.168H27.742s-.34-13.679 15.718-20.306M69.883 98.3v-7.22c0-1.53.68-3.06 1.784-4.079l20.646-18.437c1.19-1.02 1.784-2.549 1.784-4.078V41.631c0-2.803-2.294-5.012-5.013-5.012-2.804 0-5.013 2.294-5.013 5.012v16.823l-3.483 2.379"/><path d="M55.014 98.3V75.362c0-1.53.595-2.974 1.7-3.993l14.528-13.764c2.04-1.954 5.268-1.87 7.222.085 2.124 2.124 2.039 5.523-.17 7.477l-9.94 9.43M26.722 98.3v-7.22c0-1.53-.68-3.06-1.784-4.079L4.208 68.564c-1.105-1.02-1.785-2.464-1.785-3.993v-22.94c0-2.803 2.294-5.012 5.013-5.012 2.804 0 5.013 2.294 5.013 5.012v16.823l3.483 2.379"/><path d="M41.59 98.3V75.362c0-1.53-.594-2.974-1.699-3.993l-14.613-13.68c-2.04-1.953-5.268-1.868-7.222.086-2.124 2.124-2.039 5.522.17 7.477l10.026 9.26"/></g><defs><clipPath id="clip0"><path fill="#fff" transform="translate(.724)" d="M0 0h95.157v100H0z"/></clipPath></defs></svg>