<svg width="106" height="100" fill="none" xmlns="http://www.w3.org/2000/svg"><g clip-path="url(#clip0)" stroke="#E63946" stroke-width="3" stroke-miterlimit="10" stroke-linecap="round" stroke-linejoin="round"><path d="M65.084 16.34l-10.13 4.575-4.576 10.13-4.657-10.13-10.049-4.575 10.05-4.575 4.656-10.131 4.575 10.13 10.13 4.576zM33.221 30.882l-8.496 3.84-3.759 8.415-3.84-8.415-8.415-3.84 8.415-3.84 3.84-8.415 3.758 8.416 8.497 3.84zM21.947 58.415l-6.781 3.023-3.023 6.781-3.023-6.78-6.781-3.024 6.78-3.104 3.024-6.7 3.023 6.7 6.78 3.104zM56.75 72.304H39.268c-4.248 0-7.68 3.594-7.353 7.924.245 3.922 3.676 6.945 7.598 6.945H53.81c4.739 3.431 10.376 5.31 16.259 5.31h1.062c1.634 0 3.186-.163 4.738-.408l11.602-2.043V72.303"/><path d="M43.679 72.304h15.277c4.249 0 7.68-3.595 7.353-7.925-.163-2.45-1.552-4.493-3.513-5.719m-31.944 2.942l-7.68 13.235c-2.124 3.676-.735 8.415 3.105 10.376 2.206 1.062 4.656.898 6.699-.164m70.507-33.579H87.388v40.932h16.095V51.471z"/><path d="M58.793 44.771l-2.941-.081a12.228 12.228 0 00-7.435 2.206L35.51 55.964c-1.553 1.062-2.778 2.451-3.677 4.085l-8.17 14.134m63.725-17.729l-13.236-9.15c-.653-.49-1.388-.817-2.124-1.144m-29.82 40.931L23.662 98.366l1.634-13.807"/><path d="M33.466 75.163L75.705 24.51c1.96-2.37 5.474-2.615 7.843-.654 2.37 1.96 2.614 5.474.654 7.843L50.133 72.304"/><path d="M83.303 32.762c.49-.49.899-1.144 1.225-1.798.327-.653.409-1.389.409-2.206 0-.735-.163-1.47-.409-2.206-.245-.653-.653-1.307-1.225-1.797-.572-.49-1.144-.899-1.797-1.225-.654-.327-1.39-.409-2.206-.409-.736 0-1.471.164-2.206.409a3.942 3.942 0 00-1.798 1.225c-.49.49-.898 1.144-1.225 1.797a6.238 6.238 0 00-.409 2.206c0 .736.164 1.47.409 2.206a3.941 3.941 0 001.225 1.798l.409.408"/></g><defs><clipPath id="clip0"><path fill="#fff" transform="translate(.705)" d="M0 0h104.412v100H0z"/></clipPath></defs></svg>