<svg width="101" height="100" fill="none" xmlns="http://www.w3.org/2000/svg"><g clip-path="url(#clip0)" stroke="#E63946" stroke-width="3" stroke-miterlimit="10" stroke-linecap="round" stroke-linejoin="round"><path d="M86.166 17.932c7.59 8.539 12.239 19.734 12.239 31.973 0 26.566-21.537 48.102-48.102 48.102C23.737 98.007 2.2 76.565 2.2 50c0-26.566 21.537-48.103 48.102-48.103A47.522 47.522 0 0175.54 9.108"/><path d="M43.187 62.524c3.226 3.226 8.444 3.226 11.765 0 3.225-3.226 3.225-8.444 0-11.765l-5.788-5.787-21.252-21.253"/><path d="M55.331 51.328c1.518 1.518 2.372 3.51 2.372 5.788 0 2.277-.949 4.364-2.372 5.787s-3.51 2.372-5.788 2.372c-2.276 0-4.364-.949-5.787-2.372s-2.372-3.51-2.372-5.787 2.277-5.693 3.795-7.21M89.107 4.934L54.762 40.228M50.303 7.97v8.254m0 67.552v8.255M8.272 50h8.254m67.553 0h8.254"/></g><defs><clipPath id="clip0"><path fill="#fff" transform="translate(.303)" d="M0 0h100v100H0z"/></clipPath></defs></svg>