<svg width="104" height="100" fill="none" xmlns="http://www.w3.org/2000/svg"><g clip-path="url(#clip0)" stroke="#E63946" stroke-width="3" stroke-miterlimit="10" stroke-linecap="round" stroke-linejoin="round"><path d="M55.194 57.586a4.83 4.83 0 00-1.42-3.46 4.83 4.83 0 00-3.46-1.42 4.83 4.83 0 00-3.461 1.42 4.83 4.83 0 00-1.42 3.46 4.83 4.83 0 001.42 3.46 4.83 4.83 0 003.46 1.42h9.495M34.52 72.582l-6.922 6.921c-1.33 1.242-3.016 1.952-4.88 1.952h-8.695c-2.751 0-5.236 1.686-6.3 4.17l-5.324 12.6h99.024l-5.324-12.6c-1.065-2.573-3.55-4.17-6.3-4.17h-8.696c-1.774 0-3.549-.71-4.88-1.952l-6.92-6.921"/><path d="M56.259 71.073c-1.42.71-2.84 1.065-4.348 1.065-1.509 0-2.928-.355-4.348-1.065s-2.75-1.685-4.082-2.928c-1.33-1.242-2.484-2.75-3.638-4.436a45.726 45.726 0 01-3.194-5.413 71.392 71.392 0 01-2.662-5.945c-.799-2.04-1.42-4.081-1.952-6.122-.532-2.041-.976-3.904-1.242-5.768-.266-1.774-.444-3.46-.444-4.969 0-1.508.178-2.928.444-4.347.266-1.42.71-2.751 1.242-4.082s1.242-2.485 1.952-3.638a23.107 23.107 0 012.662-3.194 23.101 23.101 0 013.194-2.662c1.154-.799 2.396-1.42 3.638-1.952 1.331-.533 2.662-.977 4.082-1.243 1.42-.266 2.84-.443 4.348-.443s2.928.177 4.348.443 2.75.71 4.081 1.243c1.331.532 2.485 1.242 3.638 1.952 1.154.71 2.218 1.686 3.194 2.662a23.1 23.1 0 012.663 3.194"/><path d="M80.394 46.584v9.05c0 3.816-3.106 6.833-6.833 6.833h-15.44m-35.048-33.63c.887-15.084 13.31-27.063 28.66-27.063 15.262 0 27.773 11.98 28.66 27.063"/><path d="M31.769 46.584H21.032a5.15 5.15 0 01-5.146-5.146v-7.543a5.15 5.15 0 015.146-5.146h10.47m40.107.089h11.624a5.15 5.15 0 015.146 5.146v7.542a5.15 5.15 0 01-5.146 5.147H71.609V28.838z"/></g><defs><clipPath id="clip0"><path fill="#fff" transform="translate(.624)" d="M0 0h102.573v100H0z"/></clipPath></defs></svg>