<svg width="24" height="25" viewBox="0 0 24 25" fill="none" xmlns="http://www.w3.org/2000/svg">
<path d="M9.28994 21.258C8.46376 21.254 7.64662 21.0857 6.88608 20.763C6.12554 20.4402 5.4368 19.9694 4.85994 19.378C4.2874 18.8353 3.82749 18.1851 3.50652 17.4645C3.18554 16.744 3.00981 15.9672 2.98938 15.1786C2.96895 14.39 3.10421 13.6052 3.38743 12.8689C3.67065 12.1327 4.09627 11.4595 4.63994 10.888L11.9999 3.45797C12.393 3.06565 12.8614 2.75704 13.3771 2.5508C13.8927 2.34455 14.4448 2.24494 14.9999 2.25797C15.5946 2.25999 16.183 2.38041 16.7307 2.61219C17.2784 2.84397 17.7744 3.18247 18.1899 3.60797C19.0169 4.40421 19.4965 5.49448 19.5246 6.64214C19.5527 7.78981 19.127 8.90223 18.3399 9.73797L10.9399 17.168C10.7029 17.4066 10.4209 17.5958 10.1102 17.7245C9.79945 17.8533 9.46626 17.919 9.12994 17.918C8.76661 17.9185 8.40687 17.8461 8.07195 17.7053C7.73704 17.5645 7.43373 17.358 7.17993 17.098C6.67266 16.6068 6.37971 15.9353 6.36473 15.2294C6.34975 14.5235 6.61396 13.8402 7.09994 13.328L13.9299 6.46797C14.1243 6.33887 14.3577 6.28182 14.5897 6.30668C14.8218 6.33155 15.0378 6.43677 15.2004 6.60413C15.363 6.77149 15.462 6.99044 15.4801 7.22308C15.4983 7.45571 15.4346 7.68738 15.2999 7.87797L8.46994 14.738C8.35604 14.8752 8.30061 15.0516 8.31557 15.2293C8.33054 15.407 8.4147 15.5717 8.54994 15.688C8.69065 15.8296 8.88034 15.912 9.07994 15.918C9.15387 15.919 9.22728 15.9054 9.29594 15.878C9.36459 15.8505 9.42713 15.8097 9.47993 15.758L16.8699 8.32797C17.2847 7.86715 17.5015 7.2616 17.4735 6.64222C17.4454 6.02284 17.1747 5.43938 16.7199 5.01797C16.2975 4.57941 15.7231 4.31943 15.1148 4.29153C14.5066 4.26363 13.9107 4.46992 13.4499 4.86797L6.05994 12.258C5.70058 12.6439 5.4211 13.0972 5.23756 13.5916C5.05403 14.086 4.97007 14.6118 4.99052 15.1387C5.01096 15.6657 5.13541 16.1834 5.3567 16.6621C5.57799 17.1408 5.89175 17.571 6.27994 17.928C6.66921 18.3315 7.135 18.6534 7.6501 18.8749C8.16519 19.0964 8.71926 19.213 9.27993 19.218C9.76335 19.2219 10.2428 19.1303 10.6907 18.9484C11.1386 18.7665 11.5461 18.4978 11.8899 18.158L19.2799 10.728C19.3725 10.6347 19.4826 10.5606 19.6038 10.5099C19.725 10.4592 19.855 10.4329 19.9864 10.4324C20.1178 10.4319 20.248 10.4574 20.3696 10.5072C20.4911 10.5571 20.6017 10.6304 20.6949 10.723C20.7882 10.8155 20.8623 10.9256 20.913 11.0468C20.9637 11.168 20.99 11.298 20.9905 11.4294C20.991 11.5608 20.9655 11.691 20.9157 11.8126C20.8658 11.9342 20.7925 12.0447 20.6999 12.138L13.3099 19.568C12.7852 20.1019 12.1597 20.5263 11.4696 20.8164C10.7794 21.1066 10.0386 21.2566 9.28994 21.258Z" fill="#7D91AD"/>
</svg>
