<svg width="9" height="8" viewBox="0 0 9 8" fill="none" xmlns="http://www.w3.org/2000/svg">
<path d="M7.7149 3.28491C7.9389 3.27091 8.1139 3.32691 8.2399 3.45291C8.3799 3.57891 8.4499 3.73291 8.4499 3.91491C8.4499 4.08291 8.3799 4.23691 8.2399 4.37691C8.1139 4.50291 7.9389 4.55891 7.7149 4.54491L5.2159 4.46091L6.5389 6.58191C6.6229 6.72191 6.6649 6.85491 6.6649 6.98091C6.6649 7.14891 6.5949 7.29591 6.4549 7.42191C6.3289 7.53391 6.1819 7.58991 6.0139 7.58991C5.7759 7.58991 5.5869 7.46391 5.4469 7.21191L4.2709 4.98591L3.0949 7.23291C2.9549 7.48491 2.7659 7.61091 2.5279 7.61091C2.3599 7.61091 2.2059 7.54791 2.0659 7.42191C1.9259 7.29591 1.8559 7.14891 1.8559 6.98091C1.8559 6.85491 1.8979 6.72891 1.9819 6.60291L3.3469 4.46091L0.805898 4.54491C0.595898 4.55891 0.427898 4.50291 0.301898 4.37691C0.175898 4.23691 0.112898 4.08291 0.112898 3.91491C0.112898 3.73291 0.168898 3.57891 0.280898 3.45291C0.406898 3.32691 0.581899 3.27091 0.805898 3.28491L3.3469 3.36891L1.9819 1.24791C1.8979 1.12191 1.8559 0.988906 1.8559 0.848906C1.8559 0.680906 1.9259 0.533906 2.0659 0.407906C2.2059 0.281905 2.3599 0.218905 2.5279 0.218905C2.7659 0.218905 2.9549 0.344905 3.0949 0.596906L4.2709 2.84391L5.4469 0.617905C5.5869 0.351905 5.7829 0.218905 6.0349 0.218905C6.2029 0.218905 6.3499 0.281905 6.4759 0.407906C6.6019 0.519906 6.6649 0.659906 6.6649 0.827905C6.6649 0.953905 6.6229 1.09391 6.5389 1.24791L5.2159 3.36891L7.7149 3.28491Z" fill="#E63946"/>
</svg>
