<svg width="9" height="8" fill="none" xmlns="http://www.w3.org/2000/svg"><path d="M7.715 3.285c.224-.014.399.042.525.168.14.126.21.28.21.462 0 .168-.07.322-.21.462-.126.126-.301.182-.525.168l-2.5-.084L6.54 6.58a.78.78 0 01.126.4c0 .168-.07.315-.21.44a.643.643 0 01-.441.169c-.238 0-.427-.126-.567-.378L4.27 4.986 3.095 7.233c-.14.252-.33.378-.567.378a.676.676 0 01-.462-.19.577.577 0 01-.21-.44c0-.126.042-.252.126-.378L3.347 4.46l-2.541.084c-.21.014-.378-.042-.504-.168a.676.676 0 01-.19-.462.67.67 0 01.169-.462c.126-.126.3-.182.525-.168l2.54.084-1.364-2.121a.708.708 0 01-.126-.4c0-.167.07-.314.21-.44a.676.676 0 01.462-.19c.238 0 .427.127.567.379L4.27 2.844 5.447.618c.14-.266.336-.4.588-.4.168 0 .315.064.44.19a.539.539 0 01.19.42.892.892 0 01-.126.42l-1.323 2.12 2.499-.083z" fill="#E63946"/></svg>