<svg width="32" height="33" fill="none" xmlns="http://www.w3.org/2000/svg"><g clip-path="url(#clip0)"><path d="M16 .653c-8.837 0-16 7.164-16 16 0 8.837 7.163 16 16 16s16-7.163 16-16c0-8.836-7.163-16-16-16z" fill="#687A95"/><path d="M23.785 9.857l-2.857 14.408s-.4 1-1.5.52l-6.594-5.056-2.398-1.16L6.4 17.212s-.62-.22-.68-.7c-.06-.48.7-.739.7-.739l16.047-6.295s1.32-.58 1.32.38" fill="#fff"/><path d="M12.327 24.103s-.192-.018-.432-.777c-.24-.76-1.46-4.756-1.46-4.756l9.693-6.155s.56-.34.54 0c0 0 .1.06-.2.34-.3.28-7.614 6.854-7.614 6.854" fill="#D2E5F1"/><path d="M15.363 21.668l-2.609 2.378s-.204.155-.427.058l.5-4.418" fill="#B5CFE4"/></g><defs><clipPath id="clip0"><path fill="#fff" transform="translate(0 .653)" d="M0 0h32v32H0z"/></clipPath></defs></svg>