<svg width="30" height="31" fill="none" xmlns="http://www.w3.org/2000/svg"><path d="M18.25 6.558a6.667 6.667 0 015.267 5.267m-5.266-10.6a12 12 0 0110.6 10.586m-1.334 10.64v4a2.668 2.668 0 01-2.906 2.667 26.386 26.386 0 01-11.507-4.093 25.999 25.999 0 01-8-8 26.387 26.387 0 01-4.093-11.56 2.667 2.667 0 012.653-2.907h4a2.667 2.667 0 012.667 2.293 17.16 17.16 0 00.933 3.747 2.667 2.667 0 01-.6 2.813l-1.693 1.694a21.334 21.334 0 008 8l1.693-1.694a2.666 2.666 0 012.813-.6c1.21.452 2.467.765 3.747.934a2.667 2.667 0 012.293 2.706z" stroke="#687A95" stroke-width="2" stroke-linecap="round" stroke-linejoin="round"/></svg>