<svg width="31" height="33" fill="none" xmlns="http://www.w3.org/2000/svg"><path d="M14.438.658c-2.568.031-8.09.453-11.178 3.286C.962 6.221.16 9.586.066 13.748-.012 17.894-.106 25.68 7.4 27.8v3.23s-.047 1.292.807 1.557c1.052.333 1.651-.661 2.651-1.73l1.866-2.109c5.135.428 9.069-.557 9.522-.703 1.042-.333 6.912-1.083 7.87-8.87.985-8.044-.478-13.111-3.12-15.404h-.015C26.182 3.038 22.98.704 15.822.678c0 0-.531-.036-1.385-.021v.001zm.088 2.261c.729-.005 1.172.026 1.172.026 6.058.016 8.95 1.84 9.631 2.454 2.224 1.906 3.37 6.474 2.532 13.19-.797 6.51-5.558 6.922-6.44 7.203-.374.12-3.839.974-8.203.693 0 0-3.25 3.923-4.267 4.933-.16.177-.349.229-.469.203-.172-.042-.224-.255-.214-.547l.031-5.36c-6.366-1.76-5.99-8.402-5.923-11.871.078-3.47.73-6.308 2.668-8.23 2.61-2.36 7.298-2.678 9.48-2.694h.002zm.48 3.469a.397.397 0 00-.401.396.4.4 0 00.401.4 7.514 7.514 0 015.376 2.121c1.453 1.411 2.16 3.308 2.188 5.787a.4.4 0 00.401.4v-.015a.4.4 0 00.401-.396 8.616 8.616 0 00-2.417-6.35c-1.583-1.547-3.59-2.344-5.949-2.344zm-5.272.917a1.252 1.252 0 00-.818.16h-.02a6.277 6.277 0 00-1.527 1.256c-.365.422-.563.85-.615 1.26-.031.245-.01.49.063.724l.026.016c.411 1.208.948 2.37 1.604 3.465a20.378 20.378 0 003.095 4.23l.036.051.057.042.036.042.042.036a20.677 20.677 0 004.24 3.11c1.76.958 2.829 1.41 3.47 1.599v.01c.188.057.359.083.53.083a2.452 2.452 0 001.47-.63 6.07 6.07 0 001.24-1.532v-.01c.307-.578.203-1.125-.24-1.495a18.467 18.467 0 00-2.865-2.057c-.683-.37-1.376-.146-1.657.23l-.599.754c-.307.375-.865.323-.865.323l-.016.01c-4.161-1.063-5.271-5.276-5.271-5.276s-.053-.573.333-.865l.75-.605c.359-.292.609-.984.224-1.667a17.996 17.996 0 00-2.053-2.865 1.14 1.14 0 00-.672-.401l.002.002zm5.964 1.188c-.531 0-.531.802.005.802a5.027 5.027 0 013.532 1.531 4.66 4.66 0 011.198 3.428.403.403 0 00.4.396l.017.02a.404.404 0 00.4-.4c.037-1.59-.457-2.923-1.426-3.99-.975-1.069-2.334-1.668-4.069-1.787h-.057zm.657 2.156c-.547-.016-.568.802-.026.818 1.318.068 1.958.734 2.042 2.105a.398.398 0 00.396.39h.017a.404.404 0 00.385-.426c-.095-1.787-1.069-2.793-2.798-2.886h-.016z" fill="#687A95"/></svg>