<svg xmlns="http://www.w3.org/2000/svg" width="38" height="47" viewBox="0 0 38 47"><g><g><path fill="#91bf3e" d="M31.909 16.431v2.818H22.95v-2.42c0-2.25 1.953-3.494 3.596-4.493 1.229-.762 2.35-1.384 2.35-2.163 0-.638-.499-1.138-1.486-1.138-1.02 0-1.69.741-2.072 1.643l-2.592-1.315c.88-1.814 2.399-2.904 4.701-2.904 2.802 0 4.509 1.573 4.509 3.714 0 2.093-1.75 3.162-3.424 4.181-1.122.693-2.206 1.3-2.555 2.077zM17.213 31.502l-3.284-5.555-3.247 5.555H5.749l5.657-9.634-5.4-9.22h4.858l3.102 5.238 3.097-5.238h4.852l-5.42 9.247 5.63 9.607zM35.13.422H2.867A2.813 2.813 0 0 0 .06 3.227v32.273a2.813 2.813 0 0 0 2.807 2.807h19.939l8.823 8.823v-8.823h3.5A2.817 2.817 0 0 0 37.94 35.5V3.228A2.817 2.817 0 0 0 35.13.421z"/></g></g></svg>