<svg xmlns="http://www.w3.org/2000/svg" width="50" height="49" viewBox="0 0 50 49"><g><g><g><g><path fill="#91bf3e" d="M9.807 37.508h-1.92a3.845 3.845 0 0 1-3.841-3.84v-6.53a3.845 3.845 0 0 1 3.841-3.841h1.92zM7.933 19.456c.641-8.738 7.955-15.652 16.854-15.652 7.042 0 13.414 4.435 15.856 11.037a1.92 1.92 0 0 0 3.602-1.333 20.69 20.69 0 0 0-7.477-9.737 20.607 20.607 0 0 0-11.98-3.808A20.605 20.605 0 0 0 10.12 6.038a20.6 20.6 0 0 0-6.072 14.45 7.685 7.685 0 0 0-3.844 6.65v6.53c0 4.235 3.446 7.681 7.682 7.681h3.84c1.062 0 1.921-.86 1.921-1.92V21.376c0-1.06-.86-1.92-1.92-1.92z"/></g><g><path fill="#91bf3e" d="M45.528 33.667a3.845 3.845 0 0 1-3.84 3.841h-1.921V23.297h1.92a3.845 3.845 0 0 1 3.841 3.84zm-3.84-14.211h-3.842c-1.06 0-1.92.86-1.92 1.92v20.07c0 1.058-.862 1.92-1.92 1.92h-5.858v.06a3.841 3.841 0 1 0 0 3.72v.06h5.857a5.768 5.768 0 0 0 5.762-5.76v-.097h1.92c4.236 0 7.682-3.446 7.682-7.682v-6.53c0-4.235-3.446-7.681-7.682-7.681z"/></g></g></g></g></svg>