<svg xmlns="http://www.w3.org/2000/svg" width="50" height="39" viewBox="0 0 50 39"><g><g><path fill="#91bf3e" d="M45.732 20.195l-7.487 15.038h-33.7l7.382-15.799c.18-.383.622-.64 1.102-.64h31.612c.446 0 .839.203 1.05.543a.847.847 0 0 1 .041.858zM15.2 3.857c.083 0 .14.036.158.061l3.111 4.351a2.845 2.845 0 0 0 2.317 1.174h17.357c.098 0 .147.046.16.062v6.496H13.028c-1.567 0-2.993.883-3.632 2.25l-5.65 12.091V3.92c.013-.017.062-.062.16-.062zm32.865 14.01c-.723-1.169-2.003-1.866-3.424-1.866h-3.546V9.497c0-1.57-1.324-2.847-2.952-2.847H20.786a.097.097 0 0 1-.05-.012L17.63 2.294a2.985 2.985 0 0 0-2.43-1.23H3.907C2.278 1.064.954 2.34.954 3.91v31.202c0 1.607 1.357 2.914 3.025 2.914H39.11c.547 0 1.02-.316 1.249-.775h.001l7.873-15.81a3.653 3.653 0 0 0-.168-3.574z"/><path fill="none" stroke="#91bf3e" stroke-miterlimit="20" d="M45.732 20.195l-7.487 15.038h-33.7l7.382-15.799c.18-.383.622-.64 1.102-.64h31.612c.446 0 .839.203 1.05.543a.847.847 0 0 1 .041.858zM15.2 3.857c.083 0 .14.036.158.061l3.111 4.351a2.845 2.845 0 0 0 2.317 1.174h17.357c.098 0 .147.046.16.062v6.496H13.028c-1.567 0-2.993.883-3.632 2.25l-5.65 12.091V3.92c.013-.017.062-.062.16-.062zm32.865 14.01c-.723-1.169-2.003-1.866-3.424-1.866h-3.546V9.497c0-1.57-1.324-2.847-2.952-2.847H20.786a.097.097 0 0 1-.05-.012L17.63 2.294a2.985 2.985 0 0 0-2.43-1.23H3.907C2.278 1.064.954 2.34.954 3.91v31.202c0 1.607 1.357 2.914 3.025 2.914H39.11c.547 0 1.02-.316 1.249-.775h.001l7.873-15.81a3.653 3.653 0 0 0-.168-3.574z"/></g></g></svg>