<svg xmlns="http://www.w3.org/2000/svg" width="58" height="44" viewBox="0 0 58 44"><g><g><g><g><path fill="#91bf3e" d="M50.988 17.866l-9.734-9.734 4.226-4.226 9.734 9.734zm-5.107 2.873A4.255 4.255 0 0 0 44.685 23a12.436 12.436 0 0 1-3.46 6.624l-.698.697-5.74-5.74a4.63 4.63 0 0 0 2.144-.329.907.907 0 1 0-.686-1.679c-2.335.956-5.135-1.677-5.447-1.98a.65.65 0 0 0-.015-.016l-.033-.032-.028-.028-.764-.765.866-.866a.907.907 0 1 0-1.283-1.283l-1.506 1.505-.002.002-.001.002-3.462 3.461a1.826 1.826 0 0 1-3.114-1.29c0-.487.19-.945.534-1.29l5.975-5.975a5.987 5.987 0 0 1 4.25-1.76c.854 0 1.713.185 2.486.535 1.758.798 3.847.426 5.198-.925l1.263-1.262 7.426 7.425zm-5.715 13.534a1.226 1.226 0 0 1-.873.362c-.33 0-.64-.128-.874-.362l-8.801-8.8a.907.907 0 0 0-1.283 1.283l9.48 9.48c.234.234.362.544.362.874 0 .33-.128.64-.361.874a1.238 1.238 0 0 1-1.748 0l-1.6-1.6-.026-.027-.009-.008-7.352-7.352a.907.907 0 0 0-1.283 1.283l7.376 7.376c.225.231.35.537.35.861a1.236 1.236 0 0 1-2.109.873l-7.998-7.997a.907.907 0 1 0-1.283 1.283l5.928 5.928.005.005c.233.233.361.543.361.872 0 .33-.128.64-.362.875a1.225 1.225 0 0 1-1.108.34 3.263 3.263 0 0 0-3.228-3.75l-.072.002a3.255 3.255 0 0 0-.954-2.38 3.245 3.245 0 0 0-2.472-.953 3.258 3.258 0 0 0-.95-2.47 3.265 3.265 0 0 0-3.046-.87l-.65-.651a12.44 12.44 0 0 1-3.446-6.542 4.582 4.582 0 0 0-1.274-2.407l-1.6-1.6 9.1-9.099 2.267 2.268a4.626 4.626 0 0 0 3.274 1.338c.545 0 1.095-.094 1.625-.287a4.27 4.27 0 0 1 .793-.203l-5.618 5.618a3.615 3.615 0 0 0-1.066 2.573c0 .972.379 1.886 1.066 2.573a3.626 3.626 0 0 0 2.573 1.064 3.63 3.63 0 0 0 2.573-1.064l2.822-2.822.763.765h.001l.062.063h.001l.026.026 10.638 10.638c.234.233.362.543.362.873 0 .33-.128.64-.362.874zm-15.41 6.965a1.441 1.441 0 0 1-1.026.425 1.452 1.452 0 0 1 0-2.901c.372 0 .743.141 1.026.424a1.452 1.452 0 0 1 0 2.052zm-3.335-3.335a1.44 1.44 0 0 1-1.026.425 1.452 1.452 0 0 1 0-2.901 1.452 1.452 0 0 1 1.026 2.476zM18 34.481a1.453 1.453 0 0 1-2.477-1.026 1.446 1.446 0 0 1 1.45-1.45c.372 0 .744.141 1.026.424a1.453 1.453 0 0 1 0 2.052zM7.013 18.763l-4.225-4.226 10.98-10.98 4.226 4.225zm50.126-5.764L46.12 1.98a.907.907 0 0 0-1.283 0L39.33 7.49a.907.907 0 0 0 0 1.283l.55.55-1.263 1.262c-.82.82-2.092 1.043-3.165.556a7.884 7.884 0 0 0-3.236-.698 7.806 7.806 0 0 0-3.751.958 6.108 6.108 0 0 0-3.552.19c-1.07.388-2.218.147-2.996-.63L19.65 8.693l.27-.27a.907.907 0 0 0 0-1.283L14.41 1.632a.907.907 0 0 0-1.283 0L.863 13.895a.907.907 0 0 0 0 1.283l5.509 5.51a.907.907 0 0 0 1.283 0l.328-.33 1.6 1.6c.403.403.67.907.773 1.457a14.248 14.248 0 0 0 3.947 7.492l.3.301a3.242 3.242 0 0 0-.896 2.246c0 .873.34 1.693.957 2.31a3.255 3.255 0 0 0 2.472.95c-.044.89.273 1.794.95 2.472a3.244 3.244 0 0 0 2.31.957l.072-.002c-.018.86.299 1.725.953 2.38a3.244 3.244 0 0 0 2.31.957 3.245 3.245 0 0 0 2.457-1.117c.321.112.661.172 1.005.172.815 0 1.582-.318 2.157-.895.306-.306.538-.665.689-1.057l.093.093a3.04 3.04 0 0 0 2.156.892 3.04 3.04 0 0 0 2.157-.892c.316-.316.553-.69.704-1.096.532.387 1.162.58 1.792.58a3.044 3.044 0 0 0 3.051-3.048c0-.247-.03-.488-.086-.722a3.026 3.026 0 0 0 1.544-.832 3.03 3.03 0 0 0 .893-2.157c0-.641-.198-1.252-.563-1.765l.728-.728a14.243 14.243 0 0 0 3.964-7.585 2.45 2.45 0 0 1 .692-1.3l2.707-2.706.476.475a.904.904 0 0 0 1.283 0l5.51-5.508a.907.907 0 0 0-.001-1.283z"/><path fill="none" stroke="#91bf3e" stroke-miterlimit="20" stroke-width=".5" d="M50.988 17.866l-9.734-9.734 4.226-4.226 9.734 9.734zm-5.107 2.873A4.255 4.255 0 0 0 44.685 23a12.436 12.436 0 0 1-3.46 6.624l-.698.697-5.74-5.74a4.63 4.63 0 0 0 2.144-.329.907.907 0 1 0-.686-1.679c-2.335.956-5.135-1.677-5.447-1.98a.65.65 0 0 0-.015-.016l-.033-.032s0 0 0 0l-.028-.028s0 0 0 0l-.764-.765.866-.866a.907.907 0 1 0-1.283-1.283l-1.506 1.505-.002.002-.001.002-3.462 3.461a1.826 1.826 0 0 1-3.114-1.29c0-.487.19-.945.534-1.29l5.975-5.975a5.987 5.987 0 0 1 4.25-1.76c.854 0 1.713.185 2.486.535 1.758.798 3.847.426 5.198-.925l1.263-1.262 7.426 7.425zm-5.715 13.534a1.226 1.226 0 0 1-.873.362c-.33 0-.64-.128-.874-.362l-8.801-8.8a.907.907 0 0 0-1.283 1.283l9.48 9.48c.234.234.362.544.362.874 0 .33-.128.64-.361.874a1.238 1.238 0 0 1-1.748 0l-1.6-1.6-.026-.027-.009-.008-7.352-7.352a.907.907 0 0 0-1.283 1.283l7.376 7.376c.225.231.35.537.35.861a1.236 1.236 0 0 1-2.109.873l-7.998-7.997a.907.907 0 1 0-1.283 1.283l5.928 5.928.005.005c.233.233.361.543.361.872 0 .33-.128.64-.362.875a1.225 1.225 0 0 1-1.108.34 3.263 3.263 0 0 0-3.228-3.75l-.072.002a3.255 3.255 0 0 0-.954-2.38 3.245 3.245 0 0 0-2.472-.953 3.258 3.258 0 0 0-.95-2.47 3.265 3.265 0 0 0-3.046-.87l-.65-.651a12.44 12.44 0 0 1-3.446-6.542 4.582 4.582 0 0 0-1.274-2.407l-1.6-1.6 9.1-9.099 2.267 2.268a4.626 4.626 0 0 0 3.274 1.338c.545 0 1.095-.094 1.625-.287a4.27 4.27 0 0 1 .793-.203l-5.618 5.618a3.615 3.615 0 0 0-1.066 2.573c0 .972.379 1.886 1.066 2.573a3.626 3.626 0 0 0 2.573 1.064 3.63 3.63 0 0 0 2.573-1.064l2.822-2.822.763.765h.001l.062.063s0 0 0 0h.001l.026.026 10.638 10.638c.234.233.362.543.362.873 0 .33-.128.64-.362.874zm-15.41 6.965a1.441 1.441 0 0 1-1.026.425 1.452 1.452 0 0 1 0-2.901c.372 0 .743.141 1.026.424a1.452 1.452 0 0 1 0 2.052zm-3.335-3.335a1.44 1.44 0 0 1-1.026.425 1.452 1.452 0 0 1 0-2.901 1.452 1.452 0 0 1 1.026 2.476zM18 34.481a1.453 1.453 0 0 1-2.477-1.026 1.446 1.446 0 0 1 1.45-1.45c.372 0 .744.141 1.026.424a1.453 1.453 0 0 1 0 2.052zM7.013 18.763l-4.225-4.226 10.98-10.98 4.226 4.225zm50.126-5.764L46.12 1.98a.907.907 0 0 0-1.283 0L39.33 7.49a.907.907 0 0 0 0 1.283l.55.55-1.263 1.262c-.82.82-2.092 1.043-3.165.556a7.884 7.884 0 0 0-3.236-.698 7.806 7.806 0 0 0-3.751.958 6.108 6.108 0 0 0-3.552.19c-1.07.388-2.218.147-2.996-.63L19.65 8.693l.27-.27a.907.907 0 0 0 0-1.283L14.41 1.632a.907.907 0 0 0-1.283 0L.863 13.895a.907.907 0 0 0 0 1.283l5.509 5.51a.907.907 0 0 0 1.283 0l.328-.33 1.6 1.6c.403.403.67.907.773 1.457a14.248 14.248 0 0 0 3.947 7.492l.3.301a3.242 3.242 0 0 0-.896 2.246c0 .873.34 1.693.957 2.31a3.255 3.255 0 0 0 2.472.95c-.044.89.273 1.794.95 2.472a3.244 3.244 0 0 0 2.31.957l.072-.002c-.018.86.299 1.725.953 2.38a3.244 3.244 0 0 0 2.31.957 3.245 3.245 0 0 0 2.457-1.117c.321.112.661.172 1.005.172.815 0 1.582-.318 2.157-.895.306-.306.538-.665.689-1.057l.093.093a3.04 3.04 0 0 0 2.156.892 3.04 3.04 0 0 0 2.157-.892c.316-.316.553-.69.704-1.096.532.387 1.162.58 1.792.58a3.044 3.044 0 0 0 3.051-3.048c0-.247-.03-.488-.086-.722a3.026 3.026 0 0 0 1.544-.832 3.03 3.03 0 0 0 .893-2.157c0-.641-.198-1.252-.563-1.765l.728-.728a14.243 14.243 0 0 0 3.964-7.585 2.45 2.45 0 0 1 .692-1.3l2.707-2.706.476.475a.904.904 0 0 0 1.283 0l5.51-5.508a.907.907 0 0 0-.001-1.283z"/></g></g></g></g></svg>