<svg xmlns="http://www.w3.org/2000/svg" width="40" height="45" viewBox="0 0 40 45"><g><g><g><g><g><path fill="#91bf3e" d="M28.052 19.275c0-.947-.767-1.714-1.713-1.714H8.686a1.714 1.714 0 1 0 0 3.427H26.34c.946 0 1.713-.767 1.713-1.713z"/></g><g><path fill="#91bf3e" d="M8.686 24.416a1.714 1.714 0 1 0 0 3.428h10.721a1.714 1.714 0 1 0 0-3.428z"/></g><g><path fill="#91bf3e" d="M12.714 40.869H6.982a3.432 3.432 0 0 1-3.428-3.428V7.278A3.432 3.432 0 0 1 6.982 3.85h21.07a3.432 3.432 0 0 1 3.428 3.428v10.54a1.714 1.714 0 1 0 3.428 0V7.278A6.863 6.863 0 0 0 28.053.422H6.982A6.863 6.863 0 0 0 .126 7.278V37.44a6.863 6.863 0 0 0 6.856 6.856h5.732a1.714 1.714 0 1 0 0-3.428z"/></g><g><path fill="#91bf3e" d="M35.521 30.083l-.332.331-2.424-2.424.331-.33a1.716 1.716 0 0 1 2.424 0c.668.669.668 1.756.001 2.423zm-9.07 9.052l-3.48.964 1.019-3.353 6.349-6.335 2.424 2.425zm11.492-13.899a5.147 5.147 0 0 0-7.27-.001l-9.409 9.388c-.2.2-.347.445-.429.715l-2.05 6.747a1.714 1.714 0 0 0 2.098 2.15l6.918-1.917c.284-.079.544-.23.753-.439l9.39-9.371a5.147 5.147 0 0 0 0-7.272z"/></g><g><path fill="#91bf3e" d="M26.339 10.705H8.686a1.714 1.714 0 1 0 0 3.428H26.34a1.714 1.714 0 1 0 0-3.428z"/></g></g></g></g></g></svg>