<svg width="568" height="377" fill="none" xmlns="http://www.w3.org/2000/svg"><g clip-path="url(#clip0)"><path d="M271.8 322.8c-146.4 0-265.2 10.2-265.2 23s164 30.6 310.4 30.6c146.4 0 220-18 220-30.6 0-12.6-118.6-23-265.2-23z" fill="#ECECEC"/><path fill-rule="evenodd" clip-rule="evenodd" d="M308.334 201.029c52.578-35.027 163.625-55.468 184.628-63.599 103.806-40.183 4.693-124.67-62.428-132.747C263.195-15.455-21.401 26.303 1.277 189.749c14.77 106.451 145.179 119.124 307.057 11.28zm204.32 68.438c16.014-10.528 25.686-13.036 38.529-19.556 5.783-2.935 11.856-6.125 14.884-11.147 3.295-5.465 2.178-12.302-1.836-17.397-4.013-5.095-10.578-8.558-17.581-10.425-13.915-3.712-29.127-1.528-43.243 1.753-18.988 4.415-37.329 10.766-54.471 18.863-13.74 6.492-27.165 14.509-34.817 25.966-7.653 11.457-10.149 51.419 43.486 44.725 29.733-3.71 39.035-22.254 55.049-32.782z" fill="#C6CEE2"/><path d="M400.4 331.4l-42.4-111c-1-2.6-3.8-4-6.6-3-2.6 1-4 3.8-3 6.6 0 .2 0 .2.2.4l50 108c.2.4.8.8 1.2.6.6-.6.8-1.2.6-1.6zm-48.2 3.2L330.8 218c-.4-2.8-3.2-4.6-6-4.2-2.8.4-4.6 3.2-4.2 6v.4L350 335c.2.6.6.8 1.2.8.8-.2 1-.6 1-1.2zm-76.6-.8l35.2-113.4c.8-2.8-.8-5.6-3.4-6.4-2.8-.8-5.6.8-6.4 3.4v.4l-27.2 115.4c-.2.6.2 1 .8 1.2.2 0 .8-.2 1-.6zm-33.001-1.8l50-108c1.2-2.6 0-5.6-2.6-6.8-2.6-1.2-5.6 0-6.8 2.6 0 .2 0 .2-.2.4l-42.2 111c-.2.6 0 1 .6 1.2.6.4 1 .2 1.2-.4z" fill="#89A1AE"/><path d="M246 221.2c15.6 14.6 110 11.2 126.8 0 11-7.4 16-64.8 17-84.8.6-12.4-4.2-19.8-11.4-23.4-4.4-2.2-9.8-3.2-15.6-2.8-38.4 1.6-37 69.6-50.4 86-16.6 20-50.4 18.4-57.2 17.8-4-.4-7.6 1-9.2 2.8-1.2 1.4-1.4 3 0 4.4z" fill="#fff"/><path d="M372.6 222.8c-.6 0-1-.2-1.4-.8-.6-.8-.4-1.8.4-2.4 9.2-6.2 14.8-54.6 16.2-83.6.6-10.8-3-18-10.4-21.8-4-2-9-3-14.8-2.8-1 0-1.6-.6-1.8-1.6 0-1 .6-1.8 1.6-1.8 6.2-.2 12 .8 16.4 3 6 3 13 9.8 12.2 25 0 .8-3.8 76.8-17.8 86.2.2.6-.2.6-.6.6z" fill="#89A1AE"/><path d="M360.4 227.4c-.8 0-1.4-.6-1.6-1.4-.2-1 .4-1.8 1.2-2 3.6-.8 9-2.4 11.6-4.2.8-.6 1.8-.4 2.4.4.6.8.4 1.8-.4 2.4-4 2.6-11.4 4.4-12.8 4.8h-.4z" fill="#62737D"/><path d="M358 112.4l-.8-3.2.8-.2c.8-.2 1.8.2 2 1.2.2.8-.2 1.8-1.2 2l-.8.2z" fill="#1E1E77"/><path d="M345.4 181.2c0 15-16 27-35.6 27s-55.2 3.6-55.2-11.4 26.6-42.8 55.2-42.8c28.6.2 35.6 12.2 35.6 27.2z" fill="#2A4FAA"/><path d="M333.2 34c8.2 11.6 28 9.2 34.8 19.8 7.4 11.6-2 21.6 13.6 29.6 12.4 6.4 25.2 21.8 21.6 37.8-3.2 13.6-14 27.4-38.2 24.6-26.6-3.2-39.2-20.6-54-44.6-19.8-32 1-31.6 3.2-47.2.4-2.4 13.2-28.2 16.2-25.8 1.2.8 2 4.8 2.8 5.8 2.2 3.2-.8-1 0 0z" fill="#1B1B1B"/><path d="M317.6 27.8c6.2 12.6-7.2 31.4-14.4 12.2-5.2-13.6 8.6-24.2 14.4-12.2z" fill="#1B1B1B"/><path d="M315.8 78.2c2.8 1.2 5.4 2.4 8.2 3.8 3.8-12.4 3.8-26.2-.2-38.6-2.8 1.2-5.4 2.6-8.2 3.8 3.2 9.8 3.4 21 .2 31zm-62.2 24.2c-.2-2-.4-3.8-1.4-5.4-1.6-2.8-4.8-6.2-8.4-5.6-3.2.6-4.4 4.8-2.8 7.4 1.4 2.2 4 1.6 6.2 1.8 2.2.2 4.4.8 6 2.4l.4-.6z" fill="#F5F5F5"/><path d="M303.2 63.6c5-1.2 11.2-1 15.2-1-.2 2-.6 4.4 2.2 5.2 2.6.8 6-1.6 6.4-4.2 8 2.2 12.4 6.2 15.8 10.2 8.4 10-9.4 80.6-10 86-.8 5.6-24.4 6.2-33.2 1-2.8-1.2-18-92.4 3.6-97.2z" fill="#682DB3"/><path d="M315.8 47c2.8-1.2 5.4-2.6 8.2-3.8 1.4 4.4 2.2 9 2.6 13.6-1.4 2.4-3.4 3.8-5.6 3.8-1 0-2-.2-3-.8-.2-4.2-1-8.6-2.2-12.8z" fill="#DADADA"/><path d="M307.4 42.4c0 7.2 4.2 13 9.2 13 5 0 9-5.8 9-13s-4.6-10.8-9.2-13c-9-4.6-9 5.8-9 13z" fill="#F5F5F5"/><path d="M324.4 135.8c-4.8 0-10.8 2.8-11.8 4.4-.6 1.2 11.2 1.6 12.4 1.6 4.8 0 2.2-6-.6-6-.8-.2.6 0 0 0z" fill="#fff"/><path d="M250.6 97.4c-.4-1.8-1.8-3-3.4-3.4-.8-.2-1.6-.2-2.4 0-.4.2-1 .4-1.2.8 0 .6.4 1.2.8 1.6.6.6 1.4.8 2.2.8 1.4.2 2.6 0 4 .2z" fill="#F5F5F5"/><path d="M255.4 102.8s.4.2 1 .8l2.4 2.4c2 2 4.8 4.8 7.8 8 1.4 1.6 3.2 3.2 4.6 4.4.8.6 1.6 1 1.6.8 0 0-.2-.4-1.2-.8-.6-.2-1.4-.2-2.2-.2-1 0-1.8.4-2.4.8-.6.4-1 .6-1.4 1-.2 0-.2.2-.2.2l-.2.2.2-.2c.2-.2 0-.2 0-.2v-.2l.2-.6c.4-1 .8-2.4 1.2-3.6 1-2.8 1.8-5.6 2.8-8.6 4-11.8 9-24 15.8-32.6 1.8-2.2 3.6-4.2 5.6-5.8 2-1.6 4.2-3 6.2-4s4-1.4 5.4-1.6c.6 0 1.2-.2 1.6-.2h.6c3.4-.2 6.2 2.6 6.4 6 0 1.2-.2 2.4-.8 3.2l-4 6.8-.2.2-.6.6c-.4.4-.8 1-1.6 1.8-.8 1-1.6 2.2-2.4 3.8-1.8 3.2-4 7.6-6 12.6-1 2.4-2.2 5.2-3.2 7.8-1.2 2.8-2.2 5.6-3.4 8.4-1.2 2.8-2.4 5.8-3.8 8.6-.8 1.4-1.4 3-2.4 4.6l-.8 1.8-.4.8c-.2.2-.4.8-.6.8l-.2.2-.2.2-.2.2-.2.2c-.2.4-.6.8-1 1.2-.8.8-1.6 1.6-3 2.4-1.2.8-2.8 1.4-4.4 1.6-1.6.2-3.2 0-4.4-.4-2.6-.6-4-1.8-5-2.6-2.2-1.8-3.2-3.4-4-5-1.8-3-2.6-5.6-3.4-8.2-1.4-5-1.6-9.2-1.6-12.2 0-1.6 0-2.6.2-3.6 0-.8.2-1.2.2-1.2.2-.6.6-.8 1.2-.8.2 0 .4.2.4.2zm125.4 23c-.4-3.4-1.4-5.6-2.4-7.8-1.8-4-3.8-7.2-5.8-10.2-2-3-4-5.8-6-8.2-2-2.6-4-5-6-7.2s-3.8-4.2-5.4-6c-3.4-3.6-6.2-6.6-8-8.6l-2.2-2.2c-.4-.6-.8-.8-.8-.8 0-.2-.2-.2-.4-.4-5.4-5.4-14.4-5.4-19.8 0s-5.4 14.4 0 19.8l.8.8 2.6 2.6c2.2 2 5.2 4.8 9 8 3.6 3.2 7.8 6.8 12.2 10.6 2.2 2 4.4 4 6.4 6 1.2 1.2 2.4 2.4 3.4 3.6l-3 .6c-1.6.4-3 .8-4.6 1-3 .8-5.6 1.8-8.2 2.6-2.4.8-14 5.8-15.2 6.8-1.2 1 0 3 0 3.2 0 .6.6.8 1 .8 0 0 .4 0 1.2-.2.8 0 1.8-.2 3.4-.4 2.8-.2 6.8-.4 11.6-.2 2.4 0 5 .2 7.6.4 1.4.2 2.6.2 4 .4s2.8.2 4.2.4c.8 0 1.6.2 2.4.2h1c.2 0-.2 0 0 0h1.6c1.2 0 2.4 0 4-.2s3.4-.8 5.4-2.2c2-1.2 4.2-4 5-6.6 1.2-2.6 1.2-4.8 1-6.6z" fill="#682DB3"/><path d="M327.6 140.8c-.4 0-.8-.4-.8-.8-.2-.6-1.2-2.8.4-4 1.4-1 13.4-6 15.4-6.8 2.4-1 5.2-2 8.2-2.8l1.4-.4c1-.2 2.2-.6 3.2-.8l1.6-.2-2.4-2.4c-2.4-2.4-4.4-4.2-6.4-6-3.8-3.4-7.8-6.8-12.2-10.6-.4-.4-.4-.8 0-1.2.4-.4.8-.4 1.2 0 4.4 3.8 8.6 7.4 12.2 10.6 2 1.8 4 3.6 6.4 6l3.6 3.6c.2.2.2.6.2.8 0 .2-.4.4-.6.6l-3 .6c-1 .2-2.2.4-3.2.8l-1.4.4c-2.8.8-5.6 1.6-8 2.6-2.6 1-14 5.8-15 6.6-.4.4-.2 1.2.2 2 0 .2.2.4.2.6-.2.2-.6.6-1.2.8.2 0 .2 0 0 0z" fill="#34175A"/><path d="M313.6 34.8c4.8 4.4 11.6 7.6 17.8 9.8 9 3.4 2.4-14.6.6-17.8-10.2-16.8-35.8-8-18.4 8 1.8 1.6-.2-.2 0 0z" fill="#1B1B1B"/><path d="M323.2 41c-.2 2.2.8 4 2.2 4.2 1.4 0 2.6-1.6 2.8-3.8.2-2.2-.8-4-2.2-4.2-1.4-.2-2.6 1.6-2.8 3.8z" fill="#fff"/><path d="M332.6 65.6c-.4 2.4-4.2 11.6-9.4 16.6-2.4 2.4-4.6 3.4-6.8 3.4-2.6-.2-4.4-1.6-5.8-4.2-2.6-5.4-1.8-14.6-.6-18.6h-1c-1.2 4.4-2 13.4.8 19 1.4 3 3.6 4.6 6.6 4.8h.4c2.2 0 4.6-1.2 7.2-3.6 5.2-5.2 9.4-14 9.6-16.8l-1-.6z" fill="#C4E6F9"/><path d="M314.4 85.8c0-1 .8-1.8 1.8-1.8s1.8.8 1.8 1.8-.8 1.8-1.8 1.8c-1 .2-1.8-.8-1.8-1.8zm-4.6-2c0-1 .8-1.8 1.8-1.8s1.8.8 1.8 1.8-.8 1.8-1.8 1.8-1.8-.8-1.8-1.8zm-2.4-4.6c0-1 .8-1.8 1.8-1.8s1.8.8 1.8 1.8-.8 1.8-1.8 1.8-1.8-.8-1.8-1.8zm-.6-5.2c0-1 .8-1.8 1.8-1.8s1.8.8 1.8 1.8-.8 1.8-1.8 1.8-1.8-.8-1.8-1.8zm0-5c0-1 .8-1.8 1.8-1.8s1.8.8 1.8 1.8-.8 1.8-1.8 1.8-1.8-.6-1.8-1.8zm.6-4.6c0-1 .8-1.8 1.8-1.8s1.8.8 1.8 1.8-.8 1.8-1.8 1.8-1.8-.8-1.8-1.8zm12.2 20.2c0-1 .8-1.8 1.8-1.8s1.8.8 1.8 1.8-.8 1.8-1.8 1.8c-1 .2-1.8-.6-1.8-1.8zm3.6-3.6c0-1 .8-1.8 1.8-1.8s1.8.8 1.8 1.8-.8 1.8-1.8 1.8c-.8 0-1.8-.8-1.8-1.8zm3-3.8c0-1 .8-1.8 1.8-1.8s1.8.8 1.8 1.8S329 79 328 79s-1.8-.8-1.8-1.8zm2.4-4.4c0-1 .8-1.8 1.8-1.8s1.8.8 1.8 1.8-.8 1.8-1.8 1.8c-.8 0-1.8-.8-1.8-1.8zm2-4.6c0-1 .8-1.8 1.8-1.8s1.8.8 1.8 1.8-.8 1.8-1.8 1.8-1.8-.8-1.8-1.8z" fill="#C4E6F9"/><path d="M311.6 337s-.4-.6-1-1.6-1.6-2.6-2.8-4.4c-2.2-3.8-5.4-9.2-9-15.8-7.2-13.2-16.6-31.2-24.8-49.8-4.2-9.4-8-18.8-11.4-28-3.2-9.4-6-18.4-7.2-27.4-.6-4.6-1-9.2-.2-14.2 0-.6.2-1.4.4-2 .2-.6.2-1.2.4-2s.4-1.4.6-2c.2-.8.6-1.4.8-2.2 1.2-3 3-6 5.8-8.6 1.2-1.2 2.8-2.4 4.2-3.2 1.4-.8 3-1.6 4.2-2 1.4-.4 2.6-.8 3.6-1 1-.2 2-.4 2.8-.4.8-.2 1.6-.2 2.2-.2h2.6c10 .8 17.6 9.6 16.6 19.8-.8 10-9.6 17.6-19.8 16.6h.6c.2 0 .2 0 .6-.2.2 0 .6-.2 1-.2s1-.2 1.4-.4c.6-.2 1.2-.6 1.8-1 .6-.4 1.2-1 1.8-1.4 1-1.2 1.6-2.2 1.6-2.8v-.4h-.2s-.2 0-.2.2c-.4.8-1 3.2-1.2 6-.4 5.8.2 14 1.4 22.8s3.2 18.4 5.4 28c4.4 19.2 9.8 38.2 14.4 52.4 2.2 7 4.2 13 5.8 17 .8 2 1.4 3.6 1.8 4.6.4 1 .6 1.6.6 1.6.6 1.4-.2 3-1.6 3.6-1 .2-2.4-.2-3-1.4z" fill="#2A4FAA"/><path d="M337.2 337s-.4-.6-1-1.6-1.6-2.6-2.8-4.4c-2.2-3.8-5.4-9.2-9-15.8-7.2-13.2-16.6-31.2-24.8-49.8-4.2-9.4-8-18.8-11.4-28-3.2-9.4-6-18.4-7.2-27.4-.6-4.6-1-9.2-.2-14.2 0-.6.2-1.4.4-2 .2-.6.2-1.2.4-2s.4-1.4.6-2c.2-.8.6-1.4.8-2.2 1.2-3 3-6 5.8-8.6 1.2-1.2 2.8-2.4 4.2-3.2 1.4-.8 3-1.6 4.2-2 1.4-.4 2.6-.8 3.6-1 1-.2 2-.4 2.8-.4.8-.2 1.6-.2 2.2-.2h2.6c10 .8 17.6 9.6 16.6 19.8-.8 10-9.6 17.6-19.8 16.6h.6c.2 0 .2 0 .6-.2.2 0 .6-.2 1-.2s1-.2 1.4-.4c.6-.2 1.2-.6 1.8-1 .6-.4 1.2-1 1.8-1.4 1-1.2 1.6-2.2 1.6-2.8v-.4h-.2s-.2 0-.2.2c-.4.8-1 3.2-1.2 6-.4 5.8.2 14 1.4 22.8s3.2 18.4 5.4 28c4.4 19.2 9.8 38.2 14.4 52.4 2.2 7 4.2 13 5.8 17 .8 2 1.4 3.6 1.8 4.6.4 1 .6 1.6.6 1.6.6 1.4-.2 3-1.6 3.6-.8.2-2.2-.2-3-1.4z" fill="#2A4FAA"/><path d="M324.6 316.2c-.2 0-.6-.2-.8-.4-5.2-9.4-15.4-28.6-24.8-49.8-4.6-10.4-8.4-19.6-11.4-28.2-2.8-8-5.8-17.6-7.2-27.6 0-.4.2-.8.8-1 .4 0 .8.2 1 .8 1.4 9.8 4.4 19.2 7.2 27.2 3 8.4 6.6 17.6 11.4 28 9.4 21.2 19.6 40.2 24.8 49.6.2.4 0 1-.4 1.2-.4 0-.6.2-.6.2z" fill="#1F387A"/><path d="M316.4 334.6s-.2-.6-.6-1.6c-.4-1-1-2.6-1.8-4.6-.8-2.4-1.8-5.2-3-8.8-.8.8-1.6 1.6-2.4 2.2-1.4 1-3 1.8-4.6 2.4 1.6 2.8 3 5.2 4.2 7 1.2 1.8 2 3.4 2.8 4.4.6 1 1 1.6 1 1.6.6 1 2 1.6 3.2 1 1-.6 1.8-2.2 1.2-3.6zm25.6 0s-.2-.6-.6-1.6c-.4-1-1-2.6-1.8-4.6-.8-2-1.6-4.6-2.6-7.6-2 2-4.2 3.8-6.6 5 1.2 2 2.2 4 3.2 5.4 1.2 1.8 2 3.4 2.8 4.4.6 1 1 1.6 1 1.6.6 1 2 1.6 3.2 1 1.4-.6 2-2.2 1.4-3.6z" fill="#1B1B1B"/><path d="M356.6 205.2H96.4L94.2 195h264.4l-2 10.2zm6.8-10.2h-274l-2.2-10h278.4l-2.2 10z" fill="#FFAA18"/><path d="M88 333.8h3.4L115.2 195H100L88 333.8zm276.8 0h-3.2l-24-138.8h15.2l12 138.8z" fill="#FFAA18"/><path d="M154.4 196.4h-65c-.4 0-.8-.6-.8-1.2 0-.8.4-1.2.8-1.2h64.8c.4 0 .8.6.8 1.2s-.2 1.2-.6 1.2zm73 10.2h-131c-.4 0-.8-.6-.8-1.2 0-.8.4-1.2.8-1.2h131c.4 0 .8.6.8 1.2-.2.6-.6 1.2-.8 1.2zm13.2 0h-7c-.4 0-.8-.6-.8-1.2 0-.8.4-1.2.8-1.2h7c.4 0 .8.6.8 1.2s-.4 1.2-.8 1.2zm8 0h-2.2c-.4 0-.8-.6-.8-1.2 0-.8.4-1.2.8-1.2h2.2c.4 0 .8.6.8 1.2-.2.6-.4 1.2-.8 1.2z" fill="#CC8813"/><path d="M88.2 335.2c-.2 0-.2 0 0 0-.6-.2-.8-.8-.8-1.4l11-128.6c0-.6.4-1.2.8-1 .4.2.6.8.6 1.4l-11 128.6c0 .6-.4 1-.6 1z" fill="#FFAC00"/><path d="M91.4 335.2H88c-.4 0-.8-.6-.8-1.2s.4-1.2.8-1.2h3.2c.4 0 .8.6.8 1.2s-.2 1.2-.6 1.2zm67.4-138.8h-1c-.4 0-.8-.6-.8-1.2 0-.8.4-1.2.8-1.2h1c.4 0 .8.6.8 1.2s-.4 1.2-.8 1.2z" fill="#FFAC00"/><path d="M354.4 294c-.4 0-.6-.4-.6-1l-15-87.4c-.2-.6 0-1.4.4-1.6.4-.2.8.2 1 .8l15 87.4c.2.6 0 1.4-.4 1.6-.2.2-.2.2-.4.2z" fill="#CC8813"/><path d="M356.6 206.6h-.2c-.4-.2-.6-1-.4-1.6l2-10.2c.2-.6.6-1 1-.8.4.2.6 1 .4 1.6l-2 10.2c-.2.4-.6.8-.8.8z" fill="#FFAC00"/><path d="M356.6 206.6h-30.8c-.4 0-.8-.6-.8-1.2 0-.8.4-1.2.8-1.2h30.8c.4 0 .8.6.8 1.2s-.4 1.2-.8 1.2zm9-20.4h-89.8c-.4 0-.8-.6-.8-1.2 0-.8.4-1.2.8-1.2h89.8c.4 0 .8.6.8 1.2s-.4 1.2-.8 1.2zM89.4 196.4c-.2 0-.6-.4-.6-.8l-2.2-10.2c-.2-.6 0-1.4.4-1.6.4-.2.8 0 1 .8l2.2 10.2c.2.6 0 1.4-.4 1.6h-.4z" fill="#CC8813"/><path d="M364.8 335.2h-3.2c-.4 0-.8-.6-.8-1.2s.4-1.2.8-1.2h3.2c.4 0 .8.6.8 1.2s-.4 1.2-.8 1.2z" fill="#FFAC00"/><path d="M364.8 335.2c-.4 0-.6-.4-.8-1l-2-23.8c0-.6.2-1.4.6-1.4.4-.2.8.4.8 1l2 23.8c.2.6 0 1.2-.6 1.4.2 0 0 0 0 0z" fill="#CC8813"/><path d="M294.4 184.8h-86.6l8.2-83.6h86.4l-8 83.6z" fill="#B0CFE0"/><path d="M213.8 178l6.8-70h76l-7 70h-75.8z" fill="#4C5365"/><path d="M253.6 176H187v8.8h66.6V176z" fill="#89A1AE"/><path d="M294.2 176h-40.8v8.8h40.8V176z" fill="#B0CFE0"/><path d="M302.4 102h-53.8c-.4 0-.8-.4-.8-.8s.4-.8.8-.8h53.8c.4 0 .8.4.8.8.2.4-.2.8-.8.8z" fill="#62737D"/><path d="M294.4 185.6c-.2 0-.2 0 0 0-.6 0-.8-.4-.8-1l8.2-83.6c0-.4.4-.8 1-.8.4 0 .8.4.8 1l-8.2 83.6c-.2.4-.6.8-1 .8zM243 102h-8.2c-.4 0-.8-.4-.8-.8s.4-.8.8-.8h8.2c.4 0 .8.4.8.8s-.2.8-.8.8zm-13 0h-1c-.4 0-.8-.4-.8-.8s.4-.8.8-.8h1c.4 0 .8.4.8.8s-.4.8-.8.8zm59.8 74.8c-.6 0-.8-.4-.8-1l6.6-68c0-.4.4-.8 1-.8.4 0 .8.4.8 1l-6.6 68c-.2.4-.6.8-1 .8z" fill="#62737D"/><path d="M289.8 176.8h-16.4c-.4 0-.8-.4-.8-.8s.4-.8.8-.8h16.4c.4 0 .8.4.8.8s-.2.8-.8.8z" fill="#62737D"/><path d="M187 185.6c-.4 0-.8-.4-.8-.8V176c0-.4.4-.8.8-.8s.8.4.8.8v8.8c0 .4-.4.8-.8.8z" fill="#1E1E77"/><path d="M253.4 176.8h-66.6c-.4 0-.8-.4-.8-.8s.4-.8.8-.8h66.6c.4 0 .8.4.8.8s-.4.8-.8.8z" fill="#62737D"/><path d="M161.4 55.6c3.2-2.8 3.2-14.2 13.6-15.8 10.4-1.6 14 5.8 3 10.8-11 5-10 7.8-14.4 8.8-4.2 1.2-2.2-3.8-2.2-3.8z" fill="#F5F5F5"/><path d="M162.8 51.6s-32.4 40-46 35.4h-.2l-11.2 24.4c2.2 1 4.6 1.8 7.6 2 20.6 1.8 55.6-55.8 55.6-55.8l-5.8-6z" fill="#EF325E"/><path d="M170.8 51.4c0 .4.2.8.6.8l19 3.4c.4 0 .8-.2.8-.6l5.6-32c0-.4-.2-.8-.6-.8l-19-3.4c-.4 0-.8.2-.8.6l-5.6 32z" fill="#B0CFE0"/><path d="M177.844 20.324l-4.668 26.594 17.334 3.05 4.667-26.593-17.333-3.05z" fill="#682DB3"/><path opacity=".15" d="M195.2 23.4l-8.4-1.4L175 37.2l-1.8 9.8 4.8.8 16.8-21.2.4-3.2z" fill="#fff"/><path d="M180 50.8c0-1 .8-1.6 1.6-1.6 1 0 1.6.8 1.6 1.6 0 1-.8 1.6-1.6 1.6-1 .2-1.6-.6-1.6-1.6z" fill="#CAE9FA"/><path d="M89 47.2c.8 11 8 19.4 16.4 19 8.2-.6 14.4-9.8 13.8-20.8-.8-11-8-19.4-16.4-19-8.4.6-14.6 9.8-13.8 20.8z" fill="#F5F5F5"/><path d="M98.2 80.8c4.2 0 7.8-2.8 8.8-7.2l4.6-21.4c1-4.8-2-9.6-7-10.8-5-1-9.6 2-10.8 7l-4.6 21.4c-1 4.8 2 9.6 7 10.8.8 0 1.4.2 2 .2z" fill="#F5F5F5"/><path d="M111.8 18.4c7.2 1.6 5.4 12.8-3.4 17.2-8.8 4.4 5.8 19.2 10 17.6 5-1.8 3.2 14.6-4.6 15.2-10.2.6-5.4-15.4-5.4-15.4s-4.8-14-5.6-6c-.8 8 5.8 1.2 3.2 7.8-2.6 6.6-19.8 14.2-22.4-3-3.6-22 16.6-36 28.2-33.4z" fill="#444"/><path d="M189.8 66c1.4-4 10.2-6.2 7.6-16.4-2.6-10.2-8.8-13-9.2-.8-.6 12.2-3.4 12-2.8 16.6.8 4.4 4.4.6 4.4.6z" fill="#F5F5F5"/><path d="M157.8 112.4c-8 .8-14.6-42.6-63-42.6-67.2 0-18.2 96.4-18.6 104.4-.6 8 58.6 1.8 58.6 1.8s-5.8-47.4-2.4-49c3.6-1.6 15.4 17.4 33 11 19.6-7 27.2-74 27.2-74l-7.6-3s-12.8 50-27.2 51.4z" fill="#EF325E"/><path d="M76.2 175c.4 0 .8-.4.8-.8 0-1.6-1.2-5.2-3.8-12.4-6.8-19.4-21.2-59.6-7.2-79.4 5.6-7.8 15.2-11.8 28.6-11.8 33.6 0 46.6 21 54.4 33.6 3.4 5.6 5.8 9.2 8.6 9 14.8-1.6 27.2-50 27.8-52 .2-.4-.2-1-.6-1-.4-.2-1 .2-1 .6-.2.4-12.8 49.4-26.4 50.8-1.8.2-4-3.4-7-8.2C142.8 90.6 129.4 69 95 69c-14 0-24.2 4.2-30 12.6-14.4 20.4-.6 59.8 7 81 2 5.8 3.8 10.4 3.6 11.8-.2.2.2.6.6.6z" fill="#A72342"/><path d="M132.4 127c3.2-1.4 13.4 14.4 28.6 12.2-4.4 1-26.2-19-39.8-33.4-13.4-14.2-10.4 53-4.8 72 10.2-.6 18.4-1.6 18.4-1.6s-5.8-47.6-2.4-49.2z" fill="#D72D55"/><path d="M76 174.2c-2.6 16 .4 52.6 19.6 51.6 19.2-1 54.6-5 54.8 12 .2 20.4-6.6 108.4-6.6 108.4l5.8-.2s37.8-123.8 21.6-144.8c-16.2-21-53.8-25.2-53.8-25.2L76 174.2z" fill="#1B1B1B"/><path d="M76.2 174.2c-3 16-2.8 52.6 19.4 51.6s78.8-5 79.2 12c.2 20.4-7.6 108.4-7.6 108.4l6.6-.2s43.6-123.8 25-144.8c-18.6-21-62-25.2-62-25.2l-60.6-1.8z" fill="#1B1B1B"/><path d="M167.2 347.2c.4 0 .8-.4.8-.8 0-.8 7.8-88.2 7.6-108.4 0-2.2-1-4.4-2.8-6-10.8-10-50.8-8-72.2-7-1.8 0-3.4.2-4.8.2-.4 0-.8.4-.8.8s.4.8.8.8c1.4 0 3.2-.2 4.8-.2 21.2-1 60.8-3 71 6.6 1.6 1.4 2.2 3 2.2 4.8.2 20.2-7.6 107.4-7.6 108.2 0 .4.4 1 1 1-.2 0-.2 0 0 0z" fill="#444"/><path d="M186.2 351.6h-20.4s-2.2-6.6 1.4-6.8c3.4-.2 6.6-.2 6.6-.2s13 3.2 12.4 7zm-25.6.4h-17.8s-1.8-7.2 1.2-7.2c3-.2 5.8-.2 5.8-.2s11.2 3.2 10.8 7.4z" fill="#444"/><path d="M169.2 53.4c.4 0 1-.2 1.2-.6l6.6-7.4c.6-.6.6-1.8-.2-2.4-.6-.6-1.8-.6-2.4.2l-6.4 7.4c-.6.6-.6 1.8.2 2.4.4.2.8.4 1 .4z" fill="#F5F5F5"/><path d="M173.8 345.4c.4 0 .6-.2.8-.6 1.8-5 43-123 24.2-144.2-18.8-20.8-61-25-62.8-25.2-.4 0-.8.2-1 .8 0 .4.2.8.8 1 .4 0 43.4 4.2 61.6 24.8 18.2 20.4-24 141.2-24.4 142.4-.2.4 0 1 .8 1-.2 0-.2 0 0 0z" fill="#444"/><path d="M29.6 349l42.2-111c1-2.6 3.8-4 6.6-3 2.6 1 4 3.8 3 6.6 0 .2 0 .2-.2.4l-50 108c-.2.4-.8.8-1.2.6-.4-.6-.6-1.2-.4-1.6zm48.2 3.2l21.4-116.6c.4-2.8 3.2-4.6 6-4.2 2.8.4 4.6 3.2 4.2 6v.4L80 352.6c-.2.6-.6.8-1.2.8-.8-.2-1.2-.8-1-1.2zm76.6-1l-35.2-113.4c-.8-2.8.8-5.6 3.4-6.4 2.8-.8 5.6.8 6.4 3.4v.4l27.2 115.4c.2.6-.2 1-.8 1.2-.4.2-.8 0-1-.6zm32.8-1.6l-50-108c-1.2-2.6 0-5.6 2.6-6.8 2.6-1.2 5.6 0 6.8 2.6 0 .2 0 .2.2.4l42.2 111c.2.6 0 1-.6 1.2-.4.4-1 .2-1.2-.4z" fill="#89A1AE"/><path d="M184 238.8c-15.6 14.6-110 11.2-126.8 0-11-7.4-16-64.8-17-84.8-.6-12.4 4.2-19.8 11.4-23.4 4.4-2.2 9.8-3.2 15.6-2.8 38.4 1.6 37 69.6 50.4 86 16.6 20 50.4 18.4 57.2 17.8 4-.4 7.6 1 9.2 2.8 1.2 1.4 1.2 3 0 4.4z" fill="#fff"/><path d="M57.2 240.4c.6 0 1-.2 1.4-.8.6-.8.4-1.8-.4-2.4C49 231 43.4 182.6 42 153.6c-.6-10.8 3-18 10.4-21.8 4-2 9-3 14.8-2.8 1 0 1.8-.6 1.8-1.6s-.6-1.8-1.6-1.8c-6.2-.2-12 .8-16.4 3-6 3-13 9.8-12.2 25 0 .8 3.8 76.8 17.8 86.2 0 .6.4.6.6.6z" fill="#89A1AE"/><path d="M69.4 245c.8 0 1.4-.6 1.6-1.4.2-1-.4-1.8-1.2-2-3.6-.8-9-2.4-11.6-4.2-.8-.6-1.8-.4-2.4.4-.6.8-.4 1.8.4 2.4 4 2.6 11.4 4.4 12.8 4.8h.4z" fill="#89A1AE"/><path d="M472.6 177c2 15.6-.4 51.2-16 50.2s-44.4-4.8-44.6 11.8c-.2 20 5.4 105.4 5.4 105.4l-4.6-.2s-30.6-120.4-17.6-140.8c13.2-20.4 43.6-24.4 43.6-24.4l33.8-2z" fill="#444"/><path d="M404 349.8h14.4s1.6-7-1-7.2c-2.4-.2-4.6-.2-4.6-.2s-9.2 3.2-8.8 7.4z" fill="#1B1B1B"/><path d="M472.6 177c2.4 15.6 2 51.2-16 50.2s-64-4.8-64.2 11.8c-.2 20 6.2 105.4 6.2 105.4l-5.4-.2S357.8 223.8 373 203.4c15.2-20.4 50.4-24.4 50.4-24.4l49.2-2z" fill="#444"/><path d="M393.2 343.6c-.4 0-.6-.2-.8-.6-1.4-4.8-35.8-119.6-20.2-140.2 15.6-20.6 51-24.6 52.4-24.8.4 0 .8.2 1 .8 0 .4-.2.8-.8 1-.4 0-36.2 4.2-51.4 24.2-15.2 20 20 137.4 20.4 138.6.2.4-.2 1-.6 1 .2 0 0 0 0 0z" fill="#1B1B1B"/><path d="M383 349.6h16.6s1.8-6.4-1-6.6c-2.8-.2-5.4-.2-5.4-.2s-10.6 3-10.2 6.8z" fill="#1B1B1B"/><path d="M451.6 86c-4 0-7.6-2.8-8.6-7l-4.6-20.8c-1-4.8 2-9.4 6.8-10.4s9.4 2 10.4 6.8l4.6 20.8c1 4.8-2 9.4-6.8 10.4-.6.2-1.2.2-1.8.2z" fill="#F5F5F5"/><path d="M401.8 135c1-23 6-59.6 53-59.6 65.4 0 17.6 93.8 18.2 101.6.4 7.8-57 1.8-57 1.8l3-38.6s9 47.6-15.2 40.4c-6.6-2-3.2-15.2-2-45.6z" fill="#1FA78A"/><path d="M429.4 80.2c4.4-.8 9.2-1.4 14.6-1.4 65.4 0 17.6 93.8 18.2 101.6v.4c-16.6 1.2-52.4 1.6-58.4-.2-6.4-2-3-15-1.8-45.4.6-18 3.8-44.4 27.4-55z" fill="#27D1AC"/><path d="M403.6 181.2h-.2c-5.4-1.6-4.8-9-3.6-25.6.4-5.6.8-12.6 1.2-20.8.8-20.4 4.8-45 28-55.6.4-.2 1 0 1.2.4.2.4 0 1-.4 1.2-22.4 10.2-26.2 34.4-27 54.2-.4 8.2-.8 15.2-1.2 20.8-1 15-1.6 22.6 2.4 23.8.4.2.6.6.6 1-.2.4-.6.6-1 .6z" fill="#177D67"/><path d="M460.6 53.4c-.6 10.6-7.8 19-15.8 18.4-8-.6-14-9.6-13.4-20.2.6-10.6 7.8-19 15.8-18.4 8 .4 14 9.6 13.4 20.2z" fill="#F5F5F5"/><path d="M438.4 25.4c-8.4-.4-13.6 10-2 15.4s5.2 13.6 7.8 20c2.6 6.4 19.2 13.8 21.8-3 3.2-21.4-11.8-31.8-27.6-32.4z" fill="#FFAA18"/><path d="M414.6 181.2s-.2 0 0 0c-1.4-.4-1.8-2-2-3.2-1.2-10.8 8-58.2 12.8-60.6.4-.2 1 0 1.2.4.2.4 0 1-.4 1.2-2.6 1.2-9.6 29.8-11.6 49.6-1 10 .2 11 .2 11 .4.2.8.6.6 1 0 .4-.4.6-.8.6z" fill="#177D67"/><path d="M521.6 346.6l-42.2-111c-1-2.6-3.8-4-6.6-3-2.6 1-4 3.8-3 6.6 0 .2 0 .2.2.4l50 108c.2.4.8.8 1.2.6.4-.6.6-1.2.4-1.6zm-48.2 3.2L452 233.2c-.4-2.8-3.2-4.6-6-4.2-2.8.4-4.6 3.2-4.2 6v.4l29.4 114.8c.2.6.6.8 1.2.8.8-.2 1.2-.8 1-1.2zm-76.6-1L432 235.4c.8-2.8-.8-5.6-3.4-6.4-2.8-.8-5.6.8-6.4 3.4v.4L395 348.2c-.2.6.2 1 .8 1.2.4.2.8 0 1-.6zm-32.8-1.6l50-108c1.2-2.6 0-5.6-2.6-6.8-2.6-1.2-5.6 0-6.8 2.6 0 .2 0 .2-.2.4l-42.2 111c-.2.6 0 1 .6 1.2.4.4 1 .2 1.2-.4z" fill="#89A1AE"/><path d="M367.2 236.4c15.6 14.6 110 11.2 126.8 0 11-7.4 16-64.8 17-84.8.6-12.4-4.2-19.8-11.4-23.4-4.4-2.2-9.8-3.2-15.6-2.8-38.4 1.6-37 69.6-50.4 86-16.6 20-50.4 18.4-57.2 17.8-4-.4-7.6 1-9.2 2.8-1.2 1.4-1.4 3 0 4.4z" fill="#fff"/><path d="M494 238c-.6 0-1-.2-1.4-.8-.6-.8-.4-1.8.4-2.4 9.2-6.2 14.8-54.6 16.2-83.6.6-10.8-3-18-10.4-21.8-4-2-9-3-14.8-2.8-1 0-1.8-.6-1.8-1.6s.6-1.8 1.6-1.8c6.2-.2 12 .8 16.4 3 6 3 13 9.8 12.2 25 0 .8-3.8 76.8-17.8 86.2 0 .6-.4.6-.6.6z" fill="#89A1AE"/><path d="M481.8 242.6c-.8 0-1.4-.6-1.6-1.4-.2-1 .4-1.8 1.2-2 3.6-.8 9-2.4 11.6-4.2.8-.6 1.8-.4 2.4.4.6.8.4 1.8-.4 2.4-4 2.6-11.4 4.4-12.8 4.8h-.4z" fill="#62737D"/></g><defs><clipPath id="clip0"><path fill="#fff" d="M0 0h568v377H0z"/></clipPath></defs></svg>