<svg width="29" height="22" fill="none" xmlns="http://www.w3.org/2000/svg"><path fill-rule="evenodd" clip-rule="evenodd" d="M25.408 1.03v15.445c0 .566-.462 1.028-1.03 1.03-2.398.006-6.415.505-9.186 3.405V4.746c0-.192.049-.372.141-.521C17.608.562 21.978.005 24.381 0h.003a1.026 1.026 0 011.025 1.03zM4.401 0h.002c2.403.006 6.774.562 9.048 4.225.092.15.141.33.141.521V20.91c-2.77-2.9-6.787-3.4-9.185-3.405a1.033 1.033 0 01-1.031-1.03V1.03A1.026 1.026 0 014.4 0zm23.353 3.562h-.747v12.913a2.635 2.635 0 01-2.626 2.629c-2.034.005-5.387.402-7.762 2.65 4.108-1.006 8.437-.352 10.905.21a1.028 1.028 0 001.26-1.003V4.591a1.03 1.03 0 00-1.03-1.029zm-25.977 0v12.913a2.635 2.635 0 002.626 2.629c2.034.005 5.387.402 7.762 2.65-4.107-1.006-8.437-.352-10.905.21A1.027 1.027 0 010 20.961V4.59a1.03 1.03 0 011.03-1.029h.747z" fill="#AEBBCD"/></svg>