<svg width="24" height="13" fill="none" xmlns="http://www.w3.org/2000/svg"><path fill-rule="evenodd" clip-rule="evenodd" d="M23.82 5.86C23.608 5.62 18.455 0 12 0 5.546 0 .393 5.62.18 5.86a.703.703 0 000 .937c.213.24 5.366 5.86 11.82 5.86 6.454 0 11.607-5.62 11.82-5.86a.703.703 0 000-.938zM12 11.25a4.928 4.928 0 01-4.922-4.922A4.928 4.928 0 0112 1.406a4.928 4.928 0 014.922 4.922A4.928 4.928 0 0112 11.25zm1.588-8.04a2.103 2.103 0 00-.885 1.712c0 1.384 1.337 2.455 2.753 1.999A3.514 3.514 0 0112 9.844a3.52 3.52 0 01-3.516-3.516A3.52 3.52 0 0112 2.812c.575 0 1.11.152 1.588.398z" fill="#AEBBCD"/></svg>