<svg width="24" height="24" fill="none" xmlns="http://www.w3.org/2000/svg"><path d="M23.297 22.594H.703a.703.703 0 100 1.406h22.594a.703.703 0 100-1.406zM6.422 15.563H2.109a.703.703 0 00-.703.703v4.922h5.719v-4.922a.703.703 0 00-.703-.703zm7.031-4.219H9.234a.703.703 0 00-.703.703v9.14h5.625v-9.14a.703.703 0 00-.703-.703z" fill="#62A8FF"/><path d="M23.794 5.831L18.872.206a.703.703 0 00-.994 0l-4.922 5.625a.702.702 0 00.497 1.2h2.11v14.157h5.624V7.03h2.11a.702.702 0 00.497-1.2z" fill="#62A8FF"/></svg>