<svg width="23" height="27" viewBox="0 0 23 27" fill="none" xmlns="http://www.w3.org/2000/svg">
<g id="team (2)">
<path id="Combined Shape" fill-rule="evenodd" clip-rule="evenodd" d="M11.506 0C9.86971 0 8.53843 1.33128 8.53843 2.9676C8.53843 4.60391 9.86971 5.93514 11.506 5.93514C13.1423 5.93514 14.4736 4.60391 14.4736 2.9676C14.4736 1.33128 13.1423 0 11.506 0ZM22.9954 16.3449V14.6924H15.3777C15.3777 16.8306 13.6443 18.564 11.506 18.564C9.36775 18.564 7.63439 16.8307 7.63439 14.6924H0.0166016V16.3449L3.32451 16.6952C3.53085 17.5409 3.86492 18.3367 4.30515 19.0608L2.21327 21.6482L4.55025 23.9852L7.1376 21.8933C7.86169 22.3335 8.65747 22.6676 9.50327 22.8739L9.85355 26.1818H13.1585L13.5088 22.8739C14.3546 22.6676 15.1504 22.3335 15.8744 21.8933L18.4618 23.9852L20.7988 21.6482L18.7069 19.0608C19.1471 18.3367 19.4812 17.5409 19.6875 16.6952L22.9954 16.3449ZM5.70813 9.3939C5.70813 7.93913 6.89168 6.75562 8.34646 6.75557H14.6656C16.1204 6.75557 17.3039 7.93913 17.3039 9.3939V13.1583H5.70813V9.3939ZM5.21047 1.37086C3.7446 1.37086 2.55204 2.56347 2.55204 4.02929C2.55204 5.48335 3.72568 6.66782 5.17534 6.6868C5.77568 5.98459 6.60404 5.4834 7.54515 5.29957C7.75144 4.92193 7.8689 4.48911 7.8689 4.02929C7.8689 2.56341 6.67635 1.37086 5.21047 1.37086ZM0.0166016 9.78612C0.0166016 8.48286 1.07686 7.42265 2.38007 7.42265H4.67022C4.35394 8.01005 4.17404 8.68132 4.17404 9.3939V13.1583H0.0166016V9.78612ZM17.8016 1.37086C16.3357 1.37086 15.1431 2.56347 15.1431 4.02929C15.1431 4.48906 15.2606 4.92193 15.4668 5.29957C16.408 5.4834 17.2364 5.98459 17.8367 6.6868C19.2864 6.66787 20.46 5.48335 20.46 4.02929C20.46 2.56341 19.2674 1.37086 17.8016 1.37086ZM18.3418 7.42265H20.632C21.9352 7.42265 22.9954 8.48286 22.9954 9.78607V13.1583H18.838V9.3939C18.838 8.68132 18.6581 8.01005 18.3418 7.42265Z" fill="#62A8FF"/>
</g>
</svg>
