<svg width="22" height="21" fill="none" xmlns="http://www.w3.org/2000/svg"><path d="M12.47 19.952zm0 .021c-.078.02-.156.036-.234.054l.235-.054zm0-.01zm0 .015zm.933-.006zm-.002-1.002l-.1.06.1-.06zm0 1l-.1.061c.034-.02.067-.04.1-.062z" fill="#000"/><path d="M13.401 19.972a1.96 1.96 0 01-.1.056l.1-.056zm-1.928.013z" fill="#000"/><path d="M21.335 10c0-5.522-4.47-10-9.98-10-5.51 0-9.979 4.478-9.979 10s4.469 10 9.98 10l.175-.002v-7.785H9.387V9.71h2.144V7.867c0-2.137 1.302-3.3 3.204-3.3.91 0 1.694.068 1.922.098V6.9h-1.312c-1.035 0-1.235.493-1.235 1.216V9.71h2.474l-.322 2.504H14.11v7.4A10.002 10.002 0 0021.335 10z" fill="#2D415E"/><path d="M11.473 19.98zm0 .015z" fill="#000"/></svg>