<svg width="67" height="54" fill="none" xmlns="http://www.w3.org/2000/svg"><rect x="13" y="26.87" width="38" height="38" rx="5" transform="rotate(-45 13 26.87)" fill="#FFCD00"/><path fill-rule="evenodd" clip-rule="evenodd" d="M8.89 40.52v5.871a.61.61 0 001.043.428l5.662-5.663h8.352c5.965 0 10.939-4.245 12.075-9.877h.313l4.724 4.725c.323.323.75.5 1.188.49a1.681 1.681 0 001.69-1.69v-4.443a12.103 12.103 0 007.518-11.221C51.455 12.444 46.01 7 39.317 7H29.35c-5.788 0-10.636 4.078-11.846 9.511H12.77C5.96 16.511.455 22.03.455 28.828A12.34 12.34 0 008.89 40.52zM29.37 9.294h9.968c5.433 0 9.843 4.422 9.843 9.846a9.845 9.845 0 01-6.736 9.344l-.782.26v4.621l-4.369-4.37h-1.032c0-.026.003-.052.005-.078a.68.68 0 00.005-.078c0-6.81-5.516-12.317-12.314-12.317H19.88c1.157-4.161 4.963-7.228 9.488-7.228zM11.736 23.426c-.605 0-1.105.49-1.105 1.106 0 .615.49 1.115 1.105 1.105h13.837a1.106 1.106 0 000-2.211H11.737zm-1.105 5.402c0-.615.5-1.105 1.105-1.105h13.837a1.106 1.106 0 010 2.21H11.737a1.093 1.093 0 01-1.105-1.105zm8.654 3.192h-7.55a1.106 1.106 0 000 2.21h7.55c.605 0 1.106-.5 1.106-1.105s-.49-1.105-1.106-1.105z" fill="#2D415E"/></svg>