<svg width="61" height="54" fill="none" xmlns="http://www.w3.org/2000/svg"><rect x="7" y="26.87" width="38" height="38" rx="5" transform="rotate(-45 7 26.87)" fill="#FFCD00"/><path d="M35.965 25H31.34c-1.206 0-2.184.848-2.184 1.896v.206c0 1.05.978 1.898 2.186 1.898h4.624c1.209 0 2.19-.852 2.19-1.898l-.002-.208c.002-1.046-.98-1.894-2.188-1.894z" fill="#2D415E"/><path fill-rule="evenodd" clip-rule="evenodd" d="M36.051 19.72h-.927V9.634c0-1.45-1.197-2.635-2.66-2.635H14.905c-1.464 0-2.661 1.186-2.661 2.635v7.235a1647.18 1647.18 0 00-7.202 4.059C3.06 21.737.155 24.345.155 30.502a14.72 14.72 0 00.142 1.968c.05.36.115.705.191 1.032l.032.145c.015.07.03.14.047.206.103.378.222.733.356 1.071.06.15.124.287.19.427l.024.05c.078.166.158.328.243.48.098.183.196.36.304.527l.04.058a.715.715 0 01.04.056c2.561 3.834 7.285 3.85 7.285 3.85h3.196v2.995c0 1.448 1.197 2.633 2.66 2.633h17.558c1.464 0 2.66-1.186 2.66-2.633v-3.652h.407v-.002h.517c1.164 0 2.108-.933 2.106-2.085l.002-.227a2.094 2.094 0 00-2.106-2.08h-4.45a2.09 2.09 0 00-2.1 2.081v.231c0 1.148.94 2.084 2.102 2.084h1.672v1.41H14.096v-18.92c.963-.604 1.855-1.186 2.364-1.577.452-.346.9-.68 1.334-1.003 2.036-1.517 3.747-2.792 4.02-3.967.43-1.85-1.003-3.409-3.49-2.129-.784.403-2.392 1.286-4.228 2.308v-4.663l19.177.002v8.54h-1.149v.002h-.522a2.095 2.095 0 00-2.106 2.086v.226c0 1.153.943 2.083 2.103 2.083h4.451a2.092 2.092 0 002.103-2.083V21.8c.002-1.146-.939-2.08-2.102-2.08zm-12.37 22.332c.738 0 1.333.59 1.333 1.318 0 .73-.595 1.318-1.332 1.318a1.321 1.321 0 01-1.328-1.318 1.326 1.326 0 011.328-1.318zM20.877 9.537h5.618a.32.32 0 100-.637h-5.618a.322.322 0 00-.323.32c0 .175.146.317.323.317z" fill="#2D415E"/><path d="M35.967 31h-4.625c-1.206 0-2.187.85-2.187 1.897v.208c0 1.047.979 1.895 2.187 1.895h4.624c1.21 0 2.186-.848 2.189-1.895v-.208c0-1.047-.977-1.897-2.188-1.897z" fill="#2D415E"/></svg>