<svg width="41" height="42" fill="none" xmlns="http://www.w3.org/2000/svg"><path d="M24 40.938zm.123.028zM23 40.952zm.145.019zm1.963-.007zm.98-1.003l-.175.078.175-.078zm.008-.001l-.19.08.19-.08zm-.994.004c-.067.025-.135.048-.203.072.068-.024.136-.047.203-.072zm-2.94 1.016z" fill="#000"/><path d="M41 20.5C41 9.18 31.82 0 20.5 0S0 9.18 0 20.5 9.18 41 20.5 41c.12 0 .24-.002.36-.005V25.037h-4.404v-5.133h4.404v-3.777c0-4.38 2.675-6.765 6.582-6.765 1.871 0 3.48.14 3.949.202v4.578h-2.695c-2.126 0-2.537 1.01-2.537 2.493v3.27h5.083l-.663 5.132h-4.42v15.171C34.727 37.752 41 29.858 41 20.5z" fill="#BFC0C1"/><path d="M22 40.974zm-.83.019z" fill="#000"/></svg>