<svg width="57" height="54" fill="none" xmlns="http://www.w3.org/2000/svg"><rect x="3" y="26.87" width="38" height="38" rx="5" transform="rotate(-45 3 26.87)" fill="#FFCD00"/><path fill-rule="evenodd" clip-rule="evenodd" d="M20.167 17.004c0 5.52-4.479 9.996-10 9.996-5.522 0-10-4.485-10-10.004 0-5.52 4.478-9.996 10-9.996 5.521 0 10 4.485 10 10.004zM6.955 19.966c-.1.331-.19.654-.282.985-.116.439-.074.546.331.737.538.264 1.11.397 1.697.488.464.074.472.1.48.57.009.216.009.431.009.646 0 .273.132.43.414.439.314.008.637.008.952 0 .265-.008.397-.15.397-.414 0-.1.002-.198.004-.297.003-.195.007-.39-.004-.588-.016-.298.116-.447.406-.53a3.22 3.22 0 001.672-1.067c1.208-1.465.745-3.616-.969-4.568-.523-.285-1.069-.51-1.608-.732l-.072-.03a3.447 3.447 0 01-.919-.512c-.546-.439-.439-1.142.199-1.424.182-.082.364-.107.563-.115a4.248 4.248 0 012.119.422c.33.157.439.107.554-.24.096-.28.176-.563.257-.849l.075-.26c.066-.248-.017-.414-.257-.522-.43-.19-.87-.322-1.333-.397-.604-.09-.604-.099-.604-.703 0-.43 0-.645-.108-.753-.107-.108-.323-.108-.753-.108h-.373c-.397.017-.471.083-.48.489v.546c-.008.53-.008.53-.498.711l-.024.01c-1.242.447-2.012 1.299-2.095 2.656-.074 1.2.555 2.019 1.54 2.606.425.253.877.434 1.33.615.2.08.4.16.599.246.248.108.488.24.704.414.62.513.505 1.365-.232 1.688-.39.174-.812.215-1.234.165a5.59 5.59 0 01-1.887-.563c-.348-.181-.455-.14-.571.24z" fill="#2D415E"/><path fill-rule="evenodd" clip-rule="evenodd" d="M31.346 27.771h1.187c.893 0 1.617.725 1.634 1.618v3.986c0 .893-.724 1.617-1.617 1.617h-1.12c-.699 2.276-2.055 4.315-3.89 5.95l-.026.02-.025.022-.177.151c-1.65 1.492-1.802 3.236-1.81 3.674v1.315a.875.875 0 01-.876.876h-5.338a.875.875 0 01-.876-.876v-1.256c-.615.067-1.23.101-1.861.101-.8 0-1.592-.059-2.366-.16v1.315a.875.875 0 01-.876.876H7.987a.882.882 0 01-.875-.817v-.455c-.043-.927-.329-3.068-2.005-4.795-1.162-1.188-2.004-2.654-2.585-3.91a12.167 12.167 0 01-1.01-2.688c-.009-.025-.009-.042-.009-.042a11.922 11.922 0 01.766-7.82 12.173 12.173 0 007.444 2.528c5.769 0 10.61-4.002 11.907-9.378a3.807 3.807 0 011.196-1.972c.859-.75 2.105-1.416 3.915-1.643.809-.101 1.364.784.935 1.475-.615.985-1.145 2.359-.716 3.867.017.076.034.16.034.236 2.046 1.652 3.579 3.784 4.362 6.185zm-6.796-1.036c0 .733.59 1.323 1.322 1.323a1.32 1.32 0 001.322-1.323 1.32 1.32 0 00-1.322-1.323 1.32 1.32 0 00-1.322 1.323z" fill="#2D415E"/></svg>