<svg width="56" height="41" fill="none" xmlns="http://www.w3.org/2000/svg"><path d="M15.678 19.097a13.251 13.251 0 00-3.586-.512 11.49 11.49 0 00-4.498.9C8.724 15.44 11.44 8.458 16.85 7.672a1.276 1.276 0 001.048-.904l1.183-4.135c.1-.35.04-.724-.163-1.027a1.289 1.289 0 00-.9-.556 9.18 9.18 0 00-1.21-.08C10.315.97 3.884 7.597 1.171 17.086-.422 22.652-.89 31.02 3.035 36.289c2.195 2.948 5.399 4.522 9.52 4.679l.05.001c5.087 0 9.597-3.35 10.969-8.144.82-2.866.449-5.872-1.044-8.466-1.478-2.565-3.91-4.435-6.852-5.262zM54.53 24.36c-1.478-2.566-3.91-4.436-6.852-5.263a13.254 13.254 0 00-3.586-.512 11.51 11.51 0 00-4.498.9c1.13-4.046 3.846-11.028 9.256-11.814a1.277 1.277 0 001.049-.904l1.182-4.135c.1-.35.04-.724-.163-1.027a1.286 1.286 0 00-.9-.556 9.17 9.17 0 00-1.21-.08c-6.493 0-12.923 6.627-15.638 16.116-1.592 5.566-2.06 13.936 1.865 19.204 2.195 2.948 5.4 4.522 9.52 4.679l.052.001c5.085 0 9.596-3.35 10.968-8.144a10.859 10.859 0 00-1.045-8.466z" opacity=".706" fill="#fff"/></svg>