<svg width="14" height="10" fill="none" xmlns="http://www.w3.org/2000/svg"><path d="M3.92 4.532a3.313 3.313 0 00-.897-.128 2.87 2.87 0 00-1.124.225c.282-1.011.961-2.757 2.314-2.954a.319.319 0 00.262-.226L4.77.416a.308.308 0 00-.04-.257.322.322 0 00-.225-.139A2.36 2.36 0 004.202 0C2.58 0 .972 1.657.292 4.029-.105 5.42-.221 7.513.76 8.83c.549.737 1.35 1.13 2.38 1.17h.012c1.272 0 2.4-.837 2.742-2.036a2.713 2.713 0 00-.26-2.117A2.846 2.846 0 003.92 4.532zm9.712 1.316a2.846 2.846 0 00-1.713-1.316 3.314 3.314 0 00-.896-.128 2.87 2.87 0 00-1.124.225c.282-1.011.961-2.757 2.314-2.954a.32.32 0 00.262-.226L12.77.416a.308.308 0 00-.04-.257.321.321 0 00-.225-.139 2.36 2.36 0 00-.303-.02c-1.623 0-3.23 1.657-3.91 4.029-.397 1.392-.514 3.484.467 4.801.549.737 1.35 1.13 2.38 1.17h.013c1.271 0 2.399-.837 2.742-2.036a2.715 2.715 0 00-.262-2.116z" fill="#FFCC2A"/></svg>