<svg width="41" height="41" fill="none" xmlns="http://www.w3.org/2000/svg"><path fill-rule="evenodd" clip-rule="evenodd" d="M0 20.5C0 9.18 8.956 0 20 0s20 9.18 20 20.5S31.044 41 20 41 0 31.82 0 20.5zm29.145-3.908c0-.204-.004-.406-.013-.608a9.462 9.462 0 002.29-2.437 8.983 8.983 0 01-2.637.741 4.705 4.705 0 002.02-2.603c-.888.54-1.87.931-2.916 1.143a4.534 4.534 0 00-3.35-1.487c-2.536 0-4.592 2.107-4.592 4.705 0 .369.04.728.12 1.073-3.816-.197-7.199-2.07-9.463-4.917a4.783 4.783 0 00-.621 2.365c0 1.633.81 3.074 2.042 3.917a4.475 4.475 0 01-2.079-.588v.06c0 2.278 1.582 4.18 3.683 4.612a4.487 4.487 0 01-2.074.08c.585 1.87 2.28 3.23 4.289 3.269a9.07 9.07 0 01-6.797 1.949 12.764 12.764 0 007.037 2.114c8.444 0 13.06-7.17 13.06-13.388z" fill="#BFC0C1"/></svg>