<svg width="120" height="32" fill="none" xmlns="http://www.w3.org/2000/svg"><path fill-rule="evenodd" clip-rule="evenodd" d="M101.602 1.122c1.627-.803 3.862.45 5.087 1.677 1.225 1.227 2.477 3.464 1.672 5.087 2.316-.839.546-4.563-.831-5.934-1.368-1.371-5.087-3.148-5.928-.83zm0 2.378c.291-2.152 3.245-.75 4.19.192.945.944 2.344 3.901.191 4.194.472-.403.254-2.033-1.046-3.333-1.308-1.31-2.935-1.52-3.335-1.053zm3.23 3.816c0-.695-.237-1.273-.702-1.736-.474-.463-1.049-.695-1.736-.695-.686 0-1.269.24-1.735.711a2.331 2.331 0 00-.71 1.72c0 .694.237 1.28.71 1.744.466.47 1.049.71 1.735.71.687 0 1.262-.24 1.736-.719a2.405 2.405 0 00.702-1.735zm-94.356 17.84V8.791h4.492l1.483-3.637H.307v3.637h5.932v16.364h4.237zm93.836-14.616h-3.843v13.846h3.843V10.54zm-38.758 4.188V12.51c-.046.114-.205.354-.447.72-.238.36-.556.84-.927 1.444L61.082 19.7h-1.924l-3.531-5.21a45.05 45.05 0 01-1.266-1.981h-.467v12.646H49.73v-20h3.956l4.972 7.136a9.6 9.6 0 00.743.963c.269.316.506.596.715.991h.058c.239-.522.5-.872.78-1.25.189-.253.387-.52.594-.859l4.24-6.982h3.93v20h-4.164V14.729zm29.24 16.415c-.902.35-1.903.526-3.004.526-.987 0-1.865-.128-2.633-.384a7.484 7.484 0 01-2.007-.995 6.697 6.697 0 01-1.424-1.35 5.268 5.268 0 01-.825-1.479l3.558-1.42c.266.738.702 1.311 1.31 1.719a3.549 3.549 0 002.02.611c1.177 0 2.107-.365 2.79-1.094.684-.73 1.025-1.749 1.025-3.056v-.967h-.227a4.565 4.565 0 01-1.723 1.436c-.711.35-1.551.526-2.519.526-.835 0-1.646-.17-2.434-.512a6.381 6.381 0 01-2.092-1.464c-.607-.635-1.1-1.398-1.48-2.288-.38-.891-.57-1.886-.57-2.985 0-1.1.19-2.1.57-3 .38-.9.873-1.667 1.48-2.302a6.384 6.384 0 012.092-1.464 6.066 6.066 0 012.434-.512c.968 0 1.808.176 2.52.526.711.35 1.285.83 1.722 1.436h.227v-1.507h3.559V24.08c0 1.175-.18 2.231-.541 3.17-.36.937-.864 1.733-1.509 2.387a6.55 6.55 0 01-2.32 1.507zm-4.2-9.538a3.646 3.646 0 002.69 0c.446-.17.84-.421 1.182-.753.341-.332.617-.739.825-1.222.209-.483.313-1.038.313-1.663 0-.626-.104-1.185-.313-1.677a3.72 3.72 0 00-.825-1.237 3.446 3.446 0 00-1.182-.753 3.758 3.758 0 00-1.352-.256c-.455 0-.901.085-1.338.256-.436.17-.825.426-1.167.767a3.926 3.926 0 00-.825 1.237c-.21.483-.314 1.037-.314 1.663 0 .625.105 1.18.314 1.663.208.483.483.89.825 1.222.342.332.73.583 1.167.753zm-14.909 3.923c.968 0 1.76-.19 2.377-.568a6.288 6.288 0 001.58-1.365h.228v1.479h3.672v-8.358c0-1.99-.57-3.492-1.708-4.506-1.139-1.014-2.79-1.52-4.953-1.52-2.562 0-4.583.928-6.064 2.785l2.705 1.848c.892-1.08 1.983-1.62 3.273-1.62.873 0 1.604.241 2.192.725.589.483.883 1.094.883 1.833v.427c-.38-.152-.864-.299-1.452-.441-.588-.142-1.338-.213-2.249-.213-.816 0-1.57.109-2.263.327a5.395 5.395 0 00-1.808.952 4.43 4.43 0 00-1.195 1.492c-.285.578-.427 1.227-.427 1.948 0 .7.133 1.345.398 1.933a4.39 4.39 0 001.11 1.506c.475.417 1.03.744 1.666.981a5.782 5.782 0 002.035.355zm.826-2.9c-.608 0-1.144-.17-1.609-.51-.465-.342-.697-.797-.697-1.365 0-.569.242-1.047.726-1.436s1.172-.583 2.064-.583c.55 0 1.058.062 1.522.185a7.73 7.73 0 011.353.497c0 .417-.081.82-.242 1.209a3.15 3.15 0 01-.683 1.023c-.295.294-.65.53-1.068.71-.417.18-.873.27-1.366.27zm-46.593 2.558l2.627-4.126h.207l2.715 4.126h4.546l-5.077-7.339 5.077-7.104H35.29l-2.48 4.01h-.206l-2.627-4.01h-4.575l4.959 7.104-5.018 7.34h4.575zm17.488-.213a8.529 8.529 0 01-1.726.162c-.728 0-1.383-.113-1.963-.34a4.184 4.184 0 01-1.461-.928c-.925-.884-1.387-2.142-1.387-3.772V6.035h3.866v4.421h3.542v3.301h-3.542v5.6c0 .335.035.644.104.93.068.284.201.525.398.721.276.315.669.472 1.18.472.335 0 .6-.035.798-.103.196-.069.383-.162.56-.28l1.093 3.39a6.38 6.38 0 01-1.462.486zm65.36.555c1.632 0 2.994-.374 4.085-1.122a7.787 7.787 0 002.548-2.886l-3.416-1.478c-.323.663-.755 1.17-1.296 1.52-.54.351-1.2.527-1.978.527a3.46 3.46 0 01-1.395-.285 3.592 3.592 0 01-1.153-.796 3.649 3.649 0 01-.783-1.25 4.571 4.571 0 01-.284-1.65c0-.606.095-1.155.284-1.648.19-.493.451-.91.783-1.25a3.592 3.592 0 011.153-.797 3.46 3.46 0 011.395-.284c.759 0 1.39.166 1.893.498.503.331.916.82 1.238 1.463l3.416-1.42c-.512-1.176-1.319-2.133-2.419-2.872-1.101-.74-2.458-1.109-4.071-1.109-1.082 0-2.073.185-2.975.555a7.048 7.048 0 00-2.334 1.535 6.992 6.992 0 00-1.537 2.345c-.37.91-.555 1.905-.555 2.985 0 1.08.185 2.07.555 2.97.37.9.882 1.683 1.537 2.346a6.94 6.94 0 002.334 1.549c.902.37 1.893.554 2.975.554zm-93.756 0c1.575 0 2.908-.35 4-1.051a7.81 7.81 0 002.604-2.758l-3.103-1.535a4.256 4.256 0 01-1.324 1.464c-.56.389-1.267.583-2.12.583-.437 0-.864-.062-1.282-.185a3.43 3.43 0 01-1.152-.597 3.553 3.553 0 01-.883-1.023c-.237-.408-.394-.896-.47-1.464h10.505c0-.114.01-.218.028-.313 0-.095.01-.199.029-.313v-.34c0-1.043-.152-2.01-.456-2.9a6.603 6.603 0 00-1.338-2.317 6.086 6.086 0 00-2.192-1.535c-.873-.37-1.869-.555-2.989-.555-1.063 0-2.035.2-2.918.597a7.294 7.294 0 00-2.291 1.607 7.281 7.281 0 00-1.509 2.359 7.62 7.62 0 00-.54 2.857c0 1.08.184 2.07.554 2.97.37.9.888 1.683 1.552 2.346a7.089 7.089 0 002.348 1.549c.902.37 1.884.554 2.947.554zm3.216-9.21H15.48c.246-.815.673-1.45 1.28-1.905.608-.454 1.31-.682 2.107-.682.57 0 1.058.085 1.466.256.408.17.75.388 1.025.654.275.265.484.55.626.852.143.304.223.579.242.825z" fill="#fff"/></svg>