<svg width="133" height="36" fill="none" xmlns="http://www.w3.org/2000/svg"><path fill-rule="evenodd" clip-rule="evenodd" d="M112.438 1.247c1.806-.892 4.288.501 5.647 1.865 1.36 1.363 2.749 3.85 1.856 5.654 2.57-.933.605-5.073-.923-6.597-1.518-1.523-5.647-3.498-6.58-.922zm0 2.644c.323-2.392 3.602-.835 4.651.213 1.049 1.049 2.602 4.336.212 4.662.524-.448.282-2.26-1.161-3.705-1.452-1.455-3.258-1.69-3.702-1.17zm3.585 4.24c0-.771-.263-1.414-.779-1.929-.525-.514-1.165-.772-1.926-.772-.762 0-1.41.267-1.926.79a2.59 2.59 0 00-.788 1.912c0 .771.262 1.424.788 1.938.516.524 1.164.79 1.926.79.761 0 1.401-.266 1.926-.799a2.678 2.678 0 00.779-1.93zM11.288 27.962V9.773h4.986L17.92 5.73H0v4.042h6.585v18.19h4.703zm104.159-16.245h-4.267v15.39h4.267v-15.39zM72.425 16.37v-2.466c-.052.128-.228.394-.496.8-.264.4-.618.934-1.03 1.605l-3.439 5.588h-2.135l-3.92-5.79A50.062 50.062 0 0160 13.904h-.518v14.057H54.86V5.73h4.391l5.52 7.933c.299.452.573.775.824 1.07.298.352.562.663.793 1.102h.065c.265-.58.554-.969.866-1.389.209-.281.429-.578.659-.955l4.705-7.76h4.364v22.23h-4.622v-11.59zm32.455 18.246c-1 .39-2.112.584-3.333.584-1.096 0-2.07-.142-2.923-.426-.853-.285-1.596-.653-2.228-1.106a7.436 7.436 0 01-1.58-1.501c-.421-.548-.727-1.096-.916-1.643l3.95-1.58c.294.821.78 1.459 1.453 1.912a3.942 3.942 0 002.244.679c1.306 0 2.338-.406 3.096-1.217.759-.81 1.138-1.943 1.138-3.396v-1.075h-.253a5.066 5.066 0 01-1.912 1.596c-.79.39-1.722.584-2.796.584-.927 0-1.828-.19-2.702-.568a7.086 7.086 0 01-2.322-1.628c-.674-.705-1.222-1.553-1.643-2.543-.422-.99-.632-2.096-.632-3.318s.21-2.333.632-3.334c.42-1 .969-1.854 1.643-2.56a7.085 7.085 0 012.322-1.627 6.724 6.724 0 012.702-.568c1.074 0 2.006.195 2.796.584a5.07 5.07 0 011.912 1.596h.253v-1.675h3.95v14.378c0 1.306-.201 2.48-.601 3.523-.4 1.043-.958 1.927-1.674 2.654a7.276 7.276 0 01-2.576 1.675zm-4.66-10.601a4.05 4.05 0 002.986-.001 3.82 3.82 0 001.311-.837 4.18 4.18 0 00.916-1.359c.232-.537.348-1.153.348-1.848 0-.695-.116-1.317-.348-1.864a4.142 4.142 0 00-.916-1.375 3.822 3.822 0 00-1.311-.837 4.17 4.17 0 00-1.501-.285c-.506 0-1.001.095-1.485.285-.485.19-.917.474-1.296.853-.38.379-.685.837-.916 1.374-.232.538-.348 1.154-.348 1.849 0 .695.116 1.311.348 1.848.231.538.537.99.916 1.36.38.368.811.647 1.296.837zm-16.55 4.36c1.075 0 1.954-.21 2.639-.632a6.982 6.982 0 001.753-1.517h.253v1.643h4.076v-9.29c0-2.211-.632-3.88-1.896-5.008-1.264-1.127-3.096-1.69-5.498-1.69-2.844 0-5.087 1.032-6.73 3.096l3.002 2.054c.99-1.2 2.201-1.8 3.633-1.8.97 0 1.78.268 2.434.805.653.537.98 1.216.98 2.038v.474a12.116 12.116 0 00-1.612-.49c-.653-.158-1.485-.237-2.497-.237a8.32 8.32 0 00-2.512.364 5.986 5.986 0 00-2.006 1.058 4.923 4.923 0 00-1.327 1.659c-.316.643-.474 1.364-.474 2.165 0 .779.147 1.495.442 2.148a4.876 4.876 0 001.232 1.675 5.878 5.878 0 001.849 1.09 6.408 6.408 0 002.26.395zm.917-3.223c-.675 0-1.27-.19-1.786-.569-.516-.379-.774-.884-.774-1.517 0-.631.269-1.163.806-1.595.537-.432 1.3-.648 2.29-.648.612 0 1.175.068 1.691.205a8.561 8.561 0 011.501.553c0 .464-.09.912-.268 1.343-.18.432-.432.811-.759 1.138a3.76 3.76 0 01-1.185.79c-.463.2-.969.3-1.516.3zm-51.719 2.843l2.916-4.587h.23l3.014 4.587h5.046l-5.636-8.158 5.636-7.896H38.83l-2.752 4.456h-.23l-2.915-4.456h-5.078l5.504 7.896-5.57 8.158h5.078zm19.413-.238a9.45 9.45 0 01-1.917.18c-.808 0-1.534-.125-2.179-.376a4.642 4.642 0 01-1.622-1.032c-1.026-.983-1.54-2.381-1.54-4.194V6.708h4.293v4.915h3.931v3.669h-3.931v6.225c0 .371.038.715.114 1.032.077.317.224.584.443.803.305.35.742.524 1.31.524.371 0 .666-.038.885-.115.218-.076.426-.18.622-.311l1.213 3.768a7.07 7.07 0 01-1.622.54zm72.549.618c1.812 0 3.323-.416 4.535-1.248a8.653 8.653 0 002.828-3.207l-3.792-1.643c-.358.737-.838 1.3-1.438 1.69-.6.39-1.332.585-2.196.585a3.836 3.836 0 01-1.548-.316 3.982 3.982 0 01-1.28-.885 4.052 4.052 0 01-.869-1.39 5.062 5.062 0 01-.316-1.833c0-.674.105-1.285.316-1.833.211-.547.5-1.011.869-1.39.369-.38.795-.674 1.28-.885.484-.21 1-.316 1.548-.316.843 0 1.543.184 2.101.553.559.369 1.017.911 1.375 1.627l3.792-1.58c-.569-1.306-1.464-2.37-2.686-3.191-1.222-.822-2.728-1.232-4.519-1.232-1.201 0-2.301.205-3.302.616-1 .41-1.864.98-2.591 1.706a7.777 7.777 0 00-1.706 2.607c-.411 1.011-.616 2.117-.616 3.318 0 1.2.205 2.301.616 3.302.411 1 .979 1.87 1.706 2.607a7.703 7.703 0 002.591 1.722c1.001.41 2.101.616 3.302.616zm-104.07 0c1.748 0 3.228-.39 4.44-1.17a8.675 8.675 0 002.89-3.064l-3.443-1.706a4.726 4.726 0 01-1.47 1.627c-.621.432-1.406.648-2.354.648a4.99 4.99 0 01-1.422-.206 3.809 3.809 0 01-1.28-.663 3.948 3.948 0 01-.979-1.138c-.263-.453-.437-.995-.521-1.627h11.66c0-.127.01-.242.031-.348 0-.105.01-.221.032-.347v-.38c0-1.158-.169-2.232-.506-3.223a7.344 7.344 0 00-1.485-2.575c-.653-.727-1.464-1.295-2.433-1.706-.97-.41-2.075-.616-3.318-.616-1.18 0-2.26.22-3.239.663a8.097 8.097 0 00-2.543 1.786 8.096 8.096 0 00-1.675 2.622c-.4 1-.6 2.06-.6 3.176 0 1.2.205 2.301.616 3.302.41 1 .985 1.87 1.722 2.607a7.868 7.868 0 002.607 1.722c1 .41 2.09.616 3.27.616zm3.57-10.238h-7.488c.274-.906.748-1.611 1.422-2.117.674-.506 1.453-.758 2.338-.758.632 0 1.174.095 1.627.284.453.19.832.432 1.138.727.305.295.537.61.695.948.158.337.248.642.269.916z" fill="#005C88"/></svg>