<svg width="180" height="45" viewBox="0 0 180 45" fill="none" xmlns="http://www.w3.org/2000/svg">
<path d="M104.967 27.4621V23.1031C104.967 18.7531 104.967 14.4015 104.967 10.0481C104.967 8.40714 104.268 7.06852 102.946 6.17497C102.267 5.68837 101.463 5.40081 100.627 5.34523C99.7903 5.28965 98.955 5.46829 98.2163 5.8607C97.443 6.22621 96.7917 6.80336 96.3396 7.52382C95.8874 8.24427 95.6534 9.07784 95.6653 9.92582C95.6429 11.7265 95.6481 13.5527 95.6515 15.3194C95.6515 15.6183 95.6515 15.9156 95.6515 16.2129L94.4618 15.4298C92.9288 14.4207 91.279 14.0946 89.564 14.4615C89.2668 14.5282 88.9739 14.6121 88.6867 14.7129V12.5708C88.6867 9.94111 88.6867 7.312 88.6867 4.68347C88.709 3.63456 88.3672 2.60981 87.7183 1.78009C87.0695 0.950376 86.1527 0.365856 85.1211 0.124009L85.0301 0.083239L84.8361 0H83.1554L82.9271 0.1359C80.6369 0.789921 79.3768 2.4581 79.3768 4.84824V5.48698C79.3768 10.5968 79.3768 15.7067 79.3768 20.8165C78.4464 21.7152 77.5159 22.641 76.649 23.5091C75.1331 25.0243 74.2867 26.6721 74.1305 28.4049C73.988 29.9864 73.9932 31.5815 73.9966 33.1257C73.9966 33.4926 73.9966 33.8579 73.9966 34.2231C74.0147 34.8328 74.1051 35.4384 74.2661 36.0272C75.7082 42.0051 81.2017 44.8471 85.7047 44.9592C86.9769 44.9898 88.2593 45 89.5348 45C90.8103 45 92.0326 44.9898 93.2584 44.9813C93.9296 44.9813 94.6026 44.9694 95.2738 44.966C95.8852 44.9565 96.4937 44.8808 97.0884 44.7401C99.3316 44.232 101.334 42.9841 102.765 41.2013C104.197 39.4185 104.973 37.2069 104.967 34.9298C104.967 33.1178 104.967 31.3058 104.967 29.4938V27.4621ZM93.8078 41.1591C91.0472 41.1863 88.1957 41.2135 85.4095 41.0912C82.2575 40.9519 78.6764 38.7129 77.9348 34.6869C77.8754 34.3783 77.8455 34.0649 77.8455 33.7509C77.8455 33.4111 77.8455 33.0561 77.8455 32.7078C77.8455 31.4966 77.8455 30.2446 77.9262 29.0317C77.994 28.1484 78.3703 27.316 78.9906 26.6772C79.1125 26.5447 79.2412 26.4156 79.3717 26.2865V28.5391C79.3551 29.0655 79.5238 29.5813 79.849 29.9983C80.0262 30.212 80.25 30.3832 80.5036 30.4991C80.7572 30.6151 81.034 30.6726 81.3133 30.6676C82.4584 30.6676 83.2567 29.7911 83.2567 28.5408V4.70895C83.2477 4.57683 83.2674 4.44435 83.3145 4.32041C83.3616 4.19646 83.4349 4.08393 83.5296 3.99037C83.6219 3.92081 83.7283 3.87174 83.8414 3.84653C83.9546 3.82132 84.0719 3.82055 84.1854 3.84428C84.3688 3.87164 84.5349 3.96679 84.6503 4.11054C84.7656 4.25429 84.8216 4.43595 84.8069 4.61891C84.8069 7.06172 84.8069 9.5051 84.8069 11.949V15.7424C84.8069 16.4354 84.8069 17.1285 84.8069 17.8216C84.7966 18.9326 85.382 19.4626 85.8747 19.7123C86.3674 19.9621 87.1073 20.1116 87.9949 19.4983C88.5236 19.1348 88.9339 18.863 89.3271 18.6183C90.3571 17.9745 91.3133 17.9762 92.3228 18.6183C93.5125 19.3828 94.7125 20.1829 95.873 20.9558L96.3623 21.282C97.1176 21.7916 97.8455 21.8545 98.5236 21.4892C99.2017 21.124 99.5537 20.47 99.5537 19.568C99.5537 16.7922 99.5451 13.8313 99.5537 9.96659C99.5426 9.78233 99.6028 9.60081 99.7221 9.45885C99.8413 9.31689 100.011 9.22512 100.196 9.20215C100.386 9.16415 100.584 9.20134 100.747 9.30579C100.91 9.41023 101.025 9.57363 101.068 9.76104C101.088 9.88965 101.096 10.02 101.09 10.1501V10.1721C101.09 12.6704 101.09 15.1687 101.09 17.667C101.09 23.2967 101.076 29.1166 101.116 34.8431C101.14 38.2882 98.3914 41.1133 94.9906 41.1421L93.8078 41.1591Z" fill="white"/>
<path d="M11.2893 28.3845V34.06H5.96738V28.3182L0 18.4213H5.62232L8.84978 23.8267L12.1013 18.4213H17.2515L11.2893 28.3845Z" fill="white"/>
<path d="M31.073 30.0832V34.06H17.9262V18.4213H30.7726V22.398H23.164V24.2293H29.8472V28.0294H23.164V30.0849L31.073 30.0832Z" fill="white"/>
<path d="M43.8901 31.3335H37.8816L36.8206 34.06H31.4043L38.3125 18.4213H43.5502L50.4584 34.06H44.9511L43.8901 31.3335ZM42.4223 27.5368L40.8773 23.6042L39.3425 27.5368H42.4223Z" fill="white"/>
<path d="M66.8944 18.4213V34.06H61.5725V28.2961H56.6523V34.06H51.3304V18.4213H56.6523V23.9609H61.5742V18.4213H66.8944Z" fill="white"/>
<path d="M116.311 22.5102H111.676V18.4213H126.268V22.5102H121.633V34.0617H116.311V22.5102Z" fill="white"/>
<path d="M140.783 30.0832V34.06H127.643V18.4213H140.489V22.398H132.876V24.2293H139.571V28.0294H132.876V30.0849L140.783 30.0832Z" fill="white"/>
<path d="M153.607 31.3335H147.598L146.541 34.06H141.116L148.026 18.4213H153.263L160.172 34.06H154.668L153.607 31.3335ZM152.139 27.5368L150.604 23.6127L149.068 27.5453L152.139 27.5368Z" fill="white"/>
<path d="M175.145 34.06L175.1 26.9337L171.667 32.6517H169.32L165.888 27.18V34.06H161.03V18.4213H165.409L170.56 26.7537L175.573 18.4213H179.952L179.998 34.06H175.145Z" fill="white"/>
</svg>
