<svg width="50" height="50" fill="none" xmlns="http://www.w3.org/2000/svg"><g clip-path="url(#clip0)" fill="#FF4900"><path d="M49.908 11.857a2.5 2.5 0 00-1.166-1.517 2.5 2.5 0 00-3.416.916l-.417.725a.833.833 0 00-1.133.3L41.66 15.89l-.725-.417a.834.834 0 00-1.142.309.833.833 0 00.308 1.133l.725.416-7.082 12.273-1.75 4.675-.833 1.558a2.5 2.5 0 00.134 2.7l-1.875 2.299-.525-1.316a1.666 1.666 0 00-2.974-.234l-.3.508-.284-3.333a1.667 1.667 0 00-3.24-.391l-2.05 6.149a.833.833 0 00.524 1.05c.082.038.17.06.259.066a.833.833 0 00.792-.566l2.04-6.149.292 3.383a1.667 1.667 0 003.091.716l.309-.508.516 1.308a1.666 1.666 0 002.85.425l1.941-2.458c.215.056.436.084.658.084a2.5 2.5 0 002.175-1.234l.833-1.391 3.175-3.858 7.157-12.423.725.417a.833.833 0 01.308 1.141l-3.333 5.774a.832.832 0 00.267 1.175.832.832 0 001.141-.308l3.333-5.774a2.498 2.498 0 00-.916-3.416l-.725-.417 2.082-3.608a.833.833 0 00-.3-1.133l.417-.725a2.499 2.499 0 00.25-1.932zm-3.141.233a.833.833 0 01.508-.392.875.875 0 01.633.084c.194.11.334.293.392.508a.875.875 0 01-.083.633l-.417.725-1.45-.833.417-.725zM35.41 35.353l-.417-.242-1.233-.717 1.183-3.166 2.624 1.516-2.157 2.609zm-2.5 2.407a.833.833 0 01-.25-1.091l.417-.725 1.45.833-.417.717a.833.833 0 01-1.2.266zm5.607-6.382l-2.882-1.666L42.3 18.164l2.883 1.666-6.666 11.548zm7.5-12.99l-2.884-1.666 1.667-2.883 2.883 1.667-1.667 2.883zM13.148 37.344l-2.95 2.941-1.766-1.766a.833.833 0 10-1.175 1.183l1.767 1.766c.312.31.734.484 1.175.483.442.003.868-.17 1.183-.483l2.94-2.95a.833.833 0 00-1.174-1.174z"/><path d="M3.333 39.585a7.082 7.082 0 1014.164 0 .833.833 0 00-1.666 0 5.416 5.416 0 11-5.416-5.416 5.368 5.368 0 013.25 1.084.833.833 0 101-1.334 7.083 7.083 0 00-11.332 5.666zM29.995 6.674a.833.833 0 100-1.667H8.332a.833.833 0 00-.833.834v3.332c0 .46.373.834.833.834h21.663a.833.833 0 100-1.667H9.165V6.674h20.83zm-19.163 4.999a.833.833 0 000 1.666h16.663a.833.833 0 100-1.666H10.831zm21.663 5.832h-18.33a.833.833 0 000 1.667h18.33a.833.833 0 100-1.667zm-8.332 5.833a.833.833 0 00-.834-.834H6.666a.833.833 0 000 1.667h16.663c.46 0 .834-.373.834-.833zm8.332-.833h-5.833a.833.833 0 000 1.666h5.833a.833.833 0 100-1.666zm-17.498 5.832a.833.833 0 100-1.666H6.666a.833.833 0 100 1.666h8.331zm3.333 0h5.833a.833.833 0 100-1.666H18.33a.833.833 0 000 1.666z"/><path d="M37.494 38.335a.833.833 0 00-.834.834V47.5c0 .46-.373.834-.833.834H2.5a.833.833 0 01-.834-.834V2.508c0-.46.373-.833.834-.833h33.327c.46 0 .833.373.833.833v15.648a.833.833 0 001.667 0V2.508a2.5 2.5 0 00-2.5-2.5H2.5a2.5 2.5 0 00-2.5 2.5V47.5A2.5 2.5 0 002.5 50h33.327a2.5 2.5 0 002.5-2.5v-8.33a.833.833 0 00-.833-.834z"/></g><defs><clipPath id="clip0"><path fill="#fff" d="M0 0h50v50H0z"/></clipPath></defs></svg>