<svg width="50" height="50" fill="none" xmlns="http://www.w3.org/2000/svg"><path d="M29.492 0C18.184 0 8.984 9.2 8.984 20.508A20.39 20.39 0 0012.5 31.977L1.141 43.335A3.879 3.879 0 000 46.097a3.88 3.88 0 001.14 2.762A3.879 3.879 0 003.904 50a3.88 3.88 0 002.762-1.14L18.023 37.5a20.39 20.39 0 0011.47 3.516C40.8 41.016 50 31.816 50 20.508S40.8 0 29.492 0zM5.284 47.478a1.939 1.939 0 01-1.381.569 1.938 1.938 0 01-1.95-1.95c0-.524.202-1.014.569-1.38l8.383-8.384a24.67 24.67 0 002.762 2.762l-8.383 8.383zm9.769-9.769a22.5 22.5 0 01-2.763-2.762l1.386-1.385a20.592 20.592 0 002.762 2.762l-1.385 1.386zm14.44 1.353c-10.232 0-18.555-8.323-18.555-18.554 0-10.231 8.323-18.555 18.554-18.555 10.231 0 18.555 8.324 18.555 18.555 0 10.23-8.324 18.554-18.555 18.554z" fill="#FF4900"/><path d="M22.281 6.065a.977.977 0 00-1.334-.357 17.042 17.042 0 00-4.492 3.75.977.977 0 001.49 1.263A15.095 15.095 0 0121.924 7.4a.976.976 0 00.357-1.334zm7.211 19.325a2.933 2.933 0 00-2.93 2.93 2.933 2.933 0 002.93 2.93 2.933 2.933 0 002.93-2.93 2.933 2.933 0 00-2.93-2.93zm0 3.907a.978.978 0 010-1.953.978.978 0 010 1.953zm0-19.531a2.933 2.933 0 00-2.93 2.93v7.812a2.933 2.933 0 002.93 2.93 2.933 2.933 0 002.93-2.93v-7.813a2.933 2.933 0 00-2.93-2.93zm.977 10.742a.978.978 0 01-1.953 0v-7.813a.978.978 0 011.953 0v7.813z" fill="#FF4900"/></svg>