<svg width="50" height="50" fill="none" xmlns="http://www.w3.org/2000/svg"><g clip-path="url(#clip0)"><path d="M43.375 23.87l-2.303-3.988a.741.741 0 10-1.285.742l2.303 3.987a.58.58 0 010 .582l-8.244 14.279a.584.584 0 01-.503.29h-8.134l6.435-8.41a.741.741 0 10-1.177-.902L16.91 48.166c-.614.592-1.49.031-1.49-.617 0-.277-.581 1.033 8.022-16.994.657-1.381-.355-2.96-1.867-2.96h-7.627a.59.59 0 01-.587-.589c0-.245-1.053 1.477 16.024-25.212.551-.85 1.825-.252 1.586.684l-5.707 16.106c-.48 1.346.526 2.76 1.95 2.76h9.036c.489 0 .76.553.465.941l-4.445 5.808a.742.742 0 001.178.902l4.445-5.809c1.044-1.364.061-3.326-1.643-3.326h-9.035a.586.586 0 01-.587-.584c0-.148-.188.431 3.237-9.233h3.478c.206 0 .4.11.503.29l4.457 7.72a.742.742 0 101.286-.742l-4.458-7.72a2.07 2.07 0 00-1.788-1.032H30.39c2.146-6.057 2.097-5.774 2.097-6.326 0-2.25-3.04-3.265-4.35-1.24l-4.841 7.566h-6.44a2.07 2.07 0 00-1.79 1.032c-8.958 15.519-8.52 14.535-8.52 15.311 0 .759-.177.246 5.155 9.481a.743.743 0 001.285-.742c-5.263-9.116-4.956-8.514-4.956-8.739 0-.23-.481.679 8.322-14.57a.584.584 0 01.504-.29h5.49l-10.14 15.853c-.884 1.379.115 3.184 1.742 3.184h7.627c.427 0 .713.443.528.837l-4.698 9.845c-.5 0-.847.066-1.053-.29l-1.883-3.26a.741.741 0 10-1.284.742l1.882 3.26a2.07 2.07 0 001.632 1.026l-2.478 5.191c-.893 1.693.441 3.472 2.108 3.472.832 0 1.501-.492 1.73-.796l6.014-7.86h9.27a2.07 2.07 0 001.788-1.033l8.244-14.28a2.062 2.062 0 000-2.063z" fill="#FF4900"/></g><defs><clipPath id="clip0"><path fill="#fff" d="M0 0h50v50H0z"/></clipPath></defs></svg>