<svg width="48" height="48" fill="none" xmlns="http://www.w3.org/2000/svg"><path d="M23.25 18.75h-1.5v-5.088a6.75 6.75 0 01.962-3.473L24 8.043V6.75a5.257 5.257 0 00-5.25-5.25h-12A5.257 5.257 0 001.5 6.75v1.5H0v-1.5A6.758 6.758 0 016.75 0h12a6.758 6.758 0 016.75 6.75v1.5c0 .136-.037.27-.107.386L24 10.961a5.259 5.259 0 00-.75 2.7v5.089zm-21.75-9H0v1.5h1.5v-1.5zM21.75 33h-18a.75.75 0 01-.711-.513l-1.137-3.41a27.743 27.743 0 01-1.37-7.044L0 13.546v-.796h1.5v.75l.529 8.439a26.293 26.293 0 001.296 6.664L4.29 31.5h17.025l1.07-1.875 1.302.744-1.286 2.25a.749.749 0 01-.652.381z" fill="#161F22"/><path d="M24.544 28.875l-1.302-.75.857-1.5 1.634-3.27A12.062 12.062 0 0027 17.99v-6.74A2.25 2.25 0 0024.75 9V7.5a3.755 3.755 0 013.75 3.75v6.74a13.569 13.569 0 01-1.425 6.038l-1.65 3.307-.88 1.54zM18 33.75h-1.5v1.5H18v-1.5z" fill="#161F22"/><path d="M21.75 45.75h-18A2.25 2.25 0 011.5 43.5V36a2.25 2.25 0 012.25-2.25H15v1.5H3.75A.75.75 0 003 36v7.5a.75.75 0 00.75.75h18a.75.75 0 00.75-.75V36a.75.75 0 00-.75-.75H19.5v-1.5h2.25A2.25 2.25 0 0124 36v7.5a2.25 2.25 0 01-2.25 2.25z" fill="#161F22"/><path d="M21.75 48h-18a.75.75 0 01-.75-.75V45h1.5v1.5H21V45h1.5v2.25a.75.75 0 01-.75.75zm.75-13.5H21V33H4.5v1.5H3v-2.25a.75.75 0 01.75-.75h18a.75.75 0 01.75.75v2.25z" fill="#161F22"/><path d="M7.5 45.75h-.75A2.25 2.25 0 014.5 43.5V36a2.25 2.25 0 012.25-2.25h.75v1.5h-.75A.75.75 0 006 36v7.5a.75.75 0 00.75.75h.75v1.5zM43.5 33h-3.75a.75.75 0 01-.549-.24l-9.75-10.5a.75.75 0 01-.162-.273l-1.5-4.5a.752.752 0 01-.039-.237v-4.398a3.737 3.737 0 011.666-3.115L31.83 8.13a3.742 3.742 0 014.875.627l5.108 5.746-1.121.996-5.11-5.748a2.297 2.297 0 00-2.92-.375l-2.414 1.609a2.24 2.24 0 00-.998 1.868v4.275l1.41 4.23L40.078 31.5h3.197l.11-.075A5.31 5.31 0 0045.75 27v-1.5h1.5V27a6.813 6.813 0 01-3.036 5.672l-.3.198a.75.75 0 01-.414.13z" fill="#161F22"/><path d="M47.25 22.5h-1.5V24h1.5v-1.5zm0-1.5h-1.5V9.75a8.25 8.25 0 10-16.5 0V12h-1.5V9.75a9.75 9.75 0 1119.5 0V21zm-9.75 8.25H36v3h1.5v-3zm8.25 16.5h-9a2.25 2.25 0 01-2.25-2.25V36a2.25 2.25 0 012.25-2.25H39v1.5h-2.25A.75.75 0 0036 36v7.5a.75.75 0 00.75.75h9a.75.75 0 00.75-.75V36a.75.75 0 00-.75-.75H40.5v-1.5h5.25A2.25 2.25 0 0148 36v7.5a2.25 2.25 0 01-2.25 2.25z" fill="#161F22"/><path d="M45.75 48h-9a.75.75 0 01-.75-.75V45h1.5v1.5H45V45h1.5v2.25a.75.75 0 01-.75.75zm.75-13.5H45V33h-7.5v1.5H36v-2.25a.75.75 0 01.75-.75h9a.75.75 0 01.75.75v2.25zm-3-22.5H39v1.5h4.5V12zM39 12a.75.75 0 01-.623-.333c-.42-.626-1.552-1.917-2.377-1.917v-1.5c1.475 0 2.792 1.478 3.353 2.209 1.376-.3 3.324-2.196 4.312-3.428l1.17.938C44.506 8.38 41.538 12 39 12z" fill="#161F22"/><path d="M37.5 10.5V9c1.215 0 2.047-2.61 2.26-3.874l1.48.247c-.087.525-.936 5.127-3.74 5.127zm-3.335-1.575C32.303 7.99 32.25 4.855 32.25 4.5h1.5c0 .829.27 2.672 1.085 3.08l-.67 1.345z" fill="#161F22"/></svg>