<svg width="40" height="65" viewBox="0 0 40 65" fill="none" xmlns="http://www.w3.org/2000/svg">
<path d="M23.3084 20.3839V6.16528H16.6919V20.3839C17.8949 19.991 18.9104 19.7899 20.0002 19.7899C21.0899 19.7899 22.1054 19.991 23.3084 20.3839Z" fill="#161F22"/>
<path d="M37.2937 51.3367C37.2937 46.2573 35.1734 38.8472 32.0164 32.8977C29.7331 28.594 27.1408 25.4541 24.5244 23.7263C24.5271 23.7317 24.5301 23.7367 24.533 23.7414C25.5888 25.7699 26.5742 28.5605 27.4616 32.0355C29.044 38.231 30.107 45.9871 30.107 51.3359C30.107 56.4164 29.1596 60.3808 27.2897 63.1189C27.0927 63.4074 26.8849 63.6783 26.6698 63.9364C28.8858 63.395 30.8155 62.5647 32.3859 61.4574C35.6429 59.1621 37.2937 55.7567 37.2937 51.3367Z" fill="#161F22"/>
<path d="M40 0H0V3.7594H40V0Z" fill="#161F22"/>
<path d="M12.5383 32.036C13.4255 28.5609 14.4111 25.7704 15.4668 23.7418C15.4697 23.7364 15.4727 23.7315 15.4754 23.7268C12.8589 25.4542 10.2667 28.5945 7.98338 32.8982C4.82684 38.847 2.70654 46.257 2.70654 51.3364C2.70654 55.7564 4.35782 59.1618 7.61436 61.4579C9.18474 62.5651 11.1145 63.3954 13.3305 63.9369C13.1154 63.6788 12.9076 63.4079 12.7106 63.1194C10.8413 60.3812 9.89331 56.4169 9.89331 51.3364C9.89286 45.9876 10.9559 38.2313 12.5383 32.036Z" fill="#161F22"/>
<path d="M20 64.6819C22.1962 64.6819 23.9803 63.7001 25.3025 61.7636C26.8714 59.4654 27.7009 55.86 27.7009 51.3373C27.7009 46.1691 26.6679 38.6523 25.1303 32.6322C24.3004 29.3822 23.3559 26.6923 22.3986 24.8535C21.1588 22.4714 20.2982 22.212 20.0264 22.1973C20.0176 22.1973 20.0088 22.1973 20 22.1973C19.9911 22.1973 19.9824 22.1973 19.9735 22.1973C19.7018 22.2123 18.8412 22.4714 17.6013 24.8535C16.6443 26.6922 15.6992 29.3822 14.8696 32.632C13.332 38.6522 12.2991 46.169 12.2991 51.3371C12.2991 55.8598 13.1285 59.4652 14.6974 61.7634C16.0197 63.6997 17.8045 64.6819 20 64.6819Z" fill="#161F22"/>
</svg>
