<svg width="94" height="64" fill="none" xmlns="http://www.w3.org/2000/svg"><path fill-rule="evenodd" clip-rule="evenodd" d="M37.288 10.498C36.045 4.55 29.1-.01 21.621 0 14.142.01 7.31 4.519 6.037 10.498c-.313 1.513-.877 5.719 1.734 14.39 1.504 5.02 6.465 9.048 13.892 9.048 7.426 0 12.387-4.028 13.902-9.048 2.6-8.672 2.036-12.877 1.723-14.39zm.167 26.224a11.42 11.42 0 00-5.076-2.567 15.174 15.174 0 01-10.748 3.934 15.205 15.205 0 01-10.737-3.923 11.545 11.545 0 00-5.097 2.598C1.243 41.658.209 56.184 0 64h43.336c-.21-7.847-1.264-22.405-5.88-27.278zm46.427-.052a11.388 11.388 0 00-5.065-2.567 15.205 15.205 0 01-10.758 3.934 15.206 15.206 0 01-10.77-3.934 11.492 11.492 0 00-5.065 2.609c-4.596 4.904-5.64 19.451-5.849 27.288h43.45c-.26-7.868-1.316-22.446-5.943-27.33z" fill="#fff"/><path d="M88.238 15.789a12.88 12.88 0 00-4.324-.386 17.079 17.079 0 00-.199-4.884 12.064 12.064 0 00-4.92-7.044A17.7 17.7 0 0072.843.668a18.681 18.681 0 00-4.784-.637c-1.862.003-3.713.28-5.493.825a17.238 17.238 0 00-6.476 3.61 11.477 11.477 0 00-3.698 6.084 17.482 17.482 0 00-.167 4.853 12.788 12.788 0 00-4.313.386c-2.486.668-6.905 4.1-5.505 9.621.585 2.296 4.282 5.072 6.873 6.658-1.452-4.07-1.233-7.607-.188-9.81a7.507 7.507 0 013.551-3.401 52.698 52.698 0 001.483 6.105c.073.24.157.47.24.699 1.755 4.706 6.591 8.348 13.693 8.348 7.103 0 11.95-3.684 13.694-8.41.083-.22.167-.44.23-.669a55.245 55.245 0 001.493-6.104 7.486 7.486 0 013.54 3.433c1.045 2.223 1.275 5.76-.156 9.83 2.59-1.586 6.267-4.362 6.873-6.658 1.4-5.541-3.019-8.974-5.494-9.642z" fill="#fff"/></svg>