<svg width="60" height="48" fill="none" xmlns="http://www.w3.org/2000/svg"><path fill-rule="evenodd" clip-rule="evenodd" d="M46.394 16.002c0 .882-.717 1.6-1.6 1.6-.882 0-1.6-.718-1.6-1.6V8a1.6 1.6 0 013.2 0v8zm-4.8 2.4a1.6 1.6 0 01-3.199 0V5.601c0-.883.718-1.6 1.6-1.6.882 0 1.6.717 1.6 1.6v12.801zm-4.799 2.4a1.6 1.6 0 01-3.2 0V3.201a1.6 1.6 0 013.2 0v17.601zm-8.799-5.6a.8.8 0 00-1.6 0h-1.6a.8.8 0 00-1.599 0h-1.6a.8.8 0 00-1.6 0h-3.999V8.8h4a.8.8 0 001.6 0h1.6a.8.8 0 001.599 0h1.6a.8.8 0 001.6 0h3.999v6.4h-4zm-13.598 5.6a1.6 1.6 0 01-3.2 0V3.201a1.6 1.6 0 013.2 0v17.601zM8 20.002c-.882 0-1.6-.717-1.6-1.6V5.601C6.4 4.718 7.117 4 8 4c.882 0 1.6.717 1.6 1.6v12.801c0 .883-.718 1.6-1.6 1.6zm-4.8-2.4c-.882 0-1.6-.718-1.6-1.6V8a1.6 1.6 0 013.2 0v8c0 .883-.717 1.601-1.6 1.601zM44.795 4.801c-.599 0-1.154.176-1.634.464C42.99 3.66 41.645 2.4 39.995 2.4c-.6 0-1.154.176-1.634.464C38.19 1.26 36.845 0 35.196 0a3.203 3.203 0 00-3.2 3.2v4H15.998v-4c0-1.765-1.435-3.2-3.2-3.2-1.649 0-2.994 1.26-3.165 2.864A3.164 3.164 0 008 2.4c-1.65 0-2.995 1.26-3.165 2.865A3.164 3.164 0 003.2 4.8 3.203 3.203 0 000 8v8a3.203 3.203 0 003.2 3.201c.599 0 1.154-.176 1.634-.464.17 1.605 1.516 2.864 3.165 2.864.6 0 1.154-.176 1.634-.464.17 1.605 1.516 2.865 3.165 2.865 1.765 0 3.2-1.436 3.2-3.2v-4.001h15.998v4c0 1.765 1.435 3.2 3.2 3.2 1.649 0 2.995-1.259 3.165-2.864.48.288 1.035.464 1.634.464 1.65 0 2.995-1.259 3.165-2.864.48.288 1.035.464 1.635.464 1.764 0 3.2-1.435 3.2-3.2V8c0-1.765-1.436-3.2-3.2-3.2z" fill="#161F22"/><path fill-rule="evenodd" clip-rule="evenodd" d="M22.397 11.201a.8.8 0 100-1.6.8.8 0 000 1.6zm3.2 0a.8.8 0 100-1.6.8.8 0 000 1.6zm-4.799 0a.8.8 0 100 1.6.8.8 0 000-1.6zm3.199 0a.8.8 0 100 1.6.8.8 0 000-1.6zm3.2 0a.8.8 0 100 1.6.8.8 0 000-1.6zm-4.8 1.601a.8.8 0 100 1.6.8.8 0 000-1.6zm3.2 0a.8.8 0 100 1.6.8.8 0 000-1.6zM58.4 40c0 .882-.717 1.6-1.6 1.6-.882 0-1.6-.718-1.6-1.6v-8.002c0-.882.718-1.6 1.6-1.6.883 0 1.6.718 1.6 1.6V40zm-4.8 2.4c0 .882-.717 1.6-1.6 1.6a1.602 1.602 0 01-1.599-1.6V29.597c0-.883.718-1.6 1.6-1.6.882 0 1.6.717 1.6 1.6v12.801zm-4.799 2.4c0 .882-.717 1.6-1.6 1.6-.882 0-1.6-.718-1.6-1.6V27.198a1.6 1.6 0 013.2 0v17.601zm-8.799-5.601a.8.8 0 00-1.6 0h-1.6a.8.8 0 00-1.599 0h-1.6a.8.8 0 00-1.6 0h-4v-6.4h4a.8.8 0 001.6 0h1.6a.8.8 0 001.6 0h1.6a.8.8 0 001.6 0h3.999v6.4h-4zm-13.598 5.6a1.6 1.6 0 01-3.2 0v-17.6a1.6 1.6 0 013.2 0V44.8zm-6.4-.8a1.601 1.601 0 01-1.599-1.6V29.598c0-.883.718-1.6 1.6-1.6.882 0 1.6.717 1.6 1.6v12.801c0 .883-.718 1.6-1.6 1.6zm-4.799-2.4c-.882 0-1.6-.717-1.6-1.6v-8c0-.883.718-1.601 1.6-1.601.883 0 1.6.718 1.6 1.6V40a1.6 1.6 0 01-1.6 1.6zM56.8 28.798c-.599 0-1.154.176-1.634.464-.17-1.605-1.516-2.864-3.165-2.864-.6 0-1.154.176-1.634.464-.17-1.605-1.516-2.865-3.165-2.865a3.203 3.203 0 00-3.2 3.2v4.001H28.004v-4c0-1.765-1.435-3.2-3.2-3.2-1.65 0-2.995 1.259-3.165 2.864a3.165 3.165 0 00-1.634-.464c-1.65 0-2.995 1.259-3.165 2.864a3.165 3.165 0 00-1.634-.464 3.203 3.203 0 00-3.2 3.2V40c0 1.765 1.435 3.2 3.2 3.2.599 0 1.154-.175 1.634-.464.17 1.605 1.515 2.865 3.165 2.865.599 0 1.154-.176 1.634-.464C21.81 46.74 23.155 48 24.804 48c1.765 0 3.2-1.435 3.2-3.2v-4h15.998v4c0 1.765 1.435 3.2 3.2 3.2 1.649 0 2.994-1.26 3.165-2.864.48.288 1.035.464 1.634.464 1.65 0 2.995-1.26 3.165-2.865.48.288 1.035.465 1.634.465 1.765 0 3.2-1.436 3.2-3.2v-8.002c0-1.765-1.435-3.2-3.2-3.2z" fill="#161F22"/><path fill-rule="evenodd" clip-rule="evenodd" d="M34.403 35.198a.8.8 0 100-1.6.8.8 0 000 1.6zm3.2 0a.8.8 0 100-1.6.8.8 0 000 1.6zm-4.8.001a.8.8 0 10.001 1.6.8.8 0 000-1.6zm3.2 0a.8.8 0 100 1.6.8.8 0 000-1.6zm3.2 0a.8.8 0 100 1.6.8.8 0 000-1.6zm-4.8 1.6a.8.8 0 100 1.6.8.8 0 000-1.6zm3.2 0a.8.8 0 100 1.6.8.8 0 000-1.6z" fill="#161F22"/></svg>