<svg width="64" height="64" fill="none" xmlns="http://www.w3.org/2000/svg"><path fill-rule="evenodd" clip-rule="evenodd" d="M32 57c13.807 0 25-11.193 25-25S45.807 7 32 7 7 18.193 7 32s11.193 25 25 25zm0 7c17.673 0 32-14.327 32-32C64 14.327 49.673 0 32 0 14.327 0 0 14.327 0 32c0 17.673 14.327 32 32 32zm0-16.6c8.505 0 15.4-6.895 15.4-15.4S40.505 16.6 32 16.6 16.6 23.495 16.6 32 23.495 47.4 32 47.4zm0 7c12.371 0 22.4-10.029 22.4-22.4C54.4 19.629 44.371 9.6 32 9.6 19.629 9.6 9.6 19.629 9.6 32c0 12.371 10.029 22.4 22.4 22.4zm4.52-22.72a4.2 4.2 0 11-8.4 0 4.2 4.2 0 018.4 0zm7 0c0 6.186-5.014 11.2-11.2 11.2-6.186 0-11.2-5.014-11.2-11.2 0-6.186 5.014-11.2 11.2-11.2 6.186 0 11.2 5.014 11.2 11.2z" fill="#161F22"/></svg>