<svg width="34" height="34" fill="none" xmlns="http://www.w3.org/2000/svg"><path d="M9.667.5C4.612.5.5 4.612.5 9.667v14.666c0 5.055 4.112 9.167 9.167 9.167h14.666c5.055 0 9.167-4.112 9.167-9.167V9.667C33.5 4.612 29.388.5 24.333.5H9.667zm0 3.667h14.666c3.033 0 5.5 2.467 5.5 5.5v14.666c0 3.033-2.467 5.5-5.5 5.5H9.667a5.507 5.507 0 01-5.5-5.5V9.667c0-3.033 2.467-5.5 5.5-5.5zM26.167 6a1.833 1.833 0 100 3.667 1.833 1.833 0 000-3.667zM17 7.833c-5.055 0-9.167 4.112-9.167 9.167s4.112 9.167 9.167 9.167 9.167-4.113 9.167-9.167c0-5.055-4.113-9.167-9.167-9.167zm0 3.667c3.032 0 5.5 2.468 5.5 5.5s-2.468 5.5-5.5 5.5a5.507 5.507 0 01-5.5-5.5c0-3.032 2.468-5.5 5.5-5.5z" fill="#fff"/></svg>