<svg width="25" height="26" fill="none" xmlns="http://www.w3.org/2000/svg"><path d="M10.031 23.763l-2.908.78a2.004 2.004 0 01-2.199-.826 2.015 2.015 0 01-.307-.772 19.926 19.926 0 01.73-9.18A19.59 19.59 0 019.6 6.378a19.836 19.836 0 017.606-5.234 2.003 2.003 0 012.256.628c.175.217.303.469.375.739l.781 2.914a2.014 2.014 0 01-1.147 2.39c-.898.371-1.75.844-2.542 1.409a2.003 2.003 0 01-2.162.11l-1.562-.903a16.073 16.073 0 00-4.255 7.387l1.562.903a2.012 2.012 0 01.985 1.933 12.94 12.94 0 00.053 2.911 2.012 2.012 0 01-1.52 2.198z" fill="#161F22"/></svg>