<svg width="31" height="49" fill="none" xmlns="http://www.w3.org/2000/svg"><path d="M31 43.556V5.444C31 2.45 28.509 0 25.464 0H5.536C2.49 0 0 2.45 0 5.444v38.112C0 46.55 2.491 49 5.536 49h19.928C28.51 49 31 46.55 31 43.556zm-2.214-3.267H2.214V8.71h26.572v31.58zM5.536 2.178h19.928c1.827 0 3.322 1.47 3.322 3.266v1.09H2.214v-1.09c0-1.796 1.495-3.266 3.322-3.266zm0 44.644c-1.827 0-3.322-1.47-3.322-3.266v-1.09h26.572v1.09c0 1.796-1.495 3.266-3.322 3.266H5.536zm10.185-1.089H15.5c-.277 0-.554-.109-.775-.326a1.066 1.066 0 01-.332-.763c0-.272.11-.544.332-.762a1.1 1.1 0 01.775-.326h.221c.056 0 .111.054.222.054.055.054.11.054.166.109.055.054.11.109.166.109.055.054.11.109.11.163.056.055.056.109.111.163.056.055.056.11.056.218.055.381-.056.708-.277.98-.055.055-.11.11-.166.11-.055.054-.11.054-.166.108-.11.109-.166.109-.222.163zM7.695 29.128a1.083 1.083 0 01-1.55 0 1.066 1.066 0 01-.332-.762c0-.273.11-.545.332-.763l4.705-4.627a1.083 1.083 0 011.55 0 1.04 1.04 0 010 1.524l-4.705 4.628zm12.51-13.884a1.04 1.04 0 010 1.525L15.5 21.397a1.083 1.083 0 01-1.55 0 1.066 1.066 0 01-.332-.763c0-.272.11-.544.332-.762l4.705-4.628c.388-.435 1.107-.435 1.55 0zm3.1 4.628a1.083 1.083 0 011.55 0 1.04 1.04 0 010 1.525l-12.51 12.359a1.083 1.083 0 01-1.55 0 1.066 1.066 0 01-.332-.763c0-.272.11-.544.332-.762l12.51-12.359z" fill="#fff"/></svg>