<svg width="28" height="28" fill="none" xmlns="http://www.w3.org/2000/svg"><path d="M14 28c7.732 0 14-6.268 14-14S21.732 0 14 0 0 6.268 0 14s6.268 14 14 14z" fill="url(#paint0_linear)"/><path d="M11.433 20.417c-.453 0-.376-.172-.533-.604l-1.333-4.389 10.266-6.09" fill="#C8DAEA"/><path d="M11.433 20.417c.35 0 .505-.16.7-.35L14 18.25l-2.328-1.404" fill="#A9C9DD"/><path d="M11.671 16.848l5.642 4.168c.644.355 1.109.171 1.27-.598l2.296-10.822c.235-.943-.36-1.37-.976-1.09l-13.485 5.2c-.92.369-.915.882-.168 1.11l3.46 1.081 8.013-5.054c.378-.23.725-.107.44.146" fill="url(#paint1_linear)"/><defs><linearGradient id="paint0_linear" x1="18.676" y1="4.676" x2="11.676" y2="21" gradientUnits="userSpaceOnUse"><stop stop-color="#37AEE2"/><stop offset="1" stop-color="#1E96C8"/></linearGradient><linearGradient id="paint1_linear" x1="15.755" y1="14.001" x2="17.94" y2="18.979" gradientUnits="userSpaceOnUse"><stop stop-color="#EFF7FC"/><stop offset="1" stop-color="#fff"/></linearGradient></defs></svg>