<svg width="28" height="28" fill="none" xmlns="http://www.w3.org/2000/svg"><path d="M14 28c7.732 0 14-6.268 14-14S21.732 0 14 0 0 6.268 0 14s6.268 14 14 14z" fill="#7B519D"/><path fill-rule="evenodd" clip-rule="evenodd" d="M20.846 17.072c-.466-.376-.965-.713-1.456-1.057-.979-.688-1.874-.741-2.604.365-.41.62-.985.648-1.585.376-1.655-.75-2.933-1.907-3.682-3.59-.33-.744-.326-1.411.448-1.938.41-.278.824-.607.79-1.216-.042-.793-1.968-3.443-2.729-3.723a1.383 1.383 0 00-.948 0c-1.783.599-2.522 2.065-1.814 3.802 2.11 5.18 5.824 8.787 10.936 10.989.291.125.615.175.78.22 1.163.012 2.526-1.11 2.92-2.222.38-1.071-.422-1.496-1.056-2.006zM15.114 6.82c3.738.575 5.461 2.352 5.937 6.116.044.348-.085.871.41.88.52.01.394-.505.399-.853.044-3.545-3.048-6.832-6.638-6.953-.27.04-.83-.187-.866.42-.023.41.449.342.758.39z" fill="#fff"/><path fill-rule="evenodd" clip-rule="evenodd" d="M15.845 7.852c-.359-.043-.834-.212-.918.286-.087.524.442.47.782.547 2.308.516 3.111 1.356 3.492 3.646.055.333-.055.853.512.767.42-.064.269-.51.304-.77.018-2.198-1.865-4.199-4.172-4.476z" fill="#fff"/><path fill-rule="evenodd" clip-rule="evenodd" d="M16.057 9.65c-.24.006-.475.032-.563.288-.133.383.146.475.43.52.946.152 1.445.71 1.54 1.655.025.256.188.464.435.435.343-.041.374-.347.364-.637.017-1.06-1.183-2.287-2.206-2.261z" fill="#fff"/></svg>