<svg width="40" height="40" fill="none" xmlns="http://www.w3.org/2000/svg"><g clip-path="url(#clip0)"><path d="M19.172 1.297v-.59c-6.706.316-11.407 2.09-14.34 5.423C2.316 8.988 1.014 13.28.78 18.962h.593C1.88 7.254 7.162 1.858 19.173 1.297zm19.434 17.565l.59.044C38.96 13.22 37.66 9.081 35.143 6.22 32.21 2.887 27.51 1.11 20.803.794v.59c12.01.562 17.297 5.762 17.803 17.478zM1.373 21.088H.78c.234 5.655 1.56 9.876 4.074 12.722 2.932 3.315 7.629 5.082 14.331 5.396v-.588C7.183 38.06 1.878 32.74 1.373 21.088zM20.815 38.53v.588c6.702-.315 11.4-2.083 14.33-5.4 2.515-2.847 3.815-6.96 4.05-12.619h-.583c-.505 11.66-5.795 16.873-17.797 17.431z" fill="#C8CACA"/><path d="M1.2 18.8a1.2 1.2 0 100 2.4 1.2 1.2 0 000-2.4zm37.6 0a1.2 1.2 0 100 2.4 1.2 1.2 0 000-2.4zM20 0a1.2 1.2 0 100 2.4A1.2 1.2 0 0020 0zm0 37.6a1.2 1.2 0 100 2.4 1.2 1.2 0 000-2.4z" fill="#35495E"/><path d="M20 2C10.059 2 2 10.059 2 20c0 9.942 8.059 18 18 18 9.942 0 18-8.058 18-18 0-9.941-8.058-18-18-18zm0 27.6a9.6 9.6 0 01-9.6-9.6 9.6 9.6 0 019.6-9.6 9.6 9.6 0 019.6 9.6 9.6 9.6 0 01-9.6 9.6z" fill="#E64B3C"/><path d="M28 15.2v9.6h10.4v-9.6H28zM1.6 24.8H12v-9.6H1.6v9.6zm13.6 13.6h9.6V28h-9.6v10.4zm0-26.4h9.6V1.6h-9.6V12z" fill="#EBECED"/></g><defs><clipPath id="clip0"><path fill="#fff" d="M0 0h40v40H0z"/></clipPath></defs></svg>