<svg width="40" height="40" fill="none" xmlns="http://www.w3.org/2000/svg"><g clip-path="url(#clip0)"><path fill-rule="evenodd" clip-rule="evenodd" d="M31.597 10.4h8.4L40 40H15.946v-.002l-.142.002C7.073 40-.004 37.708-.004 34.88L-.003 5.2h31.6v5.2z" fill="#F1C40F"/><path d="M16 5.2h15.6v5.2H16V5.2z" fill="#F39C12"/><path d="M15.8 10.4c8.726 0 15.8-2.328 15.8-5.2 0-2.872-7.074-5.2-15.8-5.2S0 2.328 0 5.2c0 2.872 7.074 5.2 15.8 5.2z" fill="#E67E22"/><path opacity=".2" d="M16.134 6.925c3.534 0 6.4-.806 6.4-1.8s-2.866-1.8-6.4-1.8c-3.535 0-6.4.806-6.4 1.8s2.865 1.8 6.4 1.8z" fill="#000"/><path fill-rule="evenodd" clip-rule="evenodd" d="M16.267 37.2a.8.8 0 100 1.6.8.8 0 000-1.6zm0-3.2a.8.8 0 100 1.6.8.8 0 000-1.6zm0-3.2a.8.8 0 100 1.6.8.8 0 000-1.6zm0-3.2a.8.8 0 100 1.6.8.8 0 000-1.6zm0-6.4a.8.8 0 100 1.6.8.8 0 000-1.6zm0-3.2a.8.8 0 100 1.6.8.8 0 000-1.6zm0-4.8a.801.801 0 10.05-1.601.801.801 0 00-.05 1.601zm0 1.6a.8.8 0 100 1.6.8.8 0 000-1.6zm0 9.6a.8.8 0 100 1.6.8.8 0 000-1.6z" fill="#F39C12"/></g><defs><clipPath id="clip0"><path fill="#fff" d="M0 0h40v40H0z"/></clipPath></defs></svg>