<svg width="33" height="40" fill="none" xmlns="http://www.w3.org/2000/svg"><g clip-path="url(#clip0)"><path d="M2.804 17.618v6.39c.032.003 3.995-.002 4 0V16.82c-.016-.02-3.2 0-3.2 0a.8.8 0 00-.8.798z" fill="#BDC3C7"/><path d="M6.804 21.61h-4v.8h4v-.8zm0-1.596h-4v.798h4v-.798zm-4-1.597v.799h4v-.8h-4zm4-1.61h-2.4V.007h2.4v16.8z" fill="#95A5A6"/><path d="M25.204 6.407h-17.6a.8.8 0 00-.8.8v11.6a2.4 2.4 0 012.4-2.4h14.4a2.4 2.4 0 012.4 2.4v-11.6a.8.8 0 00-.8-.8z" fill="#C0392C"/><path d="M9.604 8.407h13.6a.8.8 0 01.8.8v7.2a.8.8 0 01-.8.8h-13.6a.8.8 0 01-.8-.8v-7.2a.8.8 0 01.8-.8z" fill="#fff"/><path d="M9.604 17.207h6.8v-8.8h-6.8a.8.8 0 00-.8.8v7.2a.8.8 0 00.8.8z" fill="#EBF0F1"/><path d="M29.204 16.82s-3.184-.02-3.2 0v7.187c.005-.001 3.968.004 4 0v-6.389a.8.8 0 00-.8-.798z" fill="#BDC3C7"/><path d="M26.004 22.41h4v-.8h-4v.8zm0-1.598h4v-.798h-4v.798zm0-2.395v.799h4v-.8h-4z" fill="#95A5A6"/><path d="M7.604 33.207h2a.8.8 0 01.8.8v2.4a.8.8 0 01-.8.8h-2a.8.8 0 01-.8-.8v-2.4a.8.8 0 01.8-.8z" fill="#1C3C50"/><path d="M8.804 35.207v4a.8.8 0 01-.8.8h-4a.8.8 0 01-.8-.8v-4c.008 0 5.598.009 5.6 0z" fill="#23475F"/><path d="M4.37 40.007h1.2v-4.8h-1.2v4.8zm2-4.8v4.8h1.2v-4.8h-1.2zm18.834-2h-2a.8.8 0 00-.8.8v2.4a.8.8 0 00.8.8h2a.8.8 0 00.8-.8v-2.4a.8.8 0 00-.8-.8z" fill="#1C3C50"/><path d="M24.004 35.207v4a.8.8 0 00.8.8h4a.8.8 0 00.8-.8v-4c-.008 0-5.598.009-5.6 0z" fill="#23475F"/><path d="M27.237 35.207v4.8h1.2v-4.8h-1.2zm-2 4.8h1.2v-4.8h-1.2v4.8z" fill="#1C3C50"/><path d="M32.404 30.407v3.2a1.6 1.6 0 01-1.6 1.6h-28.8a1.6 1.6 0 01-1.6-1.6v-3.2c0-.04 32-.027 32 0z" fill="#BDC3C7"/><path d="M7.204 29.594v-5.99l-5.2.003c-.884 0-1.6.715-1.6 1.597v4.43c0 .04 6.8-.013 6.8-.04z" fill="#C0392C"/><path d="M2.804 25.207h2a.8.8 0 01.8.8v1.2a.8.8 0 01-.8.8h-2a.8.8 0 01-.8-.8v-1.2a.8.8 0 01.8-.8z" fill="#F1C40E"/><path d="M25.604 29.994v-6.378c.1-.03 5.2.004 5.2.004.884 0 1.6.71 1.6 1.586v4.802c0-.011-6.797-.014-6.8-.014z" fill="#C0392C"/><path d="M30.004 25.208h-2c-.442 0-.8.357-.8.794v1.195a.795.795 0 00.8.793h2c.442 0 .8-.356.8-.793v-1.195a.798.798 0 00-.8-.794z" fill="#F1C40E"/><path d="M8.804 15.607h15.2v.8h-15.2v-.8z" fill="#D9D9D9"/><path d="M9.204 16.407h14.4a2.4 2.4 0 012.4 2.4v10.8c.018.011-19.074.005-19.2 0v-10.8a2.4 2.4 0 012.4-2.4z" fill="#E74C3C"/><path d="M26.004.007h2.4v16.8h-2.4V.007z" fill="#95A5A6"/><path d="M11.204 18.407h10.4c1.325 0 2 .675 2 2v7.6c.002.005-14.274.005-14.4 0v-7.6c0-1.325.675-2 2-2z" fill="#ECF0F1"/><path d="M21.804 21.607h-10.8a.6.6 0 100 1.2h10.8a.6.6 0 100-1.2zm-10.8-.8h10.8a.6.6 0 100-1.2h-10.8a.6.6 0 100 1.2zm10.8 2.8h-10.8a.6.6 0 100 1.2h10.8a.6.6 0 100-1.2zm0 2h-10.8a.6.6 0 100 1.2h10.8a.6.6 0 100-1.2z" fill="#7F8C8D"/><path d="M8.804 15.607h7.6v.8h-7.6v-.8z" fill="#C8CCCD"/><path d="M8.804 36.007v-.8c-.002.009-5.592 0-5.6 0v.8h5.6zm15.2-.8v.8h5.6v-.8c-.008 0-5.598.009-5.6 0z" fill="#1F4055"/><path d="M7.57 35.21h-1.2v.797h1.2v-.797zm-3.2.797h1.2v-.797l-1.2-.002v.8zm24.067-.799l-1.2.002v.797h1.2v-.799zm-3.2.002v.797h1.2v-.797h-1.2z" fill="#193648"/><path d="M.404 29.607h32v.8h-32v-.8z" fill="#2C3E50"/></g><defs><clipPath id="clip0"><path fill="#fff" transform="translate(.404)" d="M0 0h32v40H0z"/></clipPath></defs></svg>