<svg width="40" height="40" fill="none" xmlns="http://www.w3.org/2000/svg"><g clip-path="url(#clip0)"><path d="M20 40c11.046 0 20-8.954 20-20S31.046 0 20 0 0 8.954 0 20s8.954 20 20 20z" fill="#316EAC"/><path fill-rule="evenodd" clip-rule="evenodd" d="M5.634 42.829a.8.8 0 01-.8-.791L4.809 40H2.8a.8.8 0 01-.8-.8v-8c0-.13.031-.257.092-.371l4.4-8.4a.798.798 0 01.274-.3l6.55-4.239 2.716-9.314a.8.8 0 01.647-.567L16.8 8a.8.8 0 01.666.356l2.248 3.372 2.14.713a.8.8 0 01.432.348l5.588 9.314 3.314-1.989a.799.799 0 011.052.206l4.8 6.4a.806.806 0 01.085.142l2.8 6a.8.8 0 01-.24.974L28.12 42.665a.8.8 0 01-.485.164h-22z" fill="#fff"/><path fill-rule="evenodd" clip-rule="evenodd" d="M27.634 42.03h-22L5.6 39.2H2.8v-8l4.4-8.4 6.8-4.4 2.8-9.6 2.4 3.6 2.4.8 6 10 4-2.4 4.8 6.4 2.8 6-11.566 8.83z" fill="#fff"/><path fill-rule="evenodd" clip-rule="evenodd" d="M3.2 43.2a.8.8 0 01-.8-.8v-12a.8.8 0 01.084-.358l4-8a.796.796 0 01.282-.314l6.53-4.226 2.326-9.688A.8.8 0 0116.4 7.2h.016a.8.8 0 01.769.643l1.2 6a.82.82 0 01.011.237l-.4 4a.81.81 0 01-.044.194l-1.6 4.4-1.924 5.387 1.156 5.782a.806.806 0 01-.025.41L14 38.93v3.47a.8.8 0 01-.8.8h-10zm25.2-10a.793.793 0 01-.397-.106l-2.8-1.6a.8.8 0 01-.37-.924l2.4-8a.8.8 0 01.378-.47l3.6-2a.806.806 0 01.795.01.8.8 0 01.394.69v6.8a.799.799 0 01-.134.444l-3.2 4.8a.8.8 0 01-.667.356z" fill="#6BC8F2"/><path fill-rule="evenodd" clip-rule="evenodd" d="M28 22.8l-2.4 8 2.8 1.6 3.2-4.8v-6.8l-3.6 2zM14 18l-6.8 4.4-4 8v12h10v-3.6l1.6-4.8-1.2-6 2-5.6 1.6-4.4.4-4-1.2-6L14 18z" fill="#6BC8F2"/><path opacity=".2" d="M30.6 12.4a.6.6 0 100-1.2.6.6 0 000 1.2z" fill="#fff"/><path opacity=".1" d="M5.8 16.8a.6.6 0 100-1.2.6.6 0 000 1.2z" fill="#fff"/><path opacity=".43" d="M22.6 6.8a.6.6 0 100-1.2.6.6 0 000 1.2z" fill="#fff"/></g><defs><clipPath id="clip0"><path fill="#fff" d="M0 0h40v40H0z"/></clipPath></defs></svg>