<svg width="40" height="40" fill="none" xmlns="http://www.w3.org/2000/svg"><path d="M0 40V0h28.8L40 11.2V40H0z" fill="#F1C40F"/><path d="M0 40V28.8L28.8 0 40 11.2 11.2 40H0z" fill="#F39C12"/><path d="M28.8 0h.4L40 10.8v.4H28.8V0z" fill="#FFF55B"/><path d="M13.931 22.288v1.542H9.316v3.081h3.895v1.548H9.316V32.7H7.365V22.288h6.566zM17.632 32.7h-1.944V22.288h1.944V32.7zm4.276-1.599h4.17V32.7h-6.106V22.288h1.937v8.813zm12.075-8.813v1.542h-4.615v2.887h3.636v1.49h-3.636v2.945h4.615V32.7h-6.566V22.288h6.566z" fill="#fff"/></svg>