<svg width="40" height="40" fill="none" xmlns="http://www.w3.org/2000/svg"><g clip-path="url(#clip0)" fill-rule="evenodd" clip-rule="evenodd"><path d="M35.02 6.252L4.764 36.404a2.771 2.771 0 01-3.947 0 2.838 2.838 0 010-3.986l1.024-1.034a.594.594 0 01.846 0 .608.608 0 010 .854l-1.024 1.034a1.622 1.622 0 000 2.278 1.583 1.583 0 002.256 0L34.174 5.398a.593.593 0 01.846 0 .608.608 0 010 .854z" fill="#E64C3C"/><path d="M36.344 36.402c-1.78-4.52-5.244-8-10.025-9.832-1.78-4.716-8.524-11.493-13.21-13.285-1.933-5.106-5.415-8.1-9.043-9.774A23.356 23.356 0 0116.412 0C29.439 0 40 10.621 40 23.723a23.695 23.695 0 01-3.656 12.679z" fill="#3B97D3"/><path opacity=".15" d="M33.322 7.192c.082.796.124 1.603.124 2.42 0 6.618-2.712 12.674-7.127 16.958 4.781 1.832 8.245 5.312 10.025 9.832A23.697 23.697 0 0040 23.723c0-6.43-2.547-12.258-6.678-16.53z" fill="#fff"/><path opacity=".15" d="M13.108 13.28a23.55 23.55 0 0116.25-6.48c1.33 0 2.632.115 3.902.326C28.979 2.731 23.014 0 16.412 0A23.356 23.356 0 004.066 3.511c3.627 1.673 7.108 4.667 9.042 9.77z" fill="#000"/></g><defs><clipPath id="clip0"><path fill="#fff" d="M0 0h40v40H0z"/></clipPath></defs></svg>