<svg width="40" height="40" fill="none" xmlns="http://www.w3.org/2000/svg"><g clip-path="url(#clip0)"><path d="M20 40c11.046 0 20-8.954 20-20S31.046 0 20 0 0 8.954 0 20s8.954 20 20 20z" fill="#E74C3C"/><path d="M5 20.2c0 4 2.8 6.8 6.8 6.8 6.8 0 10.4-13.6 17.2-13.6 4 0 7.2 2.8 7.2 6.8S33 27 29 27c-6.8 0-10.4-13.6-17.2-13.6-4 0-6.8 2.8-6.8 6.8z" stroke="#F0C419" stroke-width="8" stroke-miterlimit="10" stroke-linecap="square"/><path opacity=".15" d="M18.375 20.2l2.019 2.606s-.856 1.12-1.4 1.7c0 0-1.448-1.42-2.298-2.233.523-.56 1.68-2.073 1.68-2.073z" fill="#000"/></g><defs><clipPath id="clip0"><path fill="#fff" d="M0 0h40v40H0z"/></clipPath></defs></svg>