<svg width="40" height="40" fill="none" xmlns="http://www.w3.org/2000/svg"><g clip-path="url(#clip0)"><path d="M20 0c11.045 0 20 8.954 20 20s-8.955 20-20 20C8.954 40 0 31.046 0 20S8.954 0 20 0z" fill="#34495E"/><path d="M8 26.4h24V52H8V26.4z" fill="#1ABC9C"/><path d="M8 28.4h12V52H8V28.4z" fill="#17A085"/><path d="M20 34.4A8.8 8.8 0 1120 52a8.8 8.8 0 010-17.6z" fill="#FFF55C"/><path d="M20 34.4c.003.01-.002 17.615 0 17.6a8.8 8.8 0 010-17.6z" fill="#E5DC52"/><path d="M13.6 9.6h12.8a1.6 1.6 0 011.6 1.6v8.4a1.6 1.6 0 01-1.6 1.6H13.6a1.6 1.6 0 01-1.6-1.6v-8.4a1.6 1.6 0 011.6-1.6z" fill="#687786"/><path d="M18 13.6h4a1.6 1.6 0 011.6 1.6v6.4a1.6 1.6 0 01-1.6 1.6h-4a1.6 1.6 0 01-1.6-1.6v-6.4a1.6 1.6 0 011.6-1.6z" fill="#fff"/><path d="M16 19.2h8a8 8 0 018 8H8a8 8 0 018-8z" fill="#EBEDEE"/><path d="M8 26.8h24a.8.8 0 110 1.6H8a.8.8 0 010-1.6zm4.4-7.6h15.2c.806 0 1.2 1.6 1.2 1.6H11.2s.382-1.6 1.2-1.6z" fill="#BDC3C7"/><path d="M8 26.8a.8.8 0 000 1.6h12v-1.6H8z" fill="#AAAFB3"/><path d="M20 26.8v-6h-8.786a7.976 7.976 0 00-3.194 6H20z" fill="#D3D5D6"/><path d="M12.4 19.2c-.818 0-1.2 1.6-1.2 1.6H20v-1.6h-7.6z" fill="#AAAFB3"/><path d="M20 13.6h-2a1.6 1.6 0 00-1.6 1.6v4H20v-5.6z" fill="#E5E5E5"/><path d="M20 15.6a1.2 1.2 0 110 2.4 1.2 1.2 0 010-2.4z" fill="#E74C3C"/></g><defs><clipPath id="clip0"><path fill="#fff" d="M0 0h40v40H0z"/></clipPath></defs></svg>