<svg width="72" height="72" xmlns="http://www.w3.org/2000/svg"><g fill="none" fill-rule="evenodd"><path d="M49.333 61.333c-6.616 0-12-5.384-12-12 0-6.617 5.384-12 12-12 6.618 0 12 5.383 12 12 0 6.616-5.382 12-12 12zm0-34.666c-12.498 0-22.666 10.167-22.666 22.666S36.835 72 49.333 72C61.832 72 72 61.832 72 49.333c0-12.499-10.168-22.666-22.667-22.666" fill="#2D415E" fill-rule="nonzero"/><path d="M24.667 36.666c-6.616 0-12-5.384-12-12 0-6.617 5.384-12 12-12 6.617 0 12 5.383 12 12 0 6.616-5.383 12-12 12zm0-34.666C12.168 2 2 12.168 2 24.666c0 12.5 10.168 22.667 22.667 22.667 12.498 0 22.666-10.168 22.666-22.667C47.333 12.168 37.165 2 24.667 2z" stroke="#FFCC2A" stroke-width="2.667"/></g></svg>