<svg width="58" height="58" xmlns="http://www.w3.org/2000/svg"><g fill="#FFCD00" fill-rule="evenodd"><circle cx="3.222" cy="3.222" r="3.222"/><circle cx="3.222" cy="16.111" r="3.222"/><circle cx="3.222" cy="29" r="3.222"/><circle cx="3.222" cy="41.889" r="3.222"/><circle cx="3.222" cy="54.778" r="3.222"/><circle cx="16.111" cy="3.222" r="3.222"/><circle cx="16.111" cy="16.111" r="3.222"/><circle cx="16.111" cy="29" r="3.222"/><circle cx="16.111" cy="41.889" r="3.222"/><circle cx="16.111" cy="54.778" r="3.222"/><circle cx="29" cy="3.222" r="3.222"/><circle cx="29" cy="16.111" r="3.222"/><circle cx="29" cy="29" r="3.222"/><circle cx="29" cy="41.889" r="3.222"/><circle cx="29" cy="54.778" r="3.222"/><circle cx="41.889" cy="3.222" r="3.222"/><circle cx="41.889" cy="16.111" r="3.222"/><circle cx="41.889" cy="29" r="3.222"/><circle cx="41.889" cy="41.889" r="3.222"/><circle cx="41.889" cy="54.778" r="3.222"/><circle cx="54.778" cy="3.222" r="3.222"/><circle cx="54.778" cy="16.111" r="3.222"/><circle cx="54.778" cy="29" r="3.222"/><circle cx="54.778" cy="41.889" r="3.222"/><circle cx="54.778" cy="54.778" r="3.222"/></g></svg>