<svg width="99" height="101" xmlns="http://www.w3.org/2000/svg"><g fill="none" fill-rule="evenodd"><path d="M3.961 99.58h68.423a1.961 1.961 0 001.961-1.961V29.196a1.96 1.96 0 00-1.961-1.962H3.961A1.96 1.96 0 002 29.196v68.423a1.96 1.96 0 001.961 1.96z" stroke="#FFCC2A" stroke-width="2.667"/><path d="M96.573 1.132a1.133 1.133 0 102.265.001 1.133 1.133 0 00-2.265-.001m-17.745 0a1.133 1.133 0 102.265.001 1.133 1.133 0 00-2.265-.001m-17.745 0a1.133 1.133 0 102.266 0 1.133 1.133 0 00-2.266 0m-17.746 0a1.133 1.133 0 102.266 0 1.133 1.133 0 00-2.266 0m-17.745 0a1.133 1.133 0 102.266 0 1.133 1.133 0 00-2.266 0M96.573 16.99a1.133 1.133 0 102.267 0 1.133 1.133 0 00-2.267 0m-17.745 0a1.133 1.133 0 102.266 0 1.133 1.133 0 00-2.266 0m-17.745 0a1.132 1.132 0 102.264.001 1.132 1.132 0 00-2.264-.002m-17.746.001a1.132 1.132 0 102.265.002 1.132 1.132 0 00-2.265-.003m-17.745.001a1.132 1.132 0 102.264.002 1.132 1.132 0 00-2.264-.003m70.981 15.859a1.133 1.133 0 102.266-.002 1.133 1.133 0 00-2.266.002m-17.745 0a1.133 1.133 0 102.266-.002 1.133 1.133 0 00-2.266.002m-17.745 0a1.132 1.132 0 102.264 0 1.132 1.132 0 00-2.264 0m-17.746 0a1.132 1.132 0 102.264 0 1.132 1.132 0 00-2.264 0m-17.745 0a1.132 1.132 0 102.264 0 1.132 1.132 0 00-2.264 0m70.981 15.857a1.133 1.133 0 102.266-.002 1.133 1.133 0 00-2.266.002m-17.745 0a1.133 1.133 0 102.266-.002 1.133 1.133 0 00-2.266.002m-17.745 0a1.132 1.132 0 102.264 0 1.132 1.132 0 00-2.264 0m-17.746 0a1.132 1.132 0 102.264 0 1.132 1.132 0 00-2.264 0m-17.745 0a1.132 1.132 0 102.264 0 1.132 1.132 0 00-2.264 0m70.981 15.858a1.133 1.133 0 102.265 0 1.133 1.133 0 00-2.265 0m-17.745 0a1.133 1.133 0 102.265 0 1.133 1.133 0 00-2.265 0m-17.745 0a1.133 1.133 0 102.266 0 1.133 1.133 0 00-2.266 0m-17.746 0a1.133 1.133 0 102.266 0 1.133 1.133 0 00-2.266 0m-17.745 0a1.133 1.133 0 102.266 0 1.133 1.133 0 00-2.266 0m70.981 15.858a1.133 1.133 0 102.266-.002 1.133 1.133 0 00-2.266.002m-17.745 0a1.133 1.133 0 102.266-.002 1.133 1.133 0 00-2.266.002m-17.745 0a1.132 1.132 0 102.264 0 1.132 1.132 0 00-2.264 0m-17.746 0a1.132 1.132 0 102.264 0 1.132 1.132 0 00-2.264 0m-17.745 0a1.132 1.132 0 102.264 0 1.132 1.132 0 00-2.264 0" fill="#2D415E" fill-rule="nonzero"/></g></svg>