<svg width="505" height="325" fill="none" xmlns="http://www.w3.org/2000/svg"><path d="M388.094 317.081h91.613v-61.097h-91.613v61.097z" fill="#E7E8E5"/><path d="M442.419 317.081h37.288v-61.097h-37.288v61.097z" fill="#DADBD8"/><path d="M430.378 304.981h-32.1v-36.896h32.1v36.896z" fill="#FAFAF9"/><path d="M413.521 280.334v-5.493c0-.362.296-.656.658-.656h.245c.362 0 .657.294.657.656v.255h4.086v1.396h-4.032v3.842h-1.614m4.56 18.546h-7.506a1.649 1.649 0 01-1.651-1.648v-14.143c0-.911.739-1.648 1.651-1.648h7.506c.912 0 1.651.737 1.651 1.648v14.143c0 .911-.739 1.648-1.651 1.648" fill="#E7E8E5"/><path d="M417.11 281.441h-5.317v-1.454a.76.76 0 01.762-.759h3.794c.42 0 .761.34.761.759v1.454z" fill="#E7E8E5"/><path d="M418.686 294.773h-4.684v-9.763h4.684v9.763zm-9.097-1.861c-.104 0-.188-2.276-.188-5.083 0-2.808.084-5.083.188-5.083s.188 2.275.188 5.083c0 2.807-.084 5.083-.188 5.083z" fill="#FAFAF9"/><path d="M402.37 270.057h-2.383v-4.387h2.383v4.387zm.471 36.789l-2.322.542-1.001-4.271 2.321-.542 1.002 4.271zm25.035.613l-2.359-.334.619-4.343 2.359.335-.619 4.342zm.417-37.402h-2.383v-4.387h2.383v4.387z" fill="#DADBD8"/><path d="M108.838 62.258c.716-5.188-6.619-9.455-12.131-9.898-2.63-.212-5.359.189-7.85-.677-5.394-1.877-7.55-8.833-12.814-11.049-3.936-1.657-8.466-.182-12.282 1.735-3.815 1.916-7.586 4.328-11.849 4.6-3.708.238-7.734-1.136-10.978.672-2.417 1.348-3.684 4.128-5.912 5.768-2.18 1.605-5.023 1.944-7.728 2.091-2.704.146-5.505.174-7.967 1.3-2.463 1.125-4.5 3.724-3.989 6.378l93.5-.92zM211.31 100.97c-.157-.024-1.368.039-1.524.015-1.336-.144-2.901-.216-3.636-1.321-.854-1.286-.012-3.197-.891-4.458-.457-.66-1.251-.949-1.901-1.418-.65-.456-1.204-1.322-.807-2.018.325-.589 1.167-.709 1.589-1.25.337-.432.325-1.093-.024-1.502-1.372-1.622-2.901 1.682-3.659 2.463a6.306 6.306 0 01-.615.577v.012c-.011.144-.024.276-.024.42-.018.452-.016.912-.023 1.37-.008.458-.025.914-.025 1.37 0 .372.012.74.018 1.111.007.371-.018 1.46-.006 1.827.819.277 1.536.478 2.295.923 1.481.853 3.207 1.498 3.303 3.203.012.277-.012.577.156.805.157.216.407 1.024.671 1.084 1.264.3 3.377.91 4.678.97" fill="#E7E8E5"/><path d="M328.236 71.453s.102-.086.312-.239l.939-.667c.406-.302.943-.629 1.517-1.097.582-.46 1.25-.99 2-1.587.712-.644 1.525-1.337 2.375-2.139.81-.84 1.758-1.69 2.636-2.734 1.85-2.003 3.738-4.484 5.55-7.392 3.612-5.793 6.804-13.562 7.524-22.614a37.69 37.69 0 00-1.421-14.026c-1.388-4.69-3.967-9.341-8.014-12.64a20.139 20.139 0 00-6.75-3.595 25.387 25.387 0 00-7.401-1.002c-4.936.028-9.631 1.12-13.976 2.406a99.654 99.654 0 00-22.113 9.534 102.414 102.414 0 00-13.361 9.27c-1.471 1.236-2.612 2.199-3.358 2.884l-.865.76c-.197.17-.305.249-.305.249s.089-.1.277-.28l.837-.79c.729-.704 1.855-1.688 3.313-2.945a98.535 98.535 0 0113.316-9.395 98.837 98.837 0 0122.153-9.645c4.358-1.3 9.082-2.41 14.08-2.445 2.491-.03 5.04.29 7.52 1.014a20.528 20.528 0 016.89 3.666c4.127 3.367 6.738 8.096 8.136 12.84a37.926 37.926 0 011.414 14.17c-.746 9.122-3.99 16.93-7.652 22.735-1.838 2.915-3.752 5.396-5.626 7.393-.891 1.041-1.85 1.886-2.671 2.723-.861.795-1.685 1.482-2.406 2.12l-2.03 1.562c-.582.459-1.128.776-1.543 1.067l-.963.635c-.217.14-.334.204-.334.204M226.33 132.588s-2.132.741-6.147 1.403c-3.997.591-9.983 1.087-17.133-.424-1.785-.359-3.616-.907-5.498-1.547a44.412 44.412 0 01-5.656-2.52c-3.745-2.07-7.46-4.858-10.637-8.486-3.185-3.598-5.896-8.002-7.448-13.021-.384-1.253-.722-2.534-.932-3.852-.289-1.304-.378-2.646-.504-3.995-.068-.673-.028-1.354-.047-2.035-.008-.682-.021-1.366.052-2.05l.154-2.058.317-2.053c.481-2.734 1.202-5.4 2.22-7.906.455-1.276 1.066-2.474 1.624-3.683.285-.601.631-1.17.942-1.752.321-.576.622-1.162.989-1.705 2.761-4.448 6.091-8.33 9.784-11.42 3.679-3.106 7.589-5.536 11.416-7.442 3.837-1.895 7.591-3.267 11.072-4.31 6.983-2.05 12.844-2.821 16.876-3.25 2.021-.192 3.594-.316 4.662-.362l1.214-.06c.274-.01.415-.005.415-.005s-.14.022-.412.047l-1.212.1c-1.066.071-2.634.22-4.65.437-4.021.476-9.863 1.29-16.811 3.366-3.462 1.057-7.194 2.44-11.004 4.337-3.799 1.909-7.68 4.336-11.324 7.425-3.657 3.075-6.954 6.93-9.687 11.344-.363.539-.662 1.119-.979 1.691-.308.578-.65 1.141-.932 1.738-.552 1.198-1.157 2.386-1.607 3.65-1.008 2.484-1.72 5.124-2.197 7.828l-.313 2.031-.153 2.035c-.073.677-.06 1.353-.052 2.026.019.673-.021 1.346.046 2.012.125 1.332.21 2.659.496 3.947.206 1.302.538 2.568.916 3.805 1.529 4.961 4.203 9.324 7.349 12.894 3.139 3.6 6.814 6.373 10.518 8.438a44.798 44.798 0 005.601 2.521c1.865.642 3.68 1.195 5.453 1.561 7.095 1.537 13.057 1.088 17.049.547a58.544 58.544 0 004.583-.876c.506-.124.899-.219 1.181-.287.266-.062.406-.084.406-.084z" fill="#DADBD8"/><path d="M348.286 98.562c-.766-1.725-.938-3.635-1.445-5.446-.272-.974-.728-2.01-1.642-2.44-.606-.284-1.321-.247-1.963-.444-2.31-.69-2.94-3.906-5.125-4.905-.691-.307-1.456-.37-2.197-.456-2.927-.345-5.952-1.355-7.792-3.647-.604-.74-1.062-1.615-1.803-2.218-.753-.604-1.913-.863-2.642-.247.617 1.233 1.223 2.465 1.828 3.685.556 1.109 1.123 2.255 2.049 3.068.938.826 2.321 1.257 3.445.74.37-.173.741-.456 1.161-.407.296.037.556.247.753.48 1.593 1.763 1.075 4.683-.482 6.483-1.543 1.786-3.84 2.723-6.05 3.598-.789.308-1.629.628-2.47.48-1.53-.283-2.345-1.946-2.79-3.437-.999-3.303-1.481-6.89-3.531-9.674-.654-.875-1.469-1.676-1.864-2.699-.42-1.109-.322-2.403-.988-3.377-.691-1.022-2.162-1.614-2.26-2.846-.062-.863.654-1.627 1.445-1.996.789-.383 1.679-.493 2.494-.826.321-.136.679-.37.691-.715 0-.517-.715-.727-.901-1.208-.197-.542.358-1.047.593-1.577.506-1.208-.754-2.428-1.976-2.92-1.21-.493-2.679-.85-3.247-2.034-.26-.542-.284-1.17-.395-1.762-.284-1.49-1.383-2.933-2.89-3.18-1.518-.246-3.198 1.097-2.951 2.6.148.827.766 1.467 1.1 2.231.344.764.246 1.898-.544 2.145-.603.182-1.194-.23-1.764-.643-.658-.476-1.285-.95-1.866-.516.444 1.516.876 3.032 1.321 4.56-1.704.862-3.741-.703-4.47-2.477-.729-1.763-.753-3.784-1.617-5.484-.865-1.712-3.198-2.983-4.68-1.774-.075 2.193 2.828 3.08 4.112 4.855.925 1.281.79 3.364-.581 4.177-1.358.814-3.519-.603-3-2.094.185-.518.617-.95.667-1.504.049-.69-.531-1.245-1.063-1.688-.826-.703-1.654-1.393-2.481-2.083-.531-.444-1.099-.912-1.766-1.109-1.704-.492-3.408.887-4.309 2.403-.902 1.528-1.407 3.315-2.655 4.584-1.79 1.849-5.185 1.96-6.865.024-1.692-1.933-.827-5.556 1.655-6.26.938-.258 2.123-.233 2.617-1.06.865-1.466-1.605-3.338-.753-4.818.655-1.133 2.383-.616 3.642-.998 1.247-.382 1.951-1.639 2.692-2.723.729-1.072 1.877-2.156 3.162-1.873-.1-.751-.199-1.565.135-2.242.333-.691 1.272-1.135 1.889-.691-.63 1.035.123 2.477 1.223 2.995 1.099.517 2.383.394 3.593.259 1.21-.149 2.728-.592 2.827-1.8.037-.394-.11-.813.037-1.183.277-.752 1.135-.572 2.038-.392.829.165 1.694.33 2.185-.224.593-.604-.061-1.676-.889-1.873-.815-.21-1.667.099-2.507.123-.839.036-1.864-.406-1.901-1.244-.037-.826.889-1.418.989-2.23.159-1.381-2.187-1.738-3.014-.617-.815 1.121-.531 2.662-.284 4.03.26 1.368.383 2.982-.63 3.943-.431.653-1.555.308-1.926-.382-.382-.69-.297-1.528-.358-2.304-.062-.79-.408-1.676-1.173-1.886-.531-.148-1.099.11-1.642.185-2.149.259-3.642-2.514-2.964-4.559.667-2.059 2.618-3.377 4.508-4.424 1.382-.765 3.098-1.48 4.469-.703.642.357 1.087.973 1.716 1.343.839.494 1.832.468 2.815.442.29-.008.58-.016.865-.01a8.58 8.58 0 015.371 2.082c.555.505 1.075 1.344.642 1.947-.469.641-1.815.777-1.58 1.528 1.456.481 3.197-.64 3.358-2.157a2.246 2.246 0 011.297 1.824c1.568-1.589 4.581-1.355 5.865.481.345.481.592 1.06 1.086 1.392.494.322 1.359.161 1.421-.419.024-.184-.038-.369-.099-.542-.297-.838-.605-1.663-.902-2.489 1.149-.616 2.506.345 3.285 1.38 1.956 2.612 3.533 2.393 5.612 2.175.992-.105 2.098-.209 3.414-.006 2.753.42 3.963 2.181 5.519 4.314 4.766 6.554 11.063 11.928 15.397 18.78a32.79 32.79 0 011.272 2.18c-.074-.184-.136-.37-.21-.554a75.814 75.814 0 00-6.297-12.779 91.42 91.42 0 00-1.63-2.55 68.613 68.613 0 00-1.062-1.553c-.457-.666-.939-1.307-1.42-1.948a48.298 48.298 0 00-1.161-1.515c-.271-.345-.555-.69-.839-1.035a16.246 16.246 0 00-.964-1.159l-1.037-1.194a4.512 4.512 0 00-.332-.37c-.358-.42-.742-.826-1.124-1.233l-.112-.123a7.071 7.071 0 00-.321-.333c-.308-.345-.642-.678-.963-1.01a49.207 49.207 0 00-1.629-1.602 35.515 35.515 0 00-1.409-1.32 54.205 54.205 0 00-1.271-1.132c-.42-.37-.84-.728-1.272-1.085a54.578 54.578 0 00-1.593-1.307h-.013a67.873 67.873 0 00-4.617-3.388c-.395-.271-.777-.53-1.173-.789-.395-.271-.803-.518-1.197-.764-.409-.246-.803-.505-1.211-.739a29.52 29.52 0 00-1.222-.728 20.224 20.224 0 00-.988-.554 5.154 5.154 0 00-.506-.284 50.497 50.497 0 00-2.136-1.133c-.358-.185-.716-.37-1.087-.542a28.298 28.298 0 00-1.395-.665 1.067 1.067 0 00-.21-.099c-.42-.198-.84-.395-1.272-.58-.604-.258-1.21-.517-1.815-.764a60.925 60.925 0 00-2.087-.825 53.13 53.13 0 00-2.346-.838 77.367 77.367 0 00-2.395-.777 80.118 80.118 0 00-7.297-1.836l-.086-.024a48.48 48.48 0 00-1.89-.345l-.123-.025a18.196 18.196 0 00-.84-.136 66.363 66.363 0 00-3.556-.492c-.136-.025-.284-.037-.433-.05-.345-.049-.691-.073-1.049-.11-.79-.075-1.58-.136-2.383-.186a57.425 57.425 0 00-2.506-.123 62.88 62.88 0 00-2.631-.049 74.94 74.94 0 00-6.889.308c-.544.037-1.075.087-1.606.148-.555.062-1.111.123-1.667.197-.555.074-1.111.148-1.654.234a77.23 77.23 0 00-1.655.271c-.469.074-.95.16-1.419.26a76.916 76.916 0 00-3.446.739c-.531.123-1.062.258-1.592.406-.531.136-1.062.284-1.581.432-.876.246-1.729.517-2.581.788h-.012c-.691.234-1.394.468-2.074.703l-.049.024c-.704.247-1.383.506-2.075.777l-.111.036c-.63.247-1.26.506-1.877.765-.778.32-1.543.665-2.296 1.01a66.29 66.29 0 00-1.889.9c-.668.333-1.334.665-1.988 1.01l-.075.037c-.63.333-1.259.678-1.876 1.035-.642.357-1.272.728-1.902 1.122h-.012c-.593.357-1.173.714-1.753 1.084-.222.136-.432.284-.655.432-.618.393-1.21.8-1.815 1.22a68.193 68.193 0 00-2.173 1.565 71.42 71.42 0 00-1.852 1.429 77.642 77.642 0 00-9.706 9.18 73.987 73.987 0 00-3 3.55 65.86 65.86 0 00-2.358 3.167c.197-.025.395-.05.593-.062 1.111-.086 2.284-.05 3.284-.53.926-.456 1.58-1.282 2.42-1.873 2.148-1.528 5.668-1.811 6.248-4.375.197-.862-.037-1.799.284-2.625.605-1.54 2.667-1.761 4.321-1.737.704 0 1.531.099 1.853.714.234.431.099.974-.075 1.43-1.012 2.884-3.062 5.373-5.667 6.95-2.149 1.306-4.952 2.317-5.544 4.757.296.825 1.803.764 1.926 1.627.087.69-.802 1.047-1.123 1.663-.47.9.604 1.997 1.629 1.948 1.026-.05 1.877-.79 2.631-1.48 2.246-2.082 4.605-4.325 5.42-7.282.345-1.22.469-2.65 1.457-3.463 1.173-.961 3.272-.296 3.667 1.17.975-.541 2.495-.948 3.001.062.172.357.123.776.209 1.159.322 1.577 2.482 2.292 2.704 3.881.26 1.836-2.098 2.785-3.939 3.069-1.666.259-3.333.517-5 .788-.728.111-1.482.235-2.075.666-.592.443-.962 1.281-.616 1.934.197.358.58.592.864.888 1.383 1.38.247 4.227-1.704 4.288-.668.025-1.322-.221-1.988-.246-1.976-.086-3.544 1.651-4.483 3.389-.938 1.737-1.642 3.722-3.222 4.904-2.544 1.91-6.927 1.467-8.162 4.4-.494 1.182-.234 2.514-.037 3.783.197 1.257.284 2.661-.457 3.71-.729 1.034-2.63 1.256-3.173.097-.235-.504-.161-1.096-.074-1.638.296-1.824.58-3.648.864-5.472.21-1.355.395-2.871-.408-3.98-1.123-1.553-3.642-1.405-5.099-.16-1.445 1.244-2.049 3.191-2.457 5.052-.296 1.38-.642 3.327-1.408 4.904a71.119 71.119 0 00-.629 4.646 76.723 76.723 0 00-.333 4.819c.197-.16.407-.358.629-.591.778-.802 2.347-4.19 3.754-2.527.358.419.37 1.097.024 1.54-.432.555-1.296.678-1.629 1.282-.408.715.16 1.602.827 2.07.666.48 1.481.777 1.95 1.454.902 1.294.038 3.254.914 4.572.754 1.134 2.359 1.208 3.729 1.356l.469.074c.383-2.711 1.655-4.917 5.359-5.755 5.112-1.158 11.829 3.068 14.706 6.913 3.21 4.301 4.729 10.388 9.644 12.545 3.519 1.54 8.519.986 10.235 4.424 1.531 3.081-1.135 6.543-1.543 9.957-.259 2.255.481 4.498.655 6.753.161 2.267-.507 4.905-2.569 5.853-1.147.518-2.592.456-3.519 1.319-1.642 1.553-.296 4.757-1.938 6.31-.58.541-1.383.738-2.087 1.096-3.692 1.861-3.593 7.283-1.877 11.041.062.136.124.259.186.394a76.81 76.81 0 0017.545 7.727c7.112 2.157 14.656 3.303 22.472 3.303 13.225 0 25.695-3.29 36.611-9.094h.012a78.283 78.283 0 006.902-4.153 77.046 77.046 0 009.694-7.69 75.915 75.915 0 005.926-6.174 75.428 75.428 0 003.729-4.67 56.272 56.272 0 001.753-2.502 74.888 74.888 0 004.656-7.776 75.131 75.131 0 005.05-12.15 75.684 75.684 0 002.976-13.198c.234-1.75.419-3.525.542-5.311-.851.825-1.962 1.417-3.135 1.392-1.877-.025-3.421-1.589-4.174-3.315z" fill="#F3F2F1"/><path d="M259.114 37.866c-1.546.922-2.368 2.663-3.56 4.01-1.193 1.348-3.332 2.307-4.74 1.187-.677-.54-.982-1.43-1.059-2.293a5.874 5.874 0 01.84-3.566c.673-1.093 1.698-1.954 2.267-3.104.569-1.15.453-2.833-.713-3.373-.631-.29-1.424-.177-1.983-.588-1.006-.74-.286-2.488.882-2.929 1.169-.441 2.465-.1 3.712-.02 4.523.288 7.849-2.668 11.249-5.123 2.644-1.909 8.276-4.164 11.337-2.213 1.221.778 1.698 2.779.547 3.657-.514.394-1.224.482-1.703.918-.575.522-.656 1.38-.986 2.083-.856 1.827-3.325 2.49-4.119 4.346-.479 1.116-.263 2.504-1 3.47-.585.765-1.6 1.035-2.537 1.258l-5.898 1.4c-.874.207-1.765.42-2.536.88zm52.724 95.849c-1.956 2.943-2.311 6.62-2.854 10.11-.544 3.49-1.476 7.198-4.162 9.496-2.688 2.298-7.622 2.162-9.101-1.046-.802-1.742-.391-3.795-.828-5.662-.57-2.432-2.51-4.308-3.43-6.63-.786-1.981-.787-4.17-.851-6.299-.35-11.637-3.193-23.782-11.131-32.312-.976-1.048-2.083-2.07-3.468-2.436-1.647-.436-3.528.211-4.555 1.569-.637.841-.966 1.916-1.747 2.627-1.697 1.546-4.658.438-5.792-1.556-1.132-1.994-.975-4.439-.786-6.723l.705-8.5c.123-1.481.29-3.072 1.265-4.197 1.385-1.599 3.871-1.675 5.566-2.942 2.223-1.662 2.519-4.832 3.92-7.225 1.402-2.392 5.79-3.404 6.438-.71 4.641-9.912 14.896 4.815 20.994 3.707 1.77-.322 3.5-1.17 5.283-.921 3.148.439 4.773 3.9 5.844 6.887l5.334 14.873c.677 1.888 1.552 3.988 3.425 4.712 1.437.556 3.105.133 4.552.658 3.827 1.389 2.583 7.4-.497 10.059-3.078 2.658-7.401 4.337-8.865 8.128-1.102 2.857-.223 6.205-1.409 9.028-.85 2.021-2.636 3.481-3.85 5.305zm14.527 3.232c-1.257.176-2.741-.443-3.697.391-.559.487-.681 1.286-.903 1.991-.307.979-.897 1.906-1.782 2.429-.884.523-2.088.567-2.908-.052-.82-.62-1.07-1.941-.4-2.72.306-.354.746-.563 1.086-.884 1.67-1.575.527-4.494 1.795-6.366.748-1.103 1.926-2.223 2.749-3.341.632-.86.863-1.542 2.026-1.77 5.086-1 7.385 9.574 2.034 10.322zM209.92 115.815c-.247-2.231.494-4.461.531-6.717.024-1.552-.087-3.191-.111-4.756a21.6 21.6 0 01-3.964-.554c-.272-.062-.568-.149-.729-.37-.172-.234-.147-.542-.16-.826-.098-1.75-1.79-2.908-3.309-3.783-.778-.456-1.568-.9-2.408-1.184 0 .185 0 .358.012.543a77.487 77.487 0 004.964 24.708 74.707 74.707 0 004.766 10.204 64.881 64.881 0 002.483 4.176 71.71 71.71 0 003.444 4.93 65.571 65.571 0 003.618 4.448 77.074 77.074 0 005.519 5.669 76.296 76.296 0 005.371 4.56c-4.26-11.412-8.272-23.057-15.557-32.767-1.914-2.539-4.112-5.126-4.47-8.281z" fill="#CCEDE0"/><path d="M210.34 104.342c.024 1.565.135 3.204.111 4.757-.037 2.255-.778 4.485-.531 6.716.358 3.155 2.556 5.742 4.47 8.281 7.285 9.71 11.297 21.355 15.557 32.767h.013c.79.628 1.593 1.22 2.408 1.799a69.181 69.181 0 005.359 3.511c-.062-.135-.125-.258-.186-.394-1.716-3.758-1.815-9.18 1.877-11.041.704-.358 1.507-.554 2.087-1.096 1.642-1.553.296-4.757 1.938-6.31.926-.863 2.372-.801 3.519-1.319 2.062-.948 2.729-3.586 2.569-5.853-.174-2.255-.914-4.498-.655-6.753.408-3.414 3.074-6.876 1.543-9.957-1.716-3.438-6.716-2.884-10.235-4.424-4.915-2.157-6.434-8.244-9.644-12.545-2.877-3.845-9.594-8.071-14.706-6.913-3.704.838-4.976 3.044-5.359 5.755m-5.84-28.651c1.457-1.245 3.976-1.393 5.1.16.802 1.109.617 2.625.407 3.98-.284 1.824-.568 3.648-.864 5.472-.087.542-.161 1.134.074 1.638.543 1.159 2.444.937 3.173-.098.741-1.048.654-2.452.457-3.71-.197-1.27-.457-2.6.037-3.783 1.235-2.932 5.618-2.489 8.162-4.398 1.58-1.184 2.284-3.168 3.222-4.906.939-1.737 2.507-3.474 4.483-3.388.666.025 1.32.27 1.988.246 1.951-.061 3.087-2.908 1.704-4.288-.284-.296-.667-.53-.864-.888-.346-.653.024-1.49.616-1.934.593-.432 1.347-.555 2.075-.666a673.22 673.22 0 015-.788c1.841-.284 4.199-1.233 3.939-3.069-.222-1.59-2.382-2.304-2.703-3.881-.087-.383-.038-.802-.21-1.159-.506-1.01-2.025-.603-3.001-.062-.395-1.466-2.494-2.131-3.668-1.17-.987.813-1.111 2.242-1.456 3.463-.815 2.957-3.173 5.2-5.42 7.283-.754.69-1.605 1.429-2.631 1.478-1.025.05-2.099-1.047-1.629-1.947.321-.616 1.21-.973 1.123-1.663-.123-.864-1.63-.8-1.926-1.627.592-2.44 3.396-3.45 5.544-4.757 2.605-1.577 4.655-4.066 5.667-6.95.173-.456.309-.998.075-1.43-.322-.615-1.149-.714-1.853-.714-1.654-.024-3.716.197-4.321 1.737-.321.826-.087 1.763-.284 2.625-.58 2.564-4.1 2.847-6.248 4.375-.84.591-1.494 1.417-2.42 1.874-1 .48-2.173.443-3.284.53-.198.011-.396.036-.593.06a69.505 69.505 0 00-1.965 2.88 78.395 78.395 0 00-1.826 2.974 76.986 76.986 0 00-6.766 15.06 74.46 74.46 0 00-1.602 5.615 77.6 77.6 0 00-1.176 5.782c.765-1.577 1.111-3.524 1.407-4.904.408-1.86 1.012-3.808 2.457-5.052zm151.096 21.602a68.363 68.363 0 00-.1-3.34 72.41 72.41 0 00-.257-3.302 63.195 63.195 0 00-.309-2.637 75.37 75.37 0 00-3.163-13.869 75.25 75.25 0 00-1.048-2.977v-.013a32.403 32.403 0 00-1.272-2.18c-4.334-6.852-10.631-12.226-15.397-18.78-1.556-2.133-2.766-3.895-5.519-4.314-4.075-.628-6.138 1.688-9.026-2.169-.779-1.035-2.136-1.996-3.285-1.38.297.826.605 1.651.902 2.49.061.172.123.357.099.541-.062.58-.927.74-1.421.42-.494-.333-.741-.912-1.086-1.393-1.284-1.836-4.297-2.07-5.865-.481a2.245 2.245 0 00-1.297-1.824c-.16 1.517-1.901 2.638-3.358 2.157-.235-.752 1.111-.887 1.58-1.528.433-.603-.087-1.442-.641-1.947a8.584 8.584 0 00-5.372-2.082c-1.247-.025-2.593.21-3.68-.432-.629-.37-1.074-.986-1.716-1.343-1.371-.776-3.087-.062-4.469.703-1.89 1.047-3.841 2.365-4.508 4.424-.678 2.045.815 4.818 2.964 4.56.543-.075 1.111-.334 1.642-.186.766.21 1.111 1.097 1.173 1.886.061.776-.024 1.614.358 2.304.371.69 1.495 1.035 1.926.382 1.013-.961.89-2.575.63-3.943-.247-1.368-.531-2.909.284-4.03.827-1.121 3.173-.764 3.014.616-.1.813-1.026 1.405-.989 2.23.037.839 1.062 1.281 1.901 1.245.84-.024 1.692-.333 2.507-.123.828.197 1.482 1.269.889 1.873-1.025 1.159-3.692-.826-4.223.616-.147.37 0 .789-.037 1.183-.099 1.208-1.617 1.651-2.827 1.8-1.21.135-2.494.258-3.593-.26-1.099-.517-1.853-1.959-1.223-2.994-.617-.444-1.556 0-1.889.69-.334.678-.235 1.492-.135 2.243-1.285-.283-2.433.8-3.161 1.873-.742 1.084-1.446 2.341-2.693 2.723-1.259.382-2.987-.135-3.642.999-.852 1.479 1.618 3.351.754 4.818-.495.826-1.68.801-2.618 1.06-2.482.703-3.347 4.326-1.655 6.26 1.68 1.934 5.075 1.824 6.865-.025 1.248-1.27 1.753-3.056 2.655-4.584.901-1.516 2.605-2.895 4.309-2.403.667.197 1.235.665 1.766 1.109.827.69 1.655 1.38 2.481 2.083.532.443 1.112.998 1.063 1.687-.05.556-.482.987-.667 1.505-.519 1.49 1.642 2.908 3 2.094 1.371-.813 1.506-2.896.581-4.177-1.284-1.774-4.187-2.662-4.112-4.855 1.482-1.209 3.815.062 4.68 1.774.864 1.7.889 3.721 1.617 5.484.729 1.774 2.766 3.34 4.47 2.477-.445-1.528-.876-3.044-1.321-4.56 1.086-.813 2.333 1.552 3.63 1.159.79-.247.888-1.38.544-2.145-.334-.764-.952-1.404-1.1-2.23-.247-1.504 1.433-2.847 2.951-2.6 1.507.246 2.606 1.688 2.89 3.18.111.59.135 1.22.395 1.761.568 1.183 2.037 1.541 3.247 2.034 1.222.493 2.482 1.712 1.976 2.92-.235.53-.79 1.035-.593 1.577.186.48.901.69.901 1.209-.012.344-.37.578-.691.714-.815.332-1.704.443-2.494.826-.79.369-1.507 1.133-1.445 1.996.099 1.232 1.569 1.824 2.26 2.846.666.974.568 2.268.988 3.377.395 1.023 1.21 1.824 1.864 2.699 2.05 2.785 2.532 6.371 3.531 9.674.445 1.49 1.26 3.154 2.79 3.438.841.147 1.681-.173 2.47-.481 2.21-.875 4.507-1.811 6.05-3.598 1.557-1.8 2.075-4.72.482-6.482-.197-.234-.457-.444-.753-.48-.42-.05-.79.233-1.161.405-1.124.518-2.507.087-3.445-.739-.926-.813-1.493-1.96-2.05-3.068-.604-1.22-1.21-2.452-1.827-3.685.729-.616 1.889-.357 2.643.247.74.603 1.198 1.478 1.802 2.218 1.84 2.292 4.866 3.302 7.792 3.647.741.087 1.506.149 2.197.456 2.185.999 2.815 4.215 5.125 4.905.642.197 1.357.16 1.963.444.914.43 1.37 1.466 1.642 2.44.507 1.81.679 3.72 1.445 5.446.753 1.726 2.297 3.29 4.174 3.315 1.173.025 2.284-.567 3.135-1.392v-.012a88 88 0 00.161-5.127c0-.357 0-.715-.025-1.072z" fill="#CCEDE0"/><path d="M225.673 37.374s.613-.45 1.857-1.188a41.772 41.772 0 015.669-2.803 47.027 47.027 0 019.632-2.713 52.07 52.07 0 016.216-.704 53.756 53.756 0 013.414-.14c1.169-.048 2.37.008 3.6.023a69.494 69.494 0 0115.886 2.352c5.574 1.529 11.373 3.892 16.821 7.47 5.492 3.499 10.478 8.385 14.412 14.27 3.918 5.888 6.694 12.894 7.549 20.365a40.848 40.848 0 01-.164 10.51l-.326-.187c2.705-2.169 5.742-3.827 8.901-4.974a33.152 33.152 0 019.699-1.839c6.491-.256 12.754 1.603 17.677 4.882 4.957 3.262 8.615 7.755 10.934 12.422a29.717 29.717 0 013.105 14.005c-.141 4.424-1.233 8.324-2.607 11.524a31.915 31.915 0 01-4.67 7.577c-1.549 1.899-3.007 3.127-3.976 3.961l-1.162.879c-.263.196-.403.289-.403.289s.125-.114.38-.32l1.135-.907c.951-.851 2.387-2.093 3.91-3.996a32.137 32.137 0 004.589-7.568c1.346-3.186 2.41-7.063 2.531-11.447a29.505 29.505 0 00-3.121-13.855c-2.309-4.611-5.941-9.05-10.844-12.263-4.87-3.229-11.05-5.053-17.465-4.795a32.805 32.805 0 00-9.577 1.825 31 31 0 00-8.782 4.911l-.401.323.075-.51c.484-3.29.564-6.85.159-10.402-.846-7.398-3.595-14.347-7.478-20.193-3.9-5.841-8.836-10.692-14.285-14.175-5.405-3.562-11.164-5.924-16.705-7.459a69.544 69.544 0 00-15.807-2.39c-1.225-.018-2.421-.08-3.586-.035a53.52 53.52 0 00-3.402.124c-2.206.1-4.274.353-6.194.67a47.582 47.582 0 00-9.612 2.636 44.216 44.216 0 00-5.686 2.727c-.632.35-1.097.646-1.413.837-.317.192-.485.281-.485.281" fill="#DADBD8"/><path d="M312.161 83.164c-.482-.779-.556-.888-1.138-1.33-1.212-1.092-2.767-.943-3.396-.139-.704.9-.696 2.206-.248 3.257.408.958 1.191 1.794 2.193 2.087 1 .295 2.205-.05 2.763-.93.556-.876.374-2.064-.174-2.945z" fill="#DADBD8"/><path d="M292.739 35.635c.287-1.46-1.834-2.995-3.633-3.777 0 0-1.177-.586-1.68-.752l-.011-.01-2.108-3.479a1.657 1.657 0 00-.724-.644l-.338-.155a.22.22 0 00-.306.259l.844 3.117-.026.025-3.335-1.108-.05-.016a2.615 2.615 0 01-1.451-1.236l-.754-1.406a.397.397 0 00-.757.16l-.067 2.369a.963.963 0 00.526.884l.837.425 4.289 2.11-2.237 1.133a.16.16 0 00-.047.247l.133.154c.18.212.458.317.734.276l3.686-.692 5.06 2.49c.666.338 1.273.169 1.415-.374z" fill="#CCEDE0"/><path fill-rule="evenodd" clip-rule="evenodd" d="M225.547 28.834c.953 0 1.867.401 2.496 1.264.721.99.645 2.343.149 3.315-.395.772-1.713 3.184-2.237 3.91h-.408s-1.876-2.373-2.478-3.242a4.25 4.25 0 01-.437-.81c-.309-.748-.366-1.583-.111-2.352.692-2.085 3.026-2.085 3.026-2.085zm-1.604 3.132c0 1.099.892 1.99 1.994 1.99a1.992 1.992 0 001.994-1.99c0-1.1-.893-1.99-1.994-1.99a1.99 1.99 0 00-1.994 1.99z" fill="#DADBD8"/><path fill-rule="evenodd" clip-rule="evenodd" d="M225.958 28.85c.953 0 1.867.402 2.495 1.264.722.991.645 2.344.15 3.315-.477.934-2.645 3.91-2.645 3.91s-1.876-2.373-2.479-3.242a4.324 4.324 0 01-.436-.81c-.309-.748-.366-1.583-.111-2.352.691-2.085 3.026-2.085 3.026-2.085zm-2.013 3.133a1.978 1.978 0 001.994 1.99 1.99 1.99 0 100-3.98c-1.101 0-1.99.89-1.994 1.99z" fill="#E7E8E5"/><path d="M225.937 29.976c-.868 0-1.606.553-1.88 1.325a1.709 1.709 0 013.265.704c0 .941-.765 1.704-1.708 1.704a1.707 1.707 0 01-1.349-.658c.357.545.971.905 1.672.905a1.992 1.992 0 001.994-1.99c0-1.1-.893-1.99-1.994-1.99z" fill="#DADBD8"/><path fill-rule="evenodd" clip-rule="evenodd" d="M223.343 85.886c.929 0 1.82.392 2.432 1.233.704.966.63 2.285.145 3.23-.384.754-1.67 3.106-2.18 3.813h-.397s-1.83-2.313-2.417-3.16a4.169 4.169 0 01-.426-.79c-.301-.73-.356-1.543-.108-2.292.674-2.034 2.951-2.034 2.951-2.034zm-1.565 3.054c0 1.072.87 1.94 1.944 1.94a1.942 1.942 0 001.944-1.94c0-1.071-.87-1.94-1.944-1.94a1.942 1.942 0 00-1.944 1.94z" fill="#DADBD8"/><path fill-rule="evenodd" clip-rule="evenodd" d="M223.742 85.902c.93 0 1.821.392 2.433 1.233.704.965.629 2.284.147 3.23-.466.912-2.58 3.814-2.58 3.814s-1.828-2.314-2.416-3.161a4.161 4.161 0 01-.425-.79c-.302-.73-.357-1.543-.108-2.292.673-2.034 2.949-2.034 2.949-2.034zm-1.962 3.054a1.928 1.928 0 001.944 1.94 1.944 1.944 0 001.945-1.94 1.945 1.945 0 00-3.889 0z" fill="#E7E8E5"/><path d="M223.722 87c-.846 0-1.565.54-1.833 1.292a1.667 1.667 0 013.184.685 1.664 1.664 0 01-2.98 1.021 1.94 1.94 0 001.629.882 1.942 1.942 0 001.944-1.94c0-1.071-.87-1.94-1.944-1.94z" fill="#DADBD8"/><path fill-rule="evenodd" clip-rule="evenodd" d="M325.304 113.925c.929 0 1.82.393 2.432 1.234.704.965.629 2.284.145 3.23-.384.754-1.669 3.106-2.18 3.813h-.397s-1.83-2.314-2.417-3.16a4.117 4.117 0 01-.425-.79 3.3 3.3 0 01-.109-2.293c.675-2.034 2.951-2.034 2.951-2.034zm-1.565 3.055c0 1.072.87 1.94 1.944 1.94a1.941 1.941 0 001.944-1.94c0-1.072-.87-1.94-1.944-1.94a1.941 1.941 0 00-1.944 1.94z" fill="#DADBD8"/><path fill-rule="evenodd" clip-rule="evenodd" d="M325.704 113.942c.929 0 1.82.392 2.433 1.233.703.965.629 2.284.146 3.23-.466.911-2.579 3.813-2.579 3.813s-1.829-2.314-2.417-3.16a4.204 4.204 0 01-.425-.79c-.302-.73-.357-1.543-.109-2.293.675-2.033 2.951-2.033 2.951-2.033zm-1.962 3.054a1.928 1.928 0 001.943 1.941 1.945 1.945 0 001.945-1.941 1.944 1.944 0 00-3.888 0z" fill="#E7E8E5"/><path d="M325.683 115.04c-.845 0-1.565.539-1.832 1.292a1.666 1.666 0 013.183.685 1.665 1.665 0 01-2.98 1.021c.347.531.947.882 1.629.882a1.942 1.942 0 001.945-1.94c0-1.072-.871-1.94-1.945-1.94z" fill="#DADBD8"/><path fill-rule="evenodd" clip-rule="evenodd" d="M326.207 28.626a2.938 2.938 0 011.848 2.004c.32 1.15-.212 2.36-.996 3.078-.625.573-2.653 2.326-3.379 2.812l-.372-.14s-.904-2.805-1.158-3.804a4.304 4.304 0 01-.122-.887c-.026-.79.207-1.572.702-2.186 1.344-1.67 3.477-.877 3.477-.877zm-2.537 2.316a1.94 1.94 0 001.143 2.496 1.946 1.946 0 002.501-1.139 1.939 1.939 0 00-1.142-2.496 1.946 1.946 0 00-2.502 1.139z" fill="#DADBD8"/><path fill-rule="evenodd" clip-rule="evenodd" d="M326.576 28.781a2.931 2.931 0 011.847 2.004c.321 1.15-.21 2.36-.995 3.078-.754.691-3.751 2.672-3.751 2.672s-.903-2.805-1.157-3.804a4.109 4.109 0 01-.122-.888 3.298 3.298 0 01.702-2.186c1.344-1.67 3.476-.876 3.476-.876zm-2.908 2.177a1.923 1.923 0 001.142 2.496 1.947 1.947 0 002.501-1.14 1.939 1.939 0 00-1.142-2.495 1.947 1.947 0 00-2.501 1.139z" fill="#E7E8E5"/><path d="M326.172 29.803a1.947 1.947 0 00-2.17.57 1.67 1.67 0 011.765-.385 1.66 1.66 0 01.977 2.138 1.665 1.665 0 01-3.149-.083 1.944 1.944 0 003.718.256 1.937 1.937 0 00-1.141-2.496z" fill="#DADBD8"/><path d="M28.581 238.366h91.613v-61.097H28.581v61.097z" fill="#CCEDE0"/><path d="M82.906 238.366h37.288v-61.097H82.906v61.097z" fill="#DADBD8"/><path d="M70.865 226.266h-32.1v-36.897h32.1v36.897z" fill="#FAFAF9"/><path d="M54.009 201.619v-5.493c0-.362.294-.657.657-.657h.245c.363 0 .657.295.657.657v.255h4.085v1.396h-4.032v3.842H54.01zm4.559 18.546h-7.506c-.912 0-1.65-.737-1.65-1.648v-14.144c0-.911.738-1.648 1.65-1.648h7.506a1.65 1.65 0 011.651 1.648v14.144a1.65 1.65 0 01-1.651 1.648z" fill="#E7E8E5"/><path d="M57.597 202.725h-5.316v-1.454a.76.76 0 01.76-.759h3.795c.42 0 .761.34.761.759v1.454z" fill="#E7E8E5"/><path d="M59.172 216.057H54.49v-9.763h4.682v9.763zm-9.096-1.861c-.104 0-.188-2.276-.188-5.082 0-2.808.084-5.084.188-5.084s.188 2.276.188 5.084c0 2.806-.084 5.082-.188 5.082z" fill="#FAFAF9"/><path d="M42.858 191.341h-2.384v-4.387h2.384v4.387zm.469 36.789l-2.32.542-1.002-4.271 2.32-.542 1.002 4.271zm25.037.614l-2.36-.335.62-4.342 2.359.334-.62 4.343zm.416-37.403h-2.383v-4.387h2.383v4.387z" fill="#DADBD8"/><path d="M20.339 317.603h118.64v-79.121H20.339v79.121z" fill="#CCEDE0"/><path d="M90.69 317.603h48.289v-79.121h-48.29v79.121z" fill="#DADBD8"/><path d="M79.483 299.002l-42.601 5.391-6.244-49.149 42.602-5.391 6.243 49.149z" fill="#FAFAF9"/><path d="M69.697 270.112a1.62 1.62 0 00-.147-1.181c-.13-.227-.304-.378-.514-.194-.286.25-1.831 3.999-1.831 3.999l-.474-6.208c-.006-.4-.167-.794-.478-1.046-.144-.115-.617-.226-.916.849-.08.286-.478 5.484-.478 5.484l-.651-7.017c-.074-.491-.522-.879-1.01-.794l-.14.038c-.448.178-.785 8-.785 8l-1.736-6.529a1.023 1.023 0 00-1.686-.409c-.605.606 2.11 10.263 1.051 10.718-1.059.456-1.992-2.184-3.786-2.67-.359-.097-.649-.103-.883-.053-.784.171-.97 1.234-.333 1.72 1.429 1.094 3.089 3.7 3.089 3.7l3.304 9.745 8.919-1.128s-2.738-5.146-2.393-7.937c.29-2.346 1.5-7.506 1.878-9.087zm-31.731 4.016a1.622 1.622 0 01-.153-1.181c.07-.252.2-.441.45-.317.34.172 2.773 3.418 2.773 3.418l-1.093-6.131c-.095-.388-.038-.81.2-1.131.11-.148.541-.372 1.1.595.148.256 1.833 5.19 1.833 5.19l-1.123-6.958c-.051-.493.285-.981.78-1.02l.144.003c.48.061 2.761 7.55 2.761 7.55l.048-6.754a1.021 1.021 0 011.531-.816c.737.436.523 10.464 1.662 10.642 1.14.177 1.383-2.612 2.999-3.53.323-.183.602-.262.841-.27.803-.031 1.249.951.753 1.582-1.11 1.415-2.066 4.352-2.066 4.352l-.763 10.259-8.919 1.129s1.364-5.664.334-8.281c-.868-2.2-3.33-6.895-4.092-8.331zm32.246-21.829h-1.918v-4.745h1.918v4.745zm-34.609 4.222l-1.824.592-1.47-4.512 1.825-.592 1.47 4.512zm42.971 44.899l-1.824.591-1.47-4.512 1.825-.592 1.47 4.513zm-38.022 5.684h-1.919v-4.745h1.919v4.745z" fill="#DADBD8"/><path d="M211.558 250.156h88.486v-59.011h-88.486v59.011z" fill="#CCEDE0"/><path d="M264.028 250.156h36.016v-59.011h-36.016v59.011z" fill="#CCEDE0"/><path d="M255.671 236.281l-31.775 4.021-4.656-36.657 31.774-4.02 4.657 36.656z" fill="#FAFAF9"/><path d="M248.371 214.734a1.206 1.206 0 00-.109-.88c-.098-.17-.228-.282-.384-.144-.213.185-1.366 2.982-1.366 2.982l-.353-4.631a1.017 1.017 0 00-.357-.78c-.107-.086-.459-.168-.683.634-.059.213-.356 4.089-.356 4.089l-.486-5.234c-.055-.365-.389-.655-.754-.591l-.103.028c-.335.133-.587 5.966-.587 5.966l-1.294-4.868a.761.761 0 00-1.257-.305c-.451.452 1.573 7.654.784 7.994-.79.339-1.486-1.63-2.824-1.992-.268-.073-.484-.078-.658-.04-.585.128-.725.92-.249 1.284 1.065.815 2.303 2.759 2.303 2.759l2.465 7.268 6.652-.842s-2.042-3.837-1.785-5.919c.217-1.749 1.119-5.599 1.401-6.778zm-23.666 2.995a1.207 1.207 0 01-.113-.88c.051-.188.149-.329.334-.236.254.127 2.069 2.548 2.069 2.548l-.816-4.572c-.07-.29-.028-.604.15-.844.083-.11.403-.277.821.444.11.191 1.367 3.871 1.367 3.871l-.838-5.189c-.039-.368.212-.732.582-.761l.107.003c.357.044 2.059 5.631 2.059 5.631l.036-5.038a.762.762 0 011.142-.609c.549.325.39 7.804 1.24 7.937.85.132 1.031-1.948 2.236-2.632a1.4 1.4 0 01.628-.202c.598-.022.93.71.562 1.181-.828 1.055-1.542 3.245-1.542 3.245l-.569 7.652-6.652.841s1.018-4.224.248-6.175c-.647-1.641-2.483-5.143-3.051-6.215zm24.05-16.28h-1.431v-3.539h1.431v3.539zm-25.813 3.149l-1.36.441-1.096-3.364 1.36-.442 1.096 3.365zm32.05 33.486l-1.361.442-1.096-3.366 1.361-.441 1.096 3.365zm-28.358 4.24h-1.431v-3.538h1.431v3.538z" fill="#DADBD8"/><path d="M497.98 148.836c.425-3.079-3.931-5.613-7.204-5.877-1.56-.125-3.181.113-4.659-.401-3.204-1.115-4.483-5.245-7.609-6.56-2.337-.984-5.027-.108-7.293 1.029-2.265 1.139-4.503 2.57-7.034 2.732-2.202.14-4.592-.674-6.518.399-1.435.8-2.187 2.451-3.51 3.424-1.294.953-2.982 1.155-4.589 1.242-1.605.087-3.268.103-4.73.771-1.462.668-2.671 2.211-2.368 3.787l55.514-.546zM177.224 33.42c.425-3.08-3.93-5.614-7.203-5.877-1.56-.126-3.181.113-4.659-.401-3.203-1.115-4.483-5.245-7.609-6.561-2.337-.983-5.027-.107-7.292 1.03-2.266 1.138-4.504 2.57-7.035 2.732-2.201.14-4.592-.675-6.518.399-1.436.8-2.188 2.45-3.511 3.424-1.294.953-2.981 1.154-4.587 1.241-1.606.088-3.269.104-4.731.772-1.462.669-2.672 2.212-2.368 3.788l55.513-.547zm322.171 16.494c.424-3.079-3.932-5.613-7.204-5.876-1.56-.125-3.181.113-4.66-.401-3.203-1.115-4.483-5.245-7.608-6.56-2.337-.984-5.027-.109-7.292 1.03-2.266 1.137-4.504 2.57-7.035 2.73-2.201.141-4.592-.674-6.518.4-1.435.8-2.187 2.45-3.51 3.424-1.294.953-2.983 1.154-4.589 1.242-1.605.087-3.268.103-4.73.77-1.462.669-2.671 2.213-2.368 3.788l55.514-.547zm-44.539 44.265c.54-3.918-5-7.141-9.163-7.475-1.986-.161-4.047.142-5.928-.512-4.075-1.417-5.703-6.672-9.68-8.345-2.972-1.251-6.394-.138-9.276 1.31-2.882 1.448-5.729 3.27-8.949 3.475-2.801.179-5.842-.858-8.292.508-1.826 1.017-2.783 3.117-4.466 4.356-1.646 1.211-3.794 1.468-5.837 1.579-2.042.111-4.157.131-6.017.982-1.86.85-3.399 2.813-3.013 4.818l70.621-.696z" fill="#E7E8E5"/><path d="M504.82 317.523c0 .103-113.016.187-252.398.187C112.993 317.71 0 317.626 0 317.523s112.993-.188 252.422-.188c139.382 0 252.398.085 252.398.188z" fill="#17282F"/><path d="M125.585 139.219s.829 23.544 3.354 25.383c2.524 1.839 24.362 8.061 24.362 8.061l13.201-2.115-24.825-13.771-2.163-22.738-13.929 5.18" fill="#C0776A"/><path d="M173.17 172.245s3.267 1.808 4.141 2.214c.954.442 1.644-1.371.712-2.175-.655-.565-2.971-2.222-4.289-3.155a2.537 2.537 0 00-2.044-.401l-5.188.309-6.796-3.739-7.742 9.12 7.366 3.33s.854 1.384 1.693 1.586c.838.203 3.867-.711 3.867-.711s3.782 3.946 5.149 2.81c1.367-1.135-1.441-3.929-1.441-3.929s3.826 3.829 4.946 2.716c1.121-1.113-1.883-4.61-1.883-4.61s2.038 1.66 3.273 2.561c1.253.913 2.475-1.005 2.106-1.438-.466-.546-3.87-4.488-3.87-4.488z" fill="#DADBD8"/><path d="M173.17 172.245l2.394 2.679 1.248 1.407c.113.144.228.229.349.43.086.228.01.429-.058.614-.155.371-.424.7-.79.939-.364.236-.907.293-1.313.026-.385-.25-.714-.539-1.091-.819l-2.332-1.807.185-.19a15.044 15.044 0 011.485 2.077c.223.384.433.791.572 1.245.127.43.236 1.013-.154 1.462-.194.222-.514.284-.772.262a2.423 2.423 0 01-.742-.199c-.465-.196-.89-.466-1.305-.754a19.947 19.947 0 01-2.366-1.995l.235-.237c.587.611 1.139 1.276 1.549 2.081.192.401.371.856.299 1.365-.065.505-.529.977-1.073.98-.519.013-.97-.185-1.39-.399a8.982 8.982 0 01-1.192-.766 19.242 19.242 0 01-2.151-1.896l.185.048c-.979.282-1.98.558-3.051.709-.27.033-.538.063-.849.018-.316-.057-.567-.229-.787-.406-.436-.368-.777-.801-1.085-1.273l.082.072-2.997-1.354-4.368-1.976-.226-.102.16-.189 7.752-9.111.092-.109.124.069 6.789 3.753-.085-.019 5.188-.292-.023.003a2.694 2.694 0 011.77.203c.271.128.493.31.708.469l.649.482 2.409 1.791.554.413c.18.137.366.252.52.443.289.383.342.863.254 1.274-.095.402-.329.814-.75.924-.202.059-.423-.01-.568-.095l-.439-.241-3.595-2.009 3.641 1.86c.302.125.614.413.919.316.314-.08.527-.432.605-.794.074-.369.017-.79-.231-1.107-.12-.15-.314-.273-.495-.407l-.557-.405-2.418-1.76c-.213-.156-.431-.313-.65-.474-.224-.162-.434-.331-.673-.439a2.421 2.421 0 00-1.589-.171l-.011.003-.013.001-5.187.325-.045.003-.04-.022-6.805-3.723.217-.041-7.732 9.129-.065-.291 4.369 1.974c1.027.465 2.045.924 2.997 1.356l.047.021.035.051c.584.841 1.299 1.81 2.356 1.488 1.023-.141 2.03-.415 2.991-.691l.108-.03.078.079a19.224 19.224 0 002.102 1.862c.369.275.748.531 1.142.739.39.204.814.374 1.206.362.385 0 .688-.319.746-.684.059-.375-.083-.787-.263-1.158-.375-.747-.918-1.411-1.475-1.995l.236-.236c.74.725 1.514 1.399 2.315 1.971.401.282.813.544 1.241.727.413.179.918.293 1.174.014.262-.287.213-.761.09-1.168-.123-.417-.322-.813-.537-1.187a14.764 14.764 0 00-1.439-2.046l-.78-.951.965.762 2.308 1.822c.365.278.717.588 1.061.817.342.226.765.185 1.09-.012.322-.204.579-.507.719-.834.067-.159.116-.346.067-.463-.063-.115-.222-.273-.324-.402l-1.247-1.486a4174.843 4174.843 0 00-2.249-2.705z" fill="#17282F"/><path d="M165.676 170.146c.023-.029.241.199.747.394.503.204 1.288.303 2.269.242.491-.021 1.036-.064 1.633-.015.593.046 1.253.215 1.813.638.277.212.527.493.678.841.16.349.173.774.052 1.146-.117.373-.356.734-.739.939-.385.225-.888.154-1.238-.023-.365-.167-.661-.366-.987-.43a2.328 2.328 0 00-.997.005c-.665.133-1.255.463-1.82.784-.566.322-1.129.634-1.719.787a3.693 3.693 0 01-1.666.045 3.865 3.865 0 01-2.078-1.13 2.89 2.89 0 01-.388-.516c-.072-.13-.103-.199-.093-.206.03-.019.187.249.583.618a3.95 3.95 0 002.023.973c.47.08 1.002.068 1.536-.082.537-.154 1.067-.457 1.628-.788.56-.328 1.183-.691 1.92-.845.366-.077.763-.1 1.155-.009.401.083.738.31 1.057.451.321.153.639.187.908.037.272-.14.47-.423.564-.721.218-.612-.108-1.238-.59-1.602-.87-.663-1.931-.65-2.827-.637-.138.002-.272.005-.401.005-.993.029-1.826-.115-2.334-.373a2.15 2.15 0 01-.542-.356c-.109-.1-.155-.165-.147-.172zm3.127 7.667c-.098.048-.448-.53-1.113-.977-.656-.461-1.322-.582-1.311-.69-.009-.1.771-.143 1.525.381.757.516.995 1.259.899 1.286z" fill="#17282F"/><path d="M171.996 176.146c-.1.044-.454-.723-1.292-1.25-.825-.548-1.67-.555-1.671-.666-.003-.046.211-.113.567-.094.354.018.846.148 1.308.445.461.299.781.694.942 1.009.165.317.19.538.146.556z" fill="#17282F"/><path d="M78.784 294.626l-.031 23.035 28.715.187c-.15-2.739-14.97-8.331-14.97-8.331l.628-14.759-14.342-.132z" fill="#3B8D96"/><path d="M83.893 310.398c-.492 0-.978-.365-1.086-.85-.117-.525.214-1.102.713-1.296a.746.746 0 01.348-.081c.186 0 .38.059.555.157v1.908a.937.937 0 01-.53.162" fill="#2B7078"/><path d="M107.468 317.848l-28.715-.187 28.715.187a.808.808 0 00-.027-.172h.04a.847.847 0 01-.013.172" fill="#fff"/><path d="M107.503 317.664h-.055l-.003-.011h.057l.001.011z" fill="#9BA6A6"/><path d="M107.468 317.848l-28.715-.187.094-2.321 5.576.213v2.115h23.016l.002.008a.808.808 0 01.027.172" fill="#2B7078"/><path d="M92.964 309.374c-.005.14-.706.199-1.4.644-.704.428-1.064 1.032-1.192.976-.13-.028.085-.864.933-1.388.844-.533 1.69-.36 1.659-.232zm3.004 1.263c.032.136-.578.37-1.058.959-.497.574-.621 1.214-.76 1.206-.133.022-.224-.799.387-1.52.603-.725 1.429-.779 1.431-.645zm1.688 3.608c-.128.03-.319-.671.046-1.435.36-.767 1.023-1.065 1.082-.948.078.116-.35.524-.64 1.156-.305.625-.35 1.215-.489 1.227zm-4.923-8.25c-.06.127-.701-.07-1.494-.022-.794.033-1.413.294-1.485.173-.08-.101.525-.615 1.46-.66.934-.051 1.589.399 1.52.509zm-.661-3.405c.001.058-.554.14-1.438-.017a6.468 6.468 0 01-1.502-.471 7.022 7.022 0 01-.823-.442c-.132-.086-.288-.172-.432-.341-.155-.147-.24-.519-.06-.745a.77.77 0 01.617-.316c.212-.005.383.038.54.078a5.08 5.08 0 012.213 1.189c.661.621.885 1.145.836 1.171-.063.046-.385-.394-1.06-.907a5.725 5.725 0 00-1.277-.729 5.3 5.3 0 00-.825-.26c-.303-.081-.562-.086-.64.05-.03.051-.034.071.03.159.065.084.188.165.317.25.254.167.508.312.758.438a8.04 8.04 0 001.387.541c.82.234 1.362.276 1.359.352z" fill="#17282F"/><path d="M91.888 302.789c-.05.021-.325-.482-.37-1.389a4.661 4.661 0 01.578-2.438c.17-.282.377-.66.922-.719.284-.009.519.214.598.403.094.196.112.362.144.528a3.292 3.292 0 01-.63 2.445c-.565.74-1.151.903-1.162.855-.047-.07.444-.337.878-1.048.213-.35.404-.813.464-1.346.03-.266.027-.547-.021-.83-.044-.305-.157-.551-.27-.521-.144-.002-.388.226-.507.467a4.7 4.7 0 00-.361.776 5.138 5.138 0 00-.288 1.431c-.045.841.101 1.365.025 1.386z" fill="#17282F"/><path d="M29.219 285.099l-8.88 21.262 26.45 11.161c.913-2.586-10.626-13.424-10.626-13.424l6.25-13.39-13.194-5.609z" fill="#3B8D96"/><path d="M28.234 301.691a1.01 1.01 0 01-.135-.01c-.57-.086-.998-.696-.898-1.262.092-.523.607-.924 1.134-.924h.023a.633.633 0 01.062-.003c.55 0 1.051.66 1.017 1.214-.033.529-.659.985-1.203.985z" fill="#2B7078"/><path d="M46.818 317.414c.077-.368-.055-.872-.341-1.471.235.312.61.933.37 1.471h-.029z" fill="#F6F6F4"/><path d="M46.788 317.522l-.257-.108.257.108a.832.832 0 00.03-.108h.029a.968.968 0 01-.059.108z" fill="#9BA6A6"/><path d="M46.788 317.522l-.257-.108-26.192-11.053.979-2.108 24.993 11.489s.072.076.166.201c.286.599.418 1.103.341 1.471a.801.801 0 01-.03.108z" fill="#2B7078"/><path d="M36.649 304.146c-.06.126-.73-.088-1.54.059-.816.125-1.38.545-1.477.444-.108-.076.41-.765 1.396-.924.983-.169 1.699.314 1.62.421zm2.289 2.315c-.024.138-.676.121-1.345.481-.68.34-1.041.883-1.167.823-.13-.031.1-.823.941-1.255.837-.439 1.62-.173 1.57-.049zm.172 3.979c-.13-.022-.036-.742.595-1.308.627-.57 1.353-.592 1.362-.462.029.138-.524.35-1.035.823-.521.46-.789.989-.922.947zm-1.376-9.504c-.104.095-.621-.334-1.372-.591-.746-.274-1.417-.269-1.438-.409-.035-.125.721-.367 1.602-.05.882.31 1.314.975 1.208 1.05zm.697-3.398c-.021.053-.565-.082-1.322-.566a6.479 6.479 0 01-1.206-1.009 6.811 6.811 0 01-.59-.724c-.089-.13-.2-.27-.268-.48-.086-.195-.023-.571.231-.71.222-.147.498-.132.691-.057.198.077.339.183.468.279a5.085 5.085 0 011.587 1.945c.373.826.378 1.396.323 1.402-.076.018-.204-.511-.63-1.243a5.75 5.75 0 00-.9-1.163 5.374 5.374 0 00-.661-.555c-.25-.192-.487-.295-.611-.2-.047.036-.058.054-.034.16.029.101.11.223.198.352a7.727 7.727 0 001.604 1.724c.668.531 1.152.776 1.12.845z" fill="#17282F"/><path d="M38.184 297.652c-.054 0-.114-.569.192-1.424a4.664 4.664 0 011.471-2.031c.266-.196.603-.465 1.128-.311.266.101.397.396.397.602.012.215-.035.376-.07.542a3.31 3.31 0 01-1.52 2.018c-.807.465-1.41.392-1.403.343-.016-.082.54-.141 1.214-.632.332-.242.686-.596.945-1.065.13-.234.236-.494.3-.774.077-.298.067-.569-.05-.585-.13-.058-.444.06-.647.238a4.779 4.779 0 00-.632.578 5.169 5.169 0 00-.815 1.211c-.364.759-.43 1.3-.51 1.29z" fill="#17282F"/><path d="M70.084 154.494s-10.234 7.944-12.793 22.13c-2.558 14.187-5.685 47.099-5.685 47.099l-26.608 66.63 17.453 6.751s28.803-55.88 31.078-62.405c2.274-6.526 12.166-42.063 12.166-42.063l.025 48.11-7.825 60.288 20.076-1.241s12.482-73.516 12.482-98.769l1.137-18.157-41.506-28.373zm18.738-57.63c1.816-.427 3.86.281 5.516-.574 1.83-.946 2.383-3.39 4.08-4.556 1.389-.955 3.236-.857 4.816-1.445 2.265-.847 3.74-2.992 5.006-5.048 3.121-5.064 5.931-10.396 10.002-14.735 4.071-4.34 9.732-7.65 15.678-7.285l17.636 9.389c1.491 3.363 1.151 7.291.004 10.787-1.146 3.495-3.039 6.69-4.669 9.989-1.63 3.299-3.027 6.827-3.06 10.505-.023 2.6.639 5.165.676 7.766.036 2.535-.559 5.13-2.019 7.205-1.459 2.075-3.851 3.564-6.392 3.608-2.699.046-5.198-1.481-7.136-3.357-2.045-1.979-8.034-2.918-8.752-5.668-.41-1.575-1.376-4.327-1.859-6.853l-32.237 23.127c-2.906 1.915-7.159-.147-8.52-3.346-1.36-3.2-.528-6.918.889-10.093s3.398-6.107 4.448-9.421c.615-1.944.9-3.991 1.685-5.873.785-1.88 2.22-3.655 4.208-4.123z" fill="#17282F"/><path d="M124.529 145.924l16.398-6.665s-.813-21.45-3.89-21.22c-3.077.232-12.508 27.885-12.508 27.885" fill="#33535F"/><path d="M57.291 176.624c2.62-15.807 10.972-23.492 20.582-35.091l27.757-44.777 11.358 3.975 15.048 7.043 5.001 10.265s-2.367 11.186-6.834 21.598c0 0-7.708 11.083-17.354 25.641l-1.259 24.99-54.299-13.644" fill="#FFCC2A"/><path d="M116.589 100.544l15.447 7.23 2.298 4.225-19.608 22.957 1.863-34.412zm-10.959-3.789s-4.631-2.157-10.95.211c-6.318 2.369-14.957 16.935-14.957 16.935l14.267 11.94s12.742-25.953 11.64-29.086z" fill="#33535F"/><path d="M111.973 182.669l-52.267-15.163c.894-2.207 3.184-6.665 4.051-8.151l48.531 17.052-.315 6.262m-43.679-29.697l44.302 17.32.252-5.014 1.794-2.7-40.476-16.654-5.872 7.048" fill="#DADBD8"/><path d="M115.176 134.605c.012.005-.027.149-.113.419l-.394 1.176a154.046 154.046 0 01-1.555 4.286 243.137 243.137 0 01-12.366 27.421 151.106 151.106 0 01-2.184 4.005l-.62 1.074c-.146.243-.227.368-.239.362-.011-.007.049-.144.173-.399l.558-1.107 2.076-4.056a331.99 331.99 0 006.503-13.554 332.768 332.768 0 005.851-13.842l1.666-4.24.459-1.152c.109-.262.173-.397.185-.393z" fill="#17282F"/><path d="M151.789 72.555c-1.367-4.565-3.595-6.526-6.446-8.246-4.323-2.606-9.794-3.842-14.666-2.517-4.473 1.218-8.067 4.716-10.285 8.78-.783 1.433-.9 3.059-1.053 4.684-.154 1.625.775 4.134 1.844 5.37 1.068 1.236 1.81 1.004 3.348.447.94-.341 1.682-1.062 2.401-1.754 3.046-2.926 6.314-5.727 10.174-7.445 3.861-1.716 8.425-2.242 12.309-.577" fill="#FFCC2A"/><path d="M150.315 81.655c1.927-2.554 2.497-6.071 1.474-9.1-.772-2.283-2.363-4.22-4.219-5.76-2.492-2.068-5.608-3.52-8.849-3.53-3.24-.01-6.567 1.597-8.132 4.43-.71 1.286-1.063 2.79-2.041 3.888-.425.477-.986.916-1.066 1.55-.073.579.313 1.144.82 1.434.508.29 1.114.351 1.699.35 1.995-.003 3.924-.653 5.812-1.296" fill="#17282F"/><path d="M146.293 71.148l-14.476-2.232a2.676 2.676 0 00-3.263 1.562l-10.826 29.005a9.596 9.596 0 00-.182 6.172l.654 2.128c1.49 4.852 7.536 6.705 11.353 3.353.267-.234.472-.45.596-.641.145-.243.279-.389.375-.605 1.233-2.098 1.896-4.296 1.896-4.296 1.108-2.527 1.551-3.57 1.542-3.545 0 0 5.747 1.382 9.829-5.14 2.029-3.242 4.275-9.017 5.96-13.801 1.517-4.306.918-10.63-3.458-11.96z" fill="#C0776A"/><path d="M145.699 86.917c-.185.48-.745.721-1.251.538-.505-.183-.767-.72-.583-1.2.185-.48.745-.721 1.25-.54.507.184.768.721.584 1.202zm1.553-1.367c-.161.07-.627-.721-1.596-1.128-.96-.42-1.88-.223-1.935-.386-.03-.074.174-.237.578-.331.399-.094 1.01-.092 1.611.165s1.013.693 1.208 1.043c.201.353.211.607.134.636zm-11.23-2.299c-.184.481-.744.722-1.251.539-.505-.183-.766-.72-.582-1.2.184-.481.744-.722 1.249-.54.507.183.768.721.584 1.201zm1.652-1.541c-.162.07-.63-.721-1.598-1.127-.96-.42-1.88-.224-1.935-.387-.029-.074.172-.237.578-.33.399-.095 1.01-.093 1.611.163.601.259 1.013.694 1.209 1.044.2.353.211.607.135.637zm.47 8.639c.018-.057.663.094 1.689.382.258.079.512.129.626-.022.134-.153.143-.463.145-.8l.067-2.184c.12-3.1.319-5.608.444-5.601.125.005.129 2.523.008 5.623-.035.762-.068 1.488-.102 2.183-.025.319 0 .705-.282 1.02a.675.675 0 01-.56.19c-.178-.02-.318-.075-.443-.12-1.002-.361-1.613-.614-1.592-.671z" fill="#17282F"/><path d="M133.962 102.049s-4.841-1.69-8.321-6.466c0 0 .304 5.837 7.592 8.149l.729-1.683z" fill="#B85549"/><path d="M136.747 92.502c-.153-.606-.655-1.116-1.288-1.307-.439-.132-.948-.11-1.348.124-.399.232-.658.695-.564 1.117.105.477.614.792 1.131.856.517.064 1.043-.07 1.548-.213.14-.04.283-.082.397-.169.114-.086.192-.23.152-.36" fill="#F68260"/><path d="M135.015 89.813c.16.057-.282 1.105.3 2.229.58 1.125 1.748 1.48 1.695 1.63-.014.073-.336.098-.813-.089a2.834 2.834 0 01-1.44-1.3c-.354-.688-.331-1.397-.185-1.842.146-.454.373-.664.443-.628zm4.059-10.953c-.207.223-1.119-.31-2.311-.653-1.186-.367-2.241-.423-2.292-.722-.019-.14.246-.32.723-.418.474-.098 1.162-.092 1.875.12.712.214 1.29.586 1.631.928.346.344.468.64.374.746zm9.69 2.352c-.263.146-.833-.363-1.629-.712-.784-.377-1.541-.479-1.6-.774-.021-.14.179-.314.563-.397.38-.082.94-.045 1.484.205.542.25.935.65 1.118.992.188.345.184.61.064.686z" fill="#17282F"/><path d="M125.564 83.03c.219-.521.138-2.004-.343-2.302-1.285-.795-3.812-1.734-5.316 1.743-2.055 4.754 3.151 5.833 3.218 5.7.052-.103 1.681-3.342 2.441-5.14z" fill="#C0776A"/><path d="M122.447 85.744c-.015-.025-.109.021-.277.026a.902.902 0 01-.625-.255c-.424-.4-.502-1.38-.155-2.247.175-.439.444-.811.745-1.086.296-.285.626-.431.899-.367a.46.46 0 01.392.438c.006.16-.065.242-.044.26.008.019.137-.034.184-.247a.58.58 0 00-.06-.379.675.675 0 00-.406-.319c-.378-.132-.855.062-1.185.364-.351.295-.665.71-.861 1.201-.384.971-.28 2.08.323 2.575.297.23.62.25.813.2.198-.053.27-.148.257-.164z" fill="#B85549"/><path d="M147.302 70.604c-1.346 2.152-3.951 3.45-6.483 3.232-1.352-.117-2.843-.599-3.976.149-1.156.762-1.347 2.47-2.467 3.287-1.551 1.13-4.102.025-5.467 1.373-.596.59-.778 1.507-1.384 2.086-.809.77-2.204.673-3.067-.037-.864-.71-1.242-1.88-1.235-2.995.008-1.116.351-2.2.714-3.255.714-2.077 1.537-4.163 2.938-5.856 2.935-3.547 11.107-6.803 15.254-4.795" fill="#17282F"/><path d="M140.179 65.361c-.062.108 2.009.868 3.682 2.88 1.706 1.986 2.107 4.151 2.223 4.108.041-.007.005-.55-.263-1.383-.266-.831-.807-1.938-1.672-2.966-.87-1.025-1.872-1.744-2.648-2.146-.778-.405-1.308-.532-1.322-.493zm5.459 1.944c-.09.069.751.99.956 2.437.237 1.443-.291 2.572-.184 2.612.039.02.233-.23.399-.71.168-.475.274-1.188.158-1.958-.119-.77-.434-1.42-.736-1.824-.302-.408-.562-.589-.593-.557z" fill="#33535F"/><path d="M144.722 94.81s-4.436-1.966-6.633-2.999c-2.197-1.033-5.066-2.274-6.368-3.592-1.303-1.318-3.63-4.567-3.63-4.567l-3.932 3.633s-1.225 8.213 3.794 12.039c4.439 3.384 7.622 5.323 12.822 2.153 2.687-1.638 3.947-6.667 3.947-6.667z" fill="#DADBD8"/><path d="M127.419 89.267c.055-.038.593.723 1.603 1.824a22.922 22.922 0 004.453 3.734 22.92 22.92 0 005.268 2.465c1.425.453 2.343.62 2.331.684-.004.026-.237.005-.655-.054-.42-.054-1.021-.18-1.752-.376-1.461-.39-3.436-1.158-5.394-2.403-1.954-1.25-3.482-2.715-4.45-3.875-.486-.58-.853-1.07-1.078-1.428-.23-.354-.347-.556-.326-.571zm1.895 4.969c.073-.084 1.647 1.23 3.751 2.615 2.1 1.393 3.926 2.327 3.877 2.427-.038.087-1.958-.704-4.084-2.115-2.131-1.403-3.611-2.858-3.544-2.927z" fill="#17282F"/><path d="M124.233 87.313c.038.023-.033.244-.281.515-.244.272-.688.564-1.241.685-.553.119-1.078.037-1.413-.11-.339-.144-.496-.315-.47-.352.05-.095.819.325 1.804.095.991-.198 1.516-.899 1.601-.833zm3.774-3.373c-.059.005-.109-.36-.331-.889a4.103 4.103 0 00-1.343-1.723 4.125 4.125 0 00-2.057-.743c-.573-.047-.936.02-.949-.039-.012-.04.339-.205.956-.226a3.75 3.75 0 012.271.705 3.738 3.738 0 011.373 1.938c.171.591.123.976.08.977z" fill="#DADBD8"/><path d="M81.253 115.181l-10.271 21.704a10.21 10.21 0 004.313 13.038l29.305 19.85 8.056-8.294-26.106-24.475 6.364-12.063-11.661-9.76z" fill="#C0776A"/><path d="M123.543 169.743s2.918 2.972 3.724 3.682c.88.776 2.194-.944 1.453-2.1-.521-.813-2.47-3.318-3.581-4.734a2.834 2.834 0 00-2.059-1.078l-6.639-.401-8.707-8.589-8.647 10.596 6.922 4.251s1.453 1.622 2.285 2.104c.833.482 4.362.465 4.362.465s2.79 5.419 4.613 4.639c1.824-.781-.29-4.659-.29-4.659s2.872 5.308 4.425 4.473c1.553-.834-.546-5.527-.546-5.527s1.651 2.422 2.685 3.776c1.049 1.374 2.967-.289 2.711-.87-.325-.732-2.711-6.028-2.711-6.028z" fill="#DADBD8"/><path d="M123.543 169.743l1.694 3.618.885 1.905c.076.187.171.324.236.563.027.265-.117.458-.246.634a2.306 2.306 0 01-1.135.752c-.46.138-1.054.033-1.401-.377-.334-.386-.593-.803-.906-1.223l-1.92-2.676.227-.127c.359.837.691 1.723.924 2.686.116.481.211.982.215 1.507a2.07 2.07 0 01-.021.399 1.346 1.346 0 01-.082.403 1.207 1.207 0 01-.514.697c-.27.175-.626.141-.891.038a2.67 2.67 0 01-.727-.444c-.433-.355-.801-.777-1.153-1.217-.696-.885-1.316-1.854-1.895-2.885l.29-.156c.432.835.809 1.719.991 2.705.078.488.124 1.027-.111 1.542-.225.509-.858.864-1.43.7-.553-.147-.972-.5-1.351-.859a9.877 9.877 0 01-1.031-1.196 21.496 21.496 0 01-1.696-2.71l.162.099c-1.212-.012-2.448-.03-3.72-.251a4.084 4.084 0 01-.482-.126 1.81 1.81 0 01-.462-.244 8.189 8.189 0 01-.756-.621 21.792 21.792 0 01-1.367-1.385l.041.035-4.573-2.808-2.349-1.443-.182-.112.135-.166 8.653-10.59.125-.152.139.138 8.692 8.604-.101-.045 5.108.323 1.2.076c.384.016.814.056 1.186.205.377.141.718.358 1.001.626.289.273.48.587.705.87l2.427 3.238.549.733c.187.221.35.514.391.818.088.61-.17 1.189-.569 1.558-.2.182-.465.316-.743.296-.279-.014-.506-.208-.646-.365l-.893-.906-1.411-1.448-1.212-1.236 1.193 1.143 1.482 1.412.943.911c.166.176.336.306.555.319.214.013.435-.097.61-.26.35-.327.579-.866.492-1.393-.041-.266-.17-.499-.368-.734a3168.306 3168.306 0 00-3.004-3.931c-.224-.281-.425-.598-.682-.834a2.687 2.687 0 00-.915-.562c-.348-.134-.705-.166-1.109-.182l-1.199-.068-5.11-.296-.059-.004-.042-.041-8.722-8.574.264-.014-8.64 10.602-.046-.278 2.349 1.443 4.571 2.809.023.014.019.02c.43.473.877.934 1.341 1.36.232.211.469.416.716.59.242.189.493.246.805.312 1.208.214 2.455.238 3.645.25l.112.002.051.097a21.17 21.17 0 001.66 2.663c.308.413.632.807.99 1.156.354.343.754.662 1.186.772.42.123.858-.13 1.038-.51.184-.391.161-.881.086-1.335-.164-.922-.533-1.803-.944-2.605l.29-.157c.563 1.013 1.176 1.979 1.852 2.847.34.43.697.842 1.1 1.174.386.323.897.612 1.274.386.382-.234.478-.765.476-1.24 0-.488-.087-.976-.199-1.444-.22-.94-.544-1.825-.888-2.645l-.469-1.113.696.986 1.893 2.686c.302.413.578.856.877 1.211.299.353.774.441 1.187.329a2.125 2.125 0 001.04-.674c.122-.15.234-.337.214-.484-.037-.153-.152-.364-.221-.536l-.862-1.979-1.551-3.601z" fill="#17282F"/><path d="M117.437 174.778c-.105.032-.592-1.363-1.449-2.957-.208-.401-.43-.736-.739-.903-.305-.177-.651-.22-.937-.236a10.466 10.466 0 00-.57-.006c-.247.002-.392.004-.396-.033-.005-.043.345-.178.965-.227.307-.015.703-.006 1.103.198.412.198.698.626.905 1.03.878 1.634 1.213 3.111 1.118 3.134zm-1.25-5.804c-.034-.027.328-.334 1.013-.253a2.29 2.29 0 011.074.444c.356.258.674.617.963 1.005 1.078 1.592 1.849 2.94 1.765 2.992-.093.057-1.002-1.196-2.066-2.768-.543-.768-1.193-1.299-1.782-1.412-.579-.136-.945.049-.967-.008zm7.532 1.336c-.052.021-.226-.332-.521-.877-.298-.529-.742-1.307-1.552-1.694-.817-.365-1.713-.246-2.337-.266-.637.002-1.032-.088-1.024-.138.006-.053.389-.058 1.011-.127.609-.039 1.535-.232 2.509.191.959.467 1.388 1.353 1.632 1.919.242.592.326.974.282.992z" fill="#17282F"/><path d="M414.59 220.453l-5.689 22.911-27.592-4.058-.891 11.08 24.989 6.72a12.55 12.55 0 0012.94-1.747 12.5 12.5 0 004.295-6.84l5.889-24.953-13.941-3.113z" fill="#F68260"/><path d="M386.446 239.483l6.625-.929 3.89 13.002-8.117.307s-10.554 1.319-18.365-.075c-1.439-.61-3.013-4.01-3.115-4.152-1.435-.55-2.103-2.776-2.157-3.717-1.398-1.219-1.903-2.512-.5-2.963-1.096-.984.194-2.574 1.437-2.127 2.599 1.467 4.998 2.794 5.11 2.62.696-.367 8.707.6 6.702-3.362-1.448-.472-6.603-1.301-5.099-4.063 4.028.866 9.91.777 13.577 5.461" fill="#DADBD8"/><path d="M386.434 239.485c-.059.068-.812-1.23-3.029-2.574-1.102-.667-2.585-1.252-4.376-1.67-1.792-.44-3.891-.636-6.2-1.086l.144-.067c-.246.476-.351 1.054-.066 1.538.274.485.801.828 1.349 1.101 1.119.555 2.409.832 3.749 1.212l.063.018.028.06c.153.327.295.674.332 1.064.042.386-.075.816-.34 1.125-.541.622-1.334.84-2.083 1.007-.764.152-1.549.219-2.344.255l-1.197.041-.6.023c-.187.012-.423.031-.528.071l.065-.059-.112.083-.061.01-.081-.005-.106-.024-.178-.063a5.685 5.685 0 01-.328-.142c-.211-.102-.422-.207-.635-.311l-1.267-.672-2.578-1.434.028.013c-.459-.171-1.033.011-1.358.431-.162.205-.264.464-.246.716.016.255.151.49.351.674l.23.21-.297.101c-.259.09-.519.224-.626.441-.116.21-.091.492.026.76.233.543.689 1.021 1.167 1.446l.056.051.008.079c.057.67.272 1.381.591 2.029.32.64.788 1.268 1.447 1.523l.063.025.022.042c.225.414.406.782.635 1.184.322.573.668 1.13 1.054 1.646.383.511.823 1.007 1.346 1.259l-.04-.012c3.232.551 6.44.665 9.511.634a90.306 90.306 0 008.8-.542l.01-.002h.005l8.117-.288-.138.193-3.834-13.019.1.064-4.926.648-1.275.155a5.87 5.87 0 01-.436.036s.144-.036.429-.085l1.269-.201 4.914-.734.078-.011.023.076 3.946 12.984.057.185-.195.008-8.116.326.015-.001a90.009 90.009 0 01-8.838.57c-3.086.036-6.311-.072-9.582-.628l-.024-.004-.016-.008c-.655-.319-1.096-.849-1.501-1.378a15.442 15.442 0 01-1.081-1.688l-.325-.597-.152-.294-.074-.142-.036-.07-.013-.024-.007-.011-.003-.006-.001-.003-.001-.002.095-.069-.01.135c-.804-.319-1.303-1.027-1.647-1.707-.341-.699-.564-1.423-.629-2.175l.063.13c-.5-.451-.985-.94-1.263-1.586-.138-.313-.201-.725-.009-1.077.188-.353.538-.509.838-.615l-.067.312c-.254-.229-.451-.563-.47-.924-.023-.36.118-.702.325-.964.409-.533 1.155-.775 1.767-.546l.016.006.013.006 2.57 1.438c.424.225.843.45 1.256.67.209.104.417.205.623.308.103.047.206.094.308.134l.147.053.06.015c.002.017.019-.037.008.041l.015.08.013.026-.06-.14c.277-.104.456-.086.671-.108l.609-.022 1.192-.037c.786-.033 1.557-.096 2.293-.24.721-.151 1.465-.38 1.899-.886.212-.25.306-.571.274-.897-.029-.328-.154-.646-.295-.948l.09.077c-1.299-.377-2.626-.668-3.781-1.249-.57-.291-1.136-.651-1.46-1.224-.342-.583-.204-1.291.074-1.801l.047-.086.098.02c2.277.463 4.392.68 6.192 1.142 1.803.442 3.299 1.054 4.403 1.75 1.122.672 1.829 1.409 2.305 1.891l.492.596c.109.137.161.207.157.211z" fill="#17282F"/><path d="M376.251 244.834c.007.025-.164.09-.481.185-.314.102-.787.196-1.376.264-1.176.14-2.854.059-4.582-.524-1.725-.592-3.103-1.551-3.95-2.378-.424-.412-.74-.775-.927-1.048-.193-.269-.289-.423-.267-.439.053-.042.498.534 1.373 1.29.871.758 2.223 1.647 3.893 2.219 1.672.565 3.286.685 4.439.616 1.156-.065 1.861-.251 1.878-.185zm-.558 3.119c.01.035-.633.256-1.724.316-1.085.067-2.619-.097-4.171-.724-1.55-.633-2.763-1.586-3.494-2.389-.737-.803-1.044-1.41-1.012-1.428.055-.038.436.509 1.201 1.242a11.12 11.12 0 003.446 2.227c1.498.604 2.967.804 4.024.807 1.062.008 1.717-.117 1.73-.051zm1.169 2.294c.004.049-.564.152-1.495.236-.927.075-2.239.155-3.664-.139-1.438-.281-2.585-1.005-3.311-1.59-.742-.589-1.067-1.092-1.028-1.118.044-.037.428.389 1.186.906.754.519 1.862 1.167 3.23 1.435 1.364.281 2.649.249 3.573.242.927-.017 1.505-.026 1.509.028zm6.453-2.452c-.008.037-.679-.107-1.567-.739-.874-.62-1.925-1.812-2.359-3.434-.231-.804-.223-1.617-.197-2.308.023-.695.005-1.309-.137-1.798-.269-1.01-.913-1.341-.87-1.383.009-.018.178.026.419.221.238.193.526.56.704 1.083.189.52.234 1.182.23 1.881-.007.704-.003 1.451.214 2.207.407 1.522 1.361 2.674 2.159 3.321.806.657 1.43.889 1.404.949z" fill="#17282F"/><path d="M427.477 164.285l12.79 28.721a10.149 10.149 0 01-1.821 11.019c-4.821 5.215-13.379 4.019-16.579-2.318-1.631-3.231-2.914-5.779-2.914-5.779s-7.403 2.268-10.83-4.559c-1.605-3.197-4.338-9.939-6.789-16.203-2.809-7.174.334-15.302 7.236-18.745l.255-.128c7.363-3.052 15.798.562 18.652 7.992z" fill="#F8A58D"/><path d="M418.952 195.949s4.522-1.755 7.734-6.894c0 0 .336 5.952-6.832 8.662l-.902-1.768z" fill="#F68260"/><path d="M405.523 178.512c.234.527.874.763 1.43.53.554-.232.816-.848.583-1.375-.235-.527-.874-.765-1.429-.531-.555.233-.818.849-.584 1.376zm-1.245-1.175c.184.069.661-.842 1.72-1.352 1.05-.525 2.09-.357 2.141-.542.029-.084-.207-.255-.664-.338-.452-.083-1.135-.045-1.793.277-.656.322-1.093.833-1.291 1.235-.203.406-.201.691-.113.72zm11.458-3.232c.234.526.874.763 1.429.53.555-.233.817-.849.583-1.375-.233-.527-.873-.765-1.429-.531-.555.233-.816.848-.583 1.376zm-.967-1.61c.185.069.662-.842 1.72-1.351 1.051-.524 2.091-.358 2.143-.543.028-.084-.207-.256-.666-.336-.451-.085-1.134-.047-1.792.275-.656.324-1.093.834-1.291 1.236-.203.406-.201.691-.114.719zm-.029 9.688c-.025-.062-.737.144-1.868.523-.284.104-.565.174-.701.012-.158-.164-.186-.509-.208-.887l-.2-2.439c-.313-3.46-.68-6.251-.818-6.237-.14.013 0 2.829.313 6.289.083.849.162 1.66.24 2.435.046.356.039.788.374 1.125.171.167.44.217.636.18.198-.032.352-.103.49-.16 1.099-.461 1.767-.779 1.742-.841zm3.467-.778c-.177.074.379 1.221-.208 2.509-.584 1.292-1.87 1.756-1.802 1.921.02.08.382.09.904-.146a3.178 3.178 0 001.536-1.538c.356-.79.291-1.58.101-2.068-.19-.501-.455-.722-.531-.678zm-5.724-12.914c.244.236 1.234-.412 2.547-.862 1.305-.479 2.482-.602 2.521-.939.014-.159-.292-.344-.832-.426-.536-.083-1.305-.036-2.089.241-.784.281-1.409.729-1.772 1.131-.366.405-.486.741-.375.855zm-9.303 5.603c.303.149.91-.453 1.78-.889.856-.467 1.697-.623 1.745-.956.016-.158-.218-.342-.652-.412-.43-.071-1.054.003-1.647.313s-1.008.781-1.194 1.174c-.189.396-.171.693-.032.77zm13.22-13.605l.052.012a6.014 6.014 0 013.712 2.518l.087.129c1.222 1.829 2.143 3.846 3.383 5.662 1.241 1.817 2.888 3.478 4.993 4.124.866.265 2.107.136 2.281-.751.067-.344-.064-.692-.192-1.017-1.935-4.908-2.682-9.732-5.098-14.674a4.647 4.647 0 00-3.385-2.554c-1.399-.239-3.04-.395-3.929.708-.89 1.107-1.333 3.983-1.783 5.33" fill="#17282F"/><path d="M426.729 168.632c.092-.108 4.049-3.687 6.183 1.08 2.135 4.769-3.102 5.925-3.172 5.791-.069-.134-3.011-6.871-3.011-6.871z" fill="#F8A58D"/><path d="M430.39 173.046c.016-.024.111.021.28.022.165.002.42-.06.627-.264.422-.41.49-1.399.128-2.269a2.995 2.995 0 00-.765-1.085c-.303-.285-.638-.427-.912-.359a.462.462 0 00-.389.446c-.004.162.068.245.047.263-.008.019-.138-.034-.189-.248a.584.584 0 01.055-.382.689.689 0 01.406-.327c.38-.139.863.052 1.2.352.359.293.679.707.884 1.2.399.975.309 2.094-.292 2.601-.297.237-.623.261-.818.213-.201-.052-.273-.147-.262-.163z" fill="#F68260"/><path d="M419.661 155.808c.62-2.372-3.631-4.213-6.337-4.238-2.707-.025-5.592 2.166-7.801 3.727-1.393.986-2.72 2.172-4.373 2.602-1.108.288-2.273.208-3.417.159-1.144-.051-2.324-.064-3.394.343-1.07.408-2.018 1.33-2.124 2.468-.104 1.138.913 2.344 2.044 2.164-1.617-.338-3.315 1.27-3.062 2.899.252 1.63 2.355 2.651 3.796 1.845-.876-.323-1.695.899-1.336 1.759.358.859 1.361 1.259 2.288 1.369 2.366.279 4.709-.754 6.647-2.136 1.937-1.383 3.595-3.122 5.498-4.553s5.061-3.92 7.441-3.818c1.752.075 3.434 1.642 4.2.95.739-.669 1.01-1.738.897-2.727-.114-.989-.544-1.911-.967-2.813z" fill="#17282F"/><path d="M394.664 163.271c.009.009-.071.084-.176.254a1.532 1.532 0 00-.225.832c-.004.376.114.85.429 1.286.304.445.851.789 1.525.894.67.107 1.431-.009 2.178-.301a8.45 8.45 0 002.186-1.337c1.412-1.155 2.603-2.792 3.873-4.48 1.272-1.684 2.647-3.235 4.265-4.17.806-.456 1.648-.772 2.472-.88.82-.12 1.6-.068 2.284.082 1.376.301 2.364.931 2.944 1.444.588.516.82.886.82.886-.02.017-.277-.332-.874-.821-.588-.487-1.572-1.084-2.921-1.359a6.306 6.306 0 00-2.227-.055c-.796.112-1.613.426-2.397.876-1.574.921-2.927 2.45-4.194 4.128-1.266 1.683-2.472 3.334-3.918 4.503a8.509 8.509 0 01-2.249 1.35c-.772.294-1.564.407-2.268.285a2.777 2.777 0 01-.948-.35 2.2 2.2 0 01-.65-.625 2.267 2.267 0 01-.415-1.357c.013-.399.151-.69.273-.854a.982.982 0 01.213-.231zm15.953-9.69c-.005-.012.102-.068.308-.142.204-.074.511-.157.899-.209a5.206 5.206 0 012.985.512 5.174 5.174 0 012.169 2.11c.187.343.3.64.36.849.06.208.078.328.065.331-.038.013-.161-.454-.557-1.104a5.437 5.437 0 00-2.136-1.993 5.447 5.447 0 00-2.87-.552c-.76.062-1.211.237-1.223.198zm16.798 7.371c.007.006-.093.135-.344.278-.247.145-.667.269-1.185.229-.516-.033-1.123-.258-1.653-.685-.539-.419-1.006-1.001-1.472-1.607-.464-.607-.92-1.173-1.433-1.573-.506-.41-1.067-.619-1.555-.658-.487-.045-.883.061-1.127.184-.247.121-.361.23-.375.215-.006-.007.088-.138.334-.289.243-.153.66-.291 1.179-.263.517.019 1.13.232 1.667.653.544.412 1.018.991 1.482 1.598.466.607.917 1.176 1.425 1.583.5.417 1.056.638 1.543.689.486.057.885-.036 1.133-.151.25-.113.368-.219.381-.203zm1.11 3.28c.004.006-.032.035-.103.083-.073.048-.178.121-.327.193-.292.154-.74.34-1.324.45-1.153.236-2.905.089-4.45-.893-1.553-.962-2.542-2.332-3.113-3.348-.145-.256-.264-.487-.412-.655a.96.96 0 00-.463-.311c-.308-.085-.475.045-.481.023-.014 0 .149-.17.502-.105.167.033.367.133.532.312.169.174.304.412.454.659.598.984 1.588 2.307 3.095 3.24 1.498.952 3.181 1.117 4.309.926 1.149-.181 1.761-.622 1.781-.574z" fill="#33535F"/><path d="M406.318 187.795s4.914-3.227 7.55-4.467c2.636-1.239 6.197-2.614 7.759-4.196 1.564-1.581 3.303-4.407 3.303-4.407l5.146 2.616s1.47 9.856-4.553 14.446c-5.327 4.061-9.289 6.863-15.531 3.058-3.223-1.964-3.674-7.05-3.674-7.05z" fill="#DADBD8"/><path d="M429.376 167.28c-.011.061-.562-.185-1.336.202a3.46 3.46 0 00-1.145.919c-.355.424-.598.998-.764 1.633-.549 2.606-.997 4.762-1.111 4.734-.05-.01.005-.554.133-1.427.144-.876.303-2.068.615-3.403.173-.663.449-1.297.862-1.76a3.45 3.45 0 011.303-.939c.432-.176.829-.18 1.081-.127.255.06.37.15.362.168zm3.018 6.837c.087.057-.372.893-1.023 1.867-.652.973-1.25 1.715-1.337 1.658-.086-.058.373-.893 1.024-1.866.651-.974 1.249-1.716 1.336-1.659z" fill="#DADBD8"/><path d="M426.162 179.719c.022.014-.122.254-.402.676-.274.427-.716 1.013-1.301 1.705-1.167 1.387-3 3.139-5.341 4.638-2.347 1.491-4.71 2.414-6.461 2.887-.876.24-1.595.394-2.097.463-.501.076-.78.106-.784.08-.013-.067 1.091-.258 2.805-.796a27.197 27.197 0 006.335-2.951 27.125 27.125 0 005.343-4.496c1.21-1.327 1.848-2.246 1.903-2.206zm-2.273 5.962c.033.037-.396.483-1.153 1.136a31.52 31.52 0 01-3.12 2.346 31.627 31.627 0 01-3.383 1.952c-.898.441-1.477.661-1.498.617-.049-.101 2.151-1.207 4.673-2.882 2.528-1.663 4.408-3.254 4.481-3.169z" fill="#17282F"/><path d="M417.056 206.718s-1.044.439-4.397 15.197l-1.725 8.629 16.24 2.989.421-3.264-10.539-23.551z" fill="#3B8D96"/><path d="M479.819 218.541c-9.577-25.655-18.986-30.686-23.69-32.53-4.705-1.845-14.902.838-18.598 1.186-3.326 8.309-8.238 13.707-15.261 15.23-1.935.251-3.606 2.087-5.214 4.291l21.725 48.545s25.413 1.173 33.309 1.677c7.897.503 12.769 6.539 17.809 8.551 5.041 2.013 6.553 0 6.553 0s-7.057-21.295-16.633-46.95z" fill="#FFCC2A"/><path d="M454.618 219.354c.403 4.095 1.046 10.036 6.919 12.364 3.569 1.416 8.617 3.368 11.528.868 2.405-2.064 2.72-5.685 2.185-8.805-.878-5.115-3.392-10.166-5.448-14.932-2.942-6.825-7.861-16.865-14.536-20.369m-32.996 13.947c.779 4.383 3.321 7.592 7.207 9.904l8.054-25.134c-3.801 8.152-8.533 14.074-15.261 15.23z" fill="#3B8D96"/><path d="M437.327 252.016s27.317-5.017 49.964-12.95l-2.573-7.196c-12.424 5.018-31.386 11.509-50.111 14.065l2.72 6.081m43.92-1.163l8.888-3.779 2.152 6.18-2.372.873s-4.751-2.894-8.668-3.274z" fill="#DADBD8"/><path d="M486.28 252.329l-3.886 1.835-9.321-.291s1.32-3.431 5.743-3.358c4.421.073 7.464 1.814 7.464 1.814z" fill="#DADBD8"/><path d="M488.218 253.147c-.032.067-1.168-.529-3.119-1.175-.973-.328-2.16-.63-3.493-.877a28.198 28.198 0 00-4.388-.393 28 28 0 00-4.391.368c-1.334.238-2.523.532-3.498.856-1.955.632-3.094 1.223-3.126 1.156-.012-.023.266-.181.781-.447.256-.137.575-.295.957-.447.381-.157.808-.356 1.304-.514.973-.358 2.172-.684 3.522-.945a26.218 26.218 0 014.452-.402c1.589.013 3.097.182 4.449.429 1.349.269 2.545.602 3.517.966.494.16.921.361 1.3.52.382.156.699.316.954.454.514.269.791.428.779.451z" fill="#17282F"/><path d="M478.656 254.127l-5.645 1.141-8.949-.816 1.942-.646 12.652.321z" fill="#DADBD8"/><path d="M491.14 258.827c-.031.021-.307-.435-.965-1.118-.66-.672-1.743-1.55-3.299-2.223-1.543-.696-3.538-1.127-5.778-1.277-2.24-.15-4.729-.1-7.335-.142-5.215-.05-9.935-.116-13.352-.183l-4.046-.097-1.1-.046c-.251-.015-.383-.029-.383-.042 0-.013.132-.024.384-.034l1.1-.025c1.011-.004 2.38-.012 4.048-.021 3.417-.001 8.138.023 13.352.074 2.606.041 5.09.002 7.358.172 2.263.17 4.299.637 5.862 1.379 1.575.719 2.658 1.651 3.297 2.366.317.362.537.665.671.878.133.216.197.332.186.339zm-11.055-28.472c.014.014-.186.255-.608.631-.419.379-1.09.862-1.993 1.322-1.806.942-4.602 1.551-7.678 1.596-3.128.058-5.824-.963-7.633-1.801a25.233 25.233 0 01-2.11-1.104c-.484-.285-.742-.46-.73-.48.031-.057 1.115.55 2.948 1.341 1.823.772 4.48 1.727 7.517 1.67 3.041-.046 5.778-.603 7.57-1.461 1.809-.836 2.664-1.78 2.717-1.714zm-42.039 1.515c-.023.009-.158-.257-.382-.747l-.935-2.08c-.824-1.834-1.899-4.22-3.085-6.86-1.202-2.683-2.264-5.123-2.987-6.91a56.787 56.787 0 01-.826-2.128c-.182-.508-.271-.793-.247-.802.024-.01.159.256.382.747l.935 2.079c.826 1.834 1.898 4.221 3.087 6.861 1.201 2.682 2.262 5.123 2.986 6.91.363.892.643 1.62.826 2.127.182.509.271.793.246.803z" fill="#17282F"/><path d="M467.917 283.394l22.773-3.748 4.817 28.254c-2.732.294-10.654-13.401-10.654-13.401l-14.492 2.998-2.444-14.103z" fill="#3B8D96"/><path d="M483.211 287.196a.733.733 0 01-.124-.011c-.568-.096-1.114-.779-.933-1.324.107-.505.594-.914 1.111-.914a.99.99 0 01.055.001c.576.034 1.072.588 1.025 1.162-.043.532-.601 1.086-1.134 1.086z" fill="#FFCC2A"/><path d="M495.223 307.947c-.514 0-.96-.442-1.186-.713.53.425 1.001.671 1.382.67a.85.85 0 00.088-.004.899.899 0 01-.284.047z" fill="#fff"/><path d="M495.419 307.904c-.38.001-.852-.245-1.382-.67-.1-.12-.156-.206-.156-.206l-5.471-26.915 2.281-.467 4.817 28.254a.883.883 0 01-.089.004z" fill="#25656C"/><path d="M484.788 294.981c.137-.028.082-.728.411-1.483.309-.763.848-1.214.771-1.332-.048-.123-.839.224-1.221 1.144-.39.916-.083 1.723.039 1.671zm1.733 2.755c.139.008.272-.628.777-1.197.488-.583 1.1-.808 1.07-.944 0-.134-.825-.091-1.44.626-.62.713-.539 1.534-.407 1.515zm3.84 1.08c.008-.131-.715-.206-1.411.277-.701.478-.888 1.179-.764 1.219.127.058.462-.43 1.041-.817.568-.402 1.145-.54 1.134-.679zm-8.953-3.517c.117-.08-.182-.679-.261-1.469-.097-.787.062-1.438-.069-1.491-.113-.062-.524.617-.417 1.545.1.928.65 1.501.747 1.415zm-3.473-.103c.058-.008.05-.568-.248-1.414a6.481 6.481 0 00-.709-1.402 6.822 6.822 0 00-.57-.74c-.106-.116-.217-.256-.407-.371-.17-.129-.551-.153-.746.062a.763.763 0 00-.212.658c.028.21.098.371.163.518.13.302.285.58.453.828.337.499.723.885 1.08 1.16.72.552 1.274.688 1.293.636.035-.069-.452-.315-1.067-.897a5.724 5.724 0 01-.928-1.142 5.22 5.22 0 01-.39-.769c-.13-.285-.175-.541-.055-.64.047-.036.066-.043.164.005.092.051.193.159.297.272.206.223.391.45.556.676.329.451.576.893.758 1.278.364.771.494 1.297.568 1.282z" fill="#17282F"/><path d="M478.102 294.982c.013-.052-.528-.242-1.432-.14a4.674 4.674 0 00-2.319.963c-.252.213-.592.479-.563 1.025.038.281.297.476.497.523.207.061.375.052.545.057a3.309 3.309 0 002.316-1.014c.64-.676.707-1.28.658-1.284-.078-.035-.262.492-.895 1.035a3.32 3.32 0 01-1.257.673 2.98 2.98 0 01-.823.113c-.309.007-.57-.064-.559-.182-.026-.14.16-.417.38-.573.23-.189.469-.349.709-.481a5.15 5.15 0 011.368-.515c.824-.18 1.367-.12 1.375-.2zm-30.319-21.747s-30.579 16.046-36.714 23.171c-3.118 3.621-1.62 15.627 5.128 19.399 6.75 3.773 14.067 0 18.507-1.078 4.44-1.077 39.264-13.741 39.264-13.741l-4.858-27.751h-21.327z" fill="#17282F"/><path d="M443.702 293.961c.017.021-.261.244-.781.633-.265.187-.607.387-.998.632-.409.211-.862.48-1.393.712-1.047.498-2.338.987-3.772 1.503-1.43.523-3.011 1.078-4.562 1.869-1.238.627-2.346 1.386-3.224 2.262-.891.865-1.507 1.858-1.968 2.783-.908 1.869-1.316 3.43-1.6 4.198l-.092.25-.025-.259c-.046-.482-.057-.715-.037-.718.021-.003.073.226.156.702l-.117-.009c.214-.79.557-2.367 1.441-4.296.451-.953 1.073-1.995 1.989-2.902.9-.916 2.042-1.704 3.305-2.346 1.584-.807 3.181-1.355 4.618-1.859 1.44-.499 2.729-.959 3.779-1.42 2.124-.884 3.235-1.803 3.281-1.735z" fill="#33535F"/><path d="M429.084 301.26c.043.11-1.669.624-3.273 2.041-1.625 1.396-2.366 3.018-2.469 2.961-.091-.013.524-1.78 2.222-3.243 1.681-1.481 3.519-1.85 3.52-1.759z" fill="#33535F"/><path d="M466.674 288.142l17.177 15.387-19.072 21.427c-1.939-1.944 3.81-16.679 3.81-16.679l-11.411-9.408 9.496-10.727z" fill="#3B8D96"/><path d="M474.187 302.811c-.4 0-.811-.168-.987-.484-.279-.502-.087-1.353.45-1.554a1.13 1.13 0 01.511-.118c.361 0 .724.159.934.454.334.469.211 1.202-.267 1.525a1.156 1.156 0 01-.641.177z" fill="#FFCC2A"/><path d="M464.779 324.956c-.559-.356-.483-1.152-.4-1.56 0 .732.12 1.279.4 1.56l6.534-7.34-6.534 7.34z" fill="#fff"/><path d="M464.779 324.956c-.28-.281-.4-.828-.4-1.56.032-.154.064-.252.064-.252l17.615-21.098 1.793 1.483-4.144 4.656-7.918 8.896-.476.535-6.534 7.34z" fill="#25656C"/><path d="M468.17 308.527c.109.09.622-.391 1.417-.607.79-.237 1.48-.1 1.525-.233.065-.114-.701-.514-1.659-.235-.96.269-1.399 1.013-1.283 1.075zm-1.068 3.073c.08.115.661-.181 1.421-.143.761.016 1.32.352 1.408.243.104-.083-.445-.701-1.391-.73-.945-.037-1.536.539-1.438.63zm1.558 3.666c.107-.075-.286-.685-1.1-.925-.812-.247-1.478.047-1.43.168.034.135.625.09 1.289.299.67.191 1.138.553 1.241.458zm-2.852-9.17c.135.041.417-.568.985-1.124.555-.567 1.163-.851 1.122-.985-.022-.128-.809-.022-1.468.642-.663.658-.766 1.445-.639 1.467zm-2.092-2.77c.041.041.475-.316.949-1.077.236-.379.472-.862.654-1.429.09-.284.166-.587.221-.907.024-.155.064-.329.035-.548-.005-.213-.225-.525-.515-.543a.773.773 0 00-.648.246c-.145.154-.227.31-.302.452a5.14 5.14 0 00-.364.871 5.015 5.015 0 00-.23 1.566c.018.906.259 1.423.311 1.405.077-.016-.036-.55.034-1.393.035-.42.126-.916.311-1.436.094-.259.212-.524.358-.784.143-.281.312-.475.466-.444.057.014.074.024.1.131.017.103-.005.248-.028.402-.045.3-.107.585-.18.854a8.06 8.06 0 01-.525 1.391c-.375.765-.706 1.195-.647 1.243z" fill="#17282F"/><path d="M463.988 303.324c.049-.023-.143-.564-.788-1.204a4.674 4.674 0 00-2.203-1.203c-.324-.062-.744-.161-1.153.203-.196.206-.186.529-.098.715.082.199.194.324.296.459a3.308 3.308 0 002.242 1.17c.929.074 1.443-.252 1.415-.293-.021-.081-.548.105-1.368-.049a3.31 3.31 0 01-1.313-.556 3.001 3.001 0 01-.604-.57c-.197-.237-.306-.485-.207-.55.093-.108.427-.137.686-.063.291.061.567.148.82.251.508.21.931.48 1.258.743.656.529.949.99 1.017.947z" fill="#17282F"/><path d="M431.496 251.484c-3.535-.312-7.127.279-10.268 1.927-1.748.917-3.509 2.118-4.326 3.875-2.625 5.651-3.399 14.221 1.27 19.027 3.942 4.057 40.208 27.871 40.208 27.871l14.842-12.042-9.317-8.627s14.092 2.078 19.492-.077c5.399-2.156 13.623-9.243 10.86-17.824l-2.034-2.447a20.866 20.866 0 00-14.152-7.438l-46.575-4.245z" fill="#17282F"/><path d="M473.183 292.168c.006.008-.084.092-.264.248l-.797.678-3.033 2.506-10.654 8.663-.099.081-.108-.072-9.3-6.305c-6.9-4.716-13.144-8.984-17.7-12.096-2.231-1.547-4.048-2.806-5.338-3.702l-1.441-1.021c-.327-.238-.496-.367-.489-.378.008-.011.191.099.531.316l1.481.963 5.406 3.602 17.76 12.005 9.287 6.328-.209.008c4.356-3.471 8.076-6.435 10.738-8.558a4400.88 4400.88 0 003.097-2.428l.833-.635c.191-.141.293-.211.299-.203zm-46.429-28.065c-.003-.013.186-.076.549-.186.363-.108.904-.256 1.609-.408 1.405-.302 3.488-.657 6.08-.525 1.291.079 2.707.288 4.166.742a17.718 17.718 0 014.37 2.119c2.883 1.877 5.481 4.623 8.267 7.36 2.817 2.713 5.658 5.149 8.202 7.398l6.81 5.927 4.601 3.986 1.245 1.089c.284.251.428.388.419.398-.008.009-.168-.108-.467-.341-.323-.257-.753-.603-1.292-1.035a390.186 390.186 0 01-4.679-3.896 698.797 698.797 0 01-6.864-5.868c-2.56-2.237-5.403-4.662-8.238-7.39-2.795-2.748-5.368-5.478-8.195-7.341a17.647 17.647 0 00-4.274-2.11 17.731 17.731 0 00-4.088-.774c-2.554-.163-4.628.147-6.035.404-.705.129-1.249.254-1.618.338-.368.086-.564.125-.568.113z" fill="#33535F"/><path d="M443.122 265.979c-.092.08-1.521-1.77-3.862-3.376-2.327-1.628-4.563-2.316-4.521-2.429.013-.044.588.07 1.474.401.885.328 2.071.898 3.261 1.72a15.216 15.216 0 012.755 2.447c.62.713.928 1.21.893 1.237z" fill="#33535F"/><path d="M368.323 278.73h24.969v-39.952h-24.969v39.952z" fill="#FAFAF9"/><path fill-rule="evenodd" clip-rule="evenodd" d="M368.322 278.749h24.97l.019-.019v-39.952l-.019-.019h-24.97l-.018.019v39.952l.018.019zm24.952-.037h-24.933v-39.916h24.933v39.916z" fill="#17282F"/><path d="M393.292 238.778c0 1.106-5.59 2.002-12.484 2.002-6.896 0-12.485-.896-12.485-2.002 0-1.106 5.589-2.003 12.485-2.003 6.894 0 12.484.897 12.484 2.003z" fill="#DADBD8"/><path d="M385.404 238.569c0 .407-2.058.737-4.597.737-2.538 0-4.597-.33-4.597-.737 0-.408 2.059-.737 4.597-.737 2.539 0 4.597.329 4.597.737zm.391 40.057c-.104 0-.189-8.473-.189-18.922 0-10.452.085-18.924.189-18.924.103 0 .187 8.472.187 18.924 0 10.449-.084 18.922-.187 18.922" fill="#17282F"/><path d="M406.623 241.232l36.507-10.877-.032-19.715s4.152-5.217 8.889-5.143c4.736.075 8.298 4.615 8.298 4.615l-.921 19.933c-.278 6.023-1.885 13.982-9.45 15.29l-40.402 6.681-2.889-10.784z" fill="#F8A58D"/><path d="M460.9 194.755c-1.842-7.07-12.423-9.965-16.979-4.247-1.787 2.242-2.772 7.28-2.773 9.597-.004 5.772.712 14.353.712 14.353l16.687 1.285c2.036.156 3.783-1.432 3.806-3.47.052-4.566-.096-12.307-1.453-17.518z" fill="#3B8D96"/><path d="M459.595 195.351c.012-.004.073.127.177.383.103.256.257.634.413 1.135.331.995.717 2.469 1.019 4.32.316 1.849.525 4.072.769 6.529a86.06 86.06 0 00.459 3.843c.082.671.233 1.31.371 2.012.06.348.111.709.081 1.091-.031.367-.172.817-.543 1.053-.384.261-.778.217-1.131.243-.362.006-.716-.01-1.066-.032-.705-.043-1.376-.125-2.049-.158l-3.879-.248-6.567-.442-4.425-.331-1.202-.109c-.275-.029-.418-.051-.418-.063.001-.013.147-.017.423-.012l1.206.039 4.432.211 6.572.362 3.88.227c.673.029 1.365.111 2.051.152.344.02.691.036 1.035.031.335-.018.711-.012.923-.178.499-.342.422-1.13.309-1.772-.13-.663-.289-1.357-.367-2.023a80.486 80.486 0 01-.439-3.862c-.226-2.463-.407-4.679-.687-6.523a33.541 33.541 0 00-.897-4.319c-.28-1.004-.485-1.546-.45-1.559z" fill="#17282F"/><path d="M449.84 235.968c-.101.065-1.088-1.767-3.022-3.366-1.916-1.623-3.895-2.272-3.847-2.384.013-.041.524.062 1.299.384.775.321 1.802.889 2.79 1.713a11.166 11.166 0 012.175 2.442c.453.706.645 1.19.605 1.211z" fill="#F68260"/><path d="M408.388 240.707l6.41-1.911 5.799 12.273-7.979 1.519s-10.237 2.882-18.169 2.672c-1.515-.388-3.582-3.513-3.703-3.639-1.501-.328-2.496-2.429-2.692-3.353-1.564-.995-2.257-2.197-.938-2.853-1.232-.81-.195-2.574 1.101-2.319 2.79 1.062 5.361 2.016 5.446 1.826.634-.466 8.698-.709 6.121-4.326-1.503-.25-6.723-.298-5.652-3.253 4.113.252 9.916-.715 14.244 3.367l.012-.003z" fill="#DADBD8"/><path d="M408.375 240.71c-.047.076-.987-1.094-3.38-2.091-1.19-.495-2.745-.851-4.579-.998-1.836-.166-3.941-.046-6.292-.146l.133-.088c-.173.508-.19 1.095.166 1.531.343.439.915.699 1.498.888 1.19.38 2.507.46 3.889.636l.064.009.037.055c.201.3.394.622.489 1.002.1.375.048.818-.167 1.163-.441.697-1.194 1.031-1.909 1.308-.732.264-1.499.448-2.279.602l-1.178.22-.589.113c-.182.038-.413.093-.512.148l.055-.068-.097.099-.059.019-.08.007-.11-.007a2.25 2.25 0 01-.185-.036 5.45 5.45 0 01-.345-.091l-.676-.213-1.353-.475-2.764-1.032.03.008c-.48-.1-1.02.165-1.278.63-.129.226-.191.497-.135.745.054.248.221.461.448.613l.259.174-.278.145c-.244.126-.481.298-.553.529-.084.224-.016.499.14.748.31.502.834.906 1.369 1.255l.064.041.019.077c.157.654.478 1.325.89 1.918.413.585.97 1.136 1.659 1.29l.065.014.03.039c.285.376.518.713.805 1.075.405.519.829 1.018 1.289 1.471.455.447.966.872 1.52 1.042l-.041-.005c3.278.061 6.468-.306 9.499-.796a90.616 90.616 0 008.619-1.852l.009-.003.005-.001 7.983-1.499-.108.211c-2.356-5.045-4.314-9.234-5.746-12.298l.109.048-4.773 1.378-1.238.344a5.673 5.673 0 01-.425.101s.137-.059.411-.148l1.224-.39 4.749-1.46.075-.023.034.072 5.852 12.247.083.175-.191.036-7.976 1.537.015-.004a89.01 89.01 0 01-8.652 1.885c-3.046.499-6.25.873-9.568.814l-.025-.001-.017-.006c-.696-.216-1.21-.674-1.69-1.137-.477-.47-.911-.98-1.323-1.507l-.411-.542-.195-.267-.093-.13-.047-.063-.017-.023-.008-.011-.004-.005-.001-.002-.002-.002.084-.082.01.134c-.843-.194-1.442-.82-1.885-1.441-.44-.641-.771-1.322-.948-2.056l.082.118c-.561-.37-1.115-.782-1.488-1.379-.182-.289-.306-.687-.169-1.063.133-.377.454-.584.736-.733l-.019.318c-.286-.188-.53-.488-.605-.843-.077-.354.012-.712.176-1.002.326-.587 1.026-.938 1.667-.804l.016.003.013.006 2.757 1.035 1.344.476.662.21c.109.033.217.063.324.087l.155.031.061.005c.001.006.003.003.005 0 .004-.005.007-.011.008.04l.027.077.018.024-.083-.13c.26-.144.44-.153.648-.206l.599-.114a230 230 0 001.174-.215c.771-.15 1.524-.328 2.231-.579.69-.259 1.391-.595 1.745-1.161a1.2 1.2 0 00.135-.929c-.077-.319-.249-.614-.433-.893l.101.063c-1.341-.178-2.698-.267-3.928-.669-.606-.202-1.221-.474-1.627-.992-.426-.525-.395-1.246-.197-1.791l.034-.092.099.005c2.322.116 4.445.016 6.295.203 1.849.167 3.42.549 4.615 1.072 1.212.495 2.021 1.119 2.563 1.524l.576.517c.127.118.191.18.186.184z" fill="#17282F"/><path d="M399.112 247.521c.01.025-.149.114-.448.255-.296.149-.748.313-1.321.467-1.141.314-2.813.486-4.609.167-1.794-.326-3.302-1.069-4.262-1.761-.482-.343-.849-.655-1.075-.897-.231-.237-.348-.375-.33-.393.047-.05.573.453 1.552 1.07a12.01 12.01 0 004.182 1.612c1.738.308 3.351.185 4.482-.056 1.133-.237 1.802-.526 1.829-.464zm-.083 3.168c.015.034-.589.347-1.657.571-1.064.227-2.606.295-4.234-.093-1.627-.394-2.97-1.154-3.813-1.838-.849-.685-1.244-1.239-1.215-1.262.048-.045.508.439 1.374 1.049a11.14 11.14 0 003.742 1.687c1.572.373 3.053.351 4.1.196 1.051-.15 1.68-.373 1.703-.31zm1.5 2.093c.01.048-.536.234-1.443.458-.905.213-2.191.487-3.644.409-1.463-.063-2.706-.607-3.512-1.075-.822-.472-1.219-.921-1.184-.953.037-.043.481.32 1.309.719.824.399 2.015.876 3.408.936 1.391.074 2.657-.15 3.569-.296.914-.155 1.484-.25 1.497-.198z" fill="#17282F"/><path d="M196.527 317.522h101.595v-67.753H196.527v67.753z" fill="#FFCC2A"/><path d="M280.554 317.522h-23.783v-67.753h25.782v6.091h-1.999l-17.66 17.624h17.66v44.038z" fill="#EDBC20"/><path d="M247.174 301.593l-36.482 4.616-5.345-42.087 36.481-4.616 5.346 42.087z" fill="#FAFAF9"/><path d="M247.174 301.593l-5.412-42.079.074.058-36.476 4.624-.004.001.065-.085 5.335 42.089-.071-.055c21.808-2.72 35.179-4.388 36.489-4.553l-36.473 4.679-.071-.054-5.358-42.086.065-.084h.004c13.241-1.674 25.717-3.249 36.478-4.608l.075.057 5.28 42.096z" fill="#17282F"/><path d="M238.794 276.854a1.387 1.387 0 00-.126-1.011c-.111-.194-.261-.324-.441-.166-.244.214-1.567 3.424-1.567 3.424l-.407-5.316a1.162 1.162 0 00-.409-.896c-.122-.099-.528-.194-.784.728-.068.244-.409 4.695-.409 4.695l-.558-6.01c-.063-.419-.447-.752-.865-.679l-.119.034c-.384.151-.673 6.85-.673 6.85l-1.486-5.591a.874.874 0 00-1.444-.349c-.518.517 1.807 8.788.9 9.177-.907.39-1.706-1.871-3.242-2.286-.307-.083-.555-.09-.756-.046-.672.147-.831 1.056-.286 1.473 1.224.936 2.645 3.168 2.645 3.168l2.83 8.345 7.637-.966s-2.344-4.406-2.049-6.796c.249-2.01 1.285-6.427 1.609-7.782z" fill="#FAFAF9"/><path d="M238.794 276.854c.007.002-.008.092-.042.264l-.16.767-.622 2.945-.415 2.132c-.119.781-.341 1.637-.262 2.537.204 1.817 1.019 3.808 2.065 5.867a.14.14 0 01-.059.189l-.047.015-7.635.989a.163.163 0 01-.173-.109l-2.846-8.34.018.039c-.595-.899-1.253-1.807-2.033-2.605-.199-.206-.394-.367-.63-.564a1.032 1.032 0 01-.327-.95.965.965 0 01.664-.775c.342-.1.672-.049.973.041 1.272.383 1.86 1.714 2.753 2.26.11.052.205.049.301.019.018.024.073-.103.088-.235.039-.268.024-.571.003-.868a21.685 21.685 0 00-.239-1.812c-.195-1.175-.429-2.338-.635-3.495-.1-.58-.203-1.156-.263-1.745a4.693 4.693 0 01-.026-.45c.021-.16-.048-.3.144-.549.251-.246.633-.345.97-.263.339.076.633.328.751.661.088.29.15.553.225.83l.432 1.628.842 3.183-.352.039c.062-1.317.137-2.603.235-3.86.049-.63.104-1.249.18-1.863.041-.309.08-.61.16-.924.025-.081.039-.156.113-.27.101-.104.146-.088.187-.106l.14-.025a.855.855 0 01.532.132c.312.177.477.589.469.877l.079.874.154 1.709.293 3.255-.295.002.311-3.661.089-.86c.04-.315.14-.576.325-.836.096-.12.25-.246.449-.24.093.004.193.04.261.103l.156.161c.186.232.274.527.278.802l.373 5.326-.167-.027c.341-.806.651-1.515.93-2.122.141-.304.272-.584.401-.835.065-.125.127-.244.197-.355.064-.113.192-.231.342-.186.249.124.295.347.357.505.05.169.057.317.053.434-.011.235-.065.345-.065.345-.011-.002.023-.116.018-.345a1.369 1.369 0 00-.071-.413c-.056-.145-.143-.366-.317-.438-.192-.042-.287.274-.413.504a23.99 23.99 0 00-.379.838 97.358 97.358 0 00-.892 2.134l-.114.048-.054-.074-.439-5.328a1.092 1.092 0 00-.232-.658l-.124-.126-.108-.041c-.079-.003-.167.055-.24.147-.303.397-.283.981-.344 1.561-.091 1.159-.187 2.381-.285 3.661a.148.148 0 01-.16.135.148.148 0 01-.136-.133l-.312-3.249a3389.63 3389.63 0 00-.246-2.577c-.004-.3-.112-.496-.319-.635a.515.515 0 00-.326-.082l-.081.016-.04.011-.005.001h-.002c.04.105-.06-.143-.048-.112l.019.041.065.049-.052.15c-.069.274-.11.579-.147.878a41.107 41.107 0 00-.173 1.848 132.474 132.474 0 00-.222 3.849.18.18 0 01-.353.038l-.847-3.175-.433-1.625-.221-.81a.68.68 0 00-.486-.423.68.68 0 00-.629.171c-.005-.025-.037.16-.028.279 0 .135.011.275.025.415.057.566.159 1.14.26 1.716.206 1.152.44 2.315.637 3.499.1.613.193 1.224.243 1.844.02.313.039.622-.007.957a1.224 1.224 0 01-.068.264l-.088.146-.17.115a.773.773 0 01-.582-.025c-.338-.154-.543-.398-.755-.618l-.602-.666c-.399-.424-.838-.809-1.353-.965-.257-.081-.538-.112-.759-.043a.594.594 0 00-.41.484.664.664 0 00.208.615c.205.171.451.376.645.582.812.833 1.467 1.747 2.076 2.669l.019.039 2.814 8.349-.174-.108 7.64-.944-.105.203c-1.044-2.098-1.847-4.096-2.04-5.981-.07-.959.169-1.805.297-2.588.153-.782.307-1.492.449-2.13.286-1.276.527-2.263.696-2.931l.198-.758c.048-.17.075-.256.082-.255z" fill="#17282F"/><path d="M211.622 280.292a1.381 1.381 0 01-.131-1.01c.059-.217.172-.379.385-.271.29.146 2.375 2.926 2.375 2.926l-.937-5.25c-.081-.333-.032-.694.173-.968.093-.128.463-.319.941.509.127.219 1.57 4.444 1.57 4.444l-.962-5.958c-.044-.422.244-.84.668-.874l.123.003c.41.051 2.365 6.466 2.365 6.466l.041-5.785a.874.874 0 011.311-.697c.631.373.448 8.96 1.423 9.112.975.151 1.184-2.237 2.568-3.022.277-.157.515-.225.72-.233.687-.025 1.07.816.645 1.356-.951 1.211-1.769 3.726-1.769 3.726l-.654 8.786-7.637.967s1.169-4.851.285-7.092c-.742-1.883-2.852-5.904-3.503-7.135z" fill="#FAFAF9"/><path d="M211.622 280.292c.005-.003.054.074.142.227l.382.685a107.411 107.411 0 012.374 4.616c.32.725.763 1.484.935 2.432.284 1.873.007 4.007-.479 6.299l-.153-.171 7.634-.989-.142.148.638-8.786.008-.041c.359-1.044.765-2.093 1.343-3.102a7.52 7.52 0 01.479-.725.662.662 0 00.048-.647.595.595 0 00-.518-.366c-.231-.012-.496.088-.724.231-.46.278-.789.762-1.069 1.271l-.416.795c-.151.267-.289.552-.577.786a.77.77 0 01-.558.169l-.192-.068-.122-.12a1.212 1.212 0 01-.132-.238c-.13-.314-.187-.618-.246-.925a22.515 22.515 0 01-.226-1.846c-.106-1.197-.17-2.381-.259-3.548-.046-.583-.09-1.164-.176-1.725a4.17 4.17 0 00-.08-.409c-.021-.117-.098-.288-.098-.264a.676.676 0 00-.65-.008.673.673 0 00-.366.529l-.01.841-.014 1.681-.027 3.285a.18.18 0 01-.351.052 136.398 136.398 0 00-1.177-3.672 41.955 41.955 0 00-.63-1.746 7.221 7.221 0 00-.362-.814l-.088-.133-.007.013-.084.004a.53.53 0 00-.295.161c-.166.187-.22.403-.15.694l.137.865.269 1.693.511 3.223a.147.147 0 01-.123.169.15.15 0 01-.164-.098l-1.191-3.473c-.204-.546-.331-1.117-.725-1.427-.092-.07-.193-.105-.268-.082l-.095.068-.089.152a1.08 1.08 0 00-.059.695l.906 5.269-.07.1-.086-.033c-.52-.702-.986-1.32-1.397-1.845-.206-.262-.395-.504-.576-.717-.179-.191-.351-.473-.526-.385-.15.113-.18.349-.197.503-.013.166.008.308.033.418.053.222.115.324.105.329 0 0-.08-.093-.15-.317a1.36 1.36 0 01-.057-.435c.02-.168.01-.396.22-.577.134-.081.287.001.378.095.095.089.185.189.279.295.188.211.384.448.596.708.422.518.9 1.128 1.432 1.824l-.155.067-.971-5.25a1.326 1.326 0 01.069-.846 1.12 1.12 0 01.111-.196.417.417 0 01.228-.163c.19-.055.371.028.494.12.244.205.406.433.524.729l.301.811 1.217 3.468-.287.071-.53-3.225-.278-1.693-.142-.867c-.08-.277-.024-.717.235-.966a.856.856 0 01.481-.261l.142-.01c.045.007.084-.02.208.057.1.091.132.159.176.232.157.285.27.567.386.855.228.575.436 1.163.642 1.759.408 1.193.803 2.42 1.192 3.679l-.351.052.02-3.293.01-1.685c.005-.286-.001-.557.012-.86.031-.35.252-.668.561-.826a1.056 1.056 0 011.006.013c.248.193.216.347.276.496.039.15.064.296.087.443.091.585.135 1.168.182 1.754.09 1.172.155 2.356.26 3.544.054.612.117 1.222.221 1.813.054.292.115.59.22.841.047.122.132.232.144.204.1.006.194-.015.287-.092.727-.752.965-2.188 2.1-2.875.269-.162.577-.293.933-.282.368.009.7.266.836.585.148.316.121.711-.079 1.001-.179.25-.328.454-.469.704-.556.967-.966 2.011-1.318 3.029l.008-.043-.67 8.785a.163.163 0 01-.141.149l-7.641.943a.138.138 0 01-.155-.121l.003-.049c.498-2.256.788-4.385.532-6.197-.148-.89-.578-1.664-.888-2.39l-.935-1.961-1.339-2.698-.347-.702c-.076-.159-.112-.243-.106-.246zm25.97 10.169c.006.043-.388.147-1.042.144-.651-.001-1.561-.144-2.482-.542-.92-.402-1.645-.97-2.089-1.445-.447-.477-.638-.835-.603-.861.086-.081 1.068 1.209 2.842 1.962 1.759.783 3.375.624 3.374.742z" fill="#17282F"/><path d="M221.699 286.908c.044.023-.113.44-.42 1.092-.31.649-.773 1.542-1.442 2.433-.668.893-1.443 1.574-2.072 1.952-.626.385-1.072.498-1.088.457-.024-.054.375-.252.939-.676.566-.42 1.275-1.095 1.921-1.957.647-.864 1.139-1.72 1.507-2.334.365-.615.607-.992.655-.967zm-4.095 3.682c-.102.033-.475-.838-.957-1.897-.48-1.06-.889-1.914-.798-1.968.087-.052.651.733 1.14 1.813.491 1.08.711 2.021.615 2.052z" fill="#17282F"/><path d="M239.234 261.6h-1.642v-4.063h1.642v4.063zm-29.636 3.616l-1.562.507-1.259-3.863 1.563-.508 1.258 3.864zm36.797 38.447l-1.562.507-1.258-3.863 1.562-.507 1.258 3.863zm-32.559 4.868h-1.643v-4.063h1.643v4.063" fill="#DADBD8"/><path d="M256.771 317.522c-.104 0-.188-15.168-.188-33.875 0-18.713.084-33.878.188-33.878s.187 15.165.187 33.878c0 18.707-.083 33.875-.187 33.875" fill="#17282F"/><path d="M84.423 317.668h108.311v-72.232H84.424v72.232z" fill="#FFCC2A"/><path d="M192.734 317.668H148.65v-72.232h44.084v72.232z" fill="#EDBC20"/><path d="M134.414 303.362H96.463v-43.621h37.951v43.621z" fill="#FAFAF9"/><path d="M134.414 303.362a2.433 2.433 0 01-.009-.213l-.009-.612-.021-2.366-.043-8.913-.084-31.517.166.166-37.947.021h-.004l.188-.187c-.011 16.089-.02 31.085-.03 43.621l-.158-.158 27.497.082c3.312.017 5.916.032 7.707.04l2.037.019c.463.006.71.017.71.017s-.223.013-.676.018l-2.007.018-7.671.041-27.597.082-.159.001v-.16l-.029-43.621v-.188h.192l37.947.023h.167l-.001.165-.083 31.623-.044 8.877-.02 2.333-.009.594a1.305 1.305 0 01-.01.194z" fill="#17282F"/><path d="M114.486 274.223v-6.495c0-.427.347-.775.776-.775h.29c.428 0 .776.348.776.775v.304h4.831v1.649h-4.767v4.542h-1.906z" fill="#17282F"/><path d="M120.176 296.15h-9.475a1.65 1.65 0 01-1.651-1.648V277.18c0-.911.739-1.648 1.651-1.648h9.475a1.65 1.65 0 011.652 1.648v17.322c0 .91-.74 1.648-1.652 1.648" fill="#33535F"/><path d="M118.728 275.532h-6.286v-1.857c0-.419.34-.76.761-.76h4.764c.42 0 .761.341.761.76v1.857z" fill="#33535F"/><path d="M120.59 291.294h-5.536V279.75h5.536v11.544z" fill="#FAFAF9"/><path d="M118.728 275.462c0 .103-1.443.187-3.221.187-1.78 0-3.222-.084-3.222-.187s1.442-.188 3.222-.188c1.778 0 3.221.085 3.221.188z" fill="#17282F"/><path d="M109.835 289.094c-.103 0-.187-2.691-.187-6.01s.084-6.009.187-6.009c.104 0 .188 2.69.188 6.009 0 3.319-.084 6.01-.188 6.01" fill="#FAFAF9"/><path d="M101.302 262.072h-2.818v-5.186h2.818v5.186zm.555 43.495l-2.744.641-1.184-5.05 2.744-.64 1.184 5.049zm29.6.726l-2.79-.396.731-5.134 2.791.396-.732 5.134zm.493-44.221h-2.819v-5.186h2.819v5.186z" fill="#DADBD8"/><path d="M148.65 318.171c-.104 0-.189-16.247-.189-36.285 0-20.044.085-36.288.189-36.288s.187 16.244.187 36.288c0 20.038-.083 36.285-.187 36.285zm-74.262-21.356v-6.093c0-.401.326-.726.729-.726h.272c.401 0 .728.325.728.726v.285h4.53v1.547h-4.47v4.261h-1.79" fill="#17282F"/><path d="M79.624 317.382H70.94a1.65 1.65 0 01-1.652-1.648v-16.045c0-.909.74-1.648 1.651-1.648h8.684a1.65 1.65 0 011.65 1.648v16.045a1.65 1.65 0 01-1.65 1.648z" fill="#33535F"/><path d="M78.367 298.041h-5.896v-1.694a.76.76 0 01.76-.759h4.375c.42 0 .761.34.761.759v1.694z" fill="#33535F"/><path d="M81.275 313.85h-5.193v-12.797h5.193v12.797z" fill="#FAFAF9"/><path d="M78.367 297.977c0 .103-1.353.187-3.022.187-1.67 0-3.022-.084-3.022-.187 0-.104 1.353-.188 3.022-.188 1.669 0 3.022.084 3.022.188z" fill="#17282F"/><path d="M70.026 310.763c-.104 0-.187-2.524-.187-5.637 0-3.113.083-5.636.187-5.636s.188 2.523.188 5.636-.084 5.637-.188 5.637" fill="#FAFAF9"/><path d="M58.943 296.815v-6.093c0-.401.326-.726.728-.726h.272c.403 0 .729.325.729.726v.285h4.53v1.547h-4.47v4.261h-1.79" fill="#17282F"/><path d="M64.179 317.382h-8.683a1.65 1.65 0 01-1.652-1.648v-16.045a1.65 1.65 0 011.652-1.648h8.683a1.65 1.65 0 011.651 1.648v16.045c0 .91-.74 1.648-1.651 1.648z" fill="#33535F"/><path d="M62.922 298.041h-5.896v-1.694a.76.76 0 01.761-.759h4.374c.42 0 .761.34.761.759v1.694z" fill="#33535F"/><path d="M65.83 313.85h-5.193v-12.797h5.193v12.797z" fill="#FAFAF9"/><path d="M62.922 297.977c0 .103-1.353.187-3.021.187-1.67 0-3.022-.084-3.022-.187 0-.104 1.352-.188 3.022-.188 1.668 0 3.021.084 3.021.188z" fill="#17282F"/><path d="M54.581 310.763c-.103 0-.187-2.524-.187-5.637 0-3.113.084-5.636.187-5.636.104 0 .188 2.523.188 5.636s-.084 5.637-.188 5.637" fill="#FAFAF9"/><path d="M96.463 245.436h108.311v-72.233H96.463v72.233z" fill="#FFCC2A"/><path d="M204.774 245.436h-44.085v-72.233h44.085v72.233z" fill="#EDBC20"/><path d="M152.108 228.442h-47.797v-30.448h47.797v30.448" fill="#fff"/><path d="M152.108 228.442s-.01-.195-.016-.561l-.016-1.608-.038-6.122-.078-22.156.148.147c-13.055.011-29.709.026-47.794.04h-.003l.187-.187-.015 30.447-.172-.173 34.376.085 9.866.047 2.634.021.683.01c.154.004.235.007.238.01.004.004-.07.007-.218.01l-.663.011-2.599.021-9.827.046-34.49.085-.174.001v-.174l-.015-30.447v-.187h.192l47.794.038h.149v.149l-.078 22.248-.038 6.088-.017 1.582c-.005.355-.016.529-.016.529z" fill="#17282F"/><path d="M115.951 209.108h23.708l.721 5.066s-5.913 6.911-12.766 6.911c-7.135 0-12.765-7.13-12.765-7.13l1.102-4.847z" fill="#DADBD8"/><path d="M115.951 209.108c.006.007-.013.124-.055.342l-.193.957-.757 3.571-.019-.085c.89 1.057 2.081 2.235 3.563 3.399 1.485 1.153 3.301 2.291 5.465 3.013 1.087.337 2.254.573 3.474.595 1.215-.007 2.473-.173 3.702-.583 2.458-.812 4.819-2.287 6.939-4.139a24.226 24.226 0 002.168-2.125l-.044.147-.715-5.067.18.156-16.928-.08-4.962-.051-1.341-.026c-.307-.008-.47-.015-.477-.024-.007-.009.143-.017.438-.025l1.307-.026 4.927-.051 17.036-.08h.157l.023.157.725 5.065.013.085-.055.062a24.4 24.4 0 01-2.205 2.166c-2.148 1.877-4.549 3.375-7.075 4.201-1.262.416-2.564.585-3.819.585-1.26-.029-2.459-.278-3.57-.631-2.212-.755-4.043-1.928-5.532-3.111-1.487-1.196-2.665-2.395-3.551-3.488l-.03-.038.01-.046.874-3.597.236-.926c.055-.207.085-.31.091-.302z" fill="#17282F"/><path d="M138.257 210.811c.011.024-.261.165-.764.399-.499.241-1.245.537-2.186.852-.939.322-2.084.624-3.372.878a29.72 29.72 0 01-4.245.471 29.612 29.612 0 01-4.267-.192c-1.303-.17-2.465-.396-3.424-.655-.958-.254-1.724-.5-2.237-.708-.517-.2-.797-.322-.788-.346.023-.066 1.171.358 3.088.796.957.225 2.111.421 3.4.57 1.292.131 2.718.203 4.216.161a32.625 32.625 0 004.194-.437 30.656 30.656 0 003.355-.791c1.884-.562 3.002-1.061 3.03-.998z" fill="#17282F"/><path d="M136.815 213.028c.016.021-.191.195-.582.491-.194.153-.437.33-.739.505-.299.179-.63.405-1.03.589-.777.416-1.756.806-2.875 1.135a17.859 17.859 0 01-3.74.601 17.787 17.787 0 01-3.78-.271c-1.143-.229-2.153-.531-2.963-.877-.415-.148-.764-.344-1.078-.496a6.163 6.163 0 01-.78-.438c-.416-.261-.638-.416-.624-.438.039-.066.953.523 2.578 1.125.808.309 1.806.579 2.929.784a18.92 18.92 0 003.702.237 18.944 18.944 0 003.665-.561c1.1-.304 2.07-.66 2.849-1.039 1.564-.743 2.424-1.409 2.468-1.347zm3.565 1.146c-.009-.064.707-.126 1.77-.506.523-.198 1.149-.473 1.679-.963a2.393 2.393 0 00.784-2.056 2.27 2.27 0 00-1.289-1.759c-.653-.298-1.336-.297-1.884-.223-1.107.175-1.756.507-1.781.441-.011-.022.139-.122.43-.264a5.624 5.624 0 011.307-.44c.572-.11 1.319-.147 2.068.17a2.58 2.58 0 011.522 2.029 2.698 2.698 0 01-.924 2.358c-.604.528-1.274.784-1.827.958-1.125.328-1.854.293-1.855.255zm-25.531-.219c-.01.025-.162-.004-.435-.065-.272-.064-.674-.151-1.145-.367a3.212 3.212 0 01-1.373-1.191c-.374-.579-.593-1.384-.424-2.185.135-.786.621-1.526 1.3-1.812.665-.287 1.317-.248 1.82-.133 1.046.252 1.404.905 1.359.906-.041.053-.446-.485-1.412-.647-.465-.076-1.069-.073-1.62.186-.554.256-.95.862-1.078 1.571-.149.702.031 1.401.351 1.933.318.54.775.904 1.197 1.136.424.231.81.357 1.068.464.262.105.4.18.392.204z" fill="#17282F"/><path d="M108.876 200.269h-1.996v-4.647h1.996v4.647zm41.201 30.497h-1.997v-4.647h1.997v4.647zm-.44-30.915l-1.886-.653 1.528-4.391 1.886.654-1.528 4.39zm-42.134 31.311l-1.885-.653 1.527-4.39 1.886.653-1.528 4.39z" fill="#DADBD8"/><path d="M160.689 173.203l-15.872 12.236H84.423l12.04-12.236h64.226z" fill="#F03D5F"/><path d="M144.817 185.439H84.423l12.04-12.236h64.226l-15.872 12.236" fill="#EDBC20"/><path d="M160.689 173.203l15.848 12.236h40.212l-12.117-12.094-43.943-.142" fill="#FFCC2A"/><path d="M160.689 173.203c.006.006-.089.09-.276.245l-.834.674-3.197 2.521-11.465 8.924-.043.034-.057-.001-20.161-.054-28.442-.167-8.619-.094-2.343-.044-.61-.021c-.137-.007-.207-.013-.207-.02 0-.007.07-.013.207-.019l.61-.016 2.343-.026 8.62-.025 28.441.057 20.161.106-.098.033 11.547-8.817 3.251-2.45.865-.636c.197-.141.302-.211.307-.204z" fill="#17282F"/><path d="M96.269 245.436s.104-.011.31-.016c.216-.002.519-.008.913-.014.818-.006 2.006-.017 3.545-.028l13.316-.05c11.407-.018 27.508-.041 46.336-.068l-.176.176-.012-34.031.015-38.202v-.353l.279.216 15.835 12.253-.092-.032 29.283.066c3.488.017 6.216.032 8.087.04l2.117.023c.479.007.724.023.724.023s-.245.015-.724.023l-2.117.021-8.087.041-29.283.066h-.052l-.041-.032-15.862-12.218.279-.137.015 38.202c-.004 12.016-.009 23.527-.011 34.031v.175h-.177l-46.336-.067-13.316-.051-3.545-.028-.914-.015c-.205-.004-.31-.014-.31-.014" fill="#17282F"/><path d="M204.868 245.286c0 .104-9.874.187-22.052.187-12.182 0-22.054-.083-22.054-.187s9.872-.188 22.054-.188c12.178 0 22.052.084 22.052.188z" fill="#17282F"/><path d="M311.569 289.136h24.969v-39.952h-24.969v39.952z" fill="#FAFAF9"/><path fill-rule="evenodd" clip-rule="evenodd" d="M311.569 289.155h24.969l.019-.019v-39.952l-.019-.018h-24.969l-.018.018v39.952l.018.019zm24.951-.037h-24.933v-39.916h24.933v39.916z" fill="#17282F"/><path d="M336.538 249.184c0 1.106-5.589 2.002-12.484 2.002s-12.485-.896-12.485-2.002c0-1.106 5.59-2.002 12.485-2.002s12.484.896 12.484 2.002z" fill="#DADBD8"/><path d="M328.651 248.975c0 .407-2.059.737-4.597.737-2.539 0-4.597-.33-4.597-.737s2.058-.737 4.597-.737c2.538 0 4.597.33 4.597.737zm.39 40.057c-.104 0-.188-8.473-.188-18.922 0-10.453.084-18.924.188-18.924.103 0 .188 8.471.188 18.924 0 10.449-.085 18.922-.188 18.922z" fill="#17282F"/><path d="M340.113 289.136h24.97v-39.952h-24.97v39.952z" fill="#FAFAF9"/><path fill-rule="evenodd" clip-rule="evenodd" d="M340.113 289.155h24.97l.018-.019v-39.952l-.018-.018h-24.97l-.019.018v39.952l.019.019zm24.951-.037h-24.933v-39.916h24.933v39.916z" fill="#17282F"/><path d="M365.083 249.184c0 1.106-5.59 2.002-12.485 2.002s-12.485-.896-12.485-2.002c0-1.106 5.59-2.002 12.485-2.002s12.485.896 12.485 2.002z" fill="#DADBD8"/><path d="M357.194 248.975c0 .407-2.058.737-4.597.737-2.538 0-4.597-.33-4.597-.737s2.059-.737 4.597-.737c2.539 0 4.597.33 4.597.737zm.39 40.057c-.103 0-.187-8.473-.187-18.922 0-10.453.084-18.924.187-18.924.105 0 .188 8.471.188 18.924 0 10.449-.083 18.922-.188 18.922z" fill="#17282F"/><path d="M282.572 289.136h24.97v-39.952h-24.97v39.952z" fill="#FAFAF9"/><path fill-rule="evenodd" clip-rule="evenodd" d="M282.572 289.155h24.97l.018-.019v-39.952l-.018-.018h-24.97l-.019.018v39.952l.019.019zm24.952-.037H282.59v-39.916h24.934v39.916z" fill="#17282F"/><path d="M307.542 249.184c0 1.106-5.59 2.002-12.485 2.002s-12.485-.896-12.485-2.002c0-1.106 5.59-2.002 12.485-2.002s12.485.896 12.485 2.002z" fill="#DADBD8"/><path d="M299.653 248.975c0 .407-2.057.737-4.596.737s-4.597-.33-4.597-.737 2.058-.737 4.597-.737c2.539 0 4.596.33 4.596.737zm.391 40.057c-.104 0-.187-8.473-.187-18.922 0-10.453.083-18.924.187-18.924.103 0 .188 8.471.188 18.924 0 10.449-.085 18.922-.188 18.922z" fill="#17282F"/><path d="M280.554 317.806h117.354V255.86H280.554v61.946z" fill="#FFCC2A"/><mask id="a" maskUnits="userSpaceOnUse" x="360" y="255" width="38" height="63"><path fill-rule="evenodd" clip-rule="evenodd" d="M397.908 317.806h-37.807V255.86h37.807v61.946" fill="#fff"/></mask><g mask="url(#a)"><path d="M360.101 317.806h37.807V255.86h-37.807v61.946z" fill="#EDBC20"/></g><path d="M280.554 255.86l-17.66 17.624h81.175l16.032-17.624h-79.547z" fill="#F03D5F"/><path d="M344.069 273.484h-81.175l17.66-17.624h79.547l-16.032 17.624z" fill="#EDBC20"/><path d="M360.102 255.859l18.453 16.632h37.333l-17.98-16.632h-37.806z" fill="#FFCC2A"/><path d="M335.882 305.571h-37.937v-22.014h37.937v22.014z" fill="#FAFAF9"/><path d="M335.882 305.571s-.01-.143-.015-.406l-.017-1.162-.036-4.416-.077-16.03.145.144c-10.195.013-23.467.028-37.934.044-.17.166.225-.228.185-.185v2.9l-.001 2.869-.003 5.614-.009 10.628-.175-.174 27.253.084 7.847.048 2.099.022.546.01c.124.004.189.008.192.01a.877.877 0 01-.171.01l-.527.011-2.064.022-7.806.047-27.369.085a.174.174 0 01-.175-.174v-.001l-.01-10.628-.002-5.614v-5.769c-.042.038.355-.358.19-.191 14.467.017 27.739.031 37.934.044a.143.143 0 01.145.143v.001l-.076 16.119-.037 4.384-.016 1.135a7.31 7.31 0 01-.016.376z" fill="#17282F"/><path d="M329.811 291.904c0 .104-5.758.188-12.861.188-7.104 0-12.862-.084-12.862-.188s5.758-.188 12.862-.188c7.103 0 12.861.084 12.861.188zm0 4.85c0 .103-5.758.187-12.861.187-7.104 0-12.862-.084-12.862-.187 0-.104 5.758-.188 12.862-.188 7.103 0 12.861.084 12.861.188zm30.251 21.569c-.105 0-.188-13.894-.188-31.029 0-17.142.083-31.033.188-31.033.103 0 .188 13.891.188 31.033 0 17.135-.085 31.029-.188 31.029" fill="#17282F"/><path d="M415.888 272.491s-.233.017-.681.024l-1.985.024-7.553.041-27.114.067-.105-.041-18.47-16.612.255-.013-14.386 15.825c-.563.617-1.123 1.234-1.642 1.804l-.138.061-57.495-.056c-7.319-.026-13.235-.045-17.336-.059l-4.705-.035-1.222-.018c-.275-.006-.417-.019-.417-.019s.142-.013.417-.019l1.222-.019 4.705-.034 17.336-.059 57.495-.057-.14.062 1.642-1.804 14.396-15.816a.18.18 0 01.256-.013l18.436 16.65-.104-.04 27.114.066 7.553.043 1.985.023c.448.008.681.024.681.024z" fill="#17282F"/><path d="M394.758 187.66l-10.661-5.802a28.014 28.014 0 00-4.248-14.746c-8.227-13.229-25.643-17.297-38.898-9.086-13.255 8.211-17.332 25.592-9.104 38.821 8.227 13.229 25.643 17.297 38.898 9.086a28.07 28.07 0 0011.569-14.115l-.002.016 12.446-4.174z" fill="#fff"/><path d="M394.758 187.66c-.632.217-4.53 1.554-12.415 4.262l-.137.047.013-.145.002-.015.181.041a28.866 28.866 0 01-3.09 6.032c-1.399 2.051-3.176 4.12-5.416 5.957-1.124.911-2.335 1.8-3.684 2.548-.677.368-1.353.765-2.059 1.125l-2.219.951a28.66 28.66 0 01-10.068 1.843 28.65 28.65 0 01-10.924-2.159c-3.578-1.476-7-3.735-9.819-6.747a28.747 28.747 0 01-6.349-10.84c-1.297-4.108-1.753-8.624-.984-13.049l.311-1.684c.098-.562.297-1.099.439-1.648.171-.541.279-1.101.5-1.623l.618-1.574c.186-.532.446-1.03.704-1.527l.759-1.494.891-1.409c.305-.461.572-.949.933-1.368a28.825 28.825 0 019.741-8.321c3.717-1.949 7.754-3.038 11.696-3.207a28.779 28.779 0 0111.179 1.703 28.743 28.743 0 018.928 5.238c2.496 2.167 4.372 4.685 5.891 7.151a28.038 28.038 0 013.806 14.109l-.046-.077c6.767 3.746 10.058 5.57 10.618 5.88l-10.704-5.723-.048-.026v-.053c-.027-3.943-.915-8.996-3.85-13.98-1.517-2.437-3.383-4.924-5.859-7.06A28.464 28.464 0 00354.399 154c-3.893.173-7.878 1.255-11.546 3.182a28.515 28.515 0 00-9.609 8.221c-.355.414-.617.896-.919 1.352l-.879 1.39-.748 1.475c-.255.491-.512.981-.694 1.507l-.61 1.553c-.218.515-.324 1.069-.493 1.602-.14.542-.336 1.072-.432 1.626l-.308 1.662c-.759 4.367-.309 8.823.968 12.878a28.405 28.405 0 006.259 10.705c2.778 2.977 6.154 5.211 9.687 6.675a28.374 28.374 0 0010.791 2.155 28.42 28.42 0 009.962-1.796l2.199-.935c.701-.353 1.371-.744 2.043-1.106 1.338-.736 2.541-1.613 3.657-2.511 2.228-1.811 3.999-3.853 5.397-5.881a28.894 28.894 0 003.103-5.969l.252-.666-.071.708-.002.015-.123-.097 12.475-4.085z" fill="#17282F"/><path d="M350.262 178.42l1.877-.014 4.053-5.729-.028-3.739s2.9-.201 2.596 4.698c-.305 4.9.055 3.65.055 3.65s6.161-.024 6.677.507c.376.385.591 6.491.681 9.803.045 1.667-.968 3.226-2.519 3.632-.22.058-.443.092-.662.094-1.537.012-9.397-1.175-9.397-1.175l-3.243.025-.09-11.752zm-5.381-.985l1.253 12.804 3.214-.024-.096-12.556-4.371-.224z" fill="#FFCC2A"/></svg>