<svg width="433" height="455" fill="none" xmlns="http://www.w3.org/2000/svg"><path d="M430.15 90.328c-2.706-.63-5.595.225-7.883 1.879-2.286 1.653-4.022 4.043-5.383 6.596-2.63 4.941-3.327 11.426-3.18 17.095 5.927-.576 10.762-5.791 13.059-8.599 3.629-4.439 7.64-14.794 3.387-16.972zm-25.82 29.875c2.345-2.135 3.264-5.742 2.599-8.94-.667-3.198-2.774-5.946-5.412-7.656-1.22-.791-2.712-1.39-4.062-.889-1.262.469-2.091 1.836-2.283 3.237-.192 1.4.158 2.825.66 4.136 1.72 4.5 4.165 8.519 8.498 10.112" fill="#CCEDE0"/><path d="M399.706 138.391c-.034-.016.091-.417.346-1.133l1.094-3.016c.899-2.543 2.154-6.094 2.669-10.192.509-4.096-.09-7.879-1.067-10.365-.957-2.513-2.082-3.769-1.99-3.837.022-.021.314.273.765.878.454.6 1.029 1.546 1.563 2.808 1.091 2.509 1.767 6.397 1.244 10.586-.526 4.184-1.854 7.752-2.842 10.267a74.54 74.54 0 01-1.25 2.956c-.312.689-.5 1.063-.532 1.048z" fill="#E7E8E5"/><path d="M426.437 97.926c.015.013-.073.162-.252.435l-.802 1.183-3.009 4.297a1033.913 1033.913 0 00-9.835 14.242 1013.95 1013.95 0 00-9.58 14.438 6389.53 6389.53 0 01-2.878 4.396l-.798 1.185c-.188.267-.294.403-.309.391-.016-.009.062-.166.221-.453l.718-1.241a223.707 223.707 0 012.742-4.495 461.252 461.252 0 019.462-14.541 462.906 462.906 0 019.965-14.157 225.978 225.978 0 013.141-4.193l.88-1.12c.206-.252.32-.378.334-.367z" fill="#E7E8E5"/><path d="M408.642 126.996c4.902-4.555 11.964-6.36 18.291-4.676 1.611.429 3.416 1.37 3.651 3.11.236 1.743-1.257 3.187-2.713 4.041-6.054 3.554-14.155 2.701-19.428-2.048" fill="#CCEDE0"/><path d="M423.124 125.709c-.015.111-1.525-.201-3.972-.141-1.223.018-2.674.195-4.256.528-1.576.37-3.278.919-4.983 1.715a26.427 26.427 0 00-4.521 2.803c-1.287 1.03-2.376 2.06-3.201 3.016-1.668 1.896-2.448 3.296-2.538 3.234-.03-.019.151-.373.512-1.002.174-.318.402-.697.707-1.108.3-.414.618-.909 1.047-1.385.804-1.005 1.887-2.087 3.185-3.16a24.97 24.97 0 014.597-2.9 24.268 24.268 0 015.099-1.71c1.62-.312 3.104-.452 4.348-.42.622-.022 1.182.055 1.675.093.492.03.912.102 1.251.176.683.132 1.056.223 1.05.261z" fill="#E7E8E5"/><path d="M5.32 26.224c-1.694 2.319-2.199 5.45-1.764 8.344.436 2.894 1.735 5.577 3.335 7.969 3.096 4.629 8.34 8.068 13.245 10.35 2.042-5.915-.346-12.771-1.764-16.168C16.131 31.349 9 23.086 5.321 26.224zm14.488 37.47c-.823-3.156-3.512-5.579-6.528-6.307-3.017-.73-6.265.11-8.854 1.902-1.197.83-2.347 2.002-2.496 3.507-.14 1.409.674 2.785 1.789 3.568 1.114.782 2.48 1.056 3.816 1.137 4.58.278 9.06-.343 12.273-3.807z" fill="#CCEDE0"/><path d="M33.369 75.893c-.027.025-.316-.267-.819-.816l-2.109-2.335c-1.788-1.949-4.286-4.667-7.567-6.91-3.282-2.239-6.77-3.283-9.312-3.41-2.556-.16-4.109.379-4.129.263-.007-.03.368-.184 1.077-.357.708-.178 1.762-.323 3.068-.295 2.61.029 6.22 1.044 9.576 3.336 3.35 2.29 5.83 5.086 7.556 7.108a70.443 70.443 0 011.991 2.458c.456.593.695.933.668.958z" fill="#E7E8E5"/><path d="M10.226 33.024c.016-.008.106.14.264.428l.666 1.273 2.387 4.713c2.008 3.984 4.8 9.477 7.962 15.497a1043.71 1043.71 0 008.24 15.337l2.526 4.631.67 1.27c.149.294.22.453.204.463-.016.01-.116-.13-.293-.405l-.754-1.217a235.572 235.572 0 01-2.669-4.544 471.262 471.262 0 01-8.378-15.268 472.256 472.256 0 01-7.835-15.584 234.925 234.925 0 01-2.24-4.797l-.58-1.32c-.127-.304-.186-.469-.17-.477z" fill="#E7E8E5"/><path d="M27.454 62.473c-1.796-6.636-.32-14.164 3.824-19.495 1.056-1.358 2.63-2.683 4.218-2.163 1.59.52 2.185 2.564 2.293 4.322.448 7.312-3.744 14.694-10.054 17.709" fill="#CCEDE0"/><path d="M32.545 48.07c.089.063-.823 1.373-1.818 3.74-.508 1.178-.977 2.641-1.368 4.296a29.833 29.833 0 00-.665 5.5 29.885 29.885 0 00.462 5.523c.33 1.671.745 3.153 1.208 4.35.907 2.407 1.77 3.753 1.68 3.813-.031.02-.256-.307-.638-.919a9.492 9.492 0 01-.644-1.15c-.225-.465-.513-.98-.737-1.595-.515-1.198-.976-2.696-1.338-4.397a28.158 28.158 0 01-.512-5.636c.049-2.014.328-3.917.72-5.61.424-1.684.94-3.162 1.498-4.338.247-.605.552-1.108.795-1.562a9.48 9.48 0 01.686-1.123c.405-.597.642-.914.67-.891z" fill="#E7E8E5"/><path d="M116.489 453.346c2.588 1.045 5.566.65 8.06-.629 2.492-1.279 4.542-3.37 6.243-5.684 3.29-4.476 4.884-10.781 5.528-16.411-5.942-.355-11.452 4.049-14.114 6.467-4.208 3.825-9.62 13.439-5.717 16.257zm29.703-25.52c-2.617 1.747-4.029 5.173-3.816 8.438.214 3.266 1.913 6.313 4.284 8.417 1.097.972 2.49 1.798 3.894 1.514 1.314-.268 2.325-1.491 2.71-2.845.385-1.356.238-2.82-.076-4.196-1.074-4.719-2.933-9.075-6.996-11.328z" fill="#CCEDE0"/><path d="M153.302 410.561c.031.019-.151.398-.502 1.064l-1.501 2.813c-1.245 2.375-2.981 5.692-4.061 9.664-1.075 3.972-1.01 7.807-.389 10.419.595 2.635 1.531 4.052 1.432 4.105-.024.017-.273-.318-.635-.987-.364-.666-.801-1.691-1.153-3.021-.73-2.652-.856-6.603.245-10.666 1.104-4.056 2.914-7.377 4.243-9.71a71.047 71.047 0 011.648-2.728c.404-.634.643-.973.673-.953z" fill="#E7E8E5"/><path d="M121.221 446.41c-.013-.015.095-.149.311-.392l.957-1.044 3.575-3.78c3.022-3.187 7.182-7.605 11.713-12.55 4.53-4.949 8.573-9.49 11.487-12.787 1.419-1.597 2.587-2.914 3.46-3.898l.955-1.047c.223-.235.346-.352.359-.341.014.014-.084.157-.281.415-.24.305-.532.673-.883 1.116-.774.962-1.914 2.335-3.338 4.018a454.323 454.323 0 01-11.386 12.906 451.405 451.405 0 01-11.83 12.446 218.247 218.247 0 01-3.69 3.657l-1.027.97c-.238.217-.37.324-.382.311z" fill="#E7E8E5"/><path d="M142.874 420.436c-5.483 3.739-12.719 4.423-18.742 1.77-1.534-.677-3.188-1.889-3.178-3.646.01-1.761 1.687-2.956 3.245-3.574 6.484-2.57 14.377-.461 18.932 5.057" fill="#CCEDE0"/><path d="M128.372 419.449c.031-.108 1.479.437 3.909.758 1.212.173 2.671.226 4.283.142a25.342 25.342 0 005.167-.918 25.918 25.918 0 004.862-2.066c1.417-.817 2.636-1.667 3.586-2.484 1.914-1.616 2.882-2.878 2.961-2.803.028.024-.202.346-.645.911a9.078 9.078 0 01-.855.986c-.354.362-.737.802-1.228 1.207-.935.869-2.157 1.768-3.591 2.628a24.394 24.394 0 01-4.951 2.151c-1.834.532-3.638.8-5.281.895-1.647.056-3.133-.038-4.359-.263-.619-.075-1.163-.24-1.643-.353a8.571 8.571 0 01-1.215-.37c-.656-.239-1.012-.385-1-.421z" fill="#E7E8E5"/><path d="M328.731 315.825c.008 5.827-4.451 10.557-9.958 10.565-5.506.008-9.977-4.709-9.984-10.535-.007-5.828 4.451-10.557 9.957-10.566 5.507-.008 9.977 4.71 9.985 10.536zm27.908-21.141c.007 5.827-4.449 10.557-9.957 10.565-5.507.008-9.976-4.709-9.984-10.537-.008-5.826 4.45-10.556 9.957-10.564 5.506-.008 9.977 4.708 9.984 10.536zm.058 44.72c.009 6.339-4.449 11.485-9.955 11.493-5.507.008-9.978-5.124-9.986-11.464-.009-6.34 4.449-11.486 9.955-11.494 5.508-.009 9.978 5.124 9.986 11.465z" fill="#CCEDE0"/><path d="M343.784 338.065c-.426.664-7.058-3.322-14.812-8.899-7.756-5.581-13.696-10.64-13.27-11.304.427-.663 7.057 3.322 14.814 8.902 7.753 5.577 13.694 10.638 13.268 11.301zm.796-44.105c.464.634-4.656 5.655-11.435 11.213-6.782 5.559-12.654 9.55-13.119 8.916-.464-.634 4.655-5.654 11.437-11.213 6.78-5.558 12.653-9.55 13.117-8.916z" fill="#CCEDE0"/><path d="M289.192 192.862c.143 0 .26 2.837.26 6.334 0 3.499-.117 6.334-.26 6.334-.144 0-.26-2.835-.26-6.334 0-3.497.116-6.334.26-6.334zm0-25.336c.143 0 .26 2.836.26 6.334 0 3.498-.117 6.334-.26 6.334-.144 0-.26-2.836-.26-6.334 0-3.498.116-6.334.26-6.334zm0-25.337c.143 0 .26 2.837.26 6.334 0 3.499-.117 6.334-.26 6.334-.144 0-.26-2.835-.26-6.334 0-3.497.116-6.334.26-6.334zm0-25.336c.143 0 .26 2.836.26 6.334 0 3.498-.117 6.334-.26 6.334-.144 0-.26-2.836-.26-6.334 0-3.498.116-6.334.26-6.334zm0-25.337c.143 0 .26 2.837.26 6.334 0 3.499-.117 6.334-.26 6.334-.144 0-.26-2.835-.26-6.334 0-3.497.116-6.334.26-6.334zm-6.815-18.126c0-.15 2.68-.274 5.986-.274l.828.002h.26l-.002.273c-.018 3.088-.126 5.457-.258 5.457-.13 0-.239-2.369-.257-5.457l.257.271-.828.004c-3.306 0-5.986-.124-5.986-.276zm-23.944 0c0-.15 2.679-.274 5.986-.274 3.306 0 5.986.123 5.986.274 0 .152-2.68.276-5.986.276-3.307 0-5.986-.124-5.986-.276zm-10.411-14.32c.144 0 .26 2.836.26 6.334 0 3.499-.116 6.334-.26 6.334-.143 0-.26-2.835-.26-6.334 0-3.498.117-6.334.26-6.334zm0-20.333c.144 0 .26 1.716.26 3.831 0 2.118-.116 3.834-.26 3.834-.143 0-.26-1.716-.26-3.834 0-2.115.117-3.83.26-3.83zM103.615 326.112c0-.153 1.339-.275 2.992-.275 1.652 0 2.992.122 2.992.275 0 .152-1.34.274-2.992.274-1.653 0-2.992-.122-2.992-.274m-26.11 0c0-.153 2.923-.275 6.526-.275 3.605 0 6.527.122 6.527.275 0 .152-2.922.274-6.527.274-3.603 0-6.526-.122-6.526-.274zm-26.108 0c0-.153 2.923-.275 6.526-.275 3.605 0 6.527.122 6.527.275 0 .152-2.922.274-6.527.274-3.603 0-6.526-.122-6.526-.274m-19.031-6.335c.144 0 .26 2.836.26 6.333.056.062-.492-.519-.259-.273h.306l.304.001.594.004 1.124.016 1.902.059c1.083.05 1.753.119 1.753.195 0 .076-.67.144-1.753.194l-1.902.059-1.124.016-.594.004-.304.001h-.306a12.08 12.08 0 01-.26-.276c0-3.497.116-6.333.26-6.333zm0-24.559c.144 0 .26 2.748.26 6.139 0 3.392-.116 6.141-.26 6.141-.143 0-.26-2.749-.26-6.141 0-3.391.117-6.139.26-6.139zm0-24.56c.144 0 .26 2.749.26 6.139 0 3.392-.116 6.14-.26 6.14-.143 0-.26-2.748-.26-6.14 0-3.39.117-6.139.26-6.139zm0-18.615c.144 0 .26 1.418.26 3.167 0 1.75-.116 3.167-.26 3.167-.143 0-.26-1.417-.26-3.167 0-1.749.117-3.167.26-3.167z" fill="#DADBD8"/><path d="M77.74 244.735c1.339-4.162-.065-9.144-3.339-11.852-1.647-1.362-3.707-2.099-5.792-2.192-3.238-.145-6.05-2.165-7.36-5.301-2.124-5.089-6.348-9.236-11.43-10.743-7.26-2.152-15.67 1.264-19.704 8.003-1.115 1.865-2.02 4.048-3.839 5.124-2.32 1.375-5.18.446-7.834.269-7.869-.525-15.321 8.361-14.912 16.692h74.21M280.952 38.737c1.339-4.162-.064-9.145-3.339-11.853-1.646-1.36-3.706-2.099-5.791-2.192-3.238-.144-6.051-2.164-7.36-5.3-2.124-5.09-6.348-9.237-11.43-10.744-7.26-2.151-15.671 1.264-19.704 8.003-1.116 1.865-2.02 4.048-3.839 5.126-2.32 1.373-5.181.444-7.834.268-7.869-.526-15.322 8.36-14.912 16.692h74.209m2.302 144.196c2.318 38.868 33.976 68.389 70.708 65.936 36.733-2.453 64.631-35.951 62.313-74.818-2.318-38.868-33.976-68.389-70.708-65.936-36.734 2.453-64.631 35.951-62.313 74.818zm-15.841 182.092c-1.582 42.412-31.1 77.508-71.206 78.334-40.105.824-73.25-32.908-74.03-75.345-.78-42.437 31.21-81.588 71.205-78.333 42.66 3.472 75.474 36.649 74.031 75.344zM15.225 109.997c-.73 39.704 29.097 72.517 66.62 73.289 37.523.773 68.533-30.788 69.263-70.492.729-39.705-29.098-72.516-66.62-73.29-37.523-.77-68.533 30.79-69.263 70.493z" fill="#CCEDE0"/><path d="M341.158 195.114c1.056 1.03-24.696 32.388-57.509 70.034-32.824 37.659-60.279 67.343-61.334 66.314-1.054-1.029 24.691-32.381 57.515-70.041 32.813-37.645 60.274-67.337 61.328-66.307zm-13.656-51.134c-.306 1.483-45.683-7.705-101.343-20.519-55.677-12.818-100.551-24.41-100.246-25.894.305-1.482 45.674 7.704 101.352 20.523 55.659 12.814 100.542 24.406 100.237 25.89zM162.076 317.677c-.597.39-7.655-10.291-18.343-28.045-10.691-17.752-24.954-42.614-39.973-70.525-15.017-27.925-27.94-53.598-36.906-72.388-8.97-18.79-14.045-30.662-13.423-31.004.65-.359 6.875 10.872 16.661 29.168l38.183 71.505 38.603 71.234c9.87 18.247 15.82 29.647 15.198 30.055z" fill="#CCEDE0"/><path d="M374.778 81.282c.348 6.025.739 7.855 2.851 12.66 1.251 2.849 3.013 5.489 3.708 8.543.661 2.903.306 5.967.811 8.903.826 4.795 3.832 8.783 6.088 13.032 2.258 4.249 3.78 9.626 1.538 13.884l-23.082-2.884-1.627-30.323 9.713-23.814zm-45.891-10.28c-2.988 6.707 1.167 13.415-1.821 20.123-1.482 3.323-2.973 6.678-3.763 10.257-.713 3.224-.855 6.621-2.098 9.66-1.98 4.844-6.475 8.118-8.557 12.913-3.084 7.105.193 16.006 6.088 20.718 5.896 4.712 13.722 5.887 21.093 5.34 4.468-.331 8.998-1.274 12.845-3.705 3.844-2.431 6.928-6.54 7.413-11.251" fill="#17282F"/><path d="M363.115 59.061c14.854 6.969 17.806 32.783 17.881 36.258.088 4.145 2.175 5.005 4.779 7.171 2.604 2.166 5.125 4.793 5.845 8.158.567 2.648-.027 5.577 1.171 7.992 1.429 2.885 4.817 3.957 7.445 5.738 4.967 3.365 7.418 9.696 7.694 15.806.273 6.112-1.314 12.131-2.889 18.03-.623 2.34-1.399 4.897-3.405 6.173-1.545.984-3.478.972-5.296.929l-28.208-.666c-7.195-.17-14.58-.379-21.23-3.208-5.404-2.3-10.142-6.357-13.039-11.583-2.896-5.226-3.868-11.616-2.347-17.425 1.172-4.479 3.741-8.523 4.483-13.097.919-5.664-3.57-8.088-5.196-13.582-1.627-5.492-2.971-18.67-.742-23.936" fill="#17282F"/><path d="M380.093 201.389l-4.638-15.732-.677 24.02s6.017 16.411 10.601 28.953c-9.202 5.81-19.801 9.47-31.231 10.233-14.214.949-27.696-2.695-39.165-9.712l7.144-27.162-3.405-30.719-9.425 14.262-20.106-20.566s14.718-28.774 16.543-31.399c11.636-16.738 31.739-16.338 31.739-16.338l28.439 1.668s15.993-.948 26.497 12.444c0 0 10.268 16.582 18.701 57.506l-31.017 2.542z" fill="#FFCC2A"/><path d="M394.316 145.841c.001.008-.139.031-.412.068-.271.048-.684.062-1.211.175-1.061.168-2.618.552-4.51 1.374a20.637 20.637 0 00-6.199 4.307 20.749 20.749 0 00-2.964 3.793c-.87 1.473-1.727 3.136-2.062 5.031-.162.939-.173 1.943.09 2.893a4.598 4.598 0 001.636 2.403c.779.599 1.835.849 2.761.46.927-.368 1.611-1.306 1.915-2.356.312-1.06.263-2.246-.22-3.283-.462-1.046-1.242-1.943-2.161-2.658-1.853-1.431-4.167-2.313-6.589-2.594-2.428-.294-4.97.002-7.459.703-2.482.72-4.988 1.709-7.267 3.209-2.269 1.5-4.425 3.397-6.014 5.794-.765 1.196-1.403 2.566-1.435 4.002-.012.709.144 1.421.507 2.023.354.605.871 1.103 1.454 1.505l-.047-.025c.66.259 1.396.377 2.033.089.639-.275 1.124-.899 1.449-1.608.652-1.44.836-3.147.842-4.812-.018-1.645-.194-3.314-.745-4.814-.538-1.51-1.437-2.857-2.526-3.96-2.191-2.223-5.095-3.507-8.018-3.823-2.936-.339-5.867.15-8.592 1.024-2.701.881-5.406 2.047-7.141 4.231-.822 1.082-1.438 2.423-1.274 3.767.134 1.331.772 2.619 1.738 3.433.479.406 1.045.69 1.631.753a2.54 2.54 0 001.68-.427c1.021-.664 1.487-1.955 1.59-3.187.111-1.249-.048-2.51-.384-3.676-.18-.581-.419-1.144-.622-1.709-.11-.278-.199-.567-.326-.835l-.403-.787c-1.011-2.127-2.407-3.913-3.863-5.445-2.97-3.033-6.341-4.976-9.472-6.001-3.133-1.04-5.999-1.329-8.306-1.165-2.308.161-4.069.622-5.225 1.022l-1.309.498a7.257 7.257 0 01-.453.152s.142-.077.433-.204l1.295-.55c1.152-.436 2.917-.935 5.246-1.133 2.327-.197 5.228.062 8.406 1.087 3.177 1.01 6.606 2.95 9.642 6.015 1.487 1.548 2.918 3.359 3.961 5.524l.414.803c.13.273.223.566.337.85.21.579.454 1.147.642 1.749.356 1.216.528 2.523.415 3.851-.103 1.299-.598 2.757-1.782 3.539a2.968 2.968 0 01-1.96.504c-.692-.073-1.338-.401-1.872-.851-1.074-.906-1.762-2.285-1.92-3.761a4.707 4.707 0 01.296-2.211 7.16 7.16 0 011.076-1.925c1.85-2.331 4.633-3.511 7.367-4.413 2.767-.893 5.762-1.402 8.791-1.057 3.016.322 6.036 1.647 8.32 3.964 1.138 1.15 2.084 2.563 2.652 4.157.584 1.599.761 3.31.78 5.009-.008 1.722-.185 3.478-.896 5.056-.356.774-.913 1.523-1.718 1.873-.806.36-1.689.202-2.415-.085l-.024-.01-.023-.016c-.629-.435-1.208-.986-1.614-1.68-.414-.69-.596-1.518-.581-2.317.042-1.615.735-3.052 1.529-4.299 1.655-2.486 3.853-4.406 6.173-5.936 2.34-1.532 4.881-2.529 7.406-3.255 2.534-.707 5.135-1.005 7.634-.696 2.494.3 4.871 1.21 6.799 2.709.957.752 1.788 1.704 2.284 2.84.521 1.126.577 2.457.227 3.603-.336 1.144-1.094 2.197-2.168 2.62-1.07.442-2.274.137-3.121-.522a4.993 4.993 0 01-1.767-2.625c-.279-1.029-.257-2.089-.083-3.071.363-1.976 1.248-3.65 2.142-5.143a20.936 20.936 0 013.038-3.824 20.542 20.542 0 016.317-4.282c1.92-.802 3.496-1.155 4.568-1.291 1.071-.143 1.637-.14 1.637-.14zm12.054 34.396c.026.068-1 .307-2.581 1.319-1.558.988-3.705 2.886-5.1 6.046-.356.78-.619 1.647-.822 2.564-.22.913-.281 1.894-.006 2.835.133.463.37.898.725 1.165.358.252.84.329 1.258.146.853-.377 1.422-1.437 1.519-2.515.273-2.195-.985-4.64-3.032-5.701-2.063-1.075-4.759-.774-6.778.676-2.046 1.462-3.32 3.846-3.838 6.236-.259 1.183-.286 2.454.267 3.419.529.968 1.653 1.539 2.563 1.068.913-.435 1.462-1.49 1.453-2.513.015-1.038-.365-2.038-.859-2.884a8.07 8.07 0 00-4.047-3.449 7.113 7.113 0 00-4.313-.276 8.02 8.02 0 00-2.999 1.475c-1.476 1.176-1.935 2.211-1.992 2.158-.008-.005.02-.067.083-.183.063-.115.152-.291.3-.499a7.647 7.647 0 011.486-1.646 8.094 8.094 0 013.052-1.604 7.355 7.355 0 014.506.207 8.41 8.41 0 014.289 3.576c.529.891.955 1.954.95 3.132.015 1.165-.598 2.431-1.716 2.97a2.126 2.126 0 01-1.808.021c-.576-.257-1.046-.722-1.371-1.28-.661-1.154-.606-2.565-.34-3.811.537-2.503 1.859-5.008 4.043-6.573 2.165-1.55 5.04-1.879 7.292-.703 2.245 1.182 3.589 3.814 3.284 6.248-.128 1.195-.732 2.416-1.831 2.903-.555.235-1.199.134-1.674-.212-.471-.362-.738-.897-.883-1.417-.299-1.045-.208-2.133.026-3.064.221-.945.504-1.837.88-2.634 1.48-3.231 3.716-5.118 5.331-6.066 1.639-.97 2.683-1.134 2.683-1.134zm-31.478 15.184c-.003.008-.087-.006-.247-.046l-.711-.187c-.626-.145-1.552-.369-2.765-.493a20.005 20.005 0 00-10.089 1.492 18.63 18.63 0 00-3.028 1.626c-.987.668-1.955 1.498-2.637 2.6-.688 1.091-.967 2.51-.503 3.82.218.641.587 1.249 1.117 1.643a2.25 2.25 0 001.847.423c1.301-.301 2.384-1.631 2.563-3.111.2-1.517-.34-3.096-1.155-4.457-1.653-2.75-4.425-4.88-7.601-5.711-3.186-.846-6.555-.182-9.214 1.464-1.323.819-2.532 1.881-3.394 3.116-.406.636-.728 1.336-.881 2.064-.16.717-.151 1.484.164 2.084a1.93 1.93 0 001.524 1.074c.636.053 1.288-.169 1.812-.555 1.105-.756 1.455-2.215 1.344-3.502-.105-1.313-.587-2.531-1.162-3.608-.599-1.065-1.297-2.016-2.082-2.799a13.44 13.44 0 00-4.963-3.143 12.013 12.013 0 00-4.341-.718c-2.442.051-3.702.733-3.721.635-.004-.009.074-.045.229-.106.185-.069.414-.154.694-.26a10.801 10.801 0 012.792-.484c1.228-.062 2.76.071 4.437.64a13.587 13.587 0 015.126 3.154c.816.798 1.546 1.77 2.176 2.869.604 1.11 1.119 2.37 1.243 3.781a5.342 5.342 0 01-.224 2.145 3.547 3.547 0 01-1.288 1.793c-.595.442-1.339.712-2.114.652a2.398 2.398 0 01-1.902-1.327c-.395-.751-.392-1.647-.22-2.439.169-.807.512-1.558.949-2.249.937-1.347 2.163-2.415 3.546-3.282 2.759-1.718 6.267-2.415 9.593-1.533 3.311.868 6.185 3.08 7.908 5.956.849 1.429 1.442 3.12 1.216 4.817-.222 1.692-1.41 3.174-2.959 3.537a2.708 2.708 0 01-2.216-.517c-.624-.473-1.034-1.17-1.275-1.886a4.87 4.87 0 01-.191-2.228c.107-.746.411-1.402.765-2 .742-1.181 1.764-2.032 2.785-2.711a18.83 18.83 0 013.104-1.628c4.138-1.709 7.834-1.676 10.249-1.344 2.445.339 3.7.939 3.7.939z" fill="#FAFAF9"/><path d="M263.444 107.429c2.071.114 1.481 12.048 3.012 9.523 1.531-2.526-.88-14.642 1.278-14.428 2.812.279 1.977 12.766 1.98 13.827.002 1.031 1.451 1.052 1.399.096-.073-1.373-.508-15.834 2.256-15.588 1.532.136.974 3.032.974 3.032s-.536 13.589.774 13.657c1.329.072 1.897-7.901 1.91-10.6.012-2.665 1.215-3.776 2.326-2.82.758.651.905 8.909.834 11.579-.071 2.669-.389 9.991 2.539 6.44 2.93-3.55 6.416-5.145 7.626-4.89 1.21.256 1.27 2.14.02 2.751-1.013.493-2.47 1.863-3.528 2.939-.871.887-1.495 1.984-2.154 3.052-.703 1.139-.968 1.871-1.541 3.784l3.923 49.77 2.883-3.807 16.438 16.815-8.577 10.442c-6.286 7.652-17.655 8.145-24.04.588a17.732 17.732 0 01-.671-.849c-1.594-2.156-2.446-4.823-2.664-7.552l-5.428-64.527-.049.002c-.119-7.171-1.959-12.621-2.278-16.318-.595-6.879-.011-6.962.758-6.918zm75.981 26.597c.06-7.506-.006-15.408-.006-15.408s-9.12-1.717-10.875-14.354c-1.673-12.052 1.166-37.973 1.166-37.973 13.211-5.514 28.088-3.382 37.343 7.87l-1.439 60.948c-.166 7.075-6.049 12.558-13.208 12.311-7.229-.249-13.038-6.244-12.981-13.394z" fill="#F8A58D"/><path d="M332.193 86.195a1.583 1.583 0 001.456 1.65 1.49 1.49 0 001.591-1.44c.038-.853-.614-1.592-1.455-1.65a1.49 1.49 0 00-1.592 1.44zm-2.459-1.843c.186.214 1.355-.678 3.001-.654 1.642 0 2.84.91 3.021.699.089-.093-.1-.476-.622-.888-.513-.41-1.392-.813-2.416-.82-1.025-.007-1.892.382-2.392.784-.51.405-.685.784-.592.88zm19.296 2.356a1.585 1.585 0 001.457 1.65 1.493 1.493 0 001.592-1.44c.038-.853-.615-1.592-1.455-1.65a1.493 1.493 0 00-1.594 1.44z" fill="#17282F"/><path d="M346.893 85.195c.186.213 1.356-.679 3.001-.655 1.642 0 2.84.91 3.021.7.089-.094-.099-.477-.622-.889-.513-.41-1.391-.813-2.416-.82-1.024-.007-1.891.382-2.391.784-.509.405-.686.785-.593.88zm-6.112 12.837c.009-.1-1.013-.298-2.667-.543-.42-.051-.816-.144-.884-.448-.095-.323.086-.8.295-1.315l1.279-3.37c1.778-4.797 3.071-8.745 2.888-8.819-.185-.074-1.773 3.755-3.552 8.554-.427 1.183-.837 2.31-1.227 3.39-.165.503-.444 1.073-.236 1.742.108.334.415.578.683.658.268.09.504.098.712.114 1.666.116 2.701.135 2.709.037z" fill="#17282F"/><path d="M339.419 118.618s8.014.645 16.014-4.311c0 0-3.968 8.618-15.885 7.291l-.129-2.98zm2.011-16.382a2.887 2.887 0 012.67-1.133c.714.091 1.431.463 1.858 1.083.427.622.508 1.495.108 2.078-.451.655-1.381.796-2.163.551-.782-.247-1.453-.802-2.088-1.355-.177-.153-.356-.312-.465-.519-.108-.209-.129-.479.01-.649" fill="#F68260"/><path d="M345.609 99.296c-.268-.02-.292 1.869-1.835 3.192-1.54 1.327-3.441 1.092-3.458 1.355-.026.118.42.372 1.223.405.788.039 1.942-.216 2.886-1.024.941-.811 1.354-1.904 1.423-2.678.077-.79-.117-1.261-.239-1.25zm16.266-34.136c-4.362 6.582-15.91 13.35-24.179 14.921.965-1.345 6.045-4.659 7.011-6.004-3.749 2.963-9.113 6.925-14.087 7.193-.587.032-1.225.03-1.71-.282-.659-.425-.792-1.251-.87-1.982-.32-3.083-.118-8.371.346-11.43.464-3.061 1.792-6.106 4.302-8.157 3.185-2.604 7.746-3.247 12.042-3.356 3.603-.092 7.318.133 10.612 1.51 3.293 1.375 6.111 4.094 6.592 7.364" fill="#17282F"/><path d="M374.382 94.648c.601-3.265 1.08-6.363 1.191-8.431.352-6.51-1.425-30.537-22.636-28.603l5.104 6.894s-4.191 14.563 4.734 24.606c0 0 .506 5.878 6.72 12.659 0 0 3.597-.115 4.887-7.124z" fill="#17282F"/><path d="M362.523 88.02c1.277-.244 2.625-.191 3.835.308 1.209.498 2.268 1.468 2.779 2.731.512 1.266.443 2.742-.012 4.032s-1.271 2.411-2.208 3.366c-.674.687-1.437 1.312-2.332 1.598-.895.284-1.945.178-2.651-.47" fill="#F8A58D"/><path d="M363.138 96.207c-.146.048.399.87 1.568.554.562-.151 1.116-.665 1.454-1.314a6.232 6.232 0 00.661-2.23c.089-.841-.082-1.739-.514-2.382-.411-.655-1.09-1.047-1.663-1.067-1.198-.042-1.579.832-1.444.858.094.105.564-.343 1.347-.133.75.154 1.478 1.26 1.3 2.62-.157 1.388-.675 2.651-1.377 2.96-.73.383-1.251.024-1.332.134z" fill="#F68260"/><path d="M377.479 217.077v-5.765h-38.341l-11.256-52.15-57.379.5 13.913 57.415h93.063z" fill="#17282F"/><path d="M297.69 188.153c.848 2.762 3.157 4.443 5.156 3.756 1.997-.688 2.931-3.484 2.082-6.246-.847-2.76-3.156-4.442-5.155-3.755-1.999.687-2.931 3.484-2.083 6.245z" fill="#FAFAF9"/><path d="M325.254 216.723a38.745 38.745 0 01-2.396-6.072c-.15-.5-.292-1.022-.225-1.541.066-.52.395-1.039.88-1.142.895-.191 1.45.956 1.8 1.847 1.304 3.328 4.204 5.887 7.521 6.683l2.323-.069.011-.101 50.151-4.732-2.392-10.527 26.549-2.087 2.42 10.364c1.309 12.946-8.539 24.107-20.834 23.614l-57.548.016c-18.305 1.268-21.746-15.853-21.746-15.853l13.486-.4z" fill="#F8A58D"/><path d="M258.575 386.857l-22.667 14.802 8.313 21.168c7.662-7.536 13.776-16.793 17.8-27.177l-3.446-8.793z" fill="#C0776A"/><path d="M243.324 346.259c-12.6-13.711-34.779-11.866-34.779-11.866l-28.808 1.085s-10.955 1.273-21.221 6.948l-.707.23.008.156c-8.063 4.633-19.482 15.746-30.359 26.531l13.017 12.782 14.407 13.533s-.056.097-.025.27c.151.821-2.34 17.194-4.545 31.341 12.658 10.393 28.63 16.445 45.895 16.09 10.993-.227 21.366-3.031 30.621-7.85l1.076-13.078c.983-11.857 1.731-26.539 1.731-26.539l4.138 11.104 30.055-16.537c.318-1.03.618-2.067.896-3.116-2.931-7.42-12.985-31.926-21.4-41.084z" fill="#FFCC2A"/><path d="M209.344 333.236c.017-.003.06.184.127.545.079.359.139.897.19 1.596.089 1.392-.016 3.456-.744 5.856-.742 2.373-2.163 5.093-4.555 7.295-2.365 2.222-5.753 3.679-9.392 3.873-3.639.168-7.141-.947-9.694-2.924-2.578-1.952-4.235-4.517-5.189-6.806-.939-2.315-1.229-4.359-1.266-5.753-.012-.7-.001-1.243.046-1.608.034-.366.06-.557.078-.555.058.004-.022.772.077 2.15.098 1.372.44 3.365 1.4 5.608.974 2.214 2.621 4.685 5.13 6.551 2.482 1.889 5.868 2.95 9.395 2.787 3.524-.189 6.801-1.581 9.102-3.707 2.332-2.11 3.751-4.733 4.52-7.038.754-2.326.916-4.346.89-5.72-.023-1.382-.174-2.14-.115-2.15zm27.434 6.613c.009.068-.767.035-2.039.511-1.265.452-2.999 1.56-4.464 3.582-1.495 1.998-2.455 4.95-2.835 8.297-.2 1.676-.286 3.455-.345 5.305a204.584 204.584 0 00-.122 5.725c-.057 7.852.382 14.952.853 20.072.226 2.562.469 4.629.618 6.061l.179 1.647c.035.378.045.577.027.58-.017.004-.062-.192-.132-.563l-.274-1.635c-.212-1.425-.51-3.486-.784-6.05-.564-5.12-1.064-12.239-1.008-20.116.023-1.968.056-3.889.134-5.742.067-1.853.163-3.648.381-5.35.409-3.395 1.434-6.436 3.019-8.47 1.548-2.056 3.371-3.145 4.689-3.547 1.327-.423 2.103-.307 2.103-.307zm-68.568-1.98c.018.006-.025.21-.123.594-.118.439-.267.99-.448 1.668l-1.688 6.12a505.364 505.364 0 00-5.102 20.321 510.971 510.971 0 00-4.227 20.547l-1.137 6.261-.319 1.7c-.08.39-.13.592-.147.588-.018-.003-.003-.211.043-.604l.224-1.719c.203-1.492.534-3.643.975-6.296.882-5.306 2.26-12.611 4.083-20.606 1.826-7.993 3.75-15.157 5.255-20.304a221.504 221.504 0 011.847-6.073l.542-1.638c.129-.373.205-.566.222-.559zm95.948 44.379c.02.032-.4.362-1.175.928-.774.569-1.909 1.368-3.325 2.335a252.745 252.745 0 01-11.252 7.23 250.286 250.286 0 01-11.585 6.618 123.19 123.19 0 01-3.585 1.855c-.854.42-1.334.639-1.351.604-.015-.034.434-.315 1.259-.795l3.506-2.008a513.451 513.451 0 0011.497-6.75 518.855 518.855 0 0011.316-7.083c1.377-.881 2.522-1.617 3.411-2.186.809-.511 1.265-.779 1.284-.748z" fill="#17282F"/><path d="M156.373 386.884c-.091.117-5.756-4.607-12.651-10.551-6.897-5.946-12.414-10.86-12.323-10.979.091-.118 5.753 4.607 12.652 10.552 6.896 5.945 12.413 10.861 12.322 10.978z" fill="#17282F"/><path d="M233.773 406.996l-4.138-11.103 4.138 11.103 3.479-1.915v.001l-3.479 1.914" fill="#A7AAA9"/><path d="M237.252 405.082v-.001l.718-.395-.718.396z" fill="#915C52"/><path fill-rule="evenodd" clip-rule="evenodd" d="M229.635 395.893l4.138 11.103 3.479-1.915.718-.395-1.479-5.151a120.22 120.22 0 01-3.255 1.679c-.796.392-1.267.608-1.341.608-.005 0-.008-.001-.01-.004-.015-.034.434-.315 1.259-.795l2.619-1.5.622-.356-9.409-32.75c.059 6.592.443 12.498.85 16.924.117 1.334.239 2.533.351 3.578a296.13 296.13 0 001.458 8.974zm-2.823-20.04c-.287-3.138-.442-6.08-.337-8.318.051 2.948.173 5.746.337 8.318z" fill="#EDBC20"/><path d="M228.177 386.919c-.504-3.419-1.027-7.379-1.365-11.066-.164-2.572-.287-5.37-.337-8.318.037-.8.107-1.509.216-2.106l.284.988c.06 6.592.443 12.498.85 16.924.118 1.334.24 2.533.352 3.578zm3.718 14.903c-.005 0-.008-.001-.01-.004-.015-.034.434-.315 1.259-.795l3.241-1.856.105.368c-1.353.72-2.462 1.29-3.254 1.679-.796.392-1.267.608-1.341.608" fill="#111D23"/><path fill-rule="evenodd" clip-rule="evenodd" d="M178.843 335.557c-2.506.452-7.206 1.364-9.05 2.16 4.133-1.268 7.509-1.876 9.047-2.114l.003-.046zm.126-.022v.049c.497-.076.768-.106.768-.106l.799-.031-.063-.174s-.59.097-1.504.262z" fill="#A7AAA9"/><path fill-rule="evenodd" clip-rule="evenodd" d="M169.432 337.893c-5.932 3.308 8.427 11.156 15.521 11.333-2.395-1.918-3.953-4.363-4.866-6.555-.939-2.315-1.229-4.359-1.266-5.754-.009-.532-.005-.972.019-1.314-1.539.238-4.914.846-9.047 2.114-.137.06-.259.118-.361.176zm10.99 4.62c.949 2.157 2.537 4.558 4.939 6.406l-4.825-13.472-.799.031s-.272.03-.768.106c.003.342.015.786.053 1.321.098 1.372.44 3.365 1.4 5.608z" fill="#EDBC20"/><path d="M185.193 349.229l-.24-.003c-2.395-1.918-3.953-4.363-4.866-6.555-.939-2.315-1.229-4.359-1.266-5.754-.009-.532-.005-.972.019-1.314l.003-.046.126-.022v.049c.003.342.015.786.054 1.321.097 1.372.44 3.365 1.399 5.608.949 2.157 2.537 4.558 4.939 6.406l.11.306a8.468 8.468 0 01-.278.004" fill="#111D23"/><path d="M172.13 394.962l2.375-14.059 36.393-.749-2.667 14.667-36.101.141" fill="#F2577A"/><path d="M204.773 287.943c-.283 1.058.085 2.275.893 2.966.807.69 2.01.812 2.927.295 1.742-.979 1.918-3.552 1.533-5.599-.384-2.047-1.084-4.227-.305-6.144.597-1.468 1.93-2.416 2.96-3.582 1.798-2.031 2.721-4.957 2.225-7.69-.497-2.732-2.485-5.156-5.03-5.852-2.599-.712-5.768.194-7.729-1.746-1.42-1.407-1.549-3.756-2.66-5.446-1.723-2.624-5.273-2.974-8.256-2.478-2.984.494-6.011 1.571-8.956.861-2.459-.594-4.501-2.362-6.815-3.425-5.015-2.302-11.345-.868-15.031 3.406-3.684 4.274-4.452 11.075-1.826 16.149.945 1.822 2.346 3.468 4.181 4.209" fill="#17282F"/><path d="M194.306 352.08c-7.929.014-14.47-6.504-14.863-14.809-.326-6.918-.599-13.579-.599-13.579s-12.138-.93-13.257-13.485c-1.121-12.557-1.275-41.593-1.275-41.593 13.392-7.438 29.569-6.694 42.282 1.942l1.154.786 1.403 64.976c.089 8.667-6.579 15.749-14.845 15.762z" fill="#C0776A"/><path d="M187.342 287.929c-.916.317-1.413 1.354-1.108 2.314.303.959 1.291 1.479 2.207 1.161.915-.319 1.411-1.356 1.107-2.315-.303-.96-1.291-1.479-2.206-1.16z" fill="#17282F"/><path d="M184.016 288.581c.201.206 1.325-.819 2.977-.931 1.651-.137 2.903.708 3.074.474.084-.106-.126-.486-.673-.871-.537-.382-1.443-.727-2.473-.649-1.029.078-1.877.555-2.357 1.014-.489.463-.645.872-.548.963zm-14.79-.652c-.915.317-1.411 1.354-1.107 2.314.303.959 1.291 1.479 2.207 1.161.914-.319 1.41-1.356 1.107-2.315-.303-.96-1.291-1.479-2.207-1.16z" fill="#17282F"/><path d="M165.678 288.62c.201.206 1.325-.82 2.979-.931 1.651-.138 2.903.707 3.072.473.085-.104-.125-.486-.673-.87-.537-.382-1.442-.727-2.472-.649-1.029.077-1.878.554-2.358 1.014-.489.463-.644.872-.548.963zm12.468 13.576c0-.136-1.037-.266-2.715-.365-.435-.012-.782-.087-.832-.326-.1-.269.031-.766.208-1.324l1.034-3.629c1.416-5.165 2.36-9.412 2.11-9.487-.25-.075-1.6 4.05-3.016 9.215l-.962 3.651c-.119.536-.371 1.174-.091 1.901.149.364.509.606.8.659.294.067.537.046.745.039 1.679-.081 2.718-.198 2.719-.334z" fill="#17282F"/><path d="M183.657 303.651c-3.31 1.7-4.846 2.219-7.905 3.157 0 0 2.177 3.066 5.53 1.445 3.481-1.683 2.375-4.602 2.375-4.602z" fill="#fff"/><path d="M178.811 323.514s7.624 0 15.265-5.992c0 0-2.994 9.361-15.041 9.249l-.224-3.257z" fill="#AC584F"/><path d="M208.039 284.038c-.013-1.016.729-1.891 1.696-1.94 2.238-.111 5.918.745 6.381 7.219.661 9.246-7.871 7.111-7.905 6.847-.027-.206-.129-8.528-.172-12.126z" fill="#C0776A"/><path d="M210.089 292.487c.036-.033.161.1.43.204.262.102.703.152 1.15-.066.906-.432 1.579-2.045 1.502-3.715a5.53 5.53 0 00-.594-2.272c-.317-.655-.769-1.094-1.244-1.145a.78.78 0 00-.875.513c-.1.268-.03.449-.076.468-.024.025-.201-.14-.157-.527.023-.187.111-.414.306-.608.198-.197.502-.313.832-.302.684-.005 1.342.604 1.707 1.307.402.704.675 1.588.717 2.535.077 1.867-.707 3.683-1.955 4.17-.607.218-1.14.064-1.422-.133-.29-.207-.35-.411-.321-.429z" fill="#AC584F"/><path d="M189.903 283.427c-.373.508-1.675.271-3.367.194-1.688-.142-3.009-.075-3.317-.627-.349-.575 1.285-1.896 3.462-1.707 2.182.093 3.64 1.615 3.222 2.14zm-19.07-.322c-.124.641-1.22.946-2.457 1.069-1.238.105-2.367.007-2.596-.601-.231-.589.806-1.582 2.402-1.728 1.594-.149 2.781.637 2.651 1.26z" fill="#17282F"/><path d="M162.626 272.589s7.201 3.688 16.571-1.26c6.15-3.248 13.317-4.835 14.898-3.527 1.58 1.308 1.914 8.013 8.005 9.97 0 0-.418 12.793 4.402 12.335 4.82-.456 1.808-20.268 1.808-20.268l-11.792-6.093-12.868-2.572-12.124 1.809-9.381 2.718.481 6.888z" fill="#17282F"/><path d="M119.552 294.49c.426.724 14.296 51.574 14.296 51.574l-27.518 3.971-12.658-41.494 25.88-14.051z" fill="#33535F"/><path d="M133.848 346.064l2.472-1.391-14.399-51.517-2.665 1.495 14.592 51.413m-25.824-38.072c.136.666-.267 1.323-.896 1.466-.631.144-1.25-.282-1.386-.948-.135-.666.266-1.323.896-1.466.631-.144 1.251.282 1.386.948z" fill="#17282F"/><path d="M128.657 369.272l-18.052 12.443-3.322-44.519.282-2.223 12.229-4.939-3.515-9.528c-1.718-4.447-6.66-6.39-10.705-4.211l-3.915 2.11c-2.79 1.503-4.854 4.183-5.66 7.383-1.39 5.515-2.627 11.476-2.498 10.958h.001-.001l-7.735 57.306s-3.68 16.522 7.004 24.383c8.072 5.939 21.666-.368 28.881-4.684l31.267-19.939-24.261-24.54z" fill="#C0776A"/><path d="M147.102 135.578l-12.247-19.714-20.645 13.723 18.716 30.538s10.297-11.82 14.176-24.547z" fill="#F68260"/><path d="M70.375 36.98c1.01-1.175-.36-3.015-1.77-3.558-1.412-.543-3.17-.792-3.846-2.213-.818-1.723.628-3.648.889-5.558.278-2.042-.834-3.983-1.164-6.016-.42-2.588.538-5.376 2.43-7.074 1.892-1.698 4.649-2.242 6.993-1.38.149-3.978 2.803-7.716 6.37-8.978 3.567-1.261 7.811.038 10.191 3.12 1.86-1.496 3.748-3.01 5.915-3.935 2.167-.924 4.683-1.205 6.82-.206 2.137 1 3.723 3.487 3.31 5.92 1.618-2.035 4.627-2.433 6.896-1.295 2.27 1.138 3.812 3.545 4.474 6.11.924 3.58.119 7.806-2.582 10.178-2.7 2.37-7.322 2.15-9.321-.901" fill="#17282F"/><path d="M83.623 97.654c7.418.012 13.54-6.087 13.906-13.856.305-6.472.56-12.705.56-12.705s11.358-.87 12.405-12.618c1.048-11.746 1.191-38.913 1.191-38.913-12.528-6.96-27.663-6.264-39.558 1.818l-1.08.733-1.312 60.794c-.085 8.108 6.155 14.734 13.888 14.747z" fill="#F8A58D"/><path d="M90.14 37.632c.856.298 1.32 1.268 1.036 2.165-.284.899-1.208 1.385-2.065 1.087-.856-.298-1.32-1.267-1.036-2.166.284-.898 1.208-1.384 2.064-1.086z" fill="#17282F"/><path d="M93.251 38.243c-.187.194-1.24-.766-2.785-.87-1.545-.13-2.717.661-2.876.443-.079-.098.118-.455.63-.815.503-.358 1.349-.68 2.313-.608.963.072 1.757.52 2.206.949.458.434.603.816.512.901zm13.837-.611c.856.298 1.321 1.268 1.037 2.165-.285.899-1.209 1.385-2.066 1.087-.856-.298-1.319-1.267-1.035-2.166.283-.898 1.208-1.384 2.064-1.086z" fill="#17282F"/><path d="M110.407 38.28c-.187.192-1.239-.767-2.785-.872-1.546-.129-2.716.662-2.875.444-.079-.098.117-.455.629-.815.503-.358 1.35-.68 2.314-.608.962.073 1.756.519 2.205.95.459.433.603.815.512.9zM98.743 50.981c0-.128.97-.248 2.54-.34.407-.012.733-.081.779-.307.092-.25-.028-.716-.195-1.237l-.967-3.395c-1.325-4.834-2.209-8.807-1.975-8.878.233-.07 1.497 3.79 2.822 8.622l.9 3.415c.111.503.347 1.1.085 1.78-.139.34-.476.566-.748.617-.275.062-.503.043-.697.034-1.571-.072-2.544-.183-2.544-.31z" fill="#17282F"/><path d="M93.587 52.342c3.096 1.59 4.534 2.077 7.395 2.955 0 0-2.036 2.868-5.174 1.351-3.256-1.575-2.221-4.306-2.221-4.306z" fill="#fff"/><path d="M98.121 70.926s-7.133 0-14.281-5.606c0 0 2.8 8.759 14.071 8.655l.21-3.049z" fill="#F68260"/><path d="M70.775 39.368c.011-.952-.682-1.77-1.587-1.815-2.094-.105-5.536.698-5.97 6.753-.619 8.65 7.364 6.654 7.396 6.407.026-.193.12-7.979.16-11.345z" fill="#F8A58D"/><path d="M68.857 47.273c-.034-.032-.15.093-.402.19a1.378 1.378 0 01-1.076-.06c-.847-.405-1.478-1.914-1.406-3.477a5.168 5.168 0 01.557-2.126c.297-.612.72-1.024 1.163-1.072.445-.07.735.23.82.482.092.25.028.418.07.437.022.023.188-.131.147-.494a.98.98 0 00-.286-.567 1.053 1.053 0 00-.78-.283c-.639-.004-1.255.564-1.596 1.221a5.32 5.32 0 00-.67 2.373c-.073 1.747.661 3.445 1.828 3.901.57.205 1.066.06 1.331-.124.27-.194.328-.385.3-.401z" fill="#F68260"/><path d="M87.743 33.422c.35.475 1.567.252 3.15.181 1.58-.134 2.816-.07 3.104-.587.327-.539-1.202-1.774-3.24-1.598-2.041.089-3.405 1.512-3.014 2.004zm17.843-.302c.115.6 1.141.885 2.297 1 1.16.099 2.216.006 2.43-.563.216-.551-.755-1.48-2.247-1.616-1.492-.14-2.602.596-2.48 1.179z" fill="#17282F"/><path d="M113.264 23.281s-6.738 3.45-15.505-1.18c-5.753-3.038-12.46-4.522-13.937-3.298-1.479 1.223-1.79 7.496-7.49 9.328 0 0 .391 11.967-4.118 11.54-4.51-.426-1.692-18.963-1.692-18.963l11.032-5.7 12.04-2.407 11.343 1.692 8.777 2.543-.45 6.445z" fill="#17282F"/><path d="M37.763 92.535C49.55 79.706 70.3 81.106 70.3 81.106l26.953 1.014s10.251 1.19 19.855 6.5l.661.216-.008.146c7.545 4.335 18.228 14.732 28.404 24.822l-12.178 11.96-13.479 12.661s.052.091.023.253c-.141.767 2.19 16.086 4.253 29.323-11.844 9.721-26.787 15.385-42.94 15.053-10.285-.213-19.99-2.836-28.648-7.345l-1.008-12.236c-.919-11.093-1.619-24.829-1.619-24.829L37.763 92.535" fill="#FFCC2A"/><path d="M108.039 84.357c.017-.006.09.175.211.522l.51 1.532a202.98 202.98 0 011.734 5.68 335.706 335.706 0 014.922 18.996c1.705 7.48 2.992 14.315 3.814 19.281.412 2.483.72 4.496.907 5.891l.207 1.609c.041.369.054.563.037.566-.018.003-.066-.186-.14-.548l-.304-1.591-1.068-5.857a483.72 483.72 0 00-3.958-19.223 482.044 482.044 0 00-4.769-19.013l-1.574-5.727c-.169-.629-.306-1.145-.416-1.562-.091-.359-.13-.55-.113-.556z" fill="#17282F"/><path d="M119.114 130.216c-.091-.118 5.066-4.724 11.519-10.285 6.453-5.563 11.756-9.976 11.847-9.859.091.118-5.066 4.722-11.519 10.286-6.452 5.561-11.756 9.975-11.847 9.858z" fill="#17282F"/><path d="M46.699 149.032l-3.927-2.161 5.127-17.844 2.671 9.617-3.871 10.388z" fill="#A7AAA9"/><path d="M50.57 138.644l-2.671-9.617 5.425-18.884c1.224 6.68-2.754 28.501-2.754 28.501z" fill="#DA314B"/><path d="M106.556 84.214c-4.392-1.347-7.87-1.897-8.951-2.048l.003-.058c2.163.382 7.094 1.307 8.948 2.106" fill="#A7AAA9"/><path d="M97.605 82.166c-.229-.033-.35-.046-.35-.046l-.748-.029.059-.162s.398.066 1.042.179l-.003.058z" fill="#D8866F"/><path d="M92.15 94.985a6.93 6.93 0 01-.26-.004l4.617-12.89.747.029s.122.013.351.046c1.082.151 4.559.701 8.951 2.048.129.056.243.11.34.166 5.611 3.13-8.193 10.605-14.746 10.605" fill="#FFCC2A"/><path d="M68.606 81.929v-9.726S86.558 77.09 87.21 88.457c0 0 2.283-12.564 11.533-13.167l1.306 17.674-10.763 9.908h-10.91l-8.642-7.887-1.128-12.272" fill="#FFCC2A"/><path d="M91.25 142.976c-.018-.001-.027-.187-.029-.542l.018-1.549c.033-1.344.062-3.288.073-5.691a230.782 230.782 0 00-.68-18.745 230.037 230.037 0 00-2.253-18.61 284.282 284.282 0 00-.96-5.6l-.258-1.524c-.054-.35-.074-.535-.057-.54.018-.004.072.174.159.516l.355 1.504c.303 1.307.69 3.211 1.122 5.574.87 4.724 1.83 11.309 2.41 18.634.57 7.325.649 13.986.53 18.797-.059 2.406-.143 4.352-.238 5.695l-.116 1.544c-.033.354-.058.538-.076.537zm-4.866-57.791c-.005.052-.405-.178-1.07.087-.326.132-.687.391-.99.816-.31.419-.563.979-.838 1.615a56.451 56.451 0 00-3.435 10.513l-.08.36-.3-.192a73.574 73.574 0 01-3.277-2.222c-2.144-1.543-4.106-3.117-5.819-4.672-.86-.781-1.566-1.723-1.973-2.726-.403-1.004-.562-2.01-.608-2.917-.076-1.823.202-3.266.381-4.248.195-.983.34-1.515.373-1.508.038.008-.041.556-.174 1.545-.117.986-.333 2.427-.214 4.186.068.874.243 1.826.635 2.756.4.93 1.052 1.78 1.896 2.532 1.7 1.505 3.67 3.068 5.794 4.597a83.349 83.349 0 003.25 2.217l-.379.168c.987-4.383 2.434-8.04 3.634-10.54.295-.626.58-1.201.934-1.636.347-.441.768-.71 1.132-.822.753-.229 1.154.087 1.128.091zm12.359-9.895c.036 0 .085.54.148 1.52l.27 4.142c.13 1.745.326 3.817.66 6.102.132 1.128.501 2.352.214 3.712-.365 1.337-1.324 2.346-2.343 3.161-1.432 1.127-2.94 1.976-3.956 3.183l-.397.471-.04-.628a23.623 23.623 0 00-2.674-9.485c-1.152-2.166-2.102-3.273-2.037-3.328.02-.019.273.242.695.762.42.524.995 1.321 1.614 2.398 1.237 2.132 2.608 5.49 2.9 9.617l-.435-.157c1.09-1.31 2.64-2.181 4.017-3.272.982-.775 1.853-1.735 2.163-2.855.259-1.138-.063-2.353-.194-3.504a71.248 71.248 0 01-.554-6.153 92.824 92.824 0 01-.105-4.16c0-.98.019-1.523.054-1.526zm57.785 2.441c-.731.91-27.161 38.305-27.161 38.305l3.722 2.231 27.121-36.92-3.682-3.616z" fill="#17282F"/><path d="M50.352 107.297s27.804 42.351 29.48 43.182c3.3 1.64 41.337-33.143 44.966-36.47.499-.708 1.531-2.198 3.557-5.165 0 0 3.001-14.532 6.204-13.415 3.203 1.115-1.756 7.384.331 12.905 2.086 5.521 11.638-7.648 12.021-8.83l2.463-3.405s2.583 7.75 2.408 10.985c-.561 10.367-9.831 22.698-9.831 22.698s-41.628 54.565-70.144 56.258c-8.213.488-22.808-24.171-32.566-42.66-5.892-11.166-2.951-25.233 6.815-32.769l4.296-3.314z" fill="#F8A58D"/><path d="M147.102 108.927c-.076-.05.827-1.709 1.811-3.821.991-2.11 1.688-3.876 1.773-3.842.076.029-.496 1.862-1.493 3.988-.993 2.13-2.022 3.722-2.091 3.675z" fill="#F68260"/><path d="M45.645 86.63S15.8 97.855 37.989 150.96l34.452-22.002-4.901-12.418-21.895-29.91z" fill="#FFCC2A"/><path d="M43.358 87.548c0-.01.08-.017.236-.022l.697-.01c.611.004 1.518.092 2.655.373 1.127.31 2.483.841 3.903 1.753 1.423.905 2.9 2.178 4.337 3.776 2.889 3.193 5.586 7.649 8.09 12.811 2.521 5.163 4.874 11.042 7.29 17.221l2.113 5.403.089.227-.203.118c-9.968 5.751-18.646 11.142-24.776 15.181a389.446 389.446 0 00-7.184 4.826l-1.928 1.322c-.442.298-.678.447-.688.433-.01-.015.208-.192.633-.518.425-.324 1.052-.805 1.878-1.402a233.45 233.45 0 017.105-4.972c6.087-4.124 14.744-9.578 24.712-15.349l-.114.344-2.117-5.403c-2.414-6.177-4.75-12.049-7.236-17.2-2.469-5.151-5.114-9.59-7.931-12.775-1.401-1.594-2.838-2.867-4.222-3.78a14.47 14.47 0 00-3.803-1.81c-2.232-.608-3.543-.463-3.536-.547z" fill="#17282F"/></svg>