<svg width="447" height="455" fill="none" xmlns="http://www.w3.org/2000/svg"><path d="M385.744 212.67c0 5.368-4.353 9.717-9.722 9.717s-9.721-4.349-9.721-9.717c0-5.366 4.352-9.716 9.721-9.716s9.722 4.35 9.722 9.716zm-28.233 0c0 5.717-4.636 10.351-10.354 10.351-5.72 0-10.357-4.634-10.357-10.351 0-5.716 4.637-10.35 10.357-10.35 5.718 0 10.354 4.634 10.354 10.35zm-21.55-18.312c0 6.068-4.922 10.987-10.992 10.987-6.072 0-10.994-4.919-10.994-10.987 0-6.068 4.922-10.987 10.994-10.987 6.07 0 10.992 4.919 10.992 10.987zm-4.016-28.155c0 6.337-5.14 11.474-11.48 11.474-6.34 0-11.482-5.137-11.482-11.474 0-6.338 5.142-11.476 11.482-11.476 6.34 0 11.48 5.138 11.48 11.476zm14.445-24.649c0 6.551-5.313 11.86-11.866 11.86-6.552 0-11.865-5.309-11.865-11.86 0-6.55 5.313-11.859 11.865-11.859 6.553 0 11.866 5.309 11.866 11.859zm28.087-9.739c0 7.139-5.789 12.925-12.932 12.925-7.141 0-12.93-5.786-12.93-12.925 0-7.138 5.789-12.924 12.93-12.924 7.143 0 12.932 5.786 12.932 12.924zm32.382 62.315c0 5.184-4.204 9.386-9.39 9.386-5.185 0-9.389-4.202-9.389-9.386 0-5.184 4.204-9.386 9.389-9.386 5.186 0 9.39 4.202 9.39 9.386zm4.35-28.242c0 4.81-3.901 8.711-8.715 8.711-4.812 0-8.715-3.901-8.715-8.711 0-4.812 3.903-8.711 8.715-8.711a8.712 8.712 0 018.715 8.711zm-15.246-24.659a7.96 7.96 0 01-7.962 7.957 7.96 7.96 0 01-7.962-7.957 7.96 7.96 0 017.962-7.958 7.96 7.96 0 017.962 7.958z" fill="#CCEDE0"/><path fill-rule="evenodd" clip-rule="evenodd" d="M87.737 107.144c-7.981-4.988-18.498-2.566-23.49 5.413-4.99 7.977-2.565 18.489 5.416 23.478 7.982 4.988 18.498 2.565 23.489-5.413 4.99-7.978 2.568-18.488-5.415-23.478zm18.948-12.669a38.929 38.929 0 016.009 8.432l9.603-.036 3.569 15.475-8.649 4.17a38.964 38.964 0 01-1.71 10.213l6.815 6.759-8.427 13.465-9.062-3.163a38.854 38.854 0 01-8.438 6.006l.036 9.6-15.48 3.568-4.174-8.647a39.002 39.002 0 01-10.217-1.71l-6.761 6.811-13.475-8.419 3.167-9.06a38.847 38.847 0 01-6.01-8.433l-9.604.036-3.57-15.476 8.653-4.169a38.98 38.98 0 011.71-10.212l-6.814-6.759 8.425-13.466 9.062 3.163a38.864 38.864 0 018.438-6.005l-.036-9.6 15.481-3.567 4.173 8.647c3.426.11 6.862.674 10.217 1.708l6.761-6.81 13.472 8.42-3.164 9.06zm-1.136-58.076c-4.418-2.762-10.241-1.42-13.005 2.997-2.763 4.417-1.42 10.236 2.999 12.998 4.419 2.762 10.241 1.42 13.004-2.997a9.43 9.43 0 00-2.998-12.998zm10.492-7.014a21.626 21.626 0 013.326 4.668l5.317-.02 1.976 8.568-4.789 2.31a21.547 21.547 0 01-.947 5.653l3.773 3.743-4.665 7.454-5.017-1.751a21.506 21.506 0 01-4.672 3.325l.02 5.314-8.571 1.976-2.31-4.788a21.55 21.55 0 01-5.657-.947l-3.743 3.773L82.622 64l1.752-5.016a21.48 21.48 0 01-3.326-4.668l-5.318.02-1.976-8.568 4.79-2.31a21.59 21.59 0 01.947-5.653l-3.772-3.742 4.664-7.455L85.4 28.36a21.514 21.514 0 014.672-3.326l-.02-5.315 8.57-1.975 2.311 4.788c1.898.061 3.799.372 5.657.946l3.744-3.77 7.457 4.661-1.75 5.016z" fill="#CCEDE0"/><path d="M41.458 45.222c.008-.014.155.068.428.239.276.166.66.455 1.095.887.867.843 1.965 2.408 2.199 4.639.108 1.1.008 2.35-.473 3.573-.484 1.212-1.28 2.427-2.458 3.331a7.394 7.394 0 01-1.96 1.13 7.406 7.406 0 01-2.3.532c-1.608.142-3.31-.271-4.767-1.165-1.443-.919-2.56-2.267-3.136-3.775a7.384 7.384 0 01-.528-2.3 7.386 7.386 0 01.157-2.256c.297-1.454 1.043-2.703 1.92-3.668.89-.967 1.971-1.605 3.008-1.99 2.11-.764 3.997-.463 5.134-.053.58.202 1.008.42 1.277.595.274.17.412.267.404.281-.028.05-.59-.342-1.739-.697a7.623 7.623 0 00-4.955.196c-.984.387-2.002 1.01-2.833 1.94-.82.928-1.512 2.116-1.78 3.49a6.98 6.98 0 00-.132 2.126c.052.726.22 1.461.508 2.161.547 1.416 1.597 2.676 2.951 3.54 1.37.837 2.963 1.23 4.474 1.101a6.97 6.97 0 002.168-.489 6.979 6.979 0 001.854-1.051c1.118-.841 1.884-1.984 2.359-3.126.472-1.153.588-2.341.506-3.394a7.622 7.622 0 00-1.993-4.54c-.823-.876-1.422-1.21-1.388-1.257z" fill="#DADBD8"/><path d="M49.958 39.539c-.007.002.017-.086.071-.258l.251-.776 1.024-3.056.032.091-6.067-3.738.152-.018-3.02 3.069-.06.06-.083-.025a17.475 17.475 0 00-4.546-.743l-.096-.003-.042-.087-1.884-3.874.194.094-6.94 1.618.147-.186.026 4.306v.121l-.107.057a17.289 17.289 0 00-3.736 2.67l-.092.086-.12-.041-4.067-1.414.254-.09-3.77 6.046-.033-.279 3.06 3.029.098.098-.041.134a17.364 17.364 0 00-.753 4.52l-.004.142-.128.062-3.88 1.873.128-.268 1.605 6.942-.236-.187c1.36-.005 2.83-.01 4.309-.017h.147l.068.13a17.229 17.229 0 002.656 3.727l.001.001v.001c.024.11-.05-.244.053.246v.004l-.004.009-.006.015-.01.032-.024.065-.044.127-.09.256-.178.51-.356 1.02-.708 2.025-.1-.284c2.041 1.278 4.056 2.538 6.043 3.78l-.298.034 3.034-3.054.103-.103.137.043a17.26 17.26 0 004.52.76l.143.004.062.128 1.868 3.88-.26-.124 6.947-1.593-.173.218-.01-4.306-.001-.132.116-.06a17.3 17.3 0 003.743-2.656l.093-.087.12.042 4.062 1.426-.237.084 3.794-6.031.027.23-3.05-3.041-.074-.075.03-.1a17.37 17.37 0 00.775-4.535l.003-.097.087-.042 3.887-1.856-.077.162-1.567-6.951.105.084-4.307-.014h-.048l-.022-.041a18.137 18.137 0 00-1.899-2.928l-.549-.667c-.129-.151-.185-.223-.178-.224.006-.002.079.066.209.196.131.14.33.35.58.645a16.85 16.85 0 011.975 2.905l-.069-.041c1.177-.014 2.588-.03 4.308-.048h.086l.02.085 1.635 6.935.026.11-.104.05-3.873 1.885.09-.138a17.633 17.633 0 01-.76 4.627l-.043-.175c.975.964 1.987 1.961 3.065 3.025l.105.104-.079.125-3.766 6.05-.085.136-.152-.053-4.068-1.412.212-.045a17.642 17.642 0 01-3.827 2.734l.116-.192.022 4.306v.178l-.174.04-6.942 1.608-.18.041-.08-.166-1.876-3.877.204.132a17.75 17.75 0 01-4.646-.774l.24-.06-3.032 3.058-.135.136-.163-.102-6.045-3.776-.164-.102.064-.183c.234-.672.47-1.348.708-2.026l.356-1.018.178-.512.09-.256.044-.128.023-.064.011-.032.006-.016.002-.007.002-.004.051.245v-.002l-.002-.001a17.723 17.723 0 01-2.73-3.833l.215.129-4.309.015h-.193l-.043-.187-1.597-6.942-.043-.186.171-.082 3.882-1.867-.132.202c.053-1.631.344-3.231.781-4.64l.058.231-3.053-3.035-.128-.128.096-.152 3.787-6.036.092-.146.162.057L25.2 38.51l-.212.046a17.66 17.66 0 013.835-2.72l-.106.177-.008-4.306v-.153l.149-.034c2.438-.555 4.76-1.083 6.948-1.583l.136-.03.059.124 1.86 3.885-.139-.09c1.658.06 3.217.352 4.62.79l-.142.035 3.046-3.04.07-.07.083.052 6.019 3.815.053.034-.021.057-1.091 3-.29.774a2.131 2.131 0 01-.111.265z" fill="#DADBD8"/><path d="M296.495.945s.274.006.816.03c.538.055 1.358-.003 2.413.202 2.11.259 5.318.959 8.92 3.126 1.819 1.035 3.667 2.523 5.413 4.423a23.794 23.794 0 014.502 7.125c1.166 2.835 1.788 6.141 1.742 9.668l-.036 11.227-.483 134.37-.786 199.287-.115 28.47-.03 7.222c-.036 2.417-.202 4.896-.939 7.244-.696 2.347-1.677 4.635-3.062 6.681a25.721 25.721 0 01-4.973 5.471c-3.876 3.084-8.725 5.041-13.744 5.268-1.257.083-2.497.066-3.739.058l-3.736-.017c-2.492-.012-4.992-.022-7.496-.035l-30.345-.136-62.276-.283-31.852-.147c-5.345-.023-10.708-.049-16.087-.073-5.396.253-10.97-1.19-15.462-4.334-4.51-3.12-7.83-7.827-9.366-13.04-.827-2.601-.971-5.366-.96-8.042l.034-8.029.136-31.847.267-62.262.514-117.704.474-106.51.22-48.267c.009-1.934.017-3.86.027-5.776.017-.96.09-1.926.145-2.884.172-.945.248-1.906.497-2.83.886-3.718 2.622-7.194 5.042-10.05a24.73 24.73 0 018.844-6.554C134.367.5 138.043-.018 141.595.04l20.77.105 9.991.052 4.896.024c1.633-.074 3.323.38 4.66 1.321a7.84 7.84 0 012.884 3.816c.601 1.524.45 3.166.462 4.691l-.011 2.318c-.001.773-.032 1.54.066 2.276a7.565 7.565 0 001.772 4.015 7.068 7.068 0 003.653 2.287c.707.18 1.417.233 2.157.22l2.195.013 8.6.044 31.419.168 13.852.075c.387-.005.775.001 1.163.008.707.01 1.409.02 2.084-.035a7.042 7.042 0 002.933-1.019c1.76-1.087 2.959-2.893 3.371-4.803.222-.956.188-1.93.198-2.897l.016-2.848c.015-.93-.039-1.864.134-2.773a8.07 8.07 0 01.905-2.54 7.508 7.508 0 013.807-3.337c1.231-.53 2.522-.51 3.751-.491.329.005.655.011.973.005 6.108.04 11.278.071 15.456.098 4.175.03 7.36.053 9.505.07 2.141.018 3.238.042 3.238.042s-1.097.013-3.238.012l-9.505-.016c-4.178-.014-9.349-.028-15.456-.046a30.99 30.99 0 01-.977-.003c-1.226-.015-2.491-.031-3.685.488a7.332 7.332 0 00-3.708 3.268 7.832 7.832 0 00-.877 2.482c-.168.88-.114 1.804-.127 2.741l-.01 2.85c-.008.956.03 1.954-.197 2.94-.418 1.961-1.645 3.823-3.457 4.946a7.288 7.288 0 01-3.024 1.055c-.71.06-1.408.05-2.111.04-.386-.005-.773-.01-1.164-.004l-13.851-.053-31.419-.123a14361.771 14361.771 0 01-10.795-.042c-.729.012-1.503-.041-2.233-.228a7.395 7.395 0 01-3.819-2.384 7.9 7.9 0 01-1.853-4.182c-.103-.78-.071-1.554-.071-2.32l.01-2.317c-.014-1.552.129-3.127-.449-4.579a7.493 7.493 0 00-2.763-3.648c-1.287-.898-2.86-1.326-4.466-1.255l-4.895-.02-9.992-.042-20.77-.086c-3.527-.053-7.121.46-10.425 1.934a24.368 24.368 0 00-8.696 6.454c-2.378 2.812-4.08 6.23-4.948 9.886-.245.907-.318 1.853-.487 2.783-.054.944-.125 1.884-.141 2.84l-.023 5.777-.189 48.269c-.132 33.357-.276 68.999-.426 106.508-.152 37.509-.314 76.883-.481 117.704l-.26 62.263-.133 31.847-.034 8.028c-.01 2.67.129 5.338.939 7.89 1.503 5.096 4.748 9.699 9.158 12.751 4.411 3.072 9.799 4.484 15.158 4.237l16.087.075c10.689.048 21.309.098 31.852.147 21.084.099 41.859.197 62.275.291l30.346.144 7.496.035 3.735.018c1.244.009 2.488.025 3.707-.057 4.913-.219 9.656-2.133 13.452-5.151a25.241 25.241 0 004.869-5.353c1.358-2.002 2.319-4.241 2.998-6.539.724-2.304.885-4.709.923-7.108.011-2.413.022-4.82.031-7.222l.126-28.469c.34-75.005.644-142.554.9-199.286l.654-134.37.06-11.227c.056-3.51-.553-6.786-1.704-9.607a23.708 23.708 0 00-4.455-7.094c-1.729-1.896-3.563-3.384-5.369-4.421-3.576-2.174-6.769-2.889-8.872-3.166-1.051-.213-1.869-.163-2.407-.226-.54-.035-.814-.059-.814-.059z" fill="#17282F"/><path d="M220.332 170.141a10.98 10.98 0 01-5.84-1.68 11.017 11.017 0 01-5.184-9.369 10.971 10.971 0 011.678-5.827 11.027 11.027 0 019.366-5.183c1.998 0 4.021.542 5.84 1.679a11.02 11.02 0 015.184 9.37 10.973 10.973 0 01-1.679 5.827 11.028 11.028 0 01-9.365 5.183" fill="#fff"/><path d="M305.529 38.007c.001.109-4.173.23-9.323.274-5.15.043-9.325-.012-9.325-.12-.001-.109 4.172-.231 9.322-.273 5.149-.043 9.325.01 9.326.119zm.039 4.769c.001.11-4.173.23-9.321.274-5.151.042-9.326-.011-9.327-.12-.001-.108 4.172-.231 9.323-.273 5.149-.043 9.324.01 9.325.12zm.039 4.768c.001.11-4.173.232-9.321.274-5.151.042-9.325-.01-9.326-.12-.001-.107 4.171-.23 9.322-.273 5.149-.042 9.324.011 9.325.12zm-169.688 5.445c.007-.008.14-.017.388-.026l1.078-.037 3.982-.093-.11.112-.048-2.887c.007-.536-.045-1.041.008-1.661a1.53 1.53 0 011.335-1.227c.642-.013 1.207-.041 1.903-.01.717.088 1.327.778 1.306 1.537l.047 4.21-.184-.182 5.022-.051-.19.194-.057-6.255a799.63 799.63 0 00-.013-1.594c-.002-.49-.301-.82-.706-1.187-.743-.73-1.476-1.453-2.196-2.163l-2.118-2.088-1.027-1.014c-.353-.34-.63-.69-1.039-.775a1.348 1.348 0 00-1.152.22c-.304.257-.629.62-.936.918l-1.801 1.818c-1.134 1.177-2.315 2.253-3.173 3.269-.362.56-.227 1.247-.253 1.874l-.003 1.769c-.008 1.085-.013 2.034-.018 2.85l-.021 1.821c-.007.421-.014.648-.024.658-.01.01-.021-.199-.034-.604-.015-.486-.031-1.078-.051-1.795l-.065-2.873-.033-1.803-.015-.987a2.08 2.08 0 01.277-1.05c.929-1.139 2.038-2.146 3.18-3.357l1.788-1.832c.323-.316.586-.63.97-.96a1.708 1.708 0 011.457-.286c.534.117.881.555 1.206.861l1.031 1.01 2.124 2.082 2.2 2.158c.177.188.39.346.562.609.161.25.255.545.263.846l.014 1.602.048 6.254.001.194-.193.001-5.022.032-.185.002-.001-.183-.021-4.21c.02-.606-.451-1.141-1.015-1.218-.578-.031-1.259-.012-1.822-.005a1.23 1.23 0 00-1.083.974c-.049.505-.012 1.095-.022 1.605l.001 2.887v.112h-.11c-1.661-.013-3.013-.022-4.049-.029l-1.054-.019c-.236-.005-.354-.012-.347-.018zm123.433-4.07c0 .148-15.693.268-35.047.268-19.362 0-35.053-.12-35.053-.268 0-.147 15.691-.268 35.053-.268 19.354 0 35.047.12 35.047.268z" fill="#17282F"/><path d="M257.534 374.266h-73.593c-9.399 0-17.018-7.615-17.018-17.01 0-9.395 7.619-17.012 17.018-17.012h73.593c9.399 0 17.019 7.617 17.019 17.012s-7.62 17.01-17.019 17.01z" fill="#FFCC2A"/><path d="M206.696 359.744l.614-1.363c.66.481 1.642.816 2.581.816 1.072 0 1.508-.357 1.508-.837 0-1.463-4.547-.458-4.547-3.362 0-1.329 1.072-2.435 3.297-2.435.982 0 1.988.235 2.714.693l-.559 1.373c-.726-.412-1.473-.614-2.167-.614-1.073 0-1.487.402-1.487.893 0 1.441 4.548.447 4.548 3.318 0 1.307-1.083 2.423-3.318 2.423-1.24 0-2.491-.368-3.184-.905m11.493.481c-.358.257-.882.38-1.419.38-1.419 0-2.245-.726-2.245-2.156v-2.468h-.928v-1.341h.928v-1.462h1.742v1.462h1.498v1.341h-1.498v2.446c0 .514.28.792.748.792.258 0 .514-.077.705-.223l.469 1.229z" fill="#2C2C2C"/><path fill-rule="evenodd" clip-rule="evenodd" d="M224.487 360.515v-3.429c0-1.82-1.061-2.669-2.893-2.669-.962 0-1.933.258-2.593.726l.626 1.218c.436-.346 1.095-.558 1.731-.558.939 0 1.387.434 1.387 1.182h-1.387c-1.832 0-2.581.739-2.581 1.799 0 1.038.839 1.821 2.247 1.821.882 0 1.508-.291 1.832-.838v.748h1.631zm-1.742-2.513v.614c-.201.548-.705.816-1.286.816-.615 0-.982-.29-.982-.726 0-.403.256-.704 1.072-.704h1.196z" fill="#2C2C2C"/><path d="M229.791 354.417v1.608c-.145-.01-.256-.021-.39-.021-.962 0-1.599.525-1.599 1.674v2.837h-1.742v-6.008h1.664v.792c.424-.58 1.139-.882 2.067-.882zm5.126 5.808c-.357.257-.883.38-1.419.38-1.419 0-2.245-.726-2.245-2.156v-2.468h-.928v-1.341h.928v-1.462h1.742v1.462h1.498v1.341h-1.498v2.446c0 .514.28.792.749.792.257 0 .514-.077.703-.223l.47 1.229z" fill="#2C2C2C"/><path d="M66.965 429.764l-6.257 23.124 20.336 1.856 4.273-22.014-18.352-2.966z" fill="#059DA0"/><path d="M81.635 452.86c-.007.075-1.146.048-2.978-.101-1.833-.147-4.357-.427-7.136-.785l-7.107-.952c-1.817-.254-2.941-.427-2.933-.508.007-.075 1.145-.043 2.977.11 1.833.151 4.356.433 7.135.79l7.108.947c1.816.251 2.94.419 2.934.499z" fill="#17282F"/><path d="M60.708 452.888l.022-.229.566-2.161.057.006-.645 2.384z" fill="#fff"/><path d="M81.044 454.744l-20.336-1.856.645-2.384.13.017c.05.083 1.163.253 2.93.501l7.108.952c2.78.358 5.303.638 7.136.785.383.031.737.058 1.056.078l1.66.21-.329 1.697" fill="#2D6B72"/><path d="M79.713 452.837a59.62 59.62 0 01-1.056-.078c-1.833-.147-4.357-.427-7.136-.784l-7.107-.953c-1.768-.248-2.88-.418-2.931-.501l18.23 2.316" fill="#9BA6A6"/><path d="M70.81 451.859c-.127-.03.739-3.998 1.934-8.859 1.196-4.863 2.27-8.778 2.398-8.746.128.031-.737 3.998-1.934 8.86-1.195 4.861-2.269 8.776-2.397 8.745z" fill="#17282F"/><path d="M80.51 452.71c-.125-.006.648-1.66.046-4.298-.31-1.287-.985-2.785-2.225-4.025-1.22-1.248-3.051-2.118-5.06-2.324-2.014-.193-3.976.293-5.447 1.238-1.49.932-2.514 2.206-3.167 3.362-1.294 2.372-1.168 4.153-1.284 4.124-.016 0-.026-.104-.03-.307a6.32 6.32 0 01.048-.879c.086-.761.342-1.864.968-3.098.638-1.216 1.675-2.571 3.229-3.574 1.539-1.018 3.611-1.546 5.73-1.34 2.116.215 4.05 1.149 5.326 2.49 1.293 1.329 1.962 2.913 2.242 4.26.269 1.362.175 2.498.007 3.246a5.5 5.5 0 01-.25.847c-.072.187-.117.283-.133.278z" fill="#17282F"/><path d="M150.93 423.559l-1.361 20.544s20.457 6.787 20.576 10.608l-39.971.289.806-32.098 19.95.657z" fill="#059DA0"/><path d="M137.599 445.048c-.696 0-1.377-.529-1.515-1.221-.146-.737.338-1.534 1.043-1.785.141-.068.293-.099.451-.099.645 0 1.356.521 1.551 1.132.243.764-.461 1.768-1.244 1.942-.095.02-.191.031-.286.031" fill="#2D6B72"/><path d="M170.347 455h-40.173l39.971-.289c-.018-.572-.49-1.209-1.28-1.879.087.039 1.287.611 1.482 2.168z" fill="#fff"/><path d="M130.174 455l.081-3.235 38.605 1.064.005.003c.79.67 1.262 1.307 1.28 1.879l-39.971.289z" fill="#2D6B72"/><path d="M150.222 443.921c-.012.194-.99.252-1.969.851-.994.572-1.515 1.402-1.692 1.32-.178-.044.147-1.201 1.345-1.904 1.191-.713 2.363-.446 2.316-.267zm4.138 1.859c.039.189-.816.495-1.504 1.301-.711.783-.905 1.671-1.098 1.656-.185.025-.286-1.122.588-2.105.865-.992 2.015-1.039 2.014-.852zm2.228 5.083c-.178.037-.42-.946.113-1.998.525-1.056 1.458-1.45 1.536-1.285.105.163-.505.718-.929 1.589-.445.861-.526 1.682-.72 1.694zm-6.575-11.659c-.088.175-.974-.121-2.079-.079-1.106.019-1.975.363-2.072.193-.108-.145.751-.842 2.053-.872 1.302-.04 2.199.607 2.098.758zm.198-4.15c0 .08-.775.178-2-.071a9.08 9.08 0 01-3.204-1.351c-.181-.123-.396-.248-.59-.487-.211-.211-.318-.731-.058-1.04.214-.301.58-.422.867-.421.296 0 .532.067.748.127.442.121.855.281 1.23.465a7.005 7.005 0 011.809 1.265c.901.886 1.195 1.623 1.127 1.66-.09.061-.522-.562-1.444-1.299a8.038 8.038 0 00-1.754-1.06 7.452 7.452 0 00-1.138-.387c-.42-.126-.78-.139-.894.045-.041.072-.048.1.037.226.088.117.256.234.433.357a10.768 10.768 0 002.951 1.435c1.135.354 1.887.43 1.88.536z" fill="#17282F"/><path d="M149.948 435.326c-.07.027-.436-.683-.468-1.948a6.483 6.483 0 01.885-3.379c.245-.387.547-.907 1.306-.972.396-.002.716.316.82.583.124.274.142.507.182.74a4.614 4.614 0 01-.955 3.387c-.813 1.01-1.634 1.218-1.648 1.152-.063-.1.629-.456 1.256-1.432.31-.481.59-1.119.69-1.859a4.085 4.085 0 00-.002-1.158c-.049-.426-.199-.772-.358-.734-.199-.009-.546.301-.72.634a6.667 6.667 0 00-.529 1.069 7.276 7.276 0 00-.448 1.984c-.09 1.169.096 1.906-.011 1.933z" fill="#17282F"/><path d="M150.931 245.077l-60.902-.458-29.43 193.2 25.276 3.205 32.393-158.856 9.695 159.422.026.473 27.334-.476-4.392-196.51z" fill="#2D415E"/><path d="M123.23 260.734c-.018-.019.42-.047 1.26-.083l3.662-.134 13.163-.372.25-.007.001.253.031 12.618v.122l-.09.082-2.292 2.107-6.759 6.191-.179.164-.18-.161-9.01-8.026-.074-.067.001-.095.115-9.259.054-2.494c.017-.566.032-.856.047-.839.016.015.031.333.048.923l.055 2.542.114 9.127-.072-.162 9.077 7.948-.358.004 6.743-6.205 2.294-2.106-.089.204.031-12.618.251.246-13.01.122-3.72.005-1-.009c-.231-.005-.354-.012-.364-.021zm-28.662-.837c-.016-.021.374.001 1.123.056.824.068 1.919.158 3.278.268 2.934.267 6.998.634 11.843 1.073l.246.022-.03.248-1.497 12.529-.013.112-.089.07c-.839.671-1.726 1.379-2.626 2.096l-6.477 5.153-.212.167-.167-.211-7.08-8.946-.06-.074.013-.091 1.238-9.167.36-2.476c.085-.561.136-.847.15-.829.014.017-.01.338-.064.927l-.255 2.538-.992 9.061-.046-.165 7.157 8.887-.378-.042 6.465-5.167 2.628-2.093-.102.182 1.567-12.519.215.269-11.666-1.301-3.318-.399c-.774-.097-1.195-.159-1.21-.178zm37.261 29.324c-.04.068-1.084-.465-2.761-1.341a394.312 394.312 0 00-6.572-3.372 379.026 379.026 0 00-6.65-3.22c-1.709-.812-2.763-1.325-2.732-1.399.029-.068 1.138.317 2.892 1.039a106.37 106.37 0 016.738 3.081 106.991 106.991 0 016.515 3.526c1.632.967 2.607 1.622 2.57 1.686z" fill="#33535F"/><path d="M131.045 293.912c-.023.06-.846-.165-2.077-.782-1.229-.612-2.84-1.664-4.344-3.141-1.501-1.481-2.577-3.075-3.208-4.294-.636-1.22-.874-2.041-.813-2.064.161-.088 1.454 3.085 4.412 5.961 2.921 2.911 6.115 4.158 6.03 4.32zm17.192 55.826c.032.01-.048.374-.275 1.008-.226.636-.631 1.53-1.27 2.556-1.254 2.046-3.66 4.606-7.108 6.064-3.452 1.452-6.965 1.388-9.306.859-1.182-.257-2.106-.593-2.718-.873-.614-.281-.93-.477-.915-.506.04-.102 1.374.584 3.708.993 2.304.419 5.691.412 9.014-.986 3.319-1.404 5.687-3.824 6.995-5.767 1.336-1.954 1.776-3.39 1.875-3.348zm-4.003-1.648c.027.058-.825.545-2.327 1.027-1.498.491-3.656.915-6.058 1-2.403.102-4.573-.124-6.121-.359-1.55-.248-2.486-.503-2.474-.571.027-.192 3.843.548 8.572.373 2.361-.084 4.475-.437 5.973-.821 1.499-.378 2.399-.731 2.435-.649zm-45.281 1.15c.042.046-.704.852-2.118 1.918-1.41 1.068-3.53 2.343-6.07 3.292-2.543.943-4.981 1.363-6.746 1.478-1.768.119-2.86-.004-2.857-.066 0-.092 1.088-.11 2.818-.326a29.8 29.8 0 006.591-1.608 29.795 29.795 0 006.036-3.092c1.45-.968 2.285-1.665 2.346-1.596zm-5.339-.234c.034.135-2.464.716-5.585.458-3.123-.239-5.497-1.208-5.442-1.336.05-.162 2.444.55 5.487.781 3.04.253 5.517-.07 5.54.097zm24.292-65.505c.027.062-.995.593-2.739 1.239-1.741.649-4.22 1.372-7.026 1.825-2.808.445-5.39.532-7.246.46-1.858-.07-2.995-.257-2.989-.323.007-.086 1.151-.04 2.992-.072a51.379 51.379 0 007.155-.616c2.769-.446 5.23-1.1 6.988-1.646 1.759-.546 2.831-.947 2.865-.867zm-1.662-6.236c.154-.001.285.475.293 1.065.008.59-.11 1.071-.265 1.074-.153.003-.284-.474-.292-1.065-.008-.593.11-1.073.264-1.074zm.005-4.281c.154.002.276.481.273 1.071-.004.591-.132 1.07-.286 1.07-.154 0-.276-.48-.273-1.072.005-.593.132-1.071.286-1.069zm.088-4.279c.154.005.266.487.252 1.077-.016.59-.153 1.065-.306 1.062-.155-.003-.267-.484-.252-1.076.015-.592.152-1.068.306-1.063zm.171-4.276c.154.007.257.491.231 1.081-.027.59-.173 1.062-.328 1.056-.153-.005-.256-.489-.229-1.081.027-.592.173-1.064.326-1.056zm.254-4.272c.154.009.247.496.21 1.085-.038.589-.194 1.059-.347 1.05-.154-.009-.248-.495-.21-1.086.038-.59.193-1.06.347-1.049zm.336-4.267c.154.014.238.501.189 1.089-.049.588-.213 1.055-.367 1.043-.153-.011-.238-.499-.188-1.089.049-.59.213-1.057.366-1.043zm.338-3.495c.154.017.247.335.209.711-.038.375-.193.668-.347.653-.153-.014-.247-.333-.208-.71.038-.377.194-.67.346-.654zM83.007 436.787c.151.029.18.524.063 1.103-.116.58-.332 1.025-.483.996-.15-.031-.179-.526-.064-1.105.117-.579.333-1.025.484-.994zm.84-4.197c.151.031.18.524.063 1.104-.115.579-.332 1.025-.483.994-.151-.03-.18-.523-.063-1.104.116-.578.332-1.024.483-.994zm.84-4.196c.15.029.18.524.063 1.104-.116.579-.332 1.025-.483.994-.151-.03-.18-.524-.064-1.104.116-.578.333-1.024.484-.994zm.84-4.197c.15.03.179.525.063 1.103-.116.581-.332 1.026-.483.996-.15-.03-.18-.525-.063-1.104.115-.58.332-1.025.483-.995zm.84-4.196c.15.03.179.525.063 1.104-.116.579-.332 1.024-.483.994-.151-.03-.18-.524-.063-1.103.115-.58.332-1.025.483-.995zm.839-4.196c.151.03.18.523.064 1.104-.116.578-.333 1.024-.484.994-.15-.031-.18-.525-.063-1.103.116-.58.332-1.026.483-.995zm.84-4.197c.151.03.18.524.063 1.104-.116.579-.332 1.025-.483.995-.15-.031-.179-.525-.063-1.105.116-.579.332-1.025.483-.994zm.84-4.197c.151.031.18.525.064 1.105-.116.578-.333 1.024-.484.993-.15-.029-.178-.522-.063-1.103.116-.579.332-1.024.483-.995zm.84-4.196c.151.031.18.524.063 1.104-.115.58-.332 1.025-.483.994-.15-.03-.179-.524-.064-1.103.117-.579.333-1.024.484-.995zm.84-4.196c.15.029.18.525.063 1.103-.116.581-.332 1.025-.483.994-.15-.029-.18-.524-.063-1.103.116-.58.332-1.024.483-.994zm.84-4.197c.15.031.179.525.063 1.104-.116.58-.332 1.024-.483.995-.15-.03-.18-.524-.063-1.104.115-.58.332-1.024.483-.995zm.84-4.195c.15.03.179.524.063 1.102-.116.58-.332 1.025-.483.996-.151-.03-.18-.525-.064-1.104.116-.58.333-1.025.484-.994zm.84-4.197c.15.03.179.524.063 1.103-.116.58-.332 1.025-.483.995-.151-.031-.18-.524-.063-1.105.115-.579.332-1.024.483-.993zm.84-4.197c.15.031.18.524.063 1.105-.116.578-.332 1.024-.483.993-.151-.03-.18-.524-.064-1.104.116-.578.333-1.024.484-.994zm.839-4.197c.151.031.18.525.063 1.104-.115.58-.332 1.026-.483.995-.15-.03-.179-.524-.063-1.104.116-.579.332-1.025.483-.995zm.84-4.196c.152.03.18.525.064 1.104-.116.58-.333 1.024-.484.994-.15-.03-.179-.524-.063-1.103.116-.58.332-1.025.483-.995zm.84-4.196c.151.03.18.524.064 1.104-.116.579-.333 1.024-.484.994-.15-.029-.18-.525-.063-1.104.116-.579.332-1.024.483-.994zm.84-4.196c.151.03.18.524.063 1.103-.116.58-.332 1.025-.483.995-.15-.03-.179-.524-.063-1.103.116-.581.332-1.026.483-.995zm.84-4.196c.15.029.18.524.064 1.103-.117.579-.333 1.024-.484.994-.15-.031-.18-.524-.063-1.104.116-.579.332-1.024.483-.993zm.84-4.197c.15.03.179.524.063 1.104-.116.579-.332 1.025-.483.994-.15-.03-.18-.524-.064-1.104.116-.579.333-1.024.484-.994zm.84-4.197c.15.03.18.525.063 1.104-.116.58-.333 1.025-.483.994-.15-.029-.18-.523-.064-1.103.117-.579.333-1.025.484-.995zm.84-4.196c.15.03.179.525.063 1.103-.117.58-.333 1.025-.483.995-.151-.03-.18-.524-.064-1.104.116-.579.333-1.024.484-.994zm.839-4.196c.151.03.18.524.064 1.103-.116.58-.333 1.025-.484.995-.151-.03-.178-.525-.063-1.104.116-.579.332-1.024.483-.994zm.84-4.197c.151.03.18.525.063 1.104-.115.58-.332 1.025-.483.995-.151-.031-.179-.525-.063-1.104.116-.58.332-1.026.483-.995zm.84-4.196c.151.03.179.524.064 1.104-.117.578-.333 1.024-.484.994-.151-.031-.179-.524-.063-1.105.116-.578.332-1.024.483-.993zm.84-4.197c.151.031.179.524.064 1.105-.116.578-.333 1.024-.484.994-.15-.031-.179-.525-.063-1.104.116-.58.333-1.025.483-.995zm.84-4.197c.151.031.179.525.063 1.105-.116.579-.332 1.025-.483.993-.151-.03-.18-.523-.063-1.103.116-.579.332-1.025.483-.995zm.84-4.196c.15.03.179.525.063 1.104-.116.579-.332 1.024-.483.994-.151-.03-.179-.524-.063-1.103.115-.58.332-1.024.483-.995zm.839-4.196c.152.03.18.524.064 1.103-.116.581-.333 1.025-.483.995-.151-.029-.18-.525-.064-1.103.117-.581.333-1.024.483-.995zm.841-4.196c.15.029.179.525.063 1.103-.117.581-.333 1.024-.483.995-.151-.03-.18-.524-.064-1.104.116-.58.332-1.025.484-.994zm.839-4.196c.151.03.179.524.064 1.103-.116.579-.333 1.025-.484.995-.15-.031-.178-.524-.063-1.105.116-.578.333-1.024.483-.993zm.841-4.198c.15.032.179.525.062 1.105-.115.579-.332 1.025-.483.995-.151-.031-.179-.525-.063-1.105.116-.579.332-1.025.484-.995zm.839-4.196c.151.031.179.525.064 1.104-.117.579-.333 1.025-.484.994-.151-.03-.179-.523-.063-1.104.116-.578.333-1.024.483-.994zm.84-4.196c.151.03.179.524.063 1.103-.115.58-.332 1.026-.483.995-.15-.03-.179-.524-.063-1.104.116-.579.332-1.024.483-.994zm.84-4.197c.151.03.179.525.063 1.104-.116.58-.332 1.025-.483.995-.151-.03-.18-.525-.063-1.103.115-.581.332-1.026.483-.996zm.84-4.196c.15.03.179.525.063 1.104-.116.58-.332 1.024-.483.994-.151-.03-.179-.524-.063-1.103.115-.58.332-1.025.483-.995zm.839-4.196c.152.03.181.523.064 1.104-.116.578-.332 1.024-.483.994-.151-.031-.18-.525-.064-1.104.117-.579.333-1.025.483-.994z" fill="#33535F"/><path d="M197.194 156.303s7.126-10.678 7.315-10.772c0 0 6.433-10.827 8.572-10.829 2.151-.002 1.367 2.193-.842 6.072-1.936 3.401-2.132 5.524-2.132 5.524l5.283 3.189s3.53-1.365 3.676 1.923c.049 1.099-.241 2.46-.608 4.465-.214 1.17-.744 2.419-1.849 1.978-.507-.203-.921-.592-.947-1.322-.068-1.945.297-2.659.047-2.66-.317-.001-3.802 10.205-3.802 10.205l-14.713-7.773" fill="#F8A58D"/><path d="M211.583 147.919c.543-.372 1.091-.747 1.695-1.009.603-.262 1.275-.407 1.924-.299.407.069.811.247 1.072.569.355.443.379 1.083.203 1.622-.178.54-.526 1.003-.868 1.455" fill="#F8A58D"/><path d="M209.173 145.766c.515-.351 1.034-.705 1.605-.952.573-.248 1.208-.384 1.823-.283.386.064.769.232 1.016.537.335.416.358 1.019.191 1.527-.168.508-1.318 1.687-1.642 2.112m-12.489 1.568l-10.297 22.013 11.351 11.595 5.916-16.405s3.17.631 4.464-1.47c1.442-2.346 3.337-9.126 3.337-9.126l-14.771-6.607z" fill="#F8A58D"/><path d="M207.035 149.667c-.112-.033.146-1.508 1.218-3.044a5.442 5.442 0 011.765-1.561c.529-.288.888-.384.922-.321.098.164-1.234.823-2.238 2.213-.986 1.401-1.495 2.787-1.667 2.713zm11.423.093c-.047.073-.398-.119-.997-.222-.589-.107-1.461-.091-2.249.343-.787.437-1.3 1.155-1.673 1.658-.368.514-.611.84-.681.801-.064-.036.052-.421.345-1.006.298-.567.794-1.408 1.74-1.941a3.318 3.318 0 012.616-.237c.651.225.94.552.899.604zm-3.833-3.105c.03.167-1.272.387-2.419 1.422-1.153 1.017-1.717 2.212-1.875 2.134-.125-.032.225-1.407 1.508-2.553.637-.56 1.36-.878 1.896-.994.539-.118.881-.078.89-.009zm2.53 4.755c.146-.057.416.798-.125 1.65-.534.859-1.421.987-1.433.832-.047-.15.555-.457.96-1.127.428-.656.442-1.332.598-1.355z" fill="#F68260"/><path d="M197.219 155.875s-.359-6.569 1.229-8.057c1.587-1.487 6.139.058 6.139.058" fill="#F8A58D"/><path d="M205.232 144.745c.121.095-.934 1.771-2.356 3.742-1.421 1.973-2.679 3.503-2.808 3.418-.128-.083.926-1.759 2.356-3.743 1.43-1.983 2.687-3.513 2.808-3.417z" fill="#F68260"/><path d="M114.067 94.942l-.157 51.26 22.003 1.049.636-12.467s7.815 1.55 9.831-5.704c1.288-4.634.967-40.447.967-40.447l-33.28 6.309z" fill="#F8A58D"/><path d="M150.242 92.243c-3.466.992-4.219 6.653-4.219 6.653l-5.436 11.999c-2.769-2.166-6.487-2.042-7.191 2.822-.509 3.514 3.864 4.226 3.864 4.226-2.546 4.328-4.272 7.831-7.978 11.948-4.01 4.457-6.258 4.905-10.607 4.978h-4.797s-2.347-7.617-6.695-26.668c-4.824-21.134 20.18-18.412 24.815-23.807 7.549-8.786 29.168 4.723 18.244 7.849z" fill="#17282F"/><path d="M107.64 110.194c-4.053-2.72-4.419-10.335-2.054-14.9 2.365-4.566 7.341-7.66 12.484-7.759.688-.014 1.397.019 2.039-.23.951-.366 1.567-1.267 2.189-2.076 3.621-4.707 7.182-9.332 13.933-9.332 1.097 0 2.31 0 4.245 1.054.963.524 2.321 2.3 2.549 3.372 1.269-.601 2.56-1.21 3.949-1.42 1.388-.21 2.912.032 3.961.966 1.049.933 1.437 2.65.623 3.793 2.275-.144 4.431 1.739 4.79 3.99.358 2.25-2.868 3.832-3.204 4.007 0 0 1.771 3.706-2.452 5.927-1.701.896-3.912-.183-4.162-.313" fill="#17282F"/><path d="M123.704 115.123c.142-.014.361 1.764-.127 3.892-.472 2.131-1.432 3.646-1.554 3.57-.147-.073.558-1.644 1.012-3.692.468-2.044.504-3.766.669-3.77zm2.66-2.515c.149.007.182 1.702-.203 3.747-.379 2.047-1.021 3.617-1.162 3.569-.152-.048.243-1.663.614-3.67.378-2.007.593-3.656.751-3.646zm7.622-8.46c.052.074-.571.527-1.362 1.454-.798.916-1.706 2.351-2.371 4.09-.666 1.741-1.032 3.408-1.315 4.611-.276 1.205-.466 1.952-.544 1.938-.074-.013-.021-.78.157-2.012.185-1.227.494-2.938 1.182-4.738.687-1.799 1.695-3.273 2.602-4.156.901-.896 1.619-1.241 1.651-1.187zm3.081-5.76c.064-.017.29.496.427 1.388.139.886.143 2.156-.191 3.499-.34 1.342-.942 2.46-1.484 3.176-.542.722-.983 1.068-1.031 1.023-.138-.106 1.351-1.761 1.974-4.334.666-2.562.134-4.724.305-4.752zm-26.26 12.803c-.075.134-.749-.099-1.504-.521-.757-.422-1.309-.874-1.234-1.008.076-.135.749.099 1.505.521.756.422 1.308.874 1.233 1.008zm10.63-5.473c.146.021.055 1.107-.628 2.229-.677 1.128-1.596 1.713-1.683 1.595-.104-.124.587-.846 1.206-1.883.629-1.028.948-1.976 1.105-1.941z" fill="#33535F"/><path d="M245.907 86.928c-2.893-1.928-6.864-.761-9.756 1.168-2.892 1.93-5.364 4.574-8.604 5.832-6.087 2.367-14.064-.437-18.795 4.066-3.001 2.856-3.308 7.545-5.601 10.997-3.863 5.813-13.135 7.997-13.929 14.932-.464 4.044 2.736 7.923 6.646 9.057 3.911 1.135 8.212-.062 11.603-2.316 3.96-2.632 7.072-6.692 11.584-8.19 4.612-1.531 10.304-.248 13.944-3.468 3.645-3.227 3.093-9.143 5.703-13.254 1.388-2.189 3.577-3.714 5.54-5.409 1.962-1.693 3.829-3.79 4.157-6.36.329-2.57-.725-6.956-2.492-7.055z" fill="#F3F2F1"/><path d="M170.776 370.196c.164-.1.704.439 1.208 1.204.503.766.784 1.475.627 1.586-.156.11-.697-.428-1.207-1.204-.51-.775-.792-1.486-.628-1.586zm-5.714-12.026c.181-.063.892 1.26 1.586 2.953.695 1.693 1.119 3.133.946 3.219-.172.082-.883-1.239-1.587-2.955s-1.127-3.156-.945-3.217zm-3.091-12.964c.189-.023.615 1.417.949 3.217.334 1.801.454 3.297.267 3.344-.187.045-.611-1.395-.949-3.217-.339-1.823-.459-3.319-.267-3.344zm-.469-13.318c.192.015.326 1.51.301 3.34-.025 1.832-.203 3.323-.395 3.331-.19.009-.325-1.487-.3-3.34.026-1.853.203-3.344.394-3.331zm2.156-13.152c.184.052.021 1.546-.364 3.336-.387 1.79-.854 3.218-1.044 3.187-.19-.028-.027-1.521.365-3.335.391-1.812.857-3.238 1.043-3.188zm4.794-12.425c.169.089-.299 1.516-1.047 3.185-.749 1.671-1.502 2.97-1.682 2.903-.179-.068.289-1.493 1.049-3.187.757-1.692 1.511-2.99 1.68-2.901zm7.347-11.112c.148.123-.616 1.413-1.709 2.884-1.09 1.473-2.116 2.572-2.256 2.481-.18-.12.596-1.402 1.697-2.892 1.104-1.486 2.12-2.594 2.268-2.473zm8.964-9.876c.136.135-.781 1.323-2.049 2.653-1.268 1.331-2.41 2.306-2.552 2.176-.142-.129.776-1.316 2.049-2.653 1.272-1.337 2.416-2.312 2.552-2.176zm9.386-9.481c.139.132-.798 1.304-2.093 2.618-1.295 1.314-2.453 2.268-2.589 2.132-.135-.134.801-1.308 2.093-2.62 1.292-1.309 2.452-2.264 2.589-2.13zm8.764-10.055c.154.115-.673 1.368-1.846 2.799-1.175 1.432-2.242 2.488-2.384 2.36-.144-.128.682-1.382 1.845-2.799 1.164-1.417 2.232-2.475 2.385-2.36zm6.806-11.444c.174.071-.264 1.524-1.12 3.173-.854 1.652-1.776 2.852-1.936 2.754-.167-.103.48-1.447 1.318-3.072.843-1.623 1.559-2.931 1.738-2.855zm3.245-12.885c.188.012.235 1.53-.072 3.366-.303 1.838-.84 3.258-1.021 3.208-.19-.049.04-1.521.336-3.321.301-1.801.562-3.268.757-3.253zm-.989-13.252c.182-.048.704 1.378.988 3.218.286 1.84.224 3.358.036 3.368-.195.012-.442-1.457-.723-3.261-.277-1.804-.491-3.279-.301-3.325zm-5.239-12.198c.154-.106 1.135 1.055 2.012 2.698.882 1.64 1.311 3.096 1.138 3.166-.182.075-.886-1.234-1.75-2.838-.858-1.607-1.562-2.916-1.4-3.026zm-9.304-9.462c.103-.158 1.451.552 2.88 1.749 1.435 1.195 2.368 2.397 2.232 2.525-.141.136-1.276-.826-2.677-1.993-1.396-1.169-2.543-2.119-2.435-2.281zm-12.12-5.412c.04-.184 1.551 0 3.315.605 1.765.601 3.072 1.38 2.992 1.549-.083.178-1.491-.305-3.217-.892-1.724-.593-3.134-1.072-3.09-1.262zm-13.248-.603c-.033-.184 1.435-.599 3.299-.693 1.865-.099 3.368.154 3.355.341-.012.196-1.499.255-3.318.352-1.818.092-3.302.193-3.336 0zm-12.3 4.901c-.109-.15 1.036-1.16 2.683-2.042 1.647-.89 3.123-1.282 3.188-1.106.069.183-1.257.852-2.859 1.716-1.604.859-2.898 1.594-3.012 1.432zm-9.154 9.587c-.162-.096.488-1.475 1.636-2.948 1.142-1.476 2.318-2.447 2.45-2.315.14.138-.786 1.3-1.902 2.742-1.12 1.436-2.016 2.622-2.184 2.521zm-4.492 12.457c-.187-.017-.186-1.546.258-3.364.439-1.817 1.131-3.178 1.304-3.11.184.07-.202 1.506-.628 3.274-.433 1.767-.74 3.22-.934 3.2zm1.582 13.128c-.173.068-.863-1.293-1.304-3.109-.445-1.816-.453-3.343-.268-3.361.195-.023.509 1.429.944 3.196.428 1.768.812 3.205.628 3.274zm6.762 11.424c-.143.124-1.247-.916-2.334-2.426-1.089-1.511-1.716-2.895-1.552-2.99.168-.097 1.048 1.103 2.116 2.583 1.066 1.483 1.918 2.707 1.77 2.833zm9.817 8.991c-.108.155-1.428-.585-2.871-1.752-1.447-1.165-2.445-2.303-2.316-2.441.132-.143 1.325.752 2.752 1.9 1.423 1.152 2.547 2.133 2.435 2.293zm11.559 6.627c-.076.176-1.478-.363-3.131-1.203-1.652-.84-2.912-1.656-2.816-1.821.097-.166 1.499.372 3.131 1.202 1.632.83 2.893 1.646 2.816 1.822zm12.688 4.038c-.034.186-1.543.07-3.34-.394-1.8-.46-3.18-1.082-3.12-1.262.061-.184 1.518.135 3.292.59 1.77.457 3.202.874 3.168 1.066zm13.28.684c.021.188-1.463.506-3.323.54-1.859.038-3.353-.22-3.34-.406.012-.196 1.501-.252 3.328-.288 1.824-.032 3.313-.039 3.335.154zm12.833-3.43c.081.169-1.219.954-2.972 1.582-1.751.632-3.255.852-3.3.67-.048-.188 1.349-.703 3.065-1.323 1.718-.616 3.124-1.107 3.207-.929zm11.124-7.284c.125.14-.885 1.269-2.361 2.4-1.474 1.133-2.828 1.817-2.93 1.657-.105-.163 1.059-1.093 2.507-2.209 1.451-1.111 2.652-1.992 2.784-1.848zm8.68-10.088c.158.101-.522 1.456-1.639 2.941-1.115 1.487-2.227 2.517-2.367 2.393-.148-.129.715-1.346 1.811-2.81 1.1-1.462 2.029-2.628 2.195-2.524zm5.773-11.991c.18.056-.125 1.541-.824 3.264-.693 1.724-1.503 3.005-1.671 2.921-.174-.086.344-1.485 1.028-3.181.687-1.695 1.282-3.063 1.467-3.004zm2.582-13.061c.189.012.238 1.524-.015 3.362-.248 1.839-.705 3.283-.891 3.244-.189-.04-.042-1.524.204-3.338.248-1.812.508-3.283.702-3.268zm-.344-13.32c.19-.027.461 1.45.604 3.298.144 1.848.104 3.35-.088 3.352-.192.004-.463-1.473-.604-3.298-.142-1.826-.102-3.327.088-3.352zm-2.895-13.015c.183-.06.723 1.343 1.208 3.131.483 1.79.724 3.272.536 3.313-.188.04-.728-1.361-1.207-3.132-.48-1.769-.718-3.252-.537-3.312zm-5.105-12.321c.168-.086.974 1.186 1.776 2.853.749 1.695 1.212 3.127 1.033 3.2-.177.072-.923-1.229-1.661-2.907-.796-1.652-1.32-3.056-1.148-3.146zm-6.561-11.615c.166-.099 1.055 1.112 1.988 2.701.934 1.592 1.555 2.958 1.388 3.052-.166.096-1.056-1.113-1.988-2.701-.93-1.588-1.552-2.955-1.388-3.052zm-6.618-11.583c.169-.089 1.031 1.143 1.919 2.751.89 1.608 1.476 2.989 1.31 3.085-.165.098-1.024-1.134-1.918-2.752-.894-1.614-1.482-2.997-1.311-3.084zm-5.208-12.261c.184-.055.851 1.289 1.488 3.001.639 1.714 1.013 3.166.837 3.243-.174.077-.841-1.265-1.488-3.001-.646-1.736-1.02-3.188-.837-3.243zm-2.27-13.112c.195-.007.398 1.471.592 3.289.192 1.818.306 3.306.115 3.34-.185.035-.611-1.42-.805-3.266-.198-1.847-.09-3.358.098-3.363zm1.102-13.267c.191.042.023 1.524-.24 3.335-.267 1.809-.529 3.279-.724 3.264-.188-.013-.233-1.527.037-3.365.267-1.838.743-3.276.927-3.234zm4.347-12.581c.173.088-.36 1.48-1.063 3.167-.707 1.688-1.323 3.045-1.508 2.984-.179-.06.149-1.538.867-3.251.714-1.715 1.536-2.987 1.704-2.9zm7.433-11.04c.145.131-.735 1.335-1.854 2.781-1.121 1.444-2.066 2.598-2.229 2.491-.159-.104.54-1.448 1.68-2.916 1.136-1.469 2.263-2.483 2.403-2.356zm10.008-8.775c.107.163-1.045 1.11-2.492 2.23-1.449 1.116-2.66 1.989-2.789 1.844-.127-.14.893-1.262 2.365-2.394 1.469-1.136 2.812-1.837 2.916-1.68zm11.868-6.034c.064.184-1.287.817-2.964 1.545-1.68.725-3.068 1.272-3.157 1.1-.088-.167 1.176-1.001 2.881-1.737 1.704-.74 3.179-1.087 3.24-.908zm9.669-2.446c.028.19-.677.479-1.576.644-.899.166-1.661.148-1.704-.04-.041-.186.665-.474 1.577-.642.914-.17 1.676-.151 1.703.038z" fill="#17282F"/><path d="M285.435 45.884s15.66-11.17 37.332-3.956c0 0 1.781 17.942-15.6 32.21" fill="#FFCC2A"/><path d="M236.065 79.035c.667 1 17.66 28.324 17.66 28.324l51.034-31.44c8.909-5.49 11.213-17.428 4.984-25.837-5.682-7.67-16.387-9.516-24.308-4.198l-49.37 33.15z" fill="#FFCC2A"/><path d="M253.725 107.359l-1.142 19.223s33.072-16.015 24.817-33.808l-23.675 14.585zm5.979-44.196s-22.421-9.893-40.886 4.616l17.248 11.256 23.638-15.872zm-.157 15.887l-31.915 19.962s1.095 3.434 1.955 3.147c.718-.24 24.698-14.4 32.474-18.997a2.402 2.402 0 00.628-3.596 2.41 2.41 0 00-3.142-.516z" fill="#17282F"/><path d="M299.159 63.92c0 5.643-4.575 10.219-10.217 10.219-5.644 0-10.219-4.576-10.219-10.219 0-5.642 4.575-10.217 10.219-10.217 5.642 0 10.217 4.575 10.217 10.217z" fill="#FAFAF9"/><path d="M299.159 63.92c-.08.006-.037-.91-.451-2.461a10.18 10.18 0 00-3.734-5.465c-1.136-.838-2.56-1.547-4.2-1.827-1.628-.27-3.463-.212-5.204.457a9.802 9.802 0 00-4.583 3.458c-1.213 1.618-1.896 3.696-1.917 5.837.021 2.141.702 4.22 1.917 5.839a9.797 9.797 0 004.583 3.458c1.741.67 3.576.727 5.205.458 1.639-.28 3.064-.991 4.2-1.827a10.192 10.192 0 003.733-5.465c.414-1.551.371-2.467.451-2.462.023 0 .036.224.036.656.009.43-.044 1.07-.225 1.87-.339 1.582-1.332 3.938-3.698 5.79-1.17.906-2.661 1.68-4.392 2.004-1.718.31-3.665.272-5.529-.424a10.378 10.378 0 01-4.912-3.656c-1.305-1.724-2.045-3.95-2.063-6.241.019-2.29.759-4.516 2.063-6.24a10.383 10.383 0 014.912-3.656c1.864-.695 3.811-.735 5.529-.423 1.731.323 3.22 1.099 4.392 2.003 2.364 1.852 3.359 4.208 3.698 5.79.181.8.234 1.442.225 1.871 0 .432-.013.656-.036.656zm12.44 6.81c-.132.013-.286-1.983-1.068-5.09-.38-1.554-.979-3.366-1.778-5.321a41.927 41.927 0 00-3.193-6.073 42.153 42.153 0 00-4.221-5.411c-1.454-1.532-2.859-2.823-4.12-3.81-2.508-1.99-4.266-2.953-4.199-3.067.024-.043.475.173 1.272.6.404.209.887.48 1.421.84.536.356 1.17.733 1.804 1.238 1.318.95 2.78 2.224 4.286 3.759a39.175 39.175 0 014.341 5.473 38.922 38.922 0 013.201 6.208c.779 2.003 1.339 3.86 1.663 5.452.2.787.283 1.519.384 2.155.109.633.159 1.187.183 1.639.061.905.072 1.404.024 1.408z" fill="#17282F"/><path d="M308.846 72.2c-.132.015-.292-2.017-1.088-5.176-.387-1.582-.995-3.426-1.804-5.417a43.343 43.343 0 00-3.234-6.185 43.385 43.385 0 00-4.274-5.522c-1.472-1.566-2.894-2.888-4.17-3.898-2.541-2.042-4.318-3.035-4.25-3.15.024-.041.478.182 1.288.624.408.215.897.496 1.437.866.543.365 1.184.753 1.825 1.272 1.334.976 2.814 2.28 4.336 3.848a40.017 40.017 0 014.392 5.584 40.06 40.06 0 013.243 6.32c.789 2.038 1.357 3.928 1.688 5.546.204.8.289 1.544.395 2.19.11.645.161 1.208.186 1.668.066.918.078 1.426.03 1.43z" fill="#17282F"/><path d="M124.706 103.963c.142.032-.088 1.333-.979 2.665-.882 1.338-1.992 2.056-2.077 1.937-.104-.125.786-.988 1.612-2.245.838-1.248 1.289-2.404 1.444-2.357zm16.246-21.468c-.038.044-.412-.314-1.205-.765-.794-.435-2.062-.912-3.687-.952a9.88 9.88 0 00-5.408 1.452c-1.824 1.118-3.436 2.94-4.608 5.13-.853 1.59-1.443 3.249-1.869 4.805l-.088.323-.296-.155a10.977 10.977 0 00-4.909-1.255 11.597 11.597 0 00-3.996.603c-2.174.742-3.206 1.72-3.263 1.631-.016-.02.228-.264.737-.652.511-.38 1.314-.873 2.413-1.295a11.425 11.425 0 014.114-.744 11.186 11.186 0 015.155 1.24l-.383.168c.419-1.593 1.015-3.293 1.895-4.934 1.208-2.258 2.897-4.152 4.831-5.303 1.938-1.156 4.013-1.511 5.692-1.407 1.695.093 2.996.651 3.78 1.159.386.27.677.489.846.671.177.17.262.266.249.28z" fill="#33535F"/><path d="M152.523 85.285c-.039-.01.613-.165 1.263.571.297.355.57.915.506 1.606-.067.69-.543 1.4-1.279 1.826-.724.444-1.715.591-2.672.368-.964-.21-1.891-.72-2.759-1.337-.874-.611-1.714-1.322-2.697-1.846a11.207 11.207 0 00-3.25-1.144c-2.342-.435-4.669-.173-6.634.455-1.976.633-3.617 1.584-4.903 2.491-2.569 1.846-3.837 3.391-3.915 3.31-.026-.02.268-.42.87-1.082a21.182 21.182 0 012.812-2.546c1.281-.964 2.943-1.978 4.977-2.661 2.027-.677 4.445-.97 6.896-.514a11.55 11.55 0 013.41 1.211c1.04.567 1.89 1.304 2.732 1.907.836.612 1.693 1.096 2.564 1.305.866.219 1.718.109 2.373-.259.658-.352 1.083-.953 1.165-1.522a1.997 1.997 0 00-.366-1.433c-.524-.7-1.122-.644-1.093-.706z" fill="#33535F"/><path d="M90.643 151.572l-19.65 32.985c-2.199 3.846-4.235 7.95-6.177 12.202-1.566 4.073-.66 9.39 2.074 12.771l-.555-.799a11.482 11.482 0 008.926 4.259h.509a11.48 11.48 0 0010.525-6.895l6.313-9.575-1.965-44.948z" fill="#FFCC2A"/><path d="M149.936 145.27c-5.276-2.694-10.484-3.303-16.167-3.469-6.617-.192-15.946-1.117-23.077-.359 0 0-20.318 1.503-21.728 15.421l2.774 65.367-4.653 27.696 65.114 1.966-.466-32.675c.804-17-.913-41.073-.913-41.073 1.002-9.139 6.006-13.254 6.716-19.197.628-5.253-2.886-11.272-7.6-13.677z" fill="#FFCC2A"/><path d="M131.583 223.17c.022.024-.306.362-.958.906-.651.546-1.648 1.275-2.968 2.034-2.617 1.527-6.693 3.058-11.383 3.14-4.691.083-8.819-1.303-11.488-2.735-1.346-.715-2.368-1.405-3.038-1.928-.671-.521-1.01-.846-.99-.873.065-.09 1.507 1.131 4.206 2.449 2.674 1.321 6.722 2.611 11.3 2.53 4.578-.081 8.578-1.513 11.202-2.928 2.651-1.412 4.05-2.682 4.117-2.595zm-42.719-65.56c.02-.001.044.218.075.636l.111 1.827.313 6.721.928 22.174 1.005 22.174.342 6.718.078 1.828c.012.418.009.638-.01.64-.02.001-.054-.216-.102-.632l-.182-1.821c-.153-1.582-.322-3.875-.52-6.71-.385-5.67-.802-13.509-1.168-22.173a1359.52 1359.52 0 01-.765-22.185l-.136-6.727-.006-1.831c.005-.419.017-.639.037-.639zm-4.077 3.461c.017.009-.06.184-.224.509l-.739 1.407a167.127 167.127 0 01-2.886 5.08c-2.472 4.27-6.19 9.988-9.945 16.49-1.877 3.247-3.47 6.462-4.849 9.399-1.367 2.933-2.073 5.813-1.893 8.249.139 2.435.86 4.327 1.508 5.52.645 1.208 1.178 1.768 1.132 1.805-.015.012-.15-.124-.395-.395a9.443 9.443 0 01-.926-1.304c-.718-1.183-1.518-3.1-1.712-5.601-.24-2.506.457-5.506 1.817-8.482 1.365-2.975 2.945-6.198 4.833-9.468 3.772-6.526 7.537-12.202 10.092-16.417 1.25-2.05 2.276-3.736 3.036-4.984l.829-1.354c.195-.307.305-.464.322-.454z" fill="#17282F"/><path d="M204.559 179.016l-15.068-9.851-9.509 16.466s-13.184-18.317-19.172-29.048c-5.513-9.876-12.644-12.536-16.084-13.253a1.527 1.527 0 00-1.826 1.666l5.196 35.616c.654 1.854 11.53 17.613 17.609 25.542 10.142 13.235 25.087 4.765 29.191-4.498 3.258-7.351 8.328-18.522 9.663-22.64z" fill="#FFCC2A"/><path d="M184.314 200.492c-.079.002-.17-.898-.288-2.35-.126-1.449-.274-3.456-.728-5.609-.453-2.154-1.206-4.01-1.923-5.255-.709-1.255-1.309-1.933-1.242-1.994.043-.044.759.547 1.578 1.788.827 1.229 1.669 3.134 2.132 5.345.466 2.209.551 4.245.576 5.706.018 1.463-.031 2.366-.105 2.369z" fill="#17282F"/><path d="M188.725 193.133c-.09.007-.162-.764-.536-1.928-.375-1.155-1.12-2.707-2.41-4.038-1.27-1.348-2.812-2.167-4.006-2.192-1.203-.061-1.87.421-1.91.337-.057-.031.574-.685 1.914-.73 1.339-.08 3.075.78 4.404 2.199 1.368 1.411 2.098 3.087 2.387 4.317.291 1.242.221 2.035.157 2.035zm-44.982-45.404c.013.014-.112.158-.361.418l-.463.473-.577.696a14.716 14.716 0 00-2.608 5.063c-.718 2.306-1.004 5.24-.573 8.408.22 1.582.609 3.226 1.295 4.817.666 1.609 1.548 3.203 2.435 4.836 3.689 6.473 7.486 12.075 10.232 16.117 1.362 1.955 2.48 3.562 3.308 4.753.788 1.118 1.232 1.732 1.197 1.758-.014.012-.144-.126-.378-.402a34.245 34.245 0 01-.993-1.226c-.847-1.076-2.03-2.666-3.456-4.657-2.834-3.992-6.687-9.563-10.396-16.071-.894-1.645-1.778-3.249-2.453-4.897-.701-1.649-1.089-3.341-1.3-4.96-.412-3.247-.078-6.246.705-8.594a14.119 14.119 0 012.818-5.085l.625-.67.506-.442c.275-.234.426-.35.437-.335zm.039 94.629c.005.018-.152.086-.46.199-.372.129-.818.282-1.354.469-.588.202-1.313.436-2.166.663-.853.233-1.817.527-2.906.761-2.163.531-4.772 1.018-7.691 1.412a83.138 83.138 0 01-9.558.63 82.656 82.656 0 01-9.563-.577c-2.921-.377-5.535-.848-7.699-1.368-1.09-.226-2.056-.517-2.91-.743a31.714 31.714 0 01-2.17-.652l-1.357-.46c-.308-.112-.466-.178-.46-.198.005-.017.175.014.494.09l1.384.36c.596.167 1.328.365 2.188.558.858.198 1.826.459 2.915.66 2.166.468 4.77.897 7.675 1.244 2.91.313 6.123.526 9.501.528a89.717 89.717 0 009.497-.582c2.903-.363 5.505-.806 7.667-1.286 1.088-.208 2.055-.474 2.911-.678a42.24 42.24 0 002.186-.57c.548-.147 1.003-.267 1.382-.368.318-.078.488-.11.494-.092z" fill="#17282F"/><path d="M87.688 203.983l1.286-36.998a1368.106 1368.106 0 001.275 33.027l-2.56 3.968-.001.003" fill="#EDBC20"/><path d="M90.249 200.012a1368.106 1368.106 0 01-1.275-33.027l.12-3.485 1.535 35.921-.38.591" fill="#0F191D"/><path fill-rule="evenodd" clip-rule="evenodd" d="M141.597 179.346c2.94 5.036 9.704 15.751 10.07 15.751.01 0 .015-.009.014-.029-.018-.538-.268-6.214-.365-8.392-2.62-3.754-5.815-8.533-8.911-13.964l-.133-.245c-.848-1.559-1.678-3.086-2.32-4.652-.702-1.649-1.089-3.341-1.3-4.96-.021-.162-.039-.324-.057-.485a8.546 8.546 0 01-.121-1.3s.096 13.091 3.123 18.276zm9.681 6.467c.002.003.004.008.008.011v-.001s-.004-.003-.008-.01z" fill="#EDBC20"/><path d="M151.316 186.676c-2.62-3.754-5.815-8.533-8.911-13.964-.894-1.645-1.778-3.249-2.453-4.897-.702-1.649-1.089-3.341-1.3-4.96l-.057-.485c1.289 7.781 12.352 23.005 12.676 23.45l.008.01.037.846z" fill="#0F191D"/><path d="M85.086 205.074c.008.021-.31.183-.94.272-.626.092-1.576.048-2.651-.342-1.074-.387-2.247-1.126-3.294-2.206-1.05-1.084-1.918-2.487-2.746-3.968-.828-1.483-1.576-2.906-2.427-4.073-.85-1.166-1.79-2.082-2.686-2.696-1.813-1.255-3.288-1.174-3.261-1.283 0-.025.35-.082.978.005.626.083 1.524.36 2.491.961.965.601 1.972 1.528 2.874 2.719.906 1.193 1.676 2.631 2.498 4.104.822 1.471 1.658 2.844 2.638 3.892.978 1.045 2.073 1.782 3.072 2.192 2.04.851 3.457.304 3.454.423zm3.984-22.557c-.091.025-.315-.779-.943-1.936-.622-1.157-1.731-2.631-3.328-3.844-1.605-1.206-3.328-1.87-4.61-2.15-1.287-.288-2.12-.284-2.121-.379-.006-.052.838-.194 2.192.007 1.347.193 3.183.831 4.862 2.093 1.672 1.27 2.79 2.86 3.343 4.104.564 1.246.657 2.095.605 2.105zm49.644-19.279c-.013.051-.708-.135-1.988-.239-1.276-.103-3.152-.06-5.382.489-2.232.53-4.787 1.547-7.469 2.986-2.698 1.409-5.555 3.201-8.788 4.679a26.968 26.968 0 01-9.674 2.461 27.25 27.25 0 01-8.122-.755 24.179 24.179 0 01-5.158-1.896c-.588-.277-1.014-.549-1.309-.721-.292-.176-.441-.276-.431-.291.024-.046.65.303 1.829.823a26.86 26.86 0 005.157 1.715 27.83 27.83 0 008.002.632 27.036 27.036 0 009.483-2.457c3.189-1.455 6.051-3.231 8.782-4.628 2.716-1.427 5.332-2.426 7.613-2.917 2.281-.511 4.199-.497 5.488-.328.645.086 1.142.184 1.47.281.331.092.501.147.497.166zm12.658 35.616c.006.017-.198.085-.593.197-.398.097-.973.307-1.744.434-1.526.336-3.79.59-6.587.521-2.798-.055-6.107-.54-9.702-1.362-3.598-.824-7.475-2.003-11.543-3.198-4.068-1.187-8.001-2.113-11.633-2.584-3.63-.454-6.949-.489-9.683-.076-2.734.397-4.884 1.09-6.292 1.731-1.415.623-2.161 1.06-2.19 1.009-.009-.015.17-.133.524-.343.361-.192.859-.553 1.58-.857 1.394-.704 3.556-1.465 6.322-1.915 2.766-.466 6.131-.471 9.801-.039 3.671.448 7.638 1.367 11.721 2.559 4.074 1.198 7.936 2.387 11.506 3.232 3.567.843 6.836 1.361 9.604 1.465 2.764.116 5.009-.078 6.535-.349 1.526-.259 2.361-.478 2.374-.425zm.361 20.363c-.05.172-3.054-1.767-8.568-2.307-2.735-.297-6.03-.136-9.641.333-3.615.492-7.548 1.319-11.702 2.098-4.151.776-8.131 1.459-11.791 1.778-3.657.328-6.987.305-9.747-.065-2.76-.357-4.944-.965-6.391-1.531-.737-.246-1.27-.541-1.644-.699-.37-.172-.56-.271-.553-.287.021-.048.808.295 2.267.788 1.456.503 3.63 1.047 6.365 1.353 2.735.318 6.029.302 9.658-.051 3.631-.343 7.589-1.038 11.739-1.813 4.143-.777 8.092-1.593 11.734-2.061 3.642-.447 6.978-.57 9.746-.219 2.768.331 4.95.983 6.372 1.607.732.266 1.246.593 1.616.764.363.19.548.296.54.312zm-33.476 26.247c-.023.029-.388-.203-1.028-.647a112.879 112.879 0 00-2.727-1.853 84.11 84.11 0 00-9.421-5.386 83.974 83.974 0 00-10.056-4.083c-1.32-.439-2.395-.778-3.141-1.001-.745-.228-1.154-.372-1.145-.408.01-.036.434.039 1.198.206.765.162 1.86.447 3.201.842 2.683.785 6.333 2.097 10.178 3.962 3.841 1.872 7.126 3.932 9.4 5.556 1.139.811 2.038 1.497 2.639 1.998.602.496.925.785.902.814zm31.703-.349c.028.05-.75.567-2.162 1.085-1.407.52-3.475.965-5.781.898-2.306-.075-4.342-.648-5.714-1.253-1.378-.604-2.124-1.169-2.092-1.216.044-.08.851.364 2.232.863 1.376.503 3.356.997 5.59 1.07a18.438 18.438 0 005.646-.723c1.409-.412 2.242-.805 2.281-.724zm22.539-67.958c.025.003.037.336-.12.914-.153.574-.522 1.381-1.204 2.211-.68.828-1.672 1.655-2.895 2.352-1.225.702-2.66 1.25-4.131 1.851-1.466.601-2.84 1.235-3.915 2.048-1.073.812-1.861 1.771-2.329 2.672-.969 1.838-.543 3.211-.659 3.2-.022.006-.158-.301-.201-.901-.044-.595.065-1.488.52-2.467.451-.978 1.251-2.017 2.368-2.896 1.123-.881 2.533-1.544 4.014-2.152 1.481-.605 2.901-1.134 4.092-1.786 1.193-.65 2.165-1.412 2.849-2.169 1.399-1.532 1.508-2.918 1.611-2.877zm-12.653-21.849c.035.01-.027.341-.174.934-.068.3-.165.661-.318 1.068-.148.408-.292.885-.53 1.379-.421 1.013-1.05 2.164-1.855 3.372a23.48 23.48 0 01-3.064 3.587 23.48 23.48 0 01-3.771 2.838c-1.256.73-2.444 1.286-3.481 1.644-.508.208-.992.322-1.41.445a8.335 8.335 0 01-1.085.253c-.601.109-.935.152-.942.115-.023-.1 1.303-.356 3.3-1.166 1.002-.397 2.148-.977 3.362-1.713a25.416 25.416 0 003.659-2.806 25.233 25.233 0 003.026-3.479c.809-1.166 1.458-2.274 1.916-3.249.932-1.941 1.269-3.249 1.367-3.222zm-19.824-13.505c.013.035-.519.271-1.494.672-.973.41-2.411.925-4.213 1.487-1.8.572-3.98 1.131-6.427 1.63a71.727 71.727 0 01-8.049 1.093 71.74 71.74 0 01-8.124.094c-2.494-.138-4.733-.373-6.596-.675-1.866-.294-3.364-.594-4.385-.857-1.024-.254-1.585-.411-1.576-.447.009-.036.585.053 1.619.242 1.032.202 2.534.443 4.394.687 1.86.252 4.089.446 6.566.556 2.479.082 5.207.064 8.063-.135 2.853-.22 5.554-.6 7.994-1.043 2.435-.469 4.61-.986 6.413-1.508 1.806-.513 3.257-.971 4.247-1.32.996-.339 1.555-.51 1.568-.476zm40.468 44.808c.028-.01.183.354.362 1.044.185.686.377 1.706.443 2.979.179 2.555-.308 6.059-1.012 9.842-.342 1.9-.758 3.719-1.401 5.292-.63 1.576-1.495 2.877-2.392 3.8-.89.934-1.797 1.487-2.448 1.779-.656.294-1.051.36-1.058.333-.059-.098 1.559-.493 3.228-2.37.829-.922 1.625-2.187 2.211-3.724.597-1.534.993-3.316 1.333-5.206.703-3.785 1.24-7.222 1.161-9.732-.038-2.509-.53-4.013-.427-4.037zm20.645 2.637c-.089.041-.573-1.05-1.653-2.618-1.073-1.568-2.833-3.558-5.209-5.225-2.383-1.656-4.86-2.623-6.702-3.089-1.844-.475-3.036-.554-3.028-.652.003-.037.3-.042.842-.022.542.012 1.322.11 2.273.304.954.186 2.064.526 3.258 1.009a21.018 21.018 0 013.665 2.01 21.084 21.084 0 013.148 2.747c.864.954 1.566 1.879 2.069 2.71.51.825.871 1.524 1.067 2.029.207.501.304.783.27.797z" fill="#fff"/><path d="M119.645 245.934a89.649 89.649 0 01-9.501-.528c-2.905-.347-5.51-.776-7.675-1.244a2.278 2.278 0 01-.114-.021c-2.064-.449-3.72-.863-4.686-1.112l-.303-.085-.628-.163c-1.25-.429-1.449-1.049-1.346-1.888.103-.84.86-1.485 1.677-1.705.32-.087.648-.121.978-.121.513 0 1.032.083 1.537.179 3.977.75 7.757 2.283 11.629 3.457 1.507.457 3.048.86 4.603 1.14.563.382 1.039.71 1.413.974.604.42.963.649 1.021.649.003 0 .006 0 .007-.002.023-.029-.3-.318-.902-.814a29.42 29.42 0 00-.872-.695c1.18.183 2.365.29 3.547.29 1.052 0 2.101-.084 3.143-.274 5.233-.957 9.876-4.515 15.196-4.619l.156-.002c1.043 0 2.168.21 2.811 1.018.675.849.355 2.316-.72 2.802-.281.072-.58.146-.896.218-.462.11-.957.238-1.485.365-.337.079-.704.161-1.1.248l-.326.065c-2.162.48-4.764.923-7.667 1.286-2.907.329-6.12.561-9.497.582" fill="#EDBC20"/><path fill-rule="evenodd" clip-rule="evenodd" d="M118.901 246.302c-5.469 0-11.998-1.17-16.546-2.161l.114.021c2.165.468 4.77.897 7.675 1.244 2.91.313 6.123.526 9.501.528a89.717 89.717 0 009.497-.582c2.903-.363 5.505-.806 7.667-1.286l.326-.065c-4.064.894-11.075 2.199-17.687 2.298-.182.002-.363.003-.547.003zm20.057-2.727c.263-.065.517-.129.762-.187.316-.072.615-.146.896-.218l-.001.001s-.884.238-2.38.582c.248-.06.489-.12.723-.178zm-42.218-.793s.332.091.93.247l-.161-.045-.143-.04h-.001a120.294 120.294 0 00-.625-.162z" fill="#0F191D"/><path d="M118.25 245.466c-.058 0-.417-.229-1.021-.649a91.063 91.063 0 00-1.413-.974c.222.04.445.077.668.112.336.26.628.492.871.695.602.496.925.785.902.814-.001.002-.004.002-.007.002" fill="#A7A9A8"/><path d="M343.222 394.279v9.867h71.847v-9.867h-71.847z" fill="#2D415E"/><path fill-rule="evenodd" clip-rule="evenodd" d="M343.1 404.269h72.092v-10.114H343.1v10.114zm71.846-.247h-71.6v-9.621h71.6v9.621z" fill="#17282F"/><path d="M349.884 400.861l10.342 50.995h38.265l9.997-47.71-58.604-3.285" fill="#2D415E"/><path d="M349.884 447.033l5.516 7.58h46.51l6.578-7.58h-58.604" fill="#33535F"/><path d="M376.448 402.351c-.141 0-.322-23.624-.404-52.761-.082-29.145-.035-52.766.106-52.766.143 0 .324 23.618.406 52.764.082 29.137.033 52.762-.108 52.763m16.004-59.12c.016.008-.051.196-.192.549l-.641 1.529-.469 1.101-.479 1.341-.553 1.538c-.193.546-.343 1.14-.532 1.755-.785 2.448-1.408 5.449-2.009 8.792a107.088 107.088 0 00-1.113 10.994c-.349 7.846.095 14.961.568 20.086.231 2.563.464 4.635.635 6.066l.181 1.65c.036.377.045.578.029.581-.019.001-.063-.193-.131-.566l-.277-1.638c-.232-1.424-.52-3.493-.797-6.057-.568-5.125-1.07-12.262-.719-20.145.198-3.937.608-7.676 1.159-11.049.629-3.357 1.295-6.37 2.128-8.821.2-.615.365-1.209.57-1.753l.593-1.534c.187-.475.36-.919.521-1.332.178-.403.359-.762.512-1.089l.73-1.494c.174-.339.271-.513.286-.504z" fill="#17282F"/><path d="M390.615 324.123c.018.006-.061.274-.228.779l-.748 2.197-.549 1.583-.579 1.907c-.419 1.367-.907 2.921-1.34 4.669l-.72 2.731-.673 2.987c-.503 2.056-.864 4.29-1.328 6.623a195.355 195.355 0 00-1.97 15.351c-.454 5.475-.652 10.708-.722 15.468-.013 4.76.047 9.049.242 12.647.063 1.799.18 3.424.272 4.852.083 1.429.172 2.657.263 3.66.075.968.133 1.739.176 2.315.035.53.044.809.028.811-.018.002-.062-.273-.13-.8l-.272-2.306a86.718 86.718 0 01-.35-3.658c-.121-1.428-.262-3.054-.348-4.856-.242-3.6-.34-7.897-.352-12.668.044-4.77.228-10.017.683-15.508a183.576 183.576 0 012.016-15.39c.477-2.339.856-4.577 1.377-6.635.244-1.031.478-2.028.704-2.989l.755-2.731c.457-1.746.971-3.297 1.416-4.66l.62-1.898c.216-.571.413-1.096.594-1.572l.839-2.167c.197-.493.308-.749.324-.742zm-18.711 82.407c-.009.001-.023-.092-.041-.277l-.067-.812c-.052-.752-.123-1.799-.211-3.128l-.722-11.507c-.623-9.716-1.525-23.136-3.161-37.896a471.64 471.64 0 00-2.812-20.741c-.535-3.172-1.021-6.19-1.572-8.999-.506-2.815-1.05-5.424-1.552-7.805-.472-2.386-.998-4.523-1.421-6.409a147.674 147.674 0 00-1.156-4.822 1476.02 1476.02 0 00-.746-3.044l-.182-.795c-.038-.18-.054-.274-.044-.277.008-.002.04.086.096.262.058.204.135.462.229.783l.841 3.021c.365 1.313.797 2.922 1.24 4.804.45 1.883 1.003 4.017 1.497 6.401.524 2.379 1.091 4.987 1.614 7.803.57 2.807 1.072 5.827 1.622 9a433.658 433.658 0 012.855 20.761c1.637 14.776 2.482 28.21 3.014 37.93.264 4.863.447 8.798.558 11.519l.115 3.134.017.815c.001.184-.003.279-.011.279z" fill="#17282F"/><path d="M375.862 308.181c-.312-3.348-3.696-5.872-7.059-5.907-3.363-.035-6.497 1.981-8.553 4.64-2.057 2.66-3.192 5.908-4.119 9.138-2.266 7.885-3.504 16.169-2.534 24.316.967 8.147 4.274 16.167 10.122 21.921.951.937 2.183 1.873 3.489 1.594.712-.152 1.297-.647 1.839-1.136 11.489-10.373 18.122-25.91 17.668-41.379-.091-3.097-.497-6.321-2.213-8.902-1.717-2.581-5.718-5.321-8.64-4.285z" fill="#3B8D96"/><path d="M350.751 281.373c-1.579 2.858-3.157 5.717-4.737 8.574-.11.199-.256.423-.484.443-.249.019-.434-.214-.57-.423l-12.523-19.21 2.885-1.634 15.429 12.25z" fill="#F03D5F"/><path d="M345.501 290.391c-.234 0-.411-.224-.541-.424l-12.523-19.21 2.885-1.634 15.429 12.25c-1.579 2.858-3.157 5.717-4.737 8.574-.11.199-.256.423-.484.443l-.029.001z" fill="#2D6B72"/><path d="M376.151 296.823l-42.715-25.194c-.435-.258-.908-.561-1.04-1.048-.171-.632.305-1.242.76-1.712 5.875-6.057 14.409-9.569 22.827-8.964 8.419.606 16.516 5.467 20.637 12.829 4.123 7.364 4.259 17.1-.469 24.089z" fill="#3B8D96"/><path d="M339.592 263.587c-.001-.017.192-.041.559-.07.369-.017.913-.084 1.614-.077 1.405-.034 3.445.057 5.927.47 2.481.408 5.397 1.206 8.442 2.562a34.982 34.982 0 019.059 5.876 34.94 34.94 0 016.754 8.428c1.657 2.893 2.74 5.712 3.393 8.14.659 2.427.954 4.448 1.059 5.848.078.696.066 1.244.083 1.612.009.369.004.563-.012.563-.046.003-.099-.77-.269-2.155-.165-1.384-.513-3.379-1.209-5.768-1.349-4.755-4.485-11.166-10.143-16.288-5.659-5.112-12.352-7.593-17.22-8.462-2.449-.454-4.469-.6-5.865-.627-1.394-.031-2.17-.007-2.172-.052z" fill="#17282F"/><path d="M370.37 279.434c.023.065-.8.446-2.16.981a87.475 87.475 0 01-5.39 1.897 88.84 88.84 0 01-5.497 1.56c-1.421.347-2.313.51-2.331.443-.017-.07.841-.356 2.233-.792l5.44-1.699 5.423-1.75c1.39-.447 2.256-.708 2.282-.64zm-6.727-18.06c.137-.013.44 2.117.506 4.763.068 2.647-.126 4.788-.265 4.783-.144-.006-.179-2.141-.247-4.77-.065-2.629-.138-4.764.006-4.776zm-30.581 9.777c-.018-.065 1.163-.493 3.104-1.091a132.563 132.563 0 017.656-2.081 131.91 131.91 0 017.765-1.633c2-.351 3.248-.508 3.26-.441.012.073-1.21.354-3.189.796-1.978.442-4.709 1.052-7.716 1.776a433.534 433.534 0 00-7.678 1.932c-1.963.507-3.18.813-3.202.742z" fill="#17282F"/><path d="M356.456 300.259c-3.674-2.785-7.56-3.333-12.165-3.151-4.607.183-9.092 1.585-13.315 3.434-7.202 3.153-13.974 7.801-18.277 14.38-4.304 6.577-5.801 15.284-2.579 22.454.321.716.739 1.462 1.459 1.77.758.324 1.626.071 2.411-.185 8.192-2.671 16.442-5.368 23.974-9.55 7.532-4.184 14.389-9.998 18.431-17.605.969-1.824 1.781-3.78 1.939-5.841.16-2.061-.411-4.251-1.878-5.706z" fill="#3B8D96"/><path d="M356.528 299.395c.005.017-.198.098-.589.239l-1.717.59-1.243.415c-.45.161-.93.363-1.452.566-1.036.419-2.239.837-3.506 1.451l-2.009.914c-.697.323-1.392.718-2.128 1.093-1.485.728-2.987 1.66-4.587 2.604-3.142 1.985-6.465 4.373-9.7 7.19a79.42 79.42 0 00-8.373 8.702c-1.14 1.466-2.256 2.838-3.169 4.217-.466.681-.947 1.321-1.354 1.97l-1.163 1.875c-.772 1.178-1.341 2.319-1.888 3.291-.267.493-.528.942-.747 1.369l-.569 1.179-.805 1.627c-.189.369-.295.561-.312.554-.016-.008.059-.212.218-.595l.718-1.67.532-1.204c.205-.433.455-.893.711-1.392.526-.991 1.075-2.149 1.831-3.344l1.141-1.903c.402-.659.876-1.307 1.338-1.998.903-1.398 2.013-2.788 3.152-4.271a76.368 76.368 0 018.4-8.79 76.218 76.218 0 019.791-7.207c1.617-.941 3.137-1.864 4.64-2.581.744-.37 1.448-.758 2.153-1.072l2.034-.889c1.283-.597 2.501-.994 3.552-1.389.528-.19 1.015-.379 1.471-.528l1.262-.373c.718-.204 1.297-.371 1.749-.5.401-.108.614-.157.618-.14zm-28.702 15.533c.041.135-3.961 1.424-8.936 2.877-4.975 1.456-9.041 2.524-9.08 2.388-.04-.136 3.961-1.424 8.938-2.878 4.974-1.453 9.039-2.522 9.078-2.387z" fill="#17282F"/><path d="M327.46 334.639c-.07.001-.151-1.062-.197-2.783-.047-1.721-.055-4.1.019-6.725.073-2.626.214-5 .357-6.716.143-1.715.282-2.772.351-2.768.073.006.061 1.071.01 2.789-.057 1.885-.129 4.175-.207 6.709l-.168 6.711c-.046 1.719-.093 2.782-.165 2.783zm16.892-8.602c-.141.01-.59-4.823-1.002-10.794-.414-5.973-.634-10.82-.493-10.829.141-.011.589 4.821 1.003 10.794.413 5.971.633 10.819.492 10.829z" fill="#17282F"/><path d="M323.325 303.944c.003-.071 1.099-.098 2.864-.086 1.766.012 4.204.063 6.896.153 2.692.089 5.128.198 6.892.303 1.763.105 2.854.203 2.852.276-.001.07-1.094.097-2.86.086a279.352 279.352 0 01-6.901-.154 276.633 276.633 0 01-6.895-.303c-1.763-.104-2.852-.204-2.848-.275zm42.227 60.646c-.018 0-.038-.201-.061-.585-.021-.437-.045-.993-.076-1.677-.064-1.456-.08-3.567-.024-6.175.046-2.608.22-5.71.527-9.147.333-3.433.814-7.197 1.504-11.119a145.063 145.063 0 012.431-10.959c.899-3.331 1.808-6.303 2.665-8.767.85-2.465 1.592-4.442 2.157-5.786.263-.631.479-1.144.648-1.548.155-.352.244-.534.259-.527.017.007-.04.2-.163.565-.145.414-.331.936-.559 1.581a155.956 155.956 0 00-1.998 5.829c-.812 2.473-1.683 5.446-2.553 8.773a159.131 159.131 0 00-2.383 10.928 159.708 159.708 0 00-1.538 11.076c-.333 3.422-.543 6.513-.635 9.112a156.516 156.516 0 00-.138 6.162l-.022 1.677c-.01.384-.024.586-.041.587" fill="#17282F"/><path d="M367.805 335.459c.047.05-.598.767-1.704 1.869a99.294 99.294 0 01-4.465 4.15 99.45 99.45 0 01-4.7 3.88c-1.237.953-2.035 1.498-2.078 1.445-.045-.057.673-.702 1.848-1.724l4.592-3.985c1.708-1.512 3.253-2.878 4.554-4.031 1.167-1.03 1.903-1.656 1.953-1.604zm13.521 10.886c-.062.039-.74-.932-1.816-2.512l-4.221-6.158-4.309-6.097c-1.109-1.557-1.784-2.53-1.726-2.574.055-.042.831.854 2.016 2.357a132.856 132.856 0 014.44 6.023 131.95 131.95 0 014.105 6.252c.999 1.633 1.568 2.673 1.511 2.709zm-7.083-34.237c.076.121-4.416 3.142-10.031 6.75-5.617 3.61-10.231 6.439-10.307 6.321-.078-.121 4.414-3.141 10.031-6.751 5.615-3.608 10.23-6.438 10.307-6.32zm12.663 13.664c-.098.1-3.139-2.709-6.792-6.276-3.654-3.566-6.535-6.538-6.436-6.64.098-.101 3.14 2.708 6.793 6.275 3.652 3.566 6.534 6.539 6.435 6.641z" fill="#17282F"/><path d="M390.091 325.497l3.855-.318a19.099 19.099 0 007.786-2.383c1.183-.665 2.372-1.317 3.629-1.821 4.767-1.914 10.085-1.571 15.215-1.828a63.016 63.016 0 0024.205-6.187c.437-.211.822-.532 1.055-.957.792-1.442-.679-2.725-1.945-3.506-6.495-3.999-13.107-8.051-20.473-10.037-7.367-1.986-15.729-1.65-22.013 2.673-7.378 5.075-10.068 15.5-11.314 24.364" fill="#3B8D96"/><path d="M445.922 311.53c-.008.015-.233-.09-.654-.304l-1.827-.957c-1.585-.833-3.866-2.063-6.75-3.445-2.883-1.367-6.38-2.91-10.447-4.025-4.051-1.124-8.723-1.714-13.542-1.096-4.799.632-9.217 2.498-12.345 5.298-3.148 2.791-5.07 6.162-6.427 9.025-1.356 2.889-2.19 5.345-2.797 7.026l-.686 1.945c-.161.443-.254.673-.27.668-.017-.006.042-.246.171-.7l.595-1.975c.551-1.704 1.334-4.184 2.657-7.115 1.329-2.906 3.24-6.348 6.444-9.227 3.188-2.889 7.709-4.811 12.592-5.452 4.9-.629 9.649-.013 13.734 1.149 4.103 1.152 7.605 2.741 10.481 4.154a130.044 130.044 0 016.687 3.595l1.781 1.042c.404.243.613.378.603.394z" fill="#17282F"/><path d="M436.663 316.502c-.079.117-5.121-3.144-11.262-7.281-6.141-4.14-11.055-7.589-10.976-7.707.079-.117 5.121 3.142 11.263 7.283 6.14 4.137 11.055 7.589 10.975 7.705zm-4.843-15.47c.026.134-1.723.589-3.936.788-2.214.207-4.016.08-4.014-.056 0-.146 1.783-.249 3.967-.452 2.186-.198 3.956-.423 3.983-.28zm-22.609-4.049c.122.071-.62 1.553-1.655 3.306-1.036 1.755-1.973 3.119-2.094 3.047-.122-.071.619-1.553 1.655-3.307 1.034-1.754 1.973-3.118 2.094-3.046zm4.517 22.489c-.035.056-.969-.433-2.426-1.317-1.456-.882-3.425-2.178-5.528-3.704a158.29 158.29 0 01-5.291-4.027c-1.332-1.059-2.137-1.737-2.094-1.795.041-.056.923.521 2.311 1.505l5.374 3.902a233.805 233.805 0 005.424 3.815c1.402.959 2.27 1.557 2.23 1.621z" fill="#17282F"/><path d="M395.768 341.869c-3.677-.97-8.061 2.605-8.819 6.331-.758 3.725.641 7.535 2.276 10.967 3.623 7.598 8.623 14.643 15.208 19.888 6.586 5.245 14.832 8.6 23.253 8.557-1.555-7.219.412-14.759-.456-22.09-.756-6.4-3.741-12.514-8.323-17.049-4.581-4.534-10.729-7.457-17.139-8.149-2.347-.254-5.064-.621-6 1.545z" fill="#3B8D96"/><path d="M427.686 387.612c-.009.015-.188-.068-.524-.243a9.53 9.53 0 01-1.375-.924c-1.155-.876-2.477-2.564-3.632-4.855-.586-1.137-1.241-2.372-1.881-3.739a6915.84 6915.84 0 00-1.979-4.372c-.701-1.532-1.473-3.122-2.43-4.674-.954-1.552-2.089-3.07-3.347-4.548-2.518-2.955-5.219-5.512-7.561-7.956-2.353-2.433-4.334-4.777-5.764-6.913-1.445-2.127-2.321-4.034-2.817-5.377-.238-.678-.408-1.209-.492-1.577-.093-.366-.133-.56-.116-.565.049-.013.257.751.793 2.069a27.882 27.882 0 002.929 5.246c1.454 2.086 3.443 4.384 5.806 6.79 2.351 2.416 5.069 4.967 7.613 7.953 1.27 1.492 2.418 3.033 3.383 4.618.969 1.582 1.74 3.195 2.433 4.738.679 1.544 1.327 3.011 1.934 4.389.618 1.361 1.255 2.61 1.819 3.753 1.107 2.296 2.344 3.959 3.436 4.868 1.075.925 1.802 1.269 1.772 1.319z" fill="#17282F"/><path d="M408.669 381.613c-.066-.013.049-.96.337-2.473a73.147 73.147 0 011.398-5.857 72.62 72.62 0 011.865-5.723c.546-1.444.942-2.311 1.005-2.288.068.026-.207.937-.662 2.404a234.84 234.84 0 00-1.716 5.746 225.061 225.061 0 00-1.536 5.796c-.378 1.488-.618 2.411-.691 2.395zm18.319-17.716c-.021.07-1.006-.181-2.59-.595-1.584-.415-3.772-.98-6.207-1.53a187.32 187.32 0 00-6.265-1.278c-1.609-.304-2.604-.498-2.594-.571.009-.068 1.024 0 2.653.215a73.807 73.807 0 0112.514 2.816c1.564.504 2.51.878 2.489.943zm-31.966 5.147c-.067-.013.075-1.108.398-2.863a99.549 99.549 0 011.526-6.803 98.223 98.223 0 011.995-6.681c.577-1.689.989-2.713 1.054-2.692.069.023-.221 1.087-.708 2.8-.487 1.713-1.16 4.076-1.845 6.703-.685 2.626-1.255 5.016-1.668 6.747-.413 1.733-.68 2.804-.752 2.789zm23.529-20.587c-.014.141-4.605-.231-10.252-.829-5.648-.599-10.215-1.198-10.199-1.339.014-.139 4.603.232 10.253.83 5.647.599 10.214 1.198 10.198 1.338z" fill="#17282F"/><path d="M415.188 404.104c0 .141-16.138.256-36.041.256-19.909 0-36.043-.115-36.043-.256 0-.141 16.134-.256 36.043-.256 19.903 0 36.041.115 36.041.256zm-11.227 20.758c0 .141-10.874.256-24.283.256-13.415 0-24.285-.115-24.285-.256 0-.141 10.87-.255 24.285-.255 13.409 0 24.283.114 24.283.255zm.424 2.968c0 .141-10.872.255-24.283.255-13.414 0-24.286-.114-24.286-.255 0-.141 10.872-.257 24.286-.257 13.411 0 24.283.116 24.283.257zm0-5.414c0 .141-11.247.256-25.117.256-13.876 0-25.12-.115-25.12-.256 0-.142 11.244-.255 25.12-.255 13.87 0 25.117.113 25.117.255z" fill="#33535F"/><path d="M435.191 454.613c0 .147-97.407.269-217.537.269-120.171 0-217.558-.122-217.558-.269 0-.148 97.386-.268 217.558-.268 120.13 0 217.537.12 217.537.268z" fill="#17282F"/></svg>