<?xml version="1.0" standalone="no"?>
<!DOCTYPE svg PUBLIC "-//W3C//DTD SVG 1.1//EN" "http://www.w3.org/Graphics/SVG/1.1/DTD/svg11.dtd" >
<svg>
<metadata>
Created by FontForge 20090914 at Sun Oct  4 14:21:41 2020
 By www-data
&#194;&#169; 1998-2019 Typodermic Fonts Inc.
</metadata>
<defs>
<font id="PricedownBl-Regular" horiz-adv-x="517" >
  <font-face 
    font-family="Pricedown Bl"
    font-weight="900"
    font-stretch="normal"
    units-per-em="1000"
    panose-1="2 11 10 6 0 2 2 8 1 4"
    ascent="800"
    descent="-200"
    x-height="639"
    cap-height="639"
    bbox="-440 -199 1529 948"
    underline-thickness="20"
    underline-position="-123"
    unicode-range="U+0017-U+E143"
  />
<missing-glyph horiz-adv-x="452" 
d="M129 0c-64.667 0 -97 28 -97 84v488c0 56.667 32.333 85 97 85h193c65.333 0 98 -28.333 98 -85v-488c0 -56 -32.667 -84 -98 -84h-193zM368 572c0 26 -15.333 39 -46 39h-193c-30.667 0 -46 -13 -46 -39v-488c0 -26 15.333 -39 46 -39h193c30.667 0 46 13 46 39v488z
" />
    <glyph glyph-name="a_F.2" unicode="aF" horiz-adv-x="946" 
d="M283 259h-49c-1.33301 0 -2 -0.666992 -2 -2v-96c0 -1.33301 0.666992 -2 2 -2h49v100zM128 0c-69.333 0 -104 26.333 -104 79v241c0 52.667 34.667 79 104 79h155v78c0 1.33301 -0.666992 2 -2 2h-47c-1.33301 0 -2 -0.666992 -2 -2v-37h-208v118c0 54 34.667 81 104 81
h259c69.333 0 104 -27 104 -81v-558h-363zM24 -199v159h515c1.33301 0 2 0.666992 2 2v596c0 54 34.667 81 104 81h286v-160h-180c-1.33301 0 -2 -0.666992 -2 -2v-37h180v-160h-180v-400c0 -52.667 -34.667 -79 -104 -79h-621z" />
    <glyph glyph-name="a_G.2" unicode="ag" horiz-adv-x="1033" 
d="M283 259h-49c-1.33301 0 -2 -0.666992 -2 -2v-96c0 -1.33301 0.666992 -2 2 -2h49v100zM128 0c-69.333 0 -104 26.333 -104 79v241c0 52.667 34.667 79 104 79h155v78c0 1.33301 -0.666992 2 -2 2h-47c-1.33301 0 -2 -0.666992 -2 -2v-37h-208v118c0 54 34.667 81 104 81
h259c69.333 0 104 -27 104 -81v-558h-363zM24 -199v159h773c1.33301 0 2 0.666992 2 2v38h-155c-69.333 -0 -104 26.333 -104 79v479c0 54 34.667 81 104 81h363v-759c0 -52.667 -34.667 -79 -104 -79h-879zM799 479h-49c-1.33301 0 -2 -0.666992 -2 -2v-316
c0 -1.33301 0.666992 -2 2 -2h49v320z" />
    <glyph glyph-name="a_Y.2" unicode="aY" horiz-adv-x="1033" 
d="M283 259h-49c-1.33301 0 -2 -0.666992 -2 -2v-96c0 -1.33301 0.666992 -2 2 -2h49v100zM128 0c-69.333 0 -104 26.333 -104 79v241c0 52.667 34.667 79 104 79h155v78c0 1.33301 -0.666992 2 -2 2h-47c-1.33301 0 -2 -0.666992 -2 -2v-37h-208v118c0 54 34.667 81 104 81
h259c69.333 0 104 -27 104 -81v-558h-363zM24 -199v159h773c1.33301 0 2 0.666992 2 2v38h-155c-69.333 -0 -104 26.333 -104 79v560h208v-478c0 -1.33301 0.666992 -2 2 -2h49v480h208v-759c0 -52.667 -34.667 -79 -104 -79h-879z" />
    <glyph glyph-name="A.alt_A" unicode="AA" horiz-adv-x="1034" 
d="M284 477c0 1.33301 -0.666992 2 -2 2h-47c-1.33301 0 -2 -0.666992 -2 -2v-78h51v78zM388 -199c-69.333 0 -104 26.333 -104 79v359h-51v-239h-208v558c0 54 34.667 81 104 81h259c69.333 0 104 -27 104 -81v-596c0 -1.33301 0.666992 -2 2 -2h515v-159h-621zM801 477
c0 1.33301 -0.666992 2 -2 2h-47c-1.33301 0 -2 -0.666992 -2 -2v-78h51v78zM801 0v239h-51v-239h-208v558c0 54 34.667 81 104 81h259c69.333 0 104 -27 104 -81v-558h-208z" />
    <glyph glyph-name="A.alt_b" unicode="Ab" horiz-adv-x="1035" 
d="M284 477c0 1.33301 -0.666992 2 -2 2h-47c-1.33301 0 -2 -0.666992 -2 -2v-78h51v78zM388 -199c-69.333 0 -104 26.333 -104 79v359h-51v-239h-208v558c0 54 34.667 81 104 81h259c69.333 0 104 -27 104 -81v-596c0 -1.33301 0.666992 -2 2 -2h516v-159h-622zM543 0v799
h208v-160h155c69.333 0 104 -27 104 -81v-479c0 -52.667 -34.667 -79 -104 -79h-363zM802 477c0 1.33301 -0.666992 2 -2 2h-49v-320h49c1.33301 0 2 0.666992 2 2v316z" />
    <glyph glyph-name="A.alt_B" unicode="AB" horiz-adv-x="1035" 
d="M284 477c0 1.33301 -0.666992 2 -2 2h-47c-1.33301 0 -2 -0.666992 -2 -2v-78h51v78zM388 -199c-69.333 0 -104 26.333 -104 79v359h-51v-239h-208v558c0 54 34.667 81 104 81h259c69.333 0 104 -27 104 -81v-596c0 -1.33301 0.666992 -2 2 -2h516v-159h-622zM802 477
c0 1.33301 -0.666992 2 -2 2h-49v-96h49c1.33301 0 2 0.666992 2 2v92zM543 0v639.001h363c68.667 0 103 -27 103 -81v-186c0 -30.667 -17 -48 -51 -52c34.667 -4.66699 52 -22.334 52 -53.001v-188c0 -52.667 -34.667 -79 -104 -79h-363zM802 254.001
c0 1.33301 -0.666992 2 -2 2h-49v-97h49c1.33301 0 2 0.666992 2 2v93z" />
    <glyph glyph-name="A.alt_C" unicode="AC" horiz-adv-x="1032" 
d="M284 477c0 1.33301 -0.666992 2 -2 2h-47c-1.33301 0 -2 -0.666992 -2 -2v-78h51v78zM388 -199c-69.333 0 -104 26.333 -104 79v359h-51v-239h-208v558c0 54 34.667 81 104 81h259c69.333 0 104 -27 104 -81v-596c0 -1.33301 0.666992 -2 2 -2h514v-159h-620zM645 0
c-69.333 0 -104 26.333 -104 79v479c0 54 34.667 81 104 81h259c69.333 0 104 -27 104 -81v-189h-208v108c0 1.33301 -0.666992 2 -2 2h-47c-1.33301 0 -2 -0.666992 -2 -2v-316c0 -1.33301 0.666992 -2 2 -2h47c1.33301 0 2 0.666992 2 2v149h208v-231
c0 -52.667 -34.667 -79 -104 -79h-259z" />
    <glyph glyph-name="A.alt_d" unicode="Ad" horiz-adv-x="1034" 
d="M284 477c0 1.33301 -0.666992 2 -2 2h-47c-1.33301 0 -2 -0.666992 -2 -2v-78h51v78zM388 -199c-69.333 0 -104 26.333 -104 79v359h-51v-239h-208v558c0 54 34.667 81 104 81h259c69.333 0 104 -27 104 -81v-596c0 -1.33301 0.666992 -2 2 -2h514v-159h-620zM645 0
c-36 0 -62.333 6.5 -79 19.5s-25 32.833 -25 59.5v479c0 54 34.667 81 104 81h155v160h208v-799h-363zM800 479h-49c-1.33301 0 -2 -0.666992 -2 -2v-316c0 -1.33301 0.666992 -2 2 -2h49v320z" />
    <glyph glyph-name="A.alt_D" unicode="AD" horiz-adv-x="1034" 
d="M284 477c0 1.33301 -0.666992 2 -2 2h-47c-1.33301 0 -2 -0.666992 -2 -2v-78h51v78zM388 -199c-69.333 0 -104 26.333 -104 79v359h-51v-239h-208v558c0 54 34.667 81 104 81h259c69.333 0 104 -27 104 -81v-596c0 -1.33301 0.666992 -2 2 -2h516v-159h-622zM802 477
c0 1.33301 -0.666992 2 -2 2h-49v-320h49c1.33301 0 2 0.666992 2 2v316zM543 0v639h363c69.333 0 104 -27 104 -81v-479c0 -52.667 -34.667 -79 -104 -79h-363z" />
    <glyph glyph-name="A.alt_e" unicode="Ae" horiz-adv-x="1032" 
d="M284 477c0 1.33301 -0.666992 2 -2 2h-47c-1.33301 0 -2 -0.666992 -2 -2v-78h51v78zM388 -199c-69.333 0 -104 26.333 -104 79v359h-51v-239h-208v558c0 54 34.667 81 104 81h259c69.333 0 104 -27 104 -81v-596c0 -1.33301 0.666992 -2 2 -2h514v-159h-620zM800 477
c0 1.33301 -0.666992 2 -2 2h-47c-1.33301 0 -2 -0.666992 -2 -2v-89h51v89zM645 0c-69.333 0 -104 26.333 -104 79v479c0 54 34.667 81 104 81h259c69.333 0 104 -27 104 -81v-319h-259v-78c0 -1.33301 0.666992 -2 2 -2h47c1.33301 0 2 0.666992 2 2v38h208v-120
c0 -52.667 -34.667 -79 -104 -79h-259z" />
    <glyph glyph-name="A.alt_E" unicode="AE" horiz-adv-x="920" 
d="M284 477c0 1.33301 -0.666992 2 -2 2h-47c-1.33301 0 -2 -0.666992 -2 -2v-78h51v78zM388 -199c-69.333 0 -104 26.333 -104 79v359h-51v-239h-208v558c0 54 34.667 81 104 81h259c69.333 0 104 -27 104 -81v-596c0 -1.33301 0.666992 -2 2 -2h402v-159h-508zM543 0v639
h352v-160h-144v-80h142v-160h-142v-80h145v-159h-353z" />
    <glyph glyph-name="A.alt_exclam" unicode="A&#x21;" horiz-adv-x="791" 
d="M284 477c0 1.33301 -0.666992 2 -2 2h-47c-1.33301 0 -2 -0.666992 -2 -2v-78h51v78zM388 -199c-69.333 0 -104 26.333 -104 79v359h-51v-239h-208v558c0 54 34.667 81 104 81h259c69.333 0 104 -27 104 -81v-596c0 -1.33301 0.666992 -2 2 -2h264v-159h-370zM550 0v159
h208v-159h-208zM550 199v440h208v-440h-208z" />
    <glyph glyph-name="A.alt_F" unicode="AF" horiz-adv-x="947" 
d="M284 477c0 1.33301 -0.666992 2 -2 2h-47c-1.33301 0 -2 -0.666992 -2 -2v-78h51v78zM388 -199c-69.333 0 -104 26.333 -104 79v359h-51v-239h-208v558c0 54 34.667 81 104 81h259c69.333 0 104 -27 104 -81v-596c0 -1.33301 0.666992 -2 2 -2h256v-159h-362zM542 0v558
c0 54 34.667 81 104 81h286v-160h-180c-1.33301 0 -2 -0.666992 -2 -2v-37h180v-160h-180v-280h-208z" />
    <glyph glyph-name="A.alt_G" unicode="Ag" horiz-adv-x="1033" 
d="M284 477c0 1.33301 -0.666992 2 -2 2h-47c-1.33301 0 -2 -0.666992 -2 -2v-78h51v78zM388 -199c-69.333 0 -104 26.333 -104 79v359h-51v-239h-208v558c0 54 34.667 81 104 81h259c69.333 0 104 -27 104 -81v-596c0 -1.33301 0.666992 -2 2 -2h514v-159h-620zM645 0
c-69.333 0 -104 26.333 -104 79v479c0 54 34.667 81 104 81h259c69.333 0 104 -27 104 -81v-108h-208v27c0 1.33301 -0.666992 2 -2 2h-47c-1.33301 0 -2 -0.666992 -2 -2v-316c0 -1.33301 0.666992 -2 2 -2h49v232h208v-391h-363z" />
    <glyph glyph-name="A.alt_h" unicode="Ah" horiz-adv-x="1035" 
d="M284 477c0 1.33301 -0.666992 2 -2 2h-47c-1.33301 0 -2 -0.666992 -2 -2v-78h51v78zM388 -199c-69.333 0 -104 26.333 -104 79v359h-51v-239h-208v558c0 54 34.667 81 104 81h259c69.333 0 104 -27 104 -81v-596c0 -1.33301 0.666992 -2 2 -2h516v-159h-622zM802 0v477
c0 1.33301 -0.666992 2 -2 2h-49v-479h-208v799h208v-160h155c69.333 0 104 -27 104 -81v-558h-208z" />
    <glyph glyph-name="A.alt_H" unicode="AH" horiz-adv-x="1036" 
d="M284 477c0 1.33301 -0.666992 2 -2 2h-47c-1.33301 0 -2 -0.666992 -2 -2v-78h51v78zM388 -199c-69.333 0 -104 26.333 -104 79v359h-51v-239h-208v558c0 54 34.667 81 104 81h259c69.333 0 104 -27 104 -81v-596c0 -1.33301 0.666992 -2 2 -2h516v-159h-622zM802 0v246
h-51v-246h-208v639h208v-246h51v246h208v-639h-208z" />
    <glyph glyph-name="A.alt_I" unicode="AI" horiz-adv-x="777" 
d="M284 477c0 1.33301 -0.666992 2 -2 2h-47c-1.33301 0 -2 -0.666992 -2 -2v-78h51v78zM388 -199c-69.333 0 -104 26.333 -104 79v359h-51v-239h-208v558c0 54 34.667 81 104 81h259c69.333 0 104 -27 104 -81v-596c0 -1.33301 0.666992 -2 2 -2h257v-159h-363zM543 0v639
h208v-639h-208z" />
    <glyph glyph-name="A.alt_J" unicode="AJ" horiz-adv-x="1027" 
d="M284 477c0 1.33301 -0.666992 2 -2 2h-47c-1.33301 0 -2 -0.666992 -2 -2v-78h51v78zM388 -199c-69.333 0 -104 26.333 -104 79v359h-51v-239h-208v558c0 54 34.667 81 104 81h259c69.333 0 104 -27 104 -81v-596c0 -1.33301 0.666992 -2 2 -2h508v-159h-614zM639 0
c-69.333 0 -104 26.333 -104 79v241h208v-159c0 -1.33301 0.666992 -2 2 -2h47c1.33301 0 2 0.666992 2 2v478h208v-560c0 -52.667 -34.667 -79 -104 -79h-259z" />
    <glyph glyph-name="A.alt_K" unicode="AK" horiz-adv-x="1029" 
d="M284 477c0 1.33301 -0.666992 2 -2 2h-47c-1.33301 0 -2 -0.666992 -2 -2v-78h51v78zM388 -199c-69.333 0 -104 26.333 -104 79v359h-51v-239h-208v558c0 54 34.667 81 104 81h259c69.333 0 104 -27 104 -81v-596c0 -1.33301 0.666992 -2 2 -2h537v-159h-643zM812 0
l-68 171v-171h-201v639h201v-163l62 163h219l-143 -308l149 -331h-219z" />
    <glyph glyph-name="A.alt_L" unicode="AL" horiz-adv-x="901" 
d="M284 477c0 1.33301 -0.666992 2 -2 2h-47c-1.33301 0 -2 -0.666992 -2 -2v-78h51v78zM388 -199c-69.333 0 -104 26.333 -104 79v359h-51v-239h-208v558c0 54 34.667 81 104 81h259c69.333 0 104 -27 104 -81v-596c0 -1.33301 0.666992 -2 2 -2h392v-159h-498zM543 0v639
h208v-480h135v-159h-343z" />
    <glyph glyph-name="A.alt_M" unicode="AM" horiz-adv-x="1294" 
d="M284 477c0 1.33301 -0.666992 2 -2 2h-47c-1.33301 0 -2 -0.666992 -2 -2v-78h51v78zM388 -199c-69.333 0 -104 26.333 -104 79v359h-51v-239h-208v558c0 54 34.667 81 104 81h259c69.333 0 104 -27 104 -81v-596c0 -1.33301 0.666992 -2 2 -2h775v-159h-881zM1063 0
l-0.000976562 477.001c0 1.33301 -0.666992 2 -2 2h-49c-1.33301 0 -2 -0.666992 -2 -2v-477h-208v477c0 1.33301 -0.666992 2 -2 2h-47c-1.33301 0 -2 -0.666992 -2 -2v-477h-208v639h208v-41c12.667 13.333 30.834 23.5 54.501 30.5s50.5 10.5 80.5 10.5
c30.667 0 54.5 -4 71.5 -12s31.167 -20 42.5 -36c15.333 19.333 34.5 32.166 57.5 38.499s50.833 9.5 83.5 9.5c18 0 34.833 -2.16699 50.5 -6.5s29.167 -10.5 40.5 -18.5s20.333 -17.5 27 -28.5s10 -22.833 10 -35.5v-550h-206z" />
    <glyph glyph-name="A.alt_N" unicode="AN" horiz-adv-x="1035" 
d="M284 477c0 1.33301 -0.666992 2 -2 2h-47c-1.33301 0 -2 -0.666992 -2 -2v-78h51v78zM388 -199c-69.333 0 -104 26.333 -104 79v359h-51v-239h-208v558c0 54 34.667 81 104 81h259c69.333 0 104 -27 104 -81v-596c0 -1.33301 0.666992 -2 2 -2h516v-159h-622zM802 0v477
c0 1.33301 -0.666992 2 -2 2h-47c-1.33301 0 -2 -0.666992 -2 -2v-477h-208v639h208v-41c35.333 27.333 87 41 155 41c69.333 0 104 -27 104 -81v-558h-208z" />
    <glyph glyph-name="A.alt_O" unicode="AO" horiz-adv-x="1032" 
d="M284 477c0 1.33301 -0.666992 2 -2 2h-47c-1.33301 0 -2 -0.666992 -2 -2v-78h51v78zM388 -199c-69.333 0 -104 26.333 -104 79v359h-51v-239h-208v558c0 54 34.667 81 104 81h259c69.333 0 104 -27 104 -81v-596c0 -1.33301 0.666992 -2 2 -2h514v-159h-620zM800 477
c0 1.33301 -0.666992 2 -2 2h-47c-1.33301 0 -2 -0.666992 -2 -2v-316c0 -1.33301 0.666992 -2 2 -2h47c1.33301 0 2 0.666992 2 2v316zM645 0c-69.333 0 -104 26.333 -104 79v479c0 54 34.667 81 104 81h259c69.333 0 104 -27 104 -81v-479c0 -52.667 -34.667 -79 -104 -79
h-259z" />
    <glyph glyph-name="A.alt_P" unicode="AP" horiz-adv-x="1025" 
d="M284 477c0 1.33301 -0.666992 2 -2 2h-47c-1.33301 0 -2 -0.666992 -2 -2v-78h51v78zM388 -199c-69.333 0 -104 26.333 -104 79v359h-51v-239h-208v558c0 54 34.667 81 104 81h259c69.333 0 104 -27 104 -81v-596c0 -1.33301 0.666992 -2 2 -2h257v-159h-363zM802 477
c0 1.33301 -0.666992 2 -2 2h-49v-89h49c1.33301 0 2 0.666992 2 2v85zM543 0v639h363c69.333 0 104 -27 104 -81v-238c0 -54 -34.667 -81 -104 -81h-155v-239h-208z" />
    <glyph glyph-name="A.alt_period" unicode="A&#x2e;" horiz-adv-x="777" 
d="M284 477c0 1.33301 -0.666992 2 -2 2h-47c-1.33301 0 -2 -0.666992 -2 -2v-78h51v78zM388 -199c-69.333 0 -104 26.333 -104 79v359h-51v-239h-208v558c0 54 34.667 81 104 81h259c69.333 0 104 -27 104 -81v-596c0 -1.33301 0.666992 -2 2 -2h257v-159h-363zM543 0v159
h208v-159h-208z" />
    <glyph glyph-name="A.alt_Q" unicode="AQ" horiz-adv-x="1034" 
d="M284 477c0 1.33301 -0.666992 2 -2 2h-47c-1.33301 0 -2 -0.666992 -2 -2v-78h51v78zM388 -199c-69.333 0 -104 26.333 -104 79v359h-51v-239h-208v558c0 54 34.667 81 104 81h259c69.333 0 104 -27 104 -81v-596c0 -1.33301 0.666992 -2 2 -2h258v-159h-364zM800 -199
v199h-155c-36 0 -62.333 6.5 -79 19.5s-25 32.833 -25 59.5v479c0 54 34.667 81 104 81h363v-838h-208zM800 479h-49c-1.33301 0 -2 -0.666992 -2 -2v-316c0 -1.33301 0.666992 -2 2 -2h49v320z" />
    <glyph glyph-name="A.alt_question" unicode="A&#x3f;" horiz-adv-x="1017" 
d="M284 477c0 1.33301 -0.666992 2 -2 2h-47c-1.33301 0 -2 -0.666992 -2 -2v-78h51v78zM388 -199c-69.333 0 -104 26.333 -104 79v359h-51v-239h-208v558c0 54 34.667 81 104 81h259c69.333 0 104 -27 104 -81v-596c0 -1.33301 0.666992 -2 2 -2h259v-159h-365zM545 0v159
h208v-159h-208zM755 239c-1.33301 0 -2 -0.666992 -2 -2v-38h-208v121c0 52.667 34.667 79 104 79h145c1.33301 0 2 0.666992 2 2v76c0 1.33301 -0.666992 2 -2 2h-47c-1.33301 0 -2 -0.666992 -2 -2v-37h-208v118c0 54 34.667 81 104 81h259c69.333 0 104 -27 104 -81v-238
c0 -54 -34.667 -81 -104 -81h-145z" />
    <glyph glyph-name="A.alt_R" unicode="AR" horiz-adv-x="1035" 
d="M284 477c0 1.33301 -0.666992 2 -2 2h-47c-1.33301 0 -2 -0.666992 -2 -2v-78h51v78zM388 -199c-69.333 0 -104 26.333 -104 79v359h-51v-239h-208v558c0 54 34.667 81 104 81h259c69.333 0 104 -27 104 -81v-596c0 -1.33301 0.666992 -2 2 -2h516v-159h-622zM802 0
v254.001c0 1.33301 -0.666992 2 -2 2h-49v-256h-208v639h363c68.667 0 103 -27 103 -81v-186c0 -30.667 -17 -48 -51 -52c34.667 -4.66699 52 -22.334 52 -53.001v-267h-208zM802 477.001c0 1.33301 -0.666992 2 -2 2h-49v-96h49c1.33301 0 2 0.666992 2 2v92z" />
    <glyph glyph-name="A.alt_S" unicode="AS" horiz-adv-x="1032" 
d="M284 477c0 1.33301 -0.666992 2 -2 2h-47c-1.33301 0 -2 -0.666992 -2 -2v-78h51v78zM388 -199c-69.333 0 -104 26.333 -104 79v359h-51v-239h-208v558c0 54 34.667 81 104 81h259c69.333 0 104 -27 104 -81v-596c0 -1.33301 0.666992 -2 2 -2h514v-159h-620zM645 0
c-69.333 0 -104 26.333 -104 79v120h208v-38c0 -1.33301 0.666992 -2 2 -2h47c1.33301 0 2 0.666992 2 2v76c0 1.33301 -0.666992 2 -2 2h-153c-69.333 0 -104 27 -104 81v238c0 54 34.667 81 104 81h259c69.333 0 104 -27 104 -81v-118h-208v37c0 1.33301 -0.666992 2 -2 2
h-47c-1.33301 0 -2 -0.666992 -2 -2v-76c0 -1.33301 0.666992 -2 2 -2h153c69.333 0 104 -26.333 104 -79v-241c0 -52.667 -34.667 -79 -104 -79h-259z" />
    <glyph glyph-name="A.alt_T" unicode="AT" horiz-adv-x="1066" 
d="M284 477c0 1.33301 -0.666992 2 -2 2h-47c-1.33301 0 -2 -0.666992 -2 -2v-78h51v78zM388 -199c-69.333 0 -104 26.333 -104 79v359h-51v-239h-208v558c0 54 34.667 81 104 81h259c69.333 0 104 -27 104 -81v-596c0 -1.33301 0.666992 -2 2 -2h547v-159h-653zM678 0
c-69.333 0 -104 26.333 -104 79v361h-51v158h51v41h208v-41h259v-158h-259v-279c0 -1.33301 0.666992 -2 2 -2h48c1.33301 0 2 0.666992 2 2v238h207v-320c0 -52.667 -34.667 -79 -104 -79h-259z" />
    <glyph glyph-name="A.alt_U" unicode="AU" horiz-adv-x="1034" 
d="M284 477c0 1.33301 -0.666992 2 -2 2h-47c-1.33301 0 -2 -0.666992 -2 -2v-78h51v78zM388 -199c-69.333 0 -104 26.333 -104 79v359h-51v-239h-208v558c0 54 34.667 81 104 81h259c69.333 0 104 -27 104 -81v-596c0 -1.33301 0.666992 -2 2 -2h515v-159h-621zM646 0
c-69.333 0 -104 26.333 -104 79v560h208v-478c0 -1.33301 0.666992 -2 2 -2h47c1.33301 0 2 0.666992 2 2v478h208v-560c0 -52.667 -34.667 -79 -104 -79h-259z" />
    <glyph glyph-name="A.alt_Y" unicode="Ay" horiz-adv-x="1018" 
d="M284 477c0 1.33301 -0.666992 2 -2 2h-47c-1.33301 0 -2 -0.666992 -2 -2v-78h51v78zM388 -199c-69.333 0 -104 26.333 -104 79v359h-51v-239h-208v558c0 54 34.667 81 104 81h259c69.333 0 104 -27 104 -81v-596c0 -1.33301 0.666992 -2 2 -2h380v-159h-486zM666 0v228
c-87.333 0 -131 43.333 -131 130v281h208v-259c0 -1.33301 0.666992 -2 2 -2h47c1.33301 0 2 0.666992 2 2v259h208v-281c0 -86.667 -42.667 -130 -128 -130v-228h-208z" />
    <glyph glyph-name="A.alt_Z" unicode="AZ" horiz-adv-x="1027" 
d="M284 477c0 1.33301 -0.666992 2 -2 2h-47c-1.33301 0 -2 -0.666992 -2 -2v-78h51v78zM388 -199c-69.333 0 -104 26.333 -104 79v359h-51v-239h-208v558c0 54 34.667 81 104 81h259c69.333 0 104 -27 104 -81v-596c0 -1.33301 0.666992 -2 2 -2h513v-159h-619zM540 0v164
l223 315h-223v160h467v-149l-216 -331h216v-159h-467z" />
    <glyph glyph-name="b_Y.2" unicode="by" horiz-adv-x="1035" 
d="M26 0v799h208v-160h155c69.333 0 104 -27 104 -81v-479c0 -52.667 -34.667 -79 -104 -79h-363zM285 477c0 1.33301 -0.666992 2 -2 2h-49v-320h49c1.33301 0 2 0.666992 2 2v316zM26 -199v159h773c1.33301 0 2 0.666992 2 2v38h-155c-69.333 -0 -104 26.333 -104 79v560
h208v-478c0 -1.33301 0.666992 -2 2 -2h49v480h208v-759c0 -52.667 -34.667 -79 -104 -79h-879z" />
    <glyph glyph-name="B_Y.2" unicode="By" horiz-adv-x="1035" 
d="M285 477c0 1.33301 -0.666992 2 -2 2h-49v-96h49c1.33301 0 2 0.666992 2 2v92zM26 0v639.001h363c68.667 0 103 -27 103 -81v-186c0 -30.667 -17 -48 -51 -52c34.667 -4.66699 52 -22.334 52 -53.001v-188c0 -52.667 -34.667 -79 -104 -79h-363zM285 254.001
c0 1.33301 -0.666992 2 -2 2h-49v-97h49c1.33301 0 2 0.666992 2 2v93zM26 -198.999v159h773c1.33301 0 2 0.666992 2 2v38h-155c-69.333 0 -104 26.333 -104 79v560h208v-478c0 -1.33301 0.666992 -2 2 -2h49v480h208v-759c0 -52.667 -34.667 -79 -104 -79h-879z" />
    <glyph glyph-name="C_Y.2" unicode="Cy" horiz-adv-x="1032" 
d="M128 0c-69.333 0 -104 26.333 -104 79v479c0 54 34.667 81 104 81h259c69.333 0 104 -27 104 -81v-189h-208v108c0 1.33301 -0.666992 2 -2 2h-47c-1.33301 0 -2 -0.666992 -2 -2v-316c0 -1.33301 0.666992 -2 2 -2h47c1.33301 0 2 0.666992 2 2v149h208v-231
c0 -52.667 -34.667 -79 -104 -79h-259zM24 -199v159h772c1.33301 0 2 0.666992 2 2v38h-155c-69.333 -0 -104 26.333 -104 79v560h208v-478c0 -1.33301 0.666992 -2 2 -2h49v480h208v-759c0 -52.667 -34.667 -79 -104 -79h-878z" />
    <glyph glyph-name="D_F.2" unicode="DF" horiz-adv-x="947" 
d="M285 477c0 1.33301 -0.666992 2 -2 2h-49v-320h49c1.33301 0 2 0.666992 2 2v316zM26 0v639h363c69.333 0 104 -27 104 -81v-479c0 -52.667 -34.667 -79 -104 -79h-363zM26 -199v159h514c1.33301 0 2 0.666992 2 2v596c0 54 34.667 81 104 81h286v-160h-180
c-1.33301 0 -2 -0.666992 -2 -2v-37h180v-160h-180v-400c0 -52.667 -34.667 -79 -104 -79h-620z" />
    <glyph glyph-name="d_G.2" unicode="dg" horiz-adv-x="1034" 
d="M128 0c-36 0 -62.333 6.5 -79 19.5s-25 32.833 -25 59.5v479c0 54 34.667 81 104 81h155v160h208v-799h-363zM283 479h-49c-1.33301 0 -2 -0.666992 -2 -2v-316c0 -1.33301 0.666992 -2 2 -2h49v320zM24 -199v159h774c1.33301 0 2 0.666992 2 2v38h-155
c-69.333 -0 -104 26.333 -104 79v479c0 54 34.667 81 104 81h363v-759c0 -52.667 -34.667 -79 -104 -79h-880zM800 479h-49c-1.33301 0 -2 -0.666992 -2 -2v-316c0 -1.33301 0.666992 -2 2 -2h49v320z" />
    <glyph glyph-name="D_G.2" unicode="Dg" horiz-adv-x="1034" 
d="M285 477c0 1.33301 -0.666992 2 -2 2h-49v-320h49c1.33301 0 2 0.666992 2 2v316zM26 0v639h363c69.333 0 104 -27 104 -81v-479c0 -52.667 -34.667 -79 -104 -79h-363zM26 -199v159h772c1.33301 0 2 0.666992 2 2v38h-155c-69.333 -0 -104 26.333 -104 79v479
c0 54 34.667 81 104 81h363v-759c0 -52.667 -34.667 -79 -104 -79h-878zM800 479h-49c-1.33301 0 -2 -0.666992 -2 -2v-316c0 -1.33301 0.666992 -2 2 -2h49v320z" />
    <glyph glyph-name="d_Y.2" unicode="dy" horiz-adv-x="1034" 
d="M128 0c-36 0 -62.333 6.5 -79 19.5s-25 32.833 -25 59.5v479c0 54 34.667 81 104 81h155v160h208v-799h-363zM283 479h-49c-1.33301 0 -2 -0.666992 -2 -2v-316c0 -1.33301 0.666992 -2 2 -2h49v320zM24 -199v159h774c1.33301 0 2 0.666992 2 2v38h-155
c-69.333 -0 -104 26.333 -104 79v560h208v-478c0 -1.33301 0.666992 -2 2 -2h49v480h208v-759c0 -52.667 -34.667 -79 -104 -79h-880z" />
    <glyph glyph-name="D_Y.2" unicode="Dy" horiz-adv-x="1034" 
d="M285 477c0 1.33301 -0.666992 2 -2 2h-49v-320h49c1.33301 0 2 0.666992 2 2v316zM26 0v639h363c69.333 0 104 -27 104 -81v-479c0 -52.667 -34.667 -79 -104 -79h-363zM26 -199v159h772c1.33301 0 2 0.666992 2 2v38h-155c-69.333 -0 -104 26.333 -104 79v560h208v-478
c0 -1.33301 0.666992 -2 2 -2h49v480h208v-759c0 -52.667 -34.667 -79 -104 -79h-878z" />
    <glyph glyph-name="e_F.2" unicode="eF" horiz-adv-x="945" 
d="M283 477c0 1.33301 -0.666992 2 -2 2h-47c-1.33301 0 -2 -0.666992 -2 -2v-89h51v89zM128 0c-69.333 0 -104 26.333 -104 79v479c0 54 34.667 81 104 81h259c69.333 0 104 -27 104 -81v-319h-259v-78c0 -1.33301 0.666992 -2 2 -2h47c1.33301 0 2 0.666992 2 2v38h208
v-120c0 -52.667 -34.667 -79 -104 -79h-259zM24 -199v159h514c1.33301 0 2 0.666992 2 2v596c0 54 34.667 81 104 81h286v-160h-180c-1.33301 0 -2 -0.666992 -2 -2v-37h180v-160h-180v-400c0 -52.667 -34.667 -79 -104 -79h-620z" />
    <glyph glyph-name="E_F.2" unicode="EF" horiz-adv-x="833" 
d="M26 0v639h352v-160h-144v-80h142v-160h-142v-80h145v-159h-353zM27 -199v159h399c1.33301 0 2 0.666992 2 2v596c0 54 34.667 81 104 81h286v-160h-180c-1.33301 0 -2 -0.666992 -2 -2v-37h180v-160h-180v-400c0 -52.667 -34.667 -79 -104 -79h-505z" />
    <glyph glyph-name="e_G.2" unicode="eg" horiz-adv-x="1032" 
d="M283 477c0 1.33301 -0.666992 2 -2 2h-47c-1.33301 0 -2 -0.666992 -2 -2v-89h51v89zM128 0c-69.333 0 -104 26.333 -104 79v479c0 54 34.667 81 104 81h259c69.333 0 104 -27 104 -81v-319h-259v-78c0 -1.33301 0.666992 -2 2 -2h47c1.33301 0 2 0.666992 2 2v38h208
v-120c0 -52.667 -34.667 -79 -104 -79h-259zM24 -199v159h772c1.33301 0 2 0.666992 2 2v38h-155c-69.333 -0 -104 26.333 -104 79v479c0 54 34.667 81 104 81h363v-759c0 -52.667 -34.667 -79 -104 -79h-878zM798 479h-49c-1.33301 0 -2 -0.666992 -2 -2v-316
c0 -1.33301 0.666992 -2 2 -2h49v320z" />
    <glyph glyph-name="E_G.2" unicode="Eg" horiz-adv-x="920" 
d="M26 0v639h352v-160h-144v-80h142v-160h-142v-80h145v-159h-353zM27 -199v159h657c1.33301 0 2 0.666992 2 2v38h-155c-69.333 -0 -104 26.333 -104 79v479c0 54 34.667 81 104 81h363v-759c0 -52.667 -34.667 -79 -104 -79h-763zM686 479h-49
c-1.33301 0 -2 -0.666992 -2 -2v-316c0 -1.33301 0.666992 -2 2 -2h49v320z" />
    <glyph glyph-name="e_Y.2" unicode="ey" horiz-adv-x="1032" 
d="M283 477c0 1.33301 -0.666992 2 -2 2h-47c-1.33301 0 -2 -0.666992 -2 -2v-89h51v89zM128 0c-69.333 0 -104 26.333 -104 79v479c0 54 34.667 81 104 81h259c69.333 0 104 -27 104 -81v-319h-259v-78c0 -1.33301 0.666992 -2 2 -2h47c1.33301 0 2 0.666992 2 2v38h208
v-120c0 -52.667 -34.667 -79 -104 -79h-259zM24 -199v159h772c1.33301 0 2 0.666992 2 2v38h-155c-69.333 -0 -104 26.333 -104 79v560h208v-478c0 -1.33301 0.666992 -2 2 -2h49v480h208v-759c0 -52.667 -34.667 -79 -104 -79h-878z" />
    <glyph glyph-name="E_Y.2" unicode="Ey" horiz-adv-x="920" 
d="M26 0v639h352v-160h-144v-80h142v-160h-142v-80h145v-159h-353zM26 -199v159h658c1.33301 0 2 0.666992 2 2v38h-155c-69.333 -0 -104 26.333 -104 79v560h208v-478c0 -1.33301 0.666992 -2 2 -2h49v480h208v-759c0 -52.667 -34.667 -79 -104 -79h-764z" />
    <glyph glyph-name="F_F.2" unicode="FF" horiz-adv-x="860" 
d="M25 0v558c0 54 34.667 81 104 81h286v-160h-180c-1.33301 0 -2 -0.666992 -2 -2v-37h180v-160h-180v-280h-208zM25 -199v159h428c1.33301 0 2 0.666992 2 2v596c0 54 34.667 81 104 81h286v-160h-180c-1.33301 0 -2 -0.666992 -2 -2v-37h180v-160h-180v-400
c0 -52.667 -34.667 -79 -104 -79h-534z" />
    <glyph glyph-name="F_Y.2" unicode="Fy" horiz-adv-x="947" 
d="M25 0v558c0 54 34.667 81 104 81h286v-160h-180c-1.33301 0 -2 -0.666992 -2 -2v-37h180v-160h-180v-280h-208zM25 -199v159h686c1.33301 0 2 0.666992 2 2v38h-155c-69.333 -0 -104 26.333 -104 79v560h208v-478c0 -1.33301 0.666992 -2 2 -2h49v480h208v-759
c0 -52.667 -34.667 -79 -104 -79h-792z" />
    <glyph glyph-name="G_Y.2" unicode="gy" horiz-adv-x="1033" 
d="M128 0c-69.333 0 -104 26.333 -104 79v479c0 54 34.667 81 104 81h259c69.333 0 104 -27 104 -81v-108h-208v27c0 1.33301 -0.666992 2 -2 2h-47c-1.33301 0 -2 -0.666992 -2 -2v-316c0 -1.33301 0.666992 -2 2 -2h49v232h208v-391h-363zM24 -199v159h773
c1.33301 0 2 0.666992 2 2v38h-155c-69.333 -0 -104 26.333 -104 79v560h208v-478c0 -1.33301 0.666992 -2 2 -2h49v480h208v-759c0 -52.667 -34.667 -79 -104 -79h-879z" />
    <glyph glyph-name="h.alt_a" unicode="ha" horiz-adv-x="1034" 
d="M390 -199c-70 0 -105 26.333 -105 79v597c0 1.33301 -0.666992 2 -2 2h-49v-479h-208v799h208v-160h155c69.333 0 104 -27 104 -81v-596c0 -1.33301 0.666992 -2 2 -2h514v-159h-619zM801 259h-49c-1.33301 0 -2 -0.666992 -2 -2v-96c0 -1.33301 0.666992 -2 2 -2h49v100
zM646 0c-69.333 0 -104 26.333 -104 79v241c0 52.667 34.667 79 104 79h155v78c0 1.33301 -0.666992 2 -2 2h-47c-1.33301 0 -2 -0.666992 -2 -2v-37h-208v118c0 54 34.667 81 104 81h259c69.333 0 104 -27 104 -81v-558h-363z" />
    <glyph glyph-name="h.alt_A" unicode="hA" horiz-adv-x="1035" 
d="M390 -199c-70 0 -105 26.333 -105 79v597c0 1.33301 -0.666992 2 -2 2h-49v-479h-208v799h208v-160h155c69.333 0 104 -27 104 -81v-596c0 -1.33301 0.666992 -2 2 -2h515v-159h-620zM802 477c0 1.33301 -0.666992 2 -2 2h-47c-1.33301 0 -2 -0.666992 -2 -2v-78h51v78z
M802 0v239h-51v-239h-208v558c0 54 34.667 81 104 81h259c69.333 0 104 -27 104 -81v-558h-208z" />
    <glyph glyph-name="H.alt_a" unicode="Ha" horiz-adv-x="1035" 
d="M389 -199c-69.333 0 -104 26.333 -104 79v366h-51v-246h-208v639h208v-246h51v246h208v-677c0 -1.33301 0.666992 -2 2 -2h515v-159h-621zM802 259h-49c-1.33301 0 -2 -0.666992 -2 -2v-96c0 -1.33301 0.666992 -2 2 -2h49v100zM647 0c-69.333 0 -104 26.333 -104 79v241
c0 52.667 34.667 79 104 79h155v78c0 1.33301 -0.666992 2 -2 2h-47c-1.33301 0 -2 -0.666992 -2 -2v-37h-208v118c0 54 34.667 81 104 81h259c69.333 0 104 -27 104 -81v-558h-363z" />
    <glyph glyph-name="H.alt_A" unicode="HA" horiz-adv-x="1036" 
d="M389 -199c-69.333 0 -104 26.333 -104 79v366h-51v-246h-208v639h208v-246h51v246h208v-677c0 -1.33301 0.666992 -2 2 -2h516v-159h-622zM803 477c0 1.33301 -0.666992 2 -2 2h-47c-1.33301 0 -2 -0.666992 -2 -2v-78h51v78zM803 0v239h-51v-239h-208v558
c0 54 34.667 81 104 81h259c69.333 0 104 -27 104 -81v-558h-208z" />
    <glyph glyph-name="H.alt_C" unicode="Hc" horiz-adv-x="1034" 
d="M389 -199c-69.333 0 -104 26.333 -104 79v366h-51v-246h-208v639h208v-246h51v246h208v-677c0 -1.33301 0.666992 -2 2 -2h515v-159h-621zM647 0c-69.333 0 -104 26.333 -104 79v479c0 54 34.667 81 104 81h259c69.333 0 104 -27 104 -81v-189h-208v108
c0 1.33301 -0.666992 2 -2 2h-47c-1.33301 0 -2 -0.666992 -2 -2v-316c0 -1.33301 0.666992 -2 2 -2h47c1.33301 0 2 0.666992 2 2v149h208v-231c0 -52.667 -34.667 -79 -104 -79h-259z" />
    <glyph glyph-name="h.alt_d" unicode="hd" horiz-adv-x="1035" 
d="M390 -199c-70 0 -105 26.333 -105 79v597c0 1.33301 -0.666992 2 -2 2h-49v-479h-208v799h208v-160h155c69.333 0 104 -27 104 -81v-596c0 -1.33301 0.666992 -2 2 -2h514v-159h-619zM646 0c-36 0 -62.333 6.5 -79 19.5s-25 32.833 -25 59.5v479c0 54 34.667 81 104 81
h155v160h208v-799h-363zM801 479h-49c-1.33301 0 -2 -0.666992 -2 -2v-316c0 -1.33301 0.666992 -2 2 -2h49v320z" />
    <glyph glyph-name="h.alt_D" unicode="hD" horiz-adv-x="1035" 
d="M390 -199c-70 0 -105 26.333 -105 79v597c0 1.33301 -0.666992 2 -2 2h-49v-479h-208v799h208v-160h155c69.333 0 104 -27 104 -81v-596c0 -1.33301 0.666992 -2 2 -2h516v-159h-621zM803 477c0 1.33301 -0.666992 2 -2 2h-49v-320h49c1.33301 0 2 0.666992 2 2v316z
M544 0v639h363c69.333 0 104 -27 104 -81v-479c0 -52.667 -34.667 -79 -104 -79h-363z" />
    <glyph glyph-name="H.alt_d" unicode="Hd" horiz-adv-x="1036" 
d="M389 -199c-69.333 0 -104 26.333 -104 79v366h-51v-246h-208v639h208v-246h51v246h208v-677c0 -1.33301 0.666992 -2 2 -2h515v-159h-621zM647 0c-36 0 -62.333 6.5 -79 19.5s-25 32.833 -25 59.5v479c0 54 34.667 81 104 81h155v160h208v-799h-363zM802 479h-49
c-1.33301 0 -2 -0.666992 -2 -2v-316c0 -1.33301 0.666992 -2 2 -2h49v320z" />
    <glyph glyph-name="H.alt_D" unicode="HD" horiz-adv-x="1036" 
d="M389 -199c-69.333 0 -104 26.333 -104 79v366h-51v-246h-208v639h208v-246h51v246h208v-677c0 -1.33301 0.666992 -2 2 -2h517v-159h-623zM804 477c0 1.33301 -0.666992 2 -2 2h-49v-320h49c1.33301 0 2 0.666992 2 2v316zM545 0v639h363c69.333 0 104 -27 104 -81v-479
c0 -52.667 -34.667 -79 -104 -79h-363z" />
    <glyph glyph-name="h.alt_e" unicode="he" horiz-adv-x="1033" 
d="M390 -199c-70 0 -105 26.333 -105 79v597c0 1.33301 -0.666992 2 -2 2h-49v-479h-208v799h208v-160h155c69.333 0 104 -27 104 -81v-596c0 -1.33301 0.666992 -2 2 -2h514v-159h-619zM801 477c0 1.33301 -0.666992 2 -2 2h-47c-1.33301 0 -2 -0.666992 -2 -2v-89h51v89z
M646 0c-69.333 0 -104 26.333 -104 79v479c0 54 34.667 81 104 81h259c69.333 0 104 -27 104 -81v-319h-259v-78c0 -1.33301 0.666992 -2 2 -2h47c1.33301 0 2 0.666992 2 2v38h208v-120c0 -52.667 -34.667 -79 -104 -79h-259z" />
    <glyph glyph-name="h.alt_E" unicode="hE" horiz-adv-x="921" 
d="M390 -199c-70 0 -105 26.333 -105 79v597c0 1.33301 -0.666992 2 -2 2h-49v-479h-208v799h208v-160h155c69.333 0 104 -27 104 -81v-596c0 -1.33301 0.666992 -2 2 -2h402v-159h-507zM544 0v639h352v-160h-144v-80h142v-160h-142v-80h145v-159h-353z" />
    <glyph glyph-name="H.alt_e" unicode="He" horiz-adv-x="1034" 
d="M389 -199c-69.333 0 -104 26.333 -104 79v366h-51v-246h-208v639h208v-246h51v246h208v-677c0 -1.33301 0.666992 -2 2 -2h515v-159h-621zM802 477c0 1.33301 -0.666992 2 -2 2h-47c-1.33301 0 -2 -0.666992 -2 -2v-89h51v89zM647 0c-69.333 0 -104 26.333 -104 79v479
c0 54 34.667 81 104 81h259c69.333 0 104 -27 104 -81v-319h-259v-78c0 -1.33301 0.666992 -2 2 -2h47c1.33301 0 2 0.666992 2 2v38h208v-120c0 -52.667 -34.667 -79 -104 -79h-259z" />
    <glyph glyph-name="H.alt_E" unicode="HE" horiz-adv-x="922" 
d="M389 -199c-69.333 0 -104 26.333 -104 79v366h-51v-246h-208v639h208v-246h51v246h208v-677c0 -1.33301 0.666992 -2 2 -2h403v-159h-509zM545 0v639h352v-160h-144v-80h142v-160h-142v-80h145v-159h-353z" />
    <glyph glyph-name="H.alt_exclam" unicode="H&#x21;" horiz-adv-x="793" 
d="M389 -199c-69.333 0 -104 26.333 -104 79v366h-51v-246h-208v639h208v-246h51v246h208v-677c0 -1.33301 0.666992 -2 2 -2h265v-159h-371zM552 0v159h208v-159h-208zM552 199v440h208v-440h-208z" />
    <glyph glyph-name="h.alt_I" unicode="hI" horiz-adv-x="778" 
d="M390 -199c-70 0 -105 26.333 -105 79v597c0 1.33301 -0.666992 2 -2 2h-49v-479h-208v799h208v-160h155c69.333 0 104 -27 104 -81v-596c0 -1.33301 0.666992 -2 2 -2h257v-159h-362zM544 0v639h208v-639h-208z" />
    <glyph glyph-name="H.alt_I" unicode="HI" horiz-adv-x="779" 
d="M389 -199c-69.333 0 -104 26.333 -104 79v366h-51v-246h-208v639h208v-246h51v246h208v-677c0 -1.33301 0.666992 -2 2 -2h258v-159h-364zM545 0v639h208v-639h-208z" />
    <glyph glyph-name="h.alt_L" unicode="hL" horiz-adv-x="902" 
d="M390 -199c-70 0 -105 26.333 -105 79v597c0 1.33301 -0.666992 2 -2 2h-49v-479h-208v799h208v-160h155c69.333 0 104 -27 104 -81v-596c0 -1.33301 0.666992 -2 2 -2h392v-159h-497zM544 0v639h208v-480h135v-159h-343z" />
    <glyph glyph-name="H.alt_L" unicode="HL" horiz-adv-x="903" 
d="M389 -199c-69.333 0 -104 26.333 -104 79v366h-51v-246h-208v639h208v-246h51v246h208v-677c0 -1.33301 0.666992 -2 2 -2h393v-159h-499zM545 0v639h208v-480h135v-159h-343z" />
    <glyph glyph-name="h.alt_M" unicode="hM" horiz-adv-x="1295" 
d="M390 -199c-70 0 -105 26.333 -105 79v597c0 1.33301 -0.666992 2 -2 2h-49v-479h-208v799h208v-160h155c69.333 0 104 -27 104 -81v-596c0 -1.33301 0.666992 -2 2 -2h775v-159h-880zM1064 0l-0.000976562 477.001c0 1.33301 -0.666992 2 -2 2h-49
c-1.33301 0 -2 -0.666992 -2 -2v-477h-208v477c0 1.33301 -0.666992 2 -2 2h-47c-1.33301 0 -2 -0.666992 -2 -2v-477h-208v639h208v-41c12.667 13.333 30.834 23.5 54.501 30.5s50.5 10.5 80.5 10.5c30.667 0 54.5 -4 71.5 -12s31.167 -20 42.5 -36
c15.333 19.333 34.5 32.166 57.5 38.499s50.833 9.5 83.5 9.5c18 0 34.833 -2.16699 50.5 -6.5s29.167 -10.5 40.5 -18.5s20.333 -17.5 27 -28.5s10 -22.833 10 -35.5v-550h-206z" />
    <glyph glyph-name="H.alt_M" unicode="HM" horiz-adv-x="1296" 
d="M389 -199c-69.333 0 -104 26.333 -104 79v366h-51v-246h-208v639h208v-246h51v246h208v-677c0 -1.33301 0.666992 -2 2 -2h776v-159h-882zM1065 0l-0.000976562 477.001c0 1.33301 -0.666992 2 -2 2h-49c-1.33301 0 -2 -0.666992 -2 -2v-477h-208v477
c0 1.33301 -0.666992 2 -2 2h-47c-1.33301 0 -2 -0.666992 -2 -2v-477h-208v639h208v-41c12.667 13.333 30.834 23.5 54.501 30.5s50.5 10.5 80.5 10.5c30.667 0 54.5 -4 71.5 -12s31.167 -20 42.5 -36c15.333 19.333 34.5 32.166 57.5 38.499s50.833 9.5 83.5 9.5
c18 0 34.833 -2.16699 50.5 -6.5s29.167 -10.5 40.5 -18.5s20.333 -17.5 27 -28.5s10 -22.833 10 -35.5v-550h-206z" />
    <glyph glyph-name="h.alt_N" unicode="hN" horiz-adv-x="1036" 
d="M390 -199c-70 0 -105 26.333 -105 79v597c0 1.33301 -0.666992 2 -2 2h-49v-479h-208v799h208v-160h155c69.333 0 104 -27 104 -81v-596c0 -1.33301 0.666992 -2 2 -2h516v-159h-621zM803 0v477c0 1.33301 -0.666992 2 -2 2h-47c-1.33301 0 -2 -0.666992 -2 -2v-477h-208
v639h208v-41c35.333 27.333 87 41 155 41c69.333 0 104 -27 104 -81v-558h-208z" />
    <glyph glyph-name="H.alt_N" unicode="HN" horiz-adv-x="1037" 
d="M389 -199c-69.333 0 -104 26.333 -104 79v366h-51v-246h-208v639h208v-246h51v246h208v-677c0 -1.33301 0.666992 -2 2 -2h517v-159h-623zM804 0v477c0 1.33301 -0.666992 2 -2 2h-47c-1.33301 0 -2 -0.666992 -2 -2v-477h-208v639h208v-41c35.333 27.333 87 41 155 41
c69.333 0 104 -27 104 -81v-558h-208z" />
    <glyph glyph-name="h.alt_O" unicode="hO" horiz-adv-x="1033" 
d="M390 -199c-70 0 -105 26.333 -105 79v597c0 1.33301 -0.666992 2 -2 2h-49v-479h-208v799h208v-160h155c69.333 0 104 -27 104 -81v-596c0 -1.33301 0.666992 -2 2 -2h514v-159h-619zM801 477c0 1.33301 -0.666992 2 -2 2h-47c-1.33301 0 -2 -0.666992 -2 -2v-316
c0 -1.33301 0.666992 -2 2 -2h47c1.33301 0 2 0.666992 2 2v316zM646 0c-69.333 0 -104 26.333 -104 79v479c0 54 34.667 81 104 81h259c69.333 0 104 -27 104 -81v-479c0 -52.667 -34.667 -79 -104 -79h-259z" />
    <glyph glyph-name="H.alt_O" unicode="HO" horiz-adv-x="1034" 
d="M389 -199c-69.333 0 -104 26.333 -104 79v366h-51v-246h-208v639h208v-246h51v246h208v-677c0 -1.33301 0.666992 -2 2 -2h515v-159h-621zM802 477c0 1.33301 -0.666992 2 -2 2h-47c-1.33301 0 -2 -0.666992 -2 -2v-316c0 -1.33301 0.666992 -2 2 -2h47
c1.33301 0 2 0.666992 2 2v316zM647 0c-69.333 0 -104 26.333 -104 79v479c0 54 34.667 81 104 81h259c69.333 0 104 -27 104 -81v-479c0 -52.667 -34.667 -79 -104 -79h-259z" />
    <glyph glyph-name="h.alt_P" unicode="hP" horiz-adv-x="1026" 
d="M390 -199c-70 0 -105 26.333 -105 79v597c0 1.33301 -0.666992 2 -2 2h-49v-479h-208v799h208v-160h155c69.333 0 104 -27 104 -81v-596c0 -1.33301 0.666992 -2 2 -2h257v-159h-362zM803 477c0 1.33301 -0.666992 2 -2 2h-49v-89h49c1.33301 0 2 0.666992 2 2v85zM544 0
v639h363c69.333 0 104 -27 104 -81v-238c0 -54 -34.667 -81 -104 -81h-155v-239h-208z" />
    <glyph glyph-name="H.alt_P" unicode="HP" horiz-adv-x="1027" 
d="M389 -199c-69.333 0 -104 26.333 -104 79v366h-51v-246h-208v639h208v-246h51v246h208v-677c0 -1.33301 0.666992 -2 2 -2h258v-159h-364zM804 477c0 1.33301 -0.666992 2 -2 2h-49v-89h49c1.33301 0 2 0.666992 2 2v85zM545 0v639h363c69.333 0 104 -27 104 -81v-238
c0 -54 -34.667 -81 -104 -81h-155v-239h-208z" />
    <glyph glyph-name="h.alt_period" unicode="h&#x2e;" horiz-adv-x="778" 
d="M390 -199c-70 0 -105 26.333 -105 79v597c0 1.33301 -0.666992 2 -2 2h-49v-479h-208v799h208v-160h155c69.333 0 104 -27 104 -81v-596c0 -1.33301 0.666992 -2 2 -2h257v-159h-362zM544 0v159h208v-159h-208z" />
    <glyph glyph-name="H.alt_period" unicode="H&#x2e;" horiz-adv-x="779" 
d="M389 -199c-69.333 0 -104 26.333 -104 79v366h-51v-246h-208v639h208v-246h51v246h208v-677c0 -1.33301 0.666992 -2 2 -2h258v-159h-364zM545 0v159h208v-159h-208z" />
    <glyph glyph-name="H.alt_question" unicode="H&#x3f;" horiz-adv-x="1019" 
d="M389 -199c-69.333 0 -104 26.333 -104 79v366h-51v-246h-208v639h208v-246h51v246h208v-677c0 -1.33301 0.666992 -2 2 -2h260v-159h-366zM547 0v159h208v-159h-208zM757 239c-1.33301 0 -2 -0.666992 -2 -2v-38h-208v121c0 52.667 34.667 79 104 79h145
c1.33301 0 2 0.666992 2 2v76c0 1.33301 -0.666992 2 -2 2h-47c-1.33301 0 -2 -0.666992 -2 -2v-37h-208v118c0 54 34.667 81 104 81h259c69.333 0 104 -27 104 -81v-238c0 -54 -34.667 -81 -104 -81h-145z" />
    <glyph glyph-name="h.alt_R" unicode="hR" horiz-adv-x="1036" 
d="M390 -199c-70 0 -105 26.333 -105 79v597c0 1.33301 -0.666992 2 -2 2h-49v-479h-208v799h208v-160h155c69.333 0 104 -27 104 -81v-596c0 -1.33301 0.666992 -2 2 -2h516v-159h-621zM803 0v254.001c0 1.33301 -0.666992 2 -2 2h-49v-256h-208v639h363
c68.667 0 103 -27 103 -81v-186c0 -30.667 -17 -48 -51 -52c34.667 -4.66699 52 -22.334 52 -53.001v-267h-208zM803 477.001c0 1.33301 -0.666992 2 -2 2h-49v-96h49c1.33301 0 2 0.666992 2 2v92z" />
    <glyph glyph-name="H.alt_R" unicode="HR" horiz-adv-x="1037" 
d="M389 -199c-69.333 0 -104 26.333 -104 79v366h-51v-246h-208v639h208v-246h51v246h208v-677c0 -1.33301 0.666992 -2 2 -2h517v-159h-623zM804 0v254.001c0 1.33301 -0.666992 2 -2 2h-49v-256h-208v639h363c68.667 0 103 -27 103 -81v-186c0 -30.667 -17 -48 -51 -52
c34.667 -4.66699 52 -22.334 52 -53.001v-267h-208zM804 477.001c0 1.33301 -0.666992 2 -2 2h-49v-96h49c1.33301 0 2 0.666992 2 2v92z" />
    <glyph glyph-name="h.alt_S" unicode="hS" horiz-adv-x="1033" 
d="M390 -199c-70 0 -105 26.333 -105 79v597c0 1.33301 -0.666992 2 -2 2h-49v-479h-208v799h208v-160h155c69.333 0 104 -27 104 -81v-596c0 -1.33301 0.666992 -2 2 -2h514v-159h-619zM646 0c-69.333 0 -104 26.333 -104 79v120h208v-38c0 -1.33301 0.666992 -2 2 -2h47
c1.33301 0 2 0.666992 2 2v76c0 1.33301 -0.666992 2 -2 2h-153c-69.333 0 -104 27 -104 81v238c0 54 34.667 81 104 81h259c69.333 0 104 -27 104 -81v-118h-208v37c0 1.33301 -0.666992 2 -2 2h-47c-1.33301 0 -2 -0.666992 -2 -2v-76c0 -1.33301 0.666992 -2 2 -2h153
c69.333 0 104 -26.333 104 -79v-241c0 -52.667 -34.667 -79 -104 -79h-259z" />
    <glyph glyph-name="H.alt_S" unicode="HS" horiz-adv-x="1034" 
d="M389 -199c-69.333 0 -104 26.333 -104 79v366h-51v-246h-208v639h208v-246h51v246h208v-677c0 -1.33301 0.666992 -2 2 -2h515v-159h-621zM647 0c-69.333 0 -104 26.333 -104 79v120h208v-38c0 -1.33301 0.666992 -2 2 -2h47c1.33301 0 2 0.666992 2 2v76
c0 1.33301 -0.666992 2 -2 2h-153c-69.333 0 -104 27 -104 81v238c0 54 34.667 81 104 81h259c69.333 0 104 -27 104 -81v-118h-208v37c0 1.33301 -0.666992 2 -2 2h-47c-1.33301 0 -2 -0.666992 -2 -2v-76c0 -1.33301 0.666992 -2 2 -2h153c69.333 0 104 -26.333 104 -79
v-241c0 -52.667 -34.667 -79 -104 -79h-259z" />
    <glyph glyph-name="h.alt_T" unicode="hT" horiz-adv-x="1067" 
d="M390 -199c-70 0 -105 26.333 -105 79v597c0 1.33301 -0.666992 2 -2 2h-49v-479h-208v799h208v-160h155c69.333 0 104 -27 104 -81v-596c0 -1.33301 0.666992 -2 2 -2h547v-159h-652zM679 0c-69.333 0 -104 26.333 -104 79v361h-51v158h51v41h208v-41h259v-158h-259v-279
c0 -1.33301 0.666992 -2 2 -2h48c1.33301 0 2 0.666992 2 2v238h207v-320c0 -52.667 -34.667 -79 -104 -79h-259z" />
    <glyph glyph-name="H.alt_T" unicode="HT" horiz-adv-x="1068" 
d="M389 -199c-69.333 0 -104 26.333 -104 79v366h-51v-246h-208v639h208v-246h51v246h208v-677c0 -1.33301 0.666992 -2 2 -2h548v-159h-654zM680 0c-69.333 0 -104 26.333 -104 79v361h-51v158h51v41h208v-41h259v-158h-259v-279c0 -1.33301 0.666992 -2 2 -2h48
c1.33301 0 2 0.666992 2 2v238h207v-320c0 -52.667 -34.667 -79 -104 -79h-259z" />
    <glyph glyph-name="h.alt_U" unicode="hU" horiz-adv-x="1035" 
d="M390 -199c-70 0 -105 26.333 -105 79v597c0 1.33301 -0.666992 2 -2 2h-49v-479h-208v799h208v-160h155c69.333 0 104 -27 104 -81v-596c0 -1.33301 0.666992 -2 2 -2h515v-159h-620zM647 0c-69.333 0 -104 26.333 -104 79v560h208v-478c0 -1.33301 0.666992 -2 2 -2h47
c1.33301 0 2 0.666992 2 2v478h208v-560c0 -52.667 -34.667 -79 -104 -79h-259z" />
    <glyph glyph-name="H.alt_U" unicode="HU" horiz-adv-x="1036" 
d="M389 -199c-69.333 0 -104 26.333 -104 79v366h-51v-246h-208v639h208v-246h51v246h208v-677c0 -1.33301 0.666992 -2 2 -2h515v-159h-621zM648 0c-69.333 0 -104 26.333 -104 79v560h208v-478c0 -1.33301 0.666992 -2 2 -2h47c1.33301 0 2 0.666992 2 2v478h208v-560
c0 -52.667 -34.667 -79 -104 -79h-259z" />
    <glyph glyph-name="h.alt_Y" unicode="hy" horiz-adv-x="1019" 
d="M390 -199c-70 0 -105 26.333 -105 79v597c0 1.33301 -0.666992 2 -2 2h-49v-479h-208v799h208v-160h155c69.333 0 104 -27 104 -81v-596c0 -1.33301 0.666992 -2 2 -2h380v-159h-485zM667 0v228c-87.333 0 -131 43.333 -131 130v281h208v-259
c0 -1.33301 0.666992 -2 2 -2h47c1.33301 0 2 0.666992 2 2v259h208v-281c0 -86.667 -42.667 -130 -128 -130v-228h-208z" />
    <glyph glyph-name="H.alt_Y" unicode="Hy" horiz-adv-x="1020" 
d="M389 -199c-69.333 0 -104 26.333 -104 79v366h-51v-246h-208v639h208v-246h51v246h208v-677c0 -1.33301 0.666992 -2 2 -2h381v-159h-487zM668 0v228c-87.333 0 -131 43.333 -131 130v281h208v-259c0 -1.33301 0.666992 -2 2 -2h47c1.33301 0 2 0.666992 2 2v259h208
v-281c0 -86.667 -42.667 -130 -128 -130v-228h-208z" />
    <glyph glyph-name="I_F.2" unicode="IF" horiz-adv-x="690" 
d="M26 0v639h208v-639h-208zM26 -199v159h257c1.33301 0 2 0.666992 2 2v596c0 54 34.667 81 104 81h286v-160h-180c-1.33301 0 -2 -0.666992 -2 -2v-37h180v-160h-180v-400c0 -52.667 -34.667 -79 -104 -79h-363z" />
    <glyph glyph-name="I_G.2" unicode="Ig" horiz-adv-x="777" 
d="M26 0v639h208v-639h-208zM26 -199v159h515c1.33301 0 2 0.666992 2 2v38h-155c-69.333 -0 -104 26.333 -104 79v479c0 54 34.667 81 104 81h363v-759c0 -52.667 -34.667 -79 -104 -79h-621zM543 479h-49c-1.33301 0 -2 -0.666992 -2 -2v-316c0 -1.33301 0.666992 -2 2 -2
h49v320z" />
    <glyph glyph-name="K_F.2" unicode="KF" horiz-adv-x="942" 
d="M295 0l-68 171v-171h-201v639h201v-163l62 163h219l-143 -308l149 -331h-219zM26 -199v159h509c1.33301 0 2 0.666992 2 2v596c0 54 34.667 81 104 81h286v-160h-180c-1.33301 0 -2 -0.666992 -2 -2v-37h180v-160h-180v-400c0 -52.667 -34.667 -79 -104 -79h-615z" />
    <glyph glyph-name="K_h.2" unicode="Kh" horiz-adv-x="1030" 
d="M295 0l-68 171v-171h-201v639h201v-163l62 163h219l-143 -308l149 -331h-219zM797 0v477c0 1.33301 -0.666992 2 -2 2h-49v-599c0 -52.667 -35 -79 -105 -79h-615v159h510c1.33301 0 2 0.666992 2 2v837h208v-160h155c69.333 0 104 -27 104 -81v-558h-208z" />
    <glyph glyph-name="K_Y.2" unicode="Ky" horiz-adv-x="1029" 
d="M295 0l-68 171v-171h-201v639h201v-163l62 163h219l-143 -308l149 -331h-219zM26 -199v159h767c1.33301 0 2 0.666992 2 2v38h-155c-69.333 -0 -104 26.333 -104 79v560h208v-478c0 -1.33301 0.666992 -2 2 -2h49v480h208v-759c0 -52.667 -34.667 -79 -104 -79h-873z" />
    <glyph glyph-name="L.alt_a" unicode="La" horiz-adv-x="776" 
d="M26 -199v838h208v-679h517v-159h-725zM543 259h-49c-1.33301 0 -2 -0.666992 -2 -2v-96c0 -1.33301 0.666992 -2 2 -2h49v100zM388 0c-69.333 0 -104 26.333 -104 79v241c0 52.667 34.667 79 104 79h155v78c0 1.33301 -0.666992 2 -2 2h-47
c-1.33301 0 -2 -0.666992 -2 -2v-37h-208v118c0 54 34.667 81 104 81h259c69.333 0 104 -27 104 -81v-558h-363z" />
    <glyph glyph-name="L.alt_A" unicode="LA" horiz-adv-x="777" 
d="M26 -199v838h208v-679h518v-159h-726zM544 477c0 1.33301 -0.666992 2 -2 2h-47c-1.33301 0 -2 -0.666992 -2 -2v-78h51v78zM544 0v239h-51v-239h-208v558c0 54 34.667 81 104 81h259c69.333 0 104 -27 104 -81v-558h-208z" />
    <glyph glyph-name="L.alt_b" unicode="Lb" horiz-adv-x="778" 
d="M26 -199v838h208v-679h519v-159h-727zM286 0v799h208v-160h155c69.333 0 104 -27 104 -81v-479c0 -52.667 -34.667 -79 -104 -79h-363zM545 477c0 1.33301 -0.666992 2 -2 2h-49v-320h49c1.33301 0 2 0.666992 2 2v316z" />
    <glyph glyph-name="L.alt_B" unicode="LB" horiz-adv-x="778" 
d="M26 -199v838h208v-679h519v-159h-727zM545 477c0 1.33301 -0.666992 2 -2 2h-49v-96h49c1.33301 0 2 0.666992 2 2v92zM286 0v639.001h363c68.667 0 103 -27 103 -81v-186c0 -30.667 -17 -48 -51 -52c34.667 -4.66699 52 -22.334 52 -53.001v-188
c0 -52.667 -34.667 -79 -104 -79h-363zM545 254.001c0 1.33301 -0.666992 2 -2 2h-49v-97h49c1.33301 0 2 0.666992 2 2v93z" />
    <glyph glyph-name="L.alt_C" unicode="LC" horiz-adv-x="775" 
d="M26 -199v838h208v-679h517v-159h-725zM388 0c-69.333 0 -104 26.333 -104 79v479c0 54 34.667 81 104 81h259c69.333 0 104 -27 104 -81v-189h-208v108c0 1.33301 -0.666992 2 -2 2h-47c-1.33301 0 -2 -0.666992 -2 -2v-316c0 -1.33301 0.666992 -2 2 -2h47
c1.33301 0 2 0.666992 2 2v149h208v-231c0 -52.667 -34.667 -79 -104 -79h-259z" />
    <glyph glyph-name="L.alt_d" unicode="Ld" horiz-adv-x="777" 
d="M26 -199v838h208v-679h517v-159h-725zM388 0c-36 0 -62.333 6.5 -79 19.5s-25 32.833 -25 59.5v479c0 54 34.667 81 104 81h155v160h208v-799h-363zM543 479h-49c-1.33301 0 -2 -0.666992 -2 -2v-316c0 -1.33301 0.666992 -2 2 -2h49v320z" />
    <glyph glyph-name="L.alt_D" unicode="LD" horiz-adv-x="777" 
d="M26 -199v838h208v-679h519v-159h-727zM545 477c0 1.33301 -0.666992 2 -2 2h-49v-320h49c1.33301 0 2 0.666992 2 2v316zM286 0v639h363c69.333 0 104 -27 104 -81v-479c0 -52.667 -34.667 -79 -104 -79h-363z" />
    <glyph glyph-name="L.alt_e" unicode="Le" horiz-adv-x="775" 
d="M26 -199v838h208v-679h517v-159h-725zM543 477c0 1.33301 -0.666992 2 -2 2h-47c-1.33301 0 -2 -0.666992 -2 -2v-89h51v89zM388 0c-69.333 0 -104 26.333 -104 79v479c0 54 34.667 81 104 81h259c69.333 0 104 -27 104 -81v-319h-259v-78c0 -1.33301 0.666992 -2 2 -2
h47c1.33301 0 2 0.666992 2 2v38h208v-120c0 -52.667 -34.667 -79 -104 -79h-259z" />
    <glyph glyph-name="L.alt_E" unicode="LE" horiz-adv-x="663" 
d="M26 -199v838h208v-679h405v-159h-613zM286 0v639h352v-160h-144v-80h142v-160h-142v-80h145v-159h-353z" />
    <glyph glyph-name="L.alt_exclam" unicode="L&#x21;" horiz-adv-x="534" 
d="M26 -199v838h208v-679h267v-159h-475zM293 0v159h208v-159h-208zM293 199v440h208v-440h-208z" />
    <glyph glyph-name="L.alt_F" unicode="LF" horiz-adv-x="690" 
d="M26 -199v838h208v-679h259v-159h-467zM285 0v558c0 54 34.667 81 104 81h286v-160h-180c-1.33301 0 -2 -0.666992 -2 -2v-37h180v-160h-180v-280h-208z" />
    <glyph glyph-name="L.alt_G" unicode="LG" horiz-adv-x="776" 
d="M26 -199v838h208v-679h517v-159h-725zM388 0c-69.333 0 -104 26.333 -104 79v479c0 54 34.667 81 104 81h259c69.333 0 104 -27 104 -81v-108h-208v27c0 1.33301 -0.666992 2 -2 2h-47c-1.33301 0 -2 -0.666992 -2 -2v-316c0 -1.33301 0.666992 -2 2 -2h49v232h208v-391
h-363z" />
    <glyph glyph-name="L.alt_h" unicode="Lh" horiz-adv-x="778" 
d="M26 -199v838h208v-679h519v-159h-727zM545 0v477c0 1.33301 -0.666992 2 -2 2h-49v-479h-208v799h208v-160h155c69.333 0 104 -27 104 -81v-558h-208z" />
    <glyph glyph-name="L.alt_H" unicode="LH" horiz-adv-x="779" 
d="M26 -199v838h208v-679h519v-159h-727zM545 0v246h-51v-246h-208v639h208v-246h51v246h208v-639h-208z" />
    <glyph glyph-name="L.alt_I" unicode="LI" horiz-adv-x="520" 
d="M26 -199v838h208v-679h260v-159h-468zM286 0v639h208v-639h-208z" />
    <glyph glyph-name="L.alt_K" unicode="LK" horiz-adv-x="772" 
d="M26 -199v838h208v-679h540v-159h-748zM555 0l-68 171v-171h-201v639h201v-163l62 163h219l-143 -308l149 -331h-219z" />
    <glyph glyph-name="L.alt_L" unicode="LL" horiz-adv-x="644" 
d="M26 -199v838h208v-679h395v-159h-603zM286 0v639h208v-480h135v-159h-343z" />
    <glyph glyph-name="L.alt_M" unicode="LM" horiz-adv-x="1037" 
d="M26 -199v838h208v-679h778v-159h-986zM806 0l-0.000976562 477.001c0 1.33301 -0.666992 2 -2 2h-49c-1.33301 0 -2 -0.666992 -2 -2v-477h-208v477c0 1.33301 -0.666992 2 -2 2h-47c-1.33301 0 -2 -0.666992 -2 -2v-477h-208v639h208v-41
c12.667 13.333 30.834 23.5 54.501 30.5s50.5 10.5 80.5 10.5c30.667 0 54.5 -4 71.5 -12s31.167 -20 42.5 -36c15.333 19.333 34.5 32.166 57.5 38.499s50.833 9.5 83.5 9.5c18 0 34.833 -2.16699 50.5 -6.5s29.167 -10.5 40.5 -18.5s20.333 -17.5 27 -28.5
s10 -22.833 10 -35.5v-550h-206z" />
    <glyph glyph-name="L.alt_N" unicode="LN" horiz-adv-x="778" 
d="M26 -199v838h208v-679h520v-159h-728zM545 0v477c0 1.33301 -0.666992 2 -2 2h-47c-1.33301 0 -2 -0.666992 -2 -2v-477h-208v639h208v-41c35.333 27.333 87 41 155 41c69.333 0 104 -27 104 -81v-558h-208z" />
    <glyph glyph-name="L.alt_O" unicode="LO" horiz-adv-x="775" 
d="M26 -199v838h208v-679h517v-159h-725zM543 477c0 1.33301 -0.666992 2 -2 2h-47c-1.33301 0 -2 -0.666992 -2 -2v-316c0 -1.33301 0.666992 -2 2 -2h47c1.33301 0 2 0.666992 2 2v316zM388 0c-69.333 0 -104 26.333 -104 79v479c0 54 34.667 81 104 81h259
c69.333 0 104 -27 104 -81v-479c0 -52.667 -34.667 -79 -104 -79h-259z" />
    <glyph glyph-name="L.alt_P" unicode="LP" horiz-adv-x="768" 
d="M26 -199v838h208v-679h260v-159h-468zM545 477c0 1.33301 -0.666992 2 -2 2h-49v-89h49c1.33301 0 2 0.666992 2 2v85zM286 0v639h363c69.333 0 104 -27 104 -81v-238c0 -54 -34.667 -81 -104 -81h-155v-239h-208z" />
    <glyph glyph-name="L.alt_period" unicode="L&#x2e;" horiz-adv-x="520" 
d="M26 -199v838h208v-679h260v-159h-468zM286 0v159h208v-159h-208z" />
    <glyph glyph-name="L.alt_question" unicode="L&#x3f;" horiz-adv-x="760" 
d="M26 -199v838h208v-679h262v-159h-470zM288 0v159h208v-159h-208zM498 239c-1.33301 0 -2 -0.666992 -2 -2v-38h-208v121c0 52.667 34.667 79 104 79h145c1.33301 0 2 0.666992 2 2v76c0 1.33301 -0.666992 2 -2 2h-47c-1.33301 0 -2 -0.666992 -2 -2v-37h-208v118
c0 54 34.667 81 104 81h259c69.333 0 104 -27 104 -81v-238c0 -54 -34.667 -81 -104 -81h-145z" />
    <glyph glyph-name="L.alt_R" unicode="LR" horiz-adv-x="778" 
d="M26 -199v838h208v-679h519v-159h-727zM545 0v254.001c0 1.33301 -0.666992 2 -2 2h-49v-256h-208v639h363c68.667 0 103 -27 103 -81v-186c0 -30.667 -17 -48 -51 -52c34.667 -4.66699 52 -22.334 52 -53.001v-267h-208zM545 477.001c0 1.33301 -0.666992 2 -2 2h-49v-96
h49c1.33301 0 2 0.666992 2 2v92z" />
    <glyph glyph-name="L.alt_S" unicode="LS" horiz-adv-x="775" 
d="M26 -199v838h208v-679h517v-159h-725zM388 0c-69.333 0 -104 26.333 -104 79v120h208v-38c0 -1.33301 0.666992 -2 2 -2h47c1.33301 0 2 0.666992 2 2v76c0 1.33301 -0.666992 2 -2 2h-153c-69.333 0 -104 27 -104 81v238c0 54 34.667 81 104 81h259
c69.333 0 104 -27 104 -81v-118h-208v37c0 1.33301 -0.666992 2 -2 2h-47c-1.33301 0 -2 -0.666992 -2 -2v-76c0 -1.33301 0.666992 -2 2 -2h153c69.333 0 104 -26.333 104 -79v-241c0 -52.667 -34.667 -79 -104 -79h-259z" />
    <glyph glyph-name="L.alt_T" unicode="LT" horiz-adv-x="809" 
d="M26 -199v838h208v-679h550v-159h-758zM421 0c-69.333 0 -104 26.333 -104 79v361h-51v158h51v41h208v-41h259v-158h-259v-279c0 -1.33301 0.666992 -2 2 -2h48c1.33301 0 2 0.666992 2 2v238h207v-320c0 -52.667 -34.667 -79 -104 -79h-259z" />
    <glyph glyph-name="L.alt_U" unicode="LU" horiz-adv-x="777" 
d="M26 -199v838h208v-679h518v-159h-726zM389 0c-69.333 0 -104 26.333 -104 79v560h208v-478c0 -1.33301 0.666992 -2 2 -2h47c1.33301 0 2 0.666992 2 2v478h208v-560c0 -52.667 -34.667 -79 -104 -79h-259z" />
    <glyph glyph-name="L.alt_Y" unicode="LY" horiz-adv-x="761" 
d="M26 -199v838h208v-679h383v-159h-591zM409 0v228c-87.333 0 -131 43.333 -131 130v281h208v-259c0 -1.33301 0.666992 -2 2 -2h47c1.33301 0 2 0.666992 2 2v259h208v-281c0 -86.667 -42.667 -130 -128 -130v-228h-208z" />
    <glyph glyph-name="M.alt_a" unicode="Ma" horiz-adv-x="1293" 
d="M650 -199c-12.667 0 -25.168 2.16895 -37.501 6.50195s-23.5 10.166 -33.5 17.499s-18 15.833 -24 25.5s-9 19.5 -9 29.5v597c0 1.33301 -0.666992 2 -2 2h-49c-1.33301 0 -2 -0.666992 -2 -2v-477h-208v477c0 1.33301 -0.666992 2 -2 2h-47
c-1.33301 0 -2 -0.666992 -2 -2v-477h-208v639h208v-41c12.667 13.333 30.834 23.5 54.501 30.5s50.5 10.5 80.5 10.5c30.667 0 54.5 -4 71.5 -12s31.167 -20 42.5 -36c15.333 19.333 34.5 32.166 57.5 38.499s50.833 9.5 83.5 9.5c18 0 34.833 -2.16699 50.5 -6.5
s29.167 -10.5 40.5 -18.5s20.333 -17.5 27 -28.5s10 -22.833 10 -35.5v-588c0 -1.33301 0.666992 -2 2 -2h514v-159h-618zM1060 259.002h-49c-1.33301 0 -2 -0.666992 -2 -2v-96c0 -1.33301 0.666992 -2 2 -2h49v100zM904.999 0.00195312c-69.333 0 -104 26.333 -104 79v241
c0 52.667 34.667 79 104 79h155v78c0 1.33301 -0.666992 2 -2 2h-47c-1.33301 0 -2 -0.666992 -2 -2v-37h-208v118c0 54 34.667 81 104 81h259c69.333 0 104 -27 104 -81v-558h-363z" />
    <glyph glyph-name="M.alt_A" unicode="MA" horiz-adv-x="1294" 
d="M650 -199c-12.667 0 -25.168 2.16895 -37.501 6.50195s-23.5 10.166 -33.5 17.499s-18 15.833 -24 25.5s-9 19.5 -9 29.5v597c0 1.33301 -0.666992 2 -2 2h-49c-1.33301 0 -2 -0.666992 -2 -2v-477h-208v477c0 1.33301 -0.666992 2 -2 2h-47
c-1.33301 0 -2 -0.666992 -2 -2v-477h-208v639h208v-41c12.667 13.333 30.834 23.5 54.501 30.5s50.5 10.5 80.5 10.5c30.667 0 54.5 -4 71.5 -12s31.167 -20 42.5 -36c15.333 19.333 34.5 32.166 57.5 38.499s50.833 9.5 83.5 9.5c18 0 34.833 -2.16699 50.5 -6.5
s29.167 -10.5 40.5 -18.5s20.333 -17.5 27 -28.5s10 -22.833 10 -35.5v-588c0 -1.33301 0.666992 -2 2 -2h515v-159h-619zM1061 477.002c0 1.33301 -0.666992 2 -2 2h-47c-1.33301 0 -2 -0.666992 -2 -2v-78h51v78zM1061 0.00195312v239h-51v-239h-208v558
c0 54 34.667 81 104 81h259c69.333 0 104 -27 104 -81v-558h-208z" />
    <glyph glyph-name="M.alt_b" unicode="Mb" horiz-adv-x="1295" 
d="M650 -199c-12.667 0 -25.168 2.16895 -37.501 6.50195s-23.5 10.166 -33.5 17.499s-18 15.833 -24 25.5s-9 19.5 -9 29.5v597c0 1.33301 -0.666992 2 -2 2h-49c-1.33301 0 -2 -0.666992 -2 -2v-477h-208v477c0 1.33301 -0.666992 2 -2 2h-47
c-1.33301 0 -2 -0.666992 -2 -2v-477h-208v639h208v-41c12.667 13.333 30.834 23.5 54.501 30.5s50.5 10.5 80.5 10.5c30.667 0 54.5 -4 71.5 -12s31.167 -20 42.5 -36c15.333 19.333 34.5 32.166 57.5 38.499s50.833 9.5 83.5 9.5c18 0 34.833 -2.16699 50.5 -6.5
s29.167 -10.5 40.5 -18.5s20.333 -17.5 27 -28.5s10 -22.833 10 -35.5v-588c0 -1.33301 0.666992 -2 2 -2h516v-159h-620zM802.999 0.00195312v799h208v-160h155c69.333 0 104 -27 104 -81v-479c0 -52.667 -34.667 -79 -104 -79h-363zM1062 477.002
c0 1.33301 -0.666992 2 -2 2h-49v-320h49c1.33301 0 2 0.666992 2 2v316z" />
    <glyph glyph-name="M.alt_B" unicode="MB" horiz-adv-x="1295" 
d="M650 -199c-12.667 0 -25.168 2.16895 -37.501 6.50195s-23.5 10.166 -33.5 17.499s-18 15.833 -24 25.5s-9 19.5 -9 29.5v597c0 1.33301 -0.666992 2 -2 2h-49c-1.33301 0 -2 -0.666992 -2 -2v-477h-208v477c0 1.33301 -0.666992 2 -2 2h-47
c-1.33301 0 -2 -0.666992 -2 -2v-477h-208v639h208v-41c12.667 13.333 30.834 23.5 54.501 30.5s50.5 10.5 80.5 10.5c30.667 0 54.5 -4 71.5 -12s31.167 -20 42.5 -36c15.333 19.333 34.5 32.166 57.5 38.499s50.833 9.5 83.5 9.5c18 0 34.833 -2.16699 50.5 -6.5
s29.167 -10.5 40.5 -18.5s20.333 -17.5 27 -28.5s10 -22.833 10 -35.5v-588c0 -1.33301 0.666992 -2 2 -2h516v-159h-620zM1062 477.002c0 1.33301 -0.666992 2 -2 2h-49v-96h49c1.33301 0 2 0.666992 2 2v92zM802.999 0.00195312v639.001h363c68.667 0 103 -27 103 -81
v-186c0 -30.667 -17 -48 -51 -52c34.667 -4.66699 52 -22.334 52 -53.001v-188c0 -52.667 -34.667 -79 -104 -79h-363zM1062 254.003c0 1.33301 -0.666992 2 -2 2h-49v-97h49c1.33301 0 2 0.666992 2 2v93z" />
    <glyph glyph-name="M.alt_C" unicode="MC" horiz-adv-x="1292" 
d="M650 -199c-12.667 0 -25.168 2.16895 -37.501 6.50195s-23.5 10.166 -33.5 17.499s-18 15.833 -24 25.5s-9 19.5 -9 29.5v597c0 1.33301 -0.666992 2 -2 2h-49c-1.33301 0 -2 -0.666992 -2 -2v-477h-208v477c0 1.33301 -0.666992 2 -2 2h-47
c-1.33301 0 -2 -0.666992 -2 -2v-477h-208v639h208v-41c12.667 13.333 30.834 23.5 54.501 30.5s50.5 10.5 80.5 10.5c30.667 0 54.5 -4 71.5 -12s31.167 -20 42.5 -36c15.333 19.333 34.5 32.166 57.5 38.499s50.833 9.5 83.5 9.5c18 0 34.833 -2.16699 50.5 -6.5
s29.167 -10.5 40.5 -18.5s20.333 -17.5 27 -28.5s10 -22.833 10 -35.5v-588c0 -1.33301 0.666992 -2 2 -2h514v-159h-618zM904.999 0.00195312c-69.333 0 -104 26.333 -104 79v479c0 54 34.667 81 104 81h259c69.333 0 104 -27 104 -81v-189h-208v108
c0 1.33301 -0.666992 2 -2 2h-47c-1.33301 0 -2 -0.666992 -2 -2v-316c0 -1.33301 0.666992 -2 2 -2h47c1.33301 0 2 0.666992 2 2v149h208v-231c0 -52.667 -34.667 -79 -104 -79h-259z" />
    <glyph glyph-name="M.alt_e" unicode="Me" horiz-adv-x="1292" 
d="M650 -199c-12.667 0 -25.168 2.16895 -37.501 6.50195s-23.5 10.166 -33.5 17.499s-18 15.833 -24 25.5s-9 19.5 -9 29.5v597c0 1.33301 -0.666992 2 -2 2h-49c-1.33301 0 -2 -0.666992 -2 -2v-477h-208v477c0 1.33301 -0.666992 2 -2 2h-47
c-1.33301 0 -2 -0.666992 -2 -2v-477h-208v639h208v-41c12.667 13.333 30.834 23.5 54.501 30.5s50.5 10.5 80.5 10.5c30.667 0 54.5 -4 71.5 -12s31.167 -20 42.5 -36c15.333 19.333 34.5 32.166 57.5 38.499s50.833 9.5 83.5 9.5c18 0 34.833 -2.16699 50.5 -6.5
s29.167 -10.5 40.5 -18.5s20.333 -17.5 27 -28.5s10 -22.833 10 -35.5v-588c0 -1.33301 0.666992 -2 2 -2h514v-159h-618zM1060 477.002c0 1.33301 -0.666992 2 -2 2h-47c-1.33301 0 -2 -0.666992 -2 -2v-89h51v89zM904.999 0.00195312c-69.333 0 -104 26.333 -104 79v479
c0 54 34.667 81 104 81h259c69.333 0 104 -27 104 -81v-319h-259v-78c0 -1.33301 0.666992 -2 2 -2h47c1.33301 0 2 0.666992 2 2v38h208v-120c0 -52.667 -34.667 -79 -104 -79h-259z" />
    <glyph glyph-name="M.alt_E" unicode="ME" horiz-adv-x="1180" 
d="M650 -199c-12.667 0 -25.168 2.16895 -37.501 6.50195s-23.5 10.166 -33.5 17.499s-18 15.833 -24 25.5s-9 19.5 -9 29.5v597c0 1.33301 -0.666992 2 -2 2h-49c-1.33301 0 -2 -0.666992 -2 -2v-477h-208v477c0 1.33301 -0.666992 2 -2 2h-47
c-1.33301 0 -2 -0.666992 -2 -2v-477h-208v639h208v-41c12.667 13.333 30.834 23.5 54.501 30.5s50.5 10.5 80.5 10.5c30.667 0 54.5 -4 71.5 -12s31.167 -20 42.5 -36c15.333 19.333 34.5 32.166 57.5 38.499s50.833 9.5 83.5 9.5c18 0 34.833 -2.16699 50.5 -6.5
s29.167 -10.5 40.5 -18.5s20.333 -17.5 27 -28.5s10 -22.833 10 -35.5v-588c0 -1.33301 0.666992 -2 2 -2h402v-159h-506zM802.999 0.00195312v639h352v-160h-144v-80h142v-160h-142v-80h145v-159h-353z" />
    <glyph glyph-name="M.alt_exclam" unicode="M&#x21;" horiz-adv-x="1051" 
d="M650 -199c-12.667 0 -25.168 2.16895 -37.501 6.50195s-23.5 10.166 -33.5 17.499s-18 15.833 -24 25.5s-9 19.5 -9 29.5v597c0 1.33301 -0.666992 2 -2 2h-49c-1.33301 0 -2 -0.666992 -2 -2v-477h-208v477c0 1.33301 -0.666992 2 -2 2h-47
c-1.33301 0 -2 -0.666992 -2 -2v-477h-208v639h208v-41c12.667 13.333 30.834 23.5 54.501 30.5s50.5 10.5 80.5 10.5c30.667 0 54.5 -4 71.5 -12s31.167 -20 42.5 -36c15.333 19.333 34.5 32.166 57.5 38.499s50.833 9.5 83.5 9.5c18 0 34.833 -2.16699 50.5 -6.5
s29.167 -10.5 40.5 -18.5s20.333 -17.5 27 -28.5s10 -22.833 10 -35.5v-588c0 -1.33301 0.666992 -2 2 -2h264v-159h-368zM809.999 0.00195312v159h208v-159h-208zM809.999 199.002v440h208v-440h-208z" />
    <glyph glyph-name="M.alt_F" unicode="MF" horiz-adv-x="1207" 
d="M650 -199c-12.667 0 -25.168 2.16895 -37.501 6.50195s-23.5 10.166 -33.5 17.499s-18 15.833 -24 25.5s-9 19.5 -9 29.5v597c0 1.33301 -0.666992 2 -2 2h-49c-1.33301 0 -2 -0.666992 -2 -2v-477h-208v477c0 1.33301 -0.666992 2 -2 2h-47
c-1.33301 0 -2 -0.666992 -2 -2v-477h-208v639h208v-41c12.667 13.333 30.834 23.5 54.501 30.5s50.5 10.5 80.5 10.5c30.667 0 54.5 -4 71.5 -12s31.167 -20 42.5 -36c15.333 19.333 34.5 32.166 57.5 38.499s50.833 9.5 83.5 9.5c18 0 34.833 -2.16699 50.5 -6.5
s29.167 -10.5 40.5 -18.5s20.333 -17.5 27 -28.5s10 -22.833 10 -35.5v-588c0 -1.33301 0.666992 -2 2 -2h256v-159h-360zM801.999 0.00195312v558c0 54 34.667 81 104 81h286v-160h-180c-1.33301 0 -2 -0.666992 -2 -2v-37h180v-160h-180v-280h-208z" />
    <glyph glyph-name="M.alt_I" unicode="MI" horiz-adv-x="1037" 
d="M650 -199c-12.667 0 -25.168 2.16895 -37.501 6.50195s-23.5 10.166 -33.5 17.499s-18 15.833 -24 25.5s-9 19.5 -9 29.5v597c0 1.33301 -0.666992 2 -2 2h-49c-1.33301 0 -2 -0.666992 -2 -2v-477h-208v477c0 1.33301 -0.666992 2 -2 2h-47
c-1.33301 0 -2 -0.666992 -2 -2v-477h-208v639h208v-41c12.667 13.333 30.834 23.5 54.501 30.5s50.5 10.5 80.5 10.5c30.667 0 54.5 -4 71.5 -12s31.167 -20 42.5 -36c15.333 19.333 34.5 32.166 57.5 38.499s50.833 9.5 83.5 9.5c18 0 34.833 -2.16699 50.5 -6.5
s29.167 -10.5 40.5 -18.5s20.333 -17.5 27 -28.5s10 -22.833 10 -35.5v-588c0 -1.33301 0.666992 -2 2 -2h257v-159h-361zM802.999 0.00195312v639h208v-639h-208z" />
    <glyph glyph-name="M.alt_L" unicode="ML" horiz-adv-x="1161" 
d="M650 -199c-12.667 0 -25.168 2.16895 -37.501 6.50195s-23.5 10.166 -33.5 17.499s-18 15.833 -24 25.5s-9 19.5 -9 29.5v597c0 1.33301 -0.666992 2 -2 2h-49c-1.33301 0 -2 -0.666992 -2 -2v-477h-208v477c0 1.33301 -0.666992 2 -2 2h-47
c-1.33301 0 -2 -0.666992 -2 -2v-477h-208v639h208v-41c12.667 13.333 30.834 23.5 54.501 30.5s50.5 10.5 80.5 10.5c30.667 0 54.5 -4 71.5 -12s31.167 -20 42.5 -36c15.333 19.333 34.5 32.166 57.5 38.499s50.833 9.5 83.5 9.5c18 0 34.833 -2.16699 50.5 -6.5
s29.167 -10.5 40.5 -18.5s20.333 -17.5 27 -28.5s10 -22.833 10 -35.5v-588c0 -1.33301 0.666992 -2 2 -2h392v-159h-496zM802.999 0.00195312v639h208v-480h135v-159h-343z" />
    <glyph glyph-name="M.alt_M" unicode="MM" horiz-adv-x="1554" 
d="M650 -199c-12.667 0 -25.168 2.16895 -37.501 6.50195s-23.5 10.166 -33.5 17.499s-18 15.833 -24 25.5s-9 19.5 -9 29.5v597c0 1.33301 -0.666992 2 -2 2h-49c-1.33301 0 -2 -0.666992 -2 -2v-477h-208v477c0 1.33301 -0.666992 2 -2 2h-47
c-1.33301 0 -2 -0.666992 -2 -2v-477h-208v639h208v-41c12.667 13.333 30.834 23.5 54.501 30.5s50.5 10.5 80.5 10.5c30.667 0 54.5 -4 71.5 -12s31.167 -20 42.5 -36c15.333 19.333 34.5 32.166 57.5 38.499s50.833 9.5 83.5 9.5c18 0 34.833 -2.16699 50.5 -6.5
s29.167 -10.5 40.5 -18.5s20.333 -17.5 27 -28.5s10 -22.833 10 -35.5v-588c0 -1.33301 0.666992 -2 2 -2h775v-159h-879zM1323 0.00195312l-0.000976562 477.001c0 1.33301 -0.666992 2 -2 2h-49c-1.33301 0 -2 -0.666992 -2 -2v-477h-208v477c0 1.33301 -0.666992 2 -2 2
h-47c-1.33301 0 -2 -0.666992 -2 -2v-477h-208v639h208v-41c12.667 13.333 30.834 23.5 54.501 30.5s50.5 10.5 80.5 10.5c30.667 0 54.5 -4 71.5 -12s31.167 -20 42.5 -36c15.333 19.333 34.5 32.166 57.5 38.499s50.833 9.5 83.5 9.5c18 0 34.833 -2.16699 50.5 -6.5
s29.167 -10.5 40.5 -18.5s20.333 -17.5 27 -28.5s10 -22.833 10 -35.5v-550h-206z" />
    <glyph glyph-name="M.alt_N" unicode="MN" horiz-adv-x="1295" 
d="M650 -199c-12.667 0 -25.168 2.16895 -37.501 6.50195s-23.5 10.166 -33.5 17.499s-18 15.833 -24 25.5s-9 19.5 -9 29.5v597c0 1.33301 -0.666992 2 -2 2h-49c-1.33301 0 -2 -0.666992 -2 -2v-477h-208v477c0 1.33301 -0.666992 2 -2 2h-47
c-1.33301 0 -2 -0.666992 -2 -2v-477h-208v639h208v-41c12.667 13.333 30.834 23.5 54.501 30.5s50.5 10.5 80.5 10.5c30.667 0 54.5 -4 71.5 -12s31.167 -20 42.5 -36c15.333 19.333 34.5 32.166 57.5 38.499s50.833 9.5 83.5 9.5c18 0 34.833 -2.16699 50.5 -6.5
s29.167 -10.5 40.5 -18.5s20.333 -17.5 27 -28.5s10 -22.833 10 -35.5v-588c0 -1.33301 0.666992 -2 2 -2h516v-159h-620zM1062 0.00195312v477c0 1.33301 -0.666992 2 -2 2h-47c-1.33301 0 -2 -0.666992 -2 -2v-477h-208v639h208v-41c35.333 27.333 87 41 155 41
c69.333 0 104 -27 104 -81v-558h-208z" />
    <glyph glyph-name="M.alt_O" unicode="MO" horiz-adv-x="1292" 
d="M650 -199c-12.667 0 -25.168 2.16895 -37.501 6.50195s-23.5 10.166 -33.5 17.499s-18 15.833 -24 25.5s-9 19.5 -9 29.5v597c0 1.33301 -0.666992 2 -2 2h-49c-1.33301 0 -2 -0.666992 -2 -2v-477h-208v477c0 1.33301 -0.666992 2 -2 2h-47
c-1.33301 0 -2 -0.666992 -2 -2v-477h-208v639h208v-41c12.667 13.333 30.834 23.5 54.501 30.5s50.5 10.5 80.5 10.5c30.667 0 54.5 -4 71.5 -12s31.167 -20 42.5 -36c15.333 19.333 34.5 32.166 57.5 38.499s50.833 9.5 83.5 9.5c18 0 34.833 -2.16699 50.5 -6.5
s29.167 -10.5 40.5 -18.5s20.333 -17.5 27 -28.5s10 -22.833 10 -35.5v-588c0 -1.33301 0.666992 -2 2 -2h514v-159h-618zM1060 477.002c0 1.33301 -0.666992 2 -2 2h-47c-1.33301 0 -2 -0.666992 -2 -2v-316c0 -1.33301 0.666992 -2 2 -2h47c1.33301 0 2 0.666992 2 2v316z
M904.999 0.00195312c-69.333 0 -104 26.333 -104 79v479c0 54 34.667 81 104 81h259c69.333 0 104 -27 104 -81v-479c0 -52.667 -34.667 -79 -104 -79h-259z" />
    <glyph glyph-name="M.alt_P" unicode="MP" horiz-adv-x="1285" 
d="M650 -199c-12.667 0 -25.168 2.16895 -37.501 6.50195s-23.5 10.166 -33.5 17.499s-18 15.833 -24 25.5s-9 19.5 -9 29.5v597c0 1.33301 -0.666992 2 -2 2h-49c-1.33301 0 -2 -0.666992 -2 -2v-477h-208v477c0 1.33301 -0.666992 2 -2 2h-47
c-1.33301 0 -2 -0.666992 -2 -2v-477h-208v639h208v-41c12.667 13.333 30.834 23.5 54.501 30.5s50.5 10.5 80.5 10.5c30.667 0 54.5 -4 71.5 -12s31.167 -20 42.5 -36c15.333 19.333 34.5 32.166 57.5 38.499s50.833 9.5 83.5 9.5c18 0 34.833 -2.16699 50.5 -6.5
s29.167 -10.5 40.5 -18.5s20.333 -17.5 27 -28.5s10 -22.833 10 -35.5v-588c0 -1.33301 0.666992 -2 2 -2h257v-159h-361zM1062 477.002c0 1.33301 -0.666992 2 -2 2h-49v-89h49c1.33301 0 2 0.666992 2 2v85zM802.999 0.00195312v639h363c69.333 0 104 -27 104 -81v-238
c0 -54 -34.667 -81 -104 -81h-155v-239h-208z" />
    <glyph glyph-name="M.alt_period" unicode="M&#x2e;" horiz-adv-x="1037" 
d="M650 -199c-12.667 0 -25.168 2.16895 -37.501 6.50195s-23.5 10.166 -33.5 17.499s-18 15.833 -24 25.5s-9 19.5 -9 29.5v597c0 1.33301 -0.666992 2 -2 2h-49c-1.33301 0 -2 -0.666992 -2 -2v-477h-208v477c0 1.33301 -0.666992 2 -2 2h-47
c-1.33301 0 -2 -0.666992 -2 -2v-477h-208v639h208v-41c12.667 13.333 30.834 23.5 54.501 30.5s50.5 10.5 80.5 10.5c30.667 0 54.5 -4 71.5 -12s31.167 -20 42.5 -36c15.333 19.333 34.5 32.166 57.5 38.499s50.833 9.5 83.5 9.5c18 0 34.833 -2.16699 50.5 -6.5
s29.167 -10.5 40.5 -18.5s20.333 -17.5 27 -28.5s10 -22.833 10 -35.5v-588c0 -1.33301 0.666992 -2 2 -2h257v-159h-361zM802.999 0.00195312v159h208v-159h-208z" />
    <glyph glyph-name="M.alt_question" unicode="M&#x3f;" horiz-adv-x="1277" 
d="M650 -199c-12.667 0 -25.168 2.16895 -37.501 6.50195s-23.5 10.166 -33.5 17.499s-18 15.833 -24 25.5s-9 19.5 -9 29.5v597c0 1.33301 -0.666992 2 -2 2h-49c-1.33301 0 -2 -0.666992 -2 -2v-477h-208v477c0 1.33301 -0.666992 2 -2 2h-47
c-1.33301 0 -2 -0.666992 -2 -2v-477h-208v639h208v-41c12.667 13.333 30.834 23.5 54.501 30.5s50.5 10.5 80.5 10.5c30.667 0 54.5 -4 71.5 -12s31.167 -20 42.5 -36c15.333 19.333 34.5 32.166 57.5 38.499s50.833 9.5 83.5 9.5c18 0 34.833 -2.16699 50.5 -6.5
s29.167 -10.5 40.5 -18.5s20.333 -17.5 27 -28.5s10 -22.833 10 -35.5v-588c0 -1.33301 0.666992 -2 2 -2h259v-159h-363zM804.999 0.00195312v159h208v-159h-208zM1015 239.002c-1.33301 0 -2 -0.666992 -2 -2v-38h-208v121c0 52.667 34.667 79 104 79h145
c1.33301 0 2 0.666992 2 2v76c0 1.33301 -0.666992 2 -2 2h-47c-1.33301 0 -2 -0.666992 -2 -2v-37h-208v118c0 54 34.667 81 104 81h259c69.333 0 104 -27 104 -81v-238c0 -54 -34.667 -81 -104 -81h-145z" />
    <glyph glyph-name="M.alt_R" unicode="MR" horiz-adv-x="1295" 
d="M650 -199c-12.667 0 -25.168 2.16895 -37.501 6.50195s-23.5 10.166 -33.5 17.499s-18 15.833 -24 25.5s-9 19.5 -9 29.5v597c0 1.33301 -0.666992 2 -2 2h-49c-1.33301 0 -2 -0.666992 -2 -2v-477h-208v477c0 1.33301 -0.666992 2 -2 2h-47
c-1.33301 0 -2 -0.666992 -2 -2v-477h-208v639h208v-41c12.667 13.333 30.834 23.5 54.501 30.5s50.5 10.5 80.5 10.5c30.667 0 54.5 -4 71.5 -12s31.167 -20 42.5 -36c15.333 19.333 34.5 32.166 57.5 38.499s50.833 9.5 83.5 9.5c18 0 34.833 -2.16699 50.5 -6.5
s29.167 -10.5 40.5 -18.5s20.333 -17.5 27 -28.5s10 -22.833 10 -35.5v-588c0 -1.33301 0.666992 -2 2 -2h516v-159h-620zM1062 0.00195312v254.001c0 1.33301 -0.666992 2 -2 2h-49v-256h-208v639h363c68.667 0 103 -27 103 -81v-186c0 -30.667 -17 -48 -51 -52
c34.667 -4.66699 52 -22.334 52 -53.001v-267h-208zM1062 477.003c0 1.33301 -0.666992 2 -2 2h-49v-96h49c1.33301 0 2 0.666992 2 2v92z" />
    <glyph glyph-name="M.alt_S" unicode="MS" horiz-adv-x="1292" 
d="M650 -199c-12.667 0 -25.168 2.16895 -37.501 6.50195s-23.5 10.166 -33.5 17.499s-18 15.833 -24 25.5s-9 19.5 -9 29.5v597c0 1.33301 -0.666992 2 -2 2h-49c-1.33301 0 -2 -0.666992 -2 -2v-477h-208v477c0 1.33301 -0.666992 2 -2 2h-47
c-1.33301 0 -2 -0.666992 -2 -2v-477h-208v639h208v-41c12.667 13.333 30.834 23.5 54.501 30.5s50.5 10.5 80.5 10.5c30.667 0 54.5 -4 71.5 -12s31.167 -20 42.5 -36c15.333 19.333 34.5 32.166 57.5 38.499s50.833 9.5 83.5 9.5c18 0 34.833 -2.16699 50.5 -6.5
s29.167 -10.5 40.5 -18.5s20.333 -17.5 27 -28.5s10 -22.833 10 -35.5v-588c0 -1.33301 0.666992 -2 2 -2h514v-159h-618zM904.999 0.00195312c-69.333 0 -104 26.333 -104 79v120h208v-38c0 -1.33301 0.666992 -2 2 -2h47c1.33301 0 2 0.666992 2 2v76
c0 1.33301 -0.666992 2 -2 2h-153c-69.333 0 -104 27 -104 81v238c0 54 34.667 81 104 81h259c69.333 0 104 -27 104 -81v-118h-208v37c0 1.33301 -0.666992 2 -2 2h-47c-1.33301 0 -2 -0.666992 -2 -2v-76c0 -1.33301 0.666992 -2 2 -2h153c69.333 0 104 -26.333 104 -79
v-241c0 -52.667 -34.667 -79 -104 -79h-259z" />
    <glyph glyph-name="M.alt_T" unicode="MT" horiz-adv-x="1326" 
d="M650 -199c-12.667 0 -25.168 2.16895 -37.501 6.50195s-23.5 10.166 -33.5 17.499s-18 15.833 -24 25.5s-9 19.5 -9 29.5v597c0 1.33301 -0.666992 2 -2 2h-49c-1.33301 0 -2 -0.666992 -2 -2v-477h-208v477c0 1.33301 -0.666992 2 -2 2h-47
c-1.33301 0 -2 -0.666992 -2 -2v-477h-208v639h208v-41c12.667 13.333 30.834 23.5 54.501 30.5s50.5 10.5 80.5 10.5c30.667 0 54.5 -4 71.5 -12s31.167 -20 42.5 -36c15.333 19.333 34.5 32.166 57.5 38.499s50.833 9.5 83.5 9.5c18 0 34.833 -2.16699 50.5 -6.5
s29.167 -10.5 40.5 -18.5s20.333 -17.5 27 -28.5s10 -22.833 10 -35.5v-588c0 -1.33301 0.666992 -2 2 -2h547v-159h-651zM937.999 0.00195312c-69.333 0 -104 26.333 -104 79v361h-51v158h51v41h208v-41h259v-158h-259v-279c0 -1.33301 0.666992 -2 2 -2h48
c1.33301 0 2 0.666992 2 2v238h207v-320c0 -52.667 -34.667 -79 -104 -79h-259z" />
    <glyph glyph-name="M.alt_U" unicode="MU" horiz-adv-x="1294" 
d="M650 -199c-12.667 0 -25.168 2.16895 -37.501 6.50195s-23.5 10.166 -33.5 17.499s-18 15.833 -24 25.5s-9 19.5 -9 29.5v597c0 1.33301 -0.666992 2 -2 2h-49c-1.33301 0 -2 -0.666992 -2 -2v-477h-208v477c0 1.33301 -0.666992 2 -2 2h-47
c-1.33301 0 -2 -0.666992 -2 -2v-477h-208v639h208v-41c12.667 13.333 30.834 23.5 54.501 30.5s50.5 10.5 80.5 10.5c30.667 0 54.5 -4 71.5 -12s31.167 -20 42.5 -36c15.333 19.333 34.5 32.166 57.5 38.499s50.833 9.5 83.5 9.5c18 0 34.833 -2.16699 50.5 -6.5
s29.167 -10.5 40.5 -18.5s20.333 -17.5 27 -28.5s10 -22.833 10 -35.5v-588c0 -1.33301 0.666992 -2 2 -2h515v-159h-619zM905.999 0.00195312c-69.333 0 -104 26.333 -104 79v560h208v-478c0 -1.33301 0.666992 -2 2 -2h47c1.33301 0 2 0.666992 2 2v478h208v-560
c0 -52.667 -34.667 -79 -104 -79h-259z" />
    <glyph glyph-name="M.alt_Y" unicode="MY" horiz-adv-x="1278" 
d="M650 -199c-12.667 0 -25.168 2.16895 -37.501 6.50195s-23.5 10.166 -33.5 17.499s-18 15.833 -24 25.5s-9 19.5 -9 29.5v597c0 1.33301 -0.666992 2 -2 2h-49c-1.33301 0 -2 -0.666992 -2 -2v-477h-208v477c0 1.33301 -0.666992 2 -2 2h-47
c-1.33301 0 -2 -0.666992 -2 -2v-477h-208v639h208v-41c12.667 13.333 30.834 23.5 54.501 30.5s50.5 10.5 80.5 10.5c30.667 0 54.5 -4 71.5 -12s31.167 -20 42.5 -36c15.333 19.333 34.5 32.166 57.5 38.499s50.833 9.5 83.5 9.5c18 0 34.833 -2.16699 50.5 -6.5
s29.167 -10.5 40.5 -18.5s20.333 -17.5 27 -28.5s10 -22.833 10 -35.5v-588c0 -1.33301 0.666992 -2 2 -2h380v-159h-484zM925.999 0.00195312v228c-87.333 0 -131 43.333 -131 130v281h208v-259c0 -1.33301 0.666992 -2 2 -2h47c1.33301 0 2 0.666992 2 2v259h208v-281
c0 -86.667 -42.667 -130 -128 -130v-228h-208z" />
    <glyph glyph-name="N.alt_a" unicode="Na" horiz-adv-x="1034" 
d="M390 -199c-70 0 -105 26.333 -105 79v597c0 1.33301 -0.666992 2 -2 2h-47c-1.33301 0 -2 -0.666992 -2 -2v-477h-208v639h208v-41c35.333 27.333 87 41 155 41c69.333 0 104 -27 104 -81v-596c0 -1.33301 0.666992 -2 2 -2h514v-159h-619zM801 259h-49
c-1.33301 0 -2 -0.666992 -2 -2v-96c0 -1.33301 0.666992 -2 2 -2h49v100zM646 0c-69.333 0 -104 26.333 -104 79v241c0 52.667 34.667 79 104 79h155v78c0 1.33301 -0.666992 2 -2 2h-47c-1.33301 0 -2 -0.666992 -2 -2v-37h-208v118c0 54 34.667 81 104 81h259
c69.333 0 104 -27 104 -81v-558h-363z" />
    <glyph glyph-name="N.alt_A" unicode="NA" horiz-adv-x="1035" 
d="M390 -199c-70 0 -105 26.333 -105 79v597c0 1.33301 -0.666992 2 -2 2h-47c-1.33301 0 -2 -0.666992 -2 -2v-477h-208v639h208v-41c35.333 27.333 87 41 155 41c69.333 0 104 -27 104 -81v-596c0 -1.33301 0.666992 -2 2 -2h515v-159h-620zM802 477
c0 1.33301 -0.666992 2 -2 2h-47c-1.33301 0 -2 -0.666992 -2 -2v-78h51v78zM802 0v239h-51v-239h-208v558c0 54 34.667 81 104 81h259c69.333 0 104 -27 104 -81v-558h-208z" />
    <glyph glyph-name="N.alt_b" unicode="Nb" horiz-adv-x="1036" 
d="M390 -199c-70 0 -105 26.333 -105 79v597c0 1.33301 -0.666992 2 -2 2h-47c-1.33301 0 -2 -0.666992 -2 -2v-477h-208v639h208v-41c35.333 27.333 87 41 155 41c69.333 0 104 -27 104 -81v-596c0 -1.33301 0.666992 -2 2 -2h516v-159h-621zM544 0v799h208v-160h155
c69.333 0 104 -27 104 -81v-479c0 -52.667 -34.667 -79 -104 -79h-363zM803 477c0 1.33301 -0.666992 2 -2 2h-49v-320h49c1.33301 0 2 0.666992 2 2v316z" />
    <glyph glyph-name="N.alt_B" unicode="NB" horiz-adv-x="1036" 
d="M390 -199c-70 0 -105 26.333 -105 79v597c0 1.33301 -0.666992 2 -2 2h-47c-1.33301 0 -2 -0.666992 -2 -2v-477h-208v639h208v-41c35.333 27.333 87 41 155 41c69.333 0 104 -27 104 -81v-596c0 -1.33301 0.666992 -2 2 -2h516v-159h-621zM803 477
c0 1.33301 -0.666992 2 -2 2h-49v-96h49c1.33301 0 2 0.666992 2 2v92zM544 0v639.001h363c68.667 0 103 -27 103 -81v-186c0 -30.667 -17 -48 -51 -52c34.667 -4.66699 52 -22.334 52 -53.001v-188c0 -52.667 -34.667 -79 -104 -79h-363zM803 254.001
c0 1.33301 -0.666992 2 -2 2h-49v-97h49c1.33301 0 2 0.666992 2 2v93z" />
    <glyph glyph-name="N.alt_C" unicode="NC" horiz-adv-x="1033" 
d="M390 -199c-70 0 -105 26.333 -105 79v597c0 1.33301 -0.666992 2 -2 2h-47c-1.33301 0 -2 -0.666992 -2 -2v-477h-208v639h208v-41c35.333 27.333 87 41 155 41c69.333 0 104 -27 104 -81v-596c0 -1.33301 0.666992 -2 2 -2h514v-159h-619zM646 0
c-69.333 0 -104 26.333 -104 79v479c0 54 34.667 81 104 81h259c69.333 0 104 -27 104 -81v-189h-208v108c0 1.33301 -0.666992 2 -2 2h-47c-1.33301 0 -2 -0.666992 -2 -2v-316c0 -1.33301 0.666992 -2 2 -2h47c1.33301 0 2 0.666992 2 2v149h208v-231
c0 -52.667 -34.667 -79 -104 -79h-259z" />
    <glyph glyph-name="N.alt_d" unicode="Nd" horiz-adv-x="1035" 
d="M390 -199c-70 0 -105 26.333 -105 79v597c0 1.33301 -0.666992 2 -2 2h-47c-1.33301 0 -2 -0.666992 -2 -2v-477h-208v639h208v-41c35.333 27.333 87 41 155 41c69.333 0 104 -27 104 -81v-596c0 -1.33301 0.666992 -2 2 -2h514v-159h-619zM646 0
c-36 0 -62.333 6.5 -79 19.5s-25 32.833 -25 59.5v479c0 54 34.667 81 104 81h155v160h208v-799h-363zM801 479h-49c-1.33301 0 -2 -0.666992 -2 -2v-316c0 -1.33301 0.666992 -2 2 -2h49v320z" />
    <glyph glyph-name="N.alt_D" unicode="ND" horiz-adv-x="1035" 
d="M390 -199c-70 0 -105 26.333 -105 79v597c0 1.33301 -0.666992 2 -2 2h-47c-1.33301 0 -2 -0.666992 -2 -2v-477h-208v639h208v-41c35.333 27.333 87 41 155 41c69.333 0 104 -27 104 -81v-596c0 -1.33301 0.666992 -2 2 -2h516v-159h-621zM803 477
c0 1.33301 -0.666992 2 -2 2h-49v-320h49c1.33301 0 2 0.666992 2 2v316zM544 0v639h363c69.333 0 104 -27 104 -81v-479c0 -52.667 -34.667 -79 -104 -79h-363z" />
    <glyph glyph-name="N.alt_e" unicode="Ne" horiz-adv-x="1033" 
d="M390 -199c-70 0 -105 26.333 -105 79v597c0 1.33301 -0.666992 2 -2 2h-47c-1.33301 0 -2 -0.666992 -2 -2v-477h-208v639h208v-41c35.333 27.333 87 41 155 41c69.333 0 104 -27 104 -81v-596c0 -1.33301 0.666992 -2 2 -2h514v-159h-619zM801 477
c0 1.33301 -0.666992 2 -2 2h-47c-1.33301 0 -2 -0.666992 -2 -2v-89h51v89zM646 0c-69.333 0 -104 26.333 -104 79v479c0 54 34.667 81 104 81h259c69.333 0 104 -27 104 -81v-319h-259v-78c0 -1.33301 0.666992 -2 2 -2h47c1.33301 0 2 0.666992 2 2v38h208v-120
c0 -52.667 -34.667 -79 -104 -79h-259z" />
    <glyph glyph-name="N.alt_E" unicode="NE" horiz-adv-x="921" 
d="M390 -199c-70 0 -105 26.333 -105 79v597c0 1.33301 -0.666992 2 -2 2h-47c-1.33301 0 -2 -0.666992 -2 -2v-477h-208v639h208v-41c35.333 27.333 87 41 155 41c69.333 0 104 -27 104 -81v-596c0 -1.33301 0.666992 -2 2 -2h402v-159h-507zM544 0v639h352v-160h-144v-80
h142v-160h-142v-80h145v-159h-353z" />
    <glyph glyph-name="N.alt_exclam" unicode="N&#x21;" horiz-adv-x="792" 
d="M390 -199c-70 0 -105 26.333 -105 79v597c0 1.33301 -0.666992 2 -2 2h-47c-1.33301 0 -2 -0.666992 -2 -2v-477h-208v639h208v-41c35.333 27.333 87 41 155 41c69.333 0 104 -27 104 -81v-596c0 -1.33301 0.666992 -2 2 -2h264v-159h-369zM551 0v159h208v-159h-208z
M551 199v440h208v-440h-208z" />
    <glyph glyph-name="N.alt_F" unicode="NF" horiz-adv-x="948" 
d="M390 -199c-70 0 -105 26.333 -105 79v597c0 1.33301 -0.666992 2 -2 2h-47c-1.33301 0 -2 -0.666992 -2 -2v-477h-208v639h208v-41c35.333 27.333 87 41 155 41c69.333 0 104 -27 104 -81v-596c0 -1.33301 0.666992 -2 2 -2h256v-159h-361zM543 0v558
c0 54 34.667 81 104 81h286v-160h-180c-1.33301 0 -2 -0.666992 -2 -2v-37h180v-160h-180v-280h-208z" />
    <glyph glyph-name="N.alt_G" unicode="NG" horiz-adv-x="1034" 
d="M390 -199c-70 0 -105 26.333 -105 79v597c0 1.33301 -0.666992 2 -2 2h-47c-1.33301 0 -2 -0.666992 -2 -2v-477h-208v639h208v-41c35.333 27.333 87 41 155 41c69.333 0 104 -27 104 -81v-596c0 -1.33301 0.666992 -2 2 -2h514v-159h-619zM646 0
c-69.333 0 -104 26.333 -104 79v479c0 54 34.667 81 104 81h259c69.333 0 104 -27 104 -81v-108h-208v27c0 1.33301 -0.666992 2 -2 2h-47c-1.33301 0 -2 -0.666992 -2 -2v-316c0 -1.33301 0.666992 -2 2 -2h49v232h208v-391h-363z" />
    <glyph glyph-name="N.alt_h" unicode="NH" horiz-adv-x="1036" 
d="M390 -199c-70 0 -105 26.333 -105 79v597c0 1.33301 -0.666992 2 -2 2h-47c-1.33301 0 -2 -0.666992 -2 -2v-477h-208v639h208v-41c35.333 27.333 87 41 155 41c69.333 0 104 -27 104 -81v-596c0 -1.33301 0.666992 -2 2 -2h516v-159h-621zM803 0v477
c0 1.33301 -0.666992 2 -2 2h-49v-479h-208v799h208v-160h155c69.333 0 104 -27 104 -81v-558h-208z" />
    <glyph glyph-name="N.alt_H" unicode="Nh" horiz-adv-x="1037" 
d="M390 -199c-70 0 -105 26.333 -105 79v597c0 1.33301 -0.666992 2 -2 2h-47c-1.33301 0 -2 -0.666992 -2 -2v-477h-208v639h208v-41c35.333 27.333 87 41 155 41c69.333 0 104 -27 104 -81v-596c0 -1.33301 0.666992 -2 2 -2h516v-159h-621zM803 0v246h-51v-246h-208v639
h208v-246h51v246h208v-639h-208z" />
    <glyph glyph-name="N.alt_I" unicode="NI" horiz-adv-x="778" 
d="M390 -199c-70 0 -105 26.333 -105 79v597c0 1.33301 -0.666992 2 -2 2h-47c-1.33301 0 -2 -0.666992 -2 -2v-477h-208v639h208v-41c35.333 27.333 87 41 155 41c69.333 0 104 -27 104 -81v-596c0 -1.33301 0.666992 -2 2 -2h257v-159h-362zM544 0v639h208v-639h-208z" />
    <glyph glyph-name="N.alt_J" unicode="NJ" horiz-adv-x="1028" 
d="M390 -199c-70 0 -105 26.333 -105 79v597c0 1.33301 -0.666992 2 -2 2h-47c-1.33301 0 -2 -0.666992 -2 -2v-477h-208v639h208v-41c35.333 27.333 87 41 155 41c69.333 0 104 -27 104 -81v-596c0 -1.33301 0.666992 -2 2 -2h508v-159h-613zM640 0
c-69.333 0 -104 26.333 -104 79v241h208v-159c0 -1.33301 0.666992 -2 2 -2h47c1.33301 0 2 0.666992 2 2v478h208v-560c0 -52.667 -34.667 -79 -104 -79h-259z" />
    <glyph glyph-name="N.alt_K" unicode="NK" horiz-adv-x="1030" 
d="M390 -199c-70 0 -105 26.333 -105 79v597c0 1.33301 -0.666992 2 -2 2h-47c-1.33301 0 -2 -0.666992 -2 -2v-477h-208v639h208v-41c35.333 27.333 87 41 155 41c69.333 0 104 -27 104 -81v-596c0 -1.33301 0.666992 -2 2 -2h537v-159h-642zM813 0l-68 171v-171h-201v639
h201v-163l62 163h219l-143 -308l149 -331h-219z" />
    <glyph glyph-name="N.alt_L" unicode="NL" horiz-adv-x="902" 
d="M390 -199c-70 0 -105 26.333 -105 79v597c0 1.33301 -0.666992 2 -2 2h-47c-1.33301 0 -2 -0.666992 -2 -2v-477h-208v639h208v-41c35.333 27.333 87 41 155 41c69.333 0 104 -27 104 -81v-596c0 -1.33301 0.666992 -2 2 -2h392v-159h-497zM544 0v639h208v-480h135v-159
h-343z" />
    <glyph glyph-name="N.alt_M" unicode="NM" horiz-adv-x="1295" 
d="M390 -199c-70 0 -105 26.333 -105 79v597c0 1.33301 -0.666992 2 -2 2h-47c-1.33301 0 -2 -0.666992 -2 -2v-477h-208v639h208v-41c35.333 27.333 87 41 155 41c69.333 0 104 -27 104 -81v-596c0 -1.33301 0.666992 -2 2 -2h775v-159h-880zM1064 0l-0.000976562 477.001
c0 1.33301 -0.666992 2 -2 2h-49c-1.33301 0 -2 -0.666992 -2 -2v-477h-208v477c0 1.33301 -0.666992 2 -2 2h-47c-1.33301 0 -2 -0.666992 -2 -2v-477h-208v639h208v-41c12.667 13.333 30.834 23.5 54.501 30.5s50.5 10.5 80.5 10.5c30.667 0 54.5 -4 71.5 -12
s31.167 -20 42.5 -36c15.333 19.333 34.5 32.166 57.5 38.499s50.833 9.5 83.5 9.5c18 0 34.833 -2.16699 50.5 -6.5s29.167 -10.5 40.5 -18.5s20.333 -17.5 27 -28.5s10 -22.833 10 -35.5v-550h-206z" />
    <glyph glyph-name="N.alt_N" unicode="NN" horiz-adv-x="1036" 
d="M390 -199c-70 0 -105 26.333 -105 79v597c0 1.33301 -0.666992 2 -2 2h-47c-1.33301 0 -2 -0.666992 -2 -2v-477h-208v639h208v-41c35.333 27.333 87 41 155 41c69.333 0 104 -27 104 -81v-596c0 -1.33301 0.666992 -2 2 -2h516v-159h-621zM803 0v477
c0 1.33301 -0.666992 2 -2 2h-47c-1.33301 0 -2 -0.666992 -2 -2v-477h-208v639h208v-41c35.333 27.333 87 41 155 41c69.333 0 104 -27 104 -81v-558h-208z" />
    <glyph glyph-name="N.alt_O" unicode="NO" horiz-adv-x="1033" 
d="M390 -199c-70 0 -105 26.333 -105 79v597c0 1.33301 -0.666992 2 -2 2h-47c-1.33301 0 -2 -0.666992 -2 -2v-477h-208v639h208v-41c35.333 27.333 87 41 155 41c69.333 0 104 -27 104 -81v-596c0 -1.33301 0.666992 -2 2 -2h514v-159h-619zM801 477
c0 1.33301 -0.666992 2 -2 2h-47c-1.33301 0 -2 -0.666992 -2 -2v-316c0 -1.33301 0.666992 -2 2 -2h47c1.33301 0 2 0.666992 2 2v316zM646 0c-69.333 0 -104 26.333 -104 79v479c0 54 34.667 81 104 81h259c69.333 0 104 -27 104 -81v-479c0 -52.667 -34.667 -79 -104 -79
h-259z" />
    <glyph glyph-name="N.alt_P" unicode="NP" horiz-adv-x="1026" 
d="M390 -199c-70 0 -105 26.333 -105 79v597c0 1.33301 -0.666992 2 -2 2h-47c-1.33301 0 -2 -0.666992 -2 -2v-477h-208v639h208v-41c35.333 27.333 87 41 155 41c69.333 0 104 -27 104 -81v-596c0 -1.33301 0.666992 -2 2 -2h258v-159h-363zM803 477
c0 1.33301 -0.666992 2 -2 2h-49v-89h49c1.33301 0 2 0.666992 2 2v85zM544 0v639h363c69.333 0 104 -27 104 -81v-238c0 -54 -34.667 -81 -104 -81h-155v-239h-208z" />
    <glyph glyph-name="N.alt_period" unicode="N&#x2e;" horiz-adv-x="778" 
d="M390 -199c-70 0 -105 26.333 -105 79v597c0 1.33301 -0.666992 2 -2 2h-47c-1.33301 0 -2 -0.666992 -2 -2v-477h-208v639h208v-41c35.333 27.333 87 41 155 41c69.333 0 104 -27 104 -81v-596c0 -1.33301 0.666992 -2 2 -2h258v-159h-363zM544 0v159h208v-159h-208z" />
    <glyph glyph-name="N.alt_Q" unicode="NQ" horiz-adv-x="1035" 
d="M390 -199c-70 0 -105 26.333 -105 79v597c0 1.33301 -0.666992 2 -2 2h-47c-1.33301 0 -2 -0.666992 -2 -2v-477h-208v639h208v-41c35.333 27.333 87 41 155 41c69.333 0 104 -27 104 -81v-596c0 -1.33301 0.666992 -2 2 -2h258v-159h-363zM801 -199v199h-155
c-36 0 -62.333 6.5 -79 19.5s-25 32.833 -25 59.5v479c0 54 34.667 81 104 81h363v-838h-208zM801 479h-49c-1.33301 0 -2 -0.666992 -2 -2v-316c0 -1.33301 0.666992 -2 2 -2h49v320z" />
    <glyph glyph-name="N.alt_question" unicode="N&#x3f;" horiz-adv-x="1018" 
d="M390 -199c-70 0 -105 26.333 -105 79v597c0 1.33301 -0.666992 2 -2 2h-47c-1.33301 0 -2 -0.666992 -2 -2v-477h-208v639h208v-41c35.333 27.333 87 41 155 41c69.333 0 104 -27 104 -81v-596c0 -1.33301 0.666992 -2 2 -2h259v-159h-364zM546 0v159h208v-159h-208z
M756 239c-1.33301 0 -2 -0.666992 -2 -2v-38h-208v121c0 52.667 34.667 79 104 79h145c1.33301 0 2 0.666992 2 2v76c0 1.33301 -0.666992 2 -2 2h-47c-1.33301 0 -2 -0.666992 -2 -2v-37h-208v118c0 54 34.667 81 104 81h259c69.333 0 104 -27 104 -81v-238
c0 -54 -34.667 -81 -104 -81h-145z" />
    <glyph glyph-name="N.alt_R" unicode="NR" horiz-adv-x="1036" 
d="M390 -199c-70 0 -105 26.333 -105 79v597c0 1.33301 -0.666992 2 -2 2h-47c-1.33301 0 -2 -0.666992 -2 -2v-477h-208v639h208v-41c35.333 27.333 87 41 155 41c69.333 0 104 -27 104 -81v-596c0 -1.33301 0.666992 -2 2 -2h516v-159h-621zM803 0v254.001
c0 1.33301 -0.666992 2 -2 2h-49v-256h-208v639h363c68.667 0 103 -27 103 -81v-186c0 -30.667 -17 -48 -51 -52c34.667 -4.66699 52 -22.334 52 -53.001v-267h-208zM803 477.001c0 1.33301 -0.666992 2 -2 2h-49v-96h49c1.33301 0 2 0.666992 2 2v92z" />
    <glyph glyph-name="N.alt_S" unicode="NS" horiz-adv-x="1033" 
d="M390 -199c-70 0 -105 26.333 -105 79v597c0 1.33301 -0.666992 2 -2 2h-47c-1.33301 0 -2 -0.666992 -2 -2v-477h-208v639h208v-41c35.333 27.333 87 41 155 41c69.333 0 104 -27 104 -81v-596c0 -1.33301 0.666992 -2 2 -2h514v-159h-619zM646 0
c-69.333 0 -104 26.333 -104 79v120h208v-38c0 -1.33301 0.666992 -2 2 -2h47c1.33301 0 2 0.666992 2 2v76c0 1.33301 -0.666992 2 -2 2h-153c-69.333 0 -104 27 -104 81v238c0 54 34.667 81 104 81h259c69.333 0 104 -27 104 -81v-118h-208v37c0 1.33301 -0.666992 2 -2 2
h-47c-1.33301 0 -2 -0.666992 -2 -2v-76c0 -1.33301 0.666992 -2 2 -2h153c69.333 0 104 -26.333 104 -79v-241c0 -52.667 -34.667 -79 -104 -79h-259z" />
    <glyph glyph-name="N.alt_T" unicode="NT" horiz-adv-x="1067" 
d="M390 -199c-70 0 -105 26.333 -105 79v597c0 1.33301 -0.666992 2 -2 2h-47c-1.33301 0 -2 -0.666992 -2 -2v-477h-208v639h208v-41c35.333 27.333 87 41 155 41c69.333 0 104 -27 104 -81v-596c0 -1.33301 0.666992 -2 2 -2h547v-159h-652zM679 0
c-69.333 0 -104 26.333 -104 79v361h-51v158h51v41h208v-41h259v-158h-259v-279c0 -1.33301 0.666992 -2 2 -2h48c1.33301 0 2 0.666992 2 2v238h207v-320c0 -52.667 -34.667 -79 -104 -79h-259z" />
    <glyph glyph-name="N.alt_U" unicode="NU" horiz-adv-x="1035" 
d="M390 -199c-70 0 -105 26.333 -105 79v597c0 1.33301 -0.666992 2 -2 2h-47c-1.33301 0 -2 -0.666992 -2 -2v-477h-208v639h208v-41c35.333 27.333 87 41 155 41c69.333 0 104 -27 104 -81v-596c0 -1.33301 0.666992 -2 2 -2h515v-159h-620zM647 0
c-69.333 0 -104 26.333 -104 79v560h208v-478c0 -1.33301 0.666992 -2 2 -2h47c1.33301 0 2 0.666992 2 2v478h208v-560c0 -52.667 -34.667 -79 -104 -79h-259z" />
    <glyph glyph-name="N.alt_Y" unicode="NY" horiz-adv-x="1019" 
d="M390 -199c-70 0 -105 26.333 -105 79v597c0 1.33301 -0.666992 2 -2 2h-47c-1.33301 0 -2 -0.666992 -2 -2v-477h-208v639h208v-41c35.333 27.333 87 41 155 41c69.333 0 104 -27 104 -81v-596c0 -1.33301 0.666992 -2 2 -2h380v-159h-485zM667 0v228
c-87.333 0 -131 43.333 -131 130v281h208v-259c0 -1.33301 0.666992 -2 2 -2h47c1.33301 0 2 0.666992 2 2v259h208v-281c0 -86.667 -42.667 -130 -128 -130v-228h-208z" />
    <glyph glyph-name="N.alt_Z" unicode="NZ" horiz-adv-x="1028" 
d="M390 -199c-70 0 -105 26.333 -105 79v597c0 1.33301 -0.666992 2 -2 2h-47c-1.33301 0 -2 -0.666992 -2 -2v-477h-208v639h208v-41c35.333 27.333 87 41 155 41c69.333 0 104 -27 104 -81v-596c0 -1.33301 0.666992 -2 2 -2h513v-159h-618zM541 0v164l223 315h-223v160
h467v-149l-216 -331h216v-159h-467z" />
    <glyph glyph-name="O_F.2" unicode="OF" horiz-adv-x="945" 
d="M283 477c0 1.33301 -0.666992 2 -2 2h-47c-1.33301 0 -2 -0.666992 -2 -2v-316c0 -1.33301 0.666992 -2 2 -2h47c1.33301 0 2 0.666992 2 2v316zM128 0c-69.333 0 -104 26.333 -104 79v479c0 54 34.667 81 104 81h259c69.333 0 104 -27 104 -81v-479
c0 -52.667 -34.667 -79 -104 -79h-259zM24 -199v159h514c1.33301 0 2 0.666992 2 2v596c0 54 34.667 81 104 81h286v-160h-180c-1.33301 0 -2 -0.666992 -2 -2v-37h180v-160h-180v-400c0 -52.667 -34.667 -79 -104 -79h-620z" />
    <glyph glyph-name="O_G.2" unicode="Og" horiz-adv-x="1032" 
d="M283 477c0 1.33301 -0.666992 2 -2 2h-47c-1.33301 0 -2 -0.666992 -2 -2v-316c0 -1.33301 0.666992 -2 2 -2h47c1.33301 0 2 0.666992 2 2v316zM128 0c-69.333 0 -104 26.333 -104 79v479c0 54 34.667 81 104 81h259c69.333 0 104 -27 104 -81v-479
c0 -52.667 -34.667 -79 -104 -79h-259zM24 -199v159h772c1.33301 0 2 0.666992 2 2v38h-155c-69.333 -0 -104 26.333 -104 79v479c0 54 34.667 81 104 81h363v-759c0 -52.667 -34.667 -79 -104 -79h-878zM798 479h-49c-1.33301 0 -2 -0.666992 -2 -2v-316
c0 -1.33301 0.666992 -2 2 -2h49v320z" />
    <glyph glyph-name="O_Y.2" unicode="OY" horiz-adv-x="1032" 
d="M283 477c0 1.33301 -0.666992 2 -2 2h-47c-1.33301 0 -2 -0.666992 -2 -2v-316c0 -1.33301 0.666992 -2 2 -2h47c1.33301 0 2 0.666992 2 2v316zM128 0c-69.333 0 -104 26.333 -104 79v479c0 54 34.667 81 104 81h259c69.333 0 104 -27 104 -81v-479
c0 -52.667 -34.667 -79 -104 -79h-259zM24 -199v159h772c1.33301 0 2 0.666992 2 2v38h-155c-69.333 -0 -104 26.333 -104 79v560h208v-478c0 -1.33301 0.666992 -2 2 -2h49v480h208v-759c0 -52.667 -34.667 -79 -104 -79h-878z" />
    <glyph glyph-name="P_Y.2" unicode="Py" horiz-adv-x="1025" 
d="M285 477c0 1.33301 -0.666992 2 -2 2h-49v-89h49c1.33301 0 2 0.666992 2 2v85zM26 0v639h363c69.333 0 104 -27 104 -81v-238c0 -54 -34.667 -81 -104 -81h-155v-239h-208zM27 -199v159h762c1.33301 0 2 0.666992 2 2v38h-155c-69.333 -0 -104 26.333 -104 79v560h208
v-478c0 -1.33301 0.666992 -2 2 -2h49v480h208v-759c0 -52.667 -34.667 -79 -104 -79h-868z" />
    <glyph glyph-name="Q.alt_U" unicode="QU" horiz-adv-x="1033" 
d="M387 -199c-69.333 0 -104 26.333 -104 79v120h-155c-69.333 -0 -104 26.333 -104 79v479c0 54 34.667 81 104 81h259c69.333 0 104 -27 104 -81v-596c0 -1.33301 0.666992 -2 2 -2h515v-159h-621zM283 477c0 1.33301 -0.666992 2 -2 2h-47c-1.33301 0 -2 -0.666992 -2 -2
v-316c0 -1.33301 0.666992 -2 2 -2h49v318zM645 0c-69.333 0 -104 26.333 -104 79v560h208v-478c0 -1.33301 0.666992 -2 2 -2h47c1.33301 0 2 0.666992 2 2v478h208v-560c0 -52.667 -34.667 -79 -104 -79h-259z" />
    <glyph glyph-name="R.alt_a" unicode="Ra" horiz-adv-x="1034" 
d="M389 -199c-69.333 0 -104 26.334 -104 79.001v374c0 1.33301 -0.666992 2 -2 2h-49v-256h-208v639h363c68.667 0 103 -27 103 -81v-186c0 -30.667 -17 -48 -51 -52c34.667 -4.66699 52 -22.334 52 -53.001v-305c0 -1.33301 0.666992 -2 2 -2h514v-159h-620zM285 477.001
c0 1.33301 -0.666992 2 -2 2h-49v-96h49c1.33301 0 2 0.666992 2 2v92zM801 259.001h-49c-1.33301 0 -2 -0.666992 -2 -2v-96c0 -1.33301 0.666992 -2 2 -2h49v100zM646 0.000976562c-69.333 0 -104 26.333 -104 79v241c0 52.667 34.667 79 104 79h155v78
c0 1.33301 -0.666992 2 -2 2h-47c-1.33301 0 -2 -0.666992 -2 -2v-37h-208v118c0 54 34.667 81 104 81h259c69.333 0 104 -27 104 -81v-558h-363z" />
    <glyph glyph-name="R.alt_A" unicode="RA" horiz-adv-x="1035" 
d="M389 -199c-69.333 0 -104 26.334 -104 79.001v374c0 1.33301 -0.666992 2 -2 2h-49v-256h-208v639h363c68.667 0 103 -27 103 -81v-186c0 -30.667 -17 -48 -51 -52c34.667 -4.66699 52 -22.334 52 -53.001v-305c0 -1.33301 0.666992 -2 2 -2h515v-159h-621zM285 477.001
c0 1.33301 -0.666992 2 -2 2h-49v-96h49c1.33301 0 2 0.666992 2 2v92zM802 477.001c0 1.33301 -0.666992 2 -2 2h-47c-1.33301 0 -2 -0.666992 -2 -2v-78h51v78zM802 0.000976562v239h-51v-239h-208v558c0 54 34.667 81 104 81h259c69.333 0 104 -27 104 -81v-558h-208z
" />
    <glyph glyph-name="R.alt_b" unicode="Rb" horiz-adv-x="1036" 
d="M389 -199c-69.333 0 -104 26.334 -104 79.001v374c0 1.33301 -0.666992 2 -2 2h-49v-256h-208v639h363c68.667 0 103 -27 103 -81v-186c0 -30.667 -17 -48 -51 -52c34.667 -4.66699 52 -22.334 52 -53.001v-305c0 -1.33301 0.666992 -2 2 -2h515v-159h-621zM285 477.001
c0 1.33301 -0.666992 2 -2 2h-49v-96h49c1.33301 0 2 0.666992 2 2v92zM544 0.000976562v799h208v-160h155c69.333 0 104 -27 104 -81v-479c0 -52.667 -34.667 -79 -104 -79h-363zM803 477.001c0 1.33301 -0.666992 2 -2 2h-49v-320h49c1.33301 0 2 0.666992 2 2v316z" />
    <glyph glyph-name="R.alt_B" unicode="RB" horiz-adv-x="1036" 
d="M389 -199c-69.333 0 -104 26.334 -104 79.001v374c0 1.33301 -0.666992 2 -2 2h-49v-256h-208v639h363c68.667 0 103 -27 103 -81v-186c0 -30.667 -17 -48 -51 -52c34.667 -4.66699 52 -22.334 52 -53.001v-305c0 -1.33301 0.666992 -2 2 -2h515v-159h-621zM285 477.001
c0 1.33301 -0.666992 2 -2 2h-49v-96h49c1.33301 0 2 0.666992 2 2v92zM803 477.001c0 1.33301 -0.666992 2 -2 2h-49v-96h49c1.33301 0 2 0.666992 2 2v92zM544 0.000976562v639.001h363c68.667 0 103 -27 103 -81v-186c0 -30.667 -17 -48 -51 -52
c34.667 -4.66699 52 -22.334 52 -53.001v-188c0 -52.667 -34.667 -79 -104 -79h-363zM803 254.002c0 1.33301 -0.666992 2 -2 2h-49v-97h49c1.33301 0 2 0.666992 2 2v93z" />
    <glyph glyph-name="R.alt_C" unicode="RC" horiz-adv-x="1033" 
d="M389 -199c-69.333 0 -104 26.334 -104 79.001v374c0 1.33301 -0.666992 2 -2 2h-49v-256h-208v639h363c68.667 0 103 -27 103 -81v-186c0 -30.667 -17 -48 -51 -52c34.667 -4.66699 52 -22.334 52 -53.001v-305c0 -1.33301 0.666992 -2 2 -2h514v-159h-620zM285 477.001
c0 1.33301 -0.666992 2 -2 2h-49v-96h49c1.33301 0 2 0.666992 2 2v92zM646 0.000976562c-69.333 0 -104 26.333 -104 79v479c0 54 34.667 81 104 81h259c69.333 0 104 -27 104 -81v-189h-208v108c0 1.33301 -0.666992 2 -2 2h-47c-1.33301 0 -2 -0.666992 -2 -2v-316
c0 -1.33301 0.666992 -2 2 -2h47c1.33301 0 2 0.666992 2 2v149h208v-231c0 -52.667 -34.667 -79 -104 -79h-259z" />
    <glyph glyph-name="R.alt_d" unicode="Rd" horiz-adv-x="1035" 
d="M389 -199c-69.333 0 -104 26.334 -104 79.001v374c0 1.33301 -0.666992 2 -2 2h-49v-256h-208v639h363c68.667 0 103 -27 103 -81v-186c0 -30.667 -17 -48 -51 -52c34.667 -4.66699 52 -22.334 52 -53.001v-305c0 -1.33301 0.666992 -2 2 -2h514v-159h-620zM285 477.001
c0 1.33301 -0.666992 2 -2 2h-49v-96h49c1.33301 0 2 0.666992 2 2v92zM646 0.000976562c-36 0 -62.333 6.5 -79 19.5s-25 32.833 -25 59.5v479c0 54 34.667 81 104 81h155v160h208v-799h-363zM801 479.001h-49c-1.33301 0 -2 -0.666992 -2 -2v-316
c0 -1.33301 0.666992 -2 2 -2h49v320z" />
    <glyph glyph-name="R.alt_D" unicode="RD" horiz-adv-x="1035" 
d="M389 -199c-69.333 0 -104 26.334 -104 79.001v374c0 1.33301 -0.666992 2 -2 2h-49v-256h-208v639h363c68.667 0 103 -27 103 -81v-186c0 -30.667 -17 -48 -51 -52c34.667 -4.66699 52 -22.334 52 -53.001v-305c0 -1.33301 0.666992 -2 2 -2h515v-159h-621zM285 477.001
c0 1.33301 -0.666992 2 -2 2h-49v-96h49c1.33301 0 2 0.666992 2 2v92zM803 477.001c0 1.33301 -0.666992 2 -2 2h-49v-320h49c1.33301 0 2 0.666992 2 2v316zM544 0.000976562v639h363c69.333 0 104 -27 104 -81v-479c0 -52.667 -34.667 -79 -104 -79h-363z" />
    <glyph glyph-name="R.alt_e" unicode="Re" horiz-adv-x="1033" 
d="M389 -199c-69.333 0 -104 26.334 -104 79.001v374c0 1.33301 -0.666992 2 -2 2h-49v-256h-208v639h363c68.667 0 103 -27 103 -81v-186c0 -30.667 -17 -48 -51 -52c34.667 -4.66699 52 -22.334 52 -53.001v-305c0 -1.33301 0.666992 -2 2 -2h514v-159h-620zM285 477.001
c0 1.33301 -0.666992 2 -2 2h-49v-96h49c1.33301 0 2 0.666992 2 2v92zM801 477.001c0 1.33301 -0.666992 2 -2 2h-47c-1.33301 0 -2 -0.666992 -2 -2v-89h51v89zM646 0.000976562c-69.333 0 -104 26.333 -104 79v479c0 54 34.667 81 104 81h259c69.333 0 104 -27 104 -81
v-319h-259v-78c0 -1.33301 0.666992 -2 2 -2h47c1.33301 0 2 0.666992 2 2v38h208v-120c0 -52.667 -34.667 -79 -104 -79h-259z" />
    <glyph glyph-name="R.alt_E" unicode="RE" horiz-adv-x="921" 
d="M389 -199c-69.333 0 -104 26.334 -104 79.001v374c0 1.33301 -0.666992 2 -2 2h-49v-256h-208v639h363c68.667 0 103 -27 103 -81v-186c0 -30.667 -17 -48 -51 -52c34.667 -4.66699 52 -22.334 52 -53.001v-305c0 -1.33301 0.666992 -2 2 -2h402v-159h-508zM285 477.001
c0 1.33301 -0.666992 2 -2 2h-49v-96h49c1.33301 0 2 0.666992 2 2v92zM544 0.000976562v639h352v-160h-144v-80h142v-160h-142v-80h145v-159h-353z" />
    <glyph glyph-name="R.alt_exclam" unicode="R&#x21;" horiz-adv-x="792" 
d="M389 -199c-69.333 0 -104 26.334 -104 79.001v374c0 1.33301 -0.666992 2 -2 2h-49v-256h-208v639h363c68.667 0 103 -27 103 -81v-186c0 -30.667 -17 -48 -51 -52c34.667 -4.66699 52 -22.334 52 -53.001v-305c0 -1.33301 0.666992 -2 2 -2h264v-159h-370zM285 477.001
c0 1.33301 -0.666992 2 -2 2h-49v-96h49c1.33301 0 2 0.666992 2 2v92zM551 0.000976562v159h208v-159h-208zM551 199.001v440h208v-440h-208z" />
    <glyph glyph-name="R.alt_F" unicode="RF" horiz-adv-x="948" 
d="M389 -199c-69.333 0 -104 26.334 -104 79.001v374c0 1.33301 -0.666992 2 -2 2h-49v-256h-208v639h363c68.667 0 103 -27 103 -81v-186c0 -30.667 -17 -48 -51 -52c34.667 -4.66699 52 -22.334 52 -53.001v-305c0 -1.33301 0.666992 -2 2 -2h256v-159h-362zM285 477.001
c0 1.33301 -0.666992 2 -2 2h-49v-96h49c1.33301 0 2 0.666992 2 2v92zM543 0.000976562v558c0 54 34.667 81 104 81h286v-160h-180c-1.33301 0 -2 -0.666992 -2 -2v-37h180v-160h-180v-280h-208z" />
    <glyph glyph-name="R.alt_G" unicode="RG" horiz-adv-x="1034" 
d="M389 -199c-69.333 0 -104 26.334 -104 79.001v374c0 1.33301 -0.666992 2 -2 2h-49v-256h-208v639h363c68.667 0 103 -27 103 -81v-186c0 -30.667 -17 -48 -51 -52c34.667 -4.66699 52 -22.334 52 -53.001v-305c0 -1.33301 0.666992 -2 2 -2h514v-159h-620zM285 477.001
c0 1.33301 -0.666992 2 -2 2h-49v-96h49c1.33301 0 2 0.666992 2 2v92zM646 0.000976562c-69.333 0 -104 26.333 -104 79v479c0 54 34.667 81 104 81h259c69.333 0 104 -27 104 -81v-108h-208v27c0 1.33301 -0.666992 2 -2 2h-47c-1.33301 0 -2 -0.666992 -2 -2v-316
c0 -1.33301 0.666992 -2 2 -2h49v232h208v-391h-363z" />
    <glyph glyph-name="R.alt_h" unicode="Rh" horiz-adv-x="1036" 
d="M389 -199c-69.333 0 -104 26.334 -104 79.001v374c0 1.33301 -0.666992 2 -2 2h-49v-256h-208v639h363c68.667 0 103 -27 103 -81v-186c0 -30.667 -17 -48 -51 -52c34.667 -4.66699 52 -22.334 52 -53.001v-305c0 -1.33301 0.666992 -2 2 -2h515v-159h-621zM285 477.001
c0 1.33301 -0.666992 2 -2 2h-49v-96h49c1.33301 0 2 0.666992 2 2v92zM803 0.000976562v477c0 1.33301 -0.666992 2 -2 2h-49v-479h-208v799h208v-160h155c69.333 0 104 -27 104 -81v-558h-208z" />
    <glyph glyph-name="R.alt_H" unicode="RH" horiz-adv-x="1037" 
d="M389 -199c-69.333 0 -104 26.334 -104 79.001v374c0 1.33301 -0.666992 2 -2 2h-49v-256h-208v639h363c68.667 0 103 -27 103 -81v-186c0 -30.667 -17 -48 -51 -52c34.667 -4.66699 52 -22.334 52 -53.001v-305c0 -1.33301 0.666992 -2 2 -2h516v-159h-622zM285 477.001
c0 1.33301 -0.666992 2 -2 2h-49v-96h49c1.33301 0 2 0.666992 2 2v92zM803 0.000976562v246h-51v-246h-208v639h208v-246h51v246h208v-639h-208z" />
    <glyph glyph-name="R.alt_I" unicode="RI" horiz-adv-x="778" 
d="M389 -199c-69.333 0 -104 26.334 -104 79.001v374c0 1.33301 -0.666992 2 -2 2h-49v-256h-208v639h363c68.667 0 103 -27 103 -81v-186c0 -30.667 -17 -48 -51 -52c34.667 -4.66699 52 -22.334 52 -53.001v-305c0 -1.33301 0.666992 -2 2 -2h258v-159h-364zM285 477.001
c0 1.33301 -0.666992 2 -2 2h-49v-96h49c1.33301 0 2 0.666992 2 2v92zM544 0.000976562v639h208v-639h-208z" />
    <glyph glyph-name="R.alt_K" unicode="RK" horiz-adv-x="1030" 
d="M389 -199c-69.333 0 -104 26.334 -104 79.001v374c0 1.33301 -0.666992 2 -2 2h-49v-256h-208v639h363c68.667 0 103 -27 103 -81v-186c0 -30.667 -17 -48 -51 -52c34.667 -4.66699 52 -22.334 52 -53.001v-305c0 -1.33301 0.666992 -2 2 -2h537v-159h-643zM285 477.001
c0 1.33301 -0.666992 2 -2 2h-49v-96h49c1.33301 0 2 0.666992 2 2v92zM813 0.000976562l-68 171v-171h-201v639h201v-163l62 163h219l-143 -308l149 -331h-219z" />
    <glyph glyph-name="R.alt_L" unicode="RL" horiz-adv-x="902" 
d="M389 -199c-69.333 0 -104 26.334 -104 79.001v374c0 1.33301 -0.666992 2 -2 2h-49v-256h-208v639h363c68.667 0 103 -27 103 -81v-186c0 -30.667 -17 -48 -51 -52c34.667 -4.66699 52 -22.334 52 -53.001v-305c0 -1.33301 0.666992 -2 2 -2h392v-159h-498zM285 477.001
c0 1.33301 -0.666992 2 -2 2h-49v-96h49c1.33301 0 2 0.666992 2 2v92zM544 0.000976562v639h208v-480h135v-159h-343z" />
    <glyph glyph-name="R.alt_M" unicode="RM" horiz-adv-x="1295" 
d="M389 -199c-69.333 0 -104 26.334 -104 79.001v374c0 1.33301 -0.666992 2 -2 2h-49v-256h-208v639h363c68.667 0 103 -27 103 -81v-186c0 -30.667 -17 -48 -51 -52c34.667 -4.66699 52 -22.334 52 -53.001v-305c0 -1.33301 0.666992 -2 2 -2h775v-159h-881zM285 477.001
c0 1.33301 -0.666992 2 -2 2h-49v-96h49c1.33301 0 2 0.666992 2 2v92zM1064 0.000976562l-0.000976562 477.001c0 1.33301 -0.666992 2 -2 2h-49c-1.33301 0 -2 -0.666992 -2 -2v-477h-208v477c0 1.33301 -0.666992 2 -2 2h-47c-1.33301 0 -2 -0.666992 -2 -2v-477h-208
v639h208v-41c12.667 13.333 30.834 23.5 54.501 30.5s50.5 10.5 80.5 10.5c30.667 0 54.5 -4 71.5 -12s31.167 -20 42.5 -36c15.333 19.333 34.5 32.166 57.5 38.499s50.833 9.5 83.5 9.5c18 0 34.833 -2.16699 50.5 -6.5s29.167 -10.5 40.5 -18.5s20.333 -17.5 27 -28.5
s10 -22.833 10 -35.5v-550h-206z" />
    <glyph glyph-name="R.alt_N" unicode="RN" horiz-adv-x="1036" 
d="M389 -199c-69.333 0 -104 26.334 -104 79.001v374c0 1.33301 -0.666992 2 -2 2h-49v-256h-208v639h363c68.667 0 103 -27 103 -81v-186c0 -30.667 -17 -48 -51 -52c34.667 -4.66699 52 -22.334 52 -53.001v-305c0 -1.33301 0.666992 -2 2 -2h516v-159h-622zM285 477.001
c0 1.33301 -0.666992 2 -2 2h-49v-96h49c1.33301 0 2 0.666992 2 2v92zM803 0.000976562v477c0 1.33301 -0.666992 2 -2 2h-47c-1.33301 0 -2 -0.666992 -2 -2v-477h-208v639h208v-41c35.333 27.333 87 41 155 41c69.333 0 104 -27 104 -81v-558h-208z" />
    <glyph glyph-name="R.alt_O" unicode="RO" horiz-adv-x="1033" 
d="M389 -199c-69.333 0 -104 26.334 -104 79.001v374c0 1.33301 -0.666992 2 -2 2h-49v-256h-208v639h363c68.667 0 103 -27 103 -81v-186c0 -30.667 -17 -48 -51 -52c34.667 -4.66699 52 -22.334 52 -53.001v-305c0 -1.33301 0.666992 -2 2 -2h514v-159h-620zM285 477.001
c0 1.33301 -0.666992 2 -2 2h-49v-96h49c1.33301 0 2 0.666992 2 2v92zM801 477.001c0 1.33301 -0.666992 2 -2 2h-47c-1.33301 0 -2 -0.666992 -2 -2v-316c0 -1.33301 0.666992 -2 2 -2h47c1.33301 0 2 0.666992 2 2v316zM646 0.000976562c-69.333 0 -104 26.333 -104 79
v479c0 54 34.667 81 104 81h259c69.333 0 104 -27 104 -81v-479c0 -52.667 -34.667 -79 -104 -79h-259z" />
    <glyph glyph-name="R.alt_P" unicode="RP" horiz-adv-x="1026" 
d="M389 -199c-69.333 0 -104 26.334 -104 79.001v374c0 1.33301 -0.666992 2 -2 2h-49v-256h-208v639h363c68.667 0 103 -27 103 -81v-186c0 -30.667 -17 -48 -51 -52c34.667 -4.66699 52 -22.334 52 -53.001v-305c0 -1.33301 0.666992 -2 2 -2h258v-159h-364zM285 477.001
c0 1.33301 -0.666992 2 -2 2h-49v-96h49c1.33301 0 2 0.666992 2 2v92zM803 477.001c0 1.33301 -0.666992 2 -2 2h-49v-89h49c1.33301 0 2 0.666992 2 2v85zM544 0.000976562v639h363c69.333 0 104 -27 104 -81v-238c0 -54 -34.667 -81 -104 -81h-155v-239h-208z" />
    <glyph glyph-name="R.alt_period" unicode="R&#x2e;" horiz-adv-x="778" 
d="M389 -199c-69.333 0 -104 26.334 -104 79.001v374c0 1.33301 -0.666992 2 -2 2h-49v-256h-208v639h363c68.667 0 103 -27 103 -81v-186c0 -30.667 -17 -48 -51 -52c34.667 -4.66699 52 -22.334 52 -53.001v-305c0 -1.33301 0.666992 -2 2 -2h258v-159h-364zM285 477.001
c0 1.33301 -0.666992 2 -2 2h-49v-96h49c1.33301 0 2 0.666992 2 2v92zM544 0.000976562v159h208v-159h-208z" />
    <glyph glyph-name="R.alt_Q" unicode="RQ" horiz-adv-x="1035" 
d="M389 -199c-69.333 0 -104 26.334 -104 79.001v374c0 1.33301 -0.666992 2 -2 2h-49v-256h-208v639h363c68.667 0 103 -27 103 -81v-186c0 -30.667 -17 -48 -51 -52c34.667 -4.66699 52 -22.334 52 -53.001v-305c0 -1.33301 0.666992 -2 2 -2h258v-159h-364zM285 477.001
c0 1.33301 -0.666992 2 -2 2h-49v-96h49c1.33301 0 2 0.666992 2 2v92zM801 -198.999v199h-155c-36 0 -62.333 6.5 -79 19.5s-25 32.833 -25 59.5v479c0 54 34.667 81 104 81h363v-838h-208zM801 479.001h-49c-1.33301 0 -2 -0.666992 -2 -2v-316
c0 -1.33301 0.666992 -2 2 -2h49v320z" />
    <glyph glyph-name="R.alt_question" unicode="R&#x3f;" horiz-adv-x="1018" 
d="M389 -199c-69.333 0 -104 26.334 -104 79.001v374c0 1.33301 -0.666992 2 -2 2h-49v-256h-208v639h363c68.667 0 103 -27 103 -81v-186c0 -30.667 -17 -48 -51 -52c34.667 -4.66699 52 -22.334 52 -53.001v-305c0 -1.33301 0.666992 -2 2 -2h259v-159h-365zM285 477.001
c0 1.33301 -0.666992 2 -2 2h-49v-96h49c1.33301 0 2 0.666992 2 2v92zM546 0.000976562v159h208v-159h-208zM756 239.001c-1.33301 0 -2 -0.666992 -2 -2v-38h-208v121c0 52.667 34.667 79 104 79h145c1.33301 0 2 0.666992 2 2v76c0 1.33301 -0.666992 2 -2 2h-47
c-1.33301 0 -2 -0.666992 -2 -2v-37h-208v118c0 54 34.667 81 104 81h259c69.333 0 104 -27 104 -81v-238c0 -54 -34.667 -81 -104 -81h-145z" />
    <glyph glyph-name="R.alt_R" unicode="RR" horiz-adv-x="1036" 
d="M389 -199c-69.333 0 -104 26.334 -104 79.001v374c0 1.33301 -0.666992 2 -2 2h-49v-256h-208v639h363c68.667 0 103 -27 103 -81v-186c0 -30.667 -17 -48 -51 -52c34.667 -4.66699 52 -22.334 52 -53.001v-305c0 -1.33301 0.666992 -2 2 -2h515v-159h-621zM285 477.001
c0 1.33301 -0.666992 2 -2 2h-49v-96h49c1.33301 0 2 0.666992 2 2v92zM803 0.000976562v254.001c0 1.33301 -0.666992 2 -2 2h-49v-256h-208v639h363c68.667 0 103 -27 103 -81v-186c0 -30.667 -17 -48 -51 -52c34.667 -4.66699 52 -22.334 52 -53.001v-267h-208z
M803 477.002c0 1.33301 -0.666992 2 -2 2h-49v-96h49c1.33301 0 2 0.666992 2 2v92z" />
    <glyph glyph-name="R.alt_S" unicode="RS" horiz-adv-x="1033" 
d="M389 -199c-69.333 0 -104 26.334 -104 79.001v374c0 1.33301 -0.666992 2 -2 2h-49v-256h-208v639h363c68.667 0 103 -27 103 -81v-186c0 -30.667 -17 -48 -51 -52c34.667 -4.66699 52 -22.334 52 -53.001v-305c0 -1.33301 0.666992 -2 2 -2h514v-159h-620zM285 477.001
c0 1.33301 -0.666992 2 -2 2h-49v-96h49c1.33301 0 2 0.666992 2 2v92zM646 0.000976562c-69.333 0 -104 26.333 -104 79v120h208v-38c0 -1.33301 0.666992 -2 2 -2h47c1.33301 0 2 0.666992 2 2v76c0 1.33301 -0.666992 2 -2 2h-153c-69.333 0 -104 27 -104 81v238
c0 54 34.667 81 104 81h259c69.333 0 104 -27 104 -81v-118h-208v37c0 1.33301 -0.666992 2 -2 2h-47c-1.33301 0 -2 -0.666992 -2 -2v-76c0 -1.33301 0.666992 -2 2 -2h153c69.333 0 104 -26.333 104 -79v-241c0 -52.667 -34.667 -79 -104 -79h-259z" />
    <glyph glyph-name="R.alt_T" unicode="RT" horiz-adv-x="1067" 
d="M389 -199c-69.333 0 -104 26.334 -104 79.001v374c0 1.33301 -0.666992 2 -2 2h-49v-256h-208v639h363c68.667 0 103 -27 103 -81v-186c0 -30.667 -17 -48 -51 -52c34.667 -4.66699 52 -22.334 52 -53.001v-305c0 -1.33301 0.666992 -2 2 -2h547v-159h-653zM285 477.001
c0 1.33301 -0.666992 2 -2 2h-49v-96h49c1.33301 0 2 0.666992 2 2v92zM679 0.000976562c-69.333 0 -104 26.333 -104 79v361h-51v158h51v41h208v-41h259v-158h-259v-279c0 -1.33301 0.666992 -2 2 -2h48c1.33301 0 2 0.666992 2 2v238h207v-320
c0 -52.667 -34.667 -79 -104 -79h-259z" />
    <glyph glyph-name="R.alt_U" unicode="RU" horiz-adv-x="1035" 
d="M389 -199c-69.333 0 -104 26.334 -104 79.001v374c0 1.33301 -0.666992 2 -2 2h-49v-256h-208v639h363c68.667 0 103 -27 103 -81v-186c0 -30.667 -17 -48 -51 -52c34.667 -4.66699 52 -22.334 52 -53.001v-305c0 -1.33301 0.666992 -2 2 -2h515v-159h-621zM285 477.001
c0 1.33301 -0.666992 2 -2 2h-49v-96h49c1.33301 0 2 0.666992 2 2v92zM647 0.000976562c-69.333 0 -104 26.333 -104 79v560h208v-478c0 -1.33301 0.666992 -2 2 -2h47c1.33301 0 2 0.666992 2 2v478h208v-560c0 -52.667 -34.667 -79 -104 -79h-259z" />
    <glyph glyph-name="R.alt_Y" unicode="RY" horiz-adv-x="1019" 
d="M389 -199c-69.333 0 -104 26.334 -104 79.001v374c0 1.33301 -0.666992 2 -2 2h-49v-256h-208v639h363c68.667 0 103 -27 103 -81v-186c0 -30.667 -17 -48 -51 -52c34.667 -4.66699 52 -22.334 52 -53.001v-305c0 -1.33301 0.666992 -2 2 -2h380v-159h-486zM285 477.001
c0 1.33301 -0.666992 2 -2 2h-49v-96h49c1.33301 0 2 0.666992 2 2v92zM667 0.000976562v228c-87.333 0 -131 43.333 -131 130v281h208v-259c0 -1.33301 0.666992 -2 2 -2h47c1.33301 0 2 0.666992 2 2v259h208v-281c0 -86.667 -42.667 -130 -128 -130v-228h-208z" />
    <glyph glyph-name="S_F.2" unicode="SF" horiz-adv-x="945" 
d="M128 0c-69.333 0 -104 26.333 -104 79v120h208v-38c0 -1.33301 0.666992 -2 2 -2h47c1.33301 0 2 0.666992 2 2v76c0 1.33301 -0.666992 2 -2 2h-153c-69.333 0 -104 27 -104 81v238c0 54 34.667 81 104 81h259c69.333 0 104 -27 104 -81v-118h-208v37
c0 1.33301 -0.666992 2 -2 2h-47c-1.33301 0 -2 -0.666992 -2 -2v-76c0 -1.33301 0.666992 -2 2 -2h153c69.333 0 104 -26.333 104 -79v-241c0 -52.667 -34.667 -79 -104 -79h-259zM24 -199v159h514c1.33301 0 2 0.666992 2 2v596c0 54 34.667 81 104 81h286v-160h-180
c-1.33301 0 -2 -0.666992 -2 -2v-37h180v-160h-180v-400c0 -52.667 -34.667 -79 -104 -79h-620z" />
    <glyph glyph-name="S_Y.2" unicode="Sy" horiz-adv-x="1032" 
d="M128 0c-69.333 0 -104 26.333 -104 79v120h208v-38c0 -1.33301 0.666992 -2 2 -2h47c1.33301 0 2 0.666992 2 2v76c0 1.33301 -0.666992 2 -2 2h-153c-69.333 0 -104 27 -104 81v238c0 54 34.667 81 104 81h259c69.333 0 104 -27 104 -81v-118h-208v37
c0 1.33301 -0.666992 2 -2 2h-47c-1.33301 0 -2 -0.666992 -2 -2v-76c0 -1.33301 0.666992 -2 2 -2h153c69.333 0 104 -26.333 104 -79v-241c0 -52.667 -34.667 -79 -104 -79h-259zM24 -199v159h772c1.33301 0 2 0.666992 2 2v38h-155c-69.333 -0 -104 26.333 -104 79v560
h208v-478c0 -1.33301 0.666992 -2 2 -2h49v480h208v-759c0 -52.667 -34.667 -79 -104 -79h-878z" />
    <glyph glyph-name="T_F.2" unicode="TF" horiz-adv-x="979" 
d="M161 0c-69.333 0 -104 26.333 -104 79v361h-51v158h51v41h208v-41h259v-158h-259v-279c0 -1.33301 0.666992 -2 2 -2h48c1.33301 0 2 0.666992 2 2v238h207v-320c0 -52.667 -34.667 -79 -104 -79h-259zM57 -199v159h515c1.33301 0 2 0.666992 2 2v596
c0 54 34.667 81 104 81h286v-160h-180c-1.33301 0 -2 -0.666992 -2 -2v-37h180v-160h-180v-400c0 -52.667 -34.667 -79 -104 -79h-621z" />
    <glyph glyph-name="T_G.2" unicode="Tg" horiz-adv-x="1066" 
d="M161 0c-69.333 0 -104 26.333 -104 79v361h-51v158h51v41h208v-41h259v-158h-259v-279c0 -1.33301 0.666992 -2 2 -2h48c1.33301 0 2 0.666992 2 2v238h207v-320c0 -52.667 -34.667 -79 -104 -79h-259zM57 -199v159h773c1.33301 0 2 0.666992 2 2v38h-155
c-69.333 -0 -104 26.333 -104 79v479c0 54 34.667 81 104 81h363v-759c0 -52.667 -34.667 -79 -104 -79h-879zM832 479h-49c-1.33301 0 -2 -0.666992 -2 -2v-316c0 -1.33301 0.666992 -2 2 -2h49v320z" />
    <glyph glyph-name="T_Y.2" unicode="Ty" horiz-adv-x="1066" 
d="M161 0c-69.333 0 -104 26.333 -104 79v361h-51v158h51v41h208v-41h259v-158h-259v-279c0 -1.33301 0.666992 -2 2 -2h48c1.33301 0 2 0.666992 2 2v238h207v-320c0 -52.667 -34.667 -79 -104 -79h-259zM57 -199v159h773c1.33301 0 2 0.666992 2 2v38h-155
c-69.333 -0 -104 26.333 -104 79v560h208v-478c0 -1.33301 0.666992 -2 2 -2h49v480h208v-759c0 -52.667 -34.667 -79 -104 -79h-879z" />
    <glyph glyph-name="U_F.2" unicode="UF" horiz-adv-x="947" 
d="M129 0c-69.333 0 -104 26.333 -104 79v560h208v-478c0 -1.33301 0.666992 -2 2 -2h47c1.33301 0 2 0.666992 2 2v478h208v-560c0 -52.667 -34.667 -79 -104 -79h-259zM25 -199v159h515c1.33301 0 2 0.666992 2 2v596c0 54 34.667 81 104 81h286v-160h-180
c-1.33301 0 -2 -0.666992 -2 -2v-37h180v-160h-180v-400c0 -52.667 -34.667 -79 -104 -79h-621z" />
    <glyph glyph-name="U_G.2" unicode="Ug" horiz-adv-x="1034" 
d="M129 0c-69.333 0 -104 26.333 -104 79v560h208v-478c0 -1.33301 0.666992 -2 2 -2h47c1.33301 0 2 0.666992 2 2v478h208v-560c0 -52.667 -34.667 -79 -104 -79h-259zM25 -199v159h773c1.33301 0 2 0.666992 2 2v38h-155c-69.333 -0 -104 26.333 -104 79v479
c0 54 34.667 81 104 81h363v-759c0 -52.667 -34.667 -79 -104 -79h-879zM800 479h-49c-1.33301 0 -2 -0.666992 -2 -2v-316c0 -1.33301 0.666992 -2 2 -2h49v320z" />
    <glyph glyph-name="U_Y.2" unicode="Uy" horiz-adv-x="1034" 
d="M129 0c-69.333 0 -104 26.333 -104 79v560h208v-478c0 -1.33301 0.666992 -2 2 -2h47c1.33301 0 2 0.666992 2 2v478h208v-560c0 -52.667 -34.667 -79 -104 -79h-259zM25 -199v159h773c1.33301 0 2 0.666992 2 2v38h-155c-69.333 -0 -104 26.333 -104 79v560h208v-478
c0 -1.33301 0.666992 -2 2 -2h49v480h208v-759c0 -52.667 -34.667 -79 -104 -79h-879z" />
    <glyph glyph-name="Z_A.2" unicode="ZA" horiz-adv-x="1027" 
d="M23 0v164l223 315h-223v160h467v-149l-216 -331h216v-159h-467zM795 477c0 1.33301 -0.666992 2 -2 2h-47c-1.33301 0 -2 -0.666992 -2 -2v-78h51v78zM795 0v239h-51v-359c0 -52.667 -34.667 -79 -104 -79h-617v159h511c1.33301 0 2 0.666992 2 2v596
c0 54 34.667 81 104 81h259c69.333 0 104 -27 104 -81v-558h-208z" />
    <glyph glyph-name="Z_Y.2" unicode="Zy" horiz-adv-x="1027" 
d="M23 0v164l223 315h-223v160h467v-149l-216 -331h216v-159h-467zM23 -199v159h768c1.33301 0 2 0.666992 2 2v38h-155c-69.333 -0 -104 26.333 -104 79v560h208v-478c0 -1.33301 0.666992 -2 2 -2h49v480h208v-759c0 -52.667 -34.667 -79 -104 -79h-874z" />
    <glyph glyph-name=".notdef" horiz-adv-x="452" 
d="M129 0c-64.667 0 -97 28 -97 84v488c0 56.667 32.333 85 97 85h193c65.333 0 98 -28.333 98 -85v-488c0 -56 -32.667 -84 -98 -84h-193zM368 572c0 26 -15.333 39 -46 39h-193c-30.667 0 -46 -13 -46 -39v-488c0 -26 15.333 -39 46 -39h193c30.667 0 46 13 46 39v488z
" />
    <glyph glyph-name="uni0017" horiz-adv-x="223" 
 />
    <glyph glyph-name="space" unicode=" " horiz-adv-x="223" 
 />
    <glyph glyph-name="exclam" unicode="!" horiz-adv-x="274" 
d="M33 0v159h208v-159h-208zM33 199v440h208v-440h-208z" />
    <glyph glyph-name="quotedbl" unicode="&#x22;" horiz-adv-x="494" 
d="M46 525l-26 240h208l-25 -240h-157zM293 525l-26 240h208l-25 -240h-157z" />
    <glyph glyph-name="numbersign" unicode="#" horiz-adv-x="615" 
d="M364 382h-120v-132h120v132zM364 0v130h-120v-130h-119v130h-106v120h106v132h-106v120h106v137h119v-137h120v137h119v-137h115v-120h-115v-132h115v-120h-115v-130h-119z" />
    <glyph glyph-name="dollar" unicode="$" horiz-adv-x="516" 
d="M318 40v-40h-123v40h-171v159h257c1.33301 0 2 0.666992 2 2v36c0 1.33301 -0.666992 2 -2 2h-153c-69.333 0 -104 28.667 -104 86v194c0 54 34.667 81 104 81h67v39h123v-39h173v-160h-257c-1.33301 0 -2 -0.666992 -2 -2v-37c0 -1.33301 0.666992 -2 2 -2h153
c69.333 0 104 -28 104 -84v-195c0 -53.333 -34.667 -80 -104 -80h-69z" />
    <glyph glyph-name="percent" unicode="%" horiz-adv-x="682" 
d="M153 568c0 0.666992 -0.333008 1 -1 1h-23c-0.666992 0 -1 -0.333008 -1 -1v-158l1 -1h23c0.666992 0 1 0.333008 1 1v158zM76 330c-34.667 0 -52 13 -52 39v240c0 26.667 17.333 40 52 40h129c34.667 0 52 -13.333 52 -40v-240c0 -26 -17.333 -39 -52 -39h-129zM106 -40
l365 719h114l-367 -719h-112zM554 228c0 0.666992 -0.333008 1 -1 1h-23c-0.666992 0 -1 -0.333008 -1 -1v-158l1 -1h23c0.666992 0 1 0.333008 1 1v158zM477 -10c-34.667 0 -52 13 -52 39v240c0 26.667 17.333 40 52 40h129c34.667 0 52 -13.333 52 -40v-240
c0 -26 -17.333 -39 -52 -39h-129z" />
    <glyph glyph-name="ampersand" unicode="&#x26;" horiz-adv-x="537" 
d="M127 0c-69.333 0 -104 26.333 -104 79v190c0 27.333 17.333 44.333 52 51c-34.667 4 -52 20.667 -52 50v188c0 54 34.667 81 104 81h232c69.333 0 104 -27 104 -81v-98h-181v17c0 1.33301 -0.666992 2 -2 2h-47c-1.33301 0 -2 -0.666992 -2 -2v-82
c0 -1.33301 0.666992 -2 2 -2h295v-148h-65v-86h65v-159h-401zM282 245h-49c-1.33301 0 -2 -0.666992 -2 -2v-82c0 -1.33301 0.666992 -2 2 -2h49v86z" />
    <glyph glyph-name="quotesingle" unicode="'" horiz-adv-x="247" 
d="M46 525l-26 240h208l-25 -240h-157z" />
    <glyph glyph-name="parenleft" unicode="(" horiz-adv-x="437" 
d="M233 -199c-69.333 0 -104 26.333 -104 79v876c0 54 34.667 81 104 81h174v-160h-68c-1.33301 0 -2 -0.666992 -2 -2v-713c0 -1.33301 0.666992 -2 2 -2h68v-159h-174z" />
    <glyph glyph-name="parenright" unicode=")" horiz-adv-x="440" 
d="M28 -199v159h68c1.33301 0 2 0.666992 2 2v713c0 1.33301 -0.666992 2 -2 2h-68v160h174c69.333 0 104 -27 104 -81v-876c0 -52.667 -34.667 -79 -104 -79h-174z" />
    <glyph glyph-name="asterisk" unicode="*" horiz-adv-x="451" 
d="M360 300c-12 0 -28.667 17.667 -50 53c-10.667 17.333 -19.334 30.5 -26.001 39.5s-13.334 13.5 -20.001 13.5c-6 0 -10.667 -1.66699 -14 -5s-5 -6.66602 -5 -9.99902c0 -10.667 3.33301 -20 10 -28s16 -21.333 28 -40c12 -18 18 -33.667 18 -47
c0 -20.667 -25.333 -31 -76 -31s-76 10.333 -76 31c0 13.333 6 29 18 47c12 18.667 21.333 32 28 40s10 17.333 10 28c0 3.33301 -1.66699 6.66602 -5 9.99902s-8 5 -14 5c-6.66699 0 -13.334 -4.5 -20.001 -13.5s-15.334 -22.167 -26.001 -39.5
c-21.333 -35.333 -38 -53 -50 -53c-8.66699 0 -16.834 3.66699 -24.501 11s-14.5 16 -20.5 26s-10.667 20.5 -14 31.5s-5 20.167 -5 27.5c0 19.333 15.333 29 46 29c13.333 0 23.833 -0.666992 31.5 -2s17.167 -2 28.5 -2c26 0 39 7 39 21s-13 21 -39 21
c-11.333 0 -20.833 -0.666992 -28.5 -2s-18.167 -2 -31.5 -2c-30.667 0 -46 9.66699 -46 29c0 7.33301 1.66699 16.5 5 27.5s8 21.5 14 31.5s12.833 18.667 20.5 26s15.834 11 24.501 11c12 0 28.667 -17.667 50 -53c10.667 -17.333 19.334 -30.5 26.001 -39.5
s13.334 -13.5 20.001 -13.5c6 0 10.667 1.66699 14 5s5 6.66602 5 9.99902c0 10.667 -3.33301 20 -10 28s-16 21.333 -28 40c-12 18 -18 33.667 -18 47c0 20.667 25.333 31 76 31s76 -10.333 76 -31c0 -13.333 -6 -29 -18 -47c-12 -18.667 -21.333 -32 -28 -40
s-10 -17.333 -10 -28c0 -3.33301 1.66699 -6.66602 5 -9.99902s8 -5 14 -5c6.66699 0 13.334 4.5 20.001 13.5s15.334 22.167 26.001 39.5c21.333 35.333 38 53 50 53c8.66699 0 16.834 -3.66699 24.501 -11s14.5 -16 20.5 -26s10.667 -20.5 14 -31.5s5 -20.167 5 -27.5
c0 -19.333 -15.333 -29 -46 -29c-13.333 0 -23.833 0.666992 -31.5 2s-17.167 2 -28.5 2c-26 0 -39 -7 -39 -21s13 -21 39 -21c11.333 0 20.833 0.666992 28.5 2s18.167 2 31.5 2c30.667 0 46 -9.66699 46 -29c0 -7.33301 -1.66699 -16.5 -5 -27.5s-8 -21.5 -14 -31.5
s-12.833 -18.667 -20.5 -26s-15.834 -11 -24.501 -11z" />
    <glyph glyph-name="plus" unicode="+" horiz-adv-x="484" 
d="M185 111v148h-147v120h147v147h120v-147h148v-120h-148v-148h-120z" />
    <glyph glyph-name="comma" unicode="," horiz-adv-x="260" 
d="M26 -120v80h102c1.33301 0 2 0.666992 2 2v38h-104v159h208v-199c0 -53.333 -34.667 -80 -104 -80h-104z" />
    <glyph glyph-name="hyphen" unicode="-" horiz-adv-x="283" 
d="M12 239v160h259v-160h-259z" />
    <glyph glyph-name="period" unicode="." horiz-adv-x="260" 
d="M26 0v159h208v-159h-208z" />
    <glyph glyph-name="slash" unicode="/" horiz-adv-x="423" 
d="M12 -100l259 839h142l-259 -839h-142z" />
    <glyph glyph-name="zero" unicode="0" horiz-adv-x="515" 
d="M283 477c0 1.33301 -0.666992 2 -2 2h-47c-1.33301 0 -2 -0.666992 -2 -2v-316c0 -1.33301 0.666992 -2 2 -2h47c1.33301 0 2 0.666992 2 2v316zM128 0c-69.333 0 -104 26.333 -104 79v479c0 54 34.667 81 104 81h259c69.333 0 104 -27 104 -81v-479
c0 -52.667 -34.667 -79 -104 -79h-259z" />
    <glyph glyph-name="one" unicode="1" horiz-adv-x="260" 
d="M26 0v639h208v-639h-208z" />
    <glyph glyph-name="two" unicode="2" 
d="M25 0v320c0 52.667 34.667 79 104 79h153c1.33301 0 2 0.666992 2 2v76c0 1.33301 -0.666992 2 -2 2h-47c-1.33301 0 -2 -0.666992 -2 -2v-37h-208v118c0 54 34.667 81 104 81h259c69.333 0 104 -27 104 -81v-238c0 -54 -34.667 -81 -104 -81h-153
c-1.33301 0 -2 -0.666992 -2 -2v-78h51v40h208v-199h-467z" />
    <glyph glyph-name="three" unicode="3" horiz-adv-x="515" 
d="M126 0c-69.333 0 -104 26.334 -104 79.001v120h208v-38c0 -1.33301 0.666992 -2 2 -2h47c1.33301 0 2 0.666992 2 2v93c0 1.33301 -0.666992 2 -2 2h-254v127h254c1.33301 0 2 0.666992 2 2v92c0 1.33301 -0.666992 2 -2 2h-47c-1.33301 0 -2 -0.666992 -2 -2v-37h-206
v118c0 54 34.667 81 104 81h257c69.333 0 104 -27 104 -81v-186c0 -30.667 -17.333 -48 -52 -52c34.667 -4.66699 52 -22.334 52 -53.001v-188c0 -52.667 -34.667 -79 -104 -79h-259z" />
    <glyph glyph-name="four" unicode="4" horiz-adv-x="545" 
d="M278 0v178h-259v461h208v-301h51v301h208v-301h53v-160h-53v-178h-208z" />
    <glyph glyph-name="five" unicode="5" horiz-adv-x="516" 
d="M129 0c-69.333 0 -104 27 -104 81v118h208v-37c0 -1.33301 0.666992 -2 2 -2h47c1.33301 0 2 0.666992 2 2v76c0 1.33301 -0.666992 2 -2 2h-257v399h467v-199h-208v40h-51v-80h155c69.333 0 104 -27 104 -81v-238c0 -54 -34.667 -81 -104 -81h-259z" />
    <glyph glyph-name="six" unicode="6" horiz-adv-x="515" 
d="M128 0c-69.333 0 -104 26.333 -104 79v479c0 54 34.667 81 104 81h259c69.333 0 104 -27 104 -81v-118h-208v37c0 1.33301 -0.666992 2 -2 2h-47c-1.33301 0 -2 -0.666992 -2 -2v-78h155c69.333 0 104 -26.333 104 -79v-241c0 -52.667 -34.667 -79 -104 -79h-259z
M283 247c0 1.33301 -0.666992 2 -2 2h-49v-88c0 -1.33301 0.666992 -2 2 -2h47c1.33301 0 2 0.666992 2 2v86z" />
    <glyph glyph-name="seven" unicode="7" horiz-adv-x="494" 
d="M19 0l261 479h-266v160h467v-148l-247 -491h-215z" />
    <glyph glyph-name="eight" unicode="8" horiz-adv-x="515" 
d="M126 0c-69.333 0 -104 26.333 -104 79v188c0 30.667 17.333 48.334 52 53.001c-34.667 4 -52 21.333 -52 52v186c0 54 34.667 81 104 81h259c69.333 0 104 -27 104 -81v-186c0 -30.667 -17.333 -48 -52 -52c34.667 -4.66699 52 -22.334 52 -53.001v-188
c0 -52.667 -34.667 -79 -104 -79h-259zM281 254c0 1.33301 -0.666992 2 -2 2h-47c-1.33301 0 -2 -0.666992 -2 -2v-93c0 -1.33301 0.666992 -2 2 -2h47c1.33301 0 2 0.666992 2 2v93zM281 477c0 1.33301 -0.666992 2 -2 2h-47c-1.33301 0 -2 -0.666992 -2 -2v-92
c0 -1.33301 0.666992 -2 2 -2h47c1.33301 0 2 0.666992 2 2v92z" />
    <glyph glyph-name="nine" unicode="9" horiz-adv-x="515" 
d="M128 0c-69.333 0 -104 27 -104 81v118h208v-37c0 -1.33301 0.666992 -2 2 -2h47c1.33301 0 2 0.666992 2 2v78h-155c-69.333 0 -104 26.333 -104 79v241c0 52.667 34.667 79 104 79h259c69.333 0 104 -26.333 104 -79v-479c0 -54 -34.667 -81 -104 -81h-259zM283 478
c0 1.33301 -0.666992 2 -2 2h-47c-1.33301 0 -2 -0.666992 -2 -2v-86c0 -1.33301 0.666992 -2 2 -2h49v88z" />
    <glyph glyph-name="colon" unicode=":" horiz-adv-x="290" 
d="M43 0v159h208v-159h-208zM43 299v160h208v-160h-208z" />
    <glyph glyph-name="semicolon" unicode=";" horiz-adv-x="290" 
d="M43 299v160h208v-160h-208zM43 -120v80h102c1.33301 0 2 0.666992 2 2v38h-104v159h208v-199c0 -53.333 -34.667 -80 -104 -80h-104z" />
    <glyph glyph-name="less" unicode="&#x3c;" horiz-adv-x="484" 
d="M38 253v120l415 172v-130l-279 -101l279 -97v-130z" />
    <glyph glyph-name="equal" unicode="=" horiz-adv-x="484" 
d="M38 129v120h415v-120h-415zM38 389v120h415v-120h-415z" />
    <glyph glyph-name="greater" unicode="&#x3e;" horiz-adv-x="484" 
d="M38 87v130l279 97l-279 101v130l415 -172v-120z" />
    <glyph glyph-name="question" unicode="?" horiz-adv-x="500" 
d="M28 0v159h208v-159h-208zM238 239c-1.33301 0 -2 -0.666992 -2 -2v-38h-208v121c0 52.667 34.667 79 104 79h145c1.33301 0 2 0.666992 2 2v76c0 1.33301 -0.666992 2 -2 2h-47c-1.33301 0 -2 -0.666992 -2 -2v-37h-208v118c0 54 34.667 81 104 81h259
c69.333 0 104 -27 104 -81v-238c0 -54 -34.667 -81 -104 -81h-145z" />
    <glyph glyph-name="at" unicode="@" horiz-adv-x="499" 
d="M93 0c-40 0 -60 19.333 -60 58v527c0 36 20 54 60 54h311c40 0 60 -18 60 -54v-372c0 -31.333 -15.333 -47 -46 -47h-159c-32.667 0 -49 15.667 -49 47v230c0 31.333 16.333 47 49 47h118v54c0 2.66699 -1.66699 4 -5 4h-226c-4 0 -6 -1.33301 -6 -4v-432
c0 -2 1.66699 -3 5 -3h322v-109h-374zM377 402h-77c-2 0 -3 -1 -3 -3v-135c0 -2.66699 1.33301 -4 4 -4h71c3.33301 0 5 1.66699 5 5v137z" />
    <glyph glyph-name="A" unicode="A" 
d="M284 477c0 1.33301 -0.666992 2 -2 2h-47c-1.33301 0 -2 -0.666992 -2 -2v-78h51v78zM284 0v239h-51v-239h-208v558c0 54 34.667 81 104 81h259c69.333 0 104 -27 104 -81v-558h-208z" />
    <glyph glyph-name="A" unicode="&#x410;" 
d="M284 477c0 1.33301 -0.666992 2 -2 2h-47c-1.33301 0 -2 -0.666992 -2 -2v-78h51v78zM284 0v239h-51v-239h-208v558c0 54 34.667 81 104 81h259c69.333 0 104 -27 104 -81v-558h-208z" />
    <glyph glyph-name="A" unicode="&#x3b1;" 
d="M284 477c0 1.33301 -0.666992 2 -2 2h-47c-1.33301 0 -2 -0.666992 -2 -2v-78h51v78zM284 0v239h-51v-239h-208v558c0 54 34.667 81 104 81h259c69.333 0 104 -27 104 -81v-558h-208z" />
    <glyph glyph-name="A" unicode="&#x391;" 
d="M284 477c0 1.33301 -0.666992 2 -2 2h-47c-1.33301 0 -2 -0.666992 -2 -2v-78h51v78zM284 0v239h-51v-239h-208v558c0 54 34.667 81 104 81h259c69.333 0 104 -27 104 -81v-558h-208z" />
    <glyph glyph-name="B" unicode="B" horiz-adv-x="518" 
d="M285 477c0 1.33301 -0.666992 2 -2 2h-49v-96h49c1.33301 0 2 0.666992 2 2v92zM26 0v639.001h363c68.667 0 103 -27 103 -81v-186c0 -30.667 -17 -48 -51 -52c34.667 -4.66699 52 -22.334 52 -53.001v-188c0 -52.667 -34.667 -79 -104 -79h-363zM285 254.001
c0 1.33301 -0.666992 2 -2 2h-49v-97h49c1.33301 0 2 0.666992 2 2v93z" />
    <glyph glyph-name="B" unicode="&#x432;" horiz-adv-x="518" 
d="M285 477c0 1.33301 -0.666992 2 -2 2h-49v-96h49c1.33301 0 2 0.666992 2 2v92zM26 0v639.001h363c68.667 0 103 -27 103 -81v-186c0 -30.667 -17 -48 -51 -52c34.667 -4.66699 52 -22.334 52 -53.001v-188c0 -52.667 -34.667 -79 -104 -79h-363zM285 254.001
c0 1.33301 -0.666992 2 -2 2h-49v-97h49c1.33301 0 2 0.666992 2 2v93z" />
    <glyph glyph-name="B" unicode="&#x412;" horiz-adv-x="518" 
d="M285 477c0 1.33301 -0.666992 2 -2 2h-49v-96h49c1.33301 0 2 0.666992 2 2v92zM26 0v639.001h363c68.667 0 103 -27 103 -81v-186c0 -30.667 -17 -48 -51 -52c34.667 -4.66699 52 -22.334 52 -53.001v-188c0 -52.667 -34.667 -79 -104 -79h-363zM285 254.001
c0 1.33301 -0.666992 2 -2 2h-49v-97h49c1.33301 0 2 0.666992 2 2v93z" />
    <glyph glyph-name="B" unicode="&#x3b2;" horiz-adv-x="518" 
d="M285 477c0 1.33301 -0.666992 2 -2 2h-49v-96h49c1.33301 0 2 0.666992 2 2v92zM26 0v639.001h363c68.667 0 103 -27 103 -81v-186c0 -30.667 -17 -48 -51 -52c34.667 -4.66699 52 -22.334 52 -53.001v-188c0 -52.667 -34.667 -79 -104 -79h-363zM285 254.001
c0 1.33301 -0.666992 2 -2 2h-49v-97h49c1.33301 0 2 0.666992 2 2v93z" />
    <glyph glyph-name="B" unicode="&#x392;" horiz-adv-x="518" 
d="M285 477c0 1.33301 -0.666992 2 -2 2h-49v-96h49c1.33301 0 2 0.666992 2 2v92zM26 0v639.001h363c68.667 0 103 -27 103 -81v-186c0 -30.667 -17 -48 -51 -52c34.667 -4.66699 52 -22.334 52 -53.001v-188c0 -52.667 -34.667 -79 -104 -79h-363zM285 254.001
c0 1.33301 -0.666992 2 -2 2h-49v-97h49c1.33301 0 2 0.666992 2 2v93z" />
    <glyph glyph-name="C" unicode="C" horiz-adv-x="515" 
d="M128 0c-69.333 0 -104 26.333 -104 79v479c0 54 34.667 81 104 81h259c69.333 0 104 -27 104 -81v-189h-208v108c0 1.33301 -0.666992 2 -2 2h-47c-1.33301 0 -2 -0.666992 -2 -2v-316c0 -1.33301 0.666992 -2 2 -2h47c1.33301 0 2 0.666992 2 2v149h208v-231
c0 -52.667 -34.667 -79 -104 -79h-259z" />
    <glyph glyph-name="C" unicode="&#x441;" horiz-adv-x="515" 
d="M128 0c-69.333 0 -104 26.333 -104 79v479c0 54 34.667 81 104 81h259c69.333 0 104 -27 104 -81v-189h-208v108c0 1.33301 -0.666992 2 -2 2h-47c-1.33301 0 -2 -0.666992 -2 -2v-316c0 -1.33301 0.666992 -2 2 -2h47c1.33301 0 2 0.666992 2 2v149h208v-231
c0 -52.667 -34.667 -79 -104 -79h-259z" />
    <glyph glyph-name="C" unicode="&#x421;" horiz-adv-x="515" 
d="M128 0c-69.333 0 -104 26.333 -104 79v479c0 54 34.667 81 104 81h259c69.333 0 104 -27 104 -81v-189h-208v108c0 1.33301 -0.666992 2 -2 2h-47c-1.33301 0 -2 -0.666992 -2 -2v-316c0 -1.33301 0.666992 -2 2 -2h47c1.33301 0 2 0.666992 2 2v149h208v-231
c0 -52.667 -34.667 -79 -104 -79h-259z" />
    <glyph glyph-name="D" unicode="D" 
d="M285 477c0 1.33301 -0.666992 2 -2 2h-49v-320h49c1.33301 0 2 0.666992 2 2v316zM26 0v639h363c69.333 0 104 -27 104 -81v-479c0 -52.667 -34.667 -79 -104 -79h-363z" />
    <glyph glyph-name="E" unicode="E" horiz-adv-x="403" 
d="M26 0v639h352v-160h-144v-80h142v-160h-142v-80h145v-159h-353z" />
    <glyph glyph-name="E" unicode="&#x415;" horiz-adv-x="403" 
d="M26 0v639h352v-160h-144v-80h142v-160h-142v-80h145v-159h-353z" />
    <glyph glyph-name="E" unicode="&#x3b5;" horiz-adv-x="403" 
d="M26 0v639h352v-160h-144v-80h142v-160h-142v-80h145v-159h-353z" />
    <glyph glyph-name="E" unicode="&#x395;" horiz-adv-x="403" 
d="M26 0v639h352v-160h-144v-80h142v-160h-142v-80h145v-159h-353z" />
    <glyph glyph-name="F" unicode="F" horiz-adv-x="430" 
d="M25 0v558c0 54 34.667 81 104 81h286v-160h-180c-1.33301 0 -2 -0.666992 -2 -2v-37h180v-160h-180v-280h-208z" />
    <glyph glyph-name="G" unicode="G" horiz-adv-x="516" 
d="M128 0c-69.333 0 -104 26.333 -104 79v479c0 54 34.667 81 104 81h259c69.333 0 104 -27 104 -81v-108h-208v27c0 1.33301 -0.666992 2 -2 2h-47c-1.33301 0 -2 -0.666992 -2 -2v-316c0 -1.33301 0.666992 -2 2 -2h49v232h208v-391h-363z" />
    <glyph glyph-name="H" unicode="H" horiz-adv-x="519" 
d="M285 0v246h-51v-246h-208v639h208v-246h51v246h208v-639h-208z" />
    <glyph glyph-name="H" unicode="&#x43d;" horiz-adv-x="519" 
d="M285 0v246h-51v-246h-208v639h208v-246h51v246h208v-639h-208z" />
    <glyph glyph-name="H" unicode="&#x41d;" horiz-adv-x="519" 
d="M285 0v246h-51v-246h-208v639h208v-246h51v246h208v-639h-208z" />
    <glyph glyph-name="H" unicode="&#x3b7;" horiz-adv-x="519" 
d="M285 0v246h-51v-246h-208v639h208v-246h51v246h208v-639h-208z" />
    <glyph glyph-name="H" unicode="&#x397;" horiz-adv-x="519" 
d="M285 0v246h-51v-246h-208v639h208v-246h51v246h208v-639h-208z" />
    <glyph glyph-name="I" unicode="I" horiz-adv-x="260" 
d="M26 0v639h208v-639h-208z" />
    <glyph glyph-name="I" unicode="&#x456;" horiz-adv-x="260" 
d="M26 0v639h208v-639h-208z" />
    <glyph glyph-name="I" unicode="&#x406;" horiz-adv-x="260" 
d="M26 0v639h208v-639h-208z" />
    <glyph glyph-name="I" unicode="&#x3b9;" horiz-adv-x="260" 
d="M26 0v639h208v-639h-208z" />
    <glyph glyph-name="I" unicode="&#x399;" horiz-adv-x="260" 
d="M26 0v639h208v-639h-208z" />
    <glyph glyph-name="J" unicode="J" horiz-adv-x="510" 
d="M122 0c-69.333 0 -104 26.333 -104 79v241h208v-159c0 -1.33301 0.666992 -2 2 -2h47c1.33301 0 2 0.666992 2 2v478h208v-560c0 -52.667 -34.667 -79 -104 -79h-259z" />
    <glyph glyph-name="J" unicode="&#x458;" horiz-adv-x="510" 
d="M122 0c-69.333 0 -104 26.333 -104 79v241h208v-159c0 -1.33301 0.666992 -2 2 -2h47c1.33301 0 2 0.666992 2 2v478h208v-560c0 -52.667 -34.667 -79 -104 -79h-259z" />
    <glyph glyph-name="J" unicode="&#x408;" horiz-adv-x="510" 
d="M122 0c-69.333 0 -104 26.333 -104 79v241h208v-159c0 -1.33301 0.666992 -2 2 -2h47c1.33301 0 2 0.666992 2 2v478h208v-560c0 -52.667 -34.667 -79 -104 -79h-259z" />
    <glyph glyph-name="K" unicode="K" horiz-adv-x="512" 
d="M295 0l-68 171v-171h-201v639h201v-163l62 163h219l-143 -308l149 -331h-219z" />
    <glyph glyph-name="K" unicode="&#x43a;" horiz-adv-x="512" 
d="M295 0l-68 171v-171h-201v639h201v-163l62 163h219l-143 -308l149 -331h-219z" />
    <glyph glyph-name="K" unicode="&#x41a;" horiz-adv-x="512" 
d="M295 0l-68 171v-171h-201v639h201v-163l62 163h219l-143 -308l149 -331h-219z" />
    <glyph glyph-name="K" unicode="&#x3ba;" horiz-adv-x="512" 
d="M295 0l-68 171v-171h-201v639h201v-163l62 163h219l-143 -308l149 -331h-219z" />
    <glyph glyph-name="K" unicode="&#x39a;" horiz-adv-x="512" 
d="M295 0l-68 171v-171h-201v639h201v-163l62 163h219l-143 -308l149 -331h-219z" />
    <glyph glyph-name="L" unicode="L" horiz-adv-x="384" 
d="M26 0v639h208v-480h135v-159h-343z" />
    <glyph glyph-name="M" unicode="M" horiz-adv-x="777" 
d="M546 0l-0.000976562 477.001c0 1.33301 -0.666992 2 -2 2h-49c-1.33301 0 -2 -0.666992 -2 -2v-477h-208v477c0 1.33301 -0.666992 2 -2 2h-47c-1.33301 0 -2 -0.666992 -2 -2v-477h-208v639h208v-41c12.667 13.333 30.834 23.5 54.501 30.5s50.5 10.5 80.5 10.5
c30.667 0 54.5 -4 71.5 -12s31.167 -20 42.5 -36c15.333 19.333 34.5 32.166 57.5 38.499s50.833 9.5 83.5 9.5c18 0 34.833 -2.16699 50.5 -6.5s29.167 -10.5 40.5 -18.5s20.333 -17.5 27 -28.5s10 -22.833 10 -35.5v-550h-206z" />
    <glyph glyph-name="M" unicode="&#x43c;" horiz-adv-x="777" 
d="M546 0l-0.000976562 477.001c0 1.33301 -0.666992 2 -2 2h-49c-1.33301 0 -2 -0.666992 -2 -2v-477h-208v477c0 1.33301 -0.666992 2 -2 2h-47c-1.33301 0 -2 -0.666992 -2 -2v-477h-208v639h208v-41c12.667 13.333 30.834 23.5 54.501 30.5s50.5 10.5 80.5 10.5
c30.667 0 54.5 -4 71.5 -12s31.167 -20 42.5 -36c15.333 19.333 34.5 32.166 57.5 38.499s50.833 9.5 83.5 9.5c18 0 34.833 -2.16699 50.5 -6.5s29.167 -10.5 40.5 -18.5s20.333 -17.5 27 -28.5s10 -22.833 10 -35.5v-550h-206z" />
    <glyph glyph-name="M" unicode="&#x41c;" horiz-adv-x="777" 
d="M546 0l-0.000976562 477.001c0 1.33301 -0.666992 2 -2 2h-49c-1.33301 0 -2 -0.666992 -2 -2v-477h-208v477c0 1.33301 -0.666992 2 -2 2h-47c-1.33301 0 -2 -0.666992 -2 -2v-477h-208v639h208v-41c12.667 13.333 30.834 23.5 54.501 30.5s50.5 10.5 80.5 10.5
c30.667 0 54.5 -4 71.5 -12s31.167 -20 42.5 -36c15.333 19.333 34.5 32.166 57.5 38.499s50.833 9.5 83.5 9.5c18 0 34.833 -2.16699 50.5 -6.5s29.167 -10.5 40.5 -18.5s20.333 -17.5 27 -28.5s10 -22.833 10 -35.5v-550h-206z" />
    <glyph glyph-name="M" unicode="&#x3bc;" horiz-adv-x="777" 
d="M546 0l-0.000976562 477.001c0 1.33301 -0.666992 2 -2 2h-49c-1.33301 0 -2 -0.666992 -2 -2v-477h-208v477c0 1.33301 -0.666992 2 -2 2h-47c-1.33301 0 -2 -0.666992 -2 -2v-477h-208v639h208v-41c12.667 13.333 30.834 23.5 54.501 30.5s50.5 10.5 80.5 10.5
c30.667 0 54.5 -4 71.5 -12s31.167 -20 42.5 -36c15.333 19.333 34.5 32.166 57.5 38.499s50.833 9.5 83.5 9.5c18 0 34.833 -2.16699 50.5 -6.5s29.167 -10.5 40.5 -18.5s20.333 -17.5 27 -28.5s10 -22.833 10 -35.5v-550h-206z" />
    <glyph glyph-name="M" unicode="&#x39c;" horiz-adv-x="777" 
d="M546 0l-0.000976562 477.001c0 1.33301 -0.666992 2 -2 2h-49c-1.33301 0 -2 -0.666992 -2 -2v-477h-208v477c0 1.33301 -0.666992 2 -2 2h-47c-1.33301 0 -2 -0.666992 -2 -2v-477h-208v639h208v-41c12.667 13.333 30.834 23.5 54.501 30.5s50.5 10.5 80.5 10.5
c30.667 0 54.5 -4 71.5 -12s31.167 -20 42.5 -36c15.333 19.333 34.5 32.166 57.5 38.499s50.833 9.5 83.5 9.5c18 0 34.833 -2.16699 50.5 -6.5s29.167 -10.5 40.5 -18.5s20.333 -17.5 27 -28.5s10 -22.833 10 -35.5v-550h-206z" />
    <glyph glyph-name="N" unicode="N" horiz-adv-x="518" 
d="M285 0v477c0 1.33301 -0.666992 2 -2 2h-47c-1.33301 0 -2 -0.666992 -2 -2v-477h-208v639h208v-41c35.333 27.333 87 41 155 41c69.333 0 104 -27 104 -81v-558h-208z" />
    <glyph glyph-name="O" unicode="O" horiz-adv-x="515" 
d="M283 477c0 1.33301 -0.666992 2 -2 2h-47c-1.33301 0 -2 -0.666992 -2 -2v-316c0 -1.33301 0.666992 -2 2 -2h47c1.33301 0 2 0.666992 2 2v316zM128 0c-69.333 0 -104 26.333 -104 79v479c0 54 34.667 81 104 81h259c69.333 0 104 -27 104 -81v-479
c0 -52.667 -34.667 -79 -104 -79h-259z" />
    <glyph glyph-name="O" unicode="&#x43e;" horiz-adv-x="515" 
d="M283 477c0 1.33301 -0.666992 2 -2 2h-47c-1.33301 0 -2 -0.666992 -2 -2v-316c0 -1.33301 0.666992 -2 2 -2h47c1.33301 0 2 0.666992 2 2v316zM128 0c-69.333 0 -104 26.333 -104 79v479c0 54 34.667 81 104 81h259c69.333 0 104 -27 104 -81v-479
c0 -52.667 -34.667 -79 -104 -79h-259z" />
    <glyph glyph-name="O" unicode="&#x41e;" horiz-adv-x="515" 
d="M283 477c0 1.33301 -0.666992 2 -2 2h-47c-1.33301 0 -2 -0.666992 -2 -2v-316c0 -1.33301 0.666992 -2 2 -2h47c1.33301 0 2 0.666992 2 2v316zM128 0c-69.333 0 -104 26.333 -104 79v479c0 54 34.667 81 104 81h259c69.333 0 104 -27 104 -81v-479
c0 -52.667 -34.667 -79 -104 -79h-259z" />
    <glyph glyph-name="O" unicode="&#x3bf;" horiz-adv-x="515" 
d="M283 477c0 1.33301 -0.666992 2 -2 2h-47c-1.33301 0 -2 -0.666992 -2 -2v-316c0 -1.33301 0.666992 -2 2 -2h47c1.33301 0 2 0.666992 2 2v316zM128 0c-69.333 0 -104 26.333 -104 79v479c0 54 34.667 81 104 81h259c69.333 0 104 -27 104 -81v-479
c0 -52.667 -34.667 -79 -104 -79h-259z" />
    <glyph glyph-name="O" unicode="&#x39f;" horiz-adv-x="515" 
d="M283 477c0 1.33301 -0.666992 2 -2 2h-47c-1.33301 0 -2 -0.666992 -2 -2v-316c0 -1.33301 0.666992 -2 2 -2h47c1.33301 0 2 0.666992 2 2v316zM128 0c-69.333 0 -104 26.333 -104 79v479c0 54 34.667 81 104 81h259c69.333 0 104 -27 104 -81v-479
c0 -52.667 -34.667 -79 -104 -79h-259z" />
    <glyph glyph-name="P" unicode="P" horiz-adv-x="508" 
d="M285 477c0 1.33301 -0.666992 2 -2 2h-49v-89h49c1.33301 0 2 0.666992 2 2v85zM26 0v639h363c69.333 0 104 -27 104 -81v-238c0 -54 -34.667 -81 -104 -81h-155v-239h-208z" />
    <glyph glyph-name="P" unicode="&#x420;" horiz-adv-x="508" 
d="M285 477c0 1.33301 -0.666992 2 -2 2h-49v-89h49c1.33301 0 2 0.666992 2 2v85zM26 0v639h363c69.333 0 104 -27 104 -81v-238c0 -54 -34.667 -81 -104 -81h-155v-239h-208z" />
    <glyph glyph-name="P" unicode="&#x3c1;" horiz-adv-x="508" 
d="M285 477c0 1.33301 -0.666992 2 -2 2h-49v-89h49c1.33301 0 2 0.666992 2 2v85zM26 0v639h363c69.333 0 104 -27 104 -81v-238c0 -54 -34.667 -81 -104 -81h-155v-239h-208z" />
    <glyph glyph-name="P" unicode="&#x3a1;" horiz-adv-x="508" 
d="M285 477c0 1.33301 -0.666992 2 -2 2h-49v-89h49c1.33301 0 2 0.666992 2 2v85zM26 0v639h363c69.333 0 104 -27 104 -81v-238c0 -54 -34.667 -81 -104 -81h-155v-239h-208z" />
    <glyph glyph-name="Q" unicode="Q" 
d="M283 -199v199h-155c-36 0 -62.333 6.5 -79 19.5s-25 32.833 -25 59.5v479c0 54 34.667 81 104 81h363v-838h-208zM283 479h-49c-1.33301 0 -2 -0.666992 -2 -2v-316c0 -1.33301 0.666992 -2 2 -2h49v320z" />
    <glyph glyph-name="R" unicode="R" horiz-adv-x="518" 
d="M285 0v254.001c0 1.33301 -0.666992 2 -2 2h-49v-256h-208v639h363c68.667 0 103 -27 103 -81v-186c0 -30.667 -17 -48 -51 -52c34.667 -4.66699 52 -22.334 52 -53.001v-267h-208zM285 477.001c0 1.33301 -0.666992 2 -2 2h-49v-96h49c1.33301 0 2 0.666992 2 2v92z" />
    <glyph glyph-name="S" unicode="S" horiz-adv-x="515" 
d="M128 0c-69.333 0 -104 26.333 -104 79v120h208v-38c0 -1.33301 0.666992 -2 2 -2h47c1.33301 0 2 0.666992 2 2v76c0 1.33301 -0.666992 2 -2 2h-153c-69.333 0 -104 27 -104 81v238c0 54 34.667 81 104 81h259c69.333 0 104 -27 104 -81v-118h-208v37
c0 1.33301 -0.666992 2 -2 2h-47c-1.33301 0 -2 -0.666992 -2 -2v-76c0 -1.33301 0.666992 -2 2 -2h153c69.333 0 104 -26.333 104 -79v-241c0 -52.667 -34.667 -79 -104 -79h-259z" />
    <glyph glyph-name="S" unicode="&#x455;" horiz-adv-x="515" 
d="M128 0c-69.333 0 -104 26.333 -104 79v120h208v-38c0 -1.33301 0.666992 -2 2 -2h47c1.33301 0 2 0.666992 2 2v76c0 1.33301 -0.666992 2 -2 2h-153c-69.333 0 -104 27 -104 81v238c0 54 34.667 81 104 81h259c69.333 0 104 -27 104 -81v-118h-208v37
c0 1.33301 -0.666992 2 -2 2h-47c-1.33301 0 -2 -0.666992 -2 -2v-76c0 -1.33301 0.666992 -2 2 -2h153c69.333 0 104 -26.333 104 -79v-241c0 -52.667 -34.667 -79 -104 -79h-259z" />
    <glyph glyph-name="S" unicode="&#x405;" horiz-adv-x="515" 
d="M128 0c-69.333 0 -104 26.333 -104 79v120h208v-38c0 -1.33301 0.666992 -2 2 -2h47c1.33301 0 2 0.666992 2 2v76c0 1.33301 -0.666992 2 -2 2h-153c-69.333 0 -104 27 -104 81v238c0 54 34.667 81 104 81h259c69.333 0 104 -27 104 -81v-118h-208v37
c0 1.33301 -0.666992 2 -2 2h-47c-1.33301 0 -2 -0.666992 -2 -2v-76c0 -1.33301 0.666992 -2 2 -2h153c69.333 0 104 -26.333 104 -79v-241c0 -52.667 -34.667 -79 -104 -79h-259z" />
    <glyph glyph-name="T" unicode="T" horiz-adv-x="549" 
d="M161 0c-69.333 0 -104 26.333 -104 79v361h-51v158h51v41h208v-41h259v-158h-259v-279c0 -1.33301 0.666992 -2 2 -2h48c1.33301 0 2 0.666992 2 2v238h207v-320c0 -52.667 -34.667 -79 -104 -79h-259z" />
    <glyph glyph-name="U" unicode="U" 
d="M129 0c-69.333 0 -104 26.333 -104 79v560h208v-478c0 -1.33301 0.666992 -2 2 -2h47c1.33301 0 2 0.666992 2 2v478h208v-560c0 -52.667 -34.667 -79 -104 -79h-259z" />
    <glyph glyph-name="V" unicode="V" horiz-adv-x="528" 
d="M107 0l-103 639h211l53 -386l52 386h203l-105 -639h-311z" />
    <glyph glyph-name="W" unicode="W" horiz-adv-x="837" 
d="M473 0l-52 320l-53 -320h-261l-104 639h214l53 -359l52 359h207l51 -359l53 359h201l-104 -639h-257z" />
    <glyph glyph-name="X" unicode="X" horiz-adv-x="509" 
d="M285 0l-50 138l-52 -138h-176l130 342l-119 297h207l49 -138l49 138h165l-113 -292l132 -347h-222z" />
    <glyph glyph-name="X" unicode="&#x445;" horiz-adv-x="509" 
d="M285 0l-50 138l-52 -138h-176l130 342l-119 297h207l49 -138l49 138h165l-113 -292l132 -347h-222z" />
    <glyph glyph-name="X" unicode="&#x425;" horiz-adv-x="509" 
d="M285 0l-50 138l-52 -138h-176l130 342l-119 297h207l49 -138l49 138h165l-113 -292l132 -347h-222z" />
    <glyph glyph-name="X" unicode="&#x3c7;" horiz-adv-x="509" 
d="M285 0l-50 138l-52 -138h-176l130 342l-119 297h207l49 -138l49 138h165l-113 -292l132 -347h-222z" />
    <glyph glyph-name="X" unicode="&#x3a7;" horiz-adv-x="509" 
d="M285 0l-50 138l-52 -138h-176l130 342l-119 297h207l49 -138l49 138h165l-113 -292l132 -347h-222z" />
    <glyph glyph-name="Y" unicode="Y" horiz-adv-x="501" 
d="M149 0v228c-87.333 0 -131 43.333 -131 130v281h208v-259c0 -1.33301 0.666992 -2 2 -2h47c1.33301 0 2 0.666992 2 2v259h208v-281c0 -86.667 -42.667 -130 -128 -130v-228h-208z" />
    <glyph glyph-name="Y" unicode="&#x4af;" horiz-adv-x="501" 
d="M149 0v228c-87.333 0 -131 43.333 -131 130v281h208v-259c0 -1.33301 0.666992 -2 2 -2h47c1.33301 0 2 0.666992 2 2v259h208v-281c0 -86.667 -42.667 -130 -128 -130v-228h-208z" />
    <glyph glyph-name="Y" unicode="&#x4ae;" horiz-adv-x="501" 
d="M149 0v228c-87.333 0 -131 43.333 -131 130v281h208v-259c0 -1.33301 0.666992 -2 2 -2h47c1.33301 0 2 0.666992 2 2v259h208v-281c0 -86.667 -42.667 -130 -128 -130v-228h-208z" />
    <glyph glyph-name="Y" unicode="&#x3c5;" horiz-adv-x="501" 
d="M149 0v228c-87.333 0 -131 43.333 -131 130v281h208v-259c0 -1.33301 0.666992 -2 2 -2h47c1.33301 0 2 0.666992 2 2v259h208v-281c0 -86.667 -42.667 -130 -128 -130v-228h-208z" />
    <glyph glyph-name="Y" unicode="&#x3a5;" horiz-adv-x="501" 
d="M149 0v228c-87.333 0 -131 43.333 -131 130v281h208v-259c0 -1.33301 0.666992 -2 2 -2h47c1.33301 0 2 0.666992 2 2v259h208v-281c0 -86.667 -42.667 -130 -128 -130v-228h-208z" />
    <glyph glyph-name="Z" unicode="Z" horiz-adv-x="510" 
d="M23 0v164l223 315h-223v160h467v-149l-216 -331h216v-159h-467z" />
    <glyph glyph-name="Z" unicode="&#x3b6;" horiz-adv-x="510" 
d="M23 0v164l223 315h-223v160h467v-149l-216 -331h216v-159h-467z" />
    <glyph glyph-name="Z" unicode="&#x396;" horiz-adv-x="510" 
d="M23 0v164l223 315h-223v160h467v-149l-216 -331h216v-159h-467z" />
    <glyph glyph-name="bracketleft" unicode="[" horiz-adv-x="437" 
d="M129 -199v1036h278v-160h-70v-717h70v-159h-278z" />
    <glyph glyph-name="backslash" unicode="\" horiz-adv-x="423" 
d="M271 -100l-259 839h142l259 -839h-142z" />
    <glyph glyph-name="bracketright" unicode="]" horiz-adv-x="439" 
d="M28 -199v159h69v717h-69v160h277v-1036h-277z" />
    <glyph glyph-name="asciicircum" unicode="^" horiz-adv-x="440" 
d="M255 364l-38 164l-37 -164h-125l71 275h191l70 -275h-132z" />
    <glyph glyph-name="underscore" unicode="_" horiz-adv-x="550" 
d="M-2 -117v80h554v-80h-554z" />
    <glyph glyph-name="grave" unicode="`" horiz-adv-x="319" 
d="M20 703v106l283 -69v-70z" />
    <glyph glyph-name="a" unicode="a" horiz-adv-x="516" 
d="M283 259h-49c-1.33301 0 -2 -0.666992 -2 -2v-96c0 -1.33301 0.666992 -2 2 -2h49v100zM128 0c-69.333 0 -104 26.333 -104 79v241c0 52.667 34.667 79 104 79h155v78c0 1.33301 -0.666992 2 -2 2h-47c-1.33301 0 -2 -0.666992 -2 -2v-37h-208v118c0 54 34.667 81 104 81
h259c69.333 0 104 -27 104 -81v-558h-363z" />
    <glyph glyph-name="a" unicode="&#x430;" horiz-adv-x="516" 
d="M283 259h-49c-1.33301 0 -2 -0.666992 -2 -2v-96c0 -1.33301 0.666992 -2 2 -2h49v100zM128 0c-69.333 0 -104 26.333 -104 79v241c0 52.667 34.667 79 104 79h155v78c0 1.33301 -0.666992 2 -2 2h-47c-1.33301 0 -2 -0.666992 -2 -2v-37h-208v118c0 54 34.667 81 104 81
h259c69.333 0 104 -27 104 -81v-558h-363z" />
    <glyph glyph-name="b" unicode="b" horiz-adv-x="518" 
d="M26 0v799h208v-160h155c69.333 0 104 -27 104 -81v-479c0 -52.667 -34.667 -79 -104 -79h-363zM285 477c0 1.33301 -0.666992 2 -2 2h-49v-320h49c1.33301 0 2 0.666992 2 2v316z" />
    <glyph glyph-name="c" unicode="c" horiz-adv-x="515" 
d="M128 0c-69.333 0 -104 26.333 -104 79v479c0 54 34.667 81 104 81h259c69.333 0 104 -27 104 -81v-189h-208v108c0 1.33301 -0.666992 2 -2 2h-47c-1.33301 0 -2 -0.666992 -2 -2v-316c0 -1.33301 0.666992 -2 2 -2h47c1.33301 0 2 0.666992 2 2v149h208v-231
c0 -52.667 -34.667 -79 -104 -79h-259z" />
    <glyph glyph-name="d" unicode="d" 
d="M128 0c-36 0 -62.333 6.5 -79 19.5s-25 32.833 -25 59.5v479c0 54 34.667 81 104 81h155v160h208v-799h-363zM283 479h-49c-1.33301 0 -2 -0.666992 -2 -2v-316c0 -1.33301 0.666992 -2 2 -2h49v320z" />
    <glyph glyph-name="e" unicode="e" horiz-adv-x="515" 
d="M283 477c0 1.33301 -0.666992 2 -2 2h-47c-1.33301 0 -2 -0.666992 -2 -2v-89h51v89zM128 0c-69.333 0 -104 26.333 -104 79v479c0 54 34.667 81 104 81h259c69.333 0 104 -27 104 -81v-319h-259v-78c0 -1.33301 0.666992 -2 2 -2h47c1.33301 0 2 0.666992 2 2v38h208
v-120c0 -52.667 -34.667 -79 -104 -79h-259z" />
    <glyph glyph-name="e" unicode="&#x435;" horiz-adv-x="515" 
d="M283 477c0 1.33301 -0.666992 2 -2 2h-47c-1.33301 0 -2 -0.666992 -2 -2v-89h51v89zM128 0c-69.333 0 -104 26.333 -104 79v479c0 54 34.667 81 104 81h259c69.333 0 104 -27 104 -81v-319h-259v-78c0 -1.33301 0.666992 -2 2 -2h47c1.33301 0 2 0.666992 2 2v38h208
v-120c0 -52.667 -34.667 -79 -104 -79h-259z" />
    <glyph glyph-name="f" unicode="f" horiz-adv-x="430" 
d="M25 0v558c0 54 34.667 81 104 81h286v-160h-180c-1.33301 0 -2 -0.666992 -2 -2v-37h180v-160h-180v-280h-208z" />
    <glyph glyph-name="g" unicode="g" 
d="M24 -199v159h257c1.33301 0 2 0.666992 2 2v38h-155c-69.333 -0 -104 26.333 -104 79v479c0 54 34.667 81 104 81h363v-759c0 -52.667 -34.667 -79 -104 -79h-363zM283 479h-49c-1.33301 0 -2 -0.666992 -2 -2v-316c0 -1.33301 0.666992 -2 2 -2h49v320z" />
    <glyph glyph-name="h" unicode="h" horiz-adv-x="518" 
d="M285 0v477c0 1.33301 -0.666992 2 -2 2h-49v-479h-208v799h208v-160h155c69.333 0 104 -27 104 -81v-558h-208z" />
    <glyph glyph-name="i" unicode="i" horiz-adv-x="260" 
d="M26 0v639h208v-639h-208z" />
    <glyph glyph-name="j" unicode="j" horiz-adv-x="510" 
d="M122 0c-69.333 0 -104 26.333 -104 79v241h208v-159c0 -1.33301 0.666992 -2 2 -2h47c1.33301 0 2 0.666992 2 2v478h208v-560c0 -52.667 -34.667 -79 -104 -79h-259z" />
    <glyph glyph-name="k" unicode="k" horiz-adv-x="512" 
d="M295 0l-68 171v-171h-201v639h201v-163l62 163h219l-143 -308l149 -331h-219z" />
    <glyph glyph-name="l" unicode="l" horiz-adv-x="384" 
d="M26 0v639h208v-480h135v-159h-343z" />
    <glyph glyph-name="m" unicode="m" horiz-adv-x="777" 
d="M546 0l-0.000976562 477.001c0 1.33301 -0.666992 2 -2 2h-49c-1.33301 0 -2 -0.666992 -2 -2v-477h-208v477c0 1.33301 -0.666992 2 -2 2h-47c-1.33301 0 -2 -0.666992 -2 -2v-477h-208v639h208v-41c12.667 13.333 30.834 23.5 54.501 30.5s50.5 10.5 80.5 10.5
c30.667 0 54.5 -4 71.5 -12s31.167 -20 42.5 -36c15.333 19.333 34.5 32.166 57.5 38.499s50.833 9.5 83.5 9.5c18 0 34.833 -2.16699 50.5 -6.5s29.167 -10.5 40.5 -18.5s20.333 -17.5 27 -28.5s10 -22.833 10 -35.5v-550h-206z" />
    <glyph glyph-name="n" unicode="n" horiz-adv-x="518" 
d="M285 0v477c0 1.33301 -0.666992 2 -2 2h-47c-1.33301 0 -2 -0.666992 -2 -2v-477h-208v639h208v-41c35.333 27.333 87 41 155 41c69.333 0 104 -27 104 -81v-558h-208z" />
    <glyph glyph-name="o" unicode="o" horiz-adv-x="515" 
d="M283 477c0 1.33301 -0.666992 2 -2 2h-47c-1.33301 0 -2 -0.666992 -2 -2v-316c0 -1.33301 0.666992 -2 2 -2h47c1.33301 0 2 0.666992 2 2v316zM128 0c-69.333 0 -104 26.333 -104 79v479c0 54 34.667 81 104 81h259c69.333 0 104 -27 104 -81v-479
c0 -52.667 -34.667 -79 -104 -79h-259z" />
    <glyph glyph-name="p" unicode="p" 
d="M24 -199v838h363c69.333 0 104 -27 104 -81v-479c0 -26.667 -8.33301 -46.5 -25 -59.5s-43 -19.5 -79 -19.5h-155v-199h-208zM283 477c0 1.33301 -0.666992 2 -2 2h-49v-320h49c1.33301 0 2 0.666992 2 2v316z" />
    <glyph glyph-name="p" unicode="&#x440;" 
d="M24 -199v838h363c69.333 0 104 -27 104 -81v-479c0 -26.667 -8.33301 -46.5 -25 -59.5s-43 -19.5 -79 -19.5h-155v-199h-208zM283 477c0 1.33301 -0.666992 2 -2 2h-49v-320h49c1.33301 0 2 0.666992 2 2v316z" />
    <glyph glyph-name="q" unicode="q" 
d="M283 -199v199h-155c-36 0 -62.333 6.5 -79 19.5s-25 32.833 -25 59.5v479c0 54 34.667 81 104 81h363v-838h-208zM283 479h-49c-1.33301 0 -2 -0.666992 -2 -2v-316c0 -1.33301 0.666992 -2 2 -2h49v320z" />
    <glyph glyph-name="r" unicode="r" horiz-adv-x="518" 
d="M285 0v254.001c0 1.33301 -0.666992 2 -2 2h-49v-256h-208v639h363c68.667 0 103 -27 103 -81v-186c0 -30.667 -17 -48 -51 -52c34.667 -4.66699 52 -22.334 52 -53.001v-267h-208zM285 477.001c0 1.33301 -0.666992 2 -2 2h-49v-96h49c1.33301 0 2 0.666992 2 2v92z" />
    <glyph glyph-name="s" unicode="s" horiz-adv-x="515" 
d="M128 0c-69.333 0 -104 26.333 -104 79v120h208v-38c0 -1.33301 0.666992 -2 2 -2h47c1.33301 0 2 0.666992 2 2v76c0 1.33301 -0.666992 2 -2 2h-153c-69.333 0 -104 27 -104 81v238c0 54 34.667 81 104 81h259c69.333 0 104 -27 104 -81v-118h-208v37
c0 1.33301 -0.666992 2 -2 2h-47c-1.33301 0 -2 -0.666992 -2 -2v-76c0 -1.33301 0.666992 -2 2 -2h153c69.333 0 104 -26.333 104 -79v-241c0 -52.667 -34.667 -79 -104 -79h-259z" />
    <glyph glyph-name="t" unicode="t" horiz-adv-x="549" 
d="M161 0c-69.333 0 -104 26.333 -104 79v361h-51v158h51v41h208v-41h259v-158h-259v-279c0 -1.33301 0.666992 -2 2 -2h48c1.33301 0 2 0.666992 2 2v238h207v-320c0 -52.667 -34.667 -79 -104 -79h-259z" />
    <glyph glyph-name="u" unicode="u" 
d="M129 0c-69.333 0 -104 26.333 -104 79v560h208v-478c0 -1.33301 0.666992 -2 2 -2h47c1.33301 0 2 0.666992 2 2v478h208v-560c0 -52.667 -34.667 -79 -104 -79h-259z" />
    <glyph glyph-name="v" unicode="v" horiz-adv-x="528" 
d="M107 0l-103 639h211l53 -386l52 386h203l-105 -639h-311z" />
    <glyph glyph-name="w" unicode="w" horiz-adv-x="837" 
d="M473 0l-52 320l-53 -320h-261l-104 639h214l53 -359l52 359h207l51 -359l53 359h201l-104 -639h-257z" />
    <glyph glyph-name="x" unicode="x" horiz-adv-x="509" 
d="M285 0l-50 138l-52 -138h-176l130 342l-119 297h207l49 -138l49 138h165l-113 -292l132 -347h-222z" />
    <glyph glyph-name="y" unicode="y" 
d="M24 -199v159h257c1.33301 0 2 0.666992 2 2v38h-155c-69.333 -0 -104 26.333 -104 79v560h208v-478c0 -1.33301 0.666992 -2 2 -2h49v480h208v-759c0 -52.667 -34.667 -79 -104 -79h-363z" />
    <glyph glyph-name="z" unicode="z" horiz-adv-x="510" 
d="M23 0v164l223 315h-223v160h467v-149l-216 -331h216v-159h-467z" />
    <glyph glyph-name="braceleft" unicode="{" horiz-adv-x="441" 
d="M237 -199c-68.667 0 -103 26.333 -103 79v347l-92 94l92 94v341c0 54 34.333 81 103 81h174v-160h-67c-1.33301 0 -2 -0.666992 -2 -2v-293l-63 -62l63 -60v-298c0 -1.33301 0.666992 -2 2 -2h67v-159h-174z" />
    <glyph glyph-name="bar" unicode="|" horiz-adv-x="307" 
d="M94 -101v841h117v-841h-117z" />
    <glyph glyph-name="braceright" unicode="}" horiz-adv-x="441" 
d="M29 -199v159h67c1.33301 0 2 0.666992 2 2v298l63 60l-63 62v293c0 1.33301 -0.666992 2 -2 2h-67v160h174c68.667 0 103 -27 103 -81v-341l92 -94l-92 -94v-347c0 -52.667 -34.333 -79 -103 -79h-174z" />
    <glyph glyph-name="asciitilde" unicode="~" horiz-adv-x="484" 
d="M453 392c0 -47.333 -8.99902 -82.833 -26.999 -106.5s-48.333 -35.5 -91 -35.5c-19.333 0 -37.166 2.83301 -53.499 8.5s-31.5 12 -45.5 19l-40 19.5c-12.667 6 -24.334 9 -35.001 9c-12 0 -20.833 -4 -26.5 -12s-8.5 -22.667 -8.5 -44h-88c0 47.333 9 82.833 27 106.5
s48.333 35.5 91 35.5c18 0 35.167 -3 51.5 -9s31.833 -12.5 46.5 -19.5l40.5 -19c12.333 -5.66699 24.166 -8.5 35.499 -8.5c12 0 21 4 27 12s9 22.667 9 44h87z" />
    <glyph glyph-name="exclamdown" unicode="&#xa1;" horiz-adv-x="274" 
d="M241.002 639v-158.99h-207.987v158.99h207.987zM241.002 440.012v-439.973h-207.987v439.973h207.987z" />
    <glyph glyph-name="cent" unicode="&#xa2;" horiz-adv-x="512" 
d="M194 0v52h-68c-69.333 0 -104 26.333 -104 79v377c0 53.333 34.667 80 104 80h68v51h147v-51h44c69.333 0 104 -26.667 104 -80v-139h-208v57c0 1.33301 -0.666992 2 -2 2h-47c-1.33301 0 -2 -0.666992 -2 -2v-214c0 -1.33301 0.666992 -2 2 -2h47
c1.33301 0 2 0.666992 2 2v98h208v-179c0 -52.667 -34.667 -79 -104 -79h-44v-52h-147z" />
    <glyph glyph-name="sterling" unicode="&#xa3;" horiz-adv-x="458" 
d="M20 0v159h26v92h-25v137h25v170c0 54 34.667 81 104 81h286v-160h-180c-1.33301 0 -2 -0.666992 -2 -2v-89h92v-138h-92v-91h182v-159h-416z" />
    <glyph glyph-name="currency" unicode="&#xa4;" horiz-adv-x="500" 
d="M346 338c0 12.667 -2.5 24.834 -7.5 36.501s-12 21.667 -21 30s-19.5 15 -31.5 20s-25 7.5 -39 7.5s-27.167 -2.5 -39.5 -7.5s-23 -11.667 -32 -20s-16.167 -18.333 -21.5 -30s-8 -23.834 -8 -36.501c0 -13.333 2.66699 -25.666 8 -36.999s12.5 -21.166 21.5 -29.499
s19.667 -15 32 -20s25.5 -7.5 39.5 -7.5s27 2.5 39 7.5s22.5 11.667 31.5 20s16 18.166 21 29.499s7.5 23.666 7.5 36.999zM330 199c-25.333 -13.333 -53 -20 -83 -20c-15.333 0 -30 1.83301 -44 5.5s-27.667 8.5 -41 14.5l-62 -63l-63 66l56 57
c-7.33301 11.333 -13 23.666 -17 36.999s-6 27.333 -6 42c0 28.667 8 54.667 24 78l-57 59l63 67l62 -66c26 14 54.333 21 85 21c30 0 57.333 -6.66699 82 -20l62 65l65 -67l-58 -58c7.33301 -11.333 13.333 -23.666 18 -36.999s7 -27.333 7 -42
c0 -28.667 -8 -54.667 -24 -78l57 -58l-65 -66z" />
    <glyph glyph-name="yen" unicode="&#xa5;" horiz-adv-x="519" 
d="M157 0v136h-131v49h131v30h-131v48h131v62c-87.333 0 -131 43.333 -131 130v184h208v-162c0 -1.33301 0.666992 -2 2 -2h47c1.33301 0 2 0.666992 2 2v162h208v-184c0 -86.667 -42.667 -130 -128 -130v-62h131v-48h-131v-30h131v-49h-131v-136h-208z" />
    <glyph glyph-name="brokenbar" unicode="&#xa6;" horiz-adv-x="307" 
d="M211 333h-117v407h117v-407zM94 -101v403h117v-403h-117z" />
    <glyph glyph-name="section" unicode="&#xa7;" horiz-adv-x="543" 
d="M218 -199v161.002h107c12.667 0 19 6.33301 19 19v57h-185c-48 0 -82.167 13.167 -102.5 39.5s-30.5 64.166 -30.5 113.499v297c0 49.333 10.167 86.833 30.5 112.5s56.833 38.5 109.5 38.5h159v-160h-107c-12.667 0 -19 -7 -19 -21v-57h184
c47.333 0 81.333 -13.167 102 -39.5s31 -63.833 31 -112.5v-298c0 -48.667 -10 -85.834 -30 -111.501s-56.333 -38.5 -109 -38.5h-159zM344 252.002c0 13.333 -6.33301 20 -19 20h-126v-85c0 -13.333 6.33301 -20 19 -20h126v85z" />
    <glyph glyph-name="dieresis" unicode="&#xa8;" horiz-adv-x="389" 
d="M249 678v111h120v-111h-120zM19 678v111h120v-111h-120z" />
    <glyph glyph-name="copyright" unicode="&#xa9;" horiz-adv-x="556" 
d="M84 0c-40 0 -60 19.333 -60 58v527c0 36 20 54 60 54h388c40 0 60 -18 60 -54v-527c0 -38.667 -20 -58 -60 -58h-388zM425 544c0 2.66699 -2 4 -6 4h-282c-4 0 -6 -1.33301 -6 -4v-432c0 -2 1.66699 -3 5 -3h284c3.33301 0 5 1 5 3v432zM231 201c-28 0 -42 10.667 -42 32
v192c0 22 14 33 42 33h104c28 0 42 -11 42 -33v-66h-84v33c0 1.33301 -0.666992 2 -2 2h-17c-1.33301 0 -2 -0.666992 -2 -2v-125c0 -1.33301 0.666992 -2 2 -2h17c1.33301 0 2 0.666992 2 2v49h84v-83c0 -21.333 -14 -32 -42 -32h-104z" />
    <glyph glyph-name="ordfeminine" unicode="&#xaa;" horiz-adv-x="344" 
d="M186 562c0 0.666992 -0.333008 1 -1 1h-26l-1 -1v-43h28v43zM186 300v131h-28v-131h-114v307c0 29.333 19 44 57 44h142c38.667 0 58 -14.667 58 -44v-307h-115z" />
    <glyph glyph-name="guillemotleft" unicode="&#xab;" horiz-adv-x="396" 
d="M23 272v84l152 121v-111l-71 -51l71 -49v-112zM221 272v84l152 121v-111l-71 -51l71 -49v-112z" />
    <glyph glyph-name="logicalnot" unicode="&#xac;" horiz-adv-x="649" 
d="M462 0v293h-426v114h542v-407h-116z" />
    <glyph glyph-name="registered" unicode="&#xae;" horiz-adv-x="556" 
d="M84 0c-40 0 -60 19.333 -60 58v527c0 36 20 54 60 54h388c40 0 60 -18 60 -54v-527c0 -38.667 -20 -58 -60 -58h-388zM425 544c0 2.66699 -2 4 -6 4h-282c-4 0 -6 -1.33301 -6 -4v-432c0 -2 1.66699 -3 5 -3h284c3.33301 0 5 1 5 3v432zM294 201v100.999
c0 1.33301 -0.666992 2 -2 2h-19v-103h-84v257h147c27.333 0 41 -11 41 -33v-74c0 -12.667 -6 -19.667 -18 -21c12 -3.33301 18 -10.666 18 -21.999v-107h-83zM294 391.999c0 1.33301 -0.666992 2 -2 2h-19v-39h19c1.33301 0 2 0.666992 2 2v35z" />
    <glyph glyph-name="macron" unicode="&#xaf;" horiz-adv-x="391" 
d="M20 695v87h350v-87h-350z" />
    <glyph glyph-name="degree" unicode="&#xb0;" horiz-adv-x="362" 
d="M257 568c0 22 -6.5 39.667 -19.5 53s-30.5 20 -52.5 20s-39.5 -6.66699 -52.5 -20s-19.5 -31 -19.5 -53s6.5 -39.333 19.5 -52s30.5 -19 52.5 -19s39.5 6.33301 52.5 19s19.5 30 19.5 52zM310 568c0 -38 -11.5 -68.167 -34.5 -90.5s-53.5 -33.5 -91.5 -33.5
s-68.333 11.167 -91 33.5s-34 52.5 -34 90.5s11.333 68.5 34 91.5s53 34.5 91 34.5s68.5 -11.5 91.5 -34.5s34.5 -53.5 34.5 -91.5z" />
    <glyph glyph-name="plusminus" unicode="&#xb1;" horiz-adv-x="484" 
d="M185 111v148h-147v120h147v147h120v-147h148v-120h-148v-148h-120zM38 -41v120h415v-120h-415z" />
    <glyph glyph-name="twosuperior" unicode="&#xb2;" horiz-adv-x="288" 
d="M27 330v160c0 26 17.333 39 52 39h77l1 1v38c0 0.666992 -0.333008 1 -1 1h-24l-1 -1v-18h-104v59c0 26.667 17.333 40 52 40h130c34.667 0 52 -13.333 52 -40v-119c0 -27.333 -17.333 -41 -52 -41h-77l-1 -1v-39h26v20h104v-99h-234z" />
    <glyph glyph-name="threesuperior" unicode="&#xb3;" horiz-adv-x="287" 
d="M78 330c-34.667 0 -52 13 -52 39v60h104v-19l1 -1h23c0.666992 0 1 0.333008 1 1v47l-1 1h-127v63h127c0.666992 0 1 0.333008 1 1v46c0 0.666992 -0.333008 1 -1 1h-23c-0.666992 0 -1 -0.333008 -1 -1v-18h-103v59c0 26.667 17.333 40 52 40h128
c34.667 0 52 -13.333 52 -40v-93c0 -15.333 -8 -24 -24 -26c16 -3.33301 24 -12.333 24 -27v-94c0 -26 -17.333 -39 -52 -39h-129z" />
    <glyph glyph-name="acute" unicode="&#xb4;" horiz-adv-x="319" 
d="M20 670v70l283 69v-106z" />
    <glyph glyph-name="paragraph" unicode="&#xb6;" horiz-adv-x="548" 
d="M388 -100l-0.000976562 612h-120v-612h-136v486c-82.667 10 -124 53.333 -124 130c0 17.333 2.66699 33.5 8 48.5s14.333 28 27 39s28.834 19.667 48.501 26s44.167 9.5 73.5 9.5h358v-739h-135z" />
    <glyph glyph-name="periodcentered" unicode="&#xb7;" horiz-adv-x="260" 
d="M26 230v159h208v-159h-208z" />
    <glyph glyph-name="cedilla" unicode="&#xb8;" horiz-adv-x="171" 
d="M12 -199l27 171h120l-63 -171h-84z" />
    <glyph glyph-name="onesuperior" unicode="&#xb9;" horiz-adv-x="160" 
d="M28 330v319h104v-319h-104z" />
    <glyph glyph-name="ordmasculine" unicode="&#xba;" horiz-adv-x="343" 
d="M186 562c0 0.666992 -0.333008 1 -1 1h-26c-0.666992 0 -1 -0.333008 -1 -1v-173c0 -1.33301 0.333008 -2 1 -2h26l1 2v173zM100 300c-38 0 -57 14.333 -57 43v264c0 29.333 19 44 57 44h143c38 0 57 -14.667 57 -44v-264c0 -28.667 -19 -43 -57 -43h-143z" />
    <glyph glyph-name="guillemotright" unicode="&#xbb;" horiz-adv-x="396" 
d="M23 154v112l71 49l-71 51v111l152 -121v-84zM221 154v112l71 49l-71 51v111l152 -121v-84z" />
    <glyph glyph-name="onequarter" unicode="&#xbc;" horiz-adv-x="664" 
d="M30 330v319h104v-319h-104zM24 -40l365 719h114l-367 -719h-112zM510 -10v89h-130v230h104v-150h26v150h104v-150h26v-80h-26v-89h-104z" />
    <glyph glyph-name="onehalf" unicode="&#xbd;" horiz-adv-x="631" 
d="M30 330v319h104v-319h-104zM24 -40l365 719h114l-367 -719h-112zM373 -10v160c0 26 17.333 39 52 39h77l1 1v38c0 0.666992 -0.333008 1 -1 1h-24l-1 -1v-18h-104v59c0 26.667 17.333 40 52 40h130c34.667 0 52 -13.333 52 -40v-119c0 -27.333 -17.333 -41 -52 -41h-77
l-1 -1v-39h26v20h104v-99h-234z" />
    <glyph glyph-name="threequarters" unicode="&#xbe;" horiz-adv-x="737" 
d="M76 330c-34.667 0 -52 13 -52 39v60h104v-19l1 -1h23c0.666992 0 1 0.333008 1 1v47l-1 1h-127v63h127c0.666992 0 1 0.333008 1 1v46c0 0.666992 -0.333008 1 -1 1h-23c-0.666992 0 -1 -0.333008 -1 -1v-18h-103v59c0 26.667 17.333 40 52 40h128
c34.667 0 52 -13.333 52 -40v-93c0 -15.333 -8 -24 -24 -26c16 -3.33301 24 -12.333 24 -27v-94c0 -26 -17.333 -39 -52 -39h-129zM117 -40l365 719h114l-367 -719h-112zM583 -10v89h-130v230h104v-150h26v150h104v-150h26v-80h-26v-89h-104z" />
    <glyph glyph-name="questiondown" unicode="&#xbf;" horiz-adv-x="500" 
d="M473.002 639v-158.99h-207.987v158.99h207.987zM263.015 400.015c1.33301 0 2 0.666992 2 2v37.9971h207.987v-120.992c0 -52.6631 -34.665 -78.9951 -103.994 -78.9951h-144.991c-1.33301 0 -2 -0.666992 -2 -2v-75.9951c0 -1.33301 0.666992 -2 2 -2h46.9971
c1.33301 0 2 0.666992 2 2v36.998h207.987v-117.993c0 -53.9971 -34.6641 -80.9951 -103.993 -80.9951h-258.984c-69.3291 0 -103.994 26.998 -103.994 80.9951v237.985c0 53.9971 34.665 80.9951 103.994 80.9951h144.991z" />
    <glyph glyph-name="Agrave" unicode="&#xc0;" 
d="M284 477c0 1.33301 -0.666992 2 -2 2h-47c-1.33301 0 -2 -0.666992 -2 -2v-78h51v78zM284 0v239h-51v-239h-208v558c0 54 34.667 81 104 81h259c69.333 0 104 -27 104 -81v-558h-208zM87 703v106l283 -69v-70z" />
    <glyph glyph-name="Aacute" unicode="&#xc1;" 
d="M284 477c0 1.33301 -0.666992 2 -2 2h-47c-1.33301 0 -2 -0.666992 -2 -2v-78h51v78zM284 0v239h-51v-239h-208v558c0 54 34.667 81 104 81h259c69.333 0 104 -27 104 -81v-558h-208zM147 670v70l283 69v-106z" />
    <glyph glyph-name="Acircumflex" unicode="&#xc2;" 
d="M284 477c0 1.33301 -0.666992 2 -2 2h-47c-1.33301 0 -2 -0.666992 -2 -2v-78h51v78zM284 0v239h-51v-239h-208v558c0 54 34.667 81 104 81h259c69.333 0 104 -27 104 -81v-558h-208zM313 670l-60 93l-55 -93h-113l101 139h143l102 -139h-118z" />
    <glyph glyph-name="Atilde" unicode="&#xc3;" 
d="M284 477c0 1.33301 -0.666992 2 -2 2h-47c-1.33301 0 -2 -0.666992 -2 -2v-78h51v78zM284 0v239h-51v-239h-208v558c0 54 34.667 81 104 81h259c69.333 0 104 -27 104 -81v-558h-208zM441 799c0 -41.333 -7.83203 -72.333 -23.499 -93s-42.5 -31 -80.5 -31
c-16.667 0 -32.334 2.5 -47.001 7.5s-28.167 10.667 -40.5 17s-24 12 -35 17s-21.5 7.5 -31.5 7.5c-10.667 0 -18.5 -3.33301 -23.5 -10s-7.5 -19.667 -7.5 -39h-77c0 41.333 7.83301 72.333 23.5 93s42.5 31 80.5 31c16 0 31.167 -2.5 45.5 -7.5s28 -10.667 41 -17l36 -17
c11 -5 21.5 -7.5 31.5 -7.5c10.667 0 18.5 3.33301 23.5 10s7.5 19.667 7.5 39h77z" />
    <glyph glyph-name="Adieresis" unicode="&#xc4;" 
d="M284 477c0 1.33301 -0.666992 2 -2 2h-47c-1.33301 0 -2 -0.666992 -2 -2v-78h51v78zM284 0v239h-51v-239h-208v558c0 54 34.667 81 104 81h259c69.333 0 104 -27 104 -81v-558h-208zM313 678v111h120v-111h-120zM83 678v111h120v-111h-120z" />
    <glyph glyph-name="Aring" unicode="&#xc5;" 
d="M284 477c0 1.33301 -0.666992 2 -2 2h-47c-1.33301 0 -2 -0.666992 -2 -2v-78h51v78zM284 0v239h-51v-239h-208v558c0 54 34.667 81 104 81h259c69.333 0 104 -27 104 -81v-558h-208zM300 729c0 11.333 -3.83301 20.5 -11.5 27.5s-18.167 10.5 -31.5 10.5
s-23.666 -3.5 -30.999 -10.5s-11 -16.167 -11 -27.5s3.66699 -20.666 11 -27.999s17.666 -11 30.999 -11s23.833 3.66699 31.5 11s11.5 16.666 11.5 27.999zM345 729c0 -23.333 -7.66699 -42.5 -23 -57.5s-37 -22.5 -65 -22.5s-49.333 7.5 -64 22.5s-22 34.167 -22 57.5
s7.33301 42.5 22 57.5s36 22.5 64 22.5s49.667 -7.5 65 -22.5s23 -34.167 23 -57.5z" />
    <glyph glyph-name="AE" unicode="&#xc6;" horiz-adv-x="660" 
d="M128 0c-69.333 0 -104 26.333 -104 79v241c0 52.667 34.667 79 104 79h155v80h-49c-1.33301 0 -2 -0.666992 -2 -2v-37h-208v118c0 54 34.667 81 104 81h507v-160h-144v-80h142v-160h-142v-80h145v-159h-508zM283 259h-49c-1.33301 0 -2 -0.666992 -2 -2v-96
c0 -1.33301 0.666992 -2 2 -2h49v100z" />
    <glyph glyph-name="Ccedilla" unicode="&#xc7;" horiz-adv-x="515" 
d="M128 0c-69.333 0 -104 26.333 -104 79v479c0 54 34.667 81 104 81h259c69.333 0 104 -27 104 -81v-189h-208v108c0 1.33301 -0.666992 2 -2 2h-47c-1.33301 0 -2 -0.666992 -2 -2v-316c0 -1.33301 0.666992 -2 2 -2h47c1.33301 0 2 0.666992 2 2v149h208v-231
c0 -52.667 -34.667 -79 -104 -79h-259zM171 -199l27 171h120l-63 -171h-84z" />
    <glyph glyph-name="Egrave" unicode="&#xc8;" horiz-adv-x="403" 
d="M26 0v639h352v-160h-144v-80h142v-160h-142v-80h145v-159h-353zM30 703v106l283 -69v-70z" />
    <glyph glyph-name="Egrave" unicode="&#x400;" horiz-adv-x="403" 
d="M26 0v639h352v-160h-144v-80h142v-160h-142v-80h145v-159h-353zM30 703v106l283 -69v-70z" />
    <glyph glyph-name="Eacute" unicode="&#xc9;" horiz-adv-x="403" 
d="M26 0v639h352v-160h-144v-80h142v-160h-142v-80h145v-159h-353zM90 670v70l283 69v-106z" />
    <glyph glyph-name="Ecircumflex" unicode="&#xca;" horiz-adv-x="403" 
d="M26 0v639h352v-160h-144v-80h142v-160h-142v-80h145v-159h-353zM256 670l-60 93l-55 -93h-113l101 139h143l102 -139h-118z" />
    <glyph glyph-name="Edieresis" unicode="&#xcb;" horiz-adv-x="403" 
d="M26 0v639h352v-160h-144v-80h142v-160h-142v-80h145v-159h-353zM256 678v111h120v-111h-120zM26 678v111h120v-111h-120z" />
    <glyph glyph-name="Edieresis" unicode="&#x401;" horiz-adv-x="403" 
d="M26 0v639h352v-160h-144v-80h142v-160h-142v-80h145v-159h-353zM256 678v111h120v-111h-120zM26 678v111h120v-111h-120z" />
    <glyph glyph-name="Igrave" unicode="&#xcc;" horiz-adv-x="260" 
d="M26 0v639h208v-639h-208zM-41 703v106l283 -69v-70z" />
    <glyph glyph-name="Iacute" unicode="&#xcd;" horiz-adv-x="260" 
d="M26 0v639h208v-639h-208zM19 670v70l283 69v-106z" />
    <glyph glyph-name="Icircumflex" unicode="&#xce;" horiz-adv-x="260" 
d="M26 0v639h208v-639h-208zM185 670l-60 93l-55 -93h-113l101 139h143l102 -139h-118z" />
    <glyph glyph-name="Idieresis" unicode="&#xcf;" horiz-adv-x="260" 
d="M26 0v639h208v-639h-208zM148 678v111h120v-111h-120zM-12 678v111h120v-111h-120z" />
    <glyph glyph-name="Idieresis" unicode="&#x457;" horiz-adv-x="260" 
d="M26 0v639h208v-639h-208zM148 678v111h120v-111h-120zM-12 678v111h120v-111h-120z" />
    <glyph glyph-name="Idieresis" unicode="&#x407;" horiz-adv-x="260" 
d="M26 0v639h208v-639h-208zM148 678v111h120v-111h-120zM-12 678v111h120v-111h-120z" />
    <glyph glyph-name="Idieresis" unicode="&#x3ca;" horiz-adv-x="260" 
d="M26 0v639h208v-639h-208zM148 678v111h120v-111h-120zM-12 678v111h120v-111h-120z" />
    <glyph glyph-name="Idieresis" unicode="&#x3aa;" horiz-adv-x="260" 
d="M26 0v639h208v-639h-208zM148 678v111h120v-111h-120zM-12 678v111h120v-111h-120z" />
    <glyph glyph-name="Idieresis" unicode="&#xef;" horiz-adv-x="260" 
d="M26 0v639h208v-639h-208zM148 678v111h120v-111h-120zM-12 678v111h120v-111h-120z" />
    <glyph glyph-name="Eth" unicode="&#xd0;" 
d="M26 0v263h-26v116h26v260h363c69.333 0 104 -27 104 -81v-479c0 -52.667 -34.667 -79 -104 -79h-363zM285 477c0 1.33301 -0.666992 2 -2 2h-54v-100h29v-116h-29v-104h54c1.33301 0 2 0.666992 2 2v316z" />
    <glyph glyph-name="Ntilde" unicode="&#xd1;" horiz-adv-x="518" 
d="M285 0v477c0 1.33301 -0.666992 2 -2 2h-47c-1.33301 0 -2 -0.666992 -2 -2v-477h-208v639h208v-41c35.333 27.333 87 41 155 41c69.333 0 104 -27 104 -81v-558h-208zM452 799c0 -41.333 -7.83203 -72.333 -23.499 -93s-42.5 -31 -80.5 -31
c-16.667 0 -32.334 2.5 -47.001 7.5s-28.167 10.667 -40.5 17s-24 12 -35 17s-21.5 7.5 -31.5 7.5c-10.667 0 -18.5 -3.33301 -23.5 -10s-7.5 -19.667 -7.5 -39h-77c0 41.333 7.83301 72.333 23.5 93s42.5 31 80.5 31c16 0 31.167 -2.5 45.5 -7.5s28 -10.667 41 -17l36 -17
c11 -5 21.5 -7.5 31.5 -7.5c10.667 0 18.5 3.33301 23.5 10s7.5 19.667 7.5 39h77z" />
    <glyph glyph-name="Ograve" unicode="&#xd2;" horiz-adv-x="515" 
d="M283 477c0 1.33301 -0.666992 2 -2 2h-47c-1.33301 0 -2 -0.666992 -2 -2v-316c0 -1.33301 0.666992 -2 2 -2h47c1.33301 0 2 0.666992 2 2v316zM128 0c-69.333 0 -104 26.333 -104 79v479c0 54 34.667 81 104 81h259c69.333 0 104 -27 104 -81v-479
c0 -52.667 -34.667 -79 -104 -79h-259zM86 703v106l283 -69v-70z" />
    <glyph glyph-name="Oacute" unicode="&#xd3;" horiz-adv-x="515" 
d="M283 477c0 1.33301 -0.666992 2 -2 2h-47c-1.33301 0 -2 -0.666992 -2 -2v-316c0 -1.33301 0.666992 -2 2 -2h47c1.33301 0 2 0.666992 2 2v316zM128 0c-69.333 0 -104 26.333 -104 79v479c0 54 34.667 81 104 81h259c69.333 0 104 -27 104 -81v-479
c0 -52.667 -34.667 -79 -104 -79h-259zM146 670v70l283 69v-106z" />
    <glyph glyph-name="Ocircumflex" unicode="&#xd4;" horiz-adv-x="515" 
d="M283 477c0 1.33301 -0.666992 2 -2 2h-47c-1.33301 0 -2 -0.666992 -2 -2v-316c0 -1.33301 0.666992 -2 2 -2h47c1.33301 0 2 0.666992 2 2v316zM128 0c-69.333 0 -104 26.333 -104 79v479c0 54 34.667 81 104 81h259c69.333 0 104 -27 104 -81v-479
c0 -52.667 -34.667 -79 -104 -79h-259zM312 670l-60 93l-55 -93h-113l101 139h143l102 -139h-118z" />
    <glyph glyph-name="Otilde" unicode="&#xd5;" horiz-adv-x="515" 
d="M283 477c0 1.33301 -0.666992 2 -2 2h-47c-1.33301 0 -2 -0.666992 -2 -2v-316c0 -1.33301 0.666992 -2 2 -2h47c1.33301 0 2 0.666992 2 2v316zM128 0c-69.333 0 -104 26.333 -104 79v479c0 54 34.667 81 104 81h259c69.333 0 104 -27 104 -81v-479
c0 -52.667 -34.667 -79 -104 -79h-259zM440 799c0 -41.333 -7.83203 -72.333 -23.499 -93s-42.5 -31 -80.5 -31c-16.667 0 -32.334 2.5 -47.001 7.5s-28.167 10.667 -40.5 17s-24 12 -35 17s-21.5 7.5 -31.5 7.5c-10.667 0 -18.5 -3.33301 -23.5 -10s-7.5 -19.667 -7.5 -39
h-77c0 41.333 7.83301 72.333 23.5 93s42.5 31 80.5 31c16 0 31.167 -2.5 45.5 -7.5s28 -10.667 41 -17l36 -17c11 -5 21.5 -7.5 31.5 -7.5c10.667 0 18.5 3.33301 23.5 10s7.5 19.667 7.5 39h77z" />
    <glyph glyph-name="Odieresis" unicode="&#xd6;" horiz-adv-x="515" 
d="M283 477c0 1.33301 -0.666992 2 -2 2h-47c-1.33301 0 -2 -0.666992 -2 -2v-316c0 -1.33301 0.666992 -2 2 -2h47c1.33301 0 2 0.666992 2 2v316zM128 0c-69.333 0 -104 26.333 -104 79v479c0 54 34.667 81 104 81h259c69.333 0 104 -27 104 -81v-479
c0 -52.667 -34.667 -79 -104 -79h-259zM312 678v111h120v-111h-120zM82 678v111h120v-111h-120z" />
    <glyph glyph-name="multiply" unicode="&#xd7;" horiz-adv-x="484" 
d="M349 129l-105 105l-104 -104l-85 85l104 104l-104 104l85 85l104 -104l105 104l85 -85l-105 -104l105 -105z" />
    <glyph glyph-name="Oslash" unicode="&#xd8;" horiz-adv-x="515" 
d="M127 0l-34 -70l-45 18l28 58c-34.667 10.667 -52 35 -52 73v479c0 54 34.667 81 104 81h259l40 82l46 -18l-35 -71c35.333 -11.333 53 -36 53 -74v-479c0 -52.667 -34.667 -79 -104 -79h-260zM283 316l-51 -104v-51c0 -1.33301 0.666992 -2 2 -2h47
c1.33301 0 2 0.666992 2 2v155zM283 427v50c0 1.33301 -0.666992 2 -2 2h-47c-1.33301 0 -2 -0.666992 -2 -2v-154z" />
    <glyph glyph-name="Ugrave" unicode="&#xd9;" 
d="M129 0c-69.333 0 -104 26.333 -104 79v560h208v-478c0 -1.33301 0.666992 -2 2 -2h47c1.33301 0 2 0.666992 2 2v478h208v-560c0 -52.667 -34.667 -79 -104 -79h-259zM87 703v106l283 -69v-70z" />
    <glyph glyph-name="Uacute" unicode="&#xda;" 
d="M129 0c-69.333 0 -104 26.333 -104 79v560h208v-478c0 -1.33301 0.666992 -2 2 -2h47c1.33301 0 2 0.666992 2 2v478h208v-560c0 -52.667 -34.667 -79 -104 -79h-259zM147 670v70l283 69v-106z" />
    <glyph glyph-name="Ucircumflex" unicode="&#xdb;" 
d="M129 0c-69.333 0 -104 26.333 -104 79v560h208v-478c0 -1.33301 0.666992 -2 2 -2h47c1.33301 0 2 0.666992 2 2v478h208v-560c0 -52.667 -34.667 -79 -104 -79h-259zM313 670l-60 93l-55 -93h-113l101 139h143l102 -139h-118z" />
    <glyph glyph-name="Udieresis" unicode="&#xdc;" 
d="M129 0c-69.333 0 -104 26.333 -104 79v560h208v-478c0 -1.33301 0.666992 -2 2 -2h47c1.33301 0 2 0.666992 2 2v478h208v-560c0 -52.667 -34.667 -79 -104 -79h-259zM313 678v111h120v-111h-120zM83 678v111h120v-111h-120z" />
    <glyph glyph-name="Yacute" unicode="&#xdd;" horiz-adv-x="501" 
d="M149 0v228c-87.333 0 -131 43.333 -131 130v281h208v-259c0 -1.33301 0.666992 -2 2 -2h47c1.33301 0 2 0.666992 2 2v259h208v-281c0 -86.667 -42.667 -130 -128 -130v-228h-208zM139 670v70l283 69v-106z" />
    <glyph glyph-name="Thorn" unicode="&#xde;" horiz-adv-x="507" 
d="M285 359c0 1.33301 -0.666992 2 -2 2h-49v-88h49c1.33301 0 2 0.666992 2 2v84zM234 117v-117h-208v639h208v-122h155c69.333 0 104 -27 104 -81v-238c0 -54 -34.667 -81 -104 -81h-155z" />
    <glyph glyph-name="germandbls" unicode="&#xdf;" horiz-adv-x="1030" 
d="M128 0c-69.333 0 -104 26.333 -104 79v120h208v-38c0 -1.33301 0.666992 -2 2 -2h47c1.33301 0 2 0.666992 2 2v76c0 1.33301 -0.666992 2 -2 2h-153c-69.333 0 -104 27 -104 81v238c0 54 34.667 81 104 81h259c69.333 0 104 -27 104 -81v-118h-208v37
c0 1.33301 -0.666992 2 -2 2h-47c-1.33301 0 -2 -0.666992 -2 -2v-76c0 -1.33301 0.666992 -2 2 -2h153c69.333 0 104 -26.333 104 -79v-241c0 -52.667 -34.667 -79 -104 -79h-259zM643 0c-69.333 0 -104 26.333 -104 79v120h208v-38c0 -1.33301 0.666992 -2 2 -2h47
c1.33301 0 2 0.666992 2 2v76c0 1.33301 -0.666992 2 -2 2h-153c-69.333 0 -104 27 -104 81v238c0 54 34.667 81 104 81h259c69.333 0 104 -27 104 -81v-118h-208v37c0 1.33301 -0.666992 2 -2 2h-47c-1.33301 0 -2 -0.666992 -2 -2v-76c0 -1.33301 0.666992 -2 2 -2h153
c69.333 0 104 -26.333 104 -79v-241c0 -52.667 -34.667 -79 -104 -79h-259z" />
    <glyph glyph-name="agrave" unicode="&#xe0;" horiz-adv-x="516" 
d="M283 259h-49c-1.33301 0 -2 -0.666992 -2 -2v-96c0 -1.33301 0.666992 -2 2 -2h49v100zM128 0c-69.333 0 -104 26.333 -104 79v241c0 52.667 34.667 79 104 79h155v78c0 1.33301 -0.666992 2 -2 2h-47c-1.33301 0 -2 -0.666992 -2 -2v-37h-208v118c0 54 34.667 81 104 81
h259c69.333 0 104 -27 104 -81v-558h-363zM86 703v106l283 -69v-70z" />
    <glyph glyph-name="aacute" unicode="&#xe1;" horiz-adv-x="516" 
d="M283 259h-49c-1.33301 0 -2 -0.666992 -2 -2v-96c0 -1.33301 0.666992 -2 2 -2h49v100zM128 0c-69.333 0 -104 26.333 -104 79v241c0 52.667 34.667 79 104 79h155v78c0 1.33301 -0.666992 2 -2 2h-47c-1.33301 0 -2 -0.666992 -2 -2v-37h-208v118c0 54 34.667 81 104 81
h259c69.333 0 104 -27 104 -81v-558h-363zM146 670v70l283 69v-106z" />
    <glyph glyph-name="acircumflex" unicode="&#xe2;" horiz-adv-x="516" 
d="M283 259h-49c-1.33301 0 -2 -0.666992 -2 -2v-96c0 -1.33301 0.666992 -2 2 -2h49v100zM128 0c-69.333 0 -104 26.333 -104 79v241c0 52.667 34.667 79 104 79h155v78c0 1.33301 -0.666992 2 -2 2h-47c-1.33301 0 -2 -0.666992 -2 -2v-37h-208v118c0 54 34.667 81 104 81
h259c69.333 0 104 -27 104 -81v-558h-363zM313 670l-60 93l-55 -93h-113l101 139h143l102 -139h-118z" />
    <glyph glyph-name="atilde" unicode="&#xe3;" horiz-adv-x="516" 
d="M283 259h-49c-1.33301 0 -2 -0.666992 -2 -2v-96c0 -1.33301 0.666992 -2 2 -2h49v100zM128 0c-69.333 0 -104 26.333 -104 79v241c0 52.667 34.667 79 104 79h155v78c0 1.33301 -0.666992 2 -2 2h-47c-1.33301 0 -2 -0.666992 -2 -2v-37h-208v118c0 54 34.667 81 104 81
h259c69.333 0 104 -27 104 -81v-558h-363zM441 799c0 -41.333 -7.83203 -72.333 -23.499 -93s-42.5 -31 -80.5 -31c-16.667 0 -32.334 2.5 -47.001 7.5s-28.167 10.667 -40.5 17s-24 12 -35 17s-21.5 7.5 -31.5 7.5c-10.667 0 -18.5 -3.33301 -23.5 -10
s-7.5 -19.667 -7.5 -39h-77c0 41.333 7.83301 72.333 23.5 93s42.5 31 80.5 31c16 0 31.167 -2.5 45.5 -7.5s28 -10.667 41 -17l36 -17c11 -5 21.5 -7.5 31.5 -7.5c10.667 0 18.5 3.33301 23.5 10s7.5 19.667 7.5 39h77z" />
    <glyph glyph-name="adieresis" unicode="&#xe4;" horiz-adv-x="516" 
d="M283 259h-49c-1.33301 0 -2 -0.666992 -2 -2v-96c0 -1.33301 0.666992 -2 2 -2h49v100zM128 0c-69.333 0 -104 26.333 -104 79v241c0 52.667 34.667 79 104 79h155v78c0 1.33301 -0.666992 2 -2 2h-47c-1.33301 0 -2 -0.666992 -2 -2v-37h-208v118c0 54 34.667 81 104 81
h259c69.333 0 104 -27 104 -81v-558h-363zM313 678v111h120v-111h-120zM83 678v111h120v-111h-120z" />
    <glyph glyph-name="aring" unicode="&#xe5;" horiz-adv-x="516" 
d="M283 259h-49c-1.33301 0 -2 -0.666992 -2 -2v-96c0 -1.33301 0.666992 -2 2 -2h49v100zM128 0c-69.333 0 -104 26.333 -104 79v241c0 52.667 34.667 79 104 79h155v78c0 1.33301 -0.666992 2 -2 2h-47c-1.33301 0 -2 -0.666992 -2 -2v-37h-208v118c0 54 34.667 81 104 81
h259c69.333 0 104 -27 104 -81v-558h-363zM300 729c0 11.333 -3.83301 20.5 -11.5 27.5s-18.167 10.5 -31.5 10.5s-23.666 -3.5 -30.999 -10.5s-11 -16.167 -11 -27.5s3.66699 -20.666 11 -27.999s17.666 -11 30.999 -11s23.833 3.66699 31.5 11s11.5 16.666 11.5 27.999z
M345 729c0 -23.333 -7.66699 -42.5 -23 -57.5s-37 -22.5 -65 -22.5s-49.333 7.5 -64 22.5s-22 34.167 -22 57.5s7.33301 42.5 22 57.5s36 22.5 64 22.5s49.667 -7.5 65 -22.5s23 -34.167 23 -57.5z" />
    <glyph glyph-name="ae" unicode="&#xe6;" horiz-adv-x="660" 
d="M128 0c-69.333 0 -104 26.333 -104 79v241c0 52.667 34.667 79 104 79h155v80h-49c-1.33301 0 -2 -0.666992 -2 -2v-37h-208v118c0 54 34.667 81 104 81h507v-160h-144v-80h142v-160h-142v-80h145v-159h-508zM283 259h-49c-1.33301 0 -2 -0.666992 -2 -2v-96
c0 -1.33301 0.666992 -2 2 -2h49v100z" />
    <glyph glyph-name="ccedilla" unicode="&#xe7;" horiz-adv-x="515" 
d="M128 0c-69.333 0 -104 26.333 -104 79v479c0 54 34.667 81 104 81h259c69.333 0 104 -27 104 -81v-189h-208v108c0 1.33301 -0.666992 2 -2 2h-47c-1.33301 0 -2 -0.666992 -2 -2v-316c0 -1.33301 0.666992 -2 2 -2h47c1.33301 0 2 0.666992 2 2v149h208v-231
c0 -52.667 -34.667 -79 -104 -79h-259zM171 -199l27 171h120l-63 -171h-84z" />
    <glyph glyph-name="egrave" unicode="&#xe8;" horiz-adv-x="515" 
d="M283 477c0 1.33301 -0.666992 2 -2 2h-47c-1.33301 0 -2 -0.666992 -2 -2v-89h51v89zM128 0c-69.333 0 -104 26.333 -104 79v479c0 54 34.667 81 104 81h259c69.333 0 104 -27 104 -81v-319h-259v-78c0 -1.33301 0.666992 -2 2 -2h47c1.33301 0 2 0.666992 2 2v38h208
v-120c0 -52.667 -34.667 -79 -104 -79h-259zM86 703v106l283 -69v-70z" />
    <glyph glyph-name="egrave" unicode="&#x450;" horiz-adv-x="515" 
d="M283 477c0 1.33301 -0.666992 2 -2 2h-47c-1.33301 0 -2 -0.666992 -2 -2v-89h51v89zM128 0c-69.333 0 -104 26.333 -104 79v479c0 54 34.667 81 104 81h259c69.333 0 104 -27 104 -81v-319h-259v-78c0 -1.33301 0.666992 -2 2 -2h47c1.33301 0 2 0.666992 2 2v38h208
v-120c0 -52.667 -34.667 -79 -104 -79h-259zM86 703v106l283 -69v-70z" />
    <glyph glyph-name="eacute" unicode="&#xe9;" horiz-adv-x="515" 
d="M283 477c0 1.33301 -0.666992 2 -2 2h-47c-1.33301 0 -2 -0.666992 -2 -2v-89h51v89zM128 0c-69.333 0 -104 26.333 -104 79v479c0 54 34.667 81 104 81h259c69.333 0 104 -27 104 -81v-319h-259v-78c0 -1.33301 0.666992 -2 2 -2h47c1.33301 0 2 0.666992 2 2v38h208
v-120c0 -52.667 -34.667 -79 -104 -79h-259zM146 670v70l283 69v-106z" />
    <glyph glyph-name="ecircumflex" unicode="&#xea;" horiz-adv-x="515" 
d="M283 477c0 1.33301 -0.666992 2 -2 2h-47c-1.33301 0 -2 -0.666992 -2 -2v-89h51v89zM128 0c-69.333 0 -104 26.333 -104 79v479c0 54 34.667 81 104 81h259c69.333 0 104 -27 104 -81v-319h-259v-78c0 -1.33301 0.666992 -2 2 -2h47c1.33301 0 2 0.666992 2 2v38h208
v-120c0 -52.667 -34.667 -79 -104 -79h-259zM312 670l-60 93l-55 -93h-113l101 139h143l102 -139h-118z" />
    <glyph glyph-name="edieresis" unicode="&#xeb;" horiz-adv-x="515" 
d="M283 477c0 1.33301 -0.666992 2 -2 2h-47c-1.33301 0 -2 -0.666992 -2 -2v-89h51v89zM128 0c-69.333 0 -104 26.333 -104 79v479c0 54 34.667 81 104 81h259c69.333 0 104 -27 104 -81v-319h-259v-78c0 -1.33301 0.666992 -2 2 -2h47c1.33301 0 2 0.666992 2 2v38h208
v-120c0 -52.667 -34.667 -79 -104 -79h-259zM312 678v111h120v-111h-120zM82 678v111h120v-111h-120z" />
    <glyph glyph-name="edieresis" unicode="&#x451;" horiz-adv-x="515" 
d="M283 477c0 1.33301 -0.666992 2 -2 2h-47c-1.33301 0 -2 -0.666992 -2 -2v-89h51v89zM128 0c-69.333 0 -104 26.333 -104 79v479c0 54 34.667 81 104 81h259c69.333 0 104 -27 104 -81v-319h-259v-78c0 -1.33301 0.666992 -2 2 -2h47c1.33301 0 2 0.666992 2 2v38h208
v-120c0 -52.667 -34.667 -79 -104 -79h-259zM312 678v111h120v-111h-120zM82 678v111h120v-111h-120z" />
    <glyph glyph-name="igrave" unicode="&#xec;" horiz-adv-x="260" 
d="M26 0v639h208v-639h-208zM-41 703v106l283 -69v-70z" />
    <glyph glyph-name="iacute" unicode="&#xed;" horiz-adv-x="260" 
d="M26 0v639h208v-639h-208zM19 670v70l283 69v-106z" />
    <glyph glyph-name="icircumflex" unicode="&#xee;" horiz-adv-x="260" 
d="M26 0v639h208v-639h-208zM185 670l-60 93l-55 -93h-113l101 139h143l102 -139h-118z" />
    <glyph glyph-name="eth" unicode="&#xf0;" horiz-adv-x="515" 
d="M283 249h-49c-1.33301 0 -2 -0.666992 -2 -2v-86c0 -1.33301 0.666992 -2 2 -2h47c1.33301 0 2 0.666992 2 2v88zM128 0c-69.333 0 -104 26.333 -104 79v241c0 52.667 34.667 79 104 79h155v78c0 1.33301 -0.666992 2 -2 2h-47c-1.33301 0 -2 -0.666992 -2 -2v-37h-208
v118c0 54 34.667 81 104 81h259c69.333 0 104 -27 104 -81v-479c0 -52.667 -34.667 -79 -104 -79h-259z" />
    <glyph glyph-name="ntilde" unicode="&#xf1;" horiz-adv-x="518" 
d="M285 0v477c0 1.33301 -0.666992 2 -2 2h-47c-1.33301 0 -2 -0.666992 -2 -2v-477h-208v639h208v-41c35.333 27.333 87 41 155 41c69.333 0 104 -27 104 -81v-558h-208zM452 799c0 -41.333 -7.83203 -72.333 -23.499 -93s-42.5 -31 -80.5 -31
c-16.667 0 -32.334 2.5 -47.001 7.5s-28.167 10.667 -40.5 17s-24 12 -35 17s-21.5 7.5 -31.5 7.5c-10.667 0 -18.5 -3.33301 -23.5 -10s-7.5 -19.667 -7.5 -39h-77c0 41.333 7.83301 72.333 23.5 93s42.5 31 80.5 31c16 0 31.167 -2.5 45.5 -7.5s28 -10.667 41 -17l36 -17
c11 -5 21.5 -7.5 31.5 -7.5c10.667 0 18.5 3.33301 23.5 10s7.5 19.667 7.5 39h77z" />
    <glyph glyph-name="ograve" unicode="&#xf2;" horiz-adv-x="515" 
d="M283 477c0 1.33301 -0.666992 2 -2 2h-47c-1.33301 0 -2 -0.666992 -2 -2v-316c0 -1.33301 0.666992 -2 2 -2h47c1.33301 0 2 0.666992 2 2v316zM128 0c-69.333 0 -104 26.333 -104 79v479c0 54 34.667 81 104 81h259c69.333 0 104 -27 104 -81v-479
c0 -52.667 -34.667 -79 -104 -79h-259zM86 703v106l283 -69v-70z" />
    <glyph glyph-name="oacute" unicode="&#xf3;" horiz-adv-x="515" 
d="M283 477c0 1.33301 -0.666992 2 -2 2h-47c-1.33301 0 -2 -0.666992 -2 -2v-316c0 -1.33301 0.666992 -2 2 -2h47c1.33301 0 2 0.666992 2 2v316zM128 0c-69.333 0 -104 26.333 -104 79v479c0 54 34.667 81 104 81h259c69.333 0 104 -27 104 -81v-479
c0 -52.667 -34.667 -79 -104 -79h-259zM146 670v70l283 69v-106z" />
    <glyph glyph-name="ocircumflex" unicode="&#xf4;" horiz-adv-x="515" 
d="M283 477c0 1.33301 -0.666992 2 -2 2h-47c-1.33301 0 -2 -0.666992 -2 -2v-316c0 -1.33301 0.666992 -2 2 -2h47c1.33301 0 2 0.666992 2 2v316zM128 0c-69.333 0 -104 26.333 -104 79v479c0 54 34.667 81 104 81h259c69.333 0 104 -27 104 -81v-479
c0 -52.667 -34.667 -79 -104 -79h-259zM312 670l-60 93l-55 -93h-113l101 139h143l102 -139h-118z" />
    <glyph glyph-name="otilde" unicode="&#xf5;" horiz-adv-x="515" 
d="M283 477c0 1.33301 -0.666992 2 -2 2h-47c-1.33301 0 -2 -0.666992 -2 -2v-316c0 -1.33301 0.666992 -2 2 -2h47c1.33301 0 2 0.666992 2 2v316zM128 0c-69.333 0 -104 26.333 -104 79v479c0 54 34.667 81 104 81h259c69.333 0 104 -27 104 -81v-479
c0 -52.667 -34.667 -79 -104 -79h-259zM440 799c0 -41.333 -7.83203 -72.333 -23.499 -93s-42.5 -31 -80.5 -31c-16.667 0 -32.334 2.5 -47.001 7.5s-28.167 10.667 -40.5 17s-24 12 -35 17s-21.5 7.5 -31.5 7.5c-10.667 0 -18.5 -3.33301 -23.5 -10s-7.5 -19.667 -7.5 -39
h-77c0 41.333 7.83301 72.333 23.5 93s42.5 31 80.5 31c16 0 31.167 -2.5 45.5 -7.5s28 -10.667 41 -17l36 -17c11 -5 21.5 -7.5 31.5 -7.5c10.667 0 18.5 3.33301 23.5 10s7.5 19.667 7.5 39h77z" />
    <glyph glyph-name="odieresis" unicode="&#xf6;" horiz-adv-x="515" 
d="M283 477c0 1.33301 -0.666992 2 -2 2h-47c-1.33301 0 -2 -0.666992 -2 -2v-316c0 -1.33301 0.666992 -2 2 -2h47c1.33301 0 2 0.666992 2 2v316zM128 0c-69.333 0 -104 26.333 -104 79v479c0 54 34.667 81 104 81h259c69.333 0 104 -27 104 -81v-479
c0 -52.667 -34.667 -79 -104 -79h-259zM312 678v111h120v-111h-120zM82 678v111h120v-111h-120z" />
    <glyph glyph-name="divide" unicode="&#xf7;" horiz-adv-x="484" 
d="M38 259v120h415v-120h-415zM138 439v159h208v-159h-208zM138 39v159h208v-159h-208z" />
    <glyph glyph-name="oslash" unicode="&#xf8;" horiz-adv-x="515" 
d="M127 0l-34 -70l-45 18l28 58c-34.667 10.667 -52 35 -52 73v479c0 54 34.667 81 104 81h259l40 82l46 -18l-35 -71c35.333 -11.333 53 -36 53 -74v-479c0 -52.667 -34.667 -79 -104 -79h-260zM283 316l-51 -104v-51c0 -1.33301 0.666992 -2 2 -2h47
c1.33301 0 2 0.666992 2 2v155zM283 427v50c0 1.33301 -0.666992 2 -2 2h-47c-1.33301 0 -2 -0.666992 -2 -2v-154z" />
    <glyph glyph-name="ugrave" unicode="&#xf9;" 
d="M129 0c-69.333 0 -104 26.333 -104 79v560h208v-478c0 -1.33301 0.666992 -2 2 -2h47c1.33301 0 2 0.666992 2 2v478h208v-560c0 -52.667 -34.667 -79 -104 -79h-259zM87 703v106l283 -69v-70z" />
    <glyph glyph-name="uacute" unicode="&#xfa;" 
d="M129 0c-69.333 0 -104 26.333 -104 79v560h208v-478c0 -1.33301 0.666992 -2 2 -2h47c1.33301 0 2 0.666992 2 2v478h208v-560c0 -52.667 -34.667 -79 -104 -79h-259zM147 670v70l283 69v-106z" />
    <glyph glyph-name="ucircumflex" unicode="&#xfb;" 
d="M129 0c-69.333 0 -104 26.333 -104 79v560h208v-478c0 -1.33301 0.666992 -2 2 -2h47c1.33301 0 2 0.666992 2 2v478h208v-560c0 -52.667 -34.667 -79 -104 -79h-259zM313 670l-60 93l-55 -93h-113l101 139h143l102 -139h-118z" />
    <glyph glyph-name="udieresis" unicode="&#xfc;" 
d="M129 0c-69.333 0 -104 26.333 -104 79v560h208v-478c0 -1.33301 0.666992 -2 2 -2h47c1.33301 0 2 0.666992 2 2v478h208v-560c0 -52.667 -34.667 -79 -104 -79h-259zM313 678v111h120v-111h-120zM83 678v111h120v-111h-120z" />
    <glyph glyph-name="yacute" unicode="&#xfd;" 
d="M24 -199v159h257c1.33301 0 2 0.666992 2 2v38h-155c-69.333 -0 -104 26.333 -104 79v560h208v-478c0 -1.33301 0.666992 -2 2 -2h49v480h208v-759c0 -52.667 -34.667 -79 -104 -79h-363zM147 670v70l283 69v-106z" />
    <glyph glyph-name="thorn" unicode="&#xfe;" horiz-adv-x="507" 
d="M285 359c0 1.33301 -0.666992 2 -2 2h-49v-88h49c1.33301 0 2 0.666992 2 2v84zM234 117v-117h-208v639h208v-122h155c69.333 0 104 -27 104 -81v-238c0 -54 -34.667 -81 -104 -81h-155z" />
    <glyph glyph-name="ydieresis" unicode="&#xff;" 
d="M24 -199v159h257c1.33301 0 2 0.666992 2 2v38h-155c-69.333 -0 -104 26.333 -104 79v560h208v-478c0 -1.33301 0.666992 -2 2 -2h49v480h208v-759c0 -52.667 -34.667 -79 -104 -79h-363zM313 678v111h120v-111h-120zM83 678v111h120v-111h-120z" />
    <glyph glyph-name="Amacron" unicode="&#x100;" 
d="M284 477c0 1.33301 -0.666992 2 -2 2h-47c-1.33301 0 -2 -0.666992 -2 -2v-78h51v78zM284 0v239h-51v-239h-208v558c0 54 34.667 81 104 81h259c69.333 0 104 -27 104 -81v-558h-208zM83 695v87h350v-87h-350z" />
    <glyph glyph-name="amacron" unicode="&#x101;" horiz-adv-x="516" 
d="M283 259h-49c-1.33301 0 -2 -0.666992 -2 -2v-96c0 -1.33301 0.666992 -2 2 -2h49v100zM128 0c-69.333 0 -104 26.333 -104 79v241c0 52.667 34.667 79 104 79h155v78c0 1.33301 -0.666992 2 -2 2h-47c-1.33301 0 -2 -0.666992 -2 -2v-37h-208v118c0 54 34.667 81 104 81
h259c69.333 0 104 -27 104 -81v-558h-363zM83 695v87h350v-87h-350z" />
    <glyph glyph-name="Abreve" unicode="&#x102;" 
d="M284 477c0 1.33301 -0.666992 2 -2 2h-47c-1.33301 0 -2 -0.666992 -2 -2v-78h51v78zM284 0v239h-51v-239h-208v558c0 54 34.667 81 104 81h259c69.333 0 104 -27 104 -81v-558h-208zM431 809c-3.33301 -14.667 -7.99902 -30.165 -13.999 -46.498
s-15.333 -31.333 -28 -45s-29.667 -25 -51 -34s-49 -13.5 -83 -13.5c-30.667 0 -56.167 4.5 -76.5 13.5s-36.833 20.167 -49.5 33.5s-22.334 28.166 -29.001 44.499s-11.667 32.166 -15 47.499h106c4.66699 -45.333 26.667 -68 66 -68c20 0 35.667 5.16699 47 15.5
s18.333 27.833 21 52.5h106z" />
    <glyph glyph-name="abreve" unicode="&#x103;" horiz-adv-x="516" 
d="M283 259h-49c-1.33301 0 -2 -0.666992 -2 -2v-96c0 -1.33301 0.666992 -2 2 -2h49v100zM128 0c-69.333 0 -104 26.333 -104 79v241c0 52.667 34.667 79 104 79h155v78c0 1.33301 -0.666992 2 -2 2h-47c-1.33301 0 -2 -0.666992 -2 -2v-37h-208v118c0 54 34.667 81 104 81
h259c69.333 0 104 -27 104 -81v-558h-363zM431 809c-3.33301 -14.667 -7.99902 -30.165 -13.999 -46.498s-15.333 -31.333 -28 -45s-29.667 -25 -51 -34s-49 -13.5 -83 -13.5c-30.667 0 -56.167 4.5 -76.5 13.5s-36.833 20.167 -49.5 33.5s-22.334 28.166 -29.001 44.499
s-11.667 32.166 -15 47.499h106c4.66699 -45.333 26.667 -68 66 -68c20 0 35.667 5.16699 47 15.5s18.333 27.833 21 52.5h106z" />
    <glyph glyph-name="Aogonek" unicode="&#x104;" 
d="M381 -199c-59.333 0 -89 29 -89 87s54.333 95.333 163 112h-171v239h-51v-239h-208v558c0 54 34.667 81 104 81h259c69.333 0 104 -27 104 -81v-558c-60.667 -24.667 -91 -45.667 -91 -63c0 -11.333 6 -17 18 -17h73v-119h-111zM284 477c0 1.33301 -0.666992 2 -2 2h-47
c-1.33301 0 -2 -0.666992 -2 -2v-78h51v78z" />
    <glyph glyph-name="aogonek" unicode="&#x105;" horiz-adv-x="516" 
d="M380 -199c-59.333 0 -89 29 -89 87s54.333 95.333 163 112h-326c-69.333 -0 -104 26.333 -104 79v241c0 52.667 34.667 79 104 79h155v78c0 1.33301 -0.666992 2 -2 2h-47c-1.33301 0 -2 -0.666992 -2 -2v-37h-208v118c0 54 34.667 81 104 81h259
c69.333 0 104 -27 104 -81v-558c-60.667 -24.667 -91 -45.667 -91 -63c0 -11.333 6 -17 18 -17h73v-119h-111zM283 259h-49c-1.33301 0 -2 -0.666992 -2 -2v-96c0 -1.33301 0.666992 -2 2 -2h49v100z" />
    <glyph glyph-name="Cacute" unicode="&#x106;" horiz-adv-x="515" 
d="M128 0c-69.333 0 -104 26.333 -104 79v479c0 54 34.667 81 104 81h259c69.333 0 104 -27 104 -81v-189h-208v108c0 1.33301 -0.666992 2 -2 2h-47c-1.33301 0 -2 -0.666992 -2 -2v-316c0 -1.33301 0.666992 -2 2 -2h47c1.33301 0 2 0.666992 2 2v149h208v-231
c0 -52.667 -34.667 -79 -104 -79h-259zM146 670v70l283 69v-106z" />
    <glyph glyph-name="cacute" unicode="&#x107;" horiz-adv-x="515" 
d="M128 0c-69.333 0 -104 26.333 -104 79v479c0 54 34.667 81 104 81h259c69.333 0 104 -27 104 -81v-189h-208v108c0 1.33301 -0.666992 2 -2 2h-47c-1.33301 0 -2 -0.666992 -2 -2v-316c0 -1.33301 0.666992 -2 2 -2h47c1.33301 0 2 0.666992 2 2v149h208v-231
c0 -52.667 -34.667 -79 -104 -79h-259zM146 670v70l283 69v-106z" />
    <glyph glyph-name="Cdotaccent" unicode="&#x10a;" horiz-adv-x="515" 
d="M128 0c-69.333 0 -104 26.333 -104 79v479c0 54 34.667 81 104 81h259c69.333 0 104 -27 104 -81v-189h-208v108c0 1.33301 -0.666992 2 -2 2h-47c-1.33301 0 -2 -0.666992 -2 -2v-316c0 -1.33301 0.666992 -2 2 -2h47c1.33301 0 2 0.666992 2 2v149h208v-231
c0 -52.667 -34.667 -79 -104 -79h-259zM197 678v111h120v-111h-120z" />
    <glyph glyph-name="cdotaccent" unicode="&#x10b;" horiz-adv-x="515" 
d="M128 0c-69.333 0 -104 26.333 -104 79v479c0 54 34.667 81 104 81h259c69.333 0 104 -27 104 -81v-189h-208v108c0 1.33301 -0.666992 2 -2 2h-47c-1.33301 0 -2 -0.666992 -2 -2v-316c0 -1.33301 0.666992 -2 2 -2h47c1.33301 0 2 0.666992 2 2v149h208v-231
c0 -52.667 -34.667 -79 -104 -79h-259zM197 678v111h120v-111h-120z" />
    <glyph glyph-name="Ccaron" unicode="&#x10c;" horiz-adv-x="515" 
d="M128 0c-69.333 0 -104 26.333 -104 79v479c0 54 34.667 81 104 81h259c69.333 0 104 -27 104 -81v-189h-208v108c0 1.33301 -0.666992 2 -2 2h-47c-1.33301 0 -2 -0.666992 -2 -2v-316c0 -1.33301 0.666992 -2 2 -2h47c1.33301 0 2 0.666992 2 2v149h208v-231
c0 -52.667 -34.667 -79 -104 -79h-259zM234 657l-130 152h118l40 -63l35 63h113l-122 -152h-54z" />
    <glyph glyph-name="ccaron" unicode="&#x10d;" horiz-adv-x="515" 
d="M128 0c-69.333 0 -104 26.333 -104 79v479c0 54 34.667 81 104 81h259c69.333 0 104 -27 104 -81v-189h-208v108c0 1.33301 -0.666992 2 -2 2h-47c-1.33301 0 -2 -0.666992 -2 -2v-316c0 -1.33301 0.666992 -2 2 -2h47c1.33301 0 2 0.666992 2 2v149h208v-231
c0 -52.667 -34.667 -79 -104 -79h-259zM234 657l-130 152h118l40 -63l35 63h113l-122 -152h-54z" />
    <glyph glyph-name="Dcaron" unicode="&#x10e;" 
d="M285 477c0 1.33301 -0.666992 2 -2 2h-49v-320h49c1.33301 0 2 0.666992 2 2v316zM26 0v639h363c69.333 0 104 -27 104 -81v-479c0 -52.667 -34.667 -79 -104 -79h-363zM234 657l-130 152h118l40 -63l35 63h113l-122 -152h-54z" />
    <glyph glyph-name="dcaron" unicode="&#x10f;" horiz-adv-x="724" 
d="M128 0c-36 0 -62.333 6.5 -79 19.5s-25 32.833 -25 59.5v479c0 54 34.667 81 104 81h155v160h208v-799h-363zM283 479h-49c-1.33301 0 -2 -0.666992 -2 -2v-316c0 -1.33301 0.666992 -2 2 -2h49v320zM516 520v80h102c1.33301 0 2 0.666992 2 2v38h-104v159h208v-199
c0 -53.333 -34.667 -80 -104 -80h-104z" />
    <glyph glyph-name="Dcroat" unicode="&#x110;" 
d="M26 0v263h-26v116h26v260h363c69.333 0 104 -27 104 -81v-479c0 -52.667 -34.667 -79 -104 -79h-363zM285 477c0 1.33301 -0.666992 2 -2 2h-54v-100h29v-116h-29v-104h54c1.33301 0 2 0.666992 2 2v316z" />
    <glyph glyph-name="dcroat" unicode="&#x111;" 
d="M128 0c-36 0 -62.333 6.5 -79 19.5s-25 32.833 -25 59.5v479c0 54 34.667 81 104 81h155v36h-116v87h116v37h208v-37h26v-87h-26v-675h-363zM283 479h-49c-1.33301 0 -2 -0.666992 -2 -2v-316c0 -1.33301 0.666992 -2 2 -2h49v320z" />
    <glyph glyph-name="Emacron" unicode="&#x112;" horiz-adv-x="403" 
d="M26 0v639h352v-160h-144v-80h142v-160h-142v-80h145v-159h-353zM26 695v87h350v-87h-350z" />
    <glyph glyph-name="emacron" unicode="&#x113;" horiz-adv-x="515" 
d="M283 477c0 1.33301 -0.666992 2 -2 2h-47c-1.33301 0 -2 -0.666992 -2 -2v-89h51v89zM128 0c-69.333 0 -104 26.333 -104 79v479c0 54 34.667 81 104 81h259c69.333 0 104 -27 104 -81v-319h-259v-78c0 -1.33301 0.666992 -2 2 -2h47c1.33301 0 2 0.666992 2 2v38h208
v-120c0 -52.667 -34.667 -79 -104 -79h-259zM82 695v87h350v-87h-350z" />
    <glyph glyph-name="Ebreve" unicode="&#x114;" horiz-adv-x="403" 
d="M26 0v639h352v-160h-144v-80h142v-160h-142v-80h145v-159h-353zM381 809c-3.33301 -14.667 -7.99902 -30.165 -13.999 -46.498s-15.333 -31.333 -28 -45s-29.667 -25 -51 -34s-49 -13.5 -83 -13.5c-30.667 0 -56.167 4.5 -76.5 13.5s-36.833 20.167 -49.5 33.5
s-22.334 28.166 -29.001 44.499s-11.667 32.166 -15 47.499h106c4.66699 -45.333 26.667 -68 66 -68c20 0 35.667 5.16699 47 15.5s18.333 27.833 21 52.5h106z" />
    <glyph glyph-name="ebreve" unicode="&#x115;" horiz-adv-x="515" 
d="M283 477c0 1.33301 -0.666992 2 -2 2h-47c-1.33301 0 -2 -0.666992 -2 -2v-89h51v89zM128 0c-69.333 0 -104 26.333 -104 79v479c0 54 34.667 81 104 81h259c69.333 0 104 -27 104 -81v-319h-259v-78c0 -1.33301 0.666992 -2 2 -2h47c1.33301 0 2 0.666992 2 2v38h208
v-120c0 -52.667 -34.667 -79 -104 -79h-259zM430 809c-3.33301 -14.667 -7.99902 -30.165 -13.999 -46.498s-15.333 -31.333 -28 -45s-29.667 -25 -51 -34s-49 -13.5 -83 -13.5c-30.667 0 -56.167 4.5 -76.5 13.5s-36.833 20.167 -49.5 33.5s-22.334 28.166 -29.001 44.499
s-11.667 32.166 -15 47.499h106c4.66699 -45.333 26.667 -68 66 -68c20 0 35.667 5.16699 47 15.5s18.333 27.833 21 52.5h106z" />
    <glyph glyph-name="Edotaccent" unicode="&#x116;" horiz-adv-x="403" 
d="M26 0v639h352v-160h-144v-80h142v-160h-142v-80h145v-159h-353zM141 678v111h120v-111h-120z" />
    <glyph glyph-name="edotaccent" unicode="&#x117;" horiz-adv-x="515" 
d="M283 477c0 1.33301 -0.666992 2 -2 2h-47c-1.33301 0 -2 -0.666992 -2 -2v-89h51v89zM128 0c-69.333 0 -104 26.333 -104 79v479c0 54 34.667 81 104 81h259c69.333 0 104 -27 104 -81v-319h-259v-78c0 -1.33301 0.666992 -2 2 -2h47c1.33301 0 2 0.666992 2 2v38h208
v-120c0 -52.667 -34.667 -79 -104 -79h-259zM197 678v111h120v-111h-120z" />
    <glyph glyph-name="Eogonek" unicode="&#x118;" horiz-adv-x="403" 
d="M268 -199c-59.333 0 -89 29 -89 87s54.333 95.333 163 112h-316v639h352v-160h-144v-80h142v-160h-142v-80h145v-159c-60.667 -24.667 -91 -45.667 -91 -63c0 -11.333 6 -17 18 -17h73v-119h-111z" />
    <glyph glyph-name="eogonek" unicode="&#x119;" horiz-adv-x="515" 
d="M290 -199c-59.333 0 -89.001 29 -89.001 87s54.333 95.333 163 112h-236c-69.333 -0 -104 26.333 -104 79v479c0 54 34.667 81 104 81h259c69.333 0 104 -27 104 -81v-319h-259v-78c0 -1.33301 0.666992 -2 2 -2h47c1.33301 0 2 0.666992 2 2v38h208v-120
c0 -25.333 -7.66699 -44.5 -23 -57.5s-37.666 -20.167 -66.999 -21.5c-60.667 -24.667 -91 -45.667 -91 -63c0 -11.333 6 -17 18 -17h73v-119h-111zM282.999 477c0 1.33301 -0.666992 2 -2 2h-47c-1.33301 0 -2 -0.666992 -2 -2v-89h51v89z" />
    <glyph glyph-name="Ecaron" unicode="&#x11a;" horiz-adv-x="403" 
d="M26 0v639h352v-160h-144v-80h142v-160h-142v-80h145v-159h-353zM178 657l-130 152h118l40 -63l35 63h113l-122 -152h-54z" />
    <glyph glyph-name="ecaron" unicode="&#x11b;" horiz-adv-x="515" 
d="M283 477c0 1.33301 -0.666992 2 -2 2h-47c-1.33301 0 -2 -0.666992 -2 -2v-89h51v89zM128 0c-69.333 0 -104 26.333 -104 79v479c0 54 34.667 81 104 81h259c69.333 0 104 -27 104 -81v-319h-259v-78c0 -1.33301 0.666992 -2 2 -2h47c1.33301 0 2 0.666992 2 2v38h208
v-120c0 -52.667 -34.667 -79 -104 -79h-259zM234 657l-130 152h118l40 -63l35 63h113l-122 -152h-54z" />
    <glyph glyph-name="Gbreve" unicode="&#x11e;" horiz-adv-x="516" 
d="M128 0c-69.333 0 -104 26.333 -104 79v479c0 54 34.667 81 104 81h259c69.333 0 104 -27 104 -81v-108h-208v27c0 1.33301 -0.666992 2 -2 2h-47c-1.33301 0 -2 -0.666992 -2 -2v-316c0 -1.33301 0.666992 -2 2 -2h49v232h208v-391h-363zM431 809
c-3.33301 -14.667 -7.99902 -30.165 -13.999 -46.498s-15.333 -31.333 -28 -45s-29.667 -25 -51 -34s-49 -13.5 -83 -13.5c-30.667 0 -56.167 4.5 -76.5 13.5s-36.833 20.167 -49.5 33.5s-22.334 28.166 -29.001 44.499s-11.667 32.166 -15 47.499h106
c4.66699 -45.333 26.667 -68 66 -68c20 0 35.667 5.16699 47 15.5s18.333 27.833 21 52.5h106z" />
    <glyph glyph-name="gbreve" unicode="&#x11f;" 
d="M24 -199v159h257c1.33301 0 2 0.666992 2 2v38h-155c-69.333 -0 -104 26.333 -104 79v479c0 54 34.667 81 104 81h363v-759c0 -52.667 -34.667 -79 -104 -79h-363zM283 479h-49c-1.33301 0 -2 -0.666992 -2 -2v-316c0 -1.33301 0.666992 -2 2 -2h49v320zM431 809
c-3.33301 -14.667 -7.99902 -30.165 -13.999 -46.498s-15.333 -31.333 -28 -45s-29.667 -25 -51 -34s-49 -13.5 -83 -13.5c-30.667 0 -56.167 4.5 -76.5 13.5s-36.833 20.167 -49.5 33.5s-22.334 28.166 -29.001 44.499s-11.667 32.166 -15 47.499h106
c4.66699 -45.333 26.667 -68 66 -68c20 0 35.667 5.16699 47 15.5s18.333 27.833 21 52.5h106z" />
    <glyph glyph-name="Gdotaccent" unicode="&#x120;" horiz-adv-x="516" 
d="M128 0c-69.333 0 -104 26.333 -104 79v479c0 54 34.667 81 104 81h259c69.333 0 104 -27 104 -81v-108h-208v27c0 1.33301 -0.666992 2 -2 2h-47c-1.33301 0 -2 -0.666992 -2 -2v-316c0 -1.33301 0.666992 -2 2 -2h49v232h208v-391h-363zM198 678v111h120v-111h-120z" />
    <glyph glyph-name="gdotaccent" unicode="&#x121;" 
d="M24 -199v159h257c1.33301 0 2 0.666992 2 2v38h-155c-69.333 -0 -104 26.333 -104 79v479c0 54 34.667 81 104 81h363v-759c0 -52.667 -34.667 -79 -104 -79h-363zM283 479h-49c-1.33301 0 -2 -0.666992 -2 -2v-316c0 -1.33301 0.666992 -2 2 -2h49v320zM198 678v111h120
v-111h-120z" />
    <glyph glyph-name="Gcommaaccent" unicode="&#x122;" horiz-adv-x="516" 
d="M128 0c-69.333 0 -104 26.333 -104 79v479c0 54 34.667 81 104 81h259c69.333 0 104 -27 104 -81v-108h-208v27c0 1.33301 -0.666992 2 -2 2h-47c-1.33301 0 -2 -0.666992 -2 -2v-316c0 -1.33301 0.666992 -2 2 -2h49v232h208v-391h-363zM174 -199l27 171h120l-63 -171
h-84z" />
    <glyph glyph-name="gcommaaccent" unicode="&#x123;" horiz-adv-x="516" 
d="M128 0c-69.333 0 -104 26.333 -104 79v479c0 54 34.667 81 104 81h259c69.333 0 104 -27 104 -81v-108h-208v27c0 1.33301 -0.666992 2 -2 2h-47c-1.33301 0 -2 -0.666992 -2 -2v-316c0 -1.33301 0.666992 -2 2 -2h49v232h208v-391h-363zM174 -199l27 171h120l-63 -171
h-84z" />
    <glyph glyph-name="Hbar" unicode="&#x126;" horiz-adv-x="519" 
d="M285 0v246h-51v-246h-208v639h208v-84h51v84h208v-639h-208zM285 393v75h-51v-75h51z" />
    <glyph glyph-name="hbar" unicode="&#x127;" horiz-adv-x="518" 
d="M234 674v-35h155c69.333 0 104 -27 104 -81v-558h-208v477c0 1.33301 -0.666992 2 -2 2h-49v-479h-208v674h-26v87h26v38h208v-38h116v-87h-116z" />
    <glyph glyph-name="Itilde" unicode="&#x128;" horiz-adv-x="304" 
d="M48 0v639h208v-639h-208zM335 799c0 -41.333 -7.83203 -72.333 -23.499 -93s-42.5 -31 -80.5 -31c-16.667 0 -32.334 2.5 -47.001 7.5s-28.167 10.667 -40.5 17s-24 12 -35 17s-21.5 7.5 -31.5 7.5c-10.667 0 -18.5 -3.33301 -23.5 -10s-7.5 -19.667 -7.5 -39h-77
c0 41.333 7.83301 72.333 23.5 93s42.5 31 80.5 31c16 0 31.167 -2.5 45.5 -7.5s28 -10.667 41 -17l36 -17c11 -5 21.5 -7.5 31.5 -7.5c10.667 0 18.5 3.33301 23.5 10s7.5 19.667 7.5 39h77z" />
    <glyph glyph-name="Itilde" unicode="&#x129;" horiz-adv-x="304" 
d="M48 0v639h208v-639h-208zM335 799c0 -41.333 -7.83203 -72.333 -23.499 -93s-42.5 -31 -80.5 -31c-16.667 0 -32.334 2.5 -47.001 7.5s-28.167 10.667 -40.5 17s-24 12 -35 17s-21.5 7.5 -31.5 7.5c-10.667 0 -18.5 -3.33301 -23.5 -10s-7.5 -19.667 -7.5 -39h-77
c0 41.333 7.83301 72.333 23.5 93s42.5 31 80.5 31c16 0 31.167 -2.5 45.5 -7.5s28 -10.667 41 -17l36 -17c11 -5 21.5 -7.5 31.5 -7.5c10.667 0 18.5 3.33301 23.5 10s7.5 19.667 7.5 39h77z" />
    <glyph glyph-name="uni012A" unicode="&#x12a;" horiz-adv-x="260" 
d="M26 0v639h208v-639h-208zM-45 695v87h350v-87h-350z" />
    <glyph glyph-name="imacron" unicode="&#x12b;" horiz-adv-x="260" 
d="M26 0v639h208v-639h-208zM-45 695v87h350v-87h-350z" />
    <glyph glyph-name="Ibreve" unicode="&#x12c;" horiz-adv-x="260" 
d="M26 0v639h208v-639h-208zM303 809c-3.33301 -14.667 -7.99902 -30.165 -13.999 -46.498s-15.333 -31.333 -28 -45s-29.667 -25 -51 -34s-49 -13.5 -83 -13.5c-30.667 0 -56.167 4.5 -76.5 13.5s-36.833 20.167 -49.5 33.5s-22.334 28.166 -29.001 44.499
s-11.667 32.166 -15 47.499h106c4.66699 -45.333 26.667 -68 66 -68c20 0 35.667 5.16699 47 15.5s18.333 27.833 21 52.5h106z" />
    <glyph glyph-name="ibreve" unicode="&#x12d;" horiz-adv-x="260" 
d="M26 0v639h208v-639h-208zM303 809c-3.33301 -14.667 -7.99902 -30.165 -13.999 -46.498s-15.333 -31.333 -28 -45s-29.667 -25 -51 -34s-49 -13.5 -83 -13.5c-30.667 0 -56.167 4.5 -76.5 13.5s-36.833 20.167 -49.5 33.5s-22.334 28.166 -29.001 44.499
s-11.667 32.166 -15 47.499h106c4.66699 -45.333 26.667 -68 66 -68c20 0 35.667 5.16699 47 15.5s18.333 27.833 21 52.5h106z" />
    <glyph glyph-name="Iogonek" unicode="&#x12e;" horiz-adv-x="260" 
d="M123 -199c-59.333 0 -89 29 -89 87s54.333 95.333 163 112h-171v639h208v-639c-60.667 -24.667 -91 -45.667 -91 -63c0 -11.333 6 -17 18 -17h73v-119h-111z" />
    <glyph glyph-name="iogonek" unicode="&#x12f;" horiz-adv-x="260" 
d="M123 -199c-59.333 0 -89 29 -89 87s54.333 95.333 163 112h-171v639h208v-639c-60.667 -24.667 -91 -45.667 -91 -63c0 -11.333 6 -17 18 -17h73v-119h-111z" />
    <glyph glyph-name="Idotaccent" unicode="&#x130;" horiz-adv-x="260" 
d="M26 0v639h208v-639h-208zM70 678v111h120v-111h-120z" />
    <glyph glyph-name="dotlessi" unicode="&#x131;" horiz-adv-x="260" 
d="M26 0v639h208v-639h-208z" />
    <glyph glyph-name="IJ" unicode="&#x132;" horiz-adv-x="770" 
d="M26 0v639h208v-639h-208zM382 0c-69.333 0 -104 26.333 -104 79v241h208v-159c0 -1.33301 0.666992 -2 2 -2h47c1.33301 0 2 0.666992 2 2v478h208v-560c0 -52.667 -34.667 -79 -104 -79h-259z" />
    <glyph glyph-name="ij" unicode="&#x133;" horiz-adv-x="770" 
d="M26 0v639h208v-639h-208zM382 0c-69.333 0 -104 26.333 -104 79v241h208v-159c0 -1.33301 0.666992 -2 2 -2h47c1.33301 0 2 0.666992 2 2v478h208v-560c0 -52.667 -34.667 -79 -104 -79h-259z" />
    <glyph glyph-name="Kcommaaccent" unicode="&#x136;" horiz-adv-x="512" 
d="M295 0l-68 171v-171h-201v639h201v-163l62 163h219l-143 -308l149 -331h-219zM172 -199l27 171h120l-63 -171h-84z" />
    <glyph glyph-name="kcommaaccent" unicode="&#x137;" horiz-adv-x="512" 
d="M295 0l-68 171v-171h-201v639h201v-163l62 163h219l-143 -308l149 -331h-219zM172 -199l27 171h120l-63 -171h-84z" />
    <glyph glyph-name="Lacute" unicode="&#x139;" horiz-adv-x="384" 
d="M26 0v639h208v-480h135v-159h-343zM30 670v70l283 69v-106z" />
    <glyph glyph-name="lacute" unicode="&#x13a;" horiz-adv-x="384" 
d="M26 0v639h208v-480h135v-159h-343zM30 670v70l283 69v-106z" />
    <glyph glyph-name="Lcommaaccent" unicode="&#x13b;" horiz-adv-x="384" 
d="M26 0v639h208v-480h135v-159h-343zM113 -199l27 171h120l-63 -171h-84z" />
    <glyph glyph-name="lcommaaccent" unicode="&#x13c;" horiz-adv-x="384" 
d="M26 0v639h208v-480h135v-159h-343zM113 -199l27 171h120l-63 -171h-84z" />
    <glyph glyph-name="Lcaron" unicode="&#x13d;" horiz-adv-x="469" 
d="M26 0v639h208v-480h135v-159h-343zM261 520v80h102c1.33301 0 2 0.666992 2 2v38h-104v159h208v-199c0 -53.333 -34.667 -80 -104 -80h-104z" />
    <glyph glyph-name="lcaron" unicode="&#x13e;" horiz-adv-x="469" 
d="M26 0v639h208v-480h135v-159h-343zM261 520v80h102c1.33301 0 2 0.666992 2 2v38h-104v159h208v-199c0 -53.333 -34.667 -80 -104 -80h-104z" />
    <glyph glyph-name="Lslash" unicode="&#x141;" horiz-adv-x="382" 
d="M26 0v259l-26 -8v104l26 8v276h208v-216l72 21v-104l-72 -21v-160h135v-159h-343z" />
    <glyph glyph-name="lslash" unicode="&#x142;" horiz-adv-x="382" 
d="M26 0v259l-26 -8v104l26 8v276h208v-216l72 21v-104l-72 -21v-160h135v-159h-343z" />
    <glyph glyph-name="Nacute" unicode="&#x143;" horiz-adv-x="518" 
d="M285 0v477c0 1.33301 -0.666992 2 -2 2h-47c-1.33301 0 -2 -0.666992 -2 -2v-477h-208v639h208v-41c35.333 27.333 87 41 155 41c69.333 0 104 -27 104 -81v-558h-208zM147 670v70l283 69v-106z" />
    <glyph glyph-name="nacute" unicode="&#x144;" horiz-adv-x="518" 
d="M285 0v477c0 1.33301 -0.666992 2 -2 2h-47c-1.33301 0 -2 -0.666992 -2 -2v-477h-208v639h208v-41c35.333 27.333 87 41 155 41c69.333 0 104 -27 104 -81v-558h-208zM147 670v70l283 69v-106z" />
    <glyph glyph-name="Ncommaaccent" unicode="&#x145;" horiz-adv-x="518" 
d="M285 0v477c0 1.33301 -0.666992 2 -2 2h-47c-1.33301 0 -2 -0.666992 -2 -2v-477h-208v639h208v-41c35.333 27.333 87 41 155 41c69.333 0 104 -27 104 -81v-558h-208zM173 -199l27 171h120l-63 -171h-84z" />
    <glyph glyph-name="ncommaaccent" unicode="&#x146;" horiz-adv-x="518" 
d="M285 0v477c0 1.33301 -0.666992 2 -2 2h-47c-1.33301 0 -2 -0.666992 -2 -2v-477h-208v639h208v-41c35.333 27.333 87 41 155 41c69.333 0 104 -27 104 -81v-558h-208zM173 -199l27 171h120l-63 -171h-84z" />
    <glyph glyph-name="Ncaron" unicode="&#x147;" horiz-adv-x="518" 
d="M285 0v477c0 1.33301 -0.666992 2 -2 2h-47c-1.33301 0 -2 -0.666992 -2 -2v-477h-208v639h208v-41c35.333 27.333 87 41 155 41c69.333 0 104 -27 104 -81v-558h-208zM236 657l-130 152h118l40 -63l35 63h113l-122 -152h-54z" />
    <glyph glyph-name="ncaron" unicode="&#x148;" horiz-adv-x="518" 
d="M285 0v477c0 1.33301 -0.666992 2 -2 2h-47c-1.33301 0 -2 -0.666992 -2 -2v-477h-208v639h208v-41c35.333 27.333 87 41 155 41c69.333 0 104 -27 104 -81v-558h-208zM236 657l-130 152h118l40 -63l35 63h113l-122 -152h-54z" />
    <glyph glyph-name="Eng" unicode="&#x14a;" horiz-adv-x="518" 
d="M493 -120c0 -52.667 -34.667 -79 -104 -79h-363v159h257c1.33301 0 2 0.666992 2 2v515c0 1.33301 -0.666992 2 -2 2h-47c-1.33301 0 -2 -0.666992 -2 -2v-477h-208v639h208v-41c35.333 27.333 87 41 155 41c69.333 0 104 -27 104 -81v-678z" />
    <glyph glyph-name="eng" unicode="&#x14b;" horiz-adv-x="518" 
d="M493 -120c0 -52.667 -34.667 -79 -104 -79h-363v159h257c1.33301 0 2 0.666992 2 2v515c0 1.33301 -0.666992 2 -2 2h-47c-1.33301 0 -2 -0.666992 -2 -2v-477h-208v639h208v-41c35.333 27.333 87 41 155 41c69.333 0 104 -27 104 -81v-678z" />
    <glyph glyph-name="Omacron" unicode="&#x14c;" horiz-adv-x="515" 
d="M283 477c0 1.33301 -0.666992 2 -2 2h-47c-1.33301 0 -2 -0.666992 -2 -2v-316c0 -1.33301 0.666992 -2 2 -2h47c1.33301 0 2 0.666992 2 2v316zM128 0c-69.333 0 -104 26.333 -104 79v479c0 54 34.667 81 104 81h259c69.333 0 104 -27 104 -81v-479
c0 -52.667 -34.667 -79 -104 -79h-259zM82 695v87h350v-87h-350z" />
    <glyph glyph-name="omacron" unicode="&#x14d;" horiz-adv-x="515" 
d="M283 477c0 1.33301 -0.666992 2 -2 2h-47c-1.33301 0 -2 -0.666992 -2 -2v-316c0 -1.33301 0.666992 -2 2 -2h47c1.33301 0 2 0.666992 2 2v316zM128 0c-69.333 0 -104 26.333 -104 79v479c0 54 34.667 81 104 81h259c69.333 0 104 -27 104 -81v-479
c0 -52.667 -34.667 -79 -104 -79h-259zM82 695v87h350v-87h-350z" />
    <glyph glyph-name="Obreve" unicode="&#x14e;" horiz-adv-x="515" 
d="M283 477c0 1.33301 -0.666992 2 -2 2h-47c-1.33301 0 -2 -0.666992 -2 -2v-316c0 -1.33301 0.666992 -2 2 -2h47c1.33301 0 2 0.666992 2 2v316zM128 0c-69.333 0 -104 26.333 -104 79v479c0 54 34.667 81 104 81h259c69.333 0 104 -27 104 -81v-479
c0 -52.667 -34.667 -79 -104 -79h-259zM430 809c-3.33301 -14.667 -7.99902 -30.165 -13.999 -46.498s-15.333 -31.333 -28 -45s-29.667 -25 -51 -34s-49 -13.5 -83 -13.5c-30.667 0 -56.167 4.5 -76.5 13.5s-36.833 20.167 -49.5 33.5s-22.334 28.166 -29.001 44.499
s-11.667 32.166 -15 47.499h106c4.66699 -45.333 26.667 -68 66 -68c20 0 35.667 5.16699 47 15.5s18.333 27.833 21 52.5h106z" />
    </font>
</defs>
</svg>
