<svg width="30" height="30" fill="none" xmlns="http://www.w3.org/2000/svg"><path d="M23.96 4.592L4.56 23.96l1.412 1.416 19.4-19.368-1.413-1.415z" fill="#15499F"/><path d="M5.973 4.592L4.56 6.008l19.4 19.367 1.413-1.415-19.4-19.368z" fill="#15499F"/><path d="M18.093 18.326a12.58 12.58 0 00-3.62 10.424l1.986-.233a10.593 10.593 0 013.047-8.777 10.633 10.633 0 019.168-2.986l.317-1.975c-3.966-.636-8.041.69-10.898 3.547zM14.498 1.228l-1.995.144a10.645 10.645 0 01-3.115 8.292c-2.166 2.195-5.101 3.297-8.26 3.104l-.122 1.997c.28.017.559.025.836.025 3.426 0 6.585-1.304 8.965-3.716a12.638 12.638 0 003.69-9.846z" fill="#15499F"/><path d="M15 0C6.729 0 0 6.729 0 15s6.729 15 15 15 15-6.729 15-15S23.271 0 15 0zm0 28C7.832 28 2 22.168 2 15S7.832 2 15 2s13 5.832 13 13-5.832 13-13 13z" fill="#15499F"/></svg>