<svg width="30" height="30" fill="none" xmlns="http://www.w3.org/2000/svg"><g clip-path="url(#clip0)"><path d="M29.984 18.775c-.075-1.719-.374-3.625-.822-5.418-.449-1.72-1.01-3.326-1.682-4.559-2.615-4.596-5.455-3.886-8.855-2.99-1.084.262-2.242.561-3.438.673h-.374c-1.196-.112-2.354-.41-3.438-.672-3.4-.86-6.24-1.607-8.855 3.026-.673 1.233-1.27 2.84-1.682 4.56-.448 1.793-.747 3.698-.822 5.417-.075 1.906.112 3.288.523 4.26.411.897 1.01 1.457 1.794 1.681.71.187 1.532.113 2.391-.261 1.458-.598 3.139-1.868 4.783-3.4C10.666 19.97 12.833 19.41 15 19.41c2.167 0 4.334.56 5.493 1.682 1.644 1.532 3.325 2.802 4.783 3.4.86.336 1.681.448 2.391.261.747-.224 1.383-.747 1.794-1.718.41-.934.598-2.317.523-4.26zm-1.794 3.737c-.224.523-.523.822-.896.934-.412.112-.935.037-1.532-.187-1.308-.523-2.84-1.682-4.335-3.102-1.42-1.42-3.924-2.13-6.427-2.13-2.504 0-5.007.71-6.464 2.056-1.532 1.42-3.064 2.615-4.335 3.101-.598.224-1.12.336-1.532.187-.374-.112-.672-.411-.897-.934-.299-.71-.448-1.869-.373-3.587a25.75 25.75 0 01.784-5.157c.411-1.607.935-3.101 1.57-4.222 2.055-3.7 4.446-3.102 7.286-2.354 1.159.299 2.354.597 3.662.71h.561c1.345-.113 2.54-.411 3.699-.71 2.84-.71 5.231-1.346 7.286 2.354.636 1.12 1.159 2.578 1.57 4.222.41 1.719.71 3.513.784 5.157.075 1.718-.074 2.877-.41 3.662z" fill="#23A873"/><path d="M24.053 9.635l.043.05.05.045c.23.202.53.33.865.33h.928c.319 0 .652-.112.914-.376l.023-.023.022-.026c.2-.23.324-.528.324-.86V7.687h1.003a1.274 1.274 0 001.283-1.285V5.57a1.28 1.28 0 00-.346-.886 1.257 1.257 0 00-.937-.41h-1.003V3.255a1.274 1.274 0 00-1.283-1.285h-.928a1.3 1.3 0 00-.865.33l-.025.022-.023.024c-.261.262-.37.595-.37.91v1.017h-1.014c-.359 0-.683.144-.925.387l.71.704-.71-.704c-.26.263-.37.595-.37.91v.832c0 .314.11.647.37.91l.024.023.025.022c.25.22.558.33.876.33h1.015v1.086c0 .333.123.63.324.861z" fill="#00CA3D" stroke="#F4F7FA" stroke-width="2"/><path d="M11.563 11.488c-.374-.336-.822-.597-1.346-.635a2.126 2.126 0 00-.597-1.308l-.038-.037a2.116 2.116 0 00-1.532-.635c-.598 0-1.158.261-1.532.635-.336.336-.598.822-.635 1.345-.523.038-.972.262-1.345.598l-.038.037a2.117 2.117 0 00-.635 1.533c0 .597.262 1.158.635 1.531.374.374.823.598 1.383.636.037.523.262 1.009.635 1.345.411.41.934.635 1.532.635s1.159-.261 1.532-.635c.337-.374.598-.822.635-1.345a1.994 1.994 0 001.346-.636c.41-.41.635-.934.635-1.531 0-.598-.262-1.159-.635-1.533zm-.934 2.093a.76.76 0 01-.561.224h-.523a.71.71 0 00-.71.71v.486a.76.76 0 01-.224.56.76.76 0 01-.56.225.76.76 0 01-.561-.225.76.76 0 01-.224-.56v-.523a.71.71 0 00-.71-.71h-.524a.76.76 0 01-.56-.224.757.757 0 01-.224-.524.76.76 0 01.224-.56l.037-.037a.893.893 0 01.523-.187h.524a.71.71 0 00.71-.71v-.523a.76.76 0 01.224-.56.76.76 0 01.56-.225.76.76 0 01.56.224l.038.038a.892.892 0 01.187.523v.523c0 .373.299.71.71.71h.523a.76.76 0 01.56.224.76.76 0 01.225.56.76.76 0 01-.224.561zm10.872-1.906a1.308 1.308 0 100-2.615 1.308 1.308 0 000 2.615zm0 5.306a1.308 1.308 0 100-2.615 1.308 1.308 0 000 2.615zm-2.652-2.653a1.308 1.308 0 100-2.616 1.308 1.308 0 000 2.616zm5.306 0a1.308 1.308 0 100-2.616 1.308 1.308 0 000 2.616z" fill="#23A873"/></g><defs><clipPath id="clip0"><path fill="#fff" d="M0 0h30v30H0z"/></clipPath></defs></svg>