<svg width="30" height="27" fill="none" xmlns="http://www.w3.org/2000/svg"><path d="M26.484.61H3.516A3.52 3.52 0 000 4.124v14.063a3.52 3.52 0 003.516 3.515h10.312v2.344H7.734v2.344h14.532v-2.344h-6.094v-2.344h10.312A3.52 3.52 0 0030 18.188V4.124A3.52 3.52 0 0026.484.609zm1.172 17.578c0 .646-.525 1.171-1.172 1.171H3.516a1.173 1.173 0 01-1.172-1.172V4.126c0-.646.525-1.172 1.172-1.172h22.968c.646 0 1.172.526 1.172 1.172v14.063z" fill="#478ECC" stroke="#fff" stroke-width=".5"/><path fill-rule="evenodd" clip-rule="evenodd" d="M4.5 15.533c0-5.79 4.71-10.5 10.5-10.5s10.5 4.71 10.5 10.5a10.44 10.44 0 01-.94 4.342h-1.564a9.031 9.031 0 001.03-3.18 7.447 7.447 0 00-5.267 1.614l1.569 1.566h-1.982l-.592-.591c-.163.19-.315.388-.457.591h-1.646a8.867 8.867 0 011.11-1.583l-1.785-1.782-3.37 3.365H9.624l4.361-4.354-2.34-2.337C10.061 14.593 8.06 15.36 5.9 15.386l-.001.147c0 1.571.4 3.05 1.104 4.342H5.44a10.44 10.44 0 01-.94-4.342zm1.532-1.55c1.731-.055 3.336-.675 4.62-1.79l-2.57-2.565a9.071 9.071 0 00-2.05 4.354zM9.07 8.635l2.552 2.548a7.444 7.444 0 001.649-4.586A9.075 9.075 0 009.07 8.636zm5.6-2.197a9.06 9.06 0 016.234 2.175l-5.928 5.918-2.358-2.354a8.841 8.841 0 002.053-5.74zm7.226 3.163l-5.93 5.92 1.798 1.793a8.852 8.852 0 016.333-2.02 9.061 9.061 0 00-2.2-5.693z" fill="#478ECC"/></svg>