<svg width="30" height="30" fill="none" xmlns="http://www.w3.org/2000/svg"><path d="M24.705 16.069a3.5 3.5 0 01-.228 1.285l1.878.997c.913-1.251.463-2.557.454-2.585l-2.104.303zm-13.576 7.622l-.07-.04-1.405 1.802.054.056a3.069 3.069 0 002.544.924l.077-.01.07-2.202v-.085l-.084-.008c-.005-.002-.566-.073-1.186-.437zm1.025 2.57a2.888 2.888 0 01-2.259-.823l1.211-1.552c.49.274.926.375 1.11.408l-.062 1.967zM7.093 9.465l-1.424-1.58c-1.286.864-1.31 2.245-1.312 2.274l2.081.436a3.49 3.49 0 01.655-1.13zm14.709-1.39l.05.062 1.937-1.212-.032-.072c-.616-1.39-1.925-1.706-2.074-1.738l-.076-.017-.82 2.045-.055.093.103.024c.005.002.508.262.967.815zm-.084-2.765a2.902 2.902 0 011.84 1.545L21.89 7.9a3.722 3.722 0 00-.904-.762l.732-1.827zm-.988 17.515l.798 1.971c1.504-.373 1.999-1.662 2.01-1.688l-1.806-1.122a3.49 3.49 0 01-1.002.839zM7.147 20.254l-.085-.058c-.003-.004-.384-.411-.63-1.097l-.026-.075-2.234.477.005.078c.103 1.517 1.225 2.262 1.355 2.343l.066.042 1.469-1.642.08-.068zm-1.58 1.473a2.902 2.902 0 01-1.202-2.082l1.925-.41c.195.513.462.877.588 1.026l-1.312 1.466zm6.916-16.121l-.076-2.125c-1.54-.165-2.446.877-2.466.899l1.314 1.67c.005-.004.495-.32 1.228-.444zm13.975 6.047l-.047-.062-1.942 1.04-.094.036.055.084c.002.005.221.52.216 1.246v.08l2.262.316.023-.075a3.08 3.08 0 00-.473-2.665zm.319 2.539l-1.95-.273a3.69 3.69 0 00-.201-1.166l1.733-.928a2.89 2.89 0 01.418 2.367zM14.344 24.607l-.656 2.023c1.39.681 2.599.011 2.624-.002l-.662-2.02a3.49 3.49 0 01-1.306-.001zM3.304 14.219l2.182-.313h.103l-.026-.1c0-.005-.03-.563.223-1.245l.028-.074-2.018-1.072-.046.065c-.894 1.225-.515 2.518-.468 2.664l.022.075zm.546-2.568l1.739.922a3.74 3.74 0 00-.209 1.164l-1.947.28a2.907 2.907 0 01.417-2.366zm14.085-8.109l-.068 2.125c.008 0 .586.072 1.227.449l1.308-1.677c-1.073-1.116-2.437-.9-2.467-.897zm5.725 15.623l-.007.102a3.38 3.38 0 01-.636 1.094l-.052.06 1.53 1.698.066-.044c1.258-.846 1.345-2.191 1.35-2.344l.006-.077-2.158-.453-.099-.036zm2.066.634c-.027.304-.192 1.362-1.202 2.08l-1.318-1.462c.346-.426.527-.838.594-1.023l1.926.405zM8.307 21.866l-1.803 1.128c.627 1.416 1.983 1.68 2.011 1.686l.79-1.973a3.474 3.474 0 01-.998-.841zM8.628 5c-1.47.364-2.014 1.599-2.071 1.74l-.032.073L8.4 7.975l.08.069.043-.095a3.47 3.47 0 01.971-.81l.07-.038-.859-2.12L8.628 5zm-.202 2.778L6.755 6.741c.13-.277.646-1.216 1.84-1.545l.74 1.825a3.689 3.689 0 00-.91.757zm15.405 2.977l2.08-.444c-.105-1.544-1.289-2.255-1.313-2.272L23.18 9.624c.006.003.402.43.651 1.131zm-4.891 12.93l-.073.075a3.45 3.45 0 01-1.189.429l-.078.013.082 2.283.078.009a3.054 3.054 0 002.54-.926l.055-.057-1.362-1.734-.053-.092zm-.844 2.646c-.08 0-.16-.004-.239-.01l-.07-1.967c.54-.103.943-.302 1.112-.401l1.216 1.547c-.202.2-.92.83-2.02.83zM5.442 15.886l-2.107-.294c-.428 1.488.44 2.56.458 2.585l1.875-1.005a3.451 3.451 0 01-.226-1.286zm9.017-10.477l.093-.046c.002 0 .236-.055.607-.055.222 0 .443.02.658.06l.078.014.705-2.174-.07-.035a3.034 3.034 0 00-1.342-.315c-.726 0-1.262.264-1.364.317l-.07.035.687 2.095.018.104zm.728-2.369c.412 0 .811.089 1.191.262l-.606 1.874a3.812 3.812 0 00-.613-.05 3.48 3.48 0 00-.57.046l-.614-1.87a2.934 2.934 0 011.212-.262zm1.371 14.367l-.467-1.27c.589-.368.9-1.061.783-1.748l1.306-.48a1.007 1.007 0 10-.204-.619l-1.328.488a1.725 1.725 0 00-1.721-.81l-.452-1.229a1.008 1.008 0 10-.604.245l.44 1.2a1.724 1.724 0 00-.838 1.762l-1.164.427a1.007 1.007 0 10.245.604l1.14-.42a1.723 1.723 0 001.79.813l.455 1.241a1.008 1.008 0 10.62-.204z" fill="#96C8ED"/><path d="M15 0C6.729 0 0 6.73 0 15s6.729 15 15 15c8.27 0 15-6.73 15-15S23.27 0 15 0zm0 27.821c-7.07 0-12.821-5.751-12.821-12.82 0-7.07 5.75-12.822 12.82-12.822 7.071 0 12.822 5.751 12.822 12.82 0 7.07-5.75 12.822-12.821 12.822z" fill="#96C8ED"/></svg>