<svg width="30" height="24" fill="none" xmlns="http://www.w3.org/2000/svg"><path d="M29.414 3.682h-5.86V1.456A.586.586 0 0022.97.87H9.77a.586.586 0 000 1.172h12.614v4.146c-3.01 4.36-4.915 10.332-5.044 15.77h-5.15c.21-5.439 3.283-11.397 6.33-14.991a.586.586 0 00-.448-.965h-5.924a.586.586 0 00-.586.586v.804H7.617v-5.35h5.63a.586.586 0 000-1.172H7.03a.586.586 0 00-.586.586v2.226H.585A.586.586 0 000 4.268v4.715c0 .323.262.586.586.586h2.867a.586.586 0 00.586-.586v-.418h3.343a23.122 23.122 0 00-2.473 4.23c-1.047 2.328-1.6 4.648-1.6 6.708 0 .323.262.585.585.585h4.59a.586.586 0 00.585-.585c0-3.856 1.308-8.012 3.5-11.118l.001-.003a.584.584 0 00.163-.404v-.804h4.115c-1.39 1.815-2.666 3.968-3.655 6.176-1.431 3.195-2.187 6.374-2.187 9.194 0 .323.262.586.586.586h6.326a.586.586 0 00.586-.586c0-4.69 1.416-9.86 3.77-13.98h2.375a23.124 23.124 0 00-2.473 4.231c-1.047 2.328-1.6 4.648-1.6 6.708 0 .323.262.585.585.585h4.589a.586.586 0 00.586-.585c0-3.887 1.363-8.233 3.557-11.342A.586.586 0 0030 7.823V4.268a.586.586 0 00-.586-.586zM6.445 7.392H3.453a.586.586 0 00-.586.587v.418H1.172V4.854h5.273v2.539zm1.461 11.525h-3.41c.201-3.741 2.271-7.8 4.373-10.353h2.176c-1.88 3.015-3.025 6.779-3.139 10.353zM28.828 7.639c-2.155 3.128-3.528 7.38-3.654 11.278h-3.411c.206-3.843 2.385-8.021 4.545-10.559a.586.586 0 00-.447-.965h-2.873c.15-.232.303-.461.46-.684a.586.586 0 00.107-.337V4.854h5.273V7.64z" fill="#00B236"/></svg>