<svg width="39" height="36" viewBox="0 0 39 36" fill="none" xmlns="http://www.w3.org/2000/svg">
<path d="M16.2402 0.52002C7.29022 0.52002 0 7.14259 0 15.2729C0 23.4032 7.29022 30.0258 16.2402 30.0258C20.1322 30.0258 23.7064 28.7703 26.5077 26.6862L36.2042 35.4948C36.3539 35.6364 36.5331 35.7494 36.7314 35.8273C36.9298 35.9051 37.1432 35.9463 37.3593 35.9483C37.5754 35.9503 37.7897 35.9131 37.9897 35.8389C38.1898 35.7647 38.3715 35.655 38.5243 35.5162C38.6771 35.3774 38.7978 35.2123 38.8795 35.0306C38.9612 34.8489 39.0021 34.6542 38.9999 34.4579C38.9977 34.2616 38.9524 34.0677 38.8667 33.8876C38.781 33.7074 38.6565 33.5446 38.5007 33.4086L28.8041 24.6001C31.0983 22.0554 32.4804 18.8085 32.4804 15.2729C32.4804 7.14259 25.1902 0.52002 16.2402 0.52002ZM16.2402 3.4706C23.4348 3.4706 29.2323 8.7372 29.2323 15.2729C29.2323 21.8086 23.4348 27.0752 16.2402 27.0752C9.04559 27.0752 3.24804 21.8086 3.24804 15.2729C3.24804 8.7372 9.04559 3.4706 16.2402 3.4706Z" fill="white"/>
</svg>
