<svg width="123" height="56" viewBox="0 0 123 56" fill="none" xmlns="http://www.w3.org/2000/svg">
<path d="M63.6877 10.6211C62.0477 11.2799 59.3623 11.2799 57.7236 10.6211L47.1527 6.3756C45.6456 5.76973 45.7745 4.80211 47.4118 4.21241L57.988 0.40808C59.499 -0.136027 61.9254 -0.136027 63.4365 0.40808L74.006 4.21241C75.6434 4.80064 75.7709 5.76973 74.2625 6.3756L63.6877 10.6211Z" fill="#161F22"/>
<path d="M86.1035 19.4473C84.474 20.2105 81.5861 20.2105 79.691 19.4473L67.513 14.5547C65.7823 13.8591 65.7337 12.7489 67.3763 12.0739L77.9432 7.72397C79.4477 7.10633 82.0384 7.10633 83.7626 7.72397L95.8458 12.0739C97.7225 12.7489 98.0644 13.8591 96.5757 14.5547L86.1035 19.4473Z" fill="#161F22"/>
<path d="M111.713 29.4652C110.12 30.3535 107.002 30.3535 104.794 29.4652L90.6489 23.7874C88.6473 22.983 88.3724 21.7007 89.9966 20.9198L100.433 15.9155C101.915 15.2052 104.689 15.2052 106.666 15.9155L120.577 20.9198C122.742 21.7007 123.358 22.983 121.913 23.7874L111.713 29.4652Z" fill="#161F22"/>
<path d="M43.1734 19.0179C41.2927 19.7738 38.414 19.7738 36.7832 19.0179L26.2952 14.1577C24.8038 13.4665 25.1339 12.3621 26.9948 11.6916L38.9952 7.36959C40.7049 6.75343 43.2878 6.75343 44.7962 7.36959L55.3723 11.6916C57.0149 12.3621 56.9807 13.4665 55.2619 14.1577L43.1734 19.0179Z" fill="#161F22"/>
<path d="M65.6589 29.2015C63.7704 30.0838 60.6588 30.0838 58.7546 29.2015L46.545 23.5413C44.8157 22.7413 44.9722 21.462 46.8554 20.6855L58.9545 15.6988C60.6733 14.99 63.4442 14.99 65.1763 15.6988L77.3779 20.6855C79.2782 21.462 79.4623 22.7413 77.7501 23.5413L65.6589 29.2015Z" fill="#161F22"/>
<path d="M91.6567 40.8912C89.7892 41.9338 86.4094 41.9338 84.1606 40.8912L69.814 34.2443C67.79 33.3076 67.7137 31.8149 69.6009 30.9091L81.6724 25.1121C83.3807 24.2901 86.3607 24.2901 88.3702 25.1121L102.563 30.9091C104.78 31.8135 105.252 33.3076 103.572 34.2443L91.6567 40.8912Z" fill="#161F22"/>
<path d="M17.9229 29.1694C15.7267 30.0532 12.6164 30.0532 11.0199 29.1694L0.790931 23.5136C-0.658324 22.7136 -0.0546871 21.4342 2.10078 20.6593L15.9397 15.6726C17.9058 14.9653 20.6754 14.9653 22.1602 15.6726L32.6167 20.6593C34.2448 21.4342 33.9818 22.7122 31.988 23.5136L17.9229 29.1694Z" fill="#161F22"/>
<path d="M40.1628 41.1325C37.9297 42.1781 34.5446 42.1781 32.6548 41.1325L20.5978 34.4665C18.8974 33.5268 19.3419 32.0283 21.5474 31.118L35.6533 25.3049C37.6509 24.4814 40.6349 24.4814 42.363 25.3049L54.5593 31.1209C56.4649 32.0283 56.4189 33.5282 54.4094 34.4665L40.1628 41.1325Z" fill="#161F22"/>
<path d="M66.2521 55.0603C64.0085 56.3132 60.3025 56.3132 58.0379 55.0603L43.6637 47.1193C41.645 46.0046 41.8673 44.2296 44.103 43.1561L58.3548 36.3121C60.363 35.3475 63.5929 35.3475 65.6182 36.3121L79.9845 43.1561C82.2386 44.2296 82.4898 46.0061 80.4921 47.1193L66.2521 55.0603Z" fill="#161F22"/>
</svg>
