<svg width="64" height="64" fill="none" xmlns="http://www.w3.org/2000/svg"><path d="M44.596 25.6c3.572 0 6.468-2.866 6.468-6.4 0-3.535-2.896-6.4-6.468-6.4-3.573 0-6.468 2.865-6.468 6.4 0 3.534 2.895 6.4 6.468 6.4zm-35.404 0c3.572 0 6.468-2.866 6.468-6.4 0-3.535-2.896-6.4-6.468-6.4-3.573 0-6.468 2.865-6.468 6.4 0 3.534 2.895 6.4 6.468 6.4z" fill="#fff"/><path d="M57.644 0v17.596c0 6.178-4.984 11.195-11.12 11.195-6.136 0-11.12 5.018-11.12 11.196v23.774h22.24V64H64V0h-6.356zM22.226 17.596c0 6.178-4.98 11.195-11.113 11.195C4.981 28.791 0 33.81 0 39.987v23.774h22.243V64h6.353V0h-6.353v17.596h-.017z" fill="#fff"/></svg>