<svg width="64" height="64" fill="none" xmlns="http://www.w3.org/2000/svg"><path d="M63.815 12.308c-.614-4.353-2.798-7.58-6.006-8.843a8.109 8.109 0 00-3.481-.546V0H9.553v2.936a8.055 8.055 0 00-3.362.547C3.001 4.746.816 7.955.185 12.325c-.53 3.773.085 8.195 1.757 12.428 3.157 8.024 9.146 13.23 14.607 13.23.819 0 1.604-.153 2.389-.392v1.007l9.675 9.68v6.47l-3.055 3.055h-3.43L15.935 64h31.978l-6.177-6.214h-3.413l-3.071-3.056v-6.47l9.675-9.679V37.54a7.923 7.923 0 002.525.426c5.478 0 11.45-5.206 14.607-13.23 1.672-4.233 2.286-8.655 1.757-12.428zm-46.6 19.137c-2.031.803-6.656-2.339-9.318-9.048-1.245-3.175-1.757-6.538-1.382-9.184.29-1.98 1.041-3.397 2.014-3.79.205-.085.443-.12.7-.12.17 0 .358.035.545.07 1.076 14.168 5.666 19.802 7.918 21.73-.137.137-.29.274-.478.342zm14.708-2.714c-5.29 0-9.573-4.285-9.573-9.577s4.284-9.577 9.573-9.577c5.29 0 9.573 4.285 9.573 9.577s-4.283 9.577-9.573 9.577zm24.18-6.334c-2.645 6.727-7.287 9.85-9.317 9.048a1.771 1.771 0 01-.563-.393c2.27-1.963 6.791-7.613 7.849-21.646.239-.051.478-.12.7-.12.256 0 .494.035.7.12.972.393 1.723 1.81 2.013 3.79.375 2.663-.12 6.01-1.382 9.201z" fill="#fff"/></svg>