<svg width="65" height="49" fill="none" xmlns="http://www.w3.org/2000/svg"><path d="M55.416 5.545v37.6c0 3.058-2.482 5.544-5.535 5.544s-5.535-2.486-5.535-5.544v-13.24H20.654v13.24c0 3.058-2.482 5.544-5.534 5.544-3.053 0-5.535-2.486-5.535-5.544v-37.6C9.585 2.486 12.067 0 15.12 0s5.534 2.486 5.534 5.545v13.24h23.692V5.545C44.346 2.486 46.828 0 49.881 0s5.535 2.486 5.535 5.545zM65 11.692v25.306c0 3.226-2.619 5.857-5.847 5.857h-1.142V5.835h1.142c3.228 0 5.847 2.631 5.847 5.857zM5.847 5.835h1.142v37.013H5.847C2.619 42.848 0 40.217 0 36.99V11.692c0-3.226 2.619-5.857 5.847-5.857z" fill="#161F22"/></svg>