<svg width="40" height="65" fill="none" xmlns="http://www.w3.org/2000/svg"><path d="M23.308 20.384V6.165h-6.616v14.219c1.203-.393 2.218-.594 3.308-.594 1.09 0 2.105.201 3.308.594zm13.986 30.953c0-5.08-2.12-12.49-5.278-18.44-2.283-4.303-4.875-7.443-7.492-9.17l.009.014c1.056 2.029 2.041 4.82 2.929 8.294 1.582 6.196 2.645 13.952 2.645 19.3 0 5.081-.947 9.046-2.817 11.784-.197.288-.405.56-.62.817 2.216-.541 4.145-1.371 5.716-2.479 3.257-2.295 4.908-5.7 4.908-10.12zM40 0H0v3.76h40V0zM12.538 32.036c.887-3.475 1.873-6.266 2.929-8.294l.008-.015c-2.616 1.727-5.208 4.867-7.492 9.171-3.156 5.949-5.276 13.359-5.276 18.438 0 4.42 1.65 7.826 4.907 10.122 1.57 1.107 3.5 1.937 5.717 2.479a10.705 10.705 0 01-.62-.818c-1.87-2.738-2.818-6.702-2.818-11.783 0-5.348 1.063-13.105 2.645-19.3z" fill="#161F22"/><path d="M20 64.682c2.196 0 3.98-.982 5.302-2.918 1.57-2.299 2.399-5.904 2.399-10.427 0-5.168-1.033-12.685-2.57-18.705-.83-3.25-1.775-5.94-2.732-7.778-1.24-2.383-2.1-2.642-2.373-2.657h-.052c-.272.015-1.133.274-2.373 2.657-.957 1.838-1.902 4.528-2.731 7.778-1.538 6.02-2.57 13.537-2.57 18.705 0 4.523.829 8.128 2.397 10.426C16.02 63.7 17.805 64.682 20 64.682z" fill="#161F22"/></svg>