<svg width="123" height="56" fill="none" xmlns="http://www.w3.org/2000/svg"><path d="M63.688 10.621c-1.64.659-4.326.659-5.964 0L47.153 6.376c-1.507-.606-1.378-1.574.259-2.164L57.988.408c1.511-.544 3.937-.544 5.449 0l10.569 3.804c1.637.589 1.765 1.558.257 2.164L63.688 10.62zm22.415 8.826c-1.629.764-4.517.764-6.412 0l-12.178-4.892c-1.73-.696-1.78-1.806-.137-2.481l10.567-4.35c1.505-.618 4.095-.618 5.82 0l12.083 4.35c1.876.675 2.218 1.785.73 2.48l-10.472 4.893zm25.61 10.018c-1.593.889-4.711.889-6.919 0l-14.145-5.678c-2.002-.804-2.277-2.086-.652-2.867l10.436-5.005c1.482-.71 4.256-.71 6.233 0l13.911 5.005c2.165.78 2.781 2.063 1.336 2.867l-10.2 5.678zm-68.54-10.447c-1.88.756-4.759.756-6.39 0l-10.488-4.86c-1.491-.691-1.161-1.796.7-2.466l12-4.322c1.71-.617 4.293-.617 5.801 0l10.576 4.322c1.643.67 1.609 1.774-.11 2.466l-12.089 4.86zm22.486 10.183c-1.889.883-5 .883-6.904 0l-12.21-5.66c-1.73-.8-1.573-2.079.31-2.855l12.1-4.987c1.718-.709 4.49-.709 6.221 0l12.202 4.987c1.9.776 2.084 2.055.372 2.855l-12.091 5.66zm25.998 11.69c-1.868 1.043-5.248 1.043-7.496 0l-14.347-6.647c-2.024-.936-2.1-2.43-.213-3.335l12.071-5.797c1.709-.822 4.689-.822 6.698 0l14.193 5.797c2.217.905 2.689 2.399 1.009 3.335l-11.915 6.647zM17.923 29.17c-2.196.883-5.307.883-6.903 0L.79 23.513c-1.448-.8-.845-2.08 1.31-2.855l13.84-4.986c1.966-.708 4.735-.708 6.22 0l10.457 4.986c1.628.775 1.365 2.053-.629 2.855l-14.065 5.655zm22.24 11.963c-2.233 1.045-5.618 1.045-7.508 0l-12.057-6.666c-1.7-.94-1.256-2.439.95-3.349l14.105-5.813c1.998-.824 4.982-.824 6.71 0l12.196 5.816c1.906.907 1.86 2.407-.15 3.346l-14.246 6.666zM66.252 55.06c-2.243 1.253-5.95 1.253-8.214 0l-14.374-7.94c-2.019-1.115-1.797-2.89.439-3.964l14.252-6.844c2.008-.965 5.238-.965 7.263 0l14.367 6.844c2.254 1.074 2.505 2.85.507 3.963l-14.24 7.941z" fill="#161F22"/></svg>