<svg width="517" height="173" fill="none" xmlns="http://www.w3.org/2000/svg"><g clip-path="url(#clip0)" fill="#fff"><path d="M47.944.455c-3.436 1.309-9.096 8.354-12.43 15.3-4.549 9.662-6.57 18.217-6.57 28.081 0 7.147.404 9.462 2.729 14.595 1.516 3.22 3.941 7.247 5.457 8.857 3.436 3.624 9.804 6.543 14.15 6.643 2.728 0 3.234.403 3.234 2.517 0 1.409-.91 4.73-1.92 7.548-4.447 11.575-13.442 18.118-25.267 18.118-8.389 0-14.453-2.718-16.676-7.449-2.729-5.737-2.123-9.26 2.527-14.896 3.133-3.624 4.345-6.04 4.75-9.36.404-4.027.202-4.63-1.92-5.335C10.246 62.96 3.07 68.294.847 76.146.24 78.56-.063 83.09.24 86.31c1.516 16.507 13.947 24.962 34.565 23.553 11.32-.805 17.181-3.02 23.346-9.26 6.468-6.341 9.197-13.487 10.511-26.572 1.112-11.072 1.314-53.447.404-64.82-.707-7.65-.707-7.75-3.84-8.153C58.05-.048 49.865-.351 47.944.455zm6.267 14.293c.606.805.808 10.669.505 24.66-.404 21.74-.607 23.451-2.325 23.955-3.335 1.107-7.378-1.711-10.005-7.046-2.325-4.53-2.527-6.24-2.527-17.11 0-13.086 1.112-17.816 5.255-22.648 2.628-3.22 7.277-4.126 9.097-1.811zM176.4 3.173c-.303.805-.607 3.824-.607 6.643 0 2.919-.303 8.253-.707 11.977l-.606 6.845h-4.65c-4.547 0-11.925 1.409-12.936 2.315-.202.302 0 1.409.606 2.516 1.011 1.812 3.133 2.617 14.049 4.831l2.223.403-.202 23.955c-.303 20.936-.101 24.66 1.617 30.095 3.234 10.669 10.612 17.111 18.091 15.702 3.739-.705 8.692-6.039 12.027-12.884 1.516-3.321 2.83-5.133 2.83-4.026 0 3.322 4.75 12.28 7.276 13.991 1.314.906 4.852 2.013 7.783 2.617 8.691 1.61 13.745-2.013 18.899-13.689l1.617-3.925.91 2.919c1.111 4.026 6.569 9.36 10.207 10.065 3.942.805 9.197-1.51 11.926-5.234l2.325-3.12 2.122 4.227c2.83 5.435 5.862 7.549 13.139 8.858 5.356.905 6.266.905 8.59-.906 1.415-1.007 3.841-4.127 5.357-6.845l2.83-4.932v11.978l-7.479 7.348c-8.288 8.052-14.352 18.62-17.282 29.994-4.953 19.426 1.313 27.981 20.617 28.082 8.287.101 8.389.101 11.218-3.221 4.751-5.636 5.458-9.864 6.064-35.43l.506-23.653h3.234c1.819 0 3.84-.604 4.548-1.308 1.112-1.107.909-1.711-1.112-3.322-1.314-1.006-3.537-1.912-4.952-1.912h-2.527l.506-16.406c.404-12.582.909-17.111 2.223-19.628l1.718-3.321-3.335-1.309-3.335-1.409v-9.059c0-8.656-.202-9.26-2.83-12.078-1.516-1.61-4.75-3.422-7.075-4.127-2.324-.603-6.367-2.113-8.995-3.321-5.558-2.516-8.489-2.013-13.34 2.214-6.873 6.04-10.309 17.916-11.623 39.758-.809 13.99-2.325 18.923-6.165 20.13-2.83.906-4.75-.906-6.064-5.435-1.314-4.932-1.314-16.305.202-21.942 1.112-4.429 1.011-4.73-1.415-6.744-2.324-1.912-2.628-3.02-3.032-10.468-.606-10.568-2.122-12.682-11.521-16.507-18.799-7.65-28.198.806-31.735 28.787-.506 4.328-1.415 8.455-1.921 9.059-.505.604-1.718 4.227-2.526 7.951-2.022 8.455-4.851 14.293-8.288 16.407-2.425 1.61-2.627 1.61-4.548-.302-3.032-3.02-3.941-12.481-3.335-33.518.708-26.37.303-24.86 7.075-25.767 3.133-.301 8.59-.704 12.128-.704 6.973-.1 7.984-1.007 4.447-4.227-1.617-1.41-4.346-2.014-11.926-2.416l-9.804-.604.203-7.046c.101-3.925.505-9.26.808-11.877.606-4.73.505-4.831-2.729-6.14-5.659-2.214-10.713-2.717-11.319-.905zm121.381 41.972c2.627 2.315 2.829 2.918 2.728 9.863-.202 13.589-2.829 28.888-6.165 35.53-2.324 4.63-6.468 8.556-9.096 8.556-1.314 0-3.032-1.107-4.042-2.717-2.729-4.026-2.628-30.599.101-38.55 2.627-7.851 5.457-12.078 9.096-13.689 4.143-1.812 4.143-1.812 7.378 1.007zm-58.518 2.113c2.729 3.523 3.74 10.87 1.819 13.79-.808 1.308-1.92 7.146-2.526 13.084-1.516 13.488-3.538 20.533-7.176 24.157-4.245 4.127-7.782 3.825-9.803-1.007-3.942-9.159-2.325-35.63 2.829-45.595 3.639-7.146 11.017-9.36 14.857-4.429zm60.842 101.458c-1.819 11.675-6.165 17.715-11.724 16.406-5.255-1.308-6.872-10.77-3.941-22.244 2.223-8.354 7.58-19.325 12.229-24.66l3.941-4.429.304 13.991c.101 7.75-.202 17.212-.809 20.936z"/><path d="M376.41 36.086c-5.154 5.334-8.186 13.387-9.702 26.27-1.415 12.078-5.458 27.981-8.288 33.115-1.718 3.12-2.83 4.126-4.75 4.126-4.043 0-5.357-5.535-4.75-20.633.404-9.16 1.112-14.595 2.83-20.03l2.324-7.448-2.223-1.812c-1.415-1.107-4.851-2.013-9.096-2.416a258.1 258.1 0 01-8.288-.805c-1.01-.201-1.516-1.51-1.516-4.227-.101-5.737-1.111-6.845-5.255-6.24-6.165 1.006-6.165 1.207-5.66 18.117.404 9.864.101 18.016-.707 22.848-1.819 10.669-1.718 11.474.303 11.877 2.729.603 5.356-6.643 7.479-20.936l1.92-12.582h5.963l-.404 13.085c-.607 25.666 4.75 38.751 15.867 38.751 4.649 0 8.692-3.12 11.623-9.058l2.526-4.932 1.618 4.328c.909 2.315 2.93 5.435 4.446 6.844 3.336 3.12 12.735 5.435 16.575 3.925 3.336-1.207 7.681-6.542 10.41-12.48l2.123-4.932 1.92 4.227c4.851 10.77 15.968 11.575 22.538 1.711l2.728-4.127.607 5.234c.909 6.643 2.021 7.952 7.58 8.858 8.793 1.308 8.793 1.208 10.814-13.89 1.718-13.588 4.346-24.962 5.862-24.962.404 0 .909 6.744 1.112 14.997.303 12.984.606 15.3 2.223 17.111 3.942 4.328 13.745 3.623 13.745-1.007 0-3.522 4.043-18.117 7.378-26.572l3.234-8.052.505 14.091c.405 12.481.809 14.696 3.032 19.024 1.415 2.818 3.74 5.938 5.256 7.045 3.739 2.718 10.915 2.718 14.553 0 7.783-5.737 15.868-30.598 10.006-30.598-1.819 0-3.032 2.416-4.043 7.549-2.324 12.883-10.106 20.231-13.644 12.783-2.122-4.328-2.425-21.64-.505-29.894 3.032-13.085 3.133-12.078-.91-15.098-2.526-1.912-5.356-3.02-8.59-3.321l-4.75-.403-2.628 5.838c-1.516 3.322-4.851 12.078-7.58 19.527L467.37 84.5l-.303-15.3-.304-15.4-2.931-1.51c-8.085-4.126-12.33-.402-17.08 15.2-1.819 6.038-3.436 11.373-3.638 11.977-.202.503-.404-7.65-.404-18.319-.102-11.977-.506-19.526-1.112-19.929-.607-.403-3.538-.906-6.468-1.208l-5.458-.604-.404 19.024c-.405 16.003-.809 20.03-2.628 25.666-3.942 11.776-8.995 15.4-11.926 8.455-1.718-4.127-1.92-19.326-.303-25.163 1.011-3.624.91-4.127-1.415-6.04-2.122-1.71-2.527-3.22-3.133-9.964-.809-8.958-2.325-12.783-5.862-14.293-10.612-4.932-12.431-5.435-17.687-5.435-5.457 0-5.962.201-9.904 4.429zm19.708 9.663c3.335 1.811 5.559 13.185 3.032 15.701-.505.503-1.516 5.737-2.021 11.475-1.415 13.688-3.639 21.439-7.176 25.263-3.74 3.926-7.883 3.724-9.905-.503-3.436-7.247-3.234-27.68.405-40.26 3.032-10.167 9.399-14.998 15.665-11.676zM81.397 39.508c-.809 1.41-2.931 49.118-2.426 54.755.708 6.643 2.931 8.857 8.793 8.857 2.527 0 5.154-.402 5.76-.805.708-.403 1.921-4.53 2.83-9.26 1.921-9.36 4.953-19.225 7.177-23.15 1.313-2.315 1.414-1.41 1.516 9.562 0 13.387 1.414 18.017 6.063 20.432 3.336 1.711 9.703.906 13.341-1.811 3.032-2.215 3.032-2.215 4.447-.202 3.234 4.63 17.181 7.348 26.985 5.234 7.378-1.51 11.825-5.032 11.825-9.461 0-4.328-1.516-6.24-12.027-14.695s-12.229-10.67-12.229-15.601c0-7.247 8.995-11.575 14.25-6.945 2.426 2.214 4.548 1.71 7.479-1.712 2.122-2.516 2.527-4.026 2.325-7.347-.304-3.422-.809-4.328-3.336-5.536-5.659-2.718-24.154 2.214-30.724 8.254-5.255 4.83-6.468 12.28-3.133 18.72 1.516 3.121 1.718 4.027.607 4.43-.708.301-1.618 2.516-2.022 4.83-1.617 10.167-6.973 17.112-10.612 13.589-1.314-1.41-1.617-4.429-1.819-18.118-.101-12.581-.505-17.211-1.718-19.526-1.718-3.322-5.66-4.831-8.692-3.22-2.526 1.308-6.57 8.253-10.207 17.412l-2.83 7.247-.102-16.306c0-15.802-.1-16.406-2.223-17.815-3.133-1.913-8.59-2.92-9.298-1.812zm67.613 47.81c2.426 2.114 4.548 4.63 4.852 5.737 1.516 5.636-6.772 7.247-13.24 2.516-2.122-1.51-4.952-3.522-6.569-4.428-1.719-1.007-2.527-2.114-2.123-3.12.303-.806 1.112-4.027 1.718-7.147l1.112-5.737 5.053 4.227c2.729 2.215 6.873 5.838 9.197 7.952z"/></g><defs><clipPath id="clip0"><path fill="#fff" d="M0 0h517v173H0z"/></clipPath></defs></svg>