<svg width="49" height="42" fill="none" xmlns="http://www.w3.org/2000/svg"><path d="M47.584 11.9l-.054-.054a5.802 5.802 0 00-1.797-.97V9.693c0-1.992-1.415-3.715-3.266-4.146V4.308c0-2.37-1.96-4.308-4.356-4.308H10.89C8.493 0 6.533 1.938 6.533 4.308v1.238c-1.85.485-3.266 2.154-3.266 4.146v1.239a4.195 4.195 0 00-1.797.969h-.054C.544 12.708 0 13.892 0 15.077v22.615c0 1.185.544 2.37 1.416 3.177l.054.054A4.351 4.351 0 004.356 42h40.288a4.457 4.457 0 002.886-1.077l.054-.054c.872-.807 1.416-1.992 1.416-3.177V15.077c0-1.185-.544-2.37-1.416-3.177zM8.711 4.308c0-1.185.98-2.154 2.178-2.154H38.11c1.198 0 2.178.97 2.178 2.154v1.077H8.71V4.308zM5.444 9.692c0-1.184.98-2.154 2.178-2.154h33.756c1.198 0 2.178.97 2.178 2.154v1.077H5.444V9.692zm-1.088 3.231h40.452l-15.68 12.654-4.628 3.661-4.628-3.715-15.68-12.6h.164zm-2.178 24.77V15.076c0-.27.054-.592.163-.808l15.136 12.116L2.34 38.5c-.109-.215-.163-.538-.163-.808zm42.466 2.153H4.192L19.22 27.785l4.628 3.715c.217.162.435.215.707.215.273 0 .49-.053.708-.215l4.628-3.715 14.918 12.061h-.164zm2.178-2.154c0 .27-.054.593-.163.808L31.523 26.385 46.66 14.269c.109.27.163.539.163.808v22.615z" fill="#fff"/></svg>