<svg width="189" height="95" fill="none" xmlns="http://www.w3.org/2000/svg"><path d="M144.449 0h-8.129l-.584 2.652h8.13L144.449 0z" fill="#161F22"/><path d="M188.21 7.958l.79-3.526h-8.129l-1.166 5.305c-.115.47-.384.88-.808 1.225-.421.35-.873.521-1.354.521h-1.817L178.229 0H170.1l-4.225 19.442h-4.038c.961-1.052 1.59-2.228 1.886-3.526h-8.13l-.376 1.746c-.115.493-.383.912-.807 1.26-.422.348-.885.52-1.388.52h-1.784l2.298-10.613a2.19 2.19 0 01.806-1.24c.424-.336.887-.504 1.39-.504.96 0 1.442.46 1.442 1.376 0 .112-.015.235-.036.368l-.378 1.781h8.129a6.01 6.01 0 00.138-1.275c0-1.411-.475-2.58-1.424-3.509-.95-.93-2.177-1.394-3.686-1.394h-7.238c-1.739 0-3.356.604-4.854 1.814-1.497 1.208-2.428 2.663-2.795 4.364l-1.926 8.832h-2.874l3.26-15.01h-8.13l-3.266 15.01h-5.579c.983-1.052 1.611-2.228 1.886-3.526l2.126-9.738c.092-.426.139-.852.139-1.277 0-1.41-.476-2.579-1.424-3.509C128.292.464 127.063 0 125.555 0h-14.441l-4.802 22.094h67.116l1.715-7.959h1.819c.959 0 1.439.472 1.439 1.412a2.2 2.2 0 01-.034.369l-1.337 6.178h8.226l.547-2.652.317-1.78c.092-.426.135-.84.135-1.242 0-1.456-.501-2.653-1.507-3.593 1.852-1.232 3.006-2.855 3.462-4.87zm-65.435-3.526l-2.881 13.23a2.29 2.29 0 01-.788 1.26c-.412.348-.868.52-1.372.52h-2.711l3.637-16.79h2.71c.961 0 1.441.47 1.441 1.41 0 .113-.012.236-.036.37zm-31.003 15.01h-1.764c-.96 0-1.44-.47-1.44-1.41 0-.111.011-.235.034-.37l2.881-13.23h-8.129l-3.265 15.01h-3.743c.983-1.052 1.622-2.228 1.92-3.526l1.167-5.306c.09-.446.136-.883.136-1.31 0-1.388-.479-2.545-1.44-3.474-.96-.93-2.183-1.394-3.67-1.394H69.04L70 0h-8.13l-4.226 19.442h-4.023c.983-1.052 1.613-2.228 1.886-3.526l1.166-5.306a6.55 6.55 0 00.138-1.31c0-1.388-.48-2.545-1.44-3.474-.961-.93-2.185-1.394-3.671-1.394h-7.237c-1.739 0-3.356.604-4.853 1.814-1.499 1.208-2.43 2.663-2.796 4.364l-1.926 8.832h-4.126L33.61 6.178c.092-.426.137-.852.137-1.277 0-1.41-.475-2.579-1.423-3.509C31.374.464 30.146 0 28.637 0H11.114C9.376 0 7.757.603 6.26 1.812c-1.498 1.21-2.43 2.664-2.796 4.366L0 22.094h7.66l3.842-17.662a2.136 2.136 0 011.2-1.447c1.356-.613 1.9-.333 2.403-.333l-4.253 19.442h8.442l4.219-19.442c.434 0 1.342-.178 2.073.18.826.403.798 1.487.776 1.6l-3.841 17.662h68.653L88.999 32s8.96-3.245 10.374-10.198l3.841-17.37h-8.13l-3.312 15.01zM48.922 8.83l-1.92 8.833c-.115.493-.384.912-.805 1.26-.425.348-.888.52-1.39.52h-1.784L45.321 8.83c.114-.49.383-.905.806-1.24.423-.336.887-.504 1.39-.504.96 0 1.44.46 1.44 1.376 0 .112-.011.235-.035.368zm22.758 0l-1.92 8.833c-.115.493-.383.912-.807 1.26-.422.348-.885.52-1.388.52H65.78l2.676-12.357h1.817c.96 0 1.44.46 1.44 1.376a1.8 1.8 0 01-.034.368z" fill="#161F22"/><path fill-rule="evenodd" clip-rule="evenodd" d="M81 92.292s19.5-13 19.5-28.167a19.5 19.5 0 00-39 0C61.5 79.292 81 92.292 81 92.292zm6.5-28.167a6.5 6.5 0 11-13 0 6.5 6.5 0 0113 0z" fill="#2DA7DD"/></svg>