<svg width="37" height="48" fill="none" xmlns="http://www.w3.org/2000/svg"><path d="M18.5 41.295a1.643 1.643 0 01-.81-.209 1.682 1.682 0 01-.608-.58L6.054 22.89a15.047 15.047 0 01-2.277-7.52c-.08-2.669.548-5.31 1.82-7.648a14.831 14.831 0 015.408-5.647A14.59 14.59 0 0118.5 0c2.637 0 5.225.716 7.494 2.074a14.832 14.832 0 015.41 5.646 15.063 15.063 0 011.82 7.648 15.046 15.046 0 01-2.276 7.52L19.919 40.506a1.68 1.68 0 01-.608.58 1.64 1.64 0 01-.811.21zm0-38.696a12.049 12.049 0 00-6.19 1.71 12.247 12.247 0 00-4.47 4.663 12.44 12.44 0 00.378 12.53L18.5 37.925 28.783 21.5a12.439 12.439 0 00.377-12.528 12.246 12.246 0 00-4.47-4.662 12.049 12.049 0 00-6.19-1.711zm0 20.432a7.937 7.937 0 01-4.448-1.366 8.086 8.086 0 01-2.95-3.64 8.202 8.202 0 01-.455-4.683 8.14 8.14 0 012.191-4.152 7.978 7.978 0 014.1-2.218 7.915 7.915 0 014.627.461 8.03 8.03 0 013.593 2.986 8.18 8.18 0 01-.998 10.235 7.967 7.967 0 01-5.66 2.377zm0-13.62a5.4 5.4 0 00-3.025.928 5.5 5.5 0 00-2.005 2.475 5.577 5.577 0 00-.31 3.185 5.534 5.534 0 001.49 2.823 5.425 5.425 0 002.788 1.509 5.383 5.383 0 003.146-.314 5.46 5.46 0 002.444-2.03 5.562 5.562 0 00-.68-6.96A5.417 5.417 0 0018.5 9.41z" fill="#fff"/><path d="M25.398 35.243l-1.55 2.475c6.933.711 10.546 2.67 10.546 3.686 0 1.395-6.034 3.958-15.894 3.958S2.606 42.799 2.606 41.404c0-1.016 3.613-2.975 10.546-3.686l-1.55-2.475C5.595 36.023 0 37.936 0 41.404 0 45.936 9.59 48 18.5 48S37 45.936 37 41.404c0-3.468-5.595-5.38-11.602-6.161z" fill="#fff"/></svg>