<svg width="539" height="463" fill="none" xmlns="http://www.w3.org/2000/svg"><path d="M185.527 456.175c-5.163 0-10.094-1.046-13.772-3.177L22.783 366.732c-8.092-4.688-7.064-12.853 2.293-18.24l8.555-4.923 133.79 77.476c4.95 2.867 11.582 4.272 18.528 4.272 8.207 0 16.854-1.962 23.674-5.798a1.1 1.1 0 01.077-.043l.017-.011.06-.033c.01-.007.022-.012.031-.018l.047-.026a1.56 1.56 0 01.078-.045l298.244-171.642 10.122 5.862c8.09 4.688 7.065 12.853-2.295 18.24l-78.571 45.217-2.909.367-17.249 5.132-11.404 7.982-6.776 8.583-195.742 112.649c-5.104 2.938-11.632 4.442-17.826 4.442z" fill="#78909C" fill-opacity=".754"/><path d="M12.385 331.265c-5.094-2.95-7.468-6.926-7.298-11.064l-.035.011.061-22.496 8.623 10.1c.56-.368 1.123-.736 1.735-1.089l317.156-182.524c12.592-7.246 31.625-8.008 42.512-1.703l152.858 88.52c3.094-3.388 9.58-10.541 9.58-10.541l-.073 22.005-.004-.003c.229 4.962-3.301 10.246-10.411 14.336L209.933 419.343c-12.593 7.245-31.625 8.007-42.512 1.702l-155.036-89.78z" fill="#2D415E"/><path d="M83.587 365.968l8.928 5.155c1.186.685 2.148-.042 2.148-1.624 0-1.58-.962-3.418-2.148-4.102l-8.928-5.156c-1.187-.684-2.147.043-2.147 1.623 0 1.581.96 3.419 2.147 4.104z" fill="#263C7A"/><path d="M375.139 122.5l152.858 88.52c3.094-3.388 9.58-10.541 9.58-10.541l-.073 22.005-.004-.003c.229 4.962-3.301 10.246-10.411 14.336L209.933 419.343c-6.569 3.78-14.888 5.777-22.89 5.945l.3-217.475 145.284-83.61c12.592-7.246 31.625-8.008 42.512-1.703z" fill="#2D415E"/><path d="M530.24 189.661L375.204 99.883c-10.887-6.306-29.921-5.544-42.512 1.702L15.536 284.109c-12.592 7.247-13.973 18.232-3.087 24.538l155.038 89.78c10.886 6.306 29.918 5.544 42.512-1.703L527.155 214.2c12.59-7.245 13.972-18.232 3.085-24.539z" fill="#D9EFFB"/><path d="M167.368 400.828l-155.036-89.78c-5.615-3.251-7.941-7.748-7.173-12.336.274 3.725 2.662 7.256 7.29 9.935l155.038 89.779c10.886 6.307 29.918 5.546 42.512-1.702L527.155 214.2c6.097-3.508 9.54-7.895 10.26-12.203.37 5.039-3.14 10.439-10.379 14.604L209.88 399.125c-12.592 7.246-31.625 8.01-42.512 1.703z" fill="#fff"/><path d="M369.327 106.932c-8.094-4.685-22.24-4.12-31.599 1.265L25.076 288.129c-9.357 5.387-10.385 13.552-2.293 18.239l148.972 86.268c8.092 4.686 22.24 4.121 31.598-1.267l312.651-179.93c9.36-5.386 10.385-13.552 2.295-18.239l-148.972-86.268z" fill="#2D415E"/><path d="M209.28 347.831l-105.121-60.692 6.709-3.875 105.124 60.693-6.712 3.874zm-73.141-17.694l-53.228-30.732 6.709-3.874 53.228 30.732-6.709 3.874z" fill="#D9EFFB"/><path d="M161.969 345.049l-17.262-9.965 6.709-3.876 17.263 9.968-6.71 3.873z" fill="#FFCD00"/><path d="M188.033 360.097l-17.262-9.965 6.709-3.876 17.263 9.968-6.71 3.873zm-51.3-41.885l-43.198-24.94 6.709-3.875 43.2 24.942-6.711 3.873z" fill="#fff"/><path d="M189.467 348.657l-43.199-24.941 6.709-3.873 43.199 24.941-6.709 3.873z" fill="#D9EFFB"/><path d="M157.485 295.344c-2.162 1.247-5.666 1.247-7.828 0-2.162-1.249-2.162-3.272 0-4.52 2.162-1.248 5.666-1.248 7.828 0s2.162 3.271 0 4.52z" fill="#FFCD00"/><path d="M169.181 302.096c-2.161 1.249-5.666 1.249-7.828 0-2.161-1.247-2.161-3.271 0-4.519 2.162-1.248 5.667-1.248 7.828 0 2.162 1.248 2.162 3.272 0 4.519z" fill="#fff"/><path d="M180.879 308.851c-2.162 1.246-5.667 1.246-7.828 0-2.162-1.25-2.162-3.272 0-4.522 2.161-1.246 5.666-1.246 7.828.002 2.161 1.248 2.161 3.27 0 4.52z" fill="#D9EFFB"/><path d="M192.575 315.603c-2.162 1.249-5.667 1.249-7.828 0-2.162-1.248-2.162-3.272 0-4.519 2.161-1.249 5.666-1.249 7.828 0 2.161 1.248 2.161 3.272 0 4.519z" fill="#FFCD00"/><path d="M204.272 322.356c-2.163 1.248-5.665 1.248-7.829 0-2.162-1.248-2.162-3.271 0-4.52 2.162-1.248 5.666-1.248 7.829 0 2.163 1.249 2.163 3.272 0 4.52z" fill="#fff"/><path d="M439.383 193.864l-17.7-10.219 6.878-3.97 17.702 10.218-6.88 3.971z" fill="#FFCD00"/><path d="M464.029 208.095l-17.7-10.22 6.88-3.971 17.699 10.219-6.879 3.972m-103.704-60.302l-17.701-10.218 6.88-3.974 17.7 10.22-6.879 3.972zm75.112 56.371l-24.646-14.229 6.878-3.971 24.647 14.229-6.879 3.971z" fill="#fff"/><path d="M453.136 214.383l-10.813-6.243 6.878-3.972 10.815 6.244-6.88 3.971z" fill="#D9EFFB"/><path d="M326.175 462.049c-4.476 0-9.196-1.09-12.884-3.22-6.739-3.892-7.472-9.778-1.635-13.148l61.688-35.616c2.641-1.524 6.171-2.27 9.871-2.27 3.125 0 6.37.533 9.302 1.577l16.975-9.936c-14.992-11.171-17.148-26.227-6.472-38.517.105.102.211.202.319.302.286-.564.6-1.125.944-1.681.28-.289.566-.579.861-.864 2.549 3.6 6.353 6.973 11.415 9.896 10.216 5.897 23.605 8.847 36.993 8.847 13.388 0 26.777-2.95 36.992-8.847l.296-.172v-.001l.047-.027.005-.003.04-.024.015-.008.029-.018.021-.012c.007-.004.015-.008.022-.014l.03-.017.01-.007c4.905-2.91 8.588-6.252 11.052-9.809a23.504 23.504 0 011.642 2.744c1.8-1.611 4.118-2.876 5.079-5.045a32.233 32.233 0 00-2.572-3.072l.009-.056c22.083 14.27 21.275 36.181-2.453 49.881-12.272 7.084-28.344 10.621-44.417 10.623-15.174 0-30.348-3.151-42.346-9.444l-17.121 10.021c2.891 3.484 2.251 7.488-2.177 10.045l-61.69 35.616c-2.644 1.527-6.184 2.276-9.89 2.276" fill="#97AAB2"/><path d="M400.453 360.581l7.984-10.406 24.233-11.262 20.882-1.853 24.45 2.993 16.964 8.767 10.835 6.915 1.948-11.262-3.659-12.973s-9.265-6.131-9.836-6.7c-.57-.571-21.668-8.125-21.668-8.125l-21.098-1.426-16.964 2.138-17.25 5.132-11.404 7.982-8.553 10.835-.963 13.543 4.099 5.702m113.158-13.366v21.92l-5.862-9.504 5.862-12.416z" fill="#FFCD00"/><path d="M416.559 348.353c20.43-11.794 53.554-11.794 73.984.002 6.426 3.709 10.828 8.145 13.21 12.849 1.8-1.611 4.118-2.876 5.079-5.045-2.927-3.984-7.188-7.719-12.813-10.966-23.455-13.542-61.483-13.544-84.936-.001-5.135 2.963-9.143 6.331-12.03 9.923a17.97 17.97 0 004.286 6.106c2.381-4.71 6.785-9.153 13.22-12.868z" fill="#fff"/><path fill-rule="evenodd" clip-rule="evenodd" d="M416.559 368.572c10.216 5.897 23.605 8.847 36.993 8.847 13.388 0 26.777-2.95 36.992-8.847l.296-.172v-.001l.047-.027.005-.003.04-.024.006-.003.009-.005a.252.252 0 01.024-.015l.005-.003.021-.012.006-.004.016-.01a.092.092 0 00.008-.005l.022-.012.01-.007a42.405 42.405 0 005.201-3.61 46.165 46.165 0 00-2.852-1.799c-10.216-5.897-23.604-8.847-36.992-8.847-13.389 0-26.777 2.95-36.992 8.847a42.727 42.727 0 00-5.707 3.925 40.037 40.037 0 01-2.716-2.004 42.877 42.877 0 005.558 3.791zm-11.567-10.113c.049.072.1.145.152.217 0-.001.001-.003.003-.003l-.153-.216-.001-.001-.001.003z" fill="#EEF8FD"/><path fill-rule="evenodd" clip-rule="evenodd" d="M416.559 368.572c-5.062-2.923-8.866-6.296-11.415-9.896 0-.001.001-.003.003-.003 1.512 2.131 3.462 4.183 5.854 6.108a42.877 42.877 0 005.558 3.791zm74.417-.253l.021-.012-.021.012zm.043-.026l.03-.017-.015.009a.11.11 0 01-.015.008zm5.241-3.634a41.228 41.228 0 01-4.139 2.961c4.378-2.754 7.707-5.864 9.99-9.16-1.499 2.163-3.448 4.245-5.848 6.2l-.003-.001z" fill="#B2C6E2"/><path d="M413.717 366.785a39.788 39.788 0 01-2.716-2.004c-2.385-1.93-4.328-3.988-5.839-6.124l-.016.016-.153-.217c2.553-3.679 6.407-7.124 11.565-10.103 10.215-5.897 23.604-8.845 36.991-8.845 13.391 0 26.777 2.948 36.993 8.847 5.151 2.973 9 6.413 11.554 10.082-1.494 2.171-3.436 4.26-5.836 6.222a46.467 46.467 0 00-2.852-1.799c-10.216-5.897-23.604-8.847-36.992-8.847-13.39 0-26.778 2.95-36.992 8.847a42.662 42.662 0 00-5.707 3.925" fill="#E4F4FC"/><path fill-rule="evenodd" clip-rule="evenodd" d="M405.146 358.673c1.512 2.131 3.463 4.183 5.855 6.108-2.385-1.93-4.328-3.988-5.839-6.124l-.01.011-.006.005zm91.114 5.986l.002.001c2.4-1.955 4.35-4.037 5.848-6.2l-.004-.007a.086.086 0 01-.01-.016c-1.494 2.171-3.436 4.26-5.836 6.222z" fill="#fff"/><path d="M505.194 352.007c-2.498-2.431-5.554-4.724-9.176-6.814-11.726-6.772-27.1-10.157-42.47-10.157-15.371 0-30.739 3.385-42.466 10.156-3.617 2.088-6.676 4.376-9.177 6.803a16.55 16.55 0 01-.209-.831c1.445-6.365 6.392-12.517 14.862-17.407 10.216-5.897 23.604-8.846 36.992-8.846 13.388 0 26.778 2.949 36.992 8.846 8.471 4.891 13.418 11.043 14.864 17.408a17.87 17.87 0 01-.212.842z" fill="#FFEC8A"/><path d="M502.111 358.46a.15.15 0 01-.015-.023c-2.553-3.669-6.403-7.109-11.553-10.082-10.216-5.899-23.603-8.847-36.994-8.847-13.386 0-26.776 2.948-36.99 8.845-5.159 2.979-9.012 6.424-11.566 10.103l-.001.003c-1.451-2.095-2.48-4.264-3.087-6.464 2.502-2.427 5.56-4.715 9.178-6.803 11.726-6.771 27.094-10.156 42.465-10.156 15.371 0 30.744 3.385 42.471 10.157 3.621 2.09 6.677 4.383 9.176 6.814-.608 2.197-1.636 4.362-3.084 6.453" fill="#FFEB90"/><path d="M508.833 356.159c-.409.922-1.069 1.677-1.825 2.37l-.019-.229-5.417 3.231-6.652 6.177-9.219 4.088-12.734 4.561-11.31 2.662-15.586.665-10.074-1.045-19.957-5.227-13.007-11.499c.106-.23.191-.462.306-.692a17.97 17.97 0 01-4.286-6.106c-.352.438-.684.881-1.001 1.325l-4.56-9.497v22.768l.009-.019c-.006 8.88 5.846 17.763 17.583 24.539 23.455 13.541 61.481 13.541 84.936 0 17.829-10.294 22.091-25.447 12.813-38.072z" fill="#FFCD00"/><path d="M407.723 366.06l-4.69-4.147c.106-.23.191-.462.306-.692a17.97 17.97 0 01-4.286-6.106c-.352.438-.684.881-1.001 1.325l-4.56-9.497v22.768l.009-.019c-.006 7.983 4.74 15.961 14.222 22.417V366.06z" fill="#FFCD00"/><path fill-rule="evenodd" clip-rule="evenodd" d="M411.083 322.695c23.453-13.542 61.481-13.542 84.936.001 23.456 13.541 23.456 35.497.001 49.039-23.455 13.54-61.481 13.54-84.936-.002-23.456-13.541-23.456-35.497-.001-49.038zm5.476 45.877c20.432 11.795 53.554 11.795 73.985 0 20.429-11.795 20.429-30.92-.001-42.715-20.431-11.794-53.554-11.796-73.984 0-20.43 11.795-20.43 30.919 0 42.715z" fill="#FFCD00"/><path d="M371.799 396.584l33.288-19.372 4.425 7.171-33.44 19.476-4.273-7.275" fill="#D9EFFB"/><path d="M376.919 401.944c0 1.903-1.336 2.673-2.983 1.723-1.649-.952-2.985-3.265-2.985-5.17 0-1.902 1.336-2.673 2.985-1.722 1.647.952 2.983 3.265 2.983 5.169z" fill="#7844A6"/><path d="M376.919 401.944c0 1.903-1.336 2.673-2.983 1.723-1.649-.952-2.985-3.265-2.985-5.17 0-1.902 1.336-2.673 2.985-1.722 1.647.952 2.983 3.265 2.983 5.169z" fill="#7844A6"/><path d="M410.218 382.567c0 1.902-1.336 2.673-2.985 1.722-1.647-.952-2.983-3.265-2.983-5.168 0-1.904 1.336-2.674 2.983-1.722 1.649.95 2.985 3.264 2.985 5.168z" fill="#D9EFFB"/><path d="M380.455 381.111c-3.63-2.096-6.9-2.239-9.235-.791l-.005-.007-70.378 40.903 18.39 31.303 69.636-40.542a6.023 6.023 0 001.338-.78l.058-.033-.003-.004c1.893-1.489 3.039-4.164 3.039-7.811 0-8.188-5.748-18.145-12.84-22.238z" fill="#2D415E"/><path d="M305.931 429.884l78.769-45.476c-1.331-1.308-2.756-2.437-4.245-3.297-3.63-2.096-6.9-2.239-9.235-.791l-.005-.007-70.378 40.903 5.094 8.668" fill="#D9EFFB"/><path d="M322.872 444.28c0 8.189-5.748 11.506-12.839 7.413-7.09-4.095-12.84-14.05-12.84-22.238 0-8.188 5.75-11.507 12.84-7.414 7.091 4.096 12.839 14.051 12.839 22.239z" fill="#D9EFFB"/><path d="M312.445 440.456a8.362 8.362 0 11-16.725 0 8.363 8.363 0 1116.725 0z" fill="#2D415E"/><path d="M302.553 437.391a2.472 2.472 0 01-4.942 0 2.471 2.471 0 014.942 0zm8.427-15.899c-3.795-2.189-7.195-2.24-9.544-.576 2.277-1.063 5.287-.785 8.597 1.125 7.091 4.096 12.839 14.051 12.839 22.239 0 3.806-1.253 6.544-3.296 7.989 2.6-1.212 4.244-4.174 4.244-8.538 0-8.188-5.749-18.145-12.84-22.239zm179.563-95.635c-20.431-11.794-53.554-11.796-73.984 0-10.639 6.142-15.724 14.272-15.282 22.319.406-7.407 5.491-14.743 15.282-20.395 20.43-11.796 53.553-11.794 73.984 0 9.79 5.654 14.877 12.99 15.284 20.396.441-8.046-4.646-16.177-15.284-22.32z" fill="#fff"/><path d="M496.02 371.735c-23.455 13.54-61.481 13.54-84.936-.002-11.305-6.526-17.143-15.006-17.552-23.557-.44 9.192 5.4 18.467 17.552 25.481 23.455 13.542 61.481 13.542 84.936.002 12.151-7.016 17.989-16.29 17.551-25.482-.408 8.551-6.247 17.031-17.551 23.558z" fill="#fff"/><mask id="a" maskUnits="userSpaceOnUse" x="152" y="69" width="273" height="244"><path fill-rule="evenodd" clip-rule="evenodd" d="M152.044 249.683l113.199 62.682 156.934-90.316 2.438-135.796-104.47-16.982-163.509 114.021-4.592 66.391" fill="#fff"/></mask><g mask="url(#a)"><path d="M343.527 224.225l-8.004 26.251-20.487 14.099 15.54 6.336-4.657 26.054 17.608-22.668 17.608 2.336-4.658-20.676 15.54-24.28-20.486 9.558-8.004-17.01z" fill="#E59C13"/><path d="M381.577 237.165l-9.56-5.488-14.765 6.888s.051 9.928 0 10.164c-.052.236 6.085.531 6.499.531.413 0 17.826-12.095 17.826-12.095zm-55.658 59.8l9.56 5.488 4.657-26.054-4.613-4.891-5.211.885-4.393 24.572" fill="#D1078D"/><path d="M353.087 229.712l-8.004 26.252-20.487 14.099 15.54 6.336-4.657 26.054 17.608-22.668 17.608 2.336-4.658-20.676 15.54-24.28-20.486 9.558-8.004-17.011z" fill="#EE1696"/><path d="M337.347 300.048l4.386-24.529-14.173-5.776 18.735-12.894 7.073-23.208 7.04 14.962 19.741-9.208 1.428-2.23-20.486 9.558-8.004-17.011-8.004 26.253-20.487 14.098 15.54 6.336-4.657 26.054 1.868-2.405z" fill="#fff"/><path d="M353.087 229.712l-9.56-5.487-8.004 26.251 9.56 5.488 8.004-26.252z" fill="#D1078D"/><path d="M315.036 264.575l9.56 5.488 20.487-14.099-9.56-5.488-20.487 14.099z" fill="#D1078D"/><path d="M344.607 256.624l1.454-.841-10.325-6.008-.213.701-.68.468 9.764 5.68" fill="#fff"/><path d="M278.227 261.603l-8.003 26.252-20.487 14.097 15.54 6.336-4.658 26.055 17.608-22.668 17.608 2.336-4.658-20.676 15.542-24.28-20.488 9.557-8.004-17.009z" fill="#E59C13"/><path d="M316.277 274.543l-9.558-5.488-14.767 6.888s.052 9.928 0 10.164c-.051.236 6.087.532 6.5.532.413 0 17.825-12.096 17.825-12.096zm-55.658 59.8l9.56 5.488 4.658-26.055-4.613-4.891-5.212.886-4.393 24.572z" fill="#D1078D"/><path d="M287.787 267.089l-8.003 26.252-20.487 14.099 15.54 6.336-4.658 26.055 17.608-22.668 17.608 2.336-4.658-20.676 15.54-24.28-20.486 9.557-8.004-17.011z" fill="#EE1696"/><path d="M272.048 337.425l4.388-24.529-14.175-5.776 18.736-12.893 7.072-23.208 7.042 14.961 19.74-9.208 1.426-2.229-20.486 9.557-8.004-17.011-8.003 26.254-20.487 14.097 15.54 6.336-4.658 26.055 1.869-2.406z" fill="#fff"/><path d="M287.787 267.089l-9.56-5.486-8.003 26.252 9.56 5.486 8.003-26.252z" fill="#D1078D"/><path d="M249.737 301.952l9.56 5.488 20.487-14.098-9.56-5.487-20.487 14.097z" fill="#D1078D"/><path d="M279.307 294.001l1.457-.841-10.325-6.008-.215.703-.679.466 9.762 5.68z" fill="#fff"/><path d="M212.929 298.98l-8.004 26.252-20.486 14.097 15.54 6.336-4.658 26.055 17.608-22.668 17.608 2.336-4.658-20.676 15.541-24.28-20.487 9.557-8.004-17.009z" fill="#E59C13"/><path d="M250.98 311.92l-9.56-5.488-14.765 6.888s.05 9.929 0 10.164c-.052.236 6.085.532 6.498.532.412 0 17.827-12.096 17.827-12.096z" fill="#D1078D"/><path d="M222.489 304.468l-8.004 26.251-20.486 14.098 15.54 6.336-4.658 26.055 17.608-22.668 17.608 2.336-4.658-20.676 15.541-24.28-20.487 9.557-8.004-17.009z" fill="#EE1696"/><path d="M206.749 374.803l4.387-24.53-14.175-5.776 18.736-12.893 7.074-23.208 7.04 14.963 19.741-9.21 1.427-2.229-20.486 9.557-8.004-17.009-8.004 26.252-20.486 14.097 15.54 6.336-4.658 26.055 1.868-2.405z" fill="#fff"/><path d="M222.489 304.468l-9.56-5.488-8.004 26.252 9.56 5.487 8.004-26.251z" fill="#D1078D"/><path d="M298.093 162.241l-8.002 26.251-20.487 14.097 15.54 6.336-4.659 26.055 17.608-22.667 17.608 2.335-4.657-20.675 15.54-24.28-20.487 9.558-8.004-17.01z" fill="#E59C13"/><path d="M336.144 175.181l-9.56-5.488-14.765 6.888s.052 9.928 0 10.164c-.051.235 6.085.531 6.5.531.412 0 17.825-12.095 17.825-12.095zm-55.659 59.799l9.56 5.489 4.659-26.054-4.613-4.891-5.212.885-4.394 24.571z" fill="#D1078D"/><path d="M307.653 167.728l-8.002 26.252-20.487 14.099 15.54 6.336-4.659 26.054 17.608-22.668 17.608 2.336-4.657-20.676 15.54-24.28-20.487 9.558-8.004-17.011z" fill="#EE1696"/><path d="M291.913 238.064l4.388-24.531-14.174-5.776 18.736-12.893 7.073-23.208 7.04 14.963 19.741-9.208 1.427-2.23-20.487 9.558-8.004-17.011-8.002 26.252-20.487 14.099 15.54 6.336-4.659 26.054 1.868-2.405z" fill="#fff"/><path d="M307.653 167.728l-9.56-5.487-8.002 26.251 9.56 5.488 8.002-26.252z" fill="#D1078D"/><path d="M269.604 202.589l9.56 5.49 20.487-14.099-9.56-5.488-20.487 14.097z" fill="#D1078D"/><path d="M299.172 194.64l1.457-.841-10.325-6.008-.213.701-.68.468 9.761 5.68" fill="#fff"/><path d="M232.795 199.619l-8.004 26.25-20.487 14.099 15.54 6.336-4.657 26.055 17.608-22.668 17.608 2.336-4.659-20.676 15.541-24.28-20.486 9.557-8.004-17.009z" fill="#E59C13"/><path d="M270.845 212.559l-9.56-5.488-14.765 6.888s.051 9.928 0 10.164c-.052.236 6.087.53 6.499.53.413 0 17.826-12.094 17.826-12.094zm-55.658 59.8l9.56 5.488 4.657-26.055-4.613-4.891-5.211.886-4.393 24.572z" fill="#D1078D"/><path d="M242.355 205.105l-8.004 26.252-20.487 14.099 15.54 6.336-4.657 26.055 17.608-22.668 17.608 2.336-4.659-20.676 15.541-24.28-20.486 9.557-8.004-17.011z" fill="#EE1696"/><path d="M226.615 275.441l4.386-24.529-14.173-5.776 18.735-12.893 7.073-23.21 7.04 14.963 19.741-9.208 1.428-2.229-20.486 9.557-8.004-17.011-8.004 26.254-20.487 14.097 15.54 6.336-4.657 26.055 1.868-2.406z" fill="#fff"/><path d="M242.355 205.105l-9.56-5.486-8.004 26.25 9.56 5.488 8.004-26.252z" fill="#D1078D"/><path d="M204.304 239.968l9.56 5.488 20.487-14.099-9.56-5.488-20.487 14.099z" fill="#D1078D"/><path d="M233.875 232.017l1.456-.841-10.327-6.008-.213.701-.68.468 9.764 5.68" fill="#fff"/><path d="M255.757 250.432c-5.64 3.256-5.64 8.553 0 11.811l95.86 55.344c1.55.894 4.066.894 5.615 0 1.551-.895 1.551-2.347 0-3.242L261.372 259c-2.543-1.469-2.543-3.857 0-5.327l9.289-5.362c-1.032-1.554-1.969-3.168-2.885-4.818l-12.019 6.939z" fill="#D9EFFB"/><path d="M391.524 294.547l-95.859-55.346c-5.641-3.256-14.817-3.256-20.456 0l-7.433 4.292c.916 1.65 1.853 3.264 2.885 4.818l10.164-5.868c2.543-1.468 6.68-1.468 9.224 0l95.86 55.345c1.551.896 4.066.896 5.615 0 1.551-.895 1.551-2.347 0-3.241z" fill="#5F92D3"/><path d="M392.677 296.283l.01-134.796-100.456-56-14.048-.927-13.586 8.801-8.336 7.255 97.875 155.209 31.957 18.835 6.584 1.623z" fill="#5F92D3"/><path d="M355.525 313.307l30.028-17.335V165.697l-30.953 14.39.925 133.22" fill="#81B3E4"/><path d="M251.531 121.659v134.576l105.457 60.32 1.407-.563V181.219l-106.864-59.56z" fill="#D9EFFB"/><path d="M310.843 122.772l-20.958-12.041c-2.56-1.186-6.302-1.11-8.674.26l-19.452 11.23c-1.508.87-2.114 2.063-1.835 3.196l52.96 31.647 42.54 26.112 30.129-17.479-74.71-42.925z" fill="#fff"/><path d="M354.6 179.104V318.25c.956-.026 1.901-.24 2.632-.663.764-.44 1.147-1.015 1.157-1.592l.006-.003V181.219l-3.795-2.115z" fill="#5F92D3"/><path d="M392.687 163.168v-1.681h-.535l-.164 1.142.699.539zm-34.295 19.799v-1.723l-.517.731.517.992z" fill="#fff"/><path d="M351.617 182.815l-95.86-55.344c-5.64-3.257-5.64-8.555 0-11.811l19.452-11.23c5.639-3.256 14.815-3.256 20.456 0l95.859 55.345c1.551.895 1.551 2.347 0 3.243-1.549.894-4.064.894-5.615 0l-95.86-55.346c-2.544-1.469-6.681-1.469-9.224 0l-19.453 11.231c-2.543 1.468-2.543 3.856 0 5.325l95.86 55.346c1.551.894 1.551 2.346 0 3.241-1.549.895-4.065.895-5.615 0z" fill="#D9EFFB"/><path d="M326.635 246.617l-49.812-28.76V167.92l49.812 28.76v49.937zm64.889-83.6c-1.549.895-4.064.895-5.615 0l-95.86-55.345c-2.544-1.469-6.681-1.469-9.224 0l-19.453 11.231c-1.665.961-2.232 2.316-1.717 3.55.272-.65.84-1.268 1.717-1.776l19.453-11.23c2.543-1.47 6.68-1.47 9.224 0l95.86 55.345c1.551.895 4.066.895 5.615 0 1.176-.679 1.456-1.676.851-2.509a2.726 2.726 0 01-.851.734zm-34.292 19.798c-1.549.894-4.065.894-5.615 0l-95.86-55.344c-2.428-1.403-3.805-3.184-4.142-5.018-.446 2.423.932 4.939 4.142 6.792l95.86 55.344c1.55.896 4.066.896 5.615 0 1.176-.677 1.456-1.673.849-2.506-.192.265-.472.514-.849.732z" fill="#fff"/><path d="M211.685 305.403c-5.638 3.256-5.638 8.554 0 11.809l95.862 55.345c1.55.896 4.064.896 5.616 0 1.549-.894 1.549-2.346-.002-3.241l-95.86-55.344c-2.544-1.469-2.544-3.859 0-5.328l9.29-5.361c-1.034-1.554-1.971-3.17-2.886-4.819l-12.02 6.939z" fill="#EE1696"/><path d="M347.453 349.517l-95.86-55.344c-5.64-3.256-14.816-3.256-20.456-.001l-7.432 4.292c.915 1.649 1.852 3.265 2.886 4.819l10.162-5.868c2.543-1.47 6.682-1.47 9.226 0l95.858 55.344c1.552.896 4.066.896 5.616 0 1.55-.895 1.55-2.346 0-3.242z" fill="#D1078D"/><path d="M348.607 351.253l.009-134.794-100.456-56-14.049-.928-13.586 8.8-8.336 7.256 97.876 155.21 31.956 18.835 6.586 1.621z" fill="#FFCD00"/><path d="M341.481 350.943V220.669l-30.953 14.388.927 133.22 30.026-17.334z" fill="#FFED83"/><path d="M207.459 176.631v134.574l105.457 60.322 1.408-.563V236.191l-106.865-59.56" fill="#FFCD00"/><path d="M266.772 177.744l-20.959-12.043c-2.558-1.184-6.302-1.109-8.674.26l-19.452 11.232c-1.507.87-2.114 2.062-1.835 3.195l52.96 31.647 42.54 26.112 30.129-17.478-74.709-42.925z" fill="#fff"/><path d="M310.528 373.22c.957-.024 1.903-.241 2.635-.663.761-.44 1.144-1.014 1.157-1.59l.004-.003V236.191l-3.796-2.116V373.22z" fill="#FFCD00"/><path d="M348.616 218.14v-1.681h-.536l-.163 1.141.699.54zm-34.295 19.796v-1.721l-.517.73.517.991z" fill="#fff"/><path d="M307.547 237.787l-95.862-55.346c-5.638-3.256-5.638-8.554 0-11.809l19.452-11.231c5.64-3.257 14.816-3.257 20.456 0l95.86 55.346c1.55.894 1.55 2.345 0 3.24-1.55.896-4.064.896-5.616 0l-95.858-55.344c-2.544-1.468-6.683-1.468-9.226 0l-19.452 11.23c-2.544 1.468-2.544 3.858 0 5.326l95.86 55.345c1.551.895 1.551 2.347.002 3.243-1.552.894-4.066.894-5.616 0z" fill="#E6B900"/><path d="M282.564 301.588l-49.813-28.76v-49.936l49.813 28.759v49.937zm64.889-83.601c-1.55.896-4.064.896-5.616 0l-95.858-55.344c-2.544-1.468-6.683-1.468-9.226 0l-19.452 11.231c-1.665.961-2.233 2.317-1.717 3.549.271-.649.839-1.268 1.717-1.775l19.452-11.229c2.543-1.469 6.682-1.469 9.226 0l95.858 55.344c1.552.895 4.066.895 5.616 0 1.175-.677 1.455-1.676.85-2.509a2.671 2.671 0 01-.85.733zm-34.29 19.8c-1.552.894-4.066.894-5.616-.002l-95.862-55.344c-2.428-1.402-3.804-3.184-4.141-5.018-.445 2.425.932 4.94 4.141 6.793l95.862 55.345c1.55.895 4.064.895 5.616 0 1.173-.678 1.453-1.676.848-2.509a2.726 2.726 0 01-.848.735z" fill="#fff"/><path d="M303.321 392.751l.01-134.796-100.456-56-14.048-.927-13.587 8.799-8.336 7.257 97.875 155.209 31.957 18.835 6.585 1.623" fill="#5F92D3"/><path d="M266.168 409.774l30.028-17.337V262.165l-30.953 14.388.925 133.221z" fill="#81B3E4"/><path d="M162.173 218.127v134.574l105.458 60.321 1.408-.562V277.687l-106.866-59.56z" fill="#D9EFFB"/><path d="M221.487 219.24l-20.959-12.043c-2.56-1.184-6.303-1.109-8.675.26l-19.452 11.231c-1.508.871-2.114 2.064-1.834 3.196l52.96 31.647 42.54 26.112 30.129-17.478-74.709-42.925z" fill="#fff"/><path d="M265.243 275.571v139.144c.957-.023 1.902-.239 2.633-.662.761-.439 1.145-1.014 1.157-1.59l.006-.003V277.687l-3.796-2.116z" fill="#5F92D3"/><path d="M303.331 259.636v-1.681h-.536l-.164 1.141.7.54zm-34.295 19.796v-1.721l-.519.73.519.991z" fill="#fff"/><path d="M262.261 279.281L166.4 223.937c-5.639-3.256-5.639-8.554 0-11.809l19.452-11.231c5.64-3.256 14.815-3.256 20.456 0l95.859 55.346c1.552.894 1.552 2.345 0 3.24-1.55.896-4.063.896-5.614 0l-95.861-55.344c-2.543-1.468-6.681-1.468-9.224 0l-19.453 11.229c-2.543 1.469-2.543 3.859 0 5.328l95.861 55.344c1.551.895 1.551 2.347 0 3.243-1.549.894-4.065.894-5.615-.002z" fill="#D9EFFB"/><path d="M237.277 343.085l-49.812-28.761v-49.936l49.812 28.759v49.938zm64.89-83.602c-1.55.896-4.063.896-5.614 0l-95.861-55.344c-2.543-1.468-6.681-1.468-9.224 0l-19.453 11.229c-1.666.963-2.232 2.319-1.718 3.552.272-.651.84-1.269 1.718-1.776l19.453-11.229c2.543-1.47 6.681-1.47 9.224 0l95.861 55.344c1.551.894 4.064.894 5.614 0 1.176-.678 1.456-1.675.85-2.508a2.672 2.672 0 01-.85.732zm-34.291 19.8c-1.549.895-4.065.895-5.615-.001L166.4 223.936c-2.428-1.401-3.804-3.182-4.141-5.016-.446 2.424.93 4.939 4.141 6.792l95.861 55.346c1.55.894 4.066.894 5.615 0 1.175-.679 1.456-1.676.848-2.51a2.668 2.668 0 01-.848.735z" fill="#fff"/></g><mask id="b" maskUnits="userSpaceOnUse" x="467" y="124" width="47" height="27"><path fill-rule="evenodd" clip-rule="evenodd" d="M490.217 150.901l-22.976-13.264 22.975-13.265 22.975 13.265-22.974 13.264z" fill="#fff"/></mask><g mask="url(#b)"><path d="M467.241 150.901h45.949v-26.529h-45.949v26.529z" fill="#97AAB2"/></g><path d="M513.191 120.796l-22.974 13.264v-26.528l22.974-13.264v26.528z" fill="#E6B900"/><path d="M490.217 107.532l-22.976-13.264 22.975-13.264 22.973 13.264-22.972 13.264z" fill="#FFCD00"/><path d="M490.217 134.06l-22.976-13.264V94.268l22.976 13.264v26.528z" fill="#FFCD00"/><path d="M481.943 119.729l-6.427-3.709v-7.421l6.427 3.71v7.42z" fill="#fff"/><path d="M.748 446.315l23.919-13.808 23.917 13.809-23.917 13.809-23.92-13.81z" fill="#97AAB2"/><path d="M48.584 428.784l-23.917 13.808v-27.616l23.917-13.809v27.617z" fill="#2D415E"/><path d="M24.667 414.976L.747 401.167l23.92-13.81 23.917 13.81-23.917 13.809z" fill="#2D415E"/><path d="M24.667 442.592L.747 428.784v-27.617l23.92 13.809v27.616z" fill="#2D415E"/><path d="M16.052 427.672l-6.69-3.863v-7.723l6.69 3.862v7.724" fill="#fff"/><path d="M187.244 1.345c-1.184-.682-2.252-.708-3.089-.248l.004-.038-5.798 3.35s2.567.935 4.075 1.487v43.52c0 3.542 2.152 7.655 4.808 9.188l57.12 32.979v5.106l5.857-3.373-.032-.01c.988-.605 1.624-1.928 1.624-3.832V45.035c0-3.541-2.152-7.654-4.808-9.188L187.244 1.345z" fill="#E5B800"/><path d="M241.103 96.51L181.34 62.008c-2.655-1.534-4.808-5.647-4.808-9.188V8.383c0-3.54 2.153-5.168 4.808-3.635l59.763 34.504c2.654 1.532 4.808 5.645 4.808 9.187v44.436c0 3.541-2.154 5.168-4.808 3.636z" fill="#FFCD00"/><path d="M242.568 38.195l-59.76-34.503c-1.683-.972-3.157-.668-4.017.577.741-.192 1.61-.064 2.549.479l59.763 34.504c2.654 1.532 4.808 5.645 4.808 9.187v44.436c0 1.3-.295 2.333-.794 3.056 1.355-.354 2.26-1.824 2.26-4.114V47.381c0-3.54-2.153-7.653-4.809-9.186zm-41.129 8.5c0 2.569-1.807 3.612-4.034 2.326-2.226-1.285-4.032-4.412-4.032-6.982 0-2.572 1.806-3.615 4.032-2.33 2.227 1.286 4.034 4.414 4.034 6.986z" fill="#fff"/><path d="M213.653 53.747c0 2.57-1.805 3.613-4.033 2.328-2.227-1.287-4.031-4.414-4.031-6.986 0-2.57 1.804-3.613 4.031-2.328 2.228 1.287 4.033 4.414 4.033 6.986zm12.215 7.052c0 2.57-1.805 3.614-4.032 2.328-2.227-1.286-4.032-4.414-4.032-6.984 0-2.57 1.805-3.615 4.032-2.328 2.227 1.285 4.032 4.413 4.032 6.984z" fill="#fff"/></svg>