<svg width="125" height="56" fill="none" xmlns="http://www.w3.org/2000/svg"><path d="M97.651.022C95.97.022 66.717 0 65.294 0c-4.008 0-12.377 8.598-20.135 14.836-2.854 2.296-4.812 2.999-9.26 2.999-4.781 0-6.104-3.05-6.104-3.05l-1.328 6.475 38.013.018s.452-2.193.67-3.261c.225-1.112 1.159-1.337 2.052-1.337.423 0 .81.04.81.04L67.303 29.5s6.325-2.35 7.387-7.619c.4-1.985.659-3.05 1.097-5.205.399-1.962 1.387-2.016 3.407-2.016 1.521 0 1.998 1.005 1.821 1.898-.215 1.085-.74 1.72-1.906 1.72-.863 0-2.163.03-2.163.03l-.503 2.897c.746 0 15.22.03 20.386.03.834 0 1.38-.536 1.536-1.326H82.184c.02-.17.395-1.87.462-2.108.243-.877.903-1.037 1.597-1.037.557 0 3.577-.007 5.709-.007h6.92c1.962 0 2.236-.185 2.5-1.496.459-2.267 1.727-8.297 2.188-10.732.584-3.073-1.173-4.507-3.909-4.507z" fill="#161F22"/><path d="M79.305 16.404c-.062.526-.315.696-.882.696-.544 0-.82-.145-.761-.696.056-.514.387-.696.93-.696.567 0 .77.207.713.696zm16.23 17.341h-5.376l-.387 1.844h5.377l.386-1.844z" fill="#161F22"/><path d="M124.478 39.28l.522-2.453h-5.376l-.772 3.69a1.574 1.574 0 01-.534.851c-.279.243-.577.363-.895.363h-1.202l1.655-7.986H112.5l-2.794 13.521h-2.671a5.459 5.459 0 001.247-2.452h-5.376l-.249 1.214a1.587 1.587 0 01-.534.876 1.367 1.367 0 01-.918.362h-1.18l1.52-7.38a1.54 1.54 0 01.533-.864c.28-.233.586-.35.919-.35.635 0 .954.32.954.957 0 .078-.01.163-.024.256l-.25 1.239h5.377c.06-.296.091-.591.091-.887 0-.982-.314-1.794-.942-2.44-.628-.647-1.44-.97-2.438-.97h-4.787c-1.15 0-2.22.42-3.21 1.262-.99.84-1.606 1.852-1.849 3.035l-1.273 6.142h-1.901L94.9 36.827h-5.377l-2.16 10.439h-3.69c.65-.732 1.066-1.55 1.247-2.452l1.406-6.772c.061-.297.092-.593.092-.889 0-.98-.314-1.793-.942-2.44-.628-.645-1.44-.968-2.438-.968h-9.551L70.312 49.11h44.389l1.134-5.535h1.203c.634 0 .952.328.952.982 0 .078-.007.163-.022.257l-.885 4.296h5.441l.362-1.844.209-1.238c.061-.296.09-.584.09-.864 0-1.012-.332-1.845-.997-2.499 1.225-.856 1.988-1.985 2.29-3.386zM81.2 36.826l-1.905 9.201a1.608 1.608 0 01-.521.876 1.328 1.328 0 01-.907.362h-1.793l2.405-11.677h1.792c.636 0 .953.327.953.981 0 .078-.008.164-.024.257zM60.696 47.267h-1.167c-.635 0-.953-.328-.953-.981 0-.078.008-.164.023-.257l1.906-9.202h-5.377l-2.16 10.44h-2.475c.65-.732 1.073-1.55 1.27-2.453l.772-3.69c.06-.31.09-.614.09-.91 0-.966-.317-1.77-.952-2.417-.635-.646-1.444-.97-2.427-.97H45.66l.635-3.082H40.92l-2.795 13.522h-2.66c.65-.732 1.066-1.55 1.247-2.453l.771-3.69c.06-.31.09-.614.09-.91 0-.966-.317-1.77-.952-2.417-.635-.646-1.444-.97-2.427-.97h-4.787c-1.15 0-2.22.42-3.21 1.262-.99.84-1.607 1.852-1.849 3.035l-1.273 6.142h-2.729l1.883-9.224c.06-.296.09-.593.09-.888 0-.981-.313-1.794-.941-2.44-.628-.646-1.44-.969-2.438-.969H7.35c-1.15 0-2.22.42-3.21 1.26-.99.841-1.607 1.853-1.849 3.037L0 49.111h5.066l2.54-12.283c.076-.343.315-.779.795-1.007.897-.426 1.257-.231 1.59-.231L7.176 49.11h5.584l2.79-13.52c.287 0 .888-.124 1.371.124.546.281.528 1.035.513 1.114l-2.54 12.283H60.3L58.862 56s5.926-2.257 6.86-7.092l2.541-12.08h-5.376l-2.191 10.438zm-28.34-7.381l-1.27 6.143a1.59 1.59 0 01-.533.875c-.28.243-.587.362-.92.362h-1.178l1.52-7.38c.075-.342.253-.63.532-.863.28-.234.587-.35.92-.35.635 0 .952.319.952.956 0 .079-.007.164-.023.257zm15.052 0l-1.27 6.143a1.588 1.588 0 01-.534.875 1.37 1.37 0 01-.918.362h-1.18l1.77-8.593h1.202c.635 0 .953.319.953.956 0 .094-.008.18-.023.257z" fill="#161F22"/></svg>