<svg width="811" height="627" fill="none" xmlns="http://www.w3.org/2000/svg"><g filter="url(#filter0_d)"><rect x="50" y="43" width="711" height="517" rx="10" fill="#fff"/></g><rect x="64" y="53" width="210" height="46" rx="3" fill="#EBEBEB"/><rect x="294" y="53" width="449" height="46" rx="3" fill="#EBEBEB"/><rect x="64" y="119" width="210" height="15" rx="3" fill="#EBEBEB"/><rect x="294" y="119" width="449" height="425" rx="3" fill="#EBEBEB"/><rect x="64" y="201" width="210" height="15" rx="3" fill="#EBEBEB"/><rect x="304" y="129" width="430" height="31" rx="3" fill="#fff"/><rect x="304" y="211" width="430" height="31" rx="3" fill="#fff"/><rect x="304" y="293" width="430" height="31" rx="3" fill="#fff"/><rect x="304" y="375" width="430" height="31" rx="3" fill="#fff"/><rect x="304" y="457" width="430" height="31" rx="3" fill="#fff"/><rect x="304" y="170" width="430" height="31" rx="3" fill="#fff"/><rect x="341" y="252" width="430" height="31" rx="3" fill="#776AEB"/><rect x="304" y="334" width="430" height="31" rx="3" fill="#fff"/><rect x="304" y="416" width="430" height="31" rx="3" fill="#fff"/><rect x="304" y="498" width="430" height="31" rx="3" fill="#fff"/><g filter="url(#filter1_d)"><rect x="304" y="539" width="430" height="31" rx="3" fill="#fff"/></g><rect x="64" y="365" width="210" height="15" rx="3" fill="#EBEBEB"/><rect x="64" y="283" width="210" height="15" rx="3" fill="#EBEBEB"/><rect x="64" y="447" width="210" height="15" rx="3" fill="#776AEB"/><rect x="64" y="529" width="210" height="15" rx="3" fill="#EBEBEB"/><rect x="64" y="160" width="210" height="15" rx="3" fill="#EBEBEB"/><rect x="24" y="242" width="210" height="15" rx="3" fill="#776AEB"/><rect x="64" y="406" width="210" height="15" rx="3" fill="#EBEBEB"/><rect x="64" y="324" width="210" height="15" rx="3" fill="#EBEBEB"/><rect x="64" y="488" width="210" height="15" rx="3" fill="#EBEBEB"/><circle cx="716.5" cy="75.5" r="17.5" fill="#C4C4C4"/><rect x="639" y="66" width="50" height="10" rx="3" fill="#C4C4C4"/><rect x="304" y="69" width="15" height="15" rx="3" fill="#C4C4C4"/><rect x="344" y="69" width="15" height="15" rx="3" fill="#C4C4C4"/><rect x="324" y="69" width="15" height="15" rx="3" fill="#C4C4C4"/><rect x="364" y="69" width="15" height="15" rx="3" fill="#C4C4C4"/><rect x="667" y="79" width="22" height="7" rx="2" fill="#C4C4C4"/><defs><filter id="filter0_d" x="0" y="0" width="811" height="617" filterUnits="userSpaceOnUse" color-interpolation-filters="sRGB"><feFlood flood-opacity="0" result="BackgroundImageFix"/><feColorMatrix in="SourceAlpha" values="0 0 0 0 0 0 0 0 0 0 0 0 0 0 0 0 0 0 127 0"/><feOffset dy="7"/><feGaussianBlur stdDeviation="25"/><feColorMatrix values="0 0 0 0 0 0 0 0 0 0 0 0 0 0 0 0 0 0 0.12 0"/><feBlend in2="BackgroundImageFix" result="effect1_dropShadow"/><feBlend in="SourceGraphic" in2="effect1_dropShadow" result="shape"/></filter><filter id="filter1_d" x="254" y="496" width="530" height="131" filterUnits="userSpaceOnUse" color-interpolation-filters="sRGB"><feFlood flood-opacity="0" result="BackgroundImageFix"/><feColorMatrix in="SourceAlpha" values="0 0 0 0 0 0 0 0 0 0 0 0 0 0 0 0 0 0 127 0"/><feOffset dy="7"/><feGaussianBlur stdDeviation="25"/><feColorMatrix values="0 0 0 0 0 0 0 0 0 0 0 0 0 0 0 0 0 0 0.12 0"/><feBlend in2="BackgroundImageFix" result="effect1_dropShadow"/><feBlend in="SourceGraphic" in2="effect1_dropShadow" result="shape"/></filter></defs></svg>