<svg width="834" height="617" fill="none" xmlns="http://www.w3.org/2000/svg"><g filter="url(#filter0_d)"><rect x="50" y="43" width="711" height="517" rx="10" fill="#fff"/></g><rect x="64" y="53" width="210" height="46" rx="3" fill="#EBEBEB"/><rect x="294" y="53" width="449" height="46" rx="3" fill="#EBEBEB"/><rect x="64" y="129" width="210" height="15" rx="3" fill="#EBEBEB"/><rect x="64" y="209" width="210" height="15" rx="3" fill="#EBEBEB"/><rect x="64" y="369" width="210" height="15" rx="3" fill="#EBEBEB"/><rect x="64" y="289" width="210" height="15" rx="3" fill="#EBEBEB"/><rect x="64" y="449" width="210" height="15" rx="3" fill="#EBEBEB"/><rect x="64" y="529" width="210" height="15" rx="3" fill="#EBEBEB"/><rect x="64" y="169" width="210" height="15" rx="3" fill="#EBEBEB"/><rect x="64" y="249" width="210" height="15" rx="3" fill="#EBEBEB"/><rect x="64" y="409" width="210" height="15" rx="3" fill="#EBEBEB"/><rect x="64" y="329" width="210" height="15" rx="3" fill="#EBEBEB"/><rect x="64" y="489" width="210" height="15" rx="3" fill="#EBEBEB"/><rect x="294" y="130" width="150" height="79" rx="5" fill="#776AEB"/><rect x="294" y="476" width="211" height="111" rx="5" fill="#EBEBEB"/><rect x="294" y="229" width="449" height="227" rx="5" fill="#EBEBEB"/><rect x="464" y="130" width="150" height="79" rx="5" fill="#776AEB"/><g filter="url(#filter1_d)"><path d="M562 435.012c0-5.523 4.477-10.012 10-10.012h191c5.523 0 10 4.477 10 10v91c0 5.523-4.477 10-10 10H572c-5.523 0-10-4.489-10-10.012v-90.976z" fill="#fff"/></g><g filter="url(#filter2_d)"><rect x="634" y="130" width="150" height="79" rx="10" fill="#fff"/></g><circle cx="716.5" cy="75.5" r="17.5" fill="#C4C4C4"/><rect x="639" y="66" width="50" height="10" rx="3" fill="#C4C4C4"/><rect x="304" y="69" width="15" height="15" rx="3" fill="#C4C4C4"/><rect x="344" y="69" width="15" height="15" rx="3" fill="#C4C4C4"/><rect x="324" y="69" width="15" height="15" rx="3" fill="#C4C4C4"/><rect x="364" y="69" width="15" height="15" rx="3" fill="#C4C4C4"/><rect x="667" y="79" width="22" height="7" rx="2" fill="#C4C4C4"/><defs><filter id="filter0_d" x="0" y="0" width="811" height="617" filterUnits="userSpaceOnUse" color-interpolation-filters="sRGB"><feFlood flood-opacity="0" result="BackgroundImageFix"/><feColorMatrix in="SourceAlpha" values="0 0 0 0 0 0 0 0 0 0 0 0 0 0 0 0 0 0 127 0"/><feOffset dy="7"/><feGaussianBlur stdDeviation="25"/><feColorMatrix values="0 0 0 0 0 0 0 0 0 0 0 0 0 0 0 0 0 0 0.12 0"/><feBlend in2="BackgroundImageFix" result="effect1_dropShadow"/><feBlend in="SourceGraphic" in2="effect1_dropShadow" result="shape"/></filter><filter id="filter1_d" x="512" y="382" width="311" height="211" filterUnits="userSpaceOnUse" color-interpolation-filters="sRGB"><feFlood flood-opacity="0" result="BackgroundImageFix"/><feColorMatrix in="SourceAlpha" values="0 0 0 0 0 0 0 0 0 0 0 0 0 0 0 0 0 0 127 0"/><feOffset dy="7"/><feGaussianBlur stdDeviation="25"/><feColorMatrix values="0 0 0 0 0 0 0 0 0 0 0 0 0 0 0 0 0 0 0.12 0"/><feBlend in2="BackgroundImageFix" result="effect1_dropShadow"/><feBlend in="SourceGraphic" in2="effect1_dropShadow" result="shape"/></filter><filter id="filter2_d" x="584" y="87" width="250" height="179" filterUnits="userSpaceOnUse" color-interpolation-filters="sRGB"><feFlood flood-opacity="0" result="BackgroundImageFix"/><feColorMatrix in="SourceAlpha" values="0 0 0 0 0 0 0 0 0 0 0 0 0 0 0 0 0 0 127 0"/><feOffset dy="7"/><feGaussianBlur stdDeviation="25"/><feColorMatrix values="0 0 0 0 0 0 0 0 0 0 0 0 0 0 0 0 0 0 0.12 0"/><feBlend in2="BackgroundImageFix" result="effect1_dropShadow"/><feBlend in="SourceGraphic" in2="effect1_dropShadow" result="shape"/></filter></defs></svg>