<svg width="880" height="716" fill="none" xmlns="http://www.w3.org/2000/svg"><g opacity=".1" fill="#C4C4C4"><circle cx="135.06" cy="22.523" r="2.5" transform="rotate(15 135.06 22.523)"/><circle cx="137.648" cy="12.863" r="2.5" transform="rotate(15 137.648 12.863)"/><circle cx="132.471" cy="32.182" r="2.5" transform="rotate(15 132.471 32.182)"/><circle cx="149.895" cy="5.792" r="2.5" transform="rotate(15 149.895 5.792)"/><circle cx="144.719" cy="25.111" r="2.5" transform="rotate(15 144.719 25.11)"/><circle cx="147.307" cy="15.451" r="2.5" transform="rotate(15 147.307 15.451)"/><circle cx="142.131" cy="34.77" r="2.5" transform="rotate(15 142.131 34.77)"/><circle cx="159.555" cy="8.38" r="2.5" transform="rotate(15 159.555 8.38)"/><circle cx="154.378" cy="27.699" r="2.5" transform="rotate(15 154.378 27.699)"/><circle cx="156.966" cy="18.04" r="2.5" transform="rotate(15 156.966 18.04)"/><circle cx="151.79" cy="37.358" r="2.5" transform="rotate(15 151.79 37.358)"/><circle cx="169.214" cy="10.969" r="2.5" transform="rotate(15 169.214 10.969)"/><circle cx="164.038" cy="30.287" r="2.5" transform="rotate(15 164.038 30.287)"/><circle cx="166.626" cy="20.628" r="2.5" transform="rotate(15 166.626 20.628)"/><circle cx="161.449" cy="39.946" r="2.5" transform="rotate(15 161.449 39.946)"/><circle cx="178.873" cy="13.557" r="2.5" transform="rotate(15 178.873 13.557)"/><circle cx="173.697" cy="32.875" r="2.5" transform="rotate(15 173.697 32.875)"/><circle cx="176.285" cy="23.216" r="2.5" transform="rotate(15 176.285 23.216)"/><circle cx="171.109" cy="42.535" r="2.5" transform="rotate(15 171.109 42.535)"/><circle cx="129.883" cy="41.841" r="2.5" transform="rotate(15 129.883 41.84)"/><circle cx="124.707" cy="61.16" r="2.5" transform="rotate(15 124.707 61.16)"/><circle cx="127.295" cy="51.5" r="2.5" transform="rotate(15 127.295 51.5)"/><circle cx="122.119" cy="70.819" r="2.5" transform="rotate(15 122.119 70.819)"/><circle cx="139.542" cy="44.429" r="2.5" transform="rotate(15 139.542 44.43)"/><circle cx="134.366" cy="63.748" r="2.5" transform="rotate(15 134.366 63.748)"/><circle cx="136.954" cy="54.089" r="2.5" transform="rotate(15 136.954 54.089)"/><circle cx="131.778" cy="73.407" r="2.5" transform="rotate(15 131.778 73.407)"/><circle cx="149.202" cy="47.017" r="2.5" transform="rotate(15 149.202 47.017)"/><circle cx="144.025" cy="66.336" r="2.5" transform="rotate(15 144.025 66.336)"/><circle cx="146.613" cy="56.677" r="2.5" transform="rotate(15 146.613 56.677)"/><circle cx="141.437" cy="75.995" r="2.5" transform="rotate(15 141.437 75.995)"/><circle cx="158.861" cy="49.606" r="2.5" transform="rotate(15 158.861 49.606)"/><circle cx="153.685" cy="68.924" r="2.5" transform="rotate(15 153.685 68.924)"/><circle cx="156.273" cy="59.265" r="2.5" transform="rotate(15 156.273 59.265)"/><circle cx="151.096" cy="78.583" r="2.5" transform="rotate(15 151.096 78.583)"/><circle cx="168.52" cy="52.194" r="2.5" transform="rotate(15 168.52 52.194)"/><circle cx="163.344" cy="71.512" r="2.5" transform="rotate(15 163.344 71.512)"/><circle cx="165.932" cy="61.853" r="2.5" transform="rotate(15 165.932 61.853)"/><circle cx="160.756" cy="81.171" r="2.5" transform="rotate(15 160.756 81.171)"/><circle cx="98.825" cy="157.752" r="2.5" transform="rotate(15 98.825 157.752)"/><circle cx="93.649" cy="177.071" r="2.5" transform="rotate(15 93.649 177.071)"/><circle cx="96.237" cy="167.411" r="2.5" transform="rotate(15 96.237 167.411)"/><circle cx="91.06" cy="186.73" r="2.5" transform="rotate(15 91.06 186.73)"/><circle cx="108.484" cy="160.34" r="2.5" transform="rotate(15 108.484 160.34)"/><circle cx="103.308" cy="179.659" r="2.5" transform="rotate(15 103.308 179.659)"/><circle cx="105.896" cy="170" r="2.5" transform="rotate(15 105.896 170)"/><circle cx="100.72" cy="189.318" r="2.5" transform="rotate(15 100.72 189.318)"/><circle cx="118.144" cy="162.928" r="2.5" transform="rotate(15 118.144 162.928)"/><circle cx="112.967" cy="182.247" r="2.5" transform="rotate(15 112.967 182.247)"/><circle cx="115.555" cy="172.588" r="2.5" transform="rotate(15 115.555 172.588)"/><circle cx="110.379" cy="191.906" r="2.5" transform="rotate(15 110.379 191.906)"/><circle cx="127.803" cy="165.517" r="2.5" transform="rotate(15 127.803 165.517)"/><circle cx="122.626" cy="184.835" r="2.5" transform="rotate(15 122.626 184.835)"/><circle cx="125.215" cy="175.176" r="2.5" transform="rotate(15 125.215 175.176)"/><circle cx="120.038" cy="194.494" r="2.5" transform="rotate(15 120.038 194.494)"/><circle cx="137.462" cy="168.105" r="2.5" transform="rotate(15 137.462 168.105)"/><circle cx="132.286" cy="187.423" r="2.5" transform="rotate(15 132.286 187.423)"/><circle cx="134.874" cy="177.764" r="2.5" transform="rotate(15 134.874 177.764)"/><circle cx="129.697" cy="197.083" r="2.5" transform="rotate(15 129.697 197.083)"/><circle cx="88.472" cy="196.389" r="2.5" transform="rotate(15 88.472 196.389)"/><circle cx="83.296" cy="215.708" r="2.5" transform="rotate(15 83.296 215.708)"/><circle cx="85.884" cy="206.048" r="2.5" transform="rotate(15 85.884 206.048)"/><circle cx="80.707" cy="225.367" r="2.5" transform="rotate(15 80.707 225.367)"/><circle cx="98.131" cy="198.977" r="2.5" transform="rotate(15 98.131 198.977)"/><circle cx="92.955" cy="218.296" r="2.5" transform="rotate(15 92.955 218.296)"/><circle cx="95.543" cy="208.637" r="2.5" transform="rotate(15 95.543 208.637)"/><circle cx="90.367" cy="227.955" r="2.5" transform="rotate(15 90.367 227.955)"/><circle cx="107.791" cy="201.565" r="2.5" transform="rotate(15 107.791 201.565)"/><circle cx="102.614" cy="220.884" r="2.5" transform="rotate(15 102.614 220.884)"/><circle cx="105.202" cy="211.225" r="2.5" transform="rotate(15 105.202 211.225)"/><circle cx="100.026" cy="230.543" r="2.5" transform="rotate(15 100.026 230.543)"/><circle cx="117.45" cy="204.154" r="2.5" transform="rotate(15 117.45 204.154)"/><circle cx="112.274" cy="223.472" r="2.5" transform="rotate(15 112.274 223.472)"/><circle cx="114.862" cy="213.813" r="2.5" transform="rotate(15 114.862 213.813)"/><circle cx="109.685" cy="233.131" r="2.5" transform="rotate(15 109.685 233.131)"/><circle cx="127.109" cy="206.742" r="2.5" transform="rotate(15 127.109 206.742)"/><circle cx="121.933" cy="226.06" r="2.5" transform="rotate(15 121.933 226.06)"/><circle cx="124.521" cy="216.401" r="2.5" transform="rotate(15 124.521 216.401)"/><circle cx="119.345" cy="235.72" r="2.5" transform="rotate(15 119.345 235.72)"/><circle cx="119.53" cy="80.478" r="2.5" transform="rotate(15 119.53 80.478)"/><circle cx="114.354" cy="99.797" r="2.5" transform="rotate(15 114.354 99.797)"/><circle cx="116.942" cy="90.137" r="2.5" transform="rotate(15 116.942 90.137)"/><circle cx="111.766" cy="109.456" r="2.5" transform="rotate(15 111.766 109.456)"/><circle cx="129.19" cy="83.066" r="2.5" transform="rotate(15 129.19 83.066)"/><circle cx="124.013" cy="102.385" r="2.5" transform="rotate(15 124.013 102.385)"/><circle cx="126.602" cy="92.726" r="2.5" transform="rotate(15 126.602 92.726)"/><circle cx="121.425" cy="112.044" r="2.5" transform="rotate(15 121.425 112.044)"/><circle cx="138.849" cy="85.654" r="2.5" transform="rotate(15 138.849 85.654)"/><circle cx="133.673" cy="104.973" r="2.5" transform="rotate(15 133.673 104.973)"/><circle cx="136.261" cy="95.314" r="2.5" transform="rotate(15 136.261 95.314)"/><circle cx="131.084" cy="114.632" r="2.5" transform="rotate(15 131.084 114.632)"/><circle cx="148.508" cy="88.243" r="2.5" transform="rotate(15 148.508 88.243)"/><circle cx="143.332" cy="107.561" r="2.5" transform="rotate(15 143.332 107.561)"/><circle cx="145.92" cy="97.902" r="2.5" transform="rotate(15 145.92 97.902)"/><circle cx="140.744" cy="117.221" r="2.5" transform="rotate(15 140.744 117.221)"/><circle cx="158.167" cy="90.831" r="2.5" transform="rotate(15 158.167 90.83)"/><circle cx="152.991" cy="110.15" r="2.5" transform="rotate(15 152.991 110.15)"/><circle cx="155.579" cy="100.49" r="2.5" transform="rotate(15 155.579 100.49)"/><circle cx="150.403" cy="119.809" r="2.5" transform="rotate(15 150.403 119.809)"/><circle cx="109.178" cy="119.115" r="2.5" transform="rotate(15 109.178 119.115)"/><circle cx="104.001" cy="138.434" r="2.5" transform="rotate(15 104.001 138.434)"/><circle cx="106.59" cy="128.774" r="2.5" transform="rotate(15 106.59 128.774)"/><circle cx="101.413" cy="148.093" r="2.5" transform="rotate(15 101.413 148.093)"/><circle cx="118.837" cy="121.703" r="2.5" transform="rotate(15 118.837 121.703)"/><circle cx="113.661" cy="141.022" r="2.5" transform="rotate(15 113.661 141.022)"/><circle cx="116.249" cy="131.363" r="2.5" transform="rotate(15 116.249 131.363)"/><circle cx="111.072" cy="150.681" r="2.5" transform="rotate(15 111.072 150.681)"/><circle cx="128.496" cy="124.291" r="2.5" transform="rotate(15 128.496 124.291)"/><circle cx="123.32" cy="143.61" r="2.5" transform="rotate(15 123.32 143.61)"/><circle cx="125.908" cy="133.951" r="2.5" transform="rotate(15 125.908 133.951)"/><circle cx="120.732" cy="153.269" r="2.5" transform="rotate(15 120.732 153.269)"/><circle cx="138.155" cy="126.88" r="2.5" transform="rotate(15 138.155 126.88)"/><circle cx="132.979" cy="146.198" r="2.5" transform="rotate(15 132.979 146.198)"/><circle cx="135.567" cy="136.539" r="2.5" transform="rotate(15 135.567 136.539)"/><circle cx="130.391" cy="155.858" r="2.5" transform="rotate(15 130.391 155.858)"/><circle cx="147.815" cy="129.468" r="2.5" transform="rotate(15 147.815 129.468)"/><circle cx="142.638" cy="148.786" r="2.5" transform="rotate(15 142.638 148.786)"/><circle cx="145.227" cy="139.127" r="2.5" transform="rotate(15 145.227 139.127)"/><circle cx="140.05" cy="158.446" r="2.5" transform="rotate(15 140.05 158.446)"/><circle cx="78.12" cy="235.026" r="2.5" transform="rotate(15 78.12 235.026)"/><circle cx="72.943" cy="254.345" r="2.5" transform="rotate(15 72.943 254.345)"/><circle cx="75.531" cy="244.685" r="2.5" transform="rotate(15 75.531 244.685)"/><circle cx="70.355" cy="264.004" r="2.5" transform="rotate(15 70.355 264.004)"/><circle cx="87.779" cy="237.614" r="2.5" transform="rotate(15 87.779 237.614)"/><circle cx="82.603" cy="256.933" r="2.5" transform="rotate(15 82.603 256.933)"/><circle cx="85.191" cy="247.274" r="2.5" transform="rotate(15 85.19 247.274)"/><circle cx="80.014" cy="266.592" r="2.5" transform="rotate(15 80.014 266.592)"/><circle cx="97.438" cy="240.202" r="2.5" transform="rotate(15 97.438 240.202)"/><circle cx="92.262" cy="259.521" r="2.5" transform="rotate(15 92.262 259.521)"/><circle cx="94.85" cy="249.862" r="2.5" transform="rotate(15 94.85 249.862)"/><circle cx="89.674" cy="269.18" r="2.5" transform="rotate(15 89.674 269.18)"/><circle cx="107.097" cy="242.791" r="2.5" transform="rotate(15 107.097 242.791)"/><circle cx="101.921" cy="262.109" r="2.5" transform="rotate(15 101.921 262.109)"/><circle cx="104.509" cy="252.45" r="2.5" transform="rotate(15 104.509 252.45)"/><circle cx="99.333" cy="271.769" r="2.5" transform="rotate(15 99.333 271.769)"/><circle cx="116.757" cy="245.379" r="2.5" transform="rotate(15 116.757 245.379)"/><circle cx="111.58" cy="264.698" r="2.5" transform="rotate(15 111.58 264.698)"/><circle cx="114.168" cy="255.038" r="2.5" transform="rotate(15 114.168 255.038)"/><circle cx="108.992" cy="274.357" r="2.5" transform="rotate(15 108.992 274.357)"/><circle cx="67.767" cy="273.663" r="2.5" transform="rotate(15 67.767 273.663)"/><circle cx="62.59" cy="292.982" r="2.5" transform="rotate(15 62.59 292.982)"/><circle cx="65.179" cy="283.322" r="2.5" transform="rotate(15 65.179 283.322)"/><circle cx="60.002" cy="302.641" r="2.5" transform="rotate(15 60.002 302.641)"/><circle cx="77.426" cy="276.251" r="2.5" transform="rotate(15 77.426 276.251)"/><circle cx="72.25" cy="295.57" r="2.5" transform="rotate(15 72.25 295.57)"/><circle cx="74.838" cy="285.911" r="2.5" transform="rotate(15 74.838 285.911)"/><circle cx="69.662" cy="305.229" r="2.5" transform="rotate(15 69.662 305.229)"/><circle cx="87.085" cy="278.839" r="2.5" transform="rotate(15 87.085 278.839)"/><circle cx="81.909" cy="298.158" r="2.5" transform="rotate(15 81.909 298.158)"/><circle cx="84.497" cy="288.499" r="2.5" transform="rotate(15 84.497 288.499)"/><circle cx="79.321" cy="307.817" r="2.5" transform="rotate(15 79.32 307.817)"/><circle cx="96.745" cy="281.428" r="2.5" transform="rotate(15 96.745 281.428)"/><circle cx="91.568" cy="300.746" r="2.5" transform="rotate(15 91.568 300.746)"/><circle cx="94.156" cy="291.087" r="2.5" transform="rotate(15 94.156 291.087)"/><circle cx="88.98" cy="310.406" r="2.5" transform="rotate(15 88.98 310.406)"/><circle cx="106.404" cy="284.016" r="2.5" transform="rotate(15 106.404 284.016)"/><circle cx="101.227" cy="303.335" r="2.5" transform="rotate(15 101.227 303.335)"/><circle cx="103.816" cy="293.675" r="2.5" transform="rotate(15 103.816 293.675)"/><circle cx="98.639" cy="312.994" r="2.5" transform="rotate(15 98.64 312.994)"/><circle cx="57.414" cy="312.3" r="2.5" transform="rotate(15 57.414 312.3)"/><circle cx="52.238" cy="331.619" r="2.5" transform="rotate(15 52.238 331.619)"/><circle cx="54.826" cy="321.959" r="2.5" transform="rotate(15 54.826 321.959)"/><circle cx="49.649" cy="341.278" r="2.5" transform="rotate(15 49.65 341.278)"/><circle cx="67.073" cy="314.888" r="2.5" transform="rotate(15 67.073 314.888)"/><circle cx="61.897" cy="334.207" r="2.5" transform="rotate(15 61.897 334.207)"/><circle cx="64.485" cy="324.548" r="2.5" transform="rotate(15 64.485 324.548)"/><circle cx="59.309" cy="343.866" r="2.5" transform="rotate(15 59.309 343.866)"/><circle cx="76.733" cy="317.476" r="2.5" transform="rotate(15 76.733 317.476)"/><circle cx="71.556" cy="336.795" r="2.5" transform="rotate(15 71.556 336.795)"/><circle cx="74.144" cy="327.136" r="2.5" transform="rotate(15 74.144 327.136)"/><circle cx="68.968" cy="346.454" r="2.5" transform="rotate(15 68.968 346.454)"/><circle cx="86.392" cy="320.065" r="2.5" transform="rotate(15 86.392 320.065)"/><circle cx="81.216" cy="339.383" r="2.5" transform="rotate(15 81.216 339.383)"/><circle cx="83.804" cy="329.724" r="2.5" transform="rotate(15 83.804 329.724)"/><circle cx="78.627" cy="349.043" r="2.5" transform="rotate(15 78.627 349.043)"/><circle cx="96.051" cy="322.653" r="2.5" transform="rotate(15 96.051 322.653)"/><circle cx="90.875" cy="341.972" r="2.5" transform="rotate(15 90.875 341.972)"/><circle cx="93.463" cy="332.312" r="2.5" transform="rotate(15 93.463 332.312)"/><circle cx="88.287" cy="351.631" r="2.5" transform="rotate(15 88.287 351.631)"/><circle cx="47.061" cy="350.937" r="2.5" transform="rotate(15 47.061 350.937)"/><circle cx="41.885" cy="370.256" r="2.5" transform="rotate(15 41.885 370.256)"/><circle cx="44.473" cy="360.596" r="2.5" transform="rotate(15 44.473 360.596)"/><circle cx="39.297" cy="379.915" r="2.5" transform="rotate(15 39.297 379.915)"/><circle cx="56.72" cy="353.525" r="2.5" transform="rotate(15 56.72 353.525)"/><circle cx="51.544" cy="372.844" r="2.5" transform="rotate(15 51.544 372.844)"/><circle cx="54.132" cy="363.185" r="2.5" transform="rotate(15 54.132 363.185)"/><circle cx="48.956" cy="382.503" r="2.5" transform="rotate(15 48.956 382.503)"/><circle cx="66.38" cy="356.113" r="2.5" transform="rotate(15 66.38 356.113)"/><circle cx="61.203" cy="375.432" r="2.5" transform="rotate(15 61.203 375.432)"/><circle cx="63.791" cy="365.773" r="2.5" transform="rotate(15 63.791 365.773)"/><circle cx="58.615" cy="385.091" r="2.5" transform="rotate(15 58.615 385.091)"/><circle cx="76.039" cy="358.702" r="2.5" transform="rotate(15 76.039 358.702)"/><circle cx="70.863" cy="378.02" r="2.5" transform="rotate(15 70.863 378.02)"/><circle cx="73.451" cy="368.361" r="2.5" transform="rotate(15 73.45 368.361)"/><circle cx="68.274" cy="387.68" r="2.5" transform="rotate(15 68.274 387.68)"/><circle cx="85.698" cy="361.29" r="2.5" transform="rotate(15 85.698 361.29)"/><circle cx="80.522" cy="380.608" r="2.5" transform="rotate(15 80.522 380.608)"/><circle cx="83.11" cy="370.949" r="2.5" transform="rotate(15 83.11 370.949)"/><circle cx="77.934" cy="390.268" r="2.5" transform="rotate(15 77.934 390.268)"/><circle cx="16.003" cy="466.848" r="2.5" transform="rotate(15 16.003 466.848)"/><circle cx="10.827" cy="486.167" r="2.5" transform="rotate(15 10.827 486.167)"/><circle cx="13.415" cy="476.507" r="2.5" transform="rotate(15 13.415 476.507)"/><circle cx="8.238" cy="495.826" r="2.5" transform="rotate(15 8.238 495.826)"/><circle cx="25.662" cy="469.436" r="2.5" transform="rotate(15 25.662 469.436)"/><circle cx="20.486" cy="488.755" r="2.5" transform="rotate(15 20.486 488.755)"/><circle cx="23.074" cy="479.096" r="2.5" transform="rotate(15 23.074 479.096)"/><circle cx="17.898" cy="498.414" r="2.5" transform="rotate(15 17.898 498.414)"/><circle cx="35.322" cy="472.025" r="2.5" transform="rotate(15 35.322 472.025)"/><circle cx="30.145" cy="491.343" r="2.5" transform="rotate(15 30.145 491.343)"/><circle cx="32.733" cy="481.684" r="2.5" transform="rotate(15 32.733 481.684)"/><circle cx="27.557" cy="501.002" r="2.5" transform="rotate(15 27.557 501.002)"/><circle cx="44.981" cy="474.613" r="2.5" transform="rotate(15 44.98 474.613)"/><circle cx="39.804" cy="493.931" r="2.5" transform="rotate(15 39.804 493.931)"/><circle cx="42.392" cy="484.272" r="2.5" transform="rotate(15 42.392 484.272)"/><circle cx="37.216" cy="503.591" r="2.5" transform="rotate(15 37.216 503.591)"/><circle cx="54.64" cy="477.201" r="2.5" transform="rotate(15 54.64 477.201)"/><circle cx="49.464" cy="496.52" r="2.5" transform="rotate(15 49.464 496.52)"/><circle cx="52.052" cy="486.86" r="2.5" transform="rotate(15 52.052 486.86)"/><circle cx="46.875" cy="506.179" r="2.5" transform="rotate(15 46.875 506.179)"/><circle cx="5.65" cy="505.485" r="2.5" transform="rotate(15 5.65 505.485)"/><circle cx="15.309" cy="508.073" r="2.5" transform="rotate(15 15.31 508.073)"/><circle cx="12.721" cy="517.733" r="2.5" transform="rotate(15 12.721 517.733)"/><circle cx="24.969" cy="510.661" r="2.5" transform="rotate(15 24.969 510.661)"/><circle cx="22.38" cy="520.321" r="2.5" transform="rotate(15 22.38 520.321)"/><circle cx="34.628" cy="513.25" r="2.5" transform="rotate(15 34.628 513.25)"/><circle cx="32.04" cy="522.909" r="2.5" transform="rotate(15 32.04 522.909)"/><circle cx="44.287" cy="515.838" r="2.5" transform="rotate(15 44.287 515.838)"/><circle cx="41.699" cy="525.497" r="2.5" transform="rotate(15 41.699 525.497)"/><circle cx="36.708" cy="389.574" r="2.5" transform="rotate(15 36.708 389.574)"/><circle cx="31.532" cy="408.893" r="2.5" transform="rotate(15 31.532 408.893)"/><circle cx="34.12" cy="399.233" r="2.5" transform="rotate(15 34.12 399.233)"/><circle cx="28.944" cy="418.552" r="2.5" transform="rotate(15 28.944 418.552)"/><circle cx="46.368" cy="392.162" r="2.5" transform="rotate(15 46.368 392.162)"/><circle cx="41.191" cy="411.481" r="2.5" transform="rotate(15 41.191 411.481)"/><circle cx="43.779" cy="401.822" r="2.5" transform="rotate(15 43.78 401.822)"/><circle cx="38.603" cy="421.14" r="2.5" transform="rotate(15 38.603 421.14)"/><circle cx="56.027" cy="394.751" r="2.5" transform="rotate(15 56.027 394.751)"/><circle cx="50.85" cy="414.069" r="2.5" transform="rotate(15 50.85 414.069)"/><circle cx="53.439" cy="404.41" r="2.5" transform="rotate(15 53.439 404.41)"/><circle cx="48.262" cy="423.728" r="2.5" transform="rotate(15 48.262 423.728)"/><circle cx="65.686" cy="397.339" r="2.5" transform="rotate(15 65.686 397.339)"/><circle cx="60.51" cy="416.657" r="2.5" transform="rotate(15 60.51 416.657)"/><circle cx="63.098" cy="406.998" r="2.5" transform="rotate(15 63.098 406.998)"/><circle cx="57.922" cy="426.317" r="2.5" transform="rotate(15 57.922 426.317)"/><circle cx="75.345" cy="399.927" r="2.5" transform="rotate(15 75.345 399.927)"/><circle cx="70.169" cy="419.246" r="2.5" transform="rotate(15 70.17 419.246)"/><circle cx="72.757" cy="409.586" r="2.5" transform="rotate(15 72.757 409.586)"/><circle cx="67.581" cy="428.905" r="2.5" transform="rotate(15 67.581 428.905)"/><circle cx="26.356" cy="428.211" r="2.5" transform="rotate(15 26.356 428.211)"/><circle cx="21.179" cy="447.53" r="2.5" transform="rotate(15 21.18 447.53)"/><circle cx="23.767" cy="437.87" r="2.5" transform="rotate(15 23.767 437.87)"/><circle cx="18.591" cy="457.189" r="2.5" transform="rotate(15 18.591 457.189)"/><circle cx="36.015" cy="430.799" r="2.5" transform="rotate(15 36.015 430.799)"/><circle cx="30.839" cy="450.118" r="2.5" transform="rotate(15 30.839 450.118)"/><circle cx="33.427" cy="440.459" r="2.5" transform="rotate(15 33.427 440.459)"/><circle cx="28.25" cy="459.777" r="2.5" transform="rotate(15 28.25 459.777)"/><circle cx="45.674" cy="433.388" r="2.5" transform="rotate(15 45.674 433.388)"/><circle cx="40.498" cy="452.706" r="2.5" transform="rotate(15 40.498 452.706)"/><circle cx="43.086" cy="443.047" r="2.5" transform="rotate(15 43.086 443.047)"/><circle cx="37.91" cy="462.365" r="2.5" transform="rotate(15 37.91 462.365)"/><circle cx="55.333" cy="435.976" r="2.5" transform="rotate(15 55.333 435.976)"/><circle cx="50.157" cy="455.294" r="2.5" transform="rotate(15 50.157 455.294)"/><circle cx="52.745" cy="445.635" r="2.5" transform="rotate(15 52.745 445.635)"/><circle cx="47.569" cy="464.954" r="2.5" transform="rotate(15 47.569 464.954)"/><circle cx="64.993" cy="438.564" r="2.5" transform="rotate(15 64.993 438.564)"/><circle cx="59.816" cy="457.883" r="2.5" transform="rotate(15 59.816 457.883)"/><circle cx="62.404" cy="448.223" r="2.5" transform="rotate(15 62.404 448.223)"/><circle cx="57.228" cy="467.542" r="2.5" transform="rotate(15 57.228 467.542)"/><circle cx="837.634" cy="190.071" r="2.5" transform="rotate(15 837.634 190.071)"/><circle cx="832.458" cy="209.39" r="2.5" transform="rotate(15 832.458 209.39)"/><circle cx="835.046" cy="199.731" r="2.5" transform="rotate(15 835.046 199.731)"/><circle cx="829.87" cy="219.049" r="2.5" transform="rotate(15 829.87 219.049)"/><circle cx="847.294" cy="192.66" r="2.5" transform="rotate(15 847.294 192.66)"/><circle cx="842.117" cy="211.978" r="2.5" transform="rotate(15 842.117 211.978)"/><circle cx="844.706" cy="202.319" r="2.5" transform="rotate(15 844.706 202.319)"/><circle cx="839.529" cy="221.637" r="2.5" transform="rotate(15 839.529 221.637)"/><circle cx="856.953" cy="195.248" r="2.5" transform="rotate(15 856.953 195.248)"/><circle cx="851.777" cy="214.566" r="2.5" transform="rotate(15 851.777 214.566)"/><circle cx="854.365" cy="204.907" r="2.5" transform="rotate(15 854.365 204.907)"/><circle cx="849.188" cy="224.225" r="2.5" transform="rotate(15 849.188 224.225)"/><circle cx="866.612" cy="197.836" r="2.5" transform="rotate(15 866.612 197.836)"/><circle cx="861.436" cy="217.154" r="2.5" transform="rotate(15 861.436 217.154)"/><circle cx="864.024" cy="207.495" r="2.5" transform="rotate(15 864.024 207.495)"/><circle cx="858.848" cy="226.814" r="2.5" transform="rotate(15 858.848 226.814)"/><circle cx="871.095" cy="219.743" r="2.5" transform="rotate(15 871.095 219.743)"/><circle cx="873.683" cy="210.083" r="2.5" transform="rotate(15 873.683 210.083)"/><circle cx="868.507" cy="229.402" r="2.5" transform="rotate(15 868.507 229.402)"/><circle cx="827.282" cy="228.708" r="2.5" transform="rotate(15 827.282 228.708)"/><circle cx="822.105" cy="248.027" r="2.5" transform="rotate(15 822.105 248.027)"/><circle cx="824.694" cy="238.368" r="2.5" transform="rotate(15 824.694 238.368)"/><circle cx="819.517" cy="257.686" r="2.5" transform="rotate(15 819.517 257.686)"/><circle cx="836.941" cy="231.296" r="2.5" transform="rotate(15 836.941 231.296)"/><circle cx="831.765" cy="250.615" r="2.5" transform="rotate(15 831.765 250.615)"/><circle cx="834.353" cy="240.956" r="2.5" transform="rotate(15 834.353 240.956)"/><circle cx="829.176" cy="260.274" r="2.5" transform="rotate(15 829.176 260.274)"/><circle cx="846.6" cy="233.885" r="2.5" transform="rotate(15 846.6 233.885)"/><circle cx="841.424" cy="253.203" r="2.5" transform="rotate(15 841.424 253.203)"/><circle cx="844.012" cy="243.544" r="2.5" transform="rotate(15 844.012 243.544)"/><circle cx="838.836" cy="262.862" r="2.5" transform="rotate(15 838.836 262.862)"/><circle cx="856.259" cy="236.473" r="2.5" transform="rotate(15 856.259 236.473)"/><circle cx="851.083" cy="255.791" r="2.5" transform="rotate(15 851.083 255.791)"/><circle cx="853.671" cy="246.132" r="2.5" transform="rotate(15 853.671 246.132)"/><circle cx="848.495" cy="265.451" r="2.5" transform="rotate(15 848.495 265.451)"/><circle cx="865.919" cy="239.061" r="2.5" transform="rotate(15 865.919 239.061)"/><circle cx="860.742" cy="258.38" r="2.5" transform="rotate(15 860.742 258.38)"/><circle cx="863.331" cy="248.72" r="2.5" transform="rotate(15 863.331 248.72)"/><circle cx="858.154" cy="268.039" r="2.5" transform="rotate(15 858.154 268.039)"/><circle cx="796.223" cy="344.619" r="2.5" transform="rotate(15 796.223 344.619)"/><circle cx="791.047" cy="363.938" r="2.5" transform="rotate(15 791.047 363.938)"/><circle cx="793.635" cy="354.279" r="2.5" transform="rotate(15 793.635 354.279)"/><circle cx="788.459" cy="373.597" r="2.5" transform="rotate(15 788.459 373.597)"/><circle cx="805.883" cy="347.208" r="2.5" transform="rotate(15 805.883 347.208)"/><circle cx="800.706" cy="366.526" r="2.5" transform="rotate(15 800.706 366.526)"/><circle cx="803.294" cy="356.867" r="2.5" transform="rotate(15 803.294 356.867)"/><circle cx="798.118" cy="376.185" r="2.5" transform="rotate(15 798.118 376.185)"/><circle cx="815.542" cy="349.796" r="2.5" transform="rotate(15 815.542 349.796)"/><circle cx="810.365" cy="369.114" r="2.5" transform="rotate(15 810.365 369.114)"/><circle cx="812.954" cy="359.455" r="2.5" transform="rotate(15 812.954 359.455)"/><circle cx="807.777" cy="378.774" r="2.5" transform="rotate(15 807.777 378.774)"/><circle cx="825.201" cy="352.384" r="2.5" transform="rotate(15 825.201 352.384)"/><circle cx="820.025" cy="371.702" r="2.5" transform="rotate(15 820.025 371.702)"/><circle cx="822.613" cy="362.043" r="2.5" transform="rotate(15 822.613 362.043)"/><circle cx="817.436" cy="381.362" r="2.5" transform="rotate(15 817.436 381.362)"/><circle cx="834.86" cy="354.972" r="2.5" transform="rotate(15 834.86 354.972)"/><circle cx="829.684" cy="374.291" r="2.5" transform="rotate(15 829.684 374.291)"/><circle cx="832.272" cy="364.631" r="2.5" transform="rotate(15 832.272 364.631)"/><circle cx="827.096" cy="383.95" r="2.5" transform="rotate(15 827.096 383.95)"/><circle cx="785.871" cy="383.256" r="2.5" transform="rotate(15 785.871 383.256)"/><circle cx="780.694" cy="402.575" r="2.5" transform="rotate(15 780.694 402.575)"/><circle cx="783.282" cy="392.916" r="2.5" transform="rotate(15 783.282 392.916)"/><circle cx="778.106" cy="412.234" r="2.5" transform="rotate(15 778.106 412.234)"/><circle cx="795.53" cy="385.845" r="2.5" transform="rotate(15 795.53 385.845)"/><circle cx="790.353" cy="405.163" r="2.5" transform="rotate(15 790.353 405.163)"/><circle cx="792.942" cy="395.504" r="2.5" transform="rotate(15 792.942 395.504)"/><circle cx="787.765" cy="414.822" r="2.5" transform="rotate(15 787.765 414.822)"/><circle cx="805.189" cy="388.433" r="2.5" transform="rotate(15 805.189 388.433)"/><circle cx="800.013" cy="407.751" r="2.5" transform="rotate(15 800.013 407.751)"/><circle cx="802.601" cy="398.092" r="2.5" transform="rotate(15 802.601 398.092)"/><circle cx="797.424" cy="417.41" r="2.5" transform="rotate(15 797.424 417.41)"/><circle cx="814.848" cy="391.021" r="2.5" transform="rotate(15 814.848 391.021)"/><circle cx="809.672" cy="410.339" r="2.5" transform="rotate(15 809.672 410.339)"/><circle cx="812.26" cy="400.68" r="2.5" transform="rotate(15 812.26 400.68)"/><circle cx="807.084" cy="419.999" r="2.5" transform="rotate(15 807.084 419.999)"/><circle cx="824.508" cy="393.609" r="2.5" transform="rotate(15 824.508 393.609)"/><circle cx="819.331" cy="412.928" r="2.5" transform="rotate(15 819.331 412.928)"/><circle cx="821.919" cy="403.268" r="2.5" transform="rotate(15 821.919 403.268)"/><circle cx="816.743" cy="422.587" r="2.5" transform="rotate(15 816.743 422.587)"/><circle cx="816.929" cy="267.346" r="2.5" transform="rotate(15 816.929 267.346)"/><circle cx="811.753" cy="286.664" r="2.5" transform="rotate(15 811.753 286.664)"/><circle cx="814.341" cy="277.005" r="2.5" transform="rotate(15 814.341 277.005)"/><circle cx="809.164" cy="296.323" r="2.5" transform="rotate(15 809.164 296.323)"/><circle cx="826.588" cy="269.934" r="2.5" transform="rotate(15 826.588 269.934)"/><circle cx="821.412" cy="289.252" r="2.5" transform="rotate(15 821.412 289.252)"/><circle cx="824" cy="279.593" r="2.5" transform="rotate(15 824 279.593)"/><circle cx="818.824" cy="298.911" r="2.5" transform="rotate(15 818.824 298.911)"/><circle cx="836.247" cy="272.522" r="2.5" transform="rotate(15 836.247 272.522)"/><circle cx="831.071" cy="291.84" r="2.5" transform="rotate(15 831.071 291.84)"/><circle cx="833.659" cy="282.181" r="2.5" transform="rotate(15 833.659 282.181)"/><circle cx="828.483" cy="301.5" r="2.5" transform="rotate(15 828.483 301.5)"/><circle cx="845.907" cy="275.11" r="2.5" transform="rotate(15 845.907 275.11)"/><circle cx="840.73" cy="294.429" r="2.5" transform="rotate(15 840.73 294.429)"/><circle cx="843.319" cy="284.769" r="2.5" transform="rotate(15 843.319 284.769)"/><circle cx="838.142" cy="304.088" r="2.5" transform="rotate(15 838.142 304.088)"/><circle cx="855.566" cy="277.698" r="2.5" transform="rotate(15 855.566 277.698)"/><circle cx="850.39" cy="297.017" r="2.5" transform="rotate(15 850.39 297.017)"/><circle cx="852.978" cy="287.358" r="2.5" transform="rotate(15 852.978 287.358)"/><circle cx="847.801" cy="306.676" r="2.5" transform="rotate(15 847.801 306.676)"/><circle cx="806.576" cy="305.983" r="2.5" transform="rotate(15 806.576 305.983)"/><circle cx="801.4" cy="325.301" r="2.5" transform="rotate(15 801.4 325.301)"/><circle cx="803.988" cy="315.642" r="2.5" transform="rotate(15 803.988 315.642)"/><circle cx="798.811" cy="334.96" r="2.5" transform="rotate(15 798.811 334.96)"/><circle cx="816.235" cy="308.571" r="2.5" transform="rotate(15 816.235 308.571)"/><circle cx="811.059" cy="327.889" r="2.5" transform="rotate(15 811.059 327.889)"/><circle cx="813.647" cy="318.23" r="2.5" transform="rotate(15 813.647 318.23)"/><circle cx="808.471" cy="337.548" r="2.5" transform="rotate(15 808.471 337.548)"/><circle cx="825.895" cy="311.159" r="2.5" transform="rotate(15 825.895 311.159)"/><circle cx="820.718" cy="330.477" r="2.5" transform="rotate(15 820.718 330.477)"/><circle cx="823.306" cy="320.818" r="2.5" transform="rotate(15 823.306 320.818)"/><circle cx="818.13" cy="340.137" r="2.5" transform="rotate(15 818.13 340.137)"/><circle cx="835.554" cy="313.747" r="2.5" transform="rotate(15 835.554 313.747)"/><circle cx="830.378" cy="333.066" r="2.5" transform="rotate(15 830.378 333.066)"/><circle cx="832.966" cy="323.406" r="2.5" transform="rotate(15 832.966 323.406)"/><circle cx="827.789" cy="342.725" r="2.5" transform="rotate(15 827.789 342.725)"/><circle cx="845.213" cy="316.335" r="2.5" transform="rotate(15 845.213 316.335)"/><circle cx="840.037" cy="335.654" r="2.5" transform="rotate(15 840.037 335.654)"/><circle cx="842.625" cy="325.994" r="2.5" transform="rotate(15 842.625 325.994)"/><circle cx="837.449" cy="345.313" r="2.5" transform="rotate(15 837.449 345.313)"/><circle cx="775.518" cy="421.894" r="2.5" transform="rotate(15 775.518 421.894)"/><circle cx="770.342" cy="441.212" r="2.5" transform="rotate(15 770.342 441.212)"/><circle cx="772.93" cy="431.553" r="2.5" transform="rotate(15 772.93 431.553)"/><circle cx="767.753" cy="450.871" r="2.5" transform="rotate(15 767.753 450.871)"/><circle cx="785.177" cy="424.482" r="2.5" transform="rotate(15 785.177 424.482)"/><circle cx="780.001" cy="443.8" r="2.5" transform="rotate(15 780.001 443.8)"/><circle cx="782.589" cy="434.141" r="2.5" transform="rotate(15 782.589 434.141)"/><circle cx="777.413" cy="453.46" r="2.5" transform="rotate(15 777.413 453.46)"/><circle cx="794.837" cy="427.07" r="2.5" transform="rotate(15 794.837 427.07)"/><circle cx="789.66" cy="446.389" r="2.5" transform="rotate(15 789.66 446.389)"/><circle cx="792.248" cy="436.729" r="2.5" transform="rotate(15 792.248 436.729)"/><circle cx="787.072" cy="456.048" r="2.5" transform="rotate(15 787.072 456.048)"/><circle cx="804.496" cy="429.658" r="2.5" transform="rotate(15 804.496 429.658)"/><circle cx="799.32" cy="448.977" r="2.5" transform="rotate(15 799.32 448.977)"/><circle cx="801.908" cy="439.317" r="2.5" transform="rotate(15 801.908 439.317)"/><circle cx="796.731" cy="458.636" r="2.5" transform="rotate(15 796.731 458.636)"/><circle cx="814.155" cy="432.246" r="2.5" transform="rotate(15 814.155 432.246)"/><circle cx="808.979" cy="451.565" r="2.5" transform="rotate(15 808.979 451.565)"/><circle cx="811.567" cy="441.906" r="2.5" transform="rotate(15 811.567 441.906)"/><circle cx="806.391" cy="461.224" r="2.5" transform="rotate(15 806.391 461.224)"/><circle cx="765.165" cy="460.531" r="2.5" transform="rotate(15 765.165 460.531)"/><circle cx="759.989" cy="479.849" r="2.5" transform="rotate(15 759.989 479.849)"/><circle cx="762.577" cy="470.19" r="2.5" transform="rotate(15 762.577 470.19)"/><circle cx="757.401" cy="489.508" r="2.5" transform="rotate(15 757.401 489.508)"/><circle cx="774.824" cy="463.119" r="2.5" transform="rotate(15 774.824 463.119)"/><circle cx="769.648" cy="482.437" r="2.5" transform="rotate(15 769.648 482.437)"/><circle cx="772.236" cy="472.778" r="2.5" transform="rotate(15 772.236 472.778)"/><circle cx="767.06" cy="492.097" r="2.5" transform="rotate(15 767.06 492.097)"/><circle cx="784.484" cy="465.707" r="2.5" transform="rotate(15 784.484 465.707)"/><circle cx="779.307" cy="485.025" r="2.5" transform="rotate(15 779.307 485.025)"/><circle cx="781.895" cy="475.366" r="2.5" transform="rotate(15 781.895 475.366)"/><circle cx="776.719" cy="494.685" r="2.5" transform="rotate(15 776.719 494.685)"/><circle cx="794.143" cy="468.295" r="2.5" transform="rotate(15 794.143 468.295)"/><circle cx="788.967" cy="487.614" r="2.5" transform="rotate(15 788.967 487.614)"/><circle cx="791.555" cy="477.954" r="2.5" transform="rotate(15 791.555 477.954)"/><circle cx="786.378" cy="497.273" r="2.5" transform="rotate(15 786.378 497.273)"/><circle cx="803.802" cy="470.883" r="2.5" transform="rotate(15 803.802 470.883)"/><circle cx="798.626" cy="490.202" r="2.5" transform="rotate(15 798.626 490.202)"/><circle cx="801.214" cy="480.543" r="2.5" transform="rotate(15 801.214 480.543)"/><circle cx="796.038" cy="499.861" r="2.5" transform="rotate(15 796.038 499.861)"/><circle cx="754.812" cy="499.168" r="2.5" transform="rotate(15 754.812 499.168)"/><circle cx="749.636" cy="518.486" r="2.5" transform="rotate(15 749.636 518.486)"/><circle cx="752.224" cy="508.827" r="2.5" transform="rotate(15 752.224 508.827)"/><circle cx="747.048" cy="528.145" r="2.5" transform="rotate(15 747.048 528.145)"/><circle cx="764.472" cy="501.756" r="2.5" transform="rotate(15 764.472 501.756)"/><circle cx="759.295" cy="521.074" r="2.5" transform="rotate(15 759.295 521.074)"/><circle cx="761.883" cy="511.415" r="2.5" transform="rotate(15 761.883 511.415)"/><circle cx="756.707" cy="530.734" r="2.5" transform="rotate(15 756.707 530.734)"/><circle cx="774.131" cy="504.344" r="2.5" transform="rotate(15 774.131 504.344)"/><circle cx="768.955" cy="523.662" r="2.5" transform="rotate(15 768.955 523.662)"/><circle cx="771.543" cy="514.003" r="2.5" transform="rotate(15 771.543 514.003)"/><circle cx="766.366" cy="533.322" r="2.5" transform="rotate(15 766.366 533.322)"/><circle cx="783.79" cy="506.932" r="2.5" transform="rotate(15 783.79 506.932)"/><circle cx="778.614" cy="526.251" r="2.5" transform="rotate(15 778.614 526.251)"/><circle cx="781.202" cy="516.591" r="2.5" transform="rotate(15 781.202 516.591)"/><circle cx="776.026" cy="535.91" r="2.5" transform="rotate(15 776.026 535.91)"/><circle cx="793.449" cy="509.52" r="2.5" transform="rotate(15 793.449 509.52)"/><circle cx="788.273" cy="528.839" r="2.5" transform="rotate(15 788.273 528.839)"/><circle cx="790.861" cy="519.18" r="2.5" transform="rotate(15 790.861 519.18)"/><circle cx="785.685" cy="538.498" r="2.5" transform="rotate(15 785.685 538.498)"/><circle cx="744.46" cy="537.805" r="2.5" transform="rotate(15 744.46 537.805)"/><circle cx="739.283" cy="557.123" r="2.5" transform="rotate(15 739.283 557.123)"/><circle cx="741.872" cy="547.464" r="2.5" transform="rotate(15 741.872 547.464)"/><circle cx="736.695" cy="566.782" r="2.5" transform="rotate(15 736.695 566.782)"/><circle cx="754.119" cy="540.393" r="2.5" transform="rotate(15 754.119 540.393)"/><circle cx="748.943" cy="559.711" r="2.5" transform="rotate(15 748.943 559.711)"/><circle cx="751.531" cy="550.052" r="2.5" transform="rotate(15 751.531 550.052)"/><circle cx="746.354" cy="569.37" r="2.5" transform="rotate(15 746.354 569.37)"/><circle cx="763.778" cy="542.981" r="2.5" transform="rotate(15 763.778 542.981)"/><circle cx="758.602" cy="562.299" r="2.5" transform="rotate(15 758.602 562.299)"/><circle cx="761.19" cy="552.64" r="2.5" transform="rotate(15 761.19 552.64)"/><circle cx="756.014" cy="571.959" r="2.5" transform="rotate(15 756.014 571.959)"/><circle cx="773.437" cy="545.569" r="2.5" transform="rotate(15 773.437 545.569)"/><circle cx="768.261" cy="564.888" r="2.5" transform="rotate(15 768.261 564.888)"/><circle cx="770.849" cy="555.228" r="2.5" transform="rotate(15 770.849 555.228)"/><circle cx="765.673" cy="574.547" r="2.5" transform="rotate(15 765.673 574.547)"/><circle cx="783.097" cy="548.157" r="2.5" transform="rotate(15 783.097 548.157)"/><circle cx="777.92" cy="567.476" r="2.5" transform="rotate(15 777.92 567.476)"/><circle cx="780.508" cy="557.817" r="2.5" transform="rotate(15 780.508 557.817)"/><circle cx="775.332" cy="577.135" r="2.5" transform="rotate(15 775.332 577.135)"/><circle cx="713.401" cy="653.716" r="2.5" transform="rotate(15 713.401 653.716)"/><circle cx="708.225" cy="673.034" r="2.5" transform="rotate(15 708.225 673.034)"/><circle cx="710.813" cy="663.375" r="2.5" transform="rotate(15 710.813 663.375)"/><circle cx="705.637" cy="682.693" r="2.5" transform="rotate(15 705.637 682.693)"/><circle cx="723.06" cy="656.304" r="2.5" transform="rotate(15 723.06 656.304)"/><circle cx="717.884" cy="675.622" r="2.5" transform="rotate(15 717.884 675.622)"/><circle cx="720.472" cy="665.963" r="2.5" transform="rotate(15 720.472 665.963)"/><circle cx="715.296" cy="685.282" r="2.5" transform="rotate(15 715.296 685.282)"/><circle cx="732.72" cy="658.892" r="2.5" transform="rotate(15 732.72 658.892)"/><circle cx="727.543" cy="678.211" r="2.5" transform="rotate(15 727.543 678.211)"/><circle cx="730.132" cy="668.551" r="2.5" transform="rotate(15 730.132 668.551)"/><circle cx="724.955" cy="687.87" r="2.5" transform="rotate(15 724.955 687.87)"/><circle cx="742.379" cy="661.48" r="2.5" transform="rotate(15 742.379 661.48)"/><circle cx="737.203" cy="680.799" r="2.5" transform="rotate(15 737.203 680.799)"/><circle cx="739.791" cy="671.14" r="2.5" transform="rotate(15 739.791 671.14)"/><circle cx="734.614" cy="690.458" r="2.5" transform="rotate(15 734.614 690.458)"/><circle cx="752.038" cy="664.068" r="2.5" transform="rotate(15 752.038 664.068)"/><circle cx="746.862" cy="683.387" r="2.5" transform="rotate(15 746.862 683.387)"/><circle cx="749.45" cy="673.728" r="2.5" transform="rotate(15 749.45 673.728)"/><circle cx="744.274" cy="693.046" r="2.5" transform="rotate(15 744.274 693.046)"/><circle cx="703.049" cy="692.353" r="2.5" transform="rotate(15 703.049 692.353)"/><circle cx="700.46" cy="702.012" r="2.5" transform="rotate(15 700.46 702.012)"/><circle cx="712.708" cy="694.941" r="2.5" transform="rotate(15 712.708 694.941)"/><circle cx="710.12" cy="704.6" r="2.5" transform="rotate(15 710.12 704.6)"/><circle cx="722.367" cy="697.529" r="2.5" transform="rotate(15 722.367 697.529)"/><circle cx="719.779" cy="707.188" r="2.5" transform="rotate(15 719.779 707.188)"/><circle cx="732.026" cy="700.117" r="2.5" transform="rotate(15 732.026 700.117)"/><circle cx="729.438" cy="709.776" r="2.5" transform="rotate(15 729.438 709.776)"/><circle cx="741.685" cy="702.705" r="2.5" transform="rotate(15 741.685 702.705)"/><circle cx="734.107" cy="576.442" r="2.5" transform="rotate(15 734.107 576.442)"/><circle cx="728.931" cy="595.76" r="2.5" transform="rotate(15 728.931 595.76)"/><circle cx="731.519" cy="586.101" r="2.5" transform="rotate(15 731.519 586.101)"/><circle cx="726.342" cy="605.42" r="2.5" transform="rotate(15 726.342 605.42)"/><circle cx="743.766" cy="579.03" r="2.5" transform="rotate(15 743.766 579.03)"/><circle cx="738.59" cy="598.349" r="2.5" transform="rotate(15 738.59 598.349)"/><circle cx="741.178" cy="588.689" r="2.5" transform="rotate(15 741.178 588.689)"/><circle cx="736.002" cy="608.008" r="2.5" transform="rotate(15 736.002 608.008)"/><circle cx="753.425" cy="581.618" r="2.5" transform="rotate(15 753.425 581.618)"/><circle cx="748.249" cy="600.937" r="2.5" transform="rotate(15 748.249 600.937)"/><circle cx="750.837" cy="591.277" r="2.5" transform="rotate(15 750.837 591.277)"/><circle cx="745.661" cy="610.596" r="2.5" transform="rotate(15 745.661 610.596)"/><circle cx="763.085" cy="584.206" r="2.5" transform="rotate(15 763.085 584.206)"/><circle cx="757.908" cy="603.525" r="2.5" transform="rotate(15 757.908 603.525)"/><circle cx="760.497" cy="593.866" r="2.5" transform="rotate(15 760.497 593.866)"/><circle cx="755.32" cy="613.184" r="2.5" transform="rotate(15 755.32 613.184)"/><circle cx="772.744" cy="586.795" r="2.5" transform="rotate(15 772.744 586.795)"/><circle cx="767.568" cy="606.113" r="2.5" transform="rotate(15 767.568 606.113)"/><circle cx="770.156" cy="596.454" r="2.5" transform="rotate(15 770.156 596.454)"/><circle cx="764.979" cy="615.772" r="2.5" transform="rotate(15 764.979 615.772)"/><circle cx="723.754" cy="615.079" r="2.5" transform="rotate(15 723.754 615.079)"/><circle cx="718.578" cy="634.397" r="2.5" transform="rotate(15 718.578 634.397)"/><circle cx="721.166" cy="624.738" r="2.5" transform="rotate(15 721.166 624.738)"/><circle cx="715.989" cy="644.057" r="2.5" transform="rotate(15 715.989 644.057)"/><circle cx="733.413" cy="617.667" r="2.5" transform="rotate(15 733.413 617.667)"/><circle cx="728.237" cy="636.985" r="2.5" transform="rotate(15 728.237 636.985)"/><circle cx="730.825" cy="627.326" r="2.5" transform="rotate(15 730.825 627.326)"/><circle cx="725.649" cy="646.645" r="2.5" transform="rotate(15 725.649 646.645)"/><circle cx="743.073" cy="620.255" r="2.5" transform="rotate(15 743.073 620.255)"/><circle cx="737.896" cy="639.574" r="2.5" transform="rotate(15 737.896 639.574)"/><circle cx="740.484" cy="629.914" r="2.5" transform="rotate(15 740.484 629.914)"/><circle cx="735.308" cy="649.233" r="2.5" transform="rotate(15 735.308 649.233)"/><circle cx="752.732" cy="622.843" r="2.5" transform="rotate(15 752.732 622.843)"/><circle cx="747.556" cy="642.162" r="2.5" transform="rotate(15 747.556 642.162)"/><circle cx="750.144" cy="632.503" r="2.5" transform="rotate(15 750.144 632.503)"/><circle cx="744.967" cy="651.821" r="2.5" transform="rotate(15 744.967 651.821)"/><circle cx="762.391" cy="625.432" r="2.5" transform="rotate(15 762.391 625.432)"/><circle cx="757.215" cy="644.75" r="2.5" transform="rotate(15 757.215 644.75)"/><circle cx="759.803" cy="635.091" r="2.5" transform="rotate(15 759.803 635.091)"/><circle cx="754.627" cy="654.409" r="2.5" transform="rotate(15 754.627 654.409)"/><circle cx="304.716" cy="88.687" r="2.5" transform="rotate(-75 304.716 88.687)"/><circle cx="324.035" cy="93.864" r="2.5" transform="rotate(-75 324.035 93.864)"/><circle cx="314.375" cy="91.275" r="2.5" transform="rotate(-75 314.375 91.275)"/><circle cx="333.694" cy="96.452" r="2.5" transform="rotate(-75 333.694 96.452)"/><circle cx="307.304" cy="79.028" r="2.5" transform="rotate(-75 307.304 79.028)"/><circle cx="326.623" cy="84.204" r="2.5" transform="rotate(-75 326.623 84.204)"/><circle cx="316.963" cy="81.616" r="2.5" transform="rotate(-75 316.963 81.616)"/><circle cx="336.282" cy="86.793" r="2.5" transform="rotate(-75 336.282 86.793)"/><circle cx="309.892" cy="69.369" r="2.5" transform="rotate(-75 309.892 69.369)"/><circle cx="329.211" cy="74.545" r="2.5" transform="rotate(-75 329.211 74.545)"/><circle cx="319.552" cy="71.957" r="2.5" transform="rotate(-75 319.552 71.957)"/><circle cx="338.87" cy="77.133" r="2.5" transform="rotate(-75 338.87 77.133)"/><circle cx="312.481" cy="59.709" r="2.5" transform="rotate(-75 312.481 59.71)"/><circle cx="331.799" cy="64.886" r="2.5" transform="rotate(-75 331.799 64.886)"/><circle cx="322.14" cy="62.298" r="2.5" transform="rotate(-75 322.14 62.298)"/><circle cx="341.458" cy="67.474" r="2.5" transform="rotate(-75 341.458 67.474)"/><circle cx="315.069" cy="50.05" r="2.5" transform="rotate(-75 315.069 50.05)"/><circle cx="334.387" cy="55.227" r="2.5" transform="rotate(-75 334.387 55.227)"/><circle cx="324.728" cy="52.639" r="2.5" transform="rotate(-75 324.728 52.639)"/><circle cx="344.046" cy="57.815" r="2.5" transform="rotate(-75 344.046 57.815)"/><circle cx="343.353" cy="99.04" r="2.5" transform="rotate(-75 343.353 99.04)"/><circle cx="362.671" cy="104.216" r="2.5" transform="rotate(-75 362.671 104.216)"/><circle cx="353.012" cy="101.628" r="2.5" transform="rotate(-75 353.012 101.628)"/><circle cx="372.331" cy="106.805" r="2.5" transform="rotate(-75 372.331 106.805)"/><circle cx="345.941" cy="89.381" r="2.5" transform="rotate(-75 345.941 89.38)"/><circle cx="365.26" cy="94.557" r="2.5" transform="rotate(-75 365.26 94.557)"/><circle cx="355.6" cy="91.969" r="2.5" transform="rotate(-75 355.6 91.969)"/><circle cx="374.919" cy="97.145" r="2.5" transform="rotate(-75 374.919 97.145)"/><circle cx="348.529" cy="79.722" r="2.5" transform="rotate(-75 348.529 79.722)"/><circle cx="367.848" cy="84.898" r="2.5" transform="rotate(-75 367.848 84.898)"/><circle cx="358.189" cy="82.31" r="2.5" transform="rotate(-75 358.189 82.31)"/><circle cx="377.507" cy="87.486" r="2.5" transform="rotate(-75 377.507 87.486)"/><circle cx="351.118" cy="70.062" r="2.5" transform="rotate(-75 351.118 70.062)"/><circle cx="370.436" cy="75.239" r="2.5" transform="rotate(-75 370.436 75.239)"/><circle cx="360.777" cy="72.65" r="2.5" transform="rotate(-75 360.777 72.65)"/><circle cx="380.095" cy="77.827" r="2.5" transform="rotate(-75 380.095 77.827)"/><circle cx="353.706" cy="60.403" r="2.5" transform="rotate(-75 353.706 60.403)"/><circle cx="373.024" cy="65.579" r="2.5" transform="rotate(-75 373.024 65.58)"/><circle cx="363.365" cy="62.991" r="2.5" transform="rotate(-75 363.365 62.991)"/><circle cx="382.683" cy="68.168" r="2.5" transform="rotate(-75 382.683 68.168)"/><circle cx="459.264" cy="130.098" r="2.5" transform="rotate(-75 459.264 130.098)"/><circle cx="478.583" cy="135.275" r="2.5" transform="rotate(-75 478.583 135.275)"/><circle cx="468.923" cy="132.687" r="2.5" transform="rotate(-75 468.923 132.687)"/><circle cx="488.242" cy="137.863" r="2.5" transform="rotate(-75 488.242 137.863)"/><circle cx="461.852" cy="120.439" r="2.5" transform="rotate(-75 461.852 120.439)"/><circle cx="481.171" cy="125.616" r="2.5" transform="rotate(-75 481.171 125.616)"/><circle cx="471.512" cy="123.027" r="2.5" transform="rotate(-75 471.512 123.027)"/><circle cx="490.83" cy="128.204" r="2.5" transform="rotate(-75 490.83 128.204)"/><circle cx="464.44" cy="110.78" r="2.5" transform="rotate(-75 464.44 110.78)"/><circle cx="483.759" cy="115.956" r="2.5" transform="rotate(-75 483.759 115.956)"/><circle cx="474.1" cy="113.368" r="2.5" transform="rotate(-75 474.1 113.368)"/><circle cx="493.418" cy="118.544" r="2.5" transform="rotate(-75 493.418 118.544)"/><circle cx="467.029" cy="101.121" r="2.5" transform="rotate(-75 467.029 101.121)"/><circle cx="486.347" cy="106.297" r="2.5" transform="rotate(-75 486.347 106.297)"/><circle cx="476.688" cy="103.709" r="2.5" transform="rotate(-75 476.688 103.709)"/><circle cx="496.006" cy="108.885" r="2.5" transform="rotate(-75 496.006 108.885)"/><circle cx="469.617" cy="91.462" r="2.5" transform="rotate(-75 469.617 91.462)"/><circle cx="488.935" cy="96.638" r="2.5" transform="rotate(-75 488.935 96.638)"/><circle cx="479.276" cy="94.05" r="2.5" transform="rotate(-75 479.276 94.05)"/><circle cx="498.595" cy="99.226" r="2.5" transform="rotate(-75 498.595 99.226)"/><circle cx="497.901" cy="140.451" r="2.5" transform="rotate(-75 497.901 140.451)"/><circle cx="517.22" cy="145.628" r="2.5" transform="rotate(-75 517.22 145.628)"/><circle cx="507.56" cy="143.039" r="2.5" transform="rotate(-75 507.56 143.039)"/><circle cx="526.879" cy="148.216" r="2.5" transform="rotate(-75 526.879 148.216)"/><circle cx="500.489" cy="130.792" r="2.5" transform="rotate(-75 500.489 130.792)"/><circle cx="519.808" cy="135.968" r="2.5" transform="rotate(-75 519.808 135.968)"/><circle cx="510.149" cy="133.38" r="2.5" transform="rotate(-75 510.149 133.38)"/><circle cx="529.467" cy="138.556" r="2.5" transform="rotate(-75 529.467 138.556)"/><circle cx="503.077" cy="121.133" r="2.5" transform="rotate(-75 503.077 121.133)"/><circle cx="522.396" cy="126.309" r="2.5" transform="rotate(-75 522.396 126.309)"/><circle cx="512.737" cy="123.721" r="2.5" transform="rotate(-75 512.737 123.721)"/><circle cx="532.055" cy="128.897" r="2.5" transform="rotate(-75 532.055 128.897)"/><circle cx="505.666" cy="111.473" r="2.5" transform="rotate(-75 505.666 111.473)"/><circle cx="524.984" cy="116.65" r="2.5" transform="rotate(-75 524.984 116.65)"/><circle cx="515.325" cy="114.062" r="2.5" transform="rotate(-75 515.325 114.062)"/><circle cx="534.643" cy="119.238" r="2.5" transform="rotate(-75 534.643 119.238)"/><circle cx="508.254" cy="101.814" r="2.5" transform="rotate(-75 508.254 101.814)"/><circle cx="527.572" cy="106.991" r="2.5" transform="rotate(-75 527.572 106.991)"/><circle cx="517.913" cy="104.402" r="2.5" transform="rotate(-75 517.913 104.402)"/><circle cx="537.232" cy="109.579" r="2.5" transform="rotate(-75 537.232 109.579)"/><circle cx="381.99" cy="109.393" r="2.5" transform="rotate(-75 381.99 109.393)"/><circle cx="401.309" cy="114.569" r="2.5" transform="rotate(-75 401.309 114.569)"/><circle cx="391.649" cy="111.981" r="2.5" transform="rotate(-75 391.649 111.981)"/><circle cx="410.968" cy="117.158" r="2.5" transform="rotate(-75 410.968 117.158)"/><circle cx="384.578" cy="99.734" r="2.5" transform="rotate(-75 384.578 99.734)"/><circle cx="403.897" cy="104.91" r="2.5" transform="rotate(-75 403.897 104.91)"/><circle cx="394.238" cy="102.322" r="2.5" transform="rotate(-75 394.238 102.322)"/><circle cx="413.556" cy="107.498" r="2.5" transform="rotate(-75 413.556 107.498)"/><circle cx="387.166" cy="90.074" r="2.5" transform="rotate(-75 387.166 90.074)"/><circle cx="406.485" cy="95.251" r="2.5" transform="rotate(-75 406.485 95.25)"/><circle cx="396.826" cy="92.663" r="2.5" transform="rotate(-75 396.826 92.663)"/><circle cx="416.144" cy="97.839" r="2.5" transform="rotate(-75 416.144 97.839)"/><circle cx="389.755" cy="80.415" r="2.5" transform="rotate(-75 389.755 80.415)"/><circle cx="409.073" cy="85.591" r="2.5" transform="rotate(-75 409.073 85.591)"/><circle cx="399.414" cy="83.003" r="2.5" transform="rotate(-75 399.414 83.003)"/><circle cx="418.733" cy="88.18" r="2.5" transform="rotate(-75 418.733 88.18)"/><circle cx="392.343" cy="70.756" r="2.5" transform="rotate(-75 392.343 70.756)"/><circle cx="411.661" cy="75.932" r="2.5" transform="rotate(-75 411.661 75.932)"/><circle cx="402.002" cy="73.344" r="2.5" transform="rotate(-75 402.002 73.344)"/><circle cx="421.321" cy="78.52" r="2.5" transform="rotate(-75 421.321 78.52)"/><circle cx="420.627" cy="119.746" r="2.5" transform="rotate(-75 420.627 119.746)"/><circle cx="439.946" cy="124.922" r="2.5" transform="rotate(-75 439.946 124.922)"/><circle cx="430.286" cy="122.334" r="2.5" transform="rotate(-75 430.286 122.334)"/><circle cx="449.605" cy="127.51" r="2.5" transform="rotate(-75 449.605 127.51)"/><circle cx="423.215" cy="110.086" r="2.5" transform="rotate(-75 423.215 110.086)"/><circle cx="442.534" cy="115.263" r="2.5" transform="rotate(-75 442.534 115.263)"/><circle cx="432.875" cy="112.675" r="2.5" transform="rotate(-75 432.875 112.675)"/><circle cx="452.193" cy="117.851" r="2.5" transform="rotate(-75 452.193 117.851)"/><circle cx="425.803" cy="100.427" r="2.5" transform="rotate(-75 425.803 100.427)"/><circle cx="445.122" cy="105.604" r="2.5" transform="rotate(-75 445.122 105.604)"/><circle cx="435.463" cy="103.015" r="2.5" transform="rotate(-75 435.463 103.015)"/><circle cx="454.781" cy="108.192" r="2.5" transform="rotate(-75 454.781 108.192)"/><circle cx="428.392" cy="90.768" r="2.5" transform="rotate(-75 428.392 90.768)"/><circle cx="447.71" cy="95.944" r="2.5" transform="rotate(-75 447.71 95.944)"/><circle cx="438.051" cy="93.356" r="2.5" transform="rotate(-75 438.051 93.356)"/><circle cx="457.369" cy="98.532" r="2.5" transform="rotate(-75 457.369 98.532)"/><circle cx="430.98" cy="81.109" r="2.5" transform="rotate(-75 430.98 81.109)"/><circle cx="450.298" cy="86.285" r="2.5" transform="rotate(-75 450.298 86.285)"/><circle cx="440.639" cy="83.697" r="2.5" transform="rotate(-75 440.639 83.697)"/><circle cx="459.958" cy="88.873" r="2.5" transform="rotate(-75 459.958 88.873)"/><circle cx="536.538" cy="150.804" r="2.5" transform="rotate(-75 536.538 150.804)"/><circle cx="555.857" cy="155.98" r="2.5" transform="rotate(-75 555.857 155.98)"/><circle cx="546.197" cy="153.392" r="2.5" transform="rotate(-75 546.197 153.392)"/><circle cx="565.516" cy="158.568" r="2.5" transform="rotate(-75 565.516 158.568)"/><circle cx="539.126" cy="141.145" r="2.5" transform="rotate(-75 539.126 141.145)"/><circle cx="558.445" cy="146.321" r="2.5" transform="rotate(-75 558.445 146.321)"/><circle cx="548.786" cy="143.733" r="2.5" transform="rotate(-75 548.786 143.733)"/><circle cx="568.104" cy="148.909" r="2.5" transform="rotate(-75 568.104 148.909)"/><circle cx="541.714" cy="131.485" r="2.5" transform="rotate(-75 541.714 131.485)"/><circle cx="561.033" cy="136.662" r="2.5" transform="rotate(-75 561.033 136.662)"/><circle cx="551.374" cy="134.074" r="2.5" transform="rotate(-75 551.374 134.074)"/><circle cx="570.692" cy="139.25" r="2.5" transform="rotate(-75 570.692 139.25)"/><circle cx="544.303" cy="121.826" r="2.5" transform="rotate(-75 544.303 121.826)"/><circle cx="563.621" cy="127.002" r="2.5" transform="rotate(-75 563.621 127.002)"/><circle cx="553.962" cy="124.414" r="2.5" transform="rotate(-75 553.962 124.414)"/><circle cx="573.281" cy="129.591" r="2.5" transform="rotate(-75 573.281 129.591)"/><circle cx="546.891" cy="112.167" r="2.5" transform="rotate(-75 546.891 112.167)"/><circle cx="566.21" cy="117.343" r="2.5" transform="rotate(-75 566.21 117.343)"/><circle cx="556.55" cy="114.755" r="2.5" transform="rotate(-75 556.55 114.755)"/><circle cx="575.869" cy="119.931" r="2.5" transform="rotate(-75 575.869 119.931)"/><circle cx="575.175" cy="161.157" r="2.5" transform="rotate(-75 575.175 161.157)"/><circle cx="594.494" cy="166.333" r="2.5" transform="rotate(-75 594.494 166.333)"/><circle cx="584.834" cy="163.745" r="2.5" transform="rotate(-75 584.834 163.745)"/><circle cx="604.153" cy="168.921" r="2.5" transform="rotate(-75 604.153 168.921)"/><circle cx="577.763" cy="151.497" r="2.5" transform="rotate(-75 577.763 151.497)"/><circle cx="597.082" cy="156.674" r="2.5" transform="rotate(-75 597.082 156.674)"/><circle cx="587.423" cy="154.086" r="2.5" transform="rotate(-75 587.423 154.086)"/><circle cx="606.741" cy="159.262" r="2.5" transform="rotate(-75 606.741 159.262)"/><circle cx="580.351" cy="141.838" r="2.5" transform="rotate(-75 580.351 141.838)"/><circle cx="599.67" cy="147.014" r="2.5" transform="rotate(-75 599.67 147.014)"/><circle cx="590.011" cy="144.426" r="2.5" transform="rotate(-75 590.011 144.426)"/><circle cx="609.329" cy="149.603" r="2.5" transform="rotate(-75 609.329 149.603)"/><circle cx="582.94" cy="132.179" r="2.5" transform="rotate(-75 582.94 132.179)"/><circle cx="602.258" cy="137.355" r="2.5" transform="rotate(-75 602.258 137.355)"/><circle cx="592.599" cy="134.767" r="2.5" transform="rotate(-75 592.599 134.767)"/><circle cx="611.918" cy="139.943" r="2.5" transform="rotate(-75 611.918 139.943)"/><circle cx="585.528" cy="122.52" r="2.5" transform="rotate(-75 585.528 122.52)"/><circle cx="604.847" cy="127.696" r="2.5" transform="rotate(-75 604.847 127.696)"/><circle cx="595.187" cy="125.108" r="2.5" transform="rotate(-75 595.187 125.108)"/><circle cx="614.506" cy="130.284" r="2.5" transform="rotate(-75 614.506 130.284)"/><circle cx="613.812" cy="171.509" r="2.5" transform="rotate(-75 613.812 171.509)"/><circle cx="633.131" cy="176.686" r="2.5" transform="rotate(-75 633.131 176.686)"/><circle cx="623.471" cy="174.097" r="2.5" transform="rotate(-75 623.471 174.097)"/><circle cx="642.79" cy="179.274" r="2.5" transform="rotate(-75 642.79 179.274)"/><circle cx="616.4" cy="161.85" r="2.5" transform="rotate(-75 616.4 161.85)"/><circle cx="635.719" cy="167.026" r="2.5" transform="rotate(-75 635.719 167.026)"/><circle cx="626.06" cy="164.438" r="2.5" transform="rotate(-75 626.06 164.438)"/><circle cx="645.378" cy="169.615" r="2.5" transform="rotate(-75 645.378 169.615)"/><circle cx="618.988" cy="152.191" r="2.5" transform="rotate(-75 618.988 152.191)"/><circle cx="638.307" cy="157.367" r="2.5" transform="rotate(-75 638.307 157.367)"/><circle cx="628.648" cy="154.779" r="2.5" transform="rotate(-75 628.648 154.779)"/><circle cx="647.966" cy="159.955" r="2.5" transform="rotate(-75 647.966 159.955)"/><circle cx="621.577" cy="142.532" r="2.5" transform="rotate(-75 621.577 142.532)"/><circle cx="640.895" cy="147.708" r="2.5" transform="rotate(-75 640.895 147.708)"/><circle cx="631.236" cy="145.12" r="2.5" transform="rotate(-75 631.236 145.12)"/><circle cx="650.555" cy="150.296" r="2.5" transform="rotate(-75 650.555 150.296)"/><circle cx="624.165" cy="132.872" r="2.5" transform="rotate(-75 624.165 132.872)"/><circle cx="643.484" cy="138.049" r="2.5" transform="rotate(-75 643.484 138.049)"/><circle cx="633.824" cy="135.461" r="2.5" transform="rotate(-75 633.824 135.461)"/><circle cx="653.143" cy="140.637" r="2.5" transform="rotate(-75 653.143 140.637)"/><circle cx="652.449" cy="181.862" r="2.5" transform="rotate(-75 652.449 181.862)"/><circle cx="671.768" cy="187.038" r="2.5" transform="rotate(-75 671.768 187.038)"/><circle cx="662.108" cy="184.45" r="2.5" transform="rotate(-75 662.108 184.45)"/><circle cx="681.427" cy="189.627" r="2.5" transform="rotate(-75 681.427 189.627)"/><circle cx="655.037" cy="172.203" r="2.5" transform="rotate(-75 655.037 172.203)"/><circle cx="674.356" cy="177.379" r="2.5" transform="rotate(-75 674.356 177.379)"/><circle cx="664.697" cy="174.791" r="2.5" transform="rotate(-75 664.697 174.791)"/><circle cx="684.015" cy="179.967" r="2.5" transform="rotate(-75 684.015 179.967)"/><circle cx="657.625" cy="162.544" r="2.5" transform="rotate(-75 657.625 162.544)"/><circle cx="676.944" cy="167.72" r="2.5" transform="rotate(-75 676.944 167.72)"/><circle cx="667.285" cy="165.132" r="2.5" transform="rotate(-75 667.285 165.132)"/><circle cx="686.603" cy="170.308" r="2.5" transform="rotate(-75 686.603 170.308)"/><circle cx="660.214" cy="152.884" r="2.5" transform="rotate(-75 660.214 152.884)"/><circle cx="679.532" cy="158.061" r="2.5" transform="rotate(-75 679.532 158.061)"/><circle cx="669.873" cy="155.472" r="2.5" transform="rotate(-75 669.873 155.472)"/><circle cx="689.192" cy="160.649" r="2.5" transform="rotate(-75 689.192 160.649)"/><circle cx="662.802" cy="143.225" r="2.5" transform="rotate(-75 662.802 143.225)"/><circle cx="682.12" cy="148.401" r="2.5" transform="rotate(-75 682.12 148.401)"/><circle cx="672.461" cy="145.813" r="2.5" transform="rotate(-75 672.461 145.813)"/><circle cx="691.78" cy="150.99" r="2.5" transform="rotate(-75 691.78 150.99)"/><circle cx="768.36" cy="212.92" r="2.5" transform="rotate(-75 768.36 212.92)"/><circle cx="787.679" cy="218.097" r="2.5" transform="rotate(-75 787.679 218.097)"/><circle cx="778.019" cy="215.509" r="2.5" transform="rotate(-75 778.019 215.509)"/><circle cx="797.338" cy="220.685" r="2.5" transform="rotate(-75 797.338 220.685)"/><circle cx="770.948" cy="203.261" r="2.5" transform="rotate(-75 770.948 203.261)"/><circle cx="790.267" cy="208.438" r="2.5" transform="rotate(-75 790.267 208.438)"/><circle cx="780.608" cy="205.849" r="2.5" transform="rotate(-75 780.608 205.849)"/><circle cx="799.926" cy="211.026" r="2.5" transform="rotate(-75 799.926 211.026)"/><circle cx="773.536" cy="193.602" r="2.5" transform="rotate(-75 773.536 193.602)"/><circle cx="792.855" cy="198.778" r="2.5" transform="rotate(-75 792.855 198.778)"/><circle cx="783.196" cy="196.19" r="2.5" transform="rotate(-75 783.196 196.19)"/><circle cx="802.514" cy="201.367" r="2.5" transform="rotate(-75 802.514 201.367)"/><circle cx="776.125" cy="183.943" r="2.5" transform="rotate(-75 776.125 183.943)"/><circle cx="795.443" cy="189.119" r="2.5" transform="rotate(-75 795.443 189.119)"/><circle cx="785.784" cy="186.531" r="2.5" transform="rotate(-75 785.784 186.531)"/><circle cx="805.103" cy="191.707" r="2.5" transform="rotate(-75 805.103 191.707)"/><circle cx="778.713" cy="174.284" r="2.5" transform="rotate(-75 778.713 174.284)"/><circle cx="798.032" cy="179.46" r="2.5" transform="rotate(-75 798.032 179.46)"/><circle cx="788.372" cy="176.872" r="2.5" transform="rotate(-75 788.372 176.872)"/><circle cx="807.691" cy="182.048" r="2.5" transform="rotate(-75 807.691 182.048)"/><circle cx="806.997" cy="223.273" r="2.5" transform="rotate(-75 806.997 223.273)"/><circle cx="816.656" cy="225.861" r="2.5" transform="rotate(-75 816.656 225.861)"/><circle cx="809.585" cy="213.614" r="2.5" transform="rotate(-75 809.585 213.614)"/><circle cx="819.245" cy="216.202" r="2.5" transform="rotate(-75 819.245 216.202)"/><circle cx="812.173" cy="203.955" r="2.5" transform="rotate(-75 812.173 203.955)"/><circle cx="821.833" cy="206.543" r="2.5" transform="rotate(-75 821.833 206.543)"/><circle cx="814.762" cy="194.295" r="2.5" transform="rotate(-75 814.762 194.295)"/><circle cx="824.421" cy="196.884" r="2.5" transform="rotate(-75 824.421 196.884)"/><circle cx="817.35" cy="184.636" r="2.5" transform="rotate(-75 817.35 184.636)"/><circle cx="827.009" cy="187.224" r="2.5" transform="rotate(-75 827.009 187.224)"/><circle cx="691.086" cy="192.215" r="2.5" transform="rotate(-75 691.086 192.215)"/><circle cx="710.405" cy="197.391" r="2.5" transform="rotate(-75 710.405 197.391)"/><circle cx="700.745" cy="194.803" r="2.5" transform="rotate(-75 700.745 194.803)"/><circle cx="720.064" cy="199.98" r="2.5" transform="rotate(-75 720.064 199.98)"/><circle cx="693.674" cy="182.556" r="2.5" transform="rotate(-75 693.674 182.556)"/><circle cx="712.993" cy="187.732" r="2.5" transform="rotate(-75 712.993 187.732)"/><circle cx="703.334" cy="185.144" r="2.5" transform="rotate(-75 703.334 185.144)"/><circle cx="722.652" cy="190.32" r="2.5" transform="rotate(-75 722.652 190.32)"/><circle cx="696.263" cy="172.896" r="2.5" transform="rotate(-75 696.263 172.896)"/><circle cx="715.581" cy="178.073" r="2.5" transform="rotate(-75 715.581 178.073)"/><circle cx="705.922" cy="175.485" r="2.5" transform="rotate(-75 705.922 175.485)"/><circle cx="725.24" cy="180.661" r="2.5" transform="rotate(-75 725.24 180.661)"/><circle cx="698.851" cy="163.237" r="2.5" transform="rotate(-75 698.851 163.237)"/><circle cx="718.169" cy="168.413" r="2.5" transform="rotate(-75 718.169 168.413)"/><circle cx="708.51" cy="165.825" r="2.5" transform="rotate(-75 708.51 165.825)"/><circle cx="727.829" cy="171.002" r="2.5" transform="rotate(-75 727.829 171.002)"/><circle cx="701.439" cy="153.578" r="2.5" transform="rotate(-75 701.439 153.578)"/><circle cx="720.758" cy="158.754" r="2.5" transform="rotate(-75 720.758 158.754)"/><circle cx="711.098" cy="156.166" r="2.5" transform="rotate(-75 711.098 156.166)"/><circle cx="730.417" cy="161.342" r="2.5" transform="rotate(-75 730.417 161.342)"/><circle cx="729.723" cy="202.568" r="2.5" transform="rotate(-75 729.723 202.568)"/><circle cx="749.042" cy="207.744" r="2.5" transform="rotate(-75 749.042 207.744)"/><circle cx="739.382" cy="205.156" r="2.5" transform="rotate(-75 739.382 205.156)"/><circle cx="758.701" cy="210.332" r="2.5" transform="rotate(-75 758.701 210.332)"/><circle cx="732.311" cy="192.909" r="2.5" transform="rotate(-75 732.311 192.909)"/><circle cx="751.63" cy="198.085" r="2.5" transform="rotate(-75 751.63 198.085)"/><circle cx="741.971" cy="195.497" r="2.5" transform="rotate(-75 741.971 195.497)"/><circle cx="761.289" cy="200.673" r="2.5" transform="rotate(-75 761.289 200.673)"/><circle cx="734.9" cy="183.249" r="2.5" transform="rotate(-75 734.9 183.249)"/><circle cx="754.218" cy="188.426" r="2.5" transform="rotate(-75 754.218 188.426)"/><circle cx="744.559" cy="185.837" r="2.5" transform="rotate(-75 744.559 185.837)"/><circle cx="763.877" cy="191.014" r="2.5" transform="rotate(-75 763.877 191.014)"/><circle cx="737.488" cy="173.59" r="2.5" transform="rotate(-75 737.488 173.59)"/><circle cx="756.806" cy="178.766" r="2.5" transform="rotate(-75 756.806 178.766)"/><circle cx="747.147" cy="176.178" r="2.5" transform="rotate(-75 747.147 176.178)"/><circle cx="766.466" cy="181.355" r="2.5" transform="rotate(-75 766.466 181.355)"/><circle cx="740.076" cy="163.931" r="2.5" transform="rotate(-75 740.076 163.931)"/><circle cx="759.395" cy="169.107" r="2.5" transform="rotate(-75 759.395 169.107)"/><circle cx="749.735" cy="166.519" r="2.5" transform="rotate(-75 749.735 166.519)"/><circle cx="769.054" cy="171.695" r="2.5" transform="rotate(-75 769.054 171.695)"/><circle cx="177.895" cy="561.991" r="2.5" transform="rotate(-75 177.895 561.991)"/><circle cx="197.213" cy="567.167" r="2.5" transform="rotate(-75 197.213 567.167)"/><circle cx="187.554" cy="564.579" r="2.5" transform="rotate(-75 187.554 564.579)"/><circle cx="206.872" cy="569.755" r="2.5" transform="rotate(-75 206.872 569.755)"/><circle cx="180.483" cy="552.332" r="2.5" transform="rotate(-75 180.483 552.332)"/><circle cx="199.801" cy="557.508" r="2.5" transform="rotate(-75 199.801 557.508)"/><circle cx="190.142" cy="554.92" r="2.5" transform="rotate(-75 190.142 554.92)"/><circle cx="209.461" cy="560.096" r="2.5" transform="rotate(-75 209.461 560.096)"/><circle cx="183.071" cy="542.672" r="2.5" transform="rotate(-75 183.071 542.672)"/><circle cx="202.389" cy="547.849" r="2.5" transform="rotate(-75 202.389 547.849)"/><circle cx="192.73" cy="545.261" r="2.5" transform="rotate(-75 192.73 545.261)"/><circle cx="212.049" cy="550.437" r="2.5" transform="rotate(-75 212.049 550.437)"/><circle cx="185.659" cy="533.013" r="2.5" transform="rotate(-75 185.659 533.013)"/><circle cx="204.978" cy="538.189" r="2.5" transform="rotate(-75 204.978 538.189)"/><circle cx="195.318" cy="535.601" r="2.5" transform="rotate(-75 195.318 535.601)"/><circle cx="214.637" cy="540.778" r="2.5" transform="rotate(-75 214.637 540.778)"/><circle cx="188.247" cy="523.354" r="2.5" transform="rotate(-75 188.247 523.354)"/><circle cx="207.566" cy="528.53" r="2.5" transform="rotate(-75 207.566 528.53)"/><circle cx="197.907" cy="525.942" r="2.5" transform="rotate(-75 197.907 525.942)"/><circle cx="217.225" cy="531.118" r="2.5" transform="rotate(-75 217.225 531.118)"/><circle cx="216.532" cy="572.344" r="2.5" transform="rotate(-75 216.532 572.344)"/><circle cx="235.85" cy="577.52" r="2.5" transform="rotate(-75 235.85 577.52)"/><circle cx="226.191" cy="574.932" r="2.5" transform="rotate(-75 226.191 574.932)"/><circle cx="245.509" cy="580.108" r="2.5" transform="rotate(-75 245.509 580.108)"/><circle cx="219.12" cy="562.684" r="2.5" transform="rotate(-75 219.12 562.684)"/><circle cx="238.438" cy="567.861" r="2.5" transform="rotate(-75 238.438 567.861)"/><circle cx="228.779" cy="565.273" r="2.5" transform="rotate(-75 228.779 565.273)"/><circle cx="248.098" cy="570.449" r="2.5" transform="rotate(-75 248.098 570.449)"/><circle cx="221.708" cy="553.025" r="2.5" transform="rotate(-75 221.708 553.025)"/><circle cx="241.026" cy="558.201" r="2.5" transform="rotate(-75 241.026 558.201)"/><circle cx="231.367" cy="555.613" r="2.5" transform="rotate(-75 231.367 555.613)"/><circle cx="250.686" cy="560.79" r="2.5" transform="rotate(-75 250.686 560.79)"/><circle cx="224.296" cy="543.366" r="2.5" transform="rotate(-75 224.296 543.366)"/><circle cx="243.615" cy="548.542" r="2.5" transform="rotate(-75 243.615 548.542)"/><circle cx="233.955" cy="545.954" r="2.5" transform="rotate(-75 233.955 545.954)"/><circle cx="253.274" cy="551.13" r="2.5" transform="rotate(-75 253.274 551.13)"/><circle cx="226.884" cy="533.707" r="2.5" transform="rotate(-75 226.884 533.707)"/><circle cx="246.203" cy="538.883" r="2.5" transform="rotate(-75 246.203 538.883)"/><circle cx="236.544" cy="536.295" r="2.5" transform="rotate(-75 236.544 536.295)"/><circle cx="255.862" cy="541.471" r="2.5" transform="rotate(-75 255.862 541.471)"/><circle cx="332.443" cy="603.402" r="2.5" transform="rotate(-75 332.443 603.402)"/><circle cx="351.761" cy="608.578" r="2.5" transform="rotate(-75 351.761 608.578)"/><circle cx="342.102" cy="605.99" r="2.5" transform="rotate(-75 342.102 605.99)"/><circle cx="361.421" cy="611.167" r="2.5" transform="rotate(-75 361.421 611.167)"/><circle cx="335.031" cy="593.743" r="2.5" transform="rotate(-75 335.031 593.743)"/><circle cx="354.349" cy="598.919" r="2.5" transform="rotate(-75 354.349 598.919)"/><circle cx="344.69" cy="596.331" r="2.5" transform="rotate(-75 344.69 596.331)"/><circle cx="364.009" cy="601.507" r="2.5" transform="rotate(-75 364.009 601.507)"/><circle cx="337.619" cy="584.083" r="2.5" transform="rotate(-75 337.619 584.083)"/><circle cx="356.938" cy="589.26" r="2.5" transform="rotate(-75 356.938 589.26)"/><circle cx="347.278" cy="586.672" r="2.5" transform="rotate(-75 347.278 586.672)"/><circle cx="366.597" cy="591.848" r="2.5" transform="rotate(-75 366.597 591.848)"/><circle cx="340.207" cy="574.424" r="2.5" transform="rotate(-75 340.207 574.424)"/><circle cx="359.526" cy="579.6" r="2.5" transform="rotate(-75 359.526 579.6)"/><circle cx="349.867" cy="577.012" r="2.5" transform="rotate(-75 349.867 577.012)"/><circle cx="369.185" cy="582.189" r="2.5" transform="rotate(-75 369.185 582.189)"/><circle cx="342.796" cy="564.765" r="2.5" transform="rotate(-75 342.796 564.765)"/><circle cx="362.114" cy="569.941" r="2.5" transform="rotate(-75 362.114 569.941)"/><circle cx="352.455" cy="567.353" r="2.5" transform="rotate(-75 352.455 567.353)"/><circle cx="371.773" cy="572.529" r="2.5" transform="rotate(-75 371.773 572.529)"/><circle cx="371.08" cy="613.755" r="2.5" transform="rotate(-75 371.08 613.755)"/><circle cx="390.398" cy="618.931" r="2.5" transform="rotate(-75 390.398 618.931)"/><circle cx="380.739" cy="616.343" r="2.5" transform="rotate(-75 380.739 616.343)"/><circle cx="400.057" cy="621.519" r="2.5" transform="rotate(-75 400.057 621.519)"/><circle cx="373.668" cy="604.096" r="2.5" transform="rotate(-75 373.668 604.096)"/><circle cx="392.986" cy="609.272" r="2.5" transform="rotate(-75 392.986 609.272)"/><circle cx="383.327" cy="606.684" r="2.5" transform="rotate(-75 383.327 606.684)"/><circle cx="402.646" cy="611.86" r="2.5" transform="rotate(-75 402.646 611.86)"/><circle cx="376.256" cy="594.436" r="2.5" transform="rotate(-75 376.256 594.436)"/><circle cx="395.575" cy="599.613" r="2.5" transform="rotate(-75 395.575 599.613)"/><circle cx="385.915" cy="597.024" r="2.5" transform="rotate(-75 385.915 597.024)"/><circle cx="405.234" cy="602.201" r="2.5" transform="rotate(-75 405.234 602.201)"/><circle cx="378.844" cy="584.777" r="2.5" transform="rotate(-75 378.844 584.777)"/><circle cx="398.163" cy="589.953" r="2.5" transform="rotate(-75 398.163 589.953)"/><circle cx="388.504" cy="587.365" r="2.5" transform="rotate(-75 388.504 587.365)"/><circle cx="407.822" cy="592.542" r="2.5" transform="rotate(-75 407.822 592.542)"/><circle cx="381.432" cy="575.118" r="2.5" transform="rotate(-75 381.432 575.118)"/><circle cx="400.751" cy="580.294" r="2.5" transform="rotate(-75 400.751 580.294)"/><circle cx="391.092" cy="577.706" r="2.5" transform="rotate(-75 391.092 577.706)"/><circle cx="410.41" cy="582.882" r="2.5" transform="rotate(-75 410.41 582.882)"/><circle cx="255.169" cy="582.696" r="2.5" transform="rotate(-75 255.169 582.696)"/><circle cx="274.487" cy="587.873" r="2.5" transform="rotate(-75 274.487 587.873)"/><circle cx="264.828" cy="585.284" r="2.5" transform="rotate(-75 264.828 585.284)"/><circle cx="284.147" cy="590.461" r="2.5" transform="rotate(-75 284.147 590.461)"/><circle cx="257.757" cy="573.037" r="2.5" transform="rotate(-75 257.757 573.037)"/><circle cx="277.076" cy="578.213" r="2.5" transform="rotate(-75 277.076 578.213)"/><circle cx="267.416" cy="575.625" r="2.5" transform="rotate(-75 267.416 575.625)"/><circle cx="286.735" cy="580.802" r="2.5" transform="rotate(-75 286.735 580.802)"/><circle cx="260.345" cy="563.378" r="2.5" transform="rotate(-75 260.345 563.378)"/><circle cx="279.664" cy="568.554" r="2.5" transform="rotate(-75 279.664 568.554)"/><circle cx="270.004" cy="565.966" r="2.5" transform="rotate(-75 270.004 565.966)"/><circle cx="289.323" cy="571.142" r="2.5" transform="rotate(-75 289.323 571.142)"/><circle cx="262.933" cy="553.719" r="2.5" transform="rotate(-75 262.933 553.719)"/><circle cx="282.252" cy="558.895" r="2.5" transform="rotate(-75 282.252 558.895)"/><circle cx="272.593" cy="556.307" r="2.5" transform="rotate(-75 272.593 556.307)"/><circle cx="291.911" cy="561.483" r="2.5" transform="rotate(-75 291.911 561.483)"/><circle cx="265.522" cy="544.059" r="2.5" transform="rotate(-75 265.522 544.059)"/><circle cx="284.84" cy="549.236" r="2.5" transform="rotate(-75 284.84 549.236)"/><circle cx="275.181" cy="546.648" r="2.5" transform="rotate(-75 275.181 546.648)"/><circle cx="294.499" cy="551.824" r="2.5" transform="rotate(-75 294.499 551.824)"/><circle cx="293.806" cy="593.049" r="2.5" transform="rotate(-75 293.806 593.049)"/><circle cx="313.124" cy="598.225" r="2.5" transform="rotate(-75 313.124 598.225)"/><circle cx="303.465" cy="595.637" r="2.5" transform="rotate(-75 303.465 595.637)"/><circle cx="322.784" cy="600.814" r="2.5" transform="rotate(-75 322.784 600.814)"/><circle cx="296.394" cy="583.39" r="2.5" transform="rotate(-75 296.394 583.39)"/><circle cx="315.712" cy="588.566" r="2.5" transform="rotate(-75 315.712 588.566)"/><circle cx="306.053" cy="585.978" r="2.5" transform="rotate(-75 306.053 585.978)"/><circle cx="325.372" cy="591.154" r="2.5" transform="rotate(-75 325.372 591.154)"/><circle cx="298.982" cy="573.731" r="2.5" transform="rotate(-75 298.982 573.731)"/><circle cx="318.301" cy="578.907" r="2.5" transform="rotate(-75 318.301 578.907)"/><circle cx="308.641" cy="576.319" r="2.5" transform="rotate(-75 308.641 576.319)"/><circle cx="327.96" cy="581.495" r="2.5" transform="rotate(-75 327.96 581.495)"/><circle cx="301.57" cy="564.071" r="2.5" transform="rotate(-75 301.57 564.071)"/><circle cx="320.889" cy="569.248" r="2.5" transform="rotate(-75 320.889 569.248)"/><circle cx="311.23" cy="566.659" r="2.5" transform="rotate(-75 311.23 566.659)"/><circle cx="330.548" cy="571.836" r="2.5" transform="rotate(-75 330.548 571.836)"/><circle cx="304.159" cy="554.412" r="2.5" transform="rotate(-75 304.159 554.412)"/><circle cx="323.477" cy="559.588" r="2.5" transform="rotate(-75 323.477 559.588)"/><circle cx="313.818" cy="557" r="2.5" transform="rotate(-75 313.818 557)"/><circle cx="333.136" cy="562.177" r="2.5" transform="rotate(-75 333.136 562.177)"/><circle cx="409.717" cy="624.107" r="2.5" transform="rotate(-75 409.717 624.107)"/><circle cx="429.035" cy="629.284" r="2.5" transform="rotate(-75 429.035 629.284)"/><circle cx="419.376" cy="626.695" r="2.5" transform="rotate(-75 419.376 626.695)"/><circle cx="438.695" cy="631.872" r="2.5" transform="rotate(-75 438.695 631.872)"/><circle cx="412.305" cy="614.448" r="2.5" transform="rotate(-75 412.305 614.448)"/><circle cx="431.624" cy="619.624" r="2.5" transform="rotate(-75 431.624 619.624)"/><circle cx="421.964" cy="617.036" r="2.5" transform="rotate(-75 421.964 617.036)"/><circle cx="441.283" cy="622.212" r="2.5" transform="rotate(-75 441.283 622.212)"/><circle cx="414.893" cy="604.789" r="2.5" transform="rotate(-75 414.893 604.789)"/><circle cx="434.212" cy="609.965" r="2.5" transform="rotate(-75 434.212 609.965)"/><circle cx="424.553" cy="607.377" r="2.5" transform="rotate(-75 424.553 607.377)"/><circle cx="443.871" cy="612.553" r="2.5" transform="rotate(-75 443.871 612.553)"/><circle cx="417.482" cy="595.129" r="2.5" transform="rotate(-75 417.482 595.129)"/><circle cx="436.8" cy="600.306" r="2.5" transform="rotate(-75 436.8 600.306)"/><circle cx="427.141" cy="597.718" r="2.5" transform="rotate(-75 427.141 597.718)"/><circle cx="446.459" cy="602.894" r="2.5" transform="rotate(-75 446.459 602.894)"/><circle cx="420.07" cy="585.47" r="2.5" transform="rotate(-75 420.07 585.47)"/><circle cx="439.388" cy="590.647" r="2.5" transform="rotate(-75 439.388 590.647)"/><circle cx="429.729" cy="588.058" r="2.5" transform="rotate(-75 429.729 588.058)"/><circle cx="449.047" cy="593.235" r="2.5" transform="rotate(-75 449.047 593.235)"/><circle cx="448.354" cy="634.46" r="2.5" transform="rotate(-75 448.354 634.46)"/><circle cx="467.672" cy="639.636" r="2.5" transform="rotate(-75 467.672 639.636)"/><circle cx="458.013" cy="637.048" r="2.5" transform="rotate(-75 458.013 637.048)"/><circle cx="477.332" cy="642.225" r="2.5" transform="rotate(-75 477.332 642.225)"/><circle cx="450.942" cy="624.801" r="2.5" transform="rotate(-75 450.942 624.801)"/><circle cx="470.261" cy="629.977" r="2.5" transform="rotate(-75 470.261 629.977)"/><circle cx="460.601" cy="627.389" r="2.5" transform="rotate(-75 460.601 627.389)"/><circle cx="479.92" cy="632.565" r="2.5" transform="rotate(-75 479.92 632.565)"/><circle cx="453.53" cy="615.141" r="2.5" transform="rotate(-75 453.53 615.141)"/><circle cx="472.849" cy="620.318" r="2.5" transform="rotate(-75 472.849 620.318)"/><circle cx="463.19" cy="617.73" r="2.5" transform="rotate(-75 463.19 617.73)"/><circle cx="482.508" cy="622.906" r="2.5" transform="rotate(-75 482.508 622.906)"/><circle cx="456.118" cy="605.482" r="2.5" transform="rotate(-75 456.118 605.482)"/><circle cx="475.437" cy="610.659" r="2.5" transform="rotate(-75 475.437 610.659)"/><circle cx="465.778" cy="608.07" r="2.5" transform="rotate(-75 465.778 608.07)"/><circle cx="485.096" cy="613.247" r="2.5" transform="rotate(-75 485.096 613.247)"/><circle cx="458.707" cy="595.823" r="2.5" transform="rotate(-75 458.707 595.823)"/><circle cx="478.025" cy="600.999" r="2.5" transform="rotate(-75 478.025 600.999)"/><circle cx="468.366" cy="598.411" r="2.5" transform="rotate(-75 468.366 598.411)"/><circle cx="487.684" cy="603.587" r="2.5" transform="rotate(-75 487.684 603.587)"/><circle cx="486.991" cy="644.813" r="2.5" transform="rotate(-75 486.991 644.813)"/><circle cx="506.309" cy="649.989" r="2.5" transform="rotate(-75 506.309 649.989)"/><circle cx="496.65" cy="647.401" r="2.5" transform="rotate(-75 496.65 647.401)"/><circle cx="515.969" cy="652.577" r="2.5" transform="rotate(-75 515.969 652.577)"/><circle cx="489.579" cy="635.154" r="2.5" transform="rotate(-75 489.579 635.154)"/><circle cx="508.898" cy="640.33" r="2.5" transform="rotate(-75 508.898 640.33)"/><circle cx="499.238" cy="637.742" r="2.5" transform="rotate(-75 499.238 637.742)"/><circle cx="518.557" cy="642.918" r="2.5" transform="rotate(-75 518.557 642.918)"/><circle cx="492.167" cy="625.494" r="2.5" transform="rotate(-75 492.167 625.494)"/><circle cx="511.486" cy="630.671" r="2.5" transform="rotate(-75 511.486 630.671)"/><circle cx="501.827" cy="628.083" r="2.5" transform="rotate(-75 501.827 628.083)"/><circle cx="521.145" cy="633.259" r="2.5" transform="rotate(-75 521.145 633.259)"/><circle cx="494.755" cy="615.835" r="2.5" transform="rotate(-75 494.755 615.835)"/><circle cx="514.074" cy="621.011" r="2.5" transform="rotate(-75 514.074 621.011)"/><circle cx="504.415" cy="618.423" r="2.5" transform="rotate(-75 504.415 618.423)"/><circle cx="523.733" cy="623.6" r="2.5" transform="rotate(-75 523.733 623.6)"/><circle cx="497.344" cy="606.176" r="2.5" transform="rotate(-75 497.344 606.176)"/><circle cx="516.662" cy="611.352" r="2.5" transform="rotate(-75 516.662 611.352)"/><circle cx="507.003" cy="608.764" r="2.5" transform="rotate(-75 507.003 608.764)"/><circle cx="526.321" cy="613.94" r="2.5" transform="rotate(-75 526.321 613.94)"/><circle cx="525.628" cy="655.166" r="2.5" transform="rotate(-75 525.628 655.166)"/><circle cx="544.946" cy="660.342" r="2.5" transform="rotate(-75 544.946 660.342)"/><circle cx="535.287" cy="657.754" r="2.5" transform="rotate(-75 535.287 657.754)"/><circle cx="554.606" cy="662.93" r="2.5" transform="rotate(-75 554.606 662.93)"/><circle cx="528.216" cy="645.506" r="2.5" transform="rotate(-75 528.216 645.506)"/><circle cx="547.535" cy="650.683" r="2.5" transform="rotate(-75 547.535 650.683)"/><circle cx="537.875" cy="648.095" r="2.5" transform="rotate(-75 537.875 648.095)"/><circle cx="557.194" cy="653.271" r="2.5" transform="rotate(-75 557.194 653.271)"/><circle cx="530.804" cy="635.847" r="2.5" transform="rotate(-75 530.804 635.847)"/><circle cx="550.123" cy="641.023" r="2.5" transform="rotate(-75 550.123 641.023)"/><circle cx="540.464" cy="638.435" r="2.5" transform="rotate(-75 540.464 638.435)"/><circle cx="559.782" cy="643.612" r="2.5" transform="rotate(-75 559.782 643.612)"/><circle cx="533.392" cy="626.188" r="2.5" transform="rotate(-75 533.392 626.188)"/><circle cx="552.711" cy="631.364" r="2.5" transform="rotate(-75 552.711 631.364)"/><circle cx="543.052" cy="628.776" r="2.5" transform="rotate(-75 543.052 628.776)"/><circle cx="562.37" cy="633.952" r="2.5" transform="rotate(-75 562.37 633.952)"/><circle cx="535.981" cy="616.529" r="2.5" transform="rotate(-75 535.981 616.529)"/><circle cx="555.299" cy="621.705" r="2.5" transform="rotate(-75 555.299 621.705)"/><circle cx="545.64" cy="619.117" r="2.5" transform="rotate(-75 545.64 619.117)"/><circle cx="564.958" cy="624.293" r="2.5" transform="rotate(-75 564.958 624.293)"/><circle cx="641.539" cy="686.224" r="2.5" transform="rotate(-75 641.539 686.224)"/><circle cx="660.858" cy="691.4" r="2.5" transform="rotate(-75 660.858 691.4)"/><circle cx="651.198" cy="688.812" r="2.5" transform="rotate(-75 651.198 688.812)"/><circle cx="670.517" cy="693.989" r="2.5" transform="rotate(-75 670.517 693.989)"/><circle cx="644.127" cy="676.565" r="2.5" transform="rotate(-75 644.127 676.565)"/><circle cx="663.446" cy="681.741" r="2.5" transform="rotate(-75 663.446 681.741)"/><circle cx="653.786" cy="679.153" r="2.5" transform="rotate(-75 653.786 679.153)"/><circle cx="673.105" cy="684.329" r="2.5" transform="rotate(-75 673.105 684.329)"/><circle cx="646.715" cy="666.905" r="2.5" transform="rotate(-75 646.715 666.905)"/><circle cx="666.034" cy="672.082" r="2.5" transform="rotate(-75 666.034 672.082)"/><circle cx="656.375" cy="669.494" r="2.5" transform="rotate(-75 656.375 669.494)"/><circle cx="675.693" cy="674.67" r="2.5" transform="rotate(-75 675.693 674.67)"/><circle cx="649.304" cy="657.246" r="2.5" transform="rotate(-75 649.304 657.246)"/><circle cx="668.622" cy="662.422" r="2.5" transform="rotate(-75 668.622 662.422)"/><circle cx="658.963" cy="659.834" r="2.5" transform="rotate(-75 658.963 659.834)"/><circle cx="678.281" cy="665.011" r="2.5" transform="rotate(-75 678.281 665.011)"/><circle cx="651.892" cy="647.587" r="2.5" transform="rotate(-75 651.892 647.587)"/><circle cx="671.21" cy="652.763" r="2.5" transform="rotate(-75 671.21 652.763)"/><circle cx="661.551" cy="650.175" r="2.5" transform="rotate(-75 661.551 650.175)"/><circle cx="680.87" cy="655.351" r="2.5" transform="rotate(-75 680.87 655.351)"/><circle cx="680.176" cy="696.577" r="2.5" transform="rotate(-75 680.176 696.577)"/><circle cx="689.835" cy="699.165" r="2.5" transform="rotate(-75 689.835 699.165)"/><circle cx="682.764" cy="686.918" r="2.5" transform="rotate(-75 682.764 686.918)"/><circle cx="692.423" cy="689.506" r="2.5" transform="rotate(-75 692.423 689.506)"/><circle cx="685.352" cy="677.258" r="2.5" transform="rotate(-75 685.352 677.258)"/><circle cx="695.012" cy="679.846" r="2.5" transform="rotate(-75 695.012 679.846)"/><circle cx="687.941" cy="667.599" r="2.5" transform="rotate(-75 687.941 667.599)"/><circle cx="697.6" cy="670.187" r="2.5" transform="rotate(-75 697.6 670.187)"/><circle cx="690.529" cy="657.94" r="2.5" transform="rotate(-75 690.529 657.94)"/><circle cx="700.188" cy="660.528" r="2.5" transform="rotate(-75 700.188 660.528)"/><circle cx="564.265" cy="665.518" r="2.5" transform="rotate(-75 564.265 665.518)"/><circle cx="583.584" cy="670.695" r="2.5" transform="rotate(-75 583.584 670.695)"/><circle cx="573.924" cy="668.107" r="2.5" transform="rotate(-75 573.924 668.107)"/><circle cx="593.243" cy="673.283" r="2.5" transform="rotate(-75 593.243 673.283)"/><circle cx="566.853" cy="655.859" r="2.5" transform="rotate(-75 566.853 655.859)"/><circle cx="586.172" cy="661.035" r="2.5" transform="rotate(-75 586.172 661.035)"/><circle cx="576.513" cy="658.447" r="2.5" transform="rotate(-75 576.513 658.447)"/><circle cx="595.831" cy="663.624" r="2.5" transform="rotate(-75 595.831 663.624)"/><circle cx="569.441" cy="646.2" r="2.5" transform="rotate(-75 569.441 646.2)"/><circle cx="588.76" cy="651.376" r="2.5" transform="rotate(-75 588.76 651.376)"/><circle cx="579.101" cy="648.788" r="2.5" transform="rotate(-75 579.101 648.788)"/><circle cx="598.419" cy="653.964" r="2.5" transform="rotate(-75 598.419 653.964)"/><circle cx="572.03" cy="636.541" r="2.5" transform="rotate(-75 572.03 636.541)"/><circle cx="591.348" cy="641.717" r="2.5" transform="rotate(-75 591.348 641.717)"/><circle cx="581.689" cy="639.129" r="2.5" transform="rotate(-75 581.689 639.129)"/><circle cx="601.007" cy="644.305" r="2.5" transform="rotate(-75 601.007 644.305)"/><circle cx="574.618" cy="626.881" r="2.5" transform="rotate(-75 574.618 626.881)"/><circle cx="593.936" cy="632.058" r="2.5" transform="rotate(-75 593.936 632.058)"/><circle cx="584.277" cy="629.47" r="2.5" transform="rotate(-75 584.277 629.47)"/><circle cx="603.596" cy="634.646" r="2.5" transform="rotate(-75 603.596 634.646)"/><circle cx="602.902" cy="675.871" r="2.5" transform="rotate(-75 602.902 675.871)"/><circle cx="622.221" cy="681.047" r="2.5" transform="rotate(-75 622.221 681.047)"/><circle cx="612.561" cy="678.459" r="2.5" transform="rotate(-75 612.561 678.459)"/><circle cx="631.88" cy="683.636" r="2.5" transform="rotate(-75 631.88 683.636)"/><circle cx="605.49" cy="666.212" r="2.5" transform="rotate(-75 605.49 666.212)"/><circle cx="624.809" cy="671.388" r="2.5" transform="rotate(-75 624.809 671.388)"/><circle cx="615.15" cy="668.8" r="2.5" transform="rotate(-75 615.15 668.8)"/><circle cx="634.468" cy="673.976" r="2.5" transform="rotate(-75 634.468 673.976)"/><circle cx="608.078" cy="656.553" r="2.5" transform="rotate(-75 608.078 656.553)"/><circle cx="627.397" cy="661.729" r="2.5" transform="rotate(-75 627.397 661.729)"/><circle cx="617.738" cy="659.141" r="2.5" transform="rotate(-75 617.738 659.141)"/><circle cx="637.056" cy="664.317" r="2.5" transform="rotate(-75 637.056 664.317)"/><circle cx="610.667" cy="646.893" r="2.5" transform="rotate(-75 610.667 646.893)"/><circle cx="629.985" cy="652.07" r="2.5" transform="rotate(-75 629.985 652.07)"/><circle cx="620.326" cy="649.482" r="2.5" transform="rotate(-75 620.326 649.482)"/><circle cx="639.644" cy="654.658" r="2.5" transform="rotate(-75 639.644 654.658)"/><circle cx="613.255" cy="637.234" r="2.5" transform="rotate(-75 613.255 637.234)"/><circle cx="632.573" cy="642.41" r="2.5" transform="rotate(-75 632.573 642.41)"/><circle cx="622.914" cy="639.822" r="2.5" transform="rotate(-75 622.914 639.822)"/><circle cx="642.233" cy="644.999" r="2.5" transform="rotate(-75 642.233 644.999)"/><circle cx="245.795" cy="72.899" r="2.5" transform="rotate(-75 245.795 72.9)"/><circle cx="265.113" cy="78.076" r="2.5" transform="rotate(-75 265.113 78.076)"/><circle cx="255.454" cy="75.487" r="2.5" transform="rotate(-75 255.454 75.487)"/><circle cx="274.772" cy="80.664" r="2.5" transform="rotate(-75 274.772 80.664)"/><circle cx="248.383" cy="63.24" r="2.5" transform="rotate(-75 248.383 63.24)"/><circle cx="267.701" cy="68.416" r="2.5" transform="rotate(-75 267.701 68.416)"/><circle cx="258.042" cy="65.828" r="2.5" transform="rotate(-75 258.042 65.828)"/><circle cx="277.36" cy="71.004" r="2.5" transform="rotate(-75 277.36 71.004)"/><circle cx="250.971" cy="53.581" r="2.5" transform="rotate(-75 250.971 53.58)"/><circle cx="270.289" cy="58.757" r="2.5" transform="rotate(-75 270.289 58.757)"/><circle cx="260.63" cy="56.169" r="2.5" transform="rotate(-75 260.63 56.169)"/><circle cx="279.949" cy="61.345" r="2.5" transform="rotate(-75 279.949 61.345)"/><circle cx="253.559" cy="43.921" r="2.5" transform="rotate(-75 253.559 43.921)"/><circle cx="272.878" cy="49.098" r="2.5" transform="rotate(-75 272.878 49.098)"/><circle cx="263.218" cy="46.51" r="2.5" transform="rotate(-75 263.218 46.51)"/><circle cx="282.537" cy="51.686" r="2.5" transform="rotate(-75 282.537 51.686)"/><circle cx="256.147" cy="34.262" r="2.5" transform="rotate(-75 256.147 34.262)"/><circle cx="275.466" cy="39.438" r="2.5" transform="rotate(-75 275.466 39.438)"/><circle cx="265.806" cy="36.85" r="2.5" transform="rotate(-75 265.806 36.85)"/><circle cx="285.125" cy="42.027" r="2.5" transform="rotate(-75 285.125 42.027)"/><circle cx="284.431" cy="83.252" r="2.5" transform="rotate(-75 284.431 83.252)"/><circle cx="294.091" cy="85.84" r="2.5" transform="rotate(-75 294.091 85.84)"/><circle cx="287.02" cy="73.593" r="2.5" transform="rotate(-75 287.02 73.593)"/><circle cx="296.679" cy="76.181" r="2.5" transform="rotate(-75 296.679 76.181)"/><circle cx="289.608" cy="63.933" r="2.5" transform="rotate(-75 289.608 63.933)"/><circle cx="299.267" cy="66.522" r="2.5" transform="rotate(-75 299.267 66.522)"/><circle cx="292.196" cy="54.274" r="2.5" transform="rotate(-75 292.196 54.274)"/><circle cx="301.855" cy="56.862" r="2.5" transform="rotate(-75 301.855 56.862)"/><circle cx="294.784" cy="44.615" r="2.5" transform="rotate(-75 294.784 44.615)"/><circle cx="304.443" cy="47.203" r="2.5" transform="rotate(-75 304.443 47.203)"/><circle cx="168.52" cy="52.194" r="2.5" transform="rotate(-75 168.52 52.194)"/><circle cx="187.839" cy="57.37" r="2.5" transform="rotate(-75 187.839 57.37)"/><circle cx="178.18" cy="54.782" r="2.5" transform="rotate(-75 178.18 54.782)"/><circle cx="197.498" cy="59.958" r="2.5" transform="rotate(-75 197.498 59.958)"/><circle cx="171.108" cy="42.535" r="2.5" transform="rotate(-75 171.108 42.535)"/><circle cx="190.427" cy="47.711" r="2.5" transform="rotate(-75 190.427 47.71)"/><circle cx="180.768" cy="45.123" r="2.5" transform="rotate(-75 180.768 45.123)"/><circle cx="200.086" cy="50.299" r="2.5" transform="rotate(-75 200.086 50.299)"/><circle cx="173.697" cy="32.875" r="2.5" transform="rotate(-75 173.697 32.875)"/><circle cx="193.015" cy="38.052" r="2.5" transform="rotate(-75 193.015 38.052)"/><circle cx="183.356" cy="35.463" r="2.5" transform="rotate(-75 183.356 35.463)"/><circle cx="202.674" cy="40.64" r="2.5" transform="rotate(-75 202.674 40.64)"/><circle cx="176.285" cy="23.216" r="2.5" transform="rotate(-75 176.285 23.216)"/><circle cx="195.603" cy="28.392" r="2.5" transform="rotate(-75 195.603 28.392)"/><circle cx="185.944" cy="25.804" r="2.5" transform="rotate(-75 185.944 25.804)"/><circle cx="205.263" cy="30.98" r="2.5" transform="rotate(-75 205.263 30.98)"/><circle cx="178.873" cy="13.557" r="2.5" transform="rotate(-75 178.873 13.557)"/><circle cx="198.192" cy="18.733" r="2.5" transform="rotate(-75 198.192 18.733)"/><circle cx="188.532" cy="16.145" r="2.5" transform="rotate(-75 188.532 16.145)"/><circle cx="207.851" cy="21.321" r="2.5" transform="rotate(-75 207.851 21.321)"/><circle cx="207.157" cy="62.546" r="2.5" transform="rotate(-75 207.157 62.546)"/><circle cx="226.476" cy="67.723" r="2.5" transform="rotate(-75 226.476 67.723)"/><circle cx="216.816" cy="65.135" r="2.5" transform="rotate(-75 216.816 65.135)"/><circle cx="236.135" cy="70.311" r="2.5" transform="rotate(-75 236.135 70.311)"/><circle cx="209.745" cy="52.887" r="2.5" transform="rotate(-75 209.745 52.887)"/><circle cx="229.064" cy="58.063" r="2.5" transform="rotate(-75 229.064 58.063)"/><circle cx="219.405" cy="55.475" r="2.5" transform="rotate(-75 219.405 55.475)"/><circle cx="238.723" cy="60.652" r="2.5" transform="rotate(-75 238.723 60.652)"/><circle cx="212.334" cy="43.228" r="2.5" transform="rotate(-75 212.334 43.228)"/><circle cx="231.652" cy="48.404" r="2.5" transform="rotate(-75 231.652 48.404)"/><circle cx="221.993" cy="45.816" r="2.5" transform="rotate(-75 221.993 45.816)"/><circle cx="241.311" cy="50.992" r="2.5" transform="rotate(-75 241.311 50.992)"/><circle cx="214.922" cy="33.569" r="2.5" transform="rotate(-75 214.922 33.569)"/><circle cx="234.24" cy="38.745" r="2.5" transform="rotate(-75 234.24 38.745)"/><circle cx="224.581" cy="36.157" r="2.5" transform="rotate(-75 224.581 36.157)"/><circle cx="243.9" cy="41.333" r="2.5" transform="rotate(-75 243.9 41.333)"/><circle cx="217.51" cy="23.91" r="2.5" transform="rotate(-75 217.51 23.91)"/><circle cx="236.829" cy="29.086" r="2.5" transform="rotate(-75 236.829 29.086)"/><circle cx="227.169" cy="26.498" r="2.5" transform="rotate(-75 227.169 26.498)"/><circle cx="246.488" cy="31.674" r="2.5" transform="rotate(-75 246.488 31.674)"/><circle cx="118.973" cy="546.203" r="2.5" transform="rotate(-75 118.973 546.203)"/><circle cx="138.292" cy="551.379" r="2.5" transform="rotate(-75 138.292 551.379)"/><circle cx="128.632" cy="548.791" r="2.5" transform="rotate(-75 128.632 548.791)"/><circle cx="147.951" cy="553.968" r="2.5" transform="rotate(-75 147.951 553.968)"/><circle cx="121.561" cy="536.544" r="2.5" transform="rotate(-75 121.561 536.544)"/><circle cx="140.88" cy="541.72" r="2.5" transform="rotate(-75 140.88 541.72)"/><circle cx="131.221" cy="539.132" r="2.5" transform="rotate(-75 131.221 539.132)"/><circle cx="150.539" cy="544.308" r="2.5" transform="rotate(-75 150.539 544.308)"/><circle cx="124.15" cy="526.884" r="2.5" transform="rotate(-75 124.15 526.884)"/><circle cx="143.468" cy="532.061" r="2.5" transform="rotate(-75 143.468 532.061)"/><circle cx="133.809" cy="529.473" r="2.5" transform="rotate(-75 133.809 529.473)"/><circle cx="153.127" cy="534.649" r="2.5" transform="rotate(-75 153.127 534.649)"/><circle cx="126.738" cy="517.225" r="2.5" transform="rotate(-75 126.738 517.225)"/><circle cx="146.056" cy="522.401" r="2.5" transform="rotate(-75 146.056 522.401)"/><circle cx="136.397" cy="519.813" r="2.5" transform="rotate(-75 136.397 519.813)"/><circle cx="155.716" cy="524.99" r="2.5" transform="rotate(-75 155.716 524.99)"/><circle cx="129.326" cy="507.566" r="2.5" transform="rotate(-75 129.326 507.566)"/><circle cx="148.645" cy="512.742" r="2.5" transform="rotate(-75 148.645 512.742)"/><circle cx="138.985" cy="510.154" r="2.5" transform="rotate(-75 138.985 510.154)"/><circle cx="158.304" cy="515.33" r="2.5" transform="rotate(-75 158.304 515.33)"/><circle cx="157.61" cy="556.556" r="2.5" transform="rotate(-75 157.61 556.556)"/><circle cx="167.269" cy="559.144" r="2.5" transform="rotate(-75 167.269 559.144)"/><circle cx="160.198" cy="546.897" r="2.5" transform="rotate(-75 160.198 546.897)"/><circle cx="169.858" cy="549.485" r="2.5" transform="rotate(-75 169.858 549.485)"/><circle cx="162.786" cy="537.237" r="2.5" transform="rotate(-75 162.786 537.237)"/><circle cx="172.446" cy="539.826" r="2.5" transform="rotate(-75 172.446 539.826)"/><circle cx="165.375" cy="527.578" r="2.5" transform="rotate(-75 165.375 527.578)"/><circle cx="175.034" cy="530.166" r="2.5" transform="rotate(-75 175.034 530.166)"/><circle cx="167.963" cy="517.919" r="2.5" transform="rotate(-75 167.963 517.919)"/><circle cx="177.622" cy="520.507" r="2.5" transform="rotate(-75 177.622 520.507)"/><circle cx="41.699" cy="525.497" r="2.5" transform="rotate(-75 41.7 525.497)"/><circle cx="61.018" cy="530.674" r="2.5" transform="rotate(-75 61.018 530.674)"/><circle cx="51.358" cy="528.086" r="2.5" transform="rotate(-75 51.358 528.086)"/><circle cx="70.677" cy="533.262" r="2.5" transform="rotate(-75 70.677 533.262)"/><circle cx="44.287" cy="515.838" r="2.5" transform="rotate(-75 44.287 515.838)"/><circle cx="63.606" cy="521.014" r="2.5" transform="rotate(-75 63.606 521.014)"/><circle cx="53.947" cy="518.426" r="2.5" transform="rotate(-75 53.947 518.426)"/><circle cx="73.265" cy="523.603" r="2.5" transform="rotate(-75 73.265 523.603)"/><circle cx="46.875" cy="506.179" r="2.5" transform="rotate(-75 46.875 506.179)"/><circle cx="66.194" cy="511.355" r="2.5" transform="rotate(-75 66.194 511.355)"/><circle cx="56.535" cy="508.767" r="2.5" transform="rotate(-75 56.535 508.767)"/><circle cx="75.853" cy="513.943" r="2.5" transform="rotate(-75 75.853 513.943)"/><circle cx="49.464" cy="496.52" r="2.5" transform="rotate(-75 49.464 496.52)"/><circle cx="68.782" cy="501.696" r="2.5" transform="rotate(-75 68.782 501.696)"/><circle cx="59.123" cy="499.108" r="2.5" transform="rotate(-75 59.123 499.108)"/><circle cx="78.442" cy="504.284" r="2.5" transform="rotate(-75 78.442 504.284)"/><circle cx="52.052" cy="486.86" r="2.5" transform="rotate(-75 52.052 486.86)"/><circle cx="71.371" cy="492.037" r="2.5" transform="rotate(-75 71.37 492.037)"/><circle cx="61.711" cy="489.449" r="2.5" transform="rotate(-75 61.711 489.449)"/><circle cx="81.03" cy="494.625" r="2.5" transform="rotate(-75 81.03 494.625)"/><circle cx="80.336" cy="535.85" r="2.5" transform="rotate(-75 80.336 535.85)"/><circle cx="99.655" cy="541.026" r="2.5" transform="rotate(-75 99.655 541.026)"/><circle cx="89.995" cy="538.438" r="2.5" transform="rotate(-75 89.995 538.438)"/><circle cx="109.314" cy="543.615" r="2.5" transform="rotate(-75 109.314 543.615)"/><circle cx="82.924" cy="526.191" r="2.5" transform="rotate(-75 82.924 526.191)"/><circle cx="102.243" cy="531.367" r="2.5" transform="rotate(-75 102.243 531.367)"/><circle cx="92.584" cy="528.779" r="2.5" transform="rotate(-75 92.584 528.779)"/><circle cx="111.902" cy="533.955" r="2.5" transform="rotate(-75 111.902 533.955)"/><circle cx="85.512" cy="516.532" r="2.5" transform="rotate(-75 85.512 516.532)"/><circle cx="104.831" cy="521.708" r="2.5" transform="rotate(-75 104.831 521.708)"/><circle cx="95.172" cy="519.12" r="2.5" transform="rotate(-75 95.172 519.12)"/><circle cx="114.49" cy="524.296" r="2.5" transform="rotate(-75 114.49 524.296)"/><circle cx="88.101" cy="506.872" r="2.5" transform="rotate(-75 88.1 506.872)"/><circle cx="107.419" cy="512.049" r="2.5" transform="rotate(-75 107.419 512.049)"/><circle cx="97.76" cy="509.461" r="2.5" transform="rotate(-75 97.76 509.461)"/><circle cx="117.078" cy="514.637" r="2.5" transform="rotate(-75 117.078 514.637)"/><circle cx="90.689" cy="497.213" r="2.5" transform="rotate(-75 90.689 497.213)"/><circle cx="110.007" cy="502.389" r="2.5" transform="rotate(-75 110.007 502.389)"/><circle cx="100.348" cy="499.801" r="2.5" transform="rotate(-75 100.348 499.801)"/><circle cx="119.667" cy="504.978" r="2.5" transform="rotate(-75 119.667 504.978)"/></g></svg>