<svg width="767" height="535" fill="none" xmlns="http://www.w3.org/2000/svg"><g opacity=".1" fill="#C4C4C4"><circle cx="2.5" cy="22.5" r="2.5"/><circle cx="2.5" cy="12.5" r="2.5"/><circle cx="2.5" cy="32.5" r="2.5"/><circle cx="12.5" cy="2.5" r="2.5"/><circle cx="12.5" cy="22.5" r="2.5"/><circle cx="12.5" cy="12.5" r="2.5"/><circle cx="12.5" cy="32.5" r="2.5"/><circle cx="22.5" cy="2.5" r="2.5"/><circle cx="22.5" cy="22.5" r="2.5"/><circle cx="22.5" cy="12.5" r="2.5"/><circle cx="22.5" cy="32.5" r="2.5"/><circle cx="32.5" cy="2.5" r="2.5"/><circle cx="32.5" cy="22.5" r="2.5"/><circle cx="32.5" cy="12.5" r="2.5"/><circle cx="32.5" cy="32.5" r="2.5"/><circle cx="42.5" cy="2.5" r="2.5"/><circle cx="42.5" cy="22.5" r="2.5"/><circle cx="42.5" cy="12.5" r="2.5"/><circle cx="42.5" cy="32.5" r="2.5"/><circle cx="2.5" cy="42.5" r="2.5"/><circle cx="2.5" cy="62.5" r="2.5"/><circle cx="2.5" cy="52.5" r="2.5"/><circle cx="2.5" cy="72.5" r="2.5"/><circle cx="12.5" cy="42.5" r="2.5"/><circle cx="12.5" cy="62.5" r="2.5"/><circle cx="12.5" cy="52.5" r="2.5"/><circle cx="12.5" cy="72.5" r="2.5"/><circle cx="22.5" cy="42.5" r="2.5"/><circle cx="22.5" cy="62.5" r="2.5"/><circle cx="22.5" cy="52.5" r="2.5"/><circle cx="22.5" cy="72.5" r="2.5"/><circle cx="32.5" cy="42.5" r="2.5"/><circle cx="32.5" cy="62.5" r="2.5"/><circle cx="32.5" cy="52.5" r="2.5"/><circle cx="32.5" cy="72.5" r="2.5"/><circle cx="42.5" cy="42.5" r="2.5"/><circle cx="42.5" cy="62.5" r="2.5"/><circle cx="42.5" cy="52.5" r="2.5"/><circle cx="42.5" cy="72.5" r="2.5"/><circle cx="2.5" cy="162.5" r="2.5"/><circle cx="2.5" cy="182.5" r="2.5"/><circle cx="2.5" cy="172.5" r="2.5"/><circle cx="2.5" cy="192.5" r="2.5"/><circle cx="12.5" cy="162.5" r="2.5"/><circle cx="12.5" cy="182.5" r="2.5"/><circle cx="12.5" cy="172.5" r="2.5"/><circle cx="12.5" cy="192.5" r="2.5"/><circle cx="22.5" cy="162.5" r="2.5"/><circle cx="22.5" cy="182.5" r="2.5"/><circle cx="22.5" cy="172.5" r="2.5"/><circle cx="22.5" cy="192.5" r="2.5"/><circle cx="32.5" cy="162.5" r="2.5"/><circle cx="32.5" cy="182.5" r="2.5"/><circle cx="32.5" cy="172.5" r="2.5"/><circle cx="32.5" cy="192.5" r="2.5"/><circle cx="42.5" cy="162.5" r="2.5"/><circle cx="42.5" cy="182.5" r="2.5"/><circle cx="42.5" cy="172.5" r="2.5"/><circle cx="42.5" cy="192.5" r="2.5"/><circle cx="2.5" cy="202.5" r="2.5"/><circle cx="2.5" cy="222.5" r="2.5"/><circle cx="2.5" cy="212.5" r="2.5"/><circle cx="2.5" cy="232.5" r="2.5"/><circle cx="12.5" cy="202.5" r="2.5"/><circle cx="12.5" cy="222.5" r="2.5"/><circle cx="12.5" cy="212.5" r="2.5"/><circle cx="12.5" cy="232.5" r="2.5"/><circle cx="22.5" cy="202.5" r="2.5"/><circle cx="22.5" cy="222.5" r="2.5"/><circle cx="22.5" cy="212.5" r="2.5"/><circle cx="22.5" cy="232.5" r="2.5"/><circle cx="32.5" cy="202.5" r="2.5"/><circle cx="32.5" cy="222.5" r="2.5"/><circle cx="32.5" cy="212.5" r="2.5"/><circle cx="32.5" cy="232.5" r="2.5"/><circle cx="42.5" cy="202.5" r="2.5"/><circle cx="42.5" cy="222.5" r="2.5"/><circle cx="42.5" cy="212.5" r="2.5"/><circle cx="42.5" cy="232.5" r="2.5"/><circle cx="2.5" cy="82.5" r="2.5"/><circle cx="2.5" cy="102.5" r="2.5"/><circle cx="2.5" cy="92.5" r="2.5"/><circle cx="2.5" cy="112.5" r="2.5"/><circle cx="12.5" cy="82.5" r="2.5"/><circle cx="12.5" cy="102.5" r="2.5"/><circle cx="12.5" cy="92.5" r="2.5"/><circle cx="12.5" cy="112.5" r="2.5"/><circle cx="22.5" cy="82.5" r="2.5"/><circle cx="22.5" cy="102.5" r="2.5"/><circle cx="22.5" cy="92.5" r="2.5"/><circle cx="22.5" cy="112.5" r="2.5"/><circle cx="32.5" cy="82.5" r="2.5"/><circle cx="32.5" cy="102.5" r="2.5"/><circle cx="32.5" cy="92.5" r="2.5"/><circle cx="32.5" cy="112.5" r="2.5"/><circle cx="42.5" cy="82.5" r="2.5"/><circle cx="42.5" cy="102.5" r="2.5"/><circle cx="42.5" cy="92.5" r="2.5"/><circle cx="42.5" cy="112.5" r="2.5"/><circle cx="2.5" cy="122.5" r="2.5"/><circle cx="2.5" cy="142.5" r="2.5"/><circle cx="2.5" cy="132.5" r="2.5"/><circle cx="2.5" cy="152.5" r="2.5"/><circle cx="12.5" cy="122.5" r="2.5"/><circle cx="12.5" cy="142.5" r="2.5"/><circle cx="12.5" cy="132.5" r="2.5"/><circle cx="12.5" cy="152.5" r="2.5"/><circle cx="22.5" cy="122.5" r="2.5"/><circle cx="22.5" cy="142.5" r="2.5"/><circle cx="22.5" cy="132.5" r="2.5"/><circle cx="22.5" cy="152.5" r="2.5"/><circle cx="32.5" cy="122.5" r="2.5"/><circle cx="32.5" cy="142.5" r="2.5"/><circle cx="32.5" cy="132.5" r="2.5"/><circle cx="32.5" cy="152.5" r="2.5"/><circle cx="42.5" cy="122.5" r="2.5"/><circle cx="42.5" cy="142.5" r="2.5"/><circle cx="42.5" cy="132.5" r="2.5"/><circle cx="42.5" cy="152.5" r="2.5"/><circle cx="2.5" cy="242.5" r="2.5"/><circle cx="2.5" cy="262.5" r="2.5"/><circle cx="2.5" cy="252.5" r="2.5"/><circle cx="2.5" cy="272.5" r="2.5"/><circle cx="12.5" cy="242.5" r="2.5"/><circle cx="12.5" cy="262.5" r="2.5"/><circle cx="12.5" cy="252.5" r="2.5"/><circle cx="12.5" cy="272.5" r="2.5"/><circle cx="22.5" cy="242.5" r="2.5"/><circle cx="22.5" cy="262.5" r="2.5"/><circle cx="22.5" cy="252.5" r="2.5"/><circle cx="22.5" cy="272.5" r="2.5"/><circle cx="32.5" cy="242.5" r="2.5"/><circle cx="32.5" cy="262.5" r="2.5"/><circle cx="32.5" cy="252.5" r="2.5"/><circle cx="32.5" cy="272.5" r="2.5"/><circle cx="42.5" cy="242.5" r="2.5"/><circle cx="42.5" cy="262.5" r="2.5"/><circle cx="42.5" cy="252.5" r="2.5"/><circle cx="42.5" cy="272.5" r="2.5"/><circle cx="2.5" cy="282.5" r="2.5"/><circle cx="2.5" cy="302.5" r="2.5"/><circle cx="2.5" cy="292.5" r="2.5"/><circle cx="2.5" cy="312.5" r="2.5"/><circle cx="12.5" cy="282.5" r="2.5"/><circle cx="12.5" cy="302.5" r="2.5"/><circle cx="12.5" cy="292.5" r="2.5"/><circle cx="12.5" cy="312.5" r="2.5"/><circle cx="22.5" cy="282.5" r="2.5"/><circle cx="22.5" cy="302.5" r="2.5"/><circle cx="22.5" cy="292.5" r="2.5"/><circle cx="22.5" cy="312.5" r="2.5"/><circle cx="32.5" cy="282.5" r="2.5"/><circle cx="32.5" cy="302.5" r="2.5"/><circle cx="32.5" cy="292.5" r="2.5"/><circle cx="32.5" cy="312.5" r="2.5"/><circle cx="42.5" cy="282.5" r="2.5"/><circle cx="42.5" cy="302.5" r="2.5"/><circle cx="42.5" cy="292.5" r="2.5"/><circle cx="42.5" cy="312.5" r="2.5"/><circle cx="2.5" cy="322.5" r="2.5"/><circle cx="2.5" cy="342.5" r="2.5"/><circle cx="2.5" cy="332.5" r="2.5"/><circle cx="2.5" cy="352.5" r="2.5"/><circle cx="12.5" cy="322.5" r="2.5"/><circle cx="12.5" cy="342.5" r="2.5"/><circle cx="12.5" cy="332.5" r="2.5"/><circle cx="12.5" cy="352.5" r="2.5"/><circle cx="22.5" cy="322.5" r="2.5"/><circle cx="22.5" cy="342.5" r="2.5"/><circle cx="22.5" cy="332.5" r="2.5"/><circle cx="22.5" cy="352.5" r="2.5"/><circle cx="32.5" cy="322.5" r="2.5"/><circle cx="32.5" cy="342.5" r="2.5"/><circle cx="32.5" cy="332.5" r="2.5"/><circle cx="32.5" cy="352.5" r="2.5"/><circle cx="42.5" cy="322.5" r="2.5"/><circle cx="42.5" cy="342.5" r="2.5"/><circle cx="42.5" cy="332.5" r="2.5"/><circle cx="42.5" cy="352.5" r="2.5"/><circle cx="2.5" cy="362.5" r="2.5"/><circle cx="2.5" cy="382.5" r="2.5"/><circle cx="2.5" cy="372.5" r="2.5"/><circle cx="2.5" cy="392.5" r="2.5"/><circle cx="12.5" cy="362.5" r="2.5"/><circle cx="12.5" cy="382.5" r="2.5"/><circle cx="12.5" cy="372.5" r="2.5"/><circle cx="12.5" cy="392.5" r="2.5"/><circle cx="22.5" cy="362.5" r="2.5"/><circle cx="22.5" cy="382.5" r="2.5"/><circle cx="22.5" cy="372.5" r="2.5"/><circle cx="22.5" cy="392.5" r="2.5"/><circle cx="32.5" cy="362.5" r="2.5"/><circle cx="32.5" cy="382.5" r="2.5"/><circle cx="32.5" cy="372.5" r="2.5"/><circle cx="32.5" cy="392.5" r="2.5"/><circle cx="42.5" cy="362.5" r="2.5"/><circle cx="42.5" cy="382.5" r="2.5"/><circle cx="42.5" cy="372.5" r="2.5"/><circle cx="42.5" cy="392.5" r="2.5"/><circle cx="2.5" cy="482.5" r="2.5"/><circle cx="2.5" cy="502.5" r="2.5"/><circle cx="2.5" cy="492.5" r="2.5"/><circle cx="2.5" cy="512.5" r="2.5"/><circle cx="12.5" cy="482.5" r="2.5"/><circle cx="12.5" cy="502.5" r="2.5"/><circle cx="12.5" cy="492.5" r="2.5"/><circle cx="12.5" cy="512.5" r="2.5"/><circle cx="22.5" cy="482.5" r="2.5"/><circle cx="22.5" cy="502.5" r="2.5"/><circle cx="22.5" cy="492.5" r="2.5"/><circle cx="22.5" cy="512.5" r="2.5"/><circle cx="32.5" cy="482.5" r="2.5"/><circle cx="32.5" cy="502.5" r="2.5"/><circle cx="32.5" cy="492.5" r="2.5"/><circle cx="32.5" cy="512.5" r="2.5"/><circle cx="42.5" cy="482.5" r="2.5"/><circle cx="42.5" cy="502.5" r="2.5"/><circle cx="42.5" cy="492.5" r="2.5"/><circle cx="42.5" cy="512.5" r="2.5"/><circle cx="2.5" cy="522.5" r="2.5"/><circle cx="12.5" cy="522.5" r="2.5"/><circle cx="12.5" cy="532.5" r="2.5"/><circle cx="22.5" cy="522.5" r="2.5"/><circle cx="22.5" cy="532.5" r="2.5"/><circle cx="32.5" cy="522.5" r="2.5"/><circle cx="32.5" cy="532.5" r="2.5"/><circle cx="42.5" cy="522.5" r="2.5"/><circle cx="42.5" cy="532.5" r="2.5"/><circle cx="2.5" cy="402.5" r="2.5"/><circle cx="2.5" cy="422.5" r="2.5"/><circle cx="2.5" cy="412.5" r="2.5"/><circle cx="2.5" cy="432.5" r="2.5"/><circle cx="12.5" cy="402.5" r="2.5"/><circle cx="12.5" cy="422.5" r="2.5"/><circle cx="12.5" cy="412.5" r="2.5"/><circle cx="12.5" cy="432.5" r="2.5"/><circle cx="22.5" cy="402.5" r="2.5"/><circle cx="22.5" cy="422.5" r="2.5"/><circle cx="22.5" cy="412.5" r="2.5"/><circle cx="22.5" cy="432.5" r="2.5"/><circle cx="32.5" cy="402.5" r="2.5"/><circle cx="32.5" cy="422.5" r="2.5"/><circle cx="32.5" cy="412.5" r="2.5"/><circle cx="32.5" cy="432.5" r="2.5"/><circle cx="42.5" cy="402.5" r="2.5"/><circle cx="42.5" cy="422.5" r="2.5"/><circle cx="42.5" cy="412.5" r="2.5"/><circle cx="42.5" cy="432.5" r="2.5"/><circle cx="2.5" cy="442.5" r="2.5"/><circle cx="2.5" cy="462.5" r="2.5"/><circle cx="2.5" cy="452.5" r="2.5"/><circle cx="2.5" cy="472.5" r="2.5"/><circle cx="12.5" cy="442.5" r="2.5"/><circle cx="12.5" cy="462.5" r="2.5"/><circle cx="12.5" cy="452.5" r="2.5"/><circle cx="12.5" cy="472.5" r="2.5"/><circle cx="22.5" cy="442.5" r="2.5"/><circle cx="22.5" cy="462.5" r="2.5"/><circle cx="22.5" cy="452.5" r="2.5"/><circle cx="22.5" cy="472.5" r="2.5"/><circle cx="32.5" cy="442.5" r="2.5"/><circle cx="32.5" cy="462.5" r="2.5"/><circle cx="32.5" cy="452.5" r="2.5"/><circle cx="32.5" cy="472.5" r="2.5"/><circle cx="42.5" cy="442.5" r="2.5"/><circle cx="42.5" cy="462.5" r="2.5"/><circle cx="42.5" cy="452.5" r="2.5"/><circle cx="42.5" cy="472.5" r="2.5"/><circle cx="724.5" cy="2.5" r="2.5"/><circle cx="724.5" cy="22.5" r="2.5"/><circle cx="724.5" cy="12.5" r="2.5"/><circle cx="724.5" cy="32.5" r="2.5"/><circle cx="734.5" cy="2.5" r="2.5"/><circle cx="734.5" cy="22.5" r="2.5"/><circle cx="734.5" cy="12.5" r="2.5"/><circle cx="734.5" cy="32.5" r="2.5"/><circle cx="744.5" cy="2.5" r="2.5"/><circle cx="744.5" cy="22.5" r="2.5"/><circle cx="744.5" cy="12.5" r="2.5"/><circle cx="744.5" cy="32.5" r="2.5"/><circle cx="754.5" cy="2.5" r="2.5"/><circle cx="754.5" cy="22.5" r="2.5"/><circle cx="754.5" cy="12.5" r="2.5"/><circle cx="754.5" cy="32.5" r="2.5"/><circle cx="764.5" cy="22.5" r="2.5"/><circle cx="764.5" cy="12.5" r="2.5"/><circle cx="764.5" cy="32.5" r="2.5"/><circle cx="724.5" cy="42.5" r="2.5"/><circle cx="724.5" cy="62.5" r="2.5"/><circle cx="724.5" cy="52.5" r="2.5"/><circle cx="724.5" cy="72.5" r="2.5"/><circle cx="734.5" cy="42.5" r="2.5"/><circle cx="734.5" cy="62.5" r="2.5"/><circle cx="734.5" cy="52.5" r="2.5"/><circle cx="734.5" cy="72.5" r="2.5"/><circle cx="744.5" cy="42.5" r="2.5"/><circle cx="744.5" cy="62.5" r="2.5"/><circle cx="744.5" cy="52.5" r="2.5"/><circle cx="744.5" cy="72.5" r="2.5"/><circle cx="754.5" cy="42.5" r="2.5"/><circle cx="754.5" cy="62.5" r="2.5"/><circle cx="754.5" cy="52.5" r="2.5"/><circle cx="754.5" cy="72.5" r="2.5"/><circle cx="764.5" cy="42.5" r="2.5"/><circle cx="764.5" cy="62.5" r="2.5"/><circle cx="764.5" cy="52.5" r="2.5"/><circle cx="764.5" cy="72.5" r="2.5"/><circle cx="724.5" cy="162.5" r="2.5"/><circle cx="724.5" cy="182.5" r="2.5"/><circle cx="724.5" cy="172.5" r="2.5"/><circle cx="724.5" cy="192.5" r="2.5"/><circle cx="734.5" cy="162.5" r="2.5"/><circle cx="734.5" cy="182.5" r="2.5"/><circle cx="734.5" cy="172.5" r="2.5"/><circle cx="734.5" cy="192.5" r="2.5"/><circle cx="744.5" cy="162.5" r="2.5"/><circle cx="744.5" cy="182.5" r="2.5"/><circle cx="744.5" cy="172.5" r="2.5"/><circle cx="744.5" cy="192.5" r="2.5"/><circle cx="754.5" cy="162.5" r="2.5"/><circle cx="754.5" cy="182.5" r="2.5"/><circle cx="754.5" cy="172.5" r="2.5"/><circle cx="754.5" cy="192.5" r="2.5"/><circle cx="764.5" cy="162.5" r="2.5"/><circle cx="764.5" cy="182.5" r="2.5"/><circle cx="764.5" cy="172.5" r="2.5"/><circle cx="764.5" cy="192.5" r="2.5"/><circle cx="724.5" cy="202.5" r="2.5"/><circle cx="724.5" cy="222.5" r="2.5"/><circle cx="724.5" cy="212.5" r="2.5"/><circle cx="724.5" cy="232.5" r="2.5"/><circle cx="734.5" cy="202.5" r="2.5"/><circle cx="734.5" cy="222.5" r="2.5"/><circle cx="734.5" cy="212.5" r="2.5"/><circle cx="734.5" cy="232.5" r="2.5"/><circle cx="744.5" cy="202.5" r="2.5"/><circle cx="744.5" cy="222.5" r="2.5"/><circle cx="744.5" cy="212.5" r="2.5"/><circle cx="744.5" cy="232.5" r="2.5"/><circle cx="754.5" cy="202.5" r="2.5"/><circle cx="754.5" cy="222.5" r="2.5"/><circle cx="754.5" cy="212.5" r="2.5"/><circle cx="754.5" cy="232.5" r="2.5"/><circle cx="764.5" cy="202.5" r="2.5"/><circle cx="764.5" cy="222.5" r="2.5"/><circle cx="764.5" cy="212.5" r="2.5"/><circle cx="764.5" cy="232.5" r="2.5"/><circle cx="724.5" cy="82.5" r="2.5"/><circle cx="724.5" cy="102.5" r="2.5"/><circle cx="724.5" cy="92.5" r="2.5"/><circle cx="724.5" cy="112.5" r="2.5"/><circle cx="734.5" cy="82.5" r="2.5"/><circle cx="734.5" cy="102.5" r="2.5"/><circle cx="734.5" cy="92.5" r="2.5"/><circle cx="734.5" cy="112.5" r="2.5"/><circle cx="744.5" cy="82.5" r="2.5"/><circle cx="744.5" cy="102.5" r="2.5"/><circle cx="744.5" cy="92.5" r="2.5"/><circle cx="744.5" cy="112.5" r="2.5"/><circle cx="754.5" cy="82.5" r="2.5"/><circle cx="754.5" cy="102.5" r="2.5"/><circle cx="754.5" cy="92.5" r="2.5"/><circle cx="754.5" cy="112.5" r="2.5"/><circle cx="764.5" cy="82.5" r="2.5"/><circle cx="764.5" cy="102.5" r="2.5"/><circle cx="764.5" cy="92.5" r="2.5"/><circle cx="764.5" cy="112.5" r="2.5"/><circle cx="724.5" cy="122.5" r="2.5"/><circle cx="724.5" cy="142.5" r="2.5"/><circle cx="724.5" cy="132.5" r="2.5"/><circle cx="724.5" cy="152.5" r="2.5"/><circle cx="734.5" cy="122.5" r="2.5"/><circle cx="734.5" cy="142.5" r="2.5"/><circle cx="734.5" cy="132.5" r="2.5"/><circle cx="734.5" cy="152.5" r="2.5"/><circle cx="744.5" cy="122.5" r="2.5"/><circle cx="744.5" cy="142.5" r="2.5"/><circle cx="744.5" cy="132.5" r="2.5"/><circle cx="744.5" cy="152.5" r="2.5"/><circle cx="754.5" cy="122.5" r="2.5"/><circle cx="754.5" cy="142.5" r="2.5"/><circle cx="754.5" cy="132.5" r="2.5"/><circle cx="754.5" cy="152.5" r="2.5"/><circle cx="764.5" cy="122.5" r="2.5"/><circle cx="764.5" cy="142.5" r="2.5"/><circle cx="764.5" cy="132.5" r="2.5"/><circle cx="764.5" cy="152.5" r="2.5"/><circle cx="724.5" cy="242.5" r="2.5"/><circle cx="724.5" cy="262.5" r="2.5"/><circle cx="724.5" cy="252.5" r="2.5"/><circle cx="724.5" cy="272.5" r="2.5"/><circle cx="734.5" cy="242.5" r="2.5"/><circle cx="734.5" cy="262.5" r="2.5"/><circle cx="734.5" cy="252.5" r="2.5"/><circle cx="734.5" cy="272.5" r="2.5"/><circle cx="744.5" cy="242.5" r="2.5"/><circle cx="744.5" cy="262.5" r="2.5"/><circle cx="744.5" cy="252.5" r="2.5"/><circle cx="744.5" cy="272.5" r="2.5"/><circle cx="754.5" cy="242.5" r="2.5"/><circle cx="754.5" cy="262.5" r="2.5"/><circle cx="754.5" cy="252.5" r="2.5"/><circle cx="754.5" cy="272.5" r="2.5"/><circle cx="764.5" cy="242.5" r="2.5"/><circle cx="764.5" cy="262.5" r="2.5"/><circle cx="764.5" cy="252.5" r="2.5"/><circle cx="764.5" cy="272.5" r="2.5"/><circle cx="724.5" cy="282.5" r="2.5"/><circle cx="724.5" cy="302.5" r="2.5"/><circle cx="724.5" cy="292.5" r="2.5"/><circle cx="724.5" cy="312.5" r="2.5"/><circle cx="734.5" cy="282.5" r="2.5"/><circle cx="734.5" cy="302.5" r="2.5"/><circle cx="734.5" cy="292.5" r="2.5"/><circle cx="734.5" cy="312.5" r="2.5"/><circle cx="744.5" cy="282.5" r="2.5"/><circle cx="744.5" cy="302.5" r="2.5"/><circle cx="744.5" cy="292.5" r="2.5"/><circle cx="744.5" cy="312.5" r="2.5"/><circle cx="754.5" cy="282.5" r="2.5"/><circle cx="754.5" cy="302.5" r="2.5"/><circle cx="754.5" cy="292.5" r="2.5"/><circle cx="754.5" cy="312.5" r="2.5"/><circle cx="764.5" cy="282.5" r="2.5"/><circle cx="764.5" cy="302.5" r="2.5"/><circle cx="764.5" cy="292.5" r="2.5"/><circle cx="764.5" cy="312.5" r="2.5"/><circle cx="724.5" cy="322.5" r="2.5"/><circle cx="724.5" cy="342.5" r="2.5"/><circle cx="724.5" cy="332.5" r="2.5"/><circle cx="724.5" cy="352.5" r="2.5"/><circle cx="734.5" cy="322.5" r="2.5"/><circle cx="734.5" cy="342.5" r="2.5"/><circle cx="734.5" cy="332.5" r="2.5"/><circle cx="734.5" cy="352.5" r="2.5"/><circle cx="744.5" cy="322.5" r="2.5"/><circle cx="744.5" cy="342.5" r="2.5"/><circle cx="744.5" cy="332.5" r="2.5"/><circle cx="744.5" cy="352.5" r="2.5"/><circle cx="754.5" cy="322.5" r="2.5"/><circle cx="754.5" cy="342.5" r="2.5"/><circle cx="754.5" cy="332.5" r="2.5"/><circle cx="754.5" cy="352.5" r="2.5"/><circle cx="764.5" cy="322.5" r="2.5"/><circle cx="764.5" cy="342.5" r="2.5"/><circle cx="764.5" cy="332.5" r="2.5"/><circle cx="764.5" cy="352.5" r="2.5"/><circle cx="724.5" cy="362.5" r="2.5"/><circle cx="724.5" cy="382.5" r="2.5"/><circle cx="724.5" cy="372.5" r="2.5"/><circle cx="724.5" cy="392.5" r="2.5"/><circle cx="734.5" cy="362.5" r="2.5"/><circle cx="734.5" cy="382.5" r="2.5"/><circle cx="734.5" cy="372.5" r="2.5"/><circle cx="734.5" cy="392.5" r="2.5"/><circle cx="744.5" cy="362.5" r="2.5"/><circle cx="744.5" cy="382.5" r="2.5"/><circle cx="744.5" cy="372.5" r="2.5"/><circle cx="744.5" cy="392.5" r="2.5"/><circle cx="754.5" cy="362.5" r="2.5"/><circle cx="754.5" cy="382.5" r="2.5"/><circle cx="754.5" cy="372.5" r="2.5"/><circle cx="754.5" cy="392.5" r="2.5"/><circle cx="764.5" cy="362.5" r="2.5"/><circle cx="764.5" cy="382.5" r="2.5"/><circle cx="764.5" cy="372.5" r="2.5"/><circle cx="764.5" cy="392.5" r="2.5"/><circle cx="724.5" cy="482.5" r="2.5"/><circle cx="724.5" cy="502.5" r="2.5"/><circle cx="724.5" cy="492.5" r="2.5"/><circle cx="724.5" cy="512.5" r="2.5"/><circle cx="734.5" cy="482.5" r="2.5"/><circle cx="734.5" cy="502.5" r="2.5"/><circle cx="734.5" cy="492.5" r="2.5"/><circle cx="734.5" cy="512.5" r="2.5"/><circle cx="744.5" cy="482.5" r="2.5"/><circle cx="744.5" cy="502.5" r="2.5"/><circle cx="744.5" cy="492.5" r="2.5"/><circle cx="744.5" cy="512.5" r="2.5"/><circle cx="754.5" cy="482.5" r="2.5"/><circle cx="754.5" cy="502.5" r="2.5"/><circle cx="754.5" cy="492.5" r="2.5"/><circle cx="754.5" cy="512.5" r="2.5"/><circle cx="764.5" cy="482.5" r="2.5"/><circle cx="764.5" cy="502.5" r="2.5"/><circle cx="764.5" cy="492.5" r="2.5"/><circle cx="764.5" cy="512.5" r="2.5"/><circle cx="724.5" cy="522.5" r="2.5"/><circle cx="724.5" cy="532.5" r="2.5"/><circle cx="734.5" cy="522.5" r="2.5"/><circle cx="734.5" cy="532.5" r="2.5"/><circle cx="744.5" cy="522.5" r="2.5"/><circle cx="744.5" cy="532.5" r="2.5"/><circle cx="754.5" cy="522.5" r="2.5"/><circle cx="754.5" cy="532.5" r="2.5"/><circle cx="764.5" cy="522.5" r="2.5"/><circle cx="724.5" cy="402.5" r="2.5"/><circle cx="724.5" cy="422.5" r="2.5"/><circle cx="724.5" cy="412.5" r="2.5"/><circle cx="724.5" cy="432.5" r="2.5"/><circle cx="734.5" cy="402.5" r="2.5"/><circle cx="734.5" cy="422.5" r="2.5"/><circle cx="734.5" cy="412.5" r="2.5"/><circle cx="734.5" cy="432.5" r="2.5"/><circle cx="744.5" cy="402.5" r="2.5"/><circle cx="744.5" cy="422.5" r="2.5"/><circle cx="744.5" cy="412.5" r="2.5"/><circle cx="744.5" cy="432.5" r="2.5"/><circle cx="754.5" cy="402.5" r="2.5"/><circle cx="754.5" cy="422.5" r="2.5"/><circle cx="754.5" cy="412.5" r="2.5"/><circle cx="754.5" cy="432.5" r="2.5"/><circle cx="764.5" cy="402.5" r="2.5"/><circle cx="764.5" cy="422.5" r="2.5"/><circle cx="764.5" cy="412.5" r="2.5"/><circle cx="764.5" cy="432.5" r="2.5"/><circle cx="724.5" cy="442.5" r="2.5"/><circle cx="724.5" cy="462.5" r="2.5"/><circle cx="724.5" cy="452.5" r="2.5"/><circle cx="724.5" cy="472.5" r="2.5"/><circle cx="734.5" cy="442.5" r="2.5"/><circle cx="734.5" cy="462.5" r="2.5"/><circle cx="734.5" cy="452.5" r="2.5"/><circle cx="734.5" cy="472.5" r="2.5"/><circle cx="744.5" cy="442.5" r="2.5"/><circle cx="744.5" cy="462.5" r="2.5"/><circle cx="744.5" cy="452.5" r="2.5"/><circle cx="744.5" cy="472.5" r="2.5"/><circle cx="754.5" cy="442.5" r="2.5"/><circle cx="754.5" cy="462.5" r="2.5"/><circle cx="754.5" cy="452.5" r="2.5"/><circle cx="754.5" cy="472.5" r="2.5"/><circle cx="764.5" cy="442.5" r="2.5"/><circle cx="764.5" cy="462.5" r="2.5"/><circle cx="764.5" cy="452.5" r="2.5"/><circle cx="764.5" cy="472.5" r="2.5"/><circle cx="183.5" cy="42.5" r="2.5" transform="rotate(-90 183.5 42.5)"/><circle cx="203.5" cy="42.5" r="2.5" transform="rotate(-90 203.5 42.5)"/><circle cx="193.5" cy="42.5" r="2.5" transform="rotate(-90 193.5 42.5)"/><circle cx="213.5" cy="42.5" r="2.5" transform="rotate(-90 213.5 42.5)"/><circle cx="183.5" cy="32.5" r="2.5" transform="rotate(-90 183.5 32.5)"/><circle cx="203.5" cy="32.5" r="2.5" transform="rotate(-90 203.5 32.5)"/><circle cx="193.5" cy="32.5" r="2.5" transform="rotate(-90 193.5 32.5)"/><circle cx="213.5" cy="32.5" r="2.5" transform="rotate(-90 213.5 32.5)"/><circle cx="183.5" cy="22.5" r="2.5" transform="rotate(-90 183.5 22.5)"/><circle cx="203.5" cy="22.5" r="2.5" transform="rotate(-90 203.5 22.5)"/><circle cx="193.5" cy="22.5" r="2.5" transform="rotate(-90 193.5 22.5)"/><circle cx="213.5" cy="22.5" r="2.5" transform="rotate(-90 213.5 22.5)"/><circle cx="183.5" cy="12.5" r="2.5" transform="rotate(-90 183.5 12.5)"/><circle cx="203.5" cy="12.5" r="2.5" transform="rotate(-90 203.5 12.5)"/><circle cx="193.5" cy="12.5" r="2.5" transform="rotate(-90 193.5 12.5)"/><circle cx="213.5" cy="12.5" r="2.5" transform="rotate(-90 213.5 12.5)"/><circle cx="183.5" cy="2.5" r="2.5" transform="rotate(-90 183.5 2.5)"/><circle cx="203.5" cy="2.5" r="2.5" transform="rotate(-90 203.5 2.5)"/><circle cx="193.5" cy="2.5" r="2.5" transform="rotate(-90 193.5 2.5)"/><circle cx="213.5" cy="2.5" r="2.5" transform="rotate(-90 213.5 2.5)"/><circle cx="223.5" cy="42.5" r="2.5" transform="rotate(-90 223.5 42.5)"/><circle cx="243.5" cy="42.5" r="2.5" transform="rotate(-90 243.5 42.5)"/><circle cx="233.5" cy="42.5" r="2.5" transform="rotate(-90 233.5 42.5)"/><circle cx="253.5" cy="42.5" r="2.5" transform="rotate(-90 253.5 42.5)"/><circle cx="223.5" cy="32.5" r="2.5" transform="rotate(-90 223.5 32.5)"/><circle cx="243.5" cy="32.5" r="2.5" transform="rotate(-90 243.5 32.5)"/><circle cx="233.5" cy="32.5" r="2.5" transform="rotate(-90 233.5 32.5)"/><circle cx="253.5" cy="32.5" r="2.5" transform="rotate(-90 253.5 32.5)"/><circle cx="223.5" cy="22.5" r="2.5" transform="rotate(-90 223.5 22.5)"/><circle cx="243.5" cy="22.5" r="2.5" transform="rotate(-90 243.5 22.5)"/><circle cx="233.5" cy="22.5" r="2.5" transform="rotate(-90 233.5 22.5)"/><circle cx="253.5" cy="22.5" r="2.5" transform="rotate(-90 253.5 22.5)"/><circle cx="223.5" cy="12.5" r="2.5" transform="rotate(-90 223.5 12.5)"/><circle cx="243.5" cy="12.5" r="2.5" transform="rotate(-90 243.5 12.5)"/><circle cx="233.5" cy="12.5" r="2.5" transform="rotate(-90 233.5 12.5)"/><circle cx="253.5" cy="12.5" r="2.5" transform="rotate(-90 253.5 12.5)"/><circle cx="223.5" cy="2.5" r="2.5" transform="rotate(-90 223.5 2.5)"/><circle cx="243.5" cy="2.5" r="2.5" transform="rotate(-90 243.5 2.5)"/><circle cx="233.5" cy="2.5" r="2.5" transform="rotate(-90 233.5 2.5)"/><circle cx="253.5" cy="2.5" r="2.5" transform="rotate(-90 253.5 2.5)"/><circle cx="343.5" cy="42.5" r="2.5" transform="rotate(-90 343.5 42.5)"/><circle cx="363.5" cy="42.5" r="2.5" transform="rotate(-90 363.5 42.5)"/><circle cx="353.5" cy="42.5" r="2.5" transform="rotate(-90 353.5 42.5)"/><circle cx="373.5" cy="42.5" r="2.5" transform="rotate(-90 373.5 42.5)"/><circle cx="343.5" cy="32.5" r="2.5" transform="rotate(-90 343.5 32.5)"/><circle cx="363.5" cy="32.5" r="2.5" transform="rotate(-90 363.5 32.5)"/><circle cx="353.5" cy="32.5" r="2.5" transform="rotate(-90 353.5 32.5)"/><circle cx="373.5" cy="32.5" r="2.5" transform="rotate(-90 373.5 32.5)"/><circle cx="343.5" cy="22.5" r="2.5" transform="rotate(-90 343.5 22.5)"/><circle cx="363.5" cy="22.5" r="2.5" transform="rotate(-90 363.5 22.5)"/><circle cx="353.5" cy="22.5" r="2.5" transform="rotate(-90 353.5 22.5)"/><circle cx="373.5" cy="22.5" r="2.5" transform="rotate(-90 373.5 22.5)"/><circle cx="343.5" cy="12.5" r="2.5" transform="rotate(-90 343.5 12.5)"/><circle cx="363.5" cy="12.5" r="2.5" transform="rotate(-90 363.5 12.5)"/><circle cx="353.5" cy="12.5" r="2.5" transform="rotate(-90 353.5 12.5)"/><circle cx="373.5" cy="12.5" r="2.5" transform="rotate(-90 373.5 12.5)"/><circle cx="343.5" cy="2.5" r="2.5" transform="rotate(-90 343.5 2.5)"/><circle cx="363.5" cy="2.5" r="2.5" transform="rotate(-90 363.5 2.5)"/><circle cx="353.5" cy="2.5" r="2.5" transform="rotate(-90 353.5 2.5)"/><circle cx="373.5" cy="2.5" r="2.5" transform="rotate(-90 373.5 2.5)"/><circle cx="383.5" cy="42.5" r="2.5" transform="rotate(-90 383.5 42.5)"/><circle cx="403.5" cy="42.5" r="2.5" transform="rotate(-90 403.5 42.5)"/><circle cx="393.5" cy="42.5" r="2.5" transform="rotate(-90 393.5 42.5)"/><circle cx="413.5" cy="42.5" r="2.5" transform="rotate(-90 413.5 42.5)"/><circle cx="383.5" cy="32.5" r="2.5" transform="rotate(-90 383.5 32.5)"/><circle cx="403.5" cy="32.5" r="2.5" transform="rotate(-90 403.5 32.5)"/><circle cx="393.5" cy="32.5" r="2.5" transform="rotate(-90 393.5 32.5)"/><circle cx="413.5" cy="32.5" r="2.5" transform="rotate(-90 413.5 32.5)"/><circle cx="383.5" cy="22.5" r="2.5" transform="rotate(-90 383.5 22.5)"/><circle cx="403.5" cy="22.5" r="2.5" transform="rotate(-90 403.5 22.5)"/><circle cx="393.5" cy="22.5" r="2.5" transform="rotate(-90 393.5 22.5)"/><circle cx="413.5" cy="22.5" r="2.5" transform="rotate(-90 413.5 22.5)"/><circle cx="383.5" cy="12.5" r="2.5" transform="rotate(-90 383.5 12.5)"/><circle cx="403.5" cy="12.5" r="2.5" transform="rotate(-90 403.5 12.5)"/><circle cx="393.5" cy="12.5" r="2.5" transform="rotate(-90 393.5 12.5)"/><circle cx="413.5" cy="12.5" r="2.5" transform="rotate(-90 413.5 12.5)"/><circle cx="383.5" cy="2.5" r="2.5" transform="rotate(-90 383.5 2.5)"/><circle cx="403.5" cy="2.5" r="2.5" transform="rotate(-90 403.5 2.5)"/><circle cx="393.5" cy="2.5" r="2.5" transform="rotate(-90 393.5 2.5)"/><circle cx="413.5" cy="2.5" r="2.5" transform="rotate(-90 413.5 2.5)"/><circle cx="263.5" cy="42.5" r="2.5" transform="rotate(-90 263.5 42.5)"/><circle cx="283.5" cy="42.5" r="2.5" transform="rotate(-90 283.5 42.5)"/><circle cx="273.5" cy="42.5" r="2.5" transform="rotate(-90 273.5 42.5)"/><circle cx="293.5" cy="42.5" r="2.5" transform="rotate(-90 293.5 42.5)"/><circle cx="263.5" cy="32.5" r="2.5" transform="rotate(-90 263.5 32.5)"/><circle cx="283.5" cy="32.5" r="2.5" transform="rotate(-90 283.5 32.5)"/><circle cx="273.5" cy="32.5" r="2.5" transform="rotate(-90 273.5 32.5)"/><circle cx="293.5" cy="32.5" r="2.5" transform="rotate(-90 293.5 32.5)"/><circle cx="263.5" cy="22.5" r="2.5" transform="rotate(-90 263.5 22.5)"/><circle cx="283.5" cy="22.5" r="2.5" transform="rotate(-90 283.5 22.5)"/><circle cx="273.5" cy="22.5" r="2.5" transform="rotate(-90 273.5 22.5)"/><circle cx="293.5" cy="22.5" r="2.5" transform="rotate(-90 293.5 22.5)"/><circle cx="263.5" cy="12.5" r="2.5" transform="rotate(-90 263.5 12.5)"/><circle cx="283.5" cy="12.5" r="2.5" transform="rotate(-90 283.5 12.5)"/><circle cx="273.5" cy="12.5" r="2.5" transform="rotate(-90 273.5 12.5)"/><circle cx="293.5" cy="12.5" r="2.5" transform="rotate(-90 293.5 12.5)"/><circle cx="263.5" cy="2.5" r="2.5" transform="rotate(-90 263.5 2.5)"/><circle cx="283.5" cy="2.5" r="2.5" transform="rotate(-90 283.5 2.5)"/><circle cx="273.5" cy="2.5" r="2.5" transform="rotate(-90 273.5 2.5)"/><circle cx="293.5" cy="2.5" r="2.5" transform="rotate(-90 293.5 2.5)"/><circle cx="303.5" cy="42.5" r="2.5" transform="rotate(-90 303.5 42.5)"/><circle cx="323.5" cy="42.5" r="2.5" transform="rotate(-90 323.5 42.5)"/><circle cx="313.5" cy="42.5" r="2.5" transform="rotate(-90 313.5 42.5)"/><circle cx="333.5" cy="42.5" r="2.5" transform="rotate(-90 333.5 42.5)"/><circle cx="303.5" cy="32.5" r="2.5" transform="rotate(-90 303.5 32.5)"/><circle cx="323.5" cy="32.5" r="2.5" transform="rotate(-90 323.5 32.5)"/><circle cx="313.5" cy="32.5" r="2.5" transform="rotate(-90 313.5 32.5)"/><circle cx="333.5" cy="32.5" r="2.5" transform="rotate(-90 333.5 32.5)"/><circle cx="303.5" cy="22.5" r="2.5" transform="rotate(-90 303.5 22.5)"/><circle cx="323.5" cy="22.5" r="2.5" transform="rotate(-90 323.5 22.5)"/><circle cx="313.5" cy="22.5" r="2.5" transform="rotate(-90 313.5 22.5)"/><circle cx="333.5" cy="22.5" r="2.5" transform="rotate(-90 333.5 22.5)"/><circle cx="303.5" cy="12.5" r="2.5" transform="rotate(-90 303.5 12.5)"/><circle cx="323.5" cy="12.5" r="2.5" transform="rotate(-90 323.5 12.5)"/><circle cx="313.5" cy="12.5" r="2.5" transform="rotate(-90 313.5 12.5)"/><circle cx="333.5" cy="12.5" r="2.5" transform="rotate(-90 333.5 12.5)"/><circle cx="303.5" cy="2.5" r="2.5" transform="rotate(-90 303.5 2.5)"/><circle cx="323.5" cy="2.5" r="2.5" transform="rotate(-90 323.5 2.5)"/><circle cx="313.5" cy="2.5" r="2.5" transform="rotate(-90 313.5 2.5)"/><circle cx="333.5" cy="2.5" r="2.5" transform="rotate(-90 333.5 2.5)"/><circle cx="423.5" cy="42.5" r="2.5" transform="rotate(-90 423.5 42.5)"/><circle cx="443.5" cy="42.5" r="2.5" transform="rotate(-90 443.5 42.5)"/><circle cx="433.5" cy="42.5" r="2.5" transform="rotate(-90 433.5 42.5)"/><circle cx="453.5" cy="42.5" r="2.5" transform="rotate(-90 453.5 42.5)"/><circle cx="423.5" cy="32.5" r="2.5" transform="rotate(-90 423.5 32.5)"/><circle cx="443.5" cy="32.5" r="2.5" transform="rotate(-90 443.5 32.5)"/><circle cx="433.5" cy="32.5" r="2.5" transform="rotate(-90 433.5 32.5)"/><circle cx="453.5" cy="32.5" r="2.5" transform="rotate(-90 453.5 32.5)"/><circle cx="423.5" cy="22.5" r="2.5" transform="rotate(-90 423.5 22.5)"/><circle cx="443.5" cy="22.5" r="2.5" transform="rotate(-90 443.5 22.5)"/><circle cx="433.5" cy="22.5" r="2.5" transform="rotate(-90 433.5 22.5)"/><circle cx="453.5" cy="22.5" r="2.5" transform="rotate(-90 453.5 22.5)"/><circle cx="423.5" cy="12.5" r="2.5" transform="rotate(-90 423.5 12.5)"/><circle cx="443.5" cy="12.5" r="2.5" transform="rotate(-90 443.5 12.5)"/><circle cx="433.5" cy="12.5" r="2.5" transform="rotate(-90 433.5 12.5)"/><circle cx="453.5" cy="12.5" r="2.5" transform="rotate(-90 453.5 12.5)"/><circle cx="423.5" cy="2.5" r="2.5" transform="rotate(-90 423.5 2.5)"/><circle cx="443.5" cy="2.5" r="2.5" transform="rotate(-90 443.5 2.5)"/><circle cx="433.5" cy="2.5" r="2.5" transform="rotate(-90 433.5 2.5)"/><circle cx="453.5" cy="2.5" r="2.5" transform="rotate(-90 453.5 2.5)"/><circle cx="463.5" cy="42.5" r="2.5" transform="rotate(-90 463.5 42.5)"/><circle cx="483.5" cy="42.5" r="2.5" transform="rotate(-90 483.5 42.5)"/><circle cx="473.5" cy="42.5" r="2.5" transform="rotate(-90 473.5 42.5)"/><circle cx="493.5" cy="42.5" r="2.5" transform="rotate(-90 493.5 42.5)"/><circle cx="463.5" cy="32.5" r="2.5" transform="rotate(-90 463.5 32.5)"/><circle cx="483.5" cy="32.5" r="2.5" transform="rotate(-90 483.5 32.5)"/><circle cx="473.5" cy="32.5" r="2.5" transform="rotate(-90 473.5 32.5)"/><circle cx="493.5" cy="32.5" r="2.5" transform="rotate(-90 493.5 32.5)"/><circle cx="463.5" cy="22.5" r="2.5" transform="rotate(-90 463.5 22.5)"/><circle cx="483.5" cy="22.5" r="2.5" transform="rotate(-90 483.5 22.5)"/><circle cx="473.5" cy="22.5" r="2.5" transform="rotate(-90 473.5 22.5)"/><circle cx="493.5" cy="22.5" r="2.5" transform="rotate(-90 493.5 22.5)"/><circle cx="463.5" cy="12.5" r="2.5" transform="rotate(-90 463.5 12.5)"/><circle cx="483.5" cy="12.5" r="2.5" transform="rotate(-90 483.5 12.5)"/><circle cx="473.5" cy="12.5" r="2.5" transform="rotate(-90 473.5 12.5)"/><circle cx="493.5" cy="12.5" r="2.5" transform="rotate(-90 493.5 12.5)"/><circle cx="463.5" cy="2.5" r="2.5" transform="rotate(-90 463.5 2.5)"/><circle cx="483.5" cy="2.5" r="2.5" transform="rotate(-90 483.5 2.5)"/><circle cx="473.5" cy="2.5" r="2.5" transform="rotate(-90 473.5 2.5)"/><circle cx="493.5" cy="2.5" r="2.5" transform="rotate(-90 493.5 2.5)"/><circle cx="503.5" cy="42.5" r="2.5" transform="rotate(-90 503.5 42.5)"/><circle cx="523.5" cy="42.5" r="2.5" transform="rotate(-90 523.5 42.5)"/><circle cx="513.5" cy="42.5" r="2.5" transform="rotate(-90 513.5 42.5)"/><circle cx="533.5" cy="42.5" r="2.5" transform="rotate(-90 533.5 42.5)"/><circle cx="503.5" cy="32.5" r="2.5" transform="rotate(-90 503.5 32.5)"/><circle cx="523.5" cy="32.5" r="2.5" transform="rotate(-90 523.5 32.5)"/><circle cx="513.5" cy="32.5" r="2.5" transform="rotate(-90 513.5 32.5)"/><circle cx="533.5" cy="32.5" r="2.5" transform="rotate(-90 533.5 32.5)"/><circle cx="503.5" cy="22.5" r="2.5" transform="rotate(-90 503.5 22.5)"/><circle cx="523.5" cy="22.5" r="2.5" transform="rotate(-90 523.5 22.5)"/><circle cx="513.5" cy="22.5" r="2.5" transform="rotate(-90 513.5 22.5)"/><circle cx="533.5" cy="22.5" r="2.5" transform="rotate(-90 533.5 22.5)"/><circle cx="503.5" cy="12.5" r="2.5" transform="rotate(-90 503.5 12.5)"/><circle cx="523.5" cy="12.5" r="2.5" transform="rotate(-90 523.5 12.5)"/><circle cx="513.5" cy="12.5" r="2.5" transform="rotate(-90 513.5 12.5)"/><circle cx="533.5" cy="12.5" r="2.5" transform="rotate(-90 533.5 12.5)"/><circle cx="503.5" cy="2.5" r="2.5" transform="rotate(-90 503.5 2.5)"/><circle cx="523.5" cy="2.5" r="2.5" transform="rotate(-90 523.5 2.5)"/><circle cx="513.5" cy="2.5" r="2.5" transform="rotate(-90 513.5 2.5)"/><circle cx="533.5" cy="2.5" r="2.5" transform="rotate(-90 533.5 2.5)"/><circle cx="543.5" cy="42.5" r="2.5" transform="rotate(-90 543.5 42.5)"/><circle cx="563.5" cy="42.5" r="2.5" transform="rotate(-90 563.5 42.5)"/><circle cx="553.5" cy="42.5" r="2.5" transform="rotate(-90 553.5 42.5)"/><circle cx="573.5" cy="42.5" r="2.5" transform="rotate(-90 573.5 42.5)"/><circle cx="543.5" cy="32.5" r="2.5" transform="rotate(-90 543.5 32.5)"/><circle cx="563.5" cy="32.5" r="2.5" transform="rotate(-90 563.5 32.5)"/><circle cx="553.5" cy="32.5" r="2.5" transform="rotate(-90 553.5 32.5)"/><circle cx="573.5" cy="32.5" r="2.5" transform="rotate(-90 573.5 32.5)"/><circle cx="543.5" cy="22.5" r="2.5" transform="rotate(-90 543.5 22.5)"/><circle cx="563.5" cy="22.5" r="2.5" transform="rotate(-90 563.5 22.5)"/><circle cx="553.5" cy="22.5" r="2.5" transform="rotate(-90 553.5 22.5)"/><circle cx="573.5" cy="22.5" r="2.5" transform="rotate(-90 573.5 22.5)"/><circle cx="543.5" cy="12.5" r="2.5" transform="rotate(-90 543.5 12.5)"/><circle cx="563.5" cy="12.5" r="2.5" transform="rotate(-90 563.5 12.5)"/><circle cx="553.5" cy="12.5" r="2.5" transform="rotate(-90 553.5 12.5)"/><circle cx="573.5" cy="12.5" r="2.5" transform="rotate(-90 573.5 12.5)"/><circle cx="543.5" cy="2.5" r="2.5" transform="rotate(-90 543.5 2.5)"/><circle cx="563.5" cy="2.5" r="2.5" transform="rotate(-90 563.5 2.5)"/><circle cx="553.5" cy="2.5" r="2.5" transform="rotate(-90 553.5 2.5)"/><circle cx="573.5" cy="2.5" r="2.5" transform="rotate(-90 573.5 2.5)"/><circle cx="663.5" cy="42.5" r="2.5" transform="rotate(-90 663.5 42.5)"/><circle cx="683.5" cy="42.5" r="2.5" transform="rotate(-90 683.5 42.5)"/><circle cx="673.5" cy="42.5" r="2.5" transform="rotate(-90 673.5 42.5)"/><circle cx="693.5" cy="42.5" r="2.5" transform="rotate(-90 693.5 42.5)"/><circle cx="663.5" cy="32.5" r="2.5" transform="rotate(-90 663.5 32.5)"/><circle cx="683.5" cy="32.5" r="2.5" transform="rotate(-90 683.5 32.5)"/><circle cx="673.5" cy="32.5" r="2.5" transform="rotate(-90 673.5 32.5)"/><circle cx="693.5" cy="32.5" r="2.5" transform="rotate(-90 693.5 32.5)"/><circle cx="663.5" cy="22.5" r="2.5" transform="rotate(-90 663.5 22.5)"/><circle cx="683.5" cy="22.5" r="2.5" transform="rotate(-90 683.5 22.5)"/><circle cx="673.5" cy="22.5" r="2.5" transform="rotate(-90 673.5 22.5)"/><circle cx="693.5" cy="22.5" r="2.5" transform="rotate(-90 693.5 22.5)"/><circle cx="663.5" cy="12.5" r="2.5" transform="rotate(-90 663.5 12.5)"/><circle cx="683.5" cy="12.5" r="2.5" transform="rotate(-90 683.5 12.5)"/><circle cx="673.5" cy="12.5" r="2.5" transform="rotate(-90 673.5 12.5)"/><circle cx="693.5" cy="12.5" r="2.5" transform="rotate(-90 693.5 12.5)"/><circle cx="663.5" cy="2.5" r="2.5" transform="rotate(-90 663.5 2.5)"/><circle cx="683.5" cy="2.5" r="2.5" transform="rotate(-90 683.5 2.5)"/><circle cx="673.5" cy="2.5" r="2.5" transform="rotate(-90 673.5 2.5)"/><circle cx="693.5" cy="2.5" r="2.5" transform="rotate(-90 693.5 2.5)"/><circle cx="703.5" cy="42.5" r="2.5" transform="rotate(-90 703.5 42.5)"/><circle cx="713.5" cy="42.5" r="2.5" transform="rotate(-90 713.5 42.5)"/><circle cx="703.5" cy="32.5" r="2.5" transform="rotate(-90 703.5 32.5)"/><circle cx="713.5" cy="32.5" r="2.5" transform="rotate(-90 713.5 32.5)"/><circle cx="703.5" cy="22.5" r="2.5" transform="rotate(-90 703.5 22.5)"/><circle cx="713.5" cy="22.5" r="2.5" transform="rotate(-90 713.5 22.5)"/><circle cx="703.5" cy="12.5" r="2.5" transform="rotate(-90 703.5 12.5)"/><circle cx="713.5" cy="12.5" r="2.5" transform="rotate(-90 713.5 12.5)"/><circle cx="703.5" cy="2.5" r="2.5" transform="rotate(-90 703.5 2.5)"/><circle cx="713.5" cy="2.5" r="2.5" transform="rotate(-90 713.5 2.5)"/><circle cx="583.5" cy="42.5" r="2.5" transform="rotate(-90 583.5 42.5)"/><circle cx="603.5" cy="42.5" r="2.5" transform="rotate(-90 603.5 42.5)"/><circle cx="593.5" cy="42.5" r="2.5" transform="rotate(-90 593.5 42.5)"/><circle cx="613.5" cy="42.5" r="2.5" transform="rotate(-90 613.5 42.5)"/><circle cx="583.5" cy="32.5" r="2.5" transform="rotate(-90 583.5 32.5)"/><circle cx="603.5" cy="32.5" r="2.5" transform="rotate(-90 603.5 32.5)"/><circle cx="593.5" cy="32.5" r="2.5" transform="rotate(-90 593.5 32.5)"/><circle cx="613.5" cy="32.5" r="2.5" transform="rotate(-90 613.5 32.5)"/><circle cx="583.5" cy="22.5" r="2.5" transform="rotate(-90 583.5 22.5)"/><circle cx="603.5" cy="22.5" r="2.5" transform="rotate(-90 603.5 22.5)"/><circle cx="593.5" cy="22.5" r="2.5" transform="rotate(-90 593.5 22.5)"/><circle cx="613.5" cy="22.5" r="2.5" transform="rotate(-90 613.5 22.5)"/><circle cx="583.5" cy="12.5" r="2.5" transform="rotate(-90 583.5 12.5)"/><circle cx="603.5" cy="12.5" r="2.5" transform="rotate(-90 603.5 12.5)"/><circle cx="593.5" cy="12.5" r="2.5" transform="rotate(-90 593.5 12.5)"/><circle cx="613.5" cy="12.5" r="2.5" transform="rotate(-90 613.5 12.5)"/><circle cx="583.5" cy="2.5" r="2.5" transform="rotate(-90 583.5 2.5)"/><circle cx="603.5" cy="2.5" r="2.5" transform="rotate(-90 603.5 2.5)"/><circle cx="593.5" cy="2.5" r="2.5" transform="rotate(-90 593.5 2.5)"/><circle cx="613.5" cy="2.5" r="2.5" transform="rotate(-90 613.5 2.5)"/><circle cx="623.5" cy="42.5" r="2.5" transform="rotate(-90 623.5 42.5)"/><circle cx="643.5" cy="42.5" r="2.5" transform="rotate(-90 643.5 42.5)"/><circle cx="633.5" cy="42.5" r="2.5" transform="rotate(-90 633.5 42.5)"/><circle cx="653.5" cy="42.5" r="2.5" transform="rotate(-90 653.5 42.5)"/><circle cx="623.5" cy="32.5" r="2.5" transform="rotate(-90 623.5 32.5)"/><circle cx="643.5" cy="32.5" r="2.5" transform="rotate(-90 643.5 32.5)"/><circle cx="633.5" cy="32.5" r="2.5" transform="rotate(-90 633.5 32.5)"/><circle cx="653.5" cy="32.5" r="2.5" transform="rotate(-90 653.5 32.5)"/><circle cx="623.5" cy="22.5" r="2.5" transform="rotate(-90 623.5 22.5)"/><circle cx="643.5" cy="22.5" r="2.5" transform="rotate(-90 643.5 22.5)"/><circle cx="633.5" cy="22.5" r="2.5" transform="rotate(-90 633.5 22.5)"/><circle cx="653.5" cy="22.5" r="2.5" transform="rotate(-90 653.5 22.5)"/><circle cx="623.5" cy="12.5" r="2.5" transform="rotate(-90 623.5 12.5)"/><circle cx="643.5" cy="12.5" r="2.5" transform="rotate(-90 643.5 12.5)"/><circle cx="633.5" cy="12.5" r="2.5" transform="rotate(-90 633.5 12.5)"/><circle cx="653.5" cy="12.5" r="2.5" transform="rotate(-90 653.5 12.5)"/><circle cx="623.5" cy="2.5" r="2.5" transform="rotate(-90 623.5 2.5)"/><circle cx="643.5" cy="2.5" r="2.5" transform="rotate(-90 643.5 2.5)"/><circle cx="633.5" cy="2.5" r="2.5" transform="rotate(-90 633.5 2.5)"/><circle cx="653.5" cy="2.5" r="2.5" transform="rotate(-90 653.5 2.5)"/><circle cx="183.5" cy="532.5" r="2.5" transform="rotate(-90 183.5 532.5)"/><circle cx="203.5" cy="532.5" r="2.5" transform="rotate(-90 203.5 532.5)"/><circle cx="193.5" cy="532.5" r="2.5" transform="rotate(-90 193.5 532.5)"/><circle cx="213.5" cy="532.5" r="2.5" transform="rotate(-90 213.5 532.5)"/><circle cx="183.5" cy="522.5" r="2.5" transform="rotate(-90 183.5 522.5)"/><circle cx="203.5" cy="522.5" r="2.5" transform="rotate(-90 203.5 522.5)"/><circle cx="193.5" cy="522.5" r="2.5" transform="rotate(-90 193.5 522.5)"/><circle cx="213.5" cy="522.5" r="2.5" transform="rotate(-90 213.5 522.5)"/><circle cx="183.5" cy="512.5" r="2.5" transform="rotate(-90 183.5 512.5)"/><circle cx="203.5" cy="512.5" r="2.5" transform="rotate(-90 203.5 512.5)"/><circle cx="193.5" cy="512.5" r="2.5" transform="rotate(-90 193.5 512.5)"/><circle cx="213.5" cy="512.5" r="2.5" transform="rotate(-90 213.5 512.5)"/><circle cx="183.5" cy="502.5" r="2.5" transform="rotate(-90 183.5 502.5)"/><circle cx="203.5" cy="502.5" r="2.5" transform="rotate(-90 203.5 502.5)"/><circle cx="193.5" cy="502.5" r="2.5" transform="rotate(-90 193.5 502.5)"/><circle cx="213.5" cy="502.5" r="2.5" transform="rotate(-90 213.5 502.5)"/><circle cx="183.5" cy="492.5" r="2.5" transform="rotate(-90 183.5 492.5)"/><circle cx="203.5" cy="492.5" r="2.5" transform="rotate(-90 203.5 492.5)"/><circle cx="193.5" cy="492.5" r="2.5" transform="rotate(-90 193.5 492.5)"/><circle cx="213.5" cy="492.5" r="2.5" transform="rotate(-90 213.5 492.5)"/><circle cx="223.5" cy="532.5" r="2.5" transform="rotate(-90 223.5 532.5)"/><circle cx="243.5" cy="532.5" r="2.5" transform="rotate(-90 243.5 532.5)"/><circle cx="233.5" cy="532.5" r="2.5" transform="rotate(-90 233.5 532.5)"/><circle cx="253.5" cy="532.5" r="2.5" transform="rotate(-90 253.5 532.5)"/><circle cx="223.5" cy="522.5" r="2.5" transform="rotate(-90 223.5 522.5)"/><circle cx="243.5" cy="522.5" r="2.5" transform="rotate(-90 243.5 522.5)"/><circle cx="233.5" cy="522.5" r="2.5" transform="rotate(-90 233.5 522.5)"/><circle cx="253.5" cy="522.5" r="2.5" transform="rotate(-90 253.5 522.5)"/><circle cx="223.5" cy="512.5" r="2.5" transform="rotate(-90 223.5 512.5)"/><circle cx="243.5" cy="512.5" r="2.5" transform="rotate(-90 243.5 512.5)"/><circle cx="233.5" cy="512.5" r="2.5" transform="rotate(-90 233.5 512.5)"/><circle cx="253.5" cy="512.5" r="2.5" transform="rotate(-90 253.5 512.5)"/><circle cx="223.5" cy="502.5" r="2.5" transform="rotate(-90 223.5 502.5)"/><circle cx="243.5" cy="502.5" r="2.5" transform="rotate(-90 243.5 502.5)"/><circle cx="233.5" cy="502.5" r="2.5" transform="rotate(-90 233.5 502.5)"/><circle cx="253.5" cy="502.5" r="2.5" transform="rotate(-90 253.5 502.5)"/><circle cx="223.5" cy="492.5" r="2.5" transform="rotate(-90 223.5 492.5)"/><circle cx="243.5" cy="492.5" r="2.5" transform="rotate(-90 243.5 492.5)"/><circle cx="233.5" cy="492.5" r="2.5" transform="rotate(-90 233.5 492.5)"/><circle cx="253.5" cy="492.5" r="2.5" transform="rotate(-90 253.5 492.5)"/><circle cx="343.5" cy="532.5" r="2.5" transform="rotate(-90 343.5 532.5)"/><circle cx="363.5" cy="532.5" r="2.5" transform="rotate(-90 363.5 532.5)"/><circle cx="353.5" cy="532.5" r="2.5" transform="rotate(-90 353.5 532.5)"/><circle cx="373.5" cy="532.5" r="2.5" transform="rotate(-90 373.5 532.5)"/><circle cx="343.5" cy="522.5" r="2.5" transform="rotate(-90 343.5 522.5)"/><circle cx="363.5" cy="522.5" r="2.5" transform="rotate(-90 363.5 522.5)"/><circle cx="353.5" cy="522.5" r="2.5" transform="rotate(-90 353.5 522.5)"/><circle cx="373.5" cy="522.5" r="2.5" transform="rotate(-90 373.5 522.5)"/><circle cx="343.5" cy="512.5" r="2.5" transform="rotate(-90 343.5 512.5)"/><circle cx="363.5" cy="512.5" r="2.5" transform="rotate(-90 363.5 512.5)"/><circle cx="353.5" cy="512.5" r="2.5" transform="rotate(-90 353.5 512.5)"/><circle cx="373.5" cy="512.5" r="2.5" transform="rotate(-90 373.5 512.5)"/><circle cx="343.5" cy="502.5" r="2.5" transform="rotate(-90 343.5 502.5)"/><circle cx="363.5" cy="502.5" r="2.5" transform="rotate(-90 363.5 502.5)"/><circle cx="353.5" cy="502.5" r="2.5" transform="rotate(-90 353.5 502.5)"/><circle cx="373.5" cy="502.5" r="2.5" transform="rotate(-90 373.5 502.5)"/><circle cx="343.5" cy="492.5" r="2.5" transform="rotate(-90 343.5 492.5)"/><circle cx="363.5" cy="492.5" r="2.5" transform="rotate(-90 363.5 492.5)"/><circle cx="353.5" cy="492.5" r="2.5" transform="rotate(-90 353.5 492.5)"/><circle cx="373.5" cy="492.5" r="2.5" transform="rotate(-90 373.5 492.5)"/><circle cx="383.5" cy="532.5" r="2.5" transform="rotate(-90 383.5 532.5)"/><circle cx="403.5" cy="532.5" r="2.5" transform="rotate(-90 403.5 532.5)"/><circle cx="393.5" cy="532.5" r="2.5" transform="rotate(-90 393.5 532.5)"/><circle cx="413.5" cy="532.5" r="2.5" transform="rotate(-90 413.5 532.5)"/><circle cx="383.5" cy="522.5" r="2.5" transform="rotate(-90 383.5 522.5)"/><circle cx="403.5" cy="522.5" r="2.5" transform="rotate(-90 403.5 522.5)"/><circle cx="393.5" cy="522.5" r="2.5" transform="rotate(-90 393.5 522.5)"/><circle cx="413.5" cy="522.5" r="2.5" transform="rotate(-90 413.5 522.5)"/><circle cx="383.5" cy="512.5" r="2.5" transform="rotate(-90 383.5 512.5)"/><circle cx="403.5" cy="512.5" r="2.5" transform="rotate(-90 403.5 512.5)"/><circle cx="393.5" cy="512.5" r="2.5" transform="rotate(-90 393.5 512.5)"/><circle cx="413.5" cy="512.5" r="2.5" transform="rotate(-90 413.5 512.5)"/><circle cx="383.5" cy="502.5" r="2.5" transform="rotate(-90 383.5 502.5)"/><circle cx="403.5" cy="502.5" r="2.5" transform="rotate(-90 403.5 502.5)"/><circle cx="393.5" cy="502.5" r="2.5" transform="rotate(-90 393.5 502.5)"/><circle cx="413.5" cy="502.5" r="2.5" transform="rotate(-90 413.5 502.5)"/><circle cx="383.5" cy="492.5" r="2.5" transform="rotate(-90 383.5 492.5)"/><circle cx="403.5" cy="492.5" r="2.5" transform="rotate(-90 403.5 492.5)"/><circle cx="393.5" cy="492.5" r="2.5" transform="rotate(-90 393.5 492.5)"/><circle cx="413.5" cy="492.5" r="2.5" transform="rotate(-90 413.5 492.5)"/><circle cx="263.5" cy="532.5" r="2.5" transform="rotate(-90 263.5 532.5)"/><circle cx="283.5" cy="532.5" r="2.5" transform="rotate(-90 283.5 532.5)"/><circle cx="273.5" cy="532.5" r="2.5" transform="rotate(-90 273.5 532.5)"/><circle cx="293.5" cy="532.5" r="2.5" transform="rotate(-90 293.5 532.5)"/><circle cx="263.5" cy="522.5" r="2.5" transform="rotate(-90 263.5 522.5)"/><circle cx="283.5" cy="522.5" r="2.5" transform="rotate(-90 283.5 522.5)"/><circle cx="273.5" cy="522.5" r="2.5" transform="rotate(-90 273.5 522.5)"/><circle cx="293.5" cy="522.5" r="2.5" transform="rotate(-90 293.5 522.5)"/><circle cx="263.5" cy="512.5" r="2.5" transform="rotate(-90 263.5 512.5)"/><circle cx="283.5" cy="512.5" r="2.5" transform="rotate(-90 283.5 512.5)"/><circle cx="273.5" cy="512.5" r="2.5" transform="rotate(-90 273.5 512.5)"/><circle cx="293.5" cy="512.5" r="2.5" transform="rotate(-90 293.5 512.5)"/><circle cx="263.5" cy="502.5" r="2.5" transform="rotate(-90 263.5 502.5)"/><circle cx="283.5" cy="502.5" r="2.5" transform="rotate(-90 283.5 502.5)"/><circle cx="273.5" cy="502.5" r="2.5" transform="rotate(-90 273.5 502.5)"/><circle cx="293.5" cy="502.5" r="2.5" transform="rotate(-90 293.5 502.5)"/><circle cx="263.5" cy="492.5" r="2.5" transform="rotate(-90 263.5 492.5)"/><circle cx="283.5" cy="492.5" r="2.5" transform="rotate(-90 283.5 492.5)"/><circle cx="273.5" cy="492.5" r="2.5" transform="rotate(-90 273.5 492.5)"/><circle cx="293.5" cy="492.5" r="2.5" transform="rotate(-90 293.5 492.5)"/><circle cx="303.5" cy="532.5" r="2.5" transform="rotate(-90 303.5 532.5)"/><circle cx="323.5" cy="532.5" r="2.5" transform="rotate(-90 323.5 532.5)"/><circle cx="313.5" cy="532.5" r="2.5" transform="rotate(-90 313.5 532.5)"/><circle cx="333.5" cy="532.5" r="2.5" transform="rotate(-90 333.5 532.5)"/><circle cx="303.5" cy="522.5" r="2.5" transform="rotate(-90 303.5 522.5)"/><circle cx="323.5" cy="522.5" r="2.5" transform="rotate(-90 323.5 522.5)"/><circle cx="313.5" cy="522.5" r="2.5" transform="rotate(-90 313.5 522.5)"/><circle cx="333.5" cy="522.5" r="2.5" transform="rotate(-90 333.5 522.5)"/><circle cx="303.5" cy="512.5" r="2.5" transform="rotate(-90 303.5 512.5)"/><circle cx="323.5" cy="512.5" r="2.5" transform="rotate(-90 323.5 512.5)"/><circle cx="313.5" cy="512.5" r="2.5" transform="rotate(-90 313.5 512.5)"/><circle cx="333.5" cy="512.5" r="2.5" transform="rotate(-90 333.5 512.5)"/><circle cx="303.5" cy="502.5" r="2.5" transform="rotate(-90 303.5 502.5)"/><circle cx="323.5" cy="502.5" r="2.5" transform="rotate(-90 323.5 502.5)"/><circle cx="313.5" cy="502.5" r="2.5" transform="rotate(-90 313.5 502.5)"/><circle cx="333.5" cy="502.5" r="2.5" transform="rotate(-90 333.5 502.5)"/><circle cx="303.5" cy="492.5" r="2.5" transform="rotate(-90 303.5 492.5)"/><circle cx="323.5" cy="492.5" r="2.5" transform="rotate(-90 323.5 492.5)"/><circle cx="313.5" cy="492.5" r="2.5" transform="rotate(-90 313.5 492.5)"/><circle cx="333.5" cy="492.5" r="2.5" transform="rotate(-90 333.5 492.5)"/><circle cx="423.5" cy="532.5" r="2.5" transform="rotate(-90 423.5 532.5)"/><circle cx="443.5" cy="532.5" r="2.5" transform="rotate(-90 443.5 532.5)"/><circle cx="433.5" cy="532.5" r="2.5" transform="rotate(-90 433.5 532.5)"/><circle cx="453.5" cy="532.5" r="2.5" transform="rotate(-90 453.5 532.5)"/><circle cx="423.5" cy="522.5" r="2.5" transform="rotate(-90 423.5 522.5)"/><circle cx="443.5" cy="522.5" r="2.5" transform="rotate(-90 443.5 522.5)"/><circle cx="433.5" cy="522.5" r="2.5" transform="rotate(-90 433.5 522.5)"/><circle cx="453.5" cy="522.5" r="2.5" transform="rotate(-90 453.5 522.5)"/><circle cx="423.5" cy="512.5" r="2.5" transform="rotate(-90 423.5 512.5)"/><circle cx="443.5" cy="512.5" r="2.5" transform="rotate(-90 443.5 512.5)"/><circle cx="433.5" cy="512.5" r="2.5" transform="rotate(-90 433.5 512.5)"/><circle cx="453.5" cy="512.5" r="2.5" transform="rotate(-90 453.5 512.5)"/><circle cx="423.5" cy="502.5" r="2.5" transform="rotate(-90 423.5 502.5)"/><circle cx="443.5" cy="502.5" r="2.5" transform="rotate(-90 443.5 502.5)"/><circle cx="433.5" cy="502.5" r="2.5" transform="rotate(-90 433.5 502.5)"/><circle cx="453.5" cy="502.5" r="2.5" transform="rotate(-90 453.5 502.5)"/><circle cx="423.5" cy="492.5" r="2.5" transform="rotate(-90 423.5 492.5)"/><circle cx="443.5" cy="492.5" r="2.5" transform="rotate(-90 443.5 492.5)"/><circle cx="433.5" cy="492.5" r="2.5" transform="rotate(-90 433.5 492.5)"/><circle cx="453.5" cy="492.5" r="2.5" transform="rotate(-90 453.5 492.5)"/><circle cx="463.5" cy="532.5" r="2.5" transform="rotate(-90 463.5 532.5)"/><circle cx="483.5" cy="532.5" r="2.5" transform="rotate(-90 483.5 532.5)"/><circle cx="473.5" cy="532.5" r="2.5" transform="rotate(-90 473.5 532.5)"/><circle cx="493.5" cy="532.5" r="2.5" transform="rotate(-90 493.5 532.5)"/><circle cx="463.5" cy="522.5" r="2.5" transform="rotate(-90 463.5 522.5)"/><circle cx="483.5" cy="522.5" r="2.5" transform="rotate(-90 483.5 522.5)"/><circle cx="473.5" cy="522.5" r="2.5" transform="rotate(-90 473.5 522.5)"/><circle cx="493.5" cy="522.5" r="2.5" transform="rotate(-90 493.5 522.5)"/><circle cx="463.5" cy="512.5" r="2.5" transform="rotate(-90 463.5 512.5)"/><circle cx="483.5" cy="512.5" r="2.5" transform="rotate(-90 483.5 512.5)"/><circle cx="473.5" cy="512.5" r="2.5" transform="rotate(-90 473.5 512.5)"/><circle cx="493.5" cy="512.5" r="2.5" transform="rotate(-90 493.5 512.5)"/><circle cx="463.5" cy="502.5" r="2.5" transform="rotate(-90 463.5 502.5)"/><circle cx="483.5" cy="502.5" r="2.5" transform="rotate(-90 483.5 502.5)"/><circle cx="473.5" cy="502.5" r="2.5" transform="rotate(-90 473.5 502.5)"/><circle cx="493.5" cy="502.5" r="2.5" transform="rotate(-90 493.5 502.5)"/><circle cx="463.5" cy="492.5" r="2.5" transform="rotate(-90 463.5 492.5)"/><circle cx="483.5" cy="492.5" r="2.5" transform="rotate(-90 483.5 492.5)"/><circle cx="473.5" cy="492.5" r="2.5" transform="rotate(-90 473.5 492.5)"/><circle cx="493.5" cy="492.5" r="2.5" transform="rotate(-90 493.5 492.5)"/><circle cx="503.5" cy="532.5" r="2.5" transform="rotate(-90 503.5 532.5)"/><circle cx="523.5" cy="532.5" r="2.5" transform="rotate(-90 523.5 532.5)"/><circle cx="513.5" cy="532.5" r="2.5" transform="rotate(-90 513.5 532.5)"/><circle cx="533.5" cy="532.5" r="2.5" transform="rotate(-90 533.5 532.5)"/><circle cx="503.5" cy="522.5" r="2.5" transform="rotate(-90 503.5 522.5)"/><circle cx="523.5" cy="522.5" r="2.5" transform="rotate(-90 523.5 522.5)"/><circle cx="513.5" cy="522.5" r="2.5" transform="rotate(-90 513.5 522.5)"/><circle cx="533.5" cy="522.5" r="2.5" transform="rotate(-90 533.5 522.5)"/><circle cx="503.5" cy="512.5" r="2.5" transform="rotate(-90 503.5 512.5)"/><circle cx="523.5" cy="512.5" r="2.5" transform="rotate(-90 523.5 512.5)"/><circle cx="513.5" cy="512.5" r="2.5" transform="rotate(-90 513.5 512.5)"/><circle cx="533.5" cy="512.5" r="2.5" transform="rotate(-90 533.5 512.5)"/><circle cx="503.5" cy="502.5" r="2.5" transform="rotate(-90 503.5 502.5)"/><circle cx="523.5" cy="502.5" r="2.5" transform="rotate(-90 523.5 502.5)"/><circle cx="513.5" cy="502.5" r="2.5" transform="rotate(-90 513.5 502.5)"/><circle cx="533.5" cy="502.5" r="2.5" transform="rotate(-90 533.5 502.5)"/><circle cx="503.5" cy="492.5" r="2.5" transform="rotate(-90 503.5 492.5)"/><circle cx="523.5" cy="492.5" r="2.5" transform="rotate(-90 523.5 492.5)"/><circle cx="513.5" cy="492.5" r="2.5" transform="rotate(-90 513.5 492.5)"/><circle cx="533.5" cy="492.5" r="2.5" transform="rotate(-90 533.5 492.5)"/><circle cx="543.5" cy="532.5" r="2.5" transform="rotate(-90 543.5 532.5)"/><circle cx="563.5" cy="532.5" r="2.5" transform="rotate(-90 563.5 532.5)"/><circle cx="553.5" cy="532.5" r="2.5" transform="rotate(-90 553.5 532.5)"/><circle cx="573.5" cy="532.5" r="2.5" transform="rotate(-90 573.5 532.5)"/><circle cx="543.5" cy="522.5" r="2.5" transform="rotate(-90 543.5 522.5)"/><circle cx="563.5" cy="522.5" r="2.5" transform="rotate(-90 563.5 522.5)"/><circle cx="553.5" cy="522.5" r="2.5" transform="rotate(-90 553.5 522.5)"/><circle cx="573.5" cy="522.5" r="2.5" transform="rotate(-90 573.5 522.5)"/><circle cx="543.5" cy="512.5" r="2.5" transform="rotate(-90 543.5 512.5)"/><circle cx="563.5" cy="512.5" r="2.5" transform="rotate(-90 563.5 512.5)"/><circle cx="553.5" cy="512.5" r="2.5" transform="rotate(-90 553.5 512.5)"/><circle cx="573.5" cy="512.5" r="2.5" transform="rotate(-90 573.5 512.5)"/><circle cx="543.5" cy="502.5" r="2.5" transform="rotate(-90 543.5 502.5)"/><circle cx="563.5" cy="502.5" r="2.5" transform="rotate(-90 563.5 502.5)"/><circle cx="553.5" cy="502.5" r="2.5" transform="rotate(-90 553.5 502.5)"/><circle cx="573.5" cy="502.5" r="2.5" transform="rotate(-90 573.5 502.5)"/><circle cx="543.5" cy="492.5" r="2.5" transform="rotate(-90 543.5 492.5)"/><circle cx="563.5" cy="492.5" r="2.5" transform="rotate(-90 563.5 492.5)"/><circle cx="553.5" cy="492.5" r="2.5" transform="rotate(-90 553.5 492.5)"/><circle cx="573.5" cy="492.5" r="2.5" transform="rotate(-90 573.5 492.5)"/><circle cx="663.5" cy="532.5" r="2.5" transform="rotate(-90 663.5 532.5)"/><circle cx="683.5" cy="532.5" r="2.5" transform="rotate(-90 683.5 532.5)"/><circle cx="673.5" cy="532.5" r="2.5" transform="rotate(-90 673.5 532.5)"/><circle cx="693.5" cy="532.5" r="2.5" transform="rotate(-90 693.5 532.5)"/><circle cx="663.5" cy="522.5" r="2.5" transform="rotate(-90 663.5 522.5)"/><circle cx="683.5" cy="522.5" r="2.5" transform="rotate(-90 683.5 522.5)"/><circle cx="673.5" cy="522.5" r="2.5" transform="rotate(-90 673.5 522.5)"/><circle cx="693.5" cy="522.5" r="2.5" transform="rotate(-90 693.5 522.5)"/><circle cx="663.5" cy="512.5" r="2.5" transform="rotate(-90 663.5 512.5)"/><circle cx="683.5" cy="512.5" r="2.5" transform="rotate(-90 683.5 512.5)"/><circle cx="673.5" cy="512.5" r="2.5" transform="rotate(-90 673.5 512.5)"/><circle cx="693.5" cy="512.5" r="2.5" transform="rotate(-90 693.5 512.5)"/><circle cx="663.5" cy="502.5" r="2.5" transform="rotate(-90 663.5 502.5)"/><circle cx="683.5" cy="502.5" r="2.5" transform="rotate(-90 683.5 502.5)"/><circle cx="673.5" cy="502.5" r="2.5" transform="rotate(-90 673.5 502.5)"/><circle cx="693.5" cy="502.5" r="2.5" transform="rotate(-90 693.5 502.5)"/><circle cx="663.5" cy="492.5" r="2.5" transform="rotate(-90 663.5 492.5)"/><circle cx="683.5" cy="492.5" r="2.5" transform="rotate(-90 683.5 492.5)"/><circle cx="673.5" cy="492.5" r="2.5" transform="rotate(-90 673.5 492.5)"/><circle cx="693.5" cy="492.5" r="2.5" transform="rotate(-90 693.5 492.5)"/><circle cx="703.5" cy="532.5" r="2.5" transform="rotate(-90 703.5 532.5)"/><circle cx="713.5" cy="532.5" r="2.5" transform="rotate(-90 713.5 532.5)"/><circle cx="703.5" cy="522.5" r="2.5" transform="rotate(-90 703.5 522.5)"/><circle cx="713.5" cy="522.5" r="2.5" transform="rotate(-90 713.5 522.5)"/><circle cx="703.5" cy="512.5" r="2.5" transform="rotate(-90 703.5 512.5)"/><circle cx="713.5" cy="512.5" r="2.5" transform="rotate(-90 713.5 512.5)"/><circle cx="703.5" cy="502.5" r="2.5" transform="rotate(-90 703.5 502.5)"/><circle cx="713.5" cy="502.5" r="2.5" transform="rotate(-90 713.5 502.5)"/><circle cx="703.5" cy="492.5" r="2.5" transform="rotate(-90 703.5 492.5)"/><circle cx="713.5" cy="492.5" r="2.5" transform="rotate(-90 713.5 492.5)"/><circle cx="583.5" cy="532.5" r="2.5" transform="rotate(-90 583.5 532.5)"/><circle cx="603.5" cy="532.5" r="2.5" transform="rotate(-90 603.5 532.5)"/><circle cx="593.5" cy="532.5" r="2.5" transform="rotate(-90 593.5 532.5)"/><circle cx="613.5" cy="532.5" r="2.5" transform="rotate(-90 613.5 532.5)"/><circle cx="583.5" cy="522.5" r="2.5" transform="rotate(-90 583.5 522.5)"/><circle cx="603.5" cy="522.5" r="2.5" transform="rotate(-90 603.5 522.5)"/><circle cx="593.5" cy="522.5" r="2.5" transform="rotate(-90 593.5 522.5)"/><circle cx="613.5" cy="522.5" r="2.5" transform="rotate(-90 613.5 522.5)"/><circle cx="583.5" cy="512.5" r="2.5" transform="rotate(-90 583.5 512.5)"/><circle cx="603.5" cy="512.5" r="2.5" transform="rotate(-90 603.5 512.5)"/><circle cx="593.5" cy="512.5" r="2.5" transform="rotate(-90 593.5 512.5)"/><circle cx="613.5" cy="512.5" r="2.5" transform="rotate(-90 613.5 512.5)"/><circle cx="583.5" cy="502.5" r="2.5" transform="rotate(-90 583.5 502.5)"/><circle cx="603.5" cy="502.5" r="2.5" transform="rotate(-90 603.5 502.5)"/><circle cx="593.5" cy="502.5" r="2.5" transform="rotate(-90 593.5 502.5)"/><circle cx="613.5" cy="502.5" r="2.5" transform="rotate(-90 613.5 502.5)"/><circle cx="583.5" cy="492.5" r="2.5" transform="rotate(-90 583.5 492.5)"/><circle cx="603.5" cy="492.5" r="2.5" transform="rotate(-90 603.5 492.5)"/><circle cx="593.5" cy="492.5" r="2.5" transform="rotate(-90 593.5 492.5)"/><circle cx="613.5" cy="492.5" r="2.5" transform="rotate(-90 613.5 492.5)"/><circle cx="623.5" cy="532.5" r="2.5" transform="rotate(-90 623.5 532.5)"/><circle cx="643.5" cy="532.5" r="2.5" transform="rotate(-90 643.5 532.5)"/><circle cx="633.5" cy="532.5" r="2.5" transform="rotate(-90 633.5 532.5)"/><circle cx="653.5" cy="532.5" r="2.5" transform="rotate(-90 653.5 532.5)"/><circle cx="623.5" cy="522.5" r="2.5" transform="rotate(-90 623.5 522.5)"/><circle cx="643.5" cy="522.5" r="2.5" transform="rotate(-90 643.5 522.5)"/><circle cx="633.5" cy="522.5" r="2.5" transform="rotate(-90 633.5 522.5)"/><circle cx="653.5" cy="522.5" r="2.5" transform="rotate(-90 653.5 522.5)"/><circle cx="623.5" cy="512.5" r="2.5" transform="rotate(-90 623.5 512.5)"/><circle cx="643.5" cy="512.5" r="2.5" transform="rotate(-90 643.5 512.5)"/><circle cx="633.5" cy="512.5" r="2.5" transform="rotate(-90 633.5 512.5)"/><circle cx="653.5" cy="512.5" r="2.5" transform="rotate(-90 653.5 512.5)"/><circle cx="623.5" cy="502.5" r="2.5" transform="rotate(-90 623.5 502.5)"/><circle cx="643.5" cy="502.5" r="2.5" transform="rotate(-90 643.5 502.5)"/><circle cx="633.5" cy="502.5" r="2.5" transform="rotate(-90 633.5 502.5)"/><circle cx="653.5" cy="502.5" r="2.5" transform="rotate(-90 653.5 502.5)"/><circle cx="623.5" cy="492.5" r="2.5" transform="rotate(-90 623.5 492.5)"/><circle cx="643.5" cy="492.5" r="2.5" transform="rotate(-90 643.5 492.5)"/><circle cx="633.5" cy="492.5" r="2.5" transform="rotate(-90 633.5 492.5)"/><circle cx="653.5" cy="492.5" r="2.5" transform="rotate(-90 653.5 492.5)"/><circle cx="122.5" cy="42.5" r="2.5" transform="rotate(-90 122.5 42.5)"/><circle cx="142.5" cy="42.5" r="2.5" transform="rotate(-90 142.5 42.5)"/><circle cx="132.5" cy="42.5" r="2.5" transform="rotate(-90 132.5 42.5)"/><circle cx="152.5" cy="42.5" r="2.5" transform="rotate(-90 152.5 42.5)"/><circle cx="122.5" cy="32.5" r="2.5" transform="rotate(-90 122.5 32.5)"/><circle cx="142.5" cy="32.5" r="2.5" transform="rotate(-90 142.5 32.5)"/><circle cx="132.5" cy="32.5" r="2.5" transform="rotate(-90 132.5 32.5)"/><circle cx="152.5" cy="32.5" r="2.5" transform="rotate(-90 152.5 32.5)"/><circle cx="122.5" cy="22.5" r="2.5" transform="rotate(-90 122.5 22.5)"/><circle cx="142.5" cy="22.5" r="2.5" transform="rotate(-90 142.5 22.5)"/><circle cx="132.5" cy="22.5" r="2.5" transform="rotate(-90 132.5 22.5)"/><circle cx="152.5" cy="22.5" r="2.5" transform="rotate(-90 152.5 22.5)"/><circle cx="122.5" cy="12.5" r="2.5" transform="rotate(-90 122.5 12.5)"/><circle cx="142.5" cy="12.5" r="2.5" transform="rotate(-90 142.5 12.5)"/><circle cx="132.5" cy="12.5" r="2.5" transform="rotate(-90 132.5 12.5)"/><circle cx="152.5" cy="12.5" r="2.5" transform="rotate(-90 152.5 12.5)"/><circle cx="122.5" cy="2.5" r="2.5" transform="rotate(-90 122.5 2.5)"/><circle cx="142.5" cy="2.5" r="2.5" transform="rotate(-90 142.5 2.5)"/><circle cx="132.5" cy="2.5" r="2.5" transform="rotate(-90 132.5 2.5)"/><circle cx="152.5" cy="2.5" r="2.5" transform="rotate(-90 152.5 2.5)"/><circle cx="162.5" cy="42.5" r="2.5" transform="rotate(-90 162.5 42.5)"/><circle cx="172.5" cy="42.5" r="2.5" transform="rotate(-90 172.5 42.5)"/><circle cx="162.5" cy="32.5" r="2.5" transform="rotate(-90 162.5 32.5)"/><circle cx="172.5" cy="32.5" r="2.5" transform="rotate(-90 172.5 32.5)"/><circle cx="162.5" cy="22.5" r="2.5" transform="rotate(-90 162.5 22.5)"/><circle cx="172.5" cy="22.5" r="2.5" transform="rotate(-90 172.5 22.5)"/><circle cx="162.5" cy="12.5" r="2.5" transform="rotate(-90 162.5 12.5)"/><circle cx="172.5" cy="12.5" r="2.5" transform="rotate(-90 172.5 12.5)"/><circle cx="162.5" cy="2.5" r="2.5" transform="rotate(-90 162.5 2.5)"/><circle cx="172.5" cy="2.5" r="2.5" transform="rotate(-90 172.5 2.5)"/><circle cx="42.5" cy="42.5" r="2.5" transform="rotate(-90 42.5 42.5)"/><circle cx="62.5" cy="42.5" r="2.5" transform="rotate(-90 62.5 42.5)"/><circle cx="52.5" cy="42.5" r="2.5" transform="rotate(-90 52.5 42.5)"/><circle cx="72.5" cy="42.5" r="2.5" transform="rotate(-90 72.5 42.5)"/><circle cx="42.5" cy="32.5" r="2.5" transform="rotate(-90 42.5 32.5)"/><circle cx="62.5" cy="32.5" r="2.5" transform="rotate(-90 62.5 32.5)"/><circle cx="52.5" cy="32.5" r="2.5" transform="rotate(-90 52.5 32.5)"/><circle cx="72.5" cy="32.5" r="2.5" transform="rotate(-90 72.5 32.5)"/><circle cx="42.5" cy="22.5" r="2.5" transform="rotate(-90 42.5 22.5)"/><circle cx="62.5" cy="22.5" r="2.5" transform="rotate(-90 62.5 22.5)"/><circle cx="52.5" cy="22.5" r="2.5" transform="rotate(-90 52.5 22.5)"/><circle cx="72.5" cy="22.5" r="2.5" transform="rotate(-90 72.5 22.5)"/><circle cx="42.5" cy="12.5" r="2.5" transform="rotate(-90 42.5 12.5)"/><circle cx="62.5" cy="12.5" r="2.5" transform="rotate(-90 62.5 12.5)"/><circle cx="52.5" cy="12.5" r="2.5" transform="rotate(-90 52.5 12.5)"/><circle cx="72.5" cy="12.5" r="2.5" transform="rotate(-90 72.5 12.5)"/><circle cx="42.5" cy="2.5" r="2.5" transform="rotate(-90 42.5 2.5)"/><circle cx="62.5" cy="2.5" r="2.5" transform="rotate(-90 62.5 2.5)"/><circle cx="52.5" cy="2.5" r="2.5" transform="rotate(-90 52.5 2.5)"/><circle cx="72.5" cy="2.5" r="2.5" transform="rotate(-90 72.5 2.5)"/><circle cx="82.5" cy="42.5" r="2.5" transform="rotate(-90 82.5 42.5)"/><circle cx="102.5" cy="42.5" r="2.5" transform="rotate(-90 102.5 42.5)"/><circle cx="92.5" cy="42.5" r="2.5" transform="rotate(-90 92.5 42.5)"/><circle cx="112.5" cy="42.5" r="2.5" transform="rotate(-90 112.5 42.5)"/><circle cx="82.5" cy="32.5" r="2.5" transform="rotate(-90 82.5 32.5)"/><circle cx="102.5" cy="32.5" r="2.5" transform="rotate(-90 102.5 32.5)"/><circle cx="92.5" cy="32.5" r="2.5" transform="rotate(-90 92.5 32.5)"/><circle cx="112.5" cy="32.5" r="2.5" transform="rotate(-90 112.5 32.5)"/><circle cx="82.5" cy="22.5" r="2.5" transform="rotate(-90 82.5 22.5)"/><circle cx="102.5" cy="22.5" r="2.5" transform="rotate(-90 102.5 22.5)"/><circle cx="92.5" cy="22.5" r="2.5" transform="rotate(-90 92.5 22.5)"/><circle cx="112.5" cy="22.5" r="2.5" transform="rotate(-90 112.5 22.5)"/><circle cx="82.5" cy="12.5" r="2.5" transform="rotate(-90 82.5 12.5)"/><circle cx="102.5" cy="12.5" r="2.5" transform="rotate(-90 102.5 12.5)"/><circle cx="92.5" cy="12.5" r="2.5" transform="rotate(-90 92.5 12.5)"/><circle cx="112.5" cy="12.5" r="2.5" transform="rotate(-90 112.5 12.5)"/><circle cx="82.5" cy="2.5" r="2.5" transform="rotate(-90 82.5 2.5)"/><circle cx="102.5" cy="2.5" r="2.5" transform="rotate(-90 102.5 2.5)"/><circle cx="92.5" cy="2.5" r="2.5" transform="rotate(-90 92.5 2.5)"/><circle cx="112.5" cy="2.5" r="2.5" transform="rotate(-90 112.5 2.5)"/><circle cx="122.5" cy="532.5" r="2.5" transform="rotate(-90 122.5 532.5)"/><circle cx="142.5" cy="532.5" r="2.5" transform="rotate(-90 142.5 532.5)"/><circle cx="132.5" cy="532.5" r="2.5" transform="rotate(-90 132.5 532.5)"/><circle cx="152.5" cy="532.5" r="2.5" transform="rotate(-90 152.5 532.5)"/><circle cx="122.5" cy="522.5" r="2.5" transform="rotate(-90 122.5 522.5)"/><circle cx="142.5" cy="522.5" r="2.5" transform="rotate(-90 142.5 522.5)"/><circle cx="132.5" cy="522.5" r="2.5" transform="rotate(-90 132.5 522.5)"/><circle cx="152.5" cy="522.5" r="2.5" transform="rotate(-90 152.5 522.5)"/><circle cx="122.5" cy="512.5" r="2.5" transform="rotate(-90 122.5 512.5)"/><circle cx="142.5" cy="512.5" r="2.5" transform="rotate(-90 142.5 512.5)"/><circle cx="132.5" cy="512.5" r="2.5" transform="rotate(-90 132.5 512.5)"/><circle cx="152.5" cy="512.5" r="2.5" transform="rotate(-90 152.5 512.5)"/><circle cx="122.5" cy="502.5" r="2.5" transform="rotate(-90 122.5 502.5)"/><circle cx="142.5" cy="502.5" r="2.5" transform="rotate(-90 142.5 502.5)"/><circle cx="132.5" cy="502.5" r="2.5" transform="rotate(-90 132.5 502.5)"/><circle cx="152.5" cy="502.5" r="2.5" transform="rotate(-90 152.5 502.5)"/><circle cx="122.5" cy="492.5" r="2.5" transform="rotate(-90 122.5 492.5)"/><circle cx="142.5" cy="492.5" r="2.5" transform="rotate(-90 142.5 492.5)"/><circle cx="132.5" cy="492.5" r="2.5" transform="rotate(-90 132.5 492.5)"/><circle cx="152.5" cy="492.5" r="2.5" transform="rotate(-90 152.5 492.5)"/><circle cx="162.5" cy="532.5" r="2.5" transform="rotate(-90 162.5 532.5)"/><circle cx="172.5" cy="532.5" r="2.5" transform="rotate(-90 172.5 532.5)"/><circle cx="162.5" cy="522.5" r="2.5" transform="rotate(-90 162.5 522.5)"/><circle cx="172.5" cy="522.5" r="2.5" transform="rotate(-90 172.5 522.5)"/><circle cx="162.5" cy="512.5" r="2.5" transform="rotate(-90 162.5 512.5)"/><circle cx="172.5" cy="512.5" r="2.5" transform="rotate(-90 172.5 512.5)"/><circle cx="162.5" cy="502.5" r="2.5" transform="rotate(-90 162.5 502.5)"/><circle cx="172.5" cy="502.5" r="2.5" transform="rotate(-90 172.5 502.5)"/><circle cx="162.5" cy="492.5" r="2.5" transform="rotate(-90 162.5 492.5)"/><circle cx="172.5" cy="492.5" r="2.5" transform="rotate(-90 172.5 492.5)"/><circle cx="42.5" cy="532.5" r="2.5" transform="rotate(-90 42.5 532.5)"/><circle cx="62.5" cy="532.5" r="2.5" transform="rotate(-90 62.5 532.5)"/><circle cx="52.5" cy="532.5" r="2.5" transform="rotate(-90 52.5 532.5)"/><circle cx="72.5" cy="532.5" r="2.5" transform="rotate(-90 72.5 532.5)"/><circle cx="42.5" cy="522.5" r="2.5" transform="rotate(-90 42.5 522.5)"/><circle cx="62.5" cy="522.5" r="2.5" transform="rotate(-90 62.5 522.5)"/><circle cx="52.5" cy="522.5" r="2.5" transform="rotate(-90 52.5 522.5)"/><circle cx="72.5" cy="522.5" r="2.5" transform="rotate(-90 72.5 522.5)"/><circle cx="42.5" cy="512.5" r="2.5" transform="rotate(-90 42.5 512.5)"/><circle cx="62.5" cy="512.5" r="2.5" transform="rotate(-90 62.5 512.5)"/><circle cx="52.5" cy="512.5" r="2.5" transform="rotate(-90 52.5 512.5)"/><circle cx="72.5" cy="512.5" r="2.5" transform="rotate(-90 72.5 512.5)"/><circle cx="42.5" cy="502.5" r="2.5" transform="rotate(-90 42.5 502.5)"/><circle cx="62.5" cy="502.5" r="2.5" transform="rotate(-90 62.5 502.5)"/><circle cx="52.5" cy="502.5" r="2.5" transform="rotate(-90 52.5 502.5)"/><circle cx="72.5" cy="502.5" r="2.5" transform="rotate(-90 72.5 502.5)"/><circle cx="42.5" cy="492.5" r="2.5" transform="rotate(-90 42.5 492.5)"/><circle cx="62.5" cy="492.5" r="2.5" transform="rotate(-90 62.5 492.5)"/><circle cx="52.5" cy="492.5" r="2.5" transform="rotate(-90 52.5 492.5)"/><circle cx="72.5" cy="492.5" r="2.5" transform="rotate(-90 72.5 492.5)"/><circle cx="82.5" cy="532.5" r="2.5" transform="rotate(-90 82.5 532.5)"/><circle cx="102.5" cy="532.5" r="2.5" transform="rotate(-90 102.5 532.5)"/><circle cx="92.5" cy="532.5" r="2.5" transform="rotate(-90 92.5 532.5)"/><circle cx="112.5" cy="532.5" r="2.5" transform="rotate(-90 112.5 532.5)"/><circle cx="82.5" cy="522.5" r="2.5" transform="rotate(-90 82.5 522.5)"/><circle cx="102.5" cy="522.5" r="2.5" transform="rotate(-90 102.5 522.5)"/><circle cx="92.5" cy="522.5" r="2.5" transform="rotate(-90 92.5 522.5)"/><circle cx="112.5" cy="522.5" r="2.5" transform="rotate(-90 112.5 522.5)"/><circle cx="82.5" cy="512.5" r="2.5" transform="rotate(-90 82.5 512.5)"/><circle cx="102.5" cy="512.5" r="2.5" transform="rotate(-90 102.5 512.5)"/><circle cx="92.5" cy="512.5" r="2.5" transform="rotate(-90 92.5 512.5)"/><circle cx="112.5" cy="512.5" r="2.5" transform="rotate(-90 112.5 512.5)"/><circle cx="82.5" cy="502.5" r="2.5" transform="rotate(-90 82.5 502.5)"/><circle cx="102.5" cy="502.5" r="2.5" transform="rotate(-90 102.5 502.5)"/><circle cx="92.5" cy="502.5" r="2.5" transform="rotate(-90 92.5 502.5)"/><circle cx="112.5" cy="502.5" r="2.5" transform="rotate(-90 112.5 502.5)"/><circle cx="82.5" cy="492.5" r="2.5" transform="rotate(-90 82.5 492.5)"/><circle cx="102.5" cy="492.5" r="2.5" transform="rotate(-90 102.5 492.5)"/><circle cx="92.5" cy="492.5" r="2.5" transform="rotate(-90 92.5 492.5)"/><circle cx="112.5" cy="492.5" r="2.5" transform="rotate(-90 112.5 492.5)"/></g></svg>