<svg width="462" height="293" fill="none" xmlns="http://www.w3.org/2000/svg"><g clip-path="url(#clip0)"><path d="M462 255.222l-457.133-4v11.82c0 3.2 1.986 5.926 4.688 6.416l129.263 23.265c1.53.277 3.093.342 4.639.212l313.578-26.53c2.8-.245 4.965-2.971 4.965-6.269v-4.914z" fill="url(#paint0_linear)"/><path d="M314.848 236.055L9.897 257.671C4.444 258.062 0 253.948 0 248.495V29.843c0-5.453 4.444-9.877 9.897-9.877h304.951c4.492 0 8.122 4 8.122 8.93v197.657c0 4.931-3.63 9.192-8.122 9.502z" fill="url(#paint1_linear)"/><path d="M319.715 236.055l-304.95 21.616c-5.454.392-9.898-3.722-9.898-9.175V29.844c0-5.453 4.444-9.877 9.897-9.877h304.951c4.493 0 8.123 4 8.123 8.93v197.657c0 4.93-3.63 9.191-8.123 9.501z" fill="url(#paint2_linear)"/><path d="M310.209 222.13L26.175 240.904c-4.444.294-8.057-3.085-8.057-7.542V41.942c0-4.458 3.613-8.082 8.057-8.099l284.034-1.175c3.711-.016 6.706 3.265 6.706 7.314v174.36c0 4.049-2.995 7.543-6.706 7.788zM177.999 25.942c0 2.024-1.563 3.69-3.5 3.69s-3.516-1.633-3.516-3.674c0-2.04 1.579-3.69 3.516-3.69s3.5 1.65 3.5 3.674z" fill="#fff"/><path opacity=".48" d="M246.236 176.091c-23.505-12.686-41.997 3.395-59.837-12.473-10.809-9.616-5.502-16.783-18.818-31.15-14.731-15.918-24.335-10.563-39.148-24.897-18.72-18.105-9.36-32.195-25.491-45.206-19.566-15.771-40.679-1.176-59.317-16.31-8.041-6.53-12.453-16.015-14.748-26.105H10.646a5.802 5.802 0 00-5.795 5.796v226.652c0 3.199 2.588 5.616 5.795 5.387l310.794-22.121c1.53-.115 2.881-.996 3.744-2.302-22.756-.833-36.723-8.473-45.659-16.391-17.467-15.445-14.439-30.709-33.289-40.88z" fill="#fff"/><path d="M312.097 235.076L4.867 257.834l133.968 24.113a17.68 17.68 0 004.639.213l318.542-26.954-145.02-19.983a24.632 24.632 0 00-4.899-.147z" fill="url(#paint3_linear)"/><path opacity=".3" d="M49.697 258.406l255.775-19.216 79.176 10.808-253.594 20.554-81.357-12.146z" fill="url(#paint4_linear)"/><path d="M309.427 82.174a5 5 0 01-4.923 5l-274.05 4.19a5 5 0 01-5.077-5V44.655a5 5 0 015-5h274.05a5 5 0 015 5v37.52zm-90.066 92.51a5 5 0 01-4.781 4.995l-169.969 7.432a5 5 0 01-5.218-4.995v-76.753a5 5 0 014.91-4.999l169.968-3.068a5 5 0 015.09 4.999v72.389z" fill="#EBEBEB"/><path d="M297.577 119.864l-67.7 1.747V97.024l67.7-1.224v24.064zm0 56.178l-67.7 2.955v-48.668l67.7-1.926v47.639z" fill="#D8DEE8"/><path d="M297.577 192.32a5 5 0 00-5.237-4.994L44.156 199.064a5 5 0 00-4.763 4.995v10.592a5 5 0 005.266 4.993l248.185-13.261a5 5 0 004.733-4.993v-9.07z" fill="#EBEBEB"/><path d="M375.353 55.998L50.218 60.096a3.322 3.322 0 01-3.354-3.315V3.314A3.312 3.312 0 0150.17 0h325.135a3.311 3.311 0 013.304 3.314v49.37a3.29 3.29 0 01-3.255 3.314zm-71.705 109.105l-206.371 7.543V72.389l206.371-3.167v95.881zm90.994-69.091l-78.818 1.715V69.041l78.818-1.208v28.178zm0 65.761l-78.818 2.889v-56.781l78.818-1.877v55.769zm9.083 10.481l-296.112 11.542v23.755l296.112-13.029v-22.268z" fill="#615BE7"/><path d="M59.724 14.546a4.01 4.01 0 004.004-4.016 4.01 4.01 0 00-4.004-4.016 4.01 4.01 0 00-4.005 4.016 4.01 4.01 0 004.005 4.016z" fill="url(#paint5_linear)"/><path d="M72.876 14.546a4.01 4.01 0 004.005-4.016 4.01 4.01 0 00-4.005-4.016 4.01 4.01 0 00-4.004 4.016 4.01 4.01 0 004.004 4.016z" fill="url(#paint6_linear)"/><path d="M86.029 14.546a4.01 4.01 0 004.004-4.016 4.01 4.01 0 00-4.004-4.016 4.01 4.01 0 00-4.005 4.016 4.01 4.01 0 004.005 4.016z" fill="url(#paint7_linear)"/></g><defs><linearGradient id="paint0_linear" x1="197.959" y1="272.84" x2="165.817" y2="286.3" gradientUnits="userSpaceOnUse"><stop stop-color="#40447E"/><stop offset=".996" stop-color="#3C3B6B"/></linearGradient><linearGradient id="paint1_linear" x1="155.078" y1="130.888" x2="120.195" y2="145.496" gradientUnits="userSpaceOnUse"><stop stop-color="#40447E"/><stop offset=".996" stop-color="#3C3B6B"/></linearGradient><linearGradient id="paint2_linear" x1="4.863" y1="138.835" x2="327.84" y2="138.835" gradientUnits="userSpaceOnUse"><stop stop-color="#40447E"/><stop offset=".996" stop-color="#3C3B6B"/></linearGradient><linearGradient id="paint3_linear" x1="4.863" y1="258.623" x2="462.008" y2="258.623" gradientUnits="userSpaceOnUse"><stop stop-color="#40447E"/><stop offset=".996" stop-color="#3C3B6B"/></linearGradient><linearGradient id="paint4_linear" x1="49.694" y1="254.866" x2="384.641" y2="254.866" gradientUnits="userSpaceOnUse"><stop stop-color="#40447E"/><stop offset=".996" stop-color="#3C3B6B"/></linearGradient><linearGradient id="paint5_linear" x1="60.959" y1="6.716" x2="58.465" y2="14.349" gradientUnits="userSpaceOnUse"><stop offset=".494" stop-color="#EBEFF2"/><stop offset="1" stop-color="#fff"/></linearGradient><linearGradient id="paint6_linear" x1="74.114" y1="6.716" x2="71.619" y2="14.349" gradientUnits="userSpaceOnUse"><stop offset=".494" stop-color="#EBEFF2"/><stop offset="1" stop-color="#fff"/></linearGradient><linearGradient id="paint7_linear" x1="87.267" y1="6.716" x2="84.773" y2="14.349" gradientUnits="userSpaceOnUse"><stop offset=".494" stop-color="#EBEFF2"/><stop offset="1" stop-color="#fff"/></linearGradient><clipPath id="clip0"><path fill="#fff" d="M0 0h462v293H0z"/></clipPath></defs></svg>