<svg xmlns="http://www.w3.org/2000/svg" width="1920" height="156" viewBox="0 0 1346 156"><defs><mask id="p0c0b" width="2" height="2" x="-1" y="-1"><path fill="#fff" d="M-287 30h1920v76H-287z"/><path d="M-287 40.572s307.299 10 676.018 10c247.52 0 522.717-20 751.211-20 281.938 0 492.77 10 492.77 10V95.73s-217.598-10-506.288-10c-252.513 0-559.415 20-822.662 20-329.78 0-591.049-10-591.049-10z"/></mask><filter id="p0c0a" width="2920" height="106" x="-347" y="-30" filterUnits="userSpaceOnUse"><feOffset dy="10" in="SourceGraphic" result="FeOffset1887Out"/><feGaussianBlur in="FeOffset1887Out" result="FeGaussianBlur1888Out" stdDeviation="20 20"/></filter></defs><g><g><g filter="url(#p0c0a)"><path fill="none" d="M-287 40.572s307.299 10 676.018 10c247.52 0 522.717-20 751.211-20 281.938 0 492.77 10 492.77 10V95.73s-217.598-10-506.288-10c-252.513 0-559.415 20-822.662 20-329.78 0-591.049-10-591.049-10z" mask="url(&quot;#p0c0b&quot;)"/><path fill="#3ba8c4" fill-opacity=".18" d="M-287 40.572s307.299 10 676.018 10c247.52 0 522.717-20 751.211-20 281.938 0 492.77 10 492.77 10V95.73s-217.598-10-506.288-10c-252.513 0-559.415 20-822.662 20-329.78 0-591.049-10-591.049-10z"/></g><path fill="#ebf6f9" d="M-287 40.572s307.299 10 676.018 10c247.52 0 522.717-20 751.211-20 281.938 0 492.77 10 492.77 10V95.73s-217.598-10-506.288-10c-252.513 0-559.415 20-822.662 20-329.78 0-591.049-10-591.049-10z"/></g></g></svg>