<svg xmlns="http://www.w3.org/2000/svg" width="263" height="85" viewBox="0 0 263 85"><defs><mask id="e9mjb" width="2" height="2" x="-1" y="-1"><path fill="#fff" d="M24 12h228v54H24z"/><path d="M85 12h164a3 3 0 0 1 3 3v48a3 3 0 0 1-3 3H24s7.632.063 42-26C81.14 27.092 85 12 85 12z"/></mask><filter id="e9mja" width="280" height="114" x="-2" y="-14" filterUnits="userSpaceOnUse"><feOffset dy="8" in="SourceGraphic" result="FeOffset1044Out"/><feGaussianBlur in="FeOffset1044Out" result="FeGaussianBlur1045Out" stdDeviation="6.4 6.4"/></filter><linearGradient id="e9mjc" x1=".59" x2="12.59" y1="50.24" y2="46.15" gradientUnits="userSpaceOnUse"><stop offset="0" stop-color="#46cb9e"/><stop offset="1" stop-color="#3aa7c6"/></linearGradient><linearGradient id="e9mjd" x1="6.7" x2="22.7" y1="30.35" y2="24.69" gradientUnits="userSpaceOnUse"><stop offset="0" stop-color="#46cb9e"/><stop offset="1" stop-color="#3aa7c6"/></linearGradient><linearGradient id="e9mje" x1="30.84" x2="50.84" y1="14.09" y2="6.11" gradientUnits="userSpaceOnUse"><stop offset="0" stop-color="#46cb9e"/><stop offset="1" stop-color="#3aa7c6"/></linearGradient><linearGradient id="e9mjf" x1="13.55" x2="31.55" y1="56.77" y2="51.2" gradientUnits="userSpaceOnUse"><stop offset="0" stop-color="#46cb9e"/><stop offset="1" stop-color="#3aa7c6"/></linearGradient><linearGradient id="e9mjg" x1="15.55" x2="39.55" y1="49.4" y2="41.72" gradientUnits="userSpaceOnUse"><stop offset="0" stop-color="#46cb9e"/><stop offset="1" stop-color="#3aa7c6"/></linearGradient><linearGradient id="e9mjh" x1="25.72" x2="54.72" y1="43.8" y2="33.17" gradientUnits="userSpaceOnUse"><stop offset="0" stop-color="#46cb9e"/><stop offset="1" stop-color="#3aa7c6"/></linearGradient></defs><g><g><g filter="url(#e9mja)"><path fill="none" d="M85 12h164a3 3 0 0 1 3 3v48a3 3 0 0 1-3 3H24s7.632.063 42-26C81.14 27.092 85 12 85 12z" mask="url(&quot;#e9mjb&quot;)"/><path fill-opacity=".06" d="M85 12h164a3 3 0 0 1 3 3v48a3 3 0 0 1-3 3H24s7.632.063 42-26C81.14 27.092 85 12 85 12z"/></g><path fill="#46cb9e" d="M85 12h164a3 3 0 0 1 3 3v48a3 3 0 0 1-3 3H24s7.632.063 42-26C81.14 27.092 85 12 85 12z"/><path fill="#fff" d="M85 12h164a3 3 0 0 1 3 3v48a3 3 0 0 1-3 3H24s7.632.063 42-26C81.14 27.092 85 12 85 12z"/></g><g><path fill="#2fa7c6" d="M23.829 65.546s27.787-13.233 44.793-32.539c-5.384-4.699-5.92-5.92-5.92-5.92s18.603-14.793 23.293-16.343c3.15 10.136-.87 24.927-2.574 28.311-2.61-.148-5.624-.599-6.563-1.415-2.026 2.173-22.255 24.923-53.03 27.906z"/></g><g><path fill="#303030" d="M4.912 42.342c-2.79.725-4.74 4.63-4.247 7.206.493 2.576 2.017 5.135 6.563 4.633 4.547-.501 6.35-4.174 5.02-6.949-1.33-2.775-3.497-5.888-7.336-4.89z"/><path fill="url(#e9mjc)" d="M4.912 42.342c-2.79.725-4.74 4.63-4.247 7.206.493 2.576 2.017 5.135 6.563 4.633 4.547-.501 6.35-4.174 5.02-6.949-1.33-2.775-3.497-5.888-7.336-4.89z"/></g><g><path fill="#303030" d="M16.108 19.693c2.847-.113 4.515 1.21 5.92 5.019 1.404 3.81-.387 9.124-3.218 10.166-2.61.961-7.345.688-10.424-2.96-4.616-5.469 1.02-11.957 7.722-12.225z"/><path fill="url(#e9mjd)" d="M16.108 19.693c2.847-.113 4.515 1.21 5.92 5.019 1.404 3.81-.387 9.124-3.218 10.166-2.61.961-7.345.688-10.424-2.96-4.616-5.469 1.02-11.957 7.722-12.225z"/></g><g><path fill="#303030" d="M41.201 20.08c1.946 0 9.438-3.36 9.652-12.097.214-8.737-13.065-9.37-17.244-5.92-3.453 2.852-3.678 6.7-.644 12.612 3.035 5.91 7.271 5.404 8.236 5.404z"/><path fill="url(#e9mje)" d="M41.201 20.08c1.946 0 9.438-3.36 9.652-12.097.214-8.737-13.065-9.37-17.244-5.92-3.453 2.852-3.678 6.7-.644 12.612 3.035 5.91 7.271 5.404 8.236 5.404z"/></g><g><path fill="#ee270a" d="M16.494 46.203s-5.045 9.65-1.93 13.383c.885 1.668 4.503 2.187 4.503 2.187s9.293-4.175 11.946-6.055c1.273-.902-14.515-9.52-14.52-9.515z"/><path fill="url(#e9mjf)" d="M16.494 46.203s-5.045 9.65-1.93 13.383c.885 1.668 4.503 2.187 4.503 2.187s9.293-4.175 11.946-6.055c1.273-.902-14.515-9.52-14.52-9.515z"/></g><g><path fill="#9eca11" d="M26.274 33.72s-8.046 4.876-9.394 7.207c-1.349 2.33-2.873 5.298 2.059 10.294 4.931 4.997 7.572 5.293 9.265 6.177 2.684-1.428 8.606-5.02 10.81-6.691 2.204-1.671-12.74-16.987-12.74-16.987z"/><path fill="url(#e9mjg)" d="M26.274 33.72s-8.046 4.876-9.394 7.207c-1.349 2.33-2.873 5.298 2.059 10.294 4.931 4.997 7.572 5.293 9.265 6.177 2.684-1.428 8.606-5.02 10.81-6.691 2.204-1.671-12.74-16.987-12.74-16.987z"/></g><g><path fill="#303030" d="M34.252 53.795s-15.332-23.026-4.89-29.083c3.672-2.012 14.474-1.698 18.402-1.03 3.929.67 9.023 3.701 6.435 14.156-4.06 4.63-14.415 13.233-19.947 15.957z"/><path fill="url(#e9mjh)" d="M34.252 53.795s-15.332-23.026-4.89-29.083c3.672-2.012 14.474-1.698 18.402-1.03 3.929.67 9.023 3.701 6.435 14.156-4.06 4.63-14.415 13.233-19.947 15.957z"/></g></g></svg>