<svg width="84" height="43" fill="none" xmlns="http://www.w3.org/2000/svg"><g clip-path="url(#clip0)" fill="#139B3C"><path d="M49.691 6.124a.449.449 0 00-.23-.394l-1.27-.69-.406-.002L17.912 20.39l-.097.07-.142.318c0 .164.088.317.23.393l1.27.69.21.052.196-.05L49.455 6.512a.443.443 0 00.236-.387zm-16.118 7.558l-14.188 7.292-.336-.18L47.98 5.929l.333.183-14.739 7.57zm1.153-4.742l-.015-.119-.215-.271-6.156-3.348-.406-.006L8.41 15.228a.455.455 0 00-.24.391l.016.119.215.275 6.153 3.344.209.052.196-.05 19.528-10.03a.448.448 0 00.239-.388zm18.72-.778l-.015-.119-.215-.272-1.455-.79-.405-.006-29.877 15.353a.438.438 0 00-.239.388l.015.119.215.272 1.455.79.209.055.197-.05L53.207 8.55a.446.446 0 00.24-.387zM23.137 23.015l-.52-.284 28.93-14.865.517.284-28.927 14.865zm13.633 1.257a.443.443 0 00.23.394l1.864 1.012.154.05.055.002.2-.049 23.366-12.006.003-.003.202-.229.022-.07-.037-.287-.003-.006v-.006l-.184-.183-1.86-1.013-.406-.003-23.366 12.01a.444.444 0 00-.24.387zm12.377-5.636l11.423-5.87.928.506-22.42 11.522-.928-.507 10.997-5.65zm7.857-8.54a.434.434 0 00-.23-.393l-1.259-.687-.405-.003L25.233 24.37a.443.443 0 00-.01.781l1.26.683.205.055.203-.049 29.874-15.353a.443.443 0 00.239-.39zM26.697 24.95l-.323-.174 28.93-14.868.323.174-28.93 14.868zm15.773 2.419c0 .165.088.317.23.394l1.864 1.013.142.048.064.006.2-.048 23.366-12.01v-.003l.2-.22.027-.082-.04-.29-.187-.192-1.858-1.01-.405-.003-23.366 12.01a.443.443 0 00-.236.387zm24.728-11.003l-22.42 11.522-.928-.507 22.42-11.52.928.505zM37.12 27.085c.005-.586-.376-1.12-1.08-1.504-.633-.345-1.471-.534-2.351-.534-.832 0-1.625.17-2.227.482-.714.366-1.11.89-1.116 1.48-.01.589.378 1.123 1.08 1.504.632.345 1.467.534 2.35.534.832 0 1.622-.168 2.227-.48.178-.09.336-.194.475-.304.414-.33.635-.736.641-1.178zm5.698 3.101c.006-.59-.375-1.123-1.08-1.505-.632-.345-1.47-.53-2.35-.53-.832 0-1.625.167-2.23.482-.714.366-1.107.89-1.113 1.48-.006.588.375 1.122 1.08 1.507.475.256 1.062.427 1.7.497.212.024.43.037.65.037.832 0 1.625-.174 2.227-.48.714-.375 1.11-.9 1.116-1.488zm4.62 1.589c-.633-.345-1.468-.534-2.351-.534-.832 0-1.625.17-2.227.482-.713.366-1.11.89-1.116 1.48-.006.588.375 1.122 1.08 1.504.633.345 1.467.534 2.35.534.833 0 1.622-.171 2.227-.482l.251-.144c.554-.354.86-.824.866-1.336.006-.589-.376-1.123-1.08-1.504zm.732-1.312a.434.434 0 00.23.393l1.866 1.016.206.05.2-.05 23.363-12.01a.43.43 0 00.24-.383.445.445 0 00-.234-.394l-1.863-1.013-.409-.003-23.366 12.01a.442.442 0 00-.233.384zm23.799-11.506l.932.506-22.423 11.524-.928-.506 22.419-11.524z"/><path d="M.23 18.77l44.512 24.181.058.021.036.016.112.015.109-.015.036-.012.055-.022L83.73 23.128a.448.448 0 00.239-.388l.03-2.99-.015-.116-.015-.036-.03-.07-.028-.037-.042-.055-.04-.03-.042-.037-.012-.006-.012-.006L49.084.513l-.037-.016-.03-.012-.024-.009-.064-.012-.04-.006h-.002L29.583 0h-.012l-.051.003-.055.01-.02.005-.01.006-.021.007-.04.018L.27 15.003l-.009.006-.015.006-.042.036-.037.028-.045.058-.024.033-.033.07-.016.034-.018.113v.003L0 18.377a.44.44 0 00.23.394zM29.568.938l9.617 5.223.408.006 9.276-4.769 33.755 18.335-37.64 19.344-16.408-8.912L1.41 15.405 29.568.937z"/></g><defs><clipPath id="clip0"><path fill="#fff" d="M0 0h84v43H0z"/></clipPath></defs></svg>