<svg width="62" height="71" fill="none" xmlns="http://www.w3.org/2000/svg"><g clip-path="url(#clip0)" fill="#139B3C"><path d="M26.94 48.76l-.378.003L5.93 60.573a.37.37 0 00-.188.322l.005 2.025c0 .132.073.256.19.323l.188.049.188-.052 20.632-11.81a.37.37 0 00.187-.325l-.005-2.024a.385.385 0 00-.188-.32zM6.496 62.275l-.002-1.164 19.882-11.38.002 1.161L6.497 62.274zm-.574-3.332l.188.051.187-.051L26.93 47.13a.372.372 0 00.19-.323l-.005-2.024a.367.367 0 00-.19-.32h-.375L5.919 56.272a.376.376 0 00-.19.325l.006 2.025c0 .131.073.253.187.32zm20.44-13.514l.005 1.162L6.485 57.974l-.003-1.164 19.88-11.38zM5.912 54.64l.187.052.188-.051 20.632-11.812a.37.37 0 00.187-.323l-.005-2.025-.013-.098-.177-.224h-.375L5.906 51.97a.364.364 0 00-.187.322l.005 2.025c0 .134.07.258.188.323zM26.35 41.128l.002 1.167-19.879 11.38-.005-1.164L26.35 41.127zm.738-13.848h-.375L5.914 39.185a.365.365 0 00-.184.323l.013 4.976c0 .134.073.258.187.323l.188.051.187-.051 20.799-11.905a.367.367 0 00.187-.323l-.013-4.976a.375.375 0 00-.19-.323zM6.495 43.841l-.013-4.116 20.046-11.476.013 4.119L6.495 43.84zm-.597 6.5l.188.05.187-.05 20.632-11.812a.368.368 0 00.188-.325l-.005-2.025a.381.381 0 00-.188-.323h-.377L5.893 47.671a.372.372 0 00-.19.323l.008 2.022c0 .134.07.258.187.325zm20.44-13.514l.005 1.163-19.88 11.38-.002-1.162 19.877-11.38zM9.47 26.697c-.506.289-.977.746-1.363 1.324-.729 1.093-.979 2.373-.646 3.22l-1.57 2.348c-.305.457-.302.992.005 1.245.107.093.245.14.39.14a.78.78 0 00.392-.112c.15-.088.291-.222.403-.387l1.547-2.314.16.008c.34 0 .713-.111 1.077-.32l.188-.117a4.369 4.369 0 001.174-1.208 4.884 4.884 0 00.649-1.384c.286-1.015.15-1.96-.43-2.443-.492-.419-1.245-.419-1.977 0zm-.59 3.834l-.007-.005-.029-.03-.023-.03-.018-.03-.019-.031-.018-.039-.013-.036-.013-.044-.01-.039-.01-.049-.006-.046-.002-.052-.003-.049v-.06l.003-.048.005-.065.005-.049.01-.07.008-.051.018-.078.013-.049.024-.082.015-.047.03-.088.015-.046.039-.096.015-.041.05-.104.016-.033.065-.119.013-.015.083-.137c.206-.305.456-.553.706-.697a.858.858 0 01.411-.13l.196.065c.273.23.218 1.028-.266 1.75-.203.306-.453.553-.706.698-.242.147-.469.176-.596.072zm27.68-17.126c0 .568.214 1 .6 1.222.145.085.242.139.302.175l.052.036.013.008c.083.054.195.119.336.201l.06.034c.153.083.33.13.526.13.2 0 .403-.047.612-.135l.208-.106c.901-.517 1.602-1.723 1.6-2.748-.003-.575-.235-1.017-.615-1.229l-.29-.165-.052-.034.003-.002-.016-.005c-.088-.06-.208-.127-.362-.217-.385-.22-.888-.189-1.385.098-.893.506-1.597 1.712-1.591 2.737zm2.337.914a.945.945 0 01-.446.142c-.367 0-.409-.436-.409-.622 0-.235.053-.493.149-.746.208-.556.617-1.09 1.073-1.351a.91.91 0 01.445-.142c.367 0 .41.434.41.622.004.754-.558 1.718-1.222 2.097zm2.479-2.104l.302.176.052.033-.003.003.013.008c.086.054.196.118.339.2.167.102.364.161.586.161v-.002c.266 0 .544-.08.828-.24.896-.515 1.6-1.723 1.597-2.748-.003-.574-.235-1.013-.613-1.222l-.012-.01-.037-.02-.247-.143-.052-.036-.014-.008a7.796 7.796 0 00-.361-.214c-.383-.222-.883-.189-1.383.095-.899.517-1.602 1.723-1.6 2.748.006.56.22.994.605 1.219zm1.289-.168c-.367 0-.409-.436-.409-.622 0-.142.018-.29.055-.442.159-.656.627-1.345 1.17-1.658a.928.928 0 01.447-.142c.365 0 .406.437.406.623.005.756-.557 1.72-1.221 2.1a.945.945 0 01-.448.141zm2.971-2.213c.149.085.243.142.303.175l.052.036.015.01c.084.055.196.12.334.2a1.1 1.1 0 00.588.16c.266 0 .542-.08.823-.24.899-.517 1.602-1.726 1.6-2.748 0-.478-.165-.865-.436-1.103a1.055 1.055 0 00-.343-.225l-.123-.07-.052-.035-.013-.01c-.089-.058-.21-.125-.364-.215-.38-.222-.883-.189-1.38.098-.9.514-1.603 1.72-1.6 2.748 0 .565.211.997.596 1.219zm1.74-.308a.945.945 0 01-.445.142c-.367 0-.41-.436-.41-.625-.002-.756.558-1.717 1.225-2.102a.93.93 0 01.445-.14c.37 0 .41.435.412.623-.003.76-.563 1.72-1.227 2.102z"/><path d="M61.943 39.105V39.1l-.016-.093-.013-.029-.029-.059-.023-.028-.04-.044-.033-.026-.036-.029-.01-.005-.011-.005-9.902-4.707-.068-24.112-.023-7.946-.005-.047-.008-.051-.016-.042-.02-.046-.03-.039-.03-.039-.045-.033-.034-.026v-.003L48.608 0h-.377L.188 27.502l-.079.06-.03.041-.03.036-.018.041-.02.047-.006.044-.005.054.023 7.949.094 33.157c0 .135.073.254.19.32l2.943 1.697.06.024.031.015.097.013h.002l.094-.013.003-.002.122-.055 45.8-26.221 3.014 1.43.047.018.026.008.089.013.101-.015.034-.013.052-.02 8.99-5.086a.371.371 0 00.19-.335l-.06-1.604zM51.01 9.751L3.716 36.822l-.02-7.086 34.05-19.492L50.99 2.662l.019 7.09zM3.81 69.98l-.094-32.298 47.296-27.074.065 23.11-2.573-1.221.02-.01a.377.377 0 00.188-.326l-.02-7.362-.006-.042-.007-.054-.019-.036-.02-.052-.026-.033-.034-.044-.029-.023-.047-.037-1.227-.707H46.9l-17.38 9.947-.077.062-.032.041-.026.037-.018.044-.018.046-.008.041-.005.055.02 7.362c0 .132.074.253.188.32l1.227.708h.002l.06.026.029.012.096.013h.003l.091-.013.005-.002.123-.054 6.102-3.494 11.358 5.394L3.81 69.98zm41.821-39.103l-.01-2.68.474-.271.01 3.223-.474-.271zm-11.053 6.759l.524.247-1.714.98-.208.12-.003-.547 1.401-.8zm12.27-10.356a.369.369 0 00-.19-.323h-.376l-13.678 7.83a.376.376 0 00-.19.326l.013 4.519c.003.132.07.258.188.32l.185.052.19-.052 2.93-1.676.536.256-5.128 2.936-.018-6.503 8.79-5.033 7.836-4.488.019 6.503-.28.157-.825-.392-.002-4.432zm5.714 16.502l-6.06-2.88L35.135 35.5l8.196-4.635 17.426 8.284-8.196 4.633z"/><path d="M57.84 39.774c-.33-.158-.523-.362-.53-.558-.008-.196.166-.41.479-.591a.371.371 0 00.187-.336.367.367 0 00-.213-.32l-12.405-5.896-.339.005c-.375.2-.88.326-1.419.352l-.253.007c-.53 0-1.026-.093-1.398-.263l-.344.016-3.623 2.05a.373.373 0 00.019.658c.31.158.494.357.502.545.005.186-.153.395-.443.571a.37.37 0 00.034.653l12.426 5.909.164.036.185-.047c.432-.242 1.057-.38 1.708-.38.534 0 1.034.096 1.407.27l.343-.014 3.535-2a.377.377 0 00-.021-.667zm-14.386-1.39l-4.508-2.143c.214-.248.326-.534.313-.831a1.199 1.199 0 00-.389-.814l2.951-1.668a4.47 4.47 0 001.529.253c.68 0 1.328-.127 1.85-.359l3.973 1.888a8.845 8.845 0 00-1.023-.06c-1.336 0-2.641.305-3.581.835-.943.534-1.45 1.244-1.42 2 .01.319.115.62.305.9zm.448-.926l.01-.173c.07-.406.438-.816 1.032-1.155.518-.294 1.167-.506 1.88-.627a7.993 7.993 0 011.329-.111c1.01 0 1.963.188 2.682.532.706.335 1.12.79 1.138 1.252.018.46-.362.943-1.042 1.327-.724.411-1.71.67-2.758.723-.148.01-.3.013-.45.013-1.008 0-1.961-.188-2.68-.529-.711-.333-1.125-.79-1.14-1.252zm10.217 4.237a4.415 4.415 0 00-1.54-.26c-.694 0-1.374.139-1.898.384L46.7 39.926a8.2 8.2 0 001.024.06c1.002 0 1.987-.168 2.813-.478.273-.106.533-.225.768-.357.945-.534 1.45-1.244 1.422-2a1.674 1.674 0 00-.307-.9l4.482 2.131c-.235.258-.355.553-.339.863.008.312.151.599.409.839l-2.852 1.611z"/><path d="M43.501 33.832a2.434 2.434 0 00-1.023-.206c-.459 0-.889.103-1.217.286-.372.207-.575.514-.562.842l.047.238c.086.227.286.423.575.563.287.134.641.206 1.024.206.453 0 .885-.1 1.214-.287.37-.206.572-.516.562-.839-.01-.328-.237-.622-.62-.803zm-.315.994c-.214.12-.52.189-.841.189-.266 0-.516-.05-.698-.137-.154-.072-.193-.14-.198-.152.003-.013.039-.088.185-.168.213-.122.518-.189.844-.189.265 0 .513.047.698.135.15.072.195.142.195.152-.003.015-.04.088-.185.17zm11.365 4.261a2.386 2.386 0 00-1.023-.21c-.456 0-.886.104-1.214.288-.37.209-.575.516-.562.841.013.326.24.618.625.801.286.137.638.21 1.02.21.456 0 .889-.104 1.217-.29.367-.207.575-.514.562-.842-.015-.325-.242-.62-.625-.798zm-.315.992c-.21.118-.523.188-.841.188-.266 0-.513-.049-.698-.134-.154-.075-.195-.142-.195-.155 0-.013.036-.085.184-.168.209-.119.524-.188.842-.188.268 0 .515.049.698.134.15.072.195.142.195.155 0 .013-.039.085-.185.168z"/></g><defs><clipPath id="clip0"><path fill="#fff" d="M0 0h62v71H0z"/></clipPath></defs></svg>