<svg width="58" height="68" fill="none" xmlns="http://www.w3.org/2000/svg"><g clip-path="url(#clip0)" fill="#139B3C"><path d="M0 40.551l.01.073 2.167 9.894.005 1.797c0 .127.069.242.177.306l12.237 7.103.054.022.032.012.09.012h.005l.086-.012h.003l.115-.052 27.618-15.922a.35.35 0 00.177-.307l-.005-1.632.152-.228 2.28-12.499.005-.064c0-.595-.23-.97-.537-1.159l-.025-.02-10.598-6.149c.408-1.686.933-3.637 1.613-5.894.358-1.206.54-2.367.535-3.453-.005-2.223-.815-3.9-2.174-4.718l-.04-.03L21.745.53C21.14.18 20.445 0 19.681 0c-1.082 0-2.248.353-3.458 1.051-4.057 2.34-7.35 7.95-7.336 12.51.005 1.188.226 2.222.66 3.065.624 1.297 2.886 7.72 2.997 10.945l-2.702 1.56-.074.056-.032.041-.022.032-.02.044-.017.04-.005.044-.007.049.01 3.828-8.29 4.779C.603 38.494-.003 39.595 0 40.55zm35.303-11.127l.01 3.218L22.62 39.96l-.002-.784-.005-2.436 2.705-1.559h.002l7.189-4.149h.002l2.79-1.608zm-20.177 29.38l-.003-1.019 21.93-12.641 5.011-2.89.005 1.017-26.943 15.534zM43.939 28.5l.027-.012.113-.032h.013l.08-.002.055.01.041.012c.194.093.228.402.233.546l-2.245 12.303-27.363 15.776-1.947-9.484c.013-.696.479-1.537 1.034-1.856l8.455-4.874.042-.025L43.814 28.56l.125-.059zm-8.45-16.118c.005 1.014-.167 2.11-.505 3.247-2.796 9.286-3.032 13.555-3.012 14.898l-6.501 3.748c-.263-3.554-2.499-9.713-3.051-10.862l-.135-.29c-.297-.696-.45-1.522-.451-2.463-.013-4.33 3.119-9.668 6.982-11.893 1.085-.628 2.157-.959 3.102-.959 2.194 0 3.564 1.755 3.571 4.574zM20.558 61.45l9.989 4.74.15.034.176-.05L55.32 52.141a.354.354 0 00-.024-.625l-9.987-4.74-.329.013-24.447 14.035a.356.356 0 00-.18.321c.008.13.084.248.204.304zm1.381-.128l3.05-1.752-.026.21v.008l.017.475.052.228a2.06 2.06 0 00-.815.238c-.32.184-.498.453-.491.742v.005l.017.476.064.255-1.868-.885zM49.92 49.83l.14.098-.13.105-1.201.687a.366.366 0 00-.167.407c.05.156.194.262.358.254l1.728-.068c.44-.017.72.132.768.2l-.13.111a1.42 1.42 0 01-.62.154l-1.73.067a.353.353 0 00-.14.674l1.248.59.138.096-.133.108c-.311.179-.93.203-1.254.049l-1.247-.591a.356.356 0 00-.346.024.35.35 0 00-.162.31l.035.891-.135.12c-.155.091-.383.145-.621.157h-.071l-.153-.007c-.34-.032-.532-.152-.554-.196l-.035-.907a.361.361 0 00-.184-.296l-.171-.044-.177.046-1.198.686c-.312.18-.93.204-1.254.05l-.135-.096.128-.106 1.2-.686a.353.353 0 00-.192-.662l-1.73.069c-.437.015-.717-.132-.77-.2l.13-.109c.157-.09.382-.147.623-.157l1.728-.068a.355.355 0 00.14-.674l-1.247-.59-.138-.096.13-.108c.315-.18.93-.204 1.255-.05l1.249.591a.355.355 0 00.346-.024.343.343 0 00.157-.309l-.034-.895.137-.117c.157-.09.38-.145.623-.157.464-.015.752.152.776.201l.032.904a.36.36 0 00.181.3l.349-.006 1.2-.686c.317-.171.935-.196 1.26-.044zM34.7 61.145c-.154.091-.383.147-.623.157l-1.73.066a.353.353 0 00-.332.282c-.034.16.05.321.194.392l1.25.593.134.096-.13.108c-.312.179-.93.203-1.254.049l-1.25-.59a.356.356 0 00-.505.333l.037.892-.135.12c-.155.088-.38.144-.623.154l-.167-.002c-.366-.022-.587-.155-.609-.199l-.034-.907a.351.351 0 00-.182-.294l-.172-.044-.176.05-1.198.685c-.314.18-.93.204-1.257.05l-.135-.096.13-.105 1.198-.69a.356.356 0 00.165-.406.353.353 0 00-.354-.255l-1.73.069h-.069c-.41 0-.653-.135-.702-.204l.13-.105c.157-.09.38-.147.624-.157l1.73-.069a.356.356 0 00.334-.281.36.36 0 00-.197-.393l-1.246-.59-.135-.096.127-.105c.314-.179.93-.203 1.254-.05l1.247.591a.356.356 0 00.506-.333l-.035-.894.135-.118c.155-.09.383-.147.624-.157h.069c.431 0 .682.155.706.204l.035.906a.358.358 0 00.181.297l.349-.005 1.2-.689c.312-.179.928-.206 1.254-.049l.137.096-.127.105-1.2.686a.351.351 0 00-.165.405.356.356 0 00.354.257l1.73-.068.069-.003c.407 0 .65.135.702.201l-.133.11zm6.852-10.886v.005l.018.475.051.23c-.304.03-.591.111-.815.238-.319.182-.5.454-.493.745v.005l.017.476c.022.505.602.87 1.377.882l-.032.218v.012l.013.324a2.235 2.235 0 00-.629-.088c-.39 0-.763.088-1.045.252l-.69.395-.01-.294-.002-.027c-.022-.513-.616-.88-1.414-.88h-.096c-.355.017-.692.103-.947.25-.322.184-.5.456-.493.747l.012.321-.72-.34a2.03 2.03 0 00-.863-.174l-.16.01 6.944-3.988-.023.206zm-8.295 4.77l.02.472.051.228c-.302.03-.591.11-.817.235-.317.184-.491.449-.488.736v.012l.02.478c.021.502.598.87 1.376.882l-.034.228v.003l.012.318a2.205 2.205 0 00-.626-.088c-.395 0-.763.088-1.046.252l-.69.397-.009-.286-.002-.037c-.023-.512-.619-.885-1.414-.885l-.098.003a2.11 2.11 0 00-.948.25c-.321.183-.5.455-.49.747l.012.321-.72-.34a2.035 2.035 0 00-.863-.177l-.16.01 6.944-3.988-.028.216v.012h-.002zm9.739 1.357a1.42 1.42 0 01-.621.157l-1.73.066a.355.355 0 00-.14.674l1.249.593.135.096-.13.108c-.312.178-.93.203-1.255.049l-1.249-.591a.352.352 0 00-.503.333l.034.892-.137.12a1.463 1.463 0 01-.62.157h-.07c-.434 0-.682-.154-.706-.203l-.037-.905a.356.356 0 00-.18-.296l-.171-.044-.177.046-1.198.687c-.314.178-.93.203-1.254.049l-.137-.096.13-.105 1.2-.69a.356.356 0 00.165-.403.356.356 0 00-.356-.255l-1.73.068c-.44.017-.72-.132-.771-.203l.13-.105c.157-.094.383-.15.623-.157l1.73-.069a.35.35 0 00.332-.282.36.36 0 00-.197-.392l-1.246-.59-.138-.096.13-.108c.314-.179.93-.203 1.254-.049l1.25.59a.356.356 0 00.505-.333l-.037-.892.138-.117c.157-.091.383-.145.623-.157.464-.015.751.152.776.203l.032.907a.353.353 0 00.181.297l.349-.005 1.2-.687c.312-.179.93-.203 1.254-.049l.138.096-.13.105-1.2.687a.355.355 0 00.191.662l1.73-.07c.44-.017.72.133.77.202l-.13.105zm4.616-7.017v-.03l-.061-.252.586.28-.513.294-.012-.292zm-1.391-.909l-.025-.002-.096.002a2.095 2.095 0 00-.95.25c-.319.184-.498.456-.488.748l.012.32-.719-.34a2.02 2.02 0 00-.864-.177l-.162.01 2.266-1.299 1.026.488zM27.739 64.074l.515-.294.012.319.064.254-.591-.279zm2.942 1.395l-1.028-.488h.128c.358-.017.694-.105.945-.25.287-.162.459-.397.488-.657l.01-.076-.008-.069-.01-.267.72.339a2 2 0 00.864.176l.157-.01-2.266 1.302zm3.618-2.076l.027-.216-.017-.473V62.7l-.052-.223c.307-.03.594-.11.818-.24.319-.184.498-.456.49-.747l-.017-.476v-.002c-.022-.503-.599-.87-1.377-.88l.035-.23-.015-.324c.194.056.403.088.628.088.393 0 .764-.088 1.046-.25l.687-.394.012.318c.023.512.619.883 1.416.883h.096c.359-.018.692-.106.948-.25.287-.167.459-.4.486-.657l.01-.076-.006-.066-.01-.268.72.341c.243.115.542.176.866.176l.157-.01-6.948 3.98zm8.296-4.762l.024-.216-.017-.473v-.002l-.052-.228c.307-.03.597-.11.818-.238.319-.184.5-.456.49-.747l-.017-.476c-.022-.502-.591-.872-1.377-.882l.032-.23-.014-.322c.194.057.405.086.63.086.39 0 .764-.088 1.044-.25l.69-.394.012.32c.022.51.616.883 1.413.883l.096-.002c.356-.015.692-.106.947-.25.287-.165.46-.4.489-.657l.007-.079-.007-.066-.01-.267.719.34c.243.116.542.177.866.177l.155-.01-6.938 3.983zm8.293-4.762l.027-.216-.017-.473v-.002l-.052-.228c.31-.03.596-.11.817-.238.322-.186.498-.456.491-.747l-.02-.478-.06-.255 1.864.887-3.05 1.75z"/><path d="M17.894 61.728c.01.211.11.603.69.88l10.868 5.157c.326.154.728.235 1.173.235.552 0 1.097-.132 1.494-.36l25.226-14.482c.43-.248.667-.6.653-.97l-.02-.476v-.005c-.01-.21-.11-.603-.69-.877l-10.87-5.157c-.324-.154-.731-.235-1.173-.235-.552 0-1.095.13-1.492.358L18.53 60.28c-.43.248-.67.603-.655.97l.002.003.017.475zm.992-.835l25.225-14.48c.292-.164.714-.264 1.141-.264.334 0 .643.059.87.166l10.867 5.154c.206.1.285.211.287.273 0 .07-.074.198-.3.325L31.752 66.55c-.29.167-.716.265-1.143.265-.332 0-.641-.059-.867-.167l-10.867-5.156c-.17-.079-.283-.187-.285-.267v-.003c-.008-.068.069-.198.297-.328z"/></g><defs><clipPath id="clip0"><path fill="#fff" d="M0 0h58v68H0z"/></clipPath></defs></svg>