<svg width="30" height="67" fill="none" xmlns="http://www.w3.org/2000/svg"><g clip-path="url(#clip0)" fill="#139B3C"><path d="M26.693 46.706c.621-.363 1.105-1.215 1.103-1.939l-.12-42.257c0-.455-.183-.745-.423-.898l-.02-.012L24.71.112c-.284-.167-.65-.143-1.008.065L1.101 13.43C.48 13.793-.002 14.645 0 15.368l.117 42.257c0 .414.162.743.443.908l2.523 1.488.039.015c.119.063.25.094.38.094.194 0 .392-.058.592-.177l8.518-4.995c.034 2.183.062 4.235.062 5.828 0 1.61.968 6.207 5.262 6.207l.174-.048 11.72-6.861a.35.35 0 00.172-.322.349.349 0 00-.204-.3c-.039-.017-3.815-1.74-3.815-4.722v-7.623l.71-.411zM3.746 59.353l-.246.085-.128-.087-.02-.049-.002-.01-.021-.178-.12-42.262c0-.47.353-1.094.758-1.331L26.57 2.27l.114-.054.036-.012.074-.012.028-.005.026.005.024.007.115.313.119 42.257c0 .472-.353 1.094-.758 1.33l-.37.219V43.81l.673-.394a.348.348 0 00.171-.305l-.107-38.443a.347.347 0 00-.174-.303h-.343L3.662 17.58a.34.34 0 00-.169.303l.105 38.443c0 .126.067.242.174.302l.172.049.174-.049 8.437-4.947.007.347-.021.012c-.338.198-.591.648-.591 1.045.002.428.293.654.579.654l.064-.005c.003.145.005.288.01.433l-8.857 5.186zm25.189.455l-11.092 6.49c-3.655-.064-4.482-4.087-4.482-5.507 0-2.486-.065-6.087-.127-9.567-.062-3.41-.124-6.933-.124-9.317 0-2.853-1.334-4.112-2.17-4.62l9.193-5.269c1.413.02 2.559.492 3.407 1.404 1.947 2.096 1.754 5.852 1.752 5.888v15.435c0 2.689 2.48 4.405 3.643 5.063zM7.642 43.588l-.02-6.945 17.179-10.072.019 6.945-.227.134a5.695 5.695 0 00-.552-.702 4.79 4.79 0 00-.441-.419l-.012-3.947a.348.348 0 00-.172-.303h-.343L9.014 36.522a.353.353 0 00-.174.303l.015 4.758c0 .125.064.24.171.302l.174.048.172-.048 2.842-1.667c.05.19.093.396.13.617l-4.702 2.754zm4.067-4.561c.096.155.189.329.272.518l-2.44 1.43-.002-.675 2.17-1.273zm10.62-9.509l.572-.334.008 2.367v.49a4.878 4.878 0 00-.572-.289l-.007-2.234zm2.62 4.732l.388-.23a.348.348 0 00.171-.303l-.021-7.751-.005-.044-.007-.048-.017-.039-.016-.044-.029-.038-.026-.034-.034-.027-.038-.029-1.263-.745h-.343L5.845 35.394l-.071.056-.031.041-.024.032-.017.046-.017.038-.004.044-.005.048.021 7.75a.35.35 0 00.172.3l1.26.747h.003l.05.022.03.012.091.012h.003l.083-.012h.005l.112-.05 4.913-2.883.005.312c0 2.309.06 5.675.12 8.976l-8.252 4.84-.112-37.642L26.033 5.27l.104 37.64-.154.092V39.34c.007-.23.119-2.887-1.035-5.09z"/><path d="M24.308 37.603a.34.34 0 00-.346.002l-6.033 3.611a.356.356 0 00-.17.3v.877c0 .125.065.24.175.302l.171.046.174-.048 6.034-3.614a.35.35 0 00.169-.3v-.873a.353.353 0 00-.174-.303zm-.515.978l-5.345 3.2v-.061l5.345-3.197v.058zm.515 1.989a.334.334 0 00-.346.003l-6.033 3.61a.357.357 0 00-.17.303v.874c0 .128.065.242.175.305l.171.046.174-.049 6.034-3.613a.347.347 0 00.169-.3v-.874a.348.348 0 00-.174-.305zm-.515.976l-5.345 3.199v-.06l5.345-3.2v.06zm.519 1.81l-.343-.005-9.703 5.523a.347.347 0 00-.174.302v.874c0 .126.064.24.169.302l.174.051.17-.046 9.7-5.52a.35.35 0 00.176-.303v-.876a.35.35 0 00-.17-.302zm-.52.97l-9.014 5.13v-.072l9.014-5.13v.072zm.52 1.818l-.343-.003-9.703 5.52a.35.35 0 00-.174.305v.874c0 .126.064.24.169.302l.174.049.17-.044 9.7-5.525a.356.356 0 00.176-.305v-.873a.346.346 0 00-.17-.3zm-.52.968l-9.014 5.13v-.072l9.014-5.129v.07zm.52 1.818l-.343-.006-9.703 5.518a.354.354 0 00-.174.305v.874c0 .12.064.24.169.302l.174.049.17-.046 9.7-5.518a.353.353 0 00.176-.305v-.874a.346.346 0 00-.17-.3zm-.52.97l-9.014 5.128v-.073l9.014-5.128v.073zm.52 1.691l-.343-.005-9.703 5.52a.347.347 0 00-.174.303v2.212c0 .126.064.24.169.303l.174.048.17-.044 9.7-5.522a.349.349 0 00.176-.303v-2.212a.343.343 0 00-.17-.3zm-.52 2.307l-9.014 5.128v-1.409l9.014-5.128v1.409zm-9.526-6.138l.169.047.178-.051 2.672-1.636a.353.353 0 00.166-.3v-3.86a.347.347 0 00-.174-.303.334.334 0 00-.345.005l-2.671 1.631a.353.353 0 00-.167.3v3.865a.336.336 0 00.172.303zm.512-3.973l1.982-1.21v3.047l-1.982 1.214v-3.051z"/></g><defs><clipPath id="clip0"><path fill="#fff" d="M0 0h30v67H0z"/></clipPath></defs></svg>