<svg width="34" height="62" fill="none" xmlns="http://www.w3.org/2000/svg"><path d="M.053 34.059l-.005.01-.008.018-.014.024-.002.003-.006.02-.003.008-.004.018-.004.015-.003.022-.002.035-.002.004.075 26.218c0 .113.062.214.159.27l2.138 1.234h.002l.046.02.029.011.084.011h.002l.077-.009.002-.002.075-.03.029-.016L33.84 44.114a.317.317 0 00.159-.275l-.075-26.183.002-.035-.064-.184-.002-.004v-.002l-.006-.005-.022-.026-.04-.035-.009-.004h-.002l-.013-.009-.007-.004-.026-.016-2.114-1.218-.055-.024-1.27-.44L30.253.682l-.005-.037-.004-.043-.015-.035-.016-.042-.024-.03-.026-.036-.03-.022L30.1.41 29.389 0h-.32L3.952 14.39l-.066.05-.02.023-.03.041-.016.037-.018.04-.004.04-.007.043.04 13.743-3.778 5.652zm5.09-18.802L29.624 1.23l.06 21.4-2.727 3.87-15.165 8.689a.315.315 0 00-.161.273l.006 1.407c0 .111.06.216.159.27l.159.045.158-.044 12.315-7.054-2.563 3.633-7.876 4.512-3.251-.87c.015-.112.026-.223.024-.333-.002-.765-.436-1.28-1.078-1.28-.249 0-.509.077-.773.228a2.855 2.855 0 00-.778.685l-2.932-.785-.06-20.62zm20.95 12.467l-.802 1.138-13.02 7.46-.002-.675 13.824-7.922zM15.665 38.681l-.806-.219 6.143-3.522-.805 1.14-4.532 2.6zm3.67-1.372l-1.397 1.98-1.404-.376 2.801-1.604zm-9.216-.116l-1.298-.347c.13-.13.267-.241.41-.322a.944.944 0 01.454-.144c.397 0 .441.455.441.65l-.006.163zM2.85 61.138l-.073-25.257 15.212 4.077a.322.322 0 00.343-.124l14.96-21.213.073 25.036L2.85 61.138z" fill="#139B3C"/><path d="M7.505 25.34l.159.042.16-.044 19.5-11.17a.311.311 0 00.158-.274l-.005-.958a.315.315 0 00-.158-.273h-.32L7.501 23.833a.318.318 0 00-.161.276l.004.958a.33.33 0 00.161.273zm19.34-11.857v.23L7.98 24.517v-.23l18.864-10.805zM8.451 35.584c.25 0 .51-.079.776-.23.857-.492 1.525-1.643 1.523-2.62-.002-.764-.436-1.28-1.078-1.28-.249 0-.509.077-.776.23-.857.492-1.527 1.645-1.525 2.622.005.716.384 1.212.961 1.273l.12.005zm.767-3.356a.976.976 0 01.457-.142c.394 0 .44.453.44.648.002.748-.55 1.697-1.205 2.073a.95.95 0 01-.457.145c-.396 0-.44-.455-.44-.65-.003-.4.156-.855.403-1.251l.048-.07.11-.16.076-.087.103-.12.192-.184.273-.202zm-1.696-1.375l.159.041.16-.041 19.5-11.171a.32.32 0 00.16-.276l-.004-.949a.31.31 0 00-.161-.273h-.315L7.522 29.354a.315.315 0 00-.16.274l.004.949a.314.314 0 00.156.276zM26.86 19.225L7.998 30.032v-.223L26.86 19.002v.223zM7.517 28.17l.158.042.159-.041 19.498-11.175a.31.31 0 00.16-.274l-.003-1.1a.315.315 0 00-.159-.273h-.32L7.513 26.519a.319.319 0 00-.158.276l.004 1.1c0 .114.06.217.159.276zm19.335-11.999l.002.37L7.991 27.348v-.371L26.852 16.17zM7.496 21.863l.159.043.158-.043 12.74-7.3a.314.314 0 00.16-.275l-.014-4.64a.313.313 0 00-.159-.273h-.32l-12.737 7.3a.306.306 0 00-.157.273l.013 4.639a.31.31 0 00.157.276zm12.573-11.668l.01 3.913-12.107 6.934-.004-1.369-.007-2.544 12.108-6.934zm7.279 11.958h-.32l-15.25 8.737a.317.317 0 00-.159.275l.005 1.407c0 .113.061.218.158.273l.159.042.159-.042 15.253-8.738a.303.303 0 00.156-.274l-.002-1.406a.315.315 0 00-.159-.274zm-15.087 9.872l-.003-.678 14.614-8.373.003.675-14.614 8.376z" fill="#139B3C"/></svg>