<svg width="60" height="59" fill="none" xmlns="http://www.w3.org/2000/svg"><g clip-path="url(#clip0)" fill="#139B3C"><path d="M14.669 33.44c-.866.446-1.346 1.065-1.354 1.747-.009.682.459 1.312 1.311 1.775.817.443 1.896.686 3.045.686 1.081 0 2.103-.222 2.881-.62.866-.441 1.346-1.065 1.355-1.747.006-.682-.457-1.312-1.312-1.775-.815-.443-1.896-.686-3.045-.686-1.08.002-2.105.222-2.881.62zm6.228 1.034c.259.25.4.53.396.803-.004.328-.214.656-.59.94a2.776 2.776 0 01-.432.265c-.692.356-1.616.552-2.602.552-.375 0-.747-.03-1.1-.087l-.096-.017-.24-.045-.094-.021a4.665 4.665 0 01-.309-.08h-.004c-.1-.029-.197-.06-.292-.093l-.087-.032-.2-.08-.081-.035-.254-.125c-.635-.346-.995-.79-.99-1.228.004-.436.376-.875 1.02-1.205.691-.356 1.616-.552 2.604-.552 1.035 0 2.038.221 2.755.613.24.13.44.275.596.427zm21.577-9.551c.946 0 1.847-.168 2.577-.477.103-.043.205-.092.302-.14.864-.444 1.346-1.064 1.352-1.748l-.004-.119v-.008c-.049-.633-.508-1.215-1.307-1.647-.817-.443-1.898-.688-3.045-.688-1.081 0-2.105.221-2.882.62-.865.443-1.345 1.063-1.352 1.746-.008.682.457 1.313 1.312 1.775.815.443 1.898.686 3.047.686zm-3.747-2.452c.006-.437.376-.875 1.02-1.206.694-.355 1.618-.552 2.604-.552 1.035 0 2.04.222 2.757.614.159.087.298.179.423.275.366.294.571.624.565.952-.004.437-.377.876-1.018 1.206-.694.356-1.618.552-2.604.552-1.035 0-2.038-.224-2.755-.614-.635-.345-.996-.792-.992-1.227z"/><path d="M59.981 23.85l-.021-.048-.02-.027-.029-.039-.025-.023-.03-.024-.008-.004-.009-.006-19.136-10.377c.154-.986.234-1.96.232-2.906-.01-3.694-1.324-6.474-3.52-7.814l-.064-.051h-.002L34.461.84C33.507.285 32.413 0 31.216 0c-1.704 0-3.534.562-5.434 1.666C19.207 5.49 13.877 14.785 13.9 22.39c.005 1.415.19 2.695.546 3.813L.186 33.517l-.006.006-.01.004-.028.024-.028.021-.03.036-.018.026-.024.049-.008.026-.013.076v.005l-.02 2.043a.309.309 0 00.16.274l3.235 1.754-3.21 1.644-.006.004-.01.005-.028.021-.028.023-.03.037-.018.025-.024.05-.008.027-.013.077v.006l-.02 2.039a.31.31 0 00.16.275l3.508 1.902-3.483 1.785-.006.004-.01.005-.028.021-.028.023-.03.039-.018.025-.024.047-.008.026-.013.079v.002l-.02 2.043a.307.307 0 00.16.275L19.7 58.964l.043.015.023.01.079.011.076-.01.023-.01.042-.014 39.829-20.432a.309.309 0 00.167-.273l.023-2.043-.01-.08-.009-.026-.02-.05-.02-.027-.03-.038-.025-.022-.03-.023-.008-.002-.008-.007-3.51-1.902 3.48-1.787a.304.304 0 00.167-.271l.023-2.043-.01-.081-.009-.026-.02-.049-.02-.025-.03-.038-.025-.022-.03-.025-.008-.005-.008-.004-3.237-1.755 3.21-1.645a.304.304 0 00.166-.27l.023-2.044-.01-.08-.017-.022zM34.986 2.366l.252.038.101.02c.095.019.19.038.286.063l.057.013c.482.13.937.315 1.36.562l.02.009c2.054 1.21 3.25 3.794 3.262 7.326.02 7.412-5.173 16.468-11.577 20.192-1.81 1.05-3.534 1.585-5.129 1.585-1.087 0-2.059-.254-2.89-.727l-.074-.047a5.634 5.634 0 01-1.661-1.523l-.034-.045a6.022 6.022 0 01-.243-.362l-.009-.015a6.24 6.24 0 01-.211-.37l-.07-.137-.13-.262-.071-.155a7.83 7.83 0 01-.155-.377l-.067-.19-.083-.245-.065-.213a9.958 9.958 0 01-.08-.296l-.068-.273c-.024-.108-.05-.22-.072-.33l-.038-.204a8.323 8.323 0 01-.053-.335l-.028-.175a17.43 17.43 0 01-.057-.507l-.01-.15c-.011-.14-.022-.278-.03-.42l-.006-.165a11.96 11.96 0 01-.013-.573c-.021-7.409 5.173-16.465 11.575-20.189 1.809-1.05 3.535-1.585 5.128-1.585l.087.002c.098.002.193.004.288.009l.14.01.239.024.129.017zM23.618 32.79c.154 0 .311-.008.468-.017 1.699.767 3.818 1.183 6.061 1.183 2.093 0 4.084-.369 5.694-1.05a10.577 10.577 0 00.666-.312c1.828-.94 2.843-2.224 2.858-3.617a3.043 3.043 0 00-.395-1.519c-.442-.81-1.25-1.549-2.376-2.16-.28-.15-.576-.29-.88-.418 1.925-2.637 3.446-5.675 4.339-8.721l14.778 8.012-14.84 7.614-19.58 10.044-15.223-8.255 10.257-5.26a6.257 6.257 0 002.037 1.943l2.89 1.692.072.03c.919.528 1.985.811 3.174.811zm12.193-.543l-.108.047a8.61 8.61 0 01-.43.177c-.35.134-.72.255-1.106.36l-.396.102-.152.034c-.095.024-.193.043-.29.064l-.17.034c-.096.02-.196.036-.297.056l-.16.025c-.139.021-.283.045-.424.062l-.06.008a14.73 14.73 0 01-.438.047l-.158.015c-.108.01-.216.02-.326.028l-.174.01c-.11.007-.222.011-.332.015l-.156.009c-.161.004-.324.006-.487.006h-.019c-1.722-.002-3.366-.257-4.784-.735 1.192-.247 2.433-.741 3.707-1.482 2.306-1.34 4.458-3.36 6.284-5.737.34.136.664.29.971.456 1.591.862 2.46 1.974 2.448 3.129-.013 1.155-.91 2.25-2.524 3.078-.136.062-.277.128-.42.192zm-21.16-5.46c.079.202.165.394.254.582L3.381 33.282a.31.31 0 00-.17.271c0 .115.064.22.164.275l16.879 9.154.144.036.14-.034 36.098-18.52a.307.307 0 00.167-.272.313.313 0 00-.16-.275l-16.302-8.84c.093-.38.175-.759.25-1.138l18.444 10.004L19.87 44.041.986 33.8l13.665-7.014zm5.292 19.931l.042-.014 14.078-7.224a11.67 11.67 0 002.116-.737c.112-.052.22-.105.326-.16.728-.373 1.324-.801 1.783-1.27l15.278-7.838 1.263.684-15.273 7.836-19.148 9.823-15.222-8.255.692-.354 13.82 7.495.042.014.023.01.078.01.076-.01.026-.01zm0 5.989l.042-.015 13.116-6.73c.3-.053.594-.115.884-.185a11.508 11.508 0 002.524-.918c.984-.503 1.73-1.11 2.213-1.781l14.573-7.476 1.538.833-14.84 7.614-19.58 10.047L5.19 45.843l.965-.496 13.547 7.343.042.017.023.01.079.011.076-.01.02-.011zm39.094-16.498L19.87 56.305.986 46.062l3.336-1.712.675.364-1.614.829a.31.31 0 00-.17.27c0 .115.064.222.164.275l16.88 9.152.143.036.14-.034 36.098-18.515a.303.303 0 00.167-.27.31.31 0 00-.16-.275l-2.18-1.18 1.204-.618 3.368 1.825zm0-6.276L19.87 50.03.986 39.786l3.064-1.572.674.367-1.343.688a.31.31 0 00-.17.27c0 .113.064.222.164.275l16.879 9.152.144.038.14-.034 36.098-18.52a.304.304 0 00.167-.271.313.313 0 00-.16-.275l-1.907-1.034 1.204-.617 3.097 1.68z"/><path d="M28.679 6.467a14.02 14.02 0 00-1.403.94c-.277.21-.548.432-.819.667-4.015 3.49-6.994 9.441-6.98 14.448.011 4.124 2.108 6.79 5.339 6.79h.002c.148 0 .294-.007.444-.018l.038-.004a7.58 7.58 0 00.43-.047l.057-.008c.14-.022.283-.05.425-.08l.07-.014a6.52 6.52 0 00.425-.109l.072-.021c.142-.043.288-.088.43-.139l.071-.025c.146-.053.294-.111.44-.17l.062-.026c.152-.066.307-.134.459-.209l.04-.02c.159-.076.322-.159.485-.248v-.003l.277-.155c5.09-2.961 9.222-10.16 9.203-16.054-.01-4.125-2.107-6.788-5.34-6.788-1.326-.002-2.748.433-4.227 1.293zm8.958 5.495c.015 4.985-3.043 10.937-7.103 14.262-.581.475-1.182.897-1.798 1.255-1.384.805-2.702 1.214-3.922 1.214-2.905 0-4.719-2.366-4.73-6.176-.014-5.694 3.978-12.656 8.902-15.515 1.383-.805 2.706-1.214 3.922-1.214 2.905-.002 4.718 2.365 4.729 6.174z"/><path d="M32.326 16.587a2.083 2.083 0 00-.662-.503 2.728 2.728 0 00-1.064-.251 3.617 3.617 0 00-.402 0 4 4 0 00-.322.034l-.015-4.934c.119-.004.231.008.333.038.385.113.562.45.643.712.095.313.347.507.656.507a.938.938 0 00.472-.14l.256-.19c.47-.435.71-1.132.56-1.617-.262-.857-.816-1.451-1.561-1.67l-.184-.045a2.74 2.74 0 00-1.29.064.656.656 0 00-.405-.326l-.182-.024a.927.927 0 00-.472.14c-.414.242-.75.75-.838 1.251l-.275.243a8.862 8.862 0 00-1.677 2.126c-.74 1.291-1.15 2.678-1.145 3.907.002.648.144 1.223.408 1.662.186.309.432.562.732.75.394.25.868.381 1.407.396.182.002.364-.004.55-.028l.013 4.92a1.062 1.062 0 01-.408-.065l-.127-.066-.064-.044-.042-.034-.074-.073-.017-.019-.076-.096-.004-.008-.068-.115-.006-.011-.051-.12-.01-.027-.037-.117-.01-.039-.032-.15c-.068-.38-.334-.625-.685-.625a.953.953 0 00-.47.138l-.161.111a1.804 1.804 0 00-.317.33c-.282.377-.434.863-.366 1.25.175 1.026.702 1.76 1.48 2.07l.191.066c.193.057.398.087.614.093.283.005.584-.034.89-.121a.656.656 0 00.557.294c.11 0 .222-.024.336-.073l.015-.006.118-.058c.392-.227.718-.7.826-1.18a8.146 8.146 0 001.303-1.376c.239-.315.459-.65.662-1.003.74-1.293 1.149-2.678 1.145-3.905 0-.735-.165-1.366-.474-1.822l-.174-.221zm-2.435 5.666l-.01-3.97.25.027c.255.047.452.15.581.31.07.086.123.189.16.314.045.15.069.32.069.527.002.681-.229 1.461-.65 2.194-.12.209-.256.413-.4.598zm-2.05-5.994c-.294-.028-.544-.122-.717-.273a.898.898 0 01-.248-.35 1.456 1.456 0 01-.095-.553c0-.68.229-1.46.65-2.194a5.27 5.27 0 01.4-.601l.01 3.97z"/></g><defs><clipPath id="clip0"><path fill="#fff" d="M0 0h60v59H0z"/></clipPath></defs></svg>