<svg width="15" height="15" fill="none" xmlns="http://www.w3.org/2000/svg"><path fill-rule="evenodd" clip-rule="evenodd" d="M13.63.902H1.673c-.573 0-1.037.448-1.037 1V13.86c0 .552.464 1 1.037 1H13.63c.573 0 1.037-.448 1.037-1V1.902c0-.552-.464-1-1.037-1zM4.889 12.587H2.77V6.284h2.12v6.303zm-1.06-7.164h-.013c-.711 0-1.171-.484-1.171-1.089 0-.618.474-1.088 1.199-1.088.725 0 1.171.47 1.185 1.088 0 .605-.46 1.09-1.2 1.09zm8.704 7.164h-2.12V9.214c0-.847-.307-1.425-1.073-1.425-.586 0-.935.39-1.088.767-.056.134-.07.322-.07.51v3.52h-2.12s.029-5.711 0-6.302h2.12v.892c.282-.43.786-1.04 1.91-1.04 1.395 0 2.44.9 2.44 2.836v3.615z" fill="#fff"/></svg>