<svg width="16" height="14" fill="none" xmlns="http://www.w3.org/2000/svg"><path fill-rule="evenodd" clip-rule="evenodd" d="M13.654 2.552A3.15 3.15 0 0015.01.808a6.093 6.093 0 01-1.959.765 3.049 3.049 0 00-2.25-.995c-1.704 0-3.085 1.411-3.085 3.152 0 .247.028.488.08.719-2.563-.132-4.835-1.387-6.356-3.294a3.191 3.191 0 00-.418 1.584 3.17 3.17 0 001.372 2.624A3.02 3.02 0 01.997 4.97v.04c0 1.526 1.063 2.8 2.473 3.09a3.024 3.024 0 01-1.393.054c.392 1.252 1.531 2.164 2.88 2.19a6.103 6.103 0 01-4.565 1.305 8.592 8.592 0 004.728 1.416c5.672 0 8.774-4.803 8.774-8.97a9.36 9.36 0 00-.009-.407c.603-.445 1.126-1 1.539-1.632a6.06 6.06 0 01-1.771.496z" fill="#fff"/></svg>