<svg xmlns="http://www.w3.org/2000/svg" width="197.902" height="176.726" viewBox="0 0 197.902 176.726">
  <g id="Сгруппировать_1002" data-name="Сгруппировать 1002" transform="translate(-3484.754 707.499) rotate(-25)">
    <g id="Сгруппировать_1001" data-name="Сгруппировать 1001" transform="translate(3426.878 893.881)">
      <g id="Сгруппировать_999" data-name="Сгруппировать 999" transform="translate(1.3)">
        <path id="Контур_1605" data-name="Контур 1605" d="M3427.491,980.559l2.473-2.106c1.572,1.845,3.25,3.653,4.994,5.374l-2.284,2.314C3430.865,984.354,3429.121,982.476,3427.491,980.559Zm10.831,10.686,2.076-2.5c1.872,1.553,3.835,3.049,5.84,4.452l-1.864,2.664C3442.3,994.409,3440.261,992.855,3438.322,991.245Zm12.453,8.718,1.642-2.808c2.094,1.225,4.277,2.386,6.484,3.452l-1.413,2.926C3455.2,1002.431,3452.946,1001.23,3450.774,999.963Zm13.693,6.6,1.174-3.03c2.276.881,4.615,1.682,6.95,2.378l-.93,3.117C3469.244,1008.3,3466.824,1007.472,3464.468,1006.559Zm14.564,4.346.678-3.178c2.387.508,4.821.926,7.239,1.237l-.418,3.225C3484.026,1011.865,3481.5,1011.433,3479.032,1010.905Zm15.079,1.945.148-3.249c2.441.112,4.909.119,7.334.023l.131,3.246C3499.205,1012.973,3496.645,1012.965,3494.11,1012.85Zm15.2-.615-.414-3.225q1.294-.166,2.58-.375,2.336-.375,4.638-.886l.7,3.174q-2.4.531-4.821.922Q3510.664,1012.062,3509.314,1012.236Zm14.867-3.278-.979-3.1q.874-.276,1.737-.568,2.613-.883,5.164-1.93l1.231,3.009q-2.645,1.081-5.353,2Q3525.083,1008.674,3524.181,1008.958Zm12.591-8.667c2.16-1.1,4.313-2.314,6.4-3.6l1.708,2.767c-2.162,1.333-4.394,2.587-6.629,3.73Zm12.492-7.7c1.965-1.441,3.9-2.981,5.745-4.575l2.126,2.458c-1.912,1.653-3.914,3.246-5.949,4.738Zm11.11-9.595c1.723-1.744,3.388-3.573,4.945-5.429l2.49,2.089c-1.615,1.924-3.337,3.817-5.122,5.624Zm9.438-11.241c1.416-1.994,2.759-4.066,3.993-6.158l2.8,1.655c-1.28,2.167-2.674,4.316-4.143,6.384Zm7.45-12.625c1.058-2.206,2.028-4.473,2.877-6.743l3.043,1.144c-.883,2.356-1.888,4.713-2.99,7.005Zm5.17-13.72c.655-2.3,1.248-4.7,1.756-7.143l3.183.663c-.525,2.519-1.136,5-1.811,7.374Zm3.036-14.4q.532-3.649.863-7.338l3.236.3q-.344,3.769-.88,7.51Zm1.374-14.727q.179-3.7.229-7.421l3.251.049q-.058,3.77-.234,7.527Zm.241-14.856c-.025-2.486-.076-4.971-.139-7.453l3.248-.083q.1,3.748.14,7.5Z" transform="translate(-3427.491 -893.881)" fill="#feac0c"/>
      </g>
      <g id="Сгруппировать_1000" data-name="Сгруппировать 1000" transform="translate(0 82.891)">
        <path id="Контур_1606" data-name="Контур 1606" d="M3426.877,952.519l3.253.053.246-16.027,15.969,1.417.284-3.242L3427.182,933Z" transform="translate(-3426.877 -932.999)" fill="#feac0c"/>
      </g>
    </g>
  </g>
</svg>
