<svg xmlns="http://www.w3.org/2000/svg" width="189" height="181" viewBox="0 0 189 181"><defs><mask id="jyaxb" width="2" height="2" x="-1" y="-1"><path fill="#fff" d="M41 0h148v141H41z"/><path d="M46.436 140.977a107.566 107.566 0 0 1-5.16-33.013C41.276 48.608 89.565.32 148.92.32c13.744 0 27.136 2.557 39.804 7.6l-7.269 18.254c-10.344-4.119-21.29-6.207-32.535-6.207-48.521 0-87.996 39.475-87.996 87.997a87.938 87.938 0 0 0 4.215 26.992z"/></mask><filter id="jyaxa" width="228" height="221" x="-14" y="-25" filterUnits="userSpaceOnUse"><feOffset dx="-30" dy="30" in="SourceGraphic" result="FeOffset1032Out"/><feGaussianBlur in="FeOffset1032Out" result="FeGaussianBlur1033Out" stdDeviation="6 6"/></filter></defs><g><g><g filter="url(#jyaxa)"><path fill="none" d="M46.436 140.977a107.566 107.566 0 0 1-5.16-33.013C41.276 48.608 89.565.32 148.92.32c13.744 0 27.136 2.557 39.804 7.6l-7.269 18.254c-10.344-4.119-21.29-6.207-32.535-6.207-48.521 0-87.996 39.475-87.996 87.997a87.938 87.938 0 0 0 4.215 26.992z" mask="url(&quot;#jyaxb&quot;)"/><path fill-opacity=".16" d="M46.436 140.977a107.566 107.566 0 0 1-5.16-33.013C41.276 48.608 89.565.32 148.92.32c13.744 0 27.136 2.557 39.804 7.6l-7.269 18.254c-10.344-4.119-21.29-6.207-32.535-6.207-48.521 0-87.996 39.475-87.996 87.997a87.938 87.938 0 0 0 4.215 26.992z"/></g><path fill="#ea6432" d="M46.436 140.977a107.566 107.566 0 0 1-5.16-33.013C41.276 48.608 89.565.32 148.92.32c13.744 0 27.136 2.557 39.804 7.6l-7.269 18.254c-10.344-4.119-21.29-6.207-32.535-6.207-48.521 0-87.996 39.475-87.996 87.997a87.938 87.938 0 0 0 4.215 26.992z"/></g></g></svg>