<svg xmlns="http://www.w3.org/2000/svg" width="102.29" height="121.998" viewBox="0 0 102.29 121.998">
  <g id="Сгруппировать_1575" data-name="Сгруппировать 1575" transform="translate(0 115.454) rotate(-86)">
    <g id="Сгруппировать_1573" data-name="Сгруппировать 1573" transform="translate(0 0)">
      <path id="Контур_1820" data-name="Контур 1820" d="M93.077,93.821,91.13,91.6c1.684-1.48,3.362-2.98,5-4.521l2.022,2.149C96.488,90.8,94.787,92.322,93.077,93.821Zm9.936-9.474-2.168-2a62.791,62.791,0,0,0,4.256-5.085l2.365,1.766A65.274,65.274,0,0,1,103.012,84.347Zm8.248-11.19-2.588-1.42c.354-.65.7-1.31,1.014-1.982a31.863,31.863,0,0,0,1.576-3.975l2.809.9a34.43,34.43,0,0,1-1.72,4.341C112.009,71.743,111.646,72.457,111.261,73.157Zm4.285-13.4-2.936-.316A28.473,28.473,0,0,0,112.594,53l2.928-.35A31.43,31.43,0,0,1,115.546,59.758Zm-4.531-12.925a19.145,19.145,0,0,0-3.292-5.347l2.22-1.947a22.227,22.227,0,0,1,3.8,6.163Zm-8.137-9.358A24.354,24.354,0,0,0,97,34.994l.806-2.84a27.655,27.655,0,0,1,6.582,2.782ZM90.576,33.8c-1.968-.212-4.139-.327-6.636-.358l.035-2.951c2.594.031,4.854.152,6.915.373Zm-13.37-.273-2.072.06c-1.59.048-3.171.094-4.731.123l-.054-2.952c1.55-.027,3.119-.075,4.7-.121l2.078-.062Zm-13.694.09c-2.288-.119-4.6-.335-6.878-.639l.391-2.926c2.2.294,4.433.5,6.64.618Zm-13.678-1.82c-2.245-.483-4.494-1.058-6.688-1.711l.841-2.828c2.12.631,4.3,1.187,6.467,1.653ZM36.612,27.867c-2.135-.816-4.271-1.728-6.345-2.7l1.258-2.671c2.007.947,4.073,1.828,6.141,2.618ZM24.143,21.986c-2-1.139-3.975-2.363-5.867-3.636L19.927,15.9c1.828,1.231,3.738,2.417,5.674,3.515ZM12.7,14.274c-1.8-1.432-3.565-2.944-5.235-4.5L9.478,7.615c1.614,1.5,3.317,2.963,5.062,4.346ZM2.6,4.873Q1.267,3.41,0,1.887L2.268,0Q3.493,1.472,4.783,2.88Z" fill="#ea6432"/>
    </g>
    <g id="Сгруппировать_1574" data-name="Сгруппировать 1574" transform="translate(89.684 77.16)">
      <path id="Контур_1821" data-name="Контур 1821" d="M17.725,17.866l.036-2.954L3.207,14.751,4.432.246,1.488,0,0,17.666Z" fill="#ea6432"/>
    </g>
  </g>
</svg>
