<svg xmlns="http://www.w3.org/2000/svg" width="172" height="196" viewBox="0 0 172 196"><defs><filter id="z6yoa" width="199" height="227" x="-14" y="-14" filterUnits="userSpaceOnUse"><feOffset in="SourceGraphic" result="FeOffset1041Out"/><feGaussianBlur in="FeOffset1041Out" result="FeGaussianBlur1042Out" stdDeviation="6 6"/></filter></defs><g><g transform="rotate(11 85.5 99.5)"><g><g filter="url(#z6yoa)"><path fill="none" d="M138.08 20.881H27.9c-5.288 0-9.59 4.313-9.59 9.584v110.193c0 5.275 4.302 9.591 9.59 9.591h68.09l30.136 30.138v-30.138h11.956c5.284 0 9.591-4.316 9.591-9.59V30.464c0-5.271-4.307-9.584-9.591-9.584"/></g><path fill="#91bf3e" d="M138.08 20.881H27.9c-5.288 0-9.59 4.313-9.59 9.584v110.193c0 5.275 4.302 9.591 9.59 9.591h68.09l30.136 30.138v-30.138h11.956c5.284 0 9.591-4.316 9.591-9.59V30.464c0-5.271-4.307-9.584-9.591-9.584"/></g><g><path fill="#fff" d="M65.684 108.043L54.59 127.005H37.737l19.326-32.9-18.44-31.49h16.58L65.797 80.51l10.576-17.894h16.579L74.434 94.197l19.233 32.808h-16.77z"/></g><g><path fill="#fff" d="M96.49 76.9c0-7.68 6.673-11.934 12.28-15.348 4.19-2.596 8.028-4.724 8.028-7.377 0-2.182-1.712-3.882-5.074-3.882-3.486 0-5.786 2.518-7.087 5.597l-8.858-4.481c3.007-6.195 8.2-9.925 16.059-9.925 9.575 0 15.401 5.37 15.401 12.69 0 7.149-5.967 10.792-11.69 14.286-3.825 2.36-7.542 4.426-8.735 7.083h20.255v9.617h-30.58z"/></g></g></g></svg>